<svg xmlns="http://www.w3.org/2000/svg" xmlns:xlink="http://www.w3.org/1999/xlink" contentStyleType="text/css" height="507px" preserveAspectRatio="none" style="width:537px;height:507px;background:#F0F8FF;" version="1.1" viewBox="0 0 537 507" width="537px" zoomAndPan="magnify"><defs/><g><rect fill="#F0F8FF" height="507" style="stroke:none;stroke-width:1.0;" width="537" x="0" y="0"/><rect fill="none" height="309.7051" style="stroke:#000000;stroke-width:1.5;" width="510.0532" x="10" y="113.2871"/><rect fill="none" height="193.7734" style="stroke:#000000;stroke-width:1.5;" width="490.0532" x="20" y="222.2188"/><line style="stroke:#181818;stroke-width:0.5;stroke-dasharray:5.0,5.0;" x1="61" x2="61" y1="52.9766" y2="439.9922"/><line style="stroke:#181818;stroke-width:0.5;stroke-dasharray:5.0,5.0;" x1="451.4116" x2="451.4116" y1="52.9766" y2="439.9922"/><rect fill="#DDDDDD" height="30.4883" rx="2.5" ry="2.5" style="stroke:#666666;stroke-width:0.5;" width="62.0156" x="30" y="21.4883"/><text fill="#333333" font-family="sans-serif" font-size="14" lengthAdjust="spacing" textLength="48.0156" x="37" y="42.0234">Worker</text><rect fill="#DDDDDD" height="30.4883" rx="2.5" ry="2.5" style="stroke:#666666;stroke-width:0.5;" width="62.0156" x="30" y="438.9922"/><text fill="#333333" font-family="sans-serif" font-size="14" lengthAdjust="spacing" textLength="48.0156" x="37" y="459.5273">Worker</text><rect fill="#DDDDDD" height="46.9766" rx="2.5" ry="2.5" style="stroke:#666666;stroke-width:0.5;" width="95.6416" x="404.4116" y="5"/><text fill="#333333" font-family="sans-serif" font-size="14" lengthAdjust="spacing" textLength="81.6416" x="411.4116" y="25.5352">Propagation</text><text fill="#333333" font-family="sans-serif" font-size="14" lengthAdjust="spacing" textLength="47.332" x="428.5664" y="42.0234">Service</text><rect fill="#DDDDDD" height="46.9766" rx="2.5" ry="2.5" style="stroke:#666666;stroke-width:0.5;" width="95.6416" x="404.4116" y="438.9922"/><text fill="#333333" font-family="sans-serif" font-size="14" lengthAdjust="spacing" textLength="81.6416" x="411.4116" y="459.5273">Propagation</text><text fill="#333333" font-family="sans-serif" font-size="14" lengthAdjust="spacing" textLength="47.332" x="428.5664" y="476.0156">Service</text><rect fill="#EEEEEE" height="3" style="stroke:#EEEEEE;stroke-width:1.0;" width="530.0532" x="0" y="83.6318"/><line style="stroke:#000000;stroke-width:1.0;" x1="0" x2="530.0532" y1="83.6318" y2="83.6318"/><line style="stroke:#000000;stroke-width:1.0;" x1="0" x2="530.0532" y1="86.6318" y2="86.6318"/><rect fill="#EEEEEE" height="23.3105" style="stroke:#000000;stroke-width:2.0;" width="103.064" x="213.4946" y="72.9766"/><text fill="#333333" font-family="sans-serif" font-size="13" font-weight="bold" lengthAdjust="spacing" textLength="84.7793" x="219.4946" y="89.5449">Worker Loop</text><path d="M10,113.2871 L84.4468,113.2871 L84.4468,120.5977 L74.4468,130.5977 L10,130.5977 L10,113.2871 " fill="#EEEEEE" style="stroke:#000000;stroke-width:1.5;"/><rect fill="none" height="309.7051" style="stroke:#000000;stroke-width:1.5;" width="510.0532" x="10" y="113.2871"/><text fill="#333333" font-family="sans-serif" font-size="13" font-weight="bold" lengthAdjust="spacing" textLength="29.4468" x="25" y="126.8555">loop</text><text fill="#333333" font-family="sans-serif" font-size="11" font-weight="bold" lengthAdjust="spacing" textLength="105.0371" x="99.4468" y="125.9219">[Each Transaction]</text><line style="stroke:#666666;stroke-width:1.0;" x1="61.0078" x2="103.0078" y1="151.9082" y2="151.9082"/><line style="stroke:#666666;stroke-width:1.0;" x1="103.0078" x2="103.0078" y1="151.9082" y2="164.9082"/><line style="stroke:#666666;stroke-width:1.0;" x1="62.0078" x2="103.0078" y1="164.9082" y2="164.9082"/><polygon fill="#666666" points="72.0078,160.9082,62.0078,164.9082,72.0078,168.9082,68.0078,164.9082" style="stroke:#666666;stroke-width:1.0;"/><text fill="#333333" font-family="sans-serif" font-size="13" lengthAdjust="spacing" textLength="160.6719" x="68.0078" y="147.166">Generate new transaction</text><line style="stroke:#666666;stroke-width:1.0;" x1="61.0078" x2="103.0078" y1="194.2188" y2="194.2188"/><line style="stroke:#666666;stroke-width:1.0;" x1="103.0078" x2="103.0078" y1="194.2188" y2="207.2188"/><line style="stroke:#666666;stroke-width:1.0;" x1="62.0078" x2="103.0078" y1="207.2188" y2="207.2188"/><polygon fill="#666666" points="72.0078,203.2188,62.0078,207.2188,72.0078,211.2188,68.0078,207.2188" style="stroke:#666666;stroke-width:1.0;"/><text fill="#333333" font-family="sans-serif" font-size="13" lengthAdjust="spacing" textLength="101.6133" x="68.0078" y="189.4766">Sign transaction</text><path d="M20,222.2188 L82.1387,222.2188 L82.1387,229.5293 L72.1387,239.5293 L20,239.5293 L20,222.2188 " fill="#EEEEEE" style="stroke:#000000;stroke-width:1.5;"/><rect fill="none" height="193.7734" style="stroke:#000000;stroke-width:1.5;" width="490.0532" x="20" y="222.2188"/><text fill="#333333" font-family="sans-serif" font-size="13" font-weight="bold" lengthAdjust="spacing" textLength="17.1387" x="35" y="235.7871">alt</text><text fill="#333333" font-family="sans-serif" font-size="11" font-weight="bold" lengthAdjust="spacing" textLength="170.5698" x="97.1387" y="234.8535">[Broadcast Protocol is Stream]</text><polygon fill="#666666" points="440.2324,256.8398,450.2324,260.8398,440.2324,264.8398,444.2324,260.8398" style="stroke:#666666;stroke-width:1.0;"/><line style="stroke:#666666;stroke-width:1.0;" x1="61.0078" x2="446.2324" y1="260.8398" y2="260.8398"/><text fill="#333333" font-family="sans-serif" font-size="13" lengthAdjust="spacing" textLength="247.2285" x="68.0078" y="256.0977">ProcessTransaction(tx.ExtendedBytes())</text><line style="stroke:#000000;stroke-width:1.0;stroke-dasharray:2.0,2.0;" x1="20" x2="510.0532" y1="269.8398" y2="269.8398"/><text fill="#333333" font-family="sans-serif" font-size="11" font-weight="bold" lengthAdjust="spacing" textLength="161.7559" x="25" y="280.4746">[Broadcast Protocol is HTTP]</text><polygon fill="#666666" points="440.2324,301.1055,450.2324,305.1055,440.2324,309.1055,444.2324,305.1055" style="stroke:#666666;stroke-width:1.0;"/><line style="stroke:#666666;stroke-width:1.0;" x1="61.0078" x2="446.2324" y1="305.1055" y2="305.1055"/><text fill="#333333" font-family="sans-serif" font-size="13" lengthAdjust="spacing" textLength="367.2246" x="68.0078" y="300.3633">sendToPropagationServer(ctx, logger, tx.ExtendedBytes());</text><polygon fill="#666666" points="72.0078,330.416,62.0078,334.416,72.0078,338.416,68.0078,334.416" style="stroke:#666666;stroke-width:1.0;"/><line style="stroke:#666666;stroke-width:1.0;stroke-dasharray:2.0,2.0;" x1="66.0078" x2="451.2324" y1="334.416" y2="334.416"/><text fill="#333333" font-family="sans-serif" font-size="13" lengthAdjust="spacing" textLength="94.5864" x="78.0078" y="329.6738">HTTP response</text><line style="stroke:#000000;stroke-width:1.0;stroke-dasharray:2.0,2.0;" x1="20" x2="510.0532" y1="343.416" y2="343.416"/><text fill="#333333" font-family="sans-serif" font-size="11" font-weight="bold" lengthAdjust="spacing" textLength="160.6763" x="25" y="354.0508">[Broadcast Protocol is gRPC]</text><polygon fill="#666666" points="440.2324,374.6816,450.2324,378.6816,440.2324,382.6816,444.2324,378.6816" style="stroke:#666666;stroke-width:1.0;"/><line style="stroke:#666666;stroke-width:1.0;" x1="61.0078" x2="446.2324" y1="378.6816" y2="378.6816"/><text fill="#333333" font-family="sans-serif" font-size="13" lengthAdjust="spacing" textLength="367.2246" x="68.0078" y="373.9395">sendToPropagationServer(ctx, logger, tx.ExtendedBytes());</text><polygon fill="#666666" points="72.0078,403.9922,62.0078,407.9922,72.0078,411.9922,68.0078,407.9922" style="stroke:#666666;stroke-width:1.0;"/><line style="stroke:#666666;stroke-width:1.0;stroke-dasharray:2.0,2.0;" x1="66.0078" x2="451.2324" y1="407.9922" y2="407.9922"/><text fill="#333333" font-family="sans-serif" font-size="13" lengthAdjust="spacing" textLength="93.9136" x="78.0078" y="403.25">gRPC response</text><text fill="#333333" font-family="sans-serif" font-size="10" lengthAdjust="spacing" textLength="155.4346" x="0" y="497.6367">Last Modified On: 24-Feb-2025</text><!--SRC=[nLF1QXin4BthAmQNK1lYK2YKak0Sd6JRGqrDRSYbbuaqknMMDSjeqjYK_dkrcoN8QKAWFMHWjPBcpNjFWvGsFhOek8KRj9j6-3Qw2muiyAPwLtsiAfCU48vgl0rQSTG1yhwF0e8YV3SaF_HXp5kufDf7WXiMHvAWpbaC0IZGbgAceZullUxXbm6Oz-X3hhpxsELb7-QtALXiTYWS_fScZ-gjRp7glr4PKrAChbas92F01FVJm_HIkCK6rNFy7bSaFxsb7bmaZ9dDXcBumjp2R6P2zxz2-mFMWZ6XxO6GOm1EpuVPANoYI89A4EaEj80_Wr_v9lwDmw0m5qPdCMbdJzdcTli4AnN2RGyw92pESDejBALKs1thxkHgfnGTkVbUAOqdatij2ecU4VkyNYzVaagPSit5LjTOah7LtJ44RXgIOtX2_Eo1kAY5QT6QJXs4KiinqOjUcs_BYzVpsga_zXgTwJuJgDRy95cxAzNPNh3pjIS7NxEd8vTlotZat7InM4ptEKOJymS0]--></g></svg>
