<svg xmlns="http://www.w3.org/2000/svg" xmlns:xlink="http://www.w3.org/1999/xlink" contentStyleType="text/css" height="961px" preserveAspectRatio="none" style="width:660px;height:961px;background:#F0F8FF;" version="1.1" viewBox="0 0 660 961" width="660px" zoomAndPan="magnify"><defs/><g><rect fill="#F0F8FF" height="961" style="stroke:none;stroke-width:1.0;" width="660" x="0" y="0"/><rect fill="none" height="263.75" style="stroke:#000000;stroke-width:1.5;" width="633.3281" x="10" y="405.082"/><rect fill="none" height="88.9316" style="stroke:#000000;stroke-width:1.5;" width="310.418" x="332.9102" y="770.7637"/><line style="stroke:#181818;stroke-width:0.5;stroke-dasharray:5.0,5.0;" x1="65" x2="65" y1="69.9766" y2="876.6953"/><line style="stroke:#181818;stroke-width:0.5;stroke-dasharray:5.0,5.0;" x1="304.0674" x2="304.0674" y1="69.9766" y2="876.6953"/><line style="stroke:#181818;stroke-width:0.5;stroke-dasharray:5.0,5.0;" x1="374.9102" x2="374.9102" y1="69.9766" y2="876.6953"/><line style="stroke:#181818;stroke-width:0.5;stroke-dasharray:5.0,5.0;" x1="584.6865" x2="584.6865" y1="69.9766" y2="876.6953"/><rect fill="#DDDDDD" height="46.9766" rx="2.5" ry="2.5" style="stroke:#666666;stroke-width:0.5;" width="90.8496" x="20" y="22"/><text fill="#333333" font-family="sans-serif" font-size="14" lengthAdjust="spacing" textLength="32.5254" x="49.1621" y="42.5352">Main</text><text fill="#333333" font-family="sans-serif" font-size="14" lengthAdjust="spacing" textLength="76.8496" x="27" y="59.0234">Application</text><rect fill="#DDDDDD" height="46.9766" rx="2.5" ry="2.5" style="stroke:#666666;stroke-width:0.5;" width="90.8496" x="20" y="875.6953"/><text fill="#333333" font-family="sans-serif" font-size="14" lengthAdjust="spacing" textLength="32.5254" x="49.1621" y="896.2305">Main</text><text fill="#333333" font-family="sans-serif" font-size="14" lengthAdjust="spacing" textLength="76.8496" x="27" y="912.7188">Application</text><rect fill="#DDDDDD" height="46.9766" rx="2.5" ry="2.5" style="stroke:#666666;stroke-width:0.5;" width="55.8428" x="277.0674" y="22"/><text fill="#333333" font-family="sans-serif" font-size="14" lengthAdjust="spacing" textLength="35.7314" x="287.123" y="42.5352">HTTP</text><text fill="#333333" font-family="sans-serif" font-size="14" lengthAdjust="spacing" textLength="41.8428" x="284.0674" y="59.0234">Server</text><rect fill="#DDDDDD" height="46.9766" rx="2.5" ry="2.5" style="stroke:#666666;stroke-width:0.5;" width="55.8428" x="277.0674" y="875.6953"/><text fill="#333333" font-family="sans-serif" font-size="14" lengthAdjust="spacing" textLength="35.7314" x="287.123" y="896.2305">HTTP</text><text fill="#333333" font-family="sans-serif" font-size="14" lengthAdjust="spacing" textLength="41.8428" x="284.0674" y="912.7188">Server</text><text fill="#333333" font-family="sans-serif" font-size="14" lengthAdjust="spacing" textLength="48.0156" x="348.4268" y="50.5352">Worker</text><text fill="#333333" font-family="sans-serif" font-size="14" lengthAdjust="spacing" textLength="59.0488" x="342.9102" y="67.0234">Routines</text><ellipse cx="375.4346" cy="21" fill="#DDDDDD" rx="12" ry="12" style="stroke:#666666;stroke-width:0.5;"/><line style="stroke:#666666;stroke-width:0.5;" x1="363.4346" x2="387.4346" y1="35" y2="35"/><text fill="#333333" font-family="sans-serif" font-size="14" lengthAdjust="spacing" textLength="48.0156" x="348.4268" y="889.2305">Worker</text><text fill="#333333" font-family="sans-serif" font-size="14" lengthAdjust="spacing" textLength="59.0488" x="342.9102" y="905.7188">Routines</text><ellipse cx="375.4346" cy="924.6719" fill="#DDDDDD" rx="12" ry="12" style="stroke:#666666;stroke-width:0.5;"/><line style="stroke:#666666;stroke-width:0.5;" x1="363.4346" x2="387.4346" y1="938.6719" y2="938.6719"/><rect fill="#DDDDDD" height="46.9766" rx="2.5" ry="2.5" style="stroke:#666666;stroke-width:0.5;" width="95.6416" x="537.6865" y="22"/><text fill="#333333" font-family="sans-serif" font-size="14" lengthAdjust="spacing" textLength="81.6416" x="544.6865" y="42.5352">Propagation</text><text fill="#333333" font-family="sans-serif" font-size="14" lengthAdjust="spacing" textLength="47.332" x="561.8413" y="59.0234">Service</text><rect fill="#DDDDDD" height="46.9766" rx="2.5" ry="2.5" style="stroke:#666666;stroke-width:0.5;" width="95.6416" x="537.6865" y="875.6953"/><text fill="#333333" font-family="sans-serif" font-size="14" lengthAdjust="spacing" textLength="81.6416" x="544.6865" y="896.2305">Propagation</text><text fill="#333333" font-family="sans-serif" font-size="14" lengthAdjust="spacing" textLength="47.332" x="561.8413" y="912.7188">Service</text><rect fill="#EEEEEE" height="3" style="stroke:#EEEEEE;stroke-width:1.0;" width="653.3281" x="0" y="100.6318"/><line style="stroke:#000000;stroke-width:1.0;" x1="0" x2="653.3281" y1="100.6318" y2="100.6318"/><line style="stroke:#000000;stroke-width:1.0;" x1="0" x2="653.3281" y1="103.6318" y2="103.6318"/><rect fill="#EEEEEE" height="23.3105" style="stroke:#000000;stroke-width:2.0;" width="200.9575" x="226.1853" y="89.9766"/><text fill="#333333" font-family="sans-serif" font-size="13" font-weight="bold" lengthAdjust="spacing" textLength="182.6729" x="232.1853" y="106.5449">Initialization (Init Function)</text><line style="stroke:#666666;stroke-width:1.0;" x1="65.4248" x2="107.4248" y1="159.9082" y2="159.9082"/><line style="stroke:#666666;stroke-width:1.0;" x1="107.4248" x2="107.4248" y1="159.9082" y2="172.9082"/><line style="stroke:#666666;stroke-width:1.0;" x1="66.4248" x2="107.4248" y1="172.9082" y2="172.9082"/><polygon fill="#666666" points="76.4248,168.9082,66.4248,172.9082,76.4248,176.9082,72.4248,172.9082" style="stroke:#666666;stroke-width:1.0;"/><text fill="#333333" font-family="sans-serif" font-size="13" lengthAdjust="spacing" textLength="153.9243" x="72.4248" y="139.8555">Get configuration values</text><text fill="#333333" font-family="sans-serif" font-size="13" lengthAdjust="spacing" textLength="225.564" x="72.4248" y="155.166">(profilerAddr, prometheusEndpoint)</text><polygon fill="#666666" points="292.9888,198.2188,302.9888,202.2188,292.9888,206.2188,296.9888,202.2188" style="stroke:#666666;stroke-width:1.0;"/><line style="stroke:#666666;stroke-width:1.0;" x1="65.4248" x2="298.9888" y1="202.2188" y2="202.2188"/><text fill="#333333" font-family="sans-serif" font-size="13" lengthAdjust="spacing" textLength="174.3765" x="72.4248" y="197.4766">Setup for metrics and pprof</text><polygon fill="#666666" points="76.4248,227.5293,66.4248,231.5293,76.4248,235.5293,72.4248,231.5293" style="stroke:#666666;stroke-width:1.0;"/><line style="stroke:#666666;stroke-width:1.0;stroke-dasharray:2.0,2.0;" x1="70.4248" x2="303.9888" y1="231.5293" y2="231.5293"/><text fill="#333333" font-family="sans-serif" font-size="13" lengthAdjust="spacing" textLength="132.6152" x="82.4248" y="226.7871">HTTP Server Running</text><rect fill="#EEEEEE" height="3" style="stroke:#EEEEEE;stroke-width:1.0;" width="653.3281" x="0" y="260.1846"/><line style="stroke:#000000;stroke-width:1.0;" x1="0" x2="653.3281" y1="260.1846" y2="260.1846"/><line style="stroke:#000000;stroke-width:1.0;" x1="0" x2="653.3281" y1="263.1846" y2="263.1846"/><rect fill="#EEEEEE" height="23.3105" style="stroke:#000000;stroke-width:2.0;" width="111.8809" x="270.7236" y="249.5293"/><text fill="#333333" font-family="sans-serif" font-size="13" font-weight="bold" lengthAdjust="spacing" textLength="93.5962" x="276.7236" y="266.0977">Start Function</text><line style="stroke:#666666;stroke-width:1.0;" x1="65.4248" x2="107.4248" y1="319.4609" y2="319.4609"/><line style="stroke:#666666;stroke-width:1.0;" x1="107.4248" x2="107.4248" y1="319.4609" y2="332.4609"/><line style="stroke:#666666;stroke-width:1.0;" x1="66.4248" x2="107.4248" y1="332.4609" y2="332.4609"/><polygon fill="#666666" points="76.4248,328.4609,66.4248,332.4609,76.4248,336.4609,72.4248,332.4609" style="stroke:#666666;stroke-width:1.0;"/><text fill="#333333" font-family="sans-serif" font-size="13" lengthAdjust="spacing" textLength="164.9248" x="72.4248" y="299.4082">Parse command-line flags</text><text fill="#333333" font-family="sans-serif" font-size="13" lengthAdjust="spacing" textLength="207.1431" x="72.4248" y="314.7188">(workers, broadcast, buffer_size)</text><line style="stroke:#666666;stroke-width:1.0;" x1="65.4248" x2="107.4248" y1="377.082" y2="377.082"/><line style="stroke:#666666;stroke-width:1.0;" x1="107.4248" x2="107.4248" y1="377.082" y2="390.082"/><line style="stroke:#666666;stroke-width:1.0;" x1="66.4248" x2="107.4248" y1="390.082" y2="390.082"/><polygon fill="#666666" points="76.4248,386.082,66.4248,390.082,76.4248,394.082,72.4248,390.082" style="stroke:#666666;stroke-width:1.0;"/><text fill="#333333" font-family="sans-serif" font-size="13" lengthAdjust="spacing" textLength="104.9839" x="72.4248" y="357.0293">Log service stats</text><text fill="#333333" font-family="sans-serif" font-size="13" lengthAdjust="spacing" textLength="101.9751" x="72.4248" y="372.3398">and version info</text><path d="M10,405.082 L72.1387,405.082 L72.1387,412.3926 L62.1387,422.3926 L10,422.3926 L10,405.082 " fill="#EEEEEE" style="stroke:#000000;stroke-width:1.5;"/><rect fill="none" height="263.75" style="stroke:#000000;stroke-width:1.5;" width="633.3281" x="10" y="405.082"/><text fill="#333333" font-family="sans-serif" font-size="13" font-weight="bold" lengthAdjust="spacing" textLength="17.1387" x="25" y="418.6504">alt</text><text fill="#333333" font-family="sans-serif" font-size="11" font-weight="bold" lengthAdjust="spacing" textLength="97.9956" x="87.1387" y="417.7168">[HTTP Broadcast]</text><line style="stroke:#666666;stroke-width:1.0;" x1="65.4248" x2="107.4248" y1="459.0137" y2="459.0137"/><line style="stroke:#666666;stroke-width:1.0;" x1="107.4248" x2="107.4248" y1="459.0137" y2="472.0137"/><line style="stroke:#666666;stroke-width:1.0;" x1="66.4248" x2="107.4248" y1="472.0137" y2="472.0137"/><polygon fill="#666666" points="76.4248,468.0137,66.4248,472.0137,76.4248,476.0137,72.4248,472.0137" style="stroke:#666666;stroke-width:1.0;"/><text fill="#333333" font-family="sans-serif" font-size="13" lengthAdjust="spacing" textLength="209.625" x="72.4248" y="438.9609">Get "propagation_httpAddresses"</text><text fill="#333333" font-family="sans-serif" font-size="13" lengthAdjust="spacing" textLength="107.3452" x="72.4248" y="454.2715">Return HTTP URL</text><line style="stroke:#666666;stroke-width:1.0;" x1="65.4248" x2="107.4248" y1="516.6348" y2="516.6348"/><line style="stroke:#666666;stroke-width:1.0;" x1="107.4248" x2="107.4248" y1="516.6348" y2="529.6348"/><line style="stroke:#666666;stroke-width:1.0;" x1="66.4248" x2="107.4248" y1="529.6348" y2="529.6348"/><polygon fill="#666666" points="76.4248,525.6348,66.4248,529.6348,76.4248,533.6348,72.4248,529.6348" style="stroke:#666666;stroke-width:1.0;"/><text fill="#333333" font-family="sans-serif" font-size="13" lengthAdjust="spacing" textLength="129.3335" x="72.4248" y="496.582">Initialize HTTP client</text><text fill="#333333" font-family="sans-serif" font-size="13" lengthAdjust="spacing" textLength="54.9771" x="72.4248" y="511.8926">with URL</text><line style="stroke:#000000;stroke-width:1.0;stroke-dasharray:2.0,2.0;" x1="10" x2="643.3281" y1="538.6348" y2="538.6348"/><text fill="#333333" font-family="sans-serif" font-size="11" font-weight="bold" lengthAdjust="spacing" textLength="96.916" x="15" y="549.2695">[gRPC Broadcast]</text><line style="stroke:#666666;stroke-width:1.0;" x1="65.4248" x2="107.4248" y1="589.2109" y2="589.2109"/><line style="stroke:#666666;stroke-width:1.0;" x1="107.4248" x2="107.4248" y1="589.2109" y2="602.2109"/><line style="stroke:#666666;stroke-width:1.0;" x1="66.4248" x2="107.4248" y1="602.2109" y2="602.2109"/><polygon fill="#666666" points="76.4248,598.2109,66.4248,602.2109,76.4248,606.2109,72.4248,602.2109" style="stroke:#666666;stroke-width:1.0;"/><text fill="#333333" font-family="sans-serif" font-size="13" lengthAdjust="spacing" textLength="211.9165" x="72.4248" y="569.1582">Get "propagation_grpcAddresses"</text><text fill="#333333" font-family="sans-serif" font-size="13" lengthAdjust="spacing" textLength="131.8726" x="72.4248" y="584.4688">Return gRPC address</text><polygon fill="#666666" points="573.5073,627.5215,583.5073,631.5215,573.5073,635.5215,577.5073,631.5215" style="stroke:#666666;stroke-width:1.0;"/><line style="stroke:#666666;stroke-width:1.0;" x1="65.4248" x2="579.5073" y1="631.5215" y2="631.5215"/><text fill="#333333" font-family="sans-serif" font-size="13" lengthAdjust="spacing" textLength="166.1943" x="72.4248" y="626.7793">Establish gRPC connection</text><polygon fill="#666666" points="76.4248,656.832,66.4248,660.832,76.4248,664.832,72.4248,660.832" style="stroke:#666666;stroke-width:1.0;"/><line style="stroke:#666666;stroke-width:1.0;stroke-dasharray:2.0,2.0;" x1="70.4248" x2="584.5073" y1="660.832" y2="660.832"/><text fill="#333333" font-family="sans-serif" font-size="13" lengthAdjust="spacing" textLength="115.0322" x="82.4248" y="656.0898">gRPC Client Ready</text><polygon fill="#666666" points="363.4346,708.4531,373.4346,712.4531,363.4346,716.4531,367.4346,712.4531" style="stroke:#666666;stroke-width:1.0;"/><line style="stroke:#666666;stroke-width:1.0;" x1="65.4248" x2="369.4346" y1="712.4531" y2="712.4531"/><text fill="#333333" font-family="sans-serif" font-size="13" lengthAdjust="spacing" textLength="164.7026" x="72.4248" y="692.4004">Launch worker goroutines</text><text fill="#333333" font-family="sans-serif" font-size="13" lengthAdjust="spacing" textLength="143.1523" x="72.4248" y="707.7109">based on workerCount</text><rect fill="#EEEEEE" height="3" style="stroke:#EEEEEE;stroke-width:1.0;" width="653.3281" x="0" y="741.1084"/><line style="stroke:#000000;stroke-width:1.0;" x1="0" x2="653.3281" y1="741.1084" y2="741.1084"/><line style="stroke:#000000;stroke-width:1.0;" x1="0" x2="653.3281" y1="744.1084" y2="744.1084"/><rect fill="#EEEEEE" height="23.3105" style="stroke:#000000;stroke-width:2.0;" width="121.7451" x="265.7915" y="730.4531"/><text fill="#333333" font-family="sans-serif" font-size="13" font-weight="bold" lengthAdjust="spacing" textLength="103.4604" x="271.7915" y="747.0215">Worker Routine</text><path d="M332.9102,770.7637 L407.3569,770.7637 L407.3569,778.0742 L397.3569,788.0742 L332.9102,788.0742 L332.9102,770.7637 " fill="#EEEEEE" style="stroke:#000000;stroke-width:1.5;"/><rect fill="none" height="88.9316" style="stroke:#000000;stroke-width:1.5;" width="310.418" x="332.9102" y="770.7637"/><text fill="#333333" font-family="sans-serif" font-size="13" font-weight="bold" lengthAdjust="spacing" textLength="29.4468" x="347.9102" y="784.332">loop</text><text fill="#333333" font-family="sans-serif" font-size="11" font-weight="bold" lengthAdjust="spacing" textLength="78.3052" x="422.3569" y="783.3984">[Each Worker]</text><line style="stroke:#666666;stroke-width:1.0;" x1="375.4346" x2="417.4346" y1="809.3848" y2="809.3848"/><line style="stroke:#666666;stroke-width:1.0;" x1="417.4346" x2="417.4346" y1="809.3848" y2="822.3848"/><line style="stroke:#666666;stroke-width:1.0;" x1="376.4346" x2="417.4346" y1="822.3848" y2="822.3848"/><polygon fill="#666666" points="386.4346,818.3848,376.4346,822.3848,386.4346,826.3848,382.4346,822.3848" style="stroke:#666666;stroke-width:1.0;"/><text fill="#333333" font-family="sans-serif" font-size="13" lengthAdjust="spacing" textLength="196.0728" x="382.4346" y="804.6426">Generate and sign transactions</text><polygon fill="#666666" points="573.5073,847.6953,583.5073,851.6953,573.5073,855.6953,577.5073,851.6953" style="stroke:#666666;stroke-width:1.0;"/><line style="stroke:#666666;stroke-width:1.0;" x1="375.4346" x2="579.5073" y1="851.6953" y2="851.6953"/><text fill="#333333" font-family="sans-serif" font-size="13" lengthAdjust="spacing" textLength="108.5322" x="382.4346" y="846.9531">Send Transaction</text><text fill="#333333" font-family="sans-serif" font-size="10" lengthAdjust="spacing" textLength="155.4346" x="0" y="951.3398">Last Modified On: 24-Feb-2025</text><!--SRC=[fLFRQXin47tNLmmkfJ74K2YK4d0XSUoq45DZf_J54EJLx5fO7Wb9cv2K_dj7qjQNE2zjzR2ivdBcp9bHs6Xoqiijh6IrQRnjIOsiiHxUJDvFFaqc8kmY5DQoDN5YANOX7_8v297UsyVE-J4V8Tx1DTQQ45RMA_G1QlPAOm0DRf5YECZdguvFy5C0NENeOooslcHvdO_u9GvGAcRehVbV6Fv6NMadAVuRb1274BsfrBIaI-UChcJKbdeW0oJhSToNkxlPaXRe7z3da6GeLz49rFjX_GRzakQsZQnjo77568xHPjuwsUHw1LHNcACF79rPYE4GlfAEMXhzd3rmbkumQQbArpuCXo8nXi7dpFm2RZ0cmMlTjBwaF4ZJObZIcVEsrWRzfLB-7FYsnRZ6Den9EQifzdTG-mulO86nTNb9EDphAe0a1Iw1YNqS37OCaX4wwxmbqjJaJXQHTTXHFsK-apuWSzzkkS30f1MjZMmIyyUYv3cil9MgaY7oRrlNwE-3ViQ-U05rQni8HKG8KKR6IAIPKKYbDTLMI1CBrQi_cBmz0ATgzjn-ClVh65tI3qFWAVF0MHrF1UZx_FOLYDq0iKHLHlFMBEbHntLEGSDjD_FPwE-ODDvLhp39GBBOZs1Ez-i2nYpEokYmBccyDuHvEZdpDEDWoZbXb7k1EKhrn6z1xSRGhJvFGlAyrr0628trtGDPqae6LC3JABuHFzcOzwJaGlUKqfuOQnsC9UCKNsRNbJYgTeE4lFMOLpJeXY1wIK7cde9ucVUQ90jk0-xsMIBt9GpMaH-1ZSpibYS4KwjqhRc3Rop6MyL5ptfA3QRJwU29JwylVWC0]--></g></svg>
