<svg contentStyleType="text/css" height="634" preserveAspectRatio="none" viewBox="0 0 856 634" width="856" xmlns="http://www.w3.org/2000/svg" zoomAndPan="magnify"><path d="m87.5 177.7305h10v316.4844h-10z" fill="#fff" stroke="#181818"/><path d="m92.5 273.6621h10v220.5527h-10z" fill="#fff" stroke="#181818"/><path d="m97.5 359.2832h10v134.9316h-10z" fill="#fff" stroke="#181818"/><path d="m10 131.1094h840v435.3711h-840z" fill="none" stroke="#000" stroke-width="1.5"/><path d="m20 227.041h820v332.4395h-820z" fill="none" stroke="#000" stroke-width="1.5"/><g stroke="#181818" stroke-width=".5"><g stroke-dasharray="5 5"><path d="m92 36.4883v546.9922"/><path d="m519 36.4883v546.9922"/><path d="m638 36.4883v546.9922"/><path d="m771 36.4883v546.9922"/></g><rect fill="#e2e2f0" height="30.4883" rx="2.5" width="125" x="30" y="5"/></g><text font-family="sans-serif" font-size="14" lengthAdjust="spacing" textLength="111" x="37" y="25.5352">Coinbase Server</text><rect fill="#e2e2f0" height="30.4883" rx="2.5" stroke="#181818" stroke-width=".5" width="125" x="30" y="582.4805"/><text font-family="sans-serif" font-size="14" lengthAdjust="spacing" textLength="111" x="37" y="603.0156">Coinbase Server</text><rect fill="#e2e2f0" height="30.4883" rx="2.5" stroke="#181818" stroke-width=".5" width="91" x="474" y="5"/><text font-family="sans-serif" font-size="14" lengthAdjust="spacing" textLength="77" x="481" y="25.5352">AssetClient</text><rect fill="#e2e2f0" height="30.4883" rx="2.5" stroke="#181818" stroke-width=".5" width="91" x="474" y="582.4805"/><text font-family="sans-serif" font-size="14" lengthAdjust="spacing" textLength="77" x="481" y="603.0156">AssetClient</text><rect fill="#e2e2f0" height="30.4883" rx="2.5" stroke="#181818" stroke-width=".5" width="127" x="575" y="5"/><text font-family="sans-serif" font-size="14" lengthAdjust="spacing" textLength="113" x="582" y="25.5352">Blockchain Store</text><rect fill="#e2e2f0" height="30.4883" rx="2.5" stroke="#181818" stroke-width=".5" width="127" x="575" y="582.4805"/><text font-family="sans-serif" font-size="14" lengthAdjust="spacing" textLength="113" x="582" y="603.0156">Blockchain Store</text><rect fill="#e2e2f0" height="30.4883" rx="2.5" stroke="#181818" stroke-width=".5" width="118" x="712" y="5"/><text font-family="sans-serif" font-size="14" lengthAdjust="spacing" textLength="104" x="719" y="25.5352">Coinbase Store</text><rect fill="#e2e2f0" height="30.4883" rx="2.5" stroke="#181818" stroke-width=".5" width="118" x="712" y="582.4805"/><text font-family="sans-serif" font-size="14" lengthAdjust="spacing" textLength="104" x="719" y="603.0156">Coinbase Store</text><g stroke="#181818"><path d="m87.5 177.7305h10v316.4844h-10z" fill="#fff"/><path d="m92.5 273.6621h10v220.5527h-10z" fill="#fff"/><path d="m97.5 359.2832h10v134.9316h-10z" fill="#fff"/><path d="m507.5 66.7988 10 4-10 4 4-4z" fill="#181818"/><path d="m92.5 70.7988h421"/></g><text font-family="sans-serif" font-size="13" lengthAdjust="spacing" textLength="107" x="99.5" y="66.0566">Subscribe(ctx, "")</text><path d="m524 51.4883v25h151v-15l-10-10z" fill="#feffdd" stroke="#181818" stroke-width=".5"/><path d="m665 51.4883v10h10z" fill="#feffdd" stroke="#181818" stroke-width=".5"/><text font-family="sans-serif" font-size="13" lengthAdjust="spacing" textLength="130" x="530" y="69.0566">Subscription request</text><path d="m92.5 103.1094h42" stroke="#181818"/><path d="m134.5 103.1094v13" stroke="#181818"/><path d="m93.5 116.1094h41" stroke="#181818"/><path d="m103.5 112.1094-10 4 10 4-4-4z" fill="#181818" stroke="#181818"/><text font-family="sans-serif" font-size="13" lengthAdjust="spacing" textLength="126" x="99.5" y="98.3672">Wait for notification</text><path d="m10 131.1094h62v7.3105l-10 10h-52z" fill="#eee" stroke="#000" stroke-width="1.5"/><path d="m10 131.1094h840v435.3711h-840z" fill="none" stroke="#000" stroke-width="1.5"/><text font-family="sans-serif" font-size="13" font-weight="bold" lengthAdjust="spacing" textLength="17" x="25" y="144.6777">alt</text><text font-family="sans-serif" font-size="11" font-weight="bold" lengthAdjust="spacing" textLength="149" x="87" y="143.7441">[notification type is Block]</text><path d="m92.5 164.7305h47" stroke="#181818"/><path d="m139.5 164.7305v13" stroke="#181818"/><path d="m98.5 177.7305h41" stroke="#181818"/><path d="m108.5 173.7305-10 4 10 4-4-4z" fill="#181818" stroke="#181818"/><text font-family="sans-serif" font-size="13" lengthAdjust="spacing" textLength="221" x="104.5" y="159.9883">processBlockFound(hash, baseURL)</text><path d="m626.5 208.041 10 4-10 4 4-4z" fill="#181818" stroke="#181818"/><path d="m97.5 212.041h535" stroke="#181818"/><text font-family="sans-serif" font-size="13" lengthAdjust="spacing" textLength="158" x="104.5" y="207.2988">GetBlock(ctx, blockHash)</text><path d="m20 227.041h62v7.3106l-10 10h-52z" fill="#eee" stroke="#000" stroke-width="1.5"/><path d="m20 227.041h820v332.4395h-820z" fill="none" stroke="#000" stroke-width="1.5"/><text font-family="sans-serif" font-size="13" font-weight="bold" lengthAdjust="spacing" textLength="17" x="35" y="240.6094">alt</text><text font-family="sans-serif" font-size="11" font-weight="bold" lengthAdjust="spacing" textLength="120" x="97" y="239.6758">[Parent Block Known]</text><path d="m97.5 260.6621h47" stroke="#181818"/><path d="m144.5 260.6621v13" stroke="#181818"/><path d="m103.5 273.6621h41" stroke="#181818"/><path d="m113.5 269.6621-10 4 10 4-4-4z" fill="#181818" stroke="#181818"/><text font-family="sans-serif" font-size="13" lengthAdjust="spacing" textLength="137" x="109.5" y="255.9199">storeBlock(ctx, block)</text><path d="m626.5 303.9727 10 4-10 4 4-4z" fill="#181818" stroke="#181818"/><path d="m102.5 307.9727h530" stroke="#181818"/><text font-family="sans-serif" font-size="13" lengthAdjust="spacing" textLength="155" x="109.5" y="303.2305">StoreBlock(ctx, block, "")</text><g stroke="#181818"><path d="m113.5 317.9727-10 4 10 4-4-4z" fill="#181818"/><path d="m107.5 321.9727h530" stroke-dasharray="2 2"/><path d="m102.5 346.2832h47"/><path d="m149.5 346.2832v13"/><path d="m108.5 359.2832h41"/><path d="m118.5 355.2832-10 4 10 4-4-4z" fill="#181818"/></g><text font-family="sans-serif" font-size="13" lengthAdjust="spacing" textLength="398" x="114.5" y="341.541">processCoinbase(ctx, blockId, block.Hash(), block.CoinbaseTx)</text><path d="m759 389.5938 10 4-10 4 4-4z" fill="#181818" stroke="#181818"/><path d="m107.5 393.5938h657.5" stroke="#181818"/><text font-family="sans-serif" font-size="13" lengthAdjust="spacing" textLength="299" x="114.5" y="388.8516">insertCoinbaseUTXOs(ctx, blockId, coinbaseTx)</text><path d="m118.5 403.5938-10 4 10 4-4-4z" fill="#181818" stroke="#181818"/><path d="m112.5 407.5938h657.5" stroke="#181818" stroke-dasharray="2 2"/><path d="m759 432.9043 10 4-10 4 4-4z" fill="#181818" stroke="#181818"/><path d="m107.5 436.9043h657.5" stroke="#181818"/><text font-family="sans-serif" font-size="13" lengthAdjust="spacing" textLength="231" x="114.5" y="432.1621">Update matured UTXOs to spendable</text><path d="m118.5 446.9043-10 4 10 4-4-4z" fill="#181818" stroke="#181818"/><path d="m112.5 450.9043h657.5" stroke="#181818" stroke-dasharray="2 2"/><path d="m759 476.2148 10 4-10 4 4-4z" fill="#181818" stroke="#181818"/><path d="m107.5 480.2148h657.5" stroke="#181818"/><text font-family="sans-serif" font-size="13" lengthAdjust="spacing" textLength="296" x="114.5" y="475.4727">createSpendingUtxos(ctx, blockId, coinbaseTx)</text><path d="m103.5 490.2148-10 4 10 4-4-4z" fill="#181818" stroke="#181818"/><path d="m97.5 494.2148h672.5" stroke="#181818" stroke-dasharray="2 2"/><path d="m20 503.2148h820" stroke="#000" stroke-dasharray="2 2"/><text font-family="sans-serif" font-size="11" font-weight="bold" lengthAdjust="spacing" textLength="134" x="25" y="513.8496">[Parent Block Unknown]</text><path d="m92.5 538.4805h42" stroke="#181818"/><path d="m134.5 538.4805v13" stroke="#181818"/><path d="m93.5 551.4805h41" stroke="#181818"/><path d="m103.5 547.4805-10 4 10 4-4-4z" fill="#181818" stroke="#181818"/><text font-family="sans-serif" font-size="13" lengthAdjust="spacing" textLength="108" x="99.5" y="533.7383">Request catch up</text><path d="m219 525.6699v25h245v-15l-10-10z" fill="#feffdd" stroke="#181818" stroke-width=".5"/><path d="m454 525.6699v10h10z" fill="#feffdd" stroke="#181818" stroke-width=".5"/><text font-family="sans-serif" font-size="13" lengthAdjust="spacing" textLength="224" x="225" y="543.2383">Triggers a "catch up" recovery cycle</text><text fill="#888" font-family="sans-serif" font-size="10" lengthAdjust="spacing" textLength="148" y="624.6367">Last Modified On: 9-Feb-2024</text></svg>
