<svg xmlns="http://www.w3.org/2000/svg" xmlns:xlink="http://www.w3.org/1999/xlink" contentStyleType="text/css" height="1023px" preserveAspectRatio="none" style="width:901px;height:1023px;background:#FFFFFF;" version="1.1" viewBox="0 0 901 1023" width="901px" zoomAndPan="magnify"><defs/><g><rect fill="#FFFFFF" height="785.166" style="stroke:#181818;stroke-width:1.0;" width="10" x="96.3867" y="177.7305"/><rect fill="#FFFFFF" height="593.3027" style="stroke:#181818;stroke-width:1.0;" width="10" x="101.3867" y="361.5938"/><rect fill="#FFFFFF" height="428.1055" style="stroke:#181818;stroke-width:1.0;" width="10" x="106.3867" y="462.5254"/><rect fill="#FFFFFF" height="299.1738" style="stroke:#181818;stroke-width:1.0;" width="10" x="111.3867" y="591.457"/><rect fill="#FFFFFF" height="217.5527" style="stroke:#181818;stroke-width:1.0;" width="10" x="116.3867" y="658.0781"/><rect fill="none" height="823.7871" style="stroke:#000000;stroke-width:1.5;" width="885.9956" x="10" y="131.1094"/><rect fill="none" height="632.9238" style="stroke:#000000;stroke-width:1.5;" width="865.9956" x="20" y="314.9727"/><rect fill="none" height="272.1738" style="stroke:#000000;stroke-width:1.5;" width="845.9956" x="30" y="611.457"/><line style="stroke:#181818;stroke-width:0.5;stroke-dasharray:5.0,5.0;" x1="101" x2="101" y1="36.4883" y2="971.8965"/><line style="stroke:#181818;stroke-width:0.5;stroke-dasharray:5.0,5.0;" x1="540.564" x2="540.564" y1="36.4883" y2="971.8965"/><line style="stroke:#181818;stroke-width:0.5;stroke-dasharray:5.0,5.0;" x1="676.4478" x2="676.4478" y1="36.4883" y2="971.8965"/><line style="stroke:#181818;stroke-width:0.5;stroke-dasharray:5.0,5.0;" x1="807.1606" x2="807.1606" y1="36.4883" y2="971.8965"/><rect fill="#E2E2F0" height="30.4883" rx="2.5" ry="2.5" style="stroke:#181818;stroke-width:0.5;" width="122.7734" x="40" y="5"/><text fill="#000000" font-family="sans-serif" font-size="14" lengthAdjust="spacing" textLength="108.7734" x="47" y="25.5352">Coinbase Server</text><rect fill="#E2E2F0" height="30.4883" rx="2.5" ry="2.5" style="stroke:#181818;stroke-width:0.5;" width="122.7734" x="40" y="970.8965"/><text fill="#000000" font-family="sans-serif" font-size="14" lengthAdjust="spacing" textLength="108.7734" x="47" y="991.4316">Coinbase Server</text><rect fill="#E2E2F0" height="30.4883" rx="2.5" ry="2.5" style="stroke:#181818;stroke-width:0.5;" width="125.8838" x="478.564" y="5"/><text fill="#000000" font-family="sans-serif" font-size="14" lengthAdjust="spacing" textLength="111.8838" x="485.564" y="25.5352">BlockchainClient</text><rect fill="#E2E2F0" height="30.4883" rx="2.5" ry="2.5" style="stroke:#181818;stroke-width:0.5;" width="125.8838" x="478.564" y="970.8965"/><text fill="#000000" font-family="sans-serif" font-size="14" lengthAdjust="spacing" textLength="111.8838" x="485.564" y="991.4316">BlockchainClient</text><rect fill="#E2E2F0" height="30.4883" rx="2.5" ry="2.5" style="stroke:#181818;stroke-width:0.5;" width="125.7129" x="614.4478" y="5"/><text fill="#000000" font-family="sans-serif" font-size="14" lengthAdjust="spacing" textLength="111.7129" x="621.4478" y="25.5352">Blockchain Store</text><rect fill="#E2E2F0" height="30.4883" rx="2.5" ry="2.5" style="stroke:#181818;stroke-width:0.5;" width="125.7129" x="614.4478" y="970.8965"/><text fill="#000000" font-family="sans-serif" font-size="14" lengthAdjust="spacing" textLength="111.7129" x="621.4478" y="991.4316">Blockchain Store</text><rect fill="#E2E2F0" height="30.4883" rx="2.5" ry="2.5" style="stroke:#181818;stroke-width:0.5;" width="115.835" x="750.1606" y="5"/><text fill="#000000" font-family="sans-serif" font-size="14" lengthAdjust="spacing" textLength="101.835" x="757.1606" y="25.5352">Coinbase Store</text><rect fill="#E2E2F0" height="30.4883" rx="2.5" ry="2.5" style="stroke:#181818;stroke-width:0.5;" width="115.835" x="750.1606" y="970.8965"/><text fill="#000000" font-family="sans-serif" font-size="14" lengthAdjust="spacing" textLength="101.835" x="757.1606" y="991.4316">Coinbase Store</text><rect fill="#FFFFFF" height="785.166" style="stroke:#181818;stroke-width:1.0;" width="10" x="96.3867" y="177.7305"/><rect fill="#FFFFFF" height="593.3027" style="stroke:#181818;stroke-width:1.0;" width="10" x="101.3867" y="361.5938"/><rect fill="#FFFFFF" height="428.1055" style="stroke:#181818;stroke-width:1.0;" width="10" x="106.3867" y="462.5254"/><rect fill="#FFFFFF" height="299.1738" style="stroke:#181818;stroke-width:1.0;" width="10" x="111.3867" y="591.457"/><rect fill="#FFFFFF" height="217.5527" style="stroke:#181818;stroke-width:1.0;" width="10" x="116.3867" y="658.0781"/><polygon fill="#181818" points="529.5059,66.7988,539.5059,70.7988,529.5059,74.7988,533.5059,70.7988" style="stroke:#181818;stroke-width:1.0;"/><line style="stroke:#181818;stroke-width:1.0;" x1="101.3867" x2="535.5059" y1="70.7988" y2="70.7988"/><text fill="#000000" font-family="sans-serif" font-size="13" lengthAdjust="spacing" textLength="162.627" x="108.3867" y="66.0566">Subscribe(ctx, "coinbase")</text><path d="M546,51.4883 L546,76.4883 L697,76.4883 L697,61.4883 L687,51.4883 L546,51.4883 " fill="#FEFFDD" style="stroke:#181818;stroke-width:0.5;"/><path d="M687,51.4883 L687,61.4883 L697,61.4883 L687,51.4883 " fill="#FEFFDD" style="stroke:#181818;stroke-width:0.5;"/><text fill="#000000" font-family="sans-serif" font-size="13" lengthAdjust="spacing" textLength="130.127" x="552" y="69.0566">Subscription request</text><line style="stroke:#181818;stroke-width:1.0;" x1="101.3867" x2="143.3867" y1="103.1094" y2="103.1094"/><line style="stroke:#181818;stroke-width:1.0;" x1="143.3867" x2="143.3867" y1="103.1094" y2="116.1094"/><line style="stroke:#181818;stroke-width:1.0;" x1="102.3867" x2="143.3867" y1="116.1094" y2="116.1094"/><polygon fill="#181818" points="112.3867,112.1094,102.3867,116.1094,112.3867,120.1094,108.3867,116.1094" style="stroke:#181818;stroke-width:1.0;"/><text fill="#000000" font-family="sans-serif" font-size="13" lengthAdjust="spacing" textLength="124.9536" x="108.3867" y="98.3672">Wait for notification</text><path d="M10,131.1094 L72.1387,131.1094 L72.1387,138.4199 L62.1387,148.4199 L10,148.4199 L10,131.1094 " fill="#EEEEEE" style="stroke:#000000;stroke-width:1.5;"/><rect fill="none" height="823.7871" style="stroke:#000000;stroke-width:1.5;" width="885.9956" x="10" y="131.1094"/><text fill="#000000" font-family="sans-serif" font-size="13" font-weight="bold" lengthAdjust="spacing" textLength="17.1387" x="25" y="144.6777">alt</text><text fill="#000000" font-family="sans-serif" font-size="11" font-weight="bold" lengthAdjust="spacing" textLength="148.8062" x="87.1387" y="143.7441">[notification type is Block]</text><line style="stroke:#181818;stroke-width:1.0;" x1="101.3867" x2="148.3867" y1="164.7305" y2="164.7305"/><line style="stroke:#181818;stroke-width:1.0;" x1="148.3867" x2="148.3867" y1="164.7305" y2="177.7305"/><line style="stroke:#181818;stroke-width:1.0;" x1="107.3867" x2="148.3867" y1="177.7305" y2="177.7305"/><polygon fill="#181818" points="117.3867,173.7305,107.3867,177.7305,117.3867,181.7305,113.3867,177.7305" style="stroke:#181818;stroke-width:1.0;"/><text fill="#000000" font-family="sans-serif" font-size="13" lengthAdjust="spacing" textLength="209.8535" x="113.3867" y="159.9883">processBlock(ctx, hash, baseURL)</text><polygon fill="#181818" points="529.5059,208.041,539.5059,212.041,529.5059,216.041,533.5059,212.041" style="stroke:#181818;stroke-width:1.0;"/><line style="stroke:#181818;stroke-width:1.0;" x1="106.3867" x2="535.5059" y1="212.041" y2="212.041"/><text fill="#000000" font-family="sans-serif" font-size="13" lengthAdjust="spacing" textLength="156.7617" x="113.3867" y="207.2988">GetBlock(ctx, blockHash)</text><polygon fill="#181818" points="117.3867,237.3516,107.3867,241.3516,117.3867,245.3516,113.3867,241.3516" style="stroke:#181818;stroke-width:1.0;"/><line style="stroke:#181818;stroke-width:1.0;stroke-dasharray:2.0,2.0;" x1="111.3867" x2="540.5059" y1="241.3516" y2="241.3516"/><text fill="#000000" font-family="sans-serif" font-size="13" lengthAdjust="spacing" textLength="34.1821" x="123.3867" y="236.6094">block</text><polygon fill="#181818" points="665.3042,266.6621,675.3042,270.6621,665.3042,274.6621,669.3042,270.6621" style="stroke:#181818;stroke-width:1.0;"/><line style="stroke:#181818;stroke-width:1.0;" x1="106.3867" x2="671.3042" y1="270.6621" y2="270.6621"/><text fill="#000000" font-family="sans-serif" font-size="13" lengthAdjust="spacing" textLength="306.5537" x="113.3867" y="265.9199">GetBlockExists(ctx, block.Header.HashPrevBlock)</text><polygon fill="#181818" points="117.3867,295.9727,107.3867,299.9727,117.3867,303.9727,113.3867,299.9727" style="stroke:#181818;stroke-width:1.0;"/><line style="stroke:#181818;stroke-width:1.0;stroke-dasharray:2.0,2.0;" x1="111.3867" x2="676.3042" y1="299.9727" y2="299.9727"/><text fill="#000000" font-family="sans-serif" font-size="13" lengthAdjust="spacing" textLength="37.0894" x="123.3867" y="295.2305">exists</text><path d="M20,314.9727 L82.1387,314.9727 L82.1387,322.2832 L72.1387,332.2832 L20,332.2832 L20,314.9727 " fill="#EEEEEE" style="stroke:#000000;stroke-width:1.5;"/><rect fill="none" height="632.9238" style="stroke:#000000;stroke-width:1.5;" width="865.9956" x="20" y="314.9727"/><text fill="#000000" font-family="sans-serif" font-size="13" font-weight="bold" lengthAdjust="spacing" textLength="17.1387" x="35" y="328.541">alt</text><text fill="#000000" font-family="sans-serif" font-size="11" font-weight="bold" lengthAdjust="spacing" textLength="120.8657" x="97.1387" y="327.6074">[Parent Block Known]</text><line style="stroke:#181818;stroke-width:1.0;" x1="106.3867" x2="153.3867" y1="348.5938" y2="348.5938"/><line style="stroke:#181818;stroke-width:1.0;" x1="153.3867" x2="153.3867" y1="348.5938" y2="361.5938"/><line style="stroke:#181818;stroke-width:1.0;" x1="112.3867" x2="153.3867" y1="361.5938" y2="361.5938"/><polygon fill="#181818" points="122.3867,357.5938,112.3867,361.5938,122.3867,365.5938,118.3867,361.5938" style="stroke:#181818;stroke-width:1.0;"/><text fill="#000000" font-family="sans-serif" font-size="13" lengthAdjust="spacing" textLength="135.8716" x="118.3867" y="343.8516">storeBlock(ctx, block)</text><polygon fill="#181818" points="665.3042,391.9043,675.3042,395.9043,665.3042,399.9043,669.3042,395.9043" style="stroke:#181818;stroke-width:1.0;"/><line style="stroke:#181818;stroke-width:1.0;" x1="111.3867" x2="671.3042" y1="395.9043" y2="395.9043"/><text fill="#000000" font-family="sans-serif" font-size="13" lengthAdjust="spacing" textLength="154.1846" x="118.3867" y="391.1621">StoreBlock(ctx, block, "")</text><polygon fill="#181818" points="122.3867,421.2148,112.3867,425.2148,122.3867,429.2148,118.3867,425.2148" style="stroke:#181818;stroke-width:1.0;"/><line style="stroke:#181818;stroke-width:1.0;stroke-dasharray:2.0,2.0;" x1="116.3867" x2="676.3042" y1="425.2148" y2="425.2148"/><text fill="#000000" font-family="sans-serif" font-size="13" lengthAdjust="spacing" textLength="94.4404" x="128.3867" y="420.4727">blockId, height</text><line style="stroke:#181818;stroke-width:1.0;" x1="111.3867" x2="158.3867" y1="449.5254" y2="449.5254"/><line style="stroke:#181818;stroke-width:1.0;" x1="158.3867" x2="158.3867" y1="449.5254" y2="462.5254"/><line style="stroke:#181818;stroke-width:1.0;" x1="117.3867" x2="158.3867" y1="462.5254" y2="462.5254"/><polygon fill="#181818" points="127.3867,458.5254,117.3867,462.5254,127.3867,466.5254,123.3867,462.5254" style="stroke:#181818;stroke-width:1.0;"/><text fill="#000000" font-family="sans-serif" font-size="13" lengthAdjust="spacing" textLength="396.1191" x="123.3867" y="444.7832">processCoinbase(ctx, blockId, block.Hash(), block.CoinbaseTx)</text><polygon fill="#181818" points="796.0781,492.8359,806.0781,496.8359,796.0781,500.8359,800.0781,496.8359" style="stroke:#181818;stroke-width:1.0;"/><line style="stroke:#181818;stroke-width:1.0;" x1="116.3867" x2="802.0781" y1="496.8359" y2="496.8359"/><text fill="#000000" font-family="sans-serif" font-size="13" lengthAdjust="spacing" textLength="298.4097" x="123.3867" y="492.0938">insertCoinbaseUTXOs(ctx, blockId, coinbaseTx)</text><polygon fill="#181818" points="127.3867,506.8359,117.3867,510.8359,127.3867,514.8359,123.3867,510.8359" style="stroke:#181818;stroke-width:1.0;"/><line style="stroke:#181818;stroke-width:1.0;stroke-dasharray:2.0,2.0;" x1="121.3867" x2="807.0781" y1="510.8359" y2="510.8359"/><polygon fill="#181818" points="796.0781,536.1465,806.0781,540.1465,796.0781,544.1465,800.0781,540.1465" style="stroke:#181818;stroke-width:1.0;"/><line style="stroke:#181818;stroke-width:1.0;" x1="116.3867" x2="802.0781" y1="540.1465" y2="540.1465"/><text fill="#000000" font-family="sans-serif" font-size="13" lengthAdjust="spacing" textLength="233.7017" x="123.3867" y="535.4043">Update matured UTXOs to spendable</text><polygon fill="#181818" points="127.3867,550.1465,117.3867,554.1465,127.3867,558.1465,123.3867,554.1465" style="stroke:#181818;stroke-width:1.0;"/><line style="stroke:#181818;stroke-width:1.0;stroke-dasharray:2.0,2.0;" x1="121.3867" x2="807.0781" y1="554.1465" y2="554.1465"/><line style="stroke:#181818;stroke-width:1.0;" x1="116.3867" x2="163.3867" y1="578.457" y2="578.457"/><line style="stroke:#181818;stroke-width:1.0;" x1="163.3867" x2="163.3867" y1="578.457" y2="591.457"/><line style="stroke:#181818;stroke-width:1.0;" x1="122.3867" x2="163.3867" y1="591.457" y2="591.457"/><polygon fill="#181818" points="132.3867,587.457,122.3867,591.457,132.3867,595.457,128.3867,591.457" style="stroke:#181818;stroke-width:1.0;"/><text fill="#000000" font-family="sans-serif" font-size="13" lengthAdjust="spacing" textLength="236.7295" x="128.3867" y="573.7148">createSpendingUtxos(ctx, timestamp)</text><path d="M30,611.457 L104.4468,611.457 L104.4468,618.7676 L94.4468,628.7676 L30,628.7676 L30,611.457 " fill="#EEEEEE" style="stroke:#000000;stroke-width:1.5;"/><rect fill="none" height="272.1738" style="stroke:#000000;stroke-width:1.5;" width="845.9956" x="30" y="611.457"/><text fill="#000000" font-family="sans-serif" font-size="13" font-weight="bold" lengthAdjust="spacing" textLength="29.4468" x="45" y="625.0254">loop</text><text fill="#000000" font-family="sans-serif" font-size="11" font-weight="bold" lengthAdjust="spacing" textLength="141.2383" x="119.4468" y="624.0918">[for each matured UTXO]</text><line style="stroke:#181818;stroke-width:1.0;" x1="121.3867" x2="168.3867" y1="645.0781" y2="645.0781"/><line style="stroke:#181818;stroke-width:1.0;" x1="168.3867" x2="168.3867" y1="645.0781" y2="658.0781"/><line style="stroke:#181818;stroke-width:1.0;" x1="127.3867" x2="168.3867" y1="658.0781" y2="658.0781"/><polygon fill="#181818" points="137.3867,654.0781,127.3867,658.0781,137.3867,662.0781,133.3867,658.0781" style="stroke:#181818;stroke-width:1.0;"/><text fill="#000000" font-family="sans-serif" font-size="13" lengthAdjust="spacing" textLength="122.0781" x="133.3867" y="640.3359">splitUtxo(ctx, utxo)</text><line style="stroke:#181818;stroke-width:1.0;" x1="126.3867" x2="168.3867" y1="692.3887" y2="692.3887"/><line style="stroke:#181818;stroke-width:1.0;" x1="168.3867" x2="168.3867" y1="692.3887" y2="705.3887"/><line style="stroke:#181818;stroke-width:1.0;" x1="127.3867" x2="168.3867" y1="705.3887" y2="705.3887"/><polygon fill="#181818" points="137.3867,701.3887,127.3867,705.3887,137.3867,709.3887,133.3867,705.3887" style="stroke:#181818;stroke-width:1.0;"/><text fill="#000000" font-family="sans-serif" font-size="13" lengthAdjust="spacing" textLength="144.9614" x="133.3867" y="687.6465">Create new transaction</text><line style="stroke:#181818;stroke-width:1.0;" x1="126.3867" x2="168.3867" y1="734.6992" y2="734.6992"/><line style="stroke:#181818;stroke-width:1.0;" x1="168.3867" x2="168.3867" y1="734.6992" y2="747.6992"/><line style="stroke:#181818;stroke-width:1.0;" x1="127.3867" x2="168.3867" y1="747.6992" y2="747.6992"/><polygon fill="#181818" points="137.3867,743.6992,127.3867,747.6992,137.3867,751.6992,133.3867,747.6992" style="stroke:#181818;stroke-width:1.0;"/><text fill="#000000" font-family="sans-serif" font-size="13" lengthAdjust="spacing" textLength="198.8276" x="133.3867" y="729.957">Split UTXO into smaller outputs</text><line style="stroke:#181818;stroke-width:1.0;" x1="126.3867" x2="168.3867" y1="777.0098" y2="777.0098"/><line style="stroke:#181818;stroke-width:1.0;" x1="168.3867" x2="168.3867" y1="777.0098" y2="790.0098"/><line style="stroke:#181818;stroke-width:1.0;" x1="127.3867" x2="168.3867" y1="790.0098" y2="790.0098"/><polygon fill="#181818" points="137.3867,786.0098,127.3867,790.0098,137.3867,794.0098,133.3867,790.0098" style="stroke:#181818;stroke-width:1.0;"/><text fill="#000000" font-family="sans-serif" font-size="13" lengthAdjust="spacing" textLength="101.6133" x="133.3867" y="772.2676">Sign transaction</text><line style="stroke:#181818;stroke-width:1.0;" x1="126.3867" x2="168.3867" y1="819.3203" y2="819.3203"/><line style="stroke:#181818;stroke-width:1.0;" x1="168.3867" x2="168.3867" y1="819.3203" y2="832.3203"/><line style="stroke:#181818;stroke-width:1.0;" x1="127.3867" x2="168.3867" y1="832.3203" y2="832.3203"/><polygon fill="#181818" points="137.3867,828.3203,127.3867,832.3203,137.3867,836.3203,133.3867,832.3203" style="stroke:#181818;stroke-width:1.0;"/><text fill="#000000" font-family="sans-serif" font-size="13" lengthAdjust="spacing" textLength="185.3516" x="133.3867" y="814.5781">DistributeTransaction(ctx, tx)</text><polygon fill="#181818" points="796.0781,857.6309,806.0781,861.6309,796.0781,865.6309,800.0781,861.6309" style="stroke:#181818;stroke-width:1.0;"/><line style="stroke:#181818;stroke-width:1.0;" x1="126.3867" x2="802.0781" y1="861.6309" y2="861.6309"/><text fill="#000000" font-family="sans-serif" font-size="13" lengthAdjust="spacing" textLength="192.0166" x="133.3867" y="856.8887">insertSpendableUTXOs(ctx, tx)</text><polygon fill="#181818" points="132.3867,871.6309,122.3867,875.6309,132.3867,879.6309,128.3867,875.6309" style="stroke:#181818;stroke-width:1.0;"/><line style="stroke:#181818;stroke-width:1.0;stroke-dasharray:2.0,2.0;" x1="126.3867" x2="807.0781" y1="875.6309" y2="875.6309"/><line style="stroke:#000000;stroke-width:1.0;stroke-dasharray:2.0,2.0;" x1="20" x2="885.9956" y1="891.6309" y2="891.6309"/><text fill="#000000" font-family="sans-serif" font-size="11" font-weight="bold" lengthAdjust="spacing" textLength="135.3408" x="25" y="902.2656">[Parent Block Unknown]</text><line style="stroke:#181818;stroke-width:1.0;" x1="111.3867" x2="153.3867" y1="926.8965" y2="926.8965"/><line style="stroke:#181818;stroke-width:1.0;" x1="153.3867" x2="153.3867" y1="926.8965" y2="939.8965"/><line style="stroke:#181818;stroke-width:1.0;" x1="112.3867" x2="153.3867" y1="939.8965" y2="939.8965"/><polygon fill="#181818" points="122.3867,935.8965,112.3867,939.8965,122.3867,943.8965,118.3867,939.8965" style="stroke:#181818;stroke-width:1.0;"/><text fill="#000000" font-family="sans-serif" font-size="13" lengthAdjust="spacing" textLength="181.6509" x="118.3867" y="922.1543">catchup(ctx, block, baseURL)</text><path d="M326.6509,914.0859 L326.6509,939.0859 L571.6509,939.0859 L571.6509,924.0859 L561.6509,914.0859 L326.6509,914.0859 " fill="#FEFFDD" style="stroke:#181818;stroke-width:0.5;"/><path d="M561.6509,914.0859 L561.6509,924.0859 L571.6509,924.0859 L561.6509,914.0859 " fill="#FEFFDD" style="stroke:#181818;stroke-width:0.5;"/><text fill="#000000" font-family="sans-serif" font-size="13" lengthAdjust="spacing" textLength="224.231" x="332.6509" y="931.6543">Triggers a "catch up" recovery cycle</text><text fill="#888888" font-family="sans-serif" font-size="10" lengthAdjust="spacing" textLength="154.8389" x="0" y="1013.0527">Last Modified On: 07-Oct-2024</text><!--SRC=[ZLHDZzem4BtdLumYLG9fsH_0eGVIQhVgebqreFRgEBDWRR1TUyB2l-_O92I1i5rV2CbxRzvyUAnmfAIoGXEacL6w41uXHxT7buBma9d4zZ6BoiWtkHLAPvL2JH6qo6w182VZC89o6eAwQ6T8vfCaCp3xoefpoEl2IwSAd4Wwt44g6q8wJRGX1ASsMph3B2cZmU7V6ZsrCfcPms-X25wD0oQfLoL502QYei4BeAD5K9nBy9u0dqx2EYFH-_ZfP6Oh_FOEWflrhwTfX0j9QY_O5vUieuT47f1wr28yFZB_H5jaC6l251UXS-gutm_Aa-yft3-YAD7T1wKNX_k8EadcT9R4I3lvuunVXEEUdNA4dzgyw_XfcAqF_RWqF3q3B_CS-it7oDoyj1FesOjVVvHSJmpD737JbBuTbfvee3MLu19Cfks_5hewVCPpvkUWj4T7BM-z-lFiB-B84StCDscCAAvj6QBj1DKEIuYIG0QyHLsAeiB_gt3kqY6hv86Zz6PD1zFu8hNZ8HSx-t66bJ4sJZuAkHsOEKCkEcyhHI7EAKpDJzC1T2pAK2ABda7ZEv0JsWU6qJV0UOWN3N4FGdbseghGWQd9ritOZh3KHdz2_1jFFc-Fcd3LOPlw7QPZfFCev6sRUhDmnRbgN3WbZfM8rPAF4TTliUBLEBYlQ_rsuyRo2fFRsWvkt60tXTFVcIl-tQ3p87Yj1ZBKDkNbAGtl_IF8esn6j7K-z1VU9XM-XhtAgWwUX2TOcfBNAK_Oivx3bt019cbPpfRBvUp8XpV0Fm00]--></g></svg>
