<svg contentStyleType="text/css" height="822" preserveAspectRatio="none" viewBox="0 0 865 822" width="865" xmlns="http://www.w3.org/2000/svg" zoomAndPan="magnify"><path d="m0 0h865v822h-865z" fill="#f0f8ff"/><g stroke="#181818"><path d="m250.4258 114.1094h10v621.2109h-10z" fill="#fff"/><path d="m255.4258 185.7305h10v364.7266h-10z" fill="#fff"/><path d="m255.4258 579.7676h10v146.5527h-10z" fill="#fff"/><path d="m28 67.4883v676.832" stroke-dasharray="5 5" stroke-width=".5"/><path d="m255.3096 67.4883v676.832" stroke-dasharray="5 5" stroke-width=".5"/><path d="m502.4229 67.4883v676.832" stroke-dasharray="5 5" stroke-width=".5"/><path d="m581.3213 67.4883v676.832" stroke-dasharray="5 5" stroke-width=".5"/><path d="m730.3413 67.4883v676.832" stroke-dasharray="5 5" stroke-width=".5"/><path d="m817.0063 67.4883v676.832" stroke-dasharray="5 5" stroke-width=".5"/></g><rect fill="#ddd" height="30.4883" rx="2.5" stroke="#666" stroke-width=".5" width="46.5254" x="5" y="36"/><text fill="#333" font-family="sans-serif" font-size="14" lengthAdjust="spacing" textLength="32.5254" x="12" y="56.5352">Main</text><rect fill="#ddd" height="30.4883" rx="2.5" stroke="#666" stroke-width=".5" width="46.5254" x="5" y="743.3203"/><text fill="#333" font-family="sans-serif" font-size="14" lengthAdjust="spacing" textLength="32.5254" x="12" y="763.8555">Main</text><rect fill="#ddd" height="30.4883" rx="2.5" stroke="#666" stroke-width=".5" width="98.2324" x="206.3096" y="36"/><text fill="#333" font-family="sans-serif" font-size="14" lengthAdjust="spacing" textLength="84.2324" x="213.3096" y="56.5352">Alert Service</text><rect fill="#ddd" height="30.4883" rx="2.5" stroke="#666" stroke-width=".5" width="98.2324" x="206.3096" y="743.3203"/><text fill="#333" font-family="sans-serif" font-size="14" lengthAdjust="spacing" textLength="84.2324" x="213.3096" y="763.8555">Alert Service</text><rect fill="#ddd" height="30.4883" rx="2.5" stroke="#666" stroke-width=".5" width="58.8984" x="473.4229" y="36"/><text fill="#333" font-family="sans-serif" font-size="14" lengthAdjust="spacing" textLength="44.8984" x="480.4229" y="56.5352">Config</text><rect fill="#ddd" height="30.4883" rx="2.5" stroke="#666" stroke-width=".5" width="58.8984" x="473.4229" y="743.3203"/><text fill="#333" font-family="sans-serif" font-size="14" lengthAdjust="spacing" textLength="44.8984" x="480.4229" y="763.8555">Config</text><rect fill="#ddd" height="30.4883" rx="2.5" stroke="#666" stroke-width=".5" width="79.6865" x="542.3213" y="36"/><text fill="#333" font-family="sans-serif" font-size="14" lengthAdjust="spacing" textLength="65.6865" x="549.3213" y="56.5352">Datastore</text><rect fill="#ddd" height="30.4883" rx="2.5" stroke="#666" stroke-width=".5" width="79.6865" x="542.3213" y="743.3203"/><text fill="#333" font-family="sans-serif" font-size="14" lengthAdjust="spacing" textLength="65.6865" x="549.3213" y="763.8555">Datastore</text><text fill="#333" font-family="sans-serif" font-size="14" lengthAdjust="spacing" textLength="62.665" x="696.3413" y="64.5352">Database</text><path d="m712.6738 15c0-10 18-10 18-10s18 0 18 10v26c0 10-18 10-18 10s-18 0-18-10z" fill="#e2e2f0" stroke="#181818" stroke-width="1.5"/><path d="m712.6738 15c0 10 18 10 18 10s18 0 18-10" fill="none" stroke="#181818" stroke-width="1.5"/><text fill="#333" font-family="sans-serif" font-size="14" lengthAdjust="spacing" textLength="62.665" x="696.3413" y="756.8555">Database</text><path d="m712.6738 769.8086c0-10 18-10 18-10s18 0 18 10v26c0 10-18 10-18 10s-18 0-18-10z" fill="#e2e2f0" stroke="#181818" stroke-width="1.5"/><path d="m712.6738 769.8086c0 10 18 10 18 10s18 0 18-10" fill="none" stroke="#181818" stroke-width="1.5"/><rect fill="#ddd" height="30.4883" rx="2.5" stroke="#666" stroke-width=".5" width="84.6016" x="775.0063" y="36"/><text fill="#333" font-family="sans-serif" font-size="14" lengthAdjust="spacing" textLength="70.6016" x="782.0063" y="56.5352">P2P Server</text><rect fill="#ddd" height="30.4883" rx="2.5" stroke="#666" stroke-width=".5" width="84.6016" x="775.0063" y="743.3203"/><text fill="#333" font-family="sans-serif" font-size="14" lengthAdjust="spacing" textLength="70.6016" x="782.0063" y="763.8555">P2P Server</text><path d="m250.4258 114.1094h10v621.2109h-10z" fill="#fff" stroke="#181818"/><path d="m255.4258 185.7305h10v364.7266h-10z" fill="#fff" stroke="#181818"/><path d="m255.4258 579.7676h10v146.5527h-10z" fill="#fff" stroke="#181818"/><path d="m238.4258 110.1094 10 4-10 4 4-4z" fill="#666" stroke="#666"/><path d="m28.2627 114.1094h216.1631" stroke="#666"/><text fill="#333" font-family="sans-serif" font-size="13" lengthAdjust="spacing" textLength="188.5444" x="35.2627" y="94.0566">New(logger, blockchainClient,</text><text fill="#333" font-family="sans-serif" font-size="13" lengthAdjust="spacing" textLength="203.1631" x="35.2627" y="109.3672">utxoStore, blockassemblyClient)</text><path d="m260.4258 143.4199h42" stroke="#666"/><path d="m302.4258 143.4199v13" stroke="#666"/><path d="m261.4258 156.4199h41" stroke="#666"/><path d="m271.4258 152.4199-10 4 10 4-4-4z" fill="#666" stroke="#666"/><text fill="#333" font-family="sans-serif" font-size="13" lengthAdjust="spacing" textLength="149.3032" x="267.4258" y="138.6777">initPrometheusMetrics()</text><path d="m243.4258 181.7305 10 4-10 4 4-4z" fill="#666" stroke="#666"/><path d="m28.2627 185.7305h221.1631" stroke="#666"/><text fill="#333" font-family="sans-serif" font-size="13" lengthAdjust="spacing" textLength="48.3818" x="35.2627" y="180.9883">Init(ctx)</text><path d="m490.8721 211.041 10 4-10 4 4-4z" fill="#666" stroke="#666"/><path d="m265.4258 215.041h231.4463" stroke="#666"/><text fill="#333" font-family="sans-serif" font-size="13" lengthAdjust="spacing" textLength="118.9868" x="272.4258" y="210.2988">Load configuration</text><path d="m276.4258 240.3516-10 4 10 4-4-4z" fill="#666" stroke="#666"/><path d="m270.4258 244.3516h231.4463" stroke="#666" stroke-dasharray="2 2"/><text fill="#333" font-family="sans-serif" font-size="13" lengthAdjust="spacing" textLength="130.4888" x="282.4258" y="239.6094">Return configuration</text><path d="m570.1646 269.6621 10 4-10 4 4-4z" fill="#666" stroke="#666"/><path d="m265.4258 273.6621h310.7388" stroke="#666"/><text fill="#333" font-family="sans-serif" font-size="13" lengthAdjust="spacing" textLength="101.3911" x="272.4258" y="268.9199">Initialize(config)</text><path d="m718.6738 298.9727 10 4-10 4 4-4z" fill="#666" stroke="#666"/><path d="m582.1646 302.9727h142.5092" stroke="#666"/><text fill="#333" font-family="sans-serif" font-size="13" lengthAdjust="spacing" textLength="118.5171" x="589.1646" y="298.2305">Connect and setup</text><path d="m593.1646 328.2832-10 4 10 4-4-4z" fill="#666" stroke="#666"/><path d="m587.1646 332.2832h142.5092" stroke="#666" stroke-dasharray="2 2"/><text fill="#333" font-family="sans-serif" font-size="13" lengthAdjust="spacing" textLength="124.5093" x="599.1646" y="327.541">Confirm connection</text><path d="m276.4258 357.5938-10 4 10 4-4-4z" fill="#666" stroke="#666"/><path d="m270.4258 361.5938h310.7388" stroke="#666" stroke-dasharray="2 2"/><text fill="#333" font-family="sans-serif" font-size="13" lengthAdjust="spacing" textLength="99.8232" x="282.4258" y="356.8516">Datastore ready</text><path d="m265.4258 390.9043h42" stroke="#666"/><path d="m307.4258 390.9043v13" stroke="#666"/><path d="m266.4258 403.9043h41" stroke="#666"/><path d="m276.4258 399.9043-10 4 10 4-4-4z" fill="#666" stroke="#666"/><text fill="#333" font-family="sans-serif" font-size="13" lengthAdjust="spacing" textLength="125.0996" x="272.4258" y="386.1621">Create genesis alert</text><path d="m718.6738 429.2148 10 4-10 4 4-4z" fill="#666" stroke="#666"/><path d="m265.4258 433.2148h459.248" stroke="#666"/><text fill="#333" font-family="sans-serif" font-size="13" lengthAdjust="spacing" textLength="116.6699" x="272.4258" y="428.4727">Store genesis alert</text><path d="m276.4258 458.5254-10 4 10 4-4-4z" fill="#666" stroke="#666"/><path d="m270.4258 462.5254h459.248" stroke="#666" stroke-dasharray="2 2"/><text fill="#333" font-family="sans-serif" font-size="13" lengthAdjust="spacing" textLength="102.4766" x="282.4258" y="457.7832">Confirm storage</text><path d="m490.8721 487.8359 10 4-10 4 4-4z" fill="#666" stroke="#666"/><path d="m265.4258 491.8359h231.4463" stroke="#666"/><text fill="#333" font-family="sans-serif" font-size="13" lengthAdjust="spacing" textLength="213.4463" x="272.4258" y="487.0938">Verify RPC connection (if enabled)</text><path d="m276.4258 517.1465-10 4 10 4-4-4z" fill="#666" stroke="#666"/><path d="m270.4258 521.1465h231.4463" stroke="#666" stroke-dasharray="2 2"/><text fill="#333" font-family="sans-serif" font-size="13" lengthAdjust="spacing" textLength="153.0229" x="282.4258" y="516.4043">Confirm RPC connection</text><path d="m39.2627 546.457-10 4 10 4-4-4z" fill="#666" stroke="#666"/><path d="m33.2627 550.457h216.1631" stroke="#666" stroke-dasharray="2 2"/><text fill="#333" font-family="sans-serif" font-size="13" lengthAdjust="spacing" textLength="82.6147" x="45.2627" y="545.7148">Init complete</text><path d="m243.4258 575.7676 10 4-10 4 4-4z" fill="#666" stroke="#666"/><path d="m28.2627 579.7676h221.1631" stroke="#666"/><text fill="#333" font-family="sans-serif" font-size="13" lengthAdjust="spacing" textLength="57.1733" x="35.2627" y="575.0254">Start(ctx)</text><path d="m805.3071 605.0781 10 4-10 4 4-4z" fill="#666" stroke="#666"/><path d="m265.4258 609.0781h545.8813" stroke="#666"/><text fill="#333" font-family="sans-serif" font-size="13" lengthAdjust="spacing" textLength="113.5278" x="272.4258" y="604.3359">NewServer(config)</text><path d="m276.4258 634.3887-10 4 10 4-4-4z" fill="#666" stroke="#666"/><path d="m270.4258 638.3887h545.8813" stroke="#666" stroke-dasharray="2 2"/><text fill="#333" font-family="sans-serif" font-size="13" lengthAdjust="spacing" textLength="122.1353" x="282.4258" y="633.6465">P2P Server instance</text><path d="m805.3071 663.6992 10 4-10 4 4-4z" fill="#666" stroke="#666"/><path d="m265.4258 667.6992h545.8813" stroke="#666"/><text fill="#333" font-family="sans-serif" font-size="13" lengthAdjust="spacing" textLength="57.1733" x="272.4258" y="662.957">Start(ctx)</text><path d="m276.4258 693.0098-10 4 10 4-4-4z" fill="#666" stroke="#666"/><path d="m270.4258 697.0098h545.8813" stroke="#666" stroke-dasharray="2 2"/><text fill="#333" font-family="sans-serif" font-size="13" lengthAdjust="spacing" textLength="113.9468" x="282.4258" y="692.2676">P2P Server started</text><path d="m39.2627 722.3203-10 4 10 4-4-4z" fill="#666" stroke="#666"/><path d="m33.2627 726.3203h216.1631" stroke="#666" stroke-dasharray="2 2"/><text fill="#333" font-family="sans-serif" font-size="13" lengthAdjust="spacing" textLength="92.3394" x="45.2627" y="721.5781">Service started</text></svg>
