<svg xmlns="http://www.w3.org/2000/svg" xmlns:xlink="http://www.w3.org/1999/xlink" contentStyleType="text/css" height="718px" preserveAspectRatio="none" style="width:1005px;height:718px;background:#F0F8FF;" version="1.1" viewBox="0 0 1005 718" width="1005px" zoomAndPan="magnify"><defs/><g><rect fill="#F0F8FF" height="718" style="stroke:none;stroke-width:1.0;" width="1005" x="0" y="0"/><rect fill="#FFFFFF" height="259.8633" style="stroke:#181818;stroke-width:1.0;" width="10" x="142.6577" y="366.6621"/><rect fill="#FFFFFF" height="143.9316" style="stroke:#181818;stroke-width:1.0;" width="10" x="418.4287" y="142.1094"/><rect fill="#FFFFFF" height="143.9316" style="stroke:#181818;stroke-width:1.0;" width="10" x="418.4287" y="467.5938"/><rect fill="#FFFFFF" height="100.6211" style="stroke:#181818;stroke-width:1.0;" width="10" x="629.918" y="171.4199"/><rect fill="#FFFFFF" height="100.6211" style="stroke:#181818;stroke-width:1.0;" width="10" x="629.918" y="496.9043"/><rect fill="#FFFFFF" height="57.3105" style="stroke:#181818;stroke-width:1.0;" width="10" x="767.8389" y="200.7305"/><rect fill="#FFFFFF" height="57.3105" style="stroke:#181818;stroke-width:1.0;" width="10" x="767.8389" y="526.2148"/><rect fill="#FFFFFF" height="14" style="stroke:#181818;stroke-width:1.0;" width="10" x="907.8232" y="230.041"/><rect fill="#FFFFFF" height="14" style="stroke:#181818;stroke-width:1.0;" width="10" x="907.8232" y="555.5254"/><rect fill="none" height="190.5527" style="stroke:#000000;stroke-width:1.5;" width="978.2627" x="10" y="428.9727"/><line style="stroke:#181818;stroke-width:0.5;stroke-dasharray:5.0,5.0;" x1="147" x2="147" y1="67.4883" y2="636.5254"/><line style="stroke:#181818;stroke-width:0.5;stroke-dasharray:5.0,5.0;" x1="423.3154" x2="423.3154" y1="67.4883" y2="636.5254"/><line style="stroke:#181818;stroke-width:0.5;stroke-dasharray:5.0,5.0;" x1="634.542" x2="634.542" y1="67.4883" y2="636.5254"/><line style="stroke:#181818;stroke-width:0.5;stroke-dasharray:5.0,5.0;" x1="772.2939" x2="772.2939" y1="67.4883" y2="636.5254"/><line style="stroke:#181818;stroke-width:0.5;stroke-dasharray:5.0,5.0;" x1="912.3838" x2="912.3838" y1="67.4883" y2="636.5254"/><rect fill="#DDDDDD" height="46.9766" rx="2.5" ry="2.5" style="stroke:#666666;stroke-width:0.5;" width="255.3154" x="20" y="19.5117"/><text fill="#333333" font-family="sans-serif" font-size="14" lengthAdjust="spacing" textLength="151.7305" x="71.7925" y="40.0469">Block Assembly Server</text><text fill="#333333" font-family="sans-serif" font-size="14" lengthAdjust="spacing" textLength="241.3154" x="27" y="56.5352">(services/blockassembly/Server.go)</text><rect fill="#DDDDDD" height="46.9766" rx="2.5" ry="2.5" style="stroke:#666666;stroke-width:0.5;" width="255.3154" x="20" y="635.5254"/><text fill="#333333" font-family="sans-serif" font-size="14" lengthAdjust="spacing" textLength="151.7305" x="71.7925" y="656.0605">Block Assembly Server</text><text fill="#333333" font-family="sans-serif" font-size="14" lengthAdjust="spacing" textLength="241.3154" x="27" y="672.5488">(services/blockassembly/Server.go)</text><rect fill="#DDDDDD" height="46.9766" rx="2.5" ry="2.5" style="stroke:#666666;stroke-width:0.5;" width="276.2266" x="285.3154" y="19.5117"/><text fill="#333333" font-family="sans-serif" font-size="14" lengthAdjust="spacing" textLength="80.958" x="382.9497" y="40.0469">Remote TTL</text><text fill="#333333" font-family="sans-serif" font-size="14" lengthAdjust="spacing" textLength="262.2266" x="292.3154" y="56.5352">(services/blockassembly/remotettl.go)</text><rect fill="#DDDDDD" height="46.9766" rx="2.5" ry="2.5" style="stroke:#666666;stroke-width:0.5;" width="276.2266" x="285.3154" y="635.5254"/><text fill="#333333" font-family="sans-serif" font-size="14" lengthAdjust="spacing" textLength="80.958" x="382.9497" y="656.0605">Remote TTL</text><text fill="#333333" font-family="sans-serif" font-size="14" lengthAdjust="spacing" textLength="262.2266" x="292.3154" y="672.5488">(services/blockassembly/remotettl.go)</text><rect fill="#DDDDDD" height="46.9766" rx="2.5" ry="2.5" style="stroke:#666666;stroke-width:0.5;" width="126.752" x="571.542" y="19.5117"/><text fill="#333333" font-family="sans-serif" font-size="14" lengthAdjust="spacing" textLength="80.9033" x="594.4663" y="40.0469">Asset Client</text><text fill="#333333" font-family="sans-serif" font-size="14" lengthAdjust="spacing" textLength="112.752" x="578.542" y="56.5352">(asset/Client.go)</text><rect fill="#DDDDDD" height="46.9766" rx="2.5" ry="2.5" style="stroke:#666666;stroke-width:0.5;" width="126.752" x="571.542" y="635.5254"/><text fill="#333333" font-family="sans-serif" font-size="14" lengthAdjust="spacing" textLength="80.9033" x="594.4663" y="656.0605">Asset Client</text><text fill="#333333" font-family="sans-serif" font-size="14" lengthAdjust="spacing" textLength="112.752" x="578.542" y="672.5488">(asset/Client.go)</text><rect fill="#DDDDDD" height="46.9766" rx="2.5" ry="2.5" style="stroke:#666666;stroke-width:0.5;" width="129.0898" x="708.2939" y="19.5117"/><text fill="#333333" font-family="sans-serif" font-size="14" lengthAdjust="spacing" textLength="83.2412" x="731.2183" y="40.0469">Asset Server</text><text fill="#333333" font-family="sans-serif" font-size="14" lengthAdjust="spacing" textLength="115.0898" x="715.2939" y="56.5352">(asset/Server.go)</text><rect fill="#DDDDDD" height="46.9766" rx="2.5" ry="2.5" style="stroke:#666666;stroke-width:0.5;" width="129.0898" x="708.2939" y="635.5254"/><text fill="#333333" font-family="sans-serif" font-size="14" lengthAdjust="spacing" textLength="83.2412" x="731.2183" y="656.0605">Asset Server</text><text fill="#333333" font-family="sans-serif" font-size="14" lengthAdjust="spacing" textLength="115.0898" x="715.2939" y="672.5488">(asset/Server.go)</text><text fill="#333333" font-family="sans-serif" font-size="14" lengthAdjust="spacing" textLength="124.8789" x="847.3838" y="64.5352">Blob Subtree Store</text><path d="M894.8232,15 C894.8232,5 912.8232,5 912.8232,5 C912.8232,5 930.8232,5 930.8232,15 L930.8232,41 C930.8232,51 912.8232,51 912.8232,51 C912.8232,51 894.8232,51 894.8232,41 L894.8232,15 " fill="#E2E2F0" style="stroke:#181818;stroke-width:1.5;"/><path d="M894.8232,15 C894.8232,25 912.8232,25 912.8232,25 C912.8232,25 930.8232,25 930.8232,15 " fill="none" style="stroke:#181818;stroke-width:1.5;"/><text fill="#333333" font-family="sans-serif" font-size="14" lengthAdjust="spacing" textLength="124.8789" x="847.3838" y="649.0605">Blob Subtree Store</text><path d="M894.8232,662.0137 C894.8232,652.0137 912.8232,652.0137 912.8232,652.0137 C912.8232,652.0137 930.8232,652.0137 930.8232,662.0137 L930.8232,688.0137 C930.8232,698.0137 912.8232,698.0137 912.8232,698.0137 C912.8232,698.0137 894.8232,698.0137 894.8232,688.0137 L894.8232,662.0137 " fill="#E2E2F0" style="stroke:#181818;stroke-width:1.5;"/><path d="M894.8232,662.0137 C894.8232,672.0137 912.8232,672.0137 912.8232,672.0137 C912.8232,672.0137 930.8232,672.0137 930.8232,662.0137 " fill="none" style="stroke:#181818;stroke-width:1.5;"/><rect fill="#FFFFFF" height="259.8633" style="stroke:#181818;stroke-width:1.0;" width="10" x="142.6577" y="366.6621"/><rect fill="#FFFFFF" height="143.9316" style="stroke:#181818;stroke-width:1.0;" width="10" x="418.4287" y="142.1094"/><rect fill="#FFFFFF" height="143.9316" style="stroke:#181818;stroke-width:1.0;" width="10" x="418.4287" y="467.5938"/><rect fill="#FFFFFF" height="100.6211" style="stroke:#181818;stroke-width:1.0;" width="10" x="629.918" y="171.4199"/><rect fill="#FFFFFF" height="100.6211" style="stroke:#181818;stroke-width:1.0;" width="10" x="629.918" y="496.9043"/><rect fill="#FFFFFF" height="57.3105" style="stroke:#181818;stroke-width:1.0;" width="10" x="767.8389" y="200.7305"/><rect fill="#FFFFFF" height="57.3105" style="stroke:#181818;stroke-width:1.0;" width="10" x="767.8389" y="526.2148"/><rect fill="#FFFFFF" height="14" style="stroke:#181818;stroke-width:1.0;" width="10" x="907.8232" y="230.041"/><rect fill="#FFFFFF" height="14" style="stroke:#181818;stroke-width:1.0;" width="10" x="907.8232" y="555.5254"/><rect fill="#EEEEEE" height="3" style="stroke:#EEEEEE;stroke-width:1.0;" width="998.2627" x="0" y="98.1436"/><line style="stroke:#000000;stroke-width:1.0;" x1="0" x2="998.2627" y1="98.1436" y2="98.1436"/><line style="stroke:#000000;stroke-width:1.0;" x1="0" x2="998.2627" y1="101.1436" y2="101.1436"/><rect fill="#EEEEEE" height="23.3105" style="stroke:#000000;stroke-width:2.0;" width="163.2524" x="417.5051" y="87.4883"/><text fill="#333333" font-family="sans-serif" font-size="13" font-weight="bold" lengthAdjust="spacing" textLength="144.9678" x="423.5051" y="104.0566">New Subtree Scenario</text><polygon fill="#666666" points="406.4287,138.1094,416.4287,142.1094,406.4287,146.1094,410.4287,142.1094" style="stroke:#666666;stroke-width:1.0;"/><line style="stroke:#666666;stroke-width:1.0;" x1="147.6577" x2="412.4287" y1="142.1094" y2="142.1094"/><text fill="#333333" font-family="sans-serif" font-size="13" lengthAdjust="spacing" textLength="102.8257" x="154.6577" y="137.3672">Set(ctx, subtree)</text><polygon fill="#666666" points="617.918,167.4199,627.918,171.4199,617.918,175.4199,621.918,171.4199" style="stroke:#666666;stroke-width:1.0;"/><line style="stroke:#666666;stroke-width:1.0;" x1="428.4287" x2="623.918" y1="171.4199" y2="171.4199"/><text fill="#333333" font-family="sans-serif" font-size="13" lengthAdjust="spacing" textLength="102.4512" x="435.4287" y="166.6777">set(ctx, subtree)</text><polygon fill="#666666" points="755.8389,196.7305,765.8389,200.7305,755.8389,204.7305,759.8389,200.7305" style="stroke:#666666;stroke-width:1.0;"/><line style="stroke:#666666;stroke-width:1.0;" x1="639.918" x2="761.8389" y1="200.7305" y2="200.7305"/><text fill="#333333" font-family="sans-serif" font-size="13" lengthAdjust="spacing" textLength="102.8257" x="646.918" y="195.9883">Set(ctx, subtree)</text><polygon fill="#666666" points="895.8232,226.041,905.8232,230.041,895.8232,234.041,899.8232,230.041" style="stroke:#666666;stroke-width:1.0;"/><line style="stroke:#666666;stroke-width:1.0;" x1="777.8389" x2="901.8232" y1="230.041" y2="230.041"/><text fill="#333333" font-family="sans-serif" font-size="13" lengthAdjust="spacing" textLength="102.8257" x="784.8389" y="225.2988">Set(ctx, subtree)</text><polygon fill="#666666" points="788.8389,240.041,778.8389,244.041,788.8389,248.041,784.8389,244.041" style="stroke:#666666;stroke-width:1.0;"/><line style="stroke:#666666;stroke-width:1.0;stroke-dasharray:2.0,2.0;" x1="782.8389" x2="911.8232" y1="244.041" y2="244.041"/><polygon fill="#666666" points="650.918,254.041,640.918,258.041,650.918,262.041,646.918,258.041" style="stroke:#666666;stroke-width:1.0;"/><line style="stroke:#666666;stroke-width:1.0;stroke-dasharray:2.0,2.0;" x1="644.918" x2="771.8389" y1="258.041" y2="258.041"/><polygon fill="#666666" points="439.4287,268.041,429.4287,272.041,439.4287,276.041,435.4287,272.041" style="stroke:#666666;stroke-width:1.0;"/><line style="stroke:#666666;stroke-width:1.0;stroke-dasharray:2.0,2.0;" x1="433.4287" x2="633.918" y1="272.041" y2="272.041"/><polygon fill="#666666" points="158.6577,282.041,148.6577,286.041,158.6577,290.041,154.6577,286.041" style="stroke:#666666;stroke-width:1.0;"/><line style="stroke:#666666;stroke-width:1.0;stroke-dasharray:2.0,2.0;" x1="152.6577" x2="422.4287" y1="286.041" y2="286.041"/><rect fill="#EEEEEE" height="3" style="stroke:#EEEEEE;stroke-width:1.0;" width="998.2627" x="0" y="314.6963"/><line style="stroke:#000000;stroke-width:1.0;" x1="0" x2="998.2627" y1="314.6963" y2="314.6963"/><line style="stroke:#000000;stroke-width:1.0;" x1="0" x2="998.2627" y1="317.6963" y2="317.6963"/><rect fill="#EEEEEE" height="23.3105" style="stroke:#000000;stroke-width:2.0;" width="203.395" x="397.4338" y="304.041"/><text fill="#333333" font-family="sans-serif" font-size="13" font-weight="bold" lengthAdjust="spacing" textLength="185.1104" x="403.4338" y="320.6094">Clear Subtree DAH Scenario</text><line style="stroke:#666666;stroke-width:1.0;" x1="147.6577" x2="194.6577" y1="353.6621" y2="353.6621"/><line style="stroke:#666666;stroke-width:1.0;" x1="194.6577" x2="194.6577" y1="353.6621" y2="366.6621"/><line style="stroke:#666666;stroke-width:1.0;" x1="153.6577" x2="194.6577" y1="366.6621" y2="366.6621"/><polygon fill="#666666" points="163.6577,362.6621,153.6577,366.6621,163.6577,370.6621,159.6577,366.6621" style="stroke:#666666;stroke-width:1.0;"/><text fill="#333333" font-family="sans-serif" font-size="13" lengthAdjust="spacing" textLength="208.4316" x="159.6577" y="348.9199">submitMiningSolution(ctx, block)</text><line style="stroke:#666666;stroke-width:1.0;" x1="152.6577" x2="194.6577" y1="400.9727" y2="400.9727"/><line style="stroke:#666666;stroke-width:1.0;" x1="194.6577" x2="194.6577" y1="400.9727" y2="413.9727"/><line style="stroke:#666666;stroke-width:1.0;" x1="153.6577" x2="194.6577" y1="413.9727" y2="413.9727"/><polygon fill="#666666" points="163.6577,409.9727,153.6577,413.9727,163.6577,417.9727,159.6577,413.9727" style="stroke:#666666;stroke-width:1.0;"/><text fill="#333333" font-family="sans-serif" font-size="13" lengthAdjust="spacing" textLength="199.1133" x="159.6577" y="396.2305">removeSubtreesDAH(ctx, Block)</text><path d="M10,428.9727 L84.4468,428.9727 L84.4468,436.2832 L74.4468,446.2832 L10,446.2832 L10,428.9727 " fill="#EEEEEE" style="stroke:#000000;stroke-width:1.5;"/><rect fill="none" height="190.5527" style="stroke:#000000;stroke-width:1.5;" width="978.2627" x="10" y="428.9727"/><text fill="#333333" font-family="sans-serif" font-size="13" font-weight="bold" lengthAdjust="spacing" textLength="29.4468" x="25" y="442.541">loop</text><text fill="#333333" font-family="sans-serif" font-size="11" font-weight="bold" lengthAdjust="spacing" textLength="173.1963" x="99.4468" y="441.6074">[For Each Subtree in the Block]</text><polygon fill="#666666" points="406.4287,463.5938,416.4287,467.5938,406.4287,471.5938,410.4287,467.5938" style="stroke:#666666;stroke-width:1.0;"/><line style="stroke:#666666;stroke-width:1.0;" x1="152.6577" x2="412.4287" y1="467.5938" y2="467.5938"/><text fill="#333333" font-family="sans-serif" font-size="13" lengthAdjust="spacing" textLength="106.9707" x="159.6577" y="462.8516">SetDAH(ctx, dah)</text><polygon fill="#666666" points="617.918,492.9043,627.918,496.9043,617.918,500.9043,621.918,496.9043" style="stroke:#666666;stroke-width:1.0;"/><line style="stroke:#666666;stroke-width:1.0;" x1="428.4287" x2="623.918" y1="496.9043" y2="496.9043"/><text fill="#333333" font-family="sans-serif" font-size="13" lengthAdjust="spacing" textLength="106.9707" x="435.4287" y="492.1621">SetDAH(ctx, dah)</text><polygon fill="#666666" points="755.8389,522.2148,765.8389,526.2148,755.8389,530.2148,759.8389,526.2148" style="stroke:#666666;stroke-width:1.0;"/><line style="stroke:#666666;stroke-width:1.0;" x1="639.918" x2="761.8389" y1="526.2148" y2="526.2148"/><text fill="#333333" font-family="sans-serif" font-size="13" lengthAdjust="spacing" textLength="106.9707" x="646.918" y="521.4727">SetDAH(ctx, dah)</text><polygon fill="#666666" points="895.8232,551.5254,905.8232,555.5254,895.8232,559.5254,899.8232,555.5254" style="stroke:#666666;stroke-width:1.0;"/><line style="stroke:#666666;stroke-width:1.0;" x1="777.8389" x2="901.8232" y1="555.5254" y2="555.5254"/><text fill="#333333" font-family="sans-serif" font-size="13" lengthAdjust="spacing" textLength="106.9707" x="784.8389" y="550.7832">SetDAH(ctx, dah)</text><polygon fill="#666666" points="788.8389,565.5254,778.8389,569.5254,788.8389,573.5254,784.8389,569.5254" style="stroke:#666666;stroke-width:1.0;"/><line style="stroke:#666666;stroke-width:1.0;stroke-dasharray:2.0,2.0;" x1="782.8389" x2="911.8232" y1="569.5254" y2="569.5254"/><polygon fill="#666666" points="650.918,579.5254,640.918,583.5254,650.918,587.5254,646.918,583.5254" style="stroke:#666666;stroke-width:1.0;"/><line style="stroke:#666666;stroke-width:1.0;stroke-dasharray:2.0,2.0;" x1="644.918" x2="771.8389" y1="583.5254" y2="583.5254"/><polygon fill="#666666" points="439.4287,593.5254,429.4287,597.5254,439.4287,601.5254,435.4287,597.5254" style="stroke:#666666;stroke-width:1.0;"/><line style="stroke:#666666;stroke-width:1.0;stroke-dasharray:2.0,2.0;" x1="433.4287" x2="633.918" y1="597.5254" y2="597.5254"/><polygon fill="#666666" points="163.6577,607.5254,153.6577,611.5254,163.6577,615.5254,159.6577,611.5254" style="stroke:#666666;stroke-width:1.0;"/><line style="stroke:#666666;stroke-width:1.0;stroke-dasharray:2.0,2.0;" x1="157.6577" x2="422.4287" y1="611.5254" y2="611.5254"/><text fill="#333333" font-family="sans-serif" font-size="10" lengthAdjust="spacing" textLength="157.5488" x="0" y="708.6816">Last Modified On: 04-Aug-2025</text><!--SRC=[fLNVYnen47xFNp5OIXNEMYYKG_3Wr2vzE5kezzYNx6RKO4maYLwbz7zlDbbtip_KQvi7CPdvlfdvCfCrMoxtLDCTf3JRhhKwI3PJGcbuatn8xfE4cDA3uOeUX4sKj8NBHxyY5wgrUYcCd_mYv1tCSSKbGgeqGsrWvQnK2421EvJMH7YtvVO4lmZ0r7lNkTnfCykvN-GtYLWobw5MudzftA_b6TzJQV-DYf2OeZSLAjl2ep6uIyK9bgYFg7_8ld5_U8PcbEOEjB2FWltzMWrwG0ruz1aSR7NwxxXJ5k7v-Uaof_O-regIDg0Sg4wM1x8m4zpTYAFB2UmeR4kezmbdNU2olW1kbEDzYZ8OjJIb1hr4AImFgTM8iBHAuxdsrEy8cKpWAxvKFXbAghc2oOHqA0J3Xwf26BkSR3-pF-_01Fo0qCpo8tMwLK9K08UEYdHuSnaVgn63pXn5GbTpY4M9GOwZbE0wGwLK1HZMKo0CEznhuUfrnu1MXkSgOw5RW88d4ZPKr6he25YnvNS-4qXrUUlpno-lkVckut4ksexR1PTShfTA72nNCiZfPwKkPYl3lmgLZziHYwoDoph4cOOuGgaz9Ex9-4opJLaRbs0tHMptl02yhgrBSaOt0u_hK38_ljBTrsdYcymDjvhy5bKXQ4briTUl45NzMoXreULpQsVRjw8tMhy1x4oySmIwW17dxL5e45JCA5bZX5jO8d1btNVM8JGyKMDXeHXVSMJmJOxXhNjmiTzZRBXOB8Odjte3yWS0]--></g></svg>
