<svg xmlns="http://www.w3.org/2000/svg" xmlns:xlink="http://www.w3.org/1999/xlink" contentStyleType="text/css" height="724px" preserveAspectRatio="none" style="width:500px;height:724px;background:#F0F8FF;" version="1.1" viewBox="0 0 500 724" width="500px" zoomAndPan="magnify"><defs/><g><rect fill="#F0F8FF" height="724" style="stroke:none;stroke-width:1.0;" width="500" x="0" y="0"/><rect fill="#FFFFFF" height="29.3105" style="stroke:#181818;stroke-width:1.0;" width="10" x="246.1992" y="142.1094"/><rect fill="#FFFFFF" height="132.2422" style="stroke:#181818;stroke-width:1.0;" width="10" x="246.1992" y="252.041"/><rect fill="#FFFFFF" height="73.6211" style="stroke:#181818;stroke-width:1.0;" width="10" x="246.1992" y="456.9043"/><rect fill="#FFFFFF" height="29.3105" style="stroke:#181818;stroke-width:1.0;" width="10" x="246.1992" y="595.1465"/><rect fill="none" height="46.6211" style="stroke:#000000;stroke-width:1.5;" width="317.894" x="10" y="330.6621"/><rect fill="none" height="46.6211" style="stroke:#000000;stroke-width:1.5;" width="317.894" x="10" y="476.9043"/><line style="stroke:#181818;stroke-width:0.5;stroke-dasharray:5.0,5.0;" x1="85" x2="85" y1="67.4883" y2="642.457"/><line style="stroke:#181818;stroke-width:0.5;stroke-dasharray:5.0,5.0;" x1="250.5044" x2="250.5044" y1="67.4883" y2="642.457"/><line style="stroke:#181818;stroke-width:0.5;stroke-dasharray:5.0,5.0;" x1="432.2153" x2="432.2153" y1="67.4883" y2="642.457"/><rect fill="#DDDDDD" height="30.4883" rx="2.5" ry="2.5" style="stroke:#666666;stroke-width:0.5;" width="131.0518" x="20" y="36"/><text fill="#333333" font-family="sans-serif" font-size="14" lengthAdjust="spacing" textLength="117.0518" x="27" y="56.5352">WebSocket Client</text><rect fill="#DDDDDD" height="30.4883" rx="2.5" ry="2.5" style="stroke:#666666;stroke-width:0.5;" width="131.0518" x="20" y="641.457"/><text fill="#333333" font-family="sans-serif" font-size="14" lengthAdjust="spacing" textLength="117.0518" x="27" y="661.9922">WebSocket Client</text><rect fill="#DDDDDD" height="30.4883" rx="2.5" ry="2.5" style="stroke:#666666;stroke-width:0.5;" width="133.3896" x="184.5044" y="36"/><text fill="#333333" font-family="sans-serif" font-size="14" lengthAdjust="spacing" textLength="119.3896" x="191.5044" y="56.5352">WebSocket Server</text><rect fill="#DDDDDD" height="30.4883" rx="2.5" ry="2.5" style="stroke:#666666;stroke-width:0.5;" width="133.3896" x="184.5044" y="641.457"/><text fill="#333333" font-family="sans-serif" font-size="14" lengthAdjust="spacing" textLength="119.3896" x="191.5044" y="661.9922">WebSocket Server</text><text fill="#333333" font-family="sans-serif" font-size="14" lengthAdjust="spacing" textLength="106.4014" x="376.2153" y="64.5352">Client Channels</text><path d="M414.416,15 C414.416,5 432.416,5 432.416,5 C432.416,5 450.416,5 450.416,15 L450.416,41 C450.416,51 432.416,51 432.416,51 C432.416,51 414.416,51 414.416,41 L414.416,15 " fill="#E2E2F0" style="stroke:#181818;stroke-width:1.5;"/><path d="M414.416,15 C414.416,25 432.416,25 432.416,25 C432.416,25 450.416,25 450.416,15 " fill="none" style="stroke:#181818;stroke-width:1.5;"/><text fill="#333333" font-family="sans-serif" font-size="14" lengthAdjust="spacing" textLength="106.4014" x="376.2153" y="654.9922">Client Channels</text><path d="M414.416,667.9453 C414.416,657.9453 432.416,657.9453 432.416,657.9453 C432.416,657.9453 450.416,657.9453 450.416,667.9453 L450.416,693.9453 C450.416,703.9453 432.416,703.9453 432.416,703.9453 C432.416,703.9453 414.416,703.9453 414.416,693.9453 L414.416,667.9453 " fill="#E2E2F0" style="stroke:#181818;stroke-width:1.5;"/><path d="M414.416,667.9453 C414.416,677.9453 432.416,677.9453 432.416,677.9453 C432.416,677.9453 450.416,677.9453 450.416,667.9453 " fill="none" style="stroke:#181818;stroke-width:1.5;"/><rect fill="#FFFFFF" height="29.3105" style="stroke:#181818;stroke-width:1.0;" width="10" x="246.1992" y="142.1094"/><rect fill="#FFFFFF" height="132.2422" style="stroke:#181818;stroke-width:1.0;" width="10" x="246.1992" y="252.041"/><rect fill="#FFFFFF" height="73.6211" style="stroke:#181818;stroke-width:1.0;" width="10" x="246.1992" y="456.9043"/><rect fill="#FFFFFF" height="29.3105" style="stroke:#181818;stroke-width:1.0;" width="10" x="246.1992" y="595.1465"/><rect fill="#EEEEEE" height="3" style="stroke:#EEEEEE;stroke-width:1.0;" width="493.6167" x="0" y="98.1436"/><line style="stroke:#000000;stroke-width:1.0;" x1="0" x2="493.6167" y1="98.1436" y2="98.1436"/><line style="stroke:#000000;stroke-width:1.0;" x1="0" x2="493.6167" y1="101.1436" y2="101.1436"/><rect fill="#EEEEEE" height="23.3105" style="stroke:#000000;stroke-width:2.0;" width="202.9316" x="145.3425" y="87.4883"/><text fill="#333333" font-family="sans-serif" font-size="13" font-weight="bold" lengthAdjust="spacing" textLength="184.647" x="151.3425" y="104.0566">New WebSocket Connection</text><polygon fill="#666666" points="234.1992,138.1094,244.1992,142.1094,234.1992,146.1094,238.1992,142.1094" style="stroke:#666666;stroke-width:1.0;"/><line style="stroke:#666666;stroke-width:1.0;" x1="85.5259" x2="240.1992" y1="142.1094" y2="142.1094"/><text fill="#333333" font-family="sans-serif" font-size="13" lengthAdjust="spacing" textLength="140.8481" x="92.5259" y="137.3672">Connect to WebSocket</text><polygon fill="#666666" points="420.416,167.4199,430.416,171.4199,420.416,175.4199,424.416,171.4199" style="stroke:#666666;stroke-width:1.0;"/><line style="stroke:#666666;stroke-width:1.0;" x1="251.1992" x2="426.416" y1="171.4199" y2="171.4199"/><text fill="#333333" font-family="sans-serif" font-size="13" lengthAdjust="spacing" textLength="146.3896" x="258.1992" y="166.6777">Add new client channel</text><rect fill="#EEEEEE" height="3" style="stroke:#EEEEEE;stroke-width:1.0;" width="493.6167" x="0" y="200.0752"/><line style="stroke:#000000;stroke-width:1.0;" x1="0" x2="493.6167" y1="200.0752" y2="200.0752"/><line style="stroke:#000000;stroke-width:1.0;" x1="0" x2="493.6167" y1="203.0752" y2="203.0752"/><rect fill="#EEEEEE" height="23.3105" style="stroke:#000000;stroke-width:2.0;" width="188.0527" x="152.782" y="189.4199"/><text fill="#333333" font-family="sans-serif" font-size="13" font-weight="bold" lengthAdjust="spacing" textLength="169.7681" x="158.782" y="205.9883">Notification Broadcasting</text><line style="stroke:#666666;stroke-width:1.0;" x1="251.1992" x2="298.1992" y1="239.041" y2="239.041"/><line style="stroke:#666666;stroke-width:1.0;" x1="298.1992" x2="298.1992" y1="239.041" y2="252.041"/><line style="stroke:#666666;stroke-width:1.0;" x1="257.1992" x2="298.1992" y1="252.041" y2="252.041"/><polygon fill="#666666" points="267.1992,248.041,257.1992,252.041,267.1992,256.041,263.1992,252.041" style="stroke:#666666;stroke-width:1.0;"/><text fill="#333333" font-family="sans-serif" font-size="13" lengthAdjust="spacing" textLength="122.9287" x="263.1992" y="234.2988">Receive notification</text><polygon fill="#666666" points="420.416,282.3516,430.416,286.3516,420.416,290.3516,424.416,286.3516" style="stroke:#666666;stroke-width:1.0;"/><line style="stroke:#666666;stroke-width:1.0;" x1="256.1992" x2="426.416" y1="286.3516" y2="286.3516"/><text fill="#333333" font-family="sans-serif" font-size="13" lengthAdjust="spacing" textLength="143.2222" x="263.1992" y="281.6094">Get all Client Channels</text><polygon fill="#666666" points="267.1992,311.6621,257.1992,315.6621,267.1992,319.6621,263.1992,315.6621" style="stroke:#666666;stroke-width:1.0;"/><line style="stroke:#666666;stroke-width:1.0;" x1="261.1992" x2="431.416" y1="315.6621" y2="315.6621"/><text fill="#333333" font-family="sans-serif" font-size="13" lengthAdjust="spacing" textLength="152.2168" x="273.1992" y="310.9199">Send all Client Channels</text><path d="M10,330.6621 L84.4468,330.6621 L84.4468,337.9727 L74.4468,347.9727 L10,347.9727 L10,330.6621 " fill="#EEEEEE" style="stroke:#000000;stroke-width:1.5;"/><rect fill="none" height="46.6211" style="stroke:#000000;stroke-width:1.5;" width="317.894" x="10" y="330.6621"/><text fill="#333333" font-family="sans-serif" font-size="13" font-weight="bold" lengthAdjust="spacing" textLength="29.4468" x="25" y="344.2305">loop</text><text fill="#333333" font-family="sans-serif" font-size="11" font-weight="bold" lengthAdjust="spacing" textLength="163.2866" x="99.4468" y="343.2969">[For Each Client in Channels]</text><polygon fill="#666666" points="96.5259,365.2832,86.5259,369.2832,96.5259,373.2832,92.5259,369.2832" style="stroke:#666666;stroke-width:1.0;"/><line style="stroke:#666666;stroke-width:1.0;" x1="90.5259" x2="245.1992" y1="369.2832" y2="369.2832"/><text fill="#333333" font-family="sans-serif" font-size="13" lengthAdjust="spacing" textLength="107.8657" x="102.5259" y="364.541">Send Notification</text><rect fill="#EEEEEE" height="3" style="stroke:#EEEEEE;stroke-width:1.0;" width="493.6167" x="0" y="404.9385"/><line style="stroke:#000000;stroke-width:1.0;" x1="0" x2="493.6167" y1="404.9385" y2="404.9385"/><line style="stroke:#000000;stroke-width:1.0;" x1="0" x2="493.6167" y1="407.9385" y2="407.9385"/><rect fill="#EEEEEE" height="23.3105" style="stroke:#000000;stroke-width:2.0;" width="105.6729" x="193.9719" y="394.2832"/><text fill="#333333" font-family="sans-serif" font-size="13" font-weight="bold" lengthAdjust="spacing" textLength="87.3882" x="199.9719" y="410.8516">Periodic Ping</text><line style="stroke:#666666;stroke-width:1.0;" x1="251.1992" x2="298.1992" y1="443.9043" y2="443.9043"/><line style="stroke:#666666;stroke-width:1.0;" x1="298.1992" x2="298.1992" y1="443.9043" y2="456.9043"/><line style="stroke:#666666;stroke-width:1.0;" x1="257.1992" x2="298.1992" y1="456.9043" y2="456.9043"/><polygon fill="#666666" points="267.1992,452.9043,257.1992,456.9043,267.1992,460.9043,263.1992,456.9043" style="stroke:#666666;stroke-width:1.0;"/><text fill="#333333" font-family="sans-serif" font-size="13" lengthAdjust="spacing" textLength="117.9204" x="263.1992" y="439.1621">Send periodic ping</text><path d="M10,476.9043 L84.4468,476.9043 L84.4468,484.2148 L74.4468,494.2148 L10,494.2148 L10,476.9043 " fill="#EEEEEE" style="stroke:#000000;stroke-width:1.5;"/><rect fill="none" height="46.6211" style="stroke:#000000;stroke-width:1.5;" width="317.894" x="10" y="476.9043"/><text fill="#333333" font-family="sans-serif" font-size="13" font-weight="bold" lengthAdjust="spacing" textLength="29.4468" x="25" y="490.4727">loop</text><text fill="#333333" font-family="sans-serif" font-size="11" font-weight="bold" lengthAdjust="spacing" textLength="163.2866" x="99.4468" y="489.5391">[For Each Client in Channels]</text><polygon fill="#666666" points="96.5259,511.5254,86.5259,515.5254,96.5259,519.5254,92.5259,515.5254" style="stroke:#666666;stroke-width:1.0;"/><line style="stroke:#666666;stroke-width:1.0;" x1="90.5259" x2="245.1992" y1="515.5254" y2="515.5254"/><text fill="#333333" font-family="sans-serif" font-size="13" lengthAdjust="spacing" textLength="61.7246" x="102.5259" y="510.7832">Send Ping</text><rect fill="#EEEEEE" height="3" style="stroke:#EEEEEE;stroke-width:1.0;" width="493.6167" x="0" y="551.1807"/><line style="stroke:#000000;stroke-width:1.0;" x1="0" x2="493.6167" y1="551.1807" y2="551.1807"/><line style="stroke:#000000;stroke-width:1.0;" x1="0" x2="493.6167" y1="554.1807" y2="554.1807"/><rect fill="#EEEEEE" height="23.3105" style="stroke:#000000;stroke-width:2.0;" width="156.7651" x="168.4258" y="540.5254"/><text fill="#333333" font-family="sans-serif" font-size="13" font-weight="bold" lengthAdjust="spacing" textLength="138.4805" x="174.4258" y="557.0938">Client Disconnection</text><polygon fill="#666666" points="234.1992,591.1465,244.1992,595.1465,234.1992,599.1465,238.1992,595.1465" style="stroke:#666666;stroke-width:1.0;"/><line style="stroke:#666666;stroke-width:1.0;" x1="85.5259" x2="240.1992" y1="595.1465" y2="595.1465"/><text fill="#333333" font-family="sans-serif" font-size="13" lengthAdjust="spacing" textLength="141.6733" x="92.5259" y="590.4043">Disconnect WebSocket</text><polygon fill="#666666" points="420.416,620.457,430.416,624.457,420.416,628.457,424.416,624.457" style="stroke:#666666;stroke-width:1.0;"/><line style="stroke:#666666;stroke-width:1.0;" x1="251.1992" x2="426.416" y1="624.457" y2="624.457"/><text fill="#333333" font-family="sans-serif" font-size="13" lengthAdjust="spacing" textLength="141.1719" x="258.1992" y="619.7148">Remove client channel</text><text fill="#333333" font-family="sans-serif" font-size="10" lengthAdjust="spacing" textLength="155.4346" x="0" y="714.6133">Last Modified On: 24-Feb-2025</text><!--SRC=[fLJ1RjD04BtFLuoC4728X8I4KAGWqQJcGg1g3fmdk-DsbSsEjTwcgX3_pcHjaoLjMg1pi7SzxxrvEnwxsxZGKgGjhibihgBS13iNBn5Vr6_h3tKDtM-4vOPkVAebf07oBaS1eHZbTaY-pm7m2XVSkC2ubcWvTjXebhn7zhpbaBg2hrkNxl0789vbz9zQ-lJOvI87_8H2nQZ3AFwvCdfDphYMGle_AO1IelhEwvMO3IUSUwSdhP2wONaAkEAuuvY1_H8i9LfJnrZrJ9nVKmZikrvjs03CPlYLRx6eAPenoKd0sGm6ykJZe3iTyvZaG09ImeuIZzNxsvusLfhY9sinQ2dJIve-0PQFoTcJ9DSuGzd7MHIoXhhamjNUr45zD7N9XjsECHIqlpBrMK-ydx6Z9i6uA8kiEDW7mU15MgprfPwJkHxJBXmGg56Kpu11i3mfw8CJ3RdWwCGwWnSdcv3bsX7NAkvU2vvZT5_u4OE3sC9rvea9Ea3-SO8kUIlwafyU8CzDqj-795NuedE3Isr9uzZYjp35b_fjyElAsibokPpSQLHlu1S0]--></g></svg>
