<svg contentStyleType="text/css" height="724" preserveAspectRatio="none" viewBox="0 0 500 724" width="500" xmlns="http://www.w3.org/2000/svg" zoomAndPan="magnify"><path d="m0 0h500v724h-500z" fill="#f0f8ff"/><path d="m246.1992 142.1094h10v29.3105h-10z" fill="#fff" stroke="#181818"/><path d="m246.1992 252.041h10v132.2422h-10z" fill="#fff" stroke="#181818"/><path d="m246.1992 456.9043h10v73.6211h-10z" fill="#fff" stroke="#181818"/><path d="m246.1992 595.1465h10v29.3105h-10z" fill="#fff" stroke="#181818"/><path d="m10 330.6621h317.894v46.6211h-317.894z" fill="none" stroke="#000" stroke-width="1.5"/><path d="m10 476.9043h317.894v46.6211h-317.894z" fill="none" stroke="#000" stroke-width="1.5"/><path d="m85 67.4883v574.9687" stroke="#181818" stroke-dasharray="5 5" stroke-width=".5"/><path d="m250.5044 67.4883v574.9687" stroke="#181818" stroke-dasharray="5 5" stroke-width=".5"/><path d="m432.2153 67.4883v574.9687" stroke="#181818" stroke-dasharray="5 5" stroke-width=".5"/><rect fill="#ddd" height="30.4883" rx="2.5" stroke="#666" stroke-width=".5" width="131.0518" x="20" y="36"/><text fill="#333" font-family="sans-serif" font-size="14" lengthAdjust="spacing" textLength="117.0518" x="27" y="56.5352">WebSocket Client</text><rect fill="#ddd" height="30.4883" rx="2.5" stroke="#666" stroke-width=".5" width="131.0518" x="20" y="641.457"/><text fill="#333" font-family="sans-serif" font-size="14" lengthAdjust="spacing" textLength="117.0518" x="27" y="661.9922">WebSocket Client</text><rect fill="#ddd" height="30.4883" rx="2.5" stroke="#666" stroke-width=".5" width="133.3896" x="184.5044" y="36"/><text fill="#333" font-family="sans-serif" font-size="14" lengthAdjust="spacing" textLength="119.3896" x="191.5044" y="56.5352">WebSocket Server</text><rect fill="#ddd" height="30.4883" rx="2.5" stroke="#666" stroke-width=".5" width="133.3896" x="184.5044" y="641.457"/><text fill="#333" font-family="sans-serif" font-size="14" lengthAdjust="spacing" textLength="119.3896" x="191.5044" y="661.9922">WebSocket Server</text><text fill="#333" font-family="sans-serif" font-size="14" lengthAdjust="spacing" textLength="106.4014" x="376.2153" y="64.5352">Client Channels</text><path d="m414.416 15c0-10 18-10 18-10s18 0 18 10v26c0 10-18 10-18 10s-18 0-18-10z" fill="#e2e2f0" stroke="#181818" stroke-width="1.5"/><path d="m414.416 15c0 10 18 10 18 10s18 0 18-10" fill="none" stroke="#181818" stroke-width="1.5"/><text fill="#333" font-family="sans-serif" font-size="14" lengthAdjust="spacing" textLength="106.4014" x="376.2153" y="654.9922">Client Channels</text><g stroke="#181818"><path d="m414.416 667.9453c0-10 18-10 18-10s18 0 18 10v26c0 10-18 10-18 10s-18 0-18-10z" fill="#e2e2f0" stroke-width="1.5"/><path d="m414.416 667.9453c0 10 18 10 18 10s18 0 18-10" fill="none" stroke-width="1.5"/><path d="m246.1992 142.1094h10v29.3105h-10z" fill="#fff"/><path d="m246.1992 252.041h10v132.2422h-10z" fill="#fff"/><path d="m246.1992 456.9043h10v73.6211h-10z" fill="#fff"/><path d="m246.1992 595.1465h10v29.3105h-10z" fill="#fff"/></g><path d="m0 98.1436h493.6167v3h-493.6167z" fill="#eee" stroke="#eee"/><path d="m0 98.1436h493.6167" stroke="#000"/><path d="m0 101.1436h493.6167" stroke="#000"/><path d="m145.3425 87.4883h202.9316v23.3105h-202.9316z" fill="#eee" stroke="#000" stroke-width="2"/><text fill="#333" font-family="sans-serif" font-size="13" font-weight="bold" lengthAdjust="spacing" textLength="184.647" x="151.3425" y="104.0566">New WebSocket Connection</text><path d="m234.1992 138.1094 10 4-10 4 4-4z" fill="#666" stroke="#666"/><path d="m85.5259 142.1094h154.6733" stroke="#666"/><text fill="#333" font-family="sans-serif" font-size="13" lengthAdjust="spacing" textLength="140.8481" x="92.5259" y="137.3672">Connect to WebSocket</text><path d="m420.416 167.4199 10 4-10 4 4-4z" fill="#666" stroke="#666"/><path d="m251.1992 171.4199h175.2168" stroke="#666"/><text fill="#333" font-family="sans-serif" font-size="13" lengthAdjust="spacing" textLength="146.3896" x="258.1992" y="166.6777">Add new client channel</text><path d="m0 200.0752h493.6167v3h-493.6167z" fill="#eee" stroke="#eee"/><path d="m0 200.0752h493.6167" stroke="#000"/><path d="m0 203.0752h493.6167" stroke="#000"/><path d="m152.782 189.4199h188.0527v23.3105h-188.0527z" fill="#eee" stroke="#000" stroke-width="2"/><text fill="#333" font-family="sans-serif" font-size="13" font-weight="bold" lengthAdjust="spacing" textLength="169.7681" x="158.782" y="205.9883">Notification Broadcasting</text><path d="m251.1992 239.041h47" stroke="#666"/><path d="m298.1992 239.041v13" stroke="#666"/><path d="m257.1992 252.041h41" stroke="#666"/><path d="m267.1992 248.041-10 4 10 4-4-4z" fill="#666" stroke="#666"/><text fill="#333" font-family="sans-serif" font-size="13" lengthAdjust="spacing" textLength="122.9287" x="263.1992" y="234.2988">Receive notification</text><path d="m420.416 282.3516 10 4-10 4 4-4z" fill="#666" stroke="#666"/><path d="m256.1992 286.3516h170.2168" stroke="#666"/><text fill="#333" font-family="sans-serif" font-size="13" lengthAdjust="spacing" textLength="143.2222" x="263.1992" y="281.6094">Get all Client Channels</text><path d="m267.1992 311.6621-10 4 10 4-4-4z" fill="#666" stroke="#666"/><path d="m261.1992 315.6621h170.2168" stroke="#666"/><text fill="#333" font-family="sans-serif" font-size="13" lengthAdjust="spacing" textLength="152.2168" x="273.1992" y="310.9199">Send all Client Channels</text><path d="m10 330.6621h74.4468v7.3106l-10 10h-64.4468z" fill="#eee" stroke="#000" stroke-width="1.5"/><path d="m10 330.6621h317.894v46.6211h-317.894z" fill="none" stroke="#000" stroke-width="1.5"/><text fill="#333" font-family="sans-serif" font-size="13" font-weight="bold" lengthAdjust="spacing" textLength="29.4468" x="25" y="344.2305">loop</text><text fill="#333" font-family="sans-serif" font-size="11" font-weight="bold" lengthAdjust="spacing" textLength="163.2866" x="99.4468" y="343.2969">[For Each Client in Channels]</text><path d="m96.5259 365.2832-10 4 10 4-4-4z" fill="#666" stroke="#666"/><path d="m90.5259 369.2832h154.6733" stroke="#666"/><text fill="#333" font-family="sans-serif" font-size="13" lengthAdjust="spacing" textLength="107.8657" x="102.5259" y="364.541">Send Notification</text><path d="m0 404.9385h493.6167v3h-493.6167z" fill="#eee" stroke="#eee"/><path d="m0 404.9385h493.6167" stroke="#000"/><path d="m0 407.9385h493.6167" stroke="#000"/><path d="m193.9719 394.2832h105.6729v23.3105h-105.6729z" fill="#eee" stroke="#000" stroke-width="2"/><text fill="#333" font-family="sans-serif" font-size="13" font-weight="bold" lengthAdjust="spacing" textLength="87.3882" x="199.9719" y="410.8516">Periodic Ping</text><path d="m251.1992 443.9043h47" stroke="#666"/><path d="m298.1992 443.9043v13" stroke="#666"/><path d="m257.1992 456.9043h41" stroke="#666"/><path d="m267.1992 452.9043-10 4 10 4-4-4z" fill="#666" stroke="#666"/><text fill="#333" font-family="sans-serif" font-size="13" lengthAdjust="spacing" textLength="117.9204" x="263.1992" y="439.1621">Send periodic ping</text><path d="m10 476.9043h74.4468v7.3105l-10 10h-64.4468z" fill="#eee" stroke="#000" stroke-width="1.5"/><path d="m10 476.9043h317.894v46.6211h-317.894z" fill="none" stroke="#000" stroke-width="1.5"/><text fill="#333" font-family="sans-serif" font-size="13" font-weight="bold" lengthAdjust="spacing" textLength="29.4468" x="25" y="490.4727">loop</text><text fill="#333" font-family="sans-serif" font-size="11" font-weight="bold" lengthAdjust="spacing" textLength="163.2866" x="99.4468" y="489.5391">[For Each Client in Channels]</text><path d="m96.5259 511.5254-10 4 10 4-4-4z" fill="#666" stroke="#666"/><path d="m90.5259 515.5254h154.6733" stroke="#666"/><text fill="#333" font-family="sans-serif" font-size="13" lengthAdjust="spacing" textLength="61.7246" x="102.5259" y="510.7832">Send Ping</text><path d="m0 551.1807h493.6167v3h-493.6167z" fill="#eee" stroke="#eee"/><path d="m0 551.1807h493.6167" stroke="#000"/><path d="m0 554.1807h493.6167" stroke="#000"/><path d="m168.4258 540.5254h156.7651v23.3105h-156.7651z" fill="#eee" stroke="#000" stroke-width="2"/><text fill="#333" font-family="sans-serif" font-size="13" font-weight="bold" lengthAdjust="spacing" textLength="138.4805" x="174.4258" y="557.0938">Client Disconnection</text><path d="m234.1992 591.1465 10 4-10 4 4-4z" fill="#666" stroke="#666"/><path d="m85.5259 595.1465h154.6733" stroke="#666"/><text fill="#333" font-family="sans-serif" font-size="13" lengthAdjust="spacing" textLength="141.6733" x="92.5259" y="590.4043">Disconnect WebSocket</text><path d="m420.416 620.457 10 4-10 4 4-4z" fill="#666" stroke="#666"/><path d="m251.1992 624.457h175.2168" stroke="#666"/><text fill="#333" font-family="sans-serif" font-size="13" lengthAdjust="spacing" textLength="141.1719" x="258.1992" y="619.7148">Remove client channel</text><text fill="#333" font-family="sans-serif" font-size="10" lengthAdjust="spacing" textLength="155.4346" y="714.6133">Last Modified On: 24-Feb-2025</text></svg>
