<svg contentStyleType="text/css" height="465" preserveAspectRatio="none" viewBox="0 0 722 465" width="722" xmlns="http://www.w3.org/2000/svg" zoomAndPan="magnify"><path d="m0 0h722v465h-722z" fill="#f0f8ff"/><g fill="#fff"><path d="m363.9614 84.2871h10v87.9316h-10z" stroke="#181818"/><path d="m363.9614 201.5293h10v177.8633h-10z" stroke="#181818"/><path d="m655.5703 113.5977h10v29.3105h-10z" stroke="#181818"/><path d="m655.5703 230.8398h10v29.3105h-10z" stroke="#181818"/><path d="m655.5703 313.7715h10v29.3105h-10z" stroke="#181818"/></g><path d="m265.2065 275.1504h451.127v75.9316h-451.127z" fill="none" stroke="#000" stroke-width="1.5"/><path d="m51 52.9766v344.416" stroke="#181818" stroke-dasharray="5 5" stroke-width=".5"/><path d="m368.2065 52.9766v344.416" stroke="#181818" stroke-dasharray="5 5" stroke-width=".5"/><path d="m659.8071 52.9766v344.416" stroke="#181818" stroke-dasharray="5 5" stroke-width=".5"/><rect fill="#ddd" height="30.4883" rx="2.5" stroke="#666" stroke-width=".5" width="93.666" x="5" y="21.4883"/><text fill="#333" font-family="sans-serif" font-size="14" lengthAdjust="spacing" textLength="79.666" x="12" y="42.0234">HTTP Client</text><rect fill="#ddd" height="30.4883" rx="2.5" stroke="#666" stroke-width=".5" width="93.666" x="5" y="396.3926"/><text fill="#333" font-family="sans-serif" font-size="14" lengthAdjust="spacing" textLength="79.666" x="12" y="416.9277">HTTP Client</text><rect fill="#ddd" height="46.9766" rx="2.5" stroke="#666" stroke-width=".5" width="187.5098" x="275.2065" y="5"/><text fill="#333" font-family="sans-serif" font-size="14" lengthAdjust="spacing" textLength="82.0039" x="327.9595" y="25.5352">HTTP Server</text><text fill="#333" font-family="sans-serif" font-size="14" lengthAdjust="spacing" textLength="173.5098" x="282.2065" y="42.0234">(asset/http_impl/http.go)</text><rect fill="#ddd" height="46.9766" rx="2.5" stroke="#666" stroke-width=".5" width="187.5098" x="275.2065" y="396.3926"/><text fill="#333" font-family="sans-serif" font-size="14" lengthAdjust="spacing" textLength="82.0039" x="327.9595" y="416.9277">HTTP Server</text><text fill="#333" font-family="sans-serif" font-size="14" lengthAdjust="spacing" textLength="173.5098" x="282.2065" y="433.416">(asset/http_impl/http.go)</text><rect fill="#ddd" height="30.4883" rx="2.5" stroke="#666" stroke-width=".5" width="91.5264" x="614.8071" y="21.4883"/><text fill="#333" font-family="sans-serif" font-size="14" lengthAdjust="spacing" textLength="77.5264" x="621.8071" y="42.0234">UTXO Store</text><rect fill="#ddd" height="30.4883" rx="2.5" stroke="#666" stroke-width=".5" width="91.5264" x="614.8071" y="396.3926"/><text fill="#333" font-family="sans-serif" font-size="14" lengthAdjust="spacing" textLength="77.5264" x="621.8071" y="416.9277">UTXO Store</text><path d="m363.9614 84.2871h10v87.9316h-10z" fill="#fff" stroke="#181818"/><path d="m363.9614 201.5293h10v177.8633h-10z" fill="#fff" stroke="#181818"/><path d="m655.5703 113.5977h10v29.3105h-10z" fill="#fff" stroke="#181818"/><path d="m655.5703 230.8398h10v29.3105h-10z" fill="#fff" stroke="#181818"/><path d="m655.5703 313.7715h10v29.3105h-10z" fill="#fff" stroke="#181818"/><path d="m351.9614 80.2871 10 4-10 4 4-4z" fill="#666" stroke="#666"/><path d="m51.833 84.2871h306.1284" stroke="#666"/><text fill="#333" font-family="sans-serif" font-size="13" lengthAdjust="spacing" textLength="293.1284" x="58.833" y="79.5449">GET /utxo/:hash (BINARY_STREAM, HEX, JSON)</text><path d="m643.5703 109.5977 10 4-10 4 4-4z" fill="#666" stroke="#666"/><path d="m373.9614 113.5977h275.6089" stroke="#666"/><text fill="#333" font-family="sans-serif" font-size="13" lengthAdjust="spacing" textLength="216.4678" x="380.9614" y="108.8555">Get(ctx, &amp;utxo.Spend{Hash: hash})</text><path d="m384.9614 138.9082-10 4 10 4-4-4z" fill="#666" stroke="#666"/><path d="m378.9614 142.9082h280.6089" stroke="#666" stroke-dasharray="2 2"/><text fill="#333" font-family="sans-serif" font-size="13" lengthAdjust="spacing" textLength="66.9805" x="390.9614" y="138.166">UTXO data</text><path d="m62.833 168.2188-10 4 10 4-4-4z" fill="#666" stroke="#666"/><path d="m56.833 172.2188h311.1284" stroke="#666" stroke-dasharray="2 2"/><text fill="#333" font-family="sans-serif" font-size="13" lengthAdjust="spacing" textLength="139.7437" x="68.833" y="167.4766">Response (UTXO data)</text><path d="m351.9614 197.5293 10 4-10 4 4-4z" fill="#666" stroke="#666"/><path d="m51.833 201.5293h306.1284" stroke="#666"/><text fill="#333" font-family="sans-serif" font-size="13" lengthAdjust="spacing" textLength="145.4312" x="58.833" y="196.7871">GET /utxos/:hash/json</text><path d="m643.5703 226.8398 10 4-10 4 4-4z" fill="#666" stroke="#666"/><path d="m373.9614 230.8398h275.6089" stroke="#666"/><text fill="#333" font-family="sans-serif" font-size="13" lengthAdjust="spacing" textLength="87.6167" x="380.9614" y="226.0977">Get(ctx, hash)</text><path d="m384.9614 256.1504-10 4 10 4-4-4z" fill="#666" stroke="#666"/><path d="m378.9614 260.1504h280.6089" stroke="#666" stroke-dasharray="2 2"/><text fill="#333" font-family="sans-serif" font-size="13" lengthAdjust="spacing" textLength="83.8589" x="390.9614" y="255.4082">Tx Meta Data</text><path d="m265.2065 275.1504h74.4468v7.3105l-10 10h-64.4468z" fill="#eee" stroke="#000" stroke-width="1.5"/><path d="m265.2065 275.1504h451.127v75.9316h-451.127z" fill="none" stroke="#000" stroke-width="1.5"/><text fill="#333" font-family="sans-serif" font-size="13" font-weight="bold" lengthAdjust="spacing" textLength="29.4468" x="280.2065" y="288.7188">loop</text><text fill="#333" font-family="sans-serif" font-size="11" font-weight="bold" lengthAdjust="spacing" textLength="115.9673" x="354.6533" y="287.7852">[For each TX output]</text><path d="m643.5703 309.7715 10 4-10 4 4-4z" fill="#666" stroke="#666"/><path d="m373.9614 313.7715h275.6089" stroke="#666"/><text fill="#333" font-family="sans-serif" font-size="13" lengthAdjust="spacing" textLength="262.6089" x="380.9614" y="309.0293">Get(ctx, &amp;utxo.Spend{Hash: output hash})</text><path d="m384.9614 339.082-10 4 10 4-4-4z" fill="#666" stroke="#666"/><path d="m378.9614 343.082h280.6089" stroke="#666" stroke-dasharray="2 2"/><text fill="#333" font-family="sans-serif" font-size="13" lengthAdjust="spacing" textLength="66.9805" x="390.9614" y="338.3398">UTXO data</text><path d="m62.833 375.3926-10 4 10 4-4-4z" fill="#666" stroke="#666"/><path d="m56.833 379.3926h311.1284" stroke="#666" stroke-dasharray="2 2"/><text fill="#333" font-family="sans-serif" font-size="13" lengthAdjust="spacing" textLength="158.0249" x="68.833" y="374.6504">Response (List of UTXOs)</text><text fill="#333" font-family="sans-serif" font-size="10" lengthAdjust="spacing" textLength="155.4346" y="455.0371">Last Modified On: 24-Feb-2025</text></svg>
