<svg xmlns="http://www.w3.org/2000/svg" xmlns:xlink="http://www.w3.org/1999/xlink" contentStyleType="text/css" height="492px" preserveAspectRatio="none" style="width:797px;height:492px;background:#F0F8FF;" version="1.1" viewBox="0 0 797 492" width="797px" zoomAndPan="magnify"><defs/><g><rect fill="#F0F8FF" height="492" style="stroke:none;stroke-width:1.0;" width="797" x="0" y="0"/><rect fill="#FFFFFF" height="87.9316" style="stroke:#181818;stroke-width:1.0;" width="10" x="398.5308" y="84.2871"/><rect fill="#FFFFFF" height="87.9316" style="stroke:#181818;stroke-width:1.0;" width="10" x="398.5308" y="201.5293"/><rect fill="#FFFFFF" height="87.9316" style="stroke:#181818;stroke-width:1.0;" width="10" x="398.5308" y="318.7715"/><rect fill="#FFFFFF" height="29.3105" style="stroke:#181818;stroke-width:1.0;" width="10" x="723.4395" y="113.5977"/><rect fill="#FFFFFF" height="29.3105" style="stroke:#181818;stroke-width:1.0;" width="10" x="723.4395" y="230.8398"/><rect fill="#FFFFFF" height="29.3105" style="stroke:#181818;stroke-width:1.0;" width="10" x="723.4395" y="348.082"/><line style="stroke:#181818;stroke-width:0.5;stroke-dasharray:5.0,5.0;" x1="51" x2="51" y1="52.9766" y2="424.7031"/><line style="stroke:#181818;stroke-width:0.5;stroke-dasharray:5.0,5.0;" x1="402.7759" x2="402.7759" y1="52.9766" y2="424.7031"/><line style="stroke:#181818;stroke-width:0.5;stroke-dasharray:5.0,5.0;" x1="727.4976" x2="727.4976" y1="52.9766" y2="424.7031"/><rect fill="#DDDDDD" height="30.4883" rx="2.5" ry="2.5" style="stroke:#666666;stroke-width:0.5;" width="93.666" x="5" y="21.4883"/><text fill="#333333" font-family="sans-serif" font-size="14" lengthAdjust="spacing" textLength="79.666" x="12" y="42.0234">HTTP Client</text><rect fill="#DDDDDD" height="30.4883" rx="2.5" ry="2.5" style="stroke:#666666;stroke-width:0.5;" width="93.666" x="5" y="423.7031"/><text fill="#333333" font-family="sans-serif" font-size="14" lengthAdjust="spacing" textLength="79.666" x="12" y="444.2383">HTTP Client</text><rect fill="#DDDDDD" height="46.9766" rx="2.5" ry="2.5" style="stroke:#666666;stroke-width:0.5;" width="187.5098" x="309.7759" y="5"/><text fill="#333333" font-family="sans-serif" font-size="14" lengthAdjust="spacing" textLength="82.0039" x="362.5288" y="25.5352">HTTP Server</text><text fill="#333333" font-family="sans-serif" font-size="14" lengthAdjust="spacing" textLength="173.5098" x="316.7759" y="42.0234">(asset/http_impl/http.go)</text><rect fill="#DDDDDD" height="46.9766" rx="2.5" ry="2.5" style="stroke:#666666;stroke-width:0.5;" width="187.5098" x="309.7759" y="423.7031"/><text fill="#333333" font-family="sans-serif" font-size="14" lengthAdjust="spacing" textLength="82.0039" x="362.5288" y="444.2383">HTTP Server</text><text fill="#333333" font-family="sans-serif" font-size="14" lengthAdjust="spacing" textLength="173.5098" x="316.7759" y="460.7266">(asset/http_impl/http.go)</text><rect fill="#DDDDDD" height="30.4883" rx="2.5" ry="2.5" style="stroke:#666666;stroke-width:0.5;" width="125.8838" x="665.4976" y="21.4883"/><text fill="#333333" font-family="sans-serif" font-size="14" lengthAdjust="spacing" textLength="111.8838" x="672.4976" y="42.0234">BlockchainClient</text><rect fill="#DDDDDD" height="30.4883" rx="2.5" ry="2.5" style="stroke:#666666;stroke-width:0.5;" width="125.8838" x="665.4976" y="423.7031"/><text fill="#333333" font-family="sans-serif" font-size="14" lengthAdjust="spacing" textLength="111.8838" x="672.4976" y="444.2383">BlockchainClient</text><rect fill="#FFFFFF" height="87.9316" style="stroke:#181818;stroke-width:1.0;" width="10" x="398.5308" y="84.2871"/><rect fill="#FFFFFF" height="87.9316" style="stroke:#181818;stroke-width:1.0;" width="10" x="398.5308" y="201.5293"/><rect fill="#FFFFFF" height="87.9316" style="stroke:#181818;stroke-width:1.0;" width="10" x="398.5308" y="318.7715"/><rect fill="#FFFFFF" height="29.3105" style="stroke:#181818;stroke-width:1.0;" width="10" x="723.4395" y="113.5977"/><rect fill="#FFFFFF" height="29.3105" style="stroke:#181818;stroke-width:1.0;" width="10" x="723.4395" y="230.8398"/><rect fill="#FFFFFF" height="29.3105" style="stroke:#181818;stroke-width:1.0;" width="10" x="723.4395" y="348.082"/><polygon fill="#666666" points="386.5308,80.2871,396.5308,84.2871,386.5308,88.2871,390.5308,84.2871" style="stroke:#666666;stroke-width:1.0;"/><line style="stroke:#666666;stroke-width:1.0;" x1="51.833" x2="392.5308" y1="84.2871" y2="84.2871"/><text fill="#333333" font-family="sans-serif" font-size="13" lengthAdjust="spacing" textLength="314.1011" x="58.833" y="79.5449">GET /headers/:hash (BINARY_STREAM, HEX, JSON)</text><polygon fill="#666666" points="711.4395,109.5977,721.4395,113.5977,711.4395,117.5977,715.4395,113.5977" style="stroke:#666666;stroke-width:1.0;"/><line style="stroke:#666666;stroke-width:1.0;" x1="408.5308" x2="717.4395" y1="113.5977" y2="113.5977"/><text fill="#333333" font-family="sans-serif" font-size="13" lengthAdjust="spacing" textLength="295.9087" x="415.5308" y="108.8555">GetBlockHeaders(ctx, hash, numberOfHeaders)</text><polygon fill="#666666" points="419.5308,138.9082,409.5308,142.9082,419.5308,146.9082,415.5308,142.9082" style="stroke:#666666;stroke-width:1.0;"/><line style="stroke:#666666;stroke-width:1.0;stroke-dasharray:2.0,2.0;" x1="413.5308" x2="727.4395" y1="142.9082" y2="142.9082"/><text fill="#333333" font-family="sans-serif" font-size="13" lengthAdjust="spacing" textLength="118.9678" x="425.5308" y="138.166">Block headers data</text><polygon fill="#666666" points="62.833,168.2188,52.833,172.2188,62.833,176.2188,58.833,172.2188" style="stroke:#666666;stroke-width:1.0;"/><line style="stroke:#666666;stroke-width:1.0;stroke-dasharray:2.0,2.0;" x1="56.833" x2="402.5308" y1="172.2188" y2="172.2188"/><text fill="#333333" font-family="sans-serif" font-size="13" lengthAdjust="spacing" textLength="191.731" x="68.833" y="167.4766">Response (Block headers data)</text><polygon fill="#666666" points="386.5308,197.5293,396.5308,201.5293,386.5308,205.5293,390.5308,201.5293" style="stroke:#666666;stroke-width:1.0;"/><line style="stroke:#666666;stroke-width:1.0;" x1="51.833" x2="392.5308" y1="201.5293" y2="201.5293"/><text fill="#333333" font-family="sans-serif" font-size="13" lengthAdjust="spacing" textLength="307.4741" x="58.833" y="196.7871">GET /header/:hash (BINARY_STREAM, HEX, JSON)</text><polygon fill="#666666" points="711.4395,226.8398,721.4395,230.8398,711.4395,234.8398,715.4395,230.8398" style="stroke:#666666;stroke-width:1.0;"/><line style="stroke:#666666;stroke-width:1.0;" x1="408.5308" x2="717.4395" y1="230.8398" y2="230.8398"/><text fill="#333333" font-family="sans-serif" font-size="13" lengthAdjust="spacing" textLength="165.8135" x="415.5308" y="226.0977">GetBlockHeader(ctx, hash)</text><polygon fill="#666666" points="419.5308,256.1504,409.5308,260.1504,419.5308,264.1504,415.5308,260.1504" style="stroke:#666666;stroke-width:1.0;"/><line style="stroke:#666666;stroke-width:1.0;stroke-dasharray:2.0,2.0;" x1="413.5308" x2="727.4395" y1="260.1504" y2="260.1504"/><text fill="#333333" font-family="sans-serif" font-size="13" lengthAdjust="spacing" textLength="165.1978" x="425.5308" y="255.4082">Specific block header data</text><polygon fill="#666666" points="62.833,285.4609,52.833,289.4609,62.833,293.4609,58.833,289.4609" style="stroke:#666666;stroke-width:1.0;"/><line style="stroke:#666666;stroke-width:1.0;stroke-dasharray:2.0,2.0;" x1="56.833" x2="402.5308" y1="289.4609" y2="289.4609"/><text fill="#333333" font-family="sans-serif" font-size="13" lengthAdjust="spacing" textLength="237.9609" x="68.833" y="284.7188">Response (Specific block header data)</text><polygon fill="#666666" points="386.5308,314.7715,396.5308,318.7715,386.5308,322.7715,390.5308,318.7715" style="stroke:#666666;stroke-width:1.0;"/><line style="stroke:#666666;stroke-width:1.0;" x1="51.833" x2="392.5308" y1="318.7715" y2="318.7715"/><text fill="#333333" font-family="sans-serif" font-size="13" lengthAdjust="spacing" textLength="327.6978" x="58.833" y="314.0293">GET /bestblockheader (BINARY_STREAM, HEX, JSON)</text><polygon fill="#666666" points="711.4395,344.082,721.4395,348.082,711.4395,352.082,715.4395,348.082" style="stroke:#666666;stroke-width:1.0;"/><line style="stroke:#666666;stroke-width:1.0;" x1="408.5308" x2="717.4395" y1="348.082" y2="348.082"/><text fill="#333333" font-family="sans-serif" font-size="13" lengthAdjust="spacing" textLength="153.8545" x="415.5308" y="343.3398">GetBestBlockHeader(ctx)</text><polygon fill="#666666" points="419.5308,373.3926,409.5308,377.3926,419.5308,381.3926,415.5308,377.3926" style="stroke:#666666;stroke-width:1.0;"/><line style="stroke:#666666;stroke-width:1.0;stroke-dasharray:2.0,2.0;" x1="413.5308" x2="727.4395" y1="377.3926" y2="377.3926"/><text fill="#333333" font-family="sans-serif" font-size="13" lengthAdjust="spacing" textLength="143.3682" x="425.5308" y="372.6504">Best block header data</text><polygon fill="#666666" points="62.833,402.7031,52.833,406.7031,62.833,410.7031,58.833,406.7031" style="stroke:#666666;stroke-width:1.0;"/><line style="stroke:#666666;stroke-width:1.0;stroke-dasharray:2.0,2.0;" x1="56.833" x2="402.5308" y1="406.7031" y2="406.7031"/><text fill="#333333" font-family="sans-serif" font-size="13" lengthAdjust="spacing" textLength="216.1313" x="68.833" y="401.9609">Response (Best block header data)</text><text fill="#333333" font-family="sans-serif" font-size="10" lengthAdjust="spacing" textLength="155.4346" x="0" y="482.3477">Last Modified On: 24-Feb-2025</text><!--SRC=[jPHlYnen4CRVvrCCbb85hOL2ARued7TkRUcUHNrnXSAHJMPlWp7P9l7Qu-XtxnYNCtfUmRET5ql-FFFBp9EmVg5CpHrVGi75uiRPbP7dLbi7Bx8tsViiO_v18R7aAnqoQq8ZUHiZaN3dxCzcyrqCnbx11PRA81JMINGUIjhbMWDgNA89FicdgGftSCy0Xb6zowBL_IelOh3VBA48gj1PVIg6la49LNCJdeTYB4MqnlFvLpZNYffi0VVDy81cXkuMtNVJvjvZw5SXrDTgMUiuUdrZEp5zBTqeTn53RSL2L5oPvApjulf2uWmgvF4-7FvOeGzi8uVUXmGD0_WucaE_qVO75VSLj8UVBi-ctwvdy-deBE_2U7JLXS-poMM7SH7KBG-ObfVW2BujPGt74EVZ3RyjmgykhC_eWbaj2tIJijbAq4ap2QotN_Xkbv87pYGUWgJr4QJnOG1JzBKr7gdVHwXEoafw9NTdDGfLAW55adM4o__PvAt7nrjwkBMJh7qQ-HUBX-JayVOM98X9JSw_TPZWUou_uya-wkkqPtiGzwIl6ij0VsSRIFY5Ksfk9LqDIfYO0RoaN6otfEpbUTwxesXrs1y0]--></g></svg>
