<svg contentStyleType="text/css" height="316" preserveAspectRatio="none" viewBox="0 0 730 316" width="730" xmlns="http://www.w3.org/2000/svg" zoomAndPan="magnify"><path d="m0 0h730v316h-730z" fill="#f0f8ff"/><g stroke="#181818"><path d="m287.064 84.2871h10v146.5527h-10z" fill="#fff"/><path d="m471.6577 113.5977h10v87.9316h-10z" fill="#fff"/><path d="m656.2515 142.9082h10v29.3105h-10z" fill="#fff"/><path d="m51 52.9766v195.8632" stroke-dasharray="5 5" stroke-width=".5"/><path d="m291.3091 52.9766v195.8632" stroke-dasharray="5 5" stroke-width=".5"/><path d="m476.5947 52.9766v195.8632" stroke-dasharray="5 5" stroke-width=".5"/><path d="m660.3096 52.9766v195.8632" stroke-dasharray="5 5" stroke-width=".5"/></g><rect fill="#ddd" height="30.4883" rx="2.5" stroke="#666" stroke-width=".5" width="93.666" x="5" y="21.4883"/><text fill="#333" font-family="sans-serif" font-size="14" lengthAdjust="spacing" textLength="79.666" x="12" y="42.0234">HTTP Client</text><rect fill="#ddd" height="30.4883" rx="2.5" stroke="#666" stroke-width=".5" width="93.666" x="5" y="247.8398"/><text fill="#333" font-family="sans-serif" font-size="14" lengthAdjust="spacing" textLength="79.666" x="12" y="268.375">HTTP Client</text><rect fill="#ddd" height="46.9766" rx="2.5" stroke="#666" stroke-width=".5" width="187.5098" x="198.3091" y="5"/><text fill="#333" font-family="sans-serif" font-size="14" lengthAdjust="spacing" textLength="82.0039" x="251.062" y="25.5352">HTTP Server</text><text fill="#333" font-family="sans-serif" font-size="14" lengthAdjust="spacing" textLength="173.5098" x="205.3091" y="42.0234">(asset/http_impl/http.go)</text><rect fill="#ddd" height="46.9766" rx="2.5" stroke="#666" stroke-width=".5" width="187.5098" x="198.3091" y="247.8398"/><text fill="#333" font-family="sans-serif" font-size="14" lengthAdjust="spacing" textLength="82.0039" x="251.062" y="268.375">HTTP Server</text><text fill="#333" font-family="sans-serif" font-size="14" lengthAdjust="spacing" textLength="173.5098" x="205.3091" y="284.8633">(asset/http_impl/http.go)</text><rect fill="#ddd" height="30.4883" rx="2.5" stroke="#666" stroke-width=".5" width="86.126" x="433.5947" y="21.4883"/><text fill="#333" font-family="sans-serif" font-size="14" lengthAdjust="spacing" textLength="72.126" x="440.5947" y="42.0234">Repository</text><rect fill="#ddd" height="30.4883" rx="2.5" stroke="#666" stroke-width=".5" width="86.126" x="433.5947" y="247.8398"/><text fill="#333" font-family="sans-serif" font-size="14" lengthAdjust="spacing" textLength="72.126" x="440.5947" y="268.375">Repository</text><rect fill="#ddd" height="30.4883" rx="2.5" stroke="#666" stroke-width=".5" width="125.8838" x="598.3096" y="21.4883"/><text fill="#333" font-family="sans-serif" font-size="14" lengthAdjust="spacing" textLength="111.8838" x="605.3096" y="42.0234">BlockchainClient</text><rect fill="#ddd" height="30.4883" rx="2.5" stroke="#666" stroke-width=".5" width="125.8838" x="598.3096" y="247.8398"/><text fill="#333" font-family="sans-serif" font-size="14" lengthAdjust="spacing" textLength="111.8838" x="605.3096" y="268.375">BlockchainClient</text><path d="m287.064 84.2871h10v146.5527h-10z" fill="#fff" stroke="#181818"/><path d="m471.6577 113.5977h10v87.9316h-10z" fill="#fff" stroke="#181818"/><path d="m656.2515 142.9082h10v29.3105h-10z" fill="#fff" stroke="#181818"/><path d="m275.064 80.2871 10 4-10 4 4-4z" fill="#666" stroke="#666"/><path d="m51.833 84.2871h229.231" stroke="#666"/><text fill="#333" font-family="sans-serif" font-size="13" lengthAdjust="spacing" textLength="149.7729" x="58.833" y="79.5449">GET /block/:hash/forks</text><path d="m459.6577 109.5977 10 4-10 4 4-4z" fill="#666" stroke="#666"/><path d="m297.064 113.5977h168.5937" stroke="#666"/><text fill="#333" font-family="sans-serif" font-size="13" lengthAdjust="spacing" textLength="155.5938" x="304.064" y="108.8555">GetBlockForks(ctx, hash)</text><path d="m644.2515 138.9082 10 4-10 4 4-4z" fill="#666" stroke="#666"/><path d="m481.6577 142.9082h168.5938" stroke="#666"/><text fill="#333" font-family="sans-serif" font-size="13" lengthAdjust="spacing" textLength="155.5938" x="488.6577" y="138.166">GetBlockForks(ctx, hash)</text><path d="m492.6577 168.2188-10 4 10 4-4-4z" fill="#666" stroke="#666"/><path d="m486.6577 172.2188h173.5938" stroke="#666" stroke-dasharray="2 2"/><text fill="#333" font-family="sans-serif" font-size="13" lengthAdjust="spacing" textLength="137.8013" x="498.6577" y="167.4766">[]model.BlockForkInfo</text><path d="m308.064 197.5293-10 4 10 4-4-4z" fill="#666" stroke="#666"/><path d="m302.064 201.5293h173.5937" stroke="#666" stroke-dasharray="2 2"/><text fill="#333" font-family="sans-serif" font-size="13" lengthAdjust="spacing" textLength="137.8013" x="314.064" y="196.7871">[]model.BlockForkInfo</text><path d="m62.833 226.8398-10 4 10 4-4-4z" fill="#666" stroke="#666"/><path d="m56.833 230.8398h234.231" stroke="#666" stroke-dasharray="2 2"/><text fill="#333" font-family="sans-serif" font-size="13" lengthAdjust="spacing" textLength="211.231" x="68.833" y="226.0977">JSON Response (Block Forks data)</text><text fill="#333" font-family="sans-serif" font-size="10" lengthAdjust="spacing" textLength="155.4346" y="306.4844">Last Modified On: 24-Feb-2025</text></svg>
