<svg contentStyleType="text/css" height="375" preserveAspectRatio="none" viewBox="0 0 809 375" width="809" xmlns="http://www.w3.org/2000/svg" zoomAndPan="magnify"><path d="m0 0h809v375h-809z" fill="#f0f8ff"/><g stroke="#181818"><path d="m377.8374 84.2871h10v87.9316h-10z" fill="#fff"/><path d="m377.8374 201.5293h10v87.9316h-10z" fill="#fff"/><path d="m735.4302 113.5977h10v29.3105h-10z" fill="#fff"/><path d="m735.4302 230.8398h10v29.3105h-10z" fill="#fff"/><path d="m51 52.9766v254.4843" stroke-dasharray="5 5" stroke-width=".5"/><path d="m382.0825 52.9766v254.4843" stroke-dasharray="5 5" stroke-width=".5"/><path d="m739.4883 52.9766v254.4843" stroke-dasharray="5 5" stroke-width=".5"/></g><rect fill="#ddd" height="30.4883" rx="2.5" stroke="#666" stroke-width=".5" width="93.666" x="5" y="21.4883"/><text fill="#333" font-family="sans-serif" font-size="14" lengthAdjust="spacing" textLength="79.666" x="12" y="42.0234">HTTP Client</text><rect fill="#ddd" height="30.4883" rx="2.5" stroke="#666" stroke-width=".5" width="93.666" x="5" y="306.4609"/><text fill="#333" font-family="sans-serif" font-size="14" lengthAdjust="spacing" textLength="79.666" x="12" y="326.9961">HTTP Client</text><rect fill="#ddd" height="46.9766" rx="2.5" stroke="#666" stroke-width=".5" width="187.5098" x="289.0825" y="5"/><text fill="#333" font-family="sans-serif" font-size="14" lengthAdjust="spacing" textLength="82.0039" x="341.8354" y="25.5352">HTTP Server</text><text fill="#333" font-family="sans-serif" font-size="14" lengthAdjust="spacing" textLength="173.5098" x="296.0825" y="42.0234">(asset/http_impl/http.go)</text><rect fill="#ddd" height="46.9766" rx="2.5" stroke="#666" stroke-width=".5" width="187.5098" x="289.0825" y="306.4609"/><text fill="#333" font-family="sans-serif" font-size="14" lengthAdjust="spacing" textLength="82.0039" x="341.8354" y="326.9961">HTTP Server</text><text fill="#333" font-family="sans-serif" font-size="14" lengthAdjust="spacing" textLength="173.5098" x="296.0825" y="343.4844">(asset/http_impl/http.go)</text><rect fill="#ddd" height="30.4883" rx="2.5" stroke="#666" stroke-width=".5" width="125.8838" x="677.4883" y="21.4883"/><text fill="#333" font-family="sans-serif" font-size="14" lengthAdjust="spacing" textLength="111.8838" x="684.4883" y="42.0234">BlockchainClient</text><rect fill="#ddd" height="30.4883" rx="2.5" stroke="#666" stroke-width=".5" width="125.8838" x="677.4883" y="306.4609"/><text fill="#333" font-family="sans-serif" font-size="14" lengthAdjust="spacing" textLength="111.8838" x="684.4883" y="326.9961">BlockchainClient</text><path d="m377.8374 84.2871h10v87.9316h-10z" fill="#fff" stroke="#181818"/><path d="m377.8374 201.5293h10v87.9316h-10z" fill="#fff" stroke="#181818"/><path d="m735.4302 113.5977h10v29.3105h-10z" fill="#fff" stroke="#181818"/><path d="m735.4302 230.8398h10v29.3105h-10z" fill="#fff" stroke="#181818"/><path d="m365.8374 80.2871 10 4-10 4 4-4z" fill="#666" stroke="#666"/><path d="m51.833 84.2871h320.0044" stroke="#666"/><text fill="#333" font-family="sans-serif" font-size="13" lengthAdjust="spacing" textLength="298.4224" x="58.833" y="79.5449">GET /block/:hash (BINARY_STREAM, HEX, JSON)</text><path d="m723.4302 109.5977 10 4-10 4 4-4z" fill="#666" stroke="#666"/><path d="m387.8374 113.5977h341.5928" stroke="#666"/><text fill="#333" font-family="sans-serif" font-size="13" lengthAdjust="spacing" textLength="121.0942" x="394.8374" y="108.8555">GetBlock(ctx, hash)</text><path d="m398.8374 138.9082-10 4 10 4-4-4z" fill="#666" stroke="#666"/><path d="m392.8374 142.9082h346.5928" stroke="#666" stroke-dasharray="2 2"/><text fill="#333" font-family="sans-serif" font-size="13" lengthAdjust="spacing" textLength="117.8506" x="404.8374" y="138.166">Specific block data</text><path d="m62.833 168.2188-10 4 10 4-4-4z" fill="#666" stroke="#666"/><path d="m56.833 172.2188h325.0044" stroke="#666" stroke-dasharray="2 2"/><text fill="#333" font-family="sans-serif" font-size="13" lengthAdjust="spacing" textLength="190.6138" x="68.833" y="167.4766">Response (Specific block data)</text><path d="m365.8374 197.5293 10 4-10 4 4-4z" fill="#666" stroke="#666"/><path d="m51.833 201.5293h320.0044" stroke="#666"/><text fill="#333" font-family="sans-serif" font-size="13" lengthAdjust="spacing" textLength="307.0044" x="58.833" y="196.7871">GET /lastblocks (n, includeOrphans, fromHeight)</text><path d="m723.4302 226.8398 10 4-10 4 4-4z" fill="#666" stroke="#666"/><path d="m387.8374 230.8398h341.5928" stroke="#666"/><text fill="#333" font-family="sans-serif" font-size="13" lengthAdjust="spacing" textLength="328.5928" x="394.8374" y="226.0977">GetLastNBlocks(ctx, n, includeOrphans, fromHeight)</text><path d="m398.8374 256.1504-10 4 10 4-4-4z" fill="#666" stroke="#666"/><path d="m392.8374 260.1504h346.5928" stroke="#666" stroke-dasharray="2 2"/><text fill="#333" font-family="sans-serif" font-size="13" lengthAdjust="spacing" textLength="115.7559" x="404.8374" y="255.4082">Last N blocks data</text><path d="m62.833 285.4609-10 4 10 4-4-4z" fill="#666" stroke="#666"/><path d="m56.833 289.4609h325.0044" stroke="#666" stroke-dasharray="2 2"/><text fill="#333" font-family="sans-serif" font-size="13" lengthAdjust="spacing" textLength="188.519" x="68.833" y="284.7188">Response (Last N blocks data)</text><text fill="#333" font-family="sans-serif" font-size="10" lengthAdjust="spacing" textLength="155.4346" y="365.1055">Last Modified On: 24-Feb-2025</text></svg>
