<svg xmlns="http://www.w3.org/2000/svg" xmlns:xlink="http://www.w3.org/1999/xlink" contentStyleType="text/css" height="507px" preserveAspectRatio="none" style="width:1035px;height:507px;background:#F0F8FF;" version="1.1" viewBox="0 0 1035 507" width="1035px" zoomAndPan="magnify"><defs/><g><rect fill="#F0F8FF" height="507" style="stroke:none;stroke-width:1.0;" width="1035" x="0" y="0"/><rect fill="#FFFFFF" height="316.1055" style="stroke:#181818;stroke-width:1.0;" width="10" x="346.3691" y="98.7988"/><rect fill="#FFFFFF" height="278.7949" style="stroke:#181818;stroke-width:1.0;" width="10" x="351.3691" y="136.1094"/><rect fill="#FFFFFF" height="205.1738" style="stroke:#181818;stroke-width:1.0;" width="10" x="547.2109" y="194.7305"/><rect fill="#FFFFFF" height="146.5527" style="stroke:#181818;stroke-width:1.0;" width="10" x="673.1382" y="224.041"/><rect fill="#FFFFFF" height="87.9316" style="stroke:#181818;stroke-width:1.0;" width="10" x="809.5996" y="253.3516"/><rect fill="#FFFFFF" height="29.3105" style="stroke:#181818;stroke-width:1.0;" width="10" x="949.3823" y="282.6621"/><rect fill="none" height="251.7949" style="stroke:#000000;stroke-width:1.5;" width="769.5063" x="260.3154" y="156.1094"/><line style="stroke:#181818;stroke-width:0.5;stroke-dasharray:5.0,5.0;" x1="132" x2="132" y1="67.4883" y2="424.9043"/><line style="stroke:#181818;stroke-width:0.5;stroke-dasharray:5.0,5.0;" x1="351.3154" x2="351.3154" y1="67.4883" y2="424.9043"/><line style="stroke:#181818;stroke-width:0.5;stroke-dasharray:5.0,5.0;" x1="551.4019" x2="551.4019" y1="67.4883" y2="424.9043"/><line style="stroke:#181818;stroke-width:0.5;stroke-dasharray:5.0,5.0;" x1="678.02" x2="678.02" y1="67.4883" y2="424.9043"/><line style="stroke:#181818;stroke-width:0.5;stroke-dasharray:5.0,5.0;" x1="814.2563" x2="814.2563" y1="67.4883" y2="424.9043"/><line style="stroke:#181818;stroke-width:0.5;stroke-dasharray:5.0,5.0;" x1="953.9429" x2="953.9429" y1="67.4883" y2="424.9043"/><rect fill="#DDDDDD" height="46.9766" rx="2.5" ry="2.5" style="stroke:#666666;stroke-width:0.5;" width="255.3154" x="5" y="19.5117"/><text fill="#333333" font-family="sans-serif" font-size="14" lengthAdjust="spacing" textLength="151.7305" x="56.7925" y="40.0469">Block Assembly Server</text><text fill="#333333" font-family="sans-serif" font-size="14" lengthAdjust="spacing" textLength="241.3154" x="12" y="56.5352">(services/blockassembly/Server.go)</text><rect fill="#DDDDDD" height="46.9766" rx="2.5" ry="2.5" style="stroke:#666666;stroke-width:0.5;" width="255.3154" x="5" y="423.9043"/><text fill="#333333" font-family="sans-serif" font-size="14" lengthAdjust="spacing" textLength="151.7305" x="56.7925" y="444.4395">Block Assembly Server</text><text fill="#333333" font-family="sans-serif" font-size="14" lengthAdjust="spacing" textLength="241.3154" x="12" y="460.9277">(services/blockassembly/Server.go)</text><rect fill="#DDDDDD" height="46.9766" rx="2.5" ry="2.5" style="stroke:#666666;stroke-width:0.5;" width="162.1074" x="270.3154" y="19.5117"/><text fill="#333333" font-family="sans-serif" font-size="14" lengthAdjust="spacing" textLength="121.6729" x="290.5327" y="40.0469">Subtree Processor</text><text fill="#333333" font-family="sans-serif" font-size="14" lengthAdjust="spacing" textLength="148.1074" x="277.3154" y="56.5352">(SubtreeProcessor.go)</text><rect fill="#DDDDDD" height="46.9766" rx="2.5" ry="2.5" style="stroke:#666666;stroke-width:0.5;" width="162.1074" x="270.3154" y="423.9043"/><text fill="#333333" font-family="sans-serif" font-size="14" lengthAdjust="spacing" textLength="121.6729" x="290.5327" y="444.4395">Subtree Processor</text><text fill="#333333" font-family="sans-serif" font-size="14" lengthAdjust="spacing" textLength="148.1074" x="277.3154" y="460.9277">(SubtreeProcessor.go)</text><rect fill="#DDDDDD" height="46.9766" rx="2.5" ry="2.5" style="stroke:#666666;stroke-width:0.5;" width="107.6182" x="498.4019" y="19.5117"/><text fill="#333333" font-family="sans-serif" font-size="14" lengthAdjust="spacing" textLength="80.958" x="511.7319" y="40.0469">Remote TTL</text><text fill="#333333" font-family="sans-serif" font-size="14" lengthAdjust="spacing" textLength="93.6182" x="505.4019" y="56.5352">(remotettl.go)</text><rect fill="#DDDDDD" height="46.9766" rx="2.5" ry="2.5" style="stroke:#666666;stroke-width:0.5;" width="107.6182" x="498.4019" y="423.9043"/><text fill="#333333" font-family="sans-serif" font-size="14" lengthAdjust="spacing" textLength="80.958" x="511.7319" y="444.4395">Remote TTL</text><text fill="#333333" font-family="sans-serif" font-size="14" lengthAdjust="spacing" textLength="93.6182" x="505.4019" y="460.9277">(remotettl.go)</text><rect fill="#DDDDDD" height="46.9766" rx="2.5" ry="2.5" style="stroke:#666666;stroke-width:0.5;" width="124.2363" x="616.02" y="19.5117"/><text fill="#333333" font-family="sans-serif" font-size="14" lengthAdjust="spacing" textLength="80.9033" x="637.6865" y="40.0469">Asset Client</text><text fill="#333333" font-family="sans-serif" font-size="14" lengthAdjust="spacing" textLength="110.2363" x="623.02" y="56.5352">(asset/client.go)</text><rect fill="#DDDDDD" height="46.9766" rx="2.5" ry="2.5" style="stroke:#666666;stroke-width:0.5;" width="124.2363" x="616.02" y="423.9043"/><text fill="#333333" font-family="sans-serif" font-size="14" lengthAdjust="spacing" textLength="80.9033" x="637.6865" y="444.4395">Asset Client</text><text fill="#333333" font-family="sans-serif" font-size="14" lengthAdjust="spacing" textLength="110.2363" x="623.02" y="460.9277">(asset/client.go)</text><rect fill="#DDDDDD" height="46.9766" rx="2.5" ry="2.5" style="stroke:#666666;stroke-width:0.5;" width="128.6865" x="750.2563" y="19.5117"/><text fill="#333333" font-family="sans-serif" font-size="14" lengthAdjust="spacing" textLength="83.2412" x="772.979" y="40.0469">Asset Server</text><text fill="#333333" font-family="sans-serif" font-size="14" lengthAdjust="spacing" textLength="114.6865" x="757.2563" y="56.5352">(asset/server.go)</text><rect fill="#DDDDDD" height="46.9766" rx="2.5" ry="2.5" style="stroke:#666666;stroke-width:0.5;" width="128.6865" x="750.2563" y="423.9043"/><text fill="#333333" font-family="sans-serif" font-size="14" lengthAdjust="spacing" textLength="83.2412" x="772.979" y="444.4395">Asset Server</text><text fill="#333333" font-family="sans-serif" font-size="14" lengthAdjust="spacing" textLength="114.6865" x="757.2563" y="460.9277">(asset/server.go)</text><text fill="#333333" font-family="sans-serif" font-size="14" lengthAdjust="spacing" textLength="124.8789" x="888.9429" y="64.5352">Blob Subtree Store</text><path d="M936.3823,15 C936.3823,5 954.3823,5 954.3823,5 C954.3823,5 972.3823,5 972.3823,15 L972.3823,41 C972.3823,51 954.3823,51 954.3823,51 C954.3823,51 936.3823,51 936.3823,41 L936.3823,15 " fill="#E2E2F0" style="stroke:#181818;stroke-width:1.5;"/><path d="M936.3823,15 C936.3823,25 954.3823,25 954.3823,25 C954.3823,25 972.3823,25 972.3823,15 " fill="none" style="stroke:#181818;stroke-width:1.5;"/><text fill="#333333" font-family="sans-serif" font-size="14" lengthAdjust="spacing" textLength="124.8789" x="888.9429" y="437.4395">Blob Subtree Store</text><path d="M936.3823,450.3926 C936.3823,440.3926 954.3823,440.3926 954.3823,440.3926 C954.3823,440.3926 972.3823,440.3926 972.3823,450.3926 L972.3823,476.3926 C972.3823,486.3926 954.3823,486.3926 954.3823,486.3926 C954.3823,486.3926 936.3823,486.3926 936.3823,476.3926 L936.3823,450.3926 " fill="#E2E2F0" style="stroke:#181818;stroke-width:1.5;"/><path d="M936.3823,450.3926 C936.3823,460.3926 954.3823,460.3926 954.3823,460.3926 C954.3823,460.3926 972.3823,460.3926 972.3823,450.3926 " fill="none" style="stroke:#181818;stroke-width:1.5;"/><rect fill="#FFFFFF" height="316.1055" style="stroke:#181818;stroke-width:1.0;" width="10" x="346.3691" y="98.7988"/><rect fill="#FFFFFF" height="278.7949" style="stroke:#181818;stroke-width:1.0;" width="10" x="351.3691" y="136.1094"/><rect fill="#FFFFFF" height="205.1738" style="stroke:#181818;stroke-width:1.0;" width="10" x="547.2109" y="194.7305"/><rect fill="#FFFFFF" height="146.5527" style="stroke:#181818;stroke-width:1.0;" width="10" x="673.1382" y="224.041"/><rect fill="#FFFFFF" height="87.9316" style="stroke:#181818;stroke-width:1.0;" width="10" x="809.5996" y="253.3516"/><rect fill="#FFFFFF" height="29.3105" style="stroke:#181818;stroke-width:1.0;" width="10" x="949.3823" y="282.6621"/><polygon fill="#666666" points="334.3691,94.7988,344.3691,98.7988,334.3691,102.7988,338.3691,98.7988" style="stroke:#666666;stroke-width:1.0;"/><line style="stroke:#666666;stroke-width:1.0;" x1="132.6577" x2="340.3691" y1="98.7988" y2="98.7988"/><text fill="#333333" font-family="sans-serif" font-size="13" lengthAdjust="spacing" textLength="82.5322" x="139.6577" y="94.0566">reorgBlocks()</text><line style="stroke:#666666;stroke-width:1.0;" x1="356.3691" x2="403.3691" y1="123.1094" y2="123.1094"/><line style="stroke:#666666;stroke-width:1.0;" x1="403.3691" x2="403.3691" y1="123.1094" y2="136.1094"/><line style="stroke:#666666;stroke-width:1.0;" x1="362.3691" x2="403.3691" y1="136.1094" y2="136.1094"/><polygon fill="#666666" points="372.3691,132.1094,362.3691,136.1094,372.3691,140.1094,368.3691,136.1094" style="stroke:#666666;stroke-width:1.0;"/><text fill="#333333" font-family="sans-serif" font-size="13" lengthAdjust="spacing" textLength="166.8418" x="368.3691" y="118.3672">moveBackBlock(ctx, block)</text><path d="M260.3154,156.1094 L334.7622,156.1094 L334.7622,163.4199 L324.7622,173.4199 L260.3154,173.4199 L260.3154,156.1094 " fill="#EEEEEE" style="stroke:#000000;stroke-width:1.5;"/><rect fill="none" height="251.7949" style="stroke:#000000;stroke-width:1.5;" width="769.5063" x="260.3154" y="156.1094"/><text fill="#333333" font-family="sans-serif" font-size="13" font-weight="bold" lengthAdjust="spacing" textLength="29.4468" x="275.3154" y="169.6777">loop</text><text fill="#333333" font-family="sans-serif" font-size="11" font-weight="bold" lengthAdjust="spacing" textLength="151.4434" x="349.7622" y="168.7441">[For Each Subtree in Block]</text><polygon fill="#666666" points="535.2109,190.7305,545.2109,194.7305,535.2109,198.7305,539.2109,194.7305" style="stroke:#666666;stroke-width:1.0;"/><line style="stroke:#666666;stroke-width:1.0;" x1="361.3691" x2="541.2109" y1="194.7305" y2="194.7305"/><text fill="#333333" font-family="sans-serif" font-size="13" lengthAdjust="spacing" textLength="79.3076" x="368.3691" y="189.9883">Get(ctx, key)</text><polygon fill="#666666" points="661.1382,220.041,671.1382,224.041,661.1382,228.041,665.1382,224.041" style="stroke:#666666;stroke-width:1.0;"/><line style="stroke:#666666;stroke-width:1.0;" x1="557.2109" x2="667.1382" y1="224.041" y2="224.041"/><text fill="#333333" font-family="sans-serif" font-size="13" lengthAdjust="spacing" textLength="79.3076" x="564.2109" y="219.2988">Get(ctx, key)</text><polygon fill="#666666" points="797.5996,249.3516,807.5996,253.3516,797.5996,257.3516,801.5996,253.3516" style="stroke:#666666;stroke-width:1.0;"/><line style="stroke:#666666;stroke-width:1.0;" x1="683.1382" x2="803.5996" y1="253.3516" y2="253.3516"/><text fill="#333333" font-family="sans-serif" font-size="13" lengthAdjust="spacing" textLength="79.3076" x="690.1382" y="248.6094">Get(ctx, key)</text><polygon fill="#666666" points="937.3823,278.6621,947.3823,282.6621,937.3823,286.6621,941.3823,282.6621" style="stroke:#666666;stroke-width:1.0;"/><line style="stroke:#666666;stroke-width:1.0;" x1="819.5996" x2="943.3823" y1="282.6621" y2="282.6621"/><text fill="#333333" font-family="sans-serif" font-size="13" lengthAdjust="spacing" textLength="87.6167" x="826.5996" y="277.9199">Get(ctx, hash)</text><polygon fill="#666666" points="830.5996,307.9727,820.5996,311.9727,830.5996,315.9727,826.5996,311.9727" style="stroke:#666666;stroke-width:1.0;"/><line style="stroke:#666666;stroke-width:1.0;stroke-dasharray:2.0,2.0;" x1="824.5996" x2="953.3823" y1="311.9727" y2="311.9727"/><text fill="#333333" font-family="sans-serif" font-size="13" lengthAdjust="spacing" textLength="76.502" x="836.5996" y="307.2305">subtreeData</text><polygon fill="#666666" points="694.1382,337.2832,684.1382,341.2832,694.1382,345.2832,690.1382,341.2832" style="stroke:#666666;stroke-width:1.0;"/><line style="stroke:#666666;stroke-width:1.0;stroke-dasharray:2.0,2.0;" x1="688.1382" x2="813.5996" y1="341.2832" y2="341.2832"/><text fill="#333333" font-family="sans-serif" font-size="13" lengthAdjust="spacing" textLength="76.502" x="700.1382" y="336.541">subtreeData</text><polygon fill="#666666" points="568.2109,366.5938,558.2109,370.5938,568.2109,374.5938,564.2109,370.5938" style="stroke:#666666;stroke-width:1.0;"/><line style="stroke:#666666;stroke-width:1.0;stroke-dasharray:2.0,2.0;" x1="562.2109" x2="677.1382" y1="370.5938" y2="370.5938"/><text fill="#333333" font-family="sans-serif" font-size="13" lengthAdjust="spacing" textLength="76.502" x="574.2109" y="365.8516">subtreeData</text><polygon fill="#666666" points="372.3691,395.9043,362.3691,399.9043,372.3691,403.9043,368.3691,399.9043" style="stroke:#666666;stroke-width:1.0;"/><line style="stroke:#666666;stroke-width:1.0;stroke-dasharray:2.0,2.0;" x1="366.3691" x2="551.2109" y1="399.9043" y2="399.9043"/><text fill="#333333" font-family="sans-serif" font-size="13" lengthAdjust="spacing" textLength="76.502" x="378.3691" y="395.1621">subtreeData</text><text fill="#333333" font-family="sans-serif" font-size="10" lengthAdjust="spacing" textLength="155.4346" x="0" y="497.0605">Last Modified On: 24-Feb-2025</text><!--SRC=[fPH1Yzim48Nl-XL3Ica2JLCebBA7XUwcxcL3IxF7lSZME16HhI0fQKFfV-zOjcKvThtGrI54cdcVfFUKs8CiZzpm0bAU7NP6dqfnhvKsy2fvdtnA4cP3Xy2SdvHBTEcQbWz-H2tS6FspANxqWx4tiCPSbWYfDWADXPogN2b0XGMMpaPwcaftWTyCuCvtzrcqUdtAjH_i3uie6PtGQFLI37qwcSaZBzt_eHYB4RCxfRC3VBOMYrHTO8lcZEQfd5lw8ZEqgxHgu4rzLTVVxVHY1jo2LxVYkjR7Rq-fCuZmtMY2MLsXcxMm56ZNXJxg1nRQ8Jm-FX33-8bpAeZhCbNxgkfm3kwLf1H9Lrt4hJ8_3LBVKxUCYOCdjTZsBV0zpTK5Tppb5hsjQNiVs3fjiFKhzJF6Hgo3vUt00xW1WzhiVBkTBnZFd3npCcBW5Xjentc5FcFrG3nodhbVRy67FCbMMXyX8VqNdkt3pMHPFm56RmvWRFyG2sty5LsztG4l2wy86tRfLSkTY0XHEjECECQg40jRJcFqyvmcqS3f4WePnfGzj_ihJ9TrjTofbeEpsDgtDRqUtolm7v3UIGRMJ616hzHQSvNISvZ8uIYdyQSsmUeInr8m5bM6Zs-og31tzFTDC0CFt3hOQ25pYGA-bJVmcdwJE9y9iTniDiiBZTc2_GK0]--></g></svg>
