<svg contentStyleType="text/css" height="718" preserveAspectRatio="none" viewBox="0 0 1005 718" width="1005" xmlns="http://www.w3.org/2000/svg" zoomAndPan="magnify"><path d="m0 0h1005v718h-1005z" fill="#f0f8ff"/><path d="m142.6577 366.6621h10v259.8633h-10z" fill="#fff" stroke="#181818"/><path d="m418.4287 142.1094h10v143.9316h-10z" fill="#fff" stroke="#181818"/><path d="m418.4287 467.5938h10v143.9316h-10z" fill="#fff" stroke="#181818"/><path d="m629.918 171.4199h10v100.6211h-10z" fill="#fff" stroke="#181818"/><path d="m629.918 496.9043h10v100.6211h-10z" fill="#fff" stroke="#181818"/><path d="m767.8389 200.7305h10v57.3105h-10z" fill="#fff" stroke="#181818"/><path d="m767.8389 526.2148h10v57.3105h-10z" fill="#fff" stroke="#181818"/><path d="m907.8232 230.041h10v14h-10z" fill="#fff" stroke="#181818"/><path d="m907.8232 555.5254h10v14h-10z" fill="#fff" stroke="#181818"/><path d="m10 428.9727h978.2627v190.5527h-978.2627z" fill="none" stroke="#000" stroke-width="1.5"/><path d="m147 67.4883v569.0371" stroke="#181818" stroke-dasharray="5 5" stroke-width=".5"/><path d="m423.3154 67.4883v569.0371" stroke="#181818" stroke-dasharray="5 5" stroke-width=".5"/><path d="m634.542 67.4883v569.0371" stroke="#181818" stroke-dasharray="5 5" stroke-width=".5"/><path d="m772.2939 67.4883v569.0371" stroke="#181818" stroke-dasharray="5 5" stroke-width=".5"/><path d="m912.3838 67.4883v569.0371" stroke="#181818" stroke-dasharray="5 5" stroke-width=".5"/><rect fill="#ddd" height="46.9766" rx="2.5" stroke="#666" stroke-width=".5" width="255.3154" x="20" y="19.5117"/><text fill="#333" font-family="sans-serif" font-size="14" lengthAdjust="spacing" textLength="151.7305" x="71.7925" y="40.0469">Block Assembly Server</text><text fill="#333" font-family="sans-serif" font-size="14" lengthAdjust="spacing" textLength="241.3154" x="27" y="56.5352">(services/blockassembly/Server.go)</text><rect fill="#ddd" height="46.9766" rx="2.5" stroke="#666" stroke-width=".5" width="255.3154" x="20" y="635.5254"/><text fill="#333" font-family="sans-serif" font-size="14" lengthAdjust="spacing" textLength="151.7305" x="71.7925" y="656.0605">Block Assembly Server</text><text fill="#333" font-family="sans-serif" font-size="14" lengthAdjust="spacing" textLength="241.3154" x="27" y="672.5488">(services/blockassembly/Server.go)</text><rect fill="#ddd" height="46.9766" rx="2.5" stroke="#666" stroke-width=".5" width="276.2266" x="285.3154" y="19.5117"/><text fill="#333" font-family="sans-serif" font-size="14" lengthAdjust="spacing" textLength="80.958" x="382.9497" y="40.0469">Remote TTL</text><text fill="#333" font-family="sans-serif" font-size="14" lengthAdjust="spacing" textLength="262.2266" x="292.3154" y="56.5352">(services/blockassembly/remotettl.go)</text><rect fill="#ddd" height="46.9766" rx="2.5" stroke="#666" stroke-width=".5" width="276.2266" x="285.3154" y="635.5254"/><text fill="#333" font-family="sans-serif" font-size="14" lengthAdjust="spacing" textLength="80.958" x="382.9497" y="656.0605">Remote TTL</text><text fill="#333" font-family="sans-serif" font-size="14" lengthAdjust="spacing" textLength="262.2266" x="292.3154" y="672.5488">(services/blockassembly/remotettl.go)</text><rect fill="#ddd" height="46.9766" rx="2.5" stroke="#666" stroke-width=".5" width="126.752" x="571.542" y="19.5117"/><text fill="#333" font-family="sans-serif" font-size="14" lengthAdjust="spacing" textLength="80.9033" x="594.4663" y="40.0469">Asset Client</text><text fill="#333" font-family="sans-serif" font-size="14" lengthAdjust="spacing" textLength="112.752" x="578.542" y="56.5352">(asset/Client.go)</text><rect fill="#ddd" height="46.9766" rx="2.5" stroke="#666" stroke-width=".5" width="126.752" x="571.542" y="635.5254"/><text fill="#333" font-family="sans-serif" font-size="14" lengthAdjust="spacing" textLength="80.9033" x="594.4663" y="656.0605">Asset Client</text><text fill="#333" font-family="sans-serif" font-size="14" lengthAdjust="spacing" textLength="112.752" x="578.542" y="672.5488">(asset/Client.go)</text><rect fill="#ddd" height="46.9766" rx="2.5" stroke="#666" stroke-width=".5" width="129.0898" x="708.2939" y="19.5117"/><text fill="#333" font-family="sans-serif" font-size="14" lengthAdjust="spacing" textLength="83.2412" x="731.2183" y="40.0469">Asset Server</text><text fill="#333" font-family="sans-serif" font-size="14" lengthAdjust="spacing" textLength="115.0898" x="715.2939" y="56.5352">(asset/Server.go)</text><rect fill="#ddd" height="46.9766" rx="2.5" stroke="#666" stroke-width=".5" width="129.0898" x="708.2939" y="635.5254"/><text fill="#333" font-family="sans-serif" font-size="14" lengthAdjust="spacing" textLength="83.2412" x="731.2183" y="656.0605">Asset Server</text><text fill="#333" font-family="sans-serif" font-size="14" lengthAdjust="spacing" textLength="115.0898" x="715.2939" y="672.5488">(asset/Server.go)</text><text fill="#333" font-family="sans-serif" font-size="14" lengthAdjust="spacing" textLength="124.8789" x="847.3838" y="64.5352">Blob Subtree Store</text><path d="m894.8232 15c0-10 18-10 18-10s18 0 18 10v26c0 10-18 10-18 10s-18 0-18-10z" fill="#e2e2f0" stroke="#181818" stroke-width="1.5"/><path d="m894.8232 15c0 10 18 10 18 10s18 0 18-10" fill="none" stroke="#181818" stroke-width="1.5"/><text fill="#333" font-family="sans-serif" font-size="14" lengthAdjust="spacing" textLength="124.8789" x="847.3838" y="649.0605">Blob Subtree Store</text><g stroke="#181818"><path d="m894.8232 662.0137c0-10 18-10 18-10s18 0 18 10v26c0 10-18 10-18 10s-18 0-18-10z" fill="#e2e2f0" stroke-width="1.5"/><path d="m894.8232 662.0137c0 10 18 10 18 10s18 0 18-10" fill="none" stroke-width="1.5"/><path d="m142.6577 366.6621h10v259.8633h-10z" fill="#fff"/><path d="m418.4287 142.1094h10v143.9316h-10z" fill="#fff"/><path d="m418.4287 467.5938h10v143.9316h-10z" fill="#fff"/><path d="m629.918 171.4199h10v100.6211h-10z" fill="#fff"/><path d="m629.918 496.9043h10v100.6211h-10z" fill="#fff"/><path d="m767.8389 200.7305h10v57.3105h-10z" fill="#fff"/><path d="m767.8389 526.2148h10v57.3105h-10z" fill="#fff"/><path d="m907.8232 230.041h10v14h-10z" fill="#fff"/><path d="m907.8232 555.5254h10v14h-10z" fill="#fff"/></g><path d="m0 98.1436h998.2627v3h-998.2627z" fill="#eee" stroke="#eee"/><path d="m0 98.1436h998.2627" stroke="#000"/><path d="m0 101.1436h998.2627" stroke="#000"/><path d="m417.5051 87.4883h163.2524v23.3105h-163.2524z" fill="#eee" stroke="#000" stroke-width="2"/><text fill="#333" font-family="sans-serif" font-size="13" font-weight="bold" lengthAdjust="spacing" textLength="144.9678" x="423.5051" y="104.0566">New Subtree Scenario</text><path d="m406.4287 138.1094 10 4-10 4 4-4z" fill="#666" stroke="#666"/><path d="m147.6577 142.1094h264.771" stroke="#666"/><text fill="#333" font-family="sans-serif" font-size="13" lengthAdjust="spacing" textLength="102.8257" x="154.6577" y="137.3672">Set(ctx, subtree)</text><path d="m617.918 167.4199 10 4-10 4 4-4z" fill="#666" stroke="#666"/><path d="m428.4287 171.4199h195.4893" stroke="#666"/><text fill="#333" font-family="sans-serif" font-size="13" lengthAdjust="spacing" textLength="102.4512" x="435.4287" y="166.6777">set(ctx, subtree)</text><path d="m755.8389 196.7305 10 4-10 4 4-4z" fill="#666" stroke="#666"/><path d="m639.918 200.7305h121.9209" stroke="#666"/><text fill="#333" font-family="sans-serif" font-size="13" lengthAdjust="spacing" textLength="102.8257" x="646.918" y="195.9883">Set(ctx, subtree)</text><path d="m895.8232 226.041 10 4-10 4 4-4z" fill="#666" stroke="#666"/><path d="m777.8389 230.041h123.9843" stroke="#666"/><text fill="#333" font-family="sans-serif" font-size="13" lengthAdjust="spacing" textLength="102.8257" x="784.8389" y="225.2988">Set(ctx, subtree)</text><path d="m788.8389 240.041-10 4 10 4-4-4z" fill="#666" stroke="#666"/><path d="m782.8389 244.041h128.9843" stroke="#666" stroke-dasharray="2 2"/><path d="m650.918 254.041-10 4 10 4-4-4z" fill="#666" stroke="#666"/><path d="m644.918 258.041h126.9209" stroke="#666" stroke-dasharray="2 2"/><path d="m439.4287 268.041-10 4 10 4-4-4z" fill="#666" stroke="#666"/><path d="m433.4287 272.041h200.4893" stroke="#666" stroke-dasharray="2 2"/><path d="m158.6577 282.041-10 4 10 4-4-4z" fill="#666" stroke="#666"/><path d="m152.6577 286.041h269.771" stroke="#666" stroke-dasharray="2 2"/><path d="m0 314.6963h998.2627v3h-998.2627z" fill="#eee" stroke="#eee"/><path d="m0 314.6963h998.2627" stroke="#000"/><path d="m0 317.6963h998.2627" stroke="#000"/><path d="m399.6968 304.041h198.8691v23.3105h-198.8691z" fill="#eee" stroke="#000" stroke-width="2"/><text fill="#333" font-family="sans-serif" font-size="13" font-weight="bold" lengthAdjust="spacing" textLength="180.5845" x="405.6968" y="320.6094">Clear Subtree TTL Scenario</text><path d="m147.6577 353.6621h47" stroke="#666"/><path d="m194.6577 353.6621v13" stroke="#666"/><path d="m153.6577 366.6621h41" stroke="#666"/><path d="m163.6577 362.6621-10 4 10 4-4-4z" fill="#666" stroke="#666"/><text fill="#333" font-family="sans-serif" font-size="13" lengthAdjust="spacing" textLength="208.4316" x="159.6577" y="348.9199">submitMiningSolution(ctx, block)</text><path d="m152.6577 400.9727h42" stroke="#666"/><path d="m194.6577 400.9727v13" stroke="#666"/><path d="m153.6577 413.9727h41" stroke="#666"/><path d="m163.6577 409.9727-10 4 10 4-4-4z" fill="#666" stroke="#666"/><text fill="#333" font-family="sans-serif" font-size="13" lengthAdjust="spacing" textLength="194.2256" x="159.6577" y="396.2305">removeSubtreesTTL(ctx, Block)</text><path d="m10 428.9727h74.4468v7.3105l-10 10h-64.4468z" fill="#eee" stroke="#000" stroke-width="1.5"/><path d="m10 428.9727h978.2627v190.5527h-978.2627z" fill="none" stroke="#000" stroke-width="1.5"/><text fill="#333" font-family="sans-serif" font-size="13" font-weight="bold" lengthAdjust="spacing" textLength="29.4468" x="25" y="442.541">loop</text><text fill="#333" font-family="sans-serif" font-size="11" font-weight="bold" lengthAdjust="spacing" textLength="173.1963" x="99.4468" y="441.6074">[For Each Subtree in the Block]</text><path d="m406.4287 463.5938 10 4-10 4 4-4z" fill="#666" stroke="#666"/><path d="m152.6577 467.5938h259.771" stroke="#666"/><text fill="#333" font-family="sans-serif" font-size="13" lengthAdjust="spacing" textLength="92.1362" x="159.6577" y="462.8516">SetTTL(ctx, ttl)</text><path d="m617.918 492.9043 10 4-10 4 4-4z" fill="#666" stroke="#666"/><path d="m428.4287 496.9043h195.4893" stroke="#666"/><text fill="#333" font-family="sans-serif" font-size="13" lengthAdjust="spacing" textLength="92.1362" x="435.4287" y="492.1621">SetTTL(ctx, ttl)</text><path d="m755.8389 522.2148 10 4-10 4 4-4z" fill="#666" stroke="#666"/><path d="m639.918 526.2148h121.9209" stroke="#666"/><text fill="#333" font-family="sans-serif" font-size="13" lengthAdjust="spacing" textLength="92.1362" x="646.918" y="521.4727">SetTTL(ctx, ttl)</text><path d="m895.8232 551.5254 10 4-10 4 4-4z" fill="#666" stroke="#666"/><path d="m777.8389 555.5254h123.9843" stroke="#666"/><text fill="#333" font-family="sans-serif" font-size="13" lengthAdjust="spacing" textLength="92.1362" x="784.8389" y="550.7832">SetTTL(ctx, ttl)</text><path d="m788.8389 565.5254-10 4 10 4-4-4z" fill="#666" stroke="#666"/><path d="m782.8389 569.5254h128.9843" stroke="#666" stroke-dasharray="2 2"/><path d="m650.918 579.5254-10 4 10 4-4-4z" fill="#666" stroke="#666"/><path d="m644.918 583.5254h126.9209" stroke="#666" stroke-dasharray="2 2"/><path d="m439.4287 593.5254-10 4 10 4-4-4z" fill="#666" stroke="#666"/><path d="m433.4287 597.5254h200.4893" stroke="#666" stroke-dasharray="2 2"/><path d="m163.6577 607.5254-10 4 10 4-4-4z" fill="#666" stroke="#666"/><path d="m157.6577 611.5254h264.771" stroke="#666" stroke-dasharray="2 2"/><text fill="#333" font-family="sans-serif" font-size="10" lengthAdjust="spacing" textLength="155.4346" y="708.6816">Last Modified On: 24-Feb-2025</text></svg>
