<svg xmlns="http://www.w3.org/2000/svg" xmlns:xlink="http://www.w3.org/1999/xlink" contentStyleType="text/css" height="465px" preserveAspectRatio="none" style="width:722px;height:465px;background:#F0F8FF;" version="1.1" viewBox="0 0 722 465" width="722px" zoomAndPan="magnify"><defs/><g><rect fill="#F0F8FF" height="465" style="stroke:none;stroke-width:1.0;" width="722" x="0" y="0"/><rect fill="#FFFFFF" height="87.9316" style="stroke:#181818;stroke-width:1.0;" width="10" x="363.9614" y="84.2871"/><rect fill="#FFFFFF" height="177.8633" style="stroke:#181818;stroke-width:1.0;" width="10" x="363.9614" y="201.5293"/><rect fill="#FFFFFF" height="29.3105" style="stroke:#181818;stroke-width:1.0;" width="10" x="655.5703" y="113.5977"/><rect fill="#FFFFFF" height="29.3105" style="stroke:#181818;stroke-width:1.0;" width="10" x="655.5703" y="230.8398"/><rect fill="#FFFFFF" height="29.3105" style="stroke:#181818;stroke-width:1.0;" width="10" x="655.5703" y="313.7715"/><rect fill="none" height="75.9316" style="stroke:#000000;stroke-width:1.5;" width="451.127" x="265.2065" y="275.1504"/><line style="stroke:#181818;stroke-width:0.5;stroke-dasharray:5.0,5.0;" x1="51" x2="51" y1="52.9766" y2="397.3926"/><line style="stroke:#181818;stroke-width:0.5;stroke-dasharray:5.0,5.0;" x1="368.2065" x2="368.2065" y1="52.9766" y2="397.3926"/><line style="stroke:#181818;stroke-width:0.5;stroke-dasharray:5.0,5.0;" x1="659.8071" x2="659.8071" y1="52.9766" y2="397.3926"/><rect fill="#DDDDDD" height="30.4883" rx="2.5" ry="2.5" style="stroke:#666666;stroke-width:0.5;" width="93.666" x="5" y="21.4883"/><text fill="#333333" font-family="sans-serif" font-size="14" lengthAdjust="spacing" textLength="79.666" x="12" y="42.0234">HTTP Client</text><rect fill="#DDDDDD" height="30.4883" rx="2.5" ry="2.5" style="stroke:#666666;stroke-width:0.5;" width="93.666" x="5" y="396.3926"/><text fill="#333333" font-family="sans-serif" font-size="14" lengthAdjust="spacing" textLength="79.666" x="12" y="416.9277">HTTP Client</text><rect fill="#DDDDDD" height="46.9766" rx="2.5" ry="2.5" style="stroke:#666666;stroke-width:0.5;" width="187.5098" x="275.2065" y="5"/><text fill="#333333" font-family="sans-serif" font-size="14" lengthAdjust="spacing" textLength="82.0039" x="327.9595" y="25.5352">HTTP Server</text><text fill="#333333" font-family="sans-serif" font-size="14" lengthAdjust="spacing" textLength="173.5098" x="282.2065" y="42.0234">(asset/http_impl/http.go)</text><rect fill="#DDDDDD" height="46.9766" rx="2.5" ry="2.5" style="stroke:#666666;stroke-width:0.5;" width="187.5098" x="275.2065" y="396.3926"/><text fill="#333333" font-family="sans-serif" font-size="14" lengthAdjust="spacing" textLength="82.0039" x="327.9595" y="416.9277">HTTP Server</text><text fill="#333333" font-family="sans-serif" font-size="14" lengthAdjust="spacing" textLength="173.5098" x="282.2065" y="433.416">(asset/http_impl/http.go)</text><rect fill="#DDDDDD" height="30.4883" rx="2.5" ry="2.5" style="stroke:#666666;stroke-width:0.5;" width="91.5264" x="614.8071" y="21.4883"/><text fill="#333333" font-family="sans-serif" font-size="14" lengthAdjust="spacing" textLength="77.5264" x="621.8071" y="42.0234">UTXO Store</text><rect fill="#DDDDDD" height="30.4883" rx="2.5" ry="2.5" style="stroke:#666666;stroke-width:0.5;" width="91.5264" x="614.8071" y="396.3926"/><text fill="#333333" font-family="sans-serif" font-size="14" lengthAdjust="spacing" textLength="77.5264" x="621.8071" y="416.9277">UTXO Store</text><rect fill="#FFFFFF" height="87.9316" style="stroke:#181818;stroke-width:1.0;" width="10" x="363.9614" y="84.2871"/><rect fill="#FFFFFF" height="177.8633" style="stroke:#181818;stroke-width:1.0;" width="10" x="363.9614" y="201.5293"/><rect fill="#FFFFFF" height="29.3105" style="stroke:#181818;stroke-width:1.0;" width="10" x="655.5703" y="113.5977"/><rect fill="#FFFFFF" height="29.3105" style="stroke:#181818;stroke-width:1.0;" width="10" x="655.5703" y="230.8398"/><rect fill="#FFFFFF" height="29.3105" style="stroke:#181818;stroke-width:1.0;" width="10" x="655.5703" y="313.7715"/><polygon fill="#666666" points="351.9614,80.2871,361.9614,84.2871,351.9614,88.2871,355.9614,84.2871" style="stroke:#666666;stroke-width:1.0;"/><line style="stroke:#666666;stroke-width:1.0;" x1="51.833" x2="357.9614" y1="84.2871" y2="84.2871"/><text fill="#333333" font-family="sans-serif" font-size="13" lengthAdjust="spacing" textLength="293.1284" x="58.833" y="79.5449">GET /utxo/:hash (BINARY_STREAM, HEX, JSON)</text><polygon fill="#666666" points="643.5703,109.5977,653.5703,113.5977,643.5703,117.5977,647.5703,113.5977" style="stroke:#666666;stroke-width:1.0;"/><line style="stroke:#666666;stroke-width:1.0;" x1="373.9614" x2="649.5703" y1="113.5977" y2="113.5977"/><text fill="#333333" font-family="sans-serif" font-size="13" lengthAdjust="spacing" textLength="216.4678" x="380.9614" y="108.8555">Get(ctx, &amp;utxo.Spend{Hash: hash})</text><polygon fill="#666666" points="384.9614,138.9082,374.9614,142.9082,384.9614,146.9082,380.9614,142.9082" style="stroke:#666666;stroke-width:1.0;"/><line style="stroke:#666666;stroke-width:1.0;stroke-dasharray:2.0,2.0;" x1="378.9614" x2="659.5703" y1="142.9082" y2="142.9082"/><text fill="#333333" font-family="sans-serif" font-size="13" lengthAdjust="spacing" textLength="66.9805" x="390.9614" y="138.166">UTXO data</text><polygon fill="#666666" points="62.833,168.2188,52.833,172.2188,62.833,176.2188,58.833,172.2188" style="stroke:#666666;stroke-width:1.0;"/><line style="stroke:#666666;stroke-width:1.0;stroke-dasharray:2.0,2.0;" x1="56.833" x2="367.9614" y1="172.2188" y2="172.2188"/><text fill="#333333" font-family="sans-serif" font-size="13" lengthAdjust="spacing" textLength="139.7437" x="68.833" y="167.4766">Response (UTXO data)</text><polygon fill="#666666" points="351.9614,197.5293,361.9614,201.5293,351.9614,205.5293,355.9614,201.5293" style="stroke:#666666;stroke-width:1.0;"/><line style="stroke:#666666;stroke-width:1.0;" x1="51.833" x2="357.9614" y1="201.5293" y2="201.5293"/><text fill="#333333" font-family="sans-serif" font-size="13" lengthAdjust="spacing" textLength="145.4312" x="58.833" y="196.7871">GET /utxos/:hash/json</text><polygon fill="#666666" points="643.5703,226.8398,653.5703,230.8398,643.5703,234.8398,647.5703,230.8398" style="stroke:#666666;stroke-width:1.0;"/><line style="stroke:#666666;stroke-width:1.0;" x1="373.9614" x2="649.5703" y1="230.8398" y2="230.8398"/><text fill="#333333" font-family="sans-serif" font-size="13" lengthAdjust="spacing" textLength="87.6167" x="380.9614" y="226.0977">Get(ctx, hash)</text><polygon fill="#666666" points="384.9614,256.1504,374.9614,260.1504,384.9614,264.1504,380.9614,260.1504" style="stroke:#666666;stroke-width:1.0;"/><line style="stroke:#666666;stroke-width:1.0;stroke-dasharray:2.0,2.0;" x1="378.9614" x2="659.5703" y1="260.1504" y2="260.1504"/><text fill="#333333" font-family="sans-serif" font-size="13" lengthAdjust="spacing" textLength="83.8589" x="390.9614" y="255.4082">Tx Meta Data</text><path d="M265.2065,275.1504 L339.6533,275.1504 L339.6533,282.4609 L329.6533,292.4609 L265.2065,292.4609 L265.2065,275.1504 " fill="#EEEEEE" style="stroke:#000000;stroke-width:1.5;"/><rect fill="none" height="75.9316" style="stroke:#000000;stroke-width:1.5;" width="451.127" x="265.2065" y="275.1504"/><text fill="#333333" font-family="sans-serif" font-size="13" font-weight="bold" lengthAdjust="spacing" textLength="29.4468" x="280.2065" y="288.7188">loop</text><text fill="#333333" font-family="sans-serif" font-size="11" font-weight="bold" lengthAdjust="spacing" textLength="115.9673" x="354.6533" y="287.7852">[For each TX output]</text><polygon fill="#666666" points="643.5703,309.7715,653.5703,313.7715,643.5703,317.7715,647.5703,313.7715" style="stroke:#666666;stroke-width:1.0;"/><line style="stroke:#666666;stroke-width:1.0;" x1="373.9614" x2="649.5703" y1="313.7715" y2="313.7715"/><text fill="#333333" font-family="sans-serif" font-size="13" lengthAdjust="spacing" textLength="262.6089" x="380.9614" y="309.0293">Get(ctx, &amp;utxo.Spend{Hash: output hash})</text><polygon fill="#666666" points="384.9614,339.082,374.9614,343.082,384.9614,347.082,380.9614,343.082" style="stroke:#666666;stroke-width:1.0;"/><line style="stroke:#666666;stroke-width:1.0;stroke-dasharray:2.0,2.0;" x1="378.9614" x2="659.5703" y1="343.082" y2="343.082"/><text fill="#333333" font-family="sans-serif" font-size="13" lengthAdjust="spacing" textLength="66.9805" x="390.9614" y="338.3398">UTXO data</text><polygon fill="#666666" points="62.833,375.3926,52.833,379.3926,62.833,383.3926,58.833,379.3926" style="stroke:#666666;stroke-width:1.0;"/><line style="stroke:#666666;stroke-width:1.0;stroke-dasharray:2.0,2.0;" x1="56.833" x2="367.9614" y1="379.3926" y2="379.3926"/><text fill="#333333" font-family="sans-serif" font-size="13" lengthAdjust="spacing" textLength="158.0249" x="68.833" y="374.6504">Response (List of UTXOs)</text><text fill="#333333" font-family="sans-serif" font-size="10" lengthAdjust="spacing" textLength="155.4346" x="0" y="455.0371">Last Modified On: 24-Feb-2025</text><!--SRC=[fLHXQzim4FskNt5aR7CWQGQ3CV9Xq3Rnqb4t8t4XWq5Hx7EZrP4ywTmbbFxtdUMiAA6ZNNSVZArxxzsxEs5tetGbhLp3KcOtrzRKEZyrfR7mAduNVunZuHuGEHQoBYascdQGzpu2YBJM_DebF_WGuYsCi50QOMbiZjP1mLbPbe0bhb6J2_ZygMWBTmBWnAFtjVZqqEN8XxWNWKh63gqf_rU6dwGoLKbDBvCI8fJeJDBqAvoMYfliW7IxrqSmSxItQB_hI3g7D5WHLLTgNPN-xUZQT3szWRR8VOdBT365EHcB7dP96zCiOLvXfWgLWSyljx2IRWKMVzReIBHUeFyfa8KXV1wdCAXPOJ3qyEZaxE9uzkrgdix6nqaF9kD53xxCfnTT8JDIjv8mz1LeiNBZfD54YZBQzE1D8tp4ldH-Ds7reRTq7qXvxvxMFtJckyWbIP7ZFZuiognTPqEOeQkCTWZH0xSRaWFVF2vswMkuPbJf1iv6Jyx8jKCQ_716ls0S3VTvlRET14d2wB7sHMbC1J7VH4wi85s0gQcgYQygmBykfAN-sKkZi5-iENbgFmtcq2HN4CzOrBbo1APe5_7NPPLO4FzK3B7GkMH6OdA-wPZ3L0_XDPl0g9Fd_IH9-bkEJbVy1W00]--></g></svg>
