<svg xmlns="http://www.w3.org/2000/svg" xmlns:xlink="http://www.w3.org/1999/xlink" contentStyleType="text/css" height="925px" preserveAspectRatio="none" style="width:1479px;height:925px;background:#F0F8FF;" version="1.1" viewBox="0 0 1479 925" width="1479px" zoomAndPan="magnify"><defs/><g><rect fill="#F0F8FF" height="925" style="stroke:none;stroke-width:1.0;" width="1479" x="0" y="0"/><rect fill="#FFFFFF" height="146.5527" style="stroke:#181818;stroke-width:1.0;" width="10" x="529.2744" y="169.9082"/><rect fill="#FFFFFF" height="146.5527" style="stroke:#181818;stroke-width:1.0;" width="10" x="529.2744" y="431.3926"/><rect fill="#FFFFFF" height="146.5527" style="stroke:#181818;stroke-width:1.0;" width="10" x="529.2744" y="692.877"/><rect fill="#FFFFFF" height="87.9316" style="stroke:#181818;stroke-width:1.0;" width="10" x="962.7979" y="199.2188"/><rect fill="#FFFFFF" height="87.9316" style="stroke:#181818;stroke-width:1.0;" width="10" x="962.7979" y="460.7031"/><rect fill="#FFFFFF" height="87.9316" style="stroke:#181818;stroke-width:1.0;" width="10" x="962.7979" y="722.1875"/><rect fill="#FFFFFF" height="29.3105" style="stroke:#181818;stroke-width:1.0;" width="10" x="1397.6099" y="228.5293"/><rect fill="#FFFFFF" height="29.3105" style="stroke:#181818;stroke-width:1.0;" width="10" x="1397.6099" y="490.0137"/><rect fill="#FFFFFF" height="29.3105" style="stroke:#181818;stroke-width:1.0;" width="10" x="1397.6099" y="751.498"/><line style="stroke:#181818;stroke-width:0.5;stroke-dasharray:5.0,5.0;" x1="69" x2="69" y1="52.9766" y2="857.4297"/><line style="stroke:#181818;stroke-width:0.5;stroke-dasharray:5.0,5.0;" x1="533.8984" x2="533.8984" y1="52.9766" y2="857.4297"/><line style="stroke:#181818;stroke-width:0.5;stroke-dasharray:5.0,5.0;" x1="967.2529" x2="967.2529" y1="52.9766" y2="857.4297"/><line style="stroke:#181818;stroke-width:0.5;stroke-dasharray:5.0,5.0;" x1="1402.4531" x2="1402.4531" y1="52.9766" y2="857.4297"/><rect fill="#DDDDDD" height="30.4883" rx="2.5" ry="2.5" style="stroke:#666666;stroke-width:0.5;" width="128.2627" x="5" y="21.4883"/><text fill="#333333" font-family="sans-serif" font-size="14" lengthAdjust="spacing" textLength="114.2627" x="12" y="42.0234">Coinbase Service</text><rect fill="#DDDDDD" height="30.4883" rx="2.5" ry="2.5" style="stroke:#666666;stroke-width:0.5;" width="128.2627" x="5" y="856.4297"/><text fill="#333333" font-family="sans-serif" font-size="14" lengthAdjust="spacing" textLength="114.2627" x="12" y="876.9648">Coinbase Service</text><rect fill="#DDDDDD" height="46.9766" rx="2.5" ry="2.5" style="stroke:#666666;stroke-width:0.5;" width="126.752" x="470.8984" y="5"/><text fill="#333333" font-family="sans-serif" font-size="14" lengthAdjust="spacing" textLength="80.9033" x="493.8228" y="25.5352">Asset Client</text><text fill="#333333" font-family="sans-serif" font-size="14" lengthAdjust="spacing" textLength="112.752" x="477.8984" y="42.0234">(asset/Client.go)</text><rect fill="#DDDDDD" height="46.9766" rx="2.5" ry="2.5" style="stroke:#666666;stroke-width:0.5;" width="126.752" x="470.8984" y="856.4297"/><text fill="#333333" font-family="sans-serif" font-size="14" lengthAdjust="spacing" textLength="80.9033" x="493.8228" y="876.9648">Asset Client</text><text fill="#333333" font-family="sans-serif" font-size="14" lengthAdjust="spacing" textLength="112.752" x="477.8984" y="893.4531">(asset/Client.go)</text><rect fill="#DDDDDD" height="46.9766" rx="2.5" ry="2.5" style="stroke:#666666;stroke-width:0.5;" width="129.0898" x="903.2529" y="5"/><text fill="#333333" font-family="sans-serif" font-size="14" lengthAdjust="spacing" textLength="83.2412" x="926.1772" y="25.5352">Asset Server</text><text fill="#333333" font-family="sans-serif" font-size="14" lengthAdjust="spacing" textLength="115.0898" x="910.2529" y="42.0234">(asset/Server.go)</text><rect fill="#DDDDDD" height="46.9766" rx="2.5" ry="2.5" style="stroke:#666666;stroke-width:0.5;" width="129.0898" x="903.2529" y="856.4297"/><text fill="#333333" font-family="sans-serif" font-size="14" lengthAdjust="spacing" textLength="83.2412" x="926.1772" y="876.9648">Asset Server</text><text fill="#333333" font-family="sans-serif" font-size="14" lengthAdjust="spacing" textLength="115.0898" x="910.2529" y="893.4531">(asset/Server.go)</text><rect fill="#DDDDDD" height="30.4883" rx="2.5" ry="2.5" style="stroke:#666666;stroke-width:0.5;" width="130.3135" x="1337.4531" y="21.4883"/><text fill="#333333" font-family="sans-serif" font-size="14" lengthAdjust="spacing" textLength="116.3135" x="1344.4531" y="42.0234">Blockchain Client</text><rect fill="#DDDDDD" height="30.4883" rx="2.5" ry="2.5" style="stroke:#666666;stroke-width:0.5;" width="130.3135" x="1337.4531" y="856.4297"/><text fill="#333333" font-family="sans-serif" font-size="14" lengthAdjust="spacing" textLength="116.3135" x="1344.4531" y="876.9648">Blockchain Client</text><rect fill="#FFFFFF" height="146.5527" style="stroke:#181818;stroke-width:1.0;" width="10" x="529.2744" y="169.9082"/><rect fill="#FFFFFF" height="146.5527" style="stroke:#181818;stroke-width:1.0;" width="10" x="529.2744" y="431.3926"/><rect fill="#FFFFFF" height="146.5527" style="stroke:#181818;stroke-width:1.0;" width="10" x="529.2744" y="692.877"/><rect fill="#FFFFFF" height="87.9316" style="stroke:#181818;stroke-width:1.0;" width="10" x="962.7979" y="199.2188"/><rect fill="#FFFFFF" height="87.9316" style="stroke:#181818;stroke-width:1.0;" width="10" x="962.7979" y="460.7031"/><rect fill="#FFFFFF" height="87.9316" style="stroke:#181818;stroke-width:1.0;" width="10" x="962.7979" y="722.1875"/><rect fill="#FFFFFF" height="29.3105" style="stroke:#181818;stroke-width:1.0;" width="10" x="1397.6099" y="228.5293"/><rect fill="#FFFFFF" height="29.3105" style="stroke:#181818;stroke-width:1.0;" width="10" x="1397.6099" y="490.0137"/><rect fill="#FFFFFF" height="29.3105" style="stroke:#181818;stroke-width:1.0;" width="10" x="1397.6099" y="751.498"/><rect fill="#EEEEEE" height="3" style="stroke:#EEEEEE;stroke-width:1.0;" width="1472.7666" x="0" y="83.6318"/><line style="stroke:#000000;stroke-width:1.0;" x1="0" x2="1472.7666" y1="83.6318" y2="83.6318"/><line style="stroke:#000000;stroke-width:1.0;" x1="0" x2="1472.7666" y1="86.6318" y2="86.6318"/><rect fill="#EEEEEE" height="23.3105" style="stroke:#000000;stroke-width:2.0;" width="141.8799" x="665.4434" y="72.9766"/><text fill="#333333" font-family="sans-serif" font-size="13" font-weight="bold" lengthAdjust="spacing" textLength="123.5952" x="671.4434" y="89.5449">Get Block Scenario</text><line style="stroke:#666666;stroke-width:1.0;" x1="69.1313" x2="111.1313" y1="127.5977" y2="127.5977"/><line style="stroke:#666666;stroke-width:1.0;" x1="111.1313" x2="111.1313" y1="127.5977" y2="140.5977"/><line style="stroke:#666666;stroke-width:1.0;" x1="70.1313" x2="111.1313" y1="140.5977" y2="140.5977"/><polygon fill="#666666" points="80.1313,136.5977,70.1313,140.5977,80.1313,144.5977,76.1313,140.5977" style="stroke:#666666;stroke-width:1.0;"/><text fill="#333333" font-family="sans-serif" font-size="13" lengthAdjust="spacing" textLength="170.2378" x="76.1313" y="122.8555">catchup() or processBlock()</text><polygon fill="#666666" points="517.2744,165.9082,527.2744,169.9082,517.2744,173.9082,521.2744,169.9082" style="stroke:#666666;stroke-width:1.0;"/><line style="stroke:#666666;stroke-width:1.0;" x1="69.1313" x2="523.2744" y1="169.9082" y2="169.9082"/><text fill="#333333" font-family="sans-serif" font-size="13" lengthAdjust="spacing" textLength="192.0928" x="76.1313" y="165.166">gRPC getBlock(ctx, blockHash)</text><polygon fill="#666666" points="950.7979,195.2188,960.7979,199.2188,950.7979,203.2188,954.7979,199.2188" style="stroke:#666666;stroke-width:1.0;"/><line style="stroke:#666666;stroke-width:1.0;" x1="539.2744" x2="956.7979" y1="199.2188" y2="199.2188"/><text fill="#333333" font-family="sans-serif" font-size="13" lengthAdjust="spacing" textLength="155.4731" x="546.2744" y="194.4766">getBlock(ctx, blockHash)</text><polygon fill="#666666" points="1385.6099,224.5293,1395.6099,228.5293,1385.6099,232.5293,1389.6099,228.5293" style="stroke:#666666;stroke-width:1.0;"/><line style="stroke:#666666;stroke-width:1.0;" x1="972.7979" x2="1391.6099" y1="228.5293" y2="228.5293"/><text fill="#333333" font-family="sans-serif" font-size="13" lengthAdjust="spacing" textLength="156.7617" x="979.7979" y="223.7871">GetBlock(ctx, blockHash)</text><polygon fill="#666666" points="983.7979,253.8398,973.7979,257.8398,983.7979,261.8398,979.7979,257.8398" style="stroke:#666666;stroke-width:1.0;"/><line style="stroke:#666666;stroke-width:1.0;stroke-dasharray:2.0,2.0;" x1="977.7979" x2="1401.6099" y1="257.8398" y2="257.8398"/><text fill="#333333" font-family="sans-serif" font-size="13" lengthAdjust="spacing" textLength="63.1401" x="989.7979" y="253.0977">blockData</text><polygon fill="#666666" points="550.2744,283.1504,540.2744,287.1504,550.2744,291.1504,546.2744,287.1504" style="stroke:#666666;stroke-width:1.0;"/><line style="stroke:#666666;stroke-width:1.0;stroke-dasharray:2.0,2.0;" x1="544.2744" x2="966.7979" y1="287.1504" y2="287.1504"/><text fill="#333333" font-family="sans-serif" font-size="13" lengthAdjust="spacing" textLength="63.1401" x="556.2744" y="282.4082">blockData</text><polygon fill="#666666" points="80.1313,312.4609,70.1313,316.4609,80.1313,320.4609,76.1313,316.4609" style="stroke:#666666;stroke-width:1.0;"/><line style="stroke:#666666;stroke-width:1.0;stroke-dasharray:2.0,2.0;" x1="74.1313" x2="533.2744" y1="316.4609" y2="316.4609"/><text fill="#333333" font-family="sans-serif" font-size="13" lengthAdjust="spacing" textLength="63.1401" x="86.1313" y="311.7188">blockData</text><rect fill="#EEEEEE" height="3" style="stroke:#EEEEEE;stroke-width:1.0;" width="1472.7666" x="0" y="345.1162"/><line style="stroke:#000000;stroke-width:1.0;" x1="0" x2="1472.7666" y1="345.1162" y2="345.1162"/><line style="stroke:#000000;stroke-width:1.0;" x1="0" x2="1472.7666" y1="348.1162" y2="348.1162"/><rect fill="#EEEEEE" height="23.3105" style="stroke:#000000;stroke-width:2.0;" width="226.418" x="623.1743" y="334.4609"/><text fill="#333333" font-family="sans-serif" font-size="13" font-weight="bold" lengthAdjust="spacing" textLength="208.1333" x="629.1743" y="351.0293">Get Best Block Header Scenario</text><line style="stroke:#666666;stroke-width:1.0;" x1="69.1313" x2="111.1313" y1="389.082" y2="389.082"/><line style="stroke:#666666;stroke-width:1.0;" x1="111.1313" x2="111.1313" y1="389.082" y2="402.082"/><line style="stroke:#666666;stroke-width:1.0;" x1="70.1313" x2="111.1313" y1="402.082" y2="402.082"/><polygon fill="#666666" points="80.1313,398.082,70.1313,402.082,80.1313,406.082,76.1313,402.082" style="stroke:#666666;stroke-width:1.0;"/><text fill="#333333" font-family="sans-serif" font-size="13" lengthAdjust="spacing" textLength="124.4014" x="76.1313" y="384.3398">init() or storeBlock()</text><polygon fill="#666666" points="517.2744,427.3926,527.2744,431.3926,517.2744,435.3926,521.2744,431.3926" style="stroke:#666666;stroke-width:1.0;"/><line style="stroke:#666666;stroke-width:1.0;" x1="69.1313" x2="523.2744" y1="431.3926" y2="431.3926"/><text fill="#333333" font-family="sans-serif" font-size="13" lengthAdjust="spacing" textLength="189.1855" x="76.1313" y="426.6504">gRPC getBestBlockHeader(ctx)</text><polygon fill="#666666" points="950.7979,456.7031,960.7979,460.7031,950.7979,464.7031,954.7979,460.7031" style="stroke:#666666;stroke-width:1.0;"/><line style="stroke:#666666;stroke-width:1.0;" x1="539.2744" x2="956.7979" y1="460.7031" y2="460.7031"/><text fill="#333333" font-family="sans-serif" font-size="13" lengthAdjust="spacing" textLength="152.5659" x="546.2744" y="455.9609">getBestBlockHeader(ctx)</text><polygon fill="#666666" points="1385.6099,486.0137,1395.6099,490.0137,1385.6099,494.0137,1389.6099,490.0137" style="stroke:#666666;stroke-width:1.0;"/><line style="stroke:#666666;stroke-width:1.0;" x1="972.7979" x2="1391.6099" y1="490.0137" y2="490.0137"/><text fill="#333333" font-family="sans-serif" font-size="13" lengthAdjust="spacing" textLength="153.8545" x="979.7979" y="485.2715">GetBestBlockHeader(ctx)</text><polygon fill="#666666" points="983.7979,515.3242,973.7979,519.3242,983.7979,523.3242,979.7979,519.3242" style="stroke:#666666;stroke-width:1.0;"/><line style="stroke:#666666;stroke-width:1.0;stroke-dasharray:2.0,2.0;" x1="977.7979" x2="1401.6099" y1="519.3242" y2="519.3242"/><text fill="#333333" font-family="sans-serif" font-size="13" lengthAdjust="spacing" textLength="134.0688" x="989.7979" y="514.582">bestBlockHeaderData</text><polygon fill="#666666" points="550.2744,544.6348,540.2744,548.6348,550.2744,552.6348,546.2744,548.6348" style="stroke:#666666;stroke-width:1.0;"/><line style="stroke:#666666;stroke-width:1.0;stroke-dasharray:2.0,2.0;" x1="544.2744" x2="966.7979" y1="548.6348" y2="548.6348"/><text fill="#333333" font-family="sans-serif" font-size="13" lengthAdjust="spacing" textLength="134.0688" x="556.2744" y="543.8926">bestBlockHeaderData</text><polygon fill="#666666" points="80.1313,573.9453,70.1313,577.9453,80.1313,581.9453,76.1313,577.9453" style="stroke:#666666;stroke-width:1.0;"/><line style="stroke:#666666;stroke-width:1.0;stroke-dasharray:2.0,2.0;" x1="74.1313" x2="533.2744" y1="577.9453" y2="577.9453"/><text fill="#333333" font-family="sans-serif" font-size="13" lengthAdjust="spacing" textLength="134.0688" x="86.1313" y="573.2031">bestBlockHeaderData</text><rect fill="#EEEEEE" height="3" style="stroke:#EEEEEE;stroke-width:1.0;" width="1472.7666" x="0" y="606.6006"/><line style="stroke:#000000;stroke-width:1.0;" x1="0" x2="1472.7666" y1="606.6006" y2="606.6006"/><line style="stroke:#000000;stroke-width:1.0;" x1="0" x2="1472.7666" y1="609.6006" y2="609.6006"/><rect fill="#EEEEEE" height="23.3105" style="stroke:#000000;stroke-width:2.0;" width="201.0591" x="635.8538" y="595.9453"/><text fill="#333333" font-family="sans-serif" font-size="13" font-weight="bold" lengthAdjust="spacing" textLength="182.7744" x="641.8538" y="612.5137">Get Block Headers Scenario</text><line style="stroke:#666666;stroke-width:1.0;" x1="69.1313" x2="111.1313" y1="650.5664" y2="650.5664"/><line style="stroke:#666666;stroke-width:1.0;" x1="111.1313" x2="111.1313" y1="650.5664" y2="663.5664"/><line style="stroke:#666666;stroke-width:1.0;" x1="70.1313" x2="111.1313" y1="663.5664" y2="663.5664"/><polygon fill="#666666" points="80.1313,659.5664,70.1313,663.5664,80.1313,667.5664,76.1313,663.5664" style="stroke:#666666;stroke-width:1.0;"/><text fill="#333333" font-family="sans-serif" font-size="13" lengthAdjust="spacing" textLength="58.1318" x="76.1313" y="645.8242">catchup()</text><polygon fill="#666666" points="517.2744,688.877,527.2744,692.877,517.2744,696.877,521.2744,692.877" style="stroke:#666666;stroke-width:1.0;"/><line style="stroke:#666666;stroke-width:1.0;" x1="69.1313" x2="523.2744" y1="692.877" y2="692.877"/><text fill="#333333" font-family="sans-serif" font-size="13" lengthAdjust="spacing" textLength="441.1431" x="76.1313" y="688.1348">gRPC getBlockHeaders(ctx, fromBlockHeaderHash, numberOfHeaders)</text><polygon fill="#666666" points="950.7979,718.1875,960.7979,722.1875,950.7979,726.1875,954.7979,722.1875" style="stroke:#666666;stroke-width:1.0;"/><line style="stroke:#666666;stroke-width:1.0;" x1="539.2744" x2="956.7979" y1="722.1875" y2="722.1875"/><text fill="#333333" font-family="sans-serif" font-size="13" lengthAdjust="spacing" textLength="404.5234" x="546.2744" y="717.4453">getBlockHeaders(ctx, fromBlockHeaderHash, numberOfHeaders)</text><polygon fill="#666666" points="1385.6099,747.498,1395.6099,751.498,1385.6099,755.498,1389.6099,751.498" style="stroke:#666666;stroke-width:1.0;"/><line style="stroke:#666666;stroke-width:1.0;" x1="972.7979" x2="1391.6099" y1="751.498" y2="751.498"/><text fill="#333333" font-family="sans-serif" font-size="13" lengthAdjust="spacing" textLength="405.812" x="979.7979" y="746.7559">GetBlockHeaders(ctx, fromBlockHeaderHash, numberOfHeaders)</text><polygon fill="#666666" points="983.7979,776.8086,973.7979,780.8086,983.7979,784.8086,979.7979,780.8086" style="stroke:#666666;stroke-width:1.0;"/><line style="stroke:#666666;stroke-width:1.0;stroke-dasharray:2.0,2.0;" x1="977.7979" x2="1401.6099" y1="780.8086" y2="780.8086"/><text fill="#333333" font-family="sans-serif" font-size="13" lengthAdjust="spacing" textLength="114.4863" x="989.7979" y="776.0664">blockHeadersData</text><polygon fill="#666666" points="550.2744,806.1191,540.2744,810.1191,550.2744,814.1191,546.2744,810.1191" style="stroke:#666666;stroke-width:1.0;"/><line style="stroke:#666666;stroke-width:1.0;stroke-dasharray:2.0,2.0;" x1="544.2744" x2="966.7979" y1="810.1191" y2="810.1191"/><text fill="#333333" font-family="sans-serif" font-size="13" lengthAdjust="spacing" textLength="114.4863" x="556.2744" y="805.377">blockHeadersData</text><polygon fill="#666666" points="80.1313,835.4297,70.1313,839.4297,80.1313,843.4297,76.1313,839.4297" style="stroke:#666666;stroke-width:1.0;"/><line style="stroke:#666666;stroke-width:1.0;stroke-dasharray:2.0,2.0;" x1="74.1313" x2="533.2744" y1="839.4297" y2="839.4297"/><text fill="#333333" font-family="sans-serif" font-size="13" lengthAdjust="spacing" textLength="114.4863" x="86.1313" y="834.6875">blockHeadersData</text><text fill="#333333" font-family="sans-serif" font-size="10" lengthAdjust="spacing" textLength="155.4346" x="0" y="915.0742">Last Modified On: 24-Feb-2025</text><!--SRC=[hPPHQzim4CVVzIcEbB4Occqm6AEGmPhWzc6XOttTora-9oAE52IbMndxxfCb9vFZ98tZwY54v_l_xdG-7JPB8TUeSGKPykLSgutC9wfK6gxI3-ddD6Lcvv5JWPlIfahQskMZNv4BQgr-rGy_-SNOMvXI8IH1fdHEsa3Xdc9P0fMq8cbDf7TROP_X3mEuzTvDbhFkPpdrY_rb4OMx3BKg-sBShnLSh57Qor2CnOZ1H0cPeI5u9FqaE0q03MoDJTUlnf25IIbSGNxA8LRRzs7xRguIh_G-mNP8N0KXlHE7RLCSR4tnRQduaYzGo3gyT_zlhGEoyHZkN1J_01uvITH2mNZCTgSSVTaT3cw0e-MBpNgOWAlHMYjEndZnC64DJNGi9vl_-3w1ETdWoktlQyYgl_Te5Wb3RiKJMchK8WPiUU6a5UyyL5sPMEjG-rLmlBiNUQtIjIYZLfQUCqMBBAVZe4PshSeTPBGE5wKGlQpZsltNJsRR0_U4xdQSqmf22Xlwm5YbgKiNk73UFGIhYdvf4xnCwjG39t4NjK2JsBSPJjFEROipA0VdG_0tdUR4sLEXXeSRM6YrYgpLNRm6kLbbf1-AshFFtEWThFDawHFnujbJervZ11r1TPb4fn3RVYkfiExBGbcNoJTqKsccSb48ok51ti2Rt0c6WpmVpMQpqRDRW-GV]--></g></svg>
