<svg xmlns="http://www.w3.org/2000/svg" xmlns:xlink="http://www.w3.org/1999/xlink" contentStyleType="text/css" height="590px" preserveAspectRatio="none" style="width:1164px;height:590px;background:#F0F8FF;" version="1.1" viewBox="0 0 1164 590" width="1164px" zoomAndPan="magnify"><defs/><g><rect fill="#F0F8FF" height="590" style="stroke:none;stroke-width:1.0;" width="1164" x="0" y="0"/><rect fill="#FFFFFF" height="391.7266" style="stroke:#181818;stroke-width:1.0;" width="10" x="195.0576" y="98.7988"/><rect fill="#FFFFFF" height="371.416" style="stroke:#181818;stroke-width:1.0;" width="10" x="330.9839" y="128.1094"/><rect fill="#FFFFFF" height="29.3105" style="stroke:#181818;stroke-width:1.0;" width="10" x="335.9839" y="301.6621"/><rect fill="#FFFFFF" height="29.3105" style="stroke:#181818;stroke-width:1.0;" width="10" x="335.9839" y="461.2148"/><rect fill="#FFFFFF" height="14" style="stroke:#181818;stroke-width:1.0;" width="10" x="468.5825" y="157.4199"/><rect fill="#FFFFFF" height="289.7949" style="stroke:#181818;stroke-width:1.0;" width="10" x="593.9551" y="200.7305"/><line style="stroke:#181818;stroke-width:0.5;stroke-dasharray:5.0,5.0;" x1="69" x2="69" y1="67.4883" y2="508.5254"/><line style="stroke:#181818;stroke-width:0.5;stroke-dasharray:5.0,5.0;" x1="199.606" x2="199.606" y1="67.4883" y2="508.5254"/><line style="stroke:#181818;stroke-width:0.5;stroke-dasharray:5.0,5.0;" x1="335.6011" x2="335.6011" y1="67.4883" y2="508.5254"/><line style="stroke:#181818;stroke-width:0.5;stroke-dasharray:5.0,5.0;" x1="473.3667" x2="473.3667" y1="67.4883" y2="508.5254"/><line style="stroke:#181818;stroke-width:0.5;stroke-dasharray:5.0,5.0;" x1="598.7983" x2="598.7983" y1="67.4883" y2="508.5254"/><line style="stroke:#181818;stroke-width:0.5;stroke-dasharray:5.0,5.0;" x1="842.4341" x2="842.4341" y1="67.4883" y2="508.5254"/><line style="stroke:#181818;stroke-width:0.5;stroke-dasharray:5.0,5.0;" x1="1025.792" x2="1025.792" y1="67.4883" y2="508.5254"/><rect fill="#DDDDDD" height="30.4883" rx="2.5" ry="2.5" style="stroke:#666666;stroke-width:0.5;" width="128.2627" x="5" y="36"/><text fill="#333333" font-family="sans-serif" font-size="14" lengthAdjust="spacing" textLength="114.2627" x="12" y="56.5352">Coinbase Service</text><rect fill="#DDDDDD" height="30.4883" rx="2.5" ry="2.5" style="stroke:#666666;stroke-width:0.5;" width="128.2627" x="5" y="507.5254"/><text fill="#333333" font-family="sans-serif" font-size="14" lengthAdjust="spacing" textLength="114.2627" x="12" y="528.0605">Coinbase Service</text><rect fill="#DDDDDD" height="30.4883" rx="2.5" ry="2.5" style="stroke:#666666;stroke-width:0.5;" width="94.9033" x="152.606" y="36"/><text fill="#333333" font-family="sans-serif" font-size="14" lengthAdjust="spacing" textLength="80.9033" x="159.606" y="56.5352">Asset Client</text><rect fill="#DDDDDD" height="30.4883" rx="2.5" ry="2.5" style="stroke:#666666;stroke-width:0.5;" width="94.9033" x="152.606" y="507.5254"/><text fill="#333333" font-family="sans-serif" font-size="14" lengthAdjust="spacing" textLength="80.9033" x="159.606" y="528.0605">Asset Client</text><rect fill="#DDDDDD" height="46.9766" rx="2.5" ry="2.5" style="stroke:#666666;stroke-width:0.5;" width="154.7656" x="258.6011" y="19.5117"/><text fill="#333333" font-family="sans-serif" font-size="14" lengthAdjust="spacing" textLength="140.7656" x="265.6011" y="40.0469">Asset Server Handler</text><text fill="#333333" font-family="sans-serif" font-size="14" lengthAdjust="spacing" textLength="103.6875" x="284.1401" y="56.5352">(asset/grpc.go)</text><rect fill="#DDDDDD" height="46.9766" rx="2.5" ry="2.5" style="stroke:#666666;stroke-width:0.5;" width="154.7656" x="258.6011" y="507.5254"/><text fill="#333333" font-family="sans-serif" font-size="14" lengthAdjust="spacing" textLength="140.7656" x="265.6011" y="528.0605">Asset Server Handler</text><text fill="#333333" font-family="sans-serif" font-size="14" lengthAdjust="spacing" textLength="103.6875" x="284.1401" y="544.5488">(asset/grpc.go)</text><text fill="#333333" font-family="sans-serif" font-size="14" lengthAdjust="spacing" textLength="94.4316" x="423.3667" y="64.5352">Subscriber DB</text><path d="M455.5825,15 C455.5825,5 473.5825,5 473.5825,5 C473.5825,5 491.5825,5 491.5825,15 L491.5825,41 C491.5825,51 473.5825,51 473.5825,51 C473.5825,51 455.5825,51 455.5825,41 L455.5825,15 " fill="#E2E2F0" style="stroke:#181818;stroke-width:1.5;"/><path d="M455.5825,15 C455.5825,25 473.5825,25 473.5825,25 C473.5825,25 491.5825,25 491.5825,15 " fill="none" style="stroke:#181818;stroke-width:1.5;"/><text fill="#333333" font-family="sans-serif" font-size="14" lengthAdjust="spacing" textLength="94.4316" x="423.3667" y="521.0605">Subscriber DB</text><path d="M455.5825,534.0137 C455.5825,524.0137 473.5825,524.0137 473.5825,524.0137 C473.5825,524.0137 491.5825,524.0137 491.5825,534.0137 L491.5825,560.0137 C491.5825,570.0137 473.5825,570.0137 473.5825,570.0137 C473.5825,570.0137 455.5825,570.0137 455.5825,560.0137 L455.5825,534.0137 " fill="#E2E2F0" style="stroke:#181818;stroke-width:1.5;"/><path d="M455.5825,534.0137 C455.5825,544.0137 473.5825,544.0137 473.5825,544.0137 C473.5825,544.0137 491.5825,544.0137 491.5825,534.0137 " fill="none" style="stroke:#181818;stroke-width:1.5;"/><rect fill="#DDDDDD" height="30.4883" rx="2.5" ry="2.5" style="stroke:#666666;stroke-width:0.5;" width="130.3135" x="533.7983" y="36"/><text fill="#333333" font-family="sans-serif" font-size="14" lengthAdjust="spacing" textLength="116.3135" x="540.7983" y="56.5352">Blockchain Client</text><rect fill="#DDDDDD" height="30.4883" rx="2.5" ry="2.5" style="stroke:#666666;stroke-width:0.5;" width="130.3135" x="533.7983" y="507.5254"/><text fill="#333333" font-family="sans-serif" font-size="14" lengthAdjust="spacing" textLength="116.3135" x="540.7983" y="528.0605">Blockchain Client</text><rect fill="#DDDDDD" height="30.4883" rx="2.5" ry="2.5" style="stroke:#666666;stroke-width:0.5;" width="132.6514" x="776.4341" y="36"/><text fill="#333333" font-family="sans-serif" font-size="14" lengthAdjust="spacing" textLength="118.6514" x="783.4341" y="56.5352">Blockchain Server</text><rect fill="#DDDDDD" height="30.4883" rx="2.5" ry="2.5" style="stroke:#666666;stroke-width:0.5;" width="132.6514" x="776.4341" y="507.5254"/><text fill="#333333" font-family="sans-serif" font-size="14" lengthAdjust="spacing" textLength="118.6514" x="783.4341" y="528.0605">Blockchain Server</text><rect fill="#DDDDDD" height="30.4883" rx="2.5" ry="2.5" style="stroke:#666666;stroke-width:0.5;" width="165.7305" x="943.792" y="36"/><text fill="#333333" font-family="sans-serif" font-size="14" lengthAdjust="spacing" textLength="151.7305" x="950.792" y="56.5352">Block Assembly Server</text><rect fill="#DDDDDD" height="30.4883" rx="2.5" ry="2.5" style="stroke:#666666;stroke-width:0.5;" width="165.7305" x="943.792" y="507.5254"/><text fill="#333333" font-family="sans-serif" font-size="14" lengthAdjust="spacing" textLength="151.7305" x="950.792" y="528.0605">Block Assembly Server</text><rect fill="#FFFFFF" height="391.7266" style="stroke:#181818;stroke-width:1.0;" width="10" x="195.0576" y="98.7988"/><rect fill="#FFFFFF" height="371.416" style="stroke:#181818;stroke-width:1.0;" width="10" x="330.9839" y="128.1094"/><rect fill="#FFFFFF" height="29.3105" style="stroke:#181818;stroke-width:1.0;" width="10" x="335.9839" y="301.6621"/><rect fill="#FFFFFF" height="29.3105" style="stroke:#181818;stroke-width:1.0;" width="10" x="335.9839" y="461.2148"/><rect fill="#FFFFFF" height="14" style="stroke:#181818;stroke-width:1.0;" width="10" x="468.5825" y="157.4199"/><rect fill="#FFFFFF" height="289.7949" style="stroke:#181818;stroke-width:1.0;" width="10" x="593.9551" y="200.7305"/><polygon fill="#666666" points="183.0576,94.7988,193.0576,98.7988,183.0576,102.7988,187.0576,98.7988" style="stroke:#666666;stroke-width:1.0;"/><line style="stroke:#666666;stroke-width:1.0;" x1="69.1313" x2="189.0576" y1="98.7988" y2="98.7988"/><text fill="#333333" font-family="sans-serif" font-size="13" lengthAdjust="spacing" textLength="106.9263" x="76.1313" y="94.0566">Subscribe(ctx, "")</text><polygon fill="#666666" points="318.9839,124.1094,328.9839,128.1094,318.9839,132.1094,322.9839,128.1094" style="stroke:#666666;stroke-width:1.0;"/><line style="stroke:#666666;stroke-width:1.0;" x1="205.0576" x2="324.9839" y1="128.1094" y2="128.1094"/><text fill="#333333" font-family="sans-serif" font-size="13" lengthAdjust="spacing" textLength="106.9263" x="212.0576" y="123.3672">Subscribe(ctx, "")</text><polygon fill="#666666" points="456.5825,153.4199,466.5825,157.4199,456.5825,161.4199,460.5825,157.4199" style="stroke:#666666;stroke-width:1.0;"/><line style="stroke:#666666;stroke-width:1.0;" x1="340.9839" x2="462.5825" y1="157.4199" y2="157.4199"/><text fill="#333333" font-family="sans-serif" font-size="13" lengthAdjust="spacing" textLength="105.0728" x="347.9839" y="152.6777">Track subscriber</text><polygon fill="#666666" points="351.9839,167.4199,341.9839,171.4199,351.9839,175.4199,347.9839,171.4199" style="stroke:#666666;stroke-width:1.0;"/><line style="stroke:#666666;stroke-width:1.0;stroke-dasharray:2.0,2.0;" x1="345.9839" x2="472.5825" y1="171.4199" y2="171.4199"/><polygon fill="#666666" points="581.9551,196.7305,591.9551,200.7305,581.9551,204.7305,585.9551,200.7305" style="stroke:#666666;stroke-width:1.0;"/><line style="stroke:#666666;stroke-width:1.0;" x1="340.9839" x2="587.9551" y1="200.7305" y2="200.7305"/><text fill="#333333" font-family="sans-serif" font-size="13" lengthAdjust="spacing" textLength="69.4941" x="347.9839" y="195.9883">Subscribe()</text><line style="stroke:#666666;stroke-width:1.0;" x1="842.7598" x2="884.7598" y1="230.041" y2="230.041"/><line style="stroke:#666666;stroke-width:1.0;" x1="884.7598" x2="884.7598" y1="230.041" y2="243.041"/><line style="stroke:#666666;stroke-width:1.0;" x1="843.7598" x2="884.7598" y1="243.041" y2="243.041"/><polygon fill="#666666" points="853.7598,239.041,843.7598,243.041,853.7598,247.041,849.7598,243.041" style="stroke:#666666;stroke-width:1.0;"/><text fill="#333333" font-family="sans-serif" font-size="13" lengthAdjust="spacing" textLength="67.2661" x="849.7598" y="225.2988">AddBlock()</text><polygon fill="#666666" points="614.9551,268.3516,604.9551,272.3516,614.9551,276.3516,610.9551,272.3516" style="stroke:#666666;stroke-width:1.0;"/><line style="stroke:#666666;stroke-width:1.0;" x1="608.9551" x2="841.7598" y1="272.3516" y2="272.3516"/><text fill="#333333" font-family="sans-serif" font-size="13" lengthAdjust="spacing" textLength="214.8047" x="620.9551" y="267.6094">Send Notification Block, MiningOn</text><polygon fill="#666666" points="356.9839,297.6621,346.9839,301.6621,356.9839,305.6621,352.9839,301.6621" style="stroke:#666666;stroke-width:1.0;"/><line style="stroke:#666666;stroke-width:1.0;" x1="350.9839" x2="592.9551" y1="301.6621" y2="301.6621"/><text fill="#333333" font-family="sans-serif" font-size="13" lengthAdjust="spacing" textLength="214.8047" x="362.9839" y="296.9199">Send Notification Block, MiningOn</text><polygon fill="#666666" points="80.1313,326.9727,70.1313,330.9727,80.1313,334.9727,76.1313,330.9727" style="stroke:#666666;stroke-width:1.0;"/><line style="stroke:#666666;stroke-width:1.0;stroke-dasharray:2.0,2.0;" x1="74.1313" x2="329.9839" y1="330.9727" y2="330.9727"/><text fill="#333333" font-family="sans-serif" font-size="13" lengthAdjust="spacing" textLength="180.1973" x="86.1313" y="326.2305">Notification Block, MiningOn</text><line style="stroke:#666666;stroke-width:1.0;" x1="1026.6572" x2="1068.6572" y1="360.2832" y2="360.2832"/><line style="stroke:#666666;stroke-width:1.0;" x1="1068.6572" x2="1068.6572" y1="360.2832" y2="373.2832"/><line style="stroke:#666666;stroke-width:1.0;" x1="1027.6572" x2="1068.6572" y1="373.2832" y2="373.2832"/><polygon fill="#666666" points="1037.6572,369.2832,1027.6572,373.2832,1037.6572,377.2832,1033.6572,373.2832" style="stroke:#666666;stroke-width:1.0;"/><text fill="#333333" font-family="sans-serif" font-size="13" lengthAdjust="spacing" textLength="123.5444" x="1033.6572" y="355.541">init() - New Subtree</text><polygon fill="#666666" points="853.7598,398.5938,843.7598,402.5938,853.7598,406.5938,849.7598,402.5938" style="stroke:#666666;stroke-width:1.0;"/><line style="stroke:#666666;stroke-width:1.0;" x1="847.7598" x2="1025.6572" y1="402.5938" y2="402.5938"/><text fill="#333333" font-family="sans-serif" font-size="13" lengthAdjust="spacing" textLength="159.8975" x="859.7598" y="397.8516">Send Notification Subtree</text><polygon fill="#666666" points="614.9551,427.9043,604.9551,431.9043,614.9551,435.9043,610.9551,431.9043" style="stroke:#666666;stroke-width:1.0;"/><line style="stroke:#666666;stroke-width:1.0;" x1="608.9551" x2="841.7598" y1="431.9043" y2="431.9043"/><text fill="#333333" font-family="sans-serif" font-size="13" lengthAdjust="spacing" textLength="159.8975" x="620.9551" y="427.1621">Send Notification Subtree</text><polygon fill="#666666" points="356.9839,457.2148,346.9839,461.2148,356.9839,465.2148,352.9839,461.2148" style="stroke:#666666;stroke-width:1.0;"/><line style="stroke:#666666;stroke-width:1.0;" x1="350.9839" x2="592.9551" y1="461.2148" y2="461.2148"/><text fill="#333333" font-family="sans-serif" font-size="13" lengthAdjust="spacing" textLength="159.8975" x="362.9839" y="456.4727">Send Notification Subtree</text><polygon fill="#666666" points="80.1313,486.5254,70.1313,490.5254,80.1313,494.5254,76.1313,490.5254" style="stroke:#666666;stroke-width:1.0;"/><line style="stroke:#666666;stroke-width:1.0;stroke-dasharray:2.0,2.0;" x1="74.1313" x2="329.9839" y1="490.5254" y2="490.5254"/><text fill="#333333" font-family="sans-serif" font-size="13" lengthAdjust="spacing" textLength="125.29" x="86.1313" y="485.7832">Notification Subtree</text><text fill="#333333" font-family="sans-serif" font-size="10" lengthAdjust="spacing" textLength="155.4346" x="0" y="580.6816">Last Modified On: 24-Feb-2025</text><!--SRC=[fPL1Rnen48Nl_XMZhQg25DfAbQg8GwG0GZrqaqDwxCLhpn8BOoFR94LL_ti7BxlOkvH6YGz8Etxlc_5R0twjp9Oxle6AY_NAsPsHSwkjWtVBpylhvPBvJY6nvZiTbjQ4e-HBN8c4EsUVZvjVusBi0oomLWQXiawYyr3JBjSQKEC6JV29dnvLsCDl1Z2Bwfn5rVwKYxZO7vPG14teh7uhXZw34chBJNWTYh4KKSojCXNt20_edfJ00hY7jfXBRxt707EjA90eYuNc-PpoG4G7txYH6jrFC-A7ygULsugFApi-8HeXappmE4hniAkySAeYzs8MTLHPpF8cCst5MZnoPTAPJjLpWoMUfcdFSvnaw8c3RYgz7_ZQZQELTO5ERjA0O0hTgKOY_Bg2eXWpBe9wuW6pA5DN2pbc-G98EqTg8qeCaFm_75qDy5t09tSJSQERv7sPn9wiZ-_7dasQZ3XuFQmVVaxhpdqhPQmIxBBZr1-DX3iRLAq43ygQHdG5fJBAhEuD6vY6QV-NSJRyB1o2TdTYUXcMn9ozopCNhJjqhpm5WeNH62PmXy-7bn0SuaL27lJmo1dZDRaF0I_Fk_M-BUYEaaOyl8l_ohzVR_KQwq3_73PG- -_S1oYjfAOeuTvCuJtzeE6ea79IbkLaJuk-h7y1]--></g></svg>
