<svg xmlns="http://www.w3.org/2000/svg" xmlns:xlink="http://www.w3.org/1999/xlink" contentStyleType="text/css" height="1442px" preserveAspectRatio="none" style="width:1168px;height:1442px;background:#F0F8FF;" version="1.1" viewBox="0 0 1168 1442" width="1168px" zoomAndPan="magnify"><defs/><g><rect fill="#F0F8FF" height="1442" style="stroke:none;stroke-width:1.0;" width="1168" x="0" y="0"/><rect fill="#FFFFFF" height="1280.7969" style="stroke:#181818;stroke-width:1.0;" width="10" x="331.019" y="84.2871"/><rect fill="#FFFFFF" height="87.9316" style="stroke:#181818;stroke-width:1.0;" width="10" x="641.7788" y="180.2188"/><rect fill="#FFFFFF" height="87.9316" style="stroke:#181818;stroke-width:1.0;" width="10" x="641.7788" y="366.0371"/><rect fill="#FFFFFF" height="87.9316" style="stroke:#181818;stroke-width:1.0;" width="10" x="641.7788" y="551.8555"/><rect fill="#FFFFFF" height="87.9316" style="stroke:#181818;stroke-width:1.0;" width="10" x="641.7788" y="737.6738"/><rect fill="#FFFFFF" height="87.9316" style="stroke:#181818;stroke-width:1.0;" width="10" x="641.7788" y="995.7578"/><rect fill="#FFFFFF" height="87.9316" style="stroke:#181818;stroke-width:1.0;" width="10" x="641.7788" y="1137.3105"/><rect fill="none" height="1216.4863" style="stroke:#000000;stroke-width:1.5;" width="1151.9531" x="10" y="141.5977"/><rect fill="none" height="669.3418" style="stroke:#000000;stroke-width:1.5;" width="1131.9531" x="20" y="283.1504"/><rect fill="none" height="476.5234" style="stroke:#000000;stroke-width:1.5;" width="1111.9531" x="30" y="468.9688"/><rect fill="none" height="283.7051" style="stroke:#000000;stroke-width:1.5;" width="986.8633" x="40" y="654.7871"/><rect fill="none" height="90.8867" style="stroke:#000000;stroke-width:1.5;" width="398.1172" x="50" y="840.6055"/><rect fill="none" height="208.1289" style="stroke:#000000;stroke-width:1.5;" width="885.8369" x="50" y="1098.6895"/><line style="stroke:#181818;stroke-width:0.5;stroke-dasharray:5.0,5.0;" x1="106" x2="106" y1="52.9766" y2="1375.084"/><line style="stroke:#181818;stroke-width:0.5;stroke-dasharray:5.0,5.0;" x1="335.9209" x2="335.9209" y1="52.9766" y2="1375.084"/><line style="stroke:#181818;stroke-width:0.5;stroke-dasharray:5.0,5.0;" x1="646.7158" x2="646.7158" y1="52.9766" y2="1375.084"/><line style="stroke:#181818;stroke-width:0.5;stroke-dasharray:5.0,5.0;" x1="861.9531" x2="861.9531" y1="52.9766" y2="1375.084"/><line style="stroke:#181818;stroke-width:0.5;stroke-dasharray:5.0,5.0;" x1="975.8369" x2="975.8369" y1="52.9766" y2="1375.084"/><line style="stroke:#181818;stroke-width:0.5;stroke-dasharray:5.0,5.0;" x1="1081.4443" x2="1081.4443" y1="52.9766" y2="1375.084"/><rect fill="#DDDDDD" height="30.4883" rx="2.5" ry="2.5" style="stroke:#666666;stroke-width:0.5;" width="93.666" x="60" y="21.4883"/><text fill="#333333" font-family="sans-serif" font-size="14" lengthAdjust="spacing" textLength="79.666" x="67" y="42.0234">HTTP Client</text><rect fill="#DDDDDD" height="30.4883" rx="2.5" ry="2.5" style="stroke:#666666;stroke-width:0.5;" width="93.666" x="60" y="1374.084"/><text fill="#333333" font-family="sans-serif" font-size="14" lengthAdjust="spacing" textLength="79.666" x="67" y="1394.6191">HTTP Client</text><rect fill="#DDDDDD" height="46.9766" rx="2.5" ry="2.5" style="stroke:#666666;stroke-width:0.5;" width="204.1963" x="233.9209" y="5"/><text fill="#333333" font-family="sans-serif" font-size="14" lengthAdjust="spacing" textLength="82.0039" x="295.0171" y="25.5352">HTTP Server</text><text fill="#333333" font-family="sans-serif" font-size="14" lengthAdjust="spacing" textLength="190.1963" x="240.9209" y="42.0234">(asset/http_impl/Search.go)</text><rect fill="#DDDDDD" height="46.9766" rx="2.5" ry="2.5" style="stroke:#666666;stroke-width:0.5;" width="204.1963" x="233.9209" y="1374.084"/><text fill="#333333" font-family="sans-serif" font-size="14" lengthAdjust="spacing" textLength="82.0039" x="295.0171" y="1394.6191">HTTP Server</text><text fill="#333333" font-family="sans-serif" font-size="14" lengthAdjust="spacing" textLength="190.1963" x="240.9209" y="1411.1074">(asset/http_impl/Search.go)</text><rect fill="#DDDDDD" height="30.4883" rx="2.5" ry="2.5" style="stroke:#666666;stroke-width:0.5;" width="86.126" x="603.7158" y="21.4883"/><text fill="#333333" font-family="sans-serif" font-size="14" lengthAdjust="spacing" textLength="72.126" x="610.7158" y="42.0234">Repository</text><rect fill="#DDDDDD" height="30.4883" rx="2.5" ry="2.5" style="stroke:#666666;stroke-width:0.5;" width="86.126" x="603.7158" y="1374.084"/><text fill="#333333" font-family="sans-serif" font-size="14" lengthAdjust="spacing" textLength="72.126" x="610.7158" y="1394.6191">Repository</text><rect fill="#DDDDDD" height="30.4883" rx="2.5" ry="2.5" style="stroke:#666666;stroke-width:0.5;" width="125.8838" x="799.9531" y="21.4883"/><text fill="#333333" font-family="sans-serif" font-size="14" lengthAdjust="spacing" textLength="111.8838" x="806.9531" y="42.0234">BlockchainClient</text><rect fill="#DDDDDD" height="30.4883" rx="2.5" ry="2.5" style="stroke:#666666;stroke-width:0.5;" width="125.8838" x="799.9531" y="1374.084"/><text fill="#333333" font-family="sans-serif" font-size="14" lengthAdjust="spacing" textLength="111.8838" x="806.9531" y="1394.6191">BlockchainClient</text><rect fill="#DDDDDD" height="30.4883" rx="2.5" ry="2.5" style="stroke:#666666;stroke-width:0.5;" width="81.0264" x="935.8369" y="21.4883"/><text fill="#333333" font-family="sans-serif" font-size="14" lengthAdjust="spacing" textLength="67.0264" x="942.8369" y="42.0234">UtxoStore</text><rect fill="#DDDDDD" height="30.4883" rx="2.5" ry="2.5" style="stroke:#666666;stroke-width:0.5;" width="81.0264" x="935.8369" y="1374.084"/><text fill="#333333" font-family="sans-serif" font-size="14" lengthAdjust="spacing" textLength="67.0264" x="942.8369" y="1394.6191">UtxoStore</text><rect fill="#DDDDDD" height="30.4883" rx="2.5" ry="2.5" style="stroke:#666666;stroke-width:0.5;" width="100.5088" x="1031.4443" y="21.4883"/><text fill="#333333" font-family="sans-serif" font-size="14" lengthAdjust="spacing" textLength="86.5088" x="1038.4443" y="42.0234">SubtreeStore</text><rect fill="#DDDDDD" height="30.4883" rx="2.5" ry="2.5" style="stroke:#666666;stroke-width:0.5;" width="100.5088" x="1031.4443" y="1374.084"/><text fill="#333333" font-family="sans-serif" font-size="14" lengthAdjust="spacing" textLength="86.5088" x="1038.4443" y="1394.6191">SubtreeStore</text><rect fill="#FFFFFF" height="1280.7969" style="stroke:#181818;stroke-width:1.0;" width="10" x="331.019" y="84.2871"/><rect fill="#FFFFFF" height="87.9316" style="stroke:#181818;stroke-width:1.0;" width="10" x="641.7788" y="180.2188"/><rect fill="#FFFFFF" height="87.9316" style="stroke:#181818;stroke-width:1.0;" width="10" x="641.7788" y="366.0371"/><rect fill="#FFFFFF" height="87.9316" style="stroke:#181818;stroke-width:1.0;" width="10" x="641.7788" y="551.8555"/><rect fill="#FFFFFF" height="87.9316" style="stroke:#181818;stroke-width:1.0;" width="10" x="641.7788" y="737.6738"/><rect fill="#FFFFFF" height="87.9316" style="stroke:#181818;stroke-width:1.0;" width="10" x="641.7788" y="995.7578"/><rect fill="#FFFFFF" height="87.9316" style="stroke:#181818;stroke-width:1.0;" width="10" x="641.7788" y="1137.3105"/><polygon fill="#666666" points="319.019,80.2871,329.019,84.2871,319.019,88.2871,323.019,84.2871" style="stroke:#666666;stroke-width:1.0;"/><line style="stroke:#666666;stroke-width:1.0;" x1="106.833" x2="325.019" y1="84.2871" y2="84.2871"/><text fill="#333333" font-family="sans-serif" font-size="13" lengthAdjust="spacing" textLength="156.9585" x="113.833" y="79.5449">GET /search?q=&lt;query&gt;</text><line style="stroke:#666666;stroke-width:1.0;" x1="341.019" x2="383.019" y1="113.5977" y2="113.5977"/><line style="stroke:#666666;stroke-width:1.0;" x1="383.019" x2="383.019" y1="113.5977" y2="126.5977"/><line style="stroke:#666666;stroke-width:1.0;" x1="342.019" x2="383.019" y1="126.5977" y2="126.5977"/><polygon fill="#666666" points="352.019,122.5977,342.019,126.5977,352.019,130.5977,348.019,126.5977" style="stroke:#666666;stroke-width:1.0;"/><text fill="#333333" font-family="sans-serif" font-size="13" lengthAdjust="spacing" textLength="90.3779" x="348.019" y="108.8555">Validate query</text><path d="M10,141.5977 L72.1387,141.5977 L72.1387,148.9082 L62.1387,158.9082 L10,158.9082 L10,141.5977 " fill="#EEEEEE" style="stroke:#000000;stroke-width:1.5;"/><rect fill="none" height="1216.4863" style="stroke:#000000;stroke-width:1.5;" width="1151.9531" x="10" y="141.5977"/><text fill="#333333" font-family="sans-serif" font-size="13" font-weight="bold" lengthAdjust="spacing" textLength="17.1387" x="25" y="155.166">alt</text><text fill="#333333" font-family="sans-serif" font-size="11" font-weight="bold" lengthAdjust="spacing" textLength="202.3237" x="87.1387" y="154.2324">[query is 64 characters long (hash)]</text><polygon fill="#666666" points="629.7788,176.2188,639.7788,180.2188,629.7788,184.2188,633.7788,180.2188" style="stroke:#666666;stroke-width:1.0;"/><line style="stroke:#666666;stroke-width:1.0;" x1="341.019" x2="635.7788" y1="180.2188" y2="180.2188"/><text fill="#333333" font-family="sans-serif" font-size="13" lengthAdjust="spacing" textLength="165.8135" x="348.019" y="175.4766">GetBlockHeader(ctx, hash)</text><polygon fill="#666666" points="850.895,205.5293,860.895,209.5293,850.895,213.5293,854.895,209.5293" style="stroke:#666666;stroke-width:1.0;"/><line style="stroke:#666666;stroke-width:1.0;" x1="651.7788" x2="856.895" y1="209.5293" y2="209.5293"/><text fill="#333333" font-family="sans-serif" font-size="13" lengthAdjust="spacing" textLength="165.8135" x="658.7788" y="204.7871">GetBlockHeader(ctx, hash)</text><polygon fill="#666666" points="662.7788,234.8398,652.7788,238.8398,662.7788,242.8398,658.7788,238.8398" style="stroke:#666666;stroke-width:1.0;"/><line style="stroke:#666666;stroke-width:1.0;stroke-dasharray:2.0,2.0;" x1="656.7788" x2="861.895" y1="238.8398" y2="238.8398"/><text fill="#333333" font-family="sans-serif" font-size="13" lengthAdjust="spacing" textLength="130.9141" x="668.7788" y="234.0977">BlockHeader or error</text><polygon fill="#666666" points="352.019,264.1504,342.019,268.1504,352.019,272.1504,348.019,268.1504" style="stroke:#666666;stroke-width:1.0;"/><line style="stroke:#666666;stroke-width:1.0;stroke-dasharray:2.0,2.0;" x1="346.019" x2="645.7788" y1="268.1504" y2="268.1504"/><text fill="#333333" font-family="sans-serif" font-size="13" lengthAdjust="spacing" textLength="130.9141" x="358.019" y="263.4082">BlockHeader or error</text><path d="M20,283.1504 L82.1387,283.1504 L82.1387,290.4609 L72.1387,300.4609 L20,300.4609 L20,283.1504 " fill="#EEEEEE" style="stroke:#000000;stroke-width:1.5;"/><rect fill="none" height="669.3418" style="stroke:#000000;stroke-width:1.5;" width="1131.9531" x="20" y="283.1504"/><text fill="#333333" font-family="sans-serif" font-size="13" font-weight="bold" lengthAdjust="spacing" textLength="17.1387" x="35" y="296.7188">alt</text><text fill="#333333" font-family="sans-serif" font-size="11" font-weight="bold" lengthAdjust="spacing" textLength="115.6772" x="97.1387" y="295.7852">[BlockHeader found]</text><polygon fill="#666666" points="117.833,317.7715,107.833,321.7715,117.833,325.7715,113.833,321.7715" style="stroke:#666666;stroke-width:1.0;"/><line style="stroke:#666666;stroke-width:1.0;stroke-dasharray:2.0,2.0;" x1="111.833" x2="330.019" y1="321.7715" y2="321.7715"/><text fill="#333333" font-family="sans-serif" font-size="13" lengthAdjust="spacing" textLength="186.8242" x="123.833" y="317.0293">JSON Response (type: "block")</text><line style="stroke:#000000;stroke-width:1.0;stroke-dasharray:2.0,2.0;" x1="20" x2="1151.9531" y1="330.7715" y2="330.7715"/><text fill="#333333" font-family="sans-serif" font-size="11" font-weight="bold" lengthAdjust="spacing" textLength="138.0103" x="25" y="341.4063">[BlockHeader not found]</text><polygon fill="#666666" points="629.7788,362.0371,639.7788,366.0371,629.7788,370.0371,633.7788,366.0371" style="stroke:#666666;stroke-width:1.0;"/><line style="stroke:#666666;stroke-width:1.0;" x1="341.019" x2="635.7788" y1="366.0371" y2="366.0371"/><text fill="#333333" font-family="sans-serif" font-size="13" lengthAdjust="spacing" textLength="192.0229" x="348.019" y="361.2949">GetTransactionMeta(ctx, hash)</text><polygon fill="#666666" points="964.3501,391.3477,974.3501,395.3477,964.3501,399.3477,968.3501,395.3477" style="stroke:#666666;stroke-width:1.0;"/><line style="stroke:#666666;stroke-width:1.0;" x1="651.7788" x2="970.3501" y1="395.3477" y2="395.3477"/><text fill="#333333" font-family="sans-serif" font-size="13" lengthAdjust="spacing" textLength="87.6167" x="658.7788" y="390.6055">Get(ctx, hash)</text><polygon fill="#666666" points="662.7788,420.6582,652.7788,424.6582,662.7788,428.6582,658.7788,424.6582" style="stroke:#666666;stroke-width:1.0;"/><line style="stroke:#666666;stroke-width:1.0;stroke-dasharray:2.0,2.0;" x1="656.7788" x2="975.3501" y1="424.6582" y2="424.6582"/><text fill="#333333" font-family="sans-serif" font-size="13" lengthAdjust="spacing" textLength="157.1235" x="668.7788" y="419.916">TransactionMeta or error</text><polygon fill="#666666" points="352.019,449.9688,342.019,453.9688,352.019,457.9688,348.019,453.9688" style="stroke:#666666;stroke-width:1.0;"/><line style="stroke:#666666;stroke-width:1.0;stroke-dasharray:2.0,2.0;" x1="346.019" x2="645.7788" y1="453.9688" y2="453.9688"/><text fill="#333333" font-family="sans-serif" font-size="13" lengthAdjust="spacing" textLength="157.1235" x="358.019" y="449.2266">TransactionMeta or error</text><path d="M30,468.9688 L92.1387,468.9688 L92.1387,476.2793 L82.1387,486.2793 L30,486.2793 L30,468.9688 " fill="#EEEEEE" style="stroke:#000000;stroke-width:1.5;"/><rect fill="none" height="476.5234" style="stroke:#000000;stroke-width:1.5;" width="1111.9531" x="30" y="468.9688"/><text fill="#333333" font-family="sans-serif" font-size="13" font-weight="bold" lengthAdjust="spacing" textLength="17.1387" x="45" y="482.5371">alt</text><text fill="#333333" font-family="sans-serif" font-size="11" font-weight="bold" lengthAdjust="spacing" textLength="139.5625" x="107.1387" y="481.6035">[TransactionMeta found]</text><polygon fill="#666666" points="117.833,503.5898,107.833,507.5898,117.833,511.5898,113.833,507.5898" style="stroke:#666666;stroke-width:1.0;"/><line style="stroke:#666666;stroke-width:1.0;stroke-dasharray:2.0,2.0;" x1="111.833" x2="330.019" y1="507.5898" y2="507.5898"/><text fill="#333333" font-family="sans-serif" font-size="13" lengthAdjust="spacing" textLength="165.4771" x="123.833" y="502.8477">JSON Response (type: "tx")</text><line style="stroke:#000000;stroke-width:1.0;stroke-dasharray:2.0,2.0;" x1="30" x2="1141.9531" y1="516.5898" y2="516.5898"/><text fill="#333333" font-family="sans-serif" font-size="11" font-weight="bold" lengthAdjust="spacing" textLength="161.8955" x="35" y="527.2246">[TransactionMeta not found]</text><polygon fill="#666666" points="629.7788,547.8555,639.7788,551.8555,629.7788,555.8555,633.7788,551.8555" style="stroke:#666666;stroke-width:1.0;"/><line style="stroke:#666666;stroke-width:1.0;" x1="341.019" x2="635.7788" y1="551.8555" y2="551.8555"/><text fill="#333333" font-family="sans-serif" font-size="13" lengthAdjust="spacing" textLength="168.5366" x="348.019" y="547.1133">GetSubtreeBytes(ctx, hash)</text><polygon fill="#666666" points="1069.6987,577.166,1079.6987,581.166,1069.6987,585.166,1073.6987,581.166" style="stroke:#666666;stroke-width:1.0;"/><line style="stroke:#666666;stroke-width:1.0;" x1="651.7788" x2="1075.6987" y1="581.166" y2="581.166"/><text fill="#333333" font-family="sans-serif" font-size="13" lengthAdjust="spacing" textLength="405.9199" x="658.7788" y="576.4238">Get(ctx, hash.CloneBytes(), options.WithFileExtension("subtree"))</text><polygon fill="#666666" points="662.7788,606.4766,652.7788,610.4766,662.7788,614.4766,658.7788,610.4766" style="stroke:#666666;stroke-width:1.0;"/><line style="stroke:#666666;stroke-width:1.0;stroke-dasharray:2.0,2.0;" x1="656.7788" x2="1080.6987" y1="610.4766" y2="610.4766"/><text fill="#333333" font-family="sans-serif" font-size="13" lengthAdjust="spacing" textLength="133.6372" x="668.7788" y="605.7344">SubtreeBytes or error</text><polygon fill="#666666" points="352.019,635.7871,342.019,639.7871,352.019,643.7871,348.019,639.7871" style="stroke:#666666;stroke-width:1.0;"/><line style="stroke:#666666;stroke-width:1.0;stroke-dasharray:2.0,2.0;" x1="346.019" x2="645.7788" y1="639.7871" y2="639.7871"/><text fill="#333333" font-family="sans-serif" font-size="13" lengthAdjust="spacing" textLength="133.6372" x="358.019" y="635.0449">SubtreeBytes or error</text><path d="M40,654.7871 L102.1387,654.7871 L102.1387,662.0977 L92.1387,672.0977 L40,672.0977 L40,654.7871 " fill="#EEEEEE" style="stroke:#000000;stroke-width:1.5;"/><rect fill="none" height="283.7051" style="stroke:#000000;stroke-width:1.5;" width="986.8633" x="40" y="654.7871"/><text fill="#333333" font-family="sans-serif" font-size="13" font-weight="bold" lengthAdjust="spacing" textLength="17.1387" x="55" y="668.3555">alt</text><text fill="#333333" font-family="sans-serif" font-size="11" font-weight="bold" lengthAdjust="spacing" textLength="118.7119" x="117.1387" y="667.4219">[SubtreeBytes found]</text><polygon fill="#666666" points="117.833,689.4082,107.833,693.4082,117.833,697.4082,113.833,693.4082" style="stroke:#666666;stroke-width:1.0;"/><line style="stroke:#666666;stroke-width:1.0;stroke-dasharray:2.0,2.0;" x1="111.833" x2="330.019" y1="693.4082" y2="693.4082"/><text fill="#333333" font-family="sans-serif" font-size="13" lengthAdjust="spacing" textLength="200.186" x="123.833" y="688.666">JSON Response (type: "subtree")</text><line style="stroke:#000000;stroke-width:1.0;stroke-dasharray:2.0,2.0;" x1="40" x2="1026.8633" y1="702.4082" y2="702.4082"/><text fill="#333333" font-family="sans-serif" font-size="11" font-weight="bold" lengthAdjust="spacing" textLength="141.0449" x="45" y="713.043">[SubtreeBytes not found]</text><polygon fill="#666666" points="629.7788,733.6738,639.7788,737.6738,629.7788,741.6738,633.7788,737.6738" style="stroke:#666666;stroke-width:1.0;"/><line style="stroke:#666666;stroke-width:1.0;" x1="341.019" x2="635.7788" y1="737.6738" y2="737.6738"/><text fill="#333333" font-family="sans-serif" font-size="13" lengthAdjust="spacing" textLength="281.7598" x="348.019" y="732.9316">GetUtxo(ctx, &amp;utxo.Spend{UTXOHash: hash})</text><polygon fill="#666666" points="964.3501,762.9844,974.3501,766.9844,964.3501,770.9844,968.3501,766.9844" style="stroke:#666666;stroke-width:1.0;"/><line style="stroke:#666666;stroke-width:1.0;" x1="651.7788" x2="970.3501" y1="766.9844" y2="766.9844"/><text fill="#333333" font-family="sans-serif" font-size="13" lengthAdjust="spacing" textLength="134.6528" x="658.7788" y="762.2422">GetSpend(ctx, spend)</text><polygon fill="#666666" points="662.7788,792.2949,652.7788,796.2949,662.7788,800.2949,658.7788,796.2949" style="stroke:#666666;stroke-width:1.0;"/><line style="stroke:#666666;stroke-width:1.0;stroke-dasharray:2.0,2.0;" x1="656.7788" x2="975.3501" y1="796.2949" y2="796.2949"/><text fill="#333333" font-family="sans-serif" font-size="13" lengthAdjust="spacing" textLength="88.1816" x="668.7788" y="791.5527">UTXO or error</text><polygon fill="#666666" points="352.019,821.6055,342.019,825.6055,352.019,829.6055,348.019,825.6055" style="stroke:#666666;stroke-width:1.0;"/><line style="stroke:#666666;stroke-width:1.0;stroke-dasharray:2.0,2.0;" x1="346.019" x2="645.7788" y1="825.6055" y2="825.6055"/><text fill="#333333" font-family="sans-serif" font-size="13" lengthAdjust="spacing" textLength="88.1816" x="358.019" y="820.8633">UTXO or error</text><path d="M50,840.6055 L112.1387,840.6055 L112.1387,847.916 L102.1387,857.916 L50,857.916 L50,840.6055 " fill="#EEEEEE" style="stroke:#000000;stroke-width:1.5;"/><rect fill="none" height="90.8867" style="stroke:#000000;stroke-width:1.5;" width="398.1172" x="50" y="840.6055"/><text fill="#333333" font-family="sans-serif" font-size="13" font-weight="bold" lengthAdjust="spacing" textLength="17.1387" x="65" y="854.1738">alt</text><text fill="#333333" font-family="sans-serif" font-size="11" font-weight="bold" lengthAdjust="spacing" textLength="77.1826" x="127.1387" y="853.2402">[UTXO found]</text><polygon fill="#666666" points="117.833,875.2266,107.833,879.2266,117.833,883.2266,113.833,879.2266" style="stroke:#666666;stroke-width:1.0;"/><line style="stroke:#666666;stroke-width:1.0;stroke-dasharray:2.0,2.0;" x1="111.833" x2="330.019" y1="879.2266" y2="879.2266"/><text fill="#333333" font-family="sans-serif" font-size="13" lengthAdjust="spacing" textLength="181.5303" x="123.833" y="874.4844">JSON Response (type: "utxo")</text><line style="stroke:#000000;stroke-width:1.0;stroke-dasharray:2.0,2.0;" x1="50" x2="448.1172" y1="888.2266" y2="888.2266"/><text fill="#333333" font-family="sans-serif" font-size="11" font-weight="bold" lengthAdjust="spacing" textLength="99.5156" x="55" y="898.8613">[UTXO not found]</text><polygon fill="#666666" points="117.833,919.4922,107.833,923.4922,117.833,927.4922,113.833,923.4922" style="stroke:#666666;stroke-width:1.0;"/><line style="stroke:#666666;stroke-width:1.0;stroke-dasharray:2.0,2.0;" x1="111.833" x2="330.019" y1="923.4922" y2="923.4922"/><text fill="#333333" font-family="sans-serif" font-size="13" lengthAdjust="spacing" textLength="94.6118" x="123.833" y="918.75">404 Not Found</text><line style="stroke:#000000;stroke-width:1.0;stroke-dasharray:2.0,2.0;" x1="10" x2="1161.9531" y1="960.4922" y2="960.4922"/><text fill="#333333" font-family="sans-serif" font-size="11" font-weight="bold" lengthAdjust="spacing" textLength="247.9565" x="15" y="971.127">[query is a number (potential block height)]</text><polygon fill="#666666" points="629.7788,991.7578,639.7788,995.7578,629.7788,999.7578,633.7788,995.7578" style="stroke:#666666;stroke-width:1.0;"/><line style="stroke:#666666;stroke-width:1.0;" x1="341.019" x2="635.7788" y1="995.7578" y2="995.7578"/><text fill="#333333" font-family="sans-serif" font-size="13" lengthAdjust="spacing" textLength="153.8545" x="348.019" y="991.0156">GetBestBlockHeader(ctx)</text><polygon fill="#666666" points="850.895,1021.0684,860.895,1025.0684,850.895,1029.0684,854.895,1025.0684" style="stroke:#666666;stroke-width:1.0;"/><line style="stroke:#666666;stroke-width:1.0;" x1="651.7788" x2="856.895" y1="1025.0684" y2="1025.0684"/><text fill="#333333" font-family="sans-serif" font-size="13" lengthAdjust="spacing" textLength="153.8545" x="658.7788" y="1020.3262">GetBestBlockHeader(ctx)</text><polygon fill="#666666" points="662.7788,1050.3789,652.7788,1054.3789,662.7788,1058.3789,658.7788,1054.3789" style="stroke:#666666;stroke-width:1.0;"/><line style="stroke:#666666;stroke-width:1.0;stroke-dasharray:2.0,2.0;" x1="656.7788" x2="861.895" y1="1054.3789" y2="1054.3789"/><text fill="#333333" font-family="sans-serif" font-size="13" lengthAdjust="spacing" textLength="157.1235" x="668.7788" y="1049.6367">BestBlockHeader or error</text><polygon fill="#666666" points="352.019,1079.6895,342.019,1083.6895,352.019,1087.6895,348.019,1083.6895" style="stroke:#666666;stroke-width:1.0;"/><line style="stroke:#666666;stroke-width:1.0;stroke-dasharray:2.0,2.0;" x1="346.019" x2="645.7788" y1="1083.6895" y2="1083.6895"/><text fill="#333333" font-family="sans-serif" font-size="13" lengthAdjust="spacing" textLength="157.1235" x="358.019" y="1078.9473">BestBlockHeader or error</text><path d="M50,1098.6895 L112.1387,1098.6895 L112.1387,1106 L102.1387,1116 L50,1116 L50,1098.6895 " fill="#EEEEEE" style="stroke:#000000;stroke-width:1.5;"/><rect fill="none" height="208.1289" style="stroke:#000000;stroke-width:1.5;" width="885.8369" x="50" y="1098.6895"/><text fill="#333333" font-family="sans-serif" font-size="13" font-weight="bold" lengthAdjust="spacing" textLength="17.1387" x="65" y="1112.2578">alt</text><text fill="#333333" font-family="sans-serif" font-size="11" font-weight="bold" lengthAdjust="spacing" textLength="159.1509" x="127.1387" y="1111.3242">[query is valid block height]</text><polygon fill="#666666" points="629.7788,1133.3105,639.7788,1137.3105,629.7788,1141.3105,633.7788,1137.3105" style="stroke:#666666;stroke-width:1.0;"/><line style="stroke:#666666;stroke-width:1.0;" x1="341.019" x2="635.7788" y1="1137.3105" y2="1137.3105"/><text fill="#333333" font-family="sans-serif" font-size="13" lengthAdjust="spacing" textLength="187.1162" x="348.019" y="1132.5684">GetBlockByHeight(ctx, height)</text><polygon fill="#666666" points="850.895,1162.6211,860.895,1166.6211,850.895,1170.6211,854.895,1166.6211" style="stroke:#666666;stroke-width:1.0;"/><line style="stroke:#666666;stroke-width:1.0;" x1="651.7788" x2="856.895" y1="1166.6211" y2="1166.6211"/><text fill="#333333" font-family="sans-serif" font-size="13" lengthAdjust="spacing" textLength="187.1162" x="658.7788" y="1161.8789">GetBlockByHeight(ctx, height)</text><polygon fill="#666666" points="662.7788,1191.9316,652.7788,1195.9316,662.7788,1199.9316,658.7788,1195.9316" style="stroke:#666666;stroke-width:1.0;"/><line style="stroke:#666666;stroke-width:1.0;stroke-dasharray:2.0,2.0;" x1="656.7788" x2="861.895" y1="1195.9316" y2="1195.9316"/><text fill="#333333" font-family="sans-serif" font-size="13" lengthAdjust="spacing" textLength="86.1948" x="668.7788" y="1191.1895">Block or error</text><polygon fill="#666666" points="352.019,1221.2422,342.019,1225.2422,352.019,1229.2422,348.019,1225.2422" style="stroke:#666666;stroke-width:1.0;"/><line style="stroke:#666666;stroke-width:1.0;stroke-dasharray:2.0,2.0;" x1="346.019" x2="645.7788" y1="1225.2422" y2="1225.2422"/><text fill="#333333" font-family="sans-serif" font-size="13" lengthAdjust="spacing" textLength="86.1948" x="358.019" y="1220.5">Block or error</text><polygon fill="#666666" points="117.833,1250.5527,107.833,1254.5527,117.833,1258.5527,113.833,1254.5527" style="stroke:#666666;stroke-width:1.0;"/><line style="stroke:#666666;stroke-width:1.0;stroke-dasharray:2.0,2.0;" x1="111.833" x2="330.019" y1="1254.5527" y2="1254.5527"/><text fill="#333333" font-family="sans-serif" font-size="13" lengthAdjust="spacing" textLength="186.8242" x="123.833" y="1249.8105">JSON Response (type: "block")</text><line style="stroke:#000000;stroke-width:1.0;stroke-dasharray:2.0,2.0;" x1="50" x2="935.8369" y1="1263.5527" y2="1263.5527"/><text fill="#333333" font-family="sans-serif" font-size="11" font-weight="bold" lengthAdjust="spacing" textLength="120.5327" x="55" y="1274.1875">[invalid block height]</text><polygon fill="#666666" points="117.833,1294.8184,107.833,1298.8184,117.833,1302.8184,113.833,1298.8184" style="stroke:#666666;stroke-width:1.0;"/><line style="stroke:#666666;stroke-width:1.0;stroke-dasharray:2.0,2.0;" x1="111.833" x2="330.019" y1="1298.8184" y2="1298.8184"/><text fill="#333333" font-family="sans-serif" font-size="13" lengthAdjust="spacing" textLength="106.1709" x="123.833" y="1294.0762">400 Bad Request</text><line style="stroke:#000000;stroke-width:1.0;stroke-dasharray:2.0,2.0;" x1="10" x2="1161.9531" y1="1314.8184" y2="1314.8184"/><text fill="#333333" font-family="sans-serif" font-size="11" font-weight="bold" lengthAdjust="spacing" textLength="82.3872" x="15" y="1325.4531">[invalid query]</text><polygon fill="#666666" points="117.833,1346.084,107.833,1350.084,117.833,1354.084,113.833,1350.084" style="stroke:#666666;stroke-width:1.0;"/><line style="stroke:#666666;stroke-width:1.0;stroke-dasharray:2.0,2.0;" x1="111.833" x2="330.019" y1="1350.084" y2="1350.084"/><text fill="#333333" font-family="sans-serif" font-size="13" lengthAdjust="spacing" textLength="106.1709" x="123.833" y="1345.3418">400 Bad Request</text><text fill="#333333" font-family="sans-serif" font-size="10" lengthAdjust="spacing" textLength="155.4346" x="0" y="1432.7285">Last Modified On: 24-Feb-2025</text><!--SRC=[fLPHRzem47xFhpXbsWPIePLMLHFQEWbQXgRHJeDkUvWq6NA0rM2djkb0LV_xR2U07P80Qnx0iU- -k_i-EsTvJrb219d3Y8plfu8lMDJXCHVmgdlMVT_j1d9Z4U64B6BLvKnb9k_iuvWG8VZVRF72Fa7m5gvmGXd2Y8i8XOI9NYLn31ZZ79cIZhz-fMe5Jm50srhxM7esd-MLVOBdm44Pwmm5ZryAetyL7TE4CFL_K47WGeIzuV0RT6AgYmo1o6nOO3D0yOZYDwiHAL6TpfHA_j1v4fyEa8Znh3dbTGjWZ5DR7-Gx9bnInSNAcfbNtw0Ty_7zU4OeSz9fTtoZExNa0ms2TlLk-ElMNnyiHaeWRasoYI18GQ5nwMG8BVXyFOHJQKluzF3nmyC2nUeo86D57ub2jnh7BG_oWyGqCkRMFI2nIaT09LoSWovAQ4IppMBEfb2R4JchQva0V513Yia9bIMZXqHhMnkhvGbiNJQvMGhDZ7NJxktENcTjqjW6SWn1xnBK1qKuYFaoIyqZt4tAaE0wJCnkj2lvkdMOJ9mMV1dStcWCcN0c4MfgbM0Bmf712TCACDOBBZ3ZgWBS9NKe29CcKyxwg4YUcs9oNOBDVakXYdpjgiDkBfnFMJdBUzsAs5upddVsYJcUURKCjmLQwlCHTkclaY0xZksLGbd4ORa6hWuPIbwAPaSVhmoxVW8yCKdAva-gPbqQu_LI8PDwgXRA522i-v7Nk8w8RiAxKfIhkD-lJCQrb1x2BiF7QxafsiEnedgnYXMjKjLybLCPtYpqi3b8a4LFvZpqj2mjAyvpVGUklFxYGsTXqpZI37SHyqVGlXUoNwvSjK-LQclbB48nWyUhPWWDTokrijb0vN9L1Ji_EuSRxTajzCJSdFk-7fj_cyMcrUcFmM8-qf5g2LVcraHYi9zkc26TpjIUbeSotxaERdXbhhbsvviTrFAgNChQteQGHtCly2ZOswDiiFQgPwspJvj3tluUvLq2ge4ABWE7DgaIuxBJyS9sJzc1JFex_4pVWoCDh_MGoj-pQyJqmdOCZ85modGkY46C4tCKzTuNy9L81NqUqGd526vP2rwR6s8jZA96lzzlhFIZI_m7]--></g></svg>
