<svg contentStyleType="text/css" height="1442" preserveAspectRatio="none" viewBox="0 0 1168 1442" width="1168" xmlns="http://www.w3.org/2000/svg" zoomAndPan="magnify"><path d="m0 0h1168v1442h-1168z" fill="#f0f8ff"/><g fill="#fff"><path d="m331.019 84.2871h10v1280.7969h-10z" stroke="#181818"/><path d="m641.7788 180.2188h10v87.9316h-10z" stroke="#181818"/><path d="m641.7788 366.0371h10v87.9316h-10z" stroke="#181818"/><path d="m641.7788 551.8555h10v87.9316h-10z" stroke="#181818"/><path d="m641.7788 737.6738h10v87.9316h-10z" stroke="#181818"/><path d="m641.7788 995.7578h10v87.9316h-10z" stroke="#181818"/><path d="m641.7788 1137.3105h10v87.9316h-10z" stroke="#181818"/></g><path d="m10 141.5977h1151.9531v1216.4863h-1151.9531z" fill="none" stroke="#000" stroke-width="1.5"/><path d="m20 283.1504h1131.9531v669.3418h-1131.9531z" fill="none" stroke="#000" stroke-width="1.5"/><path d="m30 468.9688h1111.9531v476.5234h-1111.9531z" fill="none" stroke="#000" stroke-width="1.5"/><path d="m40 654.7871h986.8633v283.7051h-986.8633z" fill="none" stroke="#000" stroke-width="1.5"/><path d="m50 840.6055h398.1172v90.8867h-398.1172z" fill="none" stroke="#000" stroke-width="1.5"/><path d="m50 1098.6895h885.8369v208.1289h-885.8369z" fill="none" stroke="#000" stroke-width="1.5"/><path d="m106 52.9766v1322.1074" stroke="#181818" stroke-dasharray="5 5" stroke-width=".5"/><path d="m335.9209 52.9766v1322.1074" stroke="#181818" stroke-dasharray="5 5" stroke-width=".5"/><path d="m646.7158 52.9766v1322.1074" stroke="#181818" stroke-dasharray="5 5" stroke-width=".5"/><path d="m861.9531 52.9766v1322.1074" stroke="#181818" stroke-dasharray="5 5" stroke-width=".5"/><path d="m975.8369 52.9766v1322.1074" stroke="#181818" stroke-dasharray="5 5" stroke-width=".5"/><path d="m1081.4443 52.9766v1322.1074" stroke="#181818" stroke-dasharray="5 5" stroke-width=".5"/><rect fill="#ddd" height="30.4883" rx="2.5" stroke="#666" stroke-width=".5" width="93.666" x="60" y="21.4883"/><text fill="#333" font-family="sans-serif" font-size="14" lengthAdjust="spacing" textLength="79.666" x="67" y="42.0234">HTTP Client</text><rect fill="#ddd" height="30.4883" rx="2.5" stroke="#666" stroke-width=".5" width="93.666" x="60" y="1374.084"/><text fill="#333" font-family="sans-serif" font-size="14" lengthAdjust="spacing" textLength="79.666" x="67" y="1394.6191">HTTP Client</text><rect fill="#ddd" height="46.9766" rx="2.5" stroke="#666" stroke-width=".5" width="204.1963" x="233.9209" y="5"/><text fill="#333" font-family="sans-serif" font-size="14" lengthAdjust="spacing" textLength="82.0039" x="295.0171" y="25.5352">HTTP Server</text><text fill="#333" font-family="sans-serif" font-size="14" lengthAdjust="spacing" textLength="190.1963" x="240.9209" y="42.0234">(asset/http_impl/Search.go)</text><rect fill="#ddd" height="46.9766" rx="2.5" stroke="#666" stroke-width=".5" width="204.1963" x="233.9209" y="1374.084"/><text fill="#333" font-family="sans-serif" font-size="14" lengthAdjust="spacing" textLength="82.0039" x="295.0171" y="1394.6191">HTTP Server</text><text fill="#333" font-family="sans-serif" font-size="14" lengthAdjust="spacing" textLength="190.1963" x="240.9209" y="1411.1074">(asset/http_impl/Search.go)</text><rect fill="#ddd" height="30.4883" rx="2.5" stroke="#666" stroke-width=".5" width="86.126" x="603.7158" y="21.4883"/><text fill="#333" font-family="sans-serif" font-size="14" lengthAdjust="spacing" textLength="72.126" x="610.7158" y="42.0234">Repository</text><rect fill="#ddd" height="30.4883" rx="2.5" stroke="#666" stroke-width=".5" width="86.126" x="603.7158" y="1374.084"/><text fill="#333" font-family="sans-serif" font-size="14" lengthAdjust="spacing" textLength="72.126" x="610.7158" y="1394.6191">Repository</text><rect fill="#ddd" height="30.4883" rx="2.5" stroke="#666" stroke-width=".5" width="125.8838" x="799.9531" y="21.4883"/><text fill="#333" font-family="sans-serif" font-size="14" lengthAdjust="spacing" textLength="111.8838" x="806.9531" y="42.0234">BlockchainClient</text><rect fill="#ddd" height="30.4883" rx="2.5" stroke="#666" stroke-width=".5" width="125.8838" x="799.9531" y="1374.084"/><text fill="#333" font-family="sans-serif" font-size="14" lengthAdjust="spacing" textLength="111.8838" x="806.9531" y="1394.6191">BlockchainClient</text><rect fill="#ddd" height="30.4883" rx="2.5" stroke="#666" stroke-width=".5" width="81.0264" x="935.8369" y="21.4883"/><text fill="#333" font-family="sans-serif" font-size="14" lengthAdjust="spacing" textLength="67.0264" x="942.8369" y="42.0234">UtxoStore</text><rect fill="#ddd" height="30.4883" rx="2.5" stroke="#666" stroke-width=".5" width="81.0264" x="935.8369" y="1374.084"/><text fill="#333" font-family="sans-serif" font-size="14" lengthAdjust="spacing" textLength="67.0264" x="942.8369" y="1394.6191">UtxoStore</text><rect fill="#ddd" height="30.4883" rx="2.5" stroke="#666" stroke-width=".5" width="100.5088" x="1031.4443" y="21.4883"/><text fill="#333" font-family="sans-serif" font-size="14" lengthAdjust="spacing" textLength="86.5088" x="1038.4443" y="42.0234">SubtreeStore</text><rect fill="#ddd" height="30.4883" rx="2.5" stroke="#666" stroke-width=".5" width="100.5088" x="1031.4443" y="1374.084"/><text fill="#333" font-family="sans-serif" font-size="14" lengthAdjust="spacing" textLength="86.5088" x="1038.4443" y="1394.6191">SubtreeStore</text><path d="m331.019 84.2871h10v1280.7969h-10z" fill="#fff" stroke="#181818"/><path d="m641.7788 180.2188h10v87.9316h-10z" fill="#fff" stroke="#181818"/><path d="m641.7788 366.0371h10v87.9316h-10z" fill="#fff" stroke="#181818"/><path d="m641.7788 551.8555h10v87.9316h-10z" fill="#fff" stroke="#181818"/><path d="m641.7788 737.6738h10v87.9316h-10z" fill="#fff" stroke="#181818"/><path d="m641.7788 995.7578h10v87.9316h-10z" fill="#fff" stroke="#181818"/><path d="m641.7788 1137.3105h10v87.9316h-10z" fill="#fff" stroke="#181818"/><path d="m319.019 80.2871 10 4-10 4 4-4z" fill="#666" stroke="#666"/><path d="m106.833 84.2871h218.186" stroke="#666"/><text fill="#333" font-family="sans-serif" font-size="13" lengthAdjust="spacing" textLength="156.9585" x="113.833" y="79.5449">GET /search?q=&lt;query&gt;</text><path d="m341.019 113.5977h42" stroke="#666"/><path d="m383.019 113.5977v13" stroke="#666"/><path d="m342.019 126.5977h41" stroke="#666"/><path d="m352.019 122.5977-10 4 10 4-4-4z" fill="#666" stroke="#666"/><text fill="#333" font-family="sans-serif" font-size="13" lengthAdjust="spacing" textLength="90.3779" x="348.019" y="108.8555">Validate query</text><path d="m10 141.5977h62.1387v7.3105l-10 10h-52.1387z" fill="#eee" stroke="#000" stroke-width="1.5"/><path d="m10 141.5977h1151.9531v1216.4863h-1151.9531z" fill="none" stroke="#000" stroke-width="1.5"/><text fill="#333" font-family="sans-serif" font-size="13" font-weight="bold" lengthAdjust="spacing" textLength="17.1387" x="25" y="155.166">alt</text><text fill="#333" font-family="sans-serif" font-size="11" font-weight="bold" lengthAdjust="spacing" textLength="202.3237" x="87.1387" y="154.2324">[query is 64 characters long (hash)]</text><path d="m629.7788 176.2188 10 4-10 4 4-4z" fill="#666" stroke="#666"/><path d="m341.019 180.2188h294.7598" stroke="#666"/><text fill="#333" font-family="sans-serif" font-size="13" lengthAdjust="spacing" textLength="165.8135" x="348.019" y="175.4766">GetBlockHeader(ctx, hash)</text><path d="m850.895 205.5293 10 4-10 4 4-4z" fill="#666" stroke="#666"/><path d="m651.7788 209.5293h205.1162" stroke="#666"/><text fill="#333" font-family="sans-serif" font-size="13" lengthAdjust="spacing" textLength="165.8135" x="658.7788" y="204.7871">GetBlockHeader(ctx, hash)</text><path d="m662.7788 234.8398-10 4 10 4-4-4z" fill="#666" stroke="#666"/><path d="m656.7788 238.8398h205.1162" stroke="#666" stroke-dasharray="2 2"/><text fill="#333" font-family="sans-serif" font-size="13" lengthAdjust="spacing" textLength="130.9141" x="668.7788" y="234.0977">BlockHeader or error</text><path d="m352.019 264.1504-10 4 10 4-4-4z" fill="#666" stroke="#666"/><path d="m346.019 268.1504h299.7598" stroke="#666" stroke-dasharray="2 2"/><text fill="#333" font-family="sans-serif" font-size="13" lengthAdjust="spacing" textLength="130.9141" x="358.019" y="263.4082">BlockHeader or error</text><path d="m20 283.1504h62.1387v7.3105l-10 10h-52.1387z" fill="#eee" stroke="#000" stroke-width="1.5"/><path d="m20 283.1504h1131.9531v669.3418h-1131.9531z" fill="none" stroke="#000" stroke-width="1.5"/><text fill="#333" font-family="sans-serif" font-size="13" font-weight="bold" lengthAdjust="spacing" textLength="17.1387" x="35" y="296.7188">alt</text><text fill="#333" font-family="sans-serif" font-size="11" font-weight="bold" lengthAdjust="spacing" textLength="115.6772" x="97.1387" y="295.7852">[BlockHeader found]</text><path d="m117.833 317.7715-10 4 10 4-4-4z" fill="#666" stroke="#666"/><path d="m111.833 321.7715h218.186" stroke="#666" stroke-dasharray="2 2"/><text fill="#333" font-family="sans-serif" font-size="13" lengthAdjust="spacing" textLength="186.8242" x="123.833" y="317.0293">JSON Response (type: "block")</text><path d="m20 330.7715h1131.9531" stroke="#000" stroke-dasharray="2 2"/><text fill="#333" font-family="sans-serif" font-size="11" font-weight="bold" lengthAdjust="spacing" textLength="138.0103" x="25" y="341.4063">[BlockHeader not found]</text><path d="m629.7788 362.0371 10 4-10 4 4-4z" fill="#666" stroke="#666"/><path d="m341.019 366.0371h294.7598" stroke="#666"/><text fill="#333" font-family="sans-serif" font-size="13" lengthAdjust="spacing" textLength="192.0229" x="348.019" y="361.2949">GetTransactionMeta(ctx, hash)</text><path d="m964.3501 391.3477 10 4-10 4 4-4z" fill="#666" stroke="#666"/><path d="m651.7788 395.3477h318.5713" stroke="#666"/><text fill="#333" font-family="sans-serif" font-size="13" lengthAdjust="spacing" textLength="87.6167" x="658.7788" y="390.6055">Get(ctx, hash)</text><path d="m662.7788 420.6582-10 4 10 4-4-4z" fill="#666" stroke="#666"/><path d="m656.7788 424.6582h318.5713" stroke="#666" stroke-dasharray="2 2"/><text fill="#333" font-family="sans-serif" font-size="13" lengthAdjust="spacing" textLength="157.1235" x="668.7788" y="419.916">TransactionMeta or error</text><path d="m352.019 449.9688-10 4 10 4-4-4z" fill="#666" stroke="#666"/><path d="m346.019 453.9688h299.7598" stroke="#666" stroke-dasharray="2 2"/><text fill="#333" font-family="sans-serif" font-size="13" lengthAdjust="spacing" textLength="157.1235" x="358.019" y="449.2266">TransactionMeta or error</text><path d="m30 468.9688h62.1387v7.3105l-10 10h-52.1387z" fill="#eee" stroke="#000" stroke-width="1.5"/><path d="m30 468.9688h1111.9531v476.5234h-1111.9531z" fill="none" stroke="#000" stroke-width="1.5"/><text fill="#333" font-family="sans-serif" font-size="13" font-weight="bold" lengthAdjust="spacing" textLength="17.1387" x="45" y="482.5371">alt</text><text fill="#333" font-family="sans-serif" font-size="11" font-weight="bold" lengthAdjust="spacing" textLength="139.5625" x="107.1387" y="481.6035">[TransactionMeta found]</text><path d="m117.833 503.5898-10 4 10 4-4-4z" fill="#666" stroke="#666"/><path d="m111.833 507.5898h218.186" stroke="#666" stroke-dasharray="2 2"/><text fill="#333" font-family="sans-serif" font-size="13" lengthAdjust="spacing" textLength="165.4771" x="123.833" y="502.8477">JSON Response (type: "tx")</text><path d="m30 516.5898h1111.9531" stroke="#000" stroke-dasharray="2 2"/><text fill="#333" font-family="sans-serif" font-size="11" font-weight="bold" lengthAdjust="spacing" textLength="161.8955" x="35" y="527.2246">[TransactionMeta not found]</text><path d="m629.7788 547.8555 10 4-10 4 4-4z" fill="#666" stroke="#666"/><path d="m341.019 551.8555h294.7598" stroke="#666"/><text fill="#333" font-family="sans-serif" font-size="13" lengthAdjust="spacing" textLength="168.5366" x="348.019" y="547.1133">GetSubtreeBytes(ctx, hash)</text><path d="m1069.6987 577.166 10 4-10 4 4-4z" fill="#666" stroke="#666"/><path d="m651.7788 581.166h423.9199" stroke="#666"/><text fill="#333" font-family="sans-serif" font-size="13" lengthAdjust="spacing" textLength="405.9199" x="658.7788" y="576.4238">Get(ctx, hash.CloneBytes(), options.WithFileExtension("subtree"))</text><path d="m662.7788 606.4766-10 4 10 4-4-4z" fill="#666" stroke="#666"/><path d="m656.7788 610.4766h423.9199" stroke="#666" stroke-dasharray="2 2"/><text fill="#333" font-family="sans-serif" font-size="13" lengthAdjust="spacing" textLength="133.6372" x="668.7788" y="605.7344">SubtreeBytes or error</text><path d="m352.019 635.7871-10 4 10 4-4-4z" fill="#666" stroke="#666"/><path d="m346.019 639.7871h299.7598" stroke="#666" stroke-dasharray="2 2"/><text fill="#333" font-family="sans-serif" font-size="13" lengthAdjust="spacing" textLength="133.6372" x="358.019" y="635.0449">SubtreeBytes or error</text><path d="m40 654.7871h62.1387v7.3106l-10 10h-52.1387z" fill="#eee" stroke="#000" stroke-width="1.5"/><path d="m40 654.7871h986.8633v283.7051h-986.8633z" fill="none" stroke="#000" stroke-width="1.5"/><text fill="#333" font-family="sans-serif" font-size="13" font-weight="bold" lengthAdjust="spacing" textLength="17.1387" x="55" y="668.3555">alt</text><text fill="#333" font-family="sans-serif" font-size="11" font-weight="bold" lengthAdjust="spacing" textLength="118.7119" x="117.1387" y="667.4219">[SubtreeBytes found]</text><path d="m117.833 689.4082-10 4 10 4-4-4z" fill="#666" stroke="#666"/><path d="m111.833 693.4082h218.186" stroke="#666" stroke-dasharray="2 2"/><text fill="#333" font-family="sans-serif" font-size="13" lengthAdjust="spacing" textLength="200.186" x="123.833" y="688.666">JSON Response (type: "subtree")</text><path d="m40 702.4082h986.8633" stroke="#000" stroke-dasharray="2 2"/><text fill="#333" font-family="sans-serif" font-size="11" font-weight="bold" lengthAdjust="spacing" textLength="141.0449" x="45" y="713.043">[SubtreeBytes not found]</text><path d="m629.7788 733.6738 10 4-10 4 4-4z" fill="#666" stroke="#666"/><path d="m341.019 737.6738h294.7598" stroke="#666"/><text fill="#333" font-family="sans-serif" font-size="13" lengthAdjust="spacing" textLength="281.7598" x="348.019" y="732.9316">GetUtxo(ctx, &amp;utxo.Spend{UTXOHash: hash})</text><path d="m964.3501 762.9844 10 4-10 4 4-4z" fill="#666" stroke="#666"/><path d="m651.7788 766.9844h318.5713" stroke="#666"/><text fill="#333" font-family="sans-serif" font-size="13" lengthAdjust="spacing" textLength="134.6528" x="658.7788" y="762.2422">GetSpend(ctx, spend)</text><path d="m662.7788 792.2949-10 4 10 4-4-4z" fill="#666" stroke="#666"/><path d="m656.7788 796.2949h318.5713" stroke="#666" stroke-dasharray="2 2"/><text fill="#333" font-family="sans-serif" font-size="13" lengthAdjust="spacing" textLength="88.1816" x="668.7788" y="791.5527">UTXO or error</text><path d="m352.019 821.6055-10 4 10 4-4-4z" fill="#666" stroke="#666"/><path d="m346.019 825.6055h299.7598" stroke="#666" stroke-dasharray="2 2"/><text fill="#333" font-family="sans-serif" font-size="13" lengthAdjust="spacing" textLength="88.1816" x="358.019" y="820.8633">UTXO or error</text><path d="m50 840.6055h62.1387v7.3105l-10 10h-52.1387z" fill="#eee" stroke="#000" stroke-width="1.5"/><path d="m50 840.6055h398.1172v90.8867h-398.1172z" fill="none" stroke="#000" stroke-width="1.5"/><text fill="#333" font-family="sans-serif" font-size="13" font-weight="bold" lengthAdjust="spacing" textLength="17.1387" x="65" y="854.1738">alt</text><text fill="#333" font-family="sans-serif" font-size="11" font-weight="bold" lengthAdjust="spacing" textLength="77.1826" x="127.1387" y="853.2402">[UTXO found]</text><path d="m117.833 875.2266-10 4 10 4-4-4z" fill="#666" stroke="#666"/><path d="m111.833 879.2266h218.186" stroke="#666" stroke-dasharray="2 2"/><text fill="#333" font-family="sans-serif" font-size="13" lengthAdjust="spacing" textLength="181.5303" x="123.833" y="874.4844">JSON Response (type: "utxo")</text><path d="m50 888.2266h398.1172" stroke="#000" stroke-dasharray="2 2"/><text fill="#333" font-family="sans-serif" font-size="11" font-weight="bold" lengthAdjust="spacing" textLength="99.5156" x="55" y="898.8613">[UTXO not found]</text><path d="m117.833 919.4922-10 4 10 4-4-4z" fill="#666" stroke="#666"/><path d="m111.833 923.4922h218.186" stroke="#666" stroke-dasharray="2 2"/><text fill="#333" font-family="sans-serif" font-size="13" lengthAdjust="spacing" textLength="94.6118" x="123.833" y="918.75">404 Not Found</text><path d="m10 960.4922h1151.9531" stroke="#000" stroke-dasharray="2 2"/><text fill="#333" font-family="sans-serif" font-size="11" font-weight="bold" lengthAdjust="spacing" textLength="247.9565" x="15" y="971.127">[query is a number (potential block height)]</text><path d="m629.7788 991.7578 10 4-10 4 4-4z" fill="#666" stroke="#666"/><path d="m341.019 995.7578h294.7598" stroke="#666"/><text fill="#333" font-family="sans-serif" font-size="13" lengthAdjust="spacing" textLength="153.8545" x="348.019" y="991.0156">GetBestBlockHeader(ctx)</text><path d="m850.895 1021.0684 10 4-10 4 4-4z" fill="#666" stroke="#666"/><path d="m651.7788 1025.0684h205.1162" stroke="#666"/><text fill="#333" font-family="sans-serif" font-size="13" lengthAdjust="spacing" textLength="153.8545" x="658.7788" y="1020.3262">GetBestBlockHeader(ctx)</text><path d="m662.7788 1050.3789-10 4 10 4-4-4z" fill="#666" stroke="#666"/><path d="m656.7788 1054.3789h205.1162" stroke="#666" stroke-dasharray="2 2"/><text fill="#333" font-family="sans-serif" font-size="13" lengthAdjust="spacing" textLength="157.1235" x="668.7788" y="1049.6367">BestBlockHeader or error</text><path d="m352.019 1079.6895-10 4 10 4-4-4z" fill="#666" stroke="#666"/><path d="m346.019 1083.6895h299.7598" stroke="#666" stroke-dasharray="2 2"/><text fill="#333" font-family="sans-serif" font-size="13" lengthAdjust="spacing" textLength="157.1235" x="358.019" y="1078.9473">BestBlockHeader or error</text><path d="m50 1098.6895h62.1387v7.3105l-10 10h-52.1387z" fill="#eee" stroke="#000" stroke-width="1.5"/><path d="m50 1098.6895h885.8369v208.1289h-885.8369z" fill="none" stroke="#000" stroke-width="1.5"/><text fill="#333" font-family="sans-serif" font-size="13" font-weight="bold" lengthAdjust="spacing" textLength="17.1387" x="65" y="1112.2578">alt</text><text fill="#333" font-family="sans-serif" font-size="11" font-weight="bold" lengthAdjust="spacing" textLength="159.1509" x="127.1387" y="1111.3242">[query is valid block height]</text><path d="m629.7788 1133.3105 10 4-10 4 4-4z" fill="#666" stroke="#666"/><path d="m341.019 1137.3105h294.7598" stroke="#666"/><text fill="#333" font-family="sans-serif" font-size="13" lengthAdjust="spacing" textLength="187.1162" x="348.019" y="1132.5684">GetBlockByHeight(ctx, height)</text><path d="m850.895 1162.6211 10 4-10 4 4-4z" fill="#666" stroke="#666"/><path d="m651.7788 1166.6211h205.1162" stroke="#666"/><text fill="#333" font-family="sans-serif" font-size="13" lengthAdjust="spacing" textLength="187.1162" x="658.7788" y="1161.8789">GetBlockByHeight(ctx, height)</text><path d="m662.7788 1191.9316-10 4 10 4-4-4z" fill="#666" stroke="#666"/><path d="m656.7788 1195.9316h205.1162" stroke="#666" stroke-dasharray="2 2"/><text fill="#333" font-family="sans-serif" font-size="13" lengthAdjust="spacing" textLength="86.1948" x="668.7788" y="1191.1895">Block or error</text><path d="m352.019 1221.2422-10 4 10 4-4-4z" fill="#666" stroke="#666"/><path d="m346.019 1225.2422h299.7598" stroke="#666" stroke-dasharray="2 2"/><text fill="#333" font-family="sans-serif" font-size="13" lengthAdjust="spacing" textLength="86.1948" x="358.019" y="1220.5">Block or error</text><path d="m117.833 1250.5527-10 4 10 4-4-4z" fill="#666" stroke="#666"/><path d="m111.833 1254.5527h218.186" stroke="#666" stroke-dasharray="2 2"/><text fill="#333" font-family="sans-serif" font-size="13" lengthAdjust="spacing" textLength="186.8242" x="123.833" y="1249.8105">JSON Response (type: "block")</text><path d="m50 1263.5527h885.8369" stroke="#000" stroke-dasharray="2 2"/><text fill="#333" font-family="sans-serif" font-size="11" font-weight="bold" lengthAdjust="spacing" textLength="120.5327" x="55" y="1274.1875">[invalid block height]</text><path d="m117.833 1294.8184-10 4 10 4-4-4z" fill="#666" stroke="#666"/><path d="m111.833 1298.8184h218.186" stroke="#666" stroke-dasharray="2 2"/><text fill="#333" font-family="sans-serif" font-size="13" lengthAdjust="spacing" textLength="106.1709" x="123.833" y="1294.0762">400 Bad Request</text><path d="m10 1314.8184h1151.9531" stroke="#000" stroke-dasharray="2 2"/><text fill="#333" font-family="sans-serif" font-size="11" font-weight="bold" lengthAdjust="spacing" textLength="82.3872" x="15" y="1325.4531">[invalid query]</text><path d="m117.833 1346.084-10 4 10 4-4-4z" fill="#666" stroke="#666"/><path d="m111.833 1350.084h218.186" stroke="#666" stroke-dasharray="2 2"/><text fill="#333" font-family="sans-serif" font-size="13" lengthAdjust="spacing" textLength="106.1709" x="123.833" y="1345.3418">400 Bad Request</text><text fill="#333" font-family="sans-serif" font-size="10" lengthAdjust="spacing" textLength="155.4346" y="1432.7285">Last Modified On: 24-Feb-2025</text></svg>
