<svg contentStyleType="text/css" height="1294" preserveAspectRatio="none" viewBox="0 0 1244 1294" width="1244" xmlns="http://www.w3.org/2000/svg" zoomAndPan="magnify"><path d="m0 0h1244v1294h-1244z" fill="#f0f8ff"/><path d="m251.1992 243.041h10v960.0059h-10z" fill="#fff" stroke="#181818"/><path d="m256.1992 416.5938h10v156.5527h-10z" fill="#fff" stroke="#181818"/><path d="m256.1992 738.6992h10v156.5527h-10z" fill="#fff" stroke="#181818"/><path d="m256.1992 967.873h10v132.2422h-10z" fill="#fff" stroke="#181818"/><path d="m256.1992 1164.7363h10v29.3105h-10z" fill="#fff" stroke="#181818"/><path d="m666.7549 272.3516h10v921.6953h-10z" fill="#fff" stroke="#181818"/><path d="m10 519.5254h304.8198v46.6211h-304.8198z" fill="none" stroke="#000" stroke-width="1.5"/><path d="m10 841.6309h304.8198v46.6211h-304.8198z" fill="none" stroke="#000" stroke-width="1.5"/><path d="m10 1046.4941h304.8198v46.6211h-304.8198z" fill="none" stroke="#000" stroke-width="1.5"/><g stroke-width=".5"><path d="m85 67.4883v1144.5586" stroke="#181818" stroke-dasharray="5 5"/><path d="m255.5786 67.4883v1144.5586" stroke="#181818" stroke-dasharray="5 5"/><path d="m407.9038 67.4883v1144.5586" stroke="#181818" stroke-dasharray="5 5"/><path d="m532.3354 67.4883v1144.5586" stroke="#181818" stroke-dasharray="5 5"/><path d="m671.5981 67.4883v1144.5586" stroke="#181818" stroke-dasharray="5 5"/><path d="m915.2339 67.4883v1144.5586" stroke="#181818" stroke-dasharray="5 5"/><path d="m1098.5918 67.4883v1144.5586" stroke="#181818" stroke-dasharray="5 5"/><rect fill="#ddd" height="30.4883" rx="2.5" stroke="#666" width="131.0518" x="20" y="36"/></g><text fill="#333" font-family="sans-serif" font-size="14" lengthAdjust="spacing" textLength="117.0518" x="27" y="56.5352">WebSocket Client</text><rect fill="#ddd" height="30.4883" rx="2.5" stroke="#666" stroke-width=".5" width="131.0518" x="20" y="1211.0469"/><text fill="#333" font-family="sans-serif" font-size="14" lengthAdjust="spacing" textLength="117.0518" x="27" y="1231.582">WebSocket Client</text><rect fill="#ddd" height="46.9766" rx="2.5" stroke="#666" stroke-width=".5" width="97.2412" x="207.5786" y="19.5117"/><text fill="#333" font-family="sans-serif" font-size="14" lengthAdjust="spacing" textLength="83.2412" x="214.5786" y="40.0469">Asset Server</text><text fill="#333" font-family="sans-serif" font-size="14" lengthAdjust="spacing" textLength="82.2227" x="215.0879" y="56.5352">(WebSocket)</text><rect fill="#ddd" height="46.9766" rx="2.5" stroke="#666" stroke-width=".5" width="97.2412" x="207.5786" y="1211.0469"/><text fill="#333" font-family="sans-serif" font-size="14" lengthAdjust="spacing" textLength="83.2412" x="214.5786" y="1231.582">Asset Server</text><text fill="#333" font-family="sans-serif" font-size="14" lengthAdjust="spacing" textLength="82.2227" x="215.0879" y="1248.0703">(WebSocket)</text><text fill="#333" font-family="sans-serif" font-size="14" lengthAdjust="spacing" textLength="94.4316" x="357.9038" y="64.5352">Subscriber DB</text><path d="m390.1196 15c0-10 18-10 18-10s18 0 18 10v26c0 10-18 10-18 10s-18 0-18-10z" fill="#e2e2f0" stroke="#181818" stroke-width="1.5"/><path d="m390.1196 15c0 10 18 10 18 10s18 0 18-10" fill="none" stroke="#181818" stroke-width="1.5"/><text fill="#333" font-family="sans-serif" font-size="14" lengthAdjust="spacing" textLength="94.4316" x="357.9038" y="1224.582">Subscriber DB</text><path d="m390.1196 1237.5352c0-10 18-10 18-10s18 0 18 10v26c0 10-18 10-18 10s-18 0-18-10z" fill="#e2e2f0" stroke="#181818" stroke-width="1.5"/><path d="m390.1196 1237.5352c0 10 18 10 18 10s18 0 18-10" fill="none" stroke="#181818" stroke-width="1.5"/><rect fill="#ddd" height="30.4883" rx="2.5" stroke="#666" stroke-width=".5" width="128.2627" x="468.3354" y="36"/><text fill="#333" font-family="sans-serif" font-size="14" lengthAdjust="spacing" textLength="114.2627" x="475.3354" y="56.5352">Coinbase Service</text><rect fill="#ddd" height="30.4883" rx="2.5" stroke="#666" stroke-width=".5" width="128.2627" x="468.3354" y="1211.0469"/><text fill="#333" font-family="sans-serif" font-size="14" lengthAdjust="spacing" textLength="114.2627" x="475.3354" y="1231.582">Coinbase Service</text><rect fill="#ddd" height="30.4883" rx="2.5" stroke="#666" stroke-width=".5" width="130.3135" x="606.5981" y="36"/><text fill="#333" font-family="sans-serif" font-size="14" lengthAdjust="spacing" textLength="116.3135" x="613.5981" y="56.5352">Blockchain Client</text><rect fill="#ddd" height="30.4883" rx="2.5" stroke="#666" stroke-width=".5" width="130.3135" x="606.5981" y="1211.0469"/><text fill="#333" font-family="sans-serif" font-size="14" lengthAdjust="spacing" textLength="116.3135" x="613.5981" y="1231.582">Blockchain Client</text><rect fill="#ddd" height="30.4883" rx="2.5" stroke="#666" stroke-width=".5" width="132.6514" x="849.2339" y="36"/><text fill="#333" font-family="sans-serif" font-size="14" lengthAdjust="spacing" textLength="118.6514" x="856.2339" y="56.5352">Blockchain Server</text><rect fill="#ddd" height="30.4883" rx="2.5" stroke="#666" stroke-width=".5" width="132.6514" x="849.2339" y="1211.0469"/><text fill="#333" font-family="sans-serif" font-size="14" lengthAdjust="spacing" textLength="118.6514" x="856.2339" y="1231.582">Blockchain Server</text><rect fill="#ddd" height="30.4883" rx="2.5" stroke="#666" stroke-width=".5" width="165.7305" x="1016.5918" y="36"/><text fill="#333" font-family="sans-serif" font-size="14" lengthAdjust="spacing" textLength="151.7305" x="1023.5918" y="56.5352">Block Assembly Server</text><rect fill="#ddd" height="30.4883" rx="2.5" stroke="#666" stroke-width=".5" width="165.7305" x="1016.5918" y="1211.0469"/><text fill="#333" font-family="sans-serif" font-size="14" lengthAdjust="spacing" textLength="151.7305" x="1023.5918" y="1231.582">Block Assembly Server</text><path d="m251.1992 243.041h10v960.0059h-10z" fill="#fff" stroke="#181818"/><path d="m256.1992 416.5938h10v156.5527h-10z" fill="#fff" stroke="#181818"/><path d="m256.1992 738.6992h10v156.5527h-10z" fill="#fff" stroke="#181818"/><path d="m256.1992 967.873h10v132.2422h-10z" fill="#fff" stroke="#181818"/><path d="m256.1992 1164.7363h10v29.3105h-10z" fill="#fff" stroke="#181818"/><path d="m666.7549 272.3516h10v921.6953h-10z" fill="#fff" stroke="#181818"/><path d="m0 98.1436h1237.0015v3h-1237.0015z" fill="#eee" stroke="#eee"/><path d="m0 98.1436h1237.0015" stroke="#000"/><path d="m0 101.1436h1237.0015" stroke="#000"/><path d="m482.4973 87.4883h272.0068v23.3105h-272.0068z" fill="#eee" stroke="#000" stroke-width="2"/><text fill="#333" font-family="sans-serif" font-size="13" font-weight="bold" lengthAdjust="spacing" textLength="253.7222" x="488.4973" y="104.0566">WebSocket Connection &amp; Subscription</text><path d="m256.1992 142.1094h42" stroke="#666"/><path d="m298.1992 142.1094v13" stroke="#666"/><path d="m257.1992 155.1094h41" stroke="#666"/><path d="m267.1992 151.1094-10 4 10 4-4-4z" fill="#666" stroke="#666"/><text fill="#333" font-family="sans-serif" font-size="13" lengthAdjust="spacing" textLength="20.4331" x="263.1992" y="137.3672">Init</text><path d="m520.4668 180.4199 10 4-10 4 4-4z" fill="#666" stroke="#666"/><path d="m256.1992 184.4199h270.2676" stroke="#666"/><text fill="#333" font-family="sans-serif" font-size="13" lengthAdjust="spacing" textLength="106.9263" x="263.1992" y="179.6777">Subscribe(ctx, "")</text><path d="m659.7549 209.7305 10 4-10 4 4-4z" fill="#666" stroke="#666"/><path d="m256.1992 213.7305h409.5557" stroke="#666"/><text fill="#333" font-family="sans-serif" font-size="13" lengthAdjust="spacing" textLength="69.4941" x="263.1992" y="208.9883">Subscribe()</text><path d="m239.1992 239.041 10 4-10 4 4-4z" fill="#666" stroke="#666"/><path d="m85.5259 243.041h159.6733" stroke="#666"/><text fill="#333" font-family="sans-serif" font-size="13" lengthAdjust="spacing" textLength="140.8481" x="92.5259" y="238.2988">Connect to WebSocket</text><path d="m396.1196 268.3516 10 4-10 4 4-4z" fill="#666" stroke="#666"/><path d="m261.1992 272.3516h140.9204" stroke="#666"/><text fill="#333" font-family="sans-serif" font-size="13" lengthAdjust="spacing" textLength="105.0728" x="268.1992" y="267.6094">Track subscriber</text><path d="m0 301.0068h1237.0015v3h-1237.0015z" fill="#eee" stroke="#eee"/><path d="m0 301.0068h1237.0015" stroke="#000"/><path d="m0 304.0068h1237.0015" stroke="#000"/><path d="m504.7681 290.3516h227.4653v23.3105h-227.4653z" fill="#eee" stroke="#000" stroke-width="2"/><text fill="#333" font-family="sans-serif" font-size="13" font-weight="bold" lengthAdjust="spacing" textLength="209.1807" x="510.7681" y="306.9199">Block Addition and Notification</text><path d="m915.5596 344.9727h42" stroke="#666"/><path d="m957.5596 344.9727v13" stroke="#666"/><path d="m916.5596 357.9727h41" stroke="#666"/><path d="m926.5596 353.9727-10 4 10 4-4-4z" fill="#666" stroke="#666"/><text fill="#333" font-family="sans-serif" font-size="13" lengthAdjust="spacing" textLength="67.2661" x="922.5596" y="340.2305">AddBlock()</text><path d="m687.7549 383.2832-10 4 10 4-4-4z" fill="#666" stroke="#666"/><path d="m681.7549 387.2832h232.8047" stroke="#666"/><text fill="#333" font-family="sans-serif" font-size="13" lengthAdjust="spacing" textLength="214.8047" x="693.7549" y="382.541">Send Notification Block, MiningOn</text><path d="m277.1992 412.5938-10 4 10 4-4-4z" fill="#666" stroke="#666"/><path d="m271.1992 416.5938h394.5557" stroke="#666"/><text fill="#333" font-family="sans-serif" font-size="13" lengthAdjust="spacing" textLength="214.8047" x="283.1992" y="411.8516">Send Notification Block, MiningOn</text><path d="m520.4668 441.9043 10 4-10 4 4-4z" fill="#666" stroke="#666"/><path d="m266.1992 445.9043h260.2676" stroke="#666" stroke-dasharray="2 2"/><text fill="#333" font-family="sans-serif" font-size="13" lengthAdjust="spacing" textLength="180.1973" x="273.1992" y="441.1621">Notification Block, MiningOn</text><path d="m396.1196 471.2148 10 4-10 4 4-4z" fill="#666" stroke="#666"/><path d="m266.1992 475.2148h135.9204" stroke="#666"/><text fill="#333" font-family="sans-serif" font-size="13" lengthAdjust="spacing" textLength="117.0317" x="273.1992" y="470.4727">Get all subscribers</text><path d="m277.1992 500.5254-10 4 10 4-4-4z" fill="#666" stroke="#666"/><path d="m271.1992 504.5254h135.9204" stroke="#666" stroke-dasharray="2 2"/><text fill="#333" font-family="sans-serif" font-size="13" lengthAdjust="spacing" textLength="89.4766" x="283.1992" y="499.7832">Subscriber list</text><path d="m10 519.5254h74.4468v7.3105l-10 10h-64.4468z" fill="#eee" stroke="#000" stroke-width="1.5"/><path d="m10 519.5254h304.8198v46.6211h-304.8198z" fill="none" stroke="#000" stroke-width="1.5"/><text fill="#333" font-family="sans-serif" font-size="13" font-weight="bold" lengthAdjust="spacing" textLength="29.4468" x="25" y="533.0938">loop</text><text fill="#333" font-family="sans-serif" font-size="11" font-weight="bold" lengthAdjust="spacing" textLength="120.0815" x="99.4468" y="532.1602">[For Each Subscriber]</text><path d="m96.5259 554.1465-10 4 10 4-4-4z" fill="#666" stroke="#666"/><path d="m90.5259 558.1465h164.6733" stroke="#666"/><text fill="#333" font-family="sans-serif" font-size="13" lengthAdjust="spacing" textLength="107.8657" x="102.5259" y="553.4043">Send Notification</text><path d="m0 593.8018h1237.0015v3h-1237.0015z" fill="#eee" stroke="#eee"/><path d="m0 593.8018h1237.0015" stroke="#000"/><path d="m0 596.8018h1237.0015" stroke="#000"/><path d="m497.5032 583.1465h241.9951v23.3105h-241.9951z" fill="#eee" stroke="#000" stroke-width="2"/><text fill="#333" font-family="sans-serif" font-size="13" font-weight="bold" lengthAdjust="spacing" textLength="223.7104" x="503.5032" y="599.7148">Subtree Creation and Notification</text><path d="m1099.457 637.7676h42" stroke="#666"/><path d="m1141.457 637.7676v13" stroke="#666"/><path d="m1100.457 650.7676h41" stroke="#666"/><path d="m1110.457 646.7676-10 4 10 4-4-4z" fill="#666" stroke="#666"/><text fill="#333" font-family="sans-serif" font-size="13" lengthAdjust="spacing" textLength="123.5444" x="1106.457" y="633.0254">init() - New Subtree</text><path d="m926.5596 676.0781-10 4 10 4-4-4z" fill="#666" stroke="#666"/><path d="m920.5596 680.0781h177.8974" stroke="#666"/><text fill="#333" font-family="sans-serif" font-size="13" lengthAdjust="spacing" textLength="159.8975" x="932.5596" y="675.3359">Send Notification Subtree</text><path d="m687.7549 705.3887-10 4 10 4-4-4z" fill="#666" stroke="#666"/><path d="m681.7549 709.3887h232.8047" stroke="#666"/><text fill="#333" font-family="sans-serif" font-size="13" lengthAdjust="spacing" textLength="159.8975" x="693.7549" y="704.6465">Send Notification Subtree</text><path d="m277.1992 734.6992-10 4 10 4-4-4z" fill="#666" stroke="#666"/><path d="m271.1992 738.6992h394.5557" stroke="#666"/><text fill="#333" font-family="sans-serif" font-size="13" lengthAdjust="spacing" textLength="159.8975" x="283.1992" y="733.957">Send Notification Subtree</text><path d="m520.4668 764.0098 10 4-10 4 4-4z" fill="#666" stroke="#666"/><path d="m266.1992 768.0098h260.2676" stroke="#666" stroke-dasharray="2 2"/><text fill="#333" font-family="sans-serif" font-size="13" lengthAdjust="spacing" textLength="125.29" x="273.1992" y="763.2676">Notification Subtree</text><path d="m396.1196 793.3203 10 4-10 4 4-4z" fill="#666" stroke="#666"/><path d="m266.1992 797.3203h135.9204" stroke="#666"/><text fill="#333" font-family="sans-serif" font-size="13" lengthAdjust="spacing" textLength="117.0317" x="273.1992" y="792.5781">Get all subscribers</text><path d="m277.1992 822.6309-10 4 10 4-4-4z" fill="#666" stroke="#666"/><path d="m271.1992 826.6309h135.9204" stroke="#666" stroke-dasharray="2 2"/><text fill="#333" font-family="sans-serif" font-size="13" lengthAdjust="spacing" textLength="89.4766" x="283.1992" y="821.8887">Subscriber list</text><path d="m10 841.6309h74.4468v7.3105l-10 10h-64.4468z" fill="#eee" stroke="#000" stroke-width="1.5"/><path d="m10 841.6309h304.8198v46.6211h-304.8198z" fill="none" stroke="#000" stroke-width="1.5"/><text fill="#333" font-family="sans-serif" font-size="13" font-weight="bold" lengthAdjust="spacing" textLength="29.4468" x="25" y="855.1992">loop</text><text fill="#333" font-family="sans-serif" font-size="11" font-weight="bold" lengthAdjust="spacing" textLength="120.0815" x="99.4468" y="854.2656">[For Each Subscriber]</text><path d="m96.5259 876.252-10 4 10 4-4-4z" fill="#666" stroke="#666"/><path d="m90.5259 880.252h164.6733" stroke="#666"/><text fill="#333" font-family="sans-serif" font-size="13" lengthAdjust="spacing" textLength="107.8657" x="102.5259" y="875.5098">Send Notification</text><path d="m0 915.9072h1237.0015v3h-1237.0015z" fill="#eee" stroke="#eee"/><path d="m0 915.9072h1237.0015" stroke="#000"/><path d="m0 918.9072h1237.0015" stroke="#000"/><path d="m565.6643 905.252h105.6729v23.3105h-105.6729z" fill="#eee" stroke="#000" stroke-width="2"/><text fill="#333" font-family="sans-serif" font-size="13" font-weight="bold" lengthAdjust="spacing" textLength="87.3882" x="571.6643" y="921.8203">Periodic Ping</text><path d="m261.1992 954.873h47" stroke="#666"/><path d="m308.1992 954.873v13" stroke="#666"/><path d="m267.1992 967.873h41" stroke="#666"/><path d="m277.1992 963.873-10 4 10 4-4-4z" fill="#666" stroke="#666"/><text fill="#333" font-family="sans-serif" font-size="13" lengthAdjust="spacing" textLength="117.9204" x="273.1992" y="950.1309">Send periodic ping</text><path d="m396.1196 998.1836 10 4-10 4 4-4z" fill="#666" stroke="#666"/><path d="m266.1992 1002.1836h135.9204" stroke="#666"/><text fill="#333" font-family="sans-serif" font-size="13" lengthAdjust="spacing" textLength="117.0317" x="273.1992" y="997.4414">Get all subscribers</text><path d="m277.1992 1027.4941-10 4 10 4-4-4z" fill="#666" stroke="#666"/><path d="m271.1992 1031.4941h135.9204" stroke="#666" stroke-dasharray="2 2"/><text fill="#333" font-family="sans-serif" font-size="13" lengthAdjust="spacing" textLength="89.4766" x="283.1992" y="1026.752">Subscriber list</text><path d="m10 1046.4941h74.4468v7.3106l-10 10h-64.4468z" fill="#eee" stroke="#000" stroke-width="1.5"/><path d="m10 1046.4941h304.8198v46.6211h-304.8198z" fill="none" stroke="#000" stroke-width="1.5"/><text fill="#333" font-family="sans-serif" font-size="13" font-weight="bold" lengthAdjust="spacing" textLength="29.4468" x="25" y="1060.0625">loop</text><text fill="#333" font-family="sans-serif" font-size="11" font-weight="bold" lengthAdjust="spacing" textLength="120.0815" x="99.4468" y="1059.1289">[For Each Subscriber]</text><path d="m96.5259 1081.1152-10 4 10 4-4-4z" fill="#666" stroke="#666"/><path d="m90.5259 1085.1152h164.6733" stroke="#666"/><text fill="#333" font-family="sans-serif" font-size="13" lengthAdjust="spacing" textLength="61.7246" x="102.5259" y="1080.373">Send Ping</text><path d="m0 1120.7705h1237.0015v3h-1237.0015z" fill="#eee" stroke="#eee"/><path d="m0 1120.7705h1237.0015" stroke="#000"/><path d="m0 1123.7705h1237.0015" stroke="#000"/><path d="m540.1182 1110.1152h156.7651v23.3105h-156.7651z" fill="#eee" stroke="#000" stroke-width="2"/><text fill="#333" font-family="sans-serif" font-size="13" font-weight="bold" lengthAdjust="spacing" textLength="138.4805" x="546.1182" y="1126.6836">Client Disconnection</text><path d="m244.1992 1160.7363 10 4-10 4 4-4z" fill="#666" stroke="#666"/><path d="m85.5259 1164.7363h164.6733" stroke="#666"/><text fill="#333" font-family="sans-serif" font-size="13" lengthAdjust="spacing" textLength="141.6733" x="92.5259" y="1159.9941">Disconnect WebSocket</text><path d="m396.1196 1190.0469 10 4-10 4 4-4z" fill="#666" stroke="#666"/><path d="m261.1992 1194.0469h140.9204" stroke="#666"/><text fill="#333" font-family="sans-serif" font-size="13" lengthAdjust="spacing" textLength="88.0166" x="268.1992" y="1189.3047">Remove client</text><text fill="#333" font-family="sans-serif" font-size="10" lengthAdjust="spacing" textLength="155.4346" x="540.2834" y="1284.2031">Last Modified On: 24-Feb-2025</text></svg>
