<svg xmlns="http://www.w3.org/2000/svg" xmlns:xlink="http://www.w3.org/1999/xlink" contentStyleType="text/css" height="1294px" preserveAspectRatio="none" style="width:1244px;height:1294px;background:#F0F8FF;" version="1.1" viewBox="0 0 1244 1294" width="1244px" zoomAndPan="magnify"><defs/><g><rect fill="#F0F8FF" height="1294" style="stroke:none;stroke-width:1.0;" width="1244" x="0" y="0"/><rect fill="#FFFFFF" height="960.0059" style="stroke:#181818;stroke-width:1.0;" width="10" x="251.1992" y="243.041"/><rect fill="#FFFFFF" height="156.5527" style="stroke:#181818;stroke-width:1.0;" width="10" x="256.1992" y="416.5938"/><rect fill="#FFFFFF" height="156.5527" style="stroke:#181818;stroke-width:1.0;" width="10" x="256.1992" y="738.6992"/><rect fill="#FFFFFF" height="132.2422" style="stroke:#181818;stroke-width:1.0;" width="10" x="256.1992" y="967.873"/><rect fill="#FFFFFF" height="29.3105" style="stroke:#181818;stroke-width:1.0;" width="10" x="256.1992" y="1164.7363"/><rect fill="#FFFFFF" height="921.6953" style="stroke:#181818;stroke-width:1.0;" width="10" x="666.7549" y="272.3516"/><rect fill="none" height="46.6211" style="stroke:#000000;stroke-width:1.5;" width="304.8198" x="10" y="519.5254"/><rect fill="none" height="46.6211" style="stroke:#000000;stroke-width:1.5;" width="304.8198" x="10" y="841.6309"/><rect fill="none" height="46.6211" style="stroke:#000000;stroke-width:1.5;" width="304.8198" x="10" y="1046.4941"/><line style="stroke:#181818;stroke-width:0.5;stroke-dasharray:5.0,5.0;" x1="85" x2="85" y1="67.4883" y2="1212.0469"/><line style="stroke:#181818;stroke-width:0.5;stroke-dasharray:5.0,5.0;" x1="255.5786" x2="255.5786" y1="67.4883" y2="1212.0469"/><line style="stroke:#181818;stroke-width:0.5;stroke-dasharray:5.0,5.0;" x1="407.9038" x2="407.9038" y1="67.4883" y2="1212.0469"/><line style="stroke:#181818;stroke-width:0.5;stroke-dasharray:5.0,5.0;" x1="532.3354" x2="532.3354" y1="67.4883" y2="1212.0469"/><line style="stroke:#181818;stroke-width:0.5;stroke-dasharray:5.0,5.0;" x1="671.5981" x2="671.5981" y1="67.4883" y2="1212.0469"/><line style="stroke:#181818;stroke-width:0.5;stroke-dasharray:5.0,5.0;" x1="915.2339" x2="915.2339" y1="67.4883" y2="1212.0469"/><line style="stroke:#181818;stroke-width:0.5;stroke-dasharray:5.0,5.0;" x1="1098.5918" x2="1098.5918" y1="67.4883" y2="1212.0469"/><rect fill="#DDDDDD" height="30.4883" rx="2.5" ry="2.5" style="stroke:#666666;stroke-width:0.5;" width="131.0518" x="20" y="36"/><text fill="#333333" font-family="sans-serif" font-size="14" lengthAdjust="spacing" textLength="117.0518" x="27" y="56.5352">WebSocket Client</text><rect fill="#DDDDDD" height="30.4883" rx="2.5" ry="2.5" style="stroke:#666666;stroke-width:0.5;" width="131.0518" x="20" y="1211.0469"/><text fill="#333333" font-family="sans-serif" font-size="14" lengthAdjust="spacing" textLength="117.0518" x="27" y="1231.582">WebSocket Client</text><rect fill="#DDDDDD" height="46.9766" rx="2.5" ry="2.5" style="stroke:#666666;stroke-width:0.5;" width="97.2412" x="207.5786" y="19.5117"/><text fill="#333333" font-family="sans-serif" font-size="14" lengthAdjust="spacing" textLength="83.2412" x="214.5786" y="40.0469">Asset Server</text><text fill="#333333" font-family="sans-serif" font-size="14" lengthAdjust="spacing" textLength="82.2227" x="215.0879" y="56.5352">(WebSocket)</text><rect fill="#DDDDDD" height="46.9766" rx="2.5" ry="2.5" style="stroke:#666666;stroke-width:0.5;" width="97.2412" x="207.5786" y="1211.0469"/><text fill="#333333" font-family="sans-serif" font-size="14" lengthAdjust="spacing" textLength="83.2412" x="214.5786" y="1231.582">Asset Server</text><text fill="#333333" font-family="sans-serif" font-size="14" lengthAdjust="spacing" textLength="82.2227" x="215.0879" y="1248.0703">(WebSocket)</text><text fill="#333333" font-family="sans-serif" font-size="14" lengthAdjust="spacing" textLength="94.4316" x="357.9038" y="64.5352">Subscriber DB</text><path d="M390.1196,15 C390.1196,5 408.1196,5 408.1196,5 C408.1196,5 426.1196,5 426.1196,15 L426.1196,41 C426.1196,51 408.1196,51 408.1196,51 C408.1196,51 390.1196,51 390.1196,41 L390.1196,15 " fill="#E2E2F0" style="stroke:#181818;stroke-width:1.5;"/><path d="M390.1196,15 C390.1196,25 408.1196,25 408.1196,25 C408.1196,25 426.1196,25 426.1196,15 " fill="none" style="stroke:#181818;stroke-width:1.5;"/><text fill="#333333" font-family="sans-serif" font-size="14" lengthAdjust="spacing" textLength="94.4316" x="357.9038" y="1224.582">Subscriber DB</text><path d="M390.1196,1237.5352 C390.1196,1227.5352 408.1196,1227.5352 408.1196,1227.5352 C408.1196,1227.5352 426.1196,1227.5352 426.1196,1237.5352 L426.1196,1263.5352 C426.1196,1273.5352 408.1196,1273.5352 408.1196,1273.5352 C408.1196,1273.5352 390.1196,1273.5352 390.1196,1263.5352 L390.1196,1237.5352 " fill="#E2E2F0" style="stroke:#181818;stroke-width:1.5;"/><path d="M390.1196,1237.5352 C390.1196,1247.5352 408.1196,1247.5352 408.1196,1247.5352 C408.1196,1247.5352 426.1196,1247.5352 426.1196,1237.5352 " fill="none" style="stroke:#181818;stroke-width:1.5;"/><rect fill="#DDDDDD" height="30.4883" rx="2.5" ry="2.5" style="stroke:#666666;stroke-width:0.5;" width="128.2627" x="468.3354" y="36"/><text fill="#333333" font-family="sans-serif" font-size="14" lengthAdjust="spacing" textLength="114.2627" x="475.3354" y="56.5352">Coinbase Service</text><rect fill="#DDDDDD" height="30.4883" rx="2.5" ry="2.5" style="stroke:#666666;stroke-width:0.5;" width="128.2627" x="468.3354" y="1211.0469"/><text fill="#333333" font-family="sans-serif" font-size="14" lengthAdjust="spacing" textLength="114.2627" x="475.3354" y="1231.582">Coinbase Service</text><rect fill="#DDDDDD" height="30.4883" rx="2.5" ry="2.5" style="stroke:#666666;stroke-width:0.5;" width="130.3135" x="606.5981" y="36"/><text fill="#333333" font-family="sans-serif" font-size="14" lengthAdjust="spacing" textLength="116.3135" x="613.5981" y="56.5352">Blockchain Client</text><rect fill="#DDDDDD" height="30.4883" rx="2.5" ry="2.5" style="stroke:#666666;stroke-width:0.5;" width="130.3135" x="606.5981" y="1211.0469"/><text fill="#333333" font-family="sans-serif" font-size="14" lengthAdjust="spacing" textLength="116.3135" x="613.5981" y="1231.582">Blockchain Client</text><rect fill="#DDDDDD" height="30.4883" rx="2.5" ry="2.5" style="stroke:#666666;stroke-width:0.5;" width="132.6514" x="849.2339" y="36"/><text fill="#333333" font-family="sans-serif" font-size="14" lengthAdjust="spacing" textLength="118.6514" x="856.2339" y="56.5352">Blockchain Server</text><rect fill="#DDDDDD" height="30.4883" rx="2.5" ry="2.5" style="stroke:#666666;stroke-width:0.5;" width="132.6514" x="849.2339" y="1211.0469"/><text fill="#333333" font-family="sans-serif" font-size="14" lengthAdjust="spacing" textLength="118.6514" x="856.2339" y="1231.582">Blockchain Server</text><rect fill="#DDDDDD" height="30.4883" rx="2.5" ry="2.5" style="stroke:#666666;stroke-width:0.5;" width="165.7305" x="1016.5918" y="36"/><text fill="#333333" font-family="sans-serif" font-size="14" lengthAdjust="spacing" textLength="151.7305" x="1023.5918" y="56.5352">Block Assembly Server</text><rect fill="#DDDDDD" height="30.4883" rx="2.5" ry="2.5" style="stroke:#666666;stroke-width:0.5;" width="165.7305" x="1016.5918" y="1211.0469"/><text fill="#333333" font-family="sans-serif" font-size="14" lengthAdjust="spacing" textLength="151.7305" x="1023.5918" y="1231.582">Block Assembly Server</text><rect fill="#FFFFFF" height="960.0059" style="stroke:#181818;stroke-width:1.0;" width="10" x="251.1992" y="243.041"/><rect fill="#FFFFFF" height="156.5527" style="stroke:#181818;stroke-width:1.0;" width="10" x="256.1992" y="416.5938"/><rect fill="#FFFFFF" height="156.5527" style="stroke:#181818;stroke-width:1.0;" width="10" x="256.1992" y="738.6992"/><rect fill="#FFFFFF" height="132.2422" style="stroke:#181818;stroke-width:1.0;" width="10" x="256.1992" y="967.873"/><rect fill="#FFFFFF" height="29.3105" style="stroke:#181818;stroke-width:1.0;" width="10" x="256.1992" y="1164.7363"/><rect fill="#FFFFFF" height="921.6953" style="stroke:#181818;stroke-width:1.0;" width="10" x="666.7549" y="272.3516"/><rect fill="#EEEEEE" height="3" style="stroke:#EEEEEE;stroke-width:1.0;" width="1237.0015" x="0" y="98.1436"/><line style="stroke:#000000;stroke-width:1.0;" x1="0" x2="1237.0015" y1="98.1436" y2="98.1436"/><line style="stroke:#000000;stroke-width:1.0;" x1="0" x2="1237.0015" y1="101.1436" y2="101.1436"/><rect fill="#EEEEEE" height="23.3105" style="stroke:#000000;stroke-width:2.0;" width="272.0068" x="482.4973" y="87.4883"/><text fill="#333333" font-family="sans-serif" font-size="13" font-weight="bold" lengthAdjust="spacing" textLength="253.7222" x="488.4973" y="104.0566">WebSocket Connection &amp; Subscription</text><line style="stroke:#666666;stroke-width:1.0;" x1="256.1992" x2="298.1992" y1="142.1094" y2="142.1094"/><line style="stroke:#666666;stroke-width:1.0;" x1="298.1992" x2="298.1992" y1="142.1094" y2="155.1094"/><line style="stroke:#666666;stroke-width:1.0;" x1="257.1992" x2="298.1992" y1="155.1094" y2="155.1094"/><polygon fill="#666666" points="267.1992,151.1094,257.1992,155.1094,267.1992,159.1094,263.1992,155.1094" style="stroke:#666666;stroke-width:1.0;"/><text fill="#333333" font-family="sans-serif" font-size="13" lengthAdjust="spacing" textLength="20.4331" x="263.1992" y="137.3672">Init</text><polygon fill="#666666" points="520.4668,180.4199,530.4668,184.4199,520.4668,188.4199,524.4668,184.4199" style="stroke:#666666;stroke-width:1.0;"/><line style="stroke:#666666;stroke-width:1.0;" x1="256.1992" x2="526.4668" y1="184.4199" y2="184.4199"/><text fill="#333333" font-family="sans-serif" font-size="13" lengthAdjust="spacing" textLength="106.9263" x="263.1992" y="179.6777">Subscribe(ctx, "")</text><polygon fill="#666666" points="659.7549,209.7305,669.7549,213.7305,659.7549,217.7305,663.7549,213.7305" style="stroke:#666666;stroke-width:1.0;"/><line style="stroke:#666666;stroke-width:1.0;" x1="256.1992" x2="665.7549" y1="213.7305" y2="213.7305"/><text fill="#333333" font-family="sans-serif" font-size="13" lengthAdjust="spacing" textLength="69.4941" x="263.1992" y="208.9883">Subscribe()</text><polygon fill="#666666" points="239.1992,239.041,249.1992,243.041,239.1992,247.041,243.1992,243.041" style="stroke:#666666;stroke-width:1.0;"/><line style="stroke:#666666;stroke-width:1.0;" x1="85.5259" x2="245.1992" y1="243.041" y2="243.041"/><text fill="#333333" font-family="sans-serif" font-size="13" lengthAdjust="spacing" textLength="140.8481" x="92.5259" y="238.2988">Connect to WebSocket</text><polygon fill="#666666" points="396.1196,268.3516,406.1196,272.3516,396.1196,276.3516,400.1196,272.3516" style="stroke:#666666;stroke-width:1.0;"/><line style="stroke:#666666;stroke-width:1.0;" x1="261.1992" x2="402.1196" y1="272.3516" y2="272.3516"/><text fill="#333333" font-family="sans-serif" font-size="13" lengthAdjust="spacing" textLength="105.0728" x="268.1992" y="267.6094">Track subscriber</text><rect fill="#EEEEEE" height="3" style="stroke:#EEEEEE;stroke-width:1.0;" width="1237.0015" x="0" y="301.0068"/><line style="stroke:#000000;stroke-width:1.0;" x1="0" x2="1237.0015" y1="301.0068" y2="301.0068"/><line style="stroke:#000000;stroke-width:1.0;" x1="0" x2="1237.0015" y1="304.0068" y2="304.0068"/><rect fill="#EEEEEE" height="23.3105" style="stroke:#000000;stroke-width:2.0;" width="227.4653" x="504.7681" y="290.3516"/><text fill="#333333" font-family="sans-serif" font-size="13" font-weight="bold" lengthAdjust="spacing" textLength="209.1807" x="510.7681" y="306.9199">Block Addition and Notification</text><line style="stroke:#666666;stroke-width:1.0;" x1="915.5596" x2="957.5596" y1="344.9727" y2="344.9727"/><line style="stroke:#666666;stroke-width:1.0;" x1="957.5596" x2="957.5596" y1="344.9727" y2="357.9727"/><line style="stroke:#666666;stroke-width:1.0;" x1="916.5596" x2="957.5596" y1="357.9727" y2="357.9727"/><polygon fill="#666666" points="926.5596,353.9727,916.5596,357.9727,926.5596,361.9727,922.5596,357.9727" style="stroke:#666666;stroke-width:1.0;"/><text fill="#333333" font-family="sans-serif" font-size="13" lengthAdjust="spacing" textLength="67.2661" x="922.5596" y="340.2305">AddBlock()</text><polygon fill="#666666" points="687.7549,383.2832,677.7549,387.2832,687.7549,391.2832,683.7549,387.2832" style="stroke:#666666;stroke-width:1.0;"/><line style="stroke:#666666;stroke-width:1.0;" x1="681.7549" x2="914.5596" y1="387.2832" y2="387.2832"/><text fill="#333333" font-family="sans-serif" font-size="13" lengthAdjust="spacing" textLength="214.8047" x="693.7549" y="382.541">Send Notification Block, MiningOn</text><polygon fill="#666666" points="277.1992,412.5938,267.1992,416.5938,277.1992,420.5938,273.1992,416.5938" style="stroke:#666666;stroke-width:1.0;"/><line style="stroke:#666666;stroke-width:1.0;" x1="271.1992" x2="665.7549" y1="416.5938" y2="416.5938"/><text fill="#333333" font-family="sans-serif" font-size="13" lengthAdjust="spacing" textLength="214.8047" x="283.1992" y="411.8516">Send Notification Block, MiningOn</text><polygon fill="#666666" points="520.4668,441.9043,530.4668,445.9043,520.4668,449.9043,524.4668,445.9043" style="stroke:#666666;stroke-width:1.0;"/><line style="stroke:#666666;stroke-width:1.0;stroke-dasharray:2.0,2.0;" x1="266.1992" x2="526.4668" y1="445.9043" y2="445.9043"/><text fill="#333333" font-family="sans-serif" font-size="13" lengthAdjust="spacing" textLength="180.1973" x="273.1992" y="441.1621">Notification Block, MiningOn</text><polygon fill="#666666" points="396.1196,471.2148,406.1196,475.2148,396.1196,479.2148,400.1196,475.2148" style="stroke:#666666;stroke-width:1.0;"/><line style="stroke:#666666;stroke-width:1.0;" x1="266.1992" x2="402.1196" y1="475.2148" y2="475.2148"/><text fill="#333333" font-family="sans-serif" font-size="13" lengthAdjust="spacing" textLength="117.0317" x="273.1992" y="470.4727">Get all subscribers</text><polygon fill="#666666" points="277.1992,500.5254,267.1992,504.5254,277.1992,508.5254,273.1992,504.5254" style="stroke:#666666;stroke-width:1.0;"/><line style="stroke:#666666;stroke-width:1.0;stroke-dasharray:2.0,2.0;" x1="271.1992" x2="407.1196" y1="504.5254" y2="504.5254"/><text fill="#333333" font-family="sans-serif" font-size="13" lengthAdjust="spacing" textLength="89.4766" x="283.1992" y="499.7832">Subscriber list</text><path d="M10,519.5254 L84.4468,519.5254 L84.4468,526.8359 L74.4468,536.8359 L10,536.8359 L10,519.5254 " fill="#EEEEEE" style="stroke:#000000;stroke-width:1.5;"/><rect fill="none" height="46.6211" style="stroke:#000000;stroke-width:1.5;" width="304.8198" x="10" y="519.5254"/><text fill="#333333" font-family="sans-serif" font-size="13" font-weight="bold" lengthAdjust="spacing" textLength="29.4468" x="25" y="533.0938">loop</text><text fill="#333333" font-family="sans-serif" font-size="11" font-weight="bold" lengthAdjust="spacing" textLength="120.0815" x="99.4468" y="532.1602">[For Each Subscriber]</text><polygon fill="#666666" points="96.5259,554.1465,86.5259,558.1465,96.5259,562.1465,92.5259,558.1465" style="stroke:#666666;stroke-width:1.0;"/><line style="stroke:#666666;stroke-width:1.0;" x1="90.5259" x2="255.1992" y1="558.1465" y2="558.1465"/><text fill="#333333" font-family="sans-serif" font-size="13" lengthAdjust="spacing" textLength="107.8657" x="102.5259" y="553.4043">Send Notification</text><rect fill="#EEEEEE" height="3" style="stroke:#EEEEEE;stroke-width:1.0;" width="1237.0015" x="0" y="593.8018"/><line style="stroke:#000000;stroke-width:1.0;" x1="0" x2="1237.0015" y1="593.8018" y2="593.8018"/><line style="stroke:#000000;stroke-width:1.0;" x1="0" x2="1237.0015" y1="596.8018" y2="596.8018"/><rect fill="#EEEEEE" height="23.3105" style="stroke:#000000;stroke-width:2.0;" width="241.9951" x="497.5032" y="583.1465"/><text fill="#333333" font-family="sans-serif" font-size="13" font-weight="bold" lengthAdjust="spacing" textLength="223.7104" x="503.5032" y="599.7148">Subtree Creation and Notification</text><line style="stroke:#666666;stroke-width:1.0;" x1="1099.457" x2="1141.457" y1="637.7676" y2="637.7676"/><line style="stroke:#666666;stroke-width:1.0;" x1="1141.457" x2="1141.457" y1="637.7676" y2="650.7676"/><line style="stroke:#666666;stroke-width:1.0;" x1="1100.457" x2="1141.457" y1="650.7676" y2="650.7676"/><polygon fill="#666666" points="1110.457,646.7676,1100.457,650.7676,1110.457,654.7676,1106.457,650.7676" style="stroke:#666666;stroke-width:1.0;"/><text fill="#333333" font-family="sans-serif" font-size="13" lengthAdjust="spacing" textLength="123.5444" x="1106.457" y="633.0254">init() - New Subtree</text><polygon fill="#666666" points="926.5596,676.0781,916.5596,680.0781,926.5596,684.0781,922.5596,680.0781" style="stroke:#666666;stroke-width:1.0;"/><line style="stroke:#666666;stroke-width:1.0;" x1="920.5596" x2="1098.457" y1="680.0781" y2="680.0781"/><text fill="#333333" font-family="sans-serif" font-size="13" lengthAdjust="spacing" textLength="159.8975" x="932.5596" y="675.3359">Send Notification Subtree</text><polygon fill="#666666" points="687.7549,705.3887,677.7549,709.3887,687.7549,713.3887,683.7549,709.3887" style="stroke:#666666;stroke-width:1.0;"/><line style="stroke:#666666;stroke-width:1.0;" x1="681.7549" x2="914.5596" y1="709.3887" y2="709.3887"/><text fill="#333333" font-family="sans-serif" font-size="13" lengthAdjust="spacing" textLength="159.8975" x="693.7549" y="704.6465">Send Notification Subtree</text><polygon fill="#666666" points="277.1992,734.6992,267.1992,738.6992,277.1992,742.6992,273.1992,738.6992" style="stroke:#666666;stroke-width:1.0;"/><line style="stroke:#666666;stroke-width:1.0;" x1="271.1992" x2="665.7549" y1="738.6992" y2="738.6992"/><text fill="#333333" font-family="sans-serif" font-size="13" lengthAdjust="spacing" textLength="159.8975" x="283.1992" y="733.957">Send Notification Subtree</text><polygon fill="#666666" points="520.4668,764.0098,530.4668,768.0098,520.4668,772.0098,524.4668,768.0098" style="stroke:#666666;stroke-width:1.0;"/><line style="stroke:#666666;stroke-width:1.0;stroke-dasharray:2.0,2.0;" x1="266.1992" x2="526.4668" y1="768.0098" y2="768.0098"/><text fill="#333333" font-family="sans-serif" font-size="13" lengthAdjust="spacing" textLength="125.29" x="273.1992" y="763.2676">Notification Subtree</text><polygon fill="#666666" points="396.1196,793.3203,406.1196,797.3203,396.1196,801.3203,400.1196,797.3203" style="stroke:#666666;stroke-width:1.0;"/><line style="stroke:#666666;stroke-width:1.0;" x1="266.1992" x2="402.1196" y1="797.3203" y2="797.3203"/><text fill="#333333" font-family="sans-serif" font-size="13" lengthAdjust="spacing" textLength="117.0317" x="273.1992" y="792.5781">Get all subscribers</text><polygon fill="#666666" points="277.1992,822.6309,267.1992,826.6309,277.1992,830.6309,273.1992,826.6309" style="stroke:#666666;stroke-width:1.0;"/><line style="stroke:#666666;stroke-width:1.0;stroke-dasharray:2.0,2.0;" x1="271.1992" x2="407.1196" y1="826.6309" y2="826.6309"/><text fill="#333333" font-family="sans-serif" font-size="13" lengthAdjust="spacing" textLength="89.4766" x="283.1992" y="821.8887">Subscriber list</text><path d="M10,841.6309 L84.4468,841.6309 L84.4468,848.9414 L74.4468,858.9414 L10,858.9414 L10,841.6309 " fill="#EEEEEE" style="stroke:#000000;stroke-width:1.5;"/><rect fill="none" height="46.6211" style="stroke:#000000;stroke-width:1.5;" width="304.8198" x="10" y="841.6309"/><text fill="#333333" font-family="sans-serif" font-size="13" font-weight="bold" lengthAdjust="spacing" textLength="29.4468" x="25" y="855.1992">loop</text><text fill="#333333" font-family="sans-serif" font-size="11" font-weight="bold" lengthAdjust="spacing" textLength="120.0815" x="99.4468" y="854.2656">[For Each Subscriber]</text><polygon fill="#666666" points="96.5259,876.252,86.5259,880.252,96.5259,884.252,92.5259,880.252" style="stroke:#666666;stroke-width:1.0;"/><line style="stroke:#666666;stroke-width:1.0;" x1="90.5259" x2="255.1992" y1="880.252" y2="880.252"/><text fill="#333333" font-family="sans-serif" font-size="13" lengthAdjust="spacing" textLength="107.8657" x="102.5259" y="875.5098">Send Notification</text><rect fill="#EEEEEE" height="3" style="stroke:#EEEEEE;stroke-width:1.0;" width="1237.0015" x="0" y="915.9072"/><line style="stroke:#000000;stroke-width:1.0;" x1="0" x2="1237.0015" y1="915.9072" y2="915.9072"/><line style="stroke:#000000;stroke-width:1.0;" x1="0" x2="1237.0015" y1="918.9072" y2="918.9072"/><rect fill="#EEEEEE" height="23.3105" style="stroke:#000000;stroke-width:2.0;" width="105.6729" x="565.6643" y="905.252"/><text fill="#333333" font-family="sans-serif" font-size="13" font-weight="bold" lengthAdjust="spacing" textLength="87.3882" x="571.6643" y="921.8203">Periodic Ping</text><line style="stroke:#666666;stroke-width:1.0;" x1="261.1992" x2="308.1992" y1="954.873" y2="954.873"/><line style="stroke:#666666;stroke-width:1.0;" x1="308.1992" x2="308.1992" y1="954.873" y2="967.873"/><line style="stroke:#666666;stroke-width:1.0;" x1="267.1992" x2="308.1992" y1="967.873" y2="967.873"/><polygon fill="#666666" points="277.1992,963.873,267.1992,967.873,277.1992,971.873,273.1992,967.873" style="stroke:#666666;stroke-width:1.0;"/><text fill="#333333" font-family="sans-serif" font-size="13" lengthAdjust="spacing" textLength="117.9204" x="273.1992" y="950.1309">Send periodic ping</text><polygon fill="#666666" points="396.1196,998.1836,406.1196,1002.1836,396.1196,1006.1836,400.1196,1002.1836" style="stroke:#666666;stroke-width:1.0;"/><line style="stroke:#666666;stroke-width:1.0;" x1="266.1992" x2="402.1196" y1="1002.1836" y2="1002.1836"/><text fill="#333333" font-family="sans-serif" font-size="13" lengthAdjust="spacing" textLength="117.0317" x="273.1992" y="997.4414">Get all subscribers</text><polygon fill="#666666" points="277.1992,1027.4941,267.1992,1031.4941,277.1992,1035.4941,273.1992,1031.4941" style="stroke:#666666;stroke-width:1.0;"/><line style="stroke:#666666;stroke-width:1.0;stroke-dasharray:2.0,2.0;" x1="271.1992" x2="407.1196" y1="1031.4941" y2="1031.4941"/><text fill="#333333" font-family="sans-serif" font-size="13" lengthAdjust="spacing" textLength="89.4766" x="283.1992" y="1026.752">Subscriber list</text><path d="M10,1046.4941 L84.4468,1046.4941 L84.4468,1053.8047 L74.4468,1063.8047 L10,1063.8047 L10,1046.4941 " fill="#EEEEEE" style="stroke:#000000;stroke-width:1.5;"/><rect fill="none" height="46.6211" style="stroke:#000000;stroke-width:1.5;" width="304.8198" x="10" y="1046.4941"/><text fill="#333333" font-family="sans-serif" font-size="13" font-weight="bold" lengthAdjust="spacing" textLength="29.4468" x="25" y="1060.0625">loop</text><text fill="#333333" font-family="sans-serif" font-size="11" font-weight="bold" lengthAdjust="spacing" textLength="120.0815" x="99.4468" y="1059.1289">[For Each Subscriber]</text><polygon fill="#666666" points="96.5259,1081.1152,86.5259,1085.1152,96.5259,1089.1152,92.5259,1085.1152" style="stroke:#666666;stroke-width:1.0;"/><line style="stroke:#666666;stroke-width:1.0;" x1="90.5259" x2="255.1992" y1="1085.1152" y2="1085.1152"/><text fill="#333333" font-family="sans-serif" font-size="13" lengthAdjust="spacing" textLength="61.7246" x="102.5259" y="1080.373">Send Ping</text><rect fill="#EEEEEE" height="3" style="stroke:#EEEEEE;stroke-width:1.0;" width="1237.0015" x="0" y="1120.7705"/><line style="stroke:#000000;stroke-width:1.0;" x1="0" x2="1237.0015" y1="1120.7705" y2="1120.7705"/><line style="stroke:#000000;stroke-width:1.0;" x1="0" x2="1237.0015" y1="1123.7705" y2="1123.7705"/><rect fill="#EEEEEE" height="23.3105" style="stroke:#000000;stroke-width:2.0;" width="156.7651" x="540.1182" y="1110.1152"/><text fill="#333333" font-family="sans-serif" font-size="13" font-weight="bold" lengthAdjust="spacing" textLength="138.4805" x="546.1182" y="1126.6836">Client Disconnection</text><polygon fill="#666666" points="244.1992,1160.7363,254.1992,1164.7363,244.1992,1168.7363,248.1992,1164.7363" style="stroke:#666666;stroke-width:1.0;"/><line style="stroke:#666666;stroke-width:1.0;" x1="85.5259" x2="250.1992" y1="1164.7363" y2="1164.7363"/><text fill="#333333" font-family="sans-serif" font-size="13" lengthAdjust="spacing" textLength="141.6733" x="92.5259" y="1159.9941">Disconnect WebSocket</text><polygon fill="#666666" points="396.1196,1190.0469,406.1196,1194.0469,396.1196,1198.0469,400.1196,1194.0469" style="stroke:#666666;stroke-width:1.0;"/><line style="stroke:#666666;stroke-width:1.0;" x1="261.1992" x2="402.1196" y1="1194.0469" y2="1194.0469"/><text fill="#333333" font-family="sans-serif" font-size="13" lengthAdjust="spacing" textLength="88.0166" x="268.1992" y="1189.3047">Remove client</text><text fill="#333333" font-family="sans-serif" font-size="10" lengthAdjust="spacing" textLength="155.4346" x="540.2834" y="1284.2031">Last Modified On: 24-Feb-2025</text><!--SRC=[pLNlYnCn4FsUls9OKLkuWY2852hOrXN1tXrMy8jVijdPkz1jKfAqPn7_TsUplxAxlPvtWfWFfPsyzpBpPfBQZLGxRlWM4YusDqRlLRhGkJRmB7uLlurZPXj4YXdVvoxMobMGrtu546wClgist_Z5s4jOOYOLGg9DYiP2Hhiypm5ptA9oDk3JJ-cEy9C1p3swgqNHVfPBlzWl5gW8oj3e_6zbwDD98NTSkQT9CHPAHDymMMknGGUBN5Ab4N1RVUq2trjBe3MQ0vhlQjJmnfvHnbdA7K-uHOZM-yGA8nCqi9oNa7sod7Sr5reg3o_eKc1vU1NiGkSvdIPkkLHXectqLCe1fyolnwcI7dAWA7QRvCS1hzweg6msWy11hHGA9xM25r0PiFC_PpDMCc3ohjASmYSbNH2kwvv2uzr8k1yN44NZ0DOlEOIFgRjbD3odIWkSRdDbdF8yS8TrvuBqYZvDuQkX6GBRjB5b34mlNAXyIrFf2-OgXKljP2O5hnte6z-jfiwM97oGYZbFQCh7_baUSm4hgQIwkLAipmdDUPXzdrETbfrL67ZxaOQbU6nQTotpMrwrIQszGhcqZkLQxo2cs_o1YzjWb-uxG317z_d2AC1IxDTJT8_4d464XK5-ld_T2z1qf1kU0fNkHcEOm2NUrUfd1JepC6nAH-898p7a_yaerAp7Zq3D_FzRVur6wbGAkAPXFVrGURbTZTiHxk7duz_LMUHzfhwgpqjfHViyKvd3_hUGnxoJNt2h3mYYV0fFv124XYzdfhKZkS_SEbYHlPd45AxK59xJNocEeZITh5QhoP5MDFuD]--></g></svg>
