<svg contentStyleType="text/css" height="316" preserveAspectRatio="none" viewBox="0 0 724 316" width="724" xmlns="http://www.w3.org/2000/svg" zoomAndPan="magnify"><path d="m0 0h724v316h-724z" fill="#f0f8ff"/><g stroke="#181818"><path d="m304.8755 84.2871h10v146.5527h-10z" fill="#fff"/><path d="m500.5503 113.5977h10v87.9316h-10z" fill="#fff"/><path d="m650.6445 142.9082h10v29.3105h-10z" fill="#fff"/><path d="m51 52.9766v195.8632" stroke-dasharray="5 5" stroke-width=".5"/><path d="m309.1206 52.9766v195.8632" stroke-dasharray="5 5" stroke-width=".5"/><path d="m505.4873 52.9766v195.8632" stroke-dasharray="5 5" stroke-width=".5"/><path d="m654.7026 52.9766v195.8632" stroke-dasharray="5 5" stroke-width=".5"/></g><rect fill="#ddd" height="30.4883" rx="2.5" stroke="#666" stroke-width=".5" width="93.666" x="5" y="21.4883"/><text fill="#333" font-family="sans-serif" font-size="14" lengthAdjust="spacing" textLength="79.666" x="12" y="42.0234">HTTP Client</text><rect fill="#ddd" height="30.4883" rx="2.5" stroke="#666" stroke-width=".5" width="93.666" x="5" y="247.8398"/><text fill="#333" font-family="sans-serif" font-size="14" lengthAdjust="spacing" textLength="79.666" x="12" y="268.375">HTTP Client</text><rect fill="#ddd" height="46.9766" rx="2.5" stroke="#666" stroke-width=".5" width="187.5098" x="216.1206" y="5"/><text fill="#333" font-family="sans-serif" font-size="14" lengthAdjust="spacing" textLength="82.0039" x="268.8735" y="25.5352">HTTP Server</text><text fill="#333" font-family="sans-serif" font-size="14" lengthAdjust="spacing" textLength="173.5098" x="223.1206" y="42.0234">(asset/http_impl/http.go)</text><rect fill="#ddd" height="46.9766" rx="2.5" stroke="#666" stroke-width=".5" width="187.5098" x="216.1206" y="247.8398"/><text fill="#333" font-family="sans-serif" font-size="14" lengthAdjust="spacing" textLength="82.0039" x="268.8735" y="268.375">HTTP Server</text><text fill="#333" font-family="sans-serif" font-size="14" lengthAdjust="spacing" textLength="173.5098" x="223.1206" y="284.8633">(asset/http_impl/http.go)</text><rect fill="#ddd" height="30.4883" rx="2.5" stroke="#666" stroke-width=".5" width="86.126" x="462.4873" y="21.4883"/><text fill="#333" font-family="sans-serif" font-size="14" lengthAdjust="spacing" textLength="72.126" x="469.4873" y="42.0234">Repository</text><rect fill="#ddd" height="30.4883" rx="2.5" stroke="#666" stroke-width=".5" width="86.126" x="462.4873" y="247.8398"/><text fill="#333" font-family="sans-serif" font-size="14" lengthAdjust="spacing" textLength="72.126" x="469.4873" y="268.375">Repository</text><rect fill="#ddd" height="30.4883" rx="2.5" stroke="#666" stroke-width=".5" width="125.8838" x="592.7026" y="21.4883"/><text fill="#333" font-family="sans-serif" font-size="14" lengthAdjust="spacing" textLength="111.8838" x="599.7026" y="42.0234">BlockchainClient</text><rect fill="#ddd" height="30.4883" rx="2.5" stroke="#666" stroke-width=".5" width="125.8838" x="592.7026" y="247.8398"/><text fill="#333" font-family="sans-serif" font-size="14" lengthAdjust="spacing" textLength="111.8838" x="599.7026" y="268.375">BlockchainClient</text><path d="m304.8755 84.2871h10v146.5527h-10z" fill="#fff" stroke="#181818"/><path d="m500.5503 113.5977h10v87.9316h-10z" fill="#fff" stroke="#181818"/><path d="m650.6445 142.9082h10v29.3105h-10z" fill="#fff" stroke="#181818"/><path d="m292.8755 80.2871 10 4-10 4 4-4z" fill="#666" stroke="#666"/><path d="m51.833 84.2871h247.0425" stroke="#666"/><text fill="#333" font-family="sans-serif" font-size="13" lengthAdjust="spacing" textLength="156.8823" x="58.833" y="79.5449">GET /block_legacy/:hash</text><path d="m488.5503 109.5977 10 4-10 4 4-4z" fill="#666" stroke="#666"/><path d="m314.8755 113.5977h179.6748" stroke="#666"/><text fill="#333" font-family="sans-serif" font-size="13" lengthAdjust="spacing" textLength="164.0044" x="321.8755" y="108.8555">GetLegacyBlock(ctx, hash)</text><path d="m638.6445 138.9082 10 4-10 4 4-4z" fill="#666" stroke="#666"/><path d="m510.5503 142.9082h134.0942" stroke="#666"/><text fill="#333" font-family="sans-serif" font-size="13" lengthAdjust="spacing" textLength="121.0942" x="517.5503" y="138.166">GetBlock(ctx, hash)</text><path d="m521.5503 168.2188-10 4 10 4-4-4z" fill="#666" stroke="#666"/><path d="m515.5503 172.2188h139.0942" stroke="#666" stroke-dasharray="2 2"/><text fill="#333" font-family="sans-serif" font-size="13" lengthAdjust="spacing" textLength="76.8955" x="527.5503" y="167.4766">model.Block</text><path d="m325.8755 197.5293-10 4 10 4-4-4z" fill="#666" stroke="#666"/><path d="m319.8755 201.5293h184.6748" stroke="#666" stroke-dasharray="2 2"/><text fill="#333" font-family="sans-serif" font-size="13" lengthAdjust="spacing" textLength="161.6748" x="331.8755" y="196.7871">[]byte (Legacy Block Data)</text><path d="m62.833 226.8398-10 4 10 4-4-4z" fill="#666" stroke="#666"/><path d="m56.833 230.8398h252.0425" stroke="#666" stroke-dasharray="2 2"/><text fill="#333" font-family="sans-serif" font-size="13" lengthAdjust="spacing" textLength="229.0425" x="68.833" y="226.0977">Response (Binary Legacy Block Data)</text><text fill="#333" font-family="sans-serif" font-size="10" lengthAdjust="spacing" textLength="155.4346" y="306.4844">Last Modified On: 24-Feb-2025</text></svg>
