<svg xmlns="http://www.w3.org/2000/svg" xmlns:xlink="http://www.w3.org/1999/xlink" contentStyleType="text/css" height="333px" preserveAspectRatio="none" style="width:584px;height:333px;background:#F0F8FF;" version="1.1" viewBox="0 0 584 333" width="584px" zoomAndPan="magnify"><defs/><g><rect fill="#F0F8FF" height="333" style="stroke:none;stroke-width:1.0;" width="584" x="0" y="0"/><rect fill="#FFFFFF" height="163.5078" style="stroke:#181818;stroke-width:1.0;" width="10" x="294.9985" y="84.2871"/><rect fill="#FFFFFF" height="112.8867" style="stroke:#181818;stroke-width:1.0;" width="10" x="516.6606" y="113.5977"/><rect fill="none" height="90.8867" style="stroke:#000000;stroke-width:1.5;" width="381.1802" x="196.2437" y="128.5977"/><line style="stroke:#181818;stroke-width:0.5;stroke-dasharray:5.0,5.0;" x1="51" x2="51" y1="52.9766" y2="265.7949"/><line style="stroke:#181818;stroke-width:0.5;stroke-dasharray:5.0,5.0;" x1="299.2437" x2="299.2437" y1="52.9766" y2="265.7949"/><line style="stroke:#181818;stroke-width:0.5;stroke-dasharray:5.0,5.0;" x1="520.8975" x2="520.8975" y1="52.9766" y2="265.7949"/><rect fill="#DDDDDD" height="30.4883" rx="2.5" ry="2.5" style="stroke:#666666;stroke-width:0.5;" width="93.666" x="5" y="21.4883"/><text fill="#333333" font-family="sans-serif" font-size="14" lengthAdjust="spacing" textLength="79.666" x="12" y="42.0234">HTTP Client</text><rect fill="#DDDDDD" height="30.4883" rx="2.5" ry="2.5" style="stroke:#666666;stroke-width:0.5;" width="93.666" x="5" y="264.7949"/><text fill="#333333" font-family="sans-serif" font-size="14" lengthAdjust="spacing" textLength="79.666" x="12" y="285.3301">HTTP Client</text><rect fill="#DDDDDD" height="46.9766" rx="2.5" ry="2.5" style="stroke:#666666;stroke-width:0.5;" width="187.5098" x="206.2437" y="5"/><text fill="#333333" font-family="sans-serif" font-size="14" lengthAdjust="spacing" textLength="82.0039" x="258.9966" y="25.5352">HTTP Server</text><text fill="#333333" font-family="sans-serif" font-size="14" lengthAdjust="spacing" textLength="173.5098" x="213.2437" y="42.0234">(asset/http_impl/http.go)</text><rect fill="#DDDDDD" height="46.9766" rx="2.5" ry="2.5" style="stroke:#666666;stroke-width:0.5;" width="187.5098" x="206.2437" y="264.7949"/><text fill="#333333" font-family="sans-serif" font-size="14" lengthAdjust="spacing" textLength="82.0039" x="258.9966" y="285.3301">HTTP Server</text><text fill="#333333" font-family="sans-serif" font-size="14" lengthAdjust="spacing" textLength="173.5098" x="213.2437" y="301.8184">(asset/http_impl/http.go)</text><rect fill="#DDDDDD" height="30.4883" rx="2.5" ry="2.5" style="stroke:#666666;stroke-width:0.5;" width="91.5264" x="475.8975" y="21.4883"/><text fill="#333333" font-family="sans-serif" font-size="14" lengthAdjust="spacing" textLength="77.5264" x="482.8975" y="42.0234">UTXO Store</text><rect fill="#DDDDDD" height="30.4883" rx="2.5" ry="2.5" style="stroke:#666666;stroke-width:0.5;" width="91.5264" x="475.8975" y="264.7949"/><text fill="#333333" font-family="sans-serif" font-size="14" lengthAdjust="spacing" textLength="77.5264" x="482.8975" y="285.3301">UTXO Store</text><rect fill="#FFFFFF" height="163.5078" style="stroke:#181818;stroke-width:1.0;" width="10" x="294.9985" y="84.2871"/><rect fill="#FFFFFF" height="112.8867" style="stroke:#181818;stroke-width:1.0;" width="10" x="516.6606" y="113.5977"/><polygon fill="#666666" points="282.9985,80.2871,292.9985,84.2871,282.9985,88.2871,286.9985,84.2871" style="stroke:#666666;stroke-width:1.0;"/><line style="stroke:#666666;stroke-width:1.0;" x1="51.833" x2="288.9985" y1="84.2871" y2="84.2871"/><text fill="#333333" font-family="sans-serif" font-size="13" lengthAdjust="spacing" textLength="154.1719" x="58.833" y="79.5449">GET /txmeta/:hash/json</text><polygon fill="#666666" points="504.6606,109.5977,514.6606,113.5977,504.6606,117.5977,508.6606,113.5977" style="stroke:#666666;stroke-width:1.0;"/><line style="stroke:#666666;stroke-width:1.0;" x1="304.9985" x2="510.6606" y1="113.5977" y2="113.5977"/><text fill="#333333" font-family="sans-serif" font-size="13" lengthAdjust="spacing" textLength="87.6167" x="311.9985" y="108.8555">Get(ctx, hash)</text><path d="M196.2437,128.5977 L258.3823,128.5977 L258.3823,135.9082 L248.3823,145.9082 L196.2437,145.9082 L196.2437,128.5977 " fill="#EEEEEE" style="stroke:#000000;stroke-width:1.5;"/><rect fill="none" height="90.8867" style="stroke:#000000;stroke-width:1.5;" width="381.1802" x="196.2437" y="128.5977"/><text fill="#333333" font-family="sans-serif" font-size="13" font-weight="bold" lengthAdjust="spacing" textLength="17.1387" x="211.2437" y="142.166">alt</text><text fill="#333333" font-family="sans-serif" font-size="11" font-weight="bold" lengthAdjust="spacing" textLength="152.9526" x="273.3823" y="141.2324">[UTXO Store has metadata]</text><polygon fill="#666666" points="315.9985,163.2188,305.9985,167.2188,315.9985,171.2188,311.9985,167.2188" style="stroke:#666666;stroke-width:1.0;"/><line style="stroke:#666666;stroke-width:1.0;stroke-dasharray:2.0,2.0;" x1="309.9985" x2="515.6606" y1="167.2188" y2="167.2188"/><text fill="#333333" font-family="sans-serif" font-size="13" lengthAdjust="spacing" textLength="187.6621" x="321.9985" y="162.4766">Transaction metadata in JSON</text><line style="stroke:#000000;stroke-width:1.0;stroke-dasharray:2.0,2.0;" x1="196.2437" x2="577.4238" y1="176.2188" y2="176.2188"/><text fill="#333333" font-family="sans-serif" font-size="11" font-weight="bold" lengthAdjust="spacing" textLength="212.6416" x="201.2437" y="186.8535">[UTXO Store does not have metadata]</text><polygon fill="#666666" points="315.9985,207.4844,305.9985,211.4844,315.9985,215.4844,311.9985,211.4844" style="stroke:#666666;stroke-width:1.0;"/><line style="stroke:#666666;stroke-width:1.0;stroke-dasharray:2.0,2.0;" x1="309.9985" x2="515.6606" y1="211.4844" y2="211.4844"/><text fill="#333333" font-family="sans-serif" font-size="13" lengthAdjust="spacing" textLength="95.1831" x="321.9985" y="206.7422">Data not found</text><polygon fill="#666666" points="62.833,243.7949,52.833,247.7949,62.833,251.7949,58.833,247.7949" style="stroke:#666666;stroke-width:1.0;"/><line style="stroke:#666666;stroke-width:1.0;stroke-dasharray:2.0,2.0;" x1="56.833" x2="298.9985" y1="247.7949" y2="247.7949"/><text fill="#333333" font-family="sans-serif" font-size="13" lengthAdjust="spacing" textLength="219.1655" x="68.833" y="243.0527">Response (JSON metadata or error)</text><text fill="#333333" font-family="sans-serif" font-size="10" lengthAdjust="spacing" textLength="155.4346" x="0" y="323.4395">Last Modified On: 24-Feb-2025</text><!--SRC=[fPDHQzim4CVVzIcEbD44cgPGA2KFUsXJRvIcAOiBUnYCgtLEj2YIaIvPokXttyaDYLBwCDO36vtr___kTBRZmhW60oxX2Ql5BFYLqzVU-W17nLbnMHGgxXIQQbnPBhpZhUIyZKo28VZVsysBDfGwXX7LnX4y-Q0fHAXb5wq5ihGanp7pIshu6VueWAjMVSYIfs-x7BMXNbH6gQJ3uEr7CN9dKva67VyVIgaSqVbQbWzmROqSiWCOjyjtD5CAQme_N1TZ91xCcPkVPjdOTdKwyxtMdgIloaF4O_bz0bFsWLfPIjjCgTU2qF-SUM48NsvA6F1cIOo3uHpZVF0hUgUmOhD6fhoGoeo2sR4JXRXRyUO44g6tT-_hesNODvTqa6fgP9GvGaRhlssn3EXYGdgtyu1nS3kTt2koaNAmzXJ1UPOAQ_hd4gE4JAuwlKj5ScbwvnG78n38TgX3-4QnyKvQwQQkzctADq7oMuHUpijdQgbELJqByGuZmzXhKnlIC753-2GGwdQqxe_7u_wpHAUd_W80]--></g></svg>
