<svg contentStyleType="text/css" height="492" preserveAspectRatio="none" viewBox="0 0 794 492" width="794" xmlns="http://www.w3.org/2000/svg" zoomAndPan="magnify"><g stroke="#181818"><g fill="#fff"><path d="m397 84.2871h10v87.9316h-10z"/><path d="m397 201.5293h10v87.9316h-10z"/><path d="m397 318.7715h10v87.9316h-10z"/><path d="m720 113.5977h10v29.3105h-10z"/><path d="m720 230.8398h10v29.3105h-10z"/><path d="m720 348.082h10v29.3105h-10z"/></g><g stroke-width=".5"><path d="m52 52.9766v371.7265" stroke-dasharray="5 5"/><path d="m402 52.9766v371.7265" stroke-dasharray="5 5"/><path d="m724.5 52.9766v371.7265" stroke-dasharray="5 5"/><rect fill="#e2e2f0" height="30.4883" rx="2.5" width="94" x="5" y="21.4883"/></g></g><text font-family="sans-serif" font-size="14" lengthAdjust="spacing" textLength="80" x="12" y="42.0234">HTTP Client</text><rect fill="#e2e2f0" height="30.4883" rx="2.5" stroke="#181818" stroke-width=".5" width="94" x="5" y="423.7031"/><text font-family="sans-serif" font-size="14" lengthAdjust="spacing" textLength="80" x="12" y="444.2383">HTTP Client</text><rect fill="#e2e2f0" height="46.9766" rx="2.5" stroke="#181818" stroke-width=".5" width="188" x="308" y="5"/><text font-family="sans-serif" font-size="14" lengthAdjust="spacing" textLength="83" x="360.5" y="25.5352">HTTP Server</text><text font-family="sans-serif" font-size="14" lengthAdjust="spacing" textLength="174" x="315" y="42.0234">(asset/http_impl/http.go)</text><rect fill="#e2e2f0" height="46.9766" rx="2.5" stroke="#181818" stroke-width=".5" width="188" x="308" y="423.7031"/><text font-family="sans-serif" font-size="14" lengthAdjust="spacing" textLength="83" x="360.5" y="444.2383">HTTP Server</text><text font-family="sans-serif" font-size="14" lengthAdjust="spacing" textLength="174" x="315" y="460.7266">(asset/http_impl/http.go)</text><rect fill="#e2e2f0" height="30.4883" rx="2.5" stroke="#181818" stroke-width=".5" width="127" x="661.5" y="21.4883"/><text font-family="sans-serif" font-size="14" lengthAdjust="spacing" textLength="113" x="668.5" y="42.0234">BlockchainClient</text><rect fill="#e2e2f0" height="30.4883" rx="2.5" stroke="#181818" stroke-width=".5" width="127" x="661.5" y="423.7031"/><text font-family="sans-serif" font-size="14" lengthAdjust="spacing" textLength="113" x="668.5" y="444.2383">BlockchainClient</text><g stroke="#181818"><g fill="#fff"><path d="m397 84.2871h10v87.9316h-10z"/><path d="m397 201.5293h10v87.9316h-10z"/><path d="m397 318.7715h10v87.9316h-10z"/><path d="m720 113.5977h10v29.3105h-10z"/><path d="m720 230.8398h10v29.3105h-10z"/><path d="m720 348.082h10v29.3105h-10z"/></g><path d="m385 80.2871 10 4-10 4 4-4z" fill="#181818"/><path d="m52 84.2871h339"/></g><text font-family="sans-serif" font-size="13" lengthAdjust="spacing" textLength="312" x="59" y="79.5449">GET /headers/:hash (BINARY_STREAM, HEX, JSON)</text><path d="m708 109.5977 10 4-10 4 4-4z" fill="#181818" stroke="#181818"/><path d="m407 113.5977h307" stroke="#181818"/><text font-family="sans-serif" font-size="13" lengthAdjust="spacing" textLength="294" x="414" y="108.8555">GetBlockHeaders(ctx, hash, numberOfHeaders)</text><path d="m418 138.9082-10 4 10 4-4-4z" fill="#181818" stroke="#181818"/><path d="m412 142.9082h312" stroke="#181818" stroke-dasharray="2 2"/><text font-family="sans-serif" font-size="13" lengthAdjust="spacing" textLength="118" x="424" y="138.166">Block headers data</text><path d="m63 168.2188-10 4 10 4-4-4z" fill="#181818" stroke="#181818"/><path d="m57 172.2188h344" stroke="#181818" stroke-dasharray="2 2"/><text font-family="sans-serif" font-size="13" lengthAdjust="spacing" textLength="190" x="69" y="167.4766">Response (Block headers data)</text><path d="m385 197.5293 10 4-10 4 4-4z" fill="#181818" stroke="#181818"/><path d="m52 201.5293h339" stroke="#181818"/><text font-family="sans-serif" font-size="13" lengthAdjust="spacing" textLength="305" x="59" y="196.7871">GET /header/:hash (BINARY_STREAM, HEX, JSON)</text><path d="m708 226.8398 10 4-10 4 4-4z" fill="#181818" stroke="#181818"/><path d="m407 230.8398h307" stroke="#181818"/><text font-family="sans-serif" font-size="13" lengthAdjust="spacing" textLength="165" x="414" y="226.0977">GetBlockHeader(ctx, hash)</text><path d="m418 256.1504-10 4 10 4-4-4z" fill="#181818" stroke="#181818"/><path d="m412 260.1504h312" stroke="#181818" stroke-dasharray="2 2"/><text font-family="sans-serif" font-size="13" lengthAdjust="spacing" textLength="165" x="424" y="255.4082">Specific block header data</text><path d="m63 285.4609-10 4 10 4-4-4z" fill="#181818" stroke="#181818"/><path d="m57 289.4609h344" stroke="#181818" stroke-dasharray="2 2"/><text font-family="sans-serif" font-size="13" lengthAdjust="spacing" textLength="237" x="69" y="284.7188">Response (Specific block header data)</text><path d="m385 314.7715 10 4-10 4 4-4z" fill="#181818" stroke="#181818"/><path d="m52 318.7715h339" stroke="#181818"/><text font-family="sans-serif" font-size="13" lengthAdjust="spacing" textLength="326" x="59" y="314.0293">GET /bestblockheader (BINARY_STREAM, HEX, JSON)</text><path d="m708 344.082 10 4-10 4 4-4z" fill="#181818" stroke="#181818"/><path d="m407 348.082h307" stroke="#181818"/><text font-family="sans-serif" font-size="13" lengthAdjust="spacing" textLength="153" x="414" y="343.3398">GetBestBlockHeader(ctx)</text><path d="m418 373.3926-10 4 10 4-4-4z" fill="#181818" stroke="#181818"/><path d="m412 377.3926h312" stroke="#181818" stroke-dasharray="2 2"/><text font-family="sans-serif" font-size="13" lengthAdjust="spacing" textLength="142" x="424" y="372.6504">Best block header data</text><path d="m63 402.7031-10 4 10 4-4-4z" fill="#181818" stroke="#181818"/><path d="m57 406.7031h344" stroke="#181818" stroke-dasharray="2 2"/><g font-family="sans-serif"><text font-size="13" lengthAdjust="spacing" textLength="214" x="69" y="401.9609">Response (Best block header data)</text><text fill="#888" font-size="10" lengthAdjust="spacing" textLength="149" y="482.3477">Last Modified On: 4-Dec-2023</text></g></svg>
