<svg contentStyleType="text/css" height="590" preserveAspectRatio="none" viewBox="0 0 1164 590" width="1164" xmlns="http://www.w3.org/2000/svg" zoomAndPan="magnify"><path d="m0 0h1164v590h-1164z" fill="#f0f8ff"/><g stroke="#181818"><path d="m195.0576 98.7988h10v391.7266h-10z" fill="#fff"/><path d="m330.9839 128.1094h10v371.416h-10z" fill="#fff"/><path d="m335.9839 301.6621h10v29.3105h-10z" fill="#fff"/><path d="m335.9839 461.2148h10v29.3105h-10z" fill="#fff"/><path d="m468.5825 157.4199h10v14h-10z" fill="#fff"/><path d="m593.9551 200.7305h10v289.7949h-10z" fill="#fff"/><path d="m69 67.4883v441.0371" stroke-dasharray="5 5" stroke-width=".5"/><path d="m199.606 67.4883v441.0371" stroke-dasharray="5 5" stroke-width=".5"/><path d="m335.6011 67.4883v441.0371" stroke-dasharray="5 5" stroke-width=".5"/><path d="m473.3667 67.4883v441.0371" stroke-dasharray="5 5" stroke-width=".5"/><path d="m598.7983 67.4883v441.0371" stroke-dasharray="5 5" stroke-width=".5"/><path d="m842.4341 67.4883v441.0371" stroke-dasharray="5 5" stroke-width=".5"/><path d="m1025.792 67.4883v441.0371" stroke-dasharray="5 5" stroke-width=".5"/></g><rect fill="#ddd" height="30.4883" rx="2.5" stroke="#666" stroke-width=".5" width="128.2627" x="5" y="36"/><text fill="#333" font-family="sans-serif" font-size="14" lengthAdjust="spacing" textLength="114.2627" x="12" y="56.5352">Coinbase Service</text><rect fill="#ddd" height="30.4883" rx="2.5" stroke="#666" stroke-width=".5" width="128.2627" x="5" y="507.5254"/><text fill="#333" font-family="sans-serif" font-size="14" lengthAdjust="spacing" textLength="114.2627" x="12" y="528.0605">Coinbase Service</text><rect fill="#ddd" height="30.4883" rx="2.5" stroke="#666" stroke-width=".5" width="94.9033" x="152.606" y="36"/><text fill="#333" font-family="sans-serif" font-size="14" lengthAdjust="spacing" textLength="80.9033" x="159.606" y="56.5352">Asset Client</text><rect fill="#ddd" height="30.4883" rx="2.5" stroke="#666" stroke-width=".5" width="94.9033" x="152.606" y="507.5254"/><text fill="#333" font-family="sans-serif" font-size="14" lengthAdjust="spacing" textLength="80.9033" x="159.606" y="528.0605">Asset Client</text><rect fill="#ddd" height="46.9766" rx="2.5" stroke="#666" stroke-width=".5" width="154.7656" x="258.6011" y="19.5117"/><text fill="#333" font-family="sans-serif" font-size="14" lengthAdjust="spacing" textLength="140.7656" x="265.6011" y="40.0469">Asset Server Handler</text><text fill="#333" font-family="sans-serif" font-size="14" lengthAdjust="spacing" textLength="103.6875" x="284.1401" y="56.5352">(asset/grpc.go)</text><rect fill="#ddd" height="46.9766" rx="2.5" stroke="#666" stroke-width=".5" width="154.7656" x="258.6011" y="507.5254"/><text fill="#333" font-family="sans-serif" font-size="14" lengthAdjust="spacing" textLength="140.7656" x="265.6011" y="528.0605">Asset Server Handler</text><text fill="#333" font-family="sans-serif" font-size="14" lengthAdjust="spacing" textLength="103.6875" x="284.1401" y="544.5488">(asset/grpc.go)</text><text fill="#333" font-family="sans-serif" font-size="14" lengthAdjust="spacing" textLength="94.4316" x="423.3667" y="64.5352">Subscriber DB</text><path d="m455.5825 15c0-10 18-10 18-10s18 0 18 10v26c0 10-18 10-18 10s-18 0-18-10z" fill="#e2e2f0" stroke="#181818" stroke-width="1.5"/><path d="m455.5825 15c0 10 18 10 18 10s18 0 18-10" fill="none" stroke="#181818" stroke-width="1.5"/><text fill="#333" font-family="sans-serif" font-size="14" lengthAdjust="spacing" textLength="94.4316" x="423.3667" y="521.0605">Subscriber DB</text><path d="m455.5825 534.0137c0-10 18-10 18-10s18 0 18 10v26c0 10-18 10-18 10s-18 0-18-10z" fill="#e2e2f0" stroke="#181818" stroke-width="1.5"/><path d="m455.5825 534.0137c0 10 18 10 18 10s18 0 18-10" fill="none" stroke="#181818" stroke-width="1.5"/><rect fill="#ddd" height="30.4883" rx="2.5" stroke="#666" stroke-width=".5" width="130.3135" x="533.7983" y="36"/><text fill="#333" font-family="sans-serif" font-size="14" lengthAdjust="spacing" textLength="116.3135" x="540.7983" y="56.5352">Blockchain Client</text><rect fill="#ddd" height="30.4883" rx="2.5" stroke="#666" stroke-width=".5" width="130.3135" x="533.7983" y="507.5254"/><text fill="#333" font-family="sans-serif" font-size="14" lengthAdjust="spacing" textLength="116.3135" x="540.7983" y="528.0605">Blockchain Client</text><rect fill="#ddd" height="30.4883" rx="2.5" stroke="#666" stroke-width=".5" width="132.6514" x="776.4341" y="36"/><text fill="#333" font-family="sans-serif" font-size="14" lengthAdjust="spacing" textLength="118.6514" x="783.4341" y="56.5352">Blockchain Server</text><rect fill="#ddd" height="30.4883" rx="2.5" stroke="#666" stroke-width=".5" width="132.6514" x="776.4341" y="507.5254"/><text fill="#333" font-family="sans-serif" font-size="14" lengthAdjust="spacing" textLength="118.6514" x="783.4341" y="528.0605">Blockchain Server</text><rect fill="#ddd" height="30.4883" rx="2.5" stroke="#666" stroke-width=".5" width="165.7305" x="943.792" y="36"/><text fill="#333" font-family="sans-serif" font-size="14" lengthAdjust="spacing" textLength="151.7305" x="950.792" y="56.5352">Block Assembly Server</text><rect fill="#ddd" height="30.4883" rx="2.5" stroke="#666" stroke-width=".5" width="165.7305" x="943.792" y="507.5254"/><text fill="#333" font-family="sans-serif" font-size="14" lengthAdjust="spacing" textLength="151.7305" x="950.792" y="528.0605">Block Assembly Server</text><path d="m195.0576 98.7988h10v391.7266h-10z" fill="#fff" stroke="#181818"/><path d="m330.9839 128.1094h10v371.416h-10z" fill="#fff" stroke="#181818"/><path d="m335.9839 301.6621h10v29.3105h-10z" fill="#fff" stroke="#181818"/><path d="m335.9839 461.2148h10v29.3105h-10z" fill="#fff" stroke="#181818"/><path d="m468.5825 157.4199h10v14h-10z" fill="#fff" stroke="#181818"/><path d="m593.9551 200.7305h10v289.7949h-10z" fill="#fff" stroke="#181818"/><path d="m183.0576 94.7988 10 4-10 4 4-4z" fill="#666" stroke="#666"/><path d="m69.1313 98.7988h119.9263" stroke="#666"/><text fill="#333" font-family="sans-serif" font-size="13" lengthAdjust="spacing" textLength="106.9263" x="76.1313" y="94.0566">Subscribe(ctx, "")</text><path d="m318.9839 124.1094 10 4-10 4 4-4z" fill="#666" stroke="#666"/><path d="m205.0576 128.1094h119.9263" stroke="#666"/><text fill="#333" font-family="sans-serif" font-size="13" lengthAdjust="spacing" textLength="106.9263" x="212.0576" y="123.3672">Subscribe(ctx, "")</text><path d="m456.5825 153.4199 10 4-10 4 4-4z" fill="#666" stroke="#666"/><path d="m340.9839 157.4199h121.5986" stroke="#666"/><text fill="#333" font-family="sans-serif" font-size="13" lengthAdjust="spacing" textLength="105.0728" x="347.9839" y="152.6777">Track subscriber</text><path d="m351.9839 167.4199-10 4 10 4-4-4z" fill="#666" stroke="#666"/><path d="m345.9839 171.4199h126.5986" stroke="#666" stroke-dasharray="2 2"/><path d="m581.9551 196.7305 10 4-10 4 4-4z" fill="#666" stroke="#666"/><path d="m340.9839 200.7305h246.9712" stroke="#666"/><text fill="#333" font-family="sans-serif" font-size="13" lengthAdjust="spacing" textLength="69.4941" x="347.9839" y="195.9883">Subscribe()</text><path d="m842.7598 230.041h42" stroke="#666"/><path d="m884.7598 230.041v13" stroke="#666"/><path d="m843.7598 243.041h41" stroke="#666"/><path d="m853.7598 239.041-10 4 10 4-4-4z" fill="#666" stroke="#666"/><text fill="#333" font-family="sans-serif" font-size="13" lengthAdjust="spacing" textLength="67.2661" x="849.7598" y="225.2988">AddBlock()</text><path d="m614.9551 268.3516-10 4 10 4-4-4z" fill="#666" stroke="#666"/><path d="m608.9551 272.3516h232.8047" stroke="#666"/><text fill="#333" font-family="sans-serif" font-size="13" lengthAdjust="spacing" textLength="214.8047" x="620.9551" y="267.6094">Send Notification Block, MiningOn</text><path d="m356.9839 297.6621-10 4 10 4-4-4z" fill="#666" stroke="#666"/><path d="m350.9839 301.6621h241.9712" stroke="#666"/><text fill="#333" font-family="sans-serif" font-size="13" lengthAdjust="spacing" textLength="214.8047" x="362.9839" y="296.9199">Send Notification Block, MiningOn</text><path d="m80.1313 326.9727-10 4 10 4-4-4z" fill="#666" stroke="#666"/><path d="m74.1313 330.9727h255.8526" stroke="#666" stroke-dasharray="2 2"/><text fill="#333" font-family="sans-serif" font-size="13" lengthAdjust="spacing" textLength="180.1973" x="86.1313" y="326.2305">Notification Block, MiningOn</text><path d="m1026.6572 360.2832h42" stroke="#666"/><path d="m1068.6572 360.2832v13" stroke="#666"/><path d="m1027.6572 373.2832h41" stroke="#666"/><path d="m1037.6572 369.2832-10 4 10 4-4-4z" fill="#666" stroke="#666"/><text fill="#333" font-family="sans-serif" font-size="13" lengthAdjust="spacing" textLength="123.5444" x="1033.6572" y="355.541">init() - New Subtree</text><path d="m853.7598 398.5938-10 4 10 4-4-4z" fill="#666" stroke="#666"/><path d="m847.7598 402.5938h177.8974" stroke="#666"/><text fill="#333" font-family="sans-serif" font-size="13" lengthAdjust="spacing" textLength="159.8975" x="859.7598" y="397.8516">Send Notification Subtree</text><path d="m614.9551 427.9043-10 4 10 4-4-4z" fill="#666" stroke="#666"/><path d="m608.9551 431.9043h232.8047" stroke="#666"/><text fill="#333" font-family="sans-serif" font-size="13" lengthAdjust="spacing" textLength="159.8975" x="620.9551" y="427.1621">Send Notification Subtree</text><path d="m356.9839 457.2148-10 4 10 4-4-4z" fill="#666" stroke="#666"/><path d="m350.9839 461.2148h241.9712" stroke="#666"/><text fill="#333" font-family="sans-serif" font-size="13" lengthAdjust="spacing" textLength="159.8975" x="362.9839" y="456.4727">Send Notification Subtree</text><path d="m80.1313 486.5254-10 4 10 4-4-4z" fill="#666" stroke="#666"/><path d="m74.1313 490.5254h255.8526" stroke="#666" stroke-dasharray="2 2"/><text fill="#333" font-family="sans-serif" font-size="13" lengthAdjust="spacing" textLength="125.29" x="86.1313" y="485.7832">Notification Subtree</text><text fill="#333" font-family="sans-serif" font-size="10" lengthAdjust="spacing" textLength="155.4346" y="580.6816">Last Modified On: 24-Feb-2025</text></svg>
