<svg xmlns="http://www.w3.org/2000/svg" xmlns:xlink="http://www.w3.org/1999/xlink" contentStyleType="text/css" height="375px" preserveAspectRatio="none" style="width:809px;height:375px;background:#F0F8FF;" version="1.1" viewBox="0 0 809 375" width="809px" zoomAndPan="magnify"><defs/><g><rect fill="#F0F8FF" height="375" style="stroke:none;stroke-width:1.0;" width="809" x="0" y="0"/><rect fill="#FFFFFF" height="87.9316" style="stroke:#181818;stroke-width:1.0;" width="10" x="377.8374" y="84.2871"/><rect fill="#FFFFFF" height="87.9316" style="stroke:#181818;stroke-width:1.0;" width="10" x="377.8374" y="201.5293"/><rect fill="#FFFFFF" height="29.3105" style="stroke:#181818;stroke-width:1.0;" width="10" x="735.4302" y="113.5977"/><rect fill="#FFFFFF" height="29.3105" style="stroke:#181818;stroke-width:1.0;" width="10" x="735.4302" y="230.8398"/><line style="stroke:#181818;stroke-width:0.5;stroke-dasharray:5.0,5.0;" x1="51" x2="51" y1="52.9766" y2="307.4609"/><line style="stroke:#181818;stroke-width:0.5;stroke-dasharray:5.0,5.0;" x1="382.0825" x2="382.0825" y1="52.9766" y2="307.4609"/><line style="stroke:#181818;stroke-width:0.5;stroke-dasharray:5.0,5.0;" x1="739.4883" x2="739.4883" y1="52.9766" y2="307.4609"/><rect fill="#DDDDDD" height="30.4883" rx="2.5" ry="2.5" style="stroke:#666666;stroke-width:0.5;" width="93.666" x="5" y="21.4883"/><text fill="#333333" font-family="sans-serif" font-size="14" lengthAdjust="spacing" textLength="79.666" x="12" y="42.0234">HTTP Client</text><rect fill="#DDDDDD" height="30.4883" rx="2.5" ry="2.5" style="stroke:#666666;stroke-width:0.5;" width="93.666" x="5" y="306.4609"/><text fill="#333333" font-family="sans-serif" font-size="14" lengthAdjust="spacing" textLength="79.666" x="12" y="326.9961">HTTP Client</text><rect fill="#DDDDDD" height="46.9766" rx="2.5" ry="2.5" style="stroke:#666666;stroke-width:0.5;" width="187.5098" x="289.0825" y="5"/><text fill="#333333" font-family="sans-serif" font-size="14" lengthAdjust="spacing" textLength="82.0039" x="341.8354" y="25.5352">HTTP Server</text><text fill="#333333" font-family="sans-serif" font-size="14" lengthAdjust="spacing" textLength="173.5098" x="296.0825" y="42.0234">(asset/http_impl/http.go)</text><rect fill="#DDDDDD" height="46.9766" rx="2.5" ry="2.5" style="stroke:#666666;stroke-width:0.5;" width="187.5098" x="289.0825" y="306.4609"/><text fill="#333333" font-family="sans-serif" font-size="14" lengthAdjust="spacing" textLength="82.0039" x="341.8354" y="326.9961">HTTP Server</text><text fill="#333333" font-family="sans-serif" font-size="14" lengthAdjust="spacing" textLength="173.5098" x="296.0825" y="343.4844">(asset/http_impl/http.go)</text><rect fill="#DDDDDD" height="30.4883" rx="2.5" ry="2.5" style="stroke:#666666;stroke-width:0.5;" width="125.8838" x="677.4883" y="21.4883"/><text fill="#333333" font-family="sans-serif" font-size="14" lengthAdjust="spacing" textLength="111.8838" x="684.4883" y="42.0234">BlockchainClient</text><rect fill="#DDDDDD" height="30.4883" rx="2.5" ry="2.5" style="stroke:#666666;stroke-width:0.5;" width="125.8838" x="677.4883" y="306.4609"/><text fill="#333333" font-family="sans-serif" font-size="14" lengthAdjust="spacing" textLength="111.8838" x="684.4883" y="326.9961">BlockchainClient</text><rect fill="#FFFFFF" height="87.9316" style="stroke:#181818;stroke-width:1.0;" width="10" x="377.8374" y="84.2871"/><rect fill="#FFFFFF" height="87.9316" style="stroke:#181818;stroke-width:1.0;" width="10" x="377.8374" y="201.5293"/><rect fill="#FFFFFF" height="29.3105" style="stroke:#181818;stroke-width:1.0;" width="10" x="735.4302" y="113.5977"/><rect fill="#FFFFFF" height="29.3105" style="stroke:#181818;stroke-width:1.0;" width="10" x="735.4302" y="230.8398"/><polygon fill="#666666" points="365.8374,80.2871,375.8374,84.2871,365.8374,88.2871,369.8374,84.2871" style="stroke:#666666;stroke-width:1.0;"/><line style="stroke:#666666;stroke-width:1.0;" x1="51.833" x2="371.8374" y1="84.2871" y2="84.2871"/><text fill="#333333" font-family="sans-serif" font-size="13" lengthAdjust="spacing" textLength="298.4224" x="58.833" y="79.5449">GET /block/:hash (BINARY_STREAM, HEX, JSON)</text><polygon fill="#666666" points="723.4302,109.5977,733.4302,113.5977,723.4302,117.5977,727.4302,113.5977" style="stroke:#666666;stroke-width:1.0;"/><line style="stroke:#666666;stroke-width:1.0;" x1="387.8374" x2="729.4302" y1="113.5977" y2="113.5977"/><text fill="#333333" font-family="sans-serif" font-size="13" lengthAdjust="spacing" textLength="121.0942" x="394.8374" y="108.8555">GetBlock(ctx, hash)</text><polygon fill="#666666" points="398.8374,138.9082,388.8374,142.9082,398.8374,146.9082,394.8374,142.9082" style="stroke:#666666;stroke-width:1.0;"/><line style="stroke:#666666;stroke-width:1.0;stroke-dasharray:2.0,2.0;" x1="392.8374" x2="739.4302" y1="142.9082" y2="142.9082"/><text fill="#333333" font-family="sans-serif" font-size="13" lengthAdjust="spacing" textLength="117.8506" x="404.8374" y="138.166">Specific block data</text><polygon fill="#666666" points="62.833,168.2188,52.833,172.2188,62.833,176.2188,58.833,172.2188" style="stroke:#666666;stroke-width:1.0;"/><line style="stroke:#666666;stroke-width:1.0;stroke-dasharray:2.0,2.0;" x1="56.833" x2="381.8374" y1="172.2188" y2="172.2188"/><text fill="#333333" font-family="sans-serif" font-size="13" lengthAdjust="spacing" textLength="190.6138" x="68.833" y="167.4766">Response (Specific block data)</text><polygon fill="#666666" points="365.8374,197.5293,375.8374,201.5293,365.8374,205.5293,369.8374,201.5293" style="stroke:#666666;stroke-width:1.0;"/><line style="stroke:#666666;stroke-width:1.0;" x1="51.833" x2="371.8374" y1="201.5293" y2="201.5293"/><text fill="#333333" font-family="sans-serif" font-size="13" lengthAdjust="spacing" textLength="307.0044" x="58.833" y="196.7871">GET /lastblocks (n, includeOrphans, fromHeight)</text><polygon fill="#666666" points="723.4302,226.8398,733.4302,230.8398,723.4302,234.8398,727.4302,230.8398" style="stroke:#666666;stroke-width:1.0;"/><line style="stroke:#666666;stroke-width:1.0;" x1="387.8374" x2="729.4302" y1="230.8398" y2="230.8398"/><text fill="#333333" font-family="sans-serif" font-size="13" lengthAdjust="spacing" textLength="328.5928" x="394.8374" y="226.0977">GetLastNBlocks(ctx, n, includeOrphans, fromHeight)</text><polygon fill="#666666" points="398.8374,256.1504,388.8374,260.1504,398.8374,264.1504,394.8374,260.1504" style="stroke:#666666;stroke-width:1.0;"/><line style="stroke:#666666;stroke-width:1.0;stroke-dasharray:2.0,2.0;" x1="392.8374" x2="739.4302" y1="260.1504" y2="260.1504"/><text fill="#333333" font-family="sans-serif" font-size="13" lengthAdjust="spacing" textLength="115.7559" x="404.8374" y="255.4082">Last N blocks data</text><polygon fill="#666666" points="62.833,285.4609,52.833,289.4609,62.833,293.4609,58.833,289.4609" style="stroke:#666666;stroke-width:1.0;"/><line style="stroke:#666666;stroke-width:1.0;stroke-dasharray:2.0,2.0;" x1="56.833" x2="381.8374" y1="289.4609" y2="289.4609"/><text fill="#333333" font-family="sans-serif" font-size="13" lengthAdjust="spacing" textLength="188.519" x="68.833" y="284.7188">Response (Last N blocks data)</text><text fill="#333333" font-family="sans-serif" font-size="10" lengthAdjust="spacing" textLength="155.4346" x="0" y="365.1055">Last Modified On: 24-Feb-2025</text><!--SRC=[fPHHYnen4CVVyoa6I-aAQoqKIl7XuBpJsjBLeZvSeN34PDODncIRZDTAwNTlDYwzQ2t8tJmioUG_l_nd0kitojJSyIsikDYidTqPUMErTV1Y_6RyVZnc_gz2OibtciRMK2jv6oEHSEViZ_RmNGp6Ni4jbieWhAoJw3oKuPHh3QXnYuPyKX-sYlRmYm4Ce_gO5RAdBczZiDyieOZWq5dzN4puaXAgveQUXc8iHNGco-KNkD4gDDa1xjlb6Sq2tGEwRoRZtYFrAwBwNcrh7LUlrxORonlfGNcC66ehDgBYoYHtFIQR1rdKA5If1AoQDApsK75VWSFlE_J43dNGkqhkW05y62sX7olwWwZFXX-dr_ElzulbV7HTv30PtUNmQJ6RTXaNf1uuOUeoWGNqewC6ZHJtcQ2VUJIJ81BlIL7lrDv9Kv8JPnBFKL8ZWTAsEu0v-jeQZv2TONLJMD9L6ETdxWcc1ws_Q8ewLBJopEIWZD0xYJDNLzpu74fdjnDKwugUCid6pZGc_M6UbzvmuQ2FsttMdFz5_NVC6aiAlmvBWHRB2Yl34w64cHd0or2BMKVANb4KlNs8JfVz0G00]--></g></svg>
