<svg xmlns="http://www.w3.org/2000/svg" xmlns:xlink="http://www.w3.org/1999/xlink" contentStyleType="text/css" height="333px" preserveAspectRatio="none" style="width:608px;height:333px;background:#F0F8FF;" version="1.1" viewBox="0 0 608 333" width="608px" zoomAndPan="magnify"><defs/><g><rect fill="#F0F8FF" height="333" style="stroke:none;stroke-width:1.0;" width="608" x="0" y="0"/><rect fill="#FFFFFF" height="163.5078" style="stroke:#181818;stroke-width:1.0;" width="10" x="382.6172" y="84.2871"/><rect fill="#FFFFFF" height="112.8867" style="stroke:#181818;stroke-width:1.0;" width="10" x="536.6265" y="113.5977"/><rect fill="none" height="90.8867" style="stroke:#000000;stroke-width:1.5;" width="318.0186" x="283.8623" y="128.5977"/><line style="stroke:#181818;stroke-width:0.5;stroke-dasharray:5.0,5.0;" x1="51" x2="51" y1="52.9766" y2="265.7949"/><line style="stroke:#181818;stroke-width:0.5;stroke-dasharray:5.0,5.0;" x1="386.8623" x2="386.8623" y1="52.9766" y2="265.7949"/><line style="stroke:#181818;stroke-width:0.5;stroke-dasharray:5.0,5.0;" x1="541.3721" x2="541.3721" y1="52.9766" y2="265.7949"/><rect fill="#DDDDDD" height="30.4883" rx="2.5" ry="2.5" style="stroke:#666666;stroke-width:0.5;" width="93.666" x="5" y="21.4883"/><text fill="#333333" font-family="sans-serif" font-size="14" lengthAdjust="spacing" textLength="79.666" x="12" y="42.0234">HTTP Client</text><rect fill="#DDDDDD" height="30.4883" rx="2.5" ry="2.5" style="stroke:#666666;stroke-width:0.5;" width="93.666" x="5" y="264.7949"/><text fill="#333333" font-family="sans-serif" font-size="14" lengthAdjust="spacing" textLength="79.666" x="12" y="285.3301">HTTP Client</text><rect fill="#DDDDDD" height="46.9766" rx="2.5" ry="2.5" style="stroke:#666666;stroke-width:0.5;" width="187.5098" x="293.8623" y="5"/><text fill="#333333" font-family="sans-serif" font-size="14" lengthAdjust="spacing" textLength="82.0039" x="346.6152" y="25.5352">HTTP Server</text><text fill="#333333" font-family="sans-serif" font-size="14" lengthAdjust="spacing" textLength="173.5098" x="300.8623" y="42.0234">(asset/http_impl/http.go)</text><rect fill="#DDDDDD" height="46.9766" rx="2.5" ry="2.5" style="stroke:#666666;stroke-width:0.5;" width="187.5098" x="293.8623" y="264.7949"/><text fill="#333333" font-family="sans-serif" font-size="14" lengthAdjust="spacing" textLength="82.0039" x="346.6152" y="285.3301">HTTP Server</text><text fill="#333333" font-family="sans-serif" font-size="14" lengthAdjust="spacing" textLength="173.5098" x="300.8623" y="301.8184">(asset/http_impl/http.go)</text><rect fill="#DDDDDD" height="30.4883" rx="2.5" ry="2.5" style="stroke:#666666;stroke-width:0.5;" width="100.5088" x="491.3721" y="21.4883"/><text fill="#333333" font-family="sans-serif" font-size="14" lengthAdjust="spacing" textLength="86.5088" x="498.3721" y="42.0234">SubtreeStore</text><rect fill="#DDDDDD" height="30.4883" rx="2.5" ry="2.5" style="stroke:#666666;stroke-width:0.5;" width="100.5088" x="491.3721" y="264.7949"/><text fill="#333333" font-family="sans-serif" font-size="14" lengthAdjust="spacing" textLength="86.5088" x="498.3721" y="285.3301">SubtreeStore</text><rect fill="#FFFFFF" height="163.5078" style="stroke:#181818;stroke-width:1.0;" width="10" x="382.6172" y="84.2871"/><rect fill="#FFFFFF" height="112.8867" style="stroke:#181818;stroke-width:1.0;" width="10" x="536.6265" y="113.5977"/><polygon fill="#666666" points="370.6172,80.2871,380.6172,84.2871,370.6172,88.2871,374.6172,84.2871" style="stroke:#666666;stroke-width:1.0;"/><line style="stroke:#666666;stroke-width:1.0;" x1="51.833" x2="376.6172" y1="84.2871" y2="84.2871"/><text fill="#333333" font-family="sans-serif" font-size="13" lengthAdjust="spacing" textLength="311.7842" x="58.833" y="79.5449">GET /subtree/:hash (BINARY_STREAM, HEX, JSON)</text><polygon fill="#666666" points="524.6265,109.5977,534.6265,113.5977,524.6265,117.5977,528.6265,113.5977" style="stroke:#666666;stroke-width:1.0;"/><line style="stroke:#666666;stroke-width:1.0;" x1="392.6172" x2="530.6265" y1="113.5977" y2="113.5977"/><text fill="#333333" font-family="sans-serif" font-size="13" lengthAdjust="spacing" textLength="87.6167" x="399.6172" y="108.8555">Get(ctx, hash)</text><path d="M283.8623,128.5977 L346.001,128.5977 L346.001,135.9082 L336.001,145.9082 L283.8623,145.9082 L283.8623,128.5977 " fill="#EEEEEE" style="stroke:#000000;stroke-width:1.5;"/><rect fill="none" height="90.8867" style="stroke:#000000;stroke-width:1.5;" width="318.0186" x="283.8623" y="128.5977"/><text fill="#333333" font-family="sans-serif" font-size="13" font-weight="bold" lengthAdjust="spacing" textLength="17.1387" x="298.8623" y="142.166">alt</text><text fill="#333333" font-family="sans-serif" font-size="11" font-weight="bold" lengthAdjust="spacing" textLength="132.3545" x="361.001" y="141.2324">[SubtreeStore has data]</text><polygon fill="#666666" points="403.6172,163.2188,393.6172,167.2188,403.6172,171.2188,399.6172,167.2188" style="stroke:#666666;stroke-width:1.0;"/><line style="stroke:#666666;stroke-width:1.0;stroke-dasharray:2.0,2.0;" x1="397.6172" x2="535.6265" y1="167.2188" y2="167.2188"/><text fill="#333333" font-family="sans-serif" font-size="13" lengthAdjust="spacing" textLength="79.4346" x="409.6172" y="162.4766">Subtree data</text><line style="stroke:#000000;stroke-width:1.0;stroke-dasharray:2.0,2.0;" x1="283.8623" x2="601.8809" y1="176.2188" y2="176.2188"/><text fill="#333333" font-family="sans-serif" font-size="11" font-weight="bold" lengthAdjust="spacing" textLength="192.0435" x="288.8623" y="186.8535">[SubtreeStore does not have data]</text><polygon fill="#666666" points="403.6172,207.4844,393.6172,211.4844,403.6172,215.4844,399.6172,211.4844" style="stroke:#666666;stroke-width:1.0;"/><line style="stroke:#666666;stroke-width:1.0;stroke-dasharray:2.0,2.0;" x1="397.6172" x2="535.6265" y1="211.4844" y2="211.4844"/><text fill="#333333" font-family="sans-serif" font-size="13" lengthAdjust="spacing" textLength="95.1831" x="409.6172" y="206.7422">Data not found</text><polygon fill="#666666" points="62.833,243.7949,52.833,247.7949,62.833,251.7949,58.833,247.7949" style="stroke:#666666;stroke-width:1.0;"/><line style="stroke:#666666;stroke-width:1.0;stroke-dasharray:2.0,2.0;" x1="56.833" x2="386.6172" y1="247.7949" y2="247.7949"/><text fill="#333333" font-family="sans-serif" font-size="13" lengthAdjust="spacing" textLength="267.2109" x="68.833" y="243.0527">Subtree data (BINARY_STREAM, HEX, JSON)</text><text fill="#333333" font-family="sans-serif" font-size="10" lengthAdjust="spacing" textLength="155.4346" x="0" y="323.4395">Last Modified On: 24-Feb-2025</text><!--SRC=[fP5XYnCn48Q_vrSC5R65rWg2I3y8TzUkfxXtSjiF2i8ntSnUmwL9JQRLu_2_EvjT95j4GGTsoUwyy-HDtdXlt1u3xc23zVrTy0UdBxpr0PuKBuhNHQ7YBuMc1W-M2- -ubxnCbKam1F-jRxvAfTGpM59Z7C761qqXGYDTj1R8qeuSnsnUFWq_mAC2E4_g8Kl-dhfSfb8_L4QfnM7mzdynycPJcpqw_ZUKKZbYTBbUVuGBQ-IG8y3OBt-ZgIWSANnnOuoHUBvbtj-QtTwcrVCxFqdZhRHJ3X7LOSE1g68VA0dJgitXxMeDWRuUA78N0iHE2yQ1Dar3GGorhHrAB9q_cBt9je95eipxmVbYYt4Bu_DtLsStds-hzStgh9p2vUhJ5DvNrrSJXJMR8pBbTbN64thoruA9npL_dqBBp2Ox_sWPygErAj38A1b0pvYTUkq7EXtPI4E4zXJ1UHRMaVuAMqe_gPisRKNoQ3fnEJYQ0Fex73hvqtrbnFp6B3Njlfw5-m4blz9BO8OqNBi5F1KgZKTQpygod3r8ZIRg9m00]--></g></svg>
