<?xml version="1.0" encoding="us-ascii" standalone="no"?><svg xmlns="http://www.w3.org/2000/svg" xmlns:xlink="http://www.w3.org/1999/xlink" contentStyleType="text/css" height="465px" preserveAspectRatio="none" style="width:720px;height:465px;background:#FFFFFF;" version="1.1" viewBox="0 0 720 465" width="720px" zoomAndPan="magnify"><defs/><g><rect fill="#FFFFFF" height="87.9316" style="stroke:#181818;stroke-width:1.0;" width="10" x="363" y="84.2871"/><rect fill="#FFFFFF" height="177.8633" style="stroke:#181818;stroke-width:1.0;" width="10" x="363" y="201.5293"/><rect fill="#FFFFFF" height="29.3105" style="stroke:#181818;stroke-width:1.0;" width="10" x="653" y="113.5977"/><rect fill="#FFFFFF" height="29.3105" style="stroke:#181818;stroke-width:1.0;" width="10" x="653" y="230.8398"/><rect fill="#FFFFFF" height="29.3105" style="stroke:#181818;stroke-width:1.0;" width="10" x="653" y="313.7715"/><rect fill="none" height="75.9316" style="stroke:#000000;stroke-width:1.5;" width="450.5" x="264" y="275.1504"/><line style="stroke:#181818;stroke-width:0.5;stroke-dasharray:5.0,5.0;" x1="52" x2="52" y1="52.9766" y2="397.3926"/><line style="stroke:#181818;stroke-width:0.5;stroke-dasharray:5.0,5.0;" x1="368" x2="368" y1="52.9766" y2="397.3926"/><line style="stroke:#181818;stroke-width:0.5;stroke-dasharray:5.0,5.0;" x1="657.5" x2="657.5" y1="52.9766" y2="397.3926"/><rect fill="#E2E2F0" height="30.4883" rx="2.5" ry="2.5" style="stroke:#181818;stroke-width:0.5;" width="94" x="5" y="21.4883"/><text fill="#000000" font-family="sans-serif" font-size="14" lengthAdjust="spacing" textLength="80" x="12" y="42.0234">HTTP Client</text><rect fill="#E2E2F0" height="30.4883" rx="2.5" ry="2.5" style="stroke:#181818;stroke-width:0.5;" width="94" x="5" y="396.3926"/><text fill="#000000" font-family="sans-serif" font-size="14" lengthAdjust="spacing" textLength="80" x="12" y="416.9277">HTTP Client</text><rect fill="#E2E2F0" height="46.9766" rx="2.5" ry="2.5" style="stroke:#181818;stroke-width:0.5;" width="188" x="274" y="5"/><text fill="#000000" font-family="sans-serif" font-size="14" lengthAdjust="spacing" textLength="83" x="326.5" y="25.5352">HTTP Server</text><text fill="#000000" font-family="sans-serif" font-size="14" lengthAdjust="spacing" textLength="174" x="281" y="42.0234">(asset/http_impl/http.go)</text><rect fill="#E2E2F0" height="46.9766" rx="2.5" ry="2.5" style="stroke:#181818;stroke-width:0.5;" width="188" x="274" y="396.3926"/><text fill="#000000" font-family="sans-serif" font-size="14" lengthAdjust="spacing" textLength="83" x="326.5" y="416.9277">HTTP Server</text><text fill="#000000" font-family="sans-serif" font-size="14" lengthAdjust="spacing" textLength="174" x="281" y="433.416">(asset/http_impl/http.go)</text><rect fill="#E2E2F0" height="30.4883" rx="2.5" ry="2.5" style="stroke:#181818;stroke-width:0.5;" width="93" x="611.5" y="21.4883"/><text fill="#000000" font-family="sans-serif" font-size="14" lengthAdjust="spacing" textLength="79" x="618.5" y="42.0234">UTXO Store</text><rect fill="#E2E2F0" height="30.4883" rx="2.5" ry="2.5" style="stroke:#181818;stroke-width:0.5;" width="93" x="611.5" y="396.3926"/><text fill="#000000" font-family="sans-serif" font-size="14" lengthAdjust="spacing" textLength="79" x="618.5" y="416.9277">UTXO Store</text><rect fill="#FFFFFF" height="87.9316" style="stroke:#181818;stroke-width:1.0;" width="10" x="363" y="84.2871"/><rect fill="#FFFFFF" height="177.8633" style="stroke:#181818;stroke-width:1.0;" width="10" x="363" y="201.5293"/><rect fill="#FFFFFF" height="29.3105" style="stroke:#181818;stroke-width:1.0;" width="10" x="653" y="113.5977"/><rect fill="#FFFFFF" height="29.3105" style="stroke:#181818;stroke-width:1.0;" width="10" x="653" y="230.8398"/><rect fill="#FFFFFF" height="29.3105" style="stroke:#181818;stroke-width:1.0;" width="10" x="653" y="313.7715"/><polygon fill="#181818" points="351,80.2871,361,84.2871,351,88.2871,355,84.2871" style="stroke:#181818;stroke-width:1.0;"/><line style="stroke:#181818;stroke-width:1.0;" x1="52" x2="357" y1="84.2871" y2="84.2871"/><text fill="#000000" font-family="sans-serif" font-size="13" lengthAdjust="spacing" textLength="292" x="59" y="79.5449">GET /utxo/:hash (BINARY_STREAM, HEX, JSON)</text><polygon fill="#181818" points="641,109.5977,651,113.5977,641,117.5977,645,113.5977" style="stroke:#181818;stroke-width:1.0;"/><line style="stroke:#181818;stroke-width:1.0;" x1="373" x2="647" y1="113.5977" y2="113.5977"/><text fill="#000000" font-family="sans-serif" font-size="13" lengthAdjust="spacing" textLength="215" x="380" y="108.8555">Get(ctx, &amp;utxo.Spend{Hash: hash})</text><polygon fill="#181818" points="384,138.9082,374,142.9082,384,146.9082,380,142.9082" style="stroke:#181818;stroke-width:1.0;"/><line style="stroke:#181818;stroke-width:1.0;stroke-dasharray:2.0,2.0;" x1="378" x2="657" y1="142.9082" y2="142.9082"/><text fill="#000000" font-family="sans-serif" font-size="13" lengthAdjust="spacing" textLength="66" x="390" y="138.166">UTXO data</text><polygon fill="#181818" points="63,168.2188,53,172.2188,63,176.2188,59,172.2188" style="stroke:#181818;stroke-width:1.0;"/><line style="stroke:#181818;stroke-width:1.0;stroke-dasharray:2.0,2.0;" x1="57" x2="367" y1="172.2188" y2="172.2188"/><text fill="#000000" font-family="sans-serif" font-size="13" lengthAdjust="spacing" textLength="138" x="69" y="167.4766">Response (UTXO data)</text><polygon fill="#181818" points="351,197.5293,361,201.5293,351,205.5293,355,201.5293" style="stroke:#181818;stroke-width:1.0;"/><line style="stroke:#181818;stroke-width:1.0;" x1="52" x2="357" y1="201.5293" y2="201.5293"/><text fill="#000000" font-family="sans-serif" font-size="13" lengthAdjust="spacing" textLength="146" x="59" y="196.7871">GET /utxos/:hash/json</text><polygon fill="#181818" points="641,226.8398,651,230.8398,641,234.8398,645,230.8398" style="stroke:#181818;stroke-width:1.0;"/><line style="stroke:#181818;stroke-width:1.0;" x1="373" x2="647" y1="230.8398" y2="230.8398"/><text fill="#000000" font-family="sans-serif" font-size="13" lengthAdjust="spacing" textLength="87" x="380" y="226.0977">Get(ctx, hash)</text><polygon fill="#181818" points="384,256.1504,374,260.1504,384,264.1504,380,260.1504" style="stroke:#181818;stroke-width:1.0;"/><line style="stroke:#181818;stroke-width:1.0;stroke-dasharray:2.0,2.0;" x1="378" x2="657" y1="260.1504" y2="260.1504"/><text fill="#000000" font-family="sans-serif" font-size="13" lengthAdjust="spacing" textLength="83" x="390" y="255.4082">Tx Meta Data</text><path d="M264,275.1504 L338,275.1504 L338,282.4609 L328,292.4609 L264,292.4609 L264,275.1504 " fill="#EEEEEE" style="stroke:#000000;stroke-width:1.5;"/><rect fill="none" height="75.9316" style="stroke:#000000;stroke-width:1.5;" width="450.5" x="264" y="275.1504"/><text fill="#000000" font-family="sans-serif" font-size="13" font-weight="bold" lengthAdjust="spacing" textLength="29" x="279" y="288.7188">loop</text><text fill="#000000" font-family="sans-serif" font-size="11" font-weight="bold" lengthAdjust="spacing" textLength="114" x="353" y="287.7852">[For each TX output]</text><polygon fill="#181818" points="641,309.7715,651,313.7715,641,317.7715,645,313.7715" style="stroke:#181818;stroke-width:1.0;"/><line style="stroke:#181818;stroke-width:1.0;" x1="373" x2="647" y1="313.7715" y2="313.7715"/><text fill="#000000" font-family="sans-serif" font-size="13" lengthAdjust="spacing" textLength="261" x="380" y="309.0293">Get(ctx, &amp;utxo.Spend{Hash: output hash})</text><polygon fill="#181818" points="384,339.082,374,343.082,384,347.082,380,343.082" style="stroke:#181818;stroke-width:1.0;"/><line style="stroke:#181818;stroke-width:1.0;stroke-dasharray:2.0,2.0;" x1="378" x2="657" y1="343.082" y2="343.082"/><text fill="#000000" font-family="sans-serif" font-size="13" lengthAdjust="spacing" textLength="66" x="390" y="338.3398">UTXO data</text><polygon fill="#181818" points="63,375.3926,53,379.3926,63,383.3926,59,379.3926" style="stroke:#181818;stroke-width:1.0;"/><line style="stroke:#181818;stroke-width:1.0;stroke-dasharray:2.0,2.0;" x1="57" x2="367" y1="379.3926" y2="379.3926"/><text fill="#000000" font-family="sans-serif" font-size="13" lengthAdjust="spacing" textLength="158" x="69" y="374.6504">Response (List of UTXOs)</text><text fill="#888888" font-family="sans-serif" font-size="10" lengthAdjust="spacing" textLength="158" x="0" y="455.0371">Last Modified On: 12-June-2024</text><!--SRC=[dL9DJy905BplhtZne2K1giHJ3oOeA10-32q99YPaRH-sfdRNxYl16F-xkriq1JMWFMswC_FcpQpaEILX8db6SDGBWbkuIXFCw0YusXoP_8RnCLzXVfyvN2aaDoQIY-HPflRKV1GrIpVG4hajCGlc4_19v6XXCreBnax0bnWcooG4U__m2Z5NCUJuKg0YLdg1naL55ZouwGRW5bh1zIpSkUoFszExXHzCk-rH7NhTUHq6_cHSOpoaPCK9gxugMbhPE36QI4v8wpeS6-6czfL5RpsjxbbBxnKfwztI6hlEx1OH9yuYtCPNXshMPZCFfgYao1I2yyMjLSaLtpekxTBEK2QgO0tzpjwCL1cI-wH4zeyu3FUmtRMT4HA7pa_hirG82TSY1tqHGp07KP0iY87-_bf8IVtinIXi3pD_zlLZCBiczGHsG573H168PLd4hsMbk2HO2a5QQCWrOoGY_T8nWadcmLchCIWoRBHEM-Vi0m00]--></g></svg>
