<svg contentStyleType="text/css" height="333" preserveAspectRatio="none" viewBox="0 0 608 333" width="608" xmlns="http://www.w3.org/2000/svg" zoomAndPan="magnify"><path d="m0 0h608v333h-608z" fill="#f0f8ff"/><path d="m382.6172 84.2871h10v163.5078h-10z" fill="#fff" stroke="#181818"/><path d="m536.6265 113.5977h10v112.8867h-10z" fill="#fff" stroke="#181818"/><path d="m283.8623 128.5977h318.0186v90.8867h-318.0186z" fill="none" stroke="#000" stroke-width="1.5"/><g stroke-width=".5"><path d="m51 52.9766v212.8183" stroke="#181818" stroke-dasharray="5 5"/><path d="m386.8623 52.9766v212.8183" stroke="#181818" stroke-dasharray="5 5"/><path d="m541.3721 52.9766v212.8183" stroke="#181818" stroke-dasharray="5 5"/><rect fill="#ddd" height="30.4883" rx="2.5" stroke="#666" width="93.666" x="5" y="21.4883"/></g><text fill="#333" font-family="sans-serif" font-size="14" lengthAdjust="spacing" textLength="79.666" x="12" y="42.0234">HTTP Client</text><rect fill="#ddd" height="30.4883" rx="2.5" stroke="#666" stroke-width=".5" width="93.666" x="5" y="264.7949"/><text fill="#333" font-family="sans-serif" font-size="14" lengthAdjust="spacing" textLength="79.666" x="12" y="285.3301">HTTP Client</text><rect fill="#ddd" height="46.9766" rx="2.5" stroke="#666" stroke-width=".5" width="187.5098" x="293.8623" y="5"/><text fill="#333" font-family="sans-serif" font-size="14" lengthAdjust="spacing" textLength="82.0039" x="346.6152" y="25.5352">HTTP Server</text><text fill="#333" font-family="sans-serif" font-size="14" lengthAdjust="spacing" textLength="173.5098" x="300.8623" y="42.0234">(asset/http_impl/http.go)</text><rect fill="#ddd" height="46.9766" rx="2.5" stroke="#666" stroke-width=".5" width="187.5098" x="293.8623" y="264.7949"/><text fill="#333" font-family="sans-serif" font-size="14" lengthAdjust="spacing" textLength="82.0039" x="346.6152" y="285.3301">HTTP Server</text><text fill="#333" font-family="sans-serif" font-size="14" lengthAdjust="spacing" textLength="173.5098" x="300.8623" y="301.8184">(asset/http_impl/http.go)</text><rect fill="#ddd" height="30.4883" rx="2.5" stroke="#666" stroke-width=".5" width="100.5088" x="491.3721" y="21.4883"/><text fill="#333" font-family="sans-serif" font-size="14" lengthAdjust="spacing" textLength="86.5088" x="498.3721" y="42.0234">SubtreeStore</text><rect fill="#ddd" height="30.4883" rx="2.5" stroke="#666" stroke-width=".5" width="100.5088" x="491.3721" y="264.7949"/><text fill="#333" font-family="sans-serif" font-size="14" lengthAdjust="spacing" textLength="86.5088" x="498.3721" y="285.3301">SubtreeStore</text><path d="m382.6172 84.2871h10v163.5078h-10z" fill="#fff" stroke="#181818"/><path d="m536.6265 113.5977h10v112.8867h-10z" fill="#fff" stroke="#181818"/><path d="m370.6172 80.2871 10 4-10 4 4-4z" fill="#666" stroke="#666"/><path d="m51.833 84.2871h324.7842" stroke="#666"/><text fill="#333" font-family="sans-serif" font-size="13" lengthAdjust="spacing" textLength="311.7842" x="58.833" y="79.5449">GET /subtree/:hash (BINARY_STREAM, HEX, JSON)</text><path d="m524.6265 109.5977 10 4-10 4 4-4z" fill="#666" stroke="#666"/><path d="m392.6172 113.5977h138.0093" stroke="#666"/><text fill="#333" font-family="sans-serif" font-size="13" lengthAdjust="spacing" textLength="87.6167" x="399.6172" y="108.8555">Get(ctx, hash)</text><path d="m283.8623 128.5977h62.1387v7.3105l-10 10h-52.1387z" fill="#eee" stroke="#000" stroke-width="1.5"/><path d="m283.8623 128.5977h318.0186v90.8867h-318.0186z" fill="none" stroke="#000" stroke-width="1.5"/><text fill="#333" font-family="sans-serif" font-size="13" font-weight="bold" lengthAdjust="spacing" textLength="17.1387" x="298.8623" y="142.166">alt</text><text fill="#333" font-family="sans-serif" font-size="11" font-weight="bold" lengthAdjust="spacing" textLength="132.3545" x="361.001" y="141.2324">[SubtreeStore has data]</text><path d="m403.6172 163.2188-10 4 10 4-4-4z" fill="#666" stroke="#666"/><path d="m397.6172 167.2188h138.0093" stroke="#666" stroke-dasharray="2 2"/><text fill="#333" font-family="sans-serif" font-size="13" lengthAdjust="spacing" textLength="79.4346" x="409.6172" y="162.4766">Subtree data</text><path d="m283.8623 176.2188h318.0186" stroke="#000" stroke-dasharray="2 2"/><text fill="#333" font-family="sans-serif" font-size="11" font-weight="bold" lengthAdjust="spacing" textLength="192.0435" x="288.8623" y="186.8535">[SubtreeStore does not have data]</text><path d="m403.6172 207.4844-10 4 10 4-4-4z" fill="#666" stroke="#666"/><path d="m397.6172 211.4844h138.0093" stroke="#666" stroke-dasharray="2 2"/><text fill="#333" font-family="sans-serif" font-size="13" lengthAdjust="spacing" textLength="95.1831" x="409.6172" y="206.7422">Data not found</text><path d="m62.833 243.7949-10 4 10 4-4-4z" fill="#666" stroke="#666"/><path d="m56.833 247.7949h329.7842" stroke="#666" stroke-dasharray="2 2"/><text fill="#333" font-family="sans-serif" font-size="13" lengthAdjust="spacing" textLength="267.2109" x="68.833" y="243.0527">Subtree data (BINARY_STREAM, HEX, JSON)</text><text fill="#333" font-family="sans-serif" font-size="10" lengthAdjust="spacing" textLength="155.4346" y="323.4395">Last Modified On: 24-Feb-2025</text></svg>
