<svg contentStyleType="text/css" height="925" preserveAspectRatio="none" viewBox="0 0 1479 925" width="1479" xmlns="http://www.w3.org/2000/svg" zoomAndPan="magnify"><path d="m0 0h1479v925h-1479z" fill="#f0f8ff"/><g stroke="#181818"><path d="m529.2744 169.9082h10v146.5527h-10z" fill="#fff"/><path d="m529.2744 431.3926h10v146.5527h-10z" fill="#fff"/><path d="m529.2744 692.877h10v146.5527h-10z" fill="#fff"/><path d="m962.7979 199.2188h10v87.9316h-10z" fill="#fff"/><path d="m962.7979 460.7031h10v87.9316h-10z" fill="#fff"/><path d="m962.7979 722.1875h10v87.9316h-10z" fill="#fff"/><path d="m1397.6099 228.5293h10v29.3105h-10z" fill="#fff"/><path d="m1397.6099 490.0137h10v29.3105h-10z" fill="#fff"/><path d="m1397.6099 751.498h10v29.3105h-10z" fill="#fff"/><path d="m69 52.9766v804.4531" stroke-dasharray="5 5" stroke-width=".5"/><path d="m533.8984 52.9766v804.4531" stroke-dasharray="5 5" stroke-width=".5"/><path d="m967.2529 52.9766v804.4531" stroke-dasharray="5 5" stroke-width=".5"/><path d="m1402.4531 52.9766v804.4531" stroke-dasharray="5 5" stroke-width=".5"/></g><rect fill="#ddd" height="30.4883" rx="2.5" stroke="#666" stroke-width=".5" width="128.2627" x="5" y="21.4883"/><text fill="#333" font-family="sans-serif" font-size="14" lengthAdjust="spacing" textLength="114.2627" x="12" y="42.0234">Coinbase Service</text><rect fill="#ddd" height="30.4883" rx="2.5" stroke="#666" stroke-width=".5" width="128.2627" x="5" y="856.4297"/><text fill="#333" font-family="sans-serif" font-size="14" lengthAdjust="spacing" textLength="114.2627" x="12" y="876.9648">Coinbase Service</text><rect fill="#ddd" height="46.9766" rx="2.5" stroke="#666" stroke-width=".5" width="126.752" x="470.8984" y="5"/><text fill="#333" font-family="sans-serif" font-size="14" lengthAdjust="spacing" textLength="80.9033" x="493.8228" y="25.5352">Asset Client</text><text fill="#333" font-family="sans-serif" font-size="14" lengthAdjust="spacing" textLength="112.752" x="477.8984" y="42.0234">(asset/Client.go)</text><rect fill="#ddd" height="46.9766" rx="2.5" stroke="#666" stroke-width=".5" width="126.752" x="470.8984" y="856.4297"/><text fill="#333" font-family="sans-serif" font-size="14" lengthAdjust="spacing" textLength="80.9033" x="493.8228" y="876.9648">Asset Client</text><text fill="#333" font-family="sans-serif" font-size="14" lengthAdjust="spacing" textLength="112.752" x="477.8984" y="893.4531">(asset/Client.go)</text><rect fill="#ddd" height="46.9766" rx="2.5" stroke="#666" stroke-width=".5" width="129.0898" x="903.2529" y="5"/><text fill="#333" font-family="sans-serif" font-size="14" lengthAdjust="spacing" textLength="83.2412" x="926.1772" y="25.5352">Asset Server</text><text fill="#333" font-family="sans-serif" font-size="14" lengthAdjust="spacing" textLength="115.0898" x="910.2529" y="42.0234">(asset/Server.go)</text><rect fill="#ddd" height="46.9766" rx="2.5" stroke="#666" stroke-width=".5" width="129.0898" x="903.2529" y="856.4297"/><text fill="#333" font-family="sans-serif" font-size="14" lengthAdjust="spacing" textLength="83.2412" x="926.1772" y="876.9648">Asset Server</text><text fill="#333" font-family="sans-serif" font-size="14" lengthAdjust="spacing" textLength="115.0898" x="910.2529" y="893.4531">(asset/Server.go)</text><rect fill="#ddd" height="30.4883" rx="2.5" stroke="#666" stroke-width=".5" width="130.3135" x="1337.4531" y="21.4883"/><text fill="#333" font-family="sans-serif" font-size="14" lengthAdjust="spacing" textLength="116.3135" x="1344.4531" y="42.0234">Blockchain Client</text><rect fill="#ddd" height="30.4883" rx="2.5" stroke="#666" stroke-width=".5" width="130.3135" x="1337.4531" y="856.4297"/><text fill="#333" font-family="sans-serif" font-size="14" lengthAdjust="spacing" textLength="116.3135" x="1344.4531" y="876.9648">Blockchain Client</text><path d="m529.2744 169.9082h10v146.5527h-10z" fill="#fff" stroke="#181818"/><path d="m529.2744 431.3926h10v146.5527h-10z" fill="#fff" stroke="#181818"/><path d="m529.2744 692.877h10v146.5527h-10z" fill="#fff" stroke="#181818"/><path d="m962.7979 199.2188h10v87.9316h-10z" fill="#fff" stroke="#181818"/><path d="m962.7979 460.7031h10v87.9316h-10z" fill="#fff" stroke="#181818"/><path d="m962.7979 722.1875h10v87.9316h-10z" fill="#fff" stroke="#181818"/><path d="m1397.6099 228.5293h10v29.3105h-10z" fill="#fff" stroke="#181818"/><path d="m1397.6099 490.0137h10v29.3105h-10z" fill="#fff" stroke="#181818"/><path d="m1397.6099 751.498h10v29.3105h-10z" fill="#fff" stroke="#181818"/><path d="m0 83.6318h1472.7666v3h-1472.7666z" fill="#eee" stroke="#eee"/><path d="m0 83.6318h1472.7666" stroke="#000"/><path d="m0 86.6318h1472.7666" stroke="#000"/><path d="m665.4434 72.9766h141.8799v23.3105h-141.8799z" fill="#eee" stroke="#000" stroke-width="2"/><text fill="#333" font-family="sans-serif" font-size="13" font-weight="bold" lengthAdjust="spacing" textLength="123.5952" x="671.4434" y="89.5449">Get Block Scenario</text><path d="m69.1313 127.5977h42" stroke="#666"/><path d="m111.1313 127.5977v13" stroke="#666"/><path d="m70.1313 140.5977h41" stroke="#666"/><path d="m80.1313 136.5977-10 4 10 4-4-4z" fill="#666" stroke="#666"/><text fill="#333" font-family="sans-serif" font-size="13" lengthAdjust="spacing" textLength="170.2378" x="76.1313" y="122.8555">catchup() or processBlock()</text><path d="m517.2744 165.9082 10 4-10 4 4-4z" fill="#666" stroke="#666"/><path d="m69.1313 169.9082h454.1431" stroke="#666"/><text fill="#333" font-family="sans-serif" font-size="13" lengthAdjust="spacing" textLength="192.0928" x="76.1313" y="165.166">gRPC getBlock(ctx, blockHash)</text><path d="m950.7979 195.2188 10 4-10 4 4-4z" fill="#666" stroke="#666"/><path d="m539.2744 199.2188h417.5235" stroke="#666"/><text fill="#333" font-family="sans-serif" font-size="13" lengthAdjust="spacing" textLength="155.4731" x="546.2744" y="194.4766">getBlock(ctx, blockHash)</text><path d="m1385.6099 224.5293 10 4-10 4 4-4z" fill="#666" stroke="#666"/><path d="m972.7979 228.5293h418.812" stroke="#666"/><text fill="#333" font-family="sans-serif" font-size="13" lengthAdjust="spacing" textLength="156.7617" x="979.7979" y="223.7871">GetBlock(ctx, blockHash)</text><path d="m983.7979 253.8398-10 4 10 4-4-4z" fill="#666" stroke="#666"/><path d="m977.7979 257.8398h423.812" stroke="#666" stroke-dasharray="2 2"/><text fill="#333" font-family="sans-serif" font-size="13" lengthAdjust="spacing" textLength="63.1401" x="989.7979" y="253.0977">blockData</text><path d="m550.2744 283.1504-10 4 10 4-4-4z" fill="#666" stroke="#666"/><path d="m544.2744 287.1504h422.5235" stroke="#666" stroke-dasharray="2 2"/><text fill="#333" font-family="sans-serif" font-size="13" lengthAdjust="spacing" textLength="63.1401" x="556.2744" y="282.4082">blockData</text><path d="m80.1313 312.4609-10 4 10 4-4-4z" fill="#666" stroke="#666"/><path d="m74.1313 316.4609h459.1431" stroke="#666" stroke-dasharray="2 2"/><text fill="#333" font-family="sans-serif" font-size="13" lengthAdjust="spacing" textLength="63.1401" x="86.1313" y="311.7188">blockData</text><path d="m0 345.1162h1472.7666v3h-1472.7666z" fill="#eee" stroke="#eee"/><path d="m0 345.1162h1472.7666" stroke="#000"/><path d="m0 348.1162h1472.7666" stroke="#000"/><path d="m623.1743 334.4609h226.418v23.3105h-226.418z" fill="#eee" stroke="#000" stroke-width="2"/><text fill="#333" font-family="sans-serif" font-size="13" font-weight="bold" lengthAdjust="spacing" textLength="208.1333" x="629.1743" y="351.0293">Get Best Block Header Scenario</text><path d="m69.1313 389.082h42" stroke="#666"/><path d="m111.1313 389.082v13" stroke="#666"/><path d="m70.1313 402.082h41" stroke="#666"/><path d="m80.1313 398.082-10 4 10 4-4-4z" fill="#666" stroke="#666"/><text fill="#333" font-family="sans-serif" font-size="13" lengthAdjust="spacing" textLength="124.4014" x="76.1313" y="384.3398">init() or storeBlock()</text><path d="m517.2744 427.3926 10 4-10 4 4-4z" fill="#666" stroke="#666"/><path d="m69.1313 431.3926h454.1431" stroke="#666"/><text fill="#333" font-family="sans-serif" font-size="13" lengthAdjust="spacing" textLength="189.1855" x="76.1313" y="426.6504">gRPC getBestBlockHeader(ctx)</text><path d="m950.7979 456.7031 10 4-10 4 4-4z" fill="#666" stroke="#666"/><path d="m539.2744 460.7031h417.5235" stroke="#666"/><text fill="#333" font-family="sans-serif" font-size="13" lengthAdjust="spacing" textLength="152.5659" x="546.2744" y="455.9609">getBestBlockHeader(ctx)</text><path d="m1385.6099 486.0137 10 4-10 4 4-4z" fill="#666" stroke="#666"/><path d="m972.7979 490.0137h418.812" stroke="#666"/><text fill="#333" font-family="sans-serif" font-size="13" lengthAdjust="spacing" textLength="153.8545" x="979.7979" y="485.2715">GetBestBlockHeader(ctx)</text><path d="m983.7979 515.3242-10 4 10 4-4-4z" fill="#666" stroke="#666"/><path d="m977.7979 519.3242h423.812" stroke="#666" stroke-dasharray="2 2"/><text fill="#333" font-family="sans-serif" font-size="13" lengthAdjust="spacing" textLength="134.0688" x="989.7979" y="514.582">bestBlockHeaderData</text><path d="m550.2744 544.6348-10 4 10 4-4-4z" fill="#666" stroke="#666"/><path d="m544.2744 548.6348h422.5235" stroke="#666" stroke-dasharray="2 2"/><text fill="#333" font-family="sans-serif" font-size="13" lengthAdjust="spacing" textLength="134.0688" x="556.2744" y="543.8926">bestBlockHeaderData</text><path d="m80.1313 573.9453-10 4 10 4-4-4z" fill="#666" stroke="#666"/><path d="m74.1313 577.9453h459.1431" stroke="#666" stroke-dasharray="2 2"/><text fill="#333" font-family="sans-serif" font-size="13" lengthAdjust="spacing" textLength="134.0688" x="86.1313" y="573.2031">bestBlockHeaderData</text><path d="m0 606.6006h1472.7666v3h-1472.7666z" fill="#eee" stroke="#eee"/><path d="m0 606.6006h1472.7666" stroke="#000"/><path d="m0 609.6006h1472.7666" stroke="#000"/><path d="m635.8538 595.9453h201.0591v23.3105h-201.0591z" fill="#eee" stroke="#000" stroke-width="2"/><text fill="#333" font-family="sans-serif" font-size="13" font-weight="bold" lengthAdjust="spacing" textLength="182.7744" x="641.8538" y="612.5137">Get Block Headers Scenario</text><path d="m69.1313 650.5664h42" stroke="#666"/><path d="m111.1313 650.5664v13" stroke="#666"/><path d="m70.1313 663.5664h41" stroke="#666"/><path d="m80.1313 659.5664-10 4 10 4-4-4z" fill="#666" stroke="#666"/><text fill="#333" font-family="sans-serif" font-size="13" lengthAdjust="spacing" textLength="58.1318" x="76.1313" y="645.8242">catchup()</text><path d="m517.2744 688.877 10 4-10 4 4-4z" fill="#666" stroke="#666"/><path d="m69.1313 692.877h454.1431" stroke="#666"/><text fill="#333" font-family="sans-serif" font-size="13" lengthAdjust="spacing" textLength="441.1431" x="76.1313" y="688.1348">gRPC getBlockHeaders(ctx, fromBlockHeaderHash, numberOfHeaders)</text><path d="m950.7979 718.1875 10 4-10 4 4-4z" fill="#666" stroke="#666"/><path d="m539.2744 722.1875h417.5235" stroke="#666"/><text fill="#333" font-family="sans-serif" font-size="13" lengthAdjust="spacing" textLength="404.5234" x="546.2744" y="717.4453">getBlockHeaders(ctx, fromBlockHeaderHash, numberOfHeaders)</text><path d="m1385.6099 747.498 10 4-10 4 4-4z" fill="#666" stroke="#666"/><path d="m972.7979 751.498h418.812" stroke="#666"/><text fill="#333" font-family="sans-serif" font-size="13" lengthAdjust="spacing" textLength="405.812" x="979.7979" y="746.7559">GetBlockHeaders(ctx, fromBlockHeaderHash, numberOfHeaders)</text><path d="m983.7979 776.8086-10 4 10 4-4-4z" fill="#666" stroke="#666"/><path d="m977.7979 780.8086h423.812" stroke="#666" stroke-dasharray="2 2"/><text fill="#333" font-family="sans-serif" font-size="13" lengthAdjust="spacing" textLength="114.4863" x="989.7979" y="776.0664">blockHeadersData</text><path d="m550.2744 806.1191-10 4 10 4-4-4z" fill="#666" stroke="#666"/><path d="m544.2744 810.1191h422.5235" stroke="#666" stroke-dasharray="2 2"/><text fill="#333" font-family="sans-serif" font-size="13" lengthAdjust="spacing" textLength="114.4863" x="556.2744" y="805.377">blockHeadersData</text><path d="m80.1313 835.4297-10 4 10 4-4-4z" fill="#666" stroke="#666"/><path d="m74.1313 839.4297h459.1431" stroke="#666" stroke-dasharray="2 2"/><text fill="#333" font-family="sans-serif" font-size="13" lengthAdjust="spacing" textLength="114.4863" x="86.1313" y="834.6875">blockHeadersData</text><text fill="#333" font-family="sans-serif" font-size="10" lengthAdjust="spacing" textLength="155.4346" y="915.0742">Last Modified On: 24-Feb-2025</text></svg>
