<svg contentStyleType="text/css" height="312" preserveAspectRatio="none" viewBox="0 0 332 312" width="332" xmlns="http://www.w3.org/2000/svg" zoomAndPan="magnify"><path d="m0 0h332v312h-332z" fill="#f0f8ff"/><g stroke="#181818"><path d="m73.7017 106.7988h10v105.9316h-10z" fill="#fff"/><path d="m78.7017 149.1094h10v63.6211h-10z" fill="#fff"/><path d="m292.3867 183.4199h10v29.3105h-10z" fill="#fff"/><path d="m78 67.4883v163.2422" stroke-dasharray="5 5" stroke-width=".5"/><path d="m297.0005 67.4883v163.2422" stroke-dasharray="5 5" stroke-width=".5"/></g><rect fill="#ddd" height="30.4883" rx="2.5" stroke="#666" stroke-width=".5" width="147.4033" x="5" y="36"/><text fill="#333" font-family="sans-serif" font-size="14" lengthAdjust="spacing" textLength="133.4033" x="12" y="56.5352">Propagation Service</text><rect fill="#ddd" height="30.4883" rx="2.5" stroke="#666" stroke-width=".5" width="147.4033" x="5" y="229.7305"/><text fill="#333" font-family="sans-serif" font-size="14" lengthAdjust="spacing" textLength="133.4033" x="12" y="250.2656">Propagation Service</text><text fill="#333" font-family="sans-serif" font-size="14" lengthAdjust="spacing" textLength="56.7725" x="266.0005" y="64.5352">Tx Store</text><path d="m279.3867 15c0-10 18-10 18-10s18 0 18 10v26c0 10-18 10-18 10s-18 0-18-10z" fill="#e2e2f0" stroke="#181818" stroke-width="1.5"/><path d="m279.3867 15c0 10 18 10 18 10s18 0 18-10" fill="none" stroke="#181818" stroke-width="1.5"/><text fill="#333" font-family="sans-serif" font-size="14" lengthAdjust="spacing" textLength="56.7725" x="266.0005" y="243.2656">Tx Store</text><path d="m279.3867 256.2188c0-10 18-10 18-10s18 0 18 10v26c0 10-18 10-18 10s-18 0-18-10z" fill="#e2e2f0" stroke="#181818" stroke-width="1.5"/><path d="m279.3867 256.2188c0 10 18 10 18 10s18 0 18-10" fill="none" stroke="#181818" stroke-width="1.5"/><path d="m73.7017 106.7988h10v105.9316h-10z" fill="#fff" stroke="#181818"/><path d="m78.7017 149.1094h10v63.6211h-10z" fill="#fff" stroke="#181818"/><path d="m292.3867 183.4199h10v29.3105h-10z" fill="#fff" stroke="#181818"/><path d="m78.7017 93.7988h47" stroke="#666"/><path d="m125.7017 93.7988v13" stroke="#666"/><path d="m84.7017 106.7988h41" stroke="#666"/><path d="m94.7017 102.7988-10 4 10 4-4-4z" fill="#666" stroke="#666"/><text fill="#333" font-family="sans-serif" font-size="13" lengthAdjust="spacing" textLength="150.7695" x="90.7017" y="89.0566">ProcessTransaction(req)</text><path d="m83.7017 136.1094h47" stroke="#666"/><path d="m130.7017 136.1094v13" stroke="#666"/><path d="m89.7017 149.1094h41" stroke="#666"/><path d="m99.7017 145.1094-10 4 10 4-4-4z" fill="#666" stroke="#666"/><text fill="#333" font-family="sans-serif" font-size="13" lengthAdjust="spacing" textLength="143.6538" x="95.7017" y="131.3672">storeTransaction(btTx)</text><path d="m280.3867 179.4199 10 4-10 4 4-4z" fill="#666" stroke="#666"/><path d="m88.7017 183.4199h197.685" stroke="#666"/><text fill="#333" font-family="sans-serif" font-size="13" lengthAdjust="spacing" textLength="184.6851" x="95.7017" y="178.6777">Set(txHash, txExtendedBytes)</text><path d="m89.7017 208.7305-10 4 10 4-4-4z" fill="#666" stroke="#666"/><path d="m83.7017 212.7305h212.685" stroke="#666" stroke-dasharray="2 2"/><text fill="#333" font-family="sans-serif" font-size="13" lengthAdjust="spacing" textLength="107.0469" x="95.7017" y="207.9883">Acknowledge Set</text><text fill="#333" font-family="sans-serif" font-size="10" lengthAdjust="spacing" textLength="155.4346" y="302.8867">Last Modified On: 24-Feb-2025</text></svg>
