<svg xmlns="http://www.w3.org/2000/svg" xmlns:xlink="http://www.w3.org/1999/xlink" contentStyleType="text/css" height="684px" preserveAspectRatio="none" style="width:962px;height:684px;background:#FFFFFF;" version="1.1" viewBox="0 0 962 684" width="962px" zoomAndPan="magnify"><defs/><g><rect fill="#FFFFFF" height="484.9688" style="stroke:#181818;stroke-width:1.0;" width="10" x="211.4092" y="98.7988"/><rect fill="#FFFFFF" height="426.3477" style="stroke:#181818;stroke-width:1.0;" width="10" x="436.374" y="128.1094"/><rect fill="none" height="164.8633" style="stroke:#000000;stroke-width:1.5;" width="600.0352" x="356.2173" y="260.3516"/><rect fill="none" height="91.2422" style="stroke:#000000;stroke-width:1.5;" width="580.0352" x="366.2173" y="326.9727"/><line style="stroke:#181818;stroke-width:0.5;stroke-dasharray:5.0,5.0;" x1="24" x2="24" y1="67.4883" y2="601.7676"/><line style="stroke:#181818;stroke-width:0.5;stroke-dasharray:5.0,5.0;" x1="216.293" x2="216.293" y1="67.4883" y2="601.7676"/><line style="stroke:#181818;stroke-width:0.5;stroke-dasharray:5.0,5.0;" x1="441.2173" x2="441.2173" y1="67.4883" y2="601.7676"/><line style="stroke:#181818;stroke-width:0.5;stroke-dasharray:5.0,5.0;" x1="747.0815" x2="747.0815" y1="67.4883" y2="601.7676"/><line style="stroke:#181818;stroke-width:0.5;stroke-dasharray:5.0,5.0;" x1="875.7944" x2="875.7944" y1="67.4883" y2="601.7676"/><rect fill="#E2E2F0" height="30.4883" rx="2.5" ry="2.5" style="stroke:#181818;stroke-width:0.5;" width="38.3291" x="5" y="36"/><text fill="#000000" font-family="sans-serif" font-size="14" lengthAdjust="spacing" textLength="24.3291" x="12" y="56.5352">P2P</text><rect fill="#E2E2F0" height="30.4883" rx="2.5" ry="2.5" style="stroke:#181818;stroke-width:0.5;" width="38.3291" x="5" y="600.7676"/><text fill="#000000" font-family="sans-serif" font-size="14" lengthAdjust="spacing" textLength="24.3291" x="12" y="621.3027">P2P</text><rect fill="#E2E2F0" height="30.4883" rx="2.5" ry="2.5" style="stroke:#181818;stroke-width:0.5;" width="98.2324" x="167.293" y="36"/><text fill="#000000" font-family="sans-serif" font-size="14" lengthAdjust="spacing" textLength="84.2324" x="174.293" y="56.5352">Alert Service</text><rect fill="#E2E2F0" height="30.4883" rx="2.5" ry="2.5" style="stroke:#181818;stroke-width:0.5;" width="98.2324" x="167.293" y="600.7676"/><text fill="#000000" font-family="sans-serif" font-size="14" lengthAdjust="spacing" textLength="84.2324" x="174.293" y="621.3027">Alert Service</text><rect fill="#E2E2F0" height="30.4883" rx="2.5" ry="2.5" style="stroke:#181818;stroke-width:0.5;" width="130.3135" x="376.2173" y="36"/><text fill="#000000" font-family="sans-serif" font-size="14" lengthAdjust="spacing" textLength="116.3135" x="383.2173" y="56.5352">Blockchain Client</text><rect fill="#E2E2F0" height="30.4883" rx="2.5" ry="2.5" style="stroke:#181818;stroke-width:0.5;" width="130.3135" x="376.2173" y="600.7676"/><text fill="#000000" font-family="sans-serif" font-size="14" lengthAdjust="spacing" textLength="116.3135" x="383.2173" y="621.3027">Blockchain Client</text><text fill="#000000" font-family="sans-serif" font-size="14" lengthAdjust="spacing" textLength="111.7129" x="689.0815" y="64.5352">Blockchain Store</text><path d="M729.938,15 C729.938,5 747.938,5 747.938,5 C747.938,5 765.938,5 765.938,15 L765.938,41 C765.938,51 747.938,51 747.938,51 C747.938,51 729.938,51 729.938,41 L729.938,15 " fill="#E2E2F0" style="stroke:#181818;stroke-width:1.5;"/><path d="M729.938,15 C729.938,25 747.938,25 747.938,25 C747.938,25 765.938,25 765.938,15 " fill="none" style="stroke:#181818;stroke-width:1.5;"/><text fill="#000000" font-family="sans-serif" font-size="14" lengthAdjust="spacing" textLength="111.7129" x="689.0815" y="614.3027">Blockchain Store</text><path d="M729.938,627.2559 C729.938,617.2559 747.938,617.2559 747.938,617.2559 C747.938,617.2559 765.938,617.2559 765.938,627.2559 L765.938,653.2559 C765.938,663.2559 747.938,663.2559 747.938,663.2559 C747.938,663.2559 729.938,663.2559 729.938,653.2559 L729.938,627.2559 " fill="#E2E2F0" style="stroke:#181818;stroke-width:1.5;"/><path d="M729.938,627.2559 C729.938,637.2559 747.938,637.2559 747.938,637.2559 C747.938,637.2559 765.938,637.2559 765.938,627.2559 " fill="none" style="stroke:#181818;stroke-width:1.5;"/><rect fill="#E2E2F0" height="30.4883" rx="2.5" ry="2.5" style="stroke:#181818;stroke-width:0.5;" width="119.458" x="816.7944" y="36"/><text fill="#000000" font-family="sans-serif" font-size="14" lengthAdjust="spacing" textLength="105.458" x="823.7944" y="56.5352">Block Assembly</text><rect fill="#E2E2F0" height="30.4883" rx="2.5" ry="2.5" style="stroke:#181818;stroke-width:0.5;" width="119.458" x="816.7944" y="600.7676"/><text fill="#000000" font-family="sans-serif" font-size="14" lengthAdjust="spacing" textLength="105.458" x="823.7944" y="621.3027">Block Assembly</text><rect fill="#FFFFFF" height="484.9688" style="stroke:#181818;stroke-width:1.0;" width="10" x="211.4092" y="98.7988"/><rect fill="#FFFFFF" height="426.3477" style="stroke:#181818;stroke-width:1.0;" width="10" x="436.374" y="128.1094"/><polygon fill="#181818" points="199.4092,94.7988,209.4092,98.7988,199.4092,102.7988,203.4092,98.7988" style="stroke:#181818;stroke-width:1.0;"/><line style="stroke:#181818;stroke-width:1.0;" x1="24.1646" x2="205.4092" y1="98.7988" y2="98.7988"/><text fill="#000000" font-family="sans-serif" font-size="13" lengthAdjust="spacing" textLength="168.2446" x="31.1646" y="94.0566">InvalidateBlock(blockHash)</text><polygon fill="#181818" points="424.374,124.1094,434.374,128.1094,424.374,132.1094,428.374,128.1094" style="stroke:#181818;stroke-width:1.0;"/><line style="stroke:#181818;stroke-width:1.0;" x1="221.4092" x2="430.374" y1="128.1094" y2="128.1094"/><text fill="#000000" font-family="sans-serif" font-size="13" lengthAdjust="spacing" textLength="195.9648" x="228.4092" y="123.3672">InvalidateBlock(ctx, blockHash)</text><polygon fill="#181818" points="735.938,153.4199,745.938,157.4199,735.938,161.4199,739.938,157.4199" style="stroke:#181818;stroke-width:1.0;"/><line style="stroke:#181818;stroke-width:1.0;" x1="446.374" x2="741.938" y1="157.4199" y2="157.4199"/><text fill="#000000" font-family="sans-serif" font-size="13" lengthAdjust="spacing" textLength="133.0532" x="453.374" y="152.6777">Mark block as invalid</text><polygon fill="#181818" points="457.374,182.7305,447.374,186.7305,457.374,190.7305,453.374,186.7305" style="stroke:#181818;stroke-width:1.0;"/><line style="stroke:#181818;stroke-width:1.0;stroke-dasharray:2.0,2.0;" x1="451.374" x2="746.938" y1="186.7305" y2="186.7305"/><text fill="#000000" font-family="sans-serif" font-size="13" lengthAdjust="spacing" textLength="128.4385" x="463.374" y="181.9883">Confirm invalidation</text><polygon fill="#181818" points="735.938,212.041,745.938,216.041,735.938,220.041,739.938,216.041" style="stroke:#181818;stroke-width:1.0;"/><line style="stroke:#181818;stroke-width:1.0;" x1="446.374" x2="741.938" y1="216.041" y2="216.041"/><text fill="#000000" font-family="sans-serif" font-size="13" lengthAdjust="spacing" textLength="277.564" x="453.374" y="211.2988">Retrieve transactions from invalidated block</text><polygon fill="#181818" points="457.374,241.3516,447.374,245.3516,457.374,249.3516,453.374,245.3516" style="stroke:#181818;stroke-width:1.0;"/><line style="stroke:#181818;stroke-width:1.0;stroke-dasharray:2.0,2.0;" x1="451.374" x2="746.938" y1="245.3516" y2="245.3516"/><text fill="#000000" font-family="sans-serif" font-size="13" lengthAdjust="spacing" textLength="123.0874" x="463.374" y="240.6094">Return transactions</text><path d="M356.2173,260.3516 L430.6641,260.3516 L430.6641,267.6621 L420.6641,277.6621 L356.2173,277.6621 L356.2173,260.3516 " fill="#EEEEEE" style="stroke:#000000;stroke-width:1.5;"/><rect fill="none" height="164.8633" style="stroke:#000000;stroke-width:1.5;" width="600.0352" x="356.2173" y="260.3516"/><text fill="#000000" font-family="sans-serif" font-size="13" font-weight="bold" lengthAdjust="spacing" textLength="29.4468" x="371.2173" y="273.9199">loop</text><text fill="#000000" font-family="sans-serif" font-size="11" font-weight="bold" lengthAdjust="spacing" textLength="237.2358" x="445.6641" y="272.9863">[for each transaction in invalidated block]</text><line style="stroke:#181818;stroke-width:1.0;" x1="446.374" x2="488.374" y1="298.9727" y2="298.9727"/><line style="stroke:#181818;stroke-width:1.0;" x1="488.374" x2="488.374" y1="298.9727" y2="311.9727"/><line style="stroke:#181818;stroke-width:1.0;" x1="447.374" x2="488.374" y1="311.9727" y2="311.9727"/><polygon fill="#181818" points="457.374,307.9727,447.374,311.9727,457.374,315.9727,453.374,311.9727" style="stroke:#181818;stroke-width:1.0;"/><text fill="#000000" font-family="sans-serif" font-size="13" lengthAdjust="spacing" textLength="125.3408" x="453.374" y="294.2305">Validate transaction</text><path d="M366.2173,326.9727 L428.356,326.9727 L428.356,334.2832 L418.356,344.2832 L366.2173,344.2832 L366.2173,326.9727 " fill="#EEEEEE" style="stroke:#000000;stroke-width:1.5;"/><rect fill="none" height="91.2422" style="stroke:#000000;stroke-width:1.5;" width="580.0352" x="366.2173" y="326.9727"/><text fill="#000000" font-family="sans-serif" font-size="13" font-weight="bold" lengthAdjust="spacing" textLength="17.1387" x="381.2173" y="340.541">alt</text><text fill="#000000" font-family="sans-serif" font-size="11" font-weight="bold" lengthAdjust="spacing" textLength="116.6118" x="443.356" y="339.6074">[transaction is valid]</text><polygon fill="#181818" points="864.5234,376.9043,874.5234,380.9043,864.5234,384.9043,868.5234,380.9043" style="stroke:#181818;stroke-width:1.0;"/><line style="stroke:#181818;stroke-width:1.0;" x1="446.374" x2="870.5234" y1="380.9043" y2="380.9043"/><text fill="#000000" font-family="sans-serif" font-size="13" lengthAdjust="spacing" textLength="122.2114" x="453.374" y="360.8516">Add transaction for</text><text fill="#000000" font-family="sans-serif" font-size="13" lengthAdjust="spacing" textLength="137.6934" x="453.374" y="376.1621">re-inclusion in blocks</text><polygon fill="#181818" points="457.374,406.2148,447.374,410.2148,457.374,414.2148,453.374,410.2148" style="stroke:#181818;stroke-width:1.0;"/><line style="stroke:#181818;stroke-width:1.0;stroke-dasharray:2.0,2.0;" x1="451.374" x2="875.5234" y1="410.2148" y2="410.2148"/><text fill="#000000" font-family="sans-serif" font-size="13" lengthAdjust="spacing" textLength="107.1294" x="463.374" y="405.4727">Confirm addition</text><polygon fill="#181818" points="735.938,449.5254,745.938,453.5254,735.938,457.5254,739.938,453.5254" style="stroke:#181818;stroke-width:1.0;"/><line style="stroke:#181818;stroke-width:1.0;" x1="446.374" x2="741.938" y1="453.5254" y2="453.5254"/><text fill="#000000" font-family="sans-serif" font-size="13" lengthAdjust="spacing" textLength="117.8188" x="453.374" y="448.7832">Get previous block</text><polygon fill="#181818" points="457.374,478.8359,447.374,482.8359,457.374,486.8359,453.374,482.8359" style="stroke:#181818;stroke-width:1.0;"/><line style="stroke:#181818;stroke-width:1.0;stroke-dasharray:2.0,2.0;" x1="451.374" x2="746.938" y1="482.8359" y2="482.8359"/><text fill="#000000" font-family="sans-serif" font-size="13" lengthAdjust="spacing" textLength="138.0996" x="463.374" y="478.0938">Return previous block</text><line style="stroke:#181818;stroke-width:1.0;" x1="446.374" x2="488.374" y1="512.1465" y2="512.1465"/><line style="stroke:#181818;stroke-width:1.0;" x1="488.374" x2="488.374" y1="512.1465" y2="525.1465"/><line style="stroke:#181818;stroke-width:1.0;" x1="447.374" x2="488.374" y1="525.1465" y2="525.1465"/><polygon fill="#181818" points="457.374,521.1465,447.374,525.1465,457.374,529.1465,453.374,525.1465" style="stroke:#181818;stroke-width:1.0;"/><text fill="#000000" font-family="sans-serif" font-size="13" lengthAdjust="spacing" textLength="191.147" x="453.374" y="507.4043">Set chain tip to previous block</text><polygon fill="#181818" points="232.4092,550.457,222.4092,554.457,232.4092,558.457,228.4092,554.457" style="stroke:#181818;stroke-width:1.0;"/><line style="stroke:#181818;stroke-width:1.0;stroke-dasharray:2.0,2.0;" x1="226.4092" x2="440.374" y1="554.457" y2="554.457"/><text fill="#000000" font-family="sans-serif" font-size="13" lengthAdjust="spacing" textLength="166.7339" x="238.4092" y="549.7148">Confirm block invalidation</text><polygon fill="#181818" points="35.1646,579.7676,25.1646,583.7676,35.1646,587.7676,31.1646,583.7676" style="stroke:#181818;stroke-width:1.0;"/><line style="stroke:#181818;stroke-width:1.0;stroke-dasharray:2.0,2.0;" x1="29.1646" x2="215.4092" y1="583.7676" y2="583.7676"/><text fill="#000000" font-family="sans-serif" font-size="13" lengthAdjust="spacing" textLength="159.1675" x="41.1646" y="579.0254">Return invalidation result</text><text fill="#888888" font-family="sans-serif" font-size="10" lengthAdjust="spacing" textLength="154.8389" x="0" y="673.9238">Last Modified On: 03-Oct-2024</text><!--SRC=[dLDVIyCm47_FfpW6We9zyN4Fmjo32XR5WK- -t9ehEvOb9RaL_VQcxQfDDsSnq9PUxdv_ahiAlN315Lg1sSlDommmGFogQhYnCEG5LkHhBgXDQIE7G9fxPronBJR85fQ6oKgR_nFjWagZu1e39GKhSPv6-Mti10KiGg3Tsdp-vFSHfQ83o6uJbNDuj3KQZiJKPb-kc_S3XisLmaAuZXkfBpNyQ_36Beun2_cuXbF0HmUWnf6KeBKzXnpzjiDhN7B7faPfa9tKjdIsPB_hgr3OsOcqhoIUgIOGZpOq9fmDK7etG2FT2Pke9aBklKq0bJBELL0w3uJ5PhWNQKumGLpdzVTiRuVA8MPRZaPIdW3TcS9X_OhVTzSS5bed6D70k_MKiItCFXpKjuf32jj3_75Xg3L_2oQhLVDCkxXx4gWyrUpsuJ_NCwfLqqvx5Lcx2HQkGDm4cAFfxCrtpPxqhAOpOvJEQ8IDi_zjPmW3diBUo10jdNP3fSIxT48UdZ08v4vpoR7xdkqSBffskfnfdULvddt6DRjIwWi0]--></g></svg>
