<svg contentStyleType="text/css" height="842" preserveAspectRatio="none" viewBox="0 0 1434 842" width="1434" xmlns="http://www.w3.org/2000/svg" zoomAndPan="magnify"><path d="m0 0h1434v842h-1434z" fill="#f0f8ff"/><g stroke="#181818"><path d="m42.3008 106.7988h10v643.9688h-10z" fill="#fff"/><path d="m47.3008 234.7305h10v170.2422h-10z" fill="#fff"/><path d="m47.3008 449.2832h10v285.4844h-10z" fill="#fff"/><path d="m47 67.4883v692.2793" stroke-dasharray="5 5" stroke-width=".5"/><path d="m339.9492 67.4883v692.2793" stroke-dasharray="5 5" stroke-width=".5"/><path d="m448.832 67.4883v692.2793" stroke-dasharray="5 5" stroke-width=".5"/><path d="m599.1455 67.4883v692.2793" stroke-dasharray="5 5" stroke-width=".5"/><path d="m743.6553 67.4883v692.2793" stroke-dasharray="5 5" stroke-width=".5"/><path d="m879.6758 67.4883v692.2793" stroke-dasharray="5 5" stroke-width=".5"/><path d="m1022.2617 67.4883v692.2793" stroke-dasharray="5 5" stroke-width=".5"/><path d="m1182.0674 67.4883v692.2793" stroke-dasharray="5 5" stroke-width=".5"/><path d="m1353.2275 67.4883v692.2793" stroke-dasharray="5 5" stroke-width=".5"/></g><rect fill="#ddd" height="30.4883" rx="2.5" stroke="#666" stroke-width=".5" width="84.6016" x="5" y="36"/><text fill="#333" font-family="sans-serif" font-size="14" lengthAdjust="spacing" textLength="70.6016" x="12" y="56.5352">P2P Server</text><rect fill="#ddd" height="30.4883" rx="2.5" stroke="#666" stroke-width=".5" width="84.6016" x="5" y="758.7676"/><text fill="#333" font-family="sans-serif" font-size="14" lengthAdjust="spacing" textLength="70.6016" x="12" y="779.3027">P2P Server</text><rect fill="#ddd" height="30.4883" rx="2.5" stroke="#666" stroke-width=".5" width="73.8828" x="303.9492" y="36"/><text fill="#333" font-family="sans-serif" font-size="14" lengthAdjust="spacing" textLength="59.8828" x="310.9492" y="56.5352">P2PNode</text><rect fill="#ddd" height="30.4883" rx="2.5" stroke="#666" stroke-width=".5" width="73.8828" x="303.9492" y="758.7676"/><text fill="#333" font-family="sans-serif" font-size="14" lengthAdjust="spacing" textLength="59.8828" x="310.9492" y="779.3027">P2PNode</text><text fill="#333" font-family="sans-serif" font-size="14" lengthAdjust="spacing" textLength="116.3135" x="387.832" y="64.5352">Blockchain Client</text><path d="m430.9888 15c0-10 18-10 18-10s18 0 18 10v26c0 10-18 10-18 10s-18 0-18-10z" fill="#e2e2f0" stroke="#181818" stroke-width="1.5"/><path d="m430.9888 15c0 10 18 10 18 10s18 0 18-10" fill="none" stroke="#181818" stroke-width="1.5"/><text fill="#333" font-family="sans-serif" font-size="14" lengthAdjust="spacing" textLength="116.3135" x="387.832" y="772.3027">Blockchain Client</text><path d="m430.9888 785.2559c0-10 18-10 18-10s18 0 18 10v26c0 10-18 10-18 10s-18 0-18-10z" fill="#e2e2f0" stroke="#181818" stroke-width="1.5"/><path d="m430.9888 785.2559c0 10 18 10 18 10s18 0 18-10" fill="none" stroke="#181818" stroke-width="1.5"/><text fill="#333" font-family="sans-serif" font-size="14" lengthAdjust="spacing" textLength="152.5098" x="520.1455" y="64.5352">Block Validation Client</text><path d="m581.4004 15c0-10 18-10 18-10s18 0 18 10v26c0 10-18 10-18 10s-18 0-18-10z" fill="#e2e2f0" stroke="#181818" stroke-width="1.5"/><path d="m581.4004 15c0 10 18 10 18 10s18 0 18-10" fill="none" stroke="#181818" stroke-width="1.5"/><text fill="#333" font-family="sans-serif" font-size="14" lengthAdjust="spacing" textLength="152.5098" x="520.1455" y="772.3027">Block Validation Client</text><path d="m581.4004 785.2559c0-10 18-10 18-10s18 0 18 10v26c0 10-18 10-18 10s-18 0-18-10z" fill="#e2e2f0" stroke="#181818" stroke-width="1.5"/><path d="m581.4004 785.2559c0 10 18 10 18 10s18 0 18-10" fill="none" stroke="#181818" stroke-width="1.5"/><text fill="#333" font-family="sans-serif" font-size="14" lengthAdjust="spacing" textLength="105.0205" x="688.6553" y="64.5352">Validator Client</text><path d="m726.1655 15c0-10 18-10 18-10s18 0 18 10v26c0 10-18 10-18 10s-18 0-18-10z" fill="#e2e2f0" stroke="#181818" stroke-width="1.5"/><path d="m726.1655 15c0 10 18 10 18 10s18 0 18-10" fill="none" stroke="#181818" stroke-width="1.5"/><text fill="#333" font-family="sans-serif" font-size="14" lengthAdjust="spacing" textLength="105.0205" x="688.6553" y="772.3027">Validator Client</text><path d="m726.1655 785.2559c0-10 18-10 18-10s18 0 18 10v26c0 10-18 10-18 10s-18 0-18-10z" fill="#e2e2f0" stroke="#181818" stroke-width="1.5"/><path d="m726.1655 785.2559c0 10 18 10 18 10s18 0 18-10" fill="none" stroke="#181818" stroke-width="1.5"/><rect fill="#ddd" height="30.4883" rx="2.5" stroke="#666" stroke-width=".5" width="141.5859" x="809.6758" y="36"/><text fill="#333" font-family="sans-serif" font-size="14" lengthAdjust="spacing" textLength="127.5859" x="816.6758" y="56.5352">Echo (HTTP Server)</text><rect fill="#ddd" height="30.4883" rx="2.5" stroke="#666" stroke-width=".5" width="141.5859" x="809.6758" y="758.7676"/><text fill="#333" font-family="sans-serif" font-size="14" lengthAdjust="spacing" textLength="127.5859" x="816.6758" y="779.3027">Echo (HTTP Server)</text><path d="m966.2617 41h112.8057c5 0 5 13.2441 5 13.2441s0 13.2442-5 13.2442h-112.8057c-5 0-5-13.2442-5-13.2442s0-13.2441 5-13.2441" fill="#e2e2f0" stroke="#181818" stroke-width=".5"/><path d="m1079.0674 41c-5 0-5 13.2441-5 13.2441 0 13.2442 5 13.2442 5 13.2442" fill="none" stroke="#181818" stroke-width=".5"/><text fill="#333" font-family="sans-serif" font-size="14" lengthAdjust="spacing" textLength="102.8057" x="966.2617" y="59.5352">PubSub System</text><path d="m966.2617 758.7676h112.8057c5 0 5 13.2441 5 13.2441s0 13.2442-5 13.2442h-112.8057c-5 0-5-13.2442-5-13.2442s0-13.2441 5-13.2441" fill="#e2e2f0" stroke="#181818" stroke-width=".5"/><path d="m1079.0674 758.7676c-5 0-5 13.2441-5 13.2441 0 13.2442 5 13.2442 5 13.2442" fill="none" stroke="#181818" stroke-width=".5"/><text fill="#333" font-family="sans-serif" font-size="14" lengthAdjust="spacing" textLength="102.8057" x="966.2617" y="777.3027">PubSub System</text><path d="m1099.0674 41h166.1601c5 0 5 13.2441 5 13.2441s0 13.2442-5 13.2442h-166.1601c-5 0-5-13.2442-5-13.2442s0-13.2441 5-13.2441" fill="#e2e2f0" stroke="#181818" stroke-width=".5"/><path d="m1265.2275 41c-5 0-5 13.2441-5 13.2441 0 13.2442 5 13.2442 5 13.2442" fill="none" stroke="#181818" stroke-width=".5"/><text fill="#333" font-family="sans-serif" font-size="14" lengthAdjust="spacing" textLength="156.1602" x="1099.0674" y="59.5352">Connect to Static Peers</text><path d="m1099.0674 758.7676h166.1601c5 0 5 13.2441 5 13.2441s0 13.2442-5 13.2442h-166.1601c-5 0-5-13.2442-5-13.2442s0-13.2441 5-13.2441" fill="#e2e2f0" stroke="#181818" stroke-width=".5"/><path d="m1265.2275 758.7676c-5 0-5 13.2441-5 13.2441 0 13.2442 5 13.2442 5 13.2442" fill="none" stroke="#181818" stroke-width=".5"/><text fill="#333" font-family="sans-serif" font-size="14" lengthAdjust="spacing" textLength="156.1602" x="1099.0674" y="777.3027">Connect to Static Peers</text><path d="m1285.2275 41h137.1485c5 0 5 13.2441 5 13.2441s0 13.2442-5 13.2442h-137.1485c-5 0-5-13.2442-5-13.2442s0-13.2441 5-13.2441" fill="#e2e2f0" stroke="#181818" stroke-width=".5"/><path d="m1422.376 41c-5 0-5 13.2441-5 13.2441 0 13.2442 5 13.2442 5 13.2442" fill="none" stroke="#181818" stroke-width=".5"/><text fill="#333" font-family="sans-serif" font-size="14" lengthAdjust="spacing" textLength="127.1484" x="1285.2275" y="59.5352">Set Topic Handlers</text><path d="m1285.2275 758.7676h137.1485c5 0 5 13.2441 5 13.2441s0 13.2442-5 13.2442h-137.1485c-5 0-5-13.2442-5-13.2442s0-13.2441 5-13.2441" fill="#e2e2f0" stroke="#181818" stroke-width=".5"/><path d="m1422.376 758.7676c-5 0-5 13.2441-5 13.2441 0 13.2442 5 13.2442 5 13.2442" fill="none" stroke="#181818" stroke-width=".5"/><text fill="#333" font-family="sans-serif" font-size="14" lengthAdjust="spacing" textLength="127.1484" x="1285.2275" y="777.3027">Set Topic Handlers</text><path d="m42.3008 106.7988h10v643.9688h-10z" fill="#fff" stroke="#181818"/><path d="m47.3008 234.7305h10v170.2422h-10z" fill="#fff" stroke="#181818"/><path d="m47.3008 449.2832h10v285.4844h-10z" fill="#fff" stroke="#181818"/><path d="m47.3008 93.7988h47" stroke="#666"/><path d="m94.3008 93.7988v13" stroke="#666"/><path d="m53.3008 106.7988h41" stroke="#666"/><path d="m63.3008 102.7988-10 4 10 4-4-4z" fill="#666" stroke="#666"/><text fill="#333" font-family="sans-serif" font-size="13" lengthAdjust="spacing" textLength="65.7173" x="59.3008" y="89.0566">NewServer</text><path d="m328.8906 137.1094 10 4-10 4 4-4z" fill="#666" stroke="#666"/><path d="m52.3008 141.1094h282.5898" stroke="#666"/><text fill="#333" font-family="sans-serif" font-size="13" lengthAdjust="spacing" textLength="107.1865" x="59.3008" y="136.3672">Creates P2PNode</text><path d="m63.3008 151.1094-10 4 10 4-4-4z" fill="#666" stroke="#666"/><path d="m57.3008 155.1094h282.5898" stroke="#666" stroke-dasharray="2 2"/><path d="m52.3008 184.4199h42" stroke="#666"/><path d="m94.3008 184.4199v13" stroke="#666"/><path d="m53.3008 197.4199h41" stroke="#666"/><path d="m63.3008 193.4199-10 4 10 4-4-4z" fill="#666" stroke="#666"/><text fill="#333" font-family="sans-serif" font-size="13" lengthAdjust="spacing" textLength="230.4517" x="59.3008" y="179.6777">Sets up topics &amp; notification channel</text><path d="m52.3008 221.7305h47" stroke="#666"/><path d="m99.3008 221.7305v13" stroke="#666"/><path d="m58.3008 234.7305h41" stroke="#666"/><path d="m68.3008 230.7305-10 4 10 4-4-4z" fill="#666" stroke="#666"/><text fill="#333" font-family="sans-serif" font-size="13" lengthAdjust="spacing" textLength="54.8628" x="64.3008" y="216.9883">Calls Init</text><path d="m436.9888 265.041 10 4-10 4 4-4z" fill="#666" stroke="#666"/><path d="m57.3008 269.041h385.688" stroke="#666"/><text fill="#333" font-family="sans-serif" font-size="13" lengthAdjust="spacing" textLength="152.9595" x="64.3008" y="264.2988">Create Blockchain Client</text><path d="m68.3008 279.041-10 4 10 4-4-4z" fill="#666" stroke="#666"/><path d="m62.3008 283.041h385.688" stroke="#666" stroke-dasharray="2 2"/><path d="m587.4004 308.3516 10 4-10 4 4-4z" fill="#666" stroke="#666"/><path d="m57.3008 312.3516h536.0996" stroke="#666"/><text fill="#333" font-family="sans-serif" font-size="13" lengthAdjust="spacing" textLength="182.457" x="64.3008" y="307.6094">Create BlockValidation Client</text><path d="m68.3008 322.3516-10 4 10 4-4-4z" fill="#666" stroke="#666"/><path d="m62.3008 326.3516h536.0996" stroke="#666" stroke-dasharray="2 2"/><path d="m732.1655 351.6621 10 4-10 4 4-4z" fill="#666" stroke="#666"/><path d="m57.3008 355.6621h680.8647" stroke="#666"/><text fill="#333" font-family="sans-serif" font-size="13" lengthAdjust="spacing" textLength="142.4731" x="64.3008" y="350.9199">Create Validator Client</text><path d="m68.3008 365.6621-10 4 10 4-4-4z" fill="#666" stroke="#666"/><path d="m62.3008 369.6621h680.8647" stroke="#666" stroke-dasharray="2 2"/><path d="m57.3008 403.9727h42" stroke="#666"/><path d="m99.3008 403.9727v13" stroke="#666"/><path d="m52.3008 416.9727h47" stroke="#666"/><path d="m62.3008 412.9727-10 4 10 4-4-4z" fill="#666" stroke="#666"/><text fill="#333" font-family="sans-serif" font-size="13" lengthAdjust="spacing" textLength="196.0918" x="64.3008" y="399.2305">Sets HTTP Address from config</text><path d="m52.3008 436.2832h47" stroke="#666"/><path d="m99.3008 436.2832v13" stroke="#666"/><path d="m58.3008 449.2832h41" stroke="#666"/><path d="m68.3008 445.2832-10 4 10 4-4-4z" fill="#666" stroke="#666"/><text fill="#333" font-family="sans-serif" font-size="13" lengthAdjust="spacing" textLength="63.6543" x="64.3008" y="431.541">Calls Start</text><path d="m868.4688 479.5938 10 4-10 4 4-4z" fill="#666" stroke="#666"/><path d="m57.3008 483.5938h817.168" stroke="#666"/><text fill="#333" font-family="sans-serif" font-size="13" lengthAdjust="spacing" textLength="248.0728" x="64.3008" y="478.8516">Setup Echo Server (Middleware, Routes)</text><path d="m68.3008 493.5938-10 4 10 4-4-4z" fill="#666" stroke="#666"/><path d="m62.3008 497.5938h817.168" stroke="#666" stroke-dasharray="2 2"/><path d="m57.3008 526.9043h42" stroke="#666"/><path d="m99.3008 526.9043v13" stroke="#666"/><path d="m58.3008 539.9043h41" stroke="#666"/><path d="m68.3008 535.9043-10 4 10 4-4-4z" fill="#666" stroke="#666"/><text fill="#333" font-family="sans-serif" font-size="13" lengthAdjust="spacing" textLength="221.7109" x="64.3008" y="522.1621">Start P2PNode (Join PubSub Topics)</text><path d="m1170.1475 565.2148 10 4-10 4 4-4z" fill="#666" stroke="#666"/><path d="m57.3008 569.2148h1118.8467" stroke="#666"/><text fill="#333" font-family="sans-serif" font-size="13" lengthAdjust="spacing" textLength="145.0059" x="64.3008" y="564.4727">Connect to Static Peers</text><path d="m68.3008 579.2148-10 4 10 4-4-4z" fill="#666" stroke="#666"/><path d="m62.3008 583.2148h1118.8467" stroke="#666" stroke-dasharray="2 2"/><path d="m1341.8018 608.5254 10 4-10 4 4-4z" fill="#666" stroke="#666"/><path d="m57.3008 612.5254h1290.501" stroke="#666"/><text fill="#333" font-family="sans-serif" font-size="13" lengthAdjust="spacing" textLength="191.6738" x="64.3008" y="607.7832">Set Topic Handlers (Subscribe)</text><path d="m68.3008 622.5254-10 4 10 4-4-4z" fill="#666" stroke="#666"/><path d="m62.3008 626.5254h1290.501" stroke="#666" stroke-dasharray="2 2"/><path d="m57.3008 671.1465h42" stroke="#666"/><path d="m99.3008 671.1465v13" stroke="#666"/><path d="m58.3008 684.1465h41" stroke="#666"/><path d="m68.3008 680.1465-10 4 10 4-4-4z" fill="#666" stroke="#666"/><text fill="#333" font-family="sans-serif" font-size="13" lengthAdjust="spacing" textLength="245.4766" x="64.3008" y="651.0938">Start blockchain and validator listeners</text><text fill="#333" font-family="sans-serif" font-size="13" lengthAdjust="spacing" textLength="77.7651" x="68.4141" y="666.4043">(Goroutines)</text><path d="m57.3008 733.7676h42" stroke="#666"/><path d="m99.3008 733.7676v13" stroke="#666"/><path d="m52.3008 746.7676h47" stroke="#666"/><path d="m62.3008 742.7676-10 4 10 4-4-4z" fill="#666" stroke="#666"/><text fill="#333" font-family="sans-serif" font-size="13" lengthAdjust="spacing" textLength="115.7368" x="64.3008" y="713.7148">Starts HTTP server</text><text fill="#333" font-family="sans-serif" font-size="13" lengthAdjust="spacing" textLength="71.1382" x="68.4141" y="729.0254">(Goroutine)</text><text fill="#333" font-family="sans-serif" font-size="10" lengthAdjust="spacing" textLength="155.4346" y="831.9238">Last Modified On: 24-Feb-2025</text></svg>
