<svg xmlns="http://www.w3.org/2000/svg" xmlns:xlink="http://www.w3.org/1999/xlink" contentStyleType="text/css" height="948px" preserveAspectRatio="none" style="width:1021px;height:948px;background:#F0F8FF;" version="1.1" viewBox="0 0 1021 948" width="1021px" zoomAndPan="magnify"><defs/><g><rect fill="#F0F8FF" height="948" style="stroke:none;stroke-width:1.0;" width="1021" x="0" y="0"/><ellipse cx="494.845" cy="20" fill="#222222" rx="10" ry="10" style="stroke:#222222;stroke-width:1.0;"/><rect fill="#F1F1F1" height="34.1328" rx="12.5" ry="12.5" style="stroke:#181818;stroke-width:0.5;" width="175.9238" x="406.8831" y="50"/><text fill="#333333" font-family="sans-serif" font-size="12" lengthAdjust="spacing" textLength="155.9238" x="416.8831" y="71.6016">Create clientChannels map</text><rect fill="#F1F1F1" height="34.1328" rx="12.5" ry="12.5" style="stroke:#181818;stroke-width:0.5;" width="183.5527" x="403.0686" y="104.1328"/><text fill="#333333" font-family="sans-serif" font-size="12" lengthAdjust="spacing" textLength="163.5527" x="413.0686" y="125.7344">Create newClientCh channel</text><rect fill="#F1F1F1" height="34.1328" rx="12.5" ry="12.5" style="stroke:#181818;stroke-width:0.5;" width="188.5918" x="400.5491" y="158.2656"/><text fill="#333333" font-family="sans-serif" font-size="12" lengthAdjust="spacing" textLength="168.5918" x="410.5491" y="179.8672">Create deadClientCh channel</text><rect fill="#F1F1F1" height="34.1328" rx="12.5" ry="12.5" style="stroke:#181818;stroke-width:0.5;" width="110.5801" x="439.5549" y="212.3984"/><text fill="#333333" font-family="sans-serif" font-size="12" lengthAdjust="spacing" textLength="90.5801" x="449.5549" y="234">Start pingTimer</text><rect fill="#555555" height="6" rx="2.5" ry="2.5" style="stroke:#555555;stroke-width:1.0;" width="985.6899" x="11" y="266.5313"/><rect fill="#F1F1F1" height="34.1328" rx="12.5" ry="12.5" style="stroke:#181818;stroke-width:0.5;" width="116.5273" x="424.5813" y="292.5313"/><text fill="#333333" font-family="sans-serif" font-size="12" lengthAdjust="spacing" textLength="96.5273" x="434.5813" y="314.1328">Listen for events</text><rect fill="#555555" height="6" rx="2.5" ry="2.5" style="stroke:#555555;stroke-width:1.0;" width="935.6899" x="23" y="390.6641"/><rect fill="#F1F1F1" height="34.1328" rx="12.5" ry="12.5" style="stroke:#181818;stroke-width:0.5;" width="135.9453" x="35" y="491.1855"/><text fill="#333333" font-family="sans-serif" font-size="12" lengthAdjust="spacing" textLength="115.9453" x="45" y="512.7871">New client connects</text><rect fill="#F1F1F1" height="34.1328" rx="12.5" ry="12.5" style="stroke:#181818;stroke-width:0.5;" width="126.6465" x="266.9282" y="491.1855"/><text fill="#333333" font-family="sans-serif" font-size="12" lengthAdjust="spacing" textLength="106.6465" x="276.9282" y="512.7871">Client disconnects</text><rect fill="#F1F1F1" height="34.1328" rx="12.5" ry="12.5" style="stroke:#181818;stroke-width:0.5;" width="110.6152" x="575.4177" y="416.6641"/><text fill="#333333" font-family="sans-serif" font-size="12" lengthAdjust="spacing" textLength="90.6152" x="585.4177" y="438.2656">Ping timer ticks</text><rect fill="#F1F1F1" height="34.1328" rx="12.5" ry="12.5" style="stroke:#181818;stroke-width:0.5;" width="149.9961" x="555.7273" y="519.2744"/><text fill="#333333" font-family="sans-serif" font-size="12" lengthAdjust="spacing" textLength="129.9961" x="565.7273" y="540.876">Marshal ping message</text><polygon fill="#F1F1F1" points="555.4038,470.7969,706.0469,470.7969,718.0469,482.7969,706.0469,494.7969,555.4038,494.7969,543.4038,482.7969,555.4038,470.7969" style="stroke:#181818;stroke-width:0.5;"/><text fill="#333333" font-family="sans-serif" font-size="11" lengthAdjust="spacing" textLength="17.4829" x="634.7253" y="505.4316">yes</text><text fill="#333333" font-family="sans-serif" font-size="11" lengthAdjust="spacing" textLength="150.6431" x="555.4038" y="486.9541">Are there connected clients?</text><text fill="#333333" font-family="sans-serif" font-size="11" lengthAdjust="spacing" textLength="13.5835" x="718.0469" y="480.4766">no</text><polygon fill="#F1F1F1" points="630.7253,577.1826,642.7253,589.1826,630.7253,601.1826,618.7253,589.1826,630.7253,577.1826" style="stroke:#181818;stroke-width:0.5;"/><text fill="#333333" font-family="sans-serif" font-size="11" lengthAdjust="spacing" textLength="121.4888" x="636.7253" y="574.8623">Send ping to all clients</text><rect fill="#F1F1F1" height="34.1328" rx="12.5" ry="12.5" style="stroke:#181818;stroke-width:0.5;" width="139.7656" x="775.4856" y="416.6641"/><text fill="#333333" font-family="sans-serif" font-size="12" lengthAdjust="spacing" textLength="119.7656" x="785.4856" y="438.2656">Notification received</text><rect fill="#F1F1F1" height="34.1328" rx="12.5" ry="12.5" style="stroke:#181818;stroke-width:0.5;" width="135.5352" x="777.6008" y="519.2744"/><text fill="#333333" font-family="sans-serif" font-size="12" lengthAdjust="spacing" textLength="115.5352" x="787.6008" y="540.876">Marshal notification</text><polygon fill="#F1F1F1" points="770.0469,470.7969,920.6899,470.7969,932.6899,482.7969,920.6899,494.7969,770.0469,494.7969,758.0469,482.7969,770.0469,470.7969" style="stroke:#181818;stroke-width:0.5;"/><text fill="#333333" font-family="sans-serif" font-size="11" lengthAdjust="spacing" textLength="17.4829" x="849.3684" y="505.4316">yes</text><text fill="#333333" font-family="sans-serif" font-size="11" lengthAdjust="spacing" textLength="150.6431" x="770.0469" y="486.9541">Are there connected clients?</text><text fill="#333333" font-family="sans-serif" font-size="11" lengthAdjust="spacing" textLength="13.5835" x="932.6899" y="480.4766">no</text><polygon fill="#F1F1F1" points="845.3684,577.1826,857.3684,589.1826,845.3684,601.1826,833.3684,589.1826,845.3684,577.1826" style="stroke:#181818;stroke-width:0.5;"/><text fill="#333333" font-family="sans-serif" font-size="11" lengthAdjust="spacing" textLength="158.3882" x="851.3684" y="574.8623">Send notification to all clients</text><rect fill="#555555" height="6" rx="2.5" ry="2.5" style="stroke:#555555;stroke-width:1.0;" width="935.6899" x="23" y="621.1826"/><polygon fill="#F1F1F1" points="482.845,346.6641,494.845,358.6641,482.845,370.6641,470.845,358.6641,482.845,346.6641" style="stroke:#181818;stroke-width:0.5;"/><polygon fill="#F1F1F1" points="437.6096,647.1826,528.0803,647.1826,540.0803,659.1826,528.0803,671.1826,437.6096,671.1826,425.6096,659.1826,437.6096,647.1826" style="stroke:#181818;stroke-width:0.5;"/><text fill="#333333" font-family="sans-serif" font-size="11" lengthAdjust="spacing" textLength="90.4707" x="437.6096" y="663.3398">Server is running</text><rect fill="#555555" height="6" rx="2.5" ry="2.5" style="stroke:#555555;stroke-width:1.0;" width="985.6899" x="11" y="691.1826"/><rect fill="#F1F1F1" height="34.1328" rx="12.5" ry="12.5" style="stroke:#181818;stroke-width:0.5;" width="174.752" x="407.469" y="717.1826"/><text fill="#333333" font-family="sans-serif" font-size="12" lengthAdjust="spacing" textLength="154.752" x="417.469" y="738.7842">Handle WebSocket request</text><rect fill="#F1F1F1" height="34.1328" rx="12.5" ry="12.5" style="stroke:#181818;stroke-width:0.5;" width="172.6836" x="408.5032" y="792.5908"/><text fill="#333333" font-family="sans-serif" font-size="12" lengthAdjust="spacing" textLength="152.6836" x="418.5032" y="814.1924">Send data over WebSocket</text><polygon fill="#F1F1F1" points="445.4846,846.7236,544.2053,846.7236,556.2053,858.7236,544.2053,870.7236,445.4846,870.7236,433.4846,858.7236,445.4846,846.7236" style="stroke:#181818;stroke-width:0.5;"/><text fill="#333333" font-family="sans-serif" font-size="11" lengthAdjust="spacing" textLength="13.5835" x="498.845" y="881.3584">no</text><text fill="#333333" font-family="sans-serif" font-size="11" lengthAdjust="spacing" textLength="98.7207" x="445.4846" y="862.8809">Error sending data</text><text fill="#333333" font-family="sans-serif" font-size="11" lengthAdjust="spacing" textLength="155.7725" x="556.2053" y="856.4033">Add channel to deadClientCh</text><ellipse cx="733.9778" cy="858.7236" fill="none" rx="11" ry="11" style="stroke:#222222;stroke-width:1.0;"/><ellipse cx="733.9778" cy="858.7236" fill="#222222" rx="6" ry="6" style="stroke:#222222;stroke-width:1.0;"/><ellipse cx="494.845" cy="913.8584" fill="none" rx="11" ry="11" style="stroke:#222222;stroke-width:1.0;"/><ellipse cx="494.845" cy="913.8584" fill="#222222" rx="6" ry="6" style="stroke:#222222;stroke-width:1.0;"/><line style="stroke:#666666;stroke-width:1.0;" x1="494.845" x2="494.845" y1="30" y2="50"/><polygon fill="#666666" points="490.845,40,494.845,50,498.845,40,494.845,44" style="stroke:#666666;stroke-width:1.0;"/><line style="stroke:#666666;stroke-width:1.0;" x1="494.845" x2="494.845" y1="84.1328" y2="104.1328"/><polygon fill="#666666" points="490.845,94.1328,494.845,104.1328,498.845,94.1328,494.845,98.1328" style="stroke:#666666;stroke-width:1.0;"/><line style="stroke:#666666;stroke-width:1.0;" x1="494.845" x2="494.845" y1="138.2656" y2="158.2656"/><polygon fill="#666666" points="490.845,148.2656,494.845,158.2656,498.845,148.2656,494.845,152.2656" style="stroke:#666666;stroke-width:1.0;"/><line style="stroke:#666666;stroke-width:1.0;" x1="494.845" x2="494.845" y1="192.3984" y2="212.3984"/><polygon fill="#666666" points="490.845,202.3984,494.845,212.3984,498.845,202.3984,494.845,206.3984" style="stroke:#666666;stroke-width:1.0;"/><line style="stroke:#666666;stroke-width:1.0;" x1="630.7253" x2="630.7253" y1="494.7969" y2="519.2744"/><polygon fill="#666666" points="626.7253,509.2744,630.7253,519.2744,634.7253,509.2744,630.7253,513.2744" style="stroke:#666666;stroke-width:1.0;"/><line style="stroke:#666666;stroke-width:1.0;" x1="718.0469" x2="730.0469" y1="482.7969" y2="482.7969"/><polygon fill="#666666" points="726.0469,532.8184,730.0469,542.8184,734.0469,532.8184,730.0469,536.8184" style="stroke:#666666;stroke-width:1.0;"/><line style="stroke:#666666;stroke-width:1.0;" x1="730.0469" x2="730.0469" y1="482.7969" y2="589.1826"/><line style="stroke:#666666;stroke-width:1.0;" x1="730.0469" x2="642.7253" y1="589.1826" y2="589.1826"/><polygon fill="#666666" points="652.7253,585.1826,642.7253,589.1826,652.7253,593.1826,648.7253,589.1826" style="stroke:#666666;stroke-width:1.0;"/><line style="stroke:#666666;stroke-width:1.0;" x1="630.7253" x2="630.7253" y1="553.4072" y2="577.1826"/><polygon fill="#666666" points="626.7253,567.1826,630.7253,577.1826,634.7253,567.1826,630.7253,571.1826" style="stroke:#666666;stroke-width:1.0;"/><line style="stroke:#666666;stroke-width:1.0;" x1="630.7253" x2="630.7253" y1="450.7969" y2="470.7969"/><polygon fill="#666666" points="626.7253,460.7969,630.7253,470.7969,634.7253,460.7969,630.7253,464.7969" style="stroke:#666666;stroke-width:1.0;"/><line style="stroke:#666666;stroke-width:1.0;" x1="845.3684" x2="845.3684" y1="494.7969" y2="519.2744"/><polygon fill="#666666" points="841.3684,509.2744,845.3684,519.2744,849.3684,509.2744,845.3684,513.2744" style="stroke:#666666;stroke-width:1.0;"/><line style="stroke:#666666;stroke-width:1.0;" x1="932.6899" x2="944.6899" y1="482.7969" y2="482.7969"/><polygon fill="#666666" points="940.6899,532.8184,944.6899,542.8184,948.6899,532.8184,944.6899,536.8184" style="stroke:#666666;stroke-width:1.0;"/><line style="stroke:#666666;stroke-width:1.0;" x1="944.6899" x2="944.6899" y1="482.7969" y2="589.1826"/><line style="stroke:#666666;stroke-width:1.0;" x1="944.6899" x2="857.3684" y1="589.1826" y2="589.1826"/><polygon fill="#666666" points="867.3684,585.1826,857.3684,589.1826,867.3684,593.1826,863.3684,589.1826" style="stroke:#666666;stroke-width:1.0;"/><line style="stroke:#666666;stroke-width:1.0;" x1="845.3684" x2="845.3684" y1="553.4072" y2="577.1826"/><polygon fill="#666666" points="841.3684,567.1826,845.3684,577.1826,849.3684,567.1826,845.3684,571.1826" style="stroke:#666666;stroke-width:1.0;"/><line style="stroke:#666666;stroke-width:1.0;" x1="845.3684" x2="845.3684" y1="450.7969" y2="470.7969"/><polygon fill="#666666" points="841.3684,460.7969,845.3684,470.7969,849.3684,460.7969,845.3684,464.7969" style="stroke:#666666;stroke-width:1.0;"/><line style="stroke:#666666;stroke-width:1.0;" x1="102.9727" x2="102.9727" y1="396.6641" y2="491.1855"/><polygon fill="#666666" points="98.9727,481.1855,102.9727,491.1855,106.9727,481.1855,102.9727,485.1855" style="stroke:#666666;stroke-width:1.0;"/><line style="stroke:#666666;stroke-width:1.0;" x1="330.2515" x2="330.2515" y1="396.6641" y2="491.1855"/><polygon fill="#666666" points="326.2515,481.1855,330.2515,491.1855,334.2515,481.1855,330.2515,485.1855" style="stroke:#666666;stroke-width:1.0;"/><line style="stroke:#666666;stroke-width:1.0;" x1="630.7253" x2="630.7253" y1="396.6641" y2="416.6641"/><polygon fill="#666666" points="626.7253,406.6641,630.7253,416.6641,634.7253,406.6641,630.7253,410.6641" style="stroke:#666666;stroke-width:1.0;"/><line style="stroke:#666666;stroke-width:1.0;" x1="845.3684" x2="845.3684" y1="396.6641" y2="416.6641"/><polygon fill="#666666" points="841.3684,406.6641,845.3684,416.6641,849.3684,406.6641,845.3684,410.6641" style="stroke:#666666;stroke-width:1.0;"/><line style="stroke:#666666;stroke-width:1.0;" x1="102.9727" x2="102.9727" y1="525.3184" y2="621.1826"/><polygon fill="#666666" points="98.9727,611.1826,102.9727,621.1826,106.9727,611.1826,102.9727,615.1826" style="stroke:#666666;stroke-width:1.0;"/><text fill="#333333" font-family="sans-serif" font-size="11" lengthAdjust="spacing" textLength="149.9556" x="106.9727" y="577.0566">Add client to clientChannels</text><line style="stroke:#666666;stroke-width:1.0;" x1="330.2515" x2="330.2515" y1="525.3184" y2="621.1826"/><polygon fill="#666666" points="326.2515,611.1826,330.2515,621.1826,334.2515,611.1826,330.2515,615.1826" style="stroke:#666666;stroke-width:1.0;"/><text fill="#333333" font-family="sans-serif" font-size="11" lengthAdjust="spacing" textLength="185.1523" x="334.2515" y="577.0566">Remove client from clientChannels</text><line style="stroke:#666666;stroke-width:1.0;" x1="630.7253" x2="630.7253" y1="601.1826" y2="621.1826"/><polygon fill="#666666" points="626.7253,611.1826,630.7253,621.1826,634.7253,611.1826,630.7253,615.1826" style="stroke:#666666;stroke-width:1.0;"/><line style="stroke:#666666;stroke-width:1.0;" x1="845.3684" x2="845.3684" y1="601.1826" y2="621.1826"/><polygon fill="#666666" points="841.3684,611.1826,845.3684,621.1826,849.3684,611.1826,845.3684,615.1826" style="stroke:#666666;stroke-width:1.0;"/><line style="stroke:#666666;stroke-width:1.0;" x1="482.845" x2="482.845" y1="370.6641" y2="390.6641"/><polygon fill="#666666" points="478.845,380.6641,482.845,390.6641,486.845,380.6641,482.845,384.6641" style="stroke:#666666;stroke-width:1.0;"/><line style="stroke:#666666;stroke-width:1.0;" x1="540.0803" x2="970.6899" y1="659.1826" y2="659.1826"/><polygon fill="#666666" points="966.6899,524.7295,970.6899,514.7295,974.6899,524.7295,970.6899,520.7295" style="stroke:#666666;stroke-width:1.0;"/><line style="stroke:#666666;stroke-width:1.0;" x1="970.6899" x2="970.6899" y1="358.6641" y2="659.1826"/><line style="stroke:#666666;stroke-width:1.0;" x1="970.6899" x2="494.845" y1="358.6641" y2="358.6641"/><polygon fill="#666666" points="504.845,354.6641,494.845,358.6641,504.845,362.6641,500.845,358.6641" style="stroke:#666666;stroke-width:1.0;"/><line style="stroke:#666666;stroke-width:1.0;" x1="482.845" x2="482.845" y1="627.1826" y2="647.1826"/><polygon fill="#666666" points="478.845,637.1826,482.845,647.1826,486.845,637.1826,482.845,641.1826" style="stroke:#666666;stroke-width:1.0;"/><line style="stroke:#666666;stroke-width:1.0;" x1="482.845" x2="482.845" y1="326.6641" y2="346.6641"/><polygon fill="#666666" points="478.845,336.6641,482.845,346.6641,486.845,336.6641,482.845,340.6641" style="stroke:#666666;stroke-width:1.0;"/><line style="stroke:#666666;stroke-width:1.0;" x1="482.845" x2="482.845" y1="272.5313" y2="292.5313"/><polygon fill="#666666" points="478.845,282.5313,482.845,292.5313,486.845,282.5313,482.845,286.5313" style="stroke:#666666;stroke-width:1.0;"/><line style="stroke:#666666;stroke-width:1.0;" x1="482.845" x2="482.845" y1="671.1826" y2="691.1826"/><polygon fill="#666666" points="478.845,681.1826,482.845,691.1826,486.845,681.1826,482.845,685.1826" style="stroke:#666666;stroke-width:1.0;"/><line style="stroke:#666666;stroke-width:1.0;" x1="494.845" x2="494.845" y1="246.5313" y2="266.5313"/><polygon fill="#666666" points="490.845,256.5313,494.845,266.5313,498.845,256.5313,494.845,260.5313" style="stroke:#666666;stroke-width:1.0;"/><line style="stroke:#666666;stroke-width:1.0;" x1="494.845" x2="494.845" y1="697.1826" y2="717.1826"/><polygon fill="#666666" points="490.845,707.1826,494.845,717.1826,498.845,707.1826,494.845,711.1826" style="stroke:#666666;stroke-width:1.0;"/><line style="stroke:#666666;stroke-width:1.0;" x1="494.845" x2="494.845" y1="751.3154" y2="792.5908"/><polygon fill="#666666" points="490.845,782.5908,494.845,792.5908,498.845,782.5908,494.845,786.5908" style="stroke:#666666;stroke-width:1.0;"/><text fill="#333333" font-family="sans-serif" font-size="11" lengthAdjust="spacing" textLength="151.8677" x="498.845" y="772.7705">Upgrade HTTP to WebSocket</text><line style="stroke:#666666;stroke-width:1.0;" x1="494.845" x2="494.845" y1="870.7236" y2="902.8584"/><polygon fill="#666666" points="490.845,892.8584,494.845,902.8584,498.845,892.8584,494.845,896.8584" style="stroke:#666666;stroke-width:1.0;"/><line style="stroke:#666666;stroke-width:1.0;" x1="556.2053" x2="722.9778" y1="858.7236" y2="858.7236"/><polygon fill="#666666" points="712.9778,854.7236,722.9778,858.7236,712.9778,862.7236,716.9778,858.7236" style="stroke:#666666;stroke-width:1.0;"/><line style="stroke:#666666;stroke-width:1.0;" x1="494.845" x2="494.845" y1="826.7236" y2="846.7236"/><polygon fill="#666666" points="490.845,836.7236,494.845,846.7236,498.845,836.7236,494.845,840.7236" style="stroke:#666666;stroke-width:1.0;"/><text fill="#333333" font-family="sans-serif" font-size="10" lengthAdjust="spacing" textLength="155.4346" x="10" y="933.5264">Last Modified On: 24-Feb-2025</text><!--SRC=[jLHDQnin4BthLmmffVR1K2YKuWMNrAd98Kv3xT3pU3Lh2- -Ejf9i4qh_UqVxbLsdeRIXSn2svisRUK_I-htX4XqMiC5qltNsm7fkS-lWrUBjuiDYeNo7q9JX8GyBow61lAkY1q7dxAb9lgz2gJTmHPbXWerrcfo7JBAOvq0v5SJ1z-hbhmaFy4C1VAhGGoxPFP_ogWhrK_LOKfdGsVobDB86aveIEVmRbOGFGgAcSqSO2DBSYCBv3fafzr1WcNGvfjEyIKDQ8nwJcb3_9hkAx50QtgvDGIvHIhpTor00qnlZ0t5bDXsZpKcrxwWKnkfdZ0xVnlIMJisSqKUcjAriOpAxrBg517icAXbG0sxHyB11hGEqyS_nVwN27bkt87Es-EicT-89X6YAhEd-h8N9O7Jf2CAEP6t6e5QK_pYE6ORH0_dneB3YNgBpEymhtw4Wxt5BoHFOPBOYrZL8N8eNlg4VOaKEmOZji96KckoFAczjC9b9CHZBSh8fcIFf_o6LUusUbTe7lLXo9EmkPtrfuRGpkHIko1tbN8q7Ts0MVyUgGwlfDR8Mr3VQh6owfo35tm_aGw8ci_jowr0JNA_NTt723XJVKkJG611iPE-beeMVvSFcmCSPvJmZx8bnpRkehsXaxp_QsW0VRAaUrTUALRMhSihahbiRfFaD-W1BAraZH_M5f_1QMjBeGkl9ShcSF4XSZDKl]--></g></svg>
