<svg contentStyleType="text/css" height="746" preserveAspectRatio="none" viewBox="0 0 737 746" width="737" xmlns="http://www.w3.org/2000/svg" zoomAndPan="magnify"><path d="m0 0h737v746h-737z" fill="#f0f8ff"/><path d="m184.6426 142.1094h10v512.9238h-10z" fill="#fff" stroke="#181818"/><path d="m189.6426 259.3516h10v129.2422h-10z" fill="#fff" stroke="#181818"/><path d="m189.6426 453.2148h10v200.8184h-10z" fill="#fff" stroke="#181818"/><path d="m321.0195 171.4199h10v58.6211h-10z" fill="#fff" stroke="#181818"/><path d="m321.0195 482.5254h10v171.5078h-10z" fill="#fff" stroke="#181818"/><path d="m127.3418 274.3516h539.8716v107.2422h-539.8716z" fill="none" stroke="#000" stroke-width="1.5"/><path d="m137.3418 327.9727h519.8716v46.6211h-519.8716z" fill="none" stroke="#000" stroke-width="1.5"/><path d="m137.3418 497.5254h519.8716v149.5078h-519.8716z" fill="none" stroke="#000" stroke-width="1.5"/><path d="m57 67.4883v596.5449" stroke="#181818" stroke-dasharray="5 5" stroke-width=".5"/><path d="m189.3418 67.4883v596.5449" stroke="#181818" stroke-dasharray="5 5" stroke-width=".5"/><path d="m325.8408 67.4883v596.5449" stroke="#181818" stroke-dasharray="5 5" stroke-width=".5"/><path d="m465.8315 67.4883v596.5449" stroke="#181818" stroke-dasharray="5 5" stroke-width=".5"/><path d="m581.0991 67.4883v596.5449" stroke="#181818" stroke-dasharray="5 5" stroke-width=".5"/><path d="m691.2134 67.4883v596.5449" stroke="#181818" stroke-dasharray="5 5" stroke-width=".5"/><rect fill="#ddd" height="30.4883" rx="2.5" stroke="#666" stroke-width=".5" width="104.043" x="5" y="36"/><text fill="#333" font-family="sans-serif" font-size="14" lengthAdjust="spacing" textLength="90.043" x="12" y="56.5352">RPC Interface</text><rect fill="#ddd" height="30.4883" rx="2.5" stroke="#666" stroke-width=".5" width="104.043" x="5" y="663.0332"/><text fill="#333" font-family="sans-serif" font-size="14" lengthAdjust="spacing" textLength="90.043" x="12" y="683.5684">RPC Interface</text><rect fill="#ddd" height="30.4883" rx="2.5" stroke="#666" stroke-width=".5" width="84.6016" x="147.3418" y="36"/><text fill="#333" font-family="sans-serif" font-size="14" lengthAdjust="spacing" textLength="70.6016" x="154.3418" y="56.5352">P2P Server</text><rect fill="#ddd" height="30.4883" rx="2.5" stroke="#666" stroke-width=".5" width="84.6016" x="147.3418" y="663.0332"/><text fill="#333" font-family="sans-serif" font-size="14" lengthAdjust="spacing" textLength="70.6016" x="154.3418" y="683.5684">P2P Server</text><text fill="#333" font-family="sans-serif" font-size="14" lengthAdjust="spacing" textLength="48.3574" x="298.8408" y="64.5352">BanList</text><path d="m308.0195 15c0-10 18-10 18-10s18 0 18 10v26c0 10-18 10-18 10s-18 0-18-10z" fill="#e2e2f0" stroke="#181818" stroke-width="1.5"/><path d="m308.0195 15c0 10 18 10 18 10s18 0 18-10" fill="none" stroke="#181818" stroke-width="1.5"/><text fill="#333" font-family="sans-serif" font-size="14" lengthAdjust="spacing" textLength="48.3574" x="298.8408" y="676.5684">BanList</text><path d="m308.0195 689.5215c0-10 18-10 18-10s18 0 18 10v26c0 10-18 10-18 10s-18 0-18-10z" fill="#e2e2f0" stroke="#181818" stroke-width="1.5"/><path d="m308.0195 689.5215c0 10 18 10 18 10s18 0 18-10" fill="none" stroke="#181818" stroke-width="1.5"/><path d="m431.8315 41h69.2676c5 0 5 13.2441 5 13.2441s0 13.2442-5 13.2442h-69.2676c-5 0-5-13.2442-5-13.2442s0-13.2441 5-13.2441" fill="#e2e2f0" stroke="#181818" stroke-width=".5"/><path d="m501.0991 41c-5 0-5 13.2441-5 13.2441 0 13.2442 5 13.2442 5 13.2442" fill="none" stroke="#181818" stroke-width=".5"/><text fill="#333" font-family="sans-serif" font-size="14" lengthAdjust="spacing" textLength="59.2676" x="431.8315" y="59.5352">BanChan</text><path d="m431.8315 663.0332h69.2676c5 0 5 13.2441 5 13.2441s0 13.2442-5 13.2442h-69.2676c-5 0-5-13.2442-5-13.2442s0-13.2441 5-13.2441" fill="#e2e2f0" stroke="#181818" stroke-width=".5"/><path d="m501.0991 663.0332c-5 0-5 13.2441-5 13.2441 0 13.2442 5 13.2442 5 13.2442" fill="none" stroke="#181818" stroke-width=".5"/><text fill="#333" font-family="sans-serif" font-size="14" lengthAdjust="spacing" textLength="59.2676" x="431.8315" y="681.5684">BanChan</text><path d="m520.0991 32h127.1143v30.4883h-127.1143z" fill="#e2e2f0" stroke="#181818" stroke-width=".5"/><path d="m516.0991 36h127.1143v30.4883h-127.1143z" fill="#e2e2f0" stroke="#181818" stroke-width=".5"/><text fill="#333" font-family="sans-serif" font-size="14" lengthAdjust="spacing" textLength="113.1143" x="523.0991" y="56.5352">Connected Peers</text><path d="m520.0991 663.0332h127.1143v30.4883h-127.1143z" fill="#e2e2f0" stroke="#181818" stroke-width=".5"/><path d="m516.0991 667.0332h127.1143v30.4883h-127.1143z" fill="#e2e2f0" stroke="#181818" stroke-width=".5"/><text fill="#333" font-family="sans-serif" font-size="14" lengthAdjust="spacing" textLength="113.1143" x="523.0991" y="687.5684">Connected Peers</text><text fill="#333" font-family="sans-serif" font-size="14" lengthAdjust="spacing" textLength="62.665" x="657.2134" y="64.5352">Database</text><path d="m673.5459 15c0-10 18-10 18-10s18 0 18 10v26c0 10-18 10-18 10s-18 0-18-10z" fill="#e2e2f0" stroke="#181818" stroke-width="1.5"/><path d="m673.5459 15c0 10 18 10 18 10s18 0 18-10" fill="none" stroke="#181818" stroke-width="1.5"/><text fill="#333" font-family="sans-serif" font-size="14" lengthAdjust="spacing" textLength="62.665" x="657.2134" y="676.5684">Database</text><g stroke="#181818"><path d="m673.5459 689.5215c0-10 18-10 18-10s18 0 18 10v26c0 10-18 10-18 10s-18 0-18-10z" fill="#e2e2f0" stroke-width="1.5"/><path d="m673.5459 689.5215c0 10 18 10 18 10s18 0 18-10" fill="none" stroke-width="1.5"/><path d="m184.6426 142.1094h10v512.9238h-10z" fill="#fff"/><path d="m189.6426 259.3516h10v129.2422h-10z" fill="#fff"/><path d="m189.6426 453.2148h10v200.8184h-10z" fill="#fff"/><path d="m321.0195 171.4199h10v58.6211h-10z" fill="#fff"/><path d="m321.0195 482.5254h10v171.5078h-10z" fill="#fff"/></g><path d="m0 98.1436h730.8784v3h-730.8784z" fill="#eee" stroke="#eee"/><path d="m0 98.1436h730.8784" stroke="#000"/><path d="m0 101.1436h730.8784" stroke="#000"/><path d="m311.9363 87.4883h107.0059v23.3105h-107.0059z" fill="#eee" stroke="#000" stroke-width="2"/><text fill="#333" font-family="sans-serif" font-size="13" font-weight="bold" lengthAdjust="spacing" textLength="88.7212" x="317.9363" y="104.0566">Adding a Ban</text><path d="m172.6426 138.1094 10 4-10 4 4-4z" fill="#666" stroke="#666"/><path d="m57.0215 142.1094h121.6211" stroke="#666"/><text fill="#333" font-family="sans-serif" font-size="13" lengthAdjust="spacing" textLength="108.6211" x="64.0215" y="137.3672">setban command</text><path d="m309.0195 167.4199 10 4-10 4 4-4z" fill="#666" stroke="#666"/><path d="m194.6426 171.4199h120.3769" stroke="#666"/><text fill="#333" font-family="sans-serif" font-size="13" lengthAdjust="spacing" textLength="107.377" x="201.6426" y="166.6777">Add(ip, duration)</text><path d="m679.5459 196.7305 10 4-10 4 4-4z" fill="#666" stroke="#666"/><path d="m331.0195 200.7305h354.5264" stroke="#666"/><text fill="#333" font-family="sans-serif" font-size="13" lengthAdjust="spacing" textLength="92.0918" x="338.0195" y="195.9883">Save ban entry</text><path d="m454.4653 226.041 10 4-10 4 4-4z" fill="#666" stroke="#666"/><path d="m326.0195 230.041h134.4458" stroke="#666"/><text fill="#333" font-family="sans-serif" font-size="13" lengthAdjust="spacing" textLength="111.4458" x="333.0195" y="225.2988">Publish ban event</text><path d="m210.6426 255.3516-10 4 10 4-4-4z" fill="#666" stroke="#666"/><path d="m204.6426 259.3516h260.8227" stroke="#666"/><text fill="#333" font-family="sans-serif" font-size="13" lengthAdjust="spacing" textLength="109.7827" x="216.6426" y="254.6094">Handle ban event</text><path d="m127.3418 274.3516h74.4468v7.3105l-10 10h-64.4468z" fill="#eee" stroke="#000" stroke-width="1.5"/><path d="m127.3418 274.3516h539.8716v107.2422h-539.8716z" fill="none" stroke="#000" stroke-width="1.5"/><text fill="#333" font-family="sans-serif" font-size="13" font-weight="bold" lengthAdjust="spacing" textLength="29.4468" x="142.3418" y="287.9199">loop</text><text fill="#333" font-family="sans-serif" font-size="11" font-weight="bold" lengthAdjust="spacing" textLength="144.606" x="216.7886" y="286.9863">[for each connected peer]</text><path d="m569.6563 308.9727 10 4-10 4 4-4z" fill="#666" stroke="#666"/><path d="m199.6426 312.9727h376.0137" stroke="#666"/><text fill="#333" font-family="sans-serif" font-size="13" lengthAdjust="spacing" textLength="85.7061" x="206.6426" y="308.2305">Check peer IP</text><path d="m137.3418 327.9727h62.1387v7.3105l-10 10h-52.1387z" fill="#eee" stroke="#000" stroke-width="1.5"/><path d="m137.3418 327.9727h519.8716v46.6211h-519.8716z" fill="none" stroke="#000" stroke-width="1.5"/><text fill="#333" font-family="sans-serif" font-size="13" font-weight="bold" lengthAdjust="spacing" textLength="17.1387" x="152.3418" y="341.541">alt</text><text fill="#333" font-family="sans-serif" font-size="11" font-weight="bold" lengthAdjust="spacing" textLength="94.1123" x="214.4805" y="340.6074">[IP matches ban]</text><path d="m569.6563 362.5938 10 4-10 4 4-4z" fill="#666" stroke="#666"/><path d="m199.6426 366.5938h376.0137" stroke="#666"/><text fill="#333" font-family="sans-serif" font-size="13" lengthAdjust="spacing" textLength="101.7656" x="206.6426" y="361.8516">Disconnect peer</text><path d="m0 409.249h730.8784v3h-730.8784z" fill="#eee" stroke="#eee"/><path d="m0 409.249h730.8784" stroke="#000"/><path d="m0 412.249h730.8784" stroke="#000"/><path d="m285.4475 398.5938h159.9834v23.3105h-159.9834z" fill="#eee" stroke="#000" stroke-width="2"/><text fill="#333" font-family="sans-serif" font-size="13" font-weight="bold" lengthAdjust="spacing" textLength="141.6987" x="291.4475" y="415.1621">Checking Connection</text><path d="m210.6426 449.2148-10 4 10 4-4-4z" fill="#666" stroke="#666"/><path d="m204.6426 453.2148h376.0137" stroke="#666"/><text fill="#333" font-family="sans-serif" font-size="13" lengthAdjust="spacing" textLength="153.772" x="216.6426" y="448.4727">New connection attempt</text><path d="m309.0195 478.5254 10 4-10 4 4-4z" fill="#666" stroke="#666"/><path d="m199.6426 482.5254h115.3769" stroke="#666"/><text fill="#333" font-family="sans-serif" font-size="13" lengthAdjust="spacing" textLength="76.9844" x="206.6426" y="477.7832">IsBanned(ip)</text><path d="m137.3418 497.5254h62.1387v7.3105l-10 10h-52.1387z" fill="#eee" stroke="#000" stroke-width="1.5"/><path d="m137.3418 497.5254h519.8716v149.5078h-519.8716z" fill="none" stroke="#000" stroke-width="1.5"/><text fill="#333" font-family="sans-serif" font-size="13" font-weight="bold" lengthAdjust="spacing" textLength="17.1387" x="152.3418" y="511.0938">alt</text><text fill="#333" font-family="sans-serif" font-size="11" font-weight="bold" lengthAdjust="spacing" textLength="77.5317" x="214.4805" y="510.1602">[IP is banned]</text><path d="m210.6426 532.1465-10 4 10 4-4-4z" fill="#666" stroke="#666"/><path d="m204.6426 536.1465h115.3769" stroke="#666" stroke-dasharray="2 2"/><text fill="#333" font-family="sans-serif" font-size="13" lengthAdjust="spacing" textLength="25.4922" x="216.6426" y="531.4043">true</text><path d="m569.6563 561.457 10 4-10 4 4-4z" fill="#666" stroke="#666"/><path d="m199.6426 565.457h376.0137" stroke="#666"/><text fill="#333" font-family="sans-serif" font-size="13" lengthAdjust="spacing" textLength="111.6489" x="206.6426" y="560.7148">Reject connection</text><path d="m137.3418 574.457h519.8716" stroke="#000" stroke-dasharray="2 2"/><text fill="#333" font-family="sans-serif" font-size="11" font-weight="bold" lengthAdjust="spacing" textLength="86.4424" x="142.3418" y="585.0918">[IP not banned]</text><path d="m210.6426 605.7227-10 4 10 4-4-4z" fill="#666" stroke="#666"/><path d="m204.6426 609.7227h115.3769" stroke="#666" stroke-dasharray="2 2"/><text fill="#333" font-family="sans-serif" font-size="13" lengthAdjust="spacing" textLength="29.5864" x="216.6426" y="604.9805">false</text><path d="m569.6563 635.0332 10 4-10 4 4-4z" fill="#666" stroke="#666"/><path d="m199.6426 639.0332h376.0137" stroke="#666"/><text fill="#333" font-family="sans-serif" font-size="13" lengthAdjust="spacing" textLength="116.0415" x="206.6426" y="634.291">Accept connection</text><text fill="#333" font-family="sans-serif" font-size="10" lengthAdjust="spacing" textLength="155.4346" y="736.1895">Last Modified On: 24-Feb-2025</text></svg>
