<svg xmlns="http://www.w3.org/2000/svg" xmlns:xlink="http://www.w3.org/1999/xlink" contentStyleType="text/css" height="402px" preserveAspectRatio="none" style="width:1460px;height:402px;background:#F0F8FF;" version="1.1" viewBox="0 0 1460 402" width="1460px" zoomAndPan="magnify"><defs/><g><rect fill="#F0F8FF" height="402" style="stroke:none;stroke-width:1.0;" width="1460" x="0" y="0"/><rect fill="#FFFFFF" height="34.3105" style="stroke:#181818;stroke-width:1.0;" width="10" x="63.4238" y="75.7988"/><rect fill="#FFFFFF" height="71.6211" style="stroke:#181818;stroke-width:1.0;" width="10" x="595.4941" y="139.4199"/><rect fill="#FFFFFF" height="35.3105" style="stroke:#181818;stroke-width:1.0;" width="10" x="1271.7769" y="240.3516"/><line style="stroke:#181818;stroke-width:0.5;stroke-dasharray:5.0,5.0;" x1="68" x2="68" y1="36.4883" y2="351.2832"/><line style="stroke:#181818;stroke-width:0.5;stroke-dasharray:5.0,5.0;" x1="340.2646" x2="340.2646" y1="36.4883" y2="351.2832"/><line style="stroke:#181818;stroke-width:0.5;stroke-dasharray:5.0,5.0;" x1="600.0078" x2="600.0078" y1="36.4883" y2="351.2832"/><line style="stroke:#181818;stroke-width:0.5;stroke-dasharray:5.0,5.0;" x1="1064.2803" x2="1064.2803" y1="36.4883" y2="351.2832"/><line style="stroke:#181818;stroke-width:0.5;stroke-dasharray:5.0,5.0;" x1="1275.9795" x2="1275.9795" y1="36.4883" y2="351.2832"/><rect fill="#DDDDDD" height="30.4883" rx="2.5" ry="2.5" style="stroke:#666666;stroke-width:0.5;" width="126.8477" x="5" y="5"/><text fill="#333333" font-family="sans-serif" font-size="14" lengthAdjust="spacing" textLength="112.8477" x="12" y="25.5352">Validator Service</text><rect fill="#DDDDDD" height="30.4883" rx="2.5" ry="2.5" style="stroke:#666666;stroke-width:0.5;" width="126.8477" x="5" y="350.2832"/><text fill="#333333" font-family="sans-serif" font-size="14" lengthAdjust="spacing" textLength="112.8477" x="12" y="370.8184">Validator Service</text><rect fill="#DDDDDD" height="30.4883" rx="2.5" ry="2.5" style="stroke:#666666;stroke-width:0.5;" width="51.9326" x="315.2646" y="5"/><text fill="#333333" font-family="sans-serif" font-size="14" lengthAdjust="spacing" textLength="37.9326" x="322.2646" y="25.5352">Kafka</text><rect fill="#DDDDDD" height="30.4883" rx="2.5" ry="2.5" style="stroke:#666666;stroke-width:0.5;" width="51.9326" x="315.2646" y="350.2832"/><text fill="#333333" font-family="sans-serif" font-size="14" lengthAdjust="spacing" textLength="37.9326" x="322.2646" y="370.8184">Kafka</text><rect fill="#DDDDDD" height="30.4883" rx="2.5" ry="2.5" style="stroke:#666666;stroke-width:0.5;" width="146.9727" x="527.0078" y="5"/><text fill="#333333" font-family="sans-serif" font-size="14" lengthAdjust="spacing" textLength="132.9727" x="534.0078" y="25.5352">P2P Server (Node 1)</text><rect fill="#DDDDDD" height="30.4883" rx="2.5" ry="2.5" style="stroke:#666666;stroke-width:0.5;" width="146.9727" x="527.0078" y="350.2832"/><text fill="#333333" font-family="sans-serif" font-size="14" lengthAdjust="spacing" textLength="132.9727" x="534.0078" y="370.8184">P2P Server (Node 1)</text><rect fill="#DDDDDD" height="30.4883" rx="2.5" ry="2.5" style="stroke:#666666;stroke-width:0.5;" width="116.8057" x="1006.2803" y="5"/><text fill="#333333" font-family="sans-serif" font-size="14" lengthAdjust="spacing" textLength="102.8057" x="1013.2803" y="25.5352">PubSub System</text><rect fill="#DDDDDD" height="30.4883" rx="2.5" ry="2.5" style="stroke:#666666;stroke-width:0.5;" width="116.8057" x="1006.2803" y="350.2832"/><text fill="#333333" font-family="sans-serif" font-size="14" lengthAdjust="spacing" textLength="102.8057" x="1013.2803" y="370.8184">PubSub System</text><rect fill="#DDDDDD" height="30.4883" rx="2.5" ry="2.5" style="stroke:#666666;stroke-width:0.5;" width="91.5947" x="1230.9795" y="5"/><text fill="#333333" font-family="sans-serif" font-size="14" lengthAdjust="spacing" textLength="77.5947" x="1237.9795" y="25.5352">P2P Node 2</text><rect fill="#DDDDDD" height="30.4883" rx="2.5" ry="2.5" style="stroke:#666666;stroke-width:0.5;" width="91.5947" x="1230.9795" y="350.2832"/><text fill="#333333" font-family="sans-serif" font-size="14" lengthAdjust="spacing" textLength="77.5947" x="1237.9795" y="370.8184">P2P Node 2</text><rect fill="#FFFFFF" height="34.3105" style="stroke:#181818;stroke-width:1.0;" width="10" x="63.4238" y="75.7988"/><rect fill="#FFFFFF" height="71.6211" style="stroke:#181818;stroke-width:1.0;" width="10" x="595.4941" y="139.4199"/><rect fill="#FFFFFF" height="35.3105" style="stroke:#181818;stroke-width:1.0;" width="10" x="1271.7769" y="240.3516"/><line style="stroke:#666666;stroke-width:1.0;" x1="68.4238" x2="115.4238" y1="62.7988" y2="62.7988"/><line style="stroke:#666666;stroke-width:1.0;" x1="115.4238" x2="115.4238" y1="62.7988" y2="75.7988"/><line style="stroke:#666666;stroke-width:1.0;" x1="74.4238" x2="115.4238" y1="75.7988" y2="75.7988"/><polygon fill="#666666" points="84.4238,71.7988,74.4238,75.7988,84.4238,79.7988,80.4238,75.7988" style="stroke:#666666;stroke-width:1.0;"/><text fill="#333333" font-family="sans-serif" font-size="13" lengthAdjust="spacing" textLength="166.7212" x="80.4238" y="58.0566">ValidateWithOptions() fails</text><polygon fill="#666666" points="329.231,106.1094,339.231,110.1094,329.231,114.1094,333.231,110.1094" style="stroke:#666666;stroke-width:1.0;"/><line style="stroke:#666666;stroke-width:1.0;" x1="68.4238" x2="335.231" y1="110.1094" y2="110.1094"/><text fill="#333333" font-family="sans-serif" font-size="13" lengthAdjust="spacing" textLength="243.8071" x="75.4238" y="105.3672">Publish KafkaRejectedTxTopicMessage</text><polygon fill="#666666" points="583.4941,135.4199,593.4941,139.4199,583.4941,143.4199,587.4941,139.4199" style="stroke:#666666;stroke-width:1.0;"/><line style="stroke:#666666;stroke-width:1.0;" x1="341.231" x2="589.4941" y1="139.4199" y2="139.4199"/><text fill="#333333" font-family="sans-serif" font-size="13" lengthAdjust="spacing" textLength="235.2632" x="348.231" y="134.6777">rejectedHandler() consumes message</text><line style="stroke:#666666;stroke-width:1.0;" x1="605.4941" x2="647.4941" y1="168.7305" y2="168.7305"/><line style="stroke:#666666;stroke-width:1.0;" x1="647.4941" x2="647.4941" y1="168.7305" y2="181.7305"/><line style="stroke:#666666;stroke-width:1.0;" x1="606.4941" x2="647.4941" y1="181.7305" y2="181.7305"/><polygon fill="#666666" points="616.4941,177.7305,606.4941,181.7305,616.4941,185.7305,612.4941,181.7305" style="stroke:#666666;stroke-width:1.0;"/><text fill="#333333" font-family="sans-serif" font-size="13" lengthAdjust="spacing" textLength="168.9746" x="612.4941" y="163.9883">Create RejectedTxMessage</text><polygon fill="#666666" points="1052.6831,207.041,1062.6831,211.041,1052.6831,215.041,1056.6831,211.041" style="stroke:#666666;stroke-width:1.0;"/><line style="stroke:#666666;stroke-width:1.0;" x1="600.4941" x2="1058.6831" y1="211.041" y2="211.041"/><text fill="#333333" font-family="sans-serif" font-size="13" lengthAdjust="spacing" textLength="435.189" x="607.4941" y="206.2988">s.topics[rejectedTxTopicName].Publish(ctx, rejectedTxMessageBytes)</text><polygon fill="#666666" points="1259.7769,236.3516,1269.7769,240.3516,1259.7769,244.3516,1263.7769,240.3516" style="stroke:#666666;stroke-width:1.0;"/><line style="stroke:#666666;stroke-width:1.0;" x1="1064.6831" x2="1265.7769" y1="240.3516" y2="240.3516"/><text fill="#333333" font-family="sans-serif" font-size="13" lengthAdjust="spacing" textLength="188.0938" x="1071.6831" y="235.6094">Message propagated via topic</text><line style="stroke:#666666;stroke-width:1.0;" x1="1281.7769" x2="1323.7769" y1="274.6621" y2="274.6621"/><line style="stroke:#666666;stroke-width:1.0;" x1="1323.7769" x2="1323.7769" y1="274.6621" y2="287.6621"/><line style="stroke:#666666;stroke-width:1.0;" x1="1276.7769" x2="1323.7769" y1="287.6621" y2="287.6621"/><polygon fill="#666666" points="1286.7769,283.6621,1276.7769,287.6621,1286.7769,291.6621,1282.7769,287.6621" style="stroke:#666666;stroke-width:1.0;"/><text fill="#333333" font-family="sans-serif" font-size="13" lengthAdjust="spacing" textLength="164.8994" x="1288.7769" y="269.9199">(No handler implemented)</text><path d="M1136,295.6621 L1136,335.6621 L1416,335.6621 L1416,305.6621 L1406,295.6621 L1136,295.6621 " fill="#FEFFDD" style="stroke:#181818;stroke-width:0.5;"/><path d="M1406,295.6621 L1406,305.6621 L1416,305.6621 L1406,295.6621 " fill="#FEFFDD" style="stroke:#181818;stroke-width:0.5;"/><text fill="#333333" font-family="sans-serif" font-size="13" lengthAdjust="spacing" textLength="227.1953" x="1142" y="313.2305">Nodes subscribe to rejectedTxTopic</text><text fill="#333333" font-family="sans-serif" font-size="13" lengthAdjust="spacing" textLength="259.7271" x="1142" y="328.541">but lack handlers for incoming messages</text><text fill="#333333" font-family="sans-serif" font-size="10" lengthAdjust="spacing" textLength="157.5488" x="0" y="392.4395">Last Modified On: 04-Aug-2025</text><!--SRC=[fLDDZzCm4BtxLuoA4Ar4Lr0aX7BWiBkga22xAxg2mou79vwqfeuTUPoo5UA_Ct7IvWDEC8TaF7xpvet7fhssbVIoX4pc-wrtjLLNpZWFpzQlrk_MQq5dXC92rYQidGqTv4sq0KHwxtvqcs-Z2V42hh7G5Y5pNg4dA7XN6WDei4GRQ93FInsEy5C0N4Rqc8kZKvNNqSGlCM39MQ5tvdzf-1jqhYjfmxzHiGqvPb-aqKe61ctG7tIECv04v-WO_54MUna1qHjltgtk8WTwcDyuXV1w4Q4SRyCJU9rjwWmsHmfOji0O-PCqagqYf75NGlIYb-zxhSd9nQywx6whe9sb-G8AgGq9cGTzuBr1RoEQs57IY32QTktoCtx7FA2wVxftbSvJ999R50h_GYPYHiDqRZW1tn5ya5OPz2o6xm7L9HAK7TcPgZ-dipTXk_BO07jL9q7ZX7YC2T15Q4JJWnztSIDB_7RHzJdFmzDBy5F6osD0MWmRxTM9Rd9SAeuZWIu9AkygkMMqWeEM4Clt_RMpYzz1BbyLsBMd0xgiskU7QbIxcxfrxBkcoowt-H5GdL7kTOPS42QzFjgi3c3uEPoAj4zTszoLscvFKo0X31Q1zxY6Xq-I0gHEwK9pBxSsWUVDjPhFb5gcQReyiiqMuZS0]--></g></svg>
