<svg xmlns="http://www.w3.org/2000/svg" xmlns:xlink="http://www.w3.org/1999/xlink" contentStyleType="text/css" height="431px" preserveAspectRatio="none" style="width:900px;height:431px;background:#F0F8FF;" version="1.1" viewBox="0 0 900 431" width="900px" zoomAndPan="magnify"><defs/><g><rect fill="#F0F8FF" height="431" style="stroke:none;stroke-width:1.0;" width="900" x="0" y="0"/><rect fill="#FFFFFF" height="143.2422" style="stroke:#181818;stroke-width:1.0;" width="10" x="202.3833" y="67.7988"/><rect fill="#FFFFFF" height="63.6211" style="stroke:#181818;stroke-width:1.0;" width="10" x="207.3833" y="147.4199"/><rect fill="#FFFFFF" height="71.6211" style="stroke:#181818;stroke-width:1.0;" width="10" x="757.2461" y="240.3516"/><line style="stroke:#181818;stroke-width:0.5;stroke-dasharray:5.0,5.0;" x1="74" x2="74" y1="36.4883" y2="380.5938"/><line style="stroke:#181818;stroke-width:0.5;stroke-dasharray:5.0,5.0;" x1="207.0825" x2="207.0825" y1="36.4883" y2="380.5938"/><line style="stroke:#181818;stroke-width:0.5;stroke-dasharray:5.0,5.0;" x1="452.8984" x2="452.8984" y1="36.4883" y2="380.5938"/><line style="stroke:#181818;stroke-width:0.5;stroke-dasharray:5.0,5.0;" x1="577.0317" x2="577.0317" y1="36.4883" y2="380.5938"/><line style="stroke:#181818;stroke-width:0.5;stroke-dasharray:5.0,5.0;" x1="761.8188" x2="761.8188" y1="36.4883" y2="380.5938"/><rect fill="#DDDDDD" height="30.4883" rx="2.5" ry="2.5" style="stroke:#666666;stroke-width:0.5;" width="138.1406" x="5" y="5"/><text fill="#333333" font-family="sans-serif" font-size="14" lengthAdjust="spacing" textLength="124.1406" x="12" y="25.5352">Blockchain Service</text><rect fill="#DDDDDD" height="30.4883" rx="2.5" ry="2.5" style="stroke:#666666;stroke-width:0.5;" width="138.1406" x="5" y="379.5938"/><text fill="#333333" font-family="sans-serif" font-size="14" lengthAdjust="spacing" textLength="124.1406" x="12" y="400.1289">Blockchain Service</text><rect fill="#DDDDDD" height="30.4883" rx="2.5" ry="2.5" style="stroke:#666666;stroke-width:0.5;" width="84.6016" x="165.0825" y="5"/><text fill="#333333" font-family="sans-serif" font-size="14" lengthAdjust="spacing" textLength="70.6016" x="172.0825" y="25.5352">P2P Server</text><rect fill="#DDDDDD" height="30.4883" rx="2.5" ry="2.5" style="stroke:#666666;stroke-width:0.5;" width="84.6016" x="165.0825" y="379.5938"/><text fill="#333333" font-family="sans-serif" font-size="14" lengthAdjust="spacing" textLength="70.6016" x="172.0825" y="400.1289">P2P Server</text><rect fill="#DDDDDD" height="30.4883" rx="2.5" ry="2.5" style="stroke:#666666;stroke-width:0.5;" width="51.9326" x="427.8984" y="5"/><text fill="#333333" font-family="sans-serif" font-size="14" lengthAdjust="spacing" textLength="37.9326" x="434.8984" y="25.5352">Kafka</text><rect fill="#DDDDDD" height="30.4883" rx="2.5" ry="2.5" style="stroke:#666666;stroke-width:0.5;" width="51.9326" x="427.8984" y="379.5938"/><text fill="#333333" font-family="sans-serif" font-size="14" lengthAdjust="spacing" textLength="37.9326" x="434.8984" y="400.1289">Kafka</text><path d="M521.0317,10 L633.8374,10 C638.8374,10 638.8374,23.2441 638.8374,23.2441 C638.8374,23.2441 638.8374,36.4883 633.8374,36.4883 L521.0317,36.4883 C516.0317,36.4883 516.0317,23.2441 516.0317,23.2441 C516.0317,23.2441 516.0317,10 521.0317,10 " fill="#E2E2F0" style="stroke:#181818;stroke-width:0.5;"/><path d="M633.8374,10 C628.8374,10 628.8374,23.2441 628.8374,23.2441 C628.8374,36.4883 633.8374,36.4883 633.8374,36.4883 " fill="none" style="stroke:#181818;stroke-width:0.5;"/><text fill="#333333" font-family="sans-serif" font-size="14" lengthAdjust="spacing" textLength="102.8057" x="521.0317" y="28.5352">PubSub System</text><path d="M521.0317,379.5938 L633.8374,379.5938 C638.8374,379.5938 638.8374,392.8379 638.8374,392.8379 C638.8374,392.8379 638.8374,406.082 633.8374,406.082 L521.0317,406.082 C516.0317,406.082 516.0317,392.8379 516.0317,392.8379 C516.0317,392.8379 516.0317,379.5938 521.0317,379.5938 " fill="#E2E2F0" style="stroke:#181818;stroke-width:0.5;"/><path d="M633.8374,379.5938 C628.8374,379.5938 628.8374,392.8379 628.8374,392.8379 C628.8374,406.082 633.8374,406.082 633.8374,406.082 " fill="none" style="stroke:#181818;stroke-width:0.5;"/><text fill="#333333" font-family="sans-serif" font-size="14" lengthAdjust="spacing" textLength="102.8057" x="521.0317" y="398.1289">PubSub System</text><rect fill="#DDDDDD" height="30.4883" rx="2.5" ry="2.5" style="stroke:#666666;stroke-width:0.5;" width="98.8545" x="712.8188" y="5"/><text fill="#333333" font-family="sans-serif" font-size="14" lengthAdjust="spacing" textLength="84.8545" x="719.8188" y="25.5352">Remote Peer</text><rect fill="#DDDDDD" height="30.4883" rx="2.5" ry="2.5" style="stroke:#666666;stroke-width:0.5;" width="98.8545" x="712.8188" y="379.5938"/><text fill="#333333" font-family="sans-serif" font-size="14" lengthAdjust="spacing" textLength="84.8545" x="719.8188" y="400.1289">Remote Peer</text><rect fill="#FFFFFF" height="143.2422" style="stroke:#181818;stroke-width:1.0;" width="10" x="202.3833" y="67.7988"/><rect fill="#FFFFFF" height="63.6211" style="stroke:#181818;stroke-width:1.0;" width="10" x="207.3833" y="147.4199"/><rect fill="#FFFFFF" height="71.6211" style="stroke:#181818;stroke-width:1.0;" width="10" x="757.2461" y="240.3516"/><polygon fill="#666666" points="190.3833,63.7988,200.3833,67.7988,190.3833,71.7988,194.3833,67.7988" style="stroke:#666666;stroke-width:1.0;"/><line style="stroke:#666666;stroke-width:1.0;" x1="74.0703" x2="196.3833" y1="67.7988" y2="67.7988"/><text fill="#333333" font-family="sans-serif" font-size="13" lengthAdjust="spacing" textLength="109.313" x="81.0703" y="63.0566">Block notification</text><line style="stroke:#666666;stroke-width:1.0;" x1="212.3833" x2="254.3833" y1="97.1094" y2="97.1094"/><line style="stroke:#666666;stroke-width:1.0;" x1="254.3833" x2="254.3833" y1="97.1094" y2="110.1094"/><line style="stroke:#666666;stroke-width:1.0;" x1="213.3833" x2="254.3833" y1="110.1094" y2="110.1094"/><polygon fill="#666666" points="223.3833,106.1094,213.3833,110.1094,223.3833,114.1094,219.3833,110.1094" style="stroke:#666666;stroke-width:1.0;"/><text fill="#333333" font-family="sans-serif" font-size="13" lengthAdjust="spacing" textLength="197.5645" x="219.3833" y="92.3672">processBlockchainNotification()</text><line style="stroke:#666666;stroke-width:1.0;" x1="212.3833" x2="259.3833" y1="134.4199" y2="134.4199"/><line style="stroke:#666666;stroke-width:1.0;" x1="259.3833" x2="259.3833" y1="134.4199" y2="147.4199"/><line style="stroke:#666666;stroke-width:1.0;" x1="218.3833" x2="259.3833" y1="147.4199" y2="147.4199"/><polygon fill="#666666" points="228.3833,143.4199,218.3833,147.4199,228.3833,151.4199,224.3833,147.4199" style="stroke:#666666;stroke-width:1.0;"/><text fill="#333333" font-family="sans-serif" font-size="13" lengthAdjust="spacing" textLength="157.6885" x="224.3833" y="129.6777">handleBlockNotification()</text><polygon fill="#666666" points="565.4346,177.7305,575.4346,181.7305,565.4346,185.7305,569.4346,181.7305" style="stroke:#666666;stroke-width:1.0;"/><line style="stroke:#666666;stroke-width:1.0;" x1="217.3833" x2="571.4346" y1="181.7305" y2="181.7305"/><text fill="#333333" font-family="sans-serif" font-size="13" lengthAdjust="spacing" textLength="336.0513" x="224.3833" y="176.9883">s.topics[blockTopicName].Publish(ctx, BlockMessage)</text><polygon fill="#666666" points="441.8647,207.041,451.8647,211.041,441.8647,215.041,445.8647,211.041" style="stroke:#666666;stroke-width:1.0;"/><line style="stroke:#666666;stroke-width:1.0;" x1="207.3833" x2="447.8647" y1="211.041" y2="211.041"/><text fill="#333333" font-family="sans-serif" font-size="13" lengthAdjust="spacing" textLength="212.4814" x="214.3833" y="206.2988">Produce KafkaBlockTopicMessage</text><polygon fill="#666666" points="745.2461,236.3516,755.2461,240.3516,745.2461,244.3516,749.2461,240.3516" style="stroke:#666666;stroke-width:1.0;"/><line style="stroke:#666666;stroke-width:1.0;" x1="577.4346" x2="751.2461" y1="240.3516" y2="240.3516"/><text fill="#333333" font-family="sans-serif" font-size="13" lengthAdjust="spacing" textLength="160.8115" x="584.4346" y="235.6094">Propagate block message</text><line style="stroke:#666666;stroke-width:1.0;" x1="767.2461" x2="809.2461" y1="269.6621" y2="269.6621"/><line style="stroke:#666666;stroke-width:1.0;" x1="809.2461" x2="809.2461" y1="269.6621" y2="282.6621"/><line style="stroke:#666666;stroke-width:1.0;" x1="768.2461" x2="809.2461" y1="282.6621" y2="282.6621"/><polygon fill="#666666" points="778.2461,278.6621,768.2461,282.6621,778.2461,286.6621,774.2461,282.6621" style="stroke:#666666;stroke-width:1.0;"/><text fill="#333333" font-family="sans-serif" font-size="13" lengthAdjust="spacing" textLength="119.2344" x="774.2461" y="264.9199">handleBlockTopic()</text><polygon fill="#666666" points="464.8647,307.9727,454.8647,311.9727,464.8647,315.9727,460.8647,311.9727" style="stroke:#666666;stroke-width:1.0;"/><line style="stroke:#666666;stroke-width:1.0;" x1="458.8647" x2="761.2461" y1="311.9727" y2="311.9727"/><text fill="#333333" font-family="sans-serif" font-size="13" lengthAdjust="spacing" textLength="212.4814" x="470.8647" y="307.2305">Produce KafkaBlockTopicMessage</text><path d="M92,324.9727 L92,364.9727 L322,364.9727 L322,334.9727 L312,324.9727 L92,324.9727 " fill="#FEFFDD" style="stroke:#181818;stroke-width:0.5;"/><path d="M312,324.9727 L312,334.9727 L322,334.9727 L312,324.9727 " fill="#FEFFDD" style="stroke:#181818;stroke-width:0.5;"/><text fill="#333333" font-family="sans-serif" font-size="13" lengthAdjust="spacing" textLength="174.8462" x="98" y="342.541">No separate bestBlockTopic</text><text fill="#333333" font-family="sans-serif" font-size="13" lengthAdjust="spacing" textLength="209.644" x="98" y="357.8516">Block info shared via handshakes</text><text fill="#333333" font-family="sans-serif" font-size="10" lengthAdjust="spacing" textLength="157.5488" x="0" y="421.75">Last Modified On: 04-Aug-2025</text><!--SRC=[fPJ1ZjCm48RlVefH4Q8hqHK22Q4Uzb1MkK1AHRa1XuazQQquTh2TGeLuTnmdIfne4MAPG-Hn_ldyU-p4LL8tQB660dbrigRLugrHniAJx4Ns9ikO6nM2IcoLpupsW-HLZ4I2rfhlmylNCHXx1lTKIarG62l8EYZ3MrGAI55DshkaFgJIN-4d0zX5zPmLPfSkxsEmNooXyE3G6lM_cF3qaii6jNySAaJAMEsKuHK_ezHm97kHd5Q03gRfkVpmyX1rPACif7qsLxt3ii8eY2FshQMMGd5R7Di2ZbVdgUxhuyoy-2FLnXCSQ5YZpxkKiSJjvcvQVTlx1MsyB2L7BurcoBsyO4SQJOwZHNLZ3IVd9le-0Qrl_bXtHYqKnR95nLyNZnlVWhlrff7SVIuwoATklCUQlju6WPBklER-n_D-TtbmY2TQk8aDtiB16j5owjFTo1fgcA0733quoOP32kYfyP7VuAcJHgDG3-2Ha9pID5nIadv5Uw5HS_4_xoQz7BgxDgRhIt94UmEEkc-diqxEJxGlkhyqKfT1SqPB0YuIeycGLkGOKrJwy6y8O0llqNd8ZGZ779GVz1QUYa1ThuJOv7c-kOPOtR3V]--></g></svg>
