<svg contentStyleType="text/css" height="409" preserveAspectRatio="none" viewBox="0 0 998 409" width="998" xmlns="http://www.w3.org/2000/svg" zoomAndPan="magnify"><path d="m0 0h998v409h-998z" fill="#f0f8ff"/><g stroke="#181818"><path d="m52.7188 75.7988h10v273.4844h-10z" fill="#fff"/><path d="m57.7188 118.1094h10v34.3105h-10z" fill="#fff"/><path d="m57.7188 282.6621h10v50.6211h-10z" fill="#fff"/><path d="m269.436 253.3516h10v29.3105h-10z" fill="#fff"/><path d="m697.8877 181.7305h10v71.6211h-10z" fill="#fff"/><path d="m57 36.4883v321.7949" stroke-dasharray="5 5" stroke-width=".5"/><path d="m274.2646 36.4883v321.7949" stroke-dasharray="5 5" stroke-width=".5"/><path d="m425.7485 36.4883v321.7949" stroke-dasharray="5 5" stroke-width=".5"/><path d="m702.7134 36.4883v321.7949" stroke-dasharray="5 5" stroke-width=".5"/></g><rect fill="#ddd" height="30.4883" rx="2.5" stroke="#666" stroke-width=".5" width="105.4375" x="5" y="5"/><text fill="#333" font-family="sans-serif" font-size="14" lengthAdjust="spacing" textLength="91.4375" x="12" y="25.5352">Node (Peer 1)</text><rect fill="#ddd" height="30.4883" rx="2.5" stroke="#666" stroke-width=".5" width="105.4375" x="5" y="357.2832"/><text fill="#333" font-family="sans-serif" font-size="14" lengthAdjust="spacing" textLength="91.4375" x="12" y="377.8184">Node (Peer 1)</text><path d="m229.2646 10h90.3428c5 0 5 13.2441 5 13.2441s0 13.2442-5 13.2442h-90.3428c-5 0-5-13.2442-5-13.2442s0-13.2441 5-13.2441" fill="#e2e2f0" stroke="#181818" stroke-width=".5"/><path d="m319.6074 10c-5 0-5 13.2441-5 13.2441 0 13.2442 5 13.2442 5 13.2442" fill="none" stroke="#181818" stroke-width=".5"/><text fill="#333" font-family="sans-serif" font-size="14" lengthAdjust="spacing" textLength="80.3428" x="229.2646" y="28.5352">LibP2P Host</text><path d="m229.2646 357.2832h90.3428c5 0 5 13.2441 5 13.2441s0 13.2442-5 13.2442h-90.3428c-5 0-5-13.2442-5-13.2442s0-13.2441 5-13.2441" fill="#e2e2f0" stroke="#181818" stroke-width=".5"/><path d="m319.6074 357.2832c-5 0-5 13.2441-5 13.2441 0 13.2442 5 13.2442 5 13.2442" fill="none" stroke="#181818" stroke-width=".5"/><text fill="#333" font-family="sans-serif" font-size="14" lengthAdjust="spacing" textLength="80.3428" x="229.2646" y="375.8184">LibP2P Host</text><path d="m369.7485 10h112.8057c5 0 5 13.2441 5 13.2441s0 13.2442-5 13.2442h-112.8057c-5 0-5-13.2442-5-13.2442s0-13.2441 5-13.2441" fill="#e2e2f0" stroke="#181818" stroke-width=".5"/><path d="m482.5542 10c-5 0-5 13.2441-5 13.2441 0 13.2442 5 13.2442 5 13.2442" fill="none" stroke="#181818" stroke-width=".5"/><text fill="#333" font-family="sans-serif" font-size="14" lengthAdjust="spacing" textLength="102.8057" x="369.7485" y="28.5352">PubSub System</text><path d="m369.7485 357.2832h112.8057c5 0 5 13.2441 5 13.2441s0 13.2442-5 13.2442h-112.8057c-5 0-5-13.2442-5-13.2442s0-13.2441 5-13.2441" fill="#e2e2f0" stroke="#181818" stroke-width=".5"/><path d="m482.5542 357.2832c-5 0-5 13.2441-5 13.2441 0 13.2442 5 13.2442 5 13.2442" fill="none" stroke="#181818" stroke-width=".5"/><text fill="#333" font-family="sans-serif" font-size="14" lengthAdjust="spacing" textLength="102.8057" x="369.7485" y="375.8184">PubSub System</text><rect fill="#ddd" height="30.4883" rx="2.5" stroke="#666" stroke-width=".5" width="56.3486" x="674.7134" y="5"/><text fill="#333" font-family="sans-serif" font-size="14" lengthAdjust="spacing" textLength="42.3486" x="681.7134" y="25.5352">Peer 2</text><rect fill="#ddd" height="30.4883" rx="2.5" stroke="#666" stroke-width=".5" width="56.3486" x="674.7134" y="357.2832"/><text fill="#333" font-family="sans-serif" font-size="14" lengthAdjust="spacing" textLength="42.3486" x="681.7134" y="377.8184">Peer 2</text><path d="m52.7188 75.7988h10v273.4844h-10z" fill="#fff" stroke="#181818"/><path d="m57.7188 118.1094h10v34.3105h-10z" fill="#fff" stroke="#181818"/><path d="m57.7188 282.6621h10v50.6211h-10z" fill="#fff" stroke="#181818"/><path d="m269.436 253.3516h10v29.3105h-10z" fill="#fff" stroke="#181818"/><path d="m697.8877 181.7305h10v71.6211h-10z" fill="#fff" stroke="#181818"/><path d="m57.7188 62.7988h47" stroke="#666"/><path d="m104.7188 62.7988v13" stroke="#666"/><path d="m63.7188 75.7988h41" stroke="#666"/><path d="m73.7188 71.7988-10 4 10 4-4-4z" fill="#666" stroke="#666"/><text fill="#333" font-family="sans-serif" font-size="13" lengthAdjust="spacing" textLength="37.6797" x="69.7188" y="58.0566">Start()</text><path d="m62.7188 105.1094h47" stroke="#666"/><path d="m109.7188 105.1094v13" stroke="#666"/><path d="m68.7188 118.1094h41" stroke="#666"/><path d="m78.7188 114.1094-10 4 10 4-4-4z" fill="#666" stroke="#666"/><text fill="#333" font-family="sans-serif" font-size="13" lengthAdjust="spacing" textLength="182.7173" x="74.7188" y="100.3672">s.sendBestBlockMessage(ctx)</text><path d="m414.1514 148.4199 10 4-10 4 4-4z" fill="#666" stroke="#666"/><path d="m62.7188 152.4199h357.4326" stroke="#666"/><text fill="#333" font-family="sans-serif" font-size="13" lengthAdjust="spacing" textLength="334.4326" x="69.7188" y="147.6777">s.topics[bestBlockTopicName].Publish(ctx, msgBytes)</text><path d="m685.8877 177.7305 10 4-10 4 4-4z" fill="#666" stroke="#666"/><path d="m426.1514 181.7305h265.7363" stroke="#666"/><text fill="#333" font-family="sans-serif" font-size="13" lengthAdjust="spacing" textLength="175.6777" x="433.1514" y="176.9883">s.handleBestBlockTopic(ctx)</text><path d="m707.8877 211.041h42" stroke="#666"/><path d="m749.8877 211.041v13" stroke="#666"/><path d="m708.8877 224.041h41" stroke="#666"/><path d="m718.8877 220.041-10 4 10 4-4-4z" fill="#666" stroke="#666"/><text fill="#333" font-family="sans-serif" font-size="13" lengthAdjust="spacing" textLength="276.4087" x="714.8877" y="206.2988">s.P2PNode.SendToPeer(ctx, peer, msgBytes)</text><path d="m290.436 249.3516-10 4 10 4-4-4z" fill="#666" stroke="#666"/><path d="m284.436 253.3516h417.4517" stroke="#666"/><text fill="#333" font-family="sans-serif" font-size="13" lengthAdjust="spacing" textLength="399.4517" x="296.436" y="248.6094">s.host.NewStream(ctx, peer.ID, protocol.ID(s.bitcoinProtocolId))</text><path d="m78.7188 278.6621-10 4 10 4-4-4z" fill="#666" stroke="#666"/><path d="m72.7188 282.6621h200.7172" stroke="#666"/><text fill="#333" font-family="sans-serif" font-size="13" lengthAdjust="spacing" textLength="155.2319" x="84.7188" y="277.9199">s.streamHandler(stream)</text><path d="m67.7188 332.2832h42" stroke="#666"/><path d="m109.7188 332.2832v13" stroke="#666"/><path d="m62.7188 345.2832h47" stroke="#666"/><path d="m72.7188 341.2832-10 4 10 4-4-4z" fill="#666" stroke="#666"/><text fill="#333" font-family="sans-serif" font-size="13" lengthAdjust="spacing" textLength="163.0713" x="74.7188" y="312.2305">Log the received message</text><text fill="#333" font-family="sans-serif" font-size="13" lengthAdjust="spacing" textLength="67.1328" x="74.7188" y="327.541">(no action)</text><text fill="#333" font-family="sans-serif" font-size="10" lengthAdjust="spacing" textLength="155.4346" y="399.4395">Last Modified On: 24-Feb-2025</text></svg>
