<svg contentStyleType="text/css" height="250" preserveAspectRatio="none" viewBox="0 0 1034 250" width="1034" xmlns="http://www.w3.org/2000/svg" zoomAndPan="magnify"><path d="m0 0h1034v250h-1034z" fill="#f0f8ff"/><g stroke="#181818"><path d="m31.418 75.7988h10v34.3105h-10z" fill="#fff"/><path d="m761.3892 139.4199h10v35.3105h-10z" fill="#fff"/><path d="m36 36.4883v163.2422" stroke-dasharray="5 5" stroke-width=".5"/><path d="m500.2041 36.4883v163.2422" stroke-dasharray="5 5" stroke-width=".5"/><path d="m765.9712 36.4883v163.2422" stroke-dasharray="5 5" stroke-width=".5"/></g><rect fill="#ddd" height="30.4883" rx="2.5" stroke="#666" stroke-width=".5" width="62.8359" x="5" y="5"/><text fill="#333" font-family="sans-serif" font-size="14" lengthAdjust="spacing" textLength="48.8359" x="12" y="25.5352">Node 1</text><rect fill="#ddd" height="30.4883" rx="2.5" stroke="#666" stroke-width=".5" width="62.8359" x="5" y="198.7305"/><text fill="#333" font-family="sans-serif" font-size="14" lengthAdjust="spacing" textLength="48.8359" x="12" y="219.2656">Node 1</text><rect fill="#ddd" height="30.4883" rx="2.5" stroke="#666" stroke-width=".5" width="116.8057" x="442.2041" y="5"/><text fill="#333" font-family="sans-serif" font-size="14" lengthAdjust="spacing" textLength="102.8057" x="449.2041" y="25.5352">PubSub System</text><rect fill="#ddd" height="30.4883" rx="2.5" stroke="#666" stroke-width=".5" width="116.8057" x="442.2041" y="198.7305"/><text fill="#333" font-family="sans-serif" font-size="14" lengthAdjust="spacing" textLength="102.8057" x="449.2041" y="219.2656">PubSub System</text><rect fill="#ddd" height="30.4883" rx="2.5" stroke="#666" stroke-width=".5" width="62.8359" x="734.9712" y="5"/><text fill="#333" font-family="sans-serif" font-size="14" lengthAdjust="spacing" textLength="48.8359" x="741.9712" y="25.5352">Node 2</text><rect fill="#ddd" height="30.4883" rx="2.5" stroke="#666" stroke-width=".5" width="62.8359" x="734.9712" y="198.7305"/><text fill="#333" font-family="sans-serif" font-size="14" lengthAdjust="spacing" textLength="48.8359" x="741.9712" y="219.2656">Node 2</text><path d="m31.418 75.7988h10v34.3105h-10z" fill="#fff" stroke="#181818"/><path d="m761.3892 139.4199h10v35.3105h-10z" fill="#fff" stroke="#181818"/><path d="m36.418 62.7988h47" stroke="#666"/><path d="m83.418 62.7988v13" stroke="#666"/><path d="m42.418 75.7988h41" stroke="#666"/><path d="m52.418 71.7988-10 4 10 4-4-4z" fill="#666" stroke="#666"/><text fill="#333" font-family="sans-serif" font-size="13" lengthAdjust="spacing" textLength="211.4214" x="48.418" y="58.0566">validatorSubscriptionListener(ctx)</text><path d="m488.6069 106.1094 10 4-10 4 4-4z" fill="#666" stroke="#666"/><path d="m36.418 110.1094h458.1889" stroke="#666"/><text fill="#333" font-family="sans-serif" font-size="13" lengthAdjust="spacing" textLength="435.189" x="43.418" y="105.3672">s.topics[rejectedTxTopicName].Publish(ctx, rejectedTxMessageBytes)</text><path d="m749.3892 135.4199 10 4-10 4 4-4z" fill="#666" stroke="#666"/><path d="m500.6069 139.4199h254.7823" stroke="#666"/><text fill="#333" font-family="sans-serif" font-size="13" lengthAdjust="spacing" textLength="241.7822" x="507.6069" y="134.6777">s.subscriptions[rejectedTxTopicName]</text><path d="m771.3892 173.7305h42" stroke="#666"/><path d="m813.3892 173.7305v13" stroke="#666"/><path d="m766.3892 186.7305h47" stroke="#666"/><path d="m776.3892 182.7305-10 4 10 4-4-4z" fill="#666" stroke="#666"/><text fill="#333" font-family="sans-serif" font-size="13" lengthAdjust="spacing" textLength="249.3169" x="778.3892" y="168.9883">Handle rejected transaction notification</text><text fill="#333" font-family="sans-serif" font-size="10" lengthAdjust="spacing" textLength="155.4346" y="240.8867">Last Modified On: 24-Feb-2025</text></svg>
