<svg xmlns="http://www.w3.org/2000/svg" xmlns:xlink="http://www.w3.org/1999/xlink" contentStyleType="text/css" height="842px" preserveAspectRatio="none" style="width:1434px;height:842px;background:#F0F8FF;" version="1.1" viewBox="0 0 1434 842" width="1434px" zoomAndPan="magnify"><defs/><g><rect fill="#F0F8FF" height="842" style="stroke:none;stroke-width:1.0;" width="1434" x="0" y="0"/><rect fill="#FFFFFF" height="643.9688" style="stroke:#181818;stroke-width:1.0;" width="10" x="42.3008" y="106.7988"/><rect fill="#FFFFFF" height="170.2422" style="stroke:#181818;stroke-width:1.0;" width="10" x="47.3008" y="234.7305"/><rect fill="#FFFFFF" height="285.4844" style="stroke:#181818;stroke-width:1.0;" width="10" x="47.3008" y="449.2832"/><line style="stroke:#181818;stroke-width:0.5;stroke-dasharray:5.0,5.0;" x1="47" x2="47" y1="67.4883" y2="759.7676"/><line style="stroke:#181818;stroke-width:0.5;stroke-dasharray:5.0,5.0;" x1="339.9492" x2="339.9492" y1="67.4883" y2="759.7676"/><line style="stroke:#181818;stroke-width:0.5;stroke-dasharray:5.0,5.0;" x1="448.832" x2="448.832" y1="67.4883" y2="759.7676"/><line style="stroke:#181818;stroke-width:0.5;stroke-dasharray:5.0,5.0;" x1="599.1455" x2="599.1455" y1="67.4883" y2="759.7676"/><line style="stroke:#181818;stroke-width:0.5;stroke-dasharray:5.0,5.0;" x1="743.6553" x2="743.6553" y1="67.4883" y2="759.7676"/><line style="stroke:#181818;stroke-width:0.5;stroke-dasharray:5.0,5.0;" x1="879.6758" x2="879.6758" y1="67.4883" y2="759.7676"/><line style="stroke:#181818;stroke-width:0.5;stroke-dasharray:5.0,5.0;" x1="1022.2617" x2="1022.2617" y1="67.4883" y2="759.7676"/><line style="stroke:#181818;stroke-width:0.5;stroke-dasharray:5.0,5.0;" x1="1182.0674" x2="1182.0674" y1="67.4883" y2="759.7676"/><line style="stroke:#181818;stroke-width:0.5;stroke-dasharray:5.0,5.0;" x1="1353.2275" x2="1353.2275" y1="67.4883" y2="759.7676"/><rect fill="#DDDDDD" height="30.4883" rx="2.5" ry="2.5" style="stroke:#666666;stroke-width:0.5;" width="84.6016" x="5" y="36"/><text fill="#333333" font-family="sans-serif" font-size="14" lengthAdjust="spacing" textLength="70.6016" x="12" y="56.5352">P2P Server</text><rect fill="#DDDDDD" height="30.4883" rx="2.5" ry="2.5" style="stroke:#666666;stroke-width:0.5;" width="84.6016" x="5" y="758.7676"/><text fill="#333333" font-family="sans-serif" font-size="14" lengthAdjust="spacing" textLength="70.6016" x="12" y="779.3027">P2P Server</text><rect fill="#DDDDDD" height="30.4883" rx="2.5" ry="2.5" style="stroke:#666666;stroke-width:0.5;" width="73.8828" x="303.9492" y="36"/><text fill="#333333" font-family="sans-serif" font-size="14" lengthAdjust="spacing" textLength="59.8828" x="310.9492" y="56.5352">P2PNode</text><rect fill="#DDDDDD" height="30.4883" rx="2.5" ry="2.5" style="stroke:#666666;stroke-width:0.5;" width="73.8828" x="303.9492" y="758.7676"/><text fill="#333333" font-family="sans-serif" font-size="14" lengthAdjust="spacing" textLength="59.8828" x="310.9492" y="779.3027">P2PNode</text><text fill="#333333" font-family="sans-serif" font-size="14" lengthAdjust="spacing" textLength="116.3135" x="387.832" y="64.5352">Blockchain Client</text><path d="M430.9888,15 C430.9888,5 448.9888,5 448.9888,5 C448.9888,5 466.9888,5 466.9888,15 L466.9888,41 C466.9888,51 448.9888,51 448.9888,51 C448.9888,51 430.9888,51 430.9888,41 L430.9888,15 " fill="#E2E2F0" style="stroke:#181818;stroke-width:1.5;"/><path d="M430.9888,15 C430.9888,25 448.9888,25 448.9888,25 C448.9888,25 466.9888,25 466.9888,15 " fill="none" style="stroke:#181818;stroke-width:1.5;"/><text fill="#333333" font-family="sans-serif" font-size="14" lengthAdjust="spacing" textLength="116.3135" x="387.832" y="772.3027">Blockchain Client</text><path d="M430.9888,785.2559 C430.9888,775.2559 448.9888,775.2559 448.9888,775.2559 C448.9888,775.2559 466.9888,775.2559 466.9888,785.2559 L466.9888,811.2559 C466.9888,821.2559 448.9888,821.2559 448.9888,821.2559 C448.9888,821.2559 430.9888,821.2559 430.9888,811.2559 L430.9888,785.2559 " fill="#E2E2F0" style="stroke:#181818;stroke-width:1.5;"/><path d="M430.9888,785.2559 C430.9888,795.2559 448.9888,795.2559 448.9888,795.2559 C448.9888,795.2559 466.9888,795.2559 466.9888,785.2559 " fill="none" style="stroke:#181818;stroke-width:1.5;"/><text fill="#333333" font-family="sans-serif" font-size="14" lengthAdjust="spacing" textLength="152.5098" x="520.1455" y="64.5352">Block Validation Client</text><path d="M581.4004,15 C581.4004,5 599.4004,5 599.4004,5 C599.4004,5 617.4004,5 617.4004,15 L617.4004,41 C617.4004,51 599.4004,51 599.4004,51 C599.4004,51 581.4004,51 581.4004,41 L581.4004,15 " fill="#E2E2F0" style="stroke:#181818;stroke-width:1.5;"/><path d="M581.4004,15 C581.4004,25 599.4004,25 599.4004,25 C599.4004,25 617.4004,25 617.4004,15 " fill="none" style="stroke:#181818;stroke-width:1.5;"/><text fill="#333333" font-family="sans-serif" font-size="14" lengthAdjust="spacing" textLength="152.5098" x="520.1455" y="772.3027">Block Validation Client</text><path d="M581.4004,785.2559 C581.4004,775.2559 599.4004,775.2559 599.4004,775.2559 C599.4004,775.2559 617.4004,775.2559 617.4004,785.2559 L617.4004,811.2559 C617.4004,821.2559 599.4004,821.2559 599.4004,821.2559 C599.4004,821.2559 581.4004,821.2559 581.4004,811.2559 L581.4004,785.2559 " fill="#E2E2F0" style="stroke:#181818;stroke-width:1.5;"/><path d="M581.4004,785.2559 C581.4004,795.2559 599.4004,795.2559 599.4004,795.2559 C599.4004,795.2559 617.4004,795.2559 617.4004,785.2559 " fill="none" style="stroke:#181818;stroke-width:1.5;"/><text fill="#333333" font-family="sans-serif" font-size="14" lengthAdjust="spacing" textLength="105.0205" x="688.6553" y="64.5352">Validator Client</text><path d="M726.1655,15 C726.1655,5 744.1655,5 744.1655,5 C744.1655,5 762.1655,5 762.1655,15 L762.1655,41 C762.1655,51 744.1655,51 744.1655,51 C744.1655,51 726.1655,51 726.1655,41 L726.1655,15 " fill="#E2E2F0" style="stroke:#181818;stroke-width:1.5;"/><path d="M726.1655,15 C726.1655,25 744.1655,25 744.1655,25 C744.1655,25 762.1655,25 762.1655,15 " fill="none" style="stroke:#181818;stroke-width:1.5;"/><text fill="#333333" font-family="sans-serif" font-size="14" lengthAdjust="spacing" textLength="105.0205" x="688.6553" y="772.3027">Validator Client</text><path d="M726.1655,785.2559 C726.1655,775.2559 744.1655,775.2559 744.1655,775.2559 C744.1655,775.2559 762.1655,775.2559 762.1655,785.2559 L762.1655,811.2559 C762.1655,821.2559 744.1655,821.2559 744.1655,821.2559 C744.1655,821.2559 726.1655,821.2559 726.1655,811.2559 L726.1655,785.2559 " fill="#E2E2F0" style="stroke:#181818;stroke-width:1.5;"/><path d="M726.1655,785.2559 C726.1655,795.2559 744.1655,795.2559 744.1655,795.2559 C744.1655,795.2559 762.1655,795.2559 762.1655,785.2559 " fill="none" style="stroke:#181818;stroke-width:1.5;"/><rect fill="#DDDDDD" height="30.4883" rx="2.5" ry="2.5" style="stroke:#666666;stroke-width:0.5;" width="141.5859" x="809.6758" y="36"/><text fill="#333333" font-family="sans-serif" font-size="14" lengthAdjust="spacing" textLength="127.5859" x="816.6758" y="56.5352">Echo (HTTP Server)</text><rect fill="#DDDDDD" height="30.4883" rx="2.5" ry="2.5" style="stroke:#666666;stroke-width:0.5;" width="141.5859" x="809.6758" y="758.7676"/><text fill="#333333" font-family="sans-serif" font-size="14" lengthAdjust="spacing" textLength="127.5859" x="816.6758" y="779.3027">Echo (HTTP Server)</text><path d="M966.2617,41 L1079.0674,41 C1084.0674,41 1084.0674,54.2441 1084.0674,54.2441 C1084.0674,54.2441 1084.0674,67.4883 1079.0674,67.4883 L966.2617,67.4883 C961.2617,67.4883 961.2617,54.2441 961.2617,54.2441 C961.2617,54.2441 961.2617,41 966.2617,41 " fill="#E2E2F0" style="stroke:#181818;stroke-width:0.5;"/><path d="M1079.0674,41 C1074.0674,41 1074.0674,54.2441 1074.0674,54.2441 C1074.0674,67.4883 1079.0674,67.4883 1079.0674,67.4883 " fill="none" style="stroke:#181818;stroke-width:0.5;"/><text fill="#333333" font-family="sans-serif" font-size="14" lengthAdjust="spacing" textLength="102.8057" x="966.2617" y="59.5352">PubSub System</text><path d="M966.2617,758.7676 L1079.0674,758.7676 C1084.0674,758.7676 1084.0674,772.0117 1084.0674,772.0117 C1084.0674,772.0117 1084.0674,785.2559 1079.0674,785.2559 L966.2617,785.2559 C961.2617,785.2559 961.2617,772.0117 961.2617,772.0117 C961.2617,772.0117 961.2617,758.7676 966.2617,758.7676 " fill="#E2E2F0" style="stroke:#181818;stroke-width:0.5;"/><path d="M1079.0674,758.7676 C1074.0674,758.7676 1074.0674,772.0117 1074.0674,772.0117 C1074.0674,785.2559 1079.0674,785.2559 1079.0674,785.2559 " fill="none" style="stroke:#181818;stroke-width:0.5;"/><text fill="#333333" font-family="sans-serif" font-size="14" lengthAdjust="spacing" textLength="102.8057" x="966.2617" y="777.3027">PubSub System</text><path d="M1099.0674,41 L1265.2275,41 C1270.2275,41 1270.2275,54.2441 1270.2275,54.2441 C1270.2275,54.2441 1270.2275,67.4883 1265.2275,67.4883 L1099.0674,67.4883 C1094.0674,67.4883 1094.0674,54.2441 1094.0674,54.2441 C1094.0674,54.2441 1094.0674,41 1099.0674,41 " fill="#E2E2F0" style="stroke:#181818;stroke-width:0.5;"/><path d="M1265.2275,41 C1260.2275,41 1260.2275,54.2441 1260.2275,54.2441 C1260.2275,67.4883 1265.2275,67.4883 1265.2275,67.4883 " fill="none" style="stroke:#181818;stroke-width:0.5;"/><text fill="#333333" font-family="sans-serif" font-size="14" lengthAdjust="spacing" textLength="156.1602" x="1099.0674" y="59.5352">Connect to Static Peers</text><path d="M1099.0674,758.7676 L1265.2275,758.7676 C1270.2275,758.7676 1270.2275,772.0117 1270.2275,772.0117 C1270.2275,772.0117 1270.2275,785.2559 1265.2275,785.2559 L1099.0674,785.2559 C1094.0674,785.2559 1094.0674,772.0117 1094.0674,772.0117 C1094.0674,772.0117 1094.0674,758.7676 1099.0674,758.7676 " fill="#E2E2F0" style="stroke:#181818;stroke-width:0.5;"/><path d="M1265.2275,758.7676 C1260.2275,758.7676 1260.2275,772.0117 1260.2275,772.0117 C1260.2275,785.2559 1265.2275,785.2559 1265.2275,785.2559 " fill="none" style="stroke:#181818;stroke-width:0.5;"/><text fill="#333333" font-family="sans-serif" font-size="14" lengthAdjust="spacing" textLength="156.1602" x="1099.0674" y="777.3027">Connect to Static Peers</text><path d="M1285.2275,41 L1422.376,41 C1427.376,41 1427.376,54.2441 1427.376,54.2441 C1427.376,54.2441 1427.376,67.4883 1422.376,67.4883 L1285.2275,67.4883 C1280.2275,67.4883 1280.2275,54.2441 1280.2275,54.2441 C1280.2275,54.2441 1280.2275,41 1285.2275,41 " fill="#E2E2F0" style="stroke:#181818;stroke-width:0.5;"/><path d="M1422.376,41 C1417.376,41 1417.376,54.2441 1417.376,54.2441 C1417.376,67.4883 1422.376,67.4883 1422.376,67.4883 " fill="none" style="stroke:#181818;stroke-width:0.5;"/><text fill="#333333" font-family="sans-serif" font-size="14" lengthAdjust="spacing" textLength="127.1484" x="1285.2275" y="59.5352">Set Topic Handlers</text><path d="M1285.2275,758.7676 L1422.376,758.7676 C1427.376,758.7676 1427.376,772.0117 1427.376,772.0117 C1427.376,772.0117 1427.376,785.2559 1422.376,785.2559 L1285.2275,785.2559 C1280.2275,785.2559 1280.2275,772.0117 1280.2275,772.0117 C1280.2275,772.0117 1280.2275,758.7676 1285.2275,758.7676 " fill="#E2E2F0" style="stroke:#181818;stroke-width:0.5;"/><path d="M1422.376,758.7676 C1417.376,758.7676 1417.376,772.0117 1417.376,772.0117 C1417.376,785.2559 1422.376,785.2559 1422.376,785.2559 " fill="none" style="stroke:#181818;stroke-width:0.5;"/><text fill="#333333" font-family="sans-serif" font-size="14" lengthAdjust="spacing" textLength="127.1484" x="1285.2275" y="777.3027">Set Topic Handlers</text><rect fill="#FFFFFF" height="643.9688" style="stroke:#181818;stroke-width:1.0;" width="10" x="42.3008" y="106.7988"/><rect fill="#FFFFFF" height="170.2422" style="stroke:#181818;stroke-width:1.0;" width="10" x="47.3008" y="234.7305"/><rect fill="#FFFFFF" height="285.4844" style="stroke:#181818;stroke-width:1.0;" width="10" x="47.3008" y="449.2832"/><line style="stroke:#666666;stroke-width:1.0;" x1="47.3008" x2="94.3008" y1="93.7988" y2="93.7988"/><line style="stroke:#666666;stroke-width:1.0;" x1="94.3008" x2="94.3008" y1="93.7988" y2="106.7988"/><line style="stroke:#666666;stroke-width:1.0;" x1="53.3008" x2="94.3008" y1="106.7988" y2="106.7988"/><polygon fill="#666666" points="63.3008,102.7988,53.3008,106.7988,63.3008,110.7988,59.3008,106.7988" style="stroke:#666666;stroke-width:1.0;"/><text fill="#333333" font-family="sans-serif" font-size="13" lengthAdjust="spacing" textLength="65.7173" x="59.3008" y="89.0566">NewServer</text><polygon fill="#666666" points="328.8906,137.1094,338.8906,141.1094,328.8906,145.1094,332.8906,141.1094" style="stroke:#666666;stroke-width:1.0;"/><line style="stroke:#666666;stroke-width:1.0;" x1="52.3008" x2="334.8906" y1="141.1094" y2="141.1094"/><text fill="#333333" font-family="sans-serif" font-size="13" lengthAdjust="spacing" textLength="107.1865" x="59.3008" y="136.3672">Creates P2PNode</text><polygon fill="#666666" points="63.3008,151.1094,53.3008,155.1094,63.3008,159.1094,59.3008,155.1094" style="stroke:#666666;stroke-width:1.0;"/><line style="stroke:#666666;stroke-width:1.0;stroke-dasharray:2.0,2.0;" x1="57.3008" x2="339.8906" y1="155.1094" y2="155.1094"/><line style="stroke:#666666;stroke-width:1.0;" x1="52.3008" x2="94.3008" y1="184.4199" y2="184.4199"/><line style="stroke:#666666;stroke-width:1.0;" x1="94.3008" x2="94.3008" y1="184.4199" y2="197.4199"/><line style="stroke:#666666;stroke-width:1.0;" x1="53.3008" x2="94.3008" y1="197.4199" y2="197.4199"/><polygon fill="#666666" points="63.3008,193.4199,53.3008,197.4199,63.3008,201.4199,59.3008,197.4199" style="stroke:#666666;stroke-width:1.0;"/><text fill="#333333" font-family="sans-serif" font-size="13" lengthAdjust="spacing" textLength="230.4517" x="59.3008" y="179.6777">Sets up topics &amp; notification channel</text><line style="stroke:#666666;stroke-width:1.0;" x1="52.3008" x2="99.3008" y1="221.7305" y2="221.7305"/><line style="stroke:#666666;stroke-width:1.0;" x1="99.3008" x2="99.3008" y1="221.7305" y2="234.7305"/><line style="stroke:#666666;stroke-width:1.0;" x1="58.3008" x2="99.3008" y1="234.7305" y2="234.7305"/><polygon fill="#666666" points="68.3008,230.7305,58.3008,234.7305,68.3008,238.7305,64.3008,234.7305" style="stroke:#666666;stroke-width:1.0;"/><text fill="#333333" font-family="sans-serif" font-size="13" lengthAdjust="spacing" textLength="54.8628" x="64.3008" y="216.9883">Calls Init</text><polygon fill="#666666" points="436.9888,265.041,446.9888,269.041,436.9888,273.041,440.9888,269.041" style="stroke:#666666;stroke-width:1.0;"/><line style="stroke:#666666;stroke-width:1.0;" x1="57.3008" x2="442.9888" y1="269.041" y2="269.041"/><text fill="#333333" font-family="sans-serif" font-size="13" lengthAdjust="spacing" textLength="152.9595" x="64.3008" y="264.2988">Create Blockchain Client</text><polygon fill="#666666" points="68.3008,279.041,58.3008,283.041,68.3008,287.041,64.3008,283.041" style="stroke:#666666;stroke-width:1.0;"/><line style="stroke:#666666;stroke-width:1.0;stroke-dasharray:2.0,2.0;" x1="62.3008" x2="447.9888" y1="283.041" y2="283.041"/><polygon fill="#666666" points="587.4004,308.3516,597.4004,312.3516,587.4004,316.3516,591.4004,312.3516" style="stroke:#666666;stroke-width:1.0;"/><line style="stroke:#666666;stroke-width:1.0;" x1="57.3008" x2="593.4004" y1="312.3516" y2="312.3516"/><text fill="#333333" font-family="sans-serif" font-size="13" lengthAdjust="spacing" textLength="182.457" x="64.3008" y="307.6094">Create BlockValidation Client</text><polygon fill="#666666" points="68.3008,322.3516,58.3008,326.3516,68.3008,330.3516,64.3008,326.3516" style="stroke:#666666;stroke-width:1.0;"/><line style="stroke:#666666;stroke-width:1.0;stroke-dasharray:2.0,2.0;" x1="62.3008" x2="598.4004" y1="326.3516" y2="326.3516"/><polygon fill="#666666" points="732.1655,351.6621,742.1655,355.6621,732.1655,359.6621,736.1655,355.6621" style="stroke:#666666;stroke-width:1.0;"/><line style="stroke:#666666;stroke-width:1.0;" x1="57.3008" x2="738.1655" y1="355.6621" y2="355.6621"/><text fill="#333333" font-family="sans-serif" font-size="13" lengthAdjust="spacing" textLength="142.4731" x="64.3008" y="350.9199">Create Validator Client</text><polygon fill="#666666" points="68.3008,365.6621,58.3008,369.6621,68.3008,373.6621,64.3008,369.6621" style="stroke:#666666;stroke-width:1.0;"/><line style="stroke:#666666;stroke-width:1.0;stroke-dasharray:2.0,2.0;" x1="62.3008" x2="743.1655" y1="369.6621" y2="369.6621"/><line style="stroke:#666666;stroke-width:1.0;" x1="57.3008" x2="99.3008" y1="403.9727" y2="403.9727"/><line style="stroke:#666666;stroke-width:1.0;" x1="99.3008" x2="99.3008" y1="403.9727" y2="416.9727"/><line style="stroke:#666666;stroke-width:1.0;" x1="52.3008" x2="99.3008" y1="416.9727" y2="416.9727"/><polygon fill="#666666" points="62.3008,412.9727,52.3008,416.9727,62.3008,420.9727,58.3008,416.9727" style="stroke:#666666;stroke-width:1.0;"/><text fill="#333333" font-family="sans-serif" font-size="13" lengthAdjust="spacing" textLength="196.0918" x="64.3008" y="399.2305">Sets HTTP Address from config</text><line style="stroke:#666666;stroke-width:1.0;" x1="52.3008" x2="99.3008" y1="436.2832" y2="436.2832"/><line style="stroke:#666666;stroke-width:1.0;" x1="99.3008" x2="99.3008" y1="436.2832" y2="449.2832"/><line style="stroke:#666666;stroke-width:1.0;" x1="58.3008" x2="99.3008" y1="449.2832" y2="449.2832"/><polygon fill="#666666" points="68.3008,445.2832,58.3008,449.2832,68.3008,453.2832,64.3008,449.2832" style="stroke:#666666;stroke-width:1.0;"/><text fill="#333333" font-family="sans-serif" font-size="13" lengthAdjust="spacing" textLength="63.6543" x="64.3008" y="431.541">Calls Start</text><polygon fill="#666666" points="868.4688,479.5938,878.4688,483.5938,868.4688,487.5938,872.4688,483.5938" style="stroke:#666666;stroke-width:1.0;"/><line style="stroke:#666666;stroke-width:1.0;" x1="57.3008" x2="874.4688" y1="483.5938" y2="483.5938"/><text fill="#333333" font-family="sans-serif" font-size="13" lengthAdjust="spacing" textLength="248.0728" x="64.3008" y="478.8516">Setup Echo Server (Middleware, Routes)</text><polygon fill="#666666" points="68.3008,493.5938,58.3008,497.5938,68.3008,501.5938,64.3008,497.5938" style="stroke:#666666;stroke-width:1.0;"/><line style="stroke:#666666;stroke-width:1.0;stroke-dasharray:2.0,2.0;" x1="62.3008" x2="879.4688" y1="497.5938" y2="497.5938"/><line style="stroke:#666666;stroke-width:1.0;" x1="57.3008" x2="99.3008" y1="526.9043" y2="526.9043"/><line style="stroke:#666666;stroke-width:1.0;" x1="99.3008" x2="99.3008" y1="526.9043" y2="539.9043"/><line style="stroke:#666666;stroke-width:1.0;" x1="58.3008" x2="99.3008" y1="539.9043" y2="539.9043"/><polygon fill="#666666" points="68.3008,535.9043,58.3008,539.9043,68.3008,543.9043,64.3008,539.9043" style="stroke:#666666;stroke-width:1.0;"/><text fill="#333333" font-family="sans-serif" font-size="13" lengthAdjust="spacing" textLength="221.7109" x="64.3008" y="522.1621">Start P2PNode (Join PubSub Topics)</text><polygon fill="#666666" points="1170.1475,565.2148,1180.1475,569.2148,1170.1475,573.2148,1174.1475,569.2148" style="stroke:#666666;stroke-width:1.0;"/><line style="stroke:#666666;stroke-width:1.0;" x1="57.3008" x2="1176.1475" y1="569.2148" y2="569.2148"/><text fill="#333333" font-family="sans-serif" font-size="13" lengthAdjust="spacing" textLength="145.0059" x="64.3008" y="564.4727">Connect to Static Peers</text><polygon fill="#666666" points="68.3008,579.2148,58.3008,583.2148,68.3008,587.2148,64.3008,583.2148" style="stroke:#666666;stroke-width:1.0;"/><line style="stroke:#666666;stroke-width:1.0;stroke-dasharray:2.0,2.0;" x1="62.3008" x2="1181.1475" y1="583.2148" y2="583.2148"/><polygon fill="#666666" points="1341.8018,608.5254,1351.8018,612.5254,1341.8018,616.5254,1345.8018,612.5254" style="stroke:#666666;stroke-width:1.0;"/><line style="stroke:#666666;stroke-width:1.0;" x1="57.3008" x2="1347.8018" y1="612.5254" y2="612.5254"/><text fill="#333333" font-family="sans-serif" font-size="13" lengthAdjust="spacing" textLength="191.6738" x="64.3008" y="607.7832">Set Topic Handlers (Subscribe)</text><polygon fill="#666666" points="68.3008,622.5254,58.3008,626.5254,68.3008,630.5254,64.3008,626.5254" style="stroke:#666666;stroke-width:1.0;"/><line style="stroke:#666666;stroke-width:1.0;stroke-dasharray:2.0,2.0;" x1="62.3008" x2="1352.8018" y1="626.5254" y2="626.5254"/><line style="stroke:#666666;stroke-width:1.0;" x1="57.3008" x2="99.3008" y1="671.1465" y2="671.1465"/><line style="stroke:#666666;stroke-width:1.0;" x1="99.3008" x2="99.3008" y1="671.1465" y2="684.1465"/><line style="stroke:#666666;stroke-width:1.0;" x1="58.3008" x2="99.3008" y1="684.1465" y2="684.1465"/><polygon fill="#666666" points="68.3008,680.1465,58.3008,684.1465,68.3008,688.1465,64.3008,684.1465" style="stroke:#666666;stroke-width:1.0;"/><text fill="#333333" font-family="sans-serif" font-size="13" lengthAdjust="spacing" textLength="245.4766" x="64.3008" y="651.0938">Start blockchain and validator listeners</text><text fill="#333333" font-family="sans-serif" font-size="13" lengthAdjust="spacing" textLength="77.7651" x="68.4141" y="666.4043">(Goroutines)</text><line style="stroke:#666666;stroke-width:1.0;" x1="57.3008" x2="99.3008" y1="733.7676" y2="733.7676"/><line style="stroke:#666666;stroke-width:1.0;" x1="99.3008" x2="99.3008" y1="733.7676" y2="746.7676"/><line style="stroke:#666666;stroke-width:1.0;" x1="52.3008" x2="99.3008" y1="746.7676" y2="746.7676"/><polygon fill="#666666" points="62.3008,742.7676,52.3008,746.7676,62.3008,750.7676,58.3008,746.7676" style="stroke:#666666;stroke-width:1.0;"/><text fill="#333333" font-family="sans-serif" font-size="13" lengthAdjust="spacing" textLength="115.7368" x="64.3008" y="713.7148">Starts HTTP server</text><text fill="#333333" font-family="sans-serif" font-size="13" lengthAdjust="spacing" textLength="71.1382" x="68.4141" y="729.0254">(Goroutine)</text><text fill="#333333" font-family="sans-serif" font-size="10" lengthAdjust="spacing" textLength="155.4346" x="0" y="831.9238">Last Modified On: 24-Feb-2025</text><!--SRC=[fLLDZzem4BtxLuoesWQfI5KhLHM7IhjiwROgMrHGJtjnuickXR6fxO1GrV_UmKb8uW3zoW7m-BtXZUUDurPIRxZbQqXvjdgmfj1YOfIny6JwSlfsEcNkY12OyqBvgT6-WhmEJml2hJMxQlDDU1Xx3ZUOIusG6YlGEiXfboi5g72DshiMdvRIx-470xWEw6ukYiOgRyB3Vh9MbemKMgF-DmrzUfd93TV-tr8nrauncB-QmmBj5kq0k0DQbgiUwiu8h267tqnmprFk40RNocIhx95B3HCbwRW2hecMmPW0txYI59EcJsksUjngYufgaOx12juH_pvxD93SBfTrfSF0EGIgMhyNM53gUP4kYXGMU-TnNTOQ8lN-n6YDcGTlOE59NGPp9Ey4P1a8wng-G0zBio7OBTT2rSWGgYEC7KySHk-Qun_37UugTJppSiizjfhJOnqwCeQ9HS8rBQg-OTHEpSx_9obsK6oeG9Beu1beusKkix99r4kgNvsdJsY077pKqf_It675vgYrGyzBB8P6rVJJnkRfvkwvZfqaNVgNo6t7_B4rMGIC-t2n3S6lLq9OT7GxMHDka5m-C85_OeXkJyYTzlTDQIOYQ20ZXD6f0CbC2lBiZbjy0LzDGKORiePowS3QjHsKr0Q5v9EXHbTp5mQ3SdQehRcYOauF86k1BideJ5ueCPfFI4Y7ownCSSWwwB-gBcqyJ7JO7csX9Dqi-f3kNaFomT0DxUab5DSS9wpCu4f0XpeyOmU5kQTtcl54-CoTXvaHDCaeu8iUmrEIWyb0YD5iDXljwHaCVm40]--></g></svg>
