<svg contentStyleType="text/css" height="762" preserveAspectRatio="none" viewBox="0 0 913 762" width="913" xmlns="http://www.w3.org/2000/svg" zoomAndPan="magnify"><path d="m0 0h913v762h-913z" fill="#f0f8ff"/><path d="m221.021 98.7988h10v563.5449h-10z" fill="#fff" stroke="#181818"/><path d="m492.4487 128.1094h10v29.3105h-10z" fill="#fff" stroke="#181818"/><path d="m667.2031 186.7305h10v97.9316h-10z" fill="#fff" stroke="#181818"/><path d="m667.2031 330.2832h10v29.3105h-10z" fill="#fff" stroke="#181818"/><path d="m179.0796 231.041h728.0483v46.6211h-728.0483z" fill="none" stroke="#000" stroke-width="1.5"/><path d="m159.0796 291.6621h704.5669v270.75h-704.5669z" fill="none" stroke="#000" stroke-width="1.5"/><path d="m169.0796 374.5938h684.5669v180.8184h-684.5669z" fill="none" stroke="#000" stroke-width="1.5"/><path d="m179.0796 457.5254h612.5698v90.8867h-612.5698z" fill="none" stroke="#000" stroke-width="1.5"/><g stroke-width=".5"><path d="m50 67.4883v612.8555" stroke="#181818" stroke-dasharray="5 5"/><path d="m225.0796 67.4883v612.8555" stroke="#181818" stroke-dasharray="5 5"/><path d="m496.8799 67.4883v612.8555" stroke="#181818" stroke-dasharray="5 5"/><path d="m672.0176 67.4883v612.8555" stroke="#181818" stroke-dasharray="5 5"/><path d="m762.3887 67.4883v612.8555" stroke="#181818" stroke-dasharray="5 5"/><path d="m822.4434 67.4883v612.8555" stroke="#181818" stroke-dasharray="5 5"/><path d="m874.6465 67.4883v612.8555" stroke="#181818" stroke-dasharray="5 5"/><rect fill="#ddd" height="30.4883" rx="2.5" stroke="#666" width="90.0908" x="5" y="36"/></g><text fill="#333" font-family="sans-serif" font-size="14" lengthAdjust="spacing" textLength="76.0908" x="12" y="56.5352">P2P Service</text><rect fill="#ddd" height="30.4883" rx="2.5" stroke="#666" stroke-width=".5" width="90.0908" x="5" y="679.3438"/><text fill="#333" font-family="sans-serif" font-size="14" lengthAdjust="spacing" textLength="76.0908" x="12" y="699.8789">P2P Service</text><rect fill="#ddd" height="30.4883" rx="2.5" stroke="#666" stroke-width=".5" width="73.8828" x="189.0796" y="36"/><text fill="#333" font-family="sans-serif" font-size="14" lengthAdjust="spacing" textLength="59.8828" x="196.0796" y="56.5352">P2PNode</text><rect fill="#ddd" height="30.4883" rx="2.5" stroke="#666" stroke-width=".5" width="73.8828" x="189.0796" y="679.3438"/><text fill="#333" font-family="sans-serif" font-size="14" lengthAdjust="spacing" textLength="59.8828" x="196.0796" y="699.8789">P2PNode</text><text fill="#333" font-family="sans-serif" font-size="14" lengthAdjust="spacing" textLength="199.1377" x="394.8799" y="64.5352">DHT (Distributed Hash Table)</text><ellipse cx="497.4487" cy="35" fill="#ddd" rx="12" ry="12" stroke="#666" stroke-width=".5"/><path d="m493.4487 23 6-5-2 5 2 5z" fill="#666" stroke="#666"/><text fill="#333" font-family="sans-serif" font-size="14" lengthAdjust="spacing" textLength="199.1377" x="394.8799" y="692.8789">DHT (Distributed Hash Table)</text><ellipse cx="497.4487" cy="711.832" fill="#ddd" rx="12" ry="12" stroke="#666" stroke-width=".5"/><path d="m493.4487 699.832 6-5-2 5 2 5z" fill="#666" stroke="#666"/><text fill="#333" font-family="sans-serif" font-size="14" lengthAdjust="spacing" textLength="118.3711" x="610.0176" y="64.5352">RoutingDiscovery</text><ellipse cx="672.2031" cy="35" fill="#ddd" rx="12" ry="12" stroke="#666" stroke-width=".5"/><path d="m668.2031 23 6-5-2 5 2 5z" fill="#666" stroke="#666"/><text fill="#333" font-family="sans-serif" font-size="14" lengthAdjust="spacing" textLength="118.3711" x="610.0176" y="692.8789">RoutingDiscovery</text><ellipse cx="672.2031" cy="711.832" fill="#ddd" rx="12" ry="12" stroke="#666" stroke-width=".5"/><path d="m668.2031 699.832 6-5-2 5 2 5z" fill="#666" stroke="#666"/><text fill="#333" font-family="sans-serif" font-size="14" lengthAdjust="spacing" textLength="31.2607" x="744.3887" y="64.5352">Host</text><ellipse cx="763.019" cy="35" fill="#ddd" rx="12" ry="12" stroke="#666" stroke-width=".5"/><path d="m759.019 23 6-5-2 5 2 5z" fill="#666" stroke="#666"/><text fill="#333" font-family="sans-serif" font-size="14" lengthAdjust="spacing" textLength="31.2607" x="744.3887" y="692.8789">Host</text><ellipse cx="763.019" cy="711.832" fill="#ddd" rx="12" ry="12" stroke="#666" stroke-width=".5"/><path d="m759.019 699.832 6-5-2 5 2 5z" fill="#666" stroke="#666"/><text fill="#333" font-family="sans-serif" font-size="14" lengthAdjust="spacing" textLength="36.2031" x="801.4434" y="64.5352">Peers</text><path d="m804.5449 15c0-10 18-10 18-10s18 0 18 10v26c0 10-18 10-18 10s-18 0-18-10z" fill="#e2e2f0" stroke="#181818" stroke-width="1.5"/><path d="m804.5449 15c0 10 18 10 18 10s18 0 18-10" fill="none" stroke="#181818" stroke-width="1.5"/><text fill="#333" font-family="sans-serif" font-size="14" lengthAdjust="spacing" textLength="36.2031" x="801.4434" y="692.8789">Peers</text><path d="m804.5449 705.832c0-10 18-10 18-10s18 0 18 10v26c0 10-18 10-18 10s-18 0-18-10z" fill="#e2e2f0" stroke="#181818" stroke-width="1.5"/><path d="m804.5449 705.832c0 10 18 10 18 10s18 0 18-10" fill="none" stroke="#181818" stroke-width="1.5"/><text fill="#333" font-family="sans-serif" font-size="14" lengthAdjust="spacing" textLength="37.4814" x="853.6465" y="64.5352">Topic</text><ellipse cx="875.3872" cy="35" fill="#ddd" rx="12" ry="12" stroke="#666" stroke-width=".5"/><path d="m863.3872 49h24" stroke="#666" stroke-width=".5"/><text fill="#333" font-family="sans-serif" font-size="14" lengthAdjust="spacing" textLength="37.4814" x="853.6465" y="692.8789">Topic</text><ellipse cx="875.3872" cy="711.832" fill="#ddd" rx="12" ry="12" stroke="#666" stroke-width=".5"/><path d="m863.3872 725.832h24" stroke="#666" stroke-width=".5"/><path d="m221.021 98.7988h10v563.5449h-10z" fill="#fff" stroke="#181818"/><path d="m492.4487 128.1094h10v29.3105h-10z" fill="#fff" stroke="#181818"/><path d="m667.2031 186.7305h10v97.9316h-10z" fill="#fff" stroke="#181818"/><path d="m667.2031 330.2832h10v29.3105h-10z" fill="#fff" stroke="#181818"/><path d="m209.021 94.7988 10 4-10 4 4-4z" fill="#666" stroke="#666"/><path d="m50.0454 98.7988h164.9756" stroke="#666"/><text fill="#333" font-family="sans-serif" font-size="13" lengthAdjust="spacing" textLength="151.9756" x="57.0454" y="94.0566">Start(ctx, topicNames...)</text><path d="m480.4487 124.1094 10 4-10 4 4-4z" fill="#666" stroke="#666"/><path d="m231.021 128.1094h255.4277" stroke="#666"/><text fill="#333" font-family="sans-serif" font-size="13" lengthAdjust="spacing" textLength="215.6172" x="238.021" y="123.3672">initDHT(ctx) or initPrivateDHT(ctx)</text><path d="m242.021 153.4199-10 4 10 4-4-4z" fill="#666" stroke="#666"/><path d="m236.021 157.4199h260.4277" stroke="#666" stroke-dasharray="2 2"/><text fill="#333" font-family="sans-serif" font-size="13" lengthAdjust="spacing" textLength="84.0747" x="248.021" y="152.6777">DHT Instance</text><path d="m655.2031 182.7305 10 4-10 4 4-4z" fill="#666" stroke="#666"/><path d="m231.021 186.7305h430.1821" stroke="#666"/><text fill="#333" font-family="sans-serif" font-size="13" lengthAdjust="spacing" textLength="172.7451" x="238.021" y="181.9883">NewRoutingDiscovery(DHT)</text><path d="m655.2031 212.041 10 4-10 4 4-4z" fill="#666" stroke="#666"/><path d="m231.021 216.041h430.1821" stroke="#666"/><text fill="#333" font-family="sans-serif" font-size="13" lengthAdjust="spacing" textLength="85.8267" x="238.021" y="211.2988">Advertise Self</text><path d="m179.0796 231.041h74.4468v7.3106l-10 10h-64.4468z" fill="#eee" stroke="#000" stroke-width="1.5"/><path d="m179.0796 231.041h728.0483v46.6211h-728.0483z" fill="none" stroke="#000" stroke-width="1.5"/><text fill="#333" font-family="sans-serif" font-size="13" font-weight="bold" lengthAdjust="spacing" textLength="29.4468" x="194.0796" y="244.6094">loop</text><text fill="#333" font-family="sans-serif" font-size="11" font-weight="bold" lengthAdjust="spacing" textLength="173.8247" x="268.5264" y="243.6758">[for each Topic in topicNames]</text><path d="m863.3872 265.6621 10 4-10 4 4-4z" fill="#666" stroke="#666"/><path d="m231.021 269.6621h638.3662" stroke="#666"/><text fill="#333" font-family="sans-serif" font-size="13" lengthAdjust="spacing" textLength="248.0537" x="238.021" y="264.9199">Advertise(ctx, RoutingDiscovery, Topic)</text><path d="m159.0796 291.6621h74.4468v7.3106l-10 10h-64.4468z" fill="#eee" stroke="#000" stroke-width="1.5"/><path d="m159.0796 291.6621h704.5669v270.75h-704.5669z" fill="none" stroke="#000" stroke-width="1.5"/><text fill="#333" font-family="sans-serif" font-size="13" font-weight="bold" lengthAdjust="spacing" textLength="29.4468" x="174.0796" y="305.2305">loop</text><text fill="#333" font-family="sans-serif" font-size="11" font-weight="bold" lengthAdjust="spacing" textLength="176.9883" x="248.5264" y="304.2969">[Peer Discovery for each Topic]</text><path d="m655.2031 326.2832 10 4-10 4 4-4z" fill="#666" stroke="#666"/><path d="m231.021 330.2832h430.1821" stroke="#666"/><text fill="#333" font-family="sans-serif" font-size="13" lengthAdjust="spacing" textLength="131.5742" x="238.021" y="325.541">FindPeers(ctx, Topic)</text><path d="m810.5449 355.5938 10 4-10 4 4-4z" fill="#666" stroke="#666"/><path d="m672.2031 359.5938h144.3418" stroke="#666"/><text fill="#333" font-family="sans-serif" font-size="13" lengthAdjust="spacing" textLength="121.3418" x="679.2031" y="354.8516">Get peers for Topic</text><path d="m169.0796 374.5938h74.4468v7.3105l-10 10h-64.4468z" fill="#eee" stroke="#000" stroke-width="1.5"/><path d="m169.0796 374.5938h684.5669v180.8184h-684.5669z" fill="none" stroke="#000" stroke-width="1.5"/><text fill="#333" font-family="sans-serif" font-size="13" font-weight="bold" lengthAdjust="spacing" textLength="29.4468" x="184.0796" y="388.1621">loop</text><text fill="#333" font-family="sans-serif" font-size="11" font-weight="bold" lengthAdjust="spacing" textLength="131.5273" x="258.5264" y="387.2285">[for each Peer in Peers]</text><path d="m242.021 409.2148-10 4 10 4-4-4z" fill="#666" stroke="#666"/><path d="m236.021 413.2148h585.5239" stroke="#666" stroke-dasharray="2 2"/><text fill="#333" font-family="sans-serif" font-size="13" lengthAdjust="spacing" textLength="51.5684" x="248.021" y="408.4727">PeerInfo</text><path d="m751.019 438.5254 10 4-10 4 4-4z" fill="#666" stroke="#666"/><path d="m231.021 442.5254h525.998" stroke="#666"/><text fill="#333" font-family="sans-serif" font-size="13" lengthAdjust="spacing" textLength="139.623" x="238.021" y="437.7832">Connect(ctx, PeerInfo)</text><path d="m179.0796 457.5254h62.1387v7.3105l-10 10h-52.1387z" fill="#eee" stroke="#000" stroke-width="1.5"/><path d="m179.0796 457.5254h612.5698v90.8867h-612.5698z" fill="none" stroke="#000" stroke-width="1.5"/><text fill="#333" font-family="sans-serif" font-size="13" font-weight="bold" lengthAdjust="spacing" textLength="17.1387" x="194.0796" y="471.0938">alt</text><text fill="#333" font-family="sans-serif" font-size="11" font-weight="bold" lengthAdjust="spacing" textLength="133.0903" x="256.2183" y="470.1602">[successful connection]</text><path d="m242.021 492.1465-10 4 10 4-4-4z" fill="#666" stroke="#666"/><path d="m236.021 496.1465h525.998" stroke="#666"/><text fill="#333" font-family="sans-serif" font-size="13" lengthAdjust="spacing" textLength="67.3042" x="248.021" y="491.4043">Connected</text><path d="m179.0796 505.1465h612.5698" stroke="#000" stroke-dasharray="2 2"/><text fill="#333" font-family="sans-serif" font-size="11" font-weight="bold" lengthAdjust="spacing" textLength="105.6064" x="184.0796" y="515.7813">[connection failed]</text><path d="m242.021 536.4121-10 4 10 4-4-4z" fill="#666" stroke="#666"/><path d="m236.021 540.4121h525.998" stroke="#666"/><text fill="#333" font-family="sans-serif" font-size="13" lengthAdjust="spacing" textLength="112.8931" x="248.021" y="535.6699">Connection Failed</text><path d="m231.021 590.7227h42" stroke="#666"/><path d="m273.021 590.7227v13" stroke="#666"/><path d="m232.021 603.7227h41" stroke="#666"/><path d="m242.021 599.7227-10 4 10 4-4-4z" fill="#666" stroke="#666"/><text fill="#333" font-family="sans-serif" font-size="13" lengthAdjust="spacing" textLength="237.4277" x="238.021" y="585.9805">connectToStaticPeers(ctx, staticPeers)</text><path d="m751.019 629.0332 10 4-10 4 4-4z" fill="#666" stroke="#666"/><path d="m231.021 633.0332h525.998" stroke="#666"/><text fill="#333" font-family="sans-serif" font-size="13" lengthAdjust="spacing" textLength="291.8335" x="238.021" y="628.291">SetStreamHandler(protocol.ID, streamHandler)</text><path d="m237.021 658.3438-10 4 10 4-4-4z" fill="#666" stroke="#666"/><path d="m231.021 662.3438h530.998" stroke="#666" stroke-dasharray="2 2"/><text fill="#333" font-family="sans-serif" font-size="13" lengthAdjust="spacing" textLength="72.522" x="243.021" y="657.6016">Handler Set</text><text fill="#333" font-family="sans-serif" font-size="10" lengthAdjust="spacing" textLength="155.4346" y="752.5">Last Modified On: 24-Feb-2025</text></svg>
