<svg contentStyleType="text/css" height="922" preserveAspectRatio="none" viewBox="0 0 1757 922" width="1757" xmlns="http://www.w3.org/2000/svg" zoomAndPan="magnify"><path d="m0 0h1757v922h-1757z" fill="#f0f8ff"/><path d="m710.2295 218.752h10v100.9316h-10z" fill="#fff" stroke="#181818"/><path d="m710.2295 499.9473h10v71.6211h-10z" fill="#fff" stroke="#181818"/><path d="m710.2295 751.832h10v100.9316h-10z" fill="#fff" stroke="#181818"/><path d="m10 143.8203h562.3359v46.6211h-562.3359z" fill="none" stroke="#000" stroke-width="1.5"/><path d="m10 425.0156h562.3359v46.6211h-562.3359z" fill="none" stroke="#000" stroke-width="1.5"/><path d="m10 676.9004h562.3359v46.6211h-562.3359z" fill="none" stroke="#000" stroke-width="1.5"/><g stroke-width=".5"><path d="m51 36.4883v834.2754" stroke="#181818" stroke-dasharray="5 5"/><path d="m500.5303 36.4883v834.2754" stroke="#181818" stroke-dasharray="5 5"/><path d="m714.8115 36.4883v834.2754" stroke="#181818" stroke-dasharray="5 5"/><path d="m1021.1431 36.4883v834.2754" stroke="#181818" stroke-dasharray="5 5"/><path d="m1226.6626 36.4883v834.2754" stroke="#181818" stroke-dasharray="5 5"/><path d="m1545.6045 36.4883v834.2754" stroke="#181818" stroke-dasharray="5 5"/><path d="m1679.1729 36.4883v834.2754" stroke="#181818" stroke-dasharray="5 5"/><rect fill="#ddd" height="30.4883" rx="2.5" stroke="#666" width="62.8359" x="20" y="5"/></g><text fill="#333" font-family="sans-serif" font-size="14" lengthAdjust="spacing" textLength="48.8359" x="27" y="25.5352">Node 1</text><rect fill="#ddd" height="30.4883" rx="2.5" stroke="#666" stroke-width=".5" width="62.8359" x="20" y="869.7637"/><text fill="#333" font-family="sans-serif" font-size="14" lengthAdjust="spacing" textLength="48.8359" x="27" y="890.2988">Node 1</text><path d="m444.5303 10h112.8056c5 0 5 13.2441 5 13.2441s0 13.2442-5 13.2442h-112.8056c-5 0-5-13.2442-5-13.2442s0-13.2441 5-13.2441" fill="#e2e2f0" stroke="#181818" stroke-width=".5"/><path d="m557.3359 10c-5 0-5 13.2441-5 13.2441 0 13.2442 5 13.2442 5 13.2442" fill="none" stroke="#181818" stroke-width=".5"/><text fill="#333" font-family="sans-serif" font-size="14" lengthAdjust="spacing" textLength="102.8057" x="444.5303" y="28.5352">PubSub System</text><path d="m444.5303 869.7637h112.8056c5 0 5 13.2441 5 13.2441s0 13.2442-5 13.2442h-112.8056c-5 0-5-13.2442-5-13.2442s0-13.2441 5-13.2441" fill="#e2e2f0" stroke="#181818" stroke-width=".5"/><path d="m557.3359 869.7637c-5 0-5 13.2441-5 13.2441 0 13.2442 5 13.2442 5 13.2442" fill="none" stroke="#181818" stroke-width=".5"/><text fill="#333" font-family="sans-serif" font-size="14" lengthAdjust="spacing" textLength="102.8057" x="444.5303" y="888.2988">PubSub System</text><rect fill="#ddd" height="30.4883" rx="2.5" stroke="#666" stroke-width=".5" width="62.8359" x="683.8115" y="5"/><text fill="#333" font-family="sans-serif" font-size="14" lengthAdjust="spacing" textLength="48.8359" x="690.8115" y="25.5352">Node 2</text><rect fill="#ddd" height="30.4883" rx="2.5" stroke="#666" stroke-width=".5" width="62.8359" x="683.8115" y="869.7637"/><text fill="#333" font-family="sans-serif" font-size="14" lengthAdjust="spacing" textLength="48.8359" x="690.8115" y="890.2988">Node 2</text><path d="m947.1431 10h148.6533c5 0 5 13.2441 5 13.2441s0 13.2442-5 13.2442h-148.6533c-5 0-5-13.2442-5-13.2442s0-13.2441 5-13.2441" fill="#e2e2f0" stroke="#181818" stroke-width=".5"/><path d="m1095.7964 10c-5 0-5 13.2441-5 13.2441 0 13.2442 5 13.2442 5 13.2442" fill="none" stroke="#181818" stroke-width=".5"/><text fill="#333" font-family="sans-serif" font-size="14" lengthAdjust="spacing" textLength="138.6533" x="947.1431" y="28.5352">Notification Channel</text><path d="m947.1431 869.7637h148.6533c5 0 5 13.2441 5 13.2441s0 13.2442-5 13.2442h-148.6533c-5 0-5-13.2442-5-13.2442s0-13.2441 5-13.2441" fill="#e2e2f0" stroke="#181818" stroke-width=".5"/><path d="m1095.7964 869.7637c-5 0-5 13.2441-5 13.2441 0 13.2442 5 13.2442 5 13.2442" fill="none" stroke="#181818" stroke-width=".5"/><text fill="#333" font-family="sans-serif" font-size="14" lengthAdjust="spacing" textLength="138.6533" x="947.1431" y="888.2988">Notification Channel</text><path d="m1203.6626 10h47.9326c5 0 5 13.2441 5 13.2441s0 13.2442-5 13.2442h-47.9326c-5 0-5-13.2442-5-13.2442s0-13.2441 5-13.2441" fill="#e2e2f0" stroke="#181818" stroke-width=".5"/><path d="m1251.5952 10c-5 0-5 13.2441-5 13.2441 0 13.2442 5 13.2442 5 13.2442" fill="none" stroke="#181818" stroke-width=".5"/><text fill="#333" font-family="sans-serif" font-size="14" lengthAdjust="spacing" textLength="37.9326" x="1203.6626" y="28.5352">Kafka</text><path d="m1203.6626 869.7637h47.9326c5 0 5 13.2441 5 13.2441s0 13.2442-5 13.2442h-47.9326c-5 0-5-13.2442-5-13.2442s0-13.2441 5-13.2441" fill="#e2e2f0" stroke="#181818" stroke-width=".5"/><path d="m1251.5952 869.7637c-5 0-5 13.2441-5 13.2441 0 13.2442 5 13.2442 5 13.2442" fill="none" stroke="#181818" stroke-width=".5"/><text fill="#333" font-family="sans-serif" font-size="14" lengthAdjust="spacing" textLength="37.9326" x="1203.6626" y="888.2988">Kafka</text><rect fill="#ddd" height="30.4883" rx="2.5" stroke="#666" stroke-width=".5" width="115.5684" x="1488.6045" y="5"/><text fill="#333" font-family="sans-serif" font-size="14" lengthAdjust="spacing" textLength="101.5684" x="1495.6045" y="25.5352">Block Validator</text><rect fill="#ddd" height="30.4883" rx="2.5" stroke="#666" stroke-width=".5" width="115.5684" x="1488.6045" y="869.7637"/><text fill="#333" font-family="sans-serif" font-size="14" lengthAdjust="spacing" textLength="101.5684" x="1495.6045" y="890.2988">Block Validator</text><rect fill="#ddd" height="30.4883" rx="2.5" stroke="#666" stroke-width=".5" width="131.1201" x="1614.1729" y="5"/><text fill="#333" font-family="sans-serif" font-size="14" lengthAdjust="spacing" textLength="117.1201" x="1621.1729" y="25.5352">Subtree Validator</text><rect fill="#ddd" height="30.4883" rx="2.5" stroke="#666" stroke-width=".5" width="131.1201" x="1614.1729" y="869.7637"/><text fill="#333" font-family="sans-serif" font-size="14" lengthAdjust="spacing" textLength="117.1201" x="1621.1729" y="890.2988">Subtree Validator</text><path d="m710.2295 218.752h10v100.9316h-10z" fill="#fff" stroke="#181818"/><path d="m710.2295 499.9473h10v71.6211h-10z" fill="#fff" stroke="#181818"/><path d="m710.2295 751.832h10v100.9316h-10z" fill="#fff" stroke="#181818"/><path d="m0 69.499h1750.293v3h-1750.293z" fill="#eee" stroke="#eee"/><path d="m0 69.499h1750.293" stroke="#000"/><path d="m0 72.499h1750.293" stroke="#000"/><path d="m759.4851 56.4883h231.3228v28.0215h-231.3228z" fill="#eee" stroke="#000" stroke-width="2"/><text fill="#333" font-family="sans-serif" font-size="17" font-weight="bold" lengthAdjust="spacing" textLength="217.3228" x="765.4851" y="76.9238">New Block Notification =</text><path d="m51.418 115.8203h42" stroke="#666"/><path d="m93.418 115.8203v13" stroke="#666"/><path d="m52.418 128.8203h41" stroke="#666"/><path d="m62.418 124.8203-10 4 10 4-4-4z" fill="#666" stroke="#666"/><text fill="#333" font-family="sans-serif" font-size="13" lengthAdjust="spacing" textLength="224.3833" x="58.418" y="111.0781">blockchainSubscriptionListener(ctx)</text><path d="m10 143.8203h62.1387v7.3106l-10 10h-52.1387z" fill="#eee" stroke="#000" stroke-width="1.5"/><path d="m10 143.8203h562.3359v46.6211h-562.3359z" fill="none" stroke="#000" stroke-width="1.5"/><text fill="#333" font-family="sans-serif" font-size="13" font-weight="bold" lengthAdjust="spacing" textLength="17.1387" x="25" y="157.3887">alt</text><text fill="#333" font-family="sans-serif" font-size="11" font-weight="bold" lengthAdjust="spacing" textLength="295.9473" x="87.1387" y="156.4551">[notification.Type == model.NotificationType_Block]</text><path d="m488.9331 178.4414 10 4-10 4 4-4z" fill="#666" stroke="#666"/><path d="m51.418 182.4414h443.5151" stroke="#666"/><text fill="#333" font-family="sans-serif" font-size="13" lengthAdjust="spacing" textLength="369.7573" x="58.418" y="177.6992">s.topics[blockTopicName].Publish(ctx, blockMessageBytes)</text><path d="m698.2295 214.752 10 4-10 4 4-4z" fill="#666" stroke="#666"/><path d="m500.9331 218.752h203.2964" stroke="#666"/><text fill="#333" font-family="sans-serif" font-size="13" lengthAdjust="spacing" textLength="162.4175" x="507.9331" y="214.0098">s.topics[blockTopicName]</text><path d="m720.2295 248.0625h42" stroke="#666"/><path d="m762.2295 248.0625v13" stroke="#666"/><path d="m721.2295 261.0625h41" stroke="#666"/><path d="m731.2295 257.0625-10 4 10 4-4-4z" fill="#666" stroke="#666"/><text fill="#333" font-family="sans-serif" font-size="13" lengthAdjust="spacing" textLength="138.728" x="727.2295" y="243.3203">handleBlockTopic(ctx)</text><path d="m1215.6289 286.373 10 4-10 4 4-4z" fill="#666" stroke="#666"/><path d="m720.2295 290.373h501.3994" stroke="#666" stroke-dasharray="2 2"/><text fill="#333" font-family="sans-serif" font-size="13" lengthAdjust="spacing" textLength="483.3994" x="727.2295" y="285.6309">Send block over kafka_blocksConfig topic (hash, blockMessage.DataHubUrl)</text><path d="m1534.3887 315.6836 10 4-10 4 4-4z" fill="#666" stroke="#666"/><path d="m1227.6289 319.6836h312.7598" stroke="#666"/><text fill="#333" font-family="sans-serif" font-size="13" lengthAdjust="spacing" textLength="294.7598" x="1234.6289" y="314.9414">Consume block from kafka_blocksConfig topic</text><path d="m0 350.6943h1750.293v3h-1750.293z" fill="#eee" stroke="#eee"/><path d="m0 350.6943h1750.293" stroke="#000"/><path d="m0 353.6943h1750.293" stroke="#000"/><path d="m730.009 337.6836h290.2749v28.0215h-290.2749z" fill="#eee" stroke="#000" stroke-width="2"/><text fill="#333" font-family="sans-serif" font-size="17" font-weight="bold" lengthAdjust="spacing" textLength="276.2749" x="736.009" y="358.1191">New Mined Block Notification =</text><path d="m51.418 397.0156h42" stroke="#666"/><path d="m93.418 397.0156v13" stroke="#666"/><path d="m52.418 410.0156h41" stroke="#666"/><path d="m62.418 406.0156-10 4 10 4-4-4z" fill="#666" stroke="#666"/><text fill="#333" font-family="sans-serif" font-size="13" lengthAdjust="spacing" textLength="224.3833" x="58.418" y="392.2734">blockchainSubscriptionListener(ctx)</text><path d="m10 425.0156h62.1387v7.3106l-10 10h-52.1387z" fill="#eee" stroke="#000" stroke-width="1.5"/><path d="m10 425.0156h562.3359v46.6211h-562.3359z" fill="none" stroke="#000" stroke-width="1.5"/><text fill="#333" font-family="sans-serif" font-size="13" font-weight="bold" lengthAdjust="spacing" textLength="17.1387" x="25" y="438.584">alt</text><text fill="#333" font-family="sans-serif" font-size="11" font-weight="bold" lengthAdjust="spacing" textLength="320.7241" x="87.1387" y="437.6504">[notification.Type == model.NotificationType_MiningOn]</text><path d="m488.9331 459.6367 10 4-10 4 4-4z" fill="#666" stroke="#666"/><path d="m51.418 463.6367h443.5151" stroke="#666"/><text fill="#333" font-family="sans-serif" font-size="13" lengthAdjust="spacing" textLength="425.5151" x="58.418" y="458.8945">s.topics[miningOnTopicName].Publish(ctx, miningOnMessageBytes)</text><path d="m698.2295 495.9473 10 4-10 4 4-4z" fill="#666" stroke="#666"/><path d="m500.9331 499.9473h203.2964" stroke="#666"/><text fill="#333" font-family="sans-serif" font-size="13" lengthAdjust="spacing" textLength="190.2964" x="507.9331" y="495.2051">s.topics[miningOnTopicName]</text><path d="m720.2295 529.2578h42" stroke="#666"/><path d="m762.2295 529.2578v13" stroke="#666"/><path d="m721.2295 542.2578h41" stroke="#666"/><path d="m731.2295 538.2578-10 4 10 4-4-4z" fill="#666" stroke="#666"/><text fill="#333" font-family="sans-serif" font-size="13" lengthAdjust="spacing" textLength="166.3721" x="727.2295" y="524.5156">handleMiningOnTopic(ctx)</text><path d="m1009.4697 567.5684 10 4-10 4 4-4z" fill="#666" stroke="#666"/><path d="m715.2295 571.5684h300.2402" stroke="#666"/><text fill="#333" font-family="sans-serif" font-size="13" lengthAdjust="spacing" textLength="277.2402" x="722.2295" y="566.8262">notify miningOnMessage to s.notificationCh</text><path d="m0 602.5791h1750.293v3h-1750.293z" fill="#eee" stroke="#eee"/><path d="m0 602.5791h1750.293" stroke="#000"/><path d="m0 605.5791h1750.293" stroke="#000"/><path d="m749.5947 589.5684h251.1035v28.0215h-251.1035z" fill="#eee" stroke="#000" stroke-width="2"/><text fill="#333" font-family="sans-serif" font-size="17" font-weight="bold" lengthAdjust="spacing" textLength="237.1035" x="755.5947" y="610.0039">New Subtree Notification =</text><path d="m51.418 648.9004h42" stroke="#666"/><path d="m93.418 648.9004v13" stroke="#666"/><path d="m52.418 661.9004h41" stroke="#666"/><path d="m62.418 657.9004-10 4 10 4-4-4z" fill="#666" stroke="#666"/><text fill="#333" font-family="sans-serif" font-size="13" lengthAdjust="spacing" textLength="224.3833" x="58.418" y="644.1582">blockchainSubscriptionListener(ctx)</text><path d="m10 676.9004h62.1387v7.3105l-10 10h-52.1387z" fill="#eee" stroke="#000" stroke-width="1.5"/><path d="m10 676.9004h562.3359v46.6211h-562.3359z" fill="none" stroke="#000" stroke-width="1.5"/><text fill="#333" font-family="sans-serif" font-size="13" font-weight="bold" lengthAdjust="spacing" textLength="17.1387" x="25" y="690.4688">alt</text><text fill="#333" font-family="sans-serif" font-size="11" font-weight="bold" lengthAdjust="spacing" textLength="308.7466" x="87.1387" y="689.5352">[notification.Type == model.NotificationType_Subtree]</text><path d="m488.9331 711.5215 10 4-10 4 4-4z" fill="#666" stroke="#666"/><path d="m51.418 715.5215h443.5151" stroke="#666"/><text fill="#333" font-family="sans-serif" font-size="13" lengthAdjust="spacing" textLength="396.481" x="58.418" y="710.7793">s.topics[subtreeTopicName].Publish(ctx, subtreeMessageBytes)</text><path d="m698.2295 747.832 10 4-10 4 4-4z" fill="#666" stroke="#666"/><path d="m500.9331 751.832h203.2964" stroke="#666"/><text fill="#333" font-family="sans-serif" font-size="13" lengthAdjust="spacing" textLength="175.7793" x="507.9331" y="747.0898">s.topics[subtreeTopicName]</text><path d="m720.2295 781.1426h42" stroke="#666"/><path d="m762.2295 781.1426v13" stroke="#666"/><path d="m721.2295 794.1426h41" stroke="#666"/><path d="m731.2295 790.1426-10 4 10 4-4-4z" fill="#666" stroke="#666"/><text fill="#333" font-family="sans-serif" font-size="13" lengthAdjust="spacing" textLength="153.1689" x="727.2295" y="776.4004">handleSubtreeTopic(ctx)</text><path d="m1667.7329 819.4531 10 4-10 4 4-4z" fill="#666" stroke="#666"/><path d="m720.2295 823.4531h953.5034" stroke="#666"/><text fill="#333" font-family="sans-serif" font-size="13" lengthAdjust="spacing" textLength="502.5693" x="727.2295" y="818.7109">s.subtreeValidationClient.SubtreeFound(ctx, hash, subtreeMessage.DataHubUrl)</text><path d="m1009.4697 848.7637 10 4-10 4 4-4z" fill="#666" stroke="#666"/><path d="m715.2295 852.7637h300.2402" stroke="#666"/><text fill="#333" font-family="sans-serif" font-size="13" lengthAdjust="spacing" textLength="262.7231" x="722.2295" y="848.0215">notify subtreeMessage to s.notificationCh</text><text fill="#333" font-family="sans-serif" font-size="10" lengthAdjust="spacing" textLength="155.4346" y="911.9199">Last Modified On: 24-Feb-2025</text></svg>
