<svg xmlns="http://www.w3.org/2000/svg" xmlns:xlink="http://www.w3.org/1999/xlink" contentStyleType="text/css" height="842px" preserveAspectRatio="none" style="width:1436px;height:842px;background:#F0F8FF;" version="1.1" viewBox="0 0 1436 842" width="1436px" zoomAndPan="magnify"><defs/><g><rect fill="#F0F8FF" height="842" style="stroke:none;stroke-width:1.0;" width="1436" x="0" y="0"/><rect fill="#FFFFFF" height="643.9688" style="stroke:#181818;stroke-width:1.0;" width="10" x="42.3008" y="106.7988"/><rect fill="#FFFFFF" height="170.2422" style="stroke:#181818;stroke-width:1.0;" width="10" x="47.3008" y="234.7305"/><rect fill="#FFFFFF" height="285.4844" style="stroke:#181818;stroke-width:1.0;" width="10" x="47.3008" y="449.2832"/><line style="stroke:#181818;stroke-width:0.5;stroke-dasharray:5.0,5.0;" x1="47" x2="47" y1="67.4883" y2="759.7676"/><line style="stroke:#181818;stroke-width:0.5;stroke-dasharray:5.0,5.0;" x1="339.9736" x2="339.9736" y1="67.4883" y2="759.7676"/><line style="stroke:#181818;stroke-width:0.5;stroke-dasharray:5.0,5.0;" x1="450.8076" x2="450.8076" y1="67.4883" y2="759.7676"/><line style="stroke:#181818;stroke-width:0.5;stroke-dasharray:5.0,5.0;" x1="601.1211" x2="601.1211" y1="67.4883" y2="759.7676"/><line style="stroke:#181818;stroke-width:0.5;stroke-dasharray:5.0,5.0;" x1="745.6309" x2="745.6309" y1="67.4883" y2="759.7676"/><line style="stroke:#181818;stroke-width:0.5;stroke-dasharray:5.0,5.0;" x1="881.6514" x2="881.6514" y1="67.4883" y2="759.7676"/><line style="stroke:#181818;stroke-width:0.5;stroke-dasharray:5.0,5.0;" x1="1024.2373" x2="1024.2373" y1="67.4883" y2="759.7676"/><line style="stroke:#181818;stroke-width:0.5;stroke-dasharray:5.0,5.0;" x1="1184.043" x2="1184.043" y1="67.4883" y2="759.7676"/><line style="stroke:#181818;stroke-width:0.5;stroke-dasharray:5.0,5.0;" x1="1355.2031" x2="1355.2031" y1="67.4883" y2="759.7676"/><rect fill="#DDDDDD" height="30.4883" rx="2.5" ry="2.5" style="stroke:#666666;stroke-width:0.5;" width="84.6016" x="5" y="36"/><text fill="#333333" font-family="sans-serif" font-size="14" lengthAdjust="spacing" textLength="70.6016" x="12" y="56.5352">P2P Server</text><rect fill="#DDDDDD" height="30.4883" rx="2.5" ry="2.5" style="stroke:#666666;stroke-width:0.5;" width="84.6016" x="5" y="758.7676"/><text fill="#333333" font-family="sans-serif" font-size="14" lengthAdjust="spacing" textLength="70.6016" x="12" y="779.3027">P2P Server</text><rect fill="#DDDDDD" height="30.4883" rx="2.5" ry="2.5" style="stroke:#666666;stroke-width:0.5;" width="77.834" x="301.9736" y="36"/><text fill="#333333" font-family="sans-serif" font-size="14" lengthAdjust="spacing" textLength="63.834" x="308.9736" y="56.5352">P2PClient</text><rect fill="#DDDDDD" height="30.4883" rx="2.5" ry="2.5" style="stroke:#666666;stroke-width:0.5;" width="77.834" x="301.9736" y="758.7676"/><text fill="#333333" font-family="sans-serif" font-size="14" lengthAdjust="spacing" textLength="63.834" x="308.9736" y="779.3027">P2PClient</text><text fill="#333333" font-family="sans-serif" font-size="14" lengthAdjust="spacing" textLength="116.3135" x="389.8076" y="64.5352">Blockchain Client</text><path d="M432.9644,15 C432.9644,5 450.9644,5 450.9644,5 C450.9644,5 468.9644,5 468.9644,15 L468.9644,41 C468.9644,51 450.9644,51 450.9644,51 C450.9644,51 432.9644,51 432.9644,41 L432.9644,15 " fill="#E2E2F0" style="stroke:#181818;stroke-width:1.5;"/><path d="M432.9644,15 C432.9644,25 450.9644,25 450.9644,25 C450.9644,25 468.9644,25 468.9644,15 " fill="none" style="stroke:#181818;stroke-width:1.5;"/><text fill="#333333" font-family="sans-serif" font-size="14" lengthAdjust="spacing" textLength="116.3135" x="389.8076" y="772.3027">Blockchain Client</text><path d="M432.9644,785.2559 C432.9644,775.2559 450.9644,775.2559 450.9644,775.2559 C450.9644,775.2559 468.9644,775.2559 468.9644,785.2559 L468.9644,811.2559 C468.9644,821.2559 450.9644,821.2559 450.9644,821.2559 C450.9644,821.2559 432.9644,821.2559 432.9644,811.2559 L432.9644,785.2559 " fill="#E2E2F0" style="stroke:#181818;stroke-width:1.5;"/><path d="M432.9644,785.2559 C432.9644,795.2559 450.9644,795.2559 450.9644,795.2559 C450.9644,795.2559 468.9644,795.2559 468.9644,785.2559 " fill="none" style="stroke:#181818;stroke-width:1.5;"/><text fill="#333333" font-family="sans-serif" font-size="14" lengthAdjust="spacing" textLength="152.5098" x="522.1211" y="64.5352">Block Validation Client</text><path d="M583.376,15 C583.376,5 601.376,5 601.376,5 C601.376,5 619.376,5 619.376,15 L619.376,41 C619.376,51 601.376,51 601.376,51 C601.376,51 583.376,51 583.376,41 L583.376,15 " fill="#E2E2F0" style="stroke:#181818;stroke-width:1.5;"/><path d="M583.376,15 C583.376,25 601.376,25 601.376,25 C601.376,25 619.376,25 619.376,15 " fill="none" style="stroke:#181818;stroke-width:1.5;"/><text fill="#333333" font-family="sans-serif" font-size="14" lengthAdjust="spacing" textLength="152.5098" x="522.1211" y="772.3027">Block Validation Client</text><path d="M583.376,785.2559 C583.376,775.2559 601.376,775.2559 601.376,775.2559 C601.376,775.2559 619.376,775.2559 619.376,785.2559 L619.376,811.2559 C619.376,821.2559 601.376,821.2559 601.376,821.2559 C601.376,821.2559 583.376,821.2559 583.376,811.2559 L583.376,785.2559 " fill="#E2E2F0" style="stroke:#181818;stroke-width:1.5;"/><path d="M583.376,785.2559 C583.376,795.2559 601.376,795.2559 601.376,795.2559 C601.376,795.2559 619.376,795.2559 619.376,785.2559 " fill="none" style="stroke:#181818;stroke-width:1.5;"/><text fill="#333333" font-family="sans-serif" font-size="14" lengthAdjust="spacing" textLength="105.0205" x="690.6309" y="64.5352">Validator Client</text><path d="M728.1411,15 C728.1411,5 746.1411,5 746.1411,5 C746.1411,5 764.1411,5 764.1411,15 L764.1411,41 C764.1411,51 746.1411,51 746.1411,51 C746.1411,51 728.1411,51 728.1411,41 L728.1411,15 " fill="#E2E2F0" style="stroke:#181818;stroke-width:1.5;"/><path d="M728.1411,15 C728.1411,25 746.1411,25 746.1411,25 C746.1411,25 764.1411,25 764.1411,15 " fill="none" style="stroke:#181818;stroke-width:1.5;"/><text fill="#333333" font-family="sans-serif" font-size="14" lengthAdjust="spacing" textLength="105.0205" x="690.6309" y="772.3027">Validator Client</text><path d="M728.1411,785.2559 C728.1411,775.2559 746.1411,775.2559 746.1411,775.2559 C746.1411,775.2559 764.1411,775.2559 764.1411,785.2559 L764.1411,811.2559 C764.1411,821.2559 746.1411,821.2559 746.1411,821.2559 C746.1411,821.2559 728.1411,821.2559 728.1411,811.2559 L728.1411,785.2559 " fill="#E2E2F0" style="stroke:#181818;stroke-width:1.5;"/><path d="M728.1411,785.2559 C728.1411,795.2559 746.1411,795.2559 746.1411,795.2559 C746.1411,795.2559 764.1411,795.2559 764.1411,785.2559 " fill="none" style="stroke:#181818;stroke-width:1.5;"/><rect fill="#DDDDDD" height="30.4883" rx="2.5" ry="2.5" style="stroke:#666666;stroke-width:0.5;" width="141.5859" x="811.6514" y="36"/><text fill="#333333" font-family="sans-serif" font-size="14" lengthAdjust="spacing" textLength="127.5859" x="818.6514" y="56.5352">Echo (HTTP Server)</text><rect fill="#DDDDDD" height="30.4883" rx="2.5" ry="2.5" style="stroke:#666666;stroke-width:0.5;" width="141.5859" x="811.6514" y="758.7676"/><text fill="#333333" font-family="sans-serif" font-size="14" lengthAdjust="spacing" textLength="127.5859" x="818.6514" y="779.3027">Echo (HTTP Server)</text><path d="M968.2373,41 L1081.043,41 C1086.043,41 1086.043,54.2441 1086.043,54.2441 C1086.043,54.2441 1086.043,67.4883 1081.043,67.4883 L968.2373,67.4883 C963.2373,67.4883 963.2373,54.2441 963.2373,54.2441 C963.2373,54.2441 963.2373,41 968.2373,41 " fill="#E2E2F0" style="stroke:#181818;stroke-width:0.5;"/><path d="M1081.043,41 C1076.043,41 1076.043,54.2441 1076.043,54.2441 C1076.043,67.4883 1081.043,67.4883 1081.043,67.4883 " fill="none" style="stroke:#181818;stroke-width:0.5;"/><text fill="#333333" font-family="sans-serif" font-size="14" lengthAdjust="spacing" textLength="102.8057" x="968.2373" y="59.5352">PubSub System</text><path d="M968.2373,758.7676 L1081.043,758.7676 C1086.043,758.7676 1086.043,772.0117 1086.043,772.0117 C1086.043,772.0117 1086.043,785.2559 1081.043,785.2559 L968.2373,785.2559 C963.2373,785.2559 963.2373,772.0117 963.2373,772.0117 C963.2373,772.0117 963.2373,758.7676 968.2373,758.7676 " fill="#E2E2F0" style="stroke:#181818;stroke-width:0.5;"/><path d="M1081.043,758.7676 C1076.043,758.7676 1076.043,772.0117 1076.043,772.0117 C1076.043,785.2559 1081.043,785.2559 1081.043,785.2559 " fill="none" style="stroke:#181818;stroke-width:0.5;"/><text fill="#333333" font-family="sans-serif" font-size="14" lengthAdjust="spacing" textLength="102.8057" x="968.2373" y="777.3027">PubSub System</text><path d="M1101.043,41 L1267.2031,41 C1272.2031,41 1272.2031,54.2441 1272.2031,54.2441 C1272.2031,54.2441 1272.2031,67.4883 1267.2031,67.4883 L1101.043,67.4883 C1096.043,67.4883 1096.043,54.2441 1096.043,54.2441 C1096.043,54.2441 1096.043,41 1101.043,41 " fill="#E2E2F0" style="stroke:#181818;stroke-width:0.5;"/><path d="M1267.2031,41 C1262.2031,41 1262.2031,54.2441 1262.2031,54.2441 C1262.2031,67.4883 1267.2031,67.4883 1267.2031,67.4883 " fill="none" style="stroke:#181818;stroke-width:0.5;"/><text fill="#333333" font-family="sans-serif" font-size="14" lengthAdjust="spacing" textLength="156.1602" x="1101.043" y="59.5352">Connect to Static Peers</text><path d="M1101.043,758.7676 L1267.2031,758.7676 C1272.2031,758.7676 1272.2031,772.0117 1272.2031,772.0117 C1272.2031,772.0117 1272.2031,785.2559 1267.2031,785.2559 L1101.043,785.2559 C1096.043,785.2559 1096.043,772.0117 1096.043,772.0117 C1096.043,772.0117 1096.043,758.7676 1101.043,758.7676 " fill="#E2E2F0" style="stroke:#181818;stroke-width:0.5;"/><path d="M1267.2031,758.7676 C1262.2031,758.7676 1262.2031,772.0117 1262.2031,772.0117 C1262.2031,785.2559 1267.2031,785.2559 1267.2031,785.2559 " fill="none" style="stroke:#181818;stroke-width:0.5;"/><text fill="#333333" font-family="sans-serif" font-size="14" lengthAdjust="spacing" textLength="156.1602" x="1101.043" y="777.3027">Connect to Static Peers</text><path d="M1287.2031,41 L1424.3516,41 C1429.3516,41 1429.3516,54.2441 1429.3516,54.2441 C1429.3516,54.2441 1429.3516,67.4883 1424.3516,67.4883 L1287.2031,67.4883 C1282.2031,67.4883 1282.2031,54.2441 1282.2031,54.2441 C1282.2031,54.2441 1282.2031,41 1287.2031,41 " fill="#E2E2F0" style="stroke:#181818;stroke-width:0.5;"/><path d="M1424.3516,41 C1419.3516,41 1419.3516,54.2441 1419.3516,54.2441 C1419.3516,67.4883 1424.3516,67.4883 1424.3516,67.4883 " fill="none" style="stroke:#181818;stroke-width:0.5;"/><text fill="#333333" font-family="sans-serif" font-size="14" lengthAdjust="spacing" textLength="127.1484" x="1287.2031" y="59.5352">Set Topic Handlers</text><path d="M1287.2031,758.7676 L1424.3516,758.7676 C1429.3516,758.7676 1429.3516,772.0117 1429.3516,772.0117 C1429.3516,772.0117 1429.3516,785.2559 1424.3516,785.2559 L1287.2031,785.2559 C1282.2031,785.2559 1282.2031,772.0117 1282.2031,772.0117 C1282.2031,772.0117 1282.2031,758.7676 1287.2031,758.7676 " fill="#E2E2F0" style="stroke:#181818;stroke-width:0.5;"/><path d="M1424.3516,758.7676 C1419.3516,758.7676 1419.3516,772.0117 1419.3516,772.0117 C1419.3516,785.2559 1424.3516,785.2559 1424.3516,785.2559 " fill="none" style="stroke:#181818;stroke-width:0.5;"/><text fill="#333333" font-family="sans-serif" font-size="14" lengthAdjust="spacing" textLength="127.1484" x="1287.2031" y="777.3027">Set Topic Handlers</text><rect fill="#FFFFFF" height="643.9688" style="stroke:#181818;stroke-width:1.0;" width="10" x="42.3008" y="106.7988"/><rect fill="#FFFFFF" height="170.2422" style="stroke:#181818;stroke-width:1.0;" width="10" x="47.3008" y="234.7305"/><rect fill="#FFFFFF" height="285.4844" style="stroke:#181818;stroke-width:1.0;" width="10" x="47.3008" y="449.2832"/><line style="stroke:#666666;stroke-width:1.0;" x1="47.3008" x2="94.3008" y1="93.7988" y2="93.7988"/><line style="stroke:#666666;stroke-width:1.0;" x1="94.3008" x2="94.3008" y1="93.7988" y2="106.7988"/><line style="stroke:#666666;stroke-width:1.0;" x1="53.3008" x2="94.3008" y1="106.7988" y2="106.7988"/><polygon fill="#666666" points="63.3008,102.7988,53.3008,106.7988,63.3008,110.7988,59.3008,106.7988" style="stroke:#666666;stroke-width:1.0;"/><text fill="#333333" font-family="sans-serif" font-size="13" lengthAdjust="spacing" textLength="65.7173" x="59.3008" y="89.0566">NewServer</text><polygon fill="#666666" points="328.8906,137.1094,338.8906,141.1094,328.8906,145.1094,332.8906,141.1094" style="stroke:#666666;stroke-width:1.0;"/><line style="stroke:#666666;stroke-width:1.0;" x1="52.3008" x2="334.8906" y1="141.1094" y2="141.1094"/><text fill="#333333" font-family="sans-serif" font-size="13" lengthAdjust="spacing" textLength="110.8555" x="59.3008" y="136.3672">Creates P2PClient</text><polygon fill="#666666" points="63.3008,151.1094,53.3008,155.1094,63.3008,159.1094,59.3008,155.1094" style="stroke:#666666;stroke-width:1.0;"/><line style="stroke:#666666;stroke-width:1.0;stroke-dasharray:2.0,2.0;" x1="57.3008" x2="339.8906" y1="155.1094" y2="155.1094"/><line style="stroke:#666666;stroke-width:1.0;" x1="52.3008" x2="94.3008" y1="184.4199" y2="184.4199"/><line style="stroke:#666666;stroke-width:1.0;" x1="94.3008" x2="94.3008" y1="184.4199" y2="197.4199"/><line style="stroke:#666666;stroke-width:1.0;" x1="53.3008" x2="94.3008" y1="197.4199" y2="197.4199"/><polygon fill="#666666" points="63.3008,193.4199,53.3008,197.4199,63.3008,201.4199,59.3008,197.4199" style="stroke:#666666;stroke-width:1.0;"/><text fill="#333333" font-family="sans-serif" font-size="13" lengthAdjust="spacing" textLength="230.4517" x="59.3008" y="179.6777">Sets up topics &amp; notification channel</text><line style="stroke:#666666;stroke-width:1.0;" x1="52.3008" x2="99.3008" y1="221.7305" y2="221.7305"/><line style="stroke:#666666;stroke-width:1.0;" x1="99.3008" x2="99.3008" y1="221.7305" y2="234.7305"/><line style="stroke:#666666;stroke-width:1.0;" x1="58.3008" x2="99.3008" y1="234.7305" y2="234.7305"/><polygon fill="#666666" points="68.3008,230.7305,58.3008,234.7305,68.3008,238.7305,64.3008,234.7305" style="stroke:#666666;stroke-width:1.0;"/><text fill="#333333" font-family="sans-serif" font-size="13" lengthAdjust="spacing" textLength="54.8628" x="64.3008" y="216.9883">Calls Init</text><polygon fill="#666666" points="438.9644,265.041,448.9644,269.041,438.9644,273.041,442.9644,269.041" style="stroke:#666666;stroke-width:1.0;"/><line style="stroke:#666666;stroke-width:1.0;" x1="57.3008" x2="444.9644" y1="269.041" y2="269.041"/><text fill="#333333" font-family="sans-serif" font-size="13" lengthAdjust="spacing" textLength="152.9595" x="64.3008" y="264.2988">Create Blockchain Client</text><polygon fill="#666666" points="68.3008,279.041,58.3008,283.041,68.3008,287.041,64.3008,283.041" style="stroke:#666666;stroke-width:1.0;"/><line style="stroke:#666666;stroke-width:1.0;stroke-dasharray:2.0,2.0;" x1="62.3008" x2="449.9644" y1="283.041" y2="283.041"/><polygon fill="#666666" points="589.376,308.3516,599.376,312.3516,589.376,316.3516,593.376,312.3516" style="stroke:#666666;stroke-width:1.0;"/><line style="stroke:#666666;stroke-width:1.0;" x1="57.3008" x2="595.376" y1="312.3516" y2="312.3516"/><text fill="#333333" font-family="sans-serif" font-size="13" lengthAdjust="spacing" textLength="182.457" x="64.3008" y="307.6094">Create BlockValidation Client</text><polygon fill="#666666" points="68.3008,322.3516,58.3008,326.3516,68.3008,330.3516,64.3008,326.3516" style="stroke:#666666;stroke-width:1.0;"/><line style="stroke:#666666;stroke-width:1.0;stroke-dasharray:2.0,2.0;" x1="62.3008" x2="600.376" y1="326.3516" y2="326.3516"/><polygon fill="#666666" points="734.1411,351.6621,744.1411,355.6621,734.1411,359.6621,738.1411,355.6621" style="stroke:#666666;stroke-width:1.0;"/><line style="stroke:#666666;stroke-width:1.0;" x1="57.3008" x2="740.1411" y1="355.6621" y2="355.6621"/><text fill="#333333" font-family="sans-serif" font-size="13" lengthAdjust="spacing" textLength="142.4731" x="64.3008" y="350.9199">Create Validator Client</text><polygon fill="#666666" points="68.3008,365.6621,58.3008,369.6621,68.3008,373.6621,64.3008,369.6621" style="stroke:#666666;stroke-width:1.0;"/><line style="stroke:#666666;stroke-width:1.0;stroke-dasharray:2.0,2.0;" x1="62.3008" x2="745.1411" y1="369.6621" y2="369.6621"/><line style="stroke:#666666;stroke-width:1.0;" x1="57.3008" x2="99.3008" y1="403.9727" y2="403.9727"/><line style="stroke:#666666;stroke-width:1.0;" x1="99.3008" x2="99.3008" y1="403.9727" y2="416.9727"/><line style="stroke:#666666;stroke-width:1.0;" x1="52.3008" x2="99.3008" y1="416.9727" y2="416.9727"/><polygon fill="#666666" points="62.3008,412.9727,52.3008,416.9727,62.3008,420.9727,58.3008,416.9727" style="stroke:#666666;stroke-width:1.0;"/><text fill="#333333" font-family="sans-serif" font-size="13" lengthAdjust="spacing" textLength="196.0918" x="64.3008" y="399.2305">Sets HTTP Address from config</text><line style="stroke:#666666;stroke-width:1.0;" x1="52.3008" x2="99.3008" y1="436.2832" y2="436.2832"/><line style="stroke:#666666;stroke-width:1.0;" x1="99.3008" x2="99.3008" y1="436.2832" y2="449.2832"/><line style="stroke:#666666;stroke-width:1.0;" x1="58.3008" x2="99.3008" y1="449.2832" y2="449.2832"/><polygon fill="#666666" points="68.3008,445.2832,58.3008,449.2832,68.3008,453.2832,64.3008,449.2832" style="stroke:#666666;stroke-width:1.0;"/><text fill="#333333" font-family="sans-serif" font-size="13" lengthAdjust="spacing" textLength="63.6543" x="64.3008" y="431.541">Calls Start</text><polygon fill="#666666" points="870.4443,479.5938,880.4443,483.5938,870.4443,487.5938,874.4443,483.5938" style="stroke:#666666;stroke-width:1.0;"/><line style="stroke:#666666;stroke-width:1.0;" x1="57.3008" x2="876.4443" y1="483.5938" y2="483.5938"/><text fill="#333333" font-family="sans-serif" font-size="13" lengthAdjust="spacing" textLength="248.0728" x="64.3008" y="478.8516">Setup Echo Server (Middleware, Routes)</text><polygon fill="#666666" points="68.3008,493.5938,58.3008,497.5938,68.3008,501.5938,64.3008,497.5938" style="stroke:#666666;stroke-width:1.0;"/><line style="stroke:#666666;stroke-width:1.0;stroke-dasharray:2.0,2.0;" x1="62.3008" x2="881.4443" y1="497.5938" y2="497.5938"/><line style="stroke:#666666;stroke-width:1.0;" x1="57.3008" x2="99.3008" y1="526.9043" y2="526.9043"/><line style="stroke:#666666;stroke-width:1.0;" x1="99.3008" x2="99.3008" y1="526.9043" y2="539.9043"/><line style="stroke:#666666;stroke-width:1.0;" x1="58.3008" x2="99.3008" y1="539.9043" y2="539.9043"/><polygon fill="#666666" points="68.3008,535.9043,58.3008,539.9043,68.3008,543.9043,64.3008,539.9043" style="stroke:#666666;stroke-width:1.0;"/><text fill="#333333" font-family="sans-serif" font-size="13" lengthAdjust="spacing" textLength="225.3799" x="64.3008" y="522.1621">Start P2PClient (Join PubSub Topics)</text><polygon fill="#666666" points="1172.123,565.2148,1182.123,569.2148,1172.123,573.2148,1176.123,569.2148" style="stroke:#666666;stroke-width:1.0;"/><line style="stroke:#666666;stroke-width:1.0;" x1="57.3008" x2="1178.123" y1="569.2148" y2="569.2148"/><text fill="#333333" font-family="sans-serif" font-size="13" lengthAdjust="spacing" textLength="145.0059" x="64.3008" y="564.4727">Connect to Static Peers</text><polygon fill="#666666" points="68.3008,579.2148,58.3008,583.2148,68.3008,587.2148,64.3008,583.2148" style="stroke:#666666;stroke-width:1.0;"/><line style="stroke:#666666;stroke-width:1.0;stroke-dasharray:2.0,2.0;" x1="62.3008" x2="1183.123" y1="583.2148" y2="583.2148"/><polygon fill="#666666" points="1343.7773,608.5254,1353.7773,612.5254,1343.7773,616.5254,1347.7773,612.5254" style="stroke:#666666;stroke-width:1.0;"/><line style="stroke:#666666;stroke-width:1.0;" x1="57.3008" x2="1349.7773" y1="612.5254" y2="612.5254"/><text fill="#333333" font-family="sans-serif" font-size="13" lengthAdjust="spacing" textLength="191.6738" x="64.3008" y="607.7832">Set Topic Handlers (Subscribe)</text><polygon fill="#666666" points="68.3008,622.5254,58.3008,626.5254,68.3008,630.5254,64.3008,626.5254" style="stroke:#666666;stroke-width:1.0;"/><line style="stroke:#666666;stroke-width:1.0;stroke-dasharray:2.0,2.0;" x1="62.3008" x2="1354.7773" y1="626.5254" y2="626.5254"/><line style="stroke:#666666;stroke-width:1.0;" x1="57.3008" x2="99.3008" y1="671.1465" y2="671.1465"/><line style="stroke:#666666;stroke-width:1.0;" x1="99.3008" x2="99.3008" y1="671.1465" y2="684.1465"/><line style="stroke:#666666;stroke-width:1.0;" x1="58.3008" x2="99.3008" y1="684.1465" y2="684.1465"/><polygon fill="#666666" points="68.3008,680.1465,58.3008,684.1465,68.3008,688.1465,64.3008,684.1465" style="stroke:#666666;stroke-width:1.0;"/><text fill="#333333" font-family="sans-serif" font-size="13" lengthAdjust="spacing" textLength="245.4766" x="64.3008" y="651.0938">Start blockchain and validator listeners</text><text fill="#333333" font-family="sans-serif" font-size="13" lengthAdjust="spacing" textLength="77.7651" x="68.4141" y="666.4043">(Goroutines)</text><line style="stroke:#666666;stroke-width:1.0;" x1="57.3008" x2="99.3008" y1="733.7676" y2="733.7676"/><line style="stroke:#666666;stroke-width:1.0;" x1="99.3008" x2="99.3008" y1="733.7676" y2="746.7676"/><line style="stroke:#666666;stroke-width:1.0;" x1="52.3008" x2="99.3008" y1="746.7676" y2="746.7676"/><polygon fill="#666666" points="62.3008,742.7676,52.3008,746.7676,62.3008,750.7676,58.3008,746.7676" style="stroke:#666666;stroke-width:1.0;"/><text fill="#333333" font-family="sans-serif" font-size="13" lengthAdjust="spacing" textLength="115.7368" x="64.3008" y="713.7148">Starts HTTP server</text><text fill="#333333" font-family="sans-serif" font-size="13" lengthAdjust="spacing" textLength="71.1382" x="68.4141" y="729.0254">(Goroutine)</text><text fill="#333333" font-family="sans-serif" font-size="10" lengthAdjust="spacing" textLength="154.8389" x="0" y="831.9238">Last Modified On: 15-Oct-2025</text><!--SRC=[fLLDZzCm4BtxLuoAW5IY4W89eHwGs2vbGHGgMd7YuiIJNQkkNModrGhnttVgV3b9MxvogEhnUvDvdZUEsqYzuvPl8UNPvjQQGekPKSR2e_dp-UlvdBa68J3dXV9petq5UHcU2CAjDOTgyrLu67iArvXBZP0QAz0wo6cNAmMeS8lQkuXFI-dluIS3k0heRYwAzgky3W_xnQ8i6LLeZVhVDFJhPIPtNFj_IyLOd6AqVB645TezsX5m1xGiLmFKJ4awY1fKhfZWdgVS8OokbCassHsN6Y9a6prDW6zSIOf9CwIrMmDkjKN28b8JhE0T0U-oEmF9pNfTgnq7pZ5GwVrHO46fbqMwAb9OtJkFsr9jYDJxCwCrPXwyWPMdwZ9O8lad8Cj0MDVm5NfOcnt1RhWMgaQ6K1rXh3brcBnfMp25ptYegkEPbtlkCMhGW5NgdiBC8Y7ZDZN_O1A_W9r_CzNjeDYHJ2hKmHFGnijSPcMhgADq2keyVKQZvE23blvKvHrMto9r_J1m5Ej3Usg6QViMwkOUU8-T95rwIyzpJVw-GLaFsE_3nJO4rxuLmgAZUygQS9VayfO9_1DRT7j27hM_Rqex5w46Ca8Oe0gGBAGWvnwunMVmrHHajZ5hAPSEBDPshAGrAIGV3RMwchym89IrGuxcY-IS7aGMWIuLqfd08B8tfv1G7IwpCiKnww3_Ib_QkfZei6-CeIJTCFgOxhk6vBsXszhJ1wclkP-mieCh0Htg-8mX5EQUlc_64-4JTnuMHj0ieu0lUWgFgHnCHa9C5el5v9wUqVW1]--></g></svg>
