<svg xmlns="http://www.w3.org/2000/svg" xmlns:xlink="http://www.w3.org/1999/xlink" contentStyleType="text/css" height="1738px" preserveAspectRatio="none" style="width:2209px;height:1738px;background:#F0F8FF;" version="1.1" viewBox="0 0 2209 1738" width="2209px" zoomAndPan="magnify"><title>P2P Private Key Persistence</title><defs/><g><rect fill="#F0F8FF" height="1738" style="stroke:none;stroke-width:1.0;" width="2209" x="0" y="0"/><text fill="#333333" font-family="sans-serif" font-size="14" font-weight="bold" lengthAdjust="spacing" textLength="198.7344" x="1001.3384" y="28.5352">P2P Private Key Persistence</text><rect fill="#ADD8E6" height="1674.2168" style="stroke:#181818;stroke-width:0.5;" width="442.3271" x="897.6514" y="43.4883"/><text fill="#333333" font-family="sans-serif" font-size="13" font-weight="bold" lengthAdjust="spacing" textLength="114.5562" x="1061.5369" y="56.0566">Key Management</text><rect fill="#FFFFFF" height="1435.6191" style="stroke:#181818;stroke-width:1.0;" width="10" x="350.2148" y="193.5977"/><rect fill="#FFFFFF" height="637.2109" style="stroke:#181818;stroke-width:1.0;" width="10" x="355.2148" y="992.0059"/><rect fill="#FFFFFF" height="377.0371" style="stroke:#181818;stroke-width:1.0;" width="10" x="360.2148" y="1236.1797"/><rect fill="#FFFFFF" height="1406.3086" style="stroke:#181818;stroke-width:1.0;" width="10" x="547.9434" y="222.9082"/><rect fill="#FFFFFF" height="607.9004" style="stroke:#181818;stroke-width:1.0;" width="10" x="552.9434" y="1021.3164"/><rect fill="#FFFFFF" height="347.7266" style="stroke:#181818;stroke-width:1.0;" width="10" x="557.9434" y="1265.4902"/><rect fill="#FFFFFF" height="617.5449" style="stroke:#181818;stroke-width:1.0;" width="10" x="958.1304" y="309.8398"/><rect fill="#FFFFFF" height="210.1738" style="stroke:#181818;stroke-width:1.0;" width="10" x="958.1304" y="1352.4219"/><rect fill="#FFFFFF" height="231.1738" style="stroke:#181818;stroke-width:1.0;" width="10" x="1254.7783" y="638.9004"/><rect fill="#FFFFFF" height="87.9316" style="stroke:#181818;stroke-width:1.0;" width="10" x="1641.7681" y="339.1504"/><rect fill="#FFFFFF" height="87.9316" style="stroke:#181818;stroke-width:1.0;" width="10" x="1641.7681" y="752.832"/><rect fill="#FFFFFF" height="109.2422" style="stroke:#181818;stroke-width:1.0;" width="10" x="1641.7681" y="1381.7324"/><rect fill="#FFFFFF" height="29.3105" style="stroke:#181818;stroke-width:1.0;" width="10" x="1930.1196" y="368.4609"/><rect fill="#FFFFFF" height="29.3105" style="stroke:#181818;stroke-width:1.0;" width="10" x="1930.1196" y="782.1426"/><rect fill="#FFFFFF" height="39.9658" style="stroke:#181818;stroke-width:1.0;" width="10" x="1930.1196" y="1421.6982"/><rect fill="none" height="478.3027" style="stroke:#000000;stroke-width:1.5;" width="1512.439" x="491.5371" y="442.082"/><line style="stroke:#181818;stroke-width:0.5;stroke-dasharray:5.0,5.0;" x1="58" x2="58" y1="118.9766" y2="1638.2168"/><line style="stroke:#181818;stroke-width:0.5;stroke-dasharray:5.0,5.0;" x1="355.1694" x2="355.1694" y1="118.9766" y2="1638.2168"/><line style="stroke:#181818;stroke-width:0.5;stroke-dasharray:5.0,5.0;" x1="552.5371" x2="552.5371" y1="118.9766" y2="1638.2168"/><line style="stroke:#181818;stroke-width:0.5;stroke-dasharray:5.0,5.0;" x1="962.6514" x2="962.6514" y1="118.9766" y2="1638.2168"/><line style="stroke:#181818;stroke-width:0.5;stroke-dasharray:5.0,5.0;" x1="1259.5781" x2="1259.5781" y1="118.9766" y2="1638.2168"/><line style="stroke:#181818;stroke-width:0.5;stroke-dasharray:5.0,5.0;" x1="1646.6978" x2="1646.6978" y1="118.9766" y2="1638.2168"/><line style="stroke:#181818;stroke-width:0.5;stroke-dasharray:5.0,5.0;" x1="1934.2632" x2="1934.2632" y1="118.9766" y2="1638.2168"/><text fill="#333333" font-family="sans-serif" font-size="14" lengthAdjust="spacing" textLength="100.4951" x="5" y="116.0234">Node Operator</text><ellipse cx="58.2476" cy="50.9883" fill="#E2E2F0" rx="8" ry="8" style="stroke:#181818;stroke-width:0.5;"/><path d="M58.2476,58.9883 L58.2476,85.9883 M45.2476,66.9883 L71.2476,66.9883 M58.2476,85.9883 L45.2476,100.9883 M58.2476,85.9883 L71.2476,100.9883 " fill="none" style="stroke:#181818;stroke-width:0.5;"/><text fill="#333333" font-family="sans-serif" font-size="14" lengthAdjust="spacing" textLength="100.4951" x="5" y="1650.752">Node Operator</text><ellipse cx="58.2476" cy="1662.2051" fill="#E2E2F0" rx="8" ry="8" style="stroke:#181818;stroke-width:0.5;"/><path d="M58.2476,1670.2051 L58.2476,1697.2051 M45.2476,1678.2051 L71.2476,1678.2051 M58.2476,1697.2051 L45.2476,1712.2051 M58.2476,1697.2051 L71.2476,1712.2051 " fill="none" style="stroke:#181818;stroke-width:0.5;"/><rect fill="#E2E2F0" height="30.4883" rx="2.5" ry="2.5" style="stroke:#181818;stroke-width:0.5;" width="90.0908" x="310.1694" y="87.4883"/><text fill="#333333" font-family="sans-serif" font-size="14" lengthAdjust="spacing" textLength="76.0908" x="317.1694" y="108.0234">P2P Service</text><rect fill="#E2E2F0" height="30.4883" rx="2.5" ry="2.5" style="stroke:#181818;stroke-width:0.5;" width="90.0908" x="310.1694" y="1637.2168"/><text fill="#333333" font-family="sans-serif" font-size="14" lengthAdjust="spacing" textLength="76.0908" x="317.1694" y="1657.752">P2P Service</text><rect fill="#E2E2F0" height="30.4883" rx="2.5" ry="2.5" style="stroke:#181818;stroke-width:0.5;" width="102.8125" x="501.5371" y="87.4883"/><text fill="#333333" font-family="sans-serif" font-size="14" lengthAdjust="spacing" textLength="88.8125" x="508.5371" y="108.0234">NewP2PNode</text><rect fill="#E2E2F0" height="30.4883" rx="2.5" ry="2.5" style="stroke:#181818;stroke-width:0.5;" width="102.8125" x="501.5371" y="1637.2168"/><text fill="#333333" font-family="sans-serif" font-size="14" lengthAdjust="spacing" textLength="88.8125" x="508.5371" y="1657.752">NewP2PNode</text><rect fill="#E2E2F0" height="30.4883" rx="2.5" ry="2.5" style="stroke:#181818;stroke-width:0.5;" width="122.958" x="901.6514" y="87.4883"/><text fill="#333333" font-family="sans-serif" font-size="14" lengthAdjust="spacing" textLength="108.958" x="908.6514" y="108.0234">readPrivateKey()</text><rect fill="#E2E2F0" height="30.4883" rx="2.5" ry="2.5" style="stroke:#181818;stroke-width:0.5;" width="122.958" x="901.6514" y="1637.2168"/><text fill="#333333" font-family="sans-serif" font-size="14" lengthAdjust="spacing" textLength="108.958" x="908.6514" y="1657.752">readPrivateKey()</text><rect fill="#E2E2F0" height="30.4883" rx="2.5" ry="2.5" style="stroke:#181818;stroke-width:0.5;" width="152.4004" x="1183.5781" y="87.4883"/><text fill="#333333" font-family="sans-serif" font-size="14" lengthAdjust="spacing" textLength="138.4004" x="1190.5781" y="108.0234">generatePrivateKey()</text><rect fill="#E2E2F0" height="30.4883" rx="2.5" ry="2.5" style="stroke:#181818;stroke-width:0.5;" width="152.4004" x="1183.5781" y="1637.2168"/><text fill="#333333" font-family="sans-serif" font-size="14" lengthAdjust="spacing" textLength="138.4004" x="1190.5781" y="1657.752">generatePrivateKey()</text><rect fill="#E2E2F0" height="30.4883" rx="2.5" ry="2.5" style="stroke:#181818;stroke-width:0.5;" width="138.1406" x="1577.6978" y="87.4883"/><text fill="#333333" font-family="sans-serif" font-size="14" lengthAdjust="spacing" textLength="124.1406" x="1584.6978" y="108.0234">Blockchain Service</text><rect fill="#E2E2F0" height="30.4883" rx="2.5" ry="2.5" style="stroke:#181818;stroke-width:0.5;" width="138.1406" x="1577.6978" y="1637.2168"/><text fill="#333333" font-family="sans-serif" font-size="14" lengthAdjust="spacing" textLength="124.1406" x="1584.6978" y="1657.752">Blockchain Service</text><text fill="#333333" font-family="sans-serif" font-size="14" lengthAdjust="spacing" textLength="111.7129" x="1876.2632" y="116.0234">Blockchain Store</text><path d="M1917.1196,66.4883 C1917.1196,56.4883 1935.1196,56.4883 1935.1196,56.4883 C1935.1196,56.4883 1953.1196,56.4883 1953.1196,66.4883 L1953.1196,92.4883 C1953.1196,102.4883 1935.1196,102.4883 1935.1196,102.4883 C1935.1196,102.4883 1917.1196,102.4883 1917.1196,92.4883 L1917.1196,66.4883 " fill="#E2E2F0" style="stroke:#181818;stroke-width:1.5;"/><path d="M1917.1196,66.4883 C1917.1196,76.4883 1935.1196,76.4883 1935.1196,76.4883 C1935.1196,76.4883 1953.1196,76.4883 1953.1196,66.4883 " fill="none" style="stroke:#181818;stroke-width:1.5;"/><text fill="#333333" font-family="sans-serif" font-size="14" lengthAdjust="spacing" textLength="111.7129" x="1876.2632" y="1650.752">Blockchain Store</text><path d="M1917.1196,1663.7051 C1917.1196,1653.7051 1935.1196,1653.7051 1935.1196,1653.7051 C1935.1196,1653.7051 1953.1196,1653.7051 1953.1196,1663.7051 L1953.1196,1689.7051 C1953.1196,1699.7051 1935.1196,1699.7051 1935.1196,1699.7051 C1935.1196,1699.7051 1917.1196,1699.7051 1917.1196,1689.7051 L1917.1196,1663.7051 " fill="#E2E2F0" style="stroke:#181818;stroke-width:1.5;"/><path d="M1917.1196,1663.7051 C1917.1196,1673.7051 1935.1196,1673.7051 1935.1196,1673.7051 C1935.1196,1673.7051 1953.1196,1673.7051 1953.1196,1663.7051 " fill="none" style="stroke:#181818;stroke-width:1.5;"/><rect fill="#FFFFFF" height="1435.6191" style="stroke:#181818;stroke-width:1.0;" width="10" x="350.2148" y="193.5977"/><rect fill="#FFFFFF" height="637.2109" style="stroke:#181818;stroke-width:1.0;" width="10" x="355.2148" y="992.0059"/><rect fill="#FFFFFF" height="377.0371" style="stroke:#181818;stroke-width:1.0;" width="10" x="360.2148" y="1236.1797"/><rect fill="#FFFFFF" height="1406.3086" style="stroke:#181818;stroke-width:1.0;" width="10" x="547.9434" y="222.9082"/><rect fill="#FFFFFF" height="607.9004" style="stroke:#181818;stroke-width:1.0;" width="10" x="552.9434" y="1021.3164"/><rect fill="#FFFFFF" height="347.7266" style="stroke:#181818;stroke-width:1.0;" width="10" x="557.9434" y="1265.4902"/><rect fill="#FFFFFF" height="617.5449" style="stroke:#181818;stroke-width:1.0;" width="10" x="958.1304" y="309.8398"/><rect fill="#FFFFFF" height="210.1738" style="stroke:#181818;stroke-width:1.0;" width="10" x="958.1304" y="1352.4219"/><rect fill="#FFFFFF" height="231.1738" style="stroke:#181818;stroke-width:1.0;" width="10" x="1254.7783" y="638.9004"/><rect fill="#FFFFFF" height="87.9316" style="stroke:#181818;stroke-width:1.0;" width="10" x="1641.7681" y="339.1504"/><rect fill="#FFFFFF" height="87.9316" style="stroke:#181818;stroke-width:1.0;" width="10" x="1641.7681" y="752.832"/><rect fill="#FFFFFF" height="109.2422" style="stroke:#181818;stroke-width:1.0;" width="10" x="1641.7681" y="1381.7324"/><rect fill="#FFFFFF" height="29.3105" style="stroke:#181818;stroke-width:1.0;" width="10" x="1930.1196" y="368.4609"/><rect fill="#FFFFFF" height="29.3105" style="stroke:#181818;stroke-width:1.0;" width="10" x="1930.1196" y="782.1426"/><rect fill="#FFFFFF" height="39.9658" style="stroke:#181818;stroke-width:1.0;" width="10" x="1930.1196" y="1421.6982"/><rect fill="#EEEEEE" height="3" style="stroke:#EEEEEE;stroke-width:1.0;" width="2202.4111" x="0" y="149.6318"/><line style="stroke:#000000;stroke-width:1.0;" x1="0" x2="2202.4111" y1="149.6318" y2="149.6318"/><line style="stroke:#000000;stroke-width:1.0;" x1="0" x2="2202.4111" y1="152.6318" y2="152.6318"/><rect fill="#EEEEEE" height="23.3105" style="stroke:#000000;stroke-width:2.0;" width="347.3916" x="927.5098" y="138.9766"/><text fill="#333333" font-family="sans-serif" font-size="13" font-weight="bold" lengthAdjust="spacing" textLength="329.1069" x="933.5098" y="155.5449">Node Startup (Configuration without Private Key)</text><polygon fill="#666666" points="338.2148,189.5977,348.2148,193.5977,338.2148,197.5977,342.2148,193.5977" style="stroke:#666666;stroke-width:1.0;"/><line style="stroke:#666666;stroke-width:1.0;" x1="58.2476" x2="344.2148" y1="193.5977" y2="193.5977"/><text fill="#333333" font-family="sans-serif" font-size="13" font-weight="bold" lengthAdjust="spacing" textLength="8.5757" x="65.2476" y="188.8555">1</text><text fill="#333333" font-family="sans-serif" font-size="13" lengthAdjust="spacing" textLength="103.6191" x="77.8232" y="188.8555">Start P2P service</text><polygon fill="#666666" points="535.9434,218.9082,545.9434,222.9082,535.9434,226.9082,539.9434,222.9082" style="stroke:#666666;stroke-width:1.0;"/><line style="stroke:#666666;stroke-width:1.0;" x1="360.2148" x2="541.9434" y1="222.9082" y2="222.9082"/><text fill="#333333" font-family="sans-serif" font-size="13" font-weight="bold" lengthAdjust="spacing" textLength="8.5757" x="367.2148" y="218.166">2</text><text fill="#333333" font-family="sans-serif" font-size="13" lengthAdjust="spacing" textLength="132.5771" x="379.7905" y="218.166">Create new P2P node</text><line style="stroke:#666666;stroke-width:1.0;" x1="557.9434" x2="599.9434" y1="267.5293" y2="267.5293"/><line style="stroke:#666666;stroke-width:1.0;" x1="599.9434" x2="599.9434" y1="267.5293" y2="280.5293"/><line style="stroke:#666666;stroke-width:1.0;" x1="558.9434" x2="599.9434" y1="280.5293" y2="280.5293"/><polygon fill="#666666" points="568.9434,276.5293,558.9434,280.5293,568.9434,284.5293,564.9434,280.5293" style="stroke:#666666;stroke-width:1.0;"/><text fill="#333333" font-family="sans-serif" font-size="13" font-weight="bold" lengthAdjust="spacing" textLength="8.5757" x="564.9434" y="255.1318">3</text><text fill="#333333" font-family="sans-serif" font-size="13" lengthAdjust="spacing" textLength="124.3442" x="577.519" y="247.4766">Check if private key</text><text fill="#333333" font-family="sans-serif" font-size="13" lengthAdjust="spacing" textLength="130.3364" x="577.519" y="262.7871">is specified in config</text><path d="M728.9121,247.0635 L728.9121,272.0635 L895.9121,272.0635 L895.9121,257.0635 L885.9121,247.0635 L728.9121,247.0635 " fill="#FEFFDD" style="stroke:#181818;stroke-width:0.5;"/><path d="M885.9121,247.0635 L885.9121,257.0635 L895.9121,257.0635 L885.9121,247.0635 " fill="#FEFFDD" style="stroke:#181818;stroke-width:0.5;"/><text fill="#333333" font-family="sans-serif" font-size="13" lengthAdjust="spacing" textLength="146.8721" x="734.9121" y="264.6318">config.PrivateKey == ""</text><polygon fill="#666666" points="946.1304,305.8398,956.1304,309.8398,946.1304,313.8398,950.1304,309.8398" style="stroke:#666666;stroke-width:1.0;"/><line style="stroke:#666666;stroke-width:1.0;" x1="557.9434" x2="952.1304" y1="309.8398" y2="309.8398"/><text fill="#333333" font-family="sans-serif" font-size="13" font-weight="bold" lengthAdjust="spacing" textLength="8.5757" x="564.9434" y="305.0977">4</text><text fill="#333333" font-family="sans-serif" font-size="13" lengthAdjust="spacing" textLength="180.3687" x="577.519" y="305.0977">Attempt to read existing key</text><polygon fill="#666666" points="1629.7681,335.1504,1639.7681,339.1504,1629.7681,343.1504,1633.7681,339.1504" style="stroke:#666666;stroke-width:1.0;"/><line style="stroke:#666666;stroke-width:1.0;" x1="968.1304" x2="1635.7681" y1="339.1504" y2="339.1504"/><text fill="#333333" font-family="sans-serif" font-size="13" font-weight="bold" lengthAdjust="spacing" textLength="8.5757" x="975.1304" y="334.4082">5</text><text fill="#333333" font-family="sans-serif" font-size="13" lengthAdjust="spacing" textLength="274.0156" x="987.7061" y="334.4082">blockchainClient.GetState("p2p.privateKey")</text><polygon fill="#666666" points="1918.1196,364.4609,1928.1196,368.4609,1918.1196,372.4609,1922.1196,368.4609" style="stroke:#666666;stroke-width:1.0;"/><line style="stroke:#666666;stroke-width:1.0;" x1="1651.7681" x2="1924.1196" y1="368.4609" y2="368.4609"/><text fill="#333333" font-family="sans-serif" font-size="13" font-weight="bold" lengthAdjust="spacing" textLength="8.5757" x="1658.7681" y="363.7188">6</text><text fill="#333333" font-family="sans-serif" font-size="13" lengthAdjust="spacing" textLength="72.4077" x="1671.3438" y="363.7188">Query state</text><polygon fill="#666666" points="1662.7681,393.7715,1652.7681,397.7715,1662.7681,401.7715,1658.7681,397.7715" style="stroke:#666666;stroke-width:1.0;"/><line style="stroke:#666666;stroke-width:1.0;stroke-dasharray:2.0,2.0;" x1="1656.7681" x2="1934.1196" y1="397.7715" y2="397.7715"/><text fill="#333333" font-family="sans-serif" font-size="13" font-weight="bold" lengthAdjust="spacing" textLength="8.5757" x="1668.7681" y="393.0293">7</text><text fill="#333333" font-family="sans-serif" font-size="13" lengthAdjust="spacing" textLength="241.7759" x="1681.3438" y="393.0293">Return stored key bytes (or not found)</text><polygon fill="#666666" points="979.1304,423.082,969.1304,427.082,979.1304,431.082,975.1304,427.082" style="stroke:#666666;stroke-width:1.0;"/><line style="stroke:#666666;stroke-width:1.0;stroke-dasharray:2.0,2.0;" x1="973.1304" x2="1645.7681" y1="427.082" y2="427.082"/><text fill="#333333" font-family="sans-serif" font-size="13" font-weight="bold" lengthAdjust="spacing" textLength="8.5757" x="985.1304" y="422.3398">8</text><text fill="#333333" font-family="sans-serif" font-size="13" lengthAdjust="spacing" textLength="158.063" x="997.7061" y="422.3398">Return key bytes or error</text><path d="M491.5371,442.082 L553.6758,442.082 L553.6758,449.3926 L543.6758,459.3926 L491.5371,459.3926 L491.5371,442.082 " fill="#EEEEEE" style="stroke:#000000;stroke-width:1.5;"/><rect fill="none" height="478.3027" style="stroke:#000000;stroke-width:1.5;" width="1512.439" x="491.5371" y="442.082"/><text fill="#333333" font-family="sans-serif" font-size="13" font-weight="bold" lengthAdjust="spacing" textLength="17.1387" x="506.5371" y="455.6504">alt</text><text fill="#333333" font-family="sans-serif" font-size="11" font-weight="bold" lengthAdjust="spacing" textLength="177.6489" x="568.6758" y="454.7168">[Key found in blockchain store]</text><line style="stroke:#666666;stroke-width:1.0;" x1="968.1304" x2="1010.1304" y1="480.7031" y2="480.7031"/><line style="stroke:#666666;stroke-width:1.0;" x1="1010.1304" x2="1010.1304" y1="480.7031" y2="493.7031"/><line style="stroke:#666666;stroke-width:1.0;" x1="969.1304" x2="1010.1304" y1="493.7031" y2="493.7031"/><polygon fill="#666666" points="979.1304,489.7031,969.1304,493.7031,979.1304,497.7031,975.1304,493.7031" style="stroke:#666666;stroke-width:1.0;"/><text fill="#333333" font-family="sans-serif" font-size="13" font-weight="bold" lengthAdjust="spacing" textLength="8.5757" x="975.1304" y="475.9609">9</text><text fill="#333333" font-family="sans-serif" font-size="13" lengthAdjust="spacing" textLength="241.4966" x="987.7061" y="475.9609">crypto.UnmarshalPrivateKey(privBytes)</text><polygon fill="#666666" points="568.9434,519.0137,558.9434,523.0137,568.9434,527.0137,564.9434,523.0137" style="stroke:#666666;stroke-width:1.0;"/><line style="stroke:#666666;stroke-width:1.0;stroke-dasharray:2.0,2.0;" x1="562.9434" x2="957.1304" y1="523.0137" y2="523.0137"/><text fill="#333333" font-family="sans-serif" font-size="13" font-weight="bold" lengthAdjust="spacing" textLength="17.1514" x="574.9434" y="518.2715">10</text><text fill="#333333" font-family="sans-serif" font-size="13" lengthAdjust="spacing" textLength="200.8525" x="596.0947" y="518.2715">Return unmarshaled private key</text><line style="stroke:#666666;stroke-width:1.0;" x1="557.9434" x2="599.9434" y1="552.3242" y2="552.3242"/><line style="stroke:#666666;stroke-width:1.0;" x1="599.9434" x2="599.9434" y1="552.3242" y2="565.3242"/><line style="stroke:#666666;stroke-width:1.0;" x1="558.9434" x2="599.9434" y1="565.3242" y2="565.3242"/><polygon fill="#666666" points="568.9434,561.3242,558.9434,565.3242,568.9434,569.3242,564.9434,565.3242" style="stroke:#666666;stroke-width:1.0;"/><text fill="#333333" font-family="sans-serif" font-size="13" font-weight="bold" lengthAdjust="spacing" textLength="17.1514" x="564.9434" y="547.582">11</text><text fill="#333333" font-family="sans-serif" font-size="13" lengthAdjust="spacing" textLength="212.5576" x="586.0947" y="547.582">Use existing key for node identity</text><line style="stroke:#000000;stroke-width:1.0;stroke-dasharray:2.0,2.0;" x1="491.5371" x2="2003.9761" y1="574.3242" y2="574.3242"/><text fill="#333333" font-family="sans-serif" font-size="11" font-weight="bold" lengthAdjust="spacing" textLength="88.1021" x="496.5371" y="584.959">[Key not found]</text><polygon fill="#666666" points="568.9434,605.5898,558.9434,609.5898,568.9434,613.5898,564.9434,609.5898" style="stroke:#666666;stroke-width:1.0;"/><line style="stroke:#666666;stroke-width:1.0;stroke-dasharray:2.0,2.0;" x1="562.9434" x2="957.1304" y1="609.5898" y2="609.5898"/><text fill="#333333" font-family="sans-serif" font-size="13" font-weight="bold" lengthAdjust="spacing" textLength="17.1514" x="574.9434" y="604.8477">12</text><text fill="#333333" font-family="sans-serif" font-size="13" lengthAdjust="spacing" textLength="151.7598" x="596.0947" y="604.8477">Return error (not found)</text><polygon fill="#666666" points="1242.7783,634.9004,1252.7783,638.9004,1242.7783,642.9004,1246.7783,638.9004" style="stroke:#666666;stroke-width:1.0;"/><line style="stroke:#666666;stroke-width:1.0;" x1="557.9434" x2="1248.7783" y1="638.9004" y2="638.9004"/><text fill="#333333" font-family="sans-serif" font-size="13" font-weight="bold" lengthAdjust="spacing" textLength="17.1514" x="564.9434" y="634.1582">13</text><text fill="#333333" font-family="sans-serif" font-size="13" lengthAdjust="spacing" textLength="159.123" x="586.0947" y="634.1582">Generate new private key</text><line style="stroke:#666666;stroke-width:1.0;" x1="1264.7783" x2="1306.7783" y1="668.2109" y2="668.2109"/><line style="stroke:#666666;stroke-width:1.0;" x1="1306.7783" x2="1306.7783" y1="668.2109" y2="681.2109"/><line style="stroke:#666666;stroke-width:1.0;" x1="1265.7783" x2="1306.7783" y1="681.2109" y2="681.2109"/><polygon fill="#666666" points="1275.7783,677.2109,1265.7783,681.2109,1275.7783,685.2109,1271.7783,681.2109" style="stroke:#666666;stroke-width:1.0;"/><text fill="#333333" font-family="sans-serif" font-size="13" font-weight="bold" lengthAdjust="spacing" textLength="17.1514" x="1271.7783" y="663.4688">14</text><text fill="#333333" font-family="sans-serif" font-size="13" lengthAdjust="spacing" textLength="187.77" x="1292.9297" y="663.4688">crypto.GenerateEd25519Key()</text><line style="stroke:#666666;stroke-width:1.0;" x1="1264.7783" x2="1306.7783" y1="710.5215" y2="710.5215"/><line style="stroke:#666666;stroke-width:1.0;" x1="1306.7783" x2="1306.7783" y1="710.5215" y2="723.5215"/><line style="stroke:#666666;stroke-width:1.0;" x1="1265.7783" x2="1306.7783" y1="723.5215" y2="723.5215"/><polygon fill="#666666" points="1275.7783,719.5215,1265.7783,723.5215,1275.7783,727.5215,1271.7783,723.5215" style="stroke:#666666;stroke-width:1.0;"/><text fill="#333333" font-family="sans-serif" font-size="13" font-weight="bold" lengthAdjust="spacing" textLength="17.1514" x="1271.7783" y="705.7793">15</text><text fill="#333333" font-family="sans-serif" font-size="13" lengthAdjust="spacing" textLength="166.4927" x="1292.9297" y="705.7793">crypto.MarshalPrivateKey()</text><polygon fill="#666666" points="1629.7681,748.832,1639.7681,752.832,1629.7681,756.832,1633.7681,752.832" style="stroke:#666666;stroke-width:1.0;"/><line style="stroke:#666666;stroke-width:1.0;" x1="1264.7783" x2="1635.7681" y1="752.832" y2="752.832"/><text fill="#333333" font-family="sans-serif" font-size="13" font-weight="bold" lengthAdjust="spacing" textLength="17.1514" x="1271.7783" y="748.0898">16</text><text fill="#333333" font-family="sans-serif" font-size="13" lengthAdjust="spacing" textLength="336.8384" x="1292.9297" y="748.0898">blockchainClient.SetState("p2p.privateKey", privBytes)</text><polygon fill="#666666" points="1918.1196,778.1426,1928.1196,782.1426,1918.1196,786.1426,1922.1196,782.1426" style="stroke:#666666;stroke-width:1.0;"/><line style="stroke:#666666;stroke-width:1.0;" x1="1651.7681" x2="1924.1196" y1="782.1426" y2="782.1426"/><text fill="#333333" font-family="sans-serif" font-size="13" font-weight="bold" lengthAdjust="spacing" textLength="17.1514" x="1658.7681" y="777.4004">17</text><text fill="#333333" font-family="sans-serif" font-size="13" lengthAdjust="spacing" textLength="95.9766" x="1679.9194" y="777.4004">Store key bytes</text><polygon fill="#666666" points="1662.7681,807.4531,1652.7681,811.4531,1662.7681,815.4531,1658.7681,811.4531" style="stroke:#666666;stroke-width:1.0;"/><line style="stroke:#666666;stroke-width:1.0;stroke-dasharray:2.0,2.0;" x1="1656.7681" x2="1934.1196" y1="811.4531" y2="811.4531"/><text fill="#333333" font-family="sans-serif" font-size="13" font-weight="bold" lengthAdjust="spacing" textLength="17.1514" x="1668.7681" y="806.7109">18</text><text fill="#333333" font-family="sans-serif" font-size="13" lengthAdjust="spacing" textLength="102.4766" x="1689.9194" y="806.7109">Confirm storage</text><polygon fill="#666666" points="1275.7783,836.7637,1265.7783,840.7637,1275.7783,844.7637,1271.7783,840.7637" style="stroke:#666666;stroke-width:1.0;"/><line style="stroke:#666666;stroke-width:1.0;stroke-dasharray:2.0,2.0;" x1="1269.7783" x2="1645.7681" y1="840.7637" y2="840.7637"/><text fill="#333333" font-family="sans-serif" font-size="13" font-weight="bold" lengthAdjust="spacing" textLength="17.1514" x="1281.7783" y="836.0215">19</text><text fill="#333333" font-family="sans-serif" font-size="13" lengthAdjust="spacing" textLength="94.4023" x="1302.9297" y="836.0215">Return success</text><polygon fill="#666666" points="568.9434,866.0742,558.9434,870.0742,568.9434,874.0742,564.9434,870.0742" style="stroke:#666666;stroke-width:1.0;"/><line style="stroke:#666666;stroke-width:1.0;stroke-dasharray:2.0,2.0;" x1="562.9434" x2="1258.7783" y1="870.0742" y2="870.0742"/><text fill="#333333" font-family="sans-serif" font-size="13" font-weight="bold" lengthAdjust="spacing" textLength="17.1514" x="574.9434" y="865.332">20</text><text fill="#333333" font-family="sans-serif" font-size="13" lengthAdjust="spacing" textLength="144.3521" x="596.0947" y="865.332">Return new private key</text><line style="stroke:#666666;stroke-width:1.0;" x1="557.9434" x2="599.9434" y1="899.3848" y2="899.3848"/><line style="stroke:#666666;stroke-width:1.0;" x1="599.9434" x2="599.9434" y1="899.3848" y2="912.3848"/><line style="stroke:#666666;stroke-width:1.0;" x1="558.9434" x2="599.9434" y1="912.3848" y2="912.3848"/><polygon fill="#666666" points="568.9434,908.3848,558.9434,912.3848,568.9434,916.3848,564.9434,912.3848" style="stroke:#666666;stroke-width:1.0;"/><text fill="#333333" font-family="sans-serif" font-size="13" font-weight="bold" lengthAdjust="spacing" textLength="17.1514" x="564.9434" y="894.6426">21</text><text fill="#333333" font-family="sans-serif" font-size="13" lengthAdjust="spacing" textLength="187.4907" x="586.0947" y="894.6426">Use new key for node identity</text><rect fill="#EEEEEE" height="3" style="stroke:#EEEEEE;stroke-width:1.0;" width="2202.4111" x="0" y="948.04"/><line style="stroke:#000000;stroke-width:1.0;" x1="0" x2="2202.4111" y1="948.04" y2="948.04"/><line style="stroke:#000000;stroke-width:1.0;" x1="0" x2="2202.4111" y1="951.04" y2="951.04"/><rect fill="#EEEEEE" height="23.3105" style="stroke:#000000;stroke-width:2.0;" width="325.2827" x="938.5642" y="937.3848"/><text fill="#333333" font-family="sans-serif" font-size="13" font-weight="bold" lengthAdjust="spacing" textLength="306.998" x="944.5642" y="953.9531">Node Startup (Configuration with Private Key)</text><polygon fill="#666666" points="343.2148,988.0059,353.2148,992.0059,343.2148,996.0059,347.2148,992.0059" style="stroke:#666666;stroke-width:1.0;"/><line style="stroke:#666666;stroke-width:1.0;" x1="58.2476" x2="349.2148" y1="992.0059" y2="992.0059"/><text fill="#333333" font-family="sans-serif" font-size="13" font-weight="bold" lengthAdjust="spacing" textLength="17.1514" x="65.2476" y="987.2637">22</text><text fill="#333333" font-family="sans-serif" font-size="13" lengthAdjust="spacing" textLength="246.8159" x="86.3989" y="987.2637">Start P2P service with config.PrivateKey</text><polygon fill="#666666" points="540.9434,1017.3164,550.9434,1021.3164,540.9434,1025.3164,544.9434,1021.3164" style="stroke:#666666;stroke-width:1.0;"/><line style="stroke:#666666;stroke-width:1.0;" x1="365.2148" x2="546.9434" y1="1021.3164" y2="1021.3164"/><text fill="#333333" font-family="sans-serif" font-size="13" font-weight="bold" lengthAdjust="spacing" textLength="17.1514" x="372.2148" y="1016.5742">23</text><text fill="#333333" font-family="sans-serif" font-size="13" lengthAdjust="spacing" textLength="132.5771" x="393.3662" y="1016.5742">Create new P2P node</text><line style="stroke:#666666;stroke-width:1.0;" x1="562.9434" x2="604.9434" y1="1065.9375" y2="1065.9375"/><line style="stroke:#666666;stroke-width:1.0;" x1="604.9434" x2="604.9434" y1="1065.9375" y2="1078.9375"/><line style="stroke:#666666;stroke-width:1.0;" x1="563.9434" x2="604.9434" y1="1078.9375" y2="1078.9375"/><polygon fill="#666666" points="573.9434,1074.9375,563.9434,1078.9375,573.9434,1082.9375,569.9434,1078.9375" style="stroke:#666666;stroke-width:1.0;"/><text fill="#333333" font-family="sans-serif" font-size="13" font-weight="bold" lengthAdjust="spacing" textLength="17.1514" x="569.9434" y="1053.54">24</text><text fill="#333333" font-family="sans-serif" font-size="13" lengthAdjust="spacing" textLength="124.3442" x="591.0947" y="1045.8848">Check if private key</text><text fill="#333333" font-family="sans-serif" font-size="13" lengthAdjust="spacing" textLength="130.3364" x="591.0947" y="1061.1953">is specified in config</text><path d="M747.4878,1045.4717 L747.4878,1070.4717 L908.4878,1070.4717 L908.4878,1055.4717 L898.4878,1045.4717 L747.4878,1045.4717 " fill="#FEFFDD" style="stroke:#181818;stroke-width:0.5;"/><path d="M898.4878,1045.4717 L898.4878,1055.4717 L908.4878,1055.4717 L898.4878,1045.4717 " fill="#FEFFDD" style="stroke:#181818;stroke-width:0.5;"/><text fill="#333333" font-family="sans-serif" font-size="13" lengthAdjust="spacing" textLength="140.6514" x="753.4878" y="1063.04">config.PrivateKey != ""</text><line style="stroke:#666666;stroke-width:1.0;" x1="562.9434" x2="604.9434" y1="1108.248" y2="1108.248"/><line style="stroke:#666666;stroke-width:1.0;" x1="604.9434" x2="604.9434" y1="1108.248" y2="1121.248"/><line style="stroke:#666666;stroke-width:1.0;" x1="563.9434" x2="604.9434" y1="1121.248" y2="1121.248"/><polygon fill="#666666" points="573.9434,1117.248,563.9434,1121.248,573.9434,1125.248,569.9434,1121.248" style="stroke:#666666;stroke-width:1.0;"/><text fill="#333333" font-family="sans-serif" font-size="13" font-weight="bold" lengthAdjust="spacing" textLength="17.1514" x="569.9434" y="1103.5059">25</text><text fill="#333333" font-family="sans-serif" font-size="13" lengthAdjust="spacing" textLength="308.1089" x="591.0947" y="1103.5059">decodeHexEd25519PrivateKey(config.PrivateKey)</text><line style="stroke:#666666;stroke-width:1.0;" x1="562.9434" x2="604.9434" y1="1150.5586" y2="1150.5586"/><line style="stroke:#666666;stroke-width:1.0;" x1="604.9434" x2="604.9434" y1="1150.5586" y2="1163.5586"/><line style="stroke:#666666;stroke-width:1.0;" x1="563.9434" x2="604.9434" y1="1163.5586" y2="1163.5586"/><polygon fill="#666666" points="573.9434,1159.5586,563.9434,1163.5586,573.9434,1167.5586,569.9434,1163.5586" style="stroke:#666666;stroke-width:1.0;"/><text fill="#333333" font-family="sans-serif" font-size="13" font-weight="bold" lengthAdjust="spacing" textLength="17.1514" x="569.9434" y="1145.8164">26</text><text fill="#333333" font-family="sans-serif" font-size="13" lengthAdjust="spacing" textLength="215.8394" x="591.0947" y="1145.8164">Use decoded key for node identity</text><rect fill="#EEEEEE" height="3" style="stroke:#EEEEEE;stroke-width:1.0;" width="2202.4111" x="0" y="1192.2139"/><line style="stroke:#000000;stroke-width:1.0;" x1="0" x2="2202.4111" y1="1192.2139" y2="1192.2139"/><line style="stroke:#000000;stroke-width:1.0;" x1="0" x2="2202.4111" y1="1195.2139" y2="1195.2139"/><rect fill="#EEEEEE" height="23.3105" style="stroke:#000000;stroke-width:2.0;" width="356.7354" x="922.8379" y="1181.5586"/><text fill="#333333" font-family="sans-serif" font-size="13" font-weight="bold" lengthAdjust="spacing" textLength="338.4507" x="928.8379" y="1198.127">Node Restart (Container Destroyed and Recreated)</text><polygon fill="#666666" points="348.2148,1232.1797,358.2148,1236.1797,348.2148,1240.1797,352.2148,1236.1797" style="stroke:#666666;stroke-width:1.0;"/><line style="stroke:#666666;stroke-width:1.0;" x1="58.2476" x2="354.2148" y1="1236.1797" y2="1236.1797"/><text fill="#333333" font-family="sans-serif" font-size="13" font-weight="bold" lengthAdjust="spacing" textLength="17.1514" x="65.2476" y="1231.4375">27</text><text fill="#333333" font-family="sans-serif" font-size="13" lengthAdjust="spacing" textLength="212.2529" x="86.3989" y="1231.4375">Start P2P service in new container</text><polygon fill="#666666" points="545.9434,1261.4902,555.9434,1265.4902,545.9434,1269.4902,549.9434,1265.4902" style="stroke:#666666;stroke-width:1.0;"/><line style="stroke:#666666;stroke-width:1.0;" x1="370.2148" x2="551.9434" y1="1265.4902" y2="1265.4902"/><text fill="#333333" font-family="sans-serif" font-size="13" font-weight="bold" lengthAdjust="spacing" textLength="17.1514" x="377.2148" y="1260.748">28</text><text fill="#333333" font-family="sans-serif" font-size="13" lengthAdjust="spacing" textLength="132.5771" x="398.3662" y="1260.748">Create new P2P node</text><line style="stroke:#666666;stroke-width:1.0;" x1="567.9434" x2="609.9434" y1="1310.1113" y2="1310.1113"/><line style="stroke:#666666;stroke-width:1.0;" x1="609.9434" x2="609.9434" y1="1310.1113" y2="1323.1113"/><line style="stroke:#666666;stroke-width:1.0;" x1="568.9434" x2="609.9434" y1="1323.1113" y2="1323.1113"/><polygon fill="#666666" points="578.9434,1319.1113,568.9434,1323.1113,578.9434,1327.1113,574.9434,1323.1113" style="stroke:#666666;stroke-width:1.0;"/><text fill="#333333" font-family="sans-serif" font-size="13" font-weight="bold" lengthAdjust="spacing" textLength="17.1514" x="574.9434" y="1297.7139">29</text><text fill="#333333" font-family="sans-serif" font-size="13" lengthAdjust="spacing" textLength="124.3442" x="596.0947" y="1290.0586">Check if private key</text><text fill="#333333" font-family="sans-serif" font-size="13" lengthAdjust="spacing" textLength="130.3364" x="596.0947" y="1305.3691">is specified in config</text><path d="M757.4878,1289.6455 L757.4878,1314.6455 L924.4878,1314.6455 L924.4878,1299.6455 L914.4878,1289.6455 L757.4878,1289.6455 " fill="#FEFFDD" style="stroke:#181818;stroke-width:0.5;"/><path d="M914.4878,1289.6455 L914.4878,1299.6455 L924.4878,1299.6455 L914.4878,1289.6455 " fill="#FEFFDD" style="stroke:#181818;stroke-width:0.5;"/><text fill="#333333" font-family="sans-serif" font-size="13" lengthAdjust="spacing" textLength="146.8721" x="763.4878" y="1307.2139">config.PrivateKey == ""</text><polygon fill="#666666" points="946.1304,1348.4219,956.1304,1352.4219,946.1304,1356.4219,950.1304,1352.4219" style="stroke:#666666;stroke-width:1.0;"/><line style="stroke:#666666;stroke-width:1.0;" x1="567.9434" x2="952.1304" y1="1352.4219" y2="1352.4219"/><text fill="#333333" font-family="sans-serif" font-size="13" font-weight="bold" lengthAdjust="spacing" textLength="17.1514" x="574.9434" y="1347.6797">30</text><text fill="#333333" font-family="sans-serif" font-size="13" lengthAdjust="spacing" textLength="180.3687" x="596.0947" y="1347.6797">Attempt to read existing key</text><polygon fill="#666666" points="1629.7681,1377.7324,1639.7681,1381.7324,1629.7681,1385.7324,1633.7681,1381.7324" style="stroke:#666666;stroke-width:1.0;"/><line style="stroke:#666666;stroke-width:1.0;" x1="968.1304" x2="1635.7681" y1="1381.7324" y2="1381.7324"/><text fill="#333333" font-family="sans-serif" font-size="13" font-weight="bold" lengthAdjust="spacing" textLength="17.1514" x="975.1304" y="1376.9902">31</text><text fill="#333333" font-family="sans-serif" font-size="13" lengthAdjust="spacing" textLength="274.0156" x="996.2817" y="1376.9902">blockchainClient.GetState("p2p.privateKey")</text><polygon fill="#666666" points="1918.1196,1417.6982,1928.1196,1421.6982,1918.1196,1425.6982,1922.1196,1421.6982" style="stroke:#666666;stroke-width:1.0;"/><line style="stroke:#666666;stroke-width:1.0;" x1="1651.7681" x2="1924.1196" y1="1421.6982" y2="1421.6982"/><text fill="#333333" font-family="sans-serif" font-size="13" font-weight="bold" lengthAdjust="spacing" textLength="17.1514" x="1658.7681" y="1416.9561">32</text><text fill="#333333" font-family="sans-serif" font-size="13" lengthAdjust="spacing" textLength="72.4077" x="1679.9194" y="1416.9561">Query state</text><path d="M1945,1394.7324 L1945,1434.7324 L2202,1434.7324 L2202,1404.7324 L2192,1394.7324 L1945,1394.7324 " fill="#FEFFDD" style="stroke:#181818;stroke-width:0.5;"/><path d="M2192,1394.7324 L2192,1404.7324 L2202,1404.7324 L2192,1394.7324 " fill="#FEFFDD" style="stroke:#181818;stroke-width:0.5;"/><text fill="#333333" font-family="sans-serif" font-size="13" lengthAdjust="spacing" textLength="199.9956" x="1951" y="1412.3008">Key persists in blockchain store</text><text fill="#333333" font-family="sans-serif" font-size="13" lengthAdjust="spacing" textLength="236.2915" x="1951" y="1427.6113">even though container was destroyed</text><polygon fill="#666666" points="1662.7681,1457.6641,1652.7681,1461.6641,1662.7681,1465.6641,1658.7681,1461.6641" style="stroke:#666666;stroke-width:1.0;"/><line style="stroke:#666666;stroke-width:1.0;stroke-dasharray:2.0,2.0;" x1="1656.7681" x2="1934.1196" y1="1461.6641" y2="1461.6641"/><text fill="#333333" font-family="sans-serif" font-size="13" font-weight="bold" lengthAdjust="spacing" textLength="17.1514" x="1668.7681" y="1456.9219">33</text><text fill="#333333" font-family="sans-serif" font-size="13" lengthAdjust="spacing" textLength="218.2515" x="1689.9194" y="1456.9219">Return previously stored key bytes</text><polygon fill="#666666" points="979.1304,1486.9746,969.1304,1490.9746,979.1304,1494.9746,975.1304,1490.9746" style="stroke:#666666;stroke-width:1.0;"/><line style="stroke:#666666;stroke-width:1.0;stroke-dasharray:2.0,2.0;" x1="973.1304" x2="1645.7681" y1="1490.9746" y2="1490.9746"/><text fill="#333333" font-family="sans-serif" font-size="13" font-weight="bold" lengthAdjust="spacing" textLength="17.1514" x="985.1304" y="1486.2324">34</text><text fill="#333333" font-family="sans-serif" font-size="13" lengthAdjust="spacing" textLength="105.3457" x="1006.2817" y="1486.2324">Return key bytes</text><line style="stroke:#666666;stroke-width:1.0;" x1="968.1304" x2="1010.1304" y1="1520.2852" y2="1520.2852"/><line style="stroke:#666666;stroke-width:1.0;" x1="1010.1304" x2="1010.1304" y1="1520.2852" y2="1533.2852"/><line style="stroke:#666666;stroke-width:1.0;" x1="969.1304" x2="1010.1304" y1="1533.2852" y2="1533.2852"/><polygon fill="#666666" points="979.1304,1529.2852,969.1304,1533.2852,979.1304,1537.2852,975.1304,1533.2852" style="stroke:#666666;stroke-width:1.0;"/><text fill="#333333" font-family="sans-serif" font-size="13" font-weight="bold" lengthAdjust="spacing" textLength="17.1514" x="975.1304" y="1515.543">35</text><text fill="#333333" font-family="sans-serif" font-size="13" lengthAdjust="spacing" textLength="241.4966" x="996.2817" y="1515.543">crypto.UnmarshalPrivateKey(privBytes)</text><polygon fill="#666666" points="578.9434,1558.5957,568.9434,1562.5957,578.9434,1566.5957,574.9434,1562.5957" style="stroke:#666666;stroke-width:1.0;"/><line style="stroke:#666666;stroke-width:1.0;stroke-dasharray:2.0,2.0;" x1="572.9434" x2="962.1304" y1="1562.5957" y2="1562.5957"/><text fill="#333333" font-family="sans-serif" font-size="13" font-weight="bold" lengthAdjust="spacing" textLength="17.1514" x="584.9434" y="1557.8535">36</text><text fill="#333333" font-family="sans-serif" font-size="13" lengthAdjust="spacing" textLength="200.8525" x="606.0947" y="1557.8535">Return unmarshaled private key</text><line style="stroke:#666666;stroke-width:1.0;" x1="567.9434" x2="609.9434" y1="1612.2168" y2="1612.2168"/><line style="stroke:#666666;stroke-width:1.0;" x1="609.9434" x2="609.9434" y1="1612.2168" y2="1625.2168"/><line style="stroke:#666666;stroke-width:1.0;" x1="562.9434" x2="609.9434" y1="1625.2168" y2="1625.2168"/><polygon fill="#666666" points="572.9434,1621.2168,562.9434,1625.2168,572.9434,1629.2168,568.9434,1625.2168" style="stroke:#666666;stroke-width:1.0;"/><text fill="#333333" font-family="sans-serif" font-size="13" font-weight="bold" lengthAdjust="spacing" textLength="17.1514" x="574.9434" y="1599.8193">37</text><text fill="#333333" font-family="sans-serif" font-size="13" lengthAdjust="spacing" textLength="245.6416" x="596.0947" y="1592.1641">Use existing key from blockchain store</text><text fill="#333333" font-family="sans-serif" font-size="13" lengthAdjust="spacing" textLength="335.0356" x="596.0947" y="1607.4746">preserving node identity despite container recreation</text><text fill="#333333" font-family="sans-serif" font-size="10" lengthAdjust="spacing" textLength="155.4932" x="0" y="1728.373">Last Modified On: 30-Apr-2025</text><!--SRC=[xLRRRjiu47tdLyogA603JT1cqKLh80MQTDq5jcxJ17th2osERS8oAP1K7F_z3abTA4j9WonGzA5wI7IPEJCyPowsMwbARlWEbZpVheskbBZKXJRmRFvo_cO-PxQr4BZYLU7cMhdQvCzm9IRS6BslF_uLBiQST0N2rTaLN1bvont2ltY0ApHMMeSgHyPuxiWZ-wm5mfSI3QV73BW5NJymWdSoboLN3ZAFTOFcLkOOhCgpic_m6VTau-72TuLxRxBKTv3vs0kk-1ftg5m6ppx9zSPT51KoeAi7Ov2BEcTocqm3c7-vnSFGUetA9ui33_hW7L09e1JwcLuKEj_c6ovLxqJBzZKJtF4bjzYt9KwYfVLtn63bjAfsIpICdPz3OFB6KQIgXCcbLYkvhYWvgHNifTleogLgJE7ydB66R3XvvocTHO2Wd8svUQ6Ya-UJqHzl6-cTmILHGv_eCVWeog5pg3LWyN_FROFv5kGAoZeX8kkxadIq4dEvaYY0Jfo7Cp2boS1uoMRrgzEERpe5P5aQenPh1k-TmrtfmEdm3l2EYa-gjG_M9Tbeo-eR3z59CKlkBmj9vNFw4HsHv72IKS3JiiqactQWYPQik_VGGRiPVAtG7EY1Z3klg6lu2oT7QLoZguoA9iAV09O7XnOcf1qH12lVnLCcy0Yj5pvbfmRia0W8gPLDYf6UWnSkT768vEL9a6Citnu9Ysset1nAfq-_gHqtTiEBf5iyVHS-_BJldTHAdMZLUDFnawe9RiC2-qRDa-fDMPjGdI05YIWTzMPXurXgwVjH2e4Uc2HqUuUZ36Bdp-1ZFHf2Rnmdt19SpuaM9pwdE3Lv3TpVukprwrTlmwHvs6Cn87iw5kV1Mh-vhzPVm95oOoNJHXjjWJ3FklhhetG5DTuEORoPNVXASprO3cf_D7v2LDDJLPwZjSSOOmTfQ1lMnfZA2TYnpkCLwq7kALQgphGnswdrYC7_bAaV7GVJzbTV1dySBuCcXi2Sila7x-h-IRfYW39bu-f4376FGgqIrsW3cru9HzM31ZxGAwCFvCjfT5vZ7eWIZnP3nlhA6y3VE_adx-JqkFw0PVmbQyVMu7U5jwZ0_-1QRphDO4-_t4HJ20zl-TBWhTILBGw3XVy_DlnzY_tfA_i9wtfiXZrcVHkz6s6QY0ezGbQzRlH4bv9YTFIRs7Kq57k3jEw7v4reZm9NVicJx0O-SUjWeKNiWIyaqtCHQas8ayLYSNAWYmhjFm00]--></g></svg>
