<svg contentStyleType="text/css" height="250" preserveAspectRatio="none" viewBox="0 0 1034 250" width="1034" xmlns="http://www.w3.org/2000/svg" zoomAndPan="magnify"><g stroke="#181818"><path d="m31.5 75.7988h10v34.3105h-10z" fill="#fff"/><path d="m760.5 139.4199h10v35.3105h-10z" fill="#fff"/><g stroke-width=".5"><g stroke-dasharray="5 5"><path d="m36 36.4883v163.2422"/><path d="m499.5 36.4883v163.2422"/><path d="m765 36.4883v163.2422"/></g><rect fill="#e2e2f0" height="30.4883" rx="2.5" width="63" x="5" y="5"/></g></g><text font-family="sans-serif" font-size="14" lengthAdjust="spacing" textLength="49" x="12" y="25.5352">Node 1</text><rect fill="#e2e2f0" height="30.4883" rx="2.5" stroke="#181818" stroke-width=".5" width="63" x="5" y="198.7305"/><text font-family="sans-serif" font-size="14" lengthAdjust="spacing" textLength="49" x="12" y="219.2656">Node 1</text><rect fill="#e2e2f0" height="30.4883" rx="2.5" stroke="#181818" stroke-width=".5" width="118" x="440.5" y="5"/><text font-family="sans-serif" font-size="14" lengthAdjust="spacing" textLength="104" x="447.5" y="25.5352">PubSub System</text><rect fill="#e2e2f0" height="30.4883" rx="2.5" stroke="#181818" stroke-width=".5" width="118" x="440.5" y="198.7305"/><text font-family="sans-serif" font-size="14" lengthAdjust="spacing" textLength="104" x="447.5" y="219.2656">PubSub System</text><rect fill="#e2e2f0" height="30.4883" rx="2.5" stroke="#181818" stroke-width=".5" width="63" x="734" y="5"/><text font-family="sans-serif" font-size="14" lengthAdjust="spacing" textLength="49" x="741" y="25.5352">Node 2</text><rect fill="#e2e2f0" height="30.4883" rx="2.5" stroke="#181818" stroke-width=".5" width="63" x="734" y="198.7305"/><text font-family="sans-serif" font-size="14" lengthAdjust="spacing" textLength="49" x="741" y="219.2656">Node 2</text><g stroke="#181818"><path d="m31.5 75.7988h10v34.3105h-10z" fill="#fff"/><path d="m760.5 139.4199h10v35.3105h-10z" fill="#fff"/><path d="m36.5 62.7988h47"/><path d="m83.5 62.7988v13"/><path d="m42.5 75.7988h41"/><path d="m52.5 71.7988-10 4 10 4-4-4z" fill="#181818"/></g><text font-family="sans-serif" font-size="13" lengthAdjust="spacing" textLength="212" x="48.5" y="58.0566">validatorSubscriptionListener(ctx)</text><path d="m487.5 106.1094 10 4-10 4 4-4z" fill="#181818" stroke="#181818"/><path d="m36.5 110.1094h457" stroke="#181818"/><text font-family="sans-serif" font-size="13" lengthAdjust="spacing" textLength="434" x="43.5" y="105.3672">s.topics[rejectedTxTopicName].Publish(ctx, rejectedTxMessageBytes)</text><path d="m748.5 135.4199 10 4-10 4 4-4z" fill="#181818" stroke="#181818"/><path d="m499.5 139.4199h255" stroke="#181818"/><text font-family="sans-serif" font-size="13" lengthAdjust="spacing" textLength="242" x="506.5" y="134.6777">s.subscriptions[rejectedTxTopicName]</text><g stroke="#181818"><path d="m770.5 173.7305h42"/><path d="m812.5 173.7305v13"/><path d="m765.5 186.7305h47"/><path d="m775.5 182.7305-10 4 10 4-4-4z" fill="#181818"/></g><text font-family="sans-serif" font-size="13" lengthAdjust="spacing" textLength="250" x="777.5" y="168.9883">Handle rejected transaction notification</text><text fill="#888" font-family="sans-serif" font-size="10" lengthAdjust="spacing" textLength="152" y="240.8867">Last Modified On: 17-Jan-2024</text></svg>
