<svg xmlns="http://www.w3.org/2000/svg" xmlns:xlink="http://www.w3.org/1999/xlink" contentStyleType="text/css" height="762px" preserveAspectRatio="none" style="width:913px;height:762px;background:#F0F8FF;" version="1.1" viewBox="0 0 913 762" width="913px" zoomAndPan="magnify"><defs/><g><rect fill="#F0F8FF" height="762" style="stroke:none;stroke-width:1.0;" width="913" x="0" y="0"/><rect fill="#FFFFFF" height="563.5449" style="stroke:#181818;stroke-width:1.0;" width="10" x="221.021" y="98.7988"/><rect fill="#FFFFFF" height="29.3105" style="stroke:#181818;stroke-width:1.0;" width="10" x="492.4487" y="128.1094"/><rect fill="#FFFFFF" height="97.9316" style="stroke:#181818;stroke-width:1.0;" width="10" x="667.2031" y="186.7305"/><rect fill="#FFFFFF" height="29.3105" style="stroke:#181818;stroke-width:1.0;" width="10" x="667.2031" y="330.2832"/><rect fill="none" height="46.6211" style="stroke:#000000;stroke-width:1.5;" width="728.0483" x="179.0796" y="231.041"/><rect fill="none" height="270.75" style="stroke:#000000;stroke-width:1.5;" width="704.5669" x="159.0796" y="291.6621"/><rect fill="none" height="180.8184" style="stroke:#000000;stroke-width:1.5;" width="684.5669" x="169.0796" y="374.5938"/><rect fill="none" height="90.8867" style="stroke:#000000;stroke-width:1.5;" width="612.5698" x="179.0796" y="457.5254"/><line style="stroke:#181818;stroke-width:0.5;stroke-dasharray:5.0,5.0;" x1="50" x2="50" y1="67.4883" y2="680.3438"/><line style="stroke:#181818;stroke-width:0.5;stroke-dasharray:5.0,5.0;" x1="225.0796" x2="225.0796" y1="67.4883" y2="680.3438"/><line style="stroke:#181818;stroke-width:0.5;stroke-dasharray:5.0,5.0;" x1="496.8799" x2="496.8799" y1="67.4883" y2="680.3438"/><line style="stroke:#181818;stroke-width:0.5;stroke-dasharray:5.0,5.0;" x1="672.0176" x2="672.0176" y1="67.4883" y2="680.3438"/><line style="stroke:#181818;stroke-width:0.5;stroke-dasharray:5.0,5.0;" x1="762.3887" x2="762.3887" y1="67.4883" y2="680.3438"/><line style="stroke:#181818;stroke-width:0.5;stroke-dasharray:5.0,5.0;" x1="822.4434" x2="822.4434" y1="67.4883" y2="680.3438"/><line style="stroke:#181818;stroke-width:0.5;stroke-dasharray:5.0,5.0;" x1="874.6465" x2="874.6465" y1="67.4883" y2="680.3438"/><rect fill="#DDDDDD" height="30.4883" rx="2.5" ry="2.5" style="stroke:#666666;stroke-width:0.5;" width="90.0908" x="5" y="36"/><text fill="#333333" font-family="sans-serif" font-size="14" lengthAdjust="spacing" textLength="76.0908" x="12" y="56.5352">P2P Service</text><rect fill="#DDDDDD" height="30.4883" rx="2.5" ry="2.5" style="stroke:#666666;stroke-width:0.5;" width="90.0908" x="5" y="679.3438"/><text fill="#333333" font-family="sans-serif" font-size="14" lengthAdjust="spacing" textLength="76.0908" x="12" y="699.8789">P2P Service</text><rect fill="#DDDDDD" height="30.4883" rx="2.5" ry="2.5" style="stroke:#666666;stroke-width:0.5;" width="73.8828" x="189.0796" y="36"/><text fill="#333333" font-family="sans-serif" font-size="14" lengthAdjust="spacing" textLength="59.8828" x="196.0796" y="56.5352">P2PNode</text><rect fill="#DDDDDD" height="30.4883" rx="2.5" ry="2.5" style="stroke:#666666;stroke-width:0.5;" width="73.8828" x="189.0796" y="679.3438"/><text fill="#333333" font-family="sans-serif" font-size="14" lengthAdjust="spacing" textLength="59.8828" x="196.0796" y="699.8789">P2PNode</text><text fill="#333333" font-family="sans-serif" font-size="14" lengthAdjust="spacing" textLength="199.1377" x="394.8799" y="64.5352">DHT (Distributed Hash Table)</text><ellipse cx="497.4487" cy="35" fill="#DDDDDD" rx="12" ry="12" style="stroke:#666666;stroke-width:0.5;"/><polygon fill="#666666" points="493.4487,23,499.4487,18,497.4487,23,499.4487,28,493.4487,23" style="stroke:#666666;stroke-width:1.0;"/><text fill="#333333" font-family="sans-serif" font-size="14" lengthAdjust="spacing" textLength="199.1377" x="394.8799" y="692.8789">DHT (Distributed Hash Table)</text><ellipse cx="497.4487" cy="711.832" fill="#DDDDDD" rx="12" ry="12" style="stroke:#666666;stroke-width:0.5;"/><polygon fill="#666666" points="493.4487,699.832,499.4487,694.832,497.4487,699.832,499.4487,704.832,493.4487,699.832" style="stroke:#666666;stroke-width:1.0;"/><text fill="#333333" font-family="sans-serif" font-size="14" lengthAdjust="spacing" textLength="118.3711" x="610.0176" y="64.5352">RoutingDiscovery</text><ellipse cx="672.2031" cy="35" fill="#DDDDDD" rx="12" ry="12" style="stroke:#666666;stroke-width:0.5;"/><polygon fill="#666666" points="668.2031,23,674.2031,18,672.2031,23,674.2031,28,668.2031,23" style="stroke:#666666;stroke-width:1.0;"/><text fill="#333333" font-family="sans-serif" font-size="14" lengthAdjust="spacing" textLength="118.3711" x="610.0176" y="692.8789">RoutingDiscovery</text><ellipse cx="672.2031" cy="711.832" fill="#DDDDDD" rx="12" ry="12" style="stroke:#666666;stroke-width:0.5;"/><polygon fill="#666666" points="668.2031,699.832,674.2031,694.832,672.2031,699.832,674.2031,704.832,668.2031,699.832" style="stroke:#666666;stroke-width:1.0;"/><text fill="#333333" font-family="sans-serif" font-size="14" lengthAdjust="spacing" textLength="31.2607" x="744.3887" y="64.5352">Host</text><ellipse cx="763.019" cy="35" fill="#DDDDDD" rx="12" ry="12" style="stroke:#666666;stroke-width:0.5;"/><polygon fill="#666666" points="759.019,23,765.019,18,763.019,23,765.019,28,759.019,23" style="stroke:#666666;stroke-width:1.0;"/><text fill="#333333" font-family="sans-serif" font-size="14" lengthAdjust="spacing" textLength="31.2607" x="744.3887" y="692.8789">Host</text><ellipse cx="763.019" cy="711.832" fill="#DDDDDD" rx="12" ry="12" style="stroke:#666666;stroke-width:0.5;"/><polygon fill="#666666" points="759.019,699.832,765.019,694.832,763.019,699.832,765.019,704.832,759.019,699.832" style="stroke:#666666;stroke-width:1.0;"/><text fill="#333333" font-family="sans-serif" font-size="14" lengthAdjust="spacing" textLength="36.2031" x="801.4434" y="64.5352">Peers</text><path d="M804.5449,15 C804.5449,5 822.5449,5 822.5449,5 C822.5449,5 840.5449,5 840.5449,15 L840.5449,41 C840.5449,51 822.5449,51 822.5449,51 C822.5449,51 804.5449,51 804.5449,41 L804.5449,15 " fill="#E2E2F0" style="stroke:#181818;stroke-width:1.5;"/><path d="M804.5449,15 C804.5449,25 822.5449,25 822.5449,25 C822.5449,25 840.5449,25 840.5449,15 " fill="none" style="stroke:#181818;stroke-width:1.5;"/><text fill="#333333" font-family="sans-serif" font-size="14" lengthAdjust="spacing" textLength="36.2031" x="801.4434" y="692.8789">Peers</text><path d="M804.5449,705.832 C804.5449,695.832 822.5449,695.832 822.5449,695.832 C822.5449,695.832 840.5449,695.832 840.5449,705.832 L840.5449,731.832 C840.5449,741.832 822.5449,741.832 822.5449,741.832 C822.5449,741.832 804.5449,741.832 804.5449,731.832 L804.5449,705.832 " fill="#E2E2F0" style="stroke:#181818;stroke-width:1.5;"/><path d="M804.5449,705.832 C804.5449,715.832 822.5449,715.832 822.5449,715.832 C822.5449,715.832 840.5449,715.832 840.5449,705.832 " fill="none" style="stroke:#181818;stroke-width:1.5;"/><text fill="#333333" font-family="sans-serif" font-size="14" lengthAdjust="spacing" textLength="37.4814" x="853.6465" y="64.5352">Topic</text><ellipse cx="875.3872" cy="35" fill="#DDDDDD" rx="12" ry="12" style="stroke:#666666;stroke-width:0.5;"/><line style="stroke:#666666;stroke-width:0.5;" x1="863.3872" x2="887.3872" y1="49" y2="49"/><text fill="#333333" font-family="sans-serif" font-size="14" lengthAdjust="spacing" textLength="37.4814" x="853.6465" y="692.8789">Topic</text><ellipse cx="875.3872" cy="711.832" fill="#DDDDDD" rx="12" ry="12" style="stroke:#666666;stroke-width:0.5;"/><line style="stroke:#666666;stroke-width:0.5;" x1="863.3872" x2="887.3872" y1="725.832" y2="725.832"/><rect fill="#FFFFFF" height="563.5449" style="stroke:#181818;stroke-width:1.0;" width="10" x="221.021" y="98.7988"/><rect fill="#FFFFFF" height="29.3105" style="stroke:#181818;stroke-width:1.0;" width="10" x="492.4487" y="128.1094"/><rect fill="#FFFFFF" height="97.9316" style="stroke:#181818;stroke-width:1.0;" width="10" x="667.2031" y="186.7305"/><rect fill="#FFFFFF" height="29.3105" style="stroke:#181818;stroke-width:1.0;" width="10" x="667.2031" y="330.2832"/><polygon fill="#666666" points="209.021,94.7988,219.021,98.7988,209.021,102.7988,213.021,98.7988" style="stroke:#666666;stroke-width:1.0;"/><line style="stroke:#666666;stroke-width:1.0;" x1="50.0454" x2="215.021" y1="98.7988" y2="98.7988"/><text fill="#333333" font-family="sans-serif" font-size="13" lengthAdjust="spacing" textLength="151.9756" x="57.0454" y="94.0566">Start(ctx, topicNames...)</text><polygon fill="#666666" points="480.4487,124.1094,490.4487,128.1094,480.4487,132.1094,484.4487,128.1094" style="stroke:#666666;stroke-width:1.0;"/><line style="stroke:#666666;stroke-width:1.0;" x1="231.021" x2="486.4487" y1="128.1094" y2="128.1094"/><text fill="#333333" font-family="sans-serif" font-size="13" lengthAdjust="spacing" textLength="215.6172" x="238.021" y="123.3672">initDHT(ctx) or initPrivateDHT(ctx)</text><polygon fill="#666666" points="242.021,153.4199,232.021,157.4199,242.021,161.4199,238.021,157.4199" style="stroke:#666666;stroke-width:1.0;"/><line style="stroke:#666666;stroke-width:1.0;stroke-dasharray:2.0,2.0;" x1="236.021" x2="496.4487" y1="157.4199" y2="157.4199"/><text fill="#333333" font-family="sans-serif" font-size="13" lengthAdjust="spacing" textLength="84.0747" x="248.021" y="152.6777">DHT Instance</text><polygon fill="#666666" points="655.2031,182.7305,665.2031,186.7305,655.2031,190.7305,659.2031,186.7305" style="stroke:#666666;stroke-width:1.0;"/><line style="stroke:#666666;stroke-width:1.0;" x1="231.021" x2="661.2031" y1="186.7305" y2="186.7305"/><text fill="#333333" font-family="sans-serif" font-size="13" lengthAdjust="spacing" textLength="172.7451" x="238.021" y="181.9883">NewRoutingDiscovery(DHT)</text><polygon fill="#666666" points="655.2031,212.041,665.2031,216.041,655.2031,220.041,659.2031,216.041" style="stroke:#666666;stroke-width:1.0;"/><line style="stroke:#666666;stroke-width:1.0;" x1="231.021" x2="661.2031" y1="216.041" y2="216.041"/><text fill="#333333" font-family="sans-serif" font-size="13" lengthAdjust="spacing" textLength="85.8267" x="238.021" y="211.2988">Advertise Self</text><path d="M179.0796,231.041 L253.5264,231.041 L253.5264,238.3516 L243.5264,248.3516 L179.0796,248.3516 L179.0796,231.041 " fill="#EEEEEE" style="stroke:#000000;stroke-width:1.5;"/><rect fill="none" height="46.6211" style="stroke:#000000;stroke-width:1.5;" width="728.0483" x="179.0796" y="231.041"/><text fill="#333333" font-family="sans-serif" font-size="13" font-weight="bold" lengthAdjust="spacing" textLength="29.4468" x="194.0796" y="244.6094">loop</text><text fill="#333333" font-family="sans-serif" font-size="11" font-weight="bold" lengthAdjust="spacing" textLength="173.8247" x="268.5264" y="243.6758">[for each Topic in topicNames]</text><polygon fill="#666666" points="863.3872,265.6621,873.3872,269.6621,863.3872,273.6621,867.3872,269.6621" style="stroke:#666666;stroke-width:1.0;"/><line style="stroke:#666666;stroke-width:1.0;" x1="231.021" x2="869.3872" y1="269.6621" y2="269.6621"/><text fill="#333333" font-family="sans-serif" font-size="13" lengthAdjust="spacing" textLength="248.0537" x="238.021" y="264.9199">Advertise(ctx, RoutingDiscovery, Topic)</text><path d="M159.0796,291.6621 L233.5264,291.6621 L233.5264,298.9727 L223.5264,308.9727 L159.0796,308.9727 L159.0796,291.6621 " fill="#EEEEEE" style="stroke:#000000;stroke-width:1.5;"/><rect fill="none" height="270.75" style="stroke:#000000;stroke-width:1.5;" width="704.5669" x="159.0796" y="291.6621"/><text fill="#333333" font-family="sans-serif" font-size="13" font-weight="bold" lengthAdjust="spacing" textLength="29.4468" x="174.0796" y="305.2305">loop</text><text fill="#333333" font-family="sans-serif" font-size="11" font-weight="bold" lengthAdjust="spacing" textLength="176.9883" x="248.5264" y="304.2969">[Peer Discovery for each Topic]</text><polygon fill="#666666" points="655.2031,326.2832,665.2031,330.2832,655.2031,334.2832,659.2031,330.2832" style="stroke:#666666;stroke-width:1.0;"/><line style="stroke:#666666;stroke-width:1.0;" x1="231.021" x2="661.2031" y1="330.2832" y2="330.2832"/><text fill="#333333" font-family="sans-serif" font-size="13" lengthAdjust="spacing" textLength="131.5742" x="238.021" y="325.541">FindPeers(ctx, Topic)</text><polygon fill="#666666" points="810.5449,355.5938,820.5449,359.5938,810.5449,363.5938,814.5449,359.5938" style="stroke:#666666;stroke-width:1.0;"/><line style="stroke:#666666;stroke-width:1.0;" x1="672.2031" x2="816.5449" y1="359.5938" y2="359.5938"/><text fill="#333333" font-family="sans-serif" font-size="13" lengthAdjust="spacing" textLength="121.3418" x="679.2031" y="354.8516">Get peers for Topic</text><path d="M169.0796,374.5938 L243.5264,374.5938 L243.5264,381.9043 L233.5264,391.9043 L169.0796,391.9043 L169.0796,374.5938 " fill="#EEEEEE" style="stroke:#000000;stroke-width:1.5;"/><rect fill="none" height="180.8184" style="stroke:#000000;stroke-width:1.5;" width="684.5669" x="169.0796" y="374.5938"/><text fill="#333333" font-family="sans-serif" font-size="13" font-weight="bold" lengthAdjust="spacing" textLength="29.4468" x="184.0796" y="388.1621">loop</text><text fill="#333333" font-family="sans-serif" font-size="11" font-weight="bold" lengthAdjust="spacing" textLength="131.5273" x="258.5264" y="387.2285">[for each Peer in Peers]</text><polygon fill="#666666" points="242.021,409.2148,232.021,413.2148,242.021,417.2148,238.021,413.2148" style="stroke:#666666;stroke-width:1.0;"/><line style="stroke:#666666;stroke-width:1.0;stroke-dasharray:2.0,2.0;" x1="236.021" x2="821.5449" y1="413.2148" y2="413.2148"/><text fill="#333333" font-family="sans-serif" font-size="13" lengthAdjust="spacing" textLength="51.5684" x="248.021" y="408.4727">PeerInfo</text><polygon fill="#666666" points="751.019,438.5254,761.019,442.5254,751.019,446.5254,755.019,442.5254" style="stroke:#666666;stroke-width:1.0;"/><line style="stroke:#666666;stroke-width:1.0;" x1="231.021" x2="757.019" y1="442.5254" y2="442.5254"/><text fill="#333333" font-family="sans-serif" font-size="13" lengthAdjust="spacing" textLength="139.623" x="238.021" y="437.7832">Connect(ctx, PeerInfo)</text><path d="M179.0796,457.5254 L241.2183,457.5254 L241.2183,464.8359 L231.2183,474.8359 L179.0796,474.8359 L179.0796,457.5254 " fill="#EEEEEE" style="stroke:#000000;stroke-width:1.5;"/><rect fill="none" height="90.8867" style="stroke:#000000;stroke-width:1.5;" width="612.5698" x="179.0796" y="457.5254"/><text fill="#333333" font-family="sans-serif" font-size="13" font-weight="bold" lengthAdjust="spacing" textLength="17.1387" x="194.0796" y="471.0938">alt</text><text fill="#333333" font-family="sans-serif" font-size="11" font-weight="bold" lengthAdjust="spacing" textLength="133.0903" x="256.2183" y="470.1602">[successful connection]</text><polygon fill="#666666" points="242.021,492.1465,232.021,496.1465,242.021,500.1465,238.021,496.1465" style="stroke:#666666;stroke-width:1.0;"/><line style="stroke:#666666;stroke-width:1.0;" x1="236.021" x2="762.019" y1="496.1465" y2="496.1465"/><text fill="#333333" font-family="sans-serif" font-size="13" lengthAdjust="spacing" textLength="67.3042" x="248.021" y="491.4043">Connected</text><line style="stroke:#000000;stroke-width:1.0;stroke-dasharray:2.0,2.0;" x1="179.0796" x2="791.6494" y1="505.1465" y2="505.1465"/><text fill="#333333" font-family="sans-serif" font-size="11" font-weight="bold" lengthAdjust="spacing" textLength="105.6064" x="184.0796" y="515.7813">[connection failed]</text><polygon fill="#666666" points="242.021,536.4121,232.021,540.4121,242.021,544.4121,238.021,540.4121" style="stroke:#666666;stroke-width:1.0;"/><line style="stroke:#666666;stroke-width:1.0;" x1="236.021" x2="762.019" y1="540.4121" y2="540.4121"/><text fill="#333333" font-family="sans-serif" font-size="13" lengthAdjust="spacing" textLength="112.8931" x="248.021" y="535.6699">Connection Failed</text><line style="stroke:#666666;stroke-width:1.0;" x1="231.021" x2="273.021" y1="590.7227" y2="590.7227"/><line style="stroke:#666666;stroke-width:1.0;" x1="273.021" x2="273.021" y1="590.7227" y2="603.7227"/><line style="stroke:#666666;stroke-width:1.0;" x1="232.021" x2="273.021" y1="603.7227" y2="603.7227"/><polygon fill="#666666" points="242.021,599.7227,232.021,603.7227,242.021,607.7227,238.021,603.7227" style="stroke:#666666;stroke-width:1.0;"/><text fill="#333333" font-family="sans-serif" font-size="13" lengthAdjust="spacing" textLength="237.4277" x="238.021" y="585.9805">connectToStaticPeers(ctx, staticPeers)</text><polygon fill="#666666" points="751.019,629.0332,761.019,633.0332,751.019,637.0332,755.019,633.0332" style="stroke:#666666;stroke-width:1.0;"/><line style="stroke:#666666;stroke-width:1.0;" x1="231.021" x2="757.019" y1="633.0332" y2="633.0332"/><text fill="#333333" font-family="sans-serif" font-size="13" lengthAdjust="spacing" textLength="291.8335" x="238.021" y="628.291">SetStreamHandler(protocol.ID, streamHandler)</text><polygon fill="#666666" points="237.021,658.3438,227.021,662.3438,237.021,666.3438,233.021,662.3438" style="stroke:#666666;stroke-width:1.0;"/><line style="stroke:#666666;stroke-width:1.0;stroke-dasharray:2.0,2.0;" x1="231.021" x2="762.019" y1="662.3438" y2="662.3438"/><text fill="#333333" font-family="sans-serif" font-size="13" lengthAdjust="spacing" textLength="72.522" x="243.021" y="657.6016">Handler Set</text><text fill="#333333" font-family="sans-serif" font-size="10" lengthAdjust="spacing" textLength="155.4346" x="0" y="752.5">Last Modified On: 24-Feb-2025</text><!--SRC=[fLHjYnCn4FwUNp5Kn2vSYoY8z8EWLseBzZni_q2wcRqBboObIUyynF_kJFOjkyNxe85savbdPfvvISA3jYVfvH4Eidouy-virRKppiEhrTlLnzLAX0wXi99d4rVEnWRoFgqC8hrtJutoGrf2l84bLjeY79nNw0DKf9N601eyeeqXiwUZZi_mIm1yIUYXBvAEMIxJ4hz5vgKaXjwP_tL3_r6N-YHj_3TNGkGk9hVlRc67_b6NE04PuCOfl42mC6cRlMYJcIpNUvWkTOXU7yuH5Qnbk8UzF1WiaWK1UlGFTuxQtX6-T8_ednDYBEpXQnTYWl16A1dbGGOaHaWTg_dmJZGDckpTIPT9ddP2C5UOVMffBs0NARDf6NzUGMJ8ZJnYcC_dXP1br8yoOfUYQ3PiJqaiG5iTQSFM1L1D-Nphar4hxhrmsboRMHwT1HiRehGb2eK3S1vkN945tE3JM3WbgopWHHLVTlXPqJTggkOEJIMCSwTq1OZKVLqzoY-h4SqKGEOnGJ8tTKt7SQvgN44TKdd2bsGJ0UucTC8Hdp63ovnMsgeq43MP9ZIR_JqmQyV2D37iPm5VCS89s_UXv_5IBgmVrZFbHUMifnMQbKx30M7HnbQkn_JvyXrOmBMp5ijcX5juqU6bYH3EPOaXL6V3RmwZjRCTWXUx6boBnYkg3eQ6HgCtXqfgawbVyiBmrH3ExM-__CjdipDlekqTNL9wVR9EXbvG36phckmmxg97ULnBgmpwwScxw4fdvfib6sUgGjIiyxYDYjs8V4ZRXy1W5QcNBXBccoJhhLEwqlJMVRSBU4tF4audIisss-ticTQa47y0]--></g></svg>
