<svg xmlns="http://www.w3.org/2000/svg" xmlns:xlink="http://www.w3.org/1999/xlink" contentStyleType="text/css" height="409px" preserveAspectRatio="none" style="width:998px;height:409px;background:#F0F8FF;" version="1.1" viewBox="0 0 998 409" width="998px" zoomAndPan="magnify"><defs/><g><rect fill="#F0F8FF" height="409" style="stroke:none;stroke-width:1.0;" width="998" x="0" y="0"/><rect fill="#FFFFFF" height="273.4844" style="stroke:#181818;stroke-width:1.0;" width="10" x="52.7188" y="75.7988"/><rect fill="#FFFFFF" height="34.3105" style="stroke:#181818;stroke-width:1.0;" width="10" x="57.7188" y="118.1094"/><rect fill="#FFFFFF" height="50.6211" style="stroke:#181818;stroke-width:1.0;" width="10" x="57.7188" y="282.6621"/><rect fill="#FFFFFF" height="29.3105" style="stroke:#181818;stroke-width:1.0;" width="10" x="269.436" y="253.3516"/><rect fill="#FFFFFF" height="71.6211" style="stroke:#181818;stroke-width:1.0;" width="10" x="697.8877" y="181.7305"/><line style="stroke:#181818;stroke-width:0.5;stroke-dasharray:5.0,5.0;" x1="57" x2="57" y1="36.4883" y2="358.2832"/><line style="stroke:#181818;stroke-width:0.5;stroke-dasharray:5.0,5.0;" x1="274.2646" x2="274.2646" y1="36.4883" y2="358.2832"/><line style="stroke:#181818;stroke-width:0.5;stroke-dasharray:5.0,5.0;" x1="425.7485" x2="425.7485" y1="36.4883" y2="358.2832"/><line style="stroke:#181818;stroke-width:0.5;stroke-dasharray:5.0,5.0;" x1="702.7134" x2="702.7134" y1="36.4883" y2="358.2832"/><rect fill="#DDDDDD" height="30.4883" rx="2.5" ry="2.5" style="stroke:#666666;stroke-width:0.5;" width="105.4375" x="5" y="5"/><text fill="#333333" font-family="sans-serif" font-size="14" lengthAdjust="spacing" textLength="91.4375" x="12" y="25.5352">Node (Peer 1)</text><rect fill="#DDDDDD" height="30.4883" rx="2.5" ry="2.5" style="stroke:#666666;stroke-width:0.5;" width="105.4375" x="5" y="357.2832"/><text fill="#333333" font-family="sans-serif" font-size="14" lengthAdjust="spacing" textLength="91.4375" x="12" y="377.8184">Node (Peer 1)</text><path d="M229.2646,10 L319.6074,10 C324.6074,10 324.6074,23.2441 324.6074,23.2441 C324.6074,23.2441 324.6074,36.4883 319.6074,36.4883 L229.2646,36.4883 C224.2646,36.4883 224.2646,23.2441 224.2646,23.2441 C224.2646,23.2441 224.2646,10 229.2646,10 " fill="#E2E2F0" style="stroke:#181818;stroke-width:0.5;"/><path d="M319.6074,10 C314.6074,10 314.6074,23.2441 314.6074,23.2441 C314.6074,36.4883 319.6074,36.4883 319.6074,36.4883 " fill="none" style="stroke:#181818;stroke-width:0.5;"/><text fill="#333333" font-family="sans-serif" font-size="14" lengthAdjust="spacing" textLength="80.3428" x="229.2646" y="28.5352">LibP2P Host</text><path d="M229.2646,357.2832 L319.6074,357.2832 C324.6074,357.2832 324.6074,370.5273 324.6074,370.5273 C324.6074,370.5273 324.6074,383.7715 319.6074,383.7715 L229.2646,383.7715 C224.2646,383.7715 224.2646,370.5273 224.2646,370.5273 C224.2646,370.5273 224.2646,357.2832 229.2646,357.2832 " fill="#E2E2F0" style="stroke:#181818;stroke-width:0.5;"/><path d="M319.6074,357.2832 C314.6074,357.2832 314.6074,370.5273 314.6074,370.5273 C314.6074,383.7715 319.6074,383.7715 319.6074,383.7715 " fill="none" style="stroke:#181818;stroke-width:0.5;"/><text fill="#333333" font-family="sans-serif" font-size="14" lengthAdjust="spacing" textLength="80.3428" x="229.2646" y="375.8184">LibP2P Host</text><path d="M369.7485,10 L482.5542,10 C487.5542,10 487.5542,23.2441 487.5542,23.2441 C487.5542,23.2441 487.5542,36.4883 482.5542,36.4883 L369.7485,36.4883 C364.7485,36.4883 364.7485,23.2441 364.7485,23.2441 C364.7485,23.2441 364.7485,10 369.7485,10 " fill="#E2E2F0" style="stroke:#181818;stroke-width:0.5;"/><path d="M482.5542,10 C477.5542,10 477.5542,23.2441 477.5542,23.2441 C477.5542,36.4883 482.5542,36.4883 482.5542,36.4883 " fill="none" style="stroke:#181818;stroke-width:0.5;"/><text fill="#333333" font-family="sans-serif" font-size="14" lengthAdjust="spacing" textLength="102.8057" x="369.7485" y="28.5352">PubSub System</text><path d="M369.7485,357.2832 L482.5542,357.2832 C487.5542,357.2832 487.5542,370.5273 487.5542,370.5273 C487.5542,370.5273 487.5542,383.7715 482.5542,383.7715 L369.7485,383.7715 C364.7485,383.7715 364.7485,370.5273 364.7485,370.5273 C364.7485,370.5273 364.7485,357.2832 369.7485,357.2832 " fill="#E2E2F0" style="stroke:#181818;stroke-width:0.5;"/><path d="M482.5542,357.2832 C477.5542,357.2832 477.5542,370.5273 477.5542,370.5273 C477.5542,383.7715 482.5542,383.7715 482.5542,383.7715 " fill="none" style="stroke:#181818;stroke-width:0.5;"/><text fill="#333333" font-family="sans-serif" font-size="14" lengthAdjust="spacing" textLength="102.8057" x="369.7485" y="375.8184">PubSub System</text><rect fill="#DDDDDD" height="30.4883" rx="2.5" ry="2.5" style="stroke:#666666;stroke-width:0.5;" width="56.3486" x="674.7134" y="5"/><text fill="#333333" font-family="sans-serif" font-size="14" lengthAdjust="spacing" textLength="42.3486" x="681.7134" y="25.5352">Peer 2</text><rect fill="#DDDDDD" height="30.4883" rx="2.5" ry="2.5" style="stroke:#666666;stroke-width:0.5;" width="56.3486" x="674.7134" y="357.2832"/><text fill="#333333" font-family="sans-serif" font-size="14" lengthAdjust="spacing" textLength="42.3486" x="681.7134" y="377.8184">Peer 2</text><rect fill="#FFFFFF" height="273.4844" style="stroke:#181818;stroke-width:1.0;" width="10" x="52.7188" y="75.7988"/><rect fill="#FFFFFF" height="34.3105" style="stroke:#181818;stroke-width:1.0;" width="10" x="57.7188" y="118.1094"/><rect fill="#FFFFFF" height="50.6211" style="stroke:#181818;stroke-width:1.0;" width="10" x="57.7188" y="282.6621"/><rect fill="#FFFFFF" height="29.3105" style="stroke:#181818;stroke-width:1.0;" width="10" x="269.436" y="253.3516"/><rect fill="#FFFFFF" height="71.6211" style="stroke:#181818;stroke-width:1.0;" width="10" x="697.8877" y="181.7305"/><line style="stroke:#666666;stroke-width:1.0;" x1="57.7188" x2="104.7188" y1="62.7988" y2="62.7988"/><line style="stroke:#666666;stroke-width:1.0;" x1="104.7188" x2="104.7188" y1="62.7988" y2="75.7988"/><line style="stroke:#666666;stroke-width:1.0;" x1="63.7188" x2="104.7188" y1="75.7988" y2="75.7988"/><polygon fill="#666666" points="73.7188,71.7988,63.7188,75.7988,73.7188,79.7988,69.7188,75.7988" style="stroke:#666666;stroke-width:1.0;"/><text fill="#333333" font-family="sans-serif" font-size="13" lengthAdjust="spacing" textLength="37.6797" x="69.7188" y="58.0566">Start()</text><line style="stroke:#666666;stroke-width:1.0;" x1="62.7188" x2="109.7188" y1="105.1094" y2="105.1094"/><line style="stroke:#666666;stroke-width:1.0;" x1="109.7188" x2="109.7188" y1="105.1094" y2="118.1094"/><line style="stroke:#666666;stroke-width:1.0;" x1="68.7188" x2="109.7188" y1="118.1094" y2="118.1094"/><polygon fill="#666666" points="78.7188,114.1094,68.7188,118.1094,78.7188,122.1094,74.7188,118.1094" style="stroke:#666666;stroke-width:1.0;"/><text fill="#333333" font-family="sans-serif" font-size="13" lengthAdjust="spacing" textLength="182.7173" x="74.7188" y="100.3672">s.sendBestBlockMessage(ctx)</text><polygon fill="#666666" points="414.1514,148.4199,424.1514,152.4199,414.1514,156.4199,418.1514,152.4199" style="stroke:#666666;stroke-width:1.0;"/><line style="stroke:#666666;stroke-width:1.0;" x1="62.7188" x2="420.1514" y1="152.4199" y2="152.4199"/><text fill="#333333" font-family="sans-serif" font-size="13" lengthAdjust="spacing" textLength="334.4326" x="69.7188" y="147.6777">s.topics[bestBlockTopicName].Publish(ctx, msgBytes)</text><polygon fill="#666666" points="685.8877,177.7305,695.8877,181.7305,685.8877,185.7305,689.8877,181.7305" style="stroke:#666666;stroke-width:1.0;"/><line style="stroke:#666666;stroke-width:1.0;" x1="426.1514" x2="691.8877" y1="181.7305" y2="181.7305"/><text fill="#333333" font-family="sans-serif" font-size="13" lengthAdjust="spacing" textLength="175.6777" x="433.1514" y="176.9883">s.handleBestBlockTopic(ctx)</text><line style="stroke:#666666;stroke-width:1.0;" x1="707.8877" x2="749.8877" y1="211.041" y2="211.041"/><line style="stroke:#666666;stroke-width:1.0;" x1="749.8877" x2="749.8877" y1="211.041" y2="224.041"/><line style="stroke:#666666;stroke-width:1.0;" x1="708.8877" x2="749.8877" y1="224.041" y2="224.041"/><polygon fill="#666666" points="718.8877,220.041,708.8877,224.041,718.8877,228.041,714.8877,224.041" style="stroke:#666666;stroke-width:1.0;"/><text fill="#333333" font-family="sans-serif" font-size="13" lengthAdjust="spacing" textLength="276.4087" x="714.8877" y="206.2988">s.P2PNode.SendToPeer(ctx, peer, msgBytes)</text><polygon fill="#666666" points="290.436,249.3516,280.436,253.3516,290.436,257.3516,286.436,253.3516" style="stroke:#666666;stroke-width:1.0;"/><line style="stroke:#666666;stroke-width:1.0;" x1="284.436" x2="701.8877" y1="253.3516" y2="253.3516"/><text fill="#333333" font-family="sans-serif" font-size="13" lengthAdjust="spacing" textLength="399.4517" x="296.436" y="248.6094">s.host.NewStream(ctx, peer.ID, protocol.ID(s.bitcoinProtocolId))</text><polygon fill="#666666" points="78.7188,278.6621,68.7188,282.6621,78.7188,286.6621,74.7188,282.6621" style="stroke:#666666;stroke-width:1.0;"/><line style="stroke:#666666;stroke-width:1.0;" x1="72.7188" x2="273.436" y1="282.6621" y2="282.6621"/><text fill="#333333" font-family="sans-serif" font-size="13" lengthAdjust="spacing" textLength="155.2319" x="84.7188" y="277.9199">s.streamHandler(stream)</text><line style="stroke:#666666;stroke-width:1.0;" x1="67.7188" x2="109.7188" y1="332.2832" y2="332.2832"/><line style="stroke:#666666;stroke-width:1.0;" x1="109.7188" x2="109.7188" y1="332.2832" y2="345.2832"/><line style="stroke:#666666;stroke-width:1.0;" x1="62.7188" x2="109.7188" y1="345.2832" y2="345.2832"/><polygon fill="#666666" points="72.7188,341.2832,62.7188,345.2832,72.7188,349.2832,68.7188,345.2832" style="stroke:#666666;stroke-width:1.0;"/><text fill="#333333" font-family="sans-serif" font-size="13" lengthAdjust="spacing" textLength="163.0713" x="74.7188" y="312.2305">Log the received message</text><text fill="#333333" font-family="sans-serif" font-size="13" lengthAdjust="spacing" textLength="67.1328" x="74.7188" y="327.541">(no action)</text><text fill="#333333" font-family="sans-serif" font-size="10" lengthAdjust="spacing" textLength="155.4346" x="0" y="399.4395">Last Modified On: 24-Feb-2025</text><!--SRC=[fLDDZzCm4BtxLuoA4Ab48xP82Es1GwcgNQajbRgtXOCJJrkhZgVOarqgn7zdugIbgK18C8V4y_7UlCauSM_zGGTTGQ7B_JPGxSr7SXJWnUpDxFrifkAvmk16ruvdvBahUPlieaI7GCzTybqofLx153VM8nGK38O86ybgvm0TLkWvNk35jNo4xmfWaghxN1AzLZbDfdwe2vPI50Po_qiZJxQbFMZF_qObTianM991o5Q80Mw60z0HciYD-bfZZJ2Oss8rNi4THKx9rZzbLtMnhWjO7oDZbV9jfDyYaO_Rj1p7IgKMCFhGzhg5DKjzDbIwPFka6JiDrsKnZ-ZD12DF79Nx1SQejvYL_EtFq5PGWsKws38-5YVuG-ClTOLVSYboDkuQfjTGnUtao1Y7ok0Lg-e65jvsb8PtfxrnEEdHNcdgnbRfdLITmF8n6-fyBOCzK1DkHHpaT2dbZ6mNaFhAJl8bFgyveAv-mVBxgHm2CPNanCbYNbWkoVfL5xmtmzvmdRoptorPTSllBI0rkqiZXwprUbmdx5zMEQSjy0uXO8ds2GrKxJBXiyyyGOCc_xiDEDom_At4SgVcEZ8ioDYD5OPF_XPU6YdD1iQC5el5w2Ws6AgV]--></g></svg>
