<svg xmlns="http://www.w3.org/2000/svg" xmlns:xlink="http://www.w3.org/1999/xlink" contentStyleType="text/css" height="938px" preserveAspectRatio="none" style="width:967px;height:938px;background:#F0F8FF;" version="1.1" viewBox="0 0 967 938" width="967px" zoomAndPan="magnify"><defs/><g><rect fill="#F0F8FF" height="938" style="stroke:none;stroke-width:1.0;" width="967" x="0" y="0"/><rect fill="#FFFFFF" height="58.6211" style="stroke:#181818;stroke-width:1.0;" width="10" x="277.6729" y="160.8203"/><rect fill="#FFFFFF" height="234.1289" style="stroke:#181818;stroke-width:1.0;" width="10" x="277.6729" y="321.084"/><rect fill="#FFFFFF" height="58.6211" style="stroke:#181818;stroke-width:1.0;" width="10" x="277.6729" y="655.8555"/><rect fill="#FFFFFF" height="58.6211" style="stroke:#181818;stroke-width:1.0;" width="10" x="277.6729" y="758.7422"/><rect fill="#FFFFFF" height="29.3105" style="stroke:#181818;stroke-width:1.0;" width="10" x="607.1177" y="190.1309"/><rect fill="#FFFFFF" height="29.3105" style="stroke:#181818;stroke-width:1.0;" width="10" x="725.2124" y="685.166"/><rect fill="#FFFFFF" height="29.3105" style="stroke:#181818;stroke-width:1.0;" width="10" x="725.2124" y="788.0527"/><rect fill="none" height="272.75" style="stroke:#000000;stroke-width:1.5;" width="940.3828" x="10" y="282.4629"/><rect fill="none" height="212.1289" style="stroke:#000000;stroke-width:1.5;" width="498.7813" x="20" y="336.084"/><rect fill="none" height="46.6211" style="stroke:#000000;stroke-width:1.5;" width="478.7813" x="30" y="389.7051"/><rect fill="none" height="46.6211" style="stroke:#000000;stroke-width:1.5;" width="478.7813" x="30" y="494.5918"/><rect fill="none" height="208.1289" style="stroke:#000000;stroke-width:1.5;" width="920.3828" x="30" y="617.2344"/><line style="stroke:#181818;stroke-width:0.5;stroke-dasharray:5.0,5.0;" x1="62" x2="62" y1="81.4883" y2="842.3633"/><line style="stroke:#181818;stroke-width:0.5;stroke-dasharray:5.0,5.0;" x1="281.7515" x2="281.7515" y1="81.4883" y2="842.3633"/><line style="stroke:#181818;stroke-width:0.5;stroke-dasharray:5.0,5.0;" x1="442.3799" x2="442.3799" y1="81.4883" y2="842.3633"/><line style="stroke:#181818;stroke-width:0.5;stroke-dasharray:5.0,5.0;" x1="611.54" x2="611.54" y1="81.4883" y2="842.3633"/><line style="stroke:#181818;stroke-width:0.5;stroke-dasharray:5.0,5.0;" x1="729.6953" x2="729.6953" y1="81.4883" y2="842.3633"/><line style="stroke:#181818;stroke-width:0.5;stroke-dasharray:5.0,5.0;" x1="867.7295" x2="867.7295" y1="81.4883" y2="842.3633"/><text fill="#333333" font-family="sans-serif" font-size="14" lengthAdjust="spacing" textLength="39.5049" x="40" y="78.5352">Client</text><ellipse cx="62.7524" cy="13.5" fill="#E2E2F0" rx="8" ry="8" style="stroke:#181818;stroke-width:0.5;"/><path d="M62.7524,21.5 L62.7524,48.5 M49.7524,29.5 L75.7524,29.5 M62.7524,48.5 L49.7524,63.5 M62.7524,48.5 L75.7524,63.5 " fill="none" style="stroke:#181818;stroke-width:0.5;"/><text fill="#333333" font-family="sans-serif" font-size="14" lengthAdjust="spacing" textLength="39.5049" x="40" y="854.8984">Client</text><ellipse cx="62.7524" cy="866.3516" fill="#E2E2F0" rx="8" ry="8" style="stroke:#181818;stroke-width:0.5;"/><path d="M62.7524,874.3516 L62.7524,901.3516 M49.7524,882.3516 L75.7524,882.3516 M62.7524,901.3516 L49.7524,916.3516 M62.7524,901.3516 L75.7524,916.3516 " fill="none" style="stroke:#181818;stroke-width:0.5;"/><text fill="#333333" font-family="sans-serif" font-size="14" lengthAdjust="spacing" textLength="41.8428" x="258.7515" y="78.5352">Server</text><ellipse cx="282.6729" cy="49" fill="#DDDDDD" rx="12" ry="12" style="stroke:#666666;stroke-width:0.5;"/><polygon fill="#666666" points="278.6729,37,284.6729,32,282.6729,37,284.6729,42,278.6729,37" style="stroke:#666666;stroke-width:1.0;"/><text fill="#333333" font-family="sans-serif" font-size="14" lengthAdjust="spacing" textLength="41.8428" x="258.7515" y="854.8984">Server</text><ellipse cx="282.6729" cy="873.8516" fill="#DDDDDD" rx="12" ry="12" style="stroke:#666666;stroke-width:0.5;"/><polygon fill="#666666" points="278.6729,861.8516,284.6729,856.8516,282.6729,861.8516,284.6729,866.8516,278.6729,861.8516" style="stroke:#666666;stroke-width:1.0;"/><text fill="#333333" font-family="sans-serif" font-size="14" lengthAdjust="spacing" textLength="106.4014" x="386.3799" y="78.5352">Client Channels</text><path d="M424.5806,29 C424.5806,19 442.5806,19 442.5806,19 C442.5806,19 460.5806,19 460.5806,29 L460.5806,55 C460.5806,65 442.5806,65 442.5806,65 C442.5806,65 424.5806,65 424.5806,55 L424.5806,29 " fill="#E2E2F0" style="stroke:#181818;stroke-width:1.5;"/><path d="M424.5806,29 C424.5806,39 442.5806,39 442.5806,39 C442.5806,39 460.5806,39 460.5806,29 " fill="none" style="stroke:#181818;stroke-width:1.5;"/><text fill="#333333" font-family="sans-serif" font-size="14" lengthAdjust="spacing" textLength="106.4014" x="386.3799" y="854.8984">Client Channels</text><path d="M424.5806,867.8516 C424.5806,857.8516 442.5806,857.8516 442.5806,857.8516 C442.5806,857.8516 460.5806,857.8516 460.5806,867.8516 L460.5806,893.8516 C460.5806,903.8516 442.5806,903.8516 442.5806,903.8516 C442.5806,903.8516 424.5806,903.8516 424.5806,893.8516 L424.5806,867.8516 " fill="#E2E2F0" style="stroke:#181818;stroke-width:1.5;"/><path d="M424.5806,867.8516 C424.5806,877.8516 442.5806,877.8516 442.5806,877.8516 C442.5806,877.8516 460.5806,877.8516 460.5806,867.8516 " fill="none" style="stroke:#181818;stroke-width:1.5;"/><path d="M564.54,55 L659.6953,55 C664.6953,55 664.6953,68.2441 664.6953,68.2441 C664.6953,68.2441 664.6953,81.4883 659.6953,81.4883 L564.54,81.4883 C559.54,81.4883 559.54,68.2441 559.54,68.2441 C559.54,68.2441 559.54,55 564.54,55 " fill="#E2E2F0" style="stroke:#181818;stroke-width:0.5;"/><path d="M659.6953,55 C654.6953,55 654.6953,68.2441 654.6953,68.2441 C654.6953,81.4883 659.6953,81.4883 659.6953,81.4883 " fill="none" style="stroke:#181818;stroke-width:0.5;"/><text fill="#333333" font-family="sans-serif" font-size="14" lengthAdjust="spacing" textLength="85.1553" x="564.54" y="73.5352">newClientCh</text><path d="M564.54,841.3633 L659.6953,841.3633 C664.6953,841.3633 664.6953,854.6074 664.6953,854.6074 C664.6953,854.6074 664.6953,867.8516 659.6953,867.8516 L564.54,867.8516 C559.54,867.8516 559.54,854.6074 559.54,854.6074 C559.54,854.6074 559.54,841.3633 564.54,841.3633 " fill="#E2E2F0" style="stroke:#181818;stroke-width:0.5;"/><path d="M659.6953,841.3633 C654.6953,841.3633 654.6953,854.6074 654.6953,854.6074 C654.6953,867.8516 659.6953,867.8516 659.6953,867.8516 " fill="none" style="stroke:#181818;stroke-width:0.5;"/><text fill="#333333" font-family="sans-serif" font-size="14" lengthAdjust="spacing" textLength="85.1553" x="564.54" y="859.8984">newClientCh</text><path d="M679.6953,55 L780.7295,55 C785.7295,55 785.7295,68.2441 785.7295,68.2441 C785.7295,68.2441 785.7295,81.4883 780.7295,81.4883 L679.6953,81.4883 C674.6953,81.4883 674.6953,68.2441 674.6953,68.2441 C674.6953,68.2441 674.6953,55 679.6953,55 " fill="#E2E2F0" style="stroke:#181818;stroke-width:0.5;"/><path d="M780.7295,55 C775.7295,55 775.7295,68.2441 775.7295,68.2441 C775.7295,81.4883 780.7295,81.4883 780.7295,81.4883 " fill="none" style="stroke:#181818;stroke-width:0.5;"/><text fill="#333333" font-family="sans-serif" font-size="14" lengthAdjust="spacing" textLength="91.0342" x="679.6953" y="73.5352">deadClientCh</text><path d="M679.6953,841.3633 L780.7295,841.3633 C785.7295,841.3633 785.7295,854.6074 785.7295,854.6074 C785.7295,854.6074 785.7295,867.8516 780.7295,867.8516 L679.6953,867.8516 C674.6953,867.8516 674.6953,854.6074 674.6953,854.6074 C674.6953,854.6074 674.6953,841.3633 679.6953,841.3633 " fill="#E2E2F0" style="stroke:#181818;stroke-width:0.5;"/><path d="M780.7295,841.3633 C775.7295,841.3633 775.7295,854.6074 775.7295,854.6074 C775.7295,867.8516 780.7295,867.8516 780.7295,867.8516 " fill="none" style="stroke:#181818;stroke-width:0.5;"/><text fill="#333333" font-family="sans-serif" font-size="14" lengthAdjust="spacing" textLength="91.0342" x="679.6953" y="859.8984">deadClientCh</text><text fill="#333333" font-family="sans-serif" font-size="14" lengthAdjust="spacing" textLength="138.6533" x="795.7295" y="78.5352">Notification Channel</text><ellipse cx="868.0562" cy="49" fill="#DDDDDD" rx="12" ry="12" style="stroke:#666666;stroke-width:0.5;"/><polygon fill="#666666" points="864.0562,37,870.0562,32,868.0562,37,870.0562,42,864.0562,37" style="stroke:#666666;stroke-width:1.0;"/><text fill="#333333" font-family="sans-serif" font-size="14" lengthAdjust="spacing" textLength="138.6533" x="795.7295" y="854.8984">Notification Channel</text><ellipse cx="868.0562" cy="873.8516" fill="#DDDDDD" rx="12" ry="12" style="stroke:#666666;stroke-width:0.5;"/><polygon fill="#666666" points="864.0562,861.8516,870.0562,856.8516,868.0562,861.8516,870.0562,866.8516,864.0562,861.8516" style="stroke:#666666;stroke-width:1.0;"/><rect fill="#FFFFFF" height="58.6211" style="stroke:#181818;stroke-width:1.0;" width="10" x="277.6729" y="160.8203"/><rect fill="#FFFFFF" height="234.1289" style="stroke:#181818;stroke-width:1.0;" width="10" x="277.6729" y="321.084"/><rect fill="#FFFFFF" height="58.6211" style="stroke:#181818;stroke-width:1.0;" width="10" x="277.6729" y="655.8555"/><rect fill="#FFFFFF" height="58.6211" style="stroke:#181818;stroke-width:1.0;" width="10" x="277.6729" y="758.7422"/><rect fill="#FFFFFF" height="29.3105" style="stroke:#181818;stroke-width:1.0;" width="10" x="607.1177" y="190.1309"/><rect fill="#FFFFFF" height="29.3105" style="stroke:#181818;stroke-width:1.0;" width="10" x="725.2124" y="685.166"/><rect fill="#FFFFFF" height="29.3105" style="stroke:#181818;stroke-width:1.0;" width="10" x="725.2124" y="788.0527"/><rect fill="#EEEEEE" height="3" style="stroke:#EEEEEE;stroke-width:1.0;" width="960.3828" x="0" y="114.499"/><line style="stroke:#000000;stroke-width:1.0;" x1="0" x2="960.3828" y1="114.499" y2="114.499"/><line style="stroke:#000000;stroke-width:1.0;" x1="0" x2="960.3828" y1="117.499" y2="117.499"/><rect fill="#EEEEEE" height="28.0215" style="stroke:#000000;stroke-width:2.0;" width="108.4795" x="425.9517" y="101.4883"/><text fill="#333333" font-family="sans-serif" font-size="17" font-weight="bold" lengthAdjust="spacing" textLength="94.4795" x="431.9517" y="121.9238">New Client</text><polygon fill="#666666" points="265.6729,156.8203,275.6729,160.8203,265.6729,164.8203,269.6729,160.8203" style="stroke:#666666;stroke-width:1.0;"/><line style="stroke:#666666;stroke-width:1.0;" x1="62.7524" x2="271.6729" y1="160.8203" y2="160.8203"/><text fill="#333333" font-family="sans-serif" font-size="13" lengthAdjust="spacing" textLength="195.9204" x="69.7524" y="156.0781">Request WebSocket connection</text><polygon fill="#666666" points="595.1177,186.1309,605.1177,190.1309,595.1177,194.1309,599.1177,190.1309" style="stroke:#666666;stroke-width:1.0;"/><line style="stroke:#666666;stroke-width:1.0;" x1="287.6729" x2="601.1177" y1="190.1309" y2="190.1309"/><text fill="#333333" font-family="sans-serif" font-size="13" lengthAdjust="spacing" textLength="93.2344" x="294.6729" y="185.3887">Add new client</text><polygon fill="#666666" points="453.5806,215.4414,443.5806,219.4414,453.5806,223.4414,449.5806,219.4414" style="stroke:#666666;stroke-width:1.0;"/><line style="stroke:#666666;stroke-width:1.0;" x1="447.5806" x2="611.1177" y1="219.4414" y2="219.4414"/><text fill="#333333" font-family="sans-serif" font-size="13" lengthAdjust="spacing" textLength="140.5371" x="459.5806" y="214.6992">Add to client channels</text><rect fill="#EEEEEE" height="3" style="stroke:#EEEEEE;stroke-width:1.0;" width="960.3828" x="0" y="250.4521"/><line style="stroke:#000000;stroke-width:1.0;" x1="0" x2="960.3828" y1="250.4521" y2="250.4521"/><line style="stroke:#000000;stroke-width:1.0;" x1="0" x2="960.3828" y1="253.4521" y2="253.4521"/><rect fill="#EEEEEE" height="28.0215" style="stroke:#000000;stroke-width:2.0;" width="159.6953" x="400.3438" y="237.4414"/><text fill="#333333" font-family="sans-serif" font-size="17" font-weight="bold" lengthAdjust="spacing" textLength="145.6953" x="406.3438" y="257.877">New Notification</text><path d="M10,282.4629 L84.4468,282.4629 L84.4468,289.7734 L74.4468,299.7734 L10,299.7734 L10,282.4629 " fill="#EEEEEE" style="stroke:#000000;stroke-width:1.5;"/><rect fill="none" height="272.75" style="stroke:#000000;stroke-width:1.5;" width="940.3828" x="10" y="282.4629"/><text fill="#333333" font-family="sans-serif" font-size="13" font-weight="bold" lengthAdjust="spacing" textLength="29.4468" x="25" y="296.0313">loop</text><text fill="#333333" font-family="sans-serif" font-size="11" font-weight="bold" lengthAdjust="spacing" textLength="159.3281" x="99.4468" y="295.0977">[WebSocket communication]</text><polygon fill="#666666" points="298.6729,317.084,288.6729,321.084,298.6729,325.084,294.6729,321.084" style="stroke:#666666;stroke-width:1.0;"/><line style="stroke:#666666;stroke-width:1.0;" x1="292.6729" x2="867.0562" y1="321.084" y2="321.084"/><text fill="#333333" font-family="sans-serif" font-size="13" lengthAdjust="spacing" textLength="150.6172" x="304.6729" y="316.3418">Receive WebSocket data</text><path d="M20,336.084 L82.1387,336.084 L82.1387,343.3945 L72.1387,353.3945 L20,353.3945 L20,336.084 " fill="#EEEEEE" style="stroke:#000000;stroke-width:1.5;"/><rect fill="none" height="212.1289" style="stroke:#000000;stroke-width:1.5;" width="498.7813" x="20" y="336.084"/><text fill="#333333" font-family="sans-serif" font-size="13" font-weight="bold" lengthAdjust="spacing" textLength="17.1387" x="35" y="349.6523">alt</text><text fill="#333333" font-family="sans-serif" font-size="11" font-weight="bold" lengthAdjust="spacing" textLength="153.2212" x="97.1387" y="348.7188">[Data is a new notification]</text><polygon fill="#666666" points="430.5806,370.7051,440.5806,374.7051,430.5806,378.7051,434.5806,374.7051" style="stroke:#666666;stroke-width:1.0;"/><line style="stroke:#666666;stroke-width:1.0;" x1="287.6729" x2="436.5806" y1="374.7051" y2="374.7051"/><text fill="#333333" font-family="sans-serif" font-size="13" lengthAdjust="spacing" textLength="130.9077" x="294.6729" y="369.9629">Dispatch notification</text><path d="M30,389.7051 L104.4468,389.7051 L104.4468,397.0156 L94.4468,407.0156 L30,407.0156 L30,389.7051 " fill="#EEEEEE" style="stroke:#000000;stroke-width:1.5;"/><rect fill="none" height="46.6211" style="stroke:#000000;stroke-width:1.5;" width="478.7813" x="30" y="389.7051"/><text fill="#333333" font-family="sans-serif" font-size="13" font-weight="bold" lengthAdjust="spacing" textLength="29.4468" x="45" y="403.2734">loop</text><text fill="#333333" font-family="sans-serif" font-size="11" font-weight="bold" lengthAdjust="spacing" textLength="116.7085" x="119.4468" y="402.3398">[Each client channel]</text><polygon fill="#666666" points="73.7524,424.3262,63.7524,428.3262,73.7524,432.3262,69.7524,428.3262" style="stroke:#666666;stroke-width:1.0;"/><line style="stroke:#666666;stroke-width:1.0;stroke-dasharray:2.0,2.0;" x1="67.7524" x2="441.5806" y1="428.3262" y2="428.3262"/><text fill="#333333" font-family="sans-serif" font-size="13" lengthAdjust="spacing" textLength="106.3296" x="79.7524" y="423.584">Send notification</text><line style="stroke:#000000;stroke-width:1.0;stroke-dasharray:2.0,2.0;" x1="20" x2="518.7813" y1="444.3262" y2="444.3262"/><text fill="#333333" font-family="sans-serif" font-size="11" font-weight="bold" lengthAdjust="spacing" textLength="86.7539" x="25" y="454.9609">[Data is a ping]</text><polygon fill="#666666" points="430.5806,475.5918,440.5806,479.5918,430.5806,483.5918,434.5806,479.5918" style="stroke:#666666;stroke-width:1.0;"/><line style="stroke:#666666;stroke-width:1.0;" x1="287.6729" x2="436.5806" y1="479.5918" y2="479.5918"/><text fill="#333333" font-family="sans-serif" font-size="13" lengthAdjust="spacing" textLength="87.2993" x="294.6729" y="474.8496">Dispatch ping</text><path d="M30,494.5918 L104.4468,494.5918 L104.4468,501.9023 L94.4468,511.9023 L30,511.9023 L30,494.5918 " fill="#EEEEEE" style="stroke:#000000;stroke-width:1.5;"/><rect fill="none" height="46.6211" style="stroke:#000000;stroke-width:1.5;" width="478.7813" x="30" y="494.5918"/><text fill="#333333" font-family="sans-serif" font-size="13" font-weight="bold" lengthAdjust="spacing" textLength="29.4468" x="45" y="508.1602">loop</text><text fill="#333333" font-family="sans-serif" font-size="11" font-weight="bold" lengthAdjust="spacing" textLength="116.7085" x="119.4468" y="507.2266">[Each client channel]</text><polygon fill="#666666" points="73.7524,529.2129,63.7524,533.2129,73.7524,537.2129,69.7524,533.2129" style="stroke:#666666;stroke-width:1.0;"/><line style="stroke:#666666;stroke-width:1.0;stroke-dasharray:2.0,2.0;" x1="67.7524" x2="441.5806" y1="533.2129" y2="533.2129"/><text fill="#333333" font-family="sans-serif" font-size="13" lengthAdjust="spacing" textLength="62.7212" x="79.7524" y="528.4707">Send ping</text><rect fill="#EEEEEE" height="3" style="stroke:#EEEEEE;stroke-width:1.0;" width="960.3828" x="0" y="585.2236"/><line style="stroke:#000000;stroke-width:1.0;" x1="0" x2="960.3828" y1="585.2236" y2="585.2236"/><line style="stroke:#000000;stroke-width:1.0;" x1="0" x2="960.3828" y1="588.2236" y2="588.2236"/><rect fill="#EEEEEE" height="28.0215" style="stroke:#000000;stroke-width:2.0;" width="58.2515" x="451.0657" y="572.2129"/><text fill="#333333" font-family="sans-serif" font-size="17" font-weight="bold" lengthAdjust="spacing" textLength="44.2515" x="457.0657" y="592.6484">Error</text><path d="M30,617.2344 L92.1387,617.2344 L92.1387,624.5449 L82.1387,634.5449 L30,634.5449 L30,617.2344 " fill="#EEEEEE" style="stroke:#000000;stroke-width:1.5;"/><rect fill="none" height="208.1289" style="stroke:#000000;stroke-width:1.5;" width="920.3828" x="30" y="617.2344"/><text fill="#333333" font-family="sans-serif" font-size="13" font-weight="bold" lengthAdjust="spacing" textLength="17.1387" x="45" y="630.8027">alt</text><text fill="#333333" font-family="sans-serif" font-size="11" font-weight="bold" lengthAdjust="spacing" textLength="101.1162" x="107.1387" y="629.8691">[WebSocket Error]</text><polygon fill="#666666" points="298.6729,651.8555,288.6729,655.8555,298.6729,659.8555,294.6729,655.8555" style="stroke:#666666;stroke-width:1.0;"/><line style="stroke:#666666;stroke-width:1.0;" x1="292.6729" x2="867.0562" y1="655.8555" y2="655.8555"/><text fill="#333333" font-family="sans-serif" font-size="13" lengthAdjust="spacing" textLength="77.1113" x="304.6729" y="651.1133">Report error</text><polygon fill="#666666" points="713.2124,681.166,723.2124,685.166,713.2124,689.166,717.2124,685.166" style="stroke:#666666;stroke-width:1.0;"/><line style="stroke:#666666;stroke-width:1.0;" x1="287.6729" x2="719.2124" y1="685.166" y2="685.166"/><text fill="#333333" font-family="sans-serif" font-size="13" lengthAdjust="spacing" textLength="122.2813" x="294.6729" y="680.4238">Add to dead clients</text><polygon fill="#666666" points="453.5806,710.4766,443.5806,714.4766,453.5806,718.4766,449.5806,714.4766" style="stroke:#666666;stroke-width:1.0;"/><line style="stroke:#666666;stroke-width:1.0;" x1="447.5806" x2="729.2124" y1="714.4766" y2="714.4766"/><text fill="#333333" font-family="sans-serif" font-size="13" lengthAdjust="spacing" textLength="182.1333" x="459.5806" y="709.7344">Remove from client channels</text><line style="stroke:#000000;stroke-width:1.0;stroke-dasharray:2.0,2.0;" x1="30" x2="950.3828" y1="723.4766" y2="723.4766"/><text fill="#333333" font-family="sans-serif" font-size="11" font-weight="bold" lengthAdjust="spacing" textLength="113.7222" x="35" y="734.1113">[Client Disconnects]</text><polygon fill="#666666" points="265.6729,754.7422,275.6729,758.7422,265.6729,762.7422,269.6729,758.7422" style="stroke:#666666;stroke-width:1.0;"/><line style="stroke:#666666;stroke-width:1.0;" x1="62.7524" x2="271.6729" y1="758.7422" y2="758.7422"/><text fill="#333333" font-family="sans-serif" font-size="13" lengthAdjust="spacing" textLength="108.0752" x="69.7524" y="754">Close connection</text><polygon fill="#666666" points="713.2124,784.0527,723.2124,788.0527,713.2124,792.0527,717.2124,788.0527" style="stroke:#666666;stroke-width:1.0;"/><line style="stroke:#666666;stroke-width:1.0;" x1="287.6729" x2="719.2124" y1="788.0527" y2="788.0527"/><text fill="#333333" font-family="sans-serif" font-size="13" lengthAdjust="spacing" textLength="122.2813" x="294.6729" y="783.3105">Add to dead clients</text><polygon fill="#666666" points="453.5806,813.3633,443.5806,817.3633,453.5806,821.3633,449.5806,817.3633" style="stroke:#666666;stroke-width:1.0;"/><line style="stroke:#666666;stroke-width:1.0;" x1="447.5806" x2="729.2124" y1="817.3633" y2="817.3633"/><text fill="#333333" font-family="sans-serif" font-size="13" lengthAdjust="spacing" textLength="182.1333" x="459.5806" y="812.6211">Remove from client channels</text><text fill="#333333" font-family="sans-serif" font-size="10" lengthAdjust="spacing" textLength="155.4346" x="0" y="928.5195">Last Modified On: 24-Feb-2025</text><!--SRC=[tLN1Yjim4BthAuQKqlOGA1HA2MIXTJQdPWkxXvuLQRmHaILNLh8ifV_UaIpRKkB3qhrLXqIUUVCyyqOZTqTbMkvu0tikZe_EdeoihBOEtcm_RhzijwmR4H9hVj9-QurFa4znPH3kd7rApiznCVOEDbWhWx2tJgBhe2OlrnfGOuF6TrayFIh_3ByPmBU8Bhd8Ufdb9YxsXsKiWZ9qLh-MXdwz4ghbnlyR5IqkFDaghQWoDkIrU41tHhS0ta6_PP9xlkSTmgB7GdNWng3k8cXuOBzEU2ACmQSULXsY_svw7Y0IkImmcymmPN9dlQgLu5vPCxocfymSoSxOUhqExqhrm7hDMDekRr8bAxX7Ig7py1Ft3rOSqOT-61I1AUYXpjpZK3TZ_IOGP5MiuAkKG6M2wAKRu_9Iits87rJgWxrDiI06zKYJEPhCF6Gr55h8G-LgQzkYiAOvcUIdim1pifNQ25Hdp2X2usFaPGxHfZri202g0nxbC1b_X8GrIJX9i55Toxqup4V4EcuvkKkDHa1O0nai0tF4hUXTHivpaYFkAGAph5jb7b-MQO5yPOO5rvXP-hzkUF34fj_I1UP2fuFqKvUY-MKDRgtpW2D-hgsJ2lbGZiSsZ6wgkYivYXaEdjnGgdgFZQM3LZlRNCt1XGPNh3FwX9wcKQT-fO7kcQvlW4fRWcTJ_ny94GvAVe_CNPCQQqzVEUkfjk-ShiATbOH22J_C2jxIoEFxXPJBtMwtVAQr-C3-0W00]--></g></svg>
