<svg xmlns="http://www.w3.org/2000/svg" xmlns:xlink="http://www.w3.org/1999/xlink" contentStyleType="text/css" height="746px" preserveAspectRatio="none" style="width:737px;height:746px;background:#FFFFFF;" version="1.1" viewBox="0 0 737 746" width="737px" zoomAndPan="magnify"><defs/><g><rect fill="#FFFFFF" height="512.9238" style="stroke:#181818;stroke-width:1.0;" width="10" x="184.6426" y="142.1094"/><rect fill="#FFFFFF" height="129.2422" style="stroke:#181818;stroke-width:1.0;" width="10" x="189.6426" y="259.3516"/><rect fill="#FFFFFF" height="200.8184" style="stroke:#181818;stroke-width:1.0;" width="10" x="189.6426" y="453.2148"/><rect fill="#FFFFFF" height="58.6211" style="stroke:#181818;stroke-width:1.0;" width="10" x="321.0195" y="171.4199"/><rect fill="#FFFFFF" height="171.5078" style="stroke:#181818;stroke-width:1.0;" width="10" x="321.0195" y="482.5254"/><rect fill="none" height="107.2422" style="stroke:#000000;stroke-width:1.5;" width="539.8716" x="127.3418" y="274.3516"/><rect fill="none" height="46.6211" style="stroke:#000000;stroke-width:1.5;" width="519.8716" x="137.3418" y="327.9727"/><rect fill="none" height="149.5078" style="stroke:#000000;stroke-width:1.5;" width="519.8716" x="137.3418" y="497.5254"/><line style="stroke:#181818;stroke-width:0.5;stroke-dasharray:5.0,5.0;" x1="57" x2="57" y1="67.4883" y2="664.0332"/><line style="stroke:#181818;stroke-width:0.5;stroke-dasharray:5.0,5.0;" x1="189.3418" x2="189.3418" y1="67.4883" y2="664.0332"/><line style="stroke:#181818;stroke-width:0.5;stroke-dasharray:5.0,5.0;" x1="325.8408" x2="325.8408" y1="67.4883" y2="664.0332"/><line style="stroke:#181818;stroke-width:0.5;stroke-dasharray:5.0,5.0;" x1="465.8315" x2="465.8315" y1="67.4883" y2="664.0332"/><line style="stroke:#181818;stroke-width:0.5;stroke-dasharray:5.0,5.0;" x1="581.0991" x2="581.0991" y1="67.4883" y2="664.0332"/><line style="stroke:#181818;stroke-width:0.5;stroke-dasharray:5.0,5.0;" x1="691.2134" x2="691.2134" y1="67.4883" y2="664.0332"/><rect fill="#E2E2F0" height="30.4883" rx="2.5" ry="2.5" style="stroke:#181818;stroke-width:0.5;" width="104.043" x="5" y="36"/><text fill="#000000" font-family="sans-serif" font-size="14" lengthAdjust="spacing" textLength="90.043" x="12" y="56.5352">RPC Interface</text><rect fill="#E2E2F0" height="30.4883" rx="2.5" ry="2.5" style="stroke:#181818;stroke-width:0.5;" width="104.043" x="5" y="663.0332"/><text fill="#000000" font-family="sans-serif" font-size="14" lengthAdjust="spacing" textLength="90.043" x="12" y="683.5684">RPC Interface</text><rect fill="#E2E2F0" height="30.4883" rx="2.5" ry="2.5" style="stroke:#181818;stroke-width:0.5;" width="84.6016" x="147.3418" y="36"/><text fill="#000000" font-family="sans-serif" font-size="14" lengthAdjust="spacing" textLength="70.6016" x="154.3418" y="56.5352">P2P Server</text><rect fill="#E2E2F0" height="30.4883" rx="2.5" ry="2.5" style="stroke:#181818;stroke-width:0.5;" width="84.6016" x="147.3418" y="663.0332"/><text fill="#000000" font-family="sans-serif" font-size="14" lengthAdjust="spacing" textLength="70.6016" x="154.3418" y="683.5684">P2P Server</text><text fill="#000000" font-family="sans-serif" font-size="14" lengthAdjust="spacing" textLength="48.3574" x="298.8408" y="64.5352">BanList</text><path d="M308.0195,15 C308.0195,5 326.0195,5 326.0195,5 C326.0195,5 344.0195,5 344.0195,15 L344.0195,41 C344.0195,51 326.0195,51 326.0195,51 C326.0195,51 308.0195,51 308.0195,41 L308.0195,15 " fill="#E2E2F0" style="stroke:#181818;stroke-width:1.5;"/><path d="M308.0195,15 C308.0195,25 326.0195,25 326.0195,25 C326.0195,25 344.0195,25 344.0195,15 " fill="none" style="stroke:#181818;stroke-width:1.5;"/><text fill="#000000" font-family="sans-serif" font-size="14" lengthAdjust="spacing" textLength="48.3574" x="298.8408" y="676.5684">BanList</text><path d="M308.0195,689.5215 C308.0195,679.5215 326.0195,679.5215 326.0195,679.5215 C326.0195,679.5215 344.0195,679.5215 344.0195,689.5215 L344.0195,715.5215 C344.0195,725.5215 326.0195,725.5215 326.0195,725.5215 C326.0195,725.5215 308.0195,725.5215 308.0195,715.5215 L308.0195,689.5215 " fill="#E2E2F0" style="stroke:#181818;stroke-width:1.5;"/><path d="M308.0195,689.5215 C308.0195,699.5215 326.0195,699.5215 326.0195,699.5215 C326.0195,699.5215 344.0195,699.5215 344.0195,689.5215 " fill="none" style="stroke:#181818;stroke-width:1.5;"/><path d="M431.8315,41 L501.0991,41 C506.0991,41 506.0991,54.2441 506.0991,54.2441 C506.0991,54.2441 506.0991,67.4883 501.0991,67.4883 L431.8315,67.4883 C426.8315,67.4883 426.8315,54.2441 426.8315,54.2441 C426.8315,54.2441 426.8315,41 431.8315,41 " fill="#E2E2F0" style="stroke:#181818;stroke-width:0.5;"/><path d="M501.0991,41 C496.0991,41 496.0991,54.2441 496.0991,54.2441 C496.0991,67.4883 501.0991,67.4883 501.0991,67.4883 " fill="none" style="stroke:#181818;stroke-width:0.5;"/><text fill="#000000" font-family="sans-serif" font-size="14" lengthAdjust="spacing" textLength="59.2676" x="431.8315" y="59.5352">BanChan</text><path d="M431.8315,663.0332 L501.0991,663.0332 C506.0991,663.0332 506.0991,676.2773 506.0991,676.2773 C506.0991,676.2773 506.0991,689.5215 501.0991,689.5215 L431.8315,689.5215 C426.8315,689.5215 426.8315,676.2773 426.8315,676.2773 C426.8315,676.2773 426.8315,663.0332 431.8315,663.0332 " fill="#E2E2F0" style="stroke:#181818;stroke-width:0.5;"/><path d="M501.0991,663.0332 C496.0991,663.0332 496.0991,676.2773 496.0991,676.2773 C496.0991,689.5215 501.0991,689.5215 501.0991,689.5215 " fill="none" style="stroke:#181818;stroke-width:0.5;"/><text fill="#000000" font-family="sans-serif" font-size="14" lengthAdjust="spacing" textLength="59.2676" x="431.8315" y="681.5684">BanChan</text><rect fill="#E2E2F0" height="30.4883" style="stroke:#181818;stroke-width:0.5;" width="127.1143" x="520.0991" y="32"/><rect fill="#E2E2F0" height="30.4883" style="stroke:#181818;stroke-width:0.5;" width="127.1143" x="516.0991" y="36"/><text fill="#000000" font-family="sans-serif" font-size="14" lengthAdjust="spacing" textLength="113.1143" x="523.0991" y="56.5352">Connected Peers</text><rect fill="#E2E2F0" height="30.4883" style="stroke:#181818;stroke-width:0.5;" width="127.1143" x="520.0991" y="663.0332"/><rect fill="#E2E2F0" height="30.4883" style="stroke:#181818;stroke-width:0.5;" width="127.1143" x="516.0991" y="667.0332"/><text fill="#000000" font-family="sans-serif" font-size="14" lengthAdjust="spacing" textLength="113.1143" x="523.0991" y="687.5684">Connected Peers</text><text fill="#000000" font-family="sans-serif" font-size="14" lengthAdjust="spacing" textLength="62.665" x="657.2134" y="64.5352">Database</text><path d="M673.5459,15 C673.5459,5 691.5459,5 691.5459,5 C691.5459,5 709.5459,5 709.5459,15 L709.5459,41 C709.5459,51 691.5459,51 691.5459,51 C691.5459,51 673.5459,51 673.5459,41 L673.5459,15 " fill="#E2E2F0" style="stroke:#181818;stroke-width:1.5;"/><path d="M673.5459,15 C673.5459,25 691.5459,25 691.5459,25 C691.5459,25 709.5459,25 709.5459,15 " fill="none" style="stroke:#181818;stroke-width:1.5;"/><text fill="#000000" font-family="sans-serif" font-size="14" lengthAdjust="spacing" textLength="62.665" x="657.2134" y="676.5684">Database</text><path d="M673.5459,689.5215 C673.5459,679.5215 691.5459,679.5215 691.5459,679.5215 C691.5459,679.5215 709.5459,679.5215 709.5459,689.5215 L709.5459,715.5215 C709.5459,725.5215 691.5459,725.5215 691.5459,725.5215 C691.5459,725.5215 673.5459,725.5215 673.5459,715.5215 L673.5459,689.5215 " fill="#E2E2F0" style="stroke:#181818;stroke-width:1.5;"/><path d="M673.5459,689.5215 C673.5459,699.5215 691.5459,699.5215 691.5459,699.5215 C691.5459,699.5215 709.5459,699.5215 709.5459,689.5215 " fill="none" style="stroke:#181818;stroke-width:1.5;"/><rect fill="#FFFFFF" height="512.9238" style="stroke:#181818;stroke-width:1.0;" width="10" x="184.6426" y="142.1094"/><rect fill="#FFFFFF" height="129.2422" style="stroke:#181818;stroke-width:1.0;" width="10" x="189.6426" y="259.3516"/><rect fill="#FFFFFF" height="200.8184" style="stroke:#181818;stroke-width:1.0;" width="10" x="189.6426" y="453.2148"/><rect fill="#FFFFFF" height="58.6211" style="stroke:#181818;stroke-width:1.0;" width="10" x="321.0195" y="171.4199"/><rect fill="#FFFFFF" height="171.5078" style="stroke:#181818;stroke-width:1.0;" width="10" x="321.0195" y="482.5254"/><rect fill="#EEEEEE" height="3" style="stroke:#EEEEEE;stroke-width:1.0;" width="730.8784" x="0" y="98.1436"/><line style="stroke:#000000;stroke-width:1.0;" x1="0" x2="730.8784" y1="98.1436" y2="98.1436"/><line style="stroke:#000000;stroke-width:1.0;" x1="0" x2="730.8784" y1="101.1436" y2="101.1436"/><rect fill="#EEEEEE" height="23.3105" style="stroke:#000000;stroke-width:2.0;" width="107.0059" x="311.9363" y="87.4883"/><text fill="#000000" font-family="sans-serif" font-size="13" font-weight="bold" lengthAdjust="spacing" textLength="88.7212" x="317.9363" y="104.0566">Adding a Ban</text><polygon fill="#181818" points="172.6426,138.1094,182.6426,142.1094,172.6426,146.1094,176.6426,142.1094" style="stroke:#181818;stroke-width:1.0;"/><line style="stroke:#181818;stroke-width:1.0;" x1="57.0215" x2="178.6426" y1="142.1094" y2="142.1094"/><text fill="#000000" font-family="sans-serif" font-size="13" lengthAdjust="spacing" textLength="108.6211" x="64.0215" y="137.3672">setban command</text><polygon fill="#181818" points="309.0195,167.4199,319.0195,171.4199,309.0195,175.4199,313.0195,171.4199" style="stroke:#181818;stroke-width:1.0;"/><line style="stroke:#181818;stroke-width:1.0;" x1="194.6426" x2="315.0195" y1="171.4199" y2="171.4199"/><text fill="#000000" font-family="sans-serif" font-size="13" lengthAdjust="spacing" textLength="107.377" x="201.6426" y="166.6777">Add(ip, duration)</text><polygon fill="#181818" points="679.5459,196.7305,689.5459,200.7305,679.5459,204.7305,683.5459,200.7305" style="stroke:#181818;stroke-width:1.0;"/><line style="stroke:#181818;stroke-width:1.0;" x1="331.0195" x2="685.5459" y1="200.7305" y2="200.7305"/><text fill="#000000" font-family="sans-serif" font-size="13" lengthAdjust="spacing" textLength="92.0918" x="338.0195" y="195.9883">Save ban entry</text><polygon fill="#181818" points="454.4653,226.041,464.4653,230.041,454.4653,234.041,458.4653,230.041" style="stroke:#181818;stroke-width:1.0;"/><line style="stroke:#181818;stroke-width:1.0;" x1="326.0195" x2="460.4653" y1="230.041" y2="230.041"/><text fill="#000000" font-family="sans-serif" font-size="13" lengthAdjust="spacing" textLength="111.4458" x="333.0195" y="225.2988">Publish ban event</text><polygon fill="#181818" points="210.6426,255.3516,200.6426,259.3516,210.6426,263.3516,206.6426,259.3516" style="stroke:#181818;stroke-width:1.0;"/><line style="stroke:#181818;stroke-width:1.0;" x1="204.6426" x2="465.4653" y1="259.3516" y2="259.3516"/><text fill="#000000" font-family="sans-serif" font-size="13" lengthAdjust="spacing" textLength="109.7827" x="216.6426" y="254.6094">Handle ban event</text><path d="M127.3418,274.3516 L201.7886,274.3516 L201.7886,281.6621 L191.7886,291.6621 L127.3418,291.6621 L127.3418,274.3516 " fill="#EEEEEE" style="stroke:#000000;stroke-width:1.5;"/><rect fill="none" height="107.2422" style="stroke:#000000;stroke-width:1.5;" width="539.8716" x="127.3418" y="274.3516"/><text fill="#000000" font-family="sans-serif" font-size="13" font-weight="bold" lengthAdjust="spacing" textLength="29.4468" x="142.3418" y="287.9199">loop</text><text fill="#000000" font-family="sans-serif" font-size="11" font-weight="bold" lengthAdjust="spacing" textLength="144.606" x="216.7886" y="286.9863">[for each connected peer]</text><polygon fill="#181818" points="569.6563,308.9727,579.6563,312.9727,569.6563,316.9727,573.6563,312.9727" style="stroke:#181818;stroke-width:1.0;"/><line style="stroke:#181818;stroke-width:1.0;" x1="199.6426" x2="575.6563" y1="312.9727" y2="312.9727"/><text fill="#000000" font-family="sans-serif" font-size="13" lengthAdjust="spacing" textLength="85.7061" x="206.6426" y="308.2305">Check peer IP</text><path d="M137.3418,327.9727 L199.4805,327.9727 L199.4805,335.2832 L189.4805,345.2832 L137.3418,345.2832 L137.3418,327.9727 " fill="#EEEEEE" style="stroke:#000000;stroke-width:1.5;"/><rect fill="none" height="46.6211" style="stroke:#000000;stroke-width:1.5;" width="519.8716" x="137.3418" y="327.9727"/><text fill="#000000" font-family="sans-serif" font-size="13" font-weight="bold" lengthAdjust="spacing" textLength="17.1387" x="152.3418" y="341.541">alt</text><text fill="#000000" font-family="sans-serif" font-size="11" font-weight="bold" lengthAdjust="spacing" textLength="94.1123" x="214.4805" y="340.6074">[IP matches ban]</text><polygon fill="#181818" points="569.6563,362.5938,579.6563,366.5938,569.6563,370.5938,573.6563,366.5938" style="stroke:#181818;stroke-width:1.0;"/><line style="stroke:#181818;stroke-width:1.0;" x1="199.6426" x2="575.6563" y1="366.5938" y2="366.5938"/><text fill="#000000" font-family="sans-serif" font-size="13" lengthAdjust="spacing" textLength="101.7656" x="206.6426" y="361.8516">Disconnect peer</text><rect fill="#EEEEEE" height="3" style="stroke:#EEEEEE;stroke-width:1.0;" width="730.8784" x="0" y="409.249"/><line style="stroke:#000000;stroke-width:1.0;" x1="0" x2="730.8784" y1="409.249" y2="409.249"/><line style="stroke:#000000;stroke-width:1.0;" x1="0" x2="730.8784" y1="412.249" y2="412.249"/><rect fill="#EEEEEE" height="23.3105" style="stroke:#000000;stroke-width:2.0;" width="159.9834" x="285.4475" y="398.5938"/><text fill="#000000" font-family="sans-serif" font-size="13" font-weight="bold" lengthAdjust="spacing" textLength="141.6987" x="291.4475" y="415.1621">Checking Connection</text><polygon fill="#181818" points="210.6426,449.2148,200.6426,453.2148,210.6426,457.2148,206.6426,453.2148" style="stroke:#181818;stroke-width:1.0;"/><line style="stroke:#181818;stroke-width:1.0;" x1="204.6426" x2="580.6563" y1="453.2148" y2="453.2148"/><text fill="#000000" font-family="sans-serif" font-size="13" lengthAdjust="spacing" textLength="153.772" x="216.6426" y="448.4727">New connection attempt</text><polygon fill="#181818" points="309.0195,478.5254,319.0195,482.5254,309.0195,486.5254,313.0195,482.5254" style="stroke:#181818;stroke-width:1.0;"/><line style="stroke:#181818;stroke-width:1.0;" x1="199.6426" x2="315.0195" y1="482.5254" y2="482.5254"/><text fill="#000000" font-family="sans-serif" font-size="13" lengthAdjust="spacing" textLength="76.9844" x="206.6426" y="477.7832">IsBanned(ip)</text><path d="M137.3418,497.5254 L199.4805,497.5254 L199.4805,504.8359 L189.4805,514.8359 L137.3418,514.8359 L137.3418,497.5254 " fill="#EEEEEE" style="stroke:#000000;stroke-width:1.5;"/><rect fill="none" height="149.5078" style="stroke:#000000;stroke-width:1.5;" width="519.8716" x="137.3418" y="497.5254"/><text fill="#000000" font-family="sans-serif" font-size="13" font-weight="bold" lengthAdjust="spacing" textLength="17.1387" x="152.3418" y="511.0938">alt</text><text fill="#000000" font-family="sans-serif" font-size="11" font-weight="bold" lengthAdjust="spacing" textLength="77.5317" x="214.4805" y="510.1602">[IP is banned]</text><polygon fill="#181818" points="210.6426,532.1465,200.6426,536.1465,210.6426,540.1465,206.6426,536.1465" style="stroke:#181818;stroke-width:1.0;"/><line style="stroke:#181818;stroke-width:1.0;stroke-dasharray:2.0,2.0;" x1="204.6426" x2="320.0195" y1="536.1465" y2="536.1465"/><text fill="#000000" font-family="sans-serif" font-size="13" lengthAdjust="spacing" textLength="25.4922" x="216.6426" y="531.4043">true</text><polygon fill="#181818" points="569.6563,561.457,579.6563,565.457,569.6563,569.457,573.6563,565.457" style="stroke:#181818;stroke-width:1.0;"/><line style="stroke:#181818;stroke-width:1.0;" x1="199.6426" x2="575.6563" y1="565.457" y2="565.457"/><text fill="#000000" font-family="sans-serif" font-size="13" lengthAdjust="spacing" textLength="111.6489" x="206.6426" y="560.7148">Reject connection</text><line style="stroke:#000000;stroke-width:1.0;stroke-dasharray:2.0,2.0;" x1="137.3418" x2="657.2134" y1="574.457" y2="574.457"/><text fill="#000000" font-family="sans-serif" font-size="11" font-weight="bold" lengthAdjust="spacing" textLength="86.4424" x="142.3418" y="585.0918">[IP not banned]</text><polygon fill="#181818" points="210.6426,605.7227,200.6426,609.7227,210.6426,613.7227,206.6426,609.7227" style="stroke:#181818;stroke-width:1.0;"/><line style="stroke:#181818;stroke-width:1.0;stroke-dasharray:2.0,2.0;" x1="204.6426" x2="320.0195" y1="609.7227" y2="609.7227"/><text fill="#000000" font-family="sans-serif" font-size="13" lengthAdjust="spacing" textLength="29.5864" x="216.6426" y="604.9805">false</text><polygon fill="#181818" points="569.6563,635.0332,579.6563,639.0332,569.6563,643.0332,573.6563,639.0332" style="stroke:#181818;stroke-width:1.0;"/><line style="stroke:#181818;stroke-width:1.0;" x1="199.6426" x2="575.6563" y1="639.0332" y2="639.0332"/><text fill="#000000" font-family="sans-serif" font-size="13" lengthAdjust="spacing" textLength="116.0415" x="206.6426" y="634.291">Accept connection</text><text fill="#888888" font-family="sans-serif" font-size="10" lengthAdjust="spacing" textLength="153.0469" x="0" y="736.1895">Last Modified On: 30-Jan-2025</text><!--SRC=[ZLF1Rjim3BthAmW31LfWkVHe80EQvB00pMgqNy18TAtEaJo9Jj6_7wN8YpiOM0qOfatoyJq-US30Lji17KFrt6nXxvX2Yvegm0ZoHGtpakQ-WHSAPmevVmcLGSOZHe9gW-xHHix94glV8usNrBP3DwLIhBJlUz9ilOjGRRrpya866g8GSs6EPlYx4kNaRgFKUWqFnbZt2fXGORrMISRgU-5MGoG-IaBxqmcTKIZZpiWqSRyyKaFXMoV0Mpjy0pC6JDpkhasJ9bM2rBVRrF22Pu8qXXo7ZtcsIAsX6O-zZTsbwYnroj0YRYgV2_WXj7kQzVqheVT-WDO74BnEX4vh76Hv2kIwQipxh67RaVwLyx1lSWdsB26Sa7L7CGtBdnUxTpQM8TSH9AjDzqnJOPSiolEIISLZMMfoAkFDfVwazub_Aa5cEWty5S_sKK97oRW5kuewcuL9LQRyrwGP0GuZBQ_icTwIu2ixHRsSI45rdly7swBKBkC-Q4t3PzpFQvmqB6osfvR5U2-_B3oYp3nuOrihrZ_9WRkHtuPkAsDMXyDXzI5NTVS7]--></g></svg>
