<svg contentStyleType="text/css" height="842" preserveAspectRatio="none" viewBox="0 0 1428 842" width="1428" xmlns="http://www.w3.org/2000/svg" zoomAndPan="magnify"><g stroke="#181818"><path d="m43 106.7988h10v643.9688h-10z" fill="#fff"/><path d="m48 234.7305h10v170.2422h-10z" fill="#fff"/><path d="m48 449.2832h10v285.4844h-10z" fill="#fff"/><g stroke-width=".5"><path d="m48 67.4883v692.2793" stroke-dasharray="5 5"/><path d="m326.5 67.4883v692.2793" stroke-dasharray="5 5"/><path d="m435.5 67.4883v692.2793" stroke-dasharray="5 5"/><path d="m586.5 67.4883v692.2793" stroke-dasharray="5 5"/><path d="m732.5 67.4883v692.2793" stroke-dasharray="5 5"/><path d="m870.5 67.4883v692.2793" stroke-dasharray="5 5"/><path d="m1014.5 67.4883v692.2793" stroke-dasharray="5 5"/><path d="m1174.5 67.4883v692.2793" stroke-dasharray="5 5"/><path d="m1347.5 67.4883v692.2793" stroke-dasharray="5 5"/><rect fill="#e2e2f0" height="30.4883" rx="2.5" width="86" x="5" y="36"/></g></g><text font-family="sans-serif" font-size="14" lengthAdjust="spacing" textLength="72" x="12" y="56.5352">P2P Server</text><rect fill="#e2e2f0" height="30.4883" rx="2.5" stroke="#181818" stroke-width=".5" width="86" x="5" y="758.7676"/><text font-family="sans-serif" font-size="14" lengthAdjust="spacing" textLength="72" x="12" y="779.3027">P2P Server</text><rect fill="#e2e2f0" height="30.4883" rx="2.5" stroke="#181818" stroke-width=".5" width="75" x="289.5" y="36"/><text font-family="sans-serif" font-size="14" lengthAdjust="spacing" textLength="61" x="296.5" y="56.5352">P2PNode</text><rect fill="#e2e2f0" height="30.4883" rx="2.5" stroke="#181818" stroke-width=".5" width="75" x="289.5" y="758.7676"/><text font-family="sans-serif" font-size="14" lengthAdjust="spacing" textLength="61" x="296.5" y="779.3027">P2PNode</text><text font-family="sans-serif" font-size="14" lengthAdjust="spacing" textLength="117" x="374.5" y="64.5352">Blockchain Client</text><path d="m418 15c0-10 18-10 18-10s18 0 18 10v26c0 10-18 10-18 10s-18 0-18-10z" fill="#e2e2f0" stroke="#181818" stroke-width="1.5"/><path d="m418 15c0 10 18 10 18 10s18 0 18-10" fill="none" stroke="#181818" stroke-width="1.5"/><text font-family="sans-serif" font-size="14" lengthAdjust="spacing" textLength="117" x="374.5" y="772.3027">Blockchain Client</text><path d="m418 785.2559c0-10 18-10 18-10s18 0 18 10v26c0 10-18 10-18 10s-18 0-18-10z" fill="#e2e2f0" stroke="#181818" stroke-width="1.5"/><path d="m418 785.2559c0 10 18 10 18 10s18 0 18-10" fill="none" stroke="#181818" stroke-width="1.5"/><text font-family="sans-serif" font-size="14" lengthAdjust="spacing" textLength="153" x="507.5" y="64.5352">Block Validation Client</text><path d="m569 15c0-10 18-10 18-10s18 0 18 10v26c0 10-18 10-18 10s-18 0-18-10z" fill="#e2e2f0" stroke="#181818" stroke-width="1.5"/><path d="m569 15c0 10 18 10 18 10s18 0 18-10" fill="none" stroke="#181818" stroke-width="1.5"/><text font-family="sans-serif" font-size="14" lengthAdjust="spacing" textLength="153" x="507.5" y="772.3027">Block Validation Client</text><path d="m569 785.2559c0-10 18-10 18-10s18 0 18 10v26c0 10-18 10-18 10s-18 0-18-10z" fill="#e2e2f0" stroke="#181818" stroke-width="1.5"/><path d="m569 785.2559c0 10 18 10 18 10s18 0 18-10" fill="none" stroke="#181818" stroke-width="1.5"/><text font-family="sans-serif" font-size="14" lengthAdjust="spacing" textLength="106" x="676.5" y="64.5352">Validator Client</text><path d="m714.5 15c0-10 18-10 18-10s18 0 18 10v26c0 10-18 10-18 10s-18 0-18-10z" fill="#e2e2f0" stroke="#181818" stroke-width="1.5"/><path d="m714.5 15c0 10 18 10 18 10s18 0 18-10" fill="none" stroke="#181818" stroke-width="1.5"/><text font-family="sans-serif" font-size="14" lengthAdjust="spacing" textLength="106" x="676.5" y="772.3027">Validator Client</text><path d="m714.5 785.2559c0-10 18-10 18-10s18 0 18 10v26c0 10-18 10-18 10s-18 0-18-10z" fill="#e2e2f0" stroke="#181818" stroke-width="1.5"/><path d="m714.5 785.2559c0 10 18 10 18 10s18 0 18-10" fill="none" stroke="#181818" stroke-width="1.5"/><rect fill="#e2e2f0" height="30.4883" rx="2.5" stroke="#181818" stroke-width=".5" width="144" x="798.5" y="36"/><text font-family="sans-serif" font-size="14" lengthAdjust="spacing" textLength="130" x="805.5" y="56.5352">Echo (HTTP Server)</text><rect fill="#e2e2f0" height="30.4883" rx="2.5" stroke="#181818" stroke-width=".5" width="144" x="798.5" y="758.7676"/><text font-family="sans-serif" font-size="14" lengthAdjust="spacing" textLength="130" x="805.5" y="779.3027">Echo (HTTP Server)</text><path d="m957.5 41h114c5 0 5 13.2441 5 13.2441s0 13.2442-5 13.2442h-114c-5 0-5-13.2442-5-13.2442s0-13.2441 5-13.2441" fill="#e2e2f0" stroke="#181818" stroke-width=".5"/><path d="m1071.5 41c-5 0-5 13.2441-5 13.2441 0 13.2442 5 13.2442 5 13.2442" fill="none" stroke="#181818" stroke-width=".5"/><text font-family="sans-serif" font-size="14" lengthAdjust="spacing" textLength="104" x="957.5" y="59.5352">PubSub System</text><path d="m957.5 758.7676h114c5 0 5 13.2441 5 13.2441s0 13.2442-5 13.2442h-114c-5 0-5-13.2442-5-13.2442s0-13.2441 5-13.2441" fill="#e2e2f0" stroke="#181818" stroke-width=".5"/><path d="m1071.5 758.7676c-5 0-5 13.2441-5 13.2441 0 13.2442 5 13.2442 5 13.2442" fill="none" stroke="#181818" stroke-width=".5"/><text font-family="sans-serif" font-size="14" lengthAdjust="spacing" textLength="104" x="957.5" y="777.3027">PubSub System</text><path d="m1091.5 41h167c5 0 5 13.2441 5 13.2441s0 13.2442-5 13.2442h-167c-5 0-5-13.2442-5-13.2442s0-13.2441 5-13.2441" fill="#e2e2f0" stroke="#181818" stroke-width=".5"/><path d="m1258.5 41c-5 0-5 13.2441-5 13.2441 0 13.2442 5 13.2442 5 13.2442" fill="none" stroke="#181818" stroke-width=".5"/><text font-family="sans-serif" font-size="14" lengthAdjust="spacing" textLength="157" x="1091.5" y="59.5352">Connect to Static Peers</text><path d="m1091.5 758.7676h167c5 0 5 13.2441 5 13.2441s0 13.2442-5 13.2442h-167c-5 0-5-13.2442-5-13.2442s0-13.2441 5-13.2441" fill="#e2e2f0" stroke="#181818" stroke-width=".5"/><path d="m1258.5 758.7676c-5 0-5 13.2441-5 13.2441 0 13.2442 5 13.2442 5 13.2442" fill="none" stroke="#181818" stroke-width=".5"/><text font-family="sans-serif" font-size="14" lengthAdjust="spacing" textLength="157" x="1091.5" y="777.3027">Connect to Static Peers</text><path d="m1278.5 41h138c5 0 5 13.2441 5 13.2441s0 13.2442-5 13.2442h-138c-5 0-5-13.2442-5-13.2442s0-13.2441 5-13.2441" fill="#e2e2f0" stroke="#181818" stroke-width=".5"/><path d="m1416.5 41c-5 0-5 13.2441-5 13.2441 0 13.2442 5 13.2442 5 13.2442" fill="none" stroke="#181818" stroke-width=".5"/><text font-family="sans-serif" font-size="14" lengthAdjust="spacing" textLength="128" x="1278.5" y="59.5352">Set Topic Handlers</text><path d="m1278.5 758.7676h138c5 0 5 13.2441 5 13.2441s0 13.2442-5 13.2442h-138c-5 0-5-13.2442-5-13.2442s0-13.2441 5-13.2441" fill="#e2e2f0" stroke="#181818" stroke-width=".5"/><path d="m1416.5 758.7676c-5 0-5 13.2441-5 13.2441 0 13.2442 5 13.2442 5 13.2442" fill="none" stroke="#181818" stroke-width=".5"/><text font-family="sans-serif" font-size="14" lengthAdjust="spacing" textLength="128" x="1278.5" y="777.3027">Set Topic Handlers</text><g stroke="#181818"><path d="m43 106.7988h10v643.9688h-10z" fill="#fff"/><path d="m48 234.7305h10v170.2422h-10z" fill="#fff"/><path d="m48 449.2832h10v285.4844h-10z" fill="#fff"/><path d="m48 93.7988h47"/><path d="m95 93.7988v13"/><path d="m54 106.7988h41"/><path d="m64 102.7988-10 4 10 4-4-4z" fill="#181818"/></g><text font-family="sans-serif" font-size="13" lengthAdjust="spacing" textLength="65" x="60" y="89.0566">NewServer</text><path d="m315 137.1094 10 4-10 4 4-4z" fill="#181818" stroke="#181818"/><path d="m53 141.1094h268" stroke="#181818"/><text font-family="sans-serif" font-size="13" lengthAdjust="spacing" textLength="106" x="60" y="136.3672">Creates P2PNode</text><path d="m64 151.1094-10 4 10 4-4-4z" fill="#181818" stroke="#181818"/><path d="m58 155.1094h268" stroke="#181818" stroke-dasharray="2 2"/><path d="m53 184.4199h42" stroke="#181818"/><path d="m95 184.4199v13" stroke="#181818"/><path d="m54 197.4199h41" stroke="#181818"/><path d="m64 193.4199-10 4 10 4-4-4z" fill="#181818" stroke="#181818"/><text font-family="sans-serif" font-size="13" lengthAdjust="spacing" textLength="232" x="60" y="179.6777">Sets up topics &amp; notification channel</text><path d="m53 221.7305h47" stroke="#181818"/><path d="m100 221.7305v13" stroke="#181818"/><path d="m59 234.7305h41" stroke="#181818"/><path d="m69 230.7305-10 4 10 4-4-4z" fill="#181818" stroke="#181818"/><text font-family="sans-serif" font-size="13" lengthAdjust="spacing" textLength="56" x="65" y="216.9883">Calls Init</text><path d="m424 265.041 10 4-10 4 4-4z" fill="#181818" stroke="#181818"/><path d="m58 269.041h372" stroke="#181818"/><text font-family="sans-serif" font-size="13" lengthAdjust="spacing" textLength="153" x="65" y="264.2988">Create Blockchain Client</text><path d="m69 279.041-10 4 10 4-4-4z" fill="#181818" stroke="#181818"/><path d="m63 283.041h372" stroke="#181818" stroke-dasharray="2 2"/><path d="m575 308.3516 10 4-10 4 4-4z" fill="#181818" stroke="#181818"/><path d="m58 312.3516h523" stroke="#181818"/><text font-family="sans-serif" font-size="13" lengthAdjust="spacing" textLength="182" x="65" y="307.6094">Create BlockValidation Client</text><path d="m69 322.3516-10 4 10 4-4-4z" fill="#181818" stroke="#181818"/><path d="m63 326.3516h523" stroke="#181818" stroke-dasharray="2 2"/><path d="m720.5 351.6621 10 4-10 4 4-4z" fill="#181818" stroke="#181818"/><path d="m58 355.6621h668.5" stroke="#181818"/><text font-family="sans-serif" font-size="13" lengthAdjust="spacing" textLength="141" x="65" y="350.9199">Create Validator Client</text><path d="m69 365.6621-10 4 10 4-4-4z" fill="#181818" stroke="#181818"/><path d="m63 369.6621h668.5" stroke="#181818" stroke-dasharray="2 2"/><path d="m58 403.9727h42" stroke="#181818"/><path d="m100 403.9727v13" stroke="#181818"/><path d="m53 416.9727h47" stroke="#181818"/><path d="m63 412.9727-10 4 10 4-4-4z" fill="#181818" stroke="#181818"/><text font-family="sans-serif" font-size="13" lengthAdjust="spacing" textLength="196" x="65" y="399.2305">Sets HTTP Address from config</text><path d="m53 436.2832h47" stroke="#181818"/><path d="m100 436.2832v13" stroke="#181818"/><path d="m59 449.2832h41" stroke="#181818"/><path d="m69 445.2832-10 4 10 4-4-4z" fill="#181818" stroke="#181818"/><text font-family="sans-serif" font-size="13" lengthAdjust="spacing" textLength="64" x="65" y="431.541">Calls Start</text><path d="m858.5 479.5938 10 4-10 4 4-4z" fill="#181818" stroke="#181818"/><path d="m58 483.5938h806.5" stroke="#181818"/><text font-family="sans-serif" font-size="13" lengthAdjust="spacing" textLength="245" x="65" y="478.8516">Setup Echo Server (Middleware, Routes)</text><path d="m69 493.5938-10 4 10 4-4-4z" fill="#181818" stroke="#181818"/><path d="m63 497.5938h806.5" stroke="#181818" stroke-dasharray="2 2"/><path d="m58 526.9043h42" stroke="#181818"/><path d="m100 526.9043v13" stroke="#181818"/><path d="m59 539.9043h41" stroke="#181818"/><path d="m69 535.9043-10 4 10 4-4-4z" fill="#181818" stroke="#181818"/><text font-family="sans-serif" font-size="13" lengthAdjust="spacing" textLength="220" x="65" y="522.1621">Start P2PNode (Join PubSub Topics)</text><path d="m1163 565.2148 10 4-10 4 4-4z" fill="#181818" stroke="#181818"/><path d="m58 569.2148h1111" stroke="#181818"/><text font-family="sans-serif" font-size="13" lengthAdjust="spacing" textLength="145" x="65" y="564.4727">Connect to Static Peers</text><path d="m69 579.2148-10 4 10 4-4-4z" fill="#181818" stroke="#181818"/><path d="m63 583.2148h1111" stroke="#181818" stroke-dasharray="2 2"/><path d="m1335.5 608.5254 10 4-10 4 4-4z" fill="#181818" stroke="#181818"/><path d="m58 612.5254h1283.5" stroke="#181818"/><text font-family="sans-serif" font-size="13" lengthAdjust="spacing" textLength="191" x="65" y="607.7832">Set Topic Handlers (Subscribe)</text><path d="m69 622.5254-10 4 10 4-4-4z" fill="#181818" stroke="#181818"/><path d="m63 626.5254h1283.5" stroke="#181818" stroke-dasharray="2 2"/><path d="m58 671.1465h42" stroke="#181818"/><path d="m100 671.1465v13" stroke="#181818"/><path d="m59 684.1465h41" stroke="#181818"/><path d="m69 680.1465-10 4 10 4-4-4z" fill="#181818" stroke="#181818"/><text font-family="sans-serif" font-size="13" lengthAdjust="spacing" textLength="246" x="65" y="651.0938">Start blockchain and validator listeners</text><text font-family="sans-serif" font-size="13" lengthAdjust="spacing" textLength="77" x="69" y="666.4043">(Goroutines)</text><path d="m58 733.7676h42" stroke="#181818"/><path d="m100 733.7676v13" stroke="#181818"/><path d="m53 746.7676h47" stroke="#181818"/><path d="m63 742.7676-10 4 10 4-4-4z" fill="#181818" stroke="#181818"/><text font-family="sans-serif" font-size="13" lengthAdjust="spacing" textLength="115" x="65" y="713.7148">Starts HTTP server</text><text font-family="sans-serif" font-size="13" lengthAdjust="spacing" textLength="70" x="69" y="729.0254">(Goroutine)</text><text fill="#888" font-family="sans-serif" font-size="10" lengthAdjust="spacing" textLength="150" y="831.9238">Last Modified On: 6-Mar-2024</text></svg>
