<svg xmlns="http://www.w3.org/2000/svg" xmlns:xlink="http://www.w3.org/1999/xlink" contentStyleType="text/css" height="397px" preserveAspectRatio="none" style="width:571px;height:397px;background:#FFFFFF;" version="1.1" viewBox="0 0 571 397" width="571px" zoomAndPan="magnify"><defs/><g><rect fill="#FFFFFF" height="268.0605" style="stroke:#181818;stroke-width:1.0;" width="10" x="209.1313" y="67.7988"/><rect fill="#FFFFFF" height="127.1973" style="stroke:#181818;stroke-width:1.0;" width="10" x="392.4048" y="97.1094"/><rect fill="none" height="216.75" style="stroke:#000000;stroke-width:1.5;" width="554.3892" x="10" y="112.1094"/><line style="stroke:#181818;stroke-width:0.5;stroke-dasharray:5.0,5.0;" x1="46" x2="46" y1="36.4883" y2="345.8594"/><line style="stroke:#181818;stroke-width:0.5;stroke-dasharray:5.0,5.0;" x1="213.8564" x2="213.8564" y1="36.4883" y2="345.8594"/><line style="stroke:#181818;stroke-width:0.5;stroke-dasharray:5.0,5.0;" x1="396.7085" x2="396.7085" y1="36.4883" y2="345.8594"/><rect fill="#E2E2F0" height="30.4883" rx="2.5" ry="2.5" style="stroke:#181818;stroke-width:0.5;" width="53.5049" x="20" y="5"/><text fill="#000000" font-family="sans-serif" font-size="14" lengthAdjust="spacing" textLength="39.5049" x="27" y="25.5352">Client</text><rect fill="#E2E2F0" height="30.4883" rx="2.5" ry="2.5" style="stroke:#181818;stroke-width:0.5;" width="53.5049" x="20" y="344.8594"/><text fill="#000000" font-family="sans-serif" font-size="14" lengthAdjust="spacing" textLength="39.5049" x="27" y="365.3945">Client</text><rect fill="#E2E2F0" height="30.4883" rx="2.5" ry="2.5" style="stroke:#181818;stroke-width:0.5;" width="86.5498" x="170.8564" y="5"/><text fill="#000000" font-family="sans-serif" font-size="14" lengthAdjust="spacing" textLength="72.5498" x="177.8564" y="25.5352">RPC Server</text><rect fill="#E2E2F0" height="30.4883" rx="2.5" ry="2.5" style="stroke:#181818;stroke-width:0.5;" width="86.5498" x="170.8564" y="344.8594"/><text fill="#000000" font-family="sans-serif" font-size="14" lengthAdjust="spacing" textLength="72.5498" x="177.8564" y="365.3945">RPC Server</text><rect fill="#E2E2F0" height="30.4883" rx="2.5" ry="2.5" style="stroke:#181818;stroke-width:0.5;" width="163.3926" x="315.7085" y="5"/><text fill="#000000" font-family="sans-serif" font-size="14" lengthAdjust="spacing" textLength="149.3926" x="322.7085" y="25.5352">Block Assembly Client</text><rect fill="#E2E2F0" height="30.4883" rx="2.5" ry="2.5" style="stroke:#181818;stroke-width:0.5;" width="163.3926" x="315.7085" y="344.8594"/><text fill="#000000" font-family="sans-serif" font-size="14" lengthAdjust="spacing" textLength="149.3926" x="322.7085" y="365.3945">Block Assembly Client</text><rect fill="#FFFFFF" height="268.0605" style="stroke:#181818;stroke-width:1.0;" width="10" x="209.1313" y="67.7988"/><rect fill="#FFFFFF" height="127.1973" style="stroke:#181818;stroke-width:1.0;" width="10" x="392.4048" y="97.1094"/><polygon fill="#181818" points="197.1313,63.7988,207.1313,67.7988,197.1313,71.7988,201.1313,67.7988" style="stroke:#181818;stroke-width:1.0;"/><line style="stroke:#181818;stroke-width:1.0;" x1="46.7524" x2="203.1313" y1="67.7988" y2="67.7988"/><text fill="#000000" font-family="sans-serif" font-size="13" lengthAdjust="spacing" textLength="116.2192" x="53.7524" y="63.0566">GetDifficultyCmd()</text><polygon fill="#181818" points="380.4048,93.1094,390.4048,97.1094,380.4048,101.1094,384.4048,97.1094" style="stroke:#181818;stroke-width:1.0;"/><line style="stroke:#181818;stroke-width:1.0;" x1="219.1313" x2="386.4048" y1="97.1094" y2="97.1094"/><text fill="#000000" font-family="sans-serif" font-size="13" lengthAdjust="spacing" textLength="154.2734" x="226.1313" y="92.3672">GetCurrentDifficulty(ctx)</text><path d="M10,112.1094 L72.1387,112.1094 L72.1387,119.4199 L62.1387,129.4199 L10,129.4199 L10,112.1094 " fill="#EEEEEE" style="stroke:#000000;stroke-width:1.5;"/><rect fill="none" height="216.75" style="stroke:#000000;stroke-width:1.5;" width="554.3892" x="10" y="112.1094"/><text fill="#000000" font-family="sans-serif" font-size="13" font-weight="bold" lengthAdjust="spacing" textLength="17.1387" x="25" y="125.6777">alt</text><text fill="#000000" font-family="sans-serif" font-size="11" font-weight="bold" lengthAdjust="spacing" textLength="144.1709" x="87.1387" y="124.7441">[Difficulty Retrieval Fails]</text><polygon fill="#181818" points="230.1313,146.7305,220.1313,150.7305,230.1313,154.7305,226.1313,150.7305" style="stroke:#181818;stroke-width:1.0;"/><line style="stroke:#181818;stroke-width:1.0;stroke-dasharray:2.0,2.0;" x1="224.1313" x2="391.4048" y1="150.7305" y2="150.7305"/><text fill="#000000" font-family="sans-serif" font-size="13" lengthAdjust="spacing" textLength="77.0796" x="236.1313" y="145.9883">Return error</text><polygon fill="#181818" points="57.7524,176.041,47.7524,180.041,57.7524,184.041,53.7524,180.041" style="stroke:#181818;stroke-width:1.0;"/><line style="stroke:#181818;stroke-width:1.0;" x1="51.7524" x2="208.1313" y1="180.041" y2="180.041"/><text fill="#000000" font-family="sans-serif" font-size="13" lengthAdjust="spacing" textLength="77.0796" x="63.7524" y="175.2988">Return error</text><line style="stroke:#000000;stroke-width:1.0;stroke-dasharray:2.0,2.0;" x1="10" x2="564.3892" y1="189.041" y2="189.041"/><text fill="#000000" font-family="sans-serif" font-size="11" font-weight="bold" lengthAdjust="spacing" textLength="169.6299" x="15" y="199.6758">[Difficulty Retrieval Succeeds]</text><polygon fill="#181818" points="230.1313,220.3066,220.1313,224.3066,230.1313,228.3066,226.1313,224.3066" style="stroke:#181818;stroke-width:1.0;"/><line style="stroke:#181818;stroke-width:1.0;stroke-dasharray:2.0,2.0;" x1="224.1313" x2="396.4048" y1="224.3066" y2="224.3066"/><text fill="#000000" font-family="sans-serif" font-size="13" lengthAdjust="spacing" textLength="101.2896" x="236.1313" y="219.5645">Return difficulty</text><polygon fill="#181818" points="57.7524,283.2383,47.7524,287.2383,57.7524,291.2383,53.7524,287.2383" style="stroke:#181818;stroke-width:1.0;"/><line style="stroke:#181818;stroke-width:1.0;" x1="51.7524" x2="208.1313" y1="287.2383" y2="287.2383"/><text fill="#000000" font-family="sans-serif" font-size="13" lengthAdjust="spacing" textLength="138.3789" x="63.7524" y="282.4961">Return difficulty value</text><path d="M224,237.3066 L224,323.3066 L554,323.3066 L554,247.3066 L544,237.3066 L224,237.3066 " fill="#FEFFDD" style="stroke:#181818;stroke-width:0.5;"/><path d="M544,237.3066 L544,247.3066 L554,247.3066 L544,237.3066 " fill="#FEFFDD" style="stroke:#181818;stroke-width:0.5;"/><text fill="#000000" font-family="sans-serif" font-size="13" lengthAdjust="spacing" textLength="102.7686" x="230" y="254.875">Response fields:</text><text fill="#000000" font-family="sans-serif" font-size="13" lengthAdjust="spacing" textLength="293.3442" x="230" y="270.1855">- difficulty: Float64 value representing current</text><text fill="#000000" font-family="sans-serif" font-size="13" lengthAdjust="spacing" textLength="301.0313" x="238.2266" y="285.4961">network difficulty as a multiple of the minimum</text><text fill="#000000" font-family="sans-serif" font-size="13" lengthAdjust="spacing" textLength="55.396" x="238.2266" y="300.8066">difficulty</text><text fill="#000000" font-family="sans-serif" font-size="13" lengthAdjust="spacing" textLength="197.3804" x="230" y="316.1172">Example: 157543.3661989932</text><text fill="#888888" font-family="sans-serif" font-size="10" lengthAdjust="spacing" textLength="153.0469" x="0" y="387.0156">Last Modified On: 30-Jan-2025</text><!--SRC=[ZLBDJW8n4BxtAIQRcC1XJP0VPGyckeeNDnfuWjhEGaEttRHTXBTtw28iH8rpQllzpRIjkGjAg9gR0BbMQ0AhEqV9_3s71ReDkWIu1zgUuu_QYZKyU8_LXzuTB28r8jy0Ooq2wVtU0p9umV2aobA9HeTTNibUdt4Hr8O7Z2cCxNb4F_DfXNdZ79cTz3qHjXtzHJJN0KvSc6Dm2ZTSmumhxHbGdOUanow9spW3w9nraNXewZ3D1G6rnv-J5eqGYF9VOV9e4DaIVvlhZtvE7a3n3KQkiUJXr78LuZRAqTVMKDUbGYrzTWJIZaK6Csrvc8nQBt1OE_IKfymIHFiMHo75OFYqRjtjWRu3XugMgjO8jeImGgYKKLLJTPGNa-_hUSihqcGm6D-EHyFhuMGocDvDfyERI44ZurYC5enrhYf-8OrbWD8Ixk2L-m25fGY54jvC1bUIYBr4ohGeYdH7bVI_0000]--></g></svg>
