<svg xmlns="http://www.w3.org/2000/svg" xmlns:xlink="http://www.w3.org/1999/xlink" contentStyleType="text/css" height="752px" preserveAspectRatio="none" style="width:623px;height:752px;background:#F0F8FF;" version="1.1" viewBox="0 0 623 752" width="623px" zoomAndPan="magnify"><defs/><g><rect fill="#F0F8FF" height="752" style="stroke:none;stroke-width:1.0;" width="623" x="0" y="0"/><rect fill="#FFFFFF" height="623.6289" style="stroke:#181818;stroke-width:1.0;" width="10" x="230.521" y="67.7988"/><rect fill="#FFFFFF" height="416.1895" style="stroke:#181818;stroke-width:1.0;" width="10" x="448.1606" y="268.2383"/><rect fill="none" height="535.6973" style="stroke:#000000;stroke-width:1.5;" width="515.1377" x="10" y="148.7305"/><rect fill="none" height="394.1895" style="stroke:#000000;stroke-width:1.5;" width="495.1377" x="20" y="283.2383"/><line style="stroke:#181818;stroke-width:0.5;stroke-dasharray:5.0,5.0;" x1="56" x2="56" y1="36.4883" y2="701.4277"/><line style="stroke:#181818;stroke-width:0.5;stroke-dasharray:5.0,5.0;" x1="235.2461" x2="235.2461" y1="36.4883" y2="701.4277"/><line style="stroke:#181818;stroke-width:0.5;stroke-dasharray:5.0,5.0;" x1="452.1836" x2="452.1836" y1="36.4883" y2="701.4277"/><rect fill="#DDDDDD" height="30.4883" rx="2.5" ry="2.5" style="stroke:#666666;stroke-width:0.5;" width="53.5049" x="30" y="5"/><text fill="#333333" font-family="sans-serif" font-size="14" lengthAdjust="spacing" textLength="39.5049" x="37" y="25.5352">Client</text><rect fill="#DDDDDD" height="30.4883" rx="2.5" ry="2.5" style="stroke:#666666;stroke-width:0.5;" width="53.5049" x="30" y="700.4277"/><text fill="#333333" font-family="sans-serif" font-size="14" lengthAdjust="spacing" textLength="39.5049" x="37" y="720.9629">Client</text><rect fill="#DDDDDD" height="30.4883" rx="2.5" ry="2.5" style="stroke:#666666;stroke-width:0.5;" width="86.5498" x="192.2461" y="5"/><text fill="#333333" font-family="sans-serif" font-size="14" lengthAdjust="spacing" textLength="72.5498" x="199.2461" y="25.5352">RPC Server</text><rect fill="#DDDDDD" height="30.4883" rx="2.5" ry="2.5" style="stroke:#666666;stroke-width:0.5;" width="86.5498" x="192.2461" y="700.4277"/><text fill="#333333" font-family="sans-serif" font-size="14" lengthAdjust="spacing" textLength="72.5498" x="199.2461" y="720.9629">RPC Server</text><rect fill="#DDDDDD" height="30.4883" rx="2.5" ry="2.5" style="stroke:#666666;stroke-width:0.5;" width="103.9541" x="401.1836" y="5"/><text fill="#333333" font-family="sans-serif" font-size="14" lengthAdjust="spacing" textLength="89.9541" x="408.1836" y="25.5352">UTXO Service</text><rect fill="#DDDDDD" height="30.4883" rx="2.5" ry="2.5" style="stroke:#666666;stroke-width:0.5;" width="103.9541" x="401.1836" y="700.4277"/><text fill="#333333" font-family="sans-serif" font-size="14" lengthAdjust="spacing" textLength="89.9541" x="408.1836" y="720.9629">UTXO Service</text><rect fill="#FFFFFF" height="623.6289" style="stroke:#181818;stroke-width:1.0;" width="10" x="230.521" y="67.7988"/><rect fill="#FFFFFF" height="416.1895" style="stroke:#181818;stroke-width:1.0;" width="10" x="448.1606" y="268.2383"/><polygon fill="#666666" points="218.521,63.7988,228.521,67.7988,218.521,71.7988,222.521,67.7988" style="stroke:#666666;stroke-width:1.0;"/><line style="stroke:#666666;stroke-width:1.0;" x1="56.7524" x2="224.521" y1="67.7988" y2="67.7988"/><text fill="#333333" font-family="sans-serif" font-size="13" lengthAdjust="spacing" textLength="154.7686" x="63.7524" y="63.0566">UnfreezeCmd(txid, vout)</text><line style="stroke:#666666;stroke-width:1.0;" x1="240.521" x2="282.521" y1="108.9199" y2="108.9199"/><line style="stroke:#666666;stroke-width:1.0;" x1="282.521" x2="282.521" y1="108.9199" y2="121.9199"/><line style="stroke:#666666;stroke-width:1.0;" x1="241.521" x2="282.521" y1="121.9199" y2="121.9199"/><polygon fill="#666666" points="251.521,117.9199,241.521,121.9199,251.521,125.9199,247.521,121.9199" style="stroke:#666666;stroke-width:1.0;"/><text fill="#333333" font-family="sans-serif" font-size="13" lengthAdjust="spacing" textLength="143.9141" x="247.521" y="104.1777">Validate TXID and vout</text><path d="M412.9141,80.7988 L412.9141,135.7988 L616.9141,135.7988 L616.9141,90.7988 L606.9141,80.7988 L412.9141,80.7988 " fill="#FEFFDD" style="stroke:#181818;stroke-width:0.5;"/><path d="M606.9141,80.7988 L606.9141,90.7988 L616.9141,90.7988 L606.9141,80.7988 " fill="#FEFFDD" style="stroke:#181818;stroke-width:0.5;"/><text fill="#333333" font-family="sans-serif" font-size="13" lengthAdjust="spacing" textLength="114.3086" x="418.9141" y="98.3672">Validation checks:</text><text fill="#333333" font-family="sans-serif" font-size="13" lengthAdjust="spacing" textLength="157.936" x="418.9141" y="113.6777">- TXID must be valid hex</text><text fill="#333333" font-family="sans-serif" font-size="13" lengthAdjust="spacing" textLength="183.5679" x="418.9141" y="128.9883">- vout must be non-negative</text><path d="M10,148.7305 L72.1387,148.7305 L72.1387,156.041 L62.1387,166.041 L10,166.041 L10,148.7305 " fill="#EEEEEE" style="stroke:#000000;stroke-width:1.5;"/><rect fill="none" height="535.6973" style="stroke:#000000;stroke-width:1.5;" width="515.1377" x="10" y="148.7305"/><text fill="#333333" font-family="sans-serif" font-size="13" font-weight="bold" lengthAdjust="spacing" textLength="17.1387" x="25" y="162.2988">alt</text><text fill="#333333" font-family="sans-serif" font-size="11" font-weight="bold" lengthAdjust="spacing" textLength="114.0015" x="87.1387" y="161.3652">[Invalid Parameters]</text><polygon fill="#666666" points="67.7524,201.6621,57.7524,205.6621,67.7524,209.6621,63.7524,205.6621" style="stroke:#666666;stroke-width:1.0;"/><line style="stroke:#666666;stroke-width:1.0;" x1="61.7524" x2="229.521" y1="205.6621" y2="205.6621"/><text fill="#333333" font-family="sans-serif" font-size="13" lengthAdjust="spacing" textLength="77.0796" x="73.7524" y="200.9199">Return error</text><path d="M245,171.041 L245,226.041 L474,226.041 L474,181.041 L464,171.041 L245,171.041 " fill="#FEFFDD" style="stroke:#181818;stroke-width:0.5;"/><path d="M464,171.041 L464,181.041 L474,181.041 L464,171.041 " fill="#FEFFDD" style="stroke:#181818;stroke-width:0.5;"/><text fill="#333333" font-family="sans-serif" font-size="13" lengthAdjust="spacing" textLength="96.5098" x="251" y="188.6094">Error response:</text><text fill="#333333" font-family="sans-serif" font-size="13" lengthAdjust="spacing" textLength="199.437" x="251" y="203.9199">- Code: ErrRPCInvalidParameter</text><text fill="#333333" font-family="sans-serif" font-size="13" lengthAdjust="spacing" textLength="208.3428" x="251" y="219.2305">- Message: "Invalid TXID or vout"</text><line style="stroke:#000000;stroke-width:1.0;stroke-dasharray:2.0,2.0;" x1="10" x2="525.1377" y1="232.9727" y2="232.9727"/><text fill="#333333" font-family="sans-serif" font-size="11" font-weight="bold" lengthAdjust="spacing" textLength="104.2905" x="15" y="243.6074">[Valid Parameters]</text><polygon fill="#666666" points="436.1606,264.2383,446.1606,268.2383,436.1606,272.2383,440.1606,268.2383" style="stroke:#666666;stroke-width:1.0;"/><line style="stroke:#666666;stroke-width:1.0;" x1="240.521" x2="442.1606" y1="268.2383" y2="268.2383"/><text fill="#333333" font-family="sans-serif" font-size="13" lengthAdjust="spacing" textLength="188.6396" x="247.521" y="263.4961">UnfreezeUTXO(ctx, txid, vout)</text><path d="M20,283.2383 L82.1387,283.2383 L82.1387,290.5488 L72.1387,300.5488 L20,300.5488 L20,283.2383 " fill="#EEEEEE" style="stroke:#000000;stroke-width:1.5;"/><rect fill="none" height="394.1895" style="stroke:#000000;stroke-width:1.5;" width="495.1377" x="20" y="283.2383"/><text fill="#333333" font-family="sans-serif" font-size="13" font-weight="bold" lengthAdjust="spacing" textLength="17.1387" x="35" y="296.8066">alt</text><text fill="#333333" font-family="sans-serif" font-size="11" font-weight="bold" lengthAdjust="spacing" textLength="102.502" x="97.1387" y="295.873">[UTXO Not Found]</text><polygon fill="#666666" points="251.521,317.8594,241.521,321.8594,251.521,325.8594,247.521,321.8594" style="stroke:#666666;stroke-width:1.0;"/><line style="stroke:#666666;stroke-width:1.0;stroke-dasharray:2.0,2.0;" x1="245.521" x2="447.1606" y1="321.8594" y2="321.8594"/><text fill="#333333" font-family="sans-serif" font-size="13" lengthAdjust="spacing" textLength="77.0796" x="257.521" y="317.1172">Return error</text><polygon fill="#666666" points="67.7524,365.4805,57.7524,369.4805,67.7524,373.4805,63.7524,369.4805" style="stroke:#666666;stroke-width:1.0;"/><line style="stroke:#666666;stroke-width:1.0;" x1="61.7524" x2="229.521" y1="369.4805" y2="369.4805"/><text fill="#333333" font-family="sans-serif" font-size="13" lengthAdjust="spacing" textLength="77.0796" x="73.7524" y="364.7383">Return error</text><path d="M245,334.8594 L245,389.8594 L465,389.8594 L465,344.8594 L455,334.8594 L245,334.8594 " fill="#FEFFDD" style="stroke:#181818;stroke-width:0.5;"/><path d="M455,334.8594 L455,344.8594 L465,344.8594 L455,334.8594 " fill="#FEFFDD" style="stroke:#181818;stroke-width:0.5;"/><text fill="#333333" font-family="sans-serif" font-size="13" lengthAdjust="spacing" textLength="96.5098" x="251" y="352.4277">Error response:</text><text fill="#333333" font-family="sans-serif" font-size="13" lengthAdjust="spacing" textLength="199.437" x="251" y="367.7383">- Code: ErrRPCInvalidParameter</text><text fill="#333333" font-family="sans-serif" font-size="13" lengthAdjust="spacing" textLength="185.4849" x="251" y="383.0488">- Message: "UTXO not found"</text><line style="stroke:#000000;stroke-width:1.0;stroke-dasharray:2.0,2.0;" x1="20" x2="515.1377" y1="396.791" y2="396.791"/><text fill="#333333" font-family="sans-serif" font-size="11" font-weight="bold" lengthAdjust="spacing" textLength="105.9341" x="25" y="407.4258">[UTXO Not Frozen]</text><polygon fill="#666666" points="251.521,428.0566,241.521,432.0566,251.521,436.0566,247.521,432.0566" style="stroke:#666666;stroke-width:1.0;"/><line style="stroke:#666666;stroke-width:1.0;stroke-dasharray:2.0,2.0;" x1="245.521" x2="447.1606" y1="432.0566" y2="432.0566"/><text fill="#333333" font-family="sans-serif" font-size="13" lengthAdjust="spacing" textLength="77.0796" x="257.521" y="427.3145">Return error</text><polygon fill="#666666" points="67.7524,475.6777,57.7524,479.6777,67.7524,483.6777,63.7524,479.6777" style="stroke:#666666;stroke-width:1.0;"/><line style="stroke:#666666;stroke-width:1.0;" x1="61.7524" x2="229.521" y1="479.6777" y2="479.6777"/><text fill="#333333" font-family="sans-serif" font-size="13" lengthAdjust="spacing" textLength="77.0796" x="73.7524" y="474.9355">Return error</text><path d="M245,445.0566 L245,500.0566 L465,500.0566 L465,455.0566 L455,445.0566 L245,445.0566 " fill="#FEFFDD" style="stroke:#181818;stroke-width:0.5;"/><path d="M455,445.0566 L455,455.0566 L465,455.0566 L455,445.0566 " fill="#FEFFDD" style="stroke:#181818;stroke-width:0.5;"/><text fill="#333333" font-family="sans-serif" font-size="13" lengthAdjust="spacing" textLength="96.5098" x="251" y="462.625">Error response:</text><text fill="#333333" font-family="sans-serif" font-size="13" lengthAdjust="spacing" textLength="199.437" x="251" y="477.9355">- Code: ErrRPCInvalidParameter</text><text fill="#333333" font-family="sans-serif" font-size="13" lengthAdjust="spacing" textLength="189.249" x="251" y="493.2461">- Message: "UTXO not frozen"</text><line style="stroke:#000000;stroke-width:1.0;stroke-dasharray:2.0,2.0;" x1="20" x2="515.1377" y1="506.9883" y2="506.9883"/><text fill="#333333" font-family="sans-serif" font-size="11" font-weight="bold" lengthAdjust="spacing" textLength="174.2813" x="25" y="517.623">[Unfreeze Operation Succeeds]</text><polygon fill="#666666" points="251.521,538.2539,241.521,542.2539,251.521,546.2539,247.521,542.2539" style="stroke:#666666;stroke-width:1.0;"/><line style="stroke:#666666;stroke-width:1.0;stroke-dasharray:2.0,2.0;" x1="245.521" x2="447.1606" y1="542.2539" y2="542.2539"/><text fill="#333333" font-family="sans-serif" font-size="13" lengthAdjust="spacing" textLength="94.4023" x="257.521" y="537.5117">Return success</text><polygon fill="#666666" points="67.7524,616.4961,57.7524,620.4961,67.7524,624.4961,63.7524,620.4961" style="stroke:#666666;stroke-width:1.0;"/><line style="stroke:#666666;stroke-width:1.0;" x1="61.7524" x2="229.521" y1="620.4961" y2="620.4961"/><text fill="#333333" font-family="sans-serif" font-size="13" lengthAdjust="spacing" textLength="71.3857" x="73.7524" y="615.7539">Return true</text><path d="M245,555.2539 L245,672.2539 L428,672.2539 L428,565.2539 L418,555.2539 L245,555.2539 " fill="#FEFFDD" style="stroke:#181818;stroke-width:0.5;"/><path d="M418,555.2539 L418,565.2539 L428,565.2539 L418,555.2539 " fill="#FEFFDD" style="stroke:#181818;stroke-width:0.5;"/><text fill="#333333" font-family="sans-serif" font-size="13" lengthAdjust="spacing" textLength="102.7686" x="251" y="572.8223">Response fields:</text><text fill="#333333" font-family="sans-serif" font-size="13" lengthAdjust="spacing" textLength="162.4365" x="251" y="588.1328">- Returns true on success</text><text fill="#333333" font-family="sans-serif" font-size="13" lengthAdjust="spacing" textLength="4.1133" x="251" y="603.4434">&#160;</text><text fill="#333333" font-family="sans-serif" font-size="13" lengthAdjust="spacing" textLength="46.1094" x="251" y="618.7539">Effects:</text><text fill="#333333" font-family="sans-serif" font-size="13" lengthAdjust="spacing" textLength="108.1958" x="251" y="634.0645">- UTXO unfrozen</text><text fill="#333333" font-family="sans-serif" font-size="13" lengthAdjust="spacing" textLength="161.9351" x="251" y="649.375">- UTXO can now be spent</text><text fill="#333333" font-family="sans-serif" font-size="13" lengthAdjust="spacing" textLength="156.6348" x="251" y="664.6855">- Audit log entry created</text><text fill="#333333" font-family="sans-serif" font-size="10" lengthAdjust="spacing" textLength="155.4932" x="0" y="742.584">Last Modified On: 30-Apr-2025</text><!--SRC=[tLNVQzim47xNNt5uZALGms0mHXu6Mp93OLbAsew-Aj8v4L6a8Cbfqh7_VIVPTUoKDFlnDZqOTFVTfxllfBDVARFXZgzXpiLguMnbvCXgw-1LyRRuK1JCjmY99QzqAAm93UHTMXq8Tyu-DCxtQJ7s1iPOAeCmjqwYyr2IbsiDg76D9lXEF6rLsCCF1l0veVjSP3tESfmM-yawB88oT5R_AmrzWn9gmqtuEoh6kXGZhQYydYcRNO_W1jqMNGRS0stx_hlR-sa2A8494GsCrLIGVumHC8GxKph4HnojvI3ibBo4hQt21UCYg2qFc8XPnBOXtxbMChfkxw_6m8rC8SnOCZcrM0OghS4eQq0iKQpya8nv7R6kV80vmZPYO8cxv8eShSjOanjS4C4M6T89aPmnhWDScJhkEWgDWMu5XGCq6JRb3M66eN86a6wLIu1UUlNw4ftWq6-iyJXixJcChCHXz1DjSs1xNWSsGU_vWf3PKrQfG2ADrMG9sMQFscEjoudSKySE7OdRWGYxI-Zs9UBRtgIMHajj9dKInpSRe8ZNgaqrcVEsWy_4-Iq5JwZuaf9_eEQneYbbEexUF5MIjRXMpxI9cXvgTlOHpVzHT2hbnQgRQmBJ3RhwfTrKGY1AVqO17s7UdzCWk0hFIJ1hYeTIePR-M8EQoISgi8UJ-pAM9OhmB3RbNfcotzEEJt13QJt4SU4tSJpsCPyggG9ekuX_1hS7uP2UZ3oXQFDM9FRVLhIpZZ4DGurbl9KKw-0hfu4riLAH01AcPWYlusWSP5BcayaatzFABdu1]--></g></svg>
