<svg contentStyleType="text/css" height="791" preserveAspectRatio="none" viewBox="0 0 764 791" width="764" xmlns="http://www.w3.org/2000/svg" zoomAndPan="magnify"><path d="m0 0h764v791h-764z" fill="#f0f8ff"/><path d="m310.7134 67.7988h10v662.6289h-10z" fill="#fff" stroke="#181818"/><path d="m523.7998 97.1094h10v127.1973h-10z" fill="#fff" stroke="#181818"/><path d="m667.6611 253.6172h10v127.1973h-10z" fill="#fff" stroke="#181818"/><path d="m10 112.1094h747.8179v611.3184h-747.8179z" fill="none" stroke="#000" stroke-width="1.5"/><path d="m20 268.6172h727.8179v447.8105h-727.8179z" fill="none" stroke="#000" stroke-width="1.5"/><path d="m30 395.8145h567.6958v313.6133h-567.6958z" fill="none" stroke="#000" stroke-width="1.5"/><path d="m66 36.4883v703.9394" stroke="#181818" stroke-dasharray="5 5" stroke-width=".5"/><path d="m315.4385 36.4883v703.9394" stroke="#181818" stroke-dasharray="5 5" stroke-width=".5"/><path d="m528.0952 36.4883v703.9394" stroke="#181818" stroke-dasharray="5 5" stroke-width=".5"/><path d="m672.5044 36.4883v703.9394" stroke="#181818" stroke-dasharray="5 5" stroke-width=".5"/><rect fill="#ddd" height="30.4883" rx="2.5" stroke="#666" stroke-width=".5" width="53.5049" x="40" y="5"/><text fill="#333" font-family="sans-serif" font-size="14" lengthAdjust="spacing" textLength="39.5049" x="47" y="25.5352">Client</text><rect fill="#ddd" height="30.4883" rx="2.5" stroke="#666" stroke-width=".5" width="53.5049" x="40" y="739.4277"/><text fill="#333" font-family="sans-serif" font-size="14" lengthAdjust="spacing" textLength="39.5049" x="47" y="759.9629">Client</text><rect fill="#ddd" height="30.4883" rx="2.5" stroke="#666" stroke-width=".5" width="86.5498" x="272.4385" y="5"/><text fill="#333" font-family="sans-serif" font-size="14" lengthAdjust="spacing" textLength="72.5498" x="279.4385" y="25.5352">RPC Server</text><rect fill="#ddd" height="30.4883" rx="2.5" stroke="#666" stroke-width=".5" width="86.5498" x="272.4385" y="739.4277"/><text fill="#333" font-family="sans-serif" font-size="14" lengthAdjust="spacing" textLength="72.5498" x="279.4385" y="759.9629">RPC Server</text><rect fill="#ddd" height="30.4883" rx="2.5" stroke="#666" stroke-width=".5" width="137.4092" x="460.0952" y="5"/><text fill="#333" font-family="sans-serif" font-size="14" lengthAdjust="spacing" textLength="123.4092" x="467.0952" y="25.5352">Chain Hash Parser</text><rect fill="#ddd" height="30.4883" rx="2.5" stroke="#666" stroke-width=".5" width="137.4092" x="460.0952" y="739.4277"/><text fill="#333" font-family="sans-serif" font-size="14" lengthAdjust="spacing" textLength="123.4092" x="467.0952" y="759.9629">Chain Hash Parser</text><rect fill="#ddd" height="30.4883" rx="2.5" stroke="#666" stroke-width=".5" width="130.3135" x="607.5044" y="5"/><text fill="#333" font-family="sans-serif" font-size="14" lengthAdjust="spacing" textLength="116.3135" x="614.5044" y="25.5352">Blockchain Client</text><rect fill="#ddd" height="30.4883" rx="2.5" stroke="#666" stroke-width=".5" width="130.3135" x="607.5044" y="739.4277"/><text fill="#333" font-family="sans-serif" font-size="14" lengthAdjust="spacing" textLength="116.3135" x="614.5044" y="759.9629">Blockchain Client</text><path d="m310.7134 67.7988h10v662.6289h-10z" fill="#fff" stroke="#181818"/><path d="m523.7998 97.1094h10v127.1973h-10z" fill="#fff" stroke="#181818"/><path d="m667.6611 253.6172h10v127.1973h-10z" fill="#fff" stroke="#181818"/><path d="m298.7134 63.7988 10 4-10 4 4-4z" fill="#666" stroke="#666"/><path d="m66.7524 67.7988h237.961" stroke="#666"/><text fill="#333" font-family="sans-serif" font-size="13" lengthAdjust="spacing" textLength="224.9609" x="73.7524" y="63.0566">GetBlockHeaderCmd(hash, verbose)</text><path d="m511.7998 93.1094 10 4-10 4 4-4z" fill="#666" stroke="#666"/><path d="m320.7134 97.1094h197.0864" stroke="#666"/><text fill="#333" font-family="sans-serif" font-size="13" lengthAdjust="spacing" textLength="146.2817" x="327.7134" y="92.3672">NewHashFromStr(hash)</text><path d="m10 112.1094h62.1387v7.3105l-10 10h-52.1387z" fill="#eee" stroke="#000" stroke-width="1.5"/><path d="m10 112.1094h747.8179v611.3184h-747.8179z" fill="none" stroke="#000" stroke-width="1.5"/><text fill="#333" font-family="sans-serif" font-size="13" font-weight="bold" lengthAdjust="spacing" textLength="17.1387" x="25" y="125.6777">alt</text><text fill="#333" font-family="sans-serif" font-size="11" font-weight="bold" lengthAdjust="spacing" textLength="122.1387" x="87.1387" y="124.7441">[Invalid Hash Format]</text><path d="m331.7134 146.7305-10 4 10 4-4-4z" fill="#666" stroke="#666"/><path d="m325.7134 150.7305h197.0864" stroke="#666" stroke-dasharray="2 2"/><text fill="#333" font-family="sans-serif" font-size="13" lengthAdjust="spacing" textLength="77.0796" x="337.7134" y="145.9883">Return error</text><path d="m77.7524 176.041-10 4 10 4-4-4z" fill="#666" stroke="#666"/><path d="m71.7524 180.041h237.961" stroke="#666"/><text fill="#333" font-family="sans-serif" font-size="13" lengthAdjust="spacing" textLength="168.8604" x="83.7524" y="175.2988">Return rpcDecodeHexError</text><path d="m10 189.041h747.8179" stroke="#000" stroke-dasharray="2 2"/><text fill="#333" font-family="sans-serif" font-size="11" font-weight="bold" lengthAdjust="spacing" textLength="68.8682" x="15" y="199.6758">[Valid Hash]</text><path d="m331.7134 220.3066-10 4 10 4-4-4z" fill="#666" stroke="#666"/><path d="m325.7134 224.3066h202.0864" stroke="#666" stroke-dasharray="2 2"/><text fill="#333" font-family="sans-serif" font-size="13" lengthAdjust="spacing" textLength="122.6812" x="337.7134" y="219.5645">Return parsed hash</text><path d="m655.6611 249.6172 10 4-10 4 4-4z" fill="#666" stroke="#666"/><path d="m320.7134 253.6172h340.9477" stroke="#666"/><text fill="#333" font-family="sans-serif" font-size="13" lengthAdjust="spacing" textLength="165.8135" x="327.7134" y="248.875">GetBlockHeader(ctx, hash)</text><path d="m20 268.6172h62.1387v7.3105l-10 10h-52.1387z" fill="#eee" stroke="#000" stroke-width="1.5"/><path d="m20 268.6172h727.8179v447.8105h-727.8179z" fill="none" stroke="#000" stroke-width="1.5"/><text fill="#333" font-family="sans-serif" font-size="13" font-weight="bold" lengthAdjust="spacing" textLength="17.1387" x="35" y="282.1855">alt</text><text fill="#333" font-family="sans-serif" font-size="11" font-weight="bold" lengthAdjust="spacing" textLength="100.7671" x="97.1387" y="281.252">[Block Not Found]</text><path d="m331.7134 303.2383-10 4 10 4-4-4z" fill="#666" stroke="#666"/><path d="m325.7134 307.2383h340.9477" stroke="#666" stroke-dasharray="2 2"/><text fill="#333" font-family="sans-serif" font-size="13" lengthAdjust="spacing" textLength="77.0796" x="337.7134" y="302.4961">Return error</text><path d="m77.7524 332.5488-10 4 10 4-4-4z" fill="#666" stroke="#666"/><path d="m71.7524 336.5488h237.961" stroke="#666"/><text fill="#333" font-family="sans-serif" font-size="13" lengthAdjust="spacing" textLength="77.0796" x="83.7524" y="331.8066">Return error</text><path d="m20 345.5488h727.8179" stroke="#000" stroke-dasharray="2 2"/><text fill="#333" font-family="sans-serif" font-size="11" font-weight="bold" lengthAdjust="spacing" textLength="77.2041" x="25" y="356.1836">[Block Found]</text><path d="m331.7134 376.8145-10 4 10 4-4-4z" fill="#666" stroke="#666"/><path d="m325.7134 380.8145h345.9477" stroke="#666" stroke-dasharray="2 2"/><text fill="#333" font-family="sans-serif" font-size="13" lengthAdjust="spacing" textLength="179.6069" x="337.7134" y="376.0723">Return header and metadata</text><path d="m30 395.8145h62.1387v7.3105l-10 10h-52.1387z" fill="#eee" stroke="#000" stroke-width="1.5"/><path d="m30 395.8145h567.6958v313.6133h-567.6958z" fill="none" stroke="#000" stroke-width="1.5"/><text fill="#333" font-family="sans-serif" font-size="13" font-weight="bold" lengthAdjust="spacing" textLength="17.1387" x="45" y="409.3828">alt</text><text fill="#333" font-family="sans-serif" font-size="11" font-weight="bold" lengthAdjust="spacing" textLength="96.3735" x="107.1387" y="408.4492">[verbose = false]</text><path d="m77.7524 441.0908-10 4 10 4-4-4z" fill="#666" stroke="#666"/><path d="m71.7524 445.0908h237.961" stroke="#666"/><text fill="#333" font-family="sans-serif" font-size="13" lengthAdjust="spacing" textLength="177.6074" x="83.7524" y="440.3486">Return hex-encoded header</text><path d="m325 418.125v40h261v-30l-10-10z" fill="#feffdd" stroke="#181818" stroke-width=".5"/><path d="m576 418.125v10h10z" fill="#feffdd" stroke="#181818" stroke-width=".5"/><text fill="#333" font-family="sans-serif" font-size="13" lengthAdjust="spacing" textLength="102.7686" x="331" y="435.6934">Response fields:</text><text fill="#333" font-family="sans-serif" font-size="13" lengthAdjust="spacing" textLength="240.9824" x="331" y="451.0039">- Hex-encoded serialized header data</text><path d="m30 464.7461h567.6958" stroke="#000" stroke-dasharray="2 2"/><text fill="#333" font-family="sans-serif" font-size="11" font-weight="bold" lengthAdjust="spacing" textLength="92.2324" x="35" y="475.3809">[verbose = true]</text><path d="m320.7134 500.0117h42" stroke="#666"/><path d="m362.7134 500.0117v13" stroke="#666"/><path d="m321.7134 513.0117h41" stroke="#666"/><path d="m331.7134 509.0117-10 4 10 4-4-4z" fill="#666" stroke="#666"/><text fill="#333" font-family="sans-serif" font-size="13" lengthAdjust="spacing" textLength="179.0864" x="327.7134" y="495.2695">Calculate difficulty from bits</text><path d="m77.7524 617.875-10 4 10 4-4-4z" fill="#666" stroke="#666"/><path d="m71.7524 621.875h237.961" stroke="#666"/><text fill="#333" font-family="sans-serif" font-size="13" lengthAdjust="spacing" textLength="138.0488" x="83.7524" y="617.1328">Return JSON response</text><path d="m325 526.0117v178h249v-168l-10-10z" fill="#feffdd" stroke="#181818" stroke-width=".5"/><path d="m564 526.0117v10h10z" fill="#feffdd" stroke="#181818" stroke-width=".5"/><g fill="#333" font-family="sans-serif"><text font-size="13" lengthAdjust="spacing" textLength="102.7686" x="331" y="543.5801">Response fields:</text><text font-size="13" lengthAdjust="spacing" textLength="117.3364" x="331" y="558.8906">- hash: Block hash</text><text font-size="13" lengthAdjust="spacing" textLength="148.9097" x="331" y="574.2012">- version: Block version</text><text font-size="13" lengthAdjust="spacing" textLength="181.1938" x="331" y="589.5117">- versionHex: Version in hex</text><text font-size="13" lengthAdjust="spacing" textLength="228.979" x="331" y="604.8223">- previoushash: Previous block hash</text><text font-size="13" lengthAdjust="spacing" textLength="195.9902" x="331" y="620.1328">- merkleroot: Merkle root hash</text><text font-size="13" lengthAdjust="spacing" textLength="152.439" x="331" y="635.4434">- time: Block timestamp</text><text font-size="13" lengthAdjust="spacing" textLength="111.7632" x="331" y="650.7539">- bits: Target bits</text><text font-size="13" lengthAdjust="spacing" textLength="134.5322" x="331" y="666.0645">- nonce: Nonce value</text><text font-size="13" lengthAdjust="spacing" textLength="200.6494" x="331" y="681.375">- difficulty: Calculated difficulty</text><text font-size="13" lengthAdjust="spacing" textLength="137.6616" x="331" y="696.6855">- height: Block height</text><text font-size="10" lengthAdjust="spacing" textLength="155.4346" y="781.584">Last Modified On: 24-Feb-2025</text></g></svg>
