<svg xmlns="http://www.w3.org/2000/svg" xmlns:xlink="http://www.w3.org/1999/xlink" contentStyleType="text/css" height="701px" preserveAspectRatio="none" style="width:637px;height:701px;background:#F0F8FF;" version="1.1" viewBox="0 0 637 701" width="637px" zoomAndPan="magnify"><defs/><g><rect fill="#F0F8FF" height="701" style="stroke:none;stroke-width:1.0;" width="637" x="0" y="0"/><rect fill="#FFFFFF" height="572.0527" style="stroke:#181818;stroke-width:1.0;" width="10" x="219.4697" y="67.7988"/><rect fill="#FFFFFF" height="163.8184" style="stroke:#181818;stroke-width:1.0;" width="10" x="419.0229" y="268.2383"/><rect fill="#FFFFFF" height="29.3105" style="stroke:#181818;stroke-width:1.0;" width="10" x="524.7534" y="461.3672"/><rect fill="none" height="484.1211" style="stroke:#000000;stroke-width:1.5;" width="590.4385" x="10" y="148.7305"/><rect fill="none" height="342.6133" style="stroke:#000000;stroke-width:1.5;" width="570.4385" x="20" y="283.2383"/><line style="stroke:#181818;stroke-width:0.5;stroke-dasharray:5.0,5.0;" x1="56" x2="56" y1="36.4883" y2="649.8516"/><line style="stroke:#181818;stroke-width:0.5;stroke-dasharray:5.0,5.0;" x1="224.1948" x2="224.1948" y1="36.4883" y2="649.8516"/><line style="stroke:#181818;stroke-width:0.5;stroke-dasharray:5.0,5.0;" x1="423.9775" x2="423.9775" y1="36.4883" y2="649.8516"/><line style="stroke:#181818;stroke-width:0.5;stroke-dasharray:5.0,5.0;" x1="529.0684" x2="529.0684" y1="36.4883" y2="649.8516"/><rect fill="#DDDDDD" height="30.4883" rx="2.5" ry="2.5" style="stroke:#666666;stroke-width:0.5;" width="53.5049" x="30" y="5"/><text fill="#333333" font-family="sans-serif" font-size="14" lengthAdjust="spacing" textLength="39.5049" x="37" y="25.5352">Client</text><rect fill="#DDDDDD" height="30.4883" rx="2.5" ry="2.5" style="stroke:#666666;stroke-width:0.5;" width="53.5049" x="30" y="648.8516"/><text fill="#333333" font-family="sans-serif" font-size="14" lengthAdjust="spacing" textLength="39.5049" x="37" y="669.3867">Client</text><rect fill="#DDDDDD" height="30.4883" rx="2.5" ry="2.5" style="stroke:#666666;stroke-width:0.5;" width="86.5498" x="181.1948" y="5"/><text fill="#333333" font-family="sans-serif" font-size="14" lengthAdjust="spacing" textLength="72.5498" x="188.1948" y="25.5352">RPC Server</text><rect fill="#DDDDDD" height="30.4883" rx="2.5" ry="2.5" style="stroke:#666666;stroke-width:0.5;" width="86.5498" x="181.1948" y="648.8516"/><text fill="#333333" font-family="sans-serif" font-size="14" lengthAdjust="spacing" textLength="72.5498" x="188.1948" y="669.3867">RPC Server</text><rect fill="#DDDDDD" height="30.4883" rx="2.5" ry="2.5" style="stroke:#666666;stroke-width:0.5;" width="90.0908" x="378.9775" y="5"/><text fill="#333333" font-family="sans-serif" font-size="14" lengthAdjust="spacing" textLength="76.0908" x="385.9775" y="25.5352">P2P Service</text><rect fill="#DDDDDD" height="30.4883" rx="2.5" ry="2.5" style="stroke:#666666;stroke-width:0.5;" width="90.0908" x="378.9775" y="648.8516"/><text fill="#333333" font-family="sans-serif" font-size="14" lengthAdjust="spacing" textLength="76.0908" x="385.9775" y="669.3867">P2P Service</text><rect fill="#DDDDDD" height="30.4883" rx="2.5" ry="2.5" style="stroke:#666666;stroke-width:0.5;" width="101.3701" x="479.0684" y="5"/><text fill="#333333" font-family="sans-serif" font-size="14" lengthAdjust="spacing" textLength="87.3701" x="486.0684" y="25.5352">Ban Manager</text><rect fill="#DDDDDD" height="30.4883" rx="2.5" ry="2.5" style="stroke:#666666;stroke-width:0.5;" width="101.3701" x="479.0684" y="648.8516"/><text fill="#333333" font-family="sans-serif" font-size="14" lengthAdjust="spacing" textLength="87.3701" x="486.0684" y="669.3867">Ban Manager</text><rect fill="#FFFFFF" height="572.0527" style="stroke:#181818;stroke-width:1.0;" width="10" x="219.4697" y="67.7988"/><rect fill="#FFFFFF" height="163.8184" style="stroke:#181818;stroke-width:1.0;" width="10" x="419.0229" y="268.2383"/><rect fill="#FFFFFF" height="29.3105" style="stroke:#181818;stroke-width:1.0;" width="10" x="524.7534" y="461.3672"/><polygon fill="#666666" points="207.4697,63.7988,217.4697,67.7988,207.4697,71.7988,211.4697,67.7988" style="stroke:#666666;stroke-width:1.0;"/><line style="stroke:#666666;stroke-width:1.0;" x1="56.7524" x2="213.4697" y1="67.7988" y2="67.7988"/><text fill="#333333" font-family="sans-serif" font-size="13" lengthAdjust="spacing" textLength="143.7173" x="63.7524" y="63.0566">IsBannedCmd(address)</text><line style="stroke:#666666;stroke-width:1.0;" x1="229.4697" x2="271.4697" y1="108.9199" y2="108.9199"/><line style="stroke:#666666;stroke-width:1.0;" x1="271.4697" x2="271.4697" y1="108.9199" y2="121.9199"/><line style="stroke:#666666;stroke-width:1.0;" x1="230.4697" x2="271.4697" y1="121.9199" y2="121.9199"/><polygon fill="#666666" points="240.4697,117.9199,230.4697,121.9199,240.4697,125.9199,236.4697,121.9199" style="stroke:#666666;stroke-width:1.0;"/><text fill="#333333" font-family="sans-serif" font-size="13" lengthAdjust="spacing" textLength="165.5532" x="236.4697" y="104.1777">Validate IP address format</text><path d="M423.5532,80.7988 L423.5532,135.7988 L630.5532,135.7988 L630.5532,90.7988 L620.5532,80.7988 L423.5532,80.7988 " fill="#FEFFDD" style="stroke:#181818;stroke-width:0.5;"/><path d="M620.5532,80.7988 L620.5532,90.7988 L630.5532,90.7988 L620.5532,80.7988 " fill="#FEFFDD" style="stroke:#181818;stroke-width:0.5;"/><text fill="#333333" font-family="sans-serif" font-size="13" lengthAdjust="spacing" textLength="114.3086" x="429.5532" y="98.3672">Validation checks:</text><text fill="#333333" font-family="sans-serif" font-size="13" lengthAdjust="spacing" textLength="178.1851" x="429.5532" y="113.6777">- Address must be a valid IP</text><text fill="#333333" font-family="sans-serif" font-size="13" lengthAdjust="spacing" textLength="186.4878" x="429.5532" y="128.9883">- Address must not be empty</text><path d="M10,148.7305 L72.1387,148.7305 L72.1387,156.041 L62.1387,166.041 L10,166.041 L10,148.7305 " fill="#EEEEEE" style="stroke:#000000;stroke-width:1.5;"/><rect fill="none" height="484.1211" style="stroke:#000000;stroke-width:1.5;" width="590.4385" x="10" y="148.7305"/><text fill="#333333" font-family="sans-serif" font-size="13" font-weight="bold" lengthAdjust="spacing" textLength="17.1387" x="25" y="162.2988">alt</text><text fill="#333333" font-family="sans-serif" font-size="11" font-weight="bold" lengthAdjust="spacing" textLength="110.666" x="87.1387" y="161.3652">[Invalid IP Address]</text><polygon fill="#666666" points="67.7524,201.6621,57.7524,205.6621,67.7524,209.6621,63.7524,205.6621" style="stroke:#666666;stroke-width:1.0;"/><line style="stroke:#666666;stroke-width:1.0;" x1="61.7524" x2="218.4697" y1="205.6621" y2="205.6621"/><text fill="#333333" font-family="sans-serif" font-size="13" lengthAdjust="spacing" textLength="77.0796" x="73.7524" y="200.9199">Return error</text><path d="M234,171.041 L234,226.041 L495,226.041 L495,181.041 L485,171.041 L234,171.041 " fill="#FEFFDD" style="stroke:#181818;stroke-width:0.5;"/><path d="M485,171.041 L485,181.041 L495,181.041 L485,171.041 " fill="#FEFFDD" style="stroke:#181818;stroke-width:0.5;"/><text fill="#333333" font-family="sans-serif" font-size="13" lengthAdjust="spacing" textLength="96.5098" x="240" y="188.6094">Error response:</text><text fill="#333333" font-family="sans-serif" font-size="13" lengthAdjust="spacing" textLength="199.437" x="240" y="203.9199">- Code: ErrRPCInvalidParameter</text><text fill="#333333" font-family="sans-serif" font-size="13" lengthAdjust="spacing" textLength="240.1064" x="240" y="219.2305">- Message: "Invalid IP address format"</text><line style="stroke:#000000;stroke-width:1.0;stroke-dasharray:2.0,2.0;" x1="10" x2="600.4385" y1="232.9727" y2="232.9727"/><text fill="#333333" font-family="sans-serif" font-size="11" font-weight="bold" lengthAdjust="spacing" textLength="100.9551" x="15" y="243.6074">[Valid IP Address]</text><polygon fill="#666666" points="407.0229,264.2383,417.0229,268.2383,407.0229,272.2383,411.0229,268.2383" style="stroke:#666666;stroke-width:1.0;"/><line style="stroke:#666666;stroke-width:1.0;" x1="229.4697" x2="413.0229" y1="268.2383" y2="268.2383"/><text fill="#333333" font-family="sans-serif" font-size="13" lengthAdjust="spacing" textLength="94.3516" x="236.4697" y="263.4961">GetBanList(ctx)</text><path d="M20,283.2383 L82.1387,283.2383 L82.1387,290.5488 L72.1387,300.5488 L20,300.5488 L20,283.2383 " fill="#EEEEEE" style="stroke:#000000;stroke-width:1.5;"/><rect fill="none" height="342.6133" style="stroke:#000000;stroke-width:1.5;" width="570.4385" x="20" y="283.2383"/><text fill="#333333" font-family="sans-serif" font-size="13" font-weight="bold" lengthAdjust="spacing" textLength="17.1387" x="35" y="296.8066">alt</text><text fill="#333333" font-family="sans-serif" font-size="11" font-weight="bold" lengthAdjust="spacing" textLength="136.5439" x="97.1387" y="295.873">[Ban List Retrieval Fails]</text><polygon fill="#666666" points="240.4697,317.8594,230.4697,321.8594,240.4697,325.8594,236.4697,321.8594" style="stroke:#666666;stroke-width:1.0;"/><line style="stroke:#666666;stroke-width:1.0;stroke-dasharray:2.0,2.0;" x1="234.4697" x2="418.0229" y1="321.8594" y2="321.8594"/><text fill="#333333" font-family="sans-serif" font-size="13" lengthAdjust="spacing" textLength="77.0796" x="246.4697" y="317.1172">Return error</text><polygon fill="#666666" points="67.7524,365.4805,57.7524,369.4805,67.7524,373.4805,63.7524,369.4805" style="stroke:#666666;stroke-width:1.0;"/><line style="stroke:#666666;stroke-width:1.0;" x1="61.7524" x2="218.4697" y1="369.4805" y2="369.4805"/><text fill="#333333" font-family="sans-serif" font-size="13" lengthAdjust="spacing" textLength="77.0796" x="73.7524" y="364.7383">Return error</text><path d="M234,334.8594 L234,389.8594 L495,389.8594 L495,344.8594 L485,334.8594 L234,334.8594 " fill="#FEFFDD" style="stroke:#181818;stroke-width:0.5;"/><path d="M485,334.8594 L485,344.8594 L495,344.8594 L485,334.8594 " fill="#FEFFDD" style="stroke:#181818;stroke-width:0.5;"/><text fill="#333333" font-family="sans-serif" font-size="13" lengthAdjust="spacing" textLength="96.5098" x="240" y="352.4277">Error response:</text><text fill="#333333" font-family="sans-serif" font-size="13" lengthAdjust="spacing" textLength="173.583" x="240" y="367.7383">- Code: ErrRPCInternalError</text><text fill="#333333" font-family="sans-serif" font-size="13" lengthAdjust="spacing" textLength="240.335" x="240" y="383.0488">- Message: "Failed to retrieve ban list"</text><line style="stroke:#000000;stroke-width:1.0;stroke-dasharray:2.0,2.0;" x1="20" x2="590.4385" y1="396.791" y2="396.791"/><text fill="#333333" font-family="sans-serif" font-size="11" font-weight="bold" lengthAdjust="spacing" textLength="110.4512" x="25" y="407.4258">[Ban List Retrieved]</text><polygon fill="#666666" points="240.4697,428.0566,230.4697,432.0566,240.4697,436.0566,236.4697,432.0566" style="stroke:#666666;stroke-width:1.0;"/><line style="stroke:#666666;stroke-width:1.0;stroke-dasharray:2.0,2.0;" x1="234.4697" x2="423.0229" y1="432.0566" y2="432.0566"/><text fill="#333333" font-family="sans-serif" font-size="13" lengthAdjust="spacing" textLength="92.4409" x="246.4697" y="427.3145">Return ban list</text><polygon fill="#666666" points="512.7534,457.3672,522.7534,461.3672,512.7534,465.3672,516.7534,461.3672" style="stroke:#666666;stroke-width:1.0;"/><line style="stroke:#666666;stroke-width:1.0;" x1="229.4697" x2="518.7534" y1="461.3672" y2="461.3672"/><text fill="#333333" font-family="sans-serif" font-size="13" lengthAdjust="spacing" textLength="168.2383" x="236.4697" y="456.625">IsBanned(address, banList)</text><polygon fill="#666666" points="240.4697,486.6777,230.4697,490.6777,240.4697,494.6777,236.4697,490.6777" style="stroke:#666666;stroke-width:1.0;"/><line style="stroke:#666666;stroke-width:1.0;stroke-dasharray:2.0,2.0;" x1="234.4697" x2="528.7534" y1="490.6777" y2="490.6777"/><text fill="#333333" font-family="sans-serif" font-size="13" lengthAdjust="spacing" textLength="207.6445" x="246.4697" y="485.9355">Return ban status and expiration</text><polygon fill="#666666" points="67.7524,564.9199,57.7524,568.9199,67.7524,572.9199,63.7524,568.9199" style="stroke:#666666;stroke-width:1.0;"/><line style="stroke:#666666;stroke-width:1.0;" x1="61.7524" x2="218.4697" y1="568.9199" y2="568.9199"/><text fill="#333333" font-family="sans-serif" font-size="13" lengthAdjust="spacing" textLength="111.6616" x="73.7524" y="564.1777">Return ban status</text><path d="M234,503.6777 L234,620.6777 L579,620.6777 L579,513.6777 L569,503.6777 L234,503.6777 " fill="#FEFFDD" style="stroke:#181818;stroke-width:0.5;"/><path d="M569,503.6777 L569,513.6777 L579,513.6777 L569,503.6777 " fill="#FEFFDD" style="stroke:#181818;stroke-width:0.5;"/><text fill="#333333" font-family="sans-serif" font-size="13" lengthAdjust="spacing" textLength="102.7686" x="240" y="521.2461">Response fields:</text><text fill="#333333" font-family="sans-serif" font-size="13" lengthAdjust="spacing" textLength="272.6445" x="240" y="536.5566">- banned: true/false (whether IP is banned)</text><text fill="#333333" font-family="sans-serif" font-size="13" lengthAdjust="spacing" textLength="324.9556" x="240" y="551.8672">- expires: timestamp (when ban expires, if banned)</text><text fill="#333333" font-family="sans-serif" font-size="13" lengthAdjust="spacing" textLength="4.1133" x="240" y="567.1777">&#160;</text><text fill="#333333" font-family="sans-serif" font-size="13" lengthAdjust="spacing" textLength="88.7021" x="240" y="582.4883">If not banned:</text><text fill="#333333" font-family="sans-serif" font-size="13" lengthAdjust="spacing" textLength="96.3701" x="240" y="597.7988">- banned: false</text><text fill="#333333" font-family="sans-serif" font-size="13" lengthAdjust="spacing" textLength="74.4263" x="240" y="613.1094">- expires: 0</text><text fill="#333333" font-family="sans-serif" font-size="10" lengthAdjust="spacing" textLength="155.4932" x="0" y="691.0078">Last Modified On: 30-Apr-2025</text><!--SRC=[fLHHQzim47xNhpWynX9eMDbW33yCrhGPWPg55lQkMET4L9Q2fAGDO_zz9rdHxAHfnwO7W-w- -_JTTvRSWzGRRdaBIru_hApPQZ4robXuCxkSVPxDcCi8WGtVAZypsYV8nxXw46wjUKp9Jt4nzWwkiP4QOMciGEkWeInN2b1XYzgxNZrjfT_3JmPm5T53BeeUgxoEY_rYFPQQ55gZ_fU6lbxMSiEr_pSgnleKKoMflK6ek5jCuHxj3cq1t05jX_d5XqNConeZWFP3m1NNK77DLuc1zjNACjOT1fClWHDAc3lAQ1JJLeou41QT6pDUUxdZ7kEvB00p_WTNKeJKV0497-RMSi-qeR2LgxMdxXDE6Wtr6ki7Lr9m0bzJIRjr7fO877O1I6odQU8B46mtVizGYn10nhZoCDU7iaC9bGCafQd74kxGRwq6f9_FHi10OhTkGXA8OcEqmpB79p0r0ikG9zfqu2BC7ptQ7goYqydc4egUgg4rHOJd5b0vx0mwqq2ORWdVqDDiRgNpeze_ZICWJoOCF0IwA5aI1XwmeMahaPJ0Z4lbij90EibpFB7ch_mxu-5BFZxd9HcekRePq1wR6SIZ06-8CpP4xmIrgAZ58XTbI-Ccs7fi0ugN3JXmPfJ04u-pppsFkllKkq27stCHA8E2SIx9XEaI7kA9urbDpdE_TS2fGNpQI1klqdCYZpXVc-KVxjS6UfT62Or49TpnH9UnwnAytUBxXWVlHuzhz6kquQ-MBY76HtMn6tHKA5ia9UqcrdNAKl82P9FB1_NpfdiMkiFFI8fgpXrxUURdqIAyCOprh8sldyB6qpKcd8LRJZzMPOGaImHyroMy3M_Xg11YKbNLP4-h6Fy6]--></g></svg>
