<svg xmlns="http://www.w3.org/2000/svg" xmlns:xlink="http://www.w3.org/1999/xlink" contentStyleType="text/css" height="352px" preserveAspectRatio="none" style="width:589px;height:352px;background:#F0F8FF;" version="1.1" viewBox="0 0 589 352" width="589px" zoomAndPan="magnify"><defs/><g><rect fill="#F0F8FF" height="352" style="stroke:none;stroke-width:1.0;" width="589" x="0" y="0"/><rect fill="#FFFFFF" height="215.1055" style="stroke:#181818;stroke-width:1.0;" width="10" x="247.4961" y="67.7988"/><rect fill="#FFFFFF" height="29.3105" style="stroke:#181818;stroke-width:1.0;" width="10" x="485.7065" y="97.1094"/><line style="stroke:#181818;stroke-width:0.5;stroke-dasharray:5.0,5.0;" x1="31" x2="31" y1="36.4883" y2="300.9043"/><line style="stroke:#181818;stroke-width:0.5;stroke-dasharray:5.0,5.0;" x1="252.2212" x2="252.2212" y1="36.4883" y2="300.9043"/><line style="stroke:#181818;stroke-width:0.5;stroke-dasharray:5.0,5.0;" x1="490.5498" x2="490.5498" y1="36.4883" y2="300.9043"/><rect fill="#DDDDDD" height="30.4883" rx="2.5" ry="2.5" style="stroke:#666666;stroke-width:0.5;" width="53.5049" x="5" y="5"/><text fill="#333333" font-family="sans-serif" font-size="14" lengthAdjust="spacing" textLength="39.5049" x="12" y="25.5352">Client</text><rect fill="#DDDDDD" height="30.4883" rx="2.5" ry="2.5" style="stroke:#666666;stroke-width:0.5;" width="53.5049" x="5" y="299.9043"/><text fill="#333333" font-family="sans-serif" font-size="14" lengthAdjust="spacing" textLength="39.5049" x="12" y="320.4395">Client</text><rect fill="#DDDDDD" height="30.4883" rx="2.5" ry="2.5" style="stroke:#666666;stroke-width:0.5;" width="86.5498" x="209.2212" y="5"/><text fill="#333333" font-family="sans-serif" font-size="14" lengthAdjust="spacing" textLength="72.5498" x="216.2212" y="25.5352">RPC Server</text><rect fill="#DDDDDD" height="30.4883" rx="2.5" ry="2.5" style="stroke:#666666;stroke-width:0.5;" width="86.5498" x="209.2212" y="299.9043"/><text fill="#333333" font-family="sans-serif" font-size="14" lengthAdjust="spacing" textLength="72.5498" x="216.2212" y="320.4395">RPC Server</text><rect fill="#DDDDDD" height="30.4883" rx="2.5" ry="2.5" style="stroke:#666666;stroke-width:0.5;" width="130.3135" x="425.5498" y="5"/><text fill="#333333" font-family="sans-serif" font-size="14" lengthAdjust="spacing" textLength="116.3135" x="432.5498" y="25.5352">Blockchain Client</text><rect fill="#DDDDDD" height="30.4883" rx="2.5" ry="2.5" style="stroke:#666666;stroke-width:0.5;" width="130.3135" x="425.5498" y="299.9043"/><text fill="#333333" font-family="sans-serif" font-size="14" lengthAdjust="spacing" textLength="116.3135" x="432.5498" y="320.4395">Blockchain Client</text><rect fill="#FFFFFF" height="215.1055" style="stroke:#181818;stroke-width:1.0;" width="10" x="247.4961" y="67.7988"/><rect fill="#FFFFFF" height="29.3105" style="stroke:#181818;stroke-width:1.0;" width="10" x="485.7065" y="97.1094"/><polygon fill="#666666" points="235.4961,63.7988,245.4961,67.7988,235.4961,71.7988,239.4961,67.7988" style="stroke:#666666;stroke-width:1.0;"/><line style="stroke:#666666;stroke-width:1.0;" x1="31.7524" x2="241.4961" y1="67.7988" y2="67.7988"/><text fill="#333333" font-family="sans-serif" font-size="13" lengthAdjust="spacing" textLength="180.4131" x="38.7524" y="63.0566">Request: GetBlockchainInfo()</text><polygon fill="#666666" points="473.7065,93.1094,483.7065,97.1094,473.7065,101.1094,477.7065,97.1094" style="stroke:#666666;stroke-width:1.0;"/><line style="stroke:#666666;stroke-width:1.0;" x1="257.4961" x2="479.7065" y1="97.1094" y2="97.1094"/><text fill="#333333" font-family="sans-serif" font-size="13" lengthAdjust="spacing" textLength="134.3608" x="264.4961" y="92.3672">GetBestBlockHeader()</text><polygon fill="#666666" points="268.4961,122.4199,258.4961,126.4199,268.4961,130.4199,264.4961,126.4199" style="stroke:#666666;stroke-width:1.0;"/><line style="stroke:#666666;stroke-width:1.0;stroke-dasharray:2.0,2.0;" x1="262.4961" x2="489.7065" y1="126.4199" y2="126.4199"/><text fill="#333333" font-family="sans-serif" font-size="13" lengthAdjust="spacing" textLength="204.2104" x="274.4961" y="121.6777">bestBlockHeader, bestBlockMeta</text><line style="stroke:#666666;stroke-width:1.0;" x1="257.4961" x2="299.4961" y1="198.1621" y2="198.1621"/><line style="stroke:#666666;stroke-width:1.0;" x1="299.4961" x2="299.4961" y1="198.1621" y2="211.1621"/><line style="stroke:#666666;stroke-width:1.0;" x1="258.4961" x2="299.4961" y1="211.1621" y2="211.1621"/><polygon fill="#666666" points="268.4961,207.1621,258.4961,211.1621,268.4961,215.1621,264.4961,211.1621" style="stroke:#666666;stroke-width:1.0;"/><text fill="#333333" font-family="sans-serif" font-size="13" lengthAdjust="spacing" textLength="165.8516" x="264.4961" y="193.4199">Construct response object</text><path d="M451.8516,139.4199 L451.8516,256.4199 L582.8516,256.4199 L582.8516,149.4199 L572.8516,139.4199 L451.8516,139.4199 " fill="#FEFFDD" style="stroke:#181818;stroke-width:0.5;"/><path d="M572.8516,139.4199 L572.8516,149.4199 L582.8516,149.4199 L572.8516,139.4199 " fill="#FEFFDD" style="stroke:#181818;stroke-width:0.5;"/><text fill="#333333" font-family="sans-serif" font-size="13" lengthAdjust="spacing" textLength="84.1064" x="457.8516" y="156.9883">- chain name</text><text fill="#333333" font-family="sans-serif" font-size="13" lengthAdjust="spacing" textLength="85.5728" x="457.8516" y="172.2988">- block count</text><text fill="#333333" font-family="sans-serif" font-size="13" lengthAdjust="spacing" textLength="61.4961" x="457.8516" y="187.6094">- headers</text><text fill="#333333" font-family="sans-serif" font-size="13" lengthAdjust="spacing" textLength="110.8999" x="457.8516" y="202.9199">- best block hash</text><text fill="#333333" font-family="sans-serif" font-size="13" lengthAdjust="spacing" textLength="67.0313" x="457.8516" y="218.2305">- difficulty</text><text fill="#333333" font-family="sans-serif" font-size="13" lengthAdjust="spacing" textLength="76.2861" x="457.8516" y="233.541">- chainwork</text><text fill="#333333" font-family="sans-serif" font-size="13" lengthAdjust="spacing" textLength="108.0498" x="457.8516" y="248.8516">- other metadata</text><polygon fill="#666666" points="42.7524,278.9043,32.7524,282.9043,42.7524,286.9043,38.7524,282.9043" style="stroke:#666666;stroke-width:1.0;"/><line style="stroke:#666666;stroke-width:1.0;" x1="36.7524" x2="251.4961" y1="282.9043" y2="282.9043"/><text fill="#333333" font-family="sans-serif" font-size="13" lengthAdjust="spacing" textLength="191.7437" x="48.7524" y="278.1621">Response with blockchain info</text><text fill="#333333" font-family="sans-serif" font-size="10" lengthAdjust="spacing" textLength="155.4346" x="0" y="342.0605">Last Modified On: 24-Feb-2025</text><!--SRC=[fLBDQjmm4BxhAOODfGd4K2Y4ieSUii5feQOXVOAnD8wLrKfRQPnb2NdtZcLdLnjwIdGmdc_c-z7OQMtz5YDke4MzVeXXy6OLN8XmLd-flzMrIeS9GnqEZklWUHxvcaynWZ66tToyoaUfpt13dVK4ROY6Oe9EkkWSaACDUKu5NqhBUtXM0DTv-bHBqBSfR_9HBwfGqP8m1lTH6NcorNQBdjydfLGfiN9MhdS2BUxlLl27uXF51M02AK_xroxejUxH-fcUnuweKXCCrVUH34kufxy39Lx2BV5nxgVlmlc5Gits2PcoaHe9mYiy9fRGC_Q3KEvRqWhZWbKTpDjJwkKHQ8XH6VgVqckEIM8LVE8uQ8P8QIi5GMWVIRFoGNZHFlIiAfYSFMv8YdOKawy- -B7LP-yquk8-DtjClI36TftLyXFlNpLs8QxbFN1F4JQIqg0a9MzWz3k4czSyxdTEjRFSJ-9J5YihBc-OL-oeO_dVHId2BvGqJP08bWpyzalu95vqlZ2cQfgcsijPNAX_]--></g></svg>
