<svg xmlns="http://www.w3.org/2000/svg" xmlns:xlink="http://www.w3.org/1999/xlink" contentStyleType="text/css" height="724px" preserveAspectRatio="none" style="width:808px;height:724px;background:#F0F8FF;" version="1.1" viewBox="0 0 808 724" width="808px" zoomAndPan="magnify"><defs/><g><rect fill="#F0F8FF" height="724" style="stroke:none;stroke-width:1.0;" width="808" x="0" y="0"/><rect fill="#FFFFFF" height="595.4102" style="stroke:#181818;stroke-width:1.0;" width="10" x="304.3174" y="67.7988"/><rect fill="#FFFFFF" height="29.3105" style="stroke:#181818;stroke-width:1.0;" width="10" x="467.7334" y="97.1094"/><rect fill="#FFFFFF" height="29.3105" style="stroke:#181818;stroke-width:1.0;" width="10" x="598.4355" y="224.3066"/><rect fill="#FFFFFF" height="29.3105" style="stroke:#181818;stroke-width:1.0;" width="10" x="722.2607" y="351.5039"/><rect fill="#FFFFFF" height="29.3105" style="stroke:#181818;stroke-width:1.0;" width="10" x="722.2607" y="478.7012"/><rect fill="none" height="514.7891" style="stroke:#000000;stroke-width:1.5;" width="791.1338" x="10" y="141.4199"/><rect fill="none" height="380.5918" style="stroke:#000000;stroke-width:1.5;" width="771.1338" x="20" y="268.6172"/><rect fill="none" height="246.3945" style="stroke:#000000;stroke-width:1.5;" width="751.1338" x="30" y="395.8145"/><rect fill="none" height="112.1973" style="stroke:#000000;stroke-width:1.5;" width="620.4829" x="40" y="523.0117"/><line style="stroke:#181818;stroke-width:0.5;stroke-dasharray:5.0,5.0;" x1="76" x2="76" y1="36.4883" y2="673.209"/><line style="stroke:#181818;stroke-width:0.5;stroke-dasharray:5.0,5.0;" x1="309.0425" x2="309.0425" y1="36.4883" y2="673.209"/><line style="stroke:#181818;stroke-width:0.5;stroke-dasharray:5.0,5.0;" x1="471.9834" x2="471.9834" y1="36.4883" y2="673.209"/><line style="stroke:#181818;stroke-width:0.5;stroke-dasharray:5.0,5.0;" x1="602.4834" x2="602.4834" y1="36.4883" y2="673.209"/><line style="stroke:#181818;stroke-width:0.5;stroke-dasharray:5.0,5.0;" x1="726.3877" x2="726.3877" y1="36.4883" y2="673.209"/><rect fill="#DDDDDD" height="30.4883" rx="2.5" ry="2.5" style="stroke:#666666;stroke-width:0.5;" width="53.5049" x="50" y="5"/><text fill="#333333" font-family="sans-serif" font-size="14" lengthAdjust="spacing" textLength="39.5049" x="57" y="25.5352">Client</text><rect fill="#DDDDDD" height="30.4883" rx="2.5" ry="2.5" style="stroke:#666666;stroke-width:0.5;" width="53.5049" x="50" y="672.209"/><text fill="#333333" font-family="sans-serif" font-size="14" lengthAdjust="spacing" textLength="39.5049" x="57" y="692.7441">Client</text><rect fill="#DDDDDD" height="30.4883" rx="2.5" ry="2.5" style="stroke:#666666;stroke-width:0.5;" width="86.5498" x="266.0425" y="5"/><text fill="#333333" font-family="sans-serif" font-size="14" lengthAdjust="spacing" textLength="72.5498" x="273.0425" y="25.5352">RPC Server</text><rect fill="#DDDDDD" height="30.4883" rx="2.5" ry="2.5" style="stroke:#666666;stroke-width:0.5;" width="86.5498" x="266.0425" y="672.209"/><text fill="#333333" font-family="sans-serif" font-size="14" lengthAdjust="spacing" textLength="72.5498" x="273.0425" y="692.7441">RPC Server</text><rect fill="#DDDDDD" height="30.4883" rx="2.5" ry="2.5" style="stroke:#666666;stroke-width:0.5;" width="101.5" x="421.9834" y="5"/><text fill="#333333" font-family="sans-serif" font-size="14" lengthAdjust="spacing" textLength="87.5" x="428.9834" y="25.5352">Hex Decoder</text><rect fill="#DDDDDD" height="30.4883" rx="2.5" ry="2.5" style="stroke:#666666;stroke-width:0.5;" width="101.5" x="421.9834" y="672.209"/><text fill="#333333" font-family="sans-serif" font-size="14" lengthAdjust="spacing" textLength="87.5" x="428.9834" y="692.7441">Hex Decoder</text><rect fill="#DDDDDD" height="30.4883" rx="2.5" ry="2.5" style="stroke:#666666;stroke-width:0.5;" width="139.9043" x="533.4834" y="5"/><text fill="#333333" font-family="sans-serif" font-size="14" lengthAdjust="spacing" textLength="125.9043" x="540.4834" y="25.5352">Transaction Parser</text><rect fill="#DDDDDD" height="30.4883" rx="2.5" ry="2.5" style="stroke:#666666;stroke-width:0.5;" width="139.9043" x="533.4834" y="672.209"/><text fill="#333333" font-family="sans-serif" font-size="14" lengthAdjust="spacing" textLength="125.9043" x="540.4834" y="692.7441">Transaction Parser</text><rect fill="#DDDDDD" height="30.4883" rx="2.5" ry="2.5" style="stroke:#666666;stroke-width:0.5;" width="87.7461" x="683.3877" y="5"/><text fill="#333333" font-family="sans-serif" font-size="14" lengthAdjust="spacing" textLength="73.7461" x="690.3877" y="25.5352">Distributor</text><rect fill="#DDDDDD" height="30.4883" rx="2.5" ry="2.5" style="stroke:#666666;stroke-width:0.5;" width="87.7461" x="683.3877" y="672.209"/><text fill="#333333" font-family="sans-serif" font-size="14" lengthAdjust="spacing" textLength="73.7461" x="690.3877" y="692.7441">Distributor</text><rect fill="#FFFFFF" height="595.4102" style="stroke:#181818;stroke-width:1.0;" width="10" x="304.3174" y="67.7988"/><rect fill="#FFFFFF" height="29.3105" style="stroke:#181818;stroke-width:1.0;" width="10" x="467.7334" y="97.1094"/><rect fill="#FFFFFF" height="29.3105" style="stroke:#181818;stroke-width:1.0;" width="10" x="598.4355" y="224.3066"/><rect fill="#FFFFFF" height="29.3105" style="stroke:#181818;stroke-width:1.0;" width="10" x="722.2607" y="351.5039"/><rect fill="#FFFFFF" height="29.3105" style="stroke:#181818;stroke-width:1.0;" width="10" x="722.2607" y="478.7012"/><polygon fill="#666666" points="292.3174,63.7988,302.3174,67.7988,292.3174,71.7988,296.3174,67.7988" style="stroke:#666666;stroke-width:1.0;"/><line style="stroke:#666666;stroke-width:1.0;" x1="76.7524" x2="298.3174" y1="67.7988" y2="67.7988"/><text fill="#333333" font-family="sans-serif" font-size="13" lengthAdjust="spacing" textLength="208.5649" x="83.7524" y="63.0566">SendRawTransactionCmd(HexTx)</text><polygon fill="#666666" points="455.7334,93.1094,465.7334,97.1094,455.7334,101.1094,459.7334,97.1094" style="stroke:#666666;stroke-width:1.0;"/><line style="stroke:#666666;stroke-width:1.0;" x1="314.3174" x2="461.7334" y1="97.1094" y2="97.1094"/><text fill="#333333" font-family="sans-serif" font-size="13" lengthAdjust="spacing" textLength="115.2988" x="321.3174" y="92.3672">Decode hex string</text><polygon fill="#666666" points="325.3174,122.4199,315.3174,126.4199,325.3174,130.4199,321.3174,126.4199" style="stroke:#666666;stroke-width:1.0;"/><line style="stroke:#666666;stroke-width:1.0;" x1="319.3174" x2="471.7334" y1="126.4199" y2="126.4199"/><text fill="#333333" font-family="sans-serif" font-size="13" lengthAdjust="spacing" textLength="129.416" x="331.3174" y="121.6777">return bytes or error</text><path d="M10,141.4199 L72.1387,141.4199 L72.1387,148.7305 L62.1387,158.7305 L10,158.7305 L10,141.4199 " fill="#EEEEEE" style="stroke:#000000;stroke-width:1.5;"/><rect fill="none" height="514.7891" style="stroke:#000000;stroke-width:1.5;" width="791.1338" x="10" y="141.4199"/><text fill="#333333" font-family="sans-serif" font-size="13" font-weight="bold" lengthAdjust="spacing" textLength="17.1387" x="25" y="154.9883">alt</text><text fill="#333333" font-family="sans-serif" font-size="11" font-weight="bold" lengthAdjust="spacing" textLength="128.3154" x="87.1387" y="154.0547">[If Hex Decoding Fails]</text><polygon fill="#666666" points="87.7524,176.041,77.7524,180.041,87.7524,184.041,83.7524,180.041" style="stroke:#666666;stroke-width:1.0;"/><line style="stroke:#666666;stroke-width:1.0;" x1="81.7524" x2="303.3174" y1="180.041" y2="180.041"/><text fill="#333333" font-family="sans-serif" font-size="13" lengthAdjust="spacing" textLength="168.8604" x="93.7524" y="175.2988">Return rpcDecodeHexError</text><line style="stroke:#000000;stroke-width:1.0;stroke-dasharray:2.0,2.0;" x1="10" x2="801.1338" y1="189.041" y2="189.041"/><text fill="#333333" font-family="sans-serif" font-size="11" font-weight="bold" lengthAdjust="spacing" textLength="153.7744" x="15" y="199.6758">[If Hex Decoding Succeeds]</text><polygon fill="#666666" points="586.4355,220.3066,596.4355,224.3066,586.4355,228.3066,590.4355,224.3066" style="stroke:#666666;stroke-width:1.0;"/><line style="stroke:#666666;stroke-width:1.0;" x1="314.3174" x2="592.4355" y1="224.3066" y2="224.3066"/><text fill="#333333" font-family="sans-serif" font-size="13" lengthAdjust="spacing" textLength="180.3877" x="321.3174" y="219.5645">Parse transaction from bytes</text><polygon fill="#666666" points="325.3174,249.6172,315.3174,253.6172,325.3174,257.6172,321.3174,253.6172" style="stroke:#666666;stroke-width:1.0;"/><line style="stroke:#666666;stroke-width:1.0;" x1="319.3174" x2="602.4355" y1="253.6172" y2="253.6172"/><text fill="#333333" font-family="sans-serif" font-size="13" lengthAdjust="spacing" textLength="209.2759" x="331.3174" y="248.875">return transaction object or error</text><path d="M20,268.6172 L82.1387,268.6172 L82.1387,275.9277 L72.1387,285.9277 L20,285.9277 L20,268.6172 " fill="#EEEEEE" style="stroke:#000000;stroke-width:1.5;"/><rect fill="none" height="380.5918" style="stroke:#000000;stroke-width:1.5;" width="771.1338" x="20" y="268.6172"/><text fill="#333333" font-family="sans-serif" font-size="13" font-weight="bold" lengthAdjust="spacing" textLength="17.1387" x="35" y="282.1855">alt</text><text fill="#333333" font-family="sans-serif" font-size="11" font-weight="bold" lengthAdjust="spacing" textLength="92.2593" x="97.1387" y="281.252">[If Parsing Fails]</text><polygon fill="#666666" points="87.7524,303.2383,77.7524,307.2383,87.7524,311.2383,83.7524,307.2383" style="stroke:#666666;stroke-width:1.0;"/><line style="stroke:#666666;stroke-width:1.0;" x1="81.7524" x2="303.3174" y1="307.2383" y2="307.2383"/><text fill="#333333" font-family="sans-serif" font-size="13" lengthAdjust="spacing" textLength="181.9048" x="93.7524" y="302.4961">Return ErrRPCDeserialization</text><line style="stroke:#000000;stroke-width:1.0;stroke-dasharray:2.0,2.0;" x1="20" x2="791.1338" y1="316.2383" y2="316.2383"/><text fill="#333333" font-family="sans-serif" font-size="11" font-weight="bold" lengthAdjust="spacing" textLength="117.7183" x="25" y="326.873">[If Parsing Succeeds]</text><polygon fill="#666666" points="710.2607,347.5039,720.2607,351.5039,710.2607,355.5039,714.2607,351.5039" style="stroke:#666666;stroke-width:1.0;"/><line style="stroke:#666666;stroke-width:1.0;" x1="314.3174" x2="716.2607" y1="351.5039" y2="351.5039"/><text fill="#333333" font-family="sans-serif" font-size="13" lengthAdjust="spacing" textLength="126.1724" x="321.3174" y="346.7617">Initialize Distributor</text><polygon fill="#666666" points="325.3174,376.8145,315.3174,380.8145,325.3174,384.8145,321.3174,380.8145" style="stroke:#666666;stroke-width:1.0;"/><line style="stroke:#666666;stroke-width:1.0;" x1="319.3174" x2="726.2607" y1="380.8145" y2="380.8145"/><text fill="#333333" font-family="sans-serif" font-size="13" lengthAdjust="spacing" textLength="219.21" x="331.3174" y="376.0723">return distributor instance or error</text><path d="M30,395.8145 L92.1387,395.8145 L92.1387,403.125 L82.1387,413.125 L30,413.125 L30,395.8145 " fill="#EEEEEE" style="stroke:#000000;stroke-width:1.5;"/><rect fill="none" height="246.3945" style="stroke:#000000;stroke-width:1.5;" width="751.1338" x="30" y="395.8145"/><text fill="#333333" font-family="sans-serif" font-size="13" font-weight="bold" lengthAdjust="spacing" textLength="17.1387" x="45" y="409.3828">alt</text><text fill="#333333" font-family="sans-serif" font-size="11" font-weight="bold" lengthAdjust="spacing" textLength="187.3008" x="107.1387" y="408.4492">[If Distributor Initialization Fails]</text><polygon fill="#666666" points="87.7524,430.4355,77.7524,434.4355,87.7524,438.4355,83.7524,434.4355" style="stroke:#666666;stroke-width:1.0;"/><line style="stroke:#666666;stroke-width:1.0;" x1="81.7524" x2="303.3174" y1="434.4355" y2="434.4355"/><text fill="#333333" font-family="sans-serif" font-size="13" lengthAdjust="spacing" textLength="159.396" x="93.7524" y="429.6934">Return initialization error</text><line style="stroke:#000000;stroke-width:1.0;stroke-dasharray:2.0,2.0;" x1="30" x2="781.1338" y1="443.4355" y2="443.4355"/><text fill="#333333" font-family="sans-serif" font-size="11" font-weight="bold" lengthAdjust="spacing" textLength="146.5825" x="35" y="454.0703">[If Initialization Succeeds]</text><polygon fill="#666666" points="710.2607,474.7012,720.2607,478.7012,710.2607,482.7012,714.2607,478.7012" style="stroke:#666666;stroke-width:1.0;"/><line style="stroke:#666666;stroke-width:1.0;" x1="314.3174" x2="716.2607" y1="478.7012" y2="478.7012"/><text fill="#333333" font-family="sans-serif" font-size="13" lengthAdjust="spacing" textLength="181.5874" x="321.3174" y="473.959">SendTransaction(context, tx)</text><polygon fill="#666666" points="325.3174,504.0117,315.3174,508.0117,325.3174,512.0117,321.3174,508.0117" style="stroke:#666666;stroke-width:1.0;"/><line style="stroke:#666666;stroke-width:1.0;" x1="319.3174" x2="726.2607" y1="508.0117" y2="508.0117"/><text fill="#333333" font-family="sans-serif" font-size="13" lengthAdjust="spacing" textLength="217.8071" x="331.3174" y="503.2695">return result or broadcasting error</text><path d="M40,523.0117 L102.1387,523.0117 L102.1387,530.3223 L92.1387,540.3223 L40,540.3223 L40,523.0117 " fill="#EEEEEE" style="stroke:#000000;stroke-width:1.5;"/><rect fill="none" height="112.1973" style="stroke:#000000;stroke-width:1.5;" width="620.4829" x="40" y="523.0117"/><text fill="#333333" font-family="sans-serif" font-size="13" font-weight="bold" lengthAdjust="spacing" textLength="17.1387" x="55" y="536.5801">alt</text><text fill="#333333" font-family="sans-serif" font-size="11" font-weight="bold" lengthAdjust="spacing" textLength="123.5352" x="117.1387" y="535.6465">[If Broadcasting Fails]</text><polygon fill="#666666" points="87.7524,557.6328,77.7524,561.6328,87.7524,565.6328,83.7524,561.6328" style="stroke:#666666;stroke-width:1.0;"/><line style="stroke:#666666;stroke-width:1.0;" x1="81.7524" x2="303.3174" y1="561.6328" y2="561.6328"/><text fill="#333333" font-family="sans-serif" font-size="13" lengthAdjust="spacing" textLength="193.064" x="93.7524" y="556.8906">Return ErrRPCInvalidParameter</text><line style="stroke:#000000;stroke-width:1.0;stroke-dasharray:2.0,2.0;" x1="40" x2="660.4829" y1="570.6328" y2="570.6328"/><text fill="#333333" font-family="sans-serif" font-size="11" font-weight="bold" lengthAdjust="spacing" textLength="148.9941" x="45" y="581.2676">[If Broadcasting Succeeds]</text><polygon fill="#666666" points="87.7524,612.5537,77.7524,616.5537,87.7524,620.5537,83.7524,616.5537" style="stroke:#666666;stroke-width:1.0;"/><line style="stroke:#666666;stroke-width:1.0;" x1="81.7524" x2="303.3174" y1="616.5537" y2="616.5537"/><text fill="#333333" font-family="sans-serif" font-size="13" lengthAdjust="spacing" textLength="156.4507" x="93.7524" y="611.8115">Return transaction result</text><path d="M319,589.5879 L319,629.5879 L650,629.5879 L650,599.5879 L640,589.5879 L319,589.5879 " fill="#FEFFDD" style="stroke:#181818;stroke-width:0.5;"/><path d="M640,589.5879 L640,599.5879 L650,599.5879 L640,589.5879 " fill="#FEFFDD" style="stroke:#181818;stroke-width:0.5;"/><text fill="#333333" font-family="sans-serif" font-size="13" lengthAdjust="spacing" textLength="102.7686" x="325" y="607.1563">Response fields:</text><text fill="#333333" font-family="sans-serif" font-size="13" lengthAdjust="spacing" textLength="310.1655" x="325" y="622.4668">- Returns transaction ID of broadcast transaction</text><text fill="#333333" font-family="sans-serif" font-size="10" lengthAdjust="spacing" textLength="155.4346" x="0" y="714.3652">Last Modified On: 24-Feb-2025</text><!--SRC=[fLLTYnen57tFhxXOIbseK2YKuaCVLYiLAXLt_q2St77JZOaaqTMM_lVUP3AQp6pTqWwecTnxpZttv4FtAFMEMxw5DQyUDzRijPWOPIoychsRVPpDc3jd2ApvNlcPqJwbl8zFbiAjDKyf-24-ZBs1ATPI8woD5MWTr1JbIW4gtABsBiFJg_Gd-Ca0RcDsoKMpNPNJ-B1VB6EfIA4rwdzfwDlBIkwuzlz6nLXECL6IsYkc1glb1ExG7j0EW3kWrpB-1O_aNcL4IaZZCkdUSkruvQNHiEJMfTncMAPEfVDMhlVU9BxBEsEDG1Xz2ZfWJCAqMF6dZ7wo5KEIT7-yOM7Ym3r6pIm029Va4ROPmGFf3nNqvW9eUsYJp_Ki-htLi3vvT41E8cqcomJsa8mh3_CQpkuGFyouL8xM0o29IUsCOTNmsbtL413iSwH6vR37SxUlAaHHK3LM4bKSWCyChwtPDf8ZuAmrkH_c4hhRPyvYrj-nyfUc0onhF94r5PhUmrJPzfNMgLsAJ95895Vo1mz58wYreAKhkiyOiur2j7CjVIJ2OWUrcCk2FHFCcRgMY2mcjVDSLrYQqZ6csB_dyer3UQ6puDXvnxGhniaIL-felUkGzopyeutXW6MdQnZkBJpwj-3fWENeguQ-PAf5HxTsi75j3HSLTpwiTDdBt_YQUNkRC_NTV74hplM131FBSC-Ynr97wsjHv5bNhzJ9JrVZG0-f3NLgvUQX7rgXsnbDCcg9IhXnBs6KwhYYq7mAfhxOdCTw3BJsKG7hJBBkEFo6JtuJnajNOUtfpvGuB7mDvHPqWv5W0T_q65uBIXmEX1Wj5elHYPx13ViD]--></g></svg>
