<svg xmlns="http://www.w3.org/2000/svg" xmlns:xlink="http://www.w3.org/1999/xlink" contentStyleType="text/css" height="288px" preserveAspectRatio="none" style="width:525px;height:288px;background:#F0F8FF;" version="1.1" viewBox="0 0 525 288" width="525px" zoomAndPan="magnify"><defs/><g><rect fill="#F0F8FF" height="288" style="stroke:none;stroke-width:1.0;" width="525" x="0" y="0"/><rect fill="#FFFFFF" height="160.5527" style="stroke:#181818;stroke-width:1.0;" width="10" x="244.3433" y="67.7988"/><rect fill="#FFFFFF" height="103.5869" style="stroke:#181818;stroke-width:1.0;" width="10" x="249.3433" y="105.1094"/><rect fill="#FFFFFF" height="29.3105" style="stroke:#181818;stroke-width:1.0;" width="10" x="488.6538" y="139.4199"/><line style="stroke:#181818;stroke-width:0.5;stroke-dasharray:5.0,5.0;" x1="31" x2="31" y1="36.4883" y2="237.3516"/><line style="stroke:#181818;stroke-width:0.5;stroke-dasharray:5.0,5.0;" x1="249.0684" x2="249.0684" y1="36.4883" y2="237.3516"/><line style="stroke:#181818;stroke-width:0.5;stroke-dasharray:5.0,5.0;" x1="493.4927" x2="493.4927" y1="36.4883" y2="237.3516"/><rect fill="#DDDDDD" height="30.4883" rx="2.5" ry="2.5" style="stroke:#666666;stroke-width:0.5;" width="53.5049" x="5" y="5"/><text fill="#333333" font-family="sans-serif" font-size="14" lengthAdjust="spacing" textLength="39.5049" x="12" y="25.5352">Client</text><rect fill="#DDDDDD" height="30.4883" rx="2.5" ry="2.5" style="stroke:#666666;stroke-width:0.5;" width="53.5049" x="5" y="236.3516"/><text fill="#333333" font-family="sans-serif" font-size="14" lengthAdjust="spacing" textLength="39.5049" x="12" y="256.8867">Client</text><rect fill="#DDDDDD" height="30.4883" rx="2.5" ry="2.5" style="stroke:#666666;stroke-width:0.5;" width="86.5498" x="206.0684" y="5"/><text fill="#333333" font-family="sans-serif" font-size="14" lengthAdjust="spacing" textLength="72.5498" x="213.0684" y="25.5352">RPC Server</text><rect fill="#DDDDDD" height="30.4883" rx="2.5" ry="2.5" style="stroke:#666666;stroke-width:0.5;" width="86.5498" x="206.0684" y="236.3516"/><text fill="#333333" font-family="sans-serif" font-size="14" lengthAdjust="spacing" textLength="72.5498" x="213.0684" y="256.8867">RPC Server</text><rect fill="#DDDDDD" height="30.4883" rx="2.5" ry="2.5" style="stroke:#666666;stroke-width:0.5;" width="52.3223" x="467.4927" y="5"/><text fill="#333333" font-family="sans-serif" font-size="14" lengthAdjust="spacing" textLength="38.3223" x="474.4927" y="25.5352">Miner</text><rect fill="#DDDDDD" height="30.4883" rx="2.5" ry="2.5" style="stroke:#666666;stroke-width:0.5;" width="52.3223" x="467.4927" y="236.3516"/><text fill="#333333" font-family="sans-serif" font-size="14" lengthAdjust="spacing" textLength="38.3223" x="474.4927" y="256.8867">Miner</text><rect fill="#FFFFFF" height="160.5527" style="stroke:#181818;stroke-width:1.0;" width="10" x="244.3433" y="67.7988"/><rect fill="#FFFFFF" height="103.5869" style="stroke:#181818;stroke-width:1.0;" width="10" x="249.3433" y="105.1094"/><rect fill="#FFFFFF" height="29.3105" style="stroke:#181818;stroke-width:1.0;" width="10" x="488.6538" y="139.4199"/><polygon fill="#666666" points="232.3433,63.7988,242.3433,67.7988,232.3433,71.7988,236.3433,67.7988" style="stroke:#666666;stroke-width:1.0;"/><line style="stroke:#666666;stroke-width:1.0;" x1="31.7524" x2="238.3433" y1="67.7988" y2="67.7988"/><text fill="#333333" font-family="sans-serif" font-size="13" lengthAdjust="spacing" textLength="193.5908" x="38.7524" y="63.0566">Request: Generate(NumBlocks)</text><line style="stroke:#666666;stroke-width:1.0;" x1="254.3433" x2="301.3433" y1="92.1094" y2="92.1094"/><line style="stroke:#666666;stroke-width:1.0;" x1="301.3433" x2="301.3433" y1="92.1094" y2="105.1094"/><line style="stroke:#666666;stroke-width:1.0;" x1="260.3433" x2="301.3433" y1="105.1094" y2="105.1094"/><polygon fill="#666666" points="270.3433,101.1094,260.3433,105.1094,270.3433,109.1094,266.3433,105.1094" style="stroke:#666666;stroke-width:1.0;"/><text fill="#333333" font-family="sans-serif" font-size="13" lengthAdjust="spacing" textLength="177.417" x="266.3433" y="87.3672">handleGenerate(NumBlocks)</text><polygon fill="#666666" points="476.6538,135.4199,486.6538,139.4199,476.6538,143.4199,480.6538,139.4199" style="stroke:#666666;stroke-width:1.0;"/><line style="stroke:#666666;stroke-width:1.0;" x1="259.3433" x2="482.6538" y1="139.4199" y2="139.4199"/><text fill="#333333" font-family="sans-serif" font-size="13" lengthAdjust="spacing" textLength="210.3105" x="266.3433" y="134.6777">HTTP /mine?blocks=(NumBlocks)</text><polygon fill="#666666" points="270.3433,164.7305,260.3433,168.7305,270.3433,172.7305,266.3433,168.7305" style="stroke:#666666;stroke-width:1.0;"/><line style="stroke:#666666;stroke-width:1.0;stroke-dasharray:2.0,2.0;" x1="264.3433" x2="492.6538" y1="168.7305" y2="168.7305"/><text fill="#333333" font-family="sans-serif" font-size="13" lengthAdjust="spacing" textLength="92.0093" x="276.3433" y="163.9883">Acknowledged</text><polygon fill="#666666" points="42.7524,204.6963,32.7524,208.6963,42.7524,212.6963,38.7524,208.6963" style="stroke:#666666;stroke-width:1.0;"/><line style="stroke:#666666;stroke-width:1.0;" x1="36.7524" x2="243.3433" y1="208.6963" y2="208.6963"/><text fill="#333333" font-family="sans-serif" font-size="13" lengthAdjust="spacing" textLength="92.0093" x="48.7524" y="203.9541">Acknowledged</text><path d="M264,181.7305 L264,221.7305 L437,221.7305 L437,191.7305 L427,181.7305 L264,181.7305 " fill="#FEFFDD" style="stroke:#181818;stroke-width:0.5;"/><path d="M427,181.7305 L427,191.7305 L437,191.7305 L427,181.7305 " fill="#FEFFDD" style="stroke:#181818;stroke-width:0.5;"/><text fill="#333333" font-family="sans-serif" font-size="13" lengthAdjust="spacing" textLength="102.7686" x="270" y="199.2988">Response fields:</text><text fill="#333333" font-family="sans-serif" font-size="13" lengthAdjust="spacing" textLength="152.5278" x="270" y="214.6094">- Returns nil on success</text><text fill="#333333" font-family="sans-serif" font-size="10" lengthAdjust="spacing" textLength="155.4346" x="0" y="278.5078">Last Modified On: 24-Feb-2025</text><!--SRC=[fLBDIWCn4BxFKmmLqHuM1K6ae69RLW-kbjeNI9FPDZHDQf9jAUAxEvkjPLiyYCuXxCptCpziM6Yx4buiSIhaOkPTPTN06UVn9B_CR_8SmfwXg1ILYRcpSKUvIj6Y2E_TPWTUfm0umo6LsX9EdLVa0vQC2cEG32t9nj3ISwhZ5Zy0iP_OXrvSFPvoc08-eUKYUKBlp7zj-8rQwfMmyMzM06sBWT6yta6fCnuDy8tycdm7HK1E3_62xzP0wGkWCS7ihkPY3yVqNb68FNmanaMayvTgsJTEBa8NX8nwpRNa2xLWhviBgmpzMfIwi-nfCXdXnPAp-sdYt_ueROPjHDc-vuDSMBSnf6QaGD4H-xlLRiCZkdLCz7esZp2ci78s49QQZ0ezoFWAiV8seDK6dSLGIKaX05c5jH3QtT9QXih8_o5Z7fz5Y5WufTbFuQljuQcgRz9HAYkA8jjoTBhm1G00]--></g></svg>
