<svg xmlns="http://www.w3.org/2000/svg" xmlns:xlink="http://www.w3.org/1999/xlink" contentStyleType="text/css" height="482px" preserveAspectRatio="none" style="width:848px;height:482px;background:#F0F8FF;" version="1.1" viewBox="0 0 848 482" width="848px" zoomAndPan="magnify"><defs/><g><rect fill="#F0F8FF" height="482" style="stroke:none;stroke-width:1.0;" width="848" x="0" y="0"/><rect fill="#FFFFFF" height="327.0264" style="stroke:#181818;stroke-width:1.0;" width="10" x="225.7368" y="93.7646"/><rect fill="#FFFFFF" height="137.8525" style="stroke:#181818;stroke-width:1.0;" width="10" x="436.9717" y="159.6963"/><rect fill="none" height="228.4395" style="stroke:#000000;stroke-width:1.5;" width="831.6104" x="10" y="185.3516"/><line style="stroke:#181818;stroke-width:0.5;stroke-dasharray:5.0,5.0;" x1="46" x2="46" y1="36.4883" y2="430.791"/><line style="stroke:#181818;stroke-width:0.5;stroke-dasharray:5.0,5.0;" x1="230.4619" x2="230.4619" y1="36.4883" y2="430.791"/><line style="stroke:#181818;stroke-width:0.5;stroke-dasharray:5.0,5.0;" x1="441.8149" x2="441.8149" y1="36.4883" y2="430.791"/><rect fill="#DDDDDD" height="30.4883" rx="2.5" ry="2.5" style="stroke:#666666;stroke-width:0.5;" width="53.5049" x="20" y="5"/><text fill="#333333" font-family="sans-serif" font-size="14" lengthAdjust="spacing" textLength="39.5049" x="27" y="25.5352">Client</text><rect fill="#DDDDDD" height="30.4883" rx="2.5" ry="2.5" style="stroke:#666666;stroke-width:0.5;" width="53.5049" x="20" y="429.791"/><text fill="#333333" font-family="sans-serif" font-size="14" lengthAdjust="spacing" textLength="39.5049" x="27" y="450.3262">Client</text><rect fill="#DDDDDD" height="30.4883" rx="2.5" ry="2.5" style="stroke:#666666;stroke-width:0.5;" width="86.5498" x="187.4619" y="5"/><text fill="#333333" font-family="sans-serif" font-size="14" lengthAdjust="spacing" textLength="72.5498" x="194.4619" y="25.5352">RPC Server</text><rect fill="#DDDDDD" height="30.4883" rx="2.5" ry="2.5" style="stroke:#666666;stroke-width:0.5;" width="86.5498" x="187.4619" y="429.791"/><text fill="#333333" font-family="sans-serif" font-size="14" lengthAdjust="spacing" textLength="72.5498" x="194.4619" y="450.3262">RPC Server</text><rect fill="#DDDDDD" height="30.4883" rx="2.5" ry="2.5" style="stroke:#666666;stroke-width:0.5;" width="130.3135" x="376.8149" y="5"/><text fill="#333333" font-family="sans-serif" font-size="14" lengthAdjust="spacing" textLength="116.3135" x="383.8149" y="25.5352">Blockchain Client</text><rect fill="#DDDDDD" height="30.4883" rx="2.5" ry="2.5" style="stroke:#666666;stroke-width:0.5;" width="130.3135" x="376.8149" y="429.791"/><text fill="#333333" font-family="sans-serif" font-size="14" lengthAdjust="spacing" textLength="116.3135" x="383.8149" y="450.3262">Blockchain Client</text><rect fill="#FFFFFF" height="327.0264" style="stroke:#181818;stroke-width:1.0;" width="10" x="225.7368" y="93.7646"/><rect fill="#FFFFFF" height="137.8525" style="stroke:#181818;stroke-width:1.0;" width="10" x="436.9717" y="159.6963"/><polygon fill="#666666" points="213.7368,89.7646,223.7368,93.7646,213.7368,97.7646,217.7368,93.7646" style="stroke:#666666;stroke-width:1.0;"/><line style="stroke:#666666;stroke-width:1.0;" x1="46.7524" x2="219.7368" y1="93.7646" y2="93.7646"/><text fill="#333333" font-family="sans-serif" font-size="13" lengthAdjust="spacing" textLength="159.396" x="53.7524" y="89.0225">GetBlockHashCmd(index)</text><path d="M240,51.4883 L240,122.4883 L552,122.4883 L552,61.4883 L542,51.4883 L240,51.4883 " fill="#FEFFDD" style="stroke:#181818;stroke-width:0.5;"/><path d="M542,51.4883 L542,61.4883 L552,61.4883 L542,51.4883 " fill="#FEFFDD" style="stroke:#181818;stroke-width:0.5;"/><text fill="#333333" font-family="sans-serif" font-size="13" lengthAdjust="spacing" textLength="45.3604" x="246" y="69.0566">Traces:</text><text fill="#333333" font-family="sans-serif" font-size="13" lengthAdjust="spacing" textLength="108.0244" x="246" y="84.3672">- Parent: RPCStat</text><text fill="#333333" font-family="sans-serif" font-size="13" lengthAdjust="spacing" textLength="291.5098" x="246" y="99.6777">- Histogram: prometheusHandleGetBlockHash</text><text fill="#333333" font-family="sans-serif" font-size="13" lengthAdjust="spacing" textLength="230.8452" x="246" y="114.9883">- Log: "[handleGetBlockHash] called"</text><polygon fill="#666666" points="424.9717,155.6963,434.9717,159.6963,424.9717,163.6963,428.9717,159.6963" style="stroke:#666666;stroke-width:1.0;"/><line style="stroke:#666666;stroke-width:1.0;" x1="235.7368" x2="430.9717" y1="159.6963" y2="159.6963"/><text fill="#333333" font-family="sans-serif" font-size="13" lengthAdjust="spacing" textLength="182.2349" x="242.7368" y="154.9541">GetBlockByHeight(ctx, index)</text><path d="M451,132.7305 L451,172.7305 L659,172.7305 L659,142.7305 L649,132.7305 L451,132.7305 " fill="#FEFFDD" style="stroke:#181818;stroke-width:0.5;"/><path d="M649,132.7305 L649,142.7305 L659,142.7305 L649,132.7305 " fill="#FEFFDD" style="stroke:#181818;stroke-width:0.5;"/><text fill="#333333" font-family="sans-serif" font-size="13" lengthAdjust="spacing" textLength="105.8154" x="457" y="150.2988">Input parameter:</text><text fill="#333333" font-family="sans-serif" font-size="13" lengthAdjust="spacing" textLength="187.2495" x="457" y="165.6094">- index: uint32 (block height)</text><path d="M10,185.3516 L72.1387,185.3516 L72.1387,192.6621 L62.1387,202.6621 L10,202.6621 L10,185.3516 " fill="#EEEEEE" style="stroke:#000000;stroke-width:1.5;"/><rect fill="none" height="228.4395" style="stroke:#000000;stroke-width:1.5;" width="831.6104" x="10" y="185.3516"/><text fill="#333333" font-family="sans-serif" font-size="13" font-weight="bold" lengthAdjust="spacing" textLength="17.1387" x="25" y="198.9199">alt</text><text fill="#333333" font-family="sans-serif" font-size="11" font-weight="bold" lengthAdjust="spacing" textLength="133.8262" x="87.1387" y="197.9863">[If Block Retrieval Fails]</text><polygon fill="#666666" points="246.7368,219.9727,236.7368,223.9727,246.7368,227.9727,242.7368,223.9727" style="stroke:#666666;stroke-width:1.0;"/><line style="stroke:#666666;stroke-width:1.0;stroke-dasharray:2.0,2.0;" x1="240.7368" x2="435.9717" y1="223.9727" y2="223.9727"/><text fill="#333333" font-family="sans-serif" font-size="13" lengthAdjust="spacing" textLength="77.0796" x="252.7368" y="219.2305">Return error</text><polygon fill="#666666" points="57.7524,249.2832,47.7524,253.2832,57.7524,257.2832,53.7524,253.2832" style="stroke:#666666;stroke-width:1.0;"/><line style="stroke:#666666;stroke-width:1.0;" x1="51.7524" x2="224.7368" y1="253.2832" y2="253.2832"/><text fill="#333333" font-family="sans-serif" font-size="13" lengthAdjust="spacing" textLength="77.0796" x="63.7524" y="248.541">Return error</text><line style="stroke:#000000;stroke-width:1.0;stroke-dasharray:2.0,2.0;" x1="10" x2="841.6104" y1="262.2832" y2="262.2832"/><text fill="#333333" font-family="sans-serif" font-size="11" font-weight="bold" lengthAdjust="spacing" textLength="159.2852" x="15" y="272.918">[If Block Retrieval Succeeds]</text><polygon fill="#666666" points="246.7368,293.5488,236.7368,297.5488,246.7368,301.5488,242.7368,297.5488" style="stroke:#666666;stroke-width:1.0;"/><line style="stroke:#666666;stroke-width:1.0;stroke-dasharray:2.0,2.0;" x1="240.7368" x2="440.9717" y1="297.5488" y2="297.5488"/><text fill="#333333" font-family="sans-serif" font-size="13" lengthAdjust="spacing" textLength="80.0757" x="252.7368" y="292.8066">Return block</text><line style="stroke:#666666;stroke-width:1.0;" x1="235.7368" x2="277.7368" y1="326.8594" y2="326.8594"/><line style="stroke:#666666;stroke-width:1.0;" x1="277.7368" x2="277.7368" y1="326.8594" y2="339.8594"/><line style="stroke:#666666;stroke-width:1.0;" x1="236.7368" x2="277.7368" y1="339.8594" y2="339.8594"/><polygon fill="#666666" points="246.7368,335.8594,236.7368,339.8594,246.7368,343.8594,242.7368,339.8594" style="stroke:#666666;stroke-width:1.0;"/><text fill="#333333" font-family="sans-serif" font-size="13" lengthAdjust="spacing" textLength="116.251" x="242.7368" y="322.1172">Extract block hash</text><polygon fill="#666666" points="57.7524,383.4805,47.7524,387.4805,57.7524,391.4805,53.7524,387.4805" style="stroke:#666666;stroke-width:1.0;"/><line style="stroke:#666666;stroke-width:1.0;" x1="51.7524" x2="224.7368" y1="387.4805" y2="387.4805"/><text fill="#333333" font-family="sans-serif" font-size="13" lengthAdjust="spacing" textLength="154.9844" x="63.7524" y="382.7383">Return block hash string</text><path d="M240,352.8594 L240,407.8594 L830,407.8594 L830,362.8594 L820,352.8594 L240,352.8594 " fill="#FEFFDD" style="stroke:#181818;stroke-width:0.5;"/><path d="M820,352.8594 L820,362.8594 L830,362.8594 L820,352.8594 " fill="#FEFFDD" style="stroke:#181818;stroke-width:0.5;"/><text fill="#333333" font-family="sans-serif" font-size="13" lengthAdjust="spacing" textLength="102.7686" x="246" y="370.4277">Response fields:</text><text fill="#333333" font-family="sans-serif" font-size="13" lengthAdjust="spacing" textLength="304.4907" x="246" y="385.7383">- String containing the hex-encoded block hash</text><text fill="#333333" font-family="sans-serif" font-size="13" lengthAdjust="spacing" textLength="569.8735" x="246" y="401.0488">Example: "000000000019d6689c085ae165831e934ff763ae46a2a6c172b3f1b60a8ce26f"</text><text fill="#333333" font-family="sans-serif" font-size="10" lengthAdjust="spacing" textLength="155.4346" x="0" y="471.9473">Last Modified On: 24-Feb-2025</text><!--SRC=[fLHDRzim3BthLn0UXYN00kIZTLCVTcZQB0KQh6Xs6tPW93eHgaY197SfXlxtqOgRkbc70HiFWKm-ak-HKiAzjblqk84bolkLTvLL4sUSXtVJ_dGydOfmG2WgiJ9nwcni8ADaBGXwxtuqmJoP41_Waafj2PREA_81IewYCK26DcHZQENpfuwFy5C0N2JqwrhiFMPvcKmyYLOLoGozC_zRXd-ZbdgBDlvRAI7Q9IP6ixnNhkpkTW8ByW_aCy00_FawVc6Sl9ThrBP9Jx0Nhn1xD_G-rSbGm6UAAJp3i9viL4TRHRkkG1dr0qPABOHrVF9wjOui0E2hHqcXIESUtABdYaMDN4ICZNUcGtGh7ai1M-ys5DTKXHbQPQZTia7Vk5K1sRVrR_7l87drf391La7DGuYQEFDlQNsHSV4uevfdHyRTHpWMqnh4aQHhkwqYf3rI9F-iBHKeeD8sZeRGMTRvi4uTkYr6Q29Sb_loS4VHQtf00rFK9gHABQwzm-WPM7aBn6_09rGZh5dH4O1CeBUQB2efYTJV-oJo2QNehOcqAUmJhtQHDnsXaVsyhZ_GV451O79sbS17Sqxv5BREiffIar7DFThFUv4IquDaIlMHxmqFVDSZAvqYTSobjgiTRhQ6-0Br3pOuLta-FfVzyIdI83yTZmPqFZefoxDyX7IIun1pEJWRBaVbO9dtSInfc9TPgddOAn-4Q0qhlGL3PUI_98vxkC4GOUwKPYKAljW2tYi6TZAbUlFvlFV8bdL_0G00]--></g></svg>
