<svg contentStyleType="text/css" height="724" preserveAspectRatio="none" viewBox="0 0 808 724" width="808" xmlns="http://www.w3.org/2000/svg" zoomAndPan="magnify"><path d="m0 0h808v724h-808z" fill="#f0f8ff"/><path d="m304.3174 67.7988h10v595.4102h-10z" fill="#fff" stroke="#181818"/><path d="m467.7334 97.1094h10v29.3105h-10z" fill="#fff" stroke="#181818"/><path d="m598.4355 224.3066h10v29.3105h-10z" fill="#fff" stroke="#181818"/><path d="m722.2607 351.5039h10v29.3105h-10z" fill="#fff" stroke="#181818"/><path d="m722.2607 478.7012h10v29.3105h-10z" fill="#fff" stroke="#181818"/><path d="m10 141.4199h791.1338v514.7891h-791.1338z" fill="none" stroke="#000" stroke-width="1.5"/><path d="m20 268.6172h771.1338v380.5918h-771.1338z" fill="none" stroke="#000" stroke-width="1.5"/><path d="m30 395.8145h751.1338v246.3945h-751.1338z" fill="none" stroke="#000" stroke-width="1.5"/><path d="m40 523.0117h620.4829v112.1973h-620.4829z" fill="none" stroke="#000" stroke-width="1.5"/><g stroke-width=".5"><path d="m76 36.4883v636.7207" stroke="#181818" stroke-dasharray="5 5"/><path d="m309.0425 36.4883v636.7207" stroke="#181818" stroke-dasharray="5 5"/><path d="m471.9834 36.4883v636.7207" stroke="#181818" stroke-dasharray="5 5"/><path d="m602.4834 36.4883v636.7207" stroke="#181818" stroke-dasharray="5 5"/><path d="m726.3877 36.4883v636.7207" stroke="#181818" stroke-dasharray="5 5"/><rect fill="#ddd" height="30.4883" rx="2.5" stroke="#666" width="53.5049" x="50" y="5"/></g><text fill="#333" font-family="sans-serif" font-size="14" lengthAdjust="spacing" textLength="39.5049" x="57" y="25.5352">Client</text><rect fill="#ddd" height="30.4883" rx="2.5" stroke="#666" stroke-width=".5" width="53.5049" x="50" y="672.209"/><text fill="#333" font-family="sans-serif" font-size="14" lengthAdjust="spacing" textLength="39.5049" x="57" y="692.7441">Client</text><rect fill="#ddd" height="30.4883" rx="2.5" stroke="#666" stroke-width=".5" width="86.5498" x="266.0425" y="5"/><text fill="#333" font-family="sans-serif" font-size="14" lengthAdjust="spacing" textLength="72.5498" x="273.0425" y="25.5352">RPC Server</text><rect fill="#ddd" height="30.4883" rx="2.5" stroke="#666" stroke-width=".5" width="86.5498" x="266.0425" y="672.209"/><text fill="#333" font-family="sans-serif" font-size="14" lengthAdjust="spacing" textLength="72.5498" x="273.0425" y="692.7441">RPC Server</text><rect fill="#ddd" height="30.4883" rx="2.5" stroke="#666" stroke-width=".5" width="101.5" x="421.9834" y="5"/><text fill="#333" font-family="sans-serif" font-size="14" lengthAdjust="spacing" textLength="87.5" x="428.9834" y="25.5352">Hex Decoder</text><rect fill="#ddd" height="30.4883" rx="2.5" stroke="#666" stroke-width=".5" width="101.5" x="421.9834" y="672.209"/><text fill="#333" font-family="sans-serif" font-size="14" lengthAdjust="spacing" textLength="87.5" x="428.9834" y="692.7441">Hex Decoder</text><rect fill="#ddd" height="30.4883" rx="2.5" stroke="#666" stroke-width=".5" width="139.9043" x="533.4834" y="5"/><text fill="#333" font-family="sans-serif" font-size="14" lengthAdjust="spacing" textLength="125.9043" x="540.4834" y="25.5352">Transaction Parser</text><rect fill="#ddd" height="30.4883" rx="2.5" stroke="#666" stroke-width=".5" width="139.9043" x="533.4834" y="672.209"/><text fill="#333" font-family="sans-serif" font-size="14" lengthAdjust="spacing" textLength="125.9043" x="540.4834" y="692.7441">Transaction Parser</text><rect fill="#ddd" height="30.4883" rx="2.5" stroke="#666" stroke-width=".5" width="87.7461" x="683.3877" y="5"/><text fill="#333" font-family="sans-serif" font-size="14" lengthAdjust="spacing" textLength="73.7461" x="690.3877" y="25.5352">Distributor</text><rect fill="#ddd" height="30.4883" rx="2.5" stroke="#666" stroke-width=".5" width="87.7461" x="683.3877" y="672.209"/><text fill="#333" font-family="sans-serif" font-size="14" lengthAdjust="spacing" textLength="73.7461" x="690.3877" y="692.7441">Distributor</text><path d="m304.3174 67.7988h10v595.4102h-10z" fill="#fff" stroke="#181818"/><path d="m467.7334 97.1094h10v29.3105h-10z" fill="#fff" stroke="#181818"/><path d="m598.4355 224.3066h10v29.3105h-10z" fill="#fff" stroke="#181818"/><path d="m722.2607 351.5039h10v29.3105h-10z" fill="#fff" stroke="#181818"/><path d="m722.2607 478.7012h10v29.3105h-10z" fill="#fff" stroke="#181818"/><path d="m292.3174 63.7988 10 4-10 4 4-4z" fill="#666" stroke="#666"/><path d="m76.7524 67.7988h221.565" stroke="#666"/><text fill="#333" font-family="sans-serif" font-size="13" lengthAdjust="spacing" textLength="208.5649" x="83.7524" y="63.0566">SendRawTransactionCmd(HexTx)</text><path d="m455.7334 93.1094 10 4-10 4 4-4z" fill="#666" stroke="#666"/><path d="m314.3174 97.1094h147.416" stroke="#666"/><text fill="#333" font-family="sans-serif" font-size="13" lengthAdjust="spacing" textLength="115.2988" x="321.3174" y="92.3672">Decode hex string</text><path d="m325.3174 122.4199-10 4 10 4-4-4z" fill="#666" stroke="#666"/><path d="m319.3174 126.4199h152.416" stroke="#666"/><text fill="#333" font-family="sans-serif" font-size="13" lengthAdjust="spacing" textLength="129.416" x="331.3174" y="121.6777">return bytes or error</text><path d="m10 141.4199h62.1387v7.3106l-10 10h-52.1387z" fill="#eee" stroke="#000" stroke-width="1.5"/><path d="m10 141.4199h791.1338v514.7891h-791.1338z" fill="none" stroke="#000" stroke-width="1.5"/><text fill="#333" font-family="sans-serif" font-size="13" font-weight="bold" lengthAdjust="spacing" textLength="17.1387" x="25" y="154.9883">alt</text><text fill="#333" font-family="sans-serif" font-size="11" font-weight="bold" lengthAdjust="spacing" textLength="128.3154" x="87.1387" y="154.0547">[If Hex Decoding Fails]</text><path d="m87.7524 176.041-10 4 10 4-4-4z" fill="#666" stroke="#666"/><path d="m81.7524 180.041h221.565" stroke="#666"/><text fill="#333" font-family="sans-serif" font-size="13" lengthAdjust="spacing" textLength="168.8604" x="93.7524" y="175.2988">Return rpcDecodeHexError</text><path d="m10 189.041h791.1338" stroke="#000" stroke-dasharray="2 2"/><text fill="#333" font-family="sans-serif" font-size="11" font-weight="bold" lengthAdjust="spacing" textLength="153.7744" x="15" y="199.6758">[If Hex Decoding Succeeds]</text><path d="m586.4355 220.3066 10 4-10 4 4-4z" fill="#666" stroke="#666"/><path d="m314.3174 224.3066h278.1181" stroke="#666"/><text fill="#333" font-family="sans-serif" font-size="13" lengthAdjust="spacing" textLength="180.3877" x="321.3174" y="219.5645">Parse transaction from bytes</text><path d="m325.3174 249.6172-10 4 10 4-4-4z" fill="#666" stroke="#666"/><path d="m319.3174 253.6172h283.1181" stroke="#666"/><text fill="#333" font-family="sans-serif" font-size="13" lengthAdjust="spacing" textLength="209.2759" x="331.3174" y="248.875">return transaction object or error</text><path d="m20 268.6172h62.1387v7.3105l-10 10h-52.1387z" fill="#eee" stroke="#000" stroke-width="1.5"/><path d="m20 268.6172h771.1338v380.5918h-771.1338z" fill="none" stroke="#000" stroke-width="1.5"/><text fill="#333" font-family="sans-serif" font-size="13" font-weight="bold" lengthAdjust="spacing" textLength="17.1387" x="35" y="282.1855">alt</text><text fill="#333" font-family="sans-serif" font-size="11" font-weight="bold" lengthAdjust="spacing" textLength="92.2593" x="97.1387" y="281.252">[If Parsing Fails]</text><path d="m87.7524 303.2383-10 4 10 4-4-4z" fill="#666" stroke="#666"/><path d="m81.7524 307.2383h221.565" stroke="#666"/><text fill="#333" font-family="sans-serif" font-size="13" lengthAdjust="spacing" textLength="181.9048" x="93.7524" y="302.4961">Return ErrRPCDeserialization</text><path d="m20 316.2383h771.1338" stroke="#000" stroke-dasharray="2 2"/><text fill="#333" font-family="sans-serif" font-size="11" font-weight="bold" lengthAdjust="spacing" textLength="117.7183" x="25" y="326.873">[If Parsing Succeeds]</text><path d="m710.2607 347.5039 10 4-10 4 4-4z" fill="#666" stroke="#666"/><path d="m314.3174 351.5039h401.9433" stroke="#666"/><text fill="#333" font-family="sans-serif" font-size="13" lengthAdjust="spacing" textLength="126.1724" x="321.3174" y="346.7617">Initialize Distributor</text><path d="m325.3174 376.8145-10 4 10 4-4-4z" fill="#666" stroke="#666"/><path d="m319.3174 380.8145h406.9433" stroke="#666"/><text fill="#333" font-family="sans-serif" font-size="13" lengthAdjust="spacing" textLength="219.21" x="331.3174" y="376.0723">return distributor instance or error</text><path d="m30 395.8145h62.1387v7.3105l-10 10h-52.1387z" fill="#eee" stroke="#000" stroke-width="1.5"/><path d="m30 395.8145h751.1338v246.3945h-751.1338z" fill="none" stroke="#000" stroke-width="1.5"/><text fill="#333" font-family="sans-serif" font-size="13" font-weight="bold" lengthAdjust="spacing" textLength="17.1387" x="45" y="409.3828">alt</text><text fill="#333" font-family="sans-serif" font-size="11" font-weight="bold" lengthAdjust="spacing" textLength="187.3008" x="107.1387" y="408.4492">[If Distributor Initialization Fails]</text><path d="m87.7524 430.4355-10 4 10 4-4-4z" fill="#666" stroke="#666"/><path d="m81.7524 434.4355h221.565" stroke="#666"/><text fill="#333" font-family="sans-serif" font-size="13" lengthAdjust="spacing" textLength="159.396" x="93.7524" y="429.6934">Return initialization error</text><path d="m30 443.4355h751.1338" stroke="#000" stroke-dasharray="2 2"/><text fill="#333" font-family="sans-serif" font-size="11" font-weight="bold" lengthAdjust="spacing" textLength="146.5825" x="35" y="454.0703">[If Initialization Succeeds]</text><path d="m710.2607 474.7012 10 4-10 4 4-4z" fill="#666" stroke="#666"/><path d="m314.3174 478.7012h401.9433" stroke="#666"/><text fill="#333" font-family="sans-serif" font-size="13" lengthAdjust="spacing" textLength="181.5874" x="321.3174" y="473.959">SendTransaction(context, tx)</text><path d="m325.3174 504.0117-10 4 10 4-4-4z" fill="#666" stroke="#666"/><path d="m319.3174 508.0117h406.9433" stroke="#666"/><text fill="#333" font-family="sans-serif" font-size="13" lengthAdjust="spacing" textLength="217.8071" x="331.3174" y="503.2695">return result or broadcasting error</text><path d="m40 523.0117h62.1387v7.3106l-10 10h-52.1387z" fill="#eee" stroke="#000" stroke-width="1.5"/><path d="m40 523.0117h620.4829v112.1973h-620.4829z" fill="none" stroke="#000" stroke-width="1.5"/><text fill="#333" font-family="sans-serif" font-size="13" font-weight="bold" lengthAdjust="spacing" textLength="17.1387" x="55" y="536.5801">alt</text><text fill="#333" font-family="sans-serif" font-size="11" font-weight="bold" lengthAdjust="spacing" textLength="123.5352" x="117.1387" y="535.6465">[If Broadcasting Fails]</text><path d="m87.7524 557.6328-10 4 10 4-4-4z" fill="#666" stroke="#666"/><path d="m81.7524 561.6328h221.565" stroke="#666"/><text fill="#333" font-family="sans-serif" font-size="13" lengthAdjust="spacing" textLength="193.064" x="93.7524" y="556.8906">Return ErrRPCInvalidParameter</text><path d="m40 570.6328h620.4829" stroke="#000" stroke-dasharray="2 2"/><text fill="#333" font-family="sans-serif" font-size="11" font-weight="bold" lengthAdjust="spacing" textLength="148.9941" x="45" y="581.2676">[If Broadcasting Succeeds]</text><path d="m87.7524 612.5537-10 4 10 4-4-4z" fill="#666" stroke="#666"/><path d="m81.7524 616.5537h221.565" stroke="#666"/><text fill="#333" font-family="sans-serif" font-size="13" lengthAdjust="spacing" textLength="156.4507" x="93.7524" y="611.8115">Return transaction result</text><path d="m319 589.5879v40h331v-30l-10-10z" fill="#feffdd" stroke="#181818" stroke-width=".5"/><path d="m640 589.5879v10h10z" fill="#feffdd" stroke="#181818" stroke-width=".5"/><text fill="#333" font-family="sans-serif" font-size="13" lengthAdjust="spacing" textLength="102.7686" x="325" y="607.1563">Response fields:</text><text fill="#333" font-family="sans-serif" font-size="13" lengthAdjust="spacing" textLength="310.1655" x="325" y="622.4668">- Returns transaction ID of broadcast transaction</text><text fill="#333" font-family="sans-serif" font-size="10" lengthAdjust="spacing" textLength="155.4346" y="714.3652">Last Modified On: 24-Feb-2025</text></svg>
