<svg xmlns="http://www.w3.org/2000/svg" xmlns:xlink="http://www.w3.org/1999/xlink" contentStyleType="text/css" height="1291px" preserveAspectRatio="none" style="width:899px;height:1291px;background:#FFFFFF;" version="1.1" viewBox="0 0 899 1291" width="899px" zoomAndPan="magnify"><defs/><g><rect fill="#FFFFFF" height="1162.0156" style="stroke:#181818;stroke-width:1.0;" width="10" x="438.4941" y="67.7988"/><rect fill="#FFFFFF" height="127.1973" style="stroke:#181818;stroke-width:1.0;" width="10" x="630.7476" y="97.1094"/><rect fill="#FFFFFF" height="720.8262" style="stroke:#181818;stroke-width:1.0;" width="10" x="719.1865" y="494.9883"/><rect fill="none" height="1110.7051" style="stroke:#000000;stroke-width:1.5;" width="882.8013" x="10" y="112.1094"/><rect fill="none" height="976.5078" style="stroke:#000000;stroke-width:1.5;" width="862.8013" x="20" y="239.3066"/><rect fill="none" height="864.3105" style="stroke:#000000;stroke-width:1.5;" width="842.8013" x="30" y="344.5039"/><rect fill="none" height="283.9922" style="stroke:#000000;stroke-width:1.5;" width="727.5801" x="40" y="509.9883"/><rect fill="none" height="268.6816" style="stroke:#000000;stroke-width:1.5;" width="749.0928" x="40" y="852.2461"/><line style="stroke:#181818;stroke-width:0.5;stroke-dasharray:5.0,5.0;" x1="76" x2="76" y1="36.4883" y2="1239.8145"/><line style="stroke:#181818;stroke-width:0.5;stroke-dasharray:5.0,5.0;" x1="443.2192" x2="443.2192" y1="36.4883" y2="1239.8145"/><line style="stroke:#181818;stroke-width:0.5;stroke-dasharray:5.0,5.0;" x1="635.7021" x2="635.7021" y1="36.4883" y2="1239.8145"/><line style="stroke:#181818;stroke-width:0.5;stroke-dasharray:5.0,5.0;" x1="723.793" x2="723.793" y1="36.4883" y2="1239.8145"/><rect fill="#E2E2F0" height="30.4883" rx="2.5" ry="2.5" style="stroke:#181818;stroke-width:0.5;" width="53.5049" x="50" y="5"/><text fill="#000000" font-family="sans-serif" font-size="14" lengthAdjust="spacing" textLength="39.5049" x="57" y="25.5352">Client</text><rect fill="#E2E2F0" height="30.4883" rx="2.5" ry="2.5" style="stroke:#181818;stroke-width:0.5;" width="53.5049" x="50" y="1238.8145"/><text fill="#000000" font-family="sans-serif" font-size="14" lengthAdjust="spacing" textLength="39.5049" x="57" y="1259.3496">Client</text><rect fill="#E2E2F0" height="30.4883" rx="2.5" ry="2.5" style="stroke:#181818;stroke-width:0.5;" width="86.5498" x="400.2192" y="5"/><text fill="#000000" font-family="sans-serif" font-size="14" lengthAdjust="spacing" textLength="72.5498" x="407.2192" y="25.5352">RPC Server</text><rect fill="#E2E2F0" height="30.4883" rx="2.5" ry="2.5" style="stroke:#181818;stroke-width:0.5;" width="86.5498" x="400.2192" y="1238.8145"/><text fill="#000000" font-family="sans-serif" font-size="14" lengthAdjust="spacing" textLength="72.5498" x="407.2192" y="1259.3496">RPC Server</text><rect fill="#E2E2F0" height="30.4883" rx="2.5" ry="2.5" style="stroke:#181818;stroke-width:0.5;" width="90.0908" x="590.7021" y="5"/><text fill="#000000" font-family="sans-serif" font-size="14" lengthAdjust="spacing" textLength="76.0908" x="597.7021" y="25.5352">P2P Service</text><rect fill="#E2E2F0" height="30.4883" rx="2.5" ry="2.5" style="stroke:#181818;stroke-width:0.5;" width="90.0908" x="590.7021" y="1238.8145"/><text fill="#000000" font-family="sans-serif" font-size="14" lengthAdjust="spacing" textLength="76.0908" x="597.7021" y="1259.3496">P2P Service</text><rect fill="#E2E2F0" height="30.4883" rx="2.5" ry="2.5" style="stroke:#181818;stroke-width:0.5;" width="66.7871" x="690.793" y="5"/><text fill="#000000" font-family="sans-serif" font-size="14" lengthAdjust="spacing" textLength="52.7871" x="697.793" y="25.5352">Ban List</text><rect fill="#E2E2F0" height="30.4883" rx="2.5" ry="2.5" style="stroke:#181818;stroke-width:0.5;" width="66.7871" x="690.793" y="1238.8145"/><text fill="#000000" font-family="sans-serif" font-size="14" lengthAdjust="spacing" textLength="52.7871" x="697.793" y="1259.3496">Ban List</text><rect fill="#FFFFFF" height="1162.0156" style="stroke:#181818;stroke-width:1.0;" width="10" x="438.4941" y="67.7988"/><rect fill="#FFFFFF" height="127.1973" style="stroke:#181818;stroke-width:1.0;" width="10" x="630.7476" y="97.1094"/><rect fill="#FFFFFF" height="720.8262" style="stroke:#181818;stroke-width:1.0;" width="10" x="719.1865" y="494.9883"/><polygon fill="#181818" points="426.4941,63.7988,436.4941,67.7988,426.4941,71.7988,430.4941,67.7988" style="stroke:#181818;stroke-width:1.0;"/><line style="stroke:#181818;stroke-width:1.0;" x1="76.7524" x2="432.4941" y1="67.7988" y2="67.7988"/><text fill="#000000" font-family="sans-serif" font-size="13" lengthAdjust="spacing" textLength="342.7417" x="83.7524" y="63.0566">SetBanCmd(ipOrSubnet, command, bantime, absolute)</text><polygon fill="#181818" points="618.7476,93.1094,628.7476,97.1094,618.7476,101.1094,622.7476,97.1094" style="stroke:#181818;stroke-width:1.0;"/><line style="stroke:#181818;stroke-width:1.0;" x1="448.4941" x2="624.7476" y1="97.1094" y2="97.1094"/><text fill="#000000" font-family="sans-serif" font-size="13" lengthAdjust="spacing" textLength="94.3516" x="455.4941" y="92.3672">GetBanList(ctx)</text><path d="M10,112.1094 L72.1387,112.1094 L72.1387,119.4199 L62.1387,129.4199 L10,129.4199 L10,112.1094 " fill="#EEEEEE" style="stroke:#000000;stroke-width:1.5;"/><rect fill="none" height="1110.7051" style="stroke:#000000;stroke-width:1.5;" width="882.8013" x="10" y="112.1094"/><text fill="#000000" font-family="sans-serif" font-size="13" font-weight="bold" lengthAdjust="spacing" textLength="17.1387" x="25" y="125.6777">alt</text><text fill="#000000" font-family="sans-serif" font-size="11" font-weight="bold" lengthAdjust="spacing" textLength="136.5439" x="87.1387" y="124.7441">[Ban List Retrieval Fails]</text><polygon fill="#181818" points="459.4941,146.7305,449.4941,150.7305,459.4941,154.7305,455.4941,150.7305" style="stroke:#181818;stroke-width:1.0;"/><line style="stroke:#181818;stroke-width:1.0;stroke-dasharray:2.0,2.0;" x1="453.4941" x2="629.7476" y1="150.7305" y2="150.7305"/><text fill="#000000" font-family="sans-serif" font-size="13" lengthAdjust="spacing" textLength="77.0796" x="465.4941" y="145.9883">Return error</text><polygon fill="#181818" points="87.7524,176.041,77.7524,180.041,87.7524,184.041,83.7524,180.041" style="stroke:#181818;stroke-width:1.0;"/><line style="stroke:#181818;stroke-width:1.0;" x1="81.7524" x2="437.4941" y1="180.041" y2="180.041"/><text fill="#000000" font-family="sans-serif" font-size="13" lengthAdjust="spacing" textLength="77.0796" x="93.7524" y="175.2988">Return error</text><line style="stroke:#000000;stroke-width:1.0;stroke-dasharray:2.0,2.0;" x1="10" x2="892.8013" y1="189.041" y2="189.041"/><text fill="#000000" font-family="sans-serif" font-size="11" font-weight="bold" lengthAdjust="spacing" textLength="110.4512" x="15" y="199.6758">[Ban List Retrieved]</text><polygon fill="#181818" points="459.4941,220.3066,449.4941,224.3066,459.4941,228.3066,455.4941,224.3066" style="stroke:#181818;stroke-width:1.0;"/><line style="stroke:#181818;stroke-width:1.0;stroke-dasharray:2.0,2.0;" x1="453.4941" x2="634.7476" y1="224.3066" y2="224.3066"/><text fill="#000000" font-family="sans-serif" font-size="13" lengthAdjust="spacing" textLength="92.4409" x="465.4941" y="219.5645">Return ban list</text><path d="M20,239.3066 L82.1387,239.3066 L82.1387,246.6172 L72.1387,256.6172 L20,256.6172 L20,239.3066 " fill="#EEEEEE" style="stroke:#000000;stroke-width:1.5;"/><rect fill="none" height="976.5078" style="stroke:#000000;stroke-width:1.5;" width="862.8013" x="20" y="239.3066"/><text fill="#000000" font-family="sans-serif" font-size="13" font-weight="bold" lengthAdjust="spacing" textLength="17.1387" x="35" y="252.875">alt</text><text fill="#000000" font-family="sans-serif" font-size="11" font-weight="bold" lengthAdjust="spacing" textLength="105.6226" x="97.1387" y="251.9414">[Invalid IP/Subnet]</text><polygon fill="#181818" points="87.7524,292.2383,77.7524,296.2383,87.7524,300.2383,83.7524,296.2383" style="stroke:#181818;stroke-width:1.0;"/><line style="stroke:#181818;stroke-width:1.0;" x1="81.7524" x2="437.4941" y1="296.2383" y2="296.2383"/><text fill="#000000" font-family="sans-serif" font-size="13" lengthAdjust="spacing" textLength="77.0796" x="93.7524" y="291.4961">Return error</text><path d="M453,261.6172 L453,316.6172 L699,316.6172 L699,271.6172 L689,261.6172 L453,261.6172 " fill="#FEFFDD" style="stroke:#181818;stroke-width:0.5;"/><path d="M689,261.6172 L689,271.6172 L699,271.6172 L689,261.6172 " fill="#FEFFDD" style="stroke:#181818;stroke-width:0.5;"/><text fill="#000000" font-family="sans-serif" font-size="13" lengthAdjust="spacing" textLength="96.5098" x="459" y="279.1855">Error response:</text><text fill="#000000" font-family="sans-serif" font-size="13" lengthAdjust="spacing" textLength="199.437" x="459" y="294.4961">- Code: ErrRPCInvalidParameter</text><text fill="#000000" font-family="sans-serif" font-size="13" lengthAdjust="spacing" textLength="225.4941" x="459" y="309.8066">- Message: "IPOrSubnet is required"</text><line style="stroke:#000000;stroke-width:1.0;stroke-dasharray:2.0,2.0;" x1="20" x2="882.8013" y1="323.5488" y2="323.5488"/><text fill="#000000" font-family="sans-serif" font-size="11" font-weight="bold" lengthAdjust="spacing" textLength="95.9116" x="25" y="334.1836">[Valid IP/Subnet]</text><path d="M30,344.5039 L92.1387,344.5039 L92.1387,351.8145 L82.1387,361.8145 L30,361.8145 L30,344.5039 " fill="#EEEEEE" style="stroke:#000000;stroke-width:1.5;"/><rect fill="none" height="864.3105" style="stroke:#000000;stroke-width:1.5;" width="842.8013" x="30" y="344.5039"/><text fill="#000000" font-family="sans-serif" font-size="13" font-weight="bold" lengthAdjust="spacing" textLength="17.1387" x="45" y="358.0723">alt</text><text fill="#000000" font-family="sans-serif" font-size="11" font-weight="bold" lengthAdjust="spacing" textLength="110.3276" x="107.1387" y="357.1387">[command = "add"]</text><line style="stroke:#181818;stroke-width:1.0;" x1="448.4941" x2="490.4941" y1="417.9014" y2="417.9014"/><line style="stroke:#181818;stroke-width:1.0;" x1="490.4941" x2="490.4941" y1="417.9014" y2="430.9014"/><line style="stroke:#181818;stroke-width:1.0;" x1="449.4941" x2="490.4941" y1="430.9014" y2="430.9014"/><polygon fill="#181818" points="459.4941,426.9014,449.4941,430.9014,459.4941,434.9014,455.4941,430.9014" style="stroke:#181818;stroke-width:1.0;"/><text fill="#000000" font-family="sans-serif" font-size="13" lengthAdjust="spacing" textLength="158.2534" x="455.4941" y="413.1592">Calculate expiration time</text><path d="M635.2534,366.8145 L635.2534,467.8145 L852.2534,467.8145 L852.2534,376.8145 L842.2534,366.8145 L635.2534,366.8145 " fill="#FEFFDD" style="stroke:#181818;stroke-width:0.5;"/><path d="M842.2534,366.8145 L842.2534,376.8145 L852.2534,376.8145 L842.2534,366.8145 " fill="#FEFFDD" style="stroke:#181818;stroke-width:0.5;"/><text fill="#000000" font-family="sans-serif" font-size="13" lengthAdjust="spacing" textLength="94.9609" x="641.2534" y="384.3828">If bantime = 0:</text><text fill="#000000" font-family="sans-serif" font-size="13" lengthAdjust="spacing" textLength="124.8076" x="657.7065" y="399.6934">Set 24-hour default</text><text fill="#000000" font-family="sans-serif" font-size="13" lengthAdjust="spacing" textLength="114.7085" x="641.2534" y="415.0039">If absolute = true:</text><text fill="#000000" font-family="sans-serif" font-size="13" lengthAdjust="spacing" textLength="167.4385" x="657.7065" y="430.3145">Use bantime as timestamp</text><text fill="#000000" font-family="sans-serif" font-size="13" lengthAdjust="spacing" textLength="28.7866" x="641.2534" y="445.625">Else:</text><text fill="#000000" font-family="sans-serif" font-size="13" lengthAdjust="spacing" textLength="179.6006" x="657.7065" y="460.9355">Add bantime to current time</text><polygon fill="#181818" points="707.1865,490.9883,717.1865,494.9883,707.1865,498.9883,711.1865,494.9883" style="stroke:#181818;stroke-width:1.0;"/><line style="stroke:#181818;stroke-width:1.0;" x1="448.4941" x2="713.1865" y1="494.9883" y2="494.9883"/><text fill="#000000" font-family="sans-serif" font-size="13" lengthAdjust="spacing" textLength="236.2026" x="455.4941" y="490.2461">Add(ctx, ipOrSubnet, expirationTime)</text><path d="M40,509.9883 L102.1387,509.9883 L102.1387,517.2988 L92.1387,527.2988 L40,527.2988 L40,509.9883 " fill="#EEEEEE" style="stroke:#000000;stroke-width:1.5;"/><rect fill="none" height="283.9922" style="stroke:#000000;stroke-width:1.5;" width="727.5801" x="40" y="509.9883"/><text fill="#000000" font-family="sans-serif" font-size="13" font-weight="bold" lengthAdjust="spacing" textLength="17.1387" x="55" y="523.5566">alt</text><text fill="#000000" font-family="sans-serif" font-size="11" font-weight="bold" lengthAdjust="spacing" textLength="120.7798" x="117.1387" y="522.623">[Add Operation Fails]</text><polygon fill="#181818" points="459.4941,544.6094,449.4941,548.6094,459.4941,552.6094,455.4941,548.6094" style="stroke:#181818;stroke-width:1.0;"/><line style="stroke:#181818;stroke-width:1.0;stroke-dasharray:2.0,2.0;" x1="453.4941" x2="718.1865" y1="548.6094" y2="548.6094"/><text fill="#000000" font-family="sans-serif" font-size="13" lengthAdjust="spacing" textLength="77.0796" x="465.4941" y="543.8672">Return error</text><polygon fill="#181818" points="87.7524,592.2305,77.7524,596.2305,87.7524,600.2305,83.7524,596.2305" style="stroke:#181818;stroke-width:1.0;"/><line style="stroke:#181818;stroke-width:1.0;" x1="81.7524" x2="437.4941" y1="596.2305" y2="596.2305"/><text fill="#000000" font-family="sans-serif" font-size="13" lengthAdjust="spacing" textLength="77.0796" x="93.7524" y="591.4883">Return error</text><path d="M453,561.6094 L453,616.6094 L673,616.6094 L673,571.6094 L663,561.6094 L453,561.6094 " fill="#FEFFDD" style="stroke:#181818;stroke-width:0.5;"/><path d="M663,561.6094 L663,571.6094 L673,571.6094 L663,561.6094 " fill="#FEFFDD" style="stroke:#181818;stroke-width:0.5;"/><text fill="#000000" font-family="sans-serif" font-size="13" lengthAdjust="spacing" textLength="96.5098" x="459" y="579.1777">Error response:</text><text fill="#000000" font-family="sans-serif" font-size="13" lengthAdjust="spacing" textLength="199.437" x="459" y="594.4883">- Code: ErrRPCInvalidParameter</text><text fill="#000000" font-family="sans-serif" font-size="13" lengthAdjust="spacing" textLength="193.0449" x="459" y="609.7988">- Message: "Failed to add ban"</text><line style="stroke:#000000;stroke-width:1.0;stroke-dasharray:2.0,2.0;" x1="40" x2="767.5801" y1="623.541" y2="623.541"/><text fill="#000000" font-family="sans-serif" font-size="11" font-weight="bold" lengthAdjust="spacing" textLength="146.2388" x="45" y="634.1758">[Add Operation Succeeds]</text><polygon fill="#181818" points="459.4941,654.8066,449.4941,658.8066,459.4941,662.8066,455.4941,658.8066" style="stroke:#181818;stroke-width:1.0;"/><line style="stroke:#181818;stroke-width:1.0;stroke-dasharray:2.0,2.0;" x1="453.4941" x2="718.1865" y1="658.8066" y2="658.8066"/><text fill="#000000" font-family="sans-serif" font-size="13" lengthAdjust="spacing" textLength="94.4023" x="465.4941" y="654.0645">Return success</text><polygon fill="#181818" points="87.7524,733.0488,77.7524,737.0488,87.7524,741.0488,83.7524,737.0488" style="stroke:#181818;stroke-width:1.0;"/><line style="stroke:#181818;stroke-width:1.0;" x1="81.7524" x2="437.4941" y1="737.0488" y2="737.0488"/><text fill="#000000" font-family="sans-serif" font-size="13" lengthAdjust="spacing" textLength="61.4771" x="93.7524" y="732.3066">Return nil</text><path d="M453,671.8066 L453,788.8066 L725,788.8066 L725,681.8066 L715,671.8066 L453,671.8066 " fill="#FEFFDD" style="stroke:#181818;stroke-width:0.5;"/><path d="M715,671.8066 L715,681.8066 L725,681.8066 L715,671.8066 " fill="#FEFFDD" style="stroke:#181818;stroke-width:0.5;"/><text fill="#000000" font-family="sans-serif" font-size="13" lengthAdjust="spacing" textLength="102.7686" x="459" y="689.375">Response fields:</text><text fill="#000000" font-family="sans-serif" font-size="13" lengthAdjust="spacing" textLength="152.5278" x="459" y="704.6855">- Returns nil on success</text><text fill="#000000" font-family="sans-serif" font-size="13" lengthAdjust="spacing" textLength="4.1133" x="459" y="719.9961">&#160;</text><text fill="#000000" font-family="sans-serif" font-size="13" lengthAdjust="spacing" textLength="46.1094" x="459" y="735.3066">Effects:</text><text fill="#000000" font-family="sans-serif" font-size="13" lengthAdjust="spacing" textLength="183.1362" x="459" y="750.6172">- IP/subnet added to ban list</text><text fill="#000000" font-family="sans-serif" font-size="13" lengthAdjust="spacing" textLength="251.8115" x="459" y="765.9277">- Connections from banned IPs rejected</text><text fill="#000000" font-family="sans-serif" font-size="13" lengthAdjust="spacing" textLength="210.9707" x="459" y="781.2383">- Ban expires after specified time</text><line style="stroke:#000000;stroke-width:1.0;stroke-dasharray:2.0,2.0;" x1="30" x2="872.8013" y1="801.9805" y2="801.9805"/><text fill="#000000" font-family="sans-serif" font-size="11" font-weight="bold" lengthAdjust="spacing" textLength="131.3931" x="35" y="812.6152">[command = "remove"]</text><polygon fill="#181818" points="707.1865,833.2461,717.1865,837.2461,707.1865,841.2461,711.1865,837.2461" style="stroke:#181818;stroke-width:1.0;"/><line style="stroke:#181818;stroke-width:1.0;" x1="448.4941" x2="713.1865" y1="837.2461" y2="837.2461"/><text fill="#000000" font-family="sans-serif" font-size="13" lengthAdjust="spacing" textLength="156.5142" x="455.4941" y="832.5039">Remove(ctx, ipOrSubnet)</text><path d="M40,852.2461 L102.1387,852.2461 L102.1387,859.5566 L92.1387,869.5566 L40,869.5566 L40,852.2461 " fill="#EEEEEE" style="stroke:#000000;stroke-width:1.5;"/><rect fill="none" height="268.6816" style="stroke:#000000;stroke-width:1.5;" width="749.0928" x="40" y="852.2461"/><text fill="#000000" font-family="sans-serif" font-size="13" font-weight="bold" lengthAdjust="spacing" textLength="17.1387" x="55" y="865.8145">alt</text><text fill="#000000" font-family="sans-serif" font-size="11" font-weight="bold" lengthAdjust="spacing" textLength="142.8013" x="117.1387" y="864.8809">[Remove Operation Fails]</text><polygon fill="#181818" points="459.4941,886.8672,449.4941,890.8672,459.4941,894.8672,455.4941,890.8672" style="stroke:#181818;stroke-width:1.0;"/><line style="stroke:#181818;stroke-width:1.0;stroke-dasharray:2.0,2.0;" x1="453.4941" x2="718.1865" y1="890.8672" y2="890.8672"/><text fill="#000000" font-family="sans-serif" font-size="13" lengthAdjust="spacing" textLength="77.0796" x="465.4941" y="886.125">Return error</text><polygon fill="#181818" points="87.7524,934.4883,77.7524,938.4883,87.7524,942.4883,83.7524,938.4883" style="stroke:#181818;stroke-width:1.0;"/><line style="stroke:#181818;stroke-width:1.0;" x1="81.7524" x2="437.4941" y1="938.4883" y2="938.4883"/><text fill="#000000" font-family="sans-serif" font-size="13" lengthAdjust="spacing" textLength="77.0796" x="93.7524" y="933.7461">Return error</text><path d="M453,903.8672 L453,958.8672 L690,958.8672 L690,913.8672 L680,903.8672 L453,903.8672 " fill="#FEFFDD" style="stroke:#181818;stroke-width:0.5;"/><path d="M680,903.8672 L680,913.8672 L690,913.8672 L680,903.8672 " fill="#FEFFDD" style="stroke:#181818;stroke-width:0.5;"/><text fill="#000000" font-family="sans-serif" font-size="13" lengthAdjust="spacing" textLength="96.5098" x="459" y="921.4355">Error response:</text><text fill="#000000" font-family="sans-serif" font-size="13" lengthAdjust="spacing" textLength="199.437" x="459" y="936.7461">- Code: ErrRPCInvalidParameter</text><text fill="#000000" font-family="sans-serif" font-size="13" lengthAdjust="spacing" textLength="216.1567" x="459" y="952.0566">- Message: "Failed to remove ban"</text><line style="stroke:#000000;stroke-width:1.0;stroke-dasharray:2.0,2.0;" x1="40" x2="789.0928" y1="965.7988" y2="965.7988"/><text fill="#000000" font-family="sans-serif" font-size="11" font-weight="bold" lengthAdjust="spacing" textLength="168.2603" x="45" y="976.4336">[Remove Operation Succeeds]</text><polygon fill="#181818" points="459.4941,997.0645,449.4941,1001.0645,459.4941,1005.0645,455.4941,1001.0645" style="stroke:#181818;stroke-width:1.0;"/><line style="stroke:#181818;stroke-width:1.0;stroke-dasharray:2.0,2.0;" x1="453.4941" x2="718.1865" y1="1001.0645" y2="1001.0645"/><text fill="#000000" font-family="sans-serif" font-size="13" lengthAdjust="spacing" textLength="94.4023" x="465.4941" y="996.3223">Return success</text><polygon fill="#181818" points="87.7524,1067.6514,77.7524,1071.6514,87.7524,1075.6514,83.7524,1071.6514" style="stroke:#181818;stroke-width:1.0;"/><line style="stroke:#181818;stroke-width:1.0;" x1="81.7524" x2="437.4941" y1="1071.6514" y2="1071.6514"/><text fill="#000000" font-family="sans-serif" font-size="13" lengthAdjust="spacing" textLength="61.4771" x="93.7524" y="1066.9092">Return nil</text><path d="M453,1014.0645 L453,1115.0645 L778,1115.0645 L778,1024.0645 L768,1014.0645 L453,1014.0645 " fill="#FEFFDD" style="stroke:#181818;stroke-width:0.5;"/><path d="M768,1014.0645 L768,1024.0645 L778,1024.0645 L768,1014.0645 " fill="#FEFFDD" style="stroke:#181818;stroke-width:0.5;"/><text fill="#000000" font-family="sans-serif" font-size="13" lengthAdjust="spacing" textLength="102.7686" x="459" y="1031.6328">Response fields:</text><text fill="#000000" font-family="sans-serif" font-size="13" lengthAdjust="spacing" textLength="152.5278" x="459" y="1046.9434">- Returns nil on success</text><text fill="#000000" font-family="sans-serif" font-size="13" lengthAdjust="spacing" textLength="4.1133" x="459" y="1062.2539">&#160;</text><text fill="#000000" font-family="sans-serif" font-size="13" lengthAdjust="spacing" textLength="46.1094" x="459" y="1077.5645">Effects:</text><text fill="#000000" font-family="sans-serif" font-size="13" lengthAdjust="spacing" textLength="216.3789" x="459" y="1092.875">- IP/subnet removed from ban list</text><text fill="#000000" font-family="sans-serif" font-size="13" lengthAdjust="spacing" textLength="304.5986" x="459" y="1108.1855">- Connections from IP allowed (if no other bans)</text><line style="stroke:#000000;stroke-width:1.0;stroke-dasharray:2.0,2.0;" x1="30" x2="872.8013" y1="1128.9277" y2="1128.9277"/><text fill="#000000" font-family="sans-serif" font-size="11" font-weight="bold" lengthAdjust="spacing" textLength="107.2607" x="35" y="1139.5625">[Invalid Command]</text><polygon fill="#181818" points="87.7524,1178.5039,77.7524,1182.5039,87.7524,1186.5039,83.7524,1182.5039" style="stroke:#181818;stroke-width:1.0;"/><line style="stroke:#181818;stroke-width:1.0;" x1="81.7524" x2="437.4941" y1="1182.5039" y2="1182.5039"/><text fill="#000000" font-family="sans-serif" font-size="13" lengthAdjust="spacing" textLength="77.0796" x="93.7524" y="1177.7617">Return error</text><path d="M453,1147.8828 L453,1202.8828 L836,1202.8828 L836,1157.8828 L826,1147.8828 L453,1147.8828 " fill="#FEFFDD" style="stroke:#181818;stroke-width:0.5;"/><path d="M826,1147.8828 L826,1157.8828 L836,1157.8828 L826,1147.8828 " fill="#FEFFDD" style="stroke:#181818;stroke-width:0.5;"/><text fill="#000000" font-family="sans-serif" font-size="13" lengthAdjust="spacing" textLength="96.5098" x="459" y="1165.4512">Error response:</text><text fill="#000000" font-family="sans-serif" font-size="13" lengthAdjust="spacing" textLength="199.437" x="459" y="1180.7617">- Code: ErrRPCInvalidParameter</text><text fill="#000000" font-family="sans-serif" font-size="13" lengthAdjust="spacing" textLength="362.0576" x="459" y="1196.0723">- Message: "Invalid command. Must be 'add' or 'remove'."</text><text fill="#888888" font-family="sans-serif" font-size="10" lengthAdjust="spacing" textLength="153.0469" x="0" y="1280.9707">Last Modified On: 30-Jan-2025</text><!--SRC=[xLPHQzj037xthn26aGIIRfGz1JROGZS23GtjjlUBJsvls7VUtJdR_lsaivtQjPqqPOyzAAqjtIVfapxLXR1U9QeGsiCgKwXzLBHUnRVR5ToXtQEDGJYWnwvzUxaDTfLWSA3dhiDdeU5QEH-izC1_Hr4L2XOV6H6M1E79jihbL1KtzgxSQVHpI4oU2otdi2CebUCSnCwPhFGuYqJYrLvu32b5Z49WdCqIlWOm3ZHD_9-MAoSNYSn3anJSehSAzoA3Bq9bBW8w3B8uP4OUfTM0rXeRp7Meke8d3fWvxA6Z7CUboY1ZIjX3OZTLViVfhZLbg2IijsyhQeBbP3ADapO4QDNzm-CzFbVi11PTORJ3PSUsW9MHk6GV2b77tmehSlHedxXkq3bnJzxnUjiq3vGZw5-biYZZWpzg6R89Bm9NFqOAuxBhziC7Y8LieRGAhxXSYImfCwOD_nJA2g-C1XwOpfKH6lYiqsR4ADYxPS_EXqOKBjyl7anfgL6fABD1d6P22SZR4eUnlbFbJK2I1VzsNkH5p_agSoCGdwGyG7W3IMajZq2lwWxbpHcYifOCqKdGB9mvjBNuoEmt2Z7h81ocjj7tQ2nkAsT-Ks3TfaVTjK-Jp14T3fHmN0RFc8DJidY1F8PamZMZvBQ9gejnxyfWsu9YklJTbKc2ACzWqF4DvvxBeLRPkGpUrjn1gZ2JRep2Ae3Z2636y-hDqA5HQOg97uMddUAgLKGaLsntbkrGJxKcHABLGMfDpluQUJlnBlj9fdgJzw_ooWyAGGSYfHa0Ls2YY03Pb-HuVxKSbaveV6iTMipD7kFZChuDJa-LF3ikpkhIgpvhVLP4dolH7eclAZsjqefgUL3UMKfTRsbwC_ERxazLIgM3yG-aGi9ni_yXlkOJR5M9C7hHT1_foAcfFdEYEnzbTUhr_hY0JKaJjqEOq6AS08MTLDnFBkBZdmvjYbhVgkt_-kp2Fr7B7hxGCqmzfCRmRhmMbC36o6e_tkWbl97aE8sbN6mscyLVEl7i7m00]--></g></svg>
