<svg contentStyleType="text/css" height="547" preserveAspectRatio="none" viewBox="0 0 561 547" width="561" xmlns="http://www.w3.org/2000/svg" zoomAndPan="magnify"><path d="m0 0h561v547h-561z" fill="#f0f8ff"/><path d="m232.4272 67.7988h10v419.8555h-10z" fill="#fff" stroke="#181818"/><path d="m237.4272 105.1094h10v381.5449h-10z" fill="#fff" stroke="#181818"/><path d="m402.2988 163.7305h10v29.3105h-10z" fill="#fff" stroke="#181818"/><path d="m10 125.1094h544.2036v354.5449h-544.2036z" fill="none" stroke="#000" stroke-width="1.5"/><path d="m46 36.4883v460.166" stroke="#181818" stroke-dasharray="5 5" stroke-width=".5"/><path d="m237.1523 36.4883v460.166" stroke="#181818" stroke-dasharray="5 5" stroke-width=".5"/><path d="m407.1421 36.4883v460.166" stroke="#181818" stroke-dasharray="5 5" stroke-width=".5"/><rect fill="#ddd" height="30.4883" rx="2.5" stroke="#666" stroke-width=".5" width="53.5049" x="20" y="5"/><text fill="#333" font-family="sans-serif" font-size="14" lengthAdjust="spacing" textLength="39.5049" x="27" y="25.5352">Client</text><rect fill="#ddd" height="30.4883" rx="2.5" stroke="#666" stroke-width=".5" width="53.5049" x="20" y="495.6543"/><text fill="#333" font-family="sans-serif" font-size="14" lengthAdjust="spacing" textLength="39.5049" x="27" y="516.1895">Client</text><rect fill="#ddd" height="30.4883" rx="2.5" stroke="#666" stroke-width=".5" width="86.5498" x="194.1523" y="5"/><text fill="#333" font-family="sans-serif" font-size="14" lengthAdjust="spacing" textLength="72.5498" x="201.1523" y="25.5352">RPC Server</text><rect fill="#ddd" height="30.4883" rx="2.5" stroke="#666" stroke-width=".5" width="86.5498" x="194.1523" y="495.6543"/><text fill="#333" font-family="sans-serif" font-size="14" lengthAdjust="spacing" textLength="72.5498" x="201.1523" y="516.1895">RPC Server</text><rect fill="#ddd" height="30.4883" rx="2.5" stroke="#666" stroke-width=".5" width="130.3135" x="342.1421" y="5"/><text fill="#333" font-family="sans-serif" font-size="14" lengthAdjust="spacing" textLength="116.3135" x="349.1421" y="25.5352">Blockchain Client</text><rect fill="#ddd" height="30.4883" rx="2.5" stroke="#666" stroke-width=".5" width="130.3135" x="342.1421" y="495.6543"/><text fill="#333" font-family="sans-serif" font-size="14" lengthAdjust="spacing" textLength="116.3135" x="349.1421" y="516.1895">Blockchain Client</text><path d="m232.4272 67.7988h10v419.8555h-10z" fill="#fff" stroke="#181818"/><path d="m237.4272 105.1094h10v381.5449h-10z" fill="#fff" stroke="#181818"/><path d="m402.2988 163.7305h10v29.3105h-10z" fill="#fff" stroke="#181818"/><path d="m220.4272 63.7988 10 4-10 4 4-4z" fill="#666" stroke="#666"/><path d="m46.7524 67.7988h179.6748" stroke="#666"/><text fill="#333" font-family="sans-serif" font-size="13" lengthAdjust="spacing" textLength="152.0454" x="53.7524" y="63.0566">Request: GetBlock(hash)</text><path d="m242.4272 92.1094h47" stroke="#666"/><path d="m289.4272 92.1094v13" stroke="#666"/><path d="m248.4272 105.1094h41" stroke="#666"/><path d="m258.4272 101.1094-10 4 10 4-4-4z" fill="#666" stroke="#666"/><text fill="#333" font-family="sans-serif" font-size="13" lengthAdjust="spacing" textLength="135.8716" x="254.4272" y="87.3672">handleGetBlock(hash)</text><path d="m10 125.1094h62.1387v7.3105l-10 10h-52.1387z" fill="#eee" stroke="#000" stroke-width="1.5"/><path d="m10 125.1094h544.2036v354.5449h-544.2036z" fill="none" stroke="#000" stroke-width="1.5"/><text fill="#333" font-family="sans-serif" font-size="13" font-weight="bold" lengthAdjust="spacing" textLength="17.1387" x="25" y="138.6777">alt</text><text fill="#333" font-family="sans-serif" font-size="11" font-weight="bold" lengthAdjust="spacing" textLength="66.3491" x="87.1387" y="137.7441">[valid hash]</text><path d="m390.2988 159.7305 10 4-10 4 4-4z" fill="#666" stroke="#666"/><path d="m247.4272 163.7305h148.8716" stroke="#666"/><text fill="#333" font-family="sans-serif" font-size="13" lengthAdjust="spacing" textLength="93.374" x="254.4272" y="158.9883">GetBlock(hash)</text><path d="m258.4272 189.041-10 4 10 4-4-4z" fill="#666" stroke="#666"/><path d="m252.4272 193.041h153.8716" stroke="#666" stroke-dasharray="2 2"/><text fill="#333" font-family="sans-serif" font-size="13" lengthAdjust="spacing" textLength="64.9937" x="264.4272" y="188.2988">Block data</text><path d="m57.7524 320.8701-10 4 10 4-4-4z" fill="#666" stroke="#666"/><path d="m51.7524 324.8701h184.6748" stroke="#666"/><text fill="#333" font-family="sans-serif" font-size="13" lengthAdjust="spacing" textLength="161.6748" x="63.7524" y="320.1279">Response with Block Data</text><path d="m252 206.041v224h286v-214l-10-10z" fill="#feffdd" stroke="#181818" stroke-width=".5"/><path d="m528 206.041v10h10z" fill="#feffdd" stroke="#181818" stroke-width=".5"/><g fill="#333" font-family="sans-serif"><text font-size="13" lengthAdjust="spacing" textLength="203.7217" x="258" y="223.6094">Response fields (verbosity=1,2):</text><text font-size="13" lengthAdjust="spacing" textLength="117.3364" x="258" y="238.9199">- hash: Block hash</text><text font-size="13" lengthAdjust="spacing" textLength="265.7764" x="258" y="254.2305">- confirmations: Number of confirmations</text><text font-size="13" lengthAdjust="spacing" textLength="161.3701" x="258" y="269.541">- size: Block size in bytes</text><text font-size="13" lengthAdjust="spacing" textLength="137.6616" x="258" y="284.8516">- height: Block height</text><text font-size="13" lengthAdjust="spacing" textLength="148.9097" x="258" y="300.1621">- version: Block version</text><text font-size="13" lengthAdjust="spacing" textLength="181.1938" x="258" y="315.4727">- versionHex: Version in hex</text><text font-size="13" lengthAdjust="spacing" textLength="195.9902" x="258" y="330.7832">- merkleroot: Merkle root hash</text><text font-size="13" lengthAdjust="spacing" textLength="113.4517" x="258" y="346.0938">- time: Block time</text><text font-size="13" lengthAdjust="spacing" textLength="133.4976" x="258" y="361.4043">- nonce: Block nonce</text><text font-size="13" lengthAdjust="spacing" textLength="127.7847" x="258" y="376.7148">- bits: Difficulty bits</text><text font-size="13" lengthAdjust="spacing" textLength="161.0591" x="258" y="392.0254">- difficulty: PoW difficulty</text><text font-size="13" lengthAdjust="spacing" textLength="263.1611" x="258" y="407.3359">- previousblockhash: Previous block hash</text><text font-size="13" lengthAdjust="spacing" textLength="214.1636" x="258" y="422.6465">- nextblockhash: Next block hash</text></g><path d="m10 436.3887h544.2036" stroke="#000" stroke-dasharray="2 2"/><text fill="#333" font-family="sans-serif" font-size="11" font-weight="bold" lengthAdjust="spacing" textLength="121.3223" x="15" y="447.0234">[invalid or not found]</text><path d="m57.7524 467.6543-10 4 10 4-4-4z" fill="#666" stroke="#666"/><path d="m51.7524 471.6543h184.6748" stroke="#666"/><text fill="#333" font-family="sans-serif" font-size="13" lengthAdjust="spacing" textLength="138.9185" x="63.7524" y="466.9121">Error: Block not found</text><text fill="#333" font-family="sans-serif" font-size="10" lengthAdjust="spacing" textLength="155.4346" y="537.8105">Last Modified On: 24-Feb-2025</text></svg>
