<svg xmlns="http://www.w3.org/2000/svg" xmlns:xlink="http://www.w3.org/1999/xlink" contentStyleType="text/css" height="791px" preserveAspectRatio="none" style="width:764px;height:791px;background:#FFFFFF;" version="1.1" viewBox="0 0 764 791" width="764px" zoomAndPan="magnify"><defs/><g><rect fill="#FFFFFF" height="662.6289" style="stroke:#181818;stroke-width:1.0;" width="10" x="310.7134" y="67.7988"/><rect fill="#FFFFFF" height="127.1973" style="stroke:#181818;stroke-width:1.0;" width="10" x="523.7998" y="97.1094"/><rect fill="#FFFFFF" height="127.1973" style="stroke:#181818;stroke-width:1.0;" width="10" x="667.6611" y="253.6172"/><rect fill="none" height="611.3184" style="stroke:#000000;stroke-width:1.5;" width="747.8179" x="10" y="112.1094"/><rect fill="none" height="447.8105" style="stroke:#000000;stroke-width:1.5;" width="727.8179" x="20" y="268.6172"/><rect fill="none" height="313.6133" style="stroke:#000000;stroke-width:1.5;" width="567.6958" x="30" y="395.8145"/><line style="stroke:#181818;stroke-width:0.5;stroke-dasharray:5.0,5.0;" x1="66" x2="66" y1="36.4883" y2="740.4277"/><line style="stroke:#181818;stroke-width:0.5;stroke-dasharray:5.0,5.0;" x1="315.4385" x2="315.4385" y1="36.4883" y2="740.4277"/><line style="stroke:#181818;stroke-width:0.5;stroke-dasharray:5.0,5.0;" x1="528.0952" x2="528.0952" y1="36.4883" y2="740.4277"/><line style="stroke:#181818;stroke-width:0.5;stroke-dasharray:5.0,5.0;" x1="672.5044" x2="672.5044" y1="36.4883" y2="740.4277"/><rect fill="#E2E2F0" height="30.4883" rx="2.5" ry="2.5" style="stroke:#181818;stroke-width:0.5;" width="53.5049" x="40" y="5"/><text fill="#000000" font-family="sans-serif" font-size="14" lengthAdjust="spacing" textLength="39.5049" x="47" y="25.5352">Client</text><rect fill="#E2E2F0" height="30.4883" rx="2.5" ry="2.5" style="stroke:#181818;stroke-width:0.5;" width="53.5049" x="40" y="739.4277"/><text fill="#000000" font-family="sans-serif" font-size="14" lengthAdjust="spacing" textLength="39.5049" x="47" y="759.9629">Client</text><rect fill="#E2E2F0" height="30.4883" rx="2.5" ry="2.5" style="stroke:#181818;stroke-width:0.5;" width="86.5498" x="272.4385" y="5"/><text fill="#000000" font-family="sans-serif" font-size="14" lengthAdjust="spacing" textLength="72.5498" x="279.4385" y="25.5352">RPC Server</text><rect fill="#E2E2F0" height="30.4883" rx="2.5" ry="2.5" style="stroke:#181818;stroke-width:0.5;" width="86.5498" x="272.4385" y="739.4277"/><text fill="#000000" font-family="sans-serif" font-size="14" lengthAdjust="spacing" textLength="72.5498" x="279.4385" y="759.9629">RPC Server</text><rect fill="#E2E2F0" height="30.4883" rx="2.5" ry="2.5" style="stroke:#181818;stroke-width:0.5;" width="137.4092" x="460.0952" y="5"/><text fill="#000000" font-family="sans-serif" font-size="14" lengthAdjust="spacing" textLength="123.4092" x="467.0952" y="25.5352">Chain Hash Parser</text><rect fill="#E2E2F0" height="30.4883" rx="2.5" ry="2.5" style="stroke:#181818;stroke-width:0.5;" width="137.4092" x="460.0952" y="739.4277"/><text fill="#000000" font-family="sans-serif" font-size="14" lengthAdjust="spacing" textLength="123.4092" x="467.0952" y="759.9629">Chain Hash Parser</text><rect fill="#E2E2F0" height="30.4883" rx="2.5" ry="2.5" style="stroke:#181818;stroke-width:0.5;" width="130.3135" x="607.5044" y="5"/><text fill="#000000" font-family="sans-serif" font-size="14" lengthAdjust="spacing" textLength="116.3135" x="614.5044" y="25.5352">Blockchain Client</text><rect fill="#E2E2F0" height="30.4883" rx="2.5" ry="2.5" style="stroke:#181818;stroke-width:0.5;" width="130.3135" x="607.5044" y="739.4277"/><text fill="#000000" font-family="sans-serif" font-size="14" lengthAdjust="spacing" textLength="116.3135" x="614.5044" y="759.9629">Blockchain Client</text><rect fill="#FFFFFF" height="662.6289" style="stroke:#181818;stroke-width:1.0;" width="10" x="310.7134" y="67.7988"/><rect fill="#FFFFFF" height="127.1973" style="stroke:#181818;stroke-width:1.0;" width="10" x="523.7998" y="97.1094"/><rect fill="#FFFFFF" height="127.1973" style="stroke:#181818;stroke-width:1.0;" width="10" x="667.6611" y="253.6172"/><polygon fill="#181818" points="298.7134,63.7988,308.7134,67.7988,298.7134,71.7988,302.7134,67.7988" style="stroke:#181818;stroke-width:1.0;"/><line style="stroke:#181818;stroke-width:1.0;" x1="66.7524" x2="304.7134" y1="67.7988" y2="67.7988"/><text fill="#000000" font-family="sans-serif" font-size="13" lengthAdjust="spacing" textLength="224.9609" x="73.7524" y="63.0566">GetBlockHeaderCmd(hash, verbose)</text><polygon fill="#181818" points="511.7998,93.1094,521.7998,97.1094,511.7998,101.1094,515.7998,97.1094" style="stroke:#181818;stroke-width:1.0;"/><line style="stroke:#181818;stroke-width:1.0;" x1="320.7134" x2="517.7998" y1="97.1094" y2="97.1094"/><text fill="#000000" font-family="sans-serif" font-size="13" lengthAdjust="spacing" textLength="146.2817" x="327.7134" y="92.3672">NewHashFromStr(hash)</text><path d="M10,112.1094 L72.1387,112.1094 L72.1387,119.4199 L62.1387,129.4199 L10,129.4199 L10,112.1094 " fill="#EEEEEE" style="stroke:#000000;stroke-width:1.5;"/><rect fill="none" height="611.3184" style="stroke:#000000;stroke-width:1.5;" width="747.8179" x="10" y="112.1094"/><text fill="#000000" font-family="sans-serif" font-size="13" font-weight="bold" lengthAdjust="spacing" textLength="17.1387" x="25" y="125.6777">alt</text><text fill="#000000" font-family="sans-serif" font-size="11" font-weight="bold" lengthAdjust="spacing" textLength="122.1387" x="87.1387" y="124.7441">[Invalid Hash Format]</text><polygon fill="#181818" points="331.7134,146.7305,321.7134,150.7305,331.7134,154.7305,327.7134,150.7305" style="stroke:#181818;stroke-width:1.0;"/><line style="stroke:#181818;stroke-width:1.0;stroke-dasharray:2.0,2.0;" x1="325.7134" x2="522.7998" y1="150.7305" y2="150.7305"/><text fill="#000000" font-family="sans-serif" font-size="13" lengthAdjust="spacing" textLength="77.0796" x="337.7134" y="145.9883">Return error</text><polygon fill="#181818" points="77.7524,176.041,67.7524,180.041,77.7524,184.041,73.7524,180.041" style="stroke:#181818;stroke-width:1.0;"/><line style="stroke:#181818;stroke-width:1.0;" x1="71.7524" x2="309.7134" y1="180.041" y2="180.041"/><text fill="#000000" font-family="sans-serif" font-size="13" lengthAdjust="spacing" textLength="168.8604" x="83.7524" y="175.2988">Return rpcDecodeHexError</text><line style="stroke:#000000;stroke-width:1.0;stroke-dasharray:2.0,2.0;" x1="10" x2="757.8179" y1="189.041" y2="189.041"/><text fill="#000000" font-family="sans-serif" font-size="11" font-weight="bold" lengthAdjust="spacing" textLength="68.8682" x="15" y="199.6758">[Valid Hash]</text><polygon fill="#181818" points="331.7134,220.3066,321.7134,224.3066,331.7134,228.3066,327.7134,224.3066" style="stroke:#181818;stroke-width:1.0;"/><line style="stroke:#181818;stroke-width:1.0;stroke-dasharray:2.0,2.0;" x1="325.7134" x2="527.7998" y1="224.3066" y2="224.3066"/><text fill="#000000" font-family="sans-serif" font-size="13" lengthAdjust="spacing" textLength="122.6812" x="337.7134" y="219.5645">Return parsed hash</text><polygon fill="#181818" points="655.6611,249.6172,665.6611,253.6172,655.6611,257.6172,659.6611,253.6172" style="stroke:#181818;stroke-width:1.0;"/><line style="stroke:#181818;stroke-width:1.0;" x1="320.7134" x2="661.6611" y1="253.6172" y2="253.6172"/><text fill="#000000" font-family="sans-serif" font-size="13" lengthAdjust="spacing" textLength="165.8135" x="327.7134" y="248.875">GetBlockHeader(ctx, hash)</text><path d="M20,268.6172 L82.1387,268.6172 L82.1387,275.9277 L72.1387,285.9277 L20,285.9277 L20,268.6172 " fill="#EEEEEE" style="stroke:#000000;stroke-width:1.5;"/><rect fill="none" height="447.8105" style="stroke:#000000;stroke-width:1.5;" width="727.8179" x="20" y="268.6172"/><text fill="#000000" font-family="sans-serif" font-size="13" font-weight="bold" lengthAdjust="spacing" textLength="17.1387" x="35" y="282.1855">alt</text><text fill="#000000" font-family="sans-serif" font-size="11" font-weight="bold" lengthAdjust="spacing" textLength="100.7671" x="97.1387" y="281.252">[Block Not Found]</text><polygon fill="#181818" points="331.7134,303.2383,321.7134,307.2383,331.7134,311.2383,327.7134,307.2383" style="stroke:#181818;stroke-width:1.0;"/><line style="stroke:#181818;stroke-width:1.0;stroke-dasharray:2.0,2.0;" x1="325.7134" x2="666.6611" y1="307.2383" y2="307.2383"/><text fill="#000000" font-family="sans-serif" font-size="13" lengthAdjust="spacing" textLength="77.0796" x="337.7134" y="302.4961">Return error</text><polygon fill="#181818" points="77.7524,332.5488,67.7524,336.5488,77.7524,340.5488,73.7524,336.5488" style="stroke:#181818;stroke-width:1.0;"/><line style="stroke:#181818;stroke-width:1.0;" x1="71.7524" x2="309.7134" y1="336.5488" y2="336.5488"/><text fill="#000000" font-family="sans-serif" font-size="13" lengthAdjust="spacing" textLength="77.0796" x="83.7524" y="331.8066">Return error</text><line style="stroke:#000000;stroke-width:1.0;stroke-dasharray:2.0,2.0;" x1="20" x2="747.8179" y1="345.5488" y2="345.5488"/><text fill="#000000" font-family="sans-serif" font-size="11" font-weight="bold" lengthAdjust="spacing" textLength="77.2041" x="25" y="356.1836">[Block Found]</text><polygon fill="#181818" points="331.7134,376.8145,321.7134,380.8145,331.7134,384.8145,327.7134,380.8145" style="stroke:#181818;stroke-width:1.0;"/><line style="stroke:#181818;stroke-width:1.0;stroke-dasharray:2.0,2.0;" x1="325.7134" x2="671.6611" y1="380.8145" y2="380.8145"/><text fill="#000000" font-family="sans-serif" font-size="13" lengthAdjust="spacing" textLength="179.6069" x="337.7134" y="376.0723">Return header and metadata</text><path d="M30,395.8145 L92.1387,395.8145 L92.1387,403.125 L82.1387,413.125 L30,413.125 L30,395.8145 " fill="#EEEEEE" style="stroke:#000000;stroke-width:1.5;"/><rect fill="none" height="313.6133" style="stroke:#000000;stroke-width:1.5;" width="567.6958" x="30" y="395.8145"/><text fill="#000000" font-family="sans-serif" font-size="13" font-weight="bold" lengthAdjust="spacing" textLength="17.1387" x="45" y="409.3828">alt</text><text fill="#000000" font-family="sans-serif" font-size="11" font-weight="bold" lengthAdjust="spacing" textLength="96.3735" x="107.1387" y="408.4492">[verbose = false]</text><polygon fill="#181818" points="77.7524,441.0908,67.7524,445.0908,77.7524,449.0908,73.7524,445.0908" style="stroke:#181818;stroke-width:1.0;"/><line style="stroke:#181818;stroke-width:1.0;" x1="71.7524" x2="309.7134" y1="445.0908" y2="445.0908"/><text fill="#000000" font-family="sans-serif" font-size="13" lengthAdjust="spacing" textLength="177.6074" x="83.7524" y="440.3486">Return hex-encoded header</text><path d="M325,418.125 L325,458.125 L586,458.125 L586,428.125 L576,418.125 L325,418.125 " fill="#FEFFDD" style="stroke:#181818;stroke-width:0.5;"/><path d="M576,418.125 L576,428.125 L586,428.125 L576,418.125 " fill="#FEFFDD" style="stroke:#181818;stroke-width:0.5;"/><text fill="#000000" font-family="sans-serif" font-size="13" lengthAdjust="spacing" textLength="102.7686" x="331" y="435.6934">Response fields:</text><text fill="#000000" font-family="sans-serif" font-size="13" lengthAdjust="spacing" textLength="240.9824" x="331" y="451.0039">- Hex-encoded serialized header data</text><line style="stroke:#000000;stroke-width:1.0;stroke-dasharray:2.0,2.0;" x1="30" x2="597.6958" y1="464.7461" y2="464.7461"/><text fill="#000000" font-family="sans-serif" font-size="11" font-weight="bold" lengthAdjust="spacing" textLength="92.2324" x="35" y="475.3809">[verbose = true]</text><line style="stroke:#181818;stroke-width:1.0;" x1="320.7134" x2="362.7134" y1="500.0117" y2="500.0117"/><line style="stroke:#181818;stroke-width:1.0;" x1="362.7134" x2="362.7134" y1="500.0117" y2="513.0117"/><line style="stroke:#181818;stroke-width:1.0;" x1="321.7134" x2="362.7134" y1="513.0117" y2="513.0117"/><polygon fill="#181818" points="331.7134,509.0117,321.7134,513.0117,331.7134,517.0117,327.7134,513.0117" style="stroke:#181818;stroke-width:1.0;"/><text fill="#000000" font-family="sans-serif" font-size="13" lengthAdjust="spacing" textLength="179.0864" x="327.7134" y="495.2695">Calculate difficulty from bits</text><polygon fill="#181818" points="77.7524,617.875,67.7524,621.875,77.7524,625.875,73.7524,621.875" style="stroke:#181818;stroke-width:1.0;"/><line style="stroke:#181818;stroke-width:1.0;" x1="71.7524" x2="309.7134" y1="621.875" y2="621.875"/><text fill="#000000" font-family="sans-serif" font-size="13" lengthAdjust="spacing" textLength="138.0488" x="83.7524" y="617.1328">Return JSON response</text><path d="M325,526.0117 L325,704.0117 L574,704.0117 L574,536.0117 L564,526.0117 L325,526.0117 " fill="#FEFFDD" style="stroke:#181818;stroke-width:0.5;"/><path d="M564,526.0117 L564,536.0117 L574,536.0117 L564,526.0117 " fill="#FEFFDD" style="stroke:#181818;stroke-width:0.5;"/><text fill="#000000" font-family="sans-serif" font-size="13" lengthAdjust="spacing" textLength="102.7686" x="331" y="543.5801">Response fields:</text><text fill="#000000" font-family="sans-serif" font-size="13" lengthAdjust="spacing" textLength="117.3364" x="331" y="558.8906">- hash: Block hash</text><text fill="#000000" font-family="sans-serif" font-size="13" lengthAdjust="spacing" textLength="148.9097" x="331" y="574.2012">- version: Block version</text><text fill="#000000" font-family="sans-serif" font-size="13" lengthAdjust="spacing" textLength="181.1938" x="331" y="589.5117">- versionHex: Version in hex</text><text fill="#000000" font-family="sans-serif" font-size="13" lengthAdjust="spacing" textLength="228.979" x="331" y="604.8223">- previoushash: Previous block hash</text><text fill="#000000" font-family="sans-serif" font-size="13" lengthAdjust="spacing" textLength="195.9902" x="331" y="620.1328">- merkleroot: Merkle root hash</text><text fill="#000000" font-family="sans-serif" font-size="13" lengthAdjust="spacing" textLength="152.439" x="331" y="635.4434">- time: Block timestamp</text><text fill="#000000" font-family="sans-serif" font-size="13" lengthAdjust="spacing" textLength="111.7632" x="331" y="650.7539">- bits: Target bits</text><text fill="#000000" font-family="sans-serif" font-size="13" lengthAdjust="spacing" textLength="134.5322" x="331" y="666.0645">- nonce: Nonce value</text><text fill="#000000" font-family="sans-serif" font-size="13" lengthAdjust="spacing" textLength="200.6494" x="331" y="681.375">- difficulty: Calculated difficulty</text><text fill="#000000" font-family="sans-serif" font-size="13" lengthAdjust="spacing" textLength="137.6616" x="331" y="696.6855">- height: Block height</text><text fill="#888888" font-family="sans-serif" font-size="10" lengthAdjust="spacing" textLength="153.0469" x="0" y="781.584">Last Modified On: 30-Jan-2025</text><!--SRC=[hLJRRjim37ttLn012gH0_GC6jeTbwx9YIODcwBjYqRLGMp8a9altzQCkSUma3VfG0uObwf27FAJS2KkgL9tG1BD6eQQi6vWcJwiPhD7kq4v0EE3j-7nM2wLXBbmDAs5TWiNb6FcjCULh6U2HA22FrYoBPiY_UXeeu2TIE9wZa6XdhPpMp7C7dCp6EBpDH4bg9mX3MbdclTWvahF_4l_wnEwjQTTaW_F09-Ke6e9VUYSQ9MCPzyQsWZBW9qNA-uoUaBPM0rfhR40aofHv3x1T-HrB8t6E-ny1Z8r3UEvPheRll5r2VS19F4rwo3tGzLIoQKdxEuXrUuy-p53rSC0Y11ii3R42Mos3tJ-3-5U4k2B64HH4Y3mVvwX3AI2qX1P9I46YznieSrhIeQmqBF05Ai7q_TcLX6lSvwXz-sHY7tbfmtHMlTGqCeU0w3gZcQrIs4XNd05oc0-2SoiLZyI_dWT6rGN9k6nFs1k3XiUYo6ulrXGbd8cct3PU7gcgIl6Qtg3Y-m0RHUuZMZoi7vTWKrcVA8CVoYBDGZ_eOmWNwPJH1rJQlWzaPGjuZcjGeOqNm9t5dJ9R5nDOfHrihcNIedrjq1f31Ip26lpcFJYf5WzP-xKZqNONSBu71VmHzWNfl24HeuqkETZIVu3_KYVTZg1ZSmSjbmFpfGQWRrtV0ZnhvFdafGlhl_xD1hSl_80Rh0Wg5eO7-RTm10l3AIZEv96xUCEpZTE9bFbYiSZV-9dS_WS0]--></g></svg>
