<svg contentStyleType="text/css" height="643" preserveAspectRatio="none" viewBox="0 0 730 643" width="730" xmlns="http://www.w3.org/2000/svg" zoomAndPan="magnify"><path d="m0 0h730v643h-730z" fill="#f0f8ff"/><path d="m280.4263 67.7988h10v514.1211h-10z" fill="#fff" stroke="#181818"/><path d="m489.8901 97.1094h10v163.8184h-10z" fill="#fff" stroke="#181818"/><path d="m633.7515 290.2383h10v127.1973h-10z" fill="#fff" stroke="#181818"/><path d="m10 112.1094h713.9082v462.8105h-713.9082z" fill="none" stroke="#000" stroke-width="1.5"/><path d="m20 305.2383h693.9082v262.6816h-693.9082z" fill="none" stroke="#000" stroke-width="1.5"/><path d="m56 36.4883v555.4316" stroke="#181818" stroke-dasharray="5 5" stroke-width=".5"/><path d="m285.1514 36.4883v555.4316" stroke="#181818" stroke-dasharray="5 5" stroke-width=".5"/><path d="m494.1855 36.4883v555.4316" stroke="#181818" stroke-dasharray="5 5" stroke-width=".5"/><path d="m638.5947 36.4883v555.4316" stroke="#181818" stroke-dasharray="5 5" stroke-width=".5"/><rect fill="#ddd" height="30.4883" rx="2.5" stroke="#666" stroke-width=".5" width="53.5049" x="30" y="5"/><text fill="#333" font-family="sans-serif" font-size="14" lengthAdjust="spacing" textLength="39.5049" x="37" y="25.5352">Client</text><rect fill="#ddd" height="30.4883" rx="2.5" stroke="#666" stroke-width=".5" width="53.5049" x="30" y="590.9199"/><text fill="#333" font-family="sans-serif" font-size="14" lengthAdjust="spacing" textLength="39.5049" x="37" y="611.4551">Client</text><rect fill="#ddd" height="30.4883" rx="2.5" stroke="#666" stroke-width=".5" width="86.5498" x="242.1514" y="5"/><text fill="#333" font-family="sans-serif" font-size="14" lengthAdjust="spacing" textLength="72.5498" x="249.1514" y="25.5352">RPC Server</text><rect fill="#ddd" height="30.4883" rx="2.5" stroke="#666" stroke-width=".5" width="86.5498" x="242.1514" y="590.9199"/><text fill="#333" font-family="sans-serif" font-size="14" lengthAdjust="spacing" textLength="72.5498" x="249.1514" y="611.4551">RPC Server</text><rect fill="#ddd" height="30.4883" rx="2.5" stroke="#666" stroke-width=".5" width="137.4092" x="426.1855" y="5"/><text fill="#333" font-family="sans-serif" font-size="14" lengthAdjust="spacing" textLength="123.4092" x="433.1855" y="25.5352">Chain Hash Parser</text><rect fill="#ddd" height="30.4883" rx="2.5" stroke="#666" stroke-width=".5" width="137.4092" x="426.1855" y="590.9199"/><text fill="#333" font-family="sans-serif" font-size="14" lengthAdjust="spacing" textLength="123.4092" x="433.1855" y="611.4551">Chain Hash Parser</text><rect fill="#ddd" height="30.4883" rx="2.5" stroke="#666" stroke-width=".5" width="130.3135" x="573.5947" y="5"/><text fill="#333" font-family="sans-serif" font-size="14" lengthAdjust="spacing" textLength="116.3135" x="580.5947" y="25.5352">Blockchain Client</text><rect fill="#ddd" height="30.4883" rx="2.5" stroke="#666" stroke-width=".5" width="130.3135" x="573.5947" y="590.9199"/><text fill="#333" font-family="sans-serif" font-size="14" lengthAdjust="spacing" textLength="116.3135" x="580.5947" y="611.4551">Blockchain Client</text><path d="m280.4263 67.7988h10v514.1211h-10z" fill="#fff" stroke="#181818"/><path d="m489.8901 97.1094h10v163.8184h-10z" fill="#fff" stroke="#181818"/><path d="m633.7515 290.2383h10v127.1973h-10z" fill="#fff" stroke="#181818"/><path d="m268.4263 63.7988 10 4-10 4 4-4z" fill="#666" stroke="#666"/><path d="m56.7524 67.7988h217.6739" stroke="#666"/><text fill="#333" font-family="sans-serif" font-size="13" lengthAdjust="spacing" textLength="204.6738" x="63.7524" y="63.0566">ReconsiderBlockCmd(blockhash)</text><path d="m477.8901 93.1094 10 4-10 4 4-4z" fill="#666" stroke="#666"/><path d="m290.4263 97.1094h193.4638" stroke="#666"/><text fill="#333" font-family="sans-serif" font-size="13" lengthAdjust="spacing" textLength="180.4639" x="297.4263" y="92.3672">NewHashFromStr(blockhash)</text><path d="m10 112.1094h62.1387v7.3105l-10 10h-52.1387z" fill="#eee" stroke="#000" stroke-width="1.5"/><path d="m10 112.1094h713.9082v462.8105h-713.9082z" fill="none" stroke="#000" stroke-width="1.5"/><text fill="#333" font-family="sans-serif" font-size="13" font-weight="bold" lengthAdjust="spacing" textLength="17.1387" x="25" y="125.6777">alt</text><text fill="#333" font-family="sans-serif" font-size="11" font-weight="bold" lengthAdjust="spacing" textLength="122.1387" x="87.1387" y="124.7441">[Invalid Hash Format]</text><path d="m301.4263 146.7305-10 4 10 4-4-4z" fill="#666" stroke="#666"/><path d="m295.4263 150.7305h193.4638" stroke="#666" stroke-dasharray="2 2"/><text fill="#333" font-family="sans-serif" font-size="13" lengthAdjust="spacing" textLength="77.0796" x="307.4263" y="145.9883">Return error</text><path d="m67.7524 194.3516-10 4 10 4-4-4z" fill="#666" stroke="#666"/><path d="m61.7524 198.3516h217.6739" stroke="#666"/><text fill="#333" font-family="sans-serif" font-size="13" lengthAdjust="spacing" textLength="168.8604" x="73.7524" y="193.6094">Return rpcDecodeHexError</text><path d="m295 163.7305v55h347v-45l-10-10z" fill="#feffdd" stroke="#181818" stroke-width=".5"/><path d="m632 163.7305v10h10z" fill="#feffdd" stroke="#181818" stroke-width=".5"/><text fill="#333" font-family="sans-serif" font-size="13" lengthAdjust="spacing" textLength="96.5098" x="301" y="181.2988">Error response:</text><text fill="#333" font-family="sans-serif" font-size="13" lengthAdjust="spacing" textLength="203.2837" x="301" y="196.6094">- Code: ErrRPCDecodeHexString</text><text fill="#333" font-family="sans-serif" font-size="13" lengthAdjust="spacing" textLength="326.2568" x="301" y="211.9199">- Message: "Argument must be hexadecimal string"</text><path d="m10 225.6621h713.9082" stroke="#000" stroke-dasharray="2 2"/><text fill="#333" font-family="sans-serif" font-size="11" font-weight="bold" lengthAdjust="spacing" textLength="68.8682" x="15" y="236.2969">[Valid Hash]</text><path d="m301.4263 256.9277-10 4 10 4-4-4z" fill="#666" stroke="#666"/><path d="m295.4263 260.9277h198.4638" stroke="#666" stroke-dasharray="2 2"/><text fill="#333" font-family="sans-serif" font-size="13" lengthAdjust="spacing" textLength="122.6812" x="307.4263" y="256.1855">Return parsed hash</text><path d="m621.7515 286.2383 10 4-10 4 4-4z" fill="#666" stroke="#666"/><path d="m290.4263 290.2383h337.3252" stroke="#666"/><text fill="#333" font-family="sans-serif" font-size="13" lengthAdjust="spacing" textLength="163.9473" x="297.4263" y="285.4961">RevalidateBlock(ctx, hash)</text><path d="m20 305.2383h62.1387v7.3105l-10 10h-52.1387z" fill="#eee" stroke="#000" stroke-width="1.5"/><path d="m20 305.2383h693.9082v262.6816h-693.9082z" fill="none" stroke="#000" stroke-width="1.5"/><text fill="#333" font-family="sans-serif" font-size="13" font-weight="bold" lengthAdjust="spacing" textLength="17.1387" x="35" y="318.8066">alt</text><text fill="#333" font-family="sans-serif" font-size="11" font-weight="bold" lengthAdjust="spacing" textLength="108.1577" x="97.1387" y="317.873">[Revalidation Fails]</text><path d="m301.4263 339.8594-10 4 10 4-4-4z" fill="#666" stroke="#666"/><path d="m295.4263 343.8594h337.3252" stroke="#666" stroke-dasharray="2 2"/><text fill="#333" font-family="sans-serif" font-size="13" lengthAdjust="spacing" textLength="77.0796" x="307.4263" y="339.1172">Return error</text><path d="m67.7524 369.1699-10 4 10 4-4-4z" fill="#666" stroke="#666"/><path d="m61.7524 373.1699h217.6739" stroke="#666"/><text fill="#333" font-family="sans-serif" font-size="13" lengthAdjust="spacing" textLength="77.0796" x="73.7524" y="368.4277">Return error</text><path d="m20 382.1699h693.9082" stroke="#000" stroke-dasharray="2 2"/><text fill="#333" font-family="sans-serif" font-size="11" font-weight="bold" lengthAdjust="spacing" textLength="133.6167" x="25" y="392.8047">[Revalidation Succeeds]</text><path d="m301.4263 413.4355-10 4 10 4-4-4z" fill="#666" stroke="#666"/><path d="m295.4263 417.4355h342.3252" stroke="#666" stroke-dasharray="2 2"/><text fill="#333" font-family="sans-serif" font-size="13" lengthAdjust="spacing" textLength="61.4771" x="307.4263" y="412.6934">Return nil</text><path d="m67.7524 499.333-10 4 10 4-4-4z" fill="#666" stroke="#666"/><path d="m61.7524 503.333h217.6739" stroke="#666"/><text fill="#333" font-family="sans-serif" font-size="13" lengthAdjust="spacing" textLength="61.4771" x="73.7524" y="498.5908">Return nil</text><path d="m295 430.4355v132h299v-122l-10-10z" fill="#feffdd" stroke="#181818" stroke-width=".5"/><path d="m584 430.4355v10h10z" fill="#feffdd" stroke="#181818" stroke-width=".5"/><g fill="#333" font-family="sans-serif"><text font-size="13" lengthAdjust="spacing" textLength="102.7686" x="301" y="448.0039">Response fields:</text><text font-size="13" lengthAdjust="spacing" textLength="152.5278" x="301" y="463.3145">- Returns nil on success</text><text font-size="13" lengthAdjust="spacing" textLength="4.1133" x="301" y="478.625"></text><text font-size="13" lengthAdjust="spacing" textLength="46.1094" x="301" y="493.9355">Effects:</text><text font-size="13" lengthAdjust="spacing" textLength="228.3315" x="301" y="509.2461">- Removes invalid status from block</text><text font-size="13" lengthAdjust="spacing" textLength="278.6685" x="301" y="524.5566">- Descendants become eligible for inclusion</text><text font-size="13" lengthAdjust="spacing" textLength="217.8706" x="301" y="539.8672">- May trigger chain reorganization</text><text font-size="13" lengthAdjust="spacing" textLength="264.5449" x="301" y="555.1777">- Block must still pass all consensus rules</text><text font-size="10" lengthAdjust="spacing" textLength="155.4346" y="633.0762">Last Modified On: 24-Feb-2025</text></g></svg>
