<svg xmlns="http://www.w3.org/2000/svg" xmlns:xlink="http://www.w3.org/1999/xlink" contentStyleType="text/css" height="793px" preserveAspectRatio="none" style="width:1140px;height:793px;background:#FFFFFF;" version="1.1" viewBox="0 0 1140 793" width="1140px" zoomAndPan="magnify"><defs/><g><rect fill="#FFFFFF" height="664.6055" style="stroke:#181818;stroke-width:1.0;" width="10" x="320.1855" y="67.7988"/><rect fill="#FFFFFF" height="29.3105" style="stroke:#181818;stroke-width:1.0;" width="10" x="536.3018" y="97.1094"/><rect fill="#FFFFFF" height="29.3105" style="stroke:#181818;stroke-width:1.0;" width="10" x="536.3018" y="343.5039"/><rect fill="#FFFFFF" height="29.3105" style="stroke:#181818;stroke-width:1.0;" width="10" x="536.3018" y="402.125"/><rect fill="#FFFFFF" height="471.7871" style="stroke:#181818;stroke-width:1.0;" width="10" x="749.9087" y="224.3066"/><rect fill="none" height="583.9844" style="stroke:#000000;stroke-width:1.5;" width="1123.3589" x="10" y="141.4199"/><rect fill="none" height="449.7871" style="stroke:#000000;stroke-width:1.5;" width="851.4482" x="271.9106" y="239.3066"/><line style="stroke:#181818;stroke-width:0.5;stroke-dasharray:5.0,5.0;" x1="46" x2="46" y1="36.4883" y2="742.4043"/><line style="stroke:#181818;stroke-width:0.5;stroke-dasharray:5.0,5.0;" x1="324.9106" x2="324.9106" y1="36.4883" y2="742.4043"/><line style="stroke:#181818;stroke-width:0.5;stroke-dasharray:5.0,5.0;" x1="541.145" x2="541.145" y1="36.4883" y2="742.4043"/><line style="stroke:#181818;stroke-width:0.5;stroke-dasharray:5.0,5.0;" x1="754.5063" x2="754.5063" y1="36.4883" y2="742.4043"/><rect fill="#E2E2F0" height="30.4883" rx="2.5" ry="2.5" style="stroke:#181818;stroke-width:0.5;" width="53.5049" x="20" y="5"/><text fill="#000000" font-family="sans-serif" font-size="14" lengthAdjust="spacing" textLength="39.5049" x="27" y="25.5352">Client</text><rect fill="#E2E2F0" height="30.4883" rx="2.5" ry="2.5" style="stroke:#181818;stroke-width:0.5;" width="53.5049" x="20" y="741.4043"/><text fill="#000000" font-family="sans-serif" font-size="14" lengthAdjust="spacing" textLength="39.5049" x="27" y="761.9395">Client</text><rect fill="#E2E2F0" height="30.4883" rx="2.5" ry="2.5" style="stroke:#181818;stroke-width:0.5;" width="86.5498" x="281.9106" y="5"/><text fill="#000000" font-family="sans-serif" font-size="14" lengthAdjust="spacing" textLength="72.5498" x="288.9106" y="25.5352">RPC Server</text><rect fill="#E2E2F0" height="30.4883" rx="2.5" ry="2.5" style="stroke:#181818;stroke-width:0.5;" width="86.5498" x="281.9106" y="741.4043"/><text fill="#000000" font-family="sans-serif" font-size="14" lengthAdjust="spacing" textLength="72.5498" x="288.9106" y="761.9395">RPC Server</text><rect fill="#E2E2F0" height="30.4883" rx="2.5" ry="2.5" style="stroke:#181818;stroke-width:0.5;" width="130.3135" x="476.145" y="5"/><text fill="#000000" font-family="sans-serif" font-size="14" lengthAdjust="spacing" textLength="116.3135" x="483.145" y="25.5352">Blockchain Client</text><rect fill="#E2E2F0" height="30.4883" rx="2.5" ry="2.5" style="stroke:#181818;stroke-width:0.5;" width="130.3135" x="476.145" y="741.4043"/><text fill="#000000" font-family="sans-serif" font-size="14" lengthAdjust="spacing" textLength="116.3135" x="483.145" y="761.9395">Blockchain Client</text><rect fill="#E2E2F0" height="30.4883" rx="2.5" ry="2.5" style="stroke:#181818;stroke-width:0.5;" width="176.8047" x="666.5063" y="5"/><text fill="#000000" font-family="sans-serif" font-size="14" lengthAdjust="spacing" textLength="162.8047" x="673.5063" y="25.5352">Block to JSON Converter</text><rect fill="#E2E2F0" height="30.4883" rx="2.5" ry="2.5" style="stroke:#181818;stroke-width:0.5;" width="176.8047" x="666.5063" y="741.4043"/><text fill="#000000" font-family="sans-serif" font-size="14" lengthAdjust="spacing" textLength="162.8047" x="673.5063" y="761.9395">Block to JSON Converter</text><rect fill="#FFFFFF" height="664.6055" style="stroke:#181818;stroke-width:1.0;" width="10" x="320.1855" y="67.7988"/><rect fill="#FFFFFF" height="29.3105" style="stroke:#181818;stroke-width:1.0;" width="10" x="536.3018" y="97.1094"/><rect fill="#FFFFFF" height="29.3105" style="stroke:#181818;stroke-width:1.0;" width="10" x="536.3018" y="343.5039"/><rect fill="#FFFFFF" height="29.3105" style="stroke:#181818;stroke-width:1.0;" width="10" x="536.3018" y="402.125"/><rect fill="#FFFFFF" height="471.7871" style="stroke:#181818;stroke-width:1.0;" width="10" x="749.9087" y="224.3066"/><polygon fill="#181818" points="308.1855,63.7988,318.1855,67.7988,308.1855,71.7988,312.1855,67.7988" style="stroke:#181818;stroke-width:1.0;"/><line style="stroke:#181818;stroke-width:1.0;" x1="46.7524" x2="314.1855" y1="67.7988" y2="67.7988"/><text fill="#000000" font-family="sans-serif" font-size="13" lengthAdjust="spacing" textLength="254.4331" x="53.7524" y="63.0566">GetBlockByHeightCmd(height, verbosity)</text><polygon fill="#181818" points="524.3018,93.1094,534.3018,97.1094,524.3018,101.1094,528.3018,97.1094" style="stroke:#181818;stroke-width:1.0;"/><line style="stroke:#181818;stroke-width:1.0;" x1="330.1855" x2="530.3018" y1="97.1094" y2="97.1094"/><text fill="#000000" font-family="sans-serif" font-size="13" lengthAdjust="spacing" textLength="187.1162" x="337.1855" y="92.3672">GetBlockByHeight(ctx, height)</text><polygon fill="#181818" points="341.1855,122.4199,331.1855,126.4199,341.1855,130.4199,337.1855,126.4199" style="stroke:#181818;stroke-width:1.0;"/><line style="stroke:#181818;stroke-width:1.0;stroke-dasharray:2.0,2.0;" x1="335.1855" x2="540.3018" y1="126.4199" y2="126.4199"/><text fill="#000000" font-family="sans-serif" font-size="13" lengthAdjust="spacing" textLength="129.8921" x="347.1855" y="121.6777">return block or error</text><path d="M10,141.4199 L72.1387,141.4199 L72.1387,148.7305 L62.1387,158.7305 L10,158.7305 L10,141.4199 " fill="#EEEEEE" style="stroke:#000000;stroke-width:1.5;"/><rect fill="none" height="583.9844" style="stroke:#000000;stroke-width:1.5;" width="1123.3589" x="10" y="141.4199"/><text fill="#000000" font-family="sans-serif" font-size="13" font-weight="bold" lengthAdjust="spacing" textLength="17.1387" x="25" y="154.9883">alt</text><text fill="#000000" font-family="sans-serif" font-size="11" font-weight="bold" lengthAdjust="spacing" textLength="133.8262" x="87.1387" y="154.0547">[If Block Retrieval Fails]</text><polygon fill="#181818" points="57.7524,176.041,47.7524,180.041,57.7524,184.041,53.7524,180.041" style="stroke:#181818;stroke-width:1.0;"/><line style="stroke:#181818;stroke-width:1.0;" x1="51.7524" x2="319.1855" y1="180.041" y2="180.041"/><text fill="#000000" font-family="sans-serif" font-size="13" lengthAdjust="spacing" textLength="77.0796" x="63.7524" y="175.2988">Return error</text><line style="stroke:#000000;stroke-width:1.0;stroke-dasharray:2.0,2.0;" x1="10" x2="1133.3589" y1="189.041" y2="189.041"/><text fill="#000000" font-family="sans-serif" font-size="11" font-weight="bold" lengthAdjust="spacing" textLength="159.2852" x="15" y="199.6758">[If Block Retrieval Succeeds]</text><polygon fill="#181818" points="737.9087,220.3066,747.9087,224.3066,737.9087,228.3066,741.9087,224.3066" style="stroke:#181818;stroke-width:1.0;"/><line style="stroke:#181818;stroke-width:1.0;" x1="330.1855" x2="743.9087" y1="224.3066" y2="224.3066"/><text fill="#000000" font-family="sans-serif" font-size="13" lengthAdjust="spacing" textLength="189.4966" x="337.1855" y="219.5645">blockToJSON(block, verbosity)</text><path d="M271.9106,239.3066 L334.0493,239.3066 L334.0493,246.6172 L324.0493,256.6172 L271.9106,256.6172 L271.9106,239.3066 " fill="#EEEEEE" style="stroke:#000000;stroke-width:1.5;"/><rect fill="none" height="449.7871" style="stroke:#000000;stroke-width:1.5;" width="851.4482" x="271.9106" y="239.3066"/><text fill="#000000" font-family="sans-serif" font-size="13" font-weight="bold" lengthAdjust="spacing" textLength="17.1387" x="286.9106" y="252.875">alt</text><text fill="#000000" font-family="sans-serif" font-size="11" font-weight="bold" lengthAdjust="spacing" textLength="84.3638" x="349.0493" y="251.9414">[verbosity = 0]</text><polygon fill="#181818" points="341.1855,284.583,331.1855,288.583,341.1855,292.583,337.1855,288.583" style="stroke:#181818;stroke-width:1.0;"/><line style="stroke:#181818;stroke-width:1.0;stroke-dasharray:2.0,2.0;" x1="335.1855" x2="748.9087" y1="288.583" y2="288.583"/><text fill="#000000" font-family="sans-serif" font-size="13" lengthAdjust="spacing" textLength="200.0718" x="347.1855" y="283.8408">Return hex-encoded block data</text><path d="M764,261.6172 L764,301.6172 L1016,301.6172 L1016,271.6172 L1006,261.6172 L764,261.6172 " fill="#FEFFDD" style="stroke:#181818;stroke-width:0.5;"/><path d="M1006,261.6172 L1006,271.6172 L1016,271.6172 L1006,261.6172 " fill="#FEFFDD" style="stroke:#181818;stroke-width:0.5;"/><text fill="#000000" font-family="sans-serif" font-size="13" lengthAdjust="spacing" textLength="102.7686" x="770" y="279.1855">Response fields:</text><text fill="#000000" font-family="sans-serif" font-size="13" lengthAdjust="spacing" textLength="231.9307" x="770" y="294.4961">- Hex-encoded serialized block data</text><line style="stroke:#000000;stroke-width:1.0;stroke-dasharray:2.0,2.0;" x1="271.9106" x2="1123.3589" y1="308.2383" y2="308.2383"/><text fill="#000000" font-family="sans-serif" font-size="11" font-weight="bold" lengthAdjust="spacing" textLength="110.897" x="276.9106" y="318.873">[verbosity = 1 or 2]</text><polygon fill="#181818" points="557.3018,339.5039,547.3018,343.5039,557.3018,347.5039,553.3018,343.5039" style="stroke:#181818;stroke-width:1.0;"/><line style="stroke:#181818;stroke-width:1.0;" x1="551.3018" x2="748.9087" y1="343.5039" y2="343.5039"/><text fill="#000000" font-family="sans-serif" font-size="13" lengthAdjust="spacing" textLength="138.1694" x="563.3018" y="338.7617">Get best block header</text><polygon fill="#181818" points="737.9087,368.8145,747.9087,372.8145,737.9087,376.8145,741.9087,372.8145" style="stroke:#181818;stroke-width:1.0;"/><line style="stroke:#181818;stroke-width:1.0;stroke-dasharray:2.0,2.0;" x1="541.3018" x2="743.9087" y1="372.8145" y2="372.8145"/><text fill="#000000" font-family="sans-serif" font-size="13" lengthAdjust="spacing" textLength="179.6069" x="548.3018" y="368.0723">Return header and metadata</text><polygon fill="#181818" points="557.3018,398.125,547.3018,402.125,557.3018,406.125,553.3018,402.125" style="stroke:#181818;stroke-width:1.0;"/><line style="stroke:#181818;stroke-width:1.0;" x1="551.3018" x2="748.9087" y1="402.125" y2="402.125"/><text fill="#000000" font-family="sans-serif" font-size="13" lengthAdjust="spacing" textLength="92.0537" x="563.3018" y="397.3828">Get next block</text><polygon fill="#181818" points="737.9087,427.4355,747.9087,431.4355,737.9087,435.4355,741.9087,431.4355" style="stroke:#181818;stroke-width:1.0;"/><line style="stroke:#181818;stroke-width:1.0;stroke-dasharray:2.0,2.0;" x1="541.3018" x2="743.9087" y1="431.4355" y2="431.4355"/><text fill="#000000" font-family="sans-serif" font-size="13" lengthAdjust="spacing" textLength="112.3345" x="548.3018" y="426.6934">Return next block</text><polygon fill="#181818" points="341.1855,566.9199,331.1855,570.9199,341.1855,574.9199,337.1855,570.9199" style="stroke:#181818;stroke-width:1.0;"/><line style="stroke:#181818;stroke-width:1.0;stroke-dasharray:2.0,2.0;" x1="335.1855" x2="748.9087" y1="570.9199" y2="570.9199"/><text fill="#000000" font-family="sans-serif" font-size="13" lengthAdjust="spacing" textLength="204.7119" x="347.1855" y="566.1777">Return formatted JSON response</text><path d="M764,444.4355 L764,683.4355 L1112,683.4355 L1112,454.4355 L1102,444.4355 L764,444.4355 " fill="#FEFFDD" style="stroke:#181818;stroke-width:0.5;"/><path d="M1102,444.4355 L1102,454.4355 L1112,454.4355 L1102,444.4355 " fill="#FEFFDD" style="stroke:#181818;stroke-width:0.5;"/><text fill="#000000" font-family="sans-serif" font-size="13" lengthAdjust="spacing" textLength="102.7686" x="770" y="462.0039">Response fields:</text><text fill="#000000" font-family="sans-serif" font-size="13" lengthAdjust="spacing" textLength="117.3364" x="770" y="477.3145">- hash: Block hash</text><text fill="#000000" font-family="sans-serif" font-size="13" lengthAdjust="spacing" textLength="265.7764" x="770" y="492.625">- confirmations: Number of confirmations</text><text fill="#000000" font-family="sans-serif" font-size="13" lengthAdjust="spacing" textLength="161.3701" x="770" y="507.9355">- size: Block size in bytes</text><text fill="#000000" font-family="sans-serif" font-size="13" lengthAdjust="spacing" textLength="137.6616" x="770" y="523.2461">- height: Block height</text><text fill="#000000" font-family="sans-serif" font-size="13" lengthAdjust="spacing" textLength="148.9097" x="770" y="538.5566">- version: Block version</text><text fill="#000000" font-family="sans-serif" font-size="13" lengthAdjust="spacing" textLength="273.1079" x="770" y="553.8672">- versionHex: Block version in hexadecimal</text><text fill="#000000" font-family="sans-serif" font-size="13" lengthAdjust="spacing" textLength="195.9902" x="770" y="569.1777">- merkleroot: Merkle root hash</text><text fill="#000000" font-family="sans-serif" font-size="13" lengthAdjust="spacing" textLength="152.439" x="770" y="584.4883">- time: Block timestamp</text><text fill="#000000" font-family="sans-serif" font-size="13" lengthAdjust="spacing" textLength="133.4976" x="770" y="599.7988">- nonce: Block nonce</text><text fill="#000000" font-family="sans-serif" font-size="13" lengthAdjust="spacing" textLength="171.2725" x="770" y="615.1094">- bits: Target difficulty bits</text><text fill="#000000" font-family="sans-serif" font-size="13" lengthAdjust="spacing" textLength="200.6494" x="770" y="630.4199">- difficulty: Calculated difficulty</text><text fill="#000000" font-family="sans-serif" font-size="13" lengthAdjust="spacing" textLength="282.5215" x="770" y="645.7305">- previousblockhash: Hash of previous block</text><text fill="#000000" font-family="sans-serif" font-size="13" lengthAdjust="spacing" textLength="230.9912" x="770" y="661.041">- nextblockhash: Hash of next block</text><text fill="#000000" font-family="sans-serif" font-size="13" lengthAdjust="spacing" textLength="327.4502" x="770" y="676.3516">- tx: Array of transaction IDs (v1) or full tx data (v2)</text><polygon fill="#181818" points="57.7524,713.4043,47.7524,717.4043,57.7524,721.4043,53.7524,717.4043" style="stroke:#181818;stroke-width:1.0;"/><line style="stroke:#181818;stroke-width:1.0;" x1="51.7524" x2="319.1855" y1="717.4043" y2="717.4043"/><text fill="#000000" font-family="sans-serif" font-size="13" lengthAdjust="spacing" textLength="111.5918" x="63.7524" y="712.6621">Return block data</text><text fill="#888888" font-family="sans-serif" font-size="10" lengthAdjust="spacing" textLength="153.0469" x="0" y="783.5605">Last Modified On: 30-Jan-2025</text><!--SRC=[hLLHQnin37w_No42WmHwiFOniC6QiQLZQKVJF-2STJrJdnri9oJxzPCSvt9nBb3exY7OilJfyoTPMGiNLANMmWIOQOKc5EkUQVJyPmPBT5jq8n0UQ7j-VgzjzLOrGfaK7jrErW5l21P-BPyUOMODuOO4tUsAue04vLVE1rFuYI56tk_dg5wRC6lbk8ch6w2ObVKgx2U5g8BQYe2HPS6XXD0ZU0aqhiBk1WvGlVWU_LvusV5n63REm2hUnZf0vwmh90u15487UAWF9dZ6u1HkXOOVGcbV07s9QBhqb7qO_G2AskDG-79JLOZo7E6e8854RY-MTHx7zPbI7DIHxGaVxSItSuKly3bQ-JlXdwH8P1lSbMWgAr4cMQG8eeiqbl8uLhapHTxerzRG1Mk5MlhfsM49ynweHwU4Ld-7yT78c2CQecJz6znoZUw6hd7P7h127rAA1eKaLOvnGzKzdcLjqgz4fn23WI2cBGPnHlzAvxoFiC5T8loVc0u0lfzWtXYrTQq8WSeMdxnB5VzWPpJ2DzFq9dYT7LVMr8hpAiAOmkEcNH4tMvyVP46Uckk8oMiWXLRxWBdVOLfqsV62UydDvod3qITjXvseoJC_JaplYTgbKgtGMLYBxasZivOeBE8QU3CaGr1jToDU-o3QTUPZhAawfxZ975Oga8GlmhrIhqbLrwhQQ7fMRCzSJwTJc0bDAy65Fvap_xN3hR8R7tljKD8v_NAXZaTP7oRErA03CGDzctGWXRyv9_Ri5PmmdhkPX7xuxc6ylPtmVAWtMfDdd2jal9jS6Iv65jcBoERdbN7UcrgCqV-tY7zN6kj0hyNoA_ejQ0OjB0cdIBydQgHF58ZZaPJbOh4ez_ID9ly0]--></g></svg>
