<svg xmlns="http://www.w3.org/2000/svg" xmlns:xlink="http://www.w3.org/1999/xlink" contentStyleType="text/css" height="752px" preserveAspectRatio="none" style="width:608px;height:752px;background:#F0F8FF;" version="1.1" viewBox="0 0 608 752" width="608px" zoomAndPan="magnify"><defs/><g><rect fill="#F0F8FF" height="752" style="stroke:none;stroke-width:1.0;" width="608" x="0" y="0"/><rect fill="#FFFFFF" height="623.6289" style="stroke:#181818;stroke-width:1.0;" width="10" x="215.6357" y="67.7988"/><rect fill="#FFFFFF" height="416.1895" style="stroke:#181818;stroke-width:1.0;" width="10" x="418.3901" y="268.2383"/><rect fill="none" height="535.6973" style="stroke:#000000;stroke-width:1.5;" width="485.3672" x="10" y="148.7305"/><rect fill="none" height="394.1895" style="stroke:#000000;stroke-width:1.5;" width="465.3672" x="20" y="283.2383"/><line style="stroke:#181818;stroke-width:0.5;stroke-dasharray:5.0,5.0;" x1="56" x2="56" y1="36.4883" y2="701.4277"/><line style="stroke:#181818;stroke-width:0.5;stroke-dasharray:5.0,5.0;" x1="220.3608" x2="220.3608" y1="36.4883" y2="701.4277"/><line style="stroke:#181818;stroke-width:0.5;stroke-dasharray:5.0,5.0;" x1="422.4131" x2="422.4131" y1="36.4883" y2="701.4277"/><rect fill="#DDDDDD" height="30.4883" rx="2.5" ry="2.5" style="stroke:#666666;stroke-width:0.5;" width="53.5049" x="30" y="5"/><text fill="#333333" font-family="sans-serif" font-size="14" lengthAdjust="spacing" textLength="39.5049" x="37" y="25.5352">Client</text><rect fill="#DDDDDD" height="30.4883" rx="2.5" ry="2.5" style="stroke:#666666;stroke-width:0.5;" width="53.5049" x="30" y="700.4277"/><text fill="#333333" font-family="sans-serif" font-size="14" lengthAdjust="spacing" textLength="39.5049" x="37" y="720.9629">Client</text><rect fill="#DDDDDD" height="30.4883" rx="2.5" ry="2.5" style="stroke:#666666;stroke-width:0.5;" width="86.5498" x="177.3608" y="5"/><text fill="#333333" font-family="sans-serif" font-size="14" lengthAdjust="spacing" textLength="72.5498" x="184.3608" y="25.5352">RPC Server</text><rect fill="#DDDDDD" height="30.4883" rx="2.5" ry="2.5" style="stroke:#666666;stroke-width:0.5;" width="86.5498" x="177.3608" y="700.4277"/><text fill="#333333" font-family="sans-serif" font-size="14" lengthAdjust="spacing" textLength="72.5498" x="184.3608" y="720.9629">RPC Server</text><rect fill="#DDDDDD" height="30.4883" rx="2.5" ry="2.5" style="stroke:#666666;stroke-width:0.5;" width="103.9541" x="371.4131" y="5"/><text fill="#333333" font-family="sans-serif" font-size="14" lengthAdjust="spacing" textLength="89.9541" x="378.4131" y="25.5352">UTXO Service</text><rect fill="#DDDDDD" height="30.4883" rx="2.5" ry="2.5" style="stroke:#666666;stroke-width:0.5;" width="103.9541" x="371.4131" y="700.4277"/><text fill="#333333" font-family="sans-serif" font-size="14" lengthAdjust="spacing" textLength="89.9541" x="378.4131" y="720.9629">UTXO Service</text><rect fill="#FFFFFF" height="623.6289" style="stroke:#181818;stroke-width:1.0;" width="10" x="215.6357" y="67.7988"/><rect fill="#FFFFFF" height="416.1895" style="stroke:#181818;stroke-width:1.0;" width="10" x="418.3901" y="268.2383"/><polygon fill="#666666" points="203.6357,63.7988,213.6357,67.7988,203.6357,71.7988,207.6357,67.7988" style="stroke:#666666;stroke-width:1.0;"/><line style="stroke:#666666;stroke-width:1.0;" x1="56.7524" x2="209.6357" y1="67.7988" y2="67.7988"/><text fill="#333333" font-family="sans-serif" font-size="13" lengthAdjust="spacing" textLength="139.8833" x="63.7524" y="63.0566">FreezeCmd(txid, vout)</text><line style="stroke:#666666;stroke-width:1.0;" x1="225.6357" x2="267.6357" y1="108.9199" y2="108.9199"/><line style="stroke:#666666;stroke-width:1.0;" x1="267.6357" x2="267.6357" y1="108.9199" y2="121.9199"/><line style="stroke:#666666;stroke-width:1.0;" x1="226.6357" x2="267.6357" y1="121.9199" y2="121.9199"/><polygon fill="#666666" points="236.6357,117.9199,226.6357,121.9199,236.6357,125.9199,232.6357,121.9199" style="stroke:#666666;stroke-width:1.0;"/><text fill="#333333" font-family="sans-serif" font-size="13" lengthAdjust="spacing" textLength="143.9141" x="232.6357" y="104.1777">Validate TXID and vout</text><path d="M397.9141,80.7988 L397.9141,135.7988 L601.9141,135.7988 L601.9141,90.7988 L591.9141,80.7988 L397.9141,80.7988 " fill="#FEFFDD" style="stroke:#181818;stroke-width:0.5;"/><path d="M591.9141,80.7988 L591.9141,90.7988 L601.9141,90.7988 L591.9141,80.7988 " fill="#FEFFDD" style="stroke:#181818;stroke-width:0.5;"/><text fill="#333333" font-family="sans-serif" font-size="13" lengthAdjust="spacing" textLength="114.3086" x="403.9141" y="98.3672">Validation checks:</text><text fill="#333333" font-family="sans-serif" font-size="13" lengthAdjust="spacing" textLength="157.936" x="403.9141" y="113.6777">- TXID must be valid hex</text><text fill="#333333" font-family="sans-serif" font-size="13" lengthAdjust="spacing" textLength="183.5679" x="403.9141" y="128.9883">- vout must be non-negative</text><path d="M10,148.7305 L72.1387,148.7305 L72.1387,156.041 L62.1387,166.041 L10,166.041 L10,148.7305 " fill="#EEEEEE" style="stroke:#000000;stroke-width:1.5;"/><rect fill="none" height="535.6973" style="stroke:#000000;stroke-width:1.5;" width="485.3672" x="10" y="148.7305"/><text fill="#333333" font-family="sans-serif" font-size="13" font-weight="bold" lengthAdjust="spacing" textLength="17.1387" x="25" y="162.2988">alt</text><text fill="#333333" font-family="sans-serif" font-size="11" font-weight="bold" lengthAdjust="spacing" textLength="114.0015" x="87.1387" y="161.3652">[Invalid Parameters]</text><polygon fill="#666666" points="67.7524,201.6621,57.7524,205.6621,67.7524,209.6621,63.7524,205.6621" style="stroke:#666666;stroke-width:1.0;"/><line style="stroke:#666666;stroke-width:1.0;" x1="61.7524" x2="214.6357" y1="205.6621" y2="205.6621"/><text fill="#333333" font-family="sans-serif" font-size="13" lengthAdjust="spacing" textLength="77.0796" x="73.7524" y="200.9199">Return error</text><path d="M230,171.041 L230,226.041 L459,226.041 L459,181.041 L449,171.041 L230,171.041 " fill="#FEFFDD" style="stroke:#181818;stroke-width:0.5;"/><path d="M449,171.041 L449,181.041 L459,181.041 L449,171.041 " fill="#FEFFDD" style="stroke:#181818;stroke-width:0.5;"/><text fill="#333333" font-family="sans-serif" font-size="13" lengthAdjust="spacing" textLength="96.5098" x="236" y="188.6094">Error response:</text><text fill="#333333" font-family="sans-serif" font-size="13" lengthAdjust="spacing" textLength="199.437" x="236" y="203.9199">- Code: ErrRPCInvalidParameter</text><text fill="#333333" font-family="sans-serif" font-size="13" lengthAdjust="spacing" textLength="208.3428" x="236" y="219.2305">- Message: "Invalid TXID or vout"</text><line style="stroke:#000000;stroke-width:1.0;stroke-dasharray:2.0,2.0;" x1="10" x2="495.3672" y1="232.9727" y2="232.9727"/><text fill="#333333" font-family="sans-serif" font-size="11" font-weight="bold" lengthAdjust="spacing" textLength="104.2905" x="15" y="243.6074">[Valid Parameters]</text><polygon fill="#666666" points="406.3901,264.2383,416.3901,268.2383,406.3901,272.2383,410.3901,268.2383" style="stroke:#666666;stroke-width:1.0;"/><line style="stroke:#666666;stroke-width:1.0;" x1="225.6357" x2="412.3901" y1="268.2383" y2="268.2383"/><text fill="#333333" font-family="sans-serif" font-size="13" lengthAdjust="spacing" textLength="173.7544" x="232.6357" y="263.4961">FreezeUTXO(ctx, txid, vout)</text><path d="M20,283.2383 L82.1387,283.2383 L82.1387,290.5488 L72.1387,300.5488 L20,300.5488 L20,283.2383 " fill="#EEEEEE" style="stroke:#000000;stroke-width:1.5;"/><rect fill="none" height="394.1895" style="stroke:#000000;stroke-width:1.5;" width="465.3672" x="20" y="283.2383"/><text fill="#333333" font-family="sans-serif" font-size="13" font-weight="bold" lengthAdjust="spacing" textLength="17.1387" x="35" y="296.8066">alt</text><text fill="#333333" font-family="sans-serif" font-size="11" font-weight="bold" lengthAdjust="spacing" textLength="102.502" x="97.1387" y="295.873">[UTXO Not Found]</text><polygon fill="#666666" points="236.6357,317.8594,226.6357,321.8594,236.6357,325.8594,232.6357,321.8594" style="stroke:#666666;stroke-width:1.0;"/><line style="stroke:#666666;stroke-width:1.0;stroke-dasharray:2.0,2.0;" x1="230.6357" x2="417.3901" y1="321.8594" y2="321.8594"/><text fill="#333333" font-family="sans-serif" font-size="13" lengthAdjust="spacing" textLength="77.0796" x="242.6357" y="317.1172">Return error</text><polygon fill="#666666" points="67.7524,365.4805,57.7524,369.4805,67.7524,373.4805,63.7524,369.4805" style="stroke:#666666;stroke-width:1.0;"/><line style="stroke:#666666;stroke-width:1.0;" x1="61.7524" x2="214.6357" y1="369.4805" y2="369.4805"/><text fill="#333333" font-family="sans-serif" font-size="13" lengthAdjust="spacing" textLength="77.0796" x="73.7524" y="364.7383">Return error</text><path d="M230,334.8594 L230,389.8594 L450,389.8594 L450,344.8594 L440,334.8594 L230,334.8594 " fill="#FEFFDD" style="stroke:#181818;stroke-width:0.5;"/><path d="M440,334.8594 L440,344.8594 L450,344.8594 L440,334.8594 " fill="#FEFFDD" style="stroke:#181818;stroke-width:0.5;"/><text fill="#333333" font-family="sans-serif" font-size="13" lengthAdjust="spacing" textLength="96.5098" x="236" y="352.4277">Error response:</text><text fill="#333333" font-family="sans-serif" font-size="13" lengthAdjust="spacing" textLength="199.437" x="236" y="367.7383">- Code: ErrRPCInvalidParameter</text><text fill="#333333" font-family="sans-serif" font-size="13" lengthAdjust="spacing" textLength="185.4849" x="236" y="383.0488">- Message: "UTXO not found"</text><line style="stroke:#000000;stroke-width:1.0;stroke-dasharray:2.0,2.0;" x1="20" x2="485.3672" y1="396.791" y2="396.791"/><text fill="#333333" font-family="sans-serif" font-size="11" font-weight="bold" lengthAdjust="spacing" textLength="129.2876" x="25" y="407.4258">[UTXO Already Frozen]</text><polygon fill="#666666" points="236.6357,428.0566,226.6357,432.0566,236.6357,436.0566,232.6357,432.0566" style="stroke:#666666;stroke-width:1.0;"/><line style="stroke:#666666;stroke-width:1.0;stroke-dasharray:2.0,2.0;" x1="230.6357" x2="417.3901" y1="432.0566" y2="432.0566"/><text fill="#333333" font-family="sans-serif" font-size="13" lengthAdjust="spacing" textLength="77.0796" x="242.6357" y="427.3145">Return error</text><polygon fill="#666666" points="67.7524,475.6777,57.7524,479.6777,67.7524,483.6777,63.7524,479.6777" style="stroke:#666666;stroke-width:1.0;"/><line style="stroke:#666666;stroke-width:1.0;" x1="61.7524" x2="214.6357" y1="479.6777" y2="479.6777"/><text fill="#333333" font-family="sans-serif" font-size="13" lengthAdjust="spacing" textLength="77.0796" x="73.7524" y="474.9355">Return error</text><path d="M230,445.0566 L230,500.0566 L464,500.0566 L464,455.0566 L454,445.0566 L230,445.0566 " fill="#FEFFDD" style="stroke:#181818;stroke-width:0.5;"/><path d="M454,445.0566 L454,455.0566 L464,455.0566 L454,445.0566 " fill="#FEFFDD" style="stroke:#181818;stroke-width:0.5;"/><text fill="#333333" font-family="sans-serif" font-size="13" lengthAdjust="spacing" textLength="96.5098" x="236" y="462.625">Error response:</text><text fill="#333333" font-family="sans-serif" font-size="13" lengthAdjust="spacing" textLength="199.437" x="236" y="477.9355">- Code: ErrRPCInvalidParameter</text><text fill="#333333" font-family="sans-serif" font-size="13" lengthAdjust="spacing" textLength="213.9858" x="236" y="493.2461">- Message: "UTXO already frozen"</text><line style="stroke:#000000;stroke-width:1.0;stroke-dasharray:2.0,2.0;" x1="20" x2="485.3672" y1="506.9883" y2="506.9883"/><text fill="#333333" font-family="sans-serif" font-size="11" font-weight="bold" lengthAdjust="spacing" textLength="160.7139" x="25" y="517.623">[Freeze Operation Succeeds]</text><polygon fill="#666666" points="236.6357,538.2539,226.6357,542.2539,236.6357,546.2539,232.6357,542.2539" style="stroke:#666666;stroke-width:1.0;"/><line style="stroke:#666666;stroke-width:1.0;stroke-dasharray:2.0,2.0;" x1="230.6357" x2="417.3901" y1="542.2539" y2="542.2539"/><text fill="#333333" font-family="sans-serif" font-size="13" lengthAdjust="spacing" textLength="94.4023" x="242.6357" y="537.5117">Return success</text><polygon fill="#666666" points="67.7524,616.4961,57.7524,620.4961,67.7524,624.4961,63.7524,620.4961" style="stroke:#666666;stroke-width:1.0;"/><line style="stroke:#666666;stroke-width:1.0;" x1="61.7524" x2="214.6357" y1="620.4961" y2="620.4961"/><text fill="#333333" font-family="sans-serif" font-size="13" lengthAdjust="spacing" textLength="71.3857" x="73.7524" y="615.7539">Return true</text><path d="M230,555.2539 L230,672.2539 L450,672.2539 L450,565.2539 L440,555.2539 L230,555.2539 " fill="#FEFFDD" style="stroke:#181818;stroke-width:0.5;"/><path d="M440,555.2539 L440,565.2539 L450,565.2539 L440,555.2539 " fill="#FEFFDD" style="stroke:#181818;stroke-width:0.5;"/><text fill="#333333" font-family="sans-serif" font-size="13" lengthAdjust="spacing" textLength="102.7686" x="236" y="572.8223">Response fields:</text><text fill="#333333" font-family="sans-serif" font-size="13" lengthAdjust="spacing" textLength="162.4365" x="236" y="588.1328">- Returns true on success</text><text fill="#333333" font-family="sans-serif" font-size="13" lengthAdjust="spacing" textLength="4.1133" x="236" y="603.4434">&#160;</text><text fill="#333333" font-family="sans-serif" font-size="13" lengthAdjust="spacing" textLength="46.1094" x="236" y="618.7539">Effects:</text><text fill="#333333" font-family="sans-serif" font-size="13" lengthAdjust="spacing" textLength="161.751" x="236" y="634.0645">- UTXO marked as frozen</text><text fill="#333333" font-family="sans-serif" font-size="13" lengthAdjust="spacing" textLength="199.8179" x="236" y="649.375">- Frozen UTXO cannot be spent</text><text fill="#333333" font-family="sans-serif" font-size="13" lengthAdjust="spacing" textLength="156.6348" x="236" y="664.6855">- Audit log entry created</text><text fill="#333333" font-family="sans-serif" font-size="10" lengthAdjust="spacing" textLength="155.4932" x="0" y="742.584">Last Modified On: 30-Apr-2025</text><!--SRC=[rLNVQzim47xNNt5uZALGms0mXXy6NJ93OLbAses-Aj8v4L6a8CbPqh7_VIVPzUoKDFlnD3qOTFVTfxllfBDVAxFbZczWmSLwwMnjvDXgw-15-RfyLvRCTmY95QzrAAq9BUHDMZq8Tyv-QvrlqsBi5KomKWPXOPr4vw4YBzSQKEC6JV2zUDggS83l3E13GW-vo7gSvIGjzeFrM0HbwAp-Lnhw1YNKbflmTrICzId6Mb5v0rCslnd3BReTkWou1zeE_L_kxcS9e0GcH3Gmrb11_Zv6G06bGtp0yKQEmbx9IzZPEbmmBeBQyO29baLa5_2LQoMZw-x-UWBSo1J2Z2MJKyjLeC9QZB86n0h5sXTap9k8JUq3B11s4GCht2TNvEXSnfhSu988TiYGJeZaZ74TuDeqSJTHPWnq9oWSeCsmBQw0EORQ6K2wKou11karwsDqWaE_jSPZqTbp65k9HVGJRNjWTruFDaNl-PAGsMDMgK0YZTLa2TbbZzfZeyk9t5E_7liHDoCHzfVGxqf4Tvr9xOoMnapQ98RFDa0PhrINQ3BdNV-UIFDR-ftGy3aT_q3BOprJodGSlNUg9EjmdPff4nLDo2ljaCi3QMSVqFptXVEsd2gLyrprpMM1sHPTyzfkQo4GfJ-ZWOymxy-f45oDvqIOj-L3fL1BVwn2m-GJ5TXV9m-5h2eKuKbiodt3tHfbd5_LiBiDfcbv0nNSn3j30yHluxWS8gzggG9ekun_2dS0GI87b2VKRT-FnE5xYtRMCwRngB6ADvLY7NpYDCAcLYgIGyBC5F0o3ijH9cK-dKxp0wtiuYS0]--></g></svg>
