<svg xmlns="http://www.w3.org/2000/svg" xmlns:xlink="http://www.w3.org/1999/xlink" contentStyleType="text/css" height="691px" preserveAspectRatio="none" style="width:786px;height:691px;background:#F0F8FF;" version="1.1" viewBox="0 0 786 691" width="786px" zoomAndPan="magnify"><defs/><g><rect fill="#F0F8FF" height="691" style="stroke:none;stroke-width:1.0;" width="786" x="0" y="0"/><rect fill="#FFFFFF" height="562.7207" style="stroke:#181818;stroke-width:1.0;" width="10" x="297.4253" y="67.7988"/><rect fill="#FFFFFF" height="407.2129" style="stroke:#181818;stroke-width:1.0;" width="10" x="708.8271" y="216.3066"/><rect fill="none" height="490.0996" style="stroke:#000000;stroke-width:1.5;" width="769.5903" x="10" y="133.4199"/><rect fill="none" height="385.2129" style="stroke:#000000;stroke-width:1.5;" width="749.5903" x="20" y="231.3066"/><line style="stroke:#181818;stroke-width:0.5;stroke-dasharray:5.0,5.0;" x1="56" x2="56" y1="36.4883" y2="640.5195"/><line style="stroke:#181818;stroke-width:0.5;stroke-dasharray:5.0,5.0;" x1="302.1504" x2="302.1504" y1="36.4883" y2="640.5195"/><line style="stroke:#181818;stroke-width:0.5;stroke-dasharray:5.0,5.0;" x1="713.064" x2="713.064" y1="36.4883" y2="640.5195"/><rect fill="#DDDDDD" height="30.4883" rx="2.5" ry="2.5" style="stroke:#666666;stroke-width:0.5;" width="53.5049" x="30" y="5"/><text fill="#333333" font-family="sans-serif" font-size="14" lengthAdjust="spacing" textLength="39.5049" x="37" y="25.5352">Client</text><rect fill="#DDDDDD" height="30.4883" rx="2.5" ry="2.5" style="stroke:#666666;stroke-width:0.5;" width="53.5049" x="30" y="639.5195"/><text fill="#333333" font-family="sans-serif" font-size="14" lengthAdjust="spacing" textLength="39.5049" x="37" y="660.0547">Client</text><rect fill="#DDDDDD" height="30.4883" rx="2.5" ry="2.5" style="stroke:#666666;stroke-width:0.5;" width="86.5498" x="259.1504" y="5"/><text fill="#333333" font-family="sans-serif" font-size="14" lengthAdjust="spacing" textLength="72.5498" x="266.1504" y="25.5352">RPC Server</text><rect fill="#DDDDDD" height="30.4883" rx="2.5" ry="2.5" style="stroke:#666666;stroke-width:0.5;" width="86.5498" x="259.1504" y="639.5195"/><text fill="#333333" font-family="sans-serif" font-size="14" lengthAdjust="spacing" textLength="72.5498" x="266.1504" y="660.0547">RPC Server</text><rect fill="#DDDDDD" height="30.4883" rx="2.5" ry="2.5" style="stroke:#666666;stroke-width:0.5;" width="91.5264" x="668.064" y="5"/><text fill="#333333" font-family="sans-serif" font-size="14" lengthAdjust="spacing" textLength="77.5264" x="675.064" y="25.5352">UTXO Store</text><rect fill="#DDDDDD" height="30.4883" rx="2.5" ry="2.5" style="stroke:#666666;stroke-width:0.5;" width="91.5264" x="668.064" y="639.5195"/><text fill="#333333" font-family="sans-serif" font-size="14" lengthAdjust="spacing" textLength="77.5264" x="675.064" y="660.0547">UTXO Store</text><rect fill="#FFFFFF" height="562.7207" style="stroke:#181818;stroke-width:1.0;" width="10" x="297.4253" y="67.7988"/><rect fill="#FFFFFF" height="407.2129" style="stroke:#181818;stroke-width:1.0;" width="10" x="708.8271" y="216.3066"/><polygon fill="#666666" points="285.4253,63.7988,295.4253,67.7988,285.4253,71.7988,289.4253,67.7988" style="stroke:#666666;stroke-width:1.0;"/><line style="stroke:#666666;stroke-width:1.0;" x1="56.7524" x2="291.4253" y1="67.7988" y2="67.7988"/><text fill="#333333" font-family="sans-serif" font-size="13" lengthAdjust="spacing" textLength="221.6729" x="63.7524" y="63.0566">FreezeCmd(TxID, Vout, UTXOHash)</text><line style="stroke:#666666;stroke-width:1.0;" x1="307.4253" x2="349.4253" y1="101.2646" y2="101.2646"/><line style="stroke:#666666;stroke-width:1.0;" x1="349.4253" x2="349.4253" y1="101.2646" y2="114.2646"/><line style="stroke:#666666;stroke-width:1.0;" x1="308.4253" x2="349.4253" y1="114.2646" y2="114.2646"/><polygon fill="#666666" points="318.4253,110.2646,308.4253,114.2646,318.4253,118.2646,314.4253,114.2646" style="stroke:#666666;stroke-width:1.0;"/><text fill="#333333" font-family="sans-serif" font-size="13" lengthAdjust="spacing" textLength="213.8018" x="314.4253" y="96.5225">chainhash.NewHashFromStr(TxID)</text><path d="M549.8018,80.7988 L549.8018,120.7988 L761.8018,120.7988 L761.8018,90.7988 L751.8018,80.7988 L549.8018,80.7988 " fill="#FEFFDD" style="stroke:#181818;stroke-width:0.5;"/><path d="M751.8018,80.7988 L751.8018,90.7988 L761.8018,90.7988 L751.8018,80.7988 " fill="#FEFFDD" style="stroke:#181818;stroke-width:0.5;"/><text fill="#333333" font-family="sans-serif" font-size="13" lengthAdjust="spacing" textLength="67.3423" x="555.8018" y="98.3672">Validation:</text><text fill="#333333" font-family="sans-serif" font-size="13" lengthAdjust="spacing" textLength="191.9912" x="555.8018" y="113.6777">- TXID must be valid hex hash</text><path d="M10,133.4199 L72.1387,133.4199 L72.1387,140.7305 L62.1387,150.7305 L10,150.7305 L10,133.4199 " fill="#EEEEEE" style="stroke:#000000;stroke-width:1.5;"/><rect fill="none" height="490.0996" style="stroke:#000000;stroke-width:1.5;" width="769.5903" x="10" y="133.4199"/><text fill="#333333" font-family="sans-serif" font-size="13" font-weight="bold" lengthAdjust="spacing" textLength="17.1387" x="25" y="146.9883">alt</text><text fill="#333333" font-family="sans-serif" font-size="11" font-weight="bold" lengthAdjust="spacing" textLength="120.9409" x="87.1387" y="146.0547">[Invalid TXID Format]</text><polygon fill="#666666" points="67.7524,168.041,57.7524,172.041,67.7524,176.041,63.7524,172.041" style="stroke:#666666;stroke-width:1.0;"/><line style="stroke:#666666;stroke-width:1.0;" x1="61.7524" x2="296.4253" y1="172.041" y2="172.041"/><text fill="#333333" font-family="sans-serif" font-size="13" lengthAdjust="spacing" textLength="77.0796" x="73.7524" y="167.2988">Return error</text><line style="stroke:#000000;stroke-width:1.0;stroke-dasharray:2.0,2.0;" x1="10" x2="779.5903" y1="181.041" y2="181.041"/><text fill="#333333" font-family="sans-serif" font-size="11" font-weight="bold" lengthAdjust="spacing" textLength="67.6704" x="15" y="191.6758">[Valid TXID]</text><polygon fill="#666666" points="696.8271,212.3066,706.8271,216.3066,696.8271,220.3066,700.8271,216.3066" style="stroke:#666666;stroke-width:1.0;"/><line style="stroke:#666666;stroke-width:1.0;" x1="307.4253" x2="702.8271" y1="216.3066" y2="216.3066"/><text fill="#333333" font-family="sans-serif" font-size="13" lengthAdjust="spacing" textLength="382.4019" x="314.4253" y="211.5645">FreezeUTXOs(ctx, []*Spend{TxID, Vout, UTXOHash}, settings)</text><path d="M20,231.3066 L82.1387,231.3066 L82.1387,238.6172 L72.1387,248.6172 L20,248.6172 L20,231.3066 " fill="#EEEEEE" style="stroke:#000000;stroke-width:1.5;"/><rect fill="none" height="385.2129" style="stroke:#000000;stroke-width:1.5;" width="749.5903" x="20" y="231.3066"/><text fill="#333333" font-family="sans-serif" font-size="13" font-weight="bold" lengthAdjust="spacing" textLength="17.1387" x="35" y="244.875">alt</text><text fill="#333333" font-family="sans-serif" font-size="11" font-weight="bold" lengthAdjust="spacing" textLength="102.502" x="97.1387" y="243.9414">[UTXO Not Found]</text><polygon fill="#666666" points="318.4253,265.9277,308.4253,269.9277,318.4253,273.9277,314.4253,269.9277" style="stroke:#666666;stroke-width:1.0;"/><line style="stroke:#666666;stroke-width:1.0;stroke-dasharray:2.0,2.0;" x1="312.4253" x2="707.8271" y1="269.9277" y2="269.9277"/><text fill="#333333" font-family="sans-serif" font-size="13" lengthAdjust="spacing" textLength="124.5791" x="324.4253" y="265.1855">Return StorageError</text><polygon fill="#666666" points="67.7524,295.2383,57.7524,299.2383,67.7524,303.2383,63.7524,299.2383" style="stroke:#666666;stroke-width:1.0;"/><line style="stroke:#666666;stroke-width:1.0;" x1="61.7524" x2="296.4253" y1="299.2383" y2="299.2383"/><text fill="#333333" font-family="sans-serif" font-size="13" lengthAdjust="spacing" textLength="77.0796" x="73.7524" y="294.4961">Return error</text><line style="stroke:#000000;stroke-width:1.0;stroke-dasharray:2.0,2.0;" x1="20" x2="769.5903" y1="308.2383" y2="308.2383"/><text fill="#333333" font-family="sans-serif" font-size="11" font-weight="bold" lengthAdjust="spacing" textLength="122.4771" x="25" y="318.873">[UTXO Already Spent]</text><polygon fill="#666666" points="318.4253,339.5039,308.4253,343.5039,318.4253,347.5039,314.4253,343.5039" style="stroke:#666666;stroke-width:1.0;"/><line style="stroke:#666666;stroke-width:1.0;stroke-dasharray:2.0,2.0;" x1="312.4253" x2="707.8271" y1="343.5039" y2="343.5039"/><text fill="#333333" font-family="sans-serif" font-size="13" lengthAdjust="spacing" textLength="142.0669" x="324.4253" y="338.7617">Return UtxoSpentError</text><polygon fill="#666666" points="67.7524,387.125,57.7524,391.125,67.7524,395.125,63.7524,391.125" style="stroke:#666666;stroke-width:1.0;"/><line style="stroke:#666666;stroke-width:1.0;" x1="61.7524" x2="296.4253" y1="391.125" y2="391.125"/><text fill="#333333" font-family="sans-serif" font-size="13" lengthAdjust="spacing" textLength="77.0796" x="73.7524" y="386.3828">Return error</text><path d="M312,356.5039 L312,411.5039 L495,411.5039 L495,366.5039 L485,356.5039 L312,356.5039 " fill="#FEFFDD" style="stroke:#181818;stroke-width:0.5;"/><path d="M485,356.5039 L485,366.5039 L495,366.5039 L485,356.5039 " fill="#FEFFDD" style="stroke:#181818;stroke-width:0.5;"/><text fill="#333333" font-family="sans-serif" font-size="13" lengthAdjust="spacing" textLength="91.5776" x="318" y="374.0723">Error includes:</text><text fill="#333333" font-family="sans-serif" font-size="13" lengthAdjust="spacing" textLength="162.519" x="318" y="389.3828">- Spending transaction ID</text><text fill="#333333" font-family="sans-serif" font-size="13" lengthAdjust="spacing" textLength="129.8286" x="318" y="404.6934">- Height when spent</text><line style="stroke:#000000;stroke-width:1.0;stroke-dasharray:2.0,2.0;" x1="20" x2="769.5903" y1="418.4355" y2="418.4355"/><text fill="#333333" font-family="sans-serif" font-size="11" font-weight="bold" lengthAdjust="spacing" textLength="129.2876" x="25" y="429.0703">[UTXO Already Frozen]</text><polygon fill="#666666" points="318.4253,449.7012,308.4253,453.7012,318.4253,457.7012,314.4253,453.7012" style="stroke:#666666;stroke-width:1.0;"/><line style="stroke:#666666;stroke-width:1.0;stroke-dasharray:2.0,2.0;" x1="312.4253" x2="707.8271" y1="453.7012" y2="453.7012"/><text fill="#333333" font-family="sans-serif" font-size="13" lengthAdjust="spacing" textLength="149.7476" x="324.4253" y="448.959">Return UtxoFrozenError</text><polygon fill="#666666" points="67.7524,479.0117,57.7524,483.0117,67.7524,487.0117,63.7524,483.0117" style="stroke:#666666;stroke-width:1.0;"/><line style="stroke:#666666;stroke-width:1.0;" x1="61.7524" x2="296.4253" y1="483.0117" y2="483.0117"/><text fill="#333333" font-family="sans-serif" font-size="13" lengthAdjust="spacing" textLength="77.0796" x="73.7524" y="478.2695">Return error</text><line style="stroke:#000000;stroke-width:1.0;stroke-dasharray:2.0,2.0;" x1="20" x2="769.5903" y1="492.0117" y2="492.0117"/><text fill="#333333" font-family="sans-serif" font-size="11" font-weight="bold" lengthAdjust="spacing" textLength="160.7139" x="25" y="502.6465">[Freeze Operation Succeeds]</text><polygon fill="#666666" points="318.4253,523.2773,308.4253,527.2773,318.4253,531.2773,314.4253,527.2773" style="stroke:#666666;stroke-width:1.0;"/><line style="stroke:#666666;stroke-width:1.0;stroke-dasharray:2.0,2.0;" x1="312.4253" x2="707.8271" y1="527.2773" y2="527.2773"/><text fill="#333333" font-family="sans-serif" font-size="13" lengthAdjust="spacing" textLength="61.4771" x="324.4253" y="522.5352">Return nil</text><polygon fill="#666666" points="67.7524,578.5537,57.7524,582.5537,67.7524,586.5537,63.7524,582.5537" style="stroke:#666666;stroke-width:1.0;"/><line style="stroke:#666666;stroke-width:1.0;" x1="61.7524" x2="296.4253" y1="582.5537" y2="582.5537"/><text fill="#333333" font-family="sans-serif" font-size="13" lengthAdjust="spacing" textLength="69.5449" x="73.7524" y="577.8115">Return null</text><path d="M312,540.2773 L312,611.2773 L562,611.2773 L562,550.2773 L552,540.2773 L312,540.2773 " fill="#FEFFDD" style="stroke:#181818;stroke-width:0.5;"/><path d="M552,540.2773 L552,550.2773 L562,550.2773 L552,540.2773 " fill="#FEFFDD" style="stroke:#181818;stroke-width:0.5;"/><text fill="#333333" font-family="sans-serif" font-size="13" lengthAdjust="spacing" textLength="46.1094" x="318" y="557.8457">Effects:</text><text fill="#333333" font-family="sans-serif" font-size="13" lengthAdjust="spacing" textLength="161.751" x="318" y="573.1563">- UTXO marked as frozen</text><text fill="#333333" font-family="sans-serif" font-size="13" lengthAdjust="spacing" textLength="229.0615" x="318" y="588.4668">- Spending transaction set to FF...FF</text><text fill="#333333" font-family="sans-serif" font-size="13" lengthAdjust="spacing" textLength="209.1489" x="318" y="603.7773">- Cannot be spent until unfrozen</text><text fill="#333333" font-family="sans-serif" font-size="10" lengthAdjust="spacing" textLength="157.5488" x="0" y="681.6758">Last Modified On: 04-Aug-2025</text><!--SRC=[fLJVQnin37xtNo4onfgHXC5WZ3mCjcH70qixchOKnXxSiounyTd1rhLfI__toixjUjULjklqS63z-AHFqYcijTr8Bqiub_bwwLrbrSGPv-5DzY7xd6KYD1uA2raPofobskLZafQBzDvTriPFIOHu1rCij4KuTrwX3r2mLHe3QB14Iw4LpqzDLt0Z0BubxouMQnzMEKqYRaKB9USAlJF_2yDVqhdUI4klWnAY3J4nckbrLBsZdnDOeBz0tmCPW9zT-ydnsI4io7bCzlXCBo5sQ33y4eDW39b7lCP9gVQEjxFf04vTHOCKi2_3gYzaJlf24gOS8iOqeVbAQhjYhz41NaRlpBjoGJuXzOLr7ENrSaNCzbGQhIHfPyVy6iBnsMmAPHK8pX4keX5Mk8M89j0gYC52I4CmipjpYiYSBsN40wXBgVcCuGYfyXQGDyaBD05tELDSEw3fHKC-Qi9UJji1_FhzVh7X_3UFDUDs0069j5s6Va9iUjFgRz9psMa21uwuP1vnKaUvppvi-bXN7jLoYTyJWJ_-JxAC3ebfIlRLU9Jg2Y81Uad24zgwvFoFAQDqXdil2GcqpKsbC8mxjc6gJ77xWBoq8NRFMQYdS- -rZn4MBbTe8NIuD8lnE75UlskqBsM-ytvDjtTR0uSRz6cZOL7bEQ8ABqbjjNakdQsCURRHHO4v_TNXr8zI-ZMg-DyNtOuyCGLUR207MJOQZVXuToCcqd8PyKzDyu2AhwtXxmFuxdZgfLVuo5yIZQ9bIRV5O45yund0mm_9bs7kb2uqCpcqOtZBrmFtUaeDv_Fvy8gbrxy3]--></g></svg>
