<svg xmlns="http://www.w3.org/2000/svg" xmlns:xlink="http://www.w3.org/1999/xlink" contentStyleType="text/css" height="643px" preserveAspectRatio="none" style="width:730px;height:643px;background:#FFFFFF;" version="1.1" viewBox="0 0 730 643" width="730px" zoomAndPan="magnify"><defs/><g><rect fill="#FFFFFF" height="514.1211" style="stroke:#181818;stroke-width:1.0;" width="10" x="280.4263" y="67.7988"/><rect fill="#FFFFFF" height="163.8184" style="stroke:#181818;stroke-width:1.0;" width="10" x="489.8901" y="97.1094"/><rect fill="#FFFFFF" height="127.1973" style="stroke:#181818;stroke-width:1.0;" width="10" x="633.7515" y="290.2383"/><rect fill="none" height="462.8105" style="stroke:#000000;stroke-width:1.5;" width="713.9082" x="10" y="112.1094"/><rect fill="none" height="262.6816" style="stroke:#000000;stroke-width:1.5;" width="693.9082" x="20" y="305.2383"/><line style="stroke:#181818;stroke-width:0.5;stroke-dasharray:5.0,5.0;" x1="56" x2="56" y1="36.4883" y2="591.9199"/><line style="stroke:#181818;stroke-width:0.5;stroke-dasharray:5.0,5.0;" x1="285.1514" x2="285.1514" y1="36.4883" y2="591.9199"/><line style="stroke:#181818;stroke-width:0.5;stroke-dasharray:5.0,5.0;" x1="494.1855" x2="494.1855" y1="36.4883" y2="591.9199"/><line style="stroke:#181818;stroke-width:0.5;stroke-dasharray:5.0,5.0;" x1="638.5947" x2="638.5947" y1="36.4883" y2="591.9199"/><rect fill="#E2E2F0" height="30.4883" rx="2.5" ry="2.5" style="stroke:#181818;stroke-width:0.5;" width="53.5049" x="30" y="5"/><text fill="#000000" font-family="sans-serif" font-size="14" lengthAdjust="spacing" textLength="39.5049" x="37" y="25.5352">Client</text><rect fill="#E2E2F0" height="30.4883" rx="2.5" ry="2.5" style="stroke:#181818;stroke-width:0.5;" width="53.5049" x="30" y="590.9199"/><text fill="#000000" font-family="sans-serif" font-size="14" lengthAdjust="spacing" textLength="39.5049" x="37" y="611.4551">Client</text><rect fill="#E2E2F0" height="30.4883" rx="2.5" ry="2.5" style="stroke:#181818;stroke-width:0.5;" width="86.5498" x="242.1514" y="5"/><text fill="#000000" font-family="sans-serif" font-size="14" lengthAdjust="spacing" textLength="72.5498" x="249.1514" y="25.5352">RPC Server</text><rect fill="#E2E2F0" height="30.4883" rx="2.5" ry="2.5" style="stroke:#181818;stroke-width:0.5;" width="86.5498" x="242.1514" y="590.9199"/><text fill="#000000" font-family="sans-serif" font-size="14" lengthAdjust="spacing" textLength="72.5498" x="249.1514" y="611.4551">RPC Server</text><rect fill="#E2E2F0" height="30.4883" rx="2.5" ry="2.5" style="stroke:#181818;stroke-width:0.5;" width="137.4092" x="426.1855" y="5"/><text fill="#000000" font-family="sans-serif" font-size="14" lengthAdjust="spacing" textLength="123.4092" x="433.1855" y="25.5352">Chain Hash Parser</text><rect fill="#E2E2F0" height="30.4883" rx="2.5" ry="2.5" style="stroke:#181818;stroke-width:0.5;" width="137.4092" x="426.1855" y="590.9199"/><text fill="#000000" font-family="sans-serif" font-size="14" lengthAdjust="spacing" textLength="123.4092" x="433.1855" y="611.4551">Chain Hash Parser</text><rect fill="#E2E2F0" height="30.4883" rx="2.5" ry="2.5" style="stroke:#181818;stroke-width:0.5;" width="130.3135" x="573.5947" y="5"/><text fill="#000000" font-family="sans-serif" font-size="14" lengthAdjust="spacing" textLength="116.3135" x="580.5947" y="25.5352">Blockchain Client</text><rect fill="#E2E2F0" height="30.4883" rx="2.5" ry="2.5" style="stroke:#181818;stroke-width:0.5;" width="130.3135" x="573.5947" y="590.9199"/><text fill="#000000" font-family="sans-serif" font-size="14" lengthAdjust="spacing" textLength="116.3135" x="580.5947" y="611.4551">Blockchain Client</text><rect fill="#FFFFFF" height="514.1211" style="stroke:#181818;stroke-width:1.0;" width="10" x="280.4263" y="67.7988"/><rect fill="#FFFFFF" height="163.8184" style="stroke:#181818;stroke-width:1.0;" width="10" x="489.8901" y="97.1094"/><rect fill="#FFFFFF" height="127.1973" style="stroke:#181818;stroke-width:1.0;" width="10" x="633.7515" y="290.2383"/><polygon fill="#181818" points="268.4263,63.7988,278.4263,67.7988,268.4263,71.7988,272.4263,67.7988" style="stroke:#181818;stroke-width:1.0;"/><line style="stroke:#181818;stroke-width:1.0;" x1="56.7524" x2="274.4263" y1="67.7988" y2="67.7988"/><text fill="#000000" font-family="sans-serif" font-size="13" lengthAdjust="spacing" textLength="204.6738" x="63.7524" y="63.0566">ReconsiderBlockCmd(blockhash)</text><polygon fill="#181818" points="477.8901,93.1094,487.8901,97.1094,477.8901,101.1094,481.8901,97.1094" style="stroke:#181818;stroke-width:1.0;"/><line style="stroke:#181818;stroke-width:1.0;" x1="290.4263" x2="483.8901" y1="97.1094" y2="97.1094"/><text fill="#000000" font-family="sans-serif" font-size="13" lengthAdjust="spacing" textLength="180.4639" x="297.4263" y="92.3672">NewHashFromStr(blockhash)</text><path d="M10,112.1094 L72.1387,112.1094 L72.1387,119.4199 L62.1387,129.4199 L10,129.4199 L10,112.1094 " fill="#EEEEEE" style="stroke:#000000;stroke-width:1.5;"/><rect fill="none" height="462.8105" style="stroke:#000000;stroke-width:1.5;" width="713.9082" x="10" y="112.1094"/><text fill="#000000" font-family="sans-serif" font-size="13" font-weight="bold" lengthAdjust="spacing" textLength="17.1387" x="25" y="125.6777">alt</text><text fill="#000000" font-family="sans-serif" font-size="11" font-weight="bold" lengthAdjust="spacing" textLength="122.1387" x="87.1387" y="124.7441">[Invalid Hash Format]</text><polygon fill="#181818" points="301.4263,146.7305,291.4263,150.7305,301.4263,154.7305,297.4263,150.7305" style="stroke:#181818;stroke-width:1.0;"/><line style="stroke:#181818;stroke-width:1.0;stroke-dasharray:2.0,2.0;" x1="295.4263" x2="488.8901" y1="150.7305" y2="150.7305"/><text fill="#000000" font-family="sans-serif" font-size="13" lengthAdjust="spacing" textLength="77.0796" x="307.4263" y="145.9883">Return error</text><polygon fill="#181818" points="67.7524,194.3516,57.7524,198.3516,67.7524,202.3516,63.7524,198.3516" style="stroke:#181818;stroke-width:1.0;"/><line style="stroke:#181818;stroke-width:1.0;" x1="61.7524" x2="279.4263" y1="198.3516" y2="198.3516"/><text fill="#000000" font-family="sans-serif" font-size="13" lengthAdjust="spacing" textLength="168.8604" x="73.7524" y="193.6094">Return rpcDecodeHexError</text><path d="M295,163.7305 L295,218.7305 L642,218.7305 L642,173.7305 L632,163.7305 L295,163.7305 " fill="#FEFFDD" style="stroke:#181818;stroke-width:0.5;"/><path d="M632,163.7305 L632,173.7305 L642,173.7305 L632,163.7305 " fill="#FEFFDD" style="stroke:#181818;stroke-width:0.5;"/><text fill="#000000" font-family="sans-serif" font-size="13" lengthAdjust="spacing" textLength="96.5098" x="301" y="181.2988">Error response:</text><text fill="#000000" font-family="sans-serif" font-size="13" lengthAdjust="spacing" textLength="203.2837" x="301" y="196.6094">- Code: ErrRPCDecodeHexString</text><text fill="#000000" font-family="sans-serif" font-size="13" lengthAdjust="spacing" textLength="326.2568" x="301" y="211.9199">- Message: "Argument must be hexadecimal string"</text><line style="stroke:#000000;stroke-width:1.0;stroke-dasharray:2.0,2.0;" x1="10" x2="723.9082" y1="225.6621" y2="225.6621"/><text fill="#000000" font-family="sans-serif" font-size="11" font-weight="bold" lengthAdjust="spacing" textLength="68.8682" x="15" y="236.2969">[Valid Hash]</text><polygon fill="#181818" points="301.4263,256.9277,291.4263,260.9277,301.4263,264.9277,297.4263,260.9277" style="stroke:#181818;stroke-width:1.0;"/><line style="stroke:#181818;stroke-width:1.0;stroke-dasharray:2.0,2.0;" x1="295.4263" x2="493.8901" y1="260.9277" y2="260.9277"/><text fill="#000000" font-family="sans-serif" font-size="13" lengthAdjust="spacing" textLength="122.6812" x="307.4263" y="256.1855">Return parsed hash</text><polygon fill="#181818" points="621.7515,286.2383,631.7515,290.2383,621.7515,294.2383,625.7515,290.2383" style="stroke:#181818;stroke-width:1.0;"/><line style="stroke:#181818;stroke-width:1.0;" x1="290.4263" x2="627.7515" y1="290.2383" y2="290.2383"/><text fill="#000000" font-family="sans-serif" font-size="13" lengthAdjust="spacing" textLength="163.9473" x="297.4263" y="285.4961">RevalidateBlock(ctx, hash)</text><path d="M20,305.2383 L82.1387,305.2383 L82.1387,312.5488 L72.1387,322.5488 L20,322.5488 L20,305.2383 " fill="#EEEEEE" style="stroke:#000000;stroke-width:1.5;"/><rect fill="none" height="262.6816" style="stroke:#000000;stroke-width:1.5;" width="693.9082" x="20" y="305.2383"/><text fill="#000000" font-family="sans-serif" font-size="13" font-weight="bold" lengthAdjust="spacing" textLength="17.1387" x="35" y="318.8066">alt</text><text fill="#000000" font-family="sans-serif" font-size="11" font-weight="bold" lengthAdjust="spacing" textLength="108.1577" x="97.1387" y="317.873">[Revalidation Fails]</text><polygon fill="#181818" points="301.4263,339.8594,291.4263,343.8594,301.4263,347.8594,297.4263,343.8594" style="stroke:#181818;stroke-width:1.0;"/><line style="stroke:#181818;stroke-width:1.0;stroke-dasharray:2.0,2.0;" x1="295.4263" x2="632.7515" y1="343.8594" y2="343.8594"/><text fill="#000000" font-family="sans-serif" font-size="13" lengthAdjust="spacing" textLength="77.0796" x="307.4263" y="339.1172">Return error</text><polygon fill="#181818" points="67.7524,369.1699,57.7524,373.1699,67.7524,377.1699,63.7524,373.1699" style="stroke:#181818;stroke-width:1.0;"/><line style="stroke:#181818;stroke-width:1.0;" x1="61.7524" x2="279.4263" y1="373.1699" y2="373.1699"/><text fill="#000000" font-family="sans-serif" font-size="13" lengthAdjust="spacing" textLength="77.0796" x="73.7524" y="368.4277">Return error</text><line style="stroke:#000000;stroke-width:1.0;stroke-dasharray:2.0,2.0;" x1="20" x2="713.9082" y1="382.1699" y2="382.1699"/><text fill="#000000" font-family="sans-serif" font-size="11" font-weight="bold" lengthAdjust="spacing" textLength="133.6167" x="25" y="392.8047">[Revalidation Succeeds]</text><polygon fill="#181818" points="301.4263,413.4355,291.4263,417.4355,301.4263,421.4355,297.4263,417.4355" style="stroke:#181818;stroke-width:1.0;"/><line style="stroke:#181818;stroke-width:1.0;stroke-dasharray:2.0,2.0;" x1="295.4263" x2="637.7515" y1="417.4355" y2="417.4355"/><text fill="#000000" font-family="sans-serif" font-size="13" lengthAdjust="spacing" textLength="61.4771" x="307.4263" y="412.6934">Return nil</text><polygon fill="#181818" points="67.7524,499.333,57.7524,503.333,67.7524,507.333,63.7524,503.333" style="stroke:#181818;stroke-width:1.0;"/><line style="stroke:#181818;stroke-width:1.0;" x1="61.7524" x2="279.4263" y1="503.333" y2="503.333"/><text fill="#000000" font-family="sans-serif" font-size="13" lengthAdjust="spacing" textLength="61.4771" x="73.7524" y="498.5908">Return nil</text><path d="M295,430.4355 L295,562.4355 L594,562.4355 L594,440.4355 L584,430.4355 L295,430.4355 " fill="#FEFFDD" style="stroke:#181818;stroke-width:0.5;"/><path d="M584,430.4355 L584,440.4355 L594,440.4355 L584,430.4355 " fill="#FEFFDD" style="stroke:#181818;stroke-width:0.5;"/><text fill="#000000" font-family="sans-serif" font-size="13" lengthAdjust="spacing" textLength="102.7686" x="301" y="448.0039">Response fields:</text><text fill="#000000" font-family="sans-serif" font-size="13" lengthAdjust="spacing" textLength="152.5278" x="301" y="463.3145">- Returns nil on success</text><text fill="#000000" font-family="sans-serif" font-size="13" lengthAdjust="spacing" textLength="4.1133" x="301" y="478.625">&#160;</text><text fill="#000000" font-family="sans-serif" font-size="13" lengthAdjust="spacing" textLength="46.1094" x="301" y="493.9355">Effects:</text><text fill="#000000" font-family="sans-serif" font-size="13" lengthAdjust="spacing" textLength="228.3315" x="301" y="509.2461">- Removes invalid status from block</text><text fill="#000000" font-family="sans-serif" font-size="13" lengthAdjust="spacing" textLength="278.6685" x="301" y="524.5566">- Descendants become eligible for inclusion</text><text fill="#000000" font-family="sans-serif" font-size="13" lengthAdjust="spacing" textLength="217.8706" x="301" y="539.8672">- May trigger chain reorganization</text><text fill="#000000" font-family="sans-serif" font-size="13" lengthAdjust="spacing" textLength="264.5449" x="301" y="555.1777">- Block must still pass all consensus rules</text><text fill="#888888" font-family="sans-serif" font-size="10" lengthAdjust="spacing" textLength="153.0469" x="0" y="633.0762">Last Modified On: 30-Jan-2025</text><!--SRC=[ZLHHYzim37xthn21GG-MFv27mTQxSeDbEwwmTzTM4pF73fRJzVRh9pjPcdIbd24Gov-aJz9dzp94eqmlNOIjDUYYw1UculLb2tiC9mm5I0BUhi-thJGEdYMry283JR3nTutyOhtwfJ9yJ9IH5wiGendAJoaDLF2AoZio6aD6RJkzEQIVbhCz2AcYESc8cPCGoOKznypi_1r_9rQxuBjz33ST9vP2sWXVtKbQeyTATZvqCWhWDSKh5wJY41nW23van9Hu8Zy3GgyUcR_6Ppm_pM3dEMymJJj6JoiVGa3gkLYiPdi9M_QkqZcdc6DnCSOr2rIDHB9XOF4vD4ENI7G3HJWWj7YM6fNff0NAVaLsHASp4u6M47xEXT-jk4zs3Uq_dCR_6hbensBQAK9kBaEpUQFY-IECmqWkSvo5699zFEJXpFx6EzX9OsckVv7dpepkpEa2oirOfTeFIY7gzsLpniwuHM-kQfhhkaDf6Uc6OBBd91Su6hIQgjLXEGMY50cu3afr4Ar0gytJyOWgtWZJ-HCIcEboK9Hn83ZodO9yeQxmZqYAjSNNdLX-odV8JJMDELWcoY8tJjc1kBDNVhLy0vPdqx3knku6zA6Hplp9WxY2vvQE8gTeh6Lf4h5GBAJt0Xqnnp1Ol1Gy2txQYFI9nPJo6sBn69adum9yanozzjfmWpNyS1LyIFhT55gNTLsNRxoAXxy0]--></g></svg>
