<svg xmlns="http://www.w3.org/2000/svg" xmlns:xlink="http://www.w3.org/1999/xlink" contentStyleType="text/css" height="288px" preserveAspectRatio="none" style="width:564px;height:288px;background:#F0F8FF;" version="1.1" viewBox="0 0 564 288" width="564px" zoomAndPan="magnify"><defs/><g><rect fill="#F0F8FF" height="288" style="stroke:none;stroke-width:1.0;" width="564" x="0" y="0"/><rect fill="#FFFFFF" height="140.8975" style="stroke:#181818;stroke-width:1.0;" width="10" x="241.9927" y="67.7988"/><rect fill="#FFFFFF" height="63.6211" style="stroke:#181818;stroke-width:1.0;" width="10" x="246.9927" y="105.1094"/><rect fill="#FFFFFF" height="29.3105" style="stroke:#181818;stroke-width:1.0;" width="10" x="439.5591" y="139.4199"/><line style="stroke:#181818;stroke-width:0.5;stroke-dasharray:5.0,5.0;" x1="31" x2="31" y1="36.4883" y2="237.3516"/><line style="stroke:#181818;stroke-width:0.5;stroke-dasharray:5.0,5.0;" x1="246.7178" x2="246.7178" y1="36.4883" y2="237.3516"/><line style="stroke:#181818;stroke-width:0.5;stroke-dasharray:5.0,5.0;" x1="444.4023" x2="444.4023" y1="36.4883" y2="237.3516"/><rect fill="#DDDDDD" height="30.4883" rx="2.5" ry="2.5" style="stroke:#666666;stroke-width:0.5;" width="53.5049" x="5" y="5"/><text fill="#333333" font-family="sans-serif" font-size="14" lengthAdjust="spacing" textLength="39.5049" x="12" y="25.5352">Client</text><rect fill="#DDDDDD" height="30.4883" rx="2.5" ry="2.5" style="stroke:#666666;stroke-width:0.5;" width="53.5049" x="5" y="236.3516"/><text fill="#333333" font-family="sans-serif" font-size="14" lengthAdjust="spacing" textLength="39.5049" x="12" y="256.8867">Client</text><rect fill="#DDDDDD" height="30.4883" rx="2.5" ry="2.5" style="stroke:#666666;stroke-width:0.5;" width="86.5498" x="203.7178" y="5"/><text fill="#333333" font-family="sans-serif" font-size="14" lengthAdjust="spacing" textLength="72.5498" x="210.7178" y="25.5352">RPC Server</text><rect fill="#DDDDDD" height="30.4883" rx="2.5" ry="2.5" style="stroke:#666666;stroke-width:0.5;" width="86.5498" x="203.7178" y="236.3516"/><text fill="#333333" font-family="sans-serif" font-size="14" lengthAdjust="spacing" textLength="72.5498" x="210.7178" y="256.8867">RPC Server</text><rect fill="#DDDDDD" height="30.4883" rx="2.5" ry="2.5" style="stroke:#666666;stroke-width:0.5;" width="130.3135" x="379.4023" y="5"/><text fill="#333333" font-family="sans-serif" font-size="14" lengthAdjust="spacing" textLength="116.3135" x="386.4023" y="25.5352">Blockchain Client</text><rect fill="#DDDDDD" height="30.4883" rx="2.5" ry="2.5" style="stroke:#666666;stroke-width:0.5;" width="130.3135" x="379.4023" y="236.3516"/><text fill="#333333" font-family="sans-serif" font-size="14" lengthAdjust="spacing" textLength="116.3135" x="386.4023" y="256.8867">Blockchain Client</text><rect fill="#FFFFFF" height="140.8975" style="stroke:#181818;stroke-width:1.0;" width="10" x="241.9927" y="67.7988"/><rect fill="#FFFFFF" height="63.6211" style="stroke:#181818;stroke-width:1.0;" width="10" x="246.9927" y="105.1094"/><rect fill="#FFFFFF" height="29.3105" style="stroke:#181818;stroke-width:1.0;" width="10" x="439.5591" y="139.4199"/><polygon fill="#666666" points="229.9927,63.7988,239.9927,67.7988,229.9927,71.7988,233.9927,67.7988" style="stroke:#666666;stroke-width:1.0;"/><line style="stroke:#666666;stroke-width:1.0;" x1="31.7524" x2="235.9927" y1="67.7988" y2="67.7988"/><text fill="#333333" font-family="sans-serif" font-size="13" lengthAdjust="spacing" textLength="179.7402" x="38.7524" y="63.0566">Request: GetBestBlockHash()</text><line style="stroke:#666666;stroke-width:1.0;" x1="251.9927" x2="298.9927" y1="92.1094" y2="92.1094"/><line style="stroke:#666666;stroke-width:1.0;" x1="298.9927" x2="298.9927" y1="92.1094" y2="105.1094"/><line style="stroke:#666666;stroke-width:1.0;" x1="257.9927" x2="298.9927" y1="105.1094" y2="105.1094"/><polygon fill="#666666" points="267.9927,101.1094,257.9927,105.1094,267.9927,109.1094,263.9927,105.1094" style="stroke:#666666;stroke-width:1.0;"/><text fill="#333333" font-family="sans-serif" font-size="13" lengthAdjust="spacing" textLength="163.5664" x="263.9927" y="87.3672">handleGetBestBlockHash()</text><polygon fill="#666666" points="427.5591,135.4199,437.5591,139.4199,427.5591,143.4199,431.5591,139.4199" style="stroke:#666666;stroke-width:1.0;"/><line style="stroke:#666666;stroke-width:1.0;" x1="256.9927" x2="433.5591" y1="139.4199" y2="139.4199"/><text fill="#333333" font-family="sans-serif" font-size="13" lengthAdjust="spacing" textLength="134.3608" x="263.9927" y="134.6777">GetBestBlockHeader()</text><polygon fill="#666666" points="262.9927,164.7305,252.9927,168.7305,262.9927,172.7305,258.9927,168.7305" style="stroke:#666666;stroke-width:1.0;"/><line style="stroke:#666666;stroke-width:1.0;" x1="256.9927" x2="443.5591" y1="168.7305" y2="168.7305"/><text fill="#333333" font-family="sans-serif" font-size="13" lengthAdjust="spacing" textLength="99.2646" x="268.9927" y="163.9883">best block hash</text><polygon fill="#666666" points="42.7524,204.6963,32.7524,208.6963,42.7524,212.6963,38.7524,208.6963" style="stroke:#666666;stroke-width:1.0;"/><line style="stroke:#666666;stroke-width:1.0;" x1="36.7524" x2="245.9927" y1="208.6963" y2="208.6963"/><text fill="#333333" font-family="sans-serif" font-size="13" lengthAdjust="spacing" textLength="186.2402" x="48.7524" y="203.9541">Response with BestBlockHash</text><path d="M256,181.7305 L256,221.7305 L557,221.7305 L557,191.7305 L547,181.7305 L256,181.7305 " fill="#FEFFDD" style="stroke:#181818;stroke-width:0.5;"/><path d="M547,181.7305 L547,191.7305 L557,191.7305 L547,181.7305 " fill="#FEFFDD" style="stroke:#181818;stroke-width:0.5;"/><text fill="#333333" font-family="sans-serif" font-size="13" lengthAdjust="spacing" textLength="102.7686" x="262" y="199.2988">Response fields:</text><text fill="#333333" font-family="sans-serif" font-size="13" lengthAdjust="spacing" textLength="280.1982" x="262" y="214.6094">- hash: Hex-encoded hash of the best block</text><text fill="#333333" font-family="sans-serif" font-size="10" lengthAdjust="spacing" textLength="155.4346" x="0" y="278.5078">Last Modified On: 24-Feb-2025</text><!--SRC=[fL91JiCm4BplArP527g8X8I4K0uSsYhqG0GgBt3YJMFLjOljjbI8lxDne-9KFS4Uh7XsPdRMYbyfin5EhB4IzMhfxDR8gTNMuLLnLpmM1VWJGr8ZjZeKreIUSXyheGZdxBvlFiG2kC4PDSeGLjP9SXuRxWgjaJIjoGIVwFcgmW6_074IsKClHizJpcB1DoGkDITqLl_NXi-WQhKH9lpD2Y2rc6h5wmsWqU9jYk_aTkH6A3poTTYVQ5klwbOeqyiZxHS5ECAOFNLYp7517rlo8STd2XF-YDovyEtj64GTr4u4YdCw-b6LOokCr7H1SL6IX3eRGu8VQ21BeYQoKzgAfLXr3SxWMv1qIPd2IOv-zMvdlx764-vLQ76m0nZB8gUMRO0JhL6afSyXYqDpdDDdHgQsacH4q3OOMahI0Hc9dTLv5D3K1FwZkUNmHJ2_j5Bn08cl9iThoSJRaPHPMPRPWMiqXXy0]--></g></svg>
