<svg xmlns="http://www.w3.org/2000/svg" xmlns:xlink="http://www.w3.org/1999/xlink" contentStyleType="text/css" height="425px" preserveAspectRatio="none" style="width:525px;height:425px;background:#FFFFFF;" version="1.1" viewBox="0 0 525 425" width="525px" zoomAndPan="magnify"><defs/><g><rect fill="#FFFFFF" height="288.7266" style="stroke:#181818;stroke-width:1.0;" width="10" x="211.0605" y="67.7988"/><rect fill="#FFFFFF" height="29.3105" style="stroke:#181818;stroke-width:1.0;" width="10" x="394.3911" y="97.1094"/><rect fill="none" height="59.6211" style="stroke:#000000;stroke-width:1.5;" width="261.7427" x="162.7856" y="268.5938"/><line style="stroke:#181818;stroke-width:0.5;stroke-dasharray:5.0,5.0;" x1="31" x2="31" y1="36.4883" y2="374.5254"/><line style="stroke:#181818;stroke-width:0.5;stroke-dasharray:5.0,5.0;" x1="215.7856" x2="215.7856" y1="36.4883" y2="374.5254"/><line style="stroke:#181818;stroke-width:0.5;stroke-dasharray:5.0,5.0;" x1="399.2344" x2="399.2344" y1="36.4883" y2="374.5254"/><rect fill="#E2E2F0" height="30.4883" rx="2.5" ry="2.5" style="stroke:#181818;stroke-width:0.5;" width="53.5049" x="5" y="5"/><text fill="#000000" font-family="sans-serif" font-size="14" lengthAdjust="spacing" textLength="39.5049" x="12" y="25.5352">Client</text><rect fill="#E2E2F0" height="30.4883" rx="2.5" ry="2.5" style="stroke:#181818;stroke-width:0.5;" width="53.5049" x="5" y="373.5254"/><text fill="#000000" font-family="sans-serif" font-size="14" lengthAdjust="spacing" textLength="39.5049" x="12" y="394.0605">Client</text><rect fill="#E2E2F0" height="30.4883" rx="2.5" ry="2.5" style="stroke:#181818;stroke-width:0.5;" width="86.5498" x="172.7856" y="5"/><text fill="#000000" font-family="sans-serif" font-size="14" lengthAdjust="spacing" textLength="72.5498" x="179.7856" y="25.5352">RPC Server</text><rect fill="#E2E2F0" height="30.4883" rx="2.5" ry="2.5" style="stroke:#181818;stroke-width:0.5;" width="86.5498" x="172.7856" y="373.5254"/><text fill="#000000" font-family="sans-serif" font-size="14" lengthAdjust="spacing" textLength="72.5498" x="179.7856" y="394.0605">RPC Server</text><rect fill="#E2E2F0" height="30.4883" rx="2.5" ry="2.5" style="stroke:#181818;stroke-width:0.5;" width="130.3135" x="334.2344" y="5"/><text fill="#000000" font-family="sans-serif" font-size="14" lengthAdjust="spacing" textLength="116.3135" x="341.2344" y="25.5352">Blockchain Client</text><rect fill="#E2E2F0" height="30.4883" rx="2.5" ry="2.5" style="stroke:#181818;stroke-width:0.5;" width="130.3135" x="334.2344" y="373.5254"/><text fill="#000000" font-family="sans-serif" font-size="14" lengthAdjust="spacing" textLength="116.3135" x="341.2344" y="394.0605">Blockchain Client</text><rect fill="#FFFFFF" height="288.7266" style="stroke:#181818;stroke-width:1.0;" width="10" x="211.0605" y="67.7988"/><rect fill="#FFFFFF" height="29.3105" style="stroke:#181818;stroke-width:1.0;" width="10" x="394.3911" y="97.1094"/><polygon fill="#181818" points="199.0605,63.7988,209.0605,67.7988,199.0605,71.7988,203.0605,67.7988" style="stroke:#181818;stroke-width:1.0;"/><line style="stroke:#181818;stroke-width:1.0;" x1="31.7524" x2="205.0605" y1="67.7988" y2="67.7988"/><text fill="#000000" font-family="sans-serif" font-size="13" lengthAdjust="spacing" textLength="113.2041" x="38.7524" y="63.0566">Request: GetInfo()</text><polygon fill="#181818" points="382.3911,93.1094,392.3911,97.1094,382.3911,101.1094,386.3911,97.1094" style="stroke:#181818;stroke-width:1.0;"/><line style="stroke:#181818;stroke-width:1.0;" x1="221.0605" x2="388.3911" y1="97.1094" y2="97.1094"/><text fill="#000000" font-family="sans-serif" font-size="13" lengthAdjust="spacing" textLength="154.3306" x="228.0605" y="92.3672">GetBestHeightAndTime()</text><polygon fill="#181818" points="232.0605,122.4199,222.0605,126.4199,232.0605,130.4199,228.0605,126.4199" style="stroke:#181818;stroke-width:1.0;"/><line style="stroke:#181818;stroke-width:1.0;stroke-dasharray:2.0,2.0;" x1="226.0605" x2="398.3911" y1="126.4199" y2="126.4199"/><text fill="#000000" font-family="sans-serif" font-size="13" lengthAdjust="spacing" textLength="76.3306" x="238.0605" y="121.6777">height, time</text><line style="stroke:#181818;stroke-width:1.0;" x1="221.0605" x2="263.0605" y1="198.1621" y2="198.1621"/><line style="stroke:#181818;stroke-width:1.0;" x1="263.0605" x2="263.0605" y1="198.1621" y2="211.1621"/><line style="stroke:#181818;stroke-width:1.0;" x1="222.0605" x2="263.0605" y1="211.1621" y2="211.1621"/><polygon fill="#181818" points="232.0605,207.1621,222.0605,211.1621,232.0605,215.1621,228.0605,211.1621" style="stroke:#181818;stroke-width:1.0;"/><text fill="#000000" font-family="sans-serif" font-size="13" lengthAdjust="spacing" textLength="133.1484" x="228.0605" y="193.4199">Construct info object</text><path d="M383.1484,139.4199 L383.1484,256.4199 L518.1484,256.4199 L518.1484,149.4199 L508.1484,139.4199 L383.1484,139.4199 " fill="#FEFFDD" style="stroke:#181818;stroke-width:0.5;"/><path d="M508.1484,139.4199 L508.1484,149.4199 L518.1484,149.4199 L508.1484,139.4199 " fill="#FEFFDD" style="stroke:#181818;stroke-width:0.5;"/><text fill="#000000" font-family="sans-serif" font-size="13" lengthAdjust="spacing" textLength="57.3638" x="389.1484" y="156.9883">- version</text><text fill="#000000" font-family="sans-serif" font-size="13" lengthAdjust="spacing" textLength="114.2134" x="389.1484" y="172.2988">- protocol version</text><text fill="#000000" font-family="sans-serif" font-size="13" lengthAdjust="spacing" textLength="90.0352" x="389.1484" y="187.6094">- block height</text><text fill="#000000" font-family="sans-serif" font-size="13" lengthAdjust="spacing" textLength="105.0664" x="389.1484" y="202.9199">- network status</text><text fill="#000000" font-family="sans-serif" font-size="13" lengthAdjust="spacing" textLength="109.6938" x="389.1484" y="218.2305">- connection info</text><text fill="#000000" font-family="sans-serif" font-size="13" lengthAdjust="spacing" textLength="93.9199" x="389.1484" y="233.541">- network type</text><text fill="#000000" font-family="sans-serif" font-size="13" lengthAdjust="spacing" textLength="65.3047" x="389.1484" y="248.8516">- relay fee</text><path d="M162.7856,268.5938 L224.9243,268.5938 L224.9243,275.9043 L214.9243,285.9043 L162.7856,285.9043 L162.7856,268.5938 " fill="#EEEEEE" style="stroke:#000000;stroke-width:1.5;"/><rect fill="none" height="59.6211" style="stroke:#000000;stroke-width:1.5;" width="261.7427" x="162.7856" y="268.5938"/><text fill="#000000" font-family="sans-serif" font-size="13" font-weight="bold" lengthAdjust="spacing" textLength="17.1387" x="177.7856" y="282.1621">alt</text><text fill="#000000" font-family="sans-serif" font-size="11" font-weight="bold" lengthAdjust="spacing" textLength="179.604" x="239.9243" y="281.2285">[If GetBestHeightAndTime fails]</text><line style="stroke:#181818;stroke-width:1.0;" x1="221.0605" x2="263.0605" y1="307.2148" y2="307.2148"/><line style="stroke:#181818;stroke-width:1.0;" x1="263.0605" x2="263.0605" y1="307.2148" y2="320.2148"/><line style="stroke:#181818;stroke-width:1.0;" x1="222.0605" x2="263.0605" y1="320.2148" y2="320.2148"/><polygon fill="#181818" points="232.0605,316.2148,222.0605,320.2148,232.0605,324.2148,228.0605,320.2148" style="stroke:#181818;stroke-width:1.0;"/><text fill="#000000" font-family="sans-serif" font-size="13" lengthAdjust="spacing" textLength="92.6187" x="228.0605" y="302.4727">Set height to 0</text><polygon fill="#181818" points="42.7524,352.5254,32.7524,356.5254,42.7524,360.5254,38.7524,356.5254" style="stroke:#181818;stroke-width:1.0;"/><line style="stroke:#181818;stroke-width:1.0;" x1="36.7524" x2="215.0605" y1="356.5254" y2="356.5254"/><text fill="#000000" font-family="sans-serif" font-size="13" lengthAdjust="spacing" textLength="155.3081" x="48.7524" y="351.7832">Response with node info</text><text fill="#888888" font-family="sans-serif" font-size="10" lengthAdjust="spacing" textLength="156.3916" x="0" y="415.6816">Last Modified On: 19-Dec-2024</text><!--SRC=[RL5BJiCm4Dtx5AD8IAr49DPT8D4ke18HgEK2hZqXfiOJx6chtfvn4eehrQlCo_lCfzUHdN6z3Wmhxp2mwWkesholO8lnYB42dK3Aw_zBJsPlEkt291ze_wXI8mprOnR30ZRuSy342tX6NeUMPdEb3RkZPXpiLQO9kt0Uk4iHlQ3xxFWfs0_tZQMm22nqzIMq6uJtmA9J5c_f_d97mOf2udWm34vw1DfzeM4LI3GnMwaQP2V9KP2lFXAJ8Lz0ksmynKePa4yKzv1Oyo49O2W4SHJo451G-DoZb16zFaEBg31OoC5AQS-mRcyk0rhjV58WxsgEBVBK1J31GpQxJ3fT9fyazJ8lmibn9raMnwQAHGsNyTWoj2IzH7ZLYQ4Xwrg75jx20kwi46ULjNNJDFLPNZLNlm00]--></g></svg>
