<svg contentStyleType="text/css" height="627" preserveAspectRatio="none" viewBox="0 0 722 627" width="722" xmlns="http://www.w3.org/2000/svg" zoomAndPan="magnify"><path d="m0 0h722v627h-722z" fill="#f0f8ff"/><path d="m271.8252 67.7988h10v498.8105h-10z" fill="#fff" stroke="#181818"/><path d="m481.2891 97.1094h10v163.8184h-10z" fill="#fff" stroke="#181818"/><path d="m625.1504 290.2383h10v127.1973h-10z" fill="#fff" stroke="#181818"/><path d="m10 112.1094h705.3071v447.5h-705.3071z" fill="none" stroke="#000" stroke-width="1.5"/><path d="m20 305.2383h685.3071v247.3711h-685.3071z" fill="none" stroke="#000" stroke-width="1.5"/><path d="m56 36.4883v540.1211" stroke="#181818" stroke-dasharray="5 5" stroke-width=".5"/><path d="m276.5503 36.4883v540.1211" stroke="#181818" stroke-dasharray="5 5" stroke-width=".5"/><path d="m485.5845 36.4883v540.1211" stroke="#181818" stroke-dasharray="5 5" stroke-width=".5"/><path d="m629.9937 36.4883v540.1211" stroke="#181818" stroke-dasharray="5 5" stroke-width=".5"/><rect fill="#ddd" height="30.4883" rx="2.5" stroke="#666" stroke-width=".5" width="53.5049" x="30" y="5"/><text fill="#333" font-family="sans-serif" font-size="14" lengthAdjust="spacing" textLength="39.5049" x="37" y="25.5352">Client</text><rect fill="#ddd" height="30.4883" rx="2.5" stroke="#666" stroke-width=".5" width="53.5049" x="30" y="575.6094"/><text fill="#333" font-family="sans-serif" font-size="14" lengthAdjust="spacing" textLength="39.5049" x="37" y="596.1445">Client</text><rect fill="#ddd" height="30.4883" rx="2.5" stroke="#666" stroke-width=".5" width="86.5498" x="233.5503" y="5"/><text fill="#333" font-family="sans-serif" font-size="14" lengthAdjust="spacing" textLength="72.5498" x="240.5503" y="25.5352">RPC Server</text><rect fill="#ddd" height="30.4883" rx="2.5" stroke="#666" stroke-width=".5" width="86.5498" x="233.5503" y="575.6094"/><text fill="#333" font-family="sans-serif" font-size="14" lengthAdjust="spacing" textLength="72.5498" x="240.5503" y="596.1445">RPC Server</text><rect fill="#ddd" height="30.4883" rx="2.5" stroke="#666" stroke-width=".5" width="137.4092" x="417.5845" y="5"/><text fill="#333" font-family="sans-serif" font-size="14" lengthAdjust="spacing" textLength="123.4092" x="424.5845" y="25.5352">Chain Hash Parser</text><rect fill="#ddd" height="30.4883" rx="2.5" stroke="#666" stroke-width=".5" width="137.4092" x="417.5845" y="575.6094"/><text fill="#333" font-family="sans-serif" font-size="14" lengthAdjust="spacing" textLength="123.4092" x="424.5845" y="596.1445">Chain Hash Parser</text><rect fill="#ddd" height="30.4883" rx="2.5" stroke="#666" stroke-width=".5" width="130.3135" x="564.9937" y="5"/><text fill="#333" font-family="sans-serif" font-size="14" lengthAdjust="spacing" textLength="116.3135" x="571.9937" y="25.5352">Blockchain Client</text><rect fill="#ddd" height="30.4883" rx="2.5" stroke="#666" stroke-width=".5" width="130.3135" x="564.9937" y="575.6094"/><text fill="#333" font-family="sans-serif" font-size="14" lengthAdjust="spacing" textLength="116.3135" x="571.9937" y="596.1445">Blockchain Client</text><path d="m271.8252 67.7988h10v498.8105h-10z" fill="#fff" stroke="#181818"/><path d="m481.2891 97.1094h10v163.8184h-10z" fill="#fff" stroke="#181818"/><path d="m625.1504 290.2383h10v127.1973h-10z" fill="#fff" stroke="#181818"/><path d="m259.8252 63.7988 10 4-10 4 4-4z" fill="#666" stroke="#666"/><path d="m56.7524 67.7988h209.0728" stroke="#666"/><text fill="#333" font-family="sans-serif" font-size="13" lengthAdjust="spacing" textLength="196.0728" x="63.7524" y="63.0566">InvalidateBlockCmd(blockhash)</text><path d="m469.2891 93.1094 10 4-10 4 4-4z" fill="#666" stroke="#666"/><path d="m281.8252 97.1094h193.4639" stroke="#666"/><text fill="#333" font-family="sans-serif" font-size="13" lengthAdjust="spacing" textLength="180.4639" x="288.8252" y="92.3672">NewHashFromStr(blockhash)</text><path d="m10 112.1094h62.1387v7.3105l-10 10h-52.1387z" fill="#eee" stroke="#000" stroke-width="1.5"/><path d="m10 112.1094h705.3071v447.5h-705.3071z" fill="none" stroke="#000" stroke-width="1.5"/><text fill="#333" font-family="sans-serif" font-size="13" font-weight="bold" lengthAdjust="spacing" textLength="17.1387" x="25" y="125.6777">alt</text><text fill="#333" font-family="sans-serif" font-size="11" font-weight="bold" lengthAdjust="spacing" textLength="122.1387" x="87.1387" y="124.7441">[Invalid Hash Format]</text><path d="m292.8252 146.7305-10 4 10 4-4-4z" fill="#666" stroke="#666"/><path d="m286.8252 150.7305h193.4639" stroke="#666" stroke-dasharray="2 2"/><text fill="#333" font-family="sans-serif" font-size="13" lengthAdjust="spacing" textLength="77.0796" x="298.8252" y="145.9883">Return error</text><path d="m67.7524 194.3516-10 4 10 4-4-4z" fill="#666" stroke="#666"/><path d="m61.7524 198.3516h209.0728" stroke="#666"/><text fill="#333" font-family="sans-serif" font-size="13" lengthAdjust="spacing" textLength="168.8604" x="73.7524" y="193.6094">Return rpcDecodeHexError</text><path d="m286 163.7305v55h347v-45l-10-10z" fill="#feffdd" stroke="#181818" stroke-width=".5"/><path d="m623 163.7305v10h10z" fill="#feffdd" stroke="#181818" stroke-width=".5"/><text fill="#333" font-family="sans-serif" font-size="13" lengthAdjust="spacing" textLength="96.5098" x="292" y="181.2988">Error response:</text><text fill="#333" font-family="sans-serif" font-size="13" lengthAdjust="spacing" textLength="203.2837" x="292" y="196.6094">- Code: ErrRPCDecodeHexString</text><text fill="#333" font-family="sans-serif" font-size="13" lengthAdjust="spacing" textLength="326.2568" x="292" y="211.9199">- Message: "Argument must be hexadecimal string"</text><path d="m10 225.6621h705.3071" stroke="#000" stroke-dasharray="2 2"/><text fill="#333" font-family="sans-serif" font-size="11" font-weight="bold" lengthAdjust="spacing" textLength="68.8682" x="15" y="236.2969">[Valid Hash]</text><path d="m292.8252 256.9277-10 4 10 4-4-4z" fill="#666" stroke="#666"/><path d="m286.8252 260.9277h198.4639" stroke="#666" stroke-dasharray="2 2"/><text fill="#333" font-family="sans-serif" font-size="13" lengthAdjust="spacing" textLength="122.6812" x="298.8252" y="256.1855">Return parsed hash</text><path d="m613.1504 286.2383 10 4-10 4 4-4z" fill="#666" stroke="#666"/><path d="m281.8252 290.2383h337.3252" stroke="#666"/><text fill="#333" font-family="sans-serif" font-size="13" lengthAdjust="spacing" textLength="160.2974" x="288.8252" y="285.4961">InvalidateBlock(ctx, hash)</text><path d="m20 305.2383h62.1387v7.3105l-10 10h-52.1387z" fill="#eee" stroke="#000" stroke-width="1.5"/><path d="m20 305.2383h685.3071v247.3711h-685.3071z" fill="none" stroke="#000" stroke-width="1.5"/><text fill="#333" font-family="sans-serif" font-size="13" font-weight="bold" lengthAdjust="spacing" textLength="17.1387" x="35" y="318.8066">alt</text><text fill="#333" font-family="sans-serif" font-size="11" font-weight="bold" lengthAdjust="spacing" textLength="104.9941" x="97.1387" y="317.873">[Invalidation Fails]</text><path d="m292.8252 339.8594-10 4 10 4-4-4z" fill="#666" stroke="#666"/><path d="m286.8252 343.8594h337.3252" stroke="#666" stroke-dasharray="2 2"/><text fill="#333" font-family="sans-serif" font-size="13" lengthAdjust="spacing" textLength="77.0796" x="298.8252" y="339.1172">Return error</text><path d="m67.7524 369.1699-10 4 10 4-4-4z" fill="#666" stroke="#666"/><path d="m61.7524 373.1699h209.0728" stroke="#666"/><text fill="#333" font-family="sans-serif" font-size="13" lengthAdjust="spacing" textLength="77.0796" x="73.7524" y="368.4277">Return error</text><path d="m20 382.1699h685.3071" stroke="#000" stroke-dasharray="2 2"/><text fill="#333" font-family="sans-serif" font-size="11" font-weight="bold" lengthAdjust="spacing" textLength="130.4531" x="25" y="392.8047">[Invalidation Succeeds]</text><path d="m292.8252 413.4355-10 4 10 4-4-4z" fill="#666" stroke="#666"/><path d="m286.8252 417.4355h342.3252" stroke="#666" stroke-dasharray="2 2"/><text fill="#333" font-family="sans-serif" font-size="13" lengthAdjust="spacing" textLength="61.4771" x="298.8252" y="412.6934">Return nil</text><path d="m67.7524 491.6777-10 4 10 4-4-4z" fill="#666" stroke="#666"/><path d="m61.7524 495.6777h209.0728" stroke="#666"/><text fill="#333" font-family="sans-serif" font-size="13" lengthAdjust="spacing" textLength="61.4771" x="73.7524" y="490.9355">Return nil</text><path d="m286 430.4355v117h273v-107l-10-10z" fill="#feffdd" stroke="#181818" stroke-width=".5"/><path d="m549 430.4355v10h10z" fill="#feffdd" stroke="#181818" stroke-width=".5"/><g fill="#333" font-family="sans-serif"><text font-size="13" lengthAdjust="spacing" textLength="102.7686" x="292" y="448.0039">Response fields:</text><text font-size="13" lengthAdjust="spacing" textLength="152.5278" x="292" y="463.3145">- Returns nil on success</text><text font-size="13" lengthAdjust="spacing" textLength="4.1133" x="292" y="478.625"></text><text font-size="13" lengthAdjust="spacing" textLength="46.1094" x="292" y="493.9355">Effects:</text><text font-size="13" lengthAdjust="spacing" textLength="174.8462" x="292" y="509.2461">- Block is marked as invalid</text><text font-size="13" lengthAdjust="spacing" textLength="252.1416" x="292" y="524.5566">- All descendant blocks also invalidated</text><text font-size="13" lengthAdjust="spacing" textLength="149.7095" x="292" y="539.8672">- Chain may reorganize</text><text font-size="10" lengthAdjust="spacing" textLength="155.4346" y="617.7656">Last Modified On: 24-Feb-2025</text></g></svg>
