<svg contentStyleType="text/css" height="425" preserveAspectRatio="none" viewBox="0 0 525 425" width="525" xmlns="http://www.w3.org/2000/svg" zoomAndPan="magnify"><path d="m0 0h525v425h-525z" fill="#f0f8ff"/><path d="m211.0605 67.7988h10v288.7266h-10z" fill="#fff" stroke="#181818"/><path d="m394.3911 97.1094h10v29.3105h-10z" fill="#fff" stroke="#181818"/><path d="m162.7856 268.5938h261.7427v59.6211h-261.7427z" fill="none" stroke="#000" stroke-width="1.5"/><path d="m31 36.4883v338.0371" stroke="#181818" stroke-dasharray="5 5" stroke-width=".5"/><path d="m215.7856 36.4883v338.0371" stroke="#181818" stroke-dasharray="5 5" stroke-width=".5"/><path d="m399.2344 36.4883v338.0371" stroke="#181818" stroke-dasharray="5 5" stroke-width=".5"/><rect fill="#ddd" height="30.4883" rx="2.5" stroke="#666" stroke-width=".5" width="53.5049" x="5" y="5"/><text fill="#333" font-family="sans-serif" font-size="14" lengthAdjust="spacing" textLength="39.5049" x="12" y="25.5352">Client</text><rect fill="#ddd" height="30.4883" rx="2.5" stroke="#666" stroke-width=".5" width="53.5049" x="5" y="373.5254"/><text fill="#333" font-family="sans-serif" font-size="14" lengthAdjust="spacing" textLength="39.5049" x="12" y="394.0605">Client</text><rect fill="#ddd" height="30.4883" rx="2.5" stroke="#666" stroke-width=".5" width="86.5498" x="172.7856" y="5"/><text fill="#333" font-family="sans-serif" font-size="14" lengthAdjust="spacing" textLength="72.5498" x="179.7856" y="25.5352">RPC Server</text><rect fill="#ddd" height="30.4883" rx="2.5" stroke="#666" stroke-width=".5" width="86.5498" x="172.7856" y="373.5254"/><text fill="#333" font-family="sans-serif" font-size="14" lengthAdjust="spacing" textLength="72.5498" x="179.7856" y="394.0605">RPC Server</text><rect fill="#ddd" height="30.4883" rx="2.5" stroke="#666" stroke-width=".5" width="130.3135" x="334.2344" y="5"/><text fill="#333" font-family="sans-serif" font-size="14" lengthAdjust="spacing" textLength="116.3135" x="341.2344" y="25.5352">Blockchain Client</text><rect fill="#ddd" height="30.4883" rx="2.5" stroke="#666" stroke-width=".5" width="130.3135" x="334.2344" y="373.5254"/><text fill="#333" font-family="sans-serif" font-size="14" lengthAdjust="spacing" textLength="116.3135" x="341.2344" y="394.0605">Blockchain Client</text><path d="m211.0605 67.7988h10v288.7266h-10z" fill="#fff" stroke="#181818"/><path d="m394.3911 97.1094h10v29.3105h-10z" fill="#fff" stroke="#181818"/><path d="m199.0605 63.7988 10 4-10 4 4-4z" fill="#666" stroke="#666"/><path d="m31.7524 67.7988h173.3081" stroke="#666"/><text fill="#333" font-family="sans-serif" font-size="13" lengthAdjust="spacing" textLength="113.2041" x="38.7524" y="63.0566">Request: GetInfo()</text><path d="m382.3911 93.1094 10 4-10 4 4-4z" fill="#666" stroke="#666"/><path d="m221.0605 97.1094h167.3306" stroke="#666"/><text fill="#333" font-family="sans-serif" font-size="13" lengthAdjust="spacing" textLength="154.3306" x="228.0605" y="92.3672">GetBestHeightAndTime()</text><path d="m232.0605 122.4199-10 4 10 4-4-4z" fill="#666" stroke="#666"/><path d="m226.0605 126.4199h172.3306" stroke="#666" stroke-dasharray="2 2"/><text fill="#333" font-family="sans-serif" font-size="13" lengthAdjust="spacing" textLength="76.3306" x="238.0605" y="121.6777">height, time</text><path d="m221.0605 198.1621h42" stroke="#666"/><path d="m263.0605 198.1621v13" stroke="#666"/><path d="m222.0605 211.1621h41" stroke="#666"/><path d="m232.0605 207.1621-10 4 10 4-4-4z" fill="#666" stroke="#666"/><text fill="#333" font-family="sans-serif" font-size="13" lengthAdjust="spacing" textLength="133.1484" x="228.0605" y="193.4199">Construct info object</text><path d="m383.1484 139.4199v117h135v-107l-10-10z" fill="#feffdd" stroke="#181818" stroke-width=".5"/><path d="m508.1484 139.4199v10h10z" fill="#feffdd" stroke="#181818" stroke-width=".5"/><g fill="#333" font-family="sans-serif"><text font-size="13" lengthAdjust="spacing" textLength="57.3638" x="389.1484" y="156.9883">- version</text><text font-size="13" lengthAdjust="spacing" textLength="114.2134" x="389.1484" y="172.2988">- protocol version</text><text font-size="13" lengthAdjust="spacing" textLength="90.0352" x="389.1484" y="187.6094">- block height</text><text font-size="13" lengthAdjust="spacing" textLength="105.0664" x="389.1484" y="202.9199">- network status</text><text font-size="13" lengthAdjust="spacing" textLength="109.6938" x="389.1484" y="218.2305">- connection info</text><text font-size="13" lengthAdjust="spacing" textLength="93.9199" x="389.1484" y="233.541">- network type</text><text font-size="13" lengthAdjust="spacing" textLength="65.3047" x="389.1484" y="248.8516">- relay fee</text></g><path d="m162.7856 268.5938h62.1387v7.3105l-10 10h-52.1387z" fill="#eee" stroke="#000" stroke-width="1.5"/><path d="m162.7856 268.5938h261.7427v59.6211h-261.7427z" fill="none" stroke="#000" stroke-width="1.5"/><text fill="#333" font-family="sans-serif" font-size="13" font-weight="bold" lengthAdjust="spacing" textLength="17.1387" x="177.7856" y="282.1621">alt</text><text fill="#333" font-family="sans-serif" font-size="11" font-weight="bold" lengthAdjust="spacing" textLength="179.604" x="239.9243" y="281.2285">[If GetBestHeightAndTime fails]</text><path d="m221.0605 307.2148h42" stroke="#666"/><path d="m263.0605 307.2148v13" stroke="#666"/><path d="m222.0605 320.2148h41" stroke="#666"/><path d="m232.0605 316.2148-10 4 10 4-4-4z" fill="#666" stroke="#666"/><text fill="#333" font-family="sans-serif" font-size="13" lengthAdjust="spacing" textLength="92.6187" x="228.0605" y="302.4727">Set height to 0</text><path d="m42.7524 352.5254-10 4 10 4-4-4z" fill="#666" stroke="#666"/><path d="m36.7524 356.5254h178.3081" stroke="#666"/><text fill="#333" font-family="sans-serif" font-size="13" lengthAdjust="spacing" textLength="155.3081" x="48.7524" y="351.7832">Response with node info</text><text fill="#333" font-family="sans-serif" font-size="10" lengthAdjust="spacing" textLength="155.4346" y="415.6816">Last Modified On: 24-Feb-2025</text></svg>
