<svg xmlns="http://www.w3.org/2000/svg" xmlns:xlink="http://www.w3.org/1999/xlink" contentStyleType="text/css" height="547px" preserveAspectRatio="none" style="width:561px;height:547px;background:#F0F8FF;" version="1.1" viewBox="0 0 561 547" width="561px" zoomAndPan="magnify"><defs/><g><rect fill="#F0F8FF" height="547" style="stroke:none;stroke-width:1.0;" width="561" x="0" y="0"/><rect fill="#FFFFFF" height="419.8555" style="stroke:#181818;stroke-width:1.0;" width="10" x="232.4272" y="67.7988"/><rect fill="#FFFFFF" height="381.5449" style="stroke:#181818;stroke-width:1.0;" width="10" x="237.4272" y="105.1094"/><rect fill="#FFFFFF" height="29.3105" style="stroke:#181818;stroke-width:1.0;" width="10" x="402.2988" y="163.7305"/><rect fill="none" height="354.5449" style="stroke:#000000;stroke-width:1.5;" width="544.2036" x="10" y="125.1094"/><line style="stroke:#181818;stroke-width:0.5;stroke-dasharray:5.0,5.0;" x1="46" x2="46" y1="36.4883" y2="496.6543"/><line style="stroke:#181818;stroke-width:0.5;stroke-dasharray:5.0,5.0;" x1="237.1523" x2="237.1523" y1="36.4883" y2="496.6543"/><line style="stroke:#181818;stroke-width:0.5;stroke-dasharray:5.0,5.0;" x1="407.1421" x2="407.1421" y1="36.4883" y2="496.6543"/><rect fill="#DDDDDD" height="30.4883" rx="2.5" ry="2.5" style="stroke:#666666;stroke-width:0.5;" width="53.5049" x="20" y="5"/><text fill="#333333" font-family="sans-serif" font-size="14" lengthAdjust="spacing" textLength="39.5049" x="27" y="25.5352">Client</text><rect fill="#DDDDDD" height="30.4883" rx="2.5" ry="2.5" style="stroke:#666666;stroke-width:0.5;" width="53.5049" x="20" y="495.6543"/><text fill="#333333" font-family="sans-serif" font-size="14" lengthAdjust="spacing" textLength="39.5049" x="27" y="516.1895">Client</text><rect fill="#DDDDDD" height="30.4883" rx="2.5" ry="2.5" style="stroke:#666666;stroke-width:0.5;" width="86.5498" x="194.1523" y="5"/><text fill="#333333" font-family="sans-serif" font-size="14" lengthAdjust="spacing" textLength="72.5498" x="201.1523" y="25.5352">RPC Server</text><rect fill="#DDDDDD" height="30.4883" rx="2.5" ry="2.5" style="stroke:#666666;stroke-width:0.5;" width="86.5498" x="194.1523" y="495.6543"/><text fill="#333333" font-family="sans-serif" font-size="14" lengthAdjust="spacing" textLength="72.5498" x="201.1523" y="516.1895">RPC Server</text><rect fill="#DDDDDD" height="30.4883" rx="2.5" ry="2.5" style="stroke:#666666;stroke-width:0.5;" width="130.3135" x="342.1421" y="5"/><text fill="#333333" font-family="sans-serif" font-size="14" lengthAdjust="spacing" textLength="116.3135" x="349.1421" y="25.5352">Blockchain Client</text><rect fill="#DDDDDD" height="30.4883" rx="2.5" ry="2.5" style="stroke:#666666;stroke-width:0.5;" width="130.3135" x="342.1421" y="495.6543"/><text fill="#333333" font-family="sans-serif" font-size="14" lengthAdjust="spacing" textLength="116.3135" x="349.1421" y="516.1895">Blockchain Client</text><rect fill="#FFFFFF" height="419.8555" style="stroke:#181818;stroke-width:1.0;" width="10" x="232.4272" y="67.7988"/><rect fill="#FFFFFF" height="381.5449" style="stroke:#181818;stroke-width:1.0;" width="10" x="237.4272" y="105.1094"/><rect fill="#FFFFFF" height="29.3105" style="stroke:#181818;stroke-width:1.0;" width="10" x="402.2988" y="163.7305"/><polygon fill="#666666" points="220.4272,63.7988,230.4272,67.7988,220.4272,71.7988,224.4272,67.7988" style="stroke:#666666;stroke-width:1.0;"/><line style="stroke:#666666;stroke-width:1.0;" x1="46.7524" x2="226.4272" y1="67.7988" y2="67.7988"/><text fill="#333333" font-family="sans-serif" font-size="13" lengthAdjust="spacing" textLength="152.0454" x="53.7524" y="63.0566">Request: GetBlock(hash)</text><line style="stroke:#666666;stroke-width:1.0;" x1="242.4272" x2="289.4272" y1="92.1094" y2="92.1094"/><line style="stroke:#666666;stroke-width:1.0;" x1="289.4272" x2="289.4272" y1="92.1094" y2="105.1094"/><line style="stroke:#666666;stroke-width:1.0;" x1="248.4272" x2="289.4272" y1="105.1094" y2="105.1094"/><polygon fill="#666666" points="258.4272,101.1094,248.4272,105.1094,258.4272,109.1094,254.4272,105.1094" style="stroke:#666666;stroke-width:1.0;"/><text fill="#333333" font-family="sans-serif" font-size="13" lengthAdjust="spacing" textLength="135.8716" x="254.4272" y="87.3672">handleGetBlock(hash)</text><path d="M10,125.1094 L72.1387,125.1094 L72.1387,132.4199 L62.1387,142.4199 L10,142.4199 L10,125.1094 " fill="#EEEEEE" style="stroke:#000000;stroke-width:1.5;"/><rect fill="none" height="354.5449" style="stroke:#000000;stroke-width:1.5;" width="544.2036" x="10" y="125.1094"/><text fill="#333333" font-family="sans-serif" font-size="13" font-weight="bold" lengthAdjust="spacing" textLength="17.1387" x="25" y="138.6777">alt</text><text fill="#333333" font-family="sans-serif" font-size="11" font-weight="bold" lengthAdjust="spacing" textLength="66.3491" x="87.1387" y="137.7441">[valid hash]</text><polygon fill="#666666" points="390.2988,159.7305,400.2988,163.7305,390.2988,167.7305,394.2988,163.7305" style="stroke:#666666;stroke-width:1.0;"/><line style="stroke:#666666;stroke-width:1.0;" x1="247.4272" x2="396.2988" y1="163.7305" y2="163.7305"/><text fill="#333333" font-family="sans-serif" font-size="13" lengthAdjust="spacing" textLength="93.374" x="254.4272" y="158.9883">GetBlock(hash)</text><polygon fill="#666666" points="258.4272,189.041,248.4272,193.041,258.4272,197.041,254.4272,193.041" style="stroke:#666666;stroke-width:1.0;"/><line style="stroke:#666666;stroke-width:1.0;stroke-dasharray:2.0,2.0;" x1="252.4272" x2="406.2988" y1="193.041" y2="193.041"/><text fill="#333333" font-family="sans-serif" font-size="13" lengthAdjust="spacing" textLength="64.9937" x="264.4272" y="188.2988">Block data</text><polygon fill="#666666" points="57.7524,320.8701,47.7524,324.8701,57.7524,328.8701,53.7524,324.8701" style="stroke:#666666;stroke-width:1.0;"/><line style="stroke:#666666;stroke-width:1.0;" x1="51.7524" x2="236.4272" y1="324.8701" y2="324.8701"/><text fill="#333333" font-family="sans-serif" font-size="13" lengthAdjust="spacing" textLength="161.6748" x="63.7524" y="320.1279">Response with Block Data</text><path d="M252,206.041 L252,430.041 L538,430.041 L538,216.041 L528,206.041 L252,206.041 " fill="#FEFFDD" style="stroke:#181818;stroke-width:0.5;"/><path d="M528,206.041 L528,216.041 L538,216.041 L528,206.041 " fill="#FEFFDD" style="stroke:#181818;stroke-width:0.5;"/><text fill="#333333" font-family="sans-serif" font-size="13" lengthAdjust="spacing" textLength="203.7217" x="258" y="223.6094">Response fields (verbosity=1,2):</text><text fill="#333333" font-family="sans-serif" font-size="13" lengthAdjust="spacing" textLength="117.3364" x="258" y="238.9199">- hash: Block hash</text><text fill="#333333" font-family="sans-serif" font-size="13" lengthAdjust="spacing" textLength="265.7764" x="258" y="254.2305">- confirmations: Number of confirmations</text><text fill="#333333" font-family="sans-serif" font-size="13" lengthAdjust="spacing" textLength="161.3701" x="258" y="269.541">- size: Block size in bytes</text><text fill="#333333" font-family="sans-serif" font-size="13" lengthAdjust="spacing" textLength="137.6616" x="258" y="284.8516">- height: Block height</text><text fill="#333333" font-family="sans-serif" font-size="13" lengthAdjust="spacing" textLength="148.9097" x="258" y="300.1621">- version: Block version</text><text fill="#333333" font-family="sans-serif" font-size="13" lengthAdjust="spacing" textLength="181.1938" x="258" y="315.4727">- versionHex: Version in hex</text><text fill="#333333" font-family="sans-serif" font-size="13" lengthAdjust="spacing" textLength="195.9902" x="258" y="330.7832">- merkleroot: Merkle root hash</text><text fill="#333333" font-family="sans-serif" font-size="13" lengthAdjust="spacing" textLength="113.4517" x="258" y="346.0938">- time: Block time</text><text fill="#333333" font-family="sans-serif" font-size="13" lengthAdjust="spacing" textLength="133.4976" x="258" y="361.4043">- nonce: Block nonce</text><text fill="#333333" font-family="sans-serif" font-size="13" lengthAdjust="spacing" textLength="127.7847" x="258" y="376.7148">- bits: Difficulty bits</text><text fill="#333333" font-family="sans-serif" font-size="13" lengthAdjust="spacing" textLength="161.0591" x="258" y="392.0254">- difficulty: PoW difficulty</text><text fill="#333333" font-family="sans-serif" font-size="13" lengthAdjust="spacing" textLength="263.1611" x="258" y="407.3359">- previousblockhash: Previous block hash</text><text fill="#333333" font-family="sans-serif" font-size="13" lengthAdjust="spacing" textLength="214.1636" x="258" y="422.6465">- nextblockhash: Next block hash</text><line style="stroke:#000000;stroke-width:1.0;stroke-dasharray:2.0,2.0;" x1="10" x2="554.2036" y1="436.3887" y2="436.3887"/><text fill="#333333" font-family="sans-serif" font-size="11" font-weight="bold" lengthAdjust="spacing" textLength="121.3223" x="15" y="447.0234">[invalid or not found]</text><polygon fill="#666666" points="57.7524,467.6543,47.7524,471.6543,57.7524,475.6543,53.7524,471.6543" style="stroke:#666666;stroke-width:1.0;"/><line style="stroke:#666666;stroke-width:1.0;" x1="51.7524" x2="236.4272" y1="471.6543" y2="471.6543"/><text fill="#333333" font-family="sans-serif" font-size="13" lengthAdjust="spacing" textLength="138.9185" x="63.7524" y="466.9121">Error: Block not found</text><text fill="#333333" font-family="sans-serif" font-size="10" lengthAdjust="spacing" textLength="155.4346" x="0" y="537.8105">Last Modified On: 24-Feb-2025</text><!--SRC=[fLHDZzCm4BtxLuoA4Ar493uaX2B1OLiA1xfKknASdNYoiUhOnNQxBOZ_pjXniavPSG0V8izxRvvdd4dSJkezjxo3YjUxEsiEMYoDCXQUh5-itwxNp8qAWGq_AByssYV9wxWo2RVMt2VoJLoCFOCLDb8ZLCOAj0uQOhbIW0exrDvb-HHAVuQV3E0gggTUX5vMkOgB_MAPIqqLMgF-ruQUNjPopxN_Dol6SekbajJU19hTR9TmY_Q8TWRS0OLJ_agPUbUtNEgK7cKFA6Cz3CNxa0mbtE3t0pfVmaVqKJTlkMiNZDTU7hd7U0OBsZ6bvLee_AkUAmz7hgI0m5BN0CaYg_2FCuDizCcA3dYMLuoLH104zpng13wMdP-UkWzjkxtH3k5U-ZRvh0OVRSZ1ohlMzxc3jf6eX8CvNNzb70tUkvVFNotAA2fYfqD9OzT56Av6sevxIHubN1-w2YsOPaeaiPC_SF08Uw1sgxF7WMynL3MUWcED1L1HZfm6BeLJyXEUIlZQxuDrYwSawD3k55fZo7mJzn22l14lkx6si4-mDheUyHWaefAU-bt9ff4r_GRE4KYS6D4IjkPR5YV1tk9HceEhWcr_izi4GNLvnHfFFXDUKtWfGYtYQsMeNBZLVZZfyoEGVZ3qDJuw9X_e_sGVcXkavCPODcrnvXKsWQT3B7pcpiF6K5iI1NoXj_AKfXJdCo6ApMPJd6dD5kmt]--></g></svg>
