<svg xmlns="http://www.w3.org/2000/svg" xmlns:xlink="http://www.w3.org/1999/xlink" contentStyleType="text/css" height="627px" preserveAspectRatio="none" style="width:722px;height:627px;background:#FFFFFF;" version="1.1" viewBox="0 0 722 627" width="722px" zoomAndPan="magnify"><defs/><g><rect fill="#FFFFFF" height="498.8105" style="stroke:#181818;stroke-width:1.0;" width="10" x="271.8252" y="67.7988"/><rect fill="#FFFFFF" height="163.8184" style="stroke:#181818;stroke-width:1.0;" width="10" x="481.2891" y="97.1094"/><rect fill="#FFFFFF" height="127.1973" style="stroke:#181818;stroke-width:1.0;" width="10" x="625.1504" y="290.2383"/><rect fill="none" height="447.5" style="stroke:#000000;stroke-width:1.5;" width="705.3071" x="10" y="112.1094"/><rect fill="none" height="247.3711" style="stroke:#000000;stroke-width:1.5;" width="685.3071" x="20" y="305.2383"/><line style="stroke:#181818;stroke-width:0.5;stroke-dasharray:5.0,5.0;" x1="56" x2="56" y1="36.4883" y2="576.6094"/><line style="stroke:#181818;stroke-width:0.5;stroke-dasharray:5.0,5.0;" x1="276.5503" x2="276.5503" y1="36.4883" y2="576.6094"/><line style="stroke:#181818;stroke-width:0.5;stroke-dasharray:5.0,5.0;" x1="485.5845" x2="485.5845" y1="36.4883" y2="576.6094"/><line style="stroke:#181818;stroke-width:0.5;stroke-dasharray:5.0,5.0;" x1="629.9937" x2="629.9937" y1="36.4883" y2="576.6094"/><rect fill="#E2E2F0" height="30.4883" rx="2.5" ry="2.5" style="stroke:#181818;stroke-width:0.5;" width="53.5049" x="30" y="5"/><text fill="#000000" font-family="sans-serif" font-size="14" lengthAdjust="spacing" textLength="39.5049" x="37" y="25.5352">Client</text><rect fill="#E2E2F0" height="30.4883" rx="2.5" ry="2.5" style="stroke:#181818;stroke-width:0.5;" width="53.5049" x="30" y="575.6094"/><text fill="#000000" font-family="sans-serif" font-size="14" lengthAdjust="spacing" textLength="39.5049" x="37" y="596.1445">Client</text><rect fill="#E2E2F0" height="30.4883" rx="2.5" ry="2.5" style="stroke:#181818;stroke-width:0.5;" width="86.5498" x="233.5503" y="5"/><text fill="#000000" font-family="sans-serif" font-size="14" lengthAdjust="spacing" textLength="72.5498" x="240.5503" y="25.5352">RPC Server</text><rect fill="#E2E2F0" height="30.4883" rx="2.5" ry="2.5" style="stroke:#181818;stroke-width:0.5;" width="86.5498" x="233.5503" y="575.6094"/><text fill="#000000" font-family="sans-serif" font-size="14" lengthAdjust="spacing" textLength="72.5498" x="240.5503" y="596.1445">RPC Server</text><rect fill="#E2E2F0" height="30.4883" rx="2.5" ry="2.5" style="stroke:#181818;stroke-width:0.5;" width="137.4092" x="417.5845" y="5"/><text fill="#000000" font-family="sans-serif" font-size="14" lengthAdjust="spacing" textLength="123.4092" x="424.5845" y="25.5352">Chain Hash Parser</text><rect fill="#E2E2F0" height="30.4883" rx="2.5" ry="2.5" style="stroke:#181818;stroke-width:0.5;" width="137.4092" x="417.5845" y="575.6094"/><text fill="#000000" font-family="sans-serif" font-size="14" lengthAdjust="spacing" textLength="123.4092" x="424.5845" y="596.1445">Chain Hash Parser</text><rect fill="#E2E2F0" height="30.4883" rx="2.5" ry="2.5" style="stroke:#181818;stroke-width:0.5;" width="130.3135" x="564.9937" y="5"/><text fill="#000000" font-family="sans-serif" font-size="14" lengthAdjust="spacing" textLength="116.3135" x="571.9937" y="25.5352">Blockchain Client</text><rect fill="#E2E2F0" height="30.4883" rx="2.5" ry="2.5" style="stroke:#181818;stroke-width:0.5;" width="130.3135" x="564.9937" y="575.6094"/><text fill="#000000" font-family="sans-serif" font-size="14" lengthAdjust="spacing" textLength="116.3135" x="571.9937" y="596.1445">Blockchain Client</text><rect fill="#FFFFFF" height="498.8105" style="stroke:#181818;stroke-width:1.0;" width="10" x="271.8252" y="67.7988"/><rect fill="#FFFFFF" height="163.8184" style="stroke:#181818;stroke-width:1.0;" width="10" x="481.2891" y="97.1094"/><rect fill="#FFFFFF" height="127.1973" style="stroke:#181818;stroke-width:1.0;" width="10" x="625.1504" y="290.2383"/><polygon fill="#181818" points="259.8252,63.7988,269.8252,67.7988,259.8252,71.7988,263.8252,67.7988" style="stroke:#181818;stroke-width:1.0;"/><line style="stroke:#181818;stroke-width:1.0;" x1="56.7524" x2="265.8252" y1="67.7988" y2="67.7988"/><text fill="#000000" font-family="sans-serif" font-size="13" lengthAdjust="spacing" textLength="196.0728" x="63.7524" y="63.0566">InvalidateBlockCmd(blockhash)</text><polygon fill="#181818" points="469.2891,93.1094,479.2891,97.1094,469.2891,101.1094,473.2891,97.1094" style="stroke:#181818;stroke-width:1.0;"/><line style="stroke:#181818;stroke-width:1.0;" x1="281.8252" x2="475.2891" y1="97.1094" y2="97.1094"/><text fill="#000000" font-family="sans-serif" font-size="13" lengthAdjust="spacing" textLength="180.4639" x="288.8252" y="92.3672">NewHashFromStr(blockhash)</text><path d="M10,112.1094 L72.1387,112.1094 L72.1387,119.4199 L62.1387,129.4199 L10,129.4199 L10,112.1094 " fill="#EEEEEE" style="stroke:#000000;stroke-width:1.5;"/><rect fill="none" height="447.5" style="stroke:#000000;stroke-width:1.5;" width="705.3071" x="10" y="112.1094"/><text fill="#000000" font-family="sans-serif" font-size="13" font-weight="bold" lengthAdjust="spacing" textLength="17.1387" x="25" y="125.6777">alt</text><text fill="#000000" font-family="sans-serif" font-size="11" font-weight="bold" lengthAdjust="spacing" textLength="122.1387" x="87.1387" y="124.7441">[Invalid Hash Format]</text><polygon fill="#181818" points="292.8252,146.7305,282.8252,150.7305,292.8252,154.7305,288.8252,150.7305" style="stroke:#181818;stroke-width:1.0;"/><line style="stroke:#181818;stroke-width:1.0;stroke-dasharray:2.0,2.0;" x1="286.8252" x2="480.2891" y1="150.7305" y2="150.7305"/><text fill="#000000" font-family="sans-serif" font-size="13" lengthAdjust="spacing" textLength="77.0796" x="298.8252" y="145.9883">Return error</text><polygon fill="#181818" points="67.7524,194.3516,57.7524,198.3516,67.7524,202.3516,63.7524,198.3516" style="stroke:#181818;stroke-width:1.0;"/><line style="stroke:#181818;stroke-width:1.0;" x1="61.7524" x2="270.8252" y1="198.3516" y2="198.3516"/><text fill="#000000" font-family="sans-serif" font-size="13" lengthAdjust="spacing" textLength="168.8604" x="73.7524" y="193.6094">Return rpcDecodeHexError</text><path d="M286,163.7305 L286,218.7305 L633,218.7305 L633,173.7305 L623,163.7305 L286,163.7305 " fill="#FEFFDD" style="stroke:#181818;stroke-width:0.5;"/><path d="M623,163.7305 L623,173.7305 L633,173.7305 L623,163.7305 " fill="#FEFFDD" style="stroke:#181818;stroke-width:0.5;"/><text fill="#000000" font-family="sans-serif" font-size="13" lengthAdjust="spacing" textLength="96.5098" x="292" y="181.2988">Error response:</text><text fill="#000000" font-family="sans-serif" font-size="13" lengthAdjust="spacing" textLength="203.2837" x="292" y="196.6094">- Code: ErrRPCDecodeHexString</text><text fill="#000000" font-family="sans-serif" font-size="13" lengthAdjust="spacing" textLength="326.2568" x="292" y="211.9199">- Message: "Argument must be hexadecimal string"</text><line style="stroke:#000000;stroke-width:1.0;stroke-dasharray:2.0,2.0;" x1="10" x2="715.3071" y1="225.6621" y2="225.6621"/><text fill="#000000" font-family="sans-serif" font-size="11" font-weight="bold" lengthAdjust="spacing" textLength="68.8682" x="15" y="236.2969">[Valid Hash]</text><polygon fill="#181818" points="292.8252,256.9277,282.8252,260.9277,292.8252,264.9277,288.8252,260.9277" style="stroke:#181818;stroke-width:1.0;"/><line style="stroke:#181818;stroke-width:1.0;stroke-dasharray:2.0,2.0;" x1="286.8252" x2="485.2891" y1="260.9277" y2="260.9277"/><text fill="#000000" font-family="sans-serif" font-size="13" lengthAdjust="spacing" textLength="122.6812" x="298.8252" y="256.1855">Return parsed hash</text><polygon fill="#181818" points="613.1504,286.2383,623.1504,290.2383,613.1504,294.2383,617.1504,290.2383" style="stroke:#181818;stroke-width:1.0;"/><line style="stroke:#181818;stroke-width:1.0;" x1="281.8252" x2="619.1504" y1="290.2383" y2="290.2383"/><text fill="#000000" font-family="sans-serif" font-size="13" lengthAdjust="spacing" textLength="160.2974" x="288.8252" y="285.4961">InvalidateBlock(ctx, hash)</text><path d="M20,305.2383 L82.1387,305.2383 L82.1387,312.5488 L72.1387,322.5488 L20,322.5488 L20,305.2383 " fill="#EEEEEE" style="stroke:#000000;stroke-width:1.5;"/><rect fill="none" height="247.3711" style="stroke:#000000;stroke-width:1.5;" width="685.3071" x="20" y="305.2383"/><text fill="#000000" font-family="sans-serif" font-size="13" font-weight="bold" lengthAdjust="spacing" textLength="17.1387" x="35" y="318.8066">alt</text><text fill="#000000" font-family="sans-serif" font-size="11" font-weight="bold" lengthAdjust="spacing" textLength="104.9941" x="97.1387" y="317.873">[Invalidation Fails]</text><polygon fill="#181818" points="292.8252,339.8594,282.8252,343.8594,292.8252,347.8594,288.8252,343.8594" style="stroke:#181818;stroke-width:1.0;"/><line style="stroke:#181818;stroke-width:1.0;stroke-dasharray:2.0,2.0;" x1="286.8252" x2="624.1504" y1="343.8594" y2="343.8594"/><text fill="#000000" font-family="sans-serif" font-size="13" lengthAdjust="spacing" textLength="77.0796" x="298.8252" y="339.1172">Return error</text><polygon fill="#181818" points="67.7524,369.1699,57.7524,373.1699,67.7524,377.1699,63.7524,373.1699" style="stroke:#181818;stroke-width:1.0;"/><line style="stroke:#181818;stroke-width:1.0;" x1="61.7524" x2="270.8252" y1="373.1699" y2="373.1699"/><text fill="#000000" font-family="sans-serif" font-size="13" lengthAdjust="spacing" textLength="77.0796" x="73.7524" y="368.4277">Return error</text><line style="stroke:#000000;stroke-width:1.0;stroke-dasharray:2.0,2.0;" x1="20" x2="705.3071" y1="382.1699" y2="382.1699"/><text fill="#000000" font-family="sans-serif" font-size="11" font-weight="bold" lengthAdjust="spacing" textLength="130.4531" x="25" y="392.8047">[Invalidation Succeeds]</text><polygon fill="#181818" points="292.8252,413.4355,282.8252,417.4355,292.8252,421.4355,288.8252,417.4355" style="stroke:#181818;stroke-width:1.0;"/><line style="stroke:#181818;stroke-width:1.0;stroke-dasharray:2.0,2.0;" x1="286.8252" x2="629.1504" y1="417.4355" y2="417.4355"/><text fill="#000000" font-family="sans-serif" font-size="13" lengthAdjust="spacing" textLength="61.4771" x="298.8252" y="412.6934">Return nil</text><polygon fill="#181818" points="67.7524,491.6777,57.7524,495.6777,67.7524,499.6777,63.7524,495.6777" style="stroke:#181818;stroke-width:1.0;"/><line style="stroke:#181818;stroke-width:1.0;" x1="61.7524" x2="270.8252" y1="495.6777" y2="495.6777"/><text fill="#000000" font-family="sans-serif" font-size="13" lengthAdjust="spacing" textLength="61.4771" x="73.7524" y="490.9355">Return nil</text><path d="M286,430.4355 L286,547.4355 L559,547.4355 L559,440.4355 L549,430.4355 L286,430.4355 " fill="#FEFFDD" style="stroke:#181818;stroke-width:0.5;"/><path d="M549,430.4355 L549,440.4355 L559,440.4355 L549,430.4355 " fill="#FEFFDD" style="stroke:#181818;stroke-width:0.5;"/><text fill="#000000" font-family="sans-serif" font-size="13" lengthAdjust="spacing" textLength="102.7686" x="292" y="448.0039">Response fields:</text><text fill="#000000" font-family="sans-serif" font-size="13" lengthAdjust="spacing" textLength="152.5278" x="292" y="463.3145">- Returns nil on success</text><text fill="#000000" font-family="sans-serif" font-size="13" lengthAdjust="spacing" textLength="4.1133" x="292" y="478.625">&#160;</text><text fill="#000000" font-family="sans-serif" font-size="13" lengthAdjust="spacing" textLength="46.1094" x="292" y="493.9355">Effects:</text><text fill="#000000" font-family="sans-serif" font-size="13" lengthAdjust="spacing" textLength="174.8462" x="292" y="509.2461">- Block is marked as invalid</text><text fill="#000000" font-family="sans-serif" font-size="13" lengthAdjust="spacing" textLength="252.1416" x="292" y="524.5566">- All descendant blocks also invalidated</text><text fill="#000000" font-family="sans-serif" font-size="13" lengthAdjust="spacing" textLength="149.7095" x="292" y="539.8672">- Chain may reorganize</text><text fill="#888888" font-family="sans-serif" font-size="10" lengthAdjust="spacing" textLength="153.0469" x="0" y="617.7656">Last Modified On: 30-Jan-2025</text><!--SRC=[ZLHjQzim4FxkNt4O1YdCVy0V2ftNqC7SbGRsNPNEjgWi6Kd9qltwdIH7iPCI9WXOTyzppxqf4xDUSZanxQ5H4hKlfeMfV7rfO8VsWBO4ve2kQtypCAdXYRa1NfXrConzhf7VbE7lFCAJK4IUhKMHp53T1nceuOS-C2K5ynXHpIWsR-5Z8BMxWd4l3-IBEHM1GSGaJDnd_1EIsbepxhpzb3SdMJ3bJrAfaAsn8_C5q9dZLJcdL_Hxgm6jDJOYPk4vzmom4_-Et0XymkDZ1cj3kbRsGueUJdI2HJSPxR3EzWeQOjV1Jn8v5XKZTRz0jUWSwmbOFjX-FuOanhtpy8Omu949v79a2bpabP68MiHC2bGEuNSk_6R5Kx0B64uuWLUDNBHZCUohEMwuFtw5D8n0oN4Mkn3ioNaU3lFIQDWogLokVw5pOqOtvdG6nMQif7PxpX75_wbfgJ9kqPkBcd9TDr9QHlfaOI9pNXVe92hXwfMpcWEv40ce3XVgS6u5MbqUkmwvlmeJSmVfO6JsdMPFprMc_bm07vIYcXsdnGfFFJusHwDpvaIWLboIqZ_7o3ve-OtjcPP_CKFoYiwN8loAHL_ZerVOUUWCuIpyPBJqhH6IMYBWbwxXIr3Tb49KRTjM7tJAkty0]--></g></svg>
