<svg contentStyleType="text/css" height="1058" preserveAspectRatio="none" viewBox="0 0 1085 1058" width="1085" xmlns="http://www.w3.org/2000/svg" zoomAndPan="magnify"><path d="m0 0h1085v1058h-1085z" fill="#f0f8ff"/><g fill="#fff"><path d="m265.6587 77.4883h10v326.416h-10z" stroke="#181818"/><path d="m265.6587 476.5254h10v103.2422h-10z" stroke="#181818"/><path d="m265.6587 652.3887h10v161.5527h-10z" stroke="#181818"/><path d="m265.6587 886.5625h10v71.6211h-10z" stroke="#181818"/><path d="m542.8584 199.7305h10v29.3105h-10z" stroke="#181818"/><path d="m644.5479 315.9727h10v29.3105h-10z" stroke="#181818"/><path d="m769.1216 374.5938h10v29.3105h-10z" stroke="#181818"/><path d="m1011.2383 521.1465h10v29.3105h-10z" stroke="#181818"/><path d="m1011.2383 748.3203h10v29.3105h-10z" stroke="#181818"/></g><path d="m232.7373 709.6992h836.2324v75.9316h-836.2324z" fill="none" stroke="#000" stroke-width="1.5"/><path d="m31 67.4883v908.6953" stroke="#181818" stroke-dasharray="5 5" stroke-width=".5"/><path d="m269.7373 67.4883v908.6953" stroke="#181818" stroke-dasharray="5 5" stroke-width=".5"/><path d="m547.4092 67.4883v908.6953" stroke="#181818" stroke-dasharray="5 5" stroke-width=".5"/><path d="m649.3076 67.4883v908.6953" stroke="#181818" stroke-dasharray="5 5" stroke-width=".5"/><path d="m773.7881 67.4883v908.6953" stroke="#181818" stroke-dasharray="5 5" stroke-width=".5"/><path d="m897.4551 67.4883v908.6953" stroke="#181818" stroke-dasharray="5 5" stroke-width=".5"/><path d="m1015.5068 67.4883v908.6953" stroke="#181818" stroke-dasharray="5 5" stroke-width=".5"/><rect fill="#ddd" height="30.4883" rx="2.5" stroke="#666" stroke-width=".5" width="53.5049" x="5" y="36"/><text fill="#333" font-family="sans-serif" font-size="14" lengthAdjust="spacing" textLength="39.5049" x="12" y="56.5352">Client</text><rect fill="#ddd" height="30.4883" rx="2.5" stroke="#666" stroke-width=".5" width="53.5049" x="5" y="975.1836"/><text fill="#333" font-family="sans-serif" font-size="14" lengthAdjust="spacing" textLength="39.5049" x="12" y="995.7188">Client</text><rect fill="#ddd" height="30.4883" rx="2.5" stroke="#666" stroke-width=".5" width="55.8428" x="242.7373" y="36"/><text fill="#333" font-family="sans-serif" font-size="14" lengthAdjust="spacing" textLength="41.8428" x="249.7373" y="56.5352">Server</text><rect fill="#ddd" height="30.4883" rx="2.5" stroke="#666" stroke-width=".5" width="55.8428" x="242.7373" y="975.1836"/><text fill="#333" font-family="sans-serif" font-size="14" lengthAdjust="spacing" textLength="41.8428" x="249.7373" y="995.7188">Server</text><text fill="#333" font-family="sans-serif" font-size="14" lengthAdjust="spacing" textLength="44.8984" x="522.4092" y="64.5352">Config</text><path d="m529.8584 15c0-10 18-10 18-10s18 0 18 10v26c0 10-18 10-18 10s-18 0-18-10z" fill="#e2e2f0" stroke="#181818" stroke-width="1.5"/><path d="m529.8584 15c0 10 18 10 18 10s18 0 18-10" fill="none" stroke="#181818" stroke-width="1.5"/><text fill="#333" font-family="sans-serif" font-size="14" lengthAdjust="spacing" textLength="44.8984" x="522.4092" y="988.7188">Config</text><path d="m529.8584 1001.6719c0-10 18-10 18-10s18 0 18 10v26c0 10-18 10-18 10s-18 0-18-10z" fill="#e2e2f0" stroke="#181818" stroke-width="1.5"/><path d="m529.8584 1001.6719c0 10 18 10 18 10s18 0 18-10" fill="none" stroke="#181818" stroke-width="1.5"/><rect fill="#ddd" height="30.4883" rx="2.5" stroke="#666" stroke-width=".5" width="132.4805" x="583.3076" y="36"/><text fill="#333" font-family="sans-serif" font-size="14" lengthAdjust="spacing" textLength="118.4805" x="590.3076" y="56.5352">Echo HTTP Server</text><rect fill="#ddd" height="30.4883" rx="2.5" stroke="#666" stroke-width=".5" width="132.4805" x="583.3076" y="975.1836"/><text fill="#333" font-family="sans-serif" font-size="14" lengthAdjust="spacing" textLength="118.4805" x="590.3076" y="995.7188">Echo HTTP Server</text><rect fill="#ddd" height="30.4883" rx="2.5" stroke="#666" stroke-width=".5" width="96.667" x="725.7881" y="36"/><text fill="#333" font-family="sans-serif" font-size="14" lengthAdjust="spacing" textLength="82.667" x="732.7881" y="56.5352">GRPC Server</text><rect fill="#ddd" height="30.4883" rx="2.5" stroke="#666" stroke-width=".5" width="96.667" x="725.7881" y="975.1836"/><text fill="#333" font-family="sans-serif" font-size="14" lengthAdjust="spacing" textLength="82.667" x="732.7881" y="995.7188">GRPC Server</text><rect fill="#ddd" height="30.4883" rx="2.5" stroke="#666" stroke-width=".5" width="131.0518" x="832.4551" y="36"/><text fill="#333" font-family="sans-serif" font-size="14" lengthAdjust="spacing" textLength="117.0518" x="839.4551" y="56.5352">WebSocket Client</text><rect fill="#ddd" height="30.4883" rx="2.5" stroke="#666" stroke-width=".5" width="131.0518" x="832.4551" y="975.1836"/><text fill="#333" font-family="sans-serif" font-size="14" lengthAdjust="spacing" textLength="117.0518" x="839.4551" y="995.7188">WebSocket Client</text><rect fill="#ddd" height="30.4883" rx="2.5" stroke="#666" stroke-width=".5" width="85.4629" x="973.5068" y="36"/><text fill="#333" font-family="sans-serif" font-size="14" lengthAdjust="spacing" textLength="71.4629" x="980.5068" y="56.5352">Subscriber</text><rect fill="#ddd" height="30.4883" rx="2.5" stroke="#666" stroke-width=".5" width="85.4629" x="973.5068" y="975.1836"/><text fill="#333" font-family="sans-serif" font-size="14" lengthAdjust="spacing" textLength="71.4629" x="980.5068" y="995.7188">Subscriber</text><path d="m265.6587 77.4883h10v326.416h-10z" fill="#fff" stroke="#181818"/><path d="m265.6587 476.5254h10v103.2422h-10z" fill="#fff" stroke="#181818"/><path d="m265.6587 652.3887h10v161.5527h-10z" fill="#fff" stroke="#181818"/><path d="m265.6587 886.5625h10v71.6211h-10z" fill="#fff" stroke="#181818"/><path d="m542.8584 199.7305h10v29.3105h-10z" fill="#fff" stroke="#181818"/><path d="m644.5479 315.9727h10v29.3105h-10z" fill="#fff" stroke="#181818"/><path d="m769.1216 374.5938h10v29.3105h-10z" fill="#fff" stroke="#181818"/><path d="m1011.2383 521.1465h10v29.3105h-10z" fill="#fff" stroke="#181818"/><path d="m1011.2383 748.3203h10v29.3105h-10z" fill="#fff" stroke="#181818"/><path d="m0 98.1436h1078.9697v3h-1078.9697z" fill="#eee" stroke="#eee"/><path d="m0 98.1436h1078.9697" stroke="#000"/><path d="m0 101.1436h1078.9697" stroke="#000"/><path d="m488.1782 87.4883h102.6133v23.3105h-102.6133z" fill="#eee" stroke="#000" stroke-width="2"/><text fill="#333" font-family="sans-serif" font-size="13" font-weight="bold" lengthAdjust="spacing" textLength="84.3286" x="494.1782" y="104.0566">Initialization</text><path d="m275.6587 142.1094h42" stroke="#666"/><path d="m317.6587 142.1094v13" stroke="#666"/><path d="m276.6587 155.1094h41" stroke="#666"/><path d="m286.6587 151.1094-10 4 10 4-4-4z" fill="#666" stroke="#666"/><text fill="#333" font-family="sans-serif" font-size="13" lengthAdjust="spacing" textLength="28.8882" x="282.6587" y="137.3672">Init()</text><path d="m530.8584 195.7305 10 4-10 4 4-4z" fill="#666" stroke="#666"/><path d="m275.6587 199.7305h261.1997" stroke="#666"/><text fill="#333" font-family="sans-serif" font-size="13" lengthAdjust="spacing" textLength="76.6289" x="282.6587" y="179.6777">Read Config</text><text fill="#333" font-family="sans-serif" font-size="13" lengthAdjust="spacing" textLength="248.1997" x="282.6587" y="194.9883">(grpcListenAddress, httpListenAddress)</text><path d="m286.6587 225.041-10 4 10 4-4-4z" fill="#666" stroke="#666"/><path d="m280.6587 229.041h266.1997" stroke="#666" stroke-dasharray="2 2"/><text fill="#333" font-family="sans-serif" font-size="13" lengthAdjust="spacing" textLength="74.7627" x="292.6587" y="224.2988">Config Data</text><path d="m275.6587 258.3516h42" stroke="#666"/><path d="m317.6587 258.3516v13" stroke="#666"/><path d="m276.6587 271.3516h41" stroke="#666"/><path d="m286.6587 267.3516-10 4 10 4-4-4z" fill="#666" stroke="#666"/><text fill="#333" font-family="sans-serif" font-size="13" lengthAdjust="spacing" textLength="155.8096" x="282.6587" y="253.6094">Setup Discovery Channel</text><path d="m632.5479 311.9727 10 4-10 4 4-4z" fill="#666" stroke="#666"/><path d="m275.6587 315.9727h362.8892" stroke="#666"/><text fill="#333" font-family="sans-serif" font-size="13" lengthAdjust="spacing" textLength="112.1948" x="282.6587" y="295.9199">Setup Echo Server</text><text fill="#333" font-family="sans-serif" font-size="13" lengthAdjust="spacing" textLength="155.5239" x="282.6587" y="311.2305">(HTTP/HTTPS Endpoints)</text><path d="m286.6587 341.2832-10 4 10 4-4-4z" fill="#666" stroke="#666"/><path d="m280.6587 345.2832h367.8892" stroke="#666" stroke-dasharray="2 2"/><text fill="#333" font-family="sans-serif" font-size="13" lengthAdjust="spacing" textLength="114.4546" x="292.6587" y="340.541">Echo Server Ready</text><path d="m757.1216 370.5938 10 4-10 4 4-4z" fill="#666" stroke="#666"/><path d="m275.6587 374.5938h487.4629" stroke="#666"/><text fill="#333" font-family="sans-serif" font-size="13" lengthAdjust="spacing" textLength="116.2319" x="282.6587" y="369.8516">Setup GRPC Server</text><path d="m281.6587 399.9043-10 4 10 4-4-4z" fill="#666" stroke="#666"/><path d="m275.6587 403.9043h497.4629" stroke="#666" stroke-dasharray="2 2"/><text fill="#333" font-family="sans-serif" font-size="13" lengthAdjust="spacing" textLength="118.4917" x="287.6587" y="399.1621">GRPC Server Ready</text><path d="m0 432.5596h1078.9697v3h-1078.9697z" fill="#eee" stroke="#eee"/><path d="m0 432.5596h1078.9697" stroke="#000"/><path d="m0 435.5596h1078.9697" stroke="#000"/><path d="m460.1914 421.9043h158.5869v23.3105h-158.5869z" fill="#eee" stroke="#000" stroke-width="2"/><text fill="#333" font-family="sans-serif" font-size="13" font-weight="bold" lengthAdjust="spacing" textLength="140.3022" x="466.1914" y="438.4727">Connection Handling</text><path d="m253.6587 472.5254 10 4-10 4 4-4z" fill="#666" stroke="#666"/><path d="m31.7524 476.5254h227.9063" stroke="#666"/><text fill="#333" font-family="sans-serif" font-size="13" lengthAdjust="spacing" textLength="84.9253" x="38.7524" y="471.7832">Connect(info)</text><path d="m999.2383 517.1465 10 4-10 4 4-4z" fill="#666" stroke="#666"/><path d="m275.6587 521.1465h729.5796" stroke="#666"/><text fill="#333" font-family="sans-serif" font-size="13" lengthAdjust="spacing" textLength="126.7817" x="282.6587" y="501.0938">Add New Subscriber</text><text fill="#333" font-family="sans-serif" font-size="13" lengthAdjust="spacing" textLength="33.0459" x="282.6587" y="516.4043">(info)</text><path d="m286.6587 546.457-10 4 10 4-4-4z" fill="#666" stroke="#666"/><path d="m280.6587 550.457h734.5796" stroke="#666" stroke-dasharray="2 2"/><text fill="#333" font-family="sans-serif" font-size="13" lengthAdjust="spacing" textLength="111.23" x="292.6587" y="545.7148">Subscriber Added</text><path d="m42.7524 575.7676-10 4 10 4-4-4z" fill="#666" stroke="#666"/><path d="m36.7524 579.7676h232.9063" stroke="#666" stroke-dasharray="2 2"/><text fill="#333" font-family="sans-serif" font-size="13" lengthAdjust="spacing" textLength="67.3042" x="48.7524" y="575.0254">Connected</text><path d="m0 608.4229h1078.9697v3h-1078.9697z" fill="#eee" stroke="#eee"/><path d="m0 608.4229h1078.9697" stroke="#000"/><path d="m0 611.4229h1078.9697" stroke="#000"/><path d="m456.1289 597.7676h166.7119v23.3105h-166.7119z" fill="#eee" stroke="#000" stroke-width="2"/><text fill="#333" font-family="sans-serif" font-size="13" font-weight="bold" lengthAdjust="spacing" textLength="148.4272" x="462.1289" y="614.3359">Broadcast Notification</text><path d="m253.6587 648.3887 10 4-10 4 4-4z" fill="#666" stroke="#666"/><path d="m31.7524 652.3887h227.9063" stroke="#666"/><text fill="#333" font-family="sans-serif" font-size="13" lengthAdjust="spacing" textLength="214.9063" x="38.7524" y="647.6465">BroadcastNotification(notification)</text><path d="m275.6587 681.6992h42" stroke="#666"/><path d="m317.6587 681.6992v13" stroke="#666"/><path d="m276.6587 694.6992h41" stroke="#666"/><path d="m286.6587 690.6992-10 4 10 4-4-4z" fill="#666" stroke="#666"/><text fill="#333" font-family="sans-serif" font-size="13" lengthAdjust="spacing" textLength="115.6606" x="282.6587" y="676.957">Check Subscribers</text><path d="m232.7373 709.6992h74.4468v7.3106l-10 10h-64.4468z" fill="#eee" stroke="#000" stroke-width="1.5"/><path d="m232.7373 709.6992h836.2324v75.9316h-836.2324z" fill="none" stroke="#000" stroke-width="1.5"/><text fill="#333" font-family="sans-serif" font-size="13" font-weight="bold" lengthAdjust="spacing" textLength="29.4468" x="247.7373" y="723.2676">loop</text><text fill="#333" font-family="sans-serif" font-size="11" font-weight="bold" lengthAdjust="spacing" textLength="118.1641" x="322.1841" y="722.334">[for each Subscriber]</text><path d="m999.2383 744.3203 10 4-10 4 4-4z" fill="#666" stroke="#666"/><path d="m275.6587 748.3203h729.5796" stroke="#666"/><text fill="#333" font-family="sans-serif" font-size="13" lengthAdjust="spacing" textLength="107.8657" x="282.6587" y="743.5781">Send Notification</text><path d="m286.6587 773.6309-10 4 10 4-4-4z" fill="#666" stroke="#666"/><path d="m280.6587 777.6309h734.5796" stroke="#666" stroke-dasharray="2 2"/><text fill="#333" font-family="sans-serif" font-size="13" lengthAdjust="spacing" textLength="108.894" x="292.6587" y="772.8887">Acknowledgment</text><path d="m42.7524 809.9414-10 4 10 4-4-4z" fill="#666" stroke="#666"/><path d="m36.7524 813.9414h232.9063" stroke="#666" stroke-dasharray="2 2"/><text fill="#333" font-family="sans-serif" font-size="13" lengthAdjust="spacing" textLength="111.1729" x="48.7524" y="809.1992">Notifications Sent</text><path d="m0 842.5967h1078.9697v3h-1078.9697z" fill="#eee" stroke="#eee"/><path d="m0 842.5967h1078.9697" stroke="#000"/><path d="m0 845.5967h1078.9697" stroke="#000"/><path d="m495.9731 831.9414h87.0234v23.3105h-87.0234z" fill="#eee" stroke="#000" stroke-width="2"/><text fill="#333" font-family="sans-serif" font-size="13" font-weight="bold" lengthAdjust="spacing" textLength="68.7388" x="501.9731" y="848.5098">Get Nodes</text><path d="m253.6587 882.5625 10 4-10 4 4-4z" fill="#666" stroke="#666"/><path d="m31.7524 886.5625h227.9063" stroke="#666"/><text fill="#333" font-family="sans-serif" font-size="13" lengthAdjust="spacing" textLength="69.5957" x="38.7524" y="881.8203">GetNodes()</text><path d="m275.6587 915.873h42" stroke="#666"/><path d="m317.6587 915.873v13" stroke="#666"/><path d="m276.6587 928.873h41" stroke="#666"/><path d="m286.6587 924.873-10 4 10 4-4-4z" fill="#666" stroke="#666"/><text fill="#333" font-family="sans-serif" font-size="13" lengthAdjust="spacing" textLength="165.0137" x="282.6587" y="911.1309">Collect Nodes Information</text><path d="m42.7524 954.1836-10 4 10 4-4-4z" fill="#666" stroke="#666"/><path d="m36.7524 958.1836h232.9063" stroke="#666" stroke-dasharray="2 2"/><text fill="#333" font-family="sans-serif" font-size="13" lengthAdjust="spacing" textLength="55.1929" x="48.7524" y="953.4414">NodeList</text><text fill="#333" font-family="sans-serif" font-size="10" lengthAdjust="spacing" textLength="155.4346" y="1048.3398">Last Modified On: 24-Feb-2025</text></svg>
