<svg contentStyleType="text/css" height="407" preserveAspectRatio="none" viewBox="0 0 529 407" width="529" xmlns="http://www.w3.org/2000/svg" zoomAndPan="magnify"><path d="m0 0h529v407h-529z" fill="#f0f8ff"/><path d="m290.918 142.1094h10v173.5078h-10z" fill="#fff" stroke="#181818"/><path d="m425.3857 195.7305h10v112.8867h-10z" fill="#fff" stroke="#181818"/><path d="m10 157.1094h502.8354v151.5078h-502.8354z" fill="none" stroke="#000" stroke-width="1.5"/><path d="m20 210.7305h482.8354v90.8867h-482.8354z" fill="none" stroke="#000" stroke-width="1.5"/><g stroke-width=".5"><path d="m57 67.4883v258.1289" stroke="#181818" stroke-dasharray="5 5"/><path d="m295.8999 67.4883v258.1289" stroke="#181818" stroke-dasharray="5 5"/><path d="m429.936 67.4883v258.1289" stroke="#181818" stroke-dasharray="5 5"/><rect fill="#ddd" height="30.4883" rx="2.5" stroke="#666" width="55.8428" x="30" y="36"/></g><text fill="#333" font-family="sans-serif" font-size="14" lengthAdjust="spacing" textLength="41.8428" x="37" y="56.5352">Server</text><rect fill="#ddd" height="30.4883" rx="2.5" stroke="#666" stroke-width=".5" width="55.8428" x="30" y="324.6172"/><text fill="#333" font-family="sans-serif" font-size="14" lengthAdjust="spacing" textLength="41.8428" x="37" y="345.1523">Server</text><text fill="#333" font-family="sans-serif" font-size="14" lengthAdjust="spacing" textLength="118.0361" x="233.8999" y="64.5352">gRPC Subscribers</text><path d="m277.918 15c0-10 18-10 18-10s18 0 18 10v26c0 10-18 10-18 10s-18 0-18-10z" fill="#e2e2f0" stroke="#181818" stroke-width="1.5"/><path d="m277.918 15c0 10 18 10 18 10s18 0 18-10" fill="none" stroke="#181818" stroke-width="1.5"/><text fill="#333" font-family="sans-serif" font-size="14" lengthAdjust="spacing" textLength="118.0361" x="233.8999" y="338.1523">gRPC Subscribers</text><path d="m277.918 351.1055c0-10 18-10 18-10s18 0 18 10v26c0 10-18 10-18 10s-18 0-18-10z" fill="#e2e2f0" stroke="#181818" stroke-width="1.5"/><path d="m277.918 351.1055c0 10 18 10 18 10s18 0 18-10" fill="none" stroke="#181818" stroke-width="1.5"/><rect fill="#ddd" height="30.4883" rx="2.5" stroke="#666" stroke-width=".5" width="124.8994" x="367.936" y="36"/><text fill="#333" font-family="sans-serif" font-size="14" lengthAdjust="spacing" textLength="110.8994" x="374.936" y="56.5352">gRPC Subscriber</text><rect fill="#ddd" height="30.4883" rx="2.5" stroke="#666" stroke-width=".5" width="124.8994" x="367.936" y="324.6172"/><text fill="#333" font-family="sans-serif" font-size="14" lengthAdjust="spacing" textLength="110.8994" x="374.936" y="345.1523">gRPC Subscriber</text><path d="m290.918 142.1094h10v173.5078h-10z" fill="#fff" stroke="#181818"/><path d="m425.3857 195.7305h10v112.8867h-10z" fill="#fff" stroke="#181818"/><path d="m0 98.1436h522.8354v3h-522.8354z" fill="#eee" stroke="#eee"/><path d="m0 98.1436h522.8354" stroke="#000"/><path d="m0 101.1436h522.8354" stroke="#000"/><path d="m176.7065 87.4883h169.4224v23.3105h-169.4224z" fill="#eee" stroke="#000" stroke-width="2"/><text fill="#333" font-family="sans-serif" font-size="13" font-weight="bold" lengthAdjust="spacing" textLength="151.1377" x="182.7065" y="104.0566">Ping gRPC Subscribers</text><path d="m278.918 138.1094 10 4-10 4 4-4z" fill="#666" stroke="#666"/><path d="m57.9214 142.1094h226.9966" stroke="#666"/><text fill="#333" font-family="sans-serif" font-size="13" lengthAdjust="spacing" textLength="185.561" x="64.9214" y="137.3672">Iterate over gRPC Subscribers</text><path d="m10 157.1094h74.4468v7.3105l-10 10h-64.4468z" fill="#eee" stroke="#000" stroke-width="1.5"/><path d="m10 157.1094h502.8354v151.5078h-502.8354z" fill="none" stroke="#000" stroke-width="1.5"/><text fill="#333" font-family="sans-serif" font-size="13" font-weight="bold" lengthAdjust="spacing" textLength="29.4468" x="25" y="170.6777">loop</text><text fill="#333" font-family="sans-serif" font-size="11" font-weight="bold" lengthAdjust="spacing" textLength="131.1675" x="99.4468" y="169.7441">[Each gRPC Subscriber]</text><path d="m413.3857 191.7305 10 4-10 4 4-4z" fill="#666" stroke="#666"/><path d="m57.9214 195.7305h361.4643" stroke="#666"/><text fill="#333" font-family="sans-serif" font-size="13" lengthAdjust="spacing" textLength="167.978" x="64.9214" y="190.9883">Send Ping via gRPC Stream</text><path d="m20 210.7305h62.1387v7.3105l-10 10h-52.1387z" fill="#eee" stroke="#000" stroke-width="1.5"/><path d="m20 210.7305h482.8354v90.8867h-482.8354z" fill="none" stroke="#000" stroke-width="1.5"/><text fill="#333" font-family="sans-serif" font-size="13" font-weight="bold" lengthAdjust="spacing" textLength="17.1387" x="35" y="224.2988">alt</text><text fill="#333" font-family="sans-serif" font-size="11" font-weight="bold" lengthAdjust="spacing" textLength="139.0952" x="97.1387" y="223.3652">[If Subscriber Responds]</text><path d="m68.9214 245.3516-10 4 10 4-4-4z" fill="#666" stroke="#666"/><path d="m62.9214 249.3516h361.4643" stroke="#666" stroke-dasharray="2 2"/><text fill="#333" font-family="sans-serif" font-size="13" lengthAdjust="spacing" textLength="115.0576" x="74.9214" y="244.6094">Acknowledge Ping</text><path d="m20 258.3516h482.8354" stroke="#000" stroke-dasharray="2 2"/><text fill="#333" font-family="sans-serif" font-size="11" font-weight="bold" lengthAdjust="spacing" textLength="188.4771" x="25" y="268.9863">[If Subscriber Does Not Respond]</text><path d="m278.918 289.6172 10 4-10 4 4-4z" fill="#666" stroke="#666"/><path d="m57.9214 293.6172h226.9966" stroke="#666"/><text fill="#333" font-family="sans-serif" font-size="13" lengthAdjust="spacing" textLength="208.9966" x="64.9214" y="288.875">Remove Unresponsive Subscriber</text><text fill="#333" font-family="sans-serif" font-size="10" lengthAdjust="spacing" textLength="155.4346" y="397.7734">Last Modified On: 24-Feb-2025</text></svg>
