<svg xmlns="http://www.w3.org/2000/svg" xmlns:xlink="http://www.w3.org/1999/xlink" contentStyleType="text/css" height="509px" preserveAspectRatio="none" style="width:941px;height:509px;background:#F0F8FF;" version="1.1" viewBox="0 0 941 509" width="941px" zoomAndPan="magnify"><defs/><g><rect fill="#F0F8FF" height="509" style="stroke:none;stroke-width:1.0;" width="941" x="0" y="0"/><rect fill="#FFFFFF" height="29.3105" style="stroke:#181818;stroke-width:1.0;" width="10" x="191.7334" y="92.1094"/><rect fill="#FFFFFF" height="259.4395" style="stroke:#181818;stroke-width:1.0;" width="10" x="191.7334" y="182.041"/><rect fill="#FFFFFF" height="29.3105" style="stroke:#181818;stroke-width:1.0;" width="10" x="665.9595" y="240.6621"/><rect fill="#FFFFFF" height="29.3105" style="stroke:#181818;stroke-width:1.0;" width="10" x="767.4448" y="323.5938"/><rect fill="#FFFFFF" height="29.3105" style="stroke:#181818;stroke-width:1.0;" width="10" x="873.3018" y="397.1699"/><rect fill="none" height="75.9316" style="stroke:#000000;stroke-width:1.5;" width="438.5508" x="132.1792" y="53.4883"/><rect fill="none" height="298.0605" style="stroke:#000000;stroke-width:1.5;" width="925.8447" x="10" y="143.4199"/><rect fill="none" height="149.5078" style="stroke:#000000;stroke-width:1.5;" width="512.5991" x="413.2456" y="284.9727"/><line style="stroke:#181818;stroke-width:0.5;stroke-dasharray:5.0,5.0;" x1="67" x2="67" y1="36.4883" y2="458.4805"/><line style="stroke:#181818;stroke-width:0.5;stroke-dasharray:5.0,5.0;" x1="196.1792" x2="196.1792" y1="36.4883" y2="458.4805"/><line style="stroke:#181818;stroke-width:0.5;stroke-dasharray:5.0,5.0;" x1="491.2456" x2="491.2456" y1="36.4883" y2="458.4805"/><line style="stroke:#181818;stroke-width:0.5;stroke-dasharray:5.0,5.0;" x1="670.7881" x2="670.7881" y1="36.4883" y2="458.4805"/><line style="stroke:#181818;stroke-width:0.5;stroke-dasharray:5.0,5.0;" x1="772.1309" x2="772.1309" y1="36.4883" y2="458.4805"/><line style="stroke:#181818;stroke-width:0.5;stroke-dasharray:5.0,5.0;" x1="877.7588" x2="877.7588" y1="36.4883" y2="458.4805"/><rect fill="#DDDDDD" height="30.4883" rx="2.5" ry="2.5" style="stroke:#666666;stroke-width:0.5;" width="94.7119" x="20" y="5"/><text fill="#333333" font-family="sans-serif" font-size="14" lengthAdjust="spacing" textLength="80.7119" x="27" y="25.5352">UDP6 Client</text><rect fill="#DDDDDD" height="30.4883" rx="2.5" ry="2.5" style="stroke:#666666;stroke-width:0.5;" width="94.7119" x="20" y="457.4805"/><text fill="#333333" font-family="sans-serif" font-size="14" lengthAdjust="spacing" textLength="80.7119" x="27" y="478.0156">UDP6 Client</text><rect fill="#DDDDDD" height="30.4883" rx="2.5" ry="2.5" style="stroke:#666666;stroke-width:0.5;" width="109.1084" x="142.1792" y="5"/><text fill="#333333" font-family="sans-serif" font-size="14" lengthAdjust="spacing" textLength="95.1084" x="149.1792" y="25.5352">UDP6 Listener</text><rect fill="#DDDDDD" height="30.4883" rx="2.5" ry="2.5" style="stroke:#666666;stroke-width:0.5;" width="109.1084" x="142.1792" y="457.4805"/><text fill="#333333" font-family="sans-serif" font-size="14" lengthAdjust="spacing" textLength="95.1084" x="149.1792" y="478.0156">UDP6 Listener</text><rect fill="#DDDDDD" height="30.4883" rx="2.5" ry="2.5" style="stroke:#666666;stroke-width:0.5;" width="137.4844" x="423.2456" y="5"/><text fill="#333333" font-family="sans-serif" font-size="14" lengthAdjust="spacing" textLength="123.4844" x="430.2456" y="25.5352">PropagationServer</text><rect fill="#DDDDDD" height="30.4883" rx="2.5" ry="2.5" style="stroke:#666666;stroke-width:0.5;" width="137.4844" x="423.2456" y="457.4805"/><text fill="#333333" font-family="sans-serif" font-size="14" lengthAdjust="spacing" textLength="123.4844" x="430.2456" y="478.0156">PropagationServer</text><rect fill="#DDDDDD" height="30.4883" rx="2.5" ry="2.5" style="stroke:#666666;stroke-width:0.5;" width="66.3428" x="637.7881" y="5"/><text fill="#333333" font-family="sans-serif" font-size="14" lengthAdjust="spacing" textLength="52.3428" x="644.7881" y="25.5352">TxStore</text><rect fill="#DDDDDD" height="30.4883" rx="2.5" ry="2.5" style="stroke:#666666;stroke-width:0.5;" width="66.3428" x="637.7881" y="457.4805"/><text fill="#333333" font-family="sans-serif" font-size="14" lengthAdjust="spacing" textLength="52.3428" x="644.7881" y="478.0156">TxStore</text><rect fill="#DDDDDD" height="30.4883" rx="2.5" ry="2.5" style="stroke:#666666;stroke-width:0.5;" width="116.6279" x="714.1309" y="5"/><text fill="#333333" font-family="sans-serif" font-size="14" lengthAdjust="spacing" textLength="102.6279" x="721.1309" y="25.5352">Kafka Producer</text><rect fill="#DDDDDD" height="30.4883" rx="2.5" ry="2.5" style="stroke:#666666;stroke-width:0.5;" width="116.6279" x="714.1309" y="457.4805"/><text fill="#333333" font-family="sans-serif" font-size="14" lengthAdjust="spacing" textLength="102.6279" x="721.1309" y="478.0156">Kafka Producer</text><rect fill="#DDDDDD" height="30.4883" rx="2.5" ry="2.5" style="stroke:#666666;stroke-width:0.5;" width="75.0859" x="840.7588" y="5"/><text fill="#333333" font-family="sans-serif" font-size="14" lengthAdjust="spacing" textLength="61.0859" x="847.7588" y="25.5352">Validator</text><rect fill="#DDDDDD" height="30.4883" rx="2.5" ry="2.5" style="stroke:#666666;stroke-width:0.5;" width="75.0859" x="840.7588" y="457.4805"/><text fill="#333333" font-family="sans-serif" font-size="14" lengthAdjust="spacing" textLength="61.0859" x="847.7588" y="478.0156">Validator</text><rect fill="#FFFFFF" height="29.3105" style="stroke:#181818;stroke-width:1.0;" width="10" x="191.7334" y="92.1094"/><rect fill="#FFFFFF" height="259.4395" style="stroke:#181818;stroke-width:1.0;" width="10" x="191.7334" y="182.041"/><rect fill="#FFFFFF" height="29.3105" style="stroke:#181818;stroke-width:1.0;" width="10" x="665.9595" y="240.6621"/><rect fill="#FFFFFF" height="29.3105" style="stroke:#181818;stroke-width:1.0;" width="10" x="767.4448" y="323.5938"/><rect fill="#FFFFFF" height="29.3105" style="stroke:#181818;stroke-width:1.0;" width="10" x="873.3018" y="397.1699"/><path d="M132.1792,53.4883 L206.626,53.4883 L206.626,60.7988 L196.626,70.7988 L132.1792,70.7988 L132.1792,53.4883 " fill="#EEEEEE" style="stroke:#000000;stroke-width:1.5;"/><rect fill="none" height="75.9316" style="stroke:#000000;stroke-width:1.5;" width="438.5508" x="132.1792" y="53.4883"/><text fill="#333333" font-family="sans-serif" font-size="13" font-weight="bold" lengthAdjust="spacing" textLength="29.4468" x="147.1792" y="67.0566">loop</text><text fill="#333333" font-family="sans-serif" font-size="11" font-weight="bold" lengthAdjust="spacing" textLength="231.1182" x="221.626" y="66.123">[for each ipv6Address in ipv6Addresses]</text><polygon fill="#666666" points="212.7334,88.1094,202.7334,92.1094,212.7334,96.1094,208.7334,92.1094" style="stroke:#666666;stroke-width:1.0;"/><line style="stroke:#666666;stroke-width:1.0;" x1="206.7334" x2="490.9878" y1="92.1094" y2="92.1094"/><text fill="#333333" font-family="sans-serif" font-size="13" lengthAdjust="spacing" textLength="271.2544" x="218.7334" y="87.3672">Setup UDP Multicast Listener (ipv6Address)</text><polygon fill="#666666" points="479.9878,117.4199,489.9878,121.4199,479.9878,125.4199,483.9878,121.4199" style="stroke:#666666;stroke-width:1.0;"/><line style="stroke:#666666;stroke-width:1.0;stroke-dasharray:2.0,2.0;" x1="196.7334" x2="485.9878" y1="121.4199" y2="121.4199"/><text fill="#333333" font-family="sans-serif" font-size="13" lengthAdjust="spacing" textLength="91.7808" x="203.7334" y="116.6777">Listener Ready</text><path d="M10,143.4199 L84.4468,143.4199 L84.4468,150.7305 L74.4468,160.7305 L10,160.7305 L10,143.4199 " fill="#EEEEEE" style="stroke:#000000;stroke-width:1.5;"/><rect fill="none" height="298.0605" style="stroke:#000000;stroke-width:1.5;" width="925.8447" x="10" y="143.4199"/><text fill="#333333" font-family="sans-serif" font-size="13" font-weight="bold" lengthAdjust="spacing" textLength="29.4468" x="25" y="156.9883">loop</text><text fill="#333333" font-family="sans-serif" font-size="11" font-weight="bold" lengthAdjust="spacing" textLength="154.7144" x="99.4468" y="156.0547">[Listening for UDP Packets]</text><polygon fill="#666666" points="179.7334,178.041,189.7334,182.041,179.7334,186.041,183.7334,182.041" style="stroke:#666666;stroke-width:1.0;"/><line style="stroke:#666666;stroke-width:1.0;" x1="67.356" x2="185.7334" y1="182.041" y2="182.041"/><text fill="#333333" font-family="sans-serif" font-size="13" lengthAdjust="spacing" textLength="105.3774" x="74.356" y="177.2988">Send UDP Packet</text><polygon fill="#666666" points="479.9878,207.3516,489.9878,211.3516,479.9878,215.3516,483.9878,211.3516" style="stroke:#666666;stroke-width:1.0;"/><line style="stroke:#666666;stroke-width:1.0;" x1="201.7334" x2="485.9878" y1="211.3516" y2="211.3516"/><text fill="#333333" font-family="sans-serif" font-size="13" lengthAdjust="spacing" textLength="167.0513" x="208.7334" y="206.6094">Invoke ProcessTransaction</text><polygon fill="#666666" points="653.9595,236.6621,663.9595,240.6621,653.9595,244.6621,657.9595,240.6621" style="stroke:#666666;stroke-width:1.0;"/><line style="stroke:#666666;stroke-width:1.0;" x1="491.9878" x2="659.9595" y1="240.6621" y2="240.6621"/><text fill="#333333" font-family="sans-serif" font-size="13" lengthAdjust="spacing" textLength="154.9717" x="498.9878" y="235.9199">storeTransaction(ctx, tx)</text><polygon fill="#666666" points="502.9878,265.9727,492.9878,269.9727,502.9878,273.9727,498.9878,269.9727" style="stroke:#666666;stroke-width:1.0;"/><line style="stroke:#666666;stroke-width:1.0;stroke-dasharray:2.0,2.0;" x1="496.9878" x2="669.9595" y1="269.9727" y2="269.9727"/><text fill="#333333" font-family="sans-serif" font-size="13" lengthAdjust="spacing" textLength="132.3677" x="508.9878" y="265.2305">Storage confirmation</text><path d="M413.2456,284.9727 L475.3843,284.9727 L475.3843,292.2832 L465.3843,302.2832 L413.2456,302.2832 L413.2456,284.9727 " fill="#EEEEEE" style="stroke:#000000;stroke-width:1.5;"/><rect fill="none" height="149.5078" style="stroke:#000000;stroke-width:1.5;" width="512.5991" x="413.2456" y="284.9727"/><text fill="#333333" font-family="sans-serif" font-size="13" font-weight="bold" lengthAdjust="spacing" textLength="17.1387" x="428.2456" y="298.541">alt</text><text fill="#333333" font-family="sans-serif" font-size="11" font-weight="bold" lengthAdjust="spacing" textLength="184.8945" x="490.3843" y="297.6074">[if Kafka Producer is configured]</text><polygon fill="#666666" points="755.4448,319.5938,765.4448,323.5938,755.4448,327.5938,759.4448,323.5938" style="stroke:#666666;stroke-width:1.0;"/><line style="stroke:#666666;stroke-width:1.0;" x1="491.9878" x2="761.4448" y1="323.5938" y2="323.5938"/><text fill="#333333" font-family="sans-serif" font-size="13" lengthAdjust="spacing" textLength="105.1743" x="498.9878" y="318.8516">Send transaction</text><polygon fill="#666666" points="502.9878,348.9043,492.9878,352.9043,502.9878,356.9043,498.9878,352.9043" style="stroke:#666666;stroke-width:1.0;"/><line style="stroke:#666666;stroke-width:1.0;stroke-dasharray:2.0,2.0;" x1="496.9878" x2="771.4448" y1="352.9043" y2="352.9043"/><text fill="#333333" font-family="sans-serif" font-size="13" lengthAdjust="spacing" textLength="82.894" x="508.9878" y="348.1621">Confirmation</text><line style="stroke:#000000;stroke-width:1.0;stroke-dasharray:2.0,2.0;" x1="413.2456" x2="925.8447" y1="361.9043" y2="361.9043"/><text fill="#333333" font-family="sans-serif" font-size="11" font-weight="bold" lengthAdjust="spacing" textLength="112.3525" x="418.2456" y="372.5391">[if direct validation]</text><polygon fill="#666666" points="861.3018,393.1699,871.3018,397.1699,861.3018,401.1699,865.3018,397.1699" style="stroke:#666666;stroke-width:1.0;"/><line style="stroke:#666666;stroke-width:1.0;" x1="491.9878" x2="867.3018" y1="397.1699" y2="397.1699"/><text fill="#333333" font-family="sans-serif" font-size="13" lengthAdjust="spacing" textLength="99.6709" x="498.9878" y="392.4277">Validate(ctx, tx)</text><polygon fill="#666666" points="502.9878,422.4805,492.9878,426.4805,502.9878,430.4805,498.9878,426.4805" style="stroke:#666666;stroke-width:1.0;"/><line style="stroke:#666666;stroke-width:1.0;stroke-dasharray:2.0,2.0;" x1="496.9878" x2="877.3018" y1="426.4805" y2="426.4805"/><text fill="#333333" font-family="sans-serif" font-size="13" lengthAdjust="spacing" textLength="124.6362" x="508.9878" y="421.7383">Validation response</text><text fill="#333333" font-family="sans-serif" font-size="10" lengthAdjust="spacing" textLength="155.4346" x="0" y="499.6367">Last Modified On: 24-Feb-2025</text><!--SRC=[fLFVYnCn47xVlsAeY7TWGH2Az47mMWhY5OizxtrkCrj3qsH9fhL5_DzDiZykQRU8NXvsavbllimtcN5RgMkqk8CdBBSRQ_PQp8mo5bujtYq-B1Q5wn62AjmhNXZDBUHzN0a4hJK_M-Sahg9u0tEgf2PuCbQGTL1vBoe5f6X7cbqIxu-IJ_2h0BYBw9pBMy-pdCTL_2uIbj9dQ8rwAOt_iYnbZPh_Zyglb6FqVRwQm4n9ht84wDhj0EPUEYPDDgAyfJldq9KrDMwGfT5hieSMVc7DWnwEQpQM8hJTvu0lM6qni8XzsL96KsV9qO-ef43F4e7zgIYKCNLyQSBo1yZwCFaaX2NdGEhqICxN42wpXl77LFaKriJxEfXWwPjGbkYuhnFS98otaH1BbWTaoieN7CaPnlwIYvkdpxJV2CKfHWaQ92GjMgcDIUfD51tINFd686xaDIyze4cB1FiFYG_c_LaVp9Q2f_HrUB2eNM0pkhXUuxO7fk32BucvAVdu5lXuLiwkPuAntLyhOt3YXi8uLjBkek-yc1rTSubYa1Na7GZIDGoRlIKHSLV5P8tQbfUJCdJ1_VLvPtVkp7fDtUnSrPcoIsfIZe8-8IsL38TcMDBmGL7zK4sxBULlaobw7i7ErLkkANdi4m4_FxNHZeO4vSony_yw6LIndmV3Nibz6DYb4RAI9E2hdiBhA6Kan7YvN8vFVerkYpy0]--></g></svg>
