<svg xmlns="http://www.w3.org/2000/svg" xmlns:xlink="http://www.w3.org/1999/xlink" contentStyleType="text/css" height="447px" preserveAspectRatio="none" style="width:972px;height:447px;background:#FFFFFF;" version="1.1" viewBox="0 0 972 447" width="972px" zoomAndPan="magnify"><defs/><g><rect fill="#FFFFFF" height="310.0605" style="stroke:#181818;stroke-width:1.0;" width="10" x="323.3804" y="67.7988"/><rect fill="#FFFFFF" height="251.4395" style="stroke:#181818;stroke-width:1.0;" width="10" x="519.4316" y="97.1094"/><rect fill="#FFFFFF" height="29.3105" style="stroke:#181818;stroke-width:1.0;" width="10" x="703.4033" y="126.4199"/><rect fill="#FFFFFF" height="29.3105" style="stroke:#181818;stroke-width:1.0;" width="10" x="807.1035" y="209.3516"/><rect fill="#FFFFFF" height="29.3105" style="stroke:#181818;stroke-width:1.0;" width="10" x="912.9604" y="282.9277"/><rect fill="none" height="149.5078" style="stroke:#000000;stroke-width:1.5;" width="519.814" x="445.6895" y="170.7305"/><line style="stroke:#181818;stroke-width:0.5;stroke-dasharray:5.0,5.0;" x1="51" x2="51" y1="36.4883" y2="395.8594"/><line style="stroke:#181818;stroke-width:0.5;stroke-dasharray:5.0,5.0;" x1="327.7407" x2="327.7407" y1="36.4883" y2="395.8594"/><line style="stroke:#181818;stroke-width:0.5;stroke-dasharray:5.0,5.0;" x1="523.6895" x2="523.6895" y1="36.4883" y2="395.8594"/><line style="stroke:#181818;stroke-width:0.5;stroke-dasharray:5.0,5.0;" x1="708.0171" x2="708.0171" y1="36.4883" y2="395.8594"/><line style="stroke:#181818;stroke-width:0.5;stroke-dasharray:5.0,5.0;" x1="811.7896" x2="811.7896" y1="36.4883" y2="395.8594"/><line style="stroke:#181818;stroke-width:0.5;stroke-dasharray:5.0,5.0;" x1="917.4175" x2="917.4175" y1="36.4883" y2="395.8594"/><rect fill="#E2E2F0" height="30.4883" rx="2.5" ry="2.5" style="stroke:#181818;stroke-width:0.5;" width="92.9414" x="5" y="5"/><text fill="#000000" font-family="sans-serif" font-size="14" lengthAdjust="spacing" textLength="78.9414" x="12" y="25.5352">gRPC Client</text><rect fill="#E2E2F0" height="30.4883" rx="2.5" ry="2.5" style="stroke:#181818;stroke-width:0.5;" width="92.9414" x="5" y="394.8594"/><text fill="#000000" font-family="sans-serif" font-size="14" lengthAdjust="spacing" textLength="78.9414" x="12" y="415.3945">gRPC Client</text><rect fill="#E2E2F0" height="30.4883" rx="2.5" ry="2.5" style="stroke:#181818;stroke-width:0.5;" width="95.2793" x="280.7407" y="5"/><text fill="#000000" font-family="sans-serif" font-size="14" lengthAdjust="spacing" textLength="81.2793" x="287.7407" y="25.5352">gRPC Server</text><rect fill="#E2E2F0" height="30.4883" rx="2.5" ry="2.5" style="stroke:#181818;stroke-width:0.5;" width="95.2793" x="280.7407" y="394.8594"/><text fill="#000000" font-family="sans-serif" font-size="14" lengthAdjust="spacing" textLength="81.2793" x="287.7407" y="415.3945">gRPC Server</text><rect fill="#E2E2F0" height="30.4883" rx="2.5" ry="2.5" style="stroke:#181818;stroke-width:0.5;" width="137.4844" x="455.6895" y="5"/><text fill="#000000" font-family="sans-serif" font-size="14" lengthAdjust="spacing" textLength="123.4844" x="462.6895" y="25.5352">PropagationServer</text><rect fill="#E2E2F0" height="30.4883" rx="2.5" ry="2.5" style="stroke:#181818;stroke-width:0.5;" width="137.4844" x="455.6895" y="394.8594"/><text fill="#000000" font-family="sans-serif" font-size="14" lengthAdjust="spacing" textLength="123.4844" x="462.6895" y="415.3945">PropagationServer</text><rect fill="#E2E2F0" height="30.4883" rx="2.5" ry="2.5" style="stroke:#181818;stroke-width:0.5;" width="70.7725" x="673.0171" y="5"/><text fill="#000000" font-family="sans-serif" font-size="14" lengthAdjust="spacing" textLength="56.7725" x="680.0171" y="25.5352">Tx Store</text><rect fill="#E2E2F0" height="30.4883" rx="2.5" ry="2.5" style="stroke:#181818;stroke-width:0.5;" width="70.7725" x="673.0171" y="394.8594"/><text fill="#000000" font-family="sans-serif" font-size="14" lengthAdjust="spacing" textLength="56.7725" x="680.0171" y="415.3945">Tx Store</text><rect fill="#E2E2F0" height="30.4883" rx="2.5" ry="2.5" style="stroke:#181818;stroke-width:0.5;" width="116.6279" x="753.7896" y="5"/><text fill="#000000" font-family="sans-serif" font-size="14" lengthAdjust="spacing" textLength="102.6279" x="760.7896" y="25.5352">Kafka Producer</text><rect fill="#E2E2F0" height="30.4883" rx="2.5" ry="2.5" style="stroke:#181818;stroke-width:0.5;" width="116.6279" x="753.7896" y="394.8594"/><text fill="#000000" font-family="sans-serif" font-size="14" lengthAdjust="spacing" textLength="102.6279" x="760.7896" y="415.3945">Kafka Producer</text><rect fill="#E2E2F0" height="30.4883" rx="2.5" ry="2.5" style="stroke:#181818;stroke-width:0.5;" width="75.0859" x="880.4175" y="5"/><text fill="#000000" font-family="sans-serif" font-size="14" lengthAdjust="spacing" textLength="61.0859" x="887.4175" y="25.5352">Validator</text><rect fill="#E2E2F0" height="30.4883" rx="2.5" ry="2.5" style="stroke:#181818;stroke-width:0.5;" width="75.0859" x="880.4175" y="394.8594"/><text fill="#000000" font-family="sans-serif" font-size="14" lengthAdjust="spacing" textLength="61.0859" x="887.4175" y="415.3945">Validator</text><rect fill="#FFFFFF" height="310.0605" style="stroke:#181818;stroke-width:1.0;" width="10" x="323.3804" y="67.7988"/><rect fill="#FFFFFF" height="251.4395" style="stroke:#181818;stroke-width:1.0;" width="10" x="519.4316" y="97.1094"/><rect fill="#FFFFFF" height="29.3105" style="stroke:#181818;stroke-width:1.0;" width="10" x="703.4033" y="126.4199"/><rect fill="#FFFFFF" height="29.3105" style="stroke:#181818;stroke-width:1.0;" width="10" x="807.1035" y="209.3516"/><rect fill="#FFFFFF" height="29.3105" style="stroke:#181818;stroke-width:1.0;" width="10" x="912.9604" y="282.9277"/><polygon fill="#181818" points="311.3804,63.7988,321.3804,67.7988,311.3804,71.7988,315.3804,67.7988" style="stroke:#181818;stroke-width:1.0;"/><line style="stroke:#181818;stroke-width:1.0;" x1="51.4707" x2="317.3804" y1="67.7988" y2="67.7988"/><text fill="#000000" font-family="sans-serif" font-size="13" lengthAdjust="spacing" textLength="252.9097" x="58.4707" y="63.0566">Send gRPC request (ProcessTransaction)</text><polygon fill="#181818" points="507.4316,93.1094,517.4316,97.1094,507.4316,101.1094,511.4316,97.1094" style="stroke:#181818;stroke-width:1.0;"/><line style="stroke:#181818;stroke-width:1.0;" x1="333.3804" x2="513.4316" y1="97.1094" y2="97.1094"/><text fill="#000000" font-family="sans-serif" font-size="13" lengthAdjust="spacing" textLength="167.0513" x="340.3804" y="92.3672">Invoke ProcessTransaction</text><polygon fill="#181818" points="691.4033,122.4199,701.4033,126.4199,691.4033,130.4199,695.4033,126.4199" style="stroke:#181818;stroke-width:1.0;"/><line style="stroke:#181818;stroke-width:1.0;" x1="529.4316" x2="697.4033" y1="126.4199" y2="126.4199"/><text fill="#000000" font-family="sans-serif" font-size="13" lengthAdjust="spacing" textLength="154.9717" x="536.4316" y="121.6777">storeTransaction(ctx, tx)</text><polygon fill="#181818" points="540.4316,151.7305,530.4316,155.7305,540.4316,159.7305,536.4316,155.7305" style="stroke:#181818;stroke-width:1.0;"/><line style="stroke:#181818;stroke-width:1.0;stroke-dasharray:2.0,2.0;" x1="534.4316" x2="707.4033" y1="155.7305" y2="155.7305"/><text fill="#000000" font-family="sans-serif" font-size="13" lengthAdjust="spacing" textLength="132.3677" x="546.4316" y="150.9883">Storage confirmation</text><path d="M445.6895,170.7305 L507.8281,170.7305 L507.8281,178.041 L497.8281,188.041 L445.6895,188.041 L445.6895,170.7305 " fill="#EEEEEE" style="stroke:#000000;stroke-width:1.5;"/><rect fill="none" height="149.5078" style="stroke:#000000;stroke-width:1.5;" width="519.814" x="445.6895" y="170.7305"/><text fill="#000000" font-family="sans-serif" font-size="13" font-weight="bold" lengthAdjust="spacing" textLength="17.1387" x="460.6895" y="184.2988">alt</text><text fill="#000000" font-family="sans-serif" font-size="11" font-weight="bold" lengthAdjust="spacing" textLength="184.8945" x="522.8281" y="183.3652">[if Kafka Producer is configured]</text><polygon fill="#181818" points="795.1035,205.3516,805.1035,209.3516,795.1035,213.3516,799.1035,209.3516" style="stroke:#181818;stroke-width:1.0;"/><line style="stroke:#181818;stroke-width:1.0;" x1="529.4316" x2="801.1035" y1="209.3516" y2="209.3516"/><text fill="#000000" font-family="sans-serif" font-size="13" lengthAdjust="spacing" textLength="105.1743" x="536.4316" y="204.6094">Send transaction</text><polygon fill="#181818" points="540.4316,234.6621,530.4316,238.6621,540.4316,242.6621,536.4316,238.6621" style="stroke:#181818;stroke-width:1.0;"/><line style="stroke:#181818;stroke-width:1.0;stroke-dasharray:2.0,2.0;" x1="534.4316" x2="811.1035" y1="238.6621" y2="238.6621"/><text fill="#000000" font-family="sans-serif" font-size="13" lengthAdjust="spacing" textLength="82.894" x="546.4316" y="233.9199">Confirmation</text><line style="stroke:#000000;stroke-width:1.0;stroke-dasharray:2.0,2.0;" x1="445.6895" x2="965.5034" y1="247.6621" y2="247.6621"/><text fill="#000000" font-family="sans-serif" font-size="11" font-weight="bold" lengthAdjust="spacing" textLength="112.3525" x="450.6895" y="258.2969">[if direct validation]</text><polygon fill="#181818" points="900.9604,278.9277,910.9604,282.9277,900.9604,286.9277,904.9604,282.9277" style="stroke:#181818;stroke-width:1.0;"/><line style="stroke:#181818;stroke-width:1.0;" x1="529.4316" x2="906.9604" y1="282.9277" y2="282.9277"/><text fill="#000000" font-family="sans-serif" font-size="13" lengthAdjust="spacing" textLength="99.6709" x="536.4316" y="278.1855">Validate(ctx, tx)</text><polygon fill="#181818" points="540.4316,308.2383,530.4316,312.2383,540.4316,316.2383,536.4316,312.2383" style="stroke:#181818;stroke-width:1.0;"/><line style="stroke:#181818;stroke-width:1.0;stroke-dasharray:2.0,2.0;" x1="534.4316" x2="916.9604" y1="312.2383" y2="312.2383"/><text fill="#000000" font-family="sans-serif" font-size="13" lengthAdjust="spacing" textLength="124.6362" x="546.4316" y="307.4961">Validation response</text><polygon fill="#181818" points="344.3804,344.5488,334.3804,348.5488,344.3804,352.5488,340.3804,348.5488" style="stroke:#181818;stroke-width:1.0;"/><line style="stroke:#181818;stroke-width:1.0;stroke-dasharray:2.0,2.0;" x1="338.3804" x2="523.4316" y1="348.5488" y2="348.5488"/><text fill="#000000" font-family="sans-serif" font-size="13" lengthAdjust="spacing" textLength="91.9014" x="350.3804" y="343.8066">Send response</text><polygon fill="#181818" points="62.4707,373.8594,52.4707,377.8594,62.4707,381.8594,58.4707,377.8594" style="stroke:#181818;stroke-width:1.0;"/><line style="stroke:#181818;stroke-width:1.0;" x1="56.4707" x2="327.3804" y1="377.8594" y2="377.8594"/><text fill="#000000" font-family="sans-serif" font-size="13" lengthAdjust="spacing" textLength="103.1875" x="68.4707" y="373.1172">Return response</text><text fill="#888888" font-family="sans-serif" font-size="10" lengthAdjust="spacing" textLength="154.8389" x="0" y="437.0156">Last Modified On: 30-Oct-2024</text><!--SRC=[TLDDRyCW3BtpAwn8arff-GCvxDBJj4Mhsgft14w4ba469Ch-_O1yKb8kDiP- -3rCIxKLJBHKMiZgo_a4fqQWj1bGCxcaJNAkg7lK8MTquvopLYsjgHLARZAJQ5nq6-1gbSQGUnk27sTyqEgRUXZUiGapXEP8d7sdZU3KeOJ4PKV8o0hojwdtmbd98H3J-DkXiN1mc0oDkMag3MM-voFnjgSMPyvaj1ufuLR0k-pLDq8AjEAaYf0avD4dDGemtcoW3imEhs27JM-pSfE5VByxVqXh1APa9VHFE2CS4nX26mkYWbXx46Qih3kDd81Rkur7ppFfR3TA-CBbolWj_L4KUSRaj6NWgpOiOaXi37ekN6Xa5lfn9EQoNGBBs1IpYwlcKVVhWFdmidlMzNsvtCsSQPKq-DZyYkXasvsCnn5Ua3OewOojxCQVKC05RQVbRlaybmrM5YgbhAlyfEw7b8gBIY27Brd0In0cupmlopB_Soixady0]--></g></svg>
