<svg contentStyleType="text/css" height="623" preserveAspectRatio="none" viewBox="0 0 1004 623" width="1004" xmlns="http://www.w3.org/2000/svg" zoomAndPan="magnify"><path d="m0 0h1004v623h-1004z" fill="#f0f8ff"/><g fill="#fff"><path d="m61.833 121.4199h10v425.9922h-10z" stroke="#181818"/><path d="m318.6104 67.7988h10v494.6133h-10z" stroke="#181818"/><path d="m501.3423 46.4883h10v516.9238h-10z" stroke="#181818"/><path d="m506.3423 150.7305h10v367.3711h-10z" stroke="#181818"/><path d="m715.9229 288.9727h10v29.3105h-10z" stroke="#181818"/><path d="m819.623 371.9043h10v29.3105h-10z" stroke="#181818"/><path d="m925.48 445.4805h10v29.3105h-10z" stroke="#181818"/></g><path d="m10 82.7988h988.0229v472.6133h-988.0229z" fill="none" stroke="#000" stroke-width="1.5"/><path d="m417.6001 165.7305h570.4229v324.0605h-570.4229z" fill="none" stroke="#000" stroke-width="1.5"/><path d="m427.6001 333.2832h550.4229v149.5078h-550.4229z" fill="none" stroke="#000" stroke-width="1.5"/><path d="m66 36.4883v535.9238" stroke="#181818" stroke-dasharray="5 5" stroke-width=".5"/><path d="m323.6084 36.4883v535.9238" stroke="#181818" stroke-dasharray="5 5" stroke-width=".5"/><path d="m505.6001 36.4883v535.9238" stroke="#181818" stroke-dasharray="5 5" stroke-width=".5"/><path d="m720.5366 36.4883v535.9238" stroke="#181818" stroke-dasharray="5 5" stroke-width=".5"/><path d="m824.3091 36.4883v535.9238" stroke="#181818" stroke-dasharray="5 5" stroke-width=".5"/><path d="m929.937 36.4883v535.9238" stroke="#181818" stroke-dasharray="5 5" stroke-width=".5"/><rect fill="#ddd" height="30.4883" rx="2.5" stroke="#666" stroke-width=".5" width="93.666" x="20" y="5"/><text fill="#333" font-family="sans-serif" font-size="14" lengthAdjust="spacing" textLength="79.666" x="27" y="25.5352">HTTP Client</text><rect fill="#ddd" height="30.4883" rx="2.5" stroke="#666" stroke-width=".5" width="93.666" x="20" y="571.4121"/><text fill="#333" font-family="sans-serif" font-size="14" lengthAdjust="spacing" textLength="79.666" x="27" y="591.9473">HTTP Client</text><rect fill="#ddd" height="30.4883" rx="2.5" stroke="#666" stroke-width=".5" width="96.0039" x="275.6084" y="5"/><text fill="#333" font-family="sans-serif" font-size="14" lengthAdjust="spacing" textLength="82.0039" x="282.6084" y="25.5352">HTTP Server</text><rect fill="#ddd" height="30.4883" rx="2.5" stroke="#666" stroke-width=".5" width="96.0039" x="275.6084" y="571.4121"/><text fill="#333" font-family="sans-serif" font-size="14" lengthAdjust="spacing" textLength="82.0039" x="282.6084" y="591.9473">HTTP Server</text><rect fill="#ddd" height="30.4883" rx="2.5" stroke="#666" stroke-width=".5" width="137.4844" x="437.6001" y="5"/><text fill="#333" font-family="sans-serif" font-size="14" lengthAdjust="spacing" textLength="123.4844" x="444.6001" y="25.5352">PropagationServer</text><rect fill="#ddd" height="30.4883" rx="2.5" stroke="#666" stroke-width=".5" width="137.4844" x="437.6001" y="571.4121"/><text fill="#333" font-family="sans-serif" font-size="14" lengthAdjust="spacing" textLength="123.4844" x="444.6001" y="591.9473">PropagationServer</text><rect fill="#ddd" height="30.4883" rx="2.5" stroke="#666" stroke-width=".5" width="70.7725" x="685.5366" y="5"/><text fill="#333" font-family="sans-serif" font-size="14" lengthAdjust="spacing" textLength="56.7725" x="692.5366" y="25.5352">Tx Store</text><rect fill="#ddd" height="30.4883" rx="2.5" stroke="#666" stroke-width=".5" width="70.7725" x="685.5366" y="571.4121"/><text fill="#333" font-family="sans-serif" font-size="14" lengthAdjust="spacing" textLength="56.7725" x="692.5366" y="591.9473">Tx Store</text><rect fill="#ddd" height="30.4883" rx="2.5" stroke="#666" stroke-width=".5" width="116.6279" x="766.3091" y="5"/><text fill="#333" font-family="sans-serif" font-size="14" lengthAdjust="spacing" textLength="102.6279" x="773.3091" y="25.5352">Kafka Producer</text><rect fill="#ddd" height="30.4883" rx="2.5" stroke="#666" stroke-width=".5" width="116.6279" x="766.3091" y="571.4121"/><text fill="#333" font-family="sans-serif" font-size="14" lengthAdjust="spacing" textLength="102.6279" x="773.3091" y="591.9473">Kafka Producer</text><rect fill="#ddd" height="30.4883" rx="2.5" stroke="#666" stroke-width=".5" width="75.0859" x="892.937" y="5"/><text fill="#333" font-family="sans-serif" font-size="14" lengthAdjust="spacing" textLength="61.0859" x="899.937" y="25.5352">Validator</text><rect fill="#ddd" height="30.4883" rx="2.5" stroke="#666" stroke-width=".5" width="75.0859" x="892.937" y="571.4121"/><text fill="#333" font-family="sans-serif" font-size="14" lengthAdjust="spacing" textLength="61.0859" x="899.937" y="591.9473">Validator</text><path d="m61.833 121.4199h10v425.9922h-10z" fill="#fff" stroke="#181818"/><path d="m318.6104 67.7988h10v494.6133h-10z" fill="#fff" stroke="#181818"/><path d="m501.3423 46.4883h10v516.9238h-10z" fill="#fff" stroke="#181818"/><path d="m506.3423 150.7305h10v367.3711h-10z" fill="#fff" stroke="#181818"/><path d="m715.9229 288.9727h10v29.3105h-10z" fill="#fff" stroke="#181818"/><path d="m819.623 371.9043h10v29.3105h-10z" fill="#fff" stroke="#181818"/><path d="m925.48 445.4805h10v29.3105h-10z" fill="#fff" stroke="#181818"/><path d="m339.6104 63.7988-10 4 10 4-4-4z" fill="#666" stroke="#666"/><path d="m333.6104 67.7988h166.7319" stroke="#666"/><text fill="#333" font-family="sans-serif" font-size="13" lengthAdjust="spacing" textLength="131.2061" x="345.6104" y="63.0566">Setup HTTP handlers</text><path d="m10 82.7988h74.4468v7.3106l-10 10h-64.4468z" fill="#eee" stroke="#000" stroke-width="1.5"/><path d="m10 82.7988h988.0229v472.6133h-988.0229z" fill="none" stroke="#000" stroke-width="1.5"/><text fill="#333" font-family="sans-serif" font-size="13" font-weight="bold" lengthAdjust="spacing" textLength="29.4468" x="25" y="96.3672">loop</text><text fill="#333" font-family="sans-serif" font-size="11" font-weight="bold" lengthAdjust="spacing" textLength="142.7798" x="99.4468" y="95.4336">[HTTP Request Handling]</text><path d="m306.6104 117.4199 10 4-10 4 4-4z" fill="#666" stroke="#666"/><path d="m71.833 121.4199h240.7774" stroke="#666"/><text fill="#333" font-family="sans-serif" font-size="13" lengthAdjust="spacing" textLength="56.272" x="78.833" y="116.6777">POST /tx</text><path d="m494.3423 146.7305 10 4-10 4 4-4z" fill="#666" stroke="#666"/><path d="m328.6104 150.7305h171.7319" stroke="#666"/><text fill="#333" font-family="sans-serif" font-size="13" lengthAdjust="spacing" textLength="118.2568" x="335.6104" y="145.9883">handleStream(w, r)</text><path d="m417.6001 165.7305h74.4468v7.3105l-10 10h-64.4468z" fill="#eee" stroke="#000" stroke-width="1.5"/><path d="m417.6001 165.7305h570.4229v324.0605h-570.4229z" fill="none" stroke="#000" stroke-width="1.5"/><text fill="#333" font-family="sans-serif" font-size="13" font-weight="bold" lengthAdjust="spacing" textLength="29.4468" x="432.6001" y="179.2988">loop</text><text fill="#333" font-family="sans-serif" font-size="11" font-weight="bold" lengthAdjust="spacing" textLength="179.2656" x="507.0469" y="178.3652">[for each transaction in stream]</text><path d="m516.3423 204.3516h42" stroke="#666"/><path d="m558.3423 204.3516v13" stroke="#666"/><path d="m517.3423 217.3516h41" stroke="#666"/><path d="m527.3423 213.3516-10 4 10 4-4-4z" fill="#666" stroke="#666"/><text fill="#333" font-family="sans-serif" font-size="13" lengthAdjust="spacing" textLength="137.0205" x="523.3423" y="199.6094">Read transaction data</text><path d="m516.3423 246.6621h42" stroke="#666"/><path d="m558.3423 246.6621v13" stroke="#666"/><path d="m517.3423 259.6621h41" stroke="#666"/><path d="m527.3423 255.6621-10 4 10 4-4-4z" fill="#666" stroke="#666"/><text fill="#333" font-family="sans-serif" font-size="13" lengthAdjust="spacing" textLength="170.5806" x="523.3423" y="241.9199">ProcessTransaction(ctx, tx)</text><path d="m703.9229 284.9727 10 4-10 4 4-4z" fill="#666" stroke="#666"/><path d="m516.3423 288.9727h193.5806" stroke="#666"/><text fill="#333" font-family="sans-serif" font-size="13" lengthAdjust="spacing" textLength="154.9717" x="523.3423" y="284.2305">storeTransaction(ctx, tx)</text><path d="m527.3423 314.2832-10 4 10 4-4-4z" fill="#666" stroke="#666"/><path d="m521.3423 318.2832h198.5806" stroke="#666" stroke-dasharray="2 2"/><text fill="#333" font-family="sans-serif" font-size="13" lengthAdjust="spacing" textLength="132.3677" x="533.3423" y="313.541">Storage confirmation</text><path d="m427.6001 333.2832h62.1387v7.3106l-10 10h-52.1387z" fill="#eee" stroke="#000" stroke-width="1.5"/><path d="m427.6001 333.2832h550.4229v149.5078h-550.4229z" fill="none" stroke="#000" stroke-width="1.5"/><text fill="#333" font-family="sans-serif" font-size="13" font-weight="bold" lengthAdjust="spacing" textLength="17.1387" x="442.6001" y="346.8516">alt</text><text fill="#333" font-family="sans-serif" font-size="11" font-weight="bold" lengthAdjust="spacing" textLength="184.8945" x="504.7388" y="345.918">[if Kafka Producer is configured]</text><path d="m807.623 367.9043 10 4-10 4 4-4z" fill="#666" stroke="#666"/><path d="m516.3423 371.9043h297.2807" stroke="#666"/><text fill="#333" font-family="sans-serif" font-size="13" lengthAdjust="spacing" textLength="105.1743" x="523.3423" y="367.1621">Send transaction</text><path d="m527.3423 397.2148-10 4 10 4-4-4z" fill="#666" stroke="#666"/><path d="m521.3423 401.2148h302.2807" stroke="#666" stroke-dasharray="2 2"/><text fill="#333" font-family="sans-serif" font-size="13" lengthAdjust="spacing" textLength="82.894" x="533.3423" y="396.4727">Confirmation</text><path d="m427.6001 410.2148h550.4228" stroke="#000" stroke-dasharray="2 2"/><text fill="#333" font-family="sans-serif" font-size="11" font-weight="bold" lengthAdjust="spacing" textLength="112.3525" x="432.6001" y="420.8496">[if direct validation]</text><path d="m913.48 441.4805 10 4-10 4 4-4z" fill="#666" stroke="#666"/><path d="m516.3423 445.4805h403.1377" stroke="#666"/><text fill="#333" font-family="sans-serif" font-size="13" lengthAdjust="spacing" textLength="99.6709" x="523.3423" y="440.7383">Validate(ctx, tx)</text><path d="m527.3423 470.791-10 4 10 4-4-4z" fill="#666" stroke="#666"/><path d="m521.3423 474.791h408.1377" stroke="#666" stroke-dasharray="2 2"/><text fill="#333" font-family="sans-serif" font-size="13" lengthAdjust="spacing" textLength="102.0068" x="533.3423" y="470.0488">ValidationResult</text><path d="m339.6104 514.1016-10 4 10 4-4-4z" fill="#666" stroke="#666"/><path d="m333.6104 518.1016h166.7319" stroke="#666" stroke-dasharray="2 2"/><text fill="#333" font-family="sans-serif" font-size="13" lengthAdjust="spacing" textLength="148.7319" x="345.6104" y="513.3594">Transactions processed</text><path d="m77.833 543.4121-10 4 10 4-4-4z" fill="#666" stroke="#666"/><path d="m71.833 547.4121h245.7774" stroke="#666"/><text fill="#333" font-family="sans-serif" font-size="13" lengthAdjust="spacing" textLength="222.7773" x="83.833" y="542.6699">Response (implicit, as it's a stream)</text><text fill="#333" font-family="sans-serif" font-size="10" lengthAdjust="spacing" textLength="155.4346" y="613.5684">Last Modified On: 24-Feb-2025</text></svg>
