<svg contentStyleType="text/css" height="447" preserveAspectRatio="none" viewBox="0 0 972 447" width="972" xmlns="http://www.w3.org/2000/svg" zoomAndPan="magnify"><path d="m0 0h972v447h-972z" fill="#f0f8ff"/><path d="m323.3804 67.7988h10v310.0605h-10z" fill="#fff" stroke="#181818"/><path d="m519.4316 97.1094h10v251.4395h-10z" fill="#fff" stroke="#181818"/><path d="m703.4033 126.4199h10v29.3105h-10z" fill="#fff" stroke="#181818"/><path d="m807.1035 209.3516h10v29.3105h-10z" fill="#fff" stroke="#181818"/><path d="m912.9604 282.9277h10v29.3105h-10z" fill="#fff" stroke="#181818"/><path d="m445.6895 170.7305h519.814v149.5078h-519.814z" fill="none" stroke="#000" stroke-width="1.5"/><g stroke-width=".5"><path d="m51 36.4883v359.3711" stroke="#181818" stroke-dasharray="5 5"/><path d="m327.7407 36.4883v359.3711" stroke="#181818" stroke-dasharray="5 5"/><path d="m523.6895 36.4883v359.3711" stroke="#181818" stroke-dasharray="5 5"/><path d="m708.0171 36.4883v359.3711" stroke="#181818" stroke-dasharray="5 5"/><path d="m811.7896 36.4883v359.3711" stroke="#181818" stroke-dasharray="5 5"/><path d="m917.4175 36.4883v359.3711" stroke="#181818" stroke-dasharray="5 5"/><rect fill="#ddd" height="30.4883" rx="2.5" stroke="#666" width="92.9414" x="5" y="5"/></g><text fill="#333" font-family="sans-serif" font-size="14" lengthAdjust="spacing" textLength="78.9414" x="12" y="25.5352">gRPC Client</text><rect fill="#ddd" height="30.4883" rx="2.5" stroke="#666" stroke-width=".5" width="92.9414" x="5" y="394.8594"/><text fill="#333" font-family="sans-serif" font-size="14" lengthAdjust="spacing" textLength="78.9414" x="12" y="415.3945">gRPC Client</text><rect fill="#ddd" height="30.4883" rx="2.5" stroke="#666" stroke-width=".5" width="95.2793" x="280.7407" y="5"/><text fill="#333" font-family="sans-serif" font-size="14" lengthAdjust="spacing" textLength="81.2793" x="287.7407" y="25.5352">gRPC Server</text><rect fill="#ddd" height="30.4883" rx="2.5" stroke="#666" stroke-width=".5" width="95.2793" x="280.7407" y="394.8594"/><text fill="#333" font-family="sans-serif" font-size="14" lengthAdjust="spacing" textLength="81.2793" x="287.7407" y="415.3945">gRPC Server</text><rect fill="#ddd" height="30.4883" rx="2.5" stroke="#666" stroke-width=".5" width="137.4844" x="455.6895" y="5"/><text fill="#333" font-family="sans-serif" font-size="14" lengthAdjust="spacing" textLength="123.4844" x="462.6895" y="25.5352">PropagationServer</text><rect fill="#ddd" height="30.4883" rx="2.5" stroke="#666" stroke-width=".5" width="137.4844" x="455.6895" y="394.8594"/><text fill="#333" font-family="sans-serif" font-size="14" lengthAdjust="spacing" textLength="123.4844" x="462.6895" y="415.3945">PropagationServer</text><rect fill="#ddd" height="30.4883" rx="2.5" stroke="#666" stroke-width=".5" width="70.7725" x="673.0171" y="5"/><text fill="#333" font-family="sans-serif" font-size="14" lengthAdjust="spacing" textLength="56.7725" x="680.0171" y="25.5352">Tx Store</text><rect fill="#ddd" height="30.4883" rx="2.5" stroke="#666" stroke-width=".5" width="70.7725" x="673.0171" y="394.8594"/><text fill="#333" font-family="sans-serif" font-size="14" lengthAdjust="spacing" textLength="56.7725" x="680.0171" y="415.3945">Tx Store</text><rect fill="#ddd" height="30.4883" rx="2.5" stroke="#666" stroke-width=".5" width="116.6279" x="753.7896" y="5"/><text fill="#333" font-family="sans-serif" font-size="14" lengthAdjust="spacing" textLength="102.6279" x="760.7896" y="25.5352">Kafka Producer</text><rect fill="#ddd" height="30.4883" rx="2.5" stroke="#666" stroke-width=".5" width="116.6279" x="753.7896" y="394.8594"/><text fill="#333" font-family="sans-serif" font-size="14" lengthAdjust="spacing" textLength="102.6279" x="760.7896" y="415.3945">Kafka Producer</text><rect fill="#ddd" height="30.4883" rx="2.5" stroke="#666" stroke-width=".5" width="75.0859" x="880.4175" y="5"/><text fill="#333" font-family="sans-serif" font-size="14" lengthAdjust="spacing" textLength="61.0859" x="887.4175" y="25.5352">Validator</text><rect fill="#ddd" height="30.4883" rx="2.5" stroke="#666" stroke-width=".5" width="75.0859" x="880.4175" y="394.8594"/><text fill="#333" font-family="sans-serif" font-size="14" lengthAdjust="spacing" textLength="61.0859" x="887.4175" y="415.3945">Validator</text><path d="m323.3804 67.7988h10v310.0605h-10z" fill="#fff" stroke="#181818"/><path d="m519.4316 97.1094h10v251.4395h-10z" fill="#fff" stroke="#181818"/><path d="m703.4033 126.4199h10v29.3105h-10z" fill="#fff" stroke="#181818"/><path d="m807.1035 209.3516h10v29.3105h-10z" fill="#fff" stroke="#181818"/><path d="m912.9604 282.9277h10v29.3105h-10z" fill="#fff" stroke="#181818"/><path d="m311.3804 63.7988 10 4-10 4 4-4z" fill="#666" stroke="#666"/><path d="m51.4707 67.7988h265.9097" stroke="#666"/><text fill="#333" font-family="sans-serif" font-size="13" lengthAdjust="spacing" textLength="252.9097" x="58.4707" y="63.0566">Send gRPC request (ProcessTransaction)</text><path d="m507.4316 93.1094 10 4-10 4 4-4z" fill="#666" stroke="#666"/><path d="m333.3804 97.1094h180.0512" stroke="#666"/><text fill="#333" font-family="sans-serif" font-size="13" lengthAdjust="spacing" textLength="167.0513" x="340.3804" y="92.3672">Invoke ProcessTransaction</text><path d="m691.4033 122.4199 10 4-10 4 4-4z" fill="#666" stroke="#666"/><path d="m529.4316 126.4199h167.9717" stroke="#666"/><text fill="#333" font-family="sans-serif" font-size="13" lengthAdjust="spacing" textLength="154.9717" x="536.4316" y="121.6777">storeTransaction(ctx, tx)</text><path d="m540.4316 151.7305-10 4 10 4-4-4z" fill="#666" stroke="#666"/><path d="m534.4316 155.7305h172.9717" stroke="#666" stroke-dasharray="2 2"/><text fill="#333" font-family="sans-serif" font-size="13" lengthAdjust="spacing" textLength="132.3677" x="546.4316" y="150.9883">Storage confirmation</text><path d="m445.6895 170.7305h62.1386v7.3105l-10 10h-52.1386z" fill="#eee" stroke="#000" stroke-width="1.5"/><path d="m445.6895 170.7305h519.814v149.5078h-519.814z" fill="none" stroke="#000" stroke-width="1.5"/><text fill="#333" font-family="sans-serif" font-size="13" font-weight="bold" lengthAdjust="spacing" textLength="17.1387" x="460.6895" y="184.2988">alt</text><text fill="#333" font-family="sans-serif" font-size="11" font-weight="bold" lengthAdjust="spacing" textLength="184.8945" x="522.8281" y="183.3652">[if Kafka Producer is configured]</text><path d="m795.1035 205.3516 10 4-10 4 4-4z" fill="#666" stroke="#666"/><path d="m529.4316 209.3516h271.6719" stroke="#666"/><text fill="#333" font-family="sans-serif" font-size="13" lengthAdjust="spacing" textLength="105.1743" x="536.4316" y="204.6094">Send transaction</text><path d="m540.4316 234.6621-10 4 10 4-4-4z" fill="#666" stroke="#666"/><path d="m534.4316 238.6621h276.6719" stroke="#666" stroke-dasharray="2 2"/><text fill="#333" font-family="sans-serif" font-size="13" lengthAdjust="spacing" textLength="82.894" x="546.4316" y="233.9199">Confirmation</text><path d="m445.6895 247.6621h519.8139" stroke="#000" stroke-dasharray="2 2"/><text fill="#333" font-family="sans-serif" font-size="11" font-weight="bold" lengthAdjust="spacing" textLength="112.3525" x="450.6895" y="258.2969">[if direct validation]</text><path d="m900.9604 278.9277 10 4-10 4 4-4z" fill="#666" stroke="#666"/><path d="m529.4316 282.9277h377.5288" stroke="#666"/><text fill="#333" font-family="sans-serif" font-size="13" lengthAdjust="spacing" textLength="99.6709" x="536.4316" y="278.1855">Validate(ctx, tx)</text><path d="m540.4316 308.2383-10 4 10 4-4-4z" fill="#666" stroke="#666"/><path d="m534.4316 312.2383h382.5288" stroke="#666" stroke-dasharray="2 2"/><text fill="#333" font-family="sans-serif" font-size="13" lengthAdjust="spacing" textLength="124.6362" x="546.4316" y="307.4961">Validation response</text><path d="m344.3804 344.5488-10 4 10 4-4-4z" fill="#666" stroke="#666"/><path d="m338.3804 348.5488h185.0512" stroke="#666" stroke-dasharray="2 2"/><text fill="#333" font-family="sans-serif" font-size="13" lengthAdjust="spacing" textLength="91.9014" x="350.3804" y="343.8066">Send response</text><path d="m62.4707 373.8594-10 4 10 4-4-4z" fill="#666" stroke="#666"/><path d="m56.4707 377.8594h270.9097" stroke="#666"/><text fill="#333" font-family="sans-serif" font-size="13" lengthAdjust="spacing" textLength="103.1875" x="68.4707" y="373.1172">Return response</text><text fill="#333" font-family="sans-serif" font-size="10" lengthAdjust="spacing" textLength="155.4346" y="437.0156">Last Modified On: 24-Feb-2025</text></svg>
