<svg xmlns="http://www.w3.org/2000/svg" xmlns:xlink="http://www.w3.org/1999/xlink" contentStyleType="text/css" height="608px" preserveAspectRatio="none" style="width:892px;height:608px;background:#F0F8FF;" version="1.1" viewBox="0 0 892 608" width="892px" zoomAndPan="magnify"><defs/><g><rect fill="#F0F8FF" height="608" style="stroke:none;stroke-width:1.0;" width="892" x="0" y="0"/><rect fill="#FFFFFF" height="492.2793" style="stroke:#181818;stroke-width:1.0;" width="10" x="85.957" y="46.4883"/><rect fill="#FFFFFF" height="29.3105" style="stroke:#181818;stroke-width:1.0;" width="10" x="445.7046" y="333.5938"/><rect fill="#FFFFFF" height="29.3105" style="stroke:#181818;stroke-width:1.0;" width="10" x="561.4668" y="509.457"/><rect fill="#FFFFFF" height="29.3105" style="stroke:#181818;stroke-width:1.0;" width="10" x="677.4204" y="450.8359"/><rect fill="none" height="134.5527" style="stroke:#000000;stroke-width:1.5;" width="876.6182" x="10" y="112.1094"/><line style="stroke:#181818;stroke-width:0.5;stroke-dasharray:5.0,5.0;" x1="90" x2="90" y1="36.4883" y2="556.7676"/><line style="stroke:#181818;stroke-width:0.5;stroke-dasharray:5.0,5.0;" x1="302.4365" x2="302.4365" y1="36.4883" y2="556.7676"/><line style="stroke:#181818;stroke-width:0.5;stroke-dasharray:5.0,5.0;" x1="450.582" x2="450.582" y1="36.4883" y2="556.7676"/><line style="stroke:#181818;stroke-width:0.5;stroke-dasharray:5.0,5.0;" x1="565.8271" x2="565.8271" y1="36.4883" y2="556.7676"/><line style="stroke:#181818;stroke-width:0.5;stroke-dasharray:5.0,5.0;" x1="682.1064" x2="682.1064" y1="36.4883" y2="556.7676"/><line style="stroke:#181818;stroke-width:0.5;stroke-dasharray:5.0,5.0;" x1="812.7344" x2="812.7344" y1="36.4883" y2="556.7676"/><rect fill="#DDDDDD" height="30.4883" rx="2.5" ry="2.5" style="stroke:#666666;stroke-width:0.5;" width="141.9141" x="20" y="5"/><text fill="#333333" font-family="sans-serif" font-size="14" lengthAdjust="spacing" textLength="127.9141" x="27" y="25.5352">Propagation Server</text><rect fill="#DDDDDD" height="30.4883" rx="2.5" ry="2.5" style="stroke:#666666;stroke-width:0.5;" width="141.9141" x="20" y="555.7676"/><text fill="#333333" font-family="sans-serif" font-size="14" lengthAdjust="spacing" textLength="127.9141" x="27" y="576.3027">Propagation Server</text><rect fill="#DDDDDD" height="30.4883" rx="2.5" ry="2.5" style="stroke:#666666;stroke-width:0.5;" width="160.1455" x="222.4365" y="5"/><text fill="#333333" font-family="sans-serif" font-size="14" lengthAdjust="spacing" textLength="146.1455" x="229.4365" y="25.5352">Configuration System</text><rect fill="#DDDDDD" height="30.4883" rx="2.5" ry="2.5" style="stroke:#666666;stroke-width:0.5;" width="160.1455" x="222.4365" y="555.7676"/><text fill="#333333" font-family="sans-serif" font-size="14" lengthAdjust="spacing" textLength="146.1455" x="229.4365" y="576.3027">Configuration System</text><rect fill="#DDDDDD" height="30.4883" rx="2.5" ry="2.5" style="stroke:#666666;stroke-width:0.5;" width="116.2451" x="392.582" y="5"/><text fill="#333333" font-family="sans-serif" font-size="14" lengthAdjust="spacing" textLength="102.2451" x="399.582" y="25.5352">UDP6 Listeners</text><rect fill="#DDDDDD" height="30.4883" rx="2.5" ry="2.5" style="stroke:#666666;stroke-width:0.5;" width="116.2451" x="392.582" y="555.7676"/><text fill="#333333" font-family="sans-serif" font-size="14" lengthAdjust="spacing" textLength="102.2451" x="399.582" y="576.3027">UDP6 Listeners</text><rect fill="#DDDDDD" height="30.4883" rx="2.5" ry="2.5" style="stroke:#666666;stroke-width:0.5;" width="95.2793" x="518.8271" y="5"/><text fill="#333333" font-family="sans-serif" font-size="14" lengthAdjust="spacing" textLength="81.2793" x="525.8271" y="25.5352">gRPC Server</text><rect fill="#DDDDDD" height="30.4883" rx="2.5" ry="2.5" style="stroke:#666666;stroke-width:0.5;" width="95.2793" x="518.8271" y="555.7676"/><text fill="#333333" font-family="sans-serif" font-size="14" lengthAdjust="spacing" textLength="81.2793" x="525.8271" y="576.3027">gRPC Server</text><rect fill="#DDDDDD" height="30.4883" rx="2.5" ry="2.5" style="stroke:#666666;stroke-width:0.5;" width="116.6279" x="624.1064" y="5"/><text fill="#333333" font-family="sans-serif" font-size="14" lengthAdjust="spacing" textLength="102.6279" x="631.1064" y="25.5352">Kafka Producer</text><rect fill="#DDDDDD" height="30.4883" rx="2.5" ry="2.5" style="stroke:#666666;stroke-width:0.5;" width="116.6279" x="624.1064" y="555.7676"/><text fill="#333333" font-family="sans-serif" font-size="14" lengthAdjust="spacing" textLength="102.6279" x="631.1064" y="576.3027">Kafka Producer</text><rect fill="#DDDDDD" height="30.4883" rx="2.5" ry="2.5" style="stroke:#666666;stroke-width:0.5;" width="125.8838" x="750.7344" y="5"/><text fill="#333333" font-family="sans-serif" font-size="14" lengthAdjust="spacing" textLength="111.8838" x="757.7344" y="25.5352">BlockchainClient</text><rect fill="#DDDDDD" height="30.4883" rx="2.5" ry="2.5" style="stroke:#666666;stroke-width:0.5;" width="125.8838" x="750.7344" y="555.7676"/><text fill="#333333" font-family="sans-serif" font-size="14" lengthAdjust="spacing" textLength="111.8838" x="757.7344" y="576.3027">BlockchainClient</text><rect fill="#FFFFFF" height="492.2793" style="stroke:#181818;stroke-width:1.0;" width="10" x="85.957" y="46.4883"/><rect fill="#FFFFFF" height="29.3105" style="stroke:#181818;stroke-width:1.0;" width="10" x="445.7046" y="333.5938"/><rect fill="#FFFFFF" height="29.3105" style="stroke:#181818;stroke-width:1.0;" width="10" x="561.4668" y="509.457"/><rect fill="#FFFFFF" height="29.3105" style="stroke:#181818;stroke-width:1.0;" width="10" x="677.4204" y="450.8359"/><polygon fill="#666666" points="290.5093,63.7988,300.5093,67.7988,290.5093,71.7988,294.5093,67.7988" style="stroke:#666666;stroke-width:1.0;"/><line style="stroke:#666666;stroke-width:1.0;" x1="95.957" x2="296.5093" y1="67.7988" y2="67.7988"/><text fill="#333333" font-family="sans-serif" font-size="13" lengthAdjust="spacing" textLength="137.5283" x="102.957" y="63.0566">Get fsm_state_restore</text><polygon fill="#666666" points="106.957,93.1094,96.957,97.1094,106.957,101.1094,102.957,97.1094" style="stroke:#666666;stroke-width:1.0;"/><line style="stroke:#666666;stroke-width:1.0;stroke-dasharray:2.0,2.0;" x1="100.957" x2="301.5093" y1="97.1094" y2="97.1094"/><text fill="#333333" font-family="sans-serif" font-size="13" lengthAdjust="spacing" textLength="102.1909" x="112.957" y="92.3672">fsmStateRestore</text><path d="M10,112.1094 L72.1387,112.1094 L72.1387,119.4199 L62.1387,129.4199 L10,129.4199 L10,112.1094 " fill="#EEEEEE" style="stroke:#000000;stroke-width:1.5;"/><rect fill="none" height="134.5527" style="stroke:#000000;stroke-width:1.5;" width="876.6182" x="10" y="112.1094"/><text fill="#333333" font-family="sans-serif" font-size="13" font-weight="bold" lengthAdjust="spacing" textLength="17.1387" x="25" y="125.6777">alt</text><text fill="#333333" font-family="sans-serif" font-size="11" font-weight="bold" lengthAdjust="spacing" textLength="152.8345" x="87.1387" y="124.7441">[if fsmStateRestore is true]</text><polygon fill="#666666" points="801.6763,146.7305,811.6763,150.7305,801.6763,154.7305,805.6763,150.7305" style="stroke:#666666;stroke-width:1.0;"/><line style="stroke:#666666;stroke-width:1.0;" x1="95.957" x2="807.6763" y1="150.7305" y2="150.7305"/><text fill="#333333" font-family="sans-serif" font-size="13" lengthAdjust="spacing" textLength="55.9546" x="102.957" y="145.9883">Restore()</text><polygon fill="#666666" points="106.957,176.041,96.957,180.041,106.957,184.041,102.957,180.041" style="stroke:#666666;stroke-width:1.0;"/><line style="stroke:#666666;stroke-width:1.0;stroke-dasharray:2.0,2.0;" x1="100.957" x2="812.6763" y1="180.041" y2="180.041"/><text fill="#333333" font-family="sans-serif" font-size="13" lengthAdjust="spacing" textLength="55.6816" x="112.957" y="175.2988">Restored</text><polygon fill="#666666" points="801.6763,205.3516,811.6763,209.3516,801.6763,213.3516,805.6763,209.3516" style="stroke:#666666;stroke-width:1.0;"/><line style="stroke:#666666;stroke-width:1.0;" x1="95.957" x2="807.6763" y1="209.3516" y2="209.3516"/><text fill="#333333" font-family="sans-serif" font-size="13" lengthAdjust="spacing" textLength="299.2349" x="102.957" y="204.6094">WaitForFSMtoTransitionToGivenState(RUNNING)</text><polygon fill="#666666" points="106.957,234.6621,96.957,238.6621,106.957,242.6621,102.957,238.6621" style="stroke:#666666;stroke-width:1.0;"/><line style="stroke:#666666;stroke-width:1.0;stroke-dasharray:2.0,2.0;" x1="100.957" x2="812.6763" y1="238.6621" y2="238.6621"/><text fill="#333333" font-family="sans-serif" font-size="13" lengthAdjust="spacing" textLength="139.2866" x="112.957" y="233.9199">FSM in RUNNING state</text><polygon fill="#666666" points="290.5093,270.9727,300.5093,274.9727,290.5093,278.9727,294.5093,274.9727" style="stroke:#666666;stroke-width:1.0;"/><line style="stroke:#666666;stroke-width:1.0;" x1="95.957" x2="296.5093" y1="274.9727" y2="274.9727"/><text fill="#333333" font-family="sans-serif" font-size="13" lengthAdjust="spacing" textLength="122.2305" x="102.957" y="270.2305">Get ipv6_addresses</text><polygon fill="#666666" points="106.957,300.2832,96.957,304.2832,106.957,308.2832,102.957,304.2832" style="stroke:#666666;stroke-width:1.0;"/><line style="stroke:#666666;stroke-width:1.0;stroke-dasharray:2.0,2.0;" x1="100.957" x2="301.5093" y1="304.2832" y2="304.2832"/><text fill="#333333" font-family="sans-serif" font-size="13" lengthAdjust="spacing" textLength="91.9077" x="112.957" y="299.541">ipv6Addresses</text><polygon fill="#666666" points="433.7046,329.5938,443.7046,333.5938,433.7046,337.5938,437.7046,333.5938" style="stroke:#666666;stroke-width:1.0;"/><line style="stroke:#666666;stroke-width:1.0;" x1="95.957" x2="439.7046" y1="333.5938" y2="333.5938"/><text fill="#333333" font-family="sans-serif" font-size="13" lengthAdjust="spacing" textLength="248.1362" x="102.957" y="328.8516">StartUDP6Listeners(ctx, ipv6Addresses)</text><polygon fill="#666666" points="106.957,358.9043,96.957,362.9043,106.957,366.9043,102.957,362.9043" style="stroke:#666666;stroke-width:1.0;"/><line style="stroke:#666666;stroke-width:1.0;stroke-dasharray:2.0,2.0;" x1="100.957" x2="449.7046" y1="362.9043" y2="362.9043"/><text fill="#333333" font-family="sans-serif" font-size="13" lengthAdjust="spacing" textLength="146.7832" x="112.957" y="358.1621">Listeners started/failed</text><polygon fill="#666666" points="290.5093,388.2148,300.5093,392.2148,290.5093,396.2148,294.5093,392.2148" style="stroke:#666666;stroke-width:1.0;"/><line style="stroke:#666666;stroke-width:1.0;" x1="95.957" x2="296.5093" y1="392.2148" y2="392.2148"/><text fill="#333333" font-family="sans-serif" font-size="13" lengthAdjust="spacing" textLength="182.5522" x="102.957" y="387.4727">Get kafka_validatortxsConfig</text><polygon fill="#666666" points="106.957,417.5254,96.957,421.5254,106.957,425.5254,102.957,421.5254" style="stroke:#666666;stroke-width:1.0;"/><line style="stroke:#666666;stroke-width:1.0;stroke-dasharray:2.0,2.0;" x1="100.957" x2="301.5093" y1="421.5254" y2="421.5254"/><text fill="#333333" font-family="sans-serif" font-size="13" lengthAdjust="spacing" textLength="76.0259" x="112.957" y="416.7832">kafkaConfig</text><polygon fill="#666666" points="665.4204,446.8359,675.4204,450.8359,665.4204,454.8359,669.4204,450.8359" style="stroke:#666666;stroke-width:1.0;"/><line style="stroke:#666666;stroke-width:1.0;" x1="95.957" x2="671.4204" y1="450.8359" y2="450.8359"/><text fill="#333333" font-family="sans-serif" font-size="13" lengthAdjust="spacing" textLength="134.7671" x="102.957" y="446.0938">Setup Kafka Producer</text><polygon fill="#666666" points="106.957,476.1465,96.957,480.1465,106.957,484.1465,102.957,480.1465" style="stroke:#666666;stroke-width:1.0;"/><line style="stroke:#666666;stroke-width:1.0;stroke-dasharray:2.0,2.0;" x1="100.957" x2="681.4204" y1="480.1465" y2="480.1465"/><text fill="#333333" font-family="sans-serif" font-size="13" lengthAdjust="spacing" textLength="134.126" x="112.957" y="475.4043">Kafka Producer ready</text><polygon fill="#666666" points="549.4668,505.457,559.4668,509.457,549.4668,513.457,553.4668,509.457" style="stroke:#666666;stroke-width:1.0;"/><line style="stroke:#666666;stroke-width:1.0;" x1="95.957" x2="555.4668" y1="509.457" y2="509.457"/><text fill="#333333" font-family="sans-serif" font-size="13" lengthAdjust="spacing" textLength="224.5674" x="102.957" y="504.7148">StartGRPCServer(ctx, "propagation")</text><polygon fill="#666666" points="101.957,534.7676,91.957,538.7676,101.957,542.7676,97.957,538.7676" style="stroke:#666666;stroke-width:1.0;"/><line style="stroke:#666666;stroke-width:1.0;stroke-dasharray:2.0,2.0;" x1="95.957" x2="565.4668" y1="538.7676" y2="538.7676"/><text fill="#333333" font-family="sans-serif" font-size="13" lengthAdjust="spacing" textLength="165.5786" x="107.957" y="534.0254">gRPC Server started/failed</text><text fill="#333333" font-family="sans-serif" font-size="10" lengthAdjust="spacing" textLength="156.4355" x="0" y="597.9238">Last Modified On: 25-Mar-2025</text><!--SRC=[fPDVYnen4C3Vyoa6I-aTL5eeIF6XK5TMIayhUaSV9RUPjS6OI9Ar9wNVlPDipisAruSs3vhD_ER_ZDj9VU2Mx-6HLxkjDOqMXL76mgloVVcnB9ax4m9htYXV6kqJyY6U3E7Mcfz9E8g7iJSmnLfgX4TZ1Le7DKcvKe0AzwYzo_JfK_eJ_680aqZtRT7hPPJJUDXlbbcfA49hrF-QeLylAtdWsl-RAJgvZS7IcWFVSY-DXZNQ8ze1S9UkVRGmkfRRnYRuv3pk8zmA-l33T3c2EqcCflf6B3nTUD-kbaNkDdptYQ-ytd6WA4LJ9IW-zQc9CjMk-i6bBfIaXaLkKZ36Ao-FtEDpGgpzX-6d5FKOPkYXTlkDyyHjB3flBB9M2aC2MvLnWDQ1MIM4SUL1rfVl81ruso3r0Q1pDod6a8YRsoYR53tpIIYkw7tdaaRSbkkvD_UMQoT32-xDJ1vHHzytguV5uijYTjKowO7Ka128YJBKugLgoCDnjE52K2qSkckb2CJdCz1P2IqU0qLaVRYU-tzJ-QUtVQtRhZTnCEB0v3xEoY5Wwr6ygxbKL1-1VSsNqjY5ETaSkPA2KsNzaqk3UYMXo2PnPorE6kM3lZb0VnAxwDjnRAMvoJuF5hauvR6tUfctCFofU3EwjeAsSeD3jwQ3h79nN-8IvPwphVfBxQ9k_l2y8WfhsWXZFAdVSUTXReIi9GhufiVmMeHn6mWndC_dmnCT2kWF]--></g></svg>
