<svg xmlns="http://www.w3.org/2000/svg" xmlns:xlink="http://www.w3.org/1999/xlink" contentStyleType="text/css" height="623px" preserveAspectRatio="none" style="width:1004px;height:623px;background:#FFFFFF;" version="1.1" viewBox="0 0 1004 623" width="1004px" zoomAndPan="magnify"><defs/><g><rect fill="#FFFFFF" height="425.9922" style="stroke:#181818;stroke-width:1.0;" width="10" x="61.833" y="121.4199"/><rect fill="#FFFFFF" height="494.6133" style="stroke:#181818;stroke-width:1.0;" width="10" x="318.6104" y="67.7988"/><rect fill="#FFFFFF" height="516.9238" style="stroke:#181818;stroke-width:1.0;" width="10" x="501.3423" y="46.4883"/><rect fill="#FFFFFF" height="367.3711" style="stroke:#181818;stroke-width:1.0;" width="10" x="506.3423" y="150.7305"/><rect fill="#FFFFFF" height="29.3105" style="stroke:#181818;stroke-width:1.0;" width="10" x="715.9229" y="288.9727"/><rect fill="#FFFFFF" height="29.3105" style="stroke:#181818;stroke-width:1.0;" width="10" x="819.623" y="371.9043"/><rect fill="#FFFFFF" height="29.3105" style="stroke:#181818;stroke-width:1.0;" width="10" x="925.48" y="445.4805"/><rect fill="none" height="472.6133" style="stroke:#000000;stroke-width:1.5;" width="988.0229" x="10" y="82.7988"/><rect fill="none" height="324.0605" style="stroke:#000000;stroke-width:1.5;" width="570.4229" x="417.6001" y="165.7305"/><rect fill="none" height="149.5078" style="stroke:#000000;stroke-width:1.5;" width="550.4229" x="427.6001" y="333.2832"/><line style="stroke:#181818;stroke-width:0.5;stroke-dasharray:5.0,5.0;" x1="66" x2="66" y1="36.4883" y2="572.4121"/><line style="stroke:#181818;stroke-width:0.5;stroke-dasharray:5.0,5.0;" x1="323.6084" x2="323.6084" y1="36.4883" y2="572.4121"/><line style="stroke:#181818;stroke-width:0.5;stroke-dasharray:5.0,5.0;" x1="505.6001" x2="505.6001" y1="36.4883" y2="572.4121"/><line style="stroke:#181818;stroke-width:0.5;stroke-dasharray:5.0,5.0;" x1="720.5366" x2="720.5366" y1="36.4883" y2="572.4121"/><line style="stroke:#181818;stroke-width:0.5;stroke-dasharray:5.0,5.0;" x1="824.3091" x2="824.3091" y1="36.4883" y2="572.4121"/><line style="stroke:#181818;stroke-width:0.5;stroke-dasharray:5.0,5.0;" x1="929.937" x2="929.937" y1="36.4883" y2="572.4121"/><rect fill="#E2E2F0" height="30.4883" rx="2.5" ry="2.5" style="stroke:#181818;stroke-width:0.5;" width="93.666" x="20" y="5"/><text fill="#000000" font-family="sans-serif" font-size="14" lengthAdjust="spacing" textLength="79.666" x="27" y="25.5352">HTTP Client</text><rect fill="#E2E2F0" height="30.4883" rx="2.5" ry="2.5" style="stroke:#181818;stroke-width:0.5;" width="93.666" x="20" y="571.4121"/><text fill="#000000" font-family="sans-serif" font-size="14" lengthAdjust="spacing" textLength="79.666" x="27" y="591.9473">HTTP Client</text><rect fill="#E2E2F0" height="30.4883" rx="2.5" ry="2.5" style="stroke:#181818;stroke-width:0.5;" width="96.0039" x="275.6084" y="5"/><text fill="#000000" font-family="sans-serif" font-size="14" lengthAdjust="spacing" textLength="82.0039" x="282.6084" y="25.5352">HTTP Server</text><rect fill="#E2E2F0" height="30.4883" rx="2.5" ry="2.5" style="stroke:#181818;stroke-width:0.5;" width="96.0039" x="275.6084" y="571.4121"/><text fill="#000000" font-family="sans-serif" font-size="14" lengthAdjust="spacing" textLength="82.0039" x="282.6084" y="591.9473">HTTP Server</text><rect fill="#E2E2F0" height="30.4883" rx="2.5" ry="2.5" style="stroke:#181818;stroke-width:0.5;" width="137.4844" x="437.6001" y="5"/><text fill="#000000" font-family="sans-serif" font-size="14" lengthAdjust="spacing" textLength="123.4844" x="444.6001" y="25.5352">PropagationServer</text><rect fill="#E2E2F0" height="30.4883" rx="2.5" ry="2.5" style="stroke:#181818;stroke-width:0.5;" width="137.4844" x="437.6001" y="571.4121"/><text fill="#000000" font-family="sans-serif" font-size="14" lengthAdjust="spacing" textLength="123.4844" x="444.6001" y="591.9473">PropagationServer</text><rect fill="#E2E2F0" height="30.4883" rx="2.5" ry="2.5" style="stroke:#181818;stroke-width:0.5;" width="70.7725" x="685.5366" y="5"/><text fill="#000000" font-family="sans-serif" font-size="14" lengthAdjust="spacing" textLength="56.7725" x="692.5366" y="25.5352">Tx Store</text><rect fill="#E2E2F0" height="30.4883" rx="2.5" ry="2.5" style="stroke:#181818;stroke-width:0.5;" width="70.7725" x="685.5366" y="571.4121"/><text fill="#000000" font-family="sans-serif" font-size="14" lengthAdjust="spacing" textLength="56.7725" x="692.5366" y="591.9473">Tx Store</text><rect fill="#E2E2F0" height="30.4883" rx="2.5" ry="2.5" style="stroke:#181818;stroke-width:0.5;" width="116.6279" x="766.3091" y="5"/><text fill="#000000" font-family="sans-serif" font-size="14" lengthAdjust="spacing" textLength="102.6279" x="773.3091" y="25.5352">Kafka Producer</text><rect fill="#E2E2F0" height="30.4883" rx="2.5" ry="2.5" style="stroke:#181818;stroke-width:0.5;" width="116.6279" x="766.3091" y="571.4121"/><text fill="#000000" font-family="sans-serif" font-size="14" lengthAdjust="spacing" textLength="102.6279" x="773.3091" y="591.9473">Kafka Producer</text><rect fill="#E2E2F0" height="30.4883" rx="2.5" ry="2.5" style="stroke:#181818;stroke-width:0.5;" width="75.0859" x="892.937" y="5"/><text fill="#000000" font-family="sans-serif" font-size="14" lengthAdjust="spacing" textLength="61.0859" x="899.937" y="25.5352">Validator</text><rect fill="#E2E2F0" height="30.4883" rx="2.5" ry="2.5" style="stroke:#181818;stroke-width:0.5;" width="75.0859" x="892.937" y="571.4121"/><text fill="#000000" font-family="sans-serif" font-size="14" lengthAdjust="spacing" textLength="61.0859" x="899.937" y="591.9473">Validator</text><rect fill="#FFFFFF" height="425.9922" style="stroke:#181818;stroke-width:1.0;" width="10" x="61.833" y="121.4199"/><rect fill="#FFFFFF" height="494.6133" style="stroke:#181818;stroke-width:1.0;" width="10" x="318.6104" y="67.7988"/><rect fill="#FFFFFF" height="516.9238" style="stroke:#181818;stroke-width:1.0;" width="10" x="501.3423" y="46.4883"/><rect fill="#FFFFFF" height="367.3711" style="stroke:#181818;stroke-width:1.0;" width="10" x="506.3423" y="150.7305"/><rect fill="#FFFFFF" height="29.3105" style="stroke:#181818;stroke-width:1.0;" width="10" x="715.9229" y="288.9727"/><rect fill="#FFFFFF" height="29.3105" style="stroke:#181818;stroke-width:1.0;" width="10" x="819.623" y="371.9043"/><rect fill="#FFFFFF" height="29.3105" style="stroke:#181818;stroke-width:1.0;" width="10" x="925.48" y="445.4805"/><polygon fill="#181818" points="339.6104,63.7988,329.6104,67.7988,339.6104,71.7988,335.6104,67.7988" style="stroke:#181818;stroke-width:1.0;"/><line style="stroke:#181818;stroke-width:1.0;" x1="333.6104" x2="500.3423" y1="67.7988" y2="67.7988"/><text fill="#000000" font-family="sans-serif" font-size="13" lengthAdjust="spacing" textLength="131.2061" x="345.6104" y="63.0566">Setup HTTP handlers</text><path d="M10,82.7988 L84.4468,82.7988 L84.4468,90.1094 L74.4468,100.1094 L10,100.1094 L10,82.7988 " fill="#EEEEEE" style="stroke:#000000;stroke-width:1.5;"/><rect fill="none" height="472.6133" style="stroke:#000000;stroke-width:1.5;" width="988.0229" x="10" y="82.7988"/><text fill="#000000" font-family="sans-serif" font-size="13" font-weight="bold" lengthAdjust="spacing" textLength="29.4468" x="25" y="96.3672">loop</text><text fill="#000000" font-family="sans-serif" font-size="11" font-weight="bold" lengthAdjust="spacing" textLength="142.7798" x="99.4468" y="95.4336">[HTTP Request Handling]</text><polygon fill="#181818" points="306.6104,117.4199,316.6104,121.4199,306.6104,125.4199,310.6104,121.4199" style="stroke:#181818;stroke-width:1.0;"/><line style="stroke:#181818;stroke-width:1.0;" x1="71.833" x2="312.6104" y1="121.4199" y2="121.4199"/><text fill="#000000" font-family="sans-serif" font-size="13" lengthAdjust="spacing" textLength="56.272" x="78.833" y="116.6777">POST /tx</text><polygon fill="#181818" points="494.3423,146.7305,504.3423,150.7305,494.3423,154.7305,498.3423,150.7305" style="stroke:#181818;stroke-width:1.0;"/><line style="stroke:#181818;stroke-width:1.0;" x1="328.6104" x2="500.3423" y1="150.7305" y2="150.7305"/><text fill="#000000" font-family="sans-serif" font-size="13" lengthAdjust="spacing" textLength="118.2568" x="335.6104" y="145.9883">handleStream(w, r)</text><path d="M417.6001,165.7305 L492.0469,165.7305 L492.0469,173.041 L482.0469,183.041 L417.6001,183.041 L417.6001,165.7305 " fill="#EEEEEE" style="stroke:#000000;stroke-width:1.5;"/><rect fill="none" height="324.0605" style="stroke:#000000;stroke-width:1.5;" width="570.4229" x="417.6001" y="165.7305"/><text fill="#000000" font-family="sans-serif" font-size="13" font-weight="bold" lengthAdjust="spacing" textLength="29.4468" x="432.6001" y="179.2988">loop</text><text fill="#000000" font-family="sans-serif" font-size="11" font-weight="bold" lengthAdjust="spacing" textLength="179.2656" x="507.0469" y="178.3652">[for each transaction in stream]</text><line style="stroke:#181818;stroke-width:1.0;" x1="516.3423" x2="558.3423" y1="204.3516" y2="204.3516"/><line style="stroke:#181818;stroke-width:1.0;" x1="558.3423" x2="558.3423" y1="204.3516" y2="217.3516"/><line style="stroke:#181818;stroke-width:1.0;" x1="517.3423" x2="558.3423" y1="217.3516" y2="217.3516"/><polygon fill="#181818" points="527.3423,213.3516,517.3423,217.3516,527.3423,221.3516,523.3423,217.3516" style="stroke:#181818;stroke-width:1.0;"/><text fill="#000000" font-family="sans-serif" font-size="13" lengthAdjust="spacing" textLength="137.0205" x="523.3423" y="199.6094">Read transaction data</text><line style="stroke:#181818;stroke-width:1.0;" x1="516.3423" x2="558.3423" y1="246.6621" y2="246.6621"/><line style="stroke:#181818;stroke-width:1.0;" x1="558.3423" x2="558.3423" y1="246.6621" y2="259.6621"/><line style="stroke:#181818;stroke-width:1.0;" x1="517.3423" x2="558.3423" y1="259.6621" y2="259.6621"/><polygon fill="#181818" points="527.3423,255.6621,517.3423,259.6621,527.3423,263.6621,523.3423,259.6621" style="stroke:#181818;stroke-width:1.0;"/><text fill="#000000" font-family="sans-serif" font-size="13" lengthAdjust="spacing" textLength="170.5806" x="523.3423" y="241.9199">ProcessTransaction(ctx, tx)</text><polygon fill="#181818" points="703.9229,284.9727,713.9229,288.9727,703.9229,292.9727,707.9229,288.9727" style="stroke:#181818;stroke-width:1.0;"/><line style="stroke:#181818;stroke-width:1.0;" x1="516.3423" x2="709.9229" y1="288.9727" y2="288.9727"/><text fill="#000000" font-family="sans-serif" font-size="13" lengthAdjust="spacing" textLength="154.9717" x="523.3423" y="284.2305">storeTransaction(ctx, tx)</text><polygon fill="#181818" points="527.3423,314.2832,517.3423,318.2832,527.3423,322.2832,523.3423,318.2832" style="stroke:#181818;stroke-width:1.0;"/><line style="stroke:#181818;stroke-width:1.0;stroke-dasharray:2.0,2.0;" x1="521.3423" x2="719.9229" y1="318.2832" y2="318.2832"/><text fill="#000000" font-family="sans-serif" font-size="13" lengthAdjust="spacing" textLength="132.3677" x="533.3423" y="313.541">Storage confirmation</text><path d="M427.6001,333.2832 L489.7388,333.2832 L489.7388,340.5938 L479.7388,350.5938 L427.6001,350.5938 L427.6001,333.2832 " fill="#EEEEEE" style="stroke:#000000;stroke-width:1.5;"/><rect fill="none" height="149.5078" style="stroke:#000000;stroke-width:1.5;" width="550.4229" x="427.6001" y="333.2832"/><text fill="#000000" font-family="sans-serif" font-size="13" font-weight="bold" lengthAdjust="spacing" textLength="17.1387" x="442.6001" y="346.8516">alt</text><text fill="#000000" font-family="sans-serif" font-size="11" font-weight="bold" lengthAdjust="spacing" textLength="184.8945" x="504.7388" y="345.918">[if Kafka Producer is configured]</text><polygon fill="#181818" points="807.623,367.9043,817.623,371.9043,807.623,375.9043,811.623,371.9043" style="stroke:#181818;stroke-width:1.0;"/><line style="stroke:#181818;stroke-width:1.0;" x1="516.3423" x2="813.623" y1="371.9043" y2="371.9043"/><text fill="#000000" font-family="sans-serif" font-size="13" lengthAdjust="spacing" textLength="105.1743" x="523.3423" y="367.1621">Send transaction</text><polygon fill="#181818" points="527.3423,397.2148,517.3423,401.2148,527.3423,405.2148,523.3423,401.2148" style="stroke:#181818;stroke-width:1.0;"/><line style="stroke:#181818;stroke-width:1.0;stroke-dasharray:2.0,2.0;" x1="521.3423" x2="823.623" y1="401.2148" y2="401.2148"/><text fill="#000000" font-family="sans-serif" font-size="13" lengthAdjust="spacing" textLength="82.894" x="533.3423" y="396.4727">Confirmation</text><line style="stroke:#000000;stroke-width:1.0;stroke-dasharray:2.0,2.0;" x1="427.6001" x2="978.0229" y1="410.2148" y2="410.2148"/><text fill="#000000" font-family="sans-serif" font-size="11" font-weight="bold" lengthAdjust="spacing" textLength="112.3525" x="432.6001" y="420.8496">[if direct validation]</text><polygon fill="#181818" points="913.48,441.4805,923.48,445.4805,913.48,449.4805,917.48,445.4805" style="stroke:#181818;stroke-width:1.0;"/><line style="stroke:#181818;stroke-width:1.0;" x1="516.3423" x2="919.48" y1="445.4805" y2="445.4805"/><text fill="#000000" font-family="sans-serif" font-size="13" lengthAdjust="spacing" textLength="99.6709" x="523.3423" y="440.7383">Validate(ctx, tx)</text><polygon fill="#181818" points="527.3423,470.791,517.3423,474.791,527.3423,478.791,523.3423,474.791" style="stroke:#181818;stroke-width:1.0;"/><line style="stroke:#181818;stroke-width:1.0;stroke-dasharray:2.0,2.0;" x1="521.3423" x2="929.48" y1="474.791" y2="474.791"/><text fill="#000000" font-family="sans-serif" font-size="13" lengthAdjust="spacing" textLength="102.0068" x="533.3423" y="470.0488">ValidationResult</text><polygon fill="#181818" points="339.6104,514.1016,329.6104,518.1016,339.6104,522.1016,335.6104,518.1016" style="stroke:#181818;stroke-width:1.0;"/><line style="stroke:#181818;stroke-width:1.0;stroke-dasharray:2.0,2.0;" x1="333.6104" x2="500.3423" y1="518.1016" y2="518.1016"/><text fill="#000000" font-family="sans-serif" font-size="13" lengthAdjust="spacing" textLength="148.7319" x="345.6104" y="513.3594">Transactions processed</text><polygon fill="#181818" points="77.833,543.4121,67.833,547.4121,77.833,551.4121,73.833,547.4121" style="stroke:#181818;stroke-width:1.0;"/><line style="stroke:#181818;stroke-width:1.0;" x1="71.833" x2="317.6104" y1="547.4121" y2="547.4121"/><text fill="#000000" font-family="sans-serif" font-size="13" lengthAdjust="spacing" textLength="222.7773" x="83.833" y="542.6699">Response (implicit, as it's a stream)</text><text fill="#888888" font-family="sans-serif" font-size="10" lengthAdjust="spacing" textLength="154.8389" x="0" y="613.5684">Last Modified On: 31-Oct-2024</text><!--SRC=[VLHDZziW4BtpAqQHgYPIejvzw6KlAxNHHedL-yYCiwWEk31EtNzVmFY3TR8SR1ZU3FE6URHeMLMgHSsmUItB4xmqYZHl05sQYdQ5kP2zausOiCuH9sjQl28henUuOPeZonukR2n5GDd7UOxuWVLl11zHTbKA54sZ9KV_maP9z54YCArI6geY8R1YTKUcCHin_E7mFV8el9sxDixX7RLioBhPAL8LZJ49SQO_7Jc6ru1K-Yh0Zw5cSyJJswM4Rzp7pIbKgcomnL0UFgHIf7ClR0blsxzxiBlSDQKURF4JywcD1SBg7TYYTW5hD2WDBeQ9k31ckkDfPqAPEVcAuITuN_YAd2jdZst5_HwutqrU3zpJvHO-8V_xr7iYEZR4k97MS5Ya4onu9QYChfMznTkU72GzZJMVrZ2e6l8-0-M6YDVEafomEQMi3qFdwAoGcTUKHzwyIqYsat5yUSJj0x_7SQbn5DX9PQbYk4-2U49ffPXYDD7wdZ9UQwqjOQlTZD-yUoRNDVoCu_CpVEd5yY-Mj2ObBhhEGJlqSRhTnIaBUOtA7CGQjE9QxqkmLRUsyQyExyCxe_Yh0qnIstsCbvGUKXCBStfBg6QlNSC-qP_edvAZaQfM9E5D5_0b5duZvU5uF1x- -R7PYVy0]--></g></svg>
