<svg xmlns="http://www.w3.org/2000/svg" xmlns:xlink="http://www.w3.org/1999/xlink" contentStyleType="text/css" height="813px" preserveAspectRatio="none" style="width:1052px;height:813px;background:#F0F8FF;" version="1.1" viewBox="0 0 1052 813" width="1052px" zoomAndPan="magnify"><defs/><g><rect fill="#F0F8FF" height="813" style="stroke:none;stroke-width:1.0;" width="1052" x="0" y="0"/><rect fill="#FFFFFF" height="591.1895" style="stroke:#181818;stroke-width:1.0;" width="10" x="71.833" y="145.7305"/><rect fill="#FFFFFF" height="684.1211" style="stroke:#181818;stroke-width:1.0;" width="10" x="328.6104" y="67.7988"/><rect fill="#FFFFFF" height="706.4316" style="stroke:#181818;stroke-width:1.0;" width="10" x="511.3423" y="46.4883"/><rect fill="#FFFFFF" height="532.5684" style="stroke:#181818;stroke-width:1.0;" width="10" x="516.3423" y="175.041"/><rect fill="#FFFFFF" height="29.3105" style="stroke:#181818;stroke-width:1.0;" width="10" x="774.165" y="485.4805"/><rect fill="#FFFFFF" height="29.3105" style="stroke:#181818;stroke-width:1.0;" width="10" x="877.8652" y="568.4121"/><rect fill="#FFFFFF" height="29.3105" style="stroke:#181818;stroke-width:1.0;" width="10" x="983.7222" y="641.9883"/><rect fill="none" height="662.1211" style="stroke:#000000;stroke-width:1.5;" width="1036.2651" x="10" y="82.7988"/><rect fill="none" height="350.0605" style="stroke:#000000;stroke-width:1.5;" width="769.165" x="20" y="107.1094"/><rect fill="none" height="59.6211" style="stroke:#000000;stroke-width:1.5;" width="341.5649" x="437.6001" y="390.5488"/><rect fill="none" height="149.5078" style="stroke:#000000;stroke-width:1.5;" width="598.665" x="437.6001" y="529.791"/><line style="stroke:#181818;stroke-width:0.5;stroke-dasharray:5.0,5.0;" x1="76" x2="76" y1="36.4883" y2="761.9199"/><line style="stroke:#181818;stroke-width:0.5;stroke-dasharray:5.0,5.0;" x1="333.6084" x2="333.6084" y1="36.4883" y2="761.9199"/><line style="stroke:#181818;stroke-width:0.5;stroke-dasharray:5.0,5.0;" x1="515.6001" x2="515.6001" y1="36.4883" y2="761.9199"/><line style="stroke:#181818;stroke-width:0.5;stroke-dasharray:5.0,5.0;" x1="778.7788" x2="778.7788" y1="36.4883" y2="761.9199"/><line style="stroke:#181818;stroke-width:0.5;stroke-dasharray:5.0,5.0;" x1="882.5513" x2="882.5513" y1="36.4883" y2="761.9199"/><line style="stroke:#181818;stroke-width:0.5;stroke-dasharray:5.0,5.0;" x1="988.1792" x2="988.1792" y1="36.4883" y2="761.9199"/><rect fill="#DDDDDD" height="30.4883" rx="2.5" ry="2.5" style="stroke:#666666;stroke-width:0.5;" width="93.666" x="30" y="5"/><text fill="#333333" font-family="sans-serif" font-size="14" lengthAdjust="spacing" textLength="79.666" x="37" y="25.5352">HTTP Client</text><rect fill="#DDDDDD" height="30.4883" rx="2.5" ry="2.5" style="stroke:#666666;stroke-width:0.5;" width="93.666" x="30" y="760.9199"/><text fill="#333333" font-family="sans-serif" font-size="14" lengthAdjust="spacing" textLength="79.666" x="37" y="781.4551">HTTP Client</text><rect fill="#DDDDDD" height="30.4883" rx="2.5" ry="2.5" style="stroke:#666666;stroke-width:0.5;" width="96.0039" x="285.6084" y="5"/><text fill="#333333" font-family="sans-serif" font-size="14" lengthAdjust="spacing" textLength="82.0039" x="292.6084" y="25.5352">HTTP Server</text><rect fill="#DDDDDD" height="30.4883" rx="2.5" ry="2.5" style="stroke:#666666;stroke-width:0.5;" width="96.0039" x="285.6084" y="760.9199"/><text fill="#333333" font-family="sans-serif" font-size="14" lengthAdjust="spacing" textLength="82.0039" x="292.6084" y="781.4551">HTTP Server</text><rect fill="#DDDDDD" height="30.4883" rx="2.5" ry="2.5" style="stroke:#666666;stroke-width:0.5;" width="137.4844" x="447.6001" y="5"/><text fill="#333333" font-family="sans-serif" font-size="14" lengthAdjust="spacing" textLength="123.4844" x="454.6001" y="25.5352">PropagationServer</text><rect fill="#DDDDDD" height="30.4883" rx="2.5" ry="2.5" style="stroke:#666666;stroke-width:0.5;" width="137.4844" x="447.6001" y="760.9199"/><text fill="#333333" font-family="sans-serif" font-size="14" lengthAdjust="spacing" textLength="123.4844" x="454.6001" y="781.4551">PropagationServer</text><rect fill="#DDDDDD" height="30.4883" rx="2.5" ry="2.5" style="stroke:#666666;stroke-width:0.5;" width="70.7725" x="743.7788" y="5"/><text fill="#333333" font-family="sans-serif" font-size="14" lengthAdjust="spacing" textLength="56.7725" x="750.7788" y="25.5352">Tx Store</text><rect fill="#DDDDDD" height="30.4883" rx="2.5" ry="2.5" style="stroke:#666666;stroke-width:0.5;" width="70.7725" x="743.7788" y="760.9199"/><text fill="#333333" font-family="sans-serif" font-size="14" lengthAdjust="spacing" textLength="56.7725" x="750.7788" y="781.4551">Tx Store</text><rect fill="#DDDDDD" height="30.4883" rx="2.5" ry="2.5" style="stroke:#666666;stroke-width:0.5;" width="116.6279" x="824.5513" y="5"/><text fill="#333333" font-family="sans-serif" font-size="14" lengthAdjust="spacing" textLength="102.6279" x="831.5513" y="25.5352">Kafka Producer</text><rect fill="#DDDDDD" height="30.4883" rx="2.5" ry="2.5" style="stroke:#666666;stroke-width:0.5;" width="116.6279" x="824.5513" y="760.9199"/><text fill="#333333" font-family="sans-serif" font-size="14" lengthAdjust="spacing" textLength="102.6279" x="831.5513" y="781.4551">Kafka Producer</text><rect fill="#DDDDDD" height="30.4883" rx="2.5" ry="2.5" style="stroke:#666666;stroke-width:0.5;" width="75.0859" x="951.1792" y="5"/><text fill="#333333" font-family="sans-serif" font-size="14" lengthAdjust="spacing" textLength="61.0859" x="958.1792" y="25.5352">Validator</text><rect fill="#DDDDDD" height="30.4883" rx="2.5" ry="2.5" style="stroke:#666666;stroke-width:0.5;" width="75.0859" x="951.1792" y="760.9199"/><text fill="#333333" font-family="sans-serif" font-size="14" lengthAdjust="spacing" textLength="61.0859" x="958.1792" y="781.4551">Validator</text><rect fill="#FFFFFF" height="591.1895" style="stroke:#181818;stroke-width:1.0;" width="10" x="71.833" y="145.7305"/><rect fill="#FFFFFF" height="684.1211" style="stroke:#181818;stroke-width:1.0;" width="10" x="328.6104" y="67.7988"/><rect fill="#FFFFFF" height="706.4316" style="stroke:#181818;stroke-width:1.0;" width="10" x="511.3423" y="46.4883"/><rect fill="#FFFFFF" height="532.5684" style="stroke:#181818;stroke-width:1.0;" width="10" x="516.3423" y="175.041"/><rect fill="#FFFFFF" height="29.3105" style="stroke:#181818;stroke-width:1.0;" width="10" x="774.165" y="485.4805"/><rect fill="#FFFFFF" height="29.3105" style="stroke:#181818;stroke-width:1.0;" width="10" x="877.8652" y="568.4121"/><rect fill="#FFFFFF" height="29.3105" style="stroke:#181818;stroke-width:1.0;" width="10" x="983.7222" y="641.9883"/><polygon fill="#666666" points="349.6104,63.7988,339.6104,67.7988,349.6104,71.7988,345.6104,67.7988" style="stroke:#666666;stroke-width:1.0;"/><line style="stroke:#666666;stroke-width:1.0;" x1="343.6104" x2="510.3423" y1="67.7988" y2="67.7988"/><text fill="#333333" font-family="sans-serif" font-size="13" lengthAdjust="spacing" textLength="131.2061" x="355.6104" y="63.0566">Setup HTTP handlers</text><path d="M10,82.7988 L84.4468,82.7988 L84.4468,90.1094 L74.4468,100.1094 L10,100.1094 L10,82.7988 " fill="#EEEEEE" style="stroke:#000000;stroke-width:1.5;"/><rect fill="none" height="662.1211" style="stroke:#000000;stroke-width:1.5;" width="1036.2651" x="10" y="82.7988"/><text fill="#333333" font-family="sans-serif" font-size="13" font-weight="bold" lengthAdjust="spacing" textLength="29.4468" x="25" y="96.3672">loop</text><text fill="#333333" font-family="sans-serif" font-size="11" font-weight="bold" lengthAdjust="spacing" textLength="142.7798" x="99.4468" y="95.4336">[HTTP Request Handling]</text><path d="M20,107.1094 L82.1387,107.1094 L82.1387,114.4199 L72.1387,124.4199 L20,124.4199 L20,107.1094 " fill="#EEEEEE" style="stroke:#000000;stroke-width:1.5;"/><rect fill="none" height="350.0605" style="stroke:#000000;stroke-width:1.5;" width="769.165" x="20" y="107.1094"/><text fill="#333333" font-family="sans-serif" font-size="13" font-weight="bold" lengthAdjust="spacing" textLength="17.1387" x="35" y="120.6777">alt</text><text fill="#333333" font-family="sans-serif" font-size="11" font-weight="bold" lengthAdjust="spacing" textLength="172.3101" x="97.1387" y="119.7441">[POST /tx (single transaction)]</text><polygon fill="#666666" points="316.6104,141.7305,326.6104,145.7305,316.6104,149.7305,320.6104,145.7305" style="stroke:#666666;stroke-width:1.0;"/><line style="stroke:#666666;stroke-width:1.0;" x1="81.833" x2="322.6104" y1="145.7305" y2="145.7305"/><text fill="#333333" font-family="sans-serif" font-size="13" lengthAdjust="spacing" textLength="56.272" x="88.833" y="140.9883">POST /tx</text><polygon fill="#666666" points="504.3423,171.041,514.3423,175.041,504.3423,179.041,508.3423,175.041" style="stroke:#666666;stroke-width:1.0;"/><line style="stroke:#666666;stroke-width:1.0;" x1="338.6104" x2="510.3423" y1="175.041" y2="175.041"/><text fill="#333333" font-family="sans-serif" font-size="13" lengthAdjust="spacing" textLength="128.6416" x="345.6104" y="170.2988">handleSingleTx(w, r)</text><line style="stroke:#666666;stroke-width:1.0;" x1="526.3423" x2="568.3423" y1="204.3516" y2="204.3516"/><line style="stroke:#666666;stroke-width:1.0;" x1="568.3423" x2="568.3423" y1="204.3516" y2="217.3516"/><line style="stroke:#666666;stroke-width:1.0;" x1="527.3423" x2="568.3423" y1="217.3516" y2="217.3516"/><polygon fill="#666666" points="537.3423,213.3516,527.3423,217.3516,537.3423,221.3516,533.3423,217.3516" style="stroke:#666666;stroke-width:1.0;"/><text fill="#333333" font-family="sans-serif" font-size="13" lengthAdjust="spacing" textLength="175.0938" x="533.3423" y="199.6094">Read transaction from body</text><line style="stroke:#666666;stroke-width:1.0;" x1="526.3423" x2="568.3423" y1="246.6621" y2="246.6621"/><line style="stroke:#666666;stroke-width:1.0;" x1="568.3423" x2="568.3423" y1="246.6621" y2="259.6621"/><line style="stroke:#666666;stroke-width:1.0;" x1="527.3423" x2="568.3423" y1="259.6621" y2="259.6621"/><polygon fill="#666666" points="537.3423,255.6621,527.3423,259.6621,537.3423,263.6621,533.3423,259.6621" style="stroke:#666666;stroke-width:1.0;"/><text fill="#333333" font-family="sans-serif" font-size="13" lengthAdjust="spacing" textLength="170.5806" x="533.3423" y="241.9199">ProcessTransaction(ctx, tx)</text><line style="stroke:#000000;stroke-width:1.0;stroke-dasharray:2.0,2.0;" x1="20" x2="789.165" y1="268.6621" y2="268.6621"/><text fill="#333333" font-family="sans-serif" font-size="11" font-weight="bold" lengthAdjust="spacing" textLength="197.2642" x="25" y="279.2969">[POST /txs (multiple transactions)]</text><polygon fill="#666666" points="316.6104,299.9277,326.6104,303.9277,316.6104,307.9277,320.6104,303.9277" style="stroke:#666666;stroke-width:1.0;"/><line style="stroke:#666666;stroke-width:1.0;" x1="81.833" x2="322.6104" y1="303.9277" y2="303.9277"/><text fill="#333333" font-family="sans-serif" font-size="13" lengthAdjust="spacing" textLength="62.8989" x="88.833" y="299.1855">POST /txs</text><polygon fill="#666666" points="504.3423,329.2383,514.3423,333.2383,504.3423,337.2383,508.3423,333.2383" style="stroke:#666666;stroke-width:1.0;"/><line style="stroke:#666666;stroke-width:1.0;" x1="338.6104" x2="510.3423" y1="333.2383" y2="333.2383"/><text fill="#333333" font-family="sans-serif" font-size="13" lengthAdjust="spacing" textLength="141.5337" x="345.6104" y="328.4961">handleMultipleTx(w, r)</text><line style="stroke:#666666;stroke-width:1.0;" x1="526.3423" x2="568.3423" y1="362.5488" y2="362.5488"/><line style="stroke:#666666;stroke-width:1.0;" x1="568.3423" x2="568.3423" y1="362.5488" y2="375.5488"/><line style="stroke:#666666;stroke-width:1.0;" x1="527.3423" x2="568.3423" y1="375.5488" y2="375.5488"/><polygon fill="#666666" points="537.3423,371.5488,527.3423,375.5488,537.3423,379.5488,533.3423,375.5488" style="stroke:#666666;stroke-width:1.0;"/><text fill="#333333" font-family="sans-serif" font-size="13" lengthAdjust="spacing" textLength="200.5288" x="533.3423" y="357.8066">Read all transactions from body</text><path d="M437.6001,390.5488 L512.0469,390.5488 L512.0469,397.8594 L502.0469,407.8594 L437.6001,407.8594 L437.6001,390.5488 " fill="#EEEEEE" style="stroke:#000000;stroke-width:1.5;"/><rect fill="none" height="59.6211" style="stroke:#000000;stroke-width:1.5;" width="341.5649" x="437.6001" y="390.5488"/><text fill="#333333" font-family="sans-serif" font-size="13" font-weight="bold" lengthAdjust="spacing" textLength="29.4468" x="452.6001" y="404.1172">loop</text><text fill="#333333" font-family="sans-serif" font-size="11" font-weight="bold" lengthAdjust="spacing" textLength="121.9561" x="527.0469" y="403.1836">[for each transaction]</text><line style="stroke:#666666;stroke-width:1.0;" x1="526.3423" x2="568.3423" y1="429.1699" y2="429.1699"/><line style="stroke:#666666;stroke-width:1.0;" x1="568.3423" x2="568.3423" y1="429.1699" y2="442.1699"/><line style="stroke:#666666;stroke-width:1.0;" x1="527.3423" x2="568.3423" y1="442.1699" y2="442.1699"/><polygon fill="#666666" points="537.3423,438.1699,527.3423,442.1699,537.3423,446.1699,533.3423,442.1699" style="stroke:#666666;stroke-width:1.0;"/><text fill="#333333" font-family="sans-serif" font-size="13" lengthAdjust="spacing" textLength="218.8228" x="533.3423" y="424.4277">ProcessTransactionInternal(ctx, tx)</text><polygon fill="#666666" points="762.165,481.4805,772.165,485.4805,762.165,489.4805,766.165,485.4805" style="stroke:#666666;stroke-width:1.0;"/><line style="stroke:#666666;stroke-width:1.0;" x1="526.3423" x2="768.165" y1="485.4805" y2="485.4805"/><text fill="#333333" font-family="sans-serif" font-size="13" lengthAdjust="spacing" textLength="154.9717" x="533.3423" y="480.7383">storeTransaction(ctx, tx)</text><polygon fill="#666666" points="537.3423,510.791,527.3423,514.791,537.3423,518.791,533.3423,514.791" style="stroke:#666666;stroke-width:1.0;"/><line style="stroke:#666666;stroke-width:1.0;stroke-dasharray:2.0,2.0;" x1="531.3423" x2="778.165" y1="514.791" y2="514.791"/><text fill="#333333" font-family="sans-serif" font-size="13" lengthAdjust="spacing" textLength="132.3677" x="543.3423" y="510.0488">Storage confirmation</text><path d="M437.6001,529.791 L499.7388,529.791 L499.7388,537.1016 L489.7388,547.1016 L437.6001,547.1016 L437.6001,529.791 " fill="#EEEEEE" style="stroke:#000000;stroke-width:1.5;"/><rect fill="none" height="149.5078" style="stroke:#000000;stroke-width:1.5;" width="598.665" x="437.6001" y="529.791"/><text fill="#333333" font-family="sans-serif" font-size="13" font-weight="bold" lengthAdjust="spacing" textLength="17.1387" x="452.6001" y="543.3594">alt</text><text fill="#333333" font-family="sans-serif" font-size="11" font-weight="bold" lengthAdjust="spacing" textLength="184.8945" x="514.7388" y="542.4258">[if Kafka Producer is configured]</text><polygon fill="#666666" points="865.8652,564.4121,875.8652,568.4121,865.8652,572.4121,869.8652,568.4121" style="stroke:#666666;stroke-width:1.0;"/><line style="stroke:#666666;stroke-width:1.0;" x1="526.3423" x2="871.8652" y1="568.4121" y2="568.4121"/><text fill="#333333" font-family="sans-serif" font-size="13" lengthAdjust="spacing" textLength="105.1743" x="533.3423" y="563.6699">Send transaction</text><polygon fill="#666666" points="537.3423,593.7227,527.3423,597.7227,537.3423,601.7227,533.3423,597.7227" style="stroke:#666666;stroke-width:1.0;"/><line style="stroke:#666666;stroke-width:1.0;stroke-dasharray:2.0,2.0;" x1="531.3423" x2="881.8652" y1="597.7227" y2="597.7227"/><text fill="#333333" font-family="sans-serif" font-size="13" lengthAdjust="spacing" textLength="82.894" x="543.3423" y="592.9805">Confirmation</text><line style="stroke:#000000;stroke-width:1.0;stroke-dasharray:2.0,2.0;" x1="437.6001" x2="1036.2651" y1="606.7227" y2="606.7227"/><text fill="#333333" font-family="sans-serif" font-size="11" font-weight="bold" lengthAdjust="spacing" textLength="112.3525" x="442.6001" y="617.3574">[if direct validation]</text><polygon fill="#666666" points="971.7222,637.9883,981.7222,641.9883,971.7222,645.9883,975.7222,641.9883" style="stroke:#666666;stroke-width:1.0;"/><line style="stroke:#666666;stroke-width:1.0;" x1="526.3423" x2="977.7222" y1="641.9883" y2="641.9883"/><text fill="#333333" font-family="sans-serif" font-size="13" lengthAdjust="spacing" textLength="99.6709" x="533.3423" y="637.2461">Validate(ctx, tx)</text><polygon fill="#666666" points="537.3423,667.2988,527.3423,671.2988,537.3423,675.2988,533.3423,671.2988" style="stroke:#666666;stroke-width:1.0;"/><line style="stroke:#666666;stroke-width:1.0;stroke-dasharray:2.0,2.0;" x1="531.3423" x2="987.7222" y1="671.2988" y2="671.2988"/><text fill="#333333" font-family="sans-serif" font-size="13" lengthAdjust="spacing" textLength="102.0068" x="543.3423" y="666.5566">ValidationResult</text><polygon fill="#666666" points="349.6104,703.6094,339.6104,707.6094,349.6104,711.6094,345.6104,707.6094" style="stroke:#666666;stroke-width:1.0;"/><line style="stroke:#666666;stroke-width:1.0;stroke-dasharray:2.0,2.0;" x1="343.6104" x2="510.3423" y1="707.6094" y2="707.6094"/><text fill="#333333" font-family="sans-serif" font-size="13" lengthAdjust="spacing" textLength="148.7319" x="355.6104" y="702.8672">Transactions processed</text><polygon fill="#666666" points="87.833,732.9199,77.833,736.9199,87.833,740.9199,83.833,736.9199" style="stroke:#666666;stroke-width:1.0;"/><line style="stroke:#666666;stroke-width:1.0;" x1="81.833" x2="327.6104" y1="736.9199" y2="736.9199"/><text fill="#333333" font-family="sans-serif" font-size="13" lengthAdjust="spacing" textLength="222.7773" x="93.833" y="732.1777">Response (implicit, as it's a stream)</text><text fill="#333333" font-family="sans-serif" font-size="10" lengthAdjust="spacing" textLength="157.5488" x="0" y="803.0762">Last Modified On: 04-Aug-2025</text><!--SRC=[fLHHQzim47xthpWoHXDes60mHXxsi9RGiOMMnlHTjSwfg29vajAcZFttdMJPaU9u7PiUREdqwNJVwRwpZq8rpB0jtBFgSMFqJl4BBRM1Dyltoq_BPM5x1CUQxQHRQkKYv4CO2OGPev_ZviSmYk8CBh4M2k5U6ux6GasxJ4f0YLjKpYRdQIdS2_mi0Bu4TEwBhCTHNePH_2eIBnL5QBJyNpVqTQ8I3LFktrpHI7rChiho1Ywa89OJO3PEJs3MQ9xG18nVvuWRenksOKvebU3QQOuizx1ssc00bFimpn7VMFt8W3poNHKT1LDdoT5tJ0hEo4i0nbKCGrHO5AnoueavxA8fsZ_CFmSU2xAxNHFcyC0KbrGEXqE1QY6rZeXR_B53w-3A8uNQKBA12iV1pVMwX7Tk3rDBPedW35FM-z5g5b1-jDaztDsTwW7znV4TEdkud8wrmIzYfEjmLRcVFf-3cGsTHCgT_S2yStEBZAUHGcqqoKxpbpySeeUeqDhoS6nQkVqvk7qR0agBFJCBqoq9L3HvIkphER6la5z5jmFw8pIzlDC8Jd0Dx-nR0RBg8GNtYB_Do5Vbq2Wcyyo4x2XUTFyJ8KT9BC3wtsYEisVkPDHjn3NCan2zXMtGzw5Qc2tBM74S-3hSGiKjQiXL2SAsdZOxWtmaEvbglSuK7yrfVtykzHIIxMJSBavnEk9rscyeLMB7XS7AmLFVFaOe3VhBeZFXy7qoNiFEbC86knc_m-ujMghwCOxZTtH5vyUWw7hbbQawchQcazTDRZfgB9r0MobxlTc6V21CnRQHrAlTkU_EmfrPO5JP1jbsTiflx7f16uavTc6i7QbJaxBWEwCclD9Sr08vNAi5l0sFCE5ylbgjvYyq9hFYDm00]--></g></svg>
