<svg xmlns="http://www.w3.org/2000/svg" xmlns:xlink="http://www.w3.org/1999/xlink" contentStyleType="text/css" height="1022px" preserveAspectRatio="none" style="width:1196px;height:1022px;background:#FFFFFF;" version="1.1" viewBox="0 0 1196 1022" width="1196px" zoomAndPan="magnify"><title>Unmined Transaction Lifecycle</title><defs/><g><text fill="#000000" font-family="Verdana" font-size="22" font-weight="bold" lengthAdjust="spacing" textLength="378.125" x="404.8985" y="37.1182">Unmined Transaction Lifecycle</text><g id="received"><rect fill="#FFFFFF" height="50" rx="12.5" ry="12.5" style="stroke:#000000;stroke-width:1.0;" width="169.3994" x="512.6" y="155.7373"/><line style="stroke:#000000;stroke-width:1.0;" x1="512.6" x2="681.9994" y1="182.752" y2="182.752"/><text fill="#000000" font-family="Verdana" font-size="14" lengthAdjust="spacing" textLength="149.3994" x="522.6" y="174.8125">Transaction Received</text></g><path d="M395.45,334.7373 L799.1517,334.7373 A12.5,12.5 0 0 1 811.6517,347.2373 L811.6517,361.752 L382.95,361.752 L382.95,347.2373 A12.5,12.5 0 0 1 395.45,334.7373 " fill="#FFFFFF" style="stroke:#FFFFFF;stroke-width:1.0;"/><path d="M382.95,361.752 L811.6517,361.752 L811.6517,421.252 A12.5,12.5 0 0 1 799.1517,433.752 L395.45,433.752 A12.5,12.5 0 0 1 382.95,421.252 L382.95,361.752 " fill="#FFFFFF" style="stroke:#FFFFFF;stroke-width:1.0;"/><rect fill="none" height="99.0146" rx="12.5" ry="12.5" style="stroke:#000000;stroke-width:1.0;" width="428.7017" x="382.95" y="334.7373"/><line style="stroke:#000000;stroke-width:1.0;" x1="382.95" x2="811.6517" y1="361.752" y2="361.752"/><text fill="#000000" font-family="Verdana" font-size="14" lengthAdjust="spacing" textLength="132.0088" x="531.2964" y="353.8125">Validated &amp; Stored</text><g id="validated.unmined_flag"><rect fill="#FFFFFF" height="50" rx="12.5" ry="12.5" style="stroke:#000000;stroke-width:1.0;" width="274.4404" x="394.95" y="373.752"/><line style="stroke:#000000;stroke-width:1.0;" x1="394.95" x2="669.3904" y1="400.7666" y2="400.7666"/><text fill="#000000" font-family="Verdana" font-size="14" lengthAdjust="spacing" textLength="254.4404" x="404.95" y="392.8271">unminedSince = currentBlockHeight</text></g><g id="validated.locked_flag"><rect fill="#FFFFFF" height="50" rx="12.5" ry="12.5" style="stroke:#000000;stroke-width:1.0;" width="114.9717" x="687.68" y="373.752"/><line style="stroke:#000000;stroke-width:1.0;" x1="687.68" x2="802.6517" y1="400.7666" y2="400.7666"/><text fill="#000000" font-family="Verdana" font-size="14" lengthAdjust="spacing" textLength="94.9717" x="697.68" y="392.8271">locked = true</text></g><path d="M443.41,562.7473 L751.1885,562.7473 A12.5,12.5 0 0 1 763.6885,575.2473 L763.6885,589.762 L430.91,589.762 L430.91,575.2473 A12.5,12.5 0 0 1 443.41,562.7473 " fill="#FFFFFF" style="stroke:#FFFFFF;stroke-width:1.0;"/><path d="M430.91,589.762 L763.6885,589.762 L763.6885,649.262 A12.5,12.5 0 0 1 751.1885,661.762 L443.41,661.762 A12.5,12.5 0 0 1 430.91,649.262 L430.91,589.762 " fill="#FFFFFF" style="stroke:#FFFFFF;stroke-width:1.0;"/><rect fill="none" height="99.0146" rx="12.5" ry="12.5" style="stroke:#000000;stroke-width:1.0;" width="332.7785" x="430.91" y="562.7473"/><line style="stroke:#000000;stroke-width:1.0;" x1="430.91" x2="763.6885" y1="589.762" y2="589.762"/><text fill="#000000" font-family="Verdana" font-size="14" lengthAdjust="spacing" textLength="177.3379" x="508.6303" y="581.8225">Added to Block Assembly</text><g id="assembly.unlocked_flag"><rect fill="#FFFFFF" height="50" rx="12.5" ry="12.5" style="stroke:#000000;stroke-width:1.0;" width="119.0869" x="442.91" y="601.762"/><line style="stroke:#000000;stroke-width:1.0;" x1="442.91" x2="561.9969" y1="628.7766" y2="628.7766"/><text fill="#000000" font-family="Verdana" font-size="14" lengthAdjust="spacing" textLength="99.0869" x="452.91" y="620.8371">locked = false</text></g><g id="assembly.processing"><rect fill="#FFFFFF" height="50" rx="12.5" ry="12.5" style="stroke:#000000;stroke-width:1.0;" width="174.4785" x="580.21" y="601.762"/><line style="stroke:#000000;stroke-width:1.0;" x1="580.21" x2="754.6885" y1="628.7766" y2="628.7766"/><text fill="#000000" font-family="Verdana" font-size="14" lengthAdjust="spacing" textLength="154.4785" x="590.21" y="620.8371">In Subtree Processing</text></g><path d="M24.5,790.7673 L382.1025,790.7673 A12.5,12.5 0 0 1 394.6025,803.2673 L394.6025,817.782 L12,817.782 L12,803.2673 A12.5,12.5 0 0 1 24.5,790.7673 " fill="#FFFFFF" style="stroke:#FFFFFF;stroke-width:1.0;"/><path d="M12,817.782 L394.6025,817.782 L394.6025,877.282 A12.5,12.5 0 0 1 382.1025,889.782 L24.5,889.782 A12.5,12.5 0 0 1 12,877.282 L12,817.782 " fill="#FFFFFF" style="stroke:#FFFFFF;stroke-width:1.0;"/><rect fill="none" height="99.0146" rx="12.5" ry="12.5" style="stroke:#000000;stroke-width:1.0;" width="382.6025" x="12" y="790.7673"/><line style="stroke:#000000;stroke-width:1.0;" x1="12" x2="394.6025" y1="817.782" y2="817.782"/><text fill="#000000" font-family="Verdana" font-size="14" lengthAdjust="spacing" textLength="120.5928" x="143.0049" y="809.8425">Included in Block</text><g id="mined.mined_flag"><rect fill="#FFFFFF" height="50" rx="12.5" ry="12.5" style="stroke:#000000;stroke-width:1.0;" width="156.8486" x="24" y="829.782"/><line style="stroke:#000000;stroke-width:1.0;" x1="24" x2="180.8486" y1="856.7966" y2="856.7966"/><text fill="#000000" font-family="Verdana" font-size="14" lengthAdjust="spacing" textLength="136.8486" x="34" y="848.8571">unminedSince = nil</text></g><g id="mined.block_ref"><rect fill="#FFFFFF" height="50" rx="12.5" ry="12.5" style="stroke:#000000;stroke-width:1.0;" width="186.3525" x="199.25" y="829.782"/><line style="stroke:#000000;stroke-width:1.0;" x1="199.25" x2="385.6025" y1="856.7966" y2="856.7966"/><text fill="#000000" font-family="Verdana" font-size="14" lengthAdjust="spacing" textLength="166.3525" x="209.25" y="848.8571">blockIDs = [blockHash]</text></g><path d="M442.26,790.7673 L752.3416,790.7673 A12.5,12.5 0 0 1 764.8416,803.2673 L764.8416,817.782 L429.76,817.782 L429.76,803.2673 A12.5,12.5 0 0 1 442.26,790.7673 " fill="#FFFFFF" style="stroke:#FFFFFF;stroke-width:1.0;"/><path d="M429.76,817.782 L764.8416,817.782 L764.8416,877.282 A12.5,12.5 0 0 1 752.3416,889.782 L442.26,889.782 A12.5,12.5 0 0 1 429.76,877.282 L429.76,817.782 " fill="#FFFFFF" style="stroke:#FFFFFF;stroke-width:1.0;"/><rect fill="none" height="99.0146" rx="12.5" ry="12.5" style="stroke:#000000;stroke-width:1.0;" width="335.0816" x="429.76" y="790.7673"/><line style="stroke:#000000;stroke-width:1.0;" x1="429.76" x2="764.8416" y1="817.782" y2="817.782"/><text fill="#000000" font-family="Verdana" font-size="14" lengthAdjust="spacing" textLength="73.9717" x="560.315" y="809.8425">Conflicting</text><g id="conflict.conflict_flag"><rect fill="#FFFFFF" height="50" rx="12.5" ry="12.5" style="stroke:#000000;stroke-width:1.0;" width="141.4814" x="441.76" y="829.782"/><line style="stroke:#000000;stroke-width:1.0;" x1="441.76" x2="583.2414" y1="856.7966" y2="856.7966"/><text fill="#000000" font-family="Verdana" font-size="14" lengthAdjust="spacing" textLength="121.4814" x="451.76" y="848.8571">conflicting = true</text></g><g id="conflict.ttl_set"><rect fill="#FFFFFF" height="50" rx="12.5" ry="12.5" style="stroke:#000000;stroke-width:1.0;" width="154.6816" x="601.16" y="829.782"/><line style="stroke:#000000;stroke-width:1.0;" x1="601.16" x2="755.8416" y1="856.7966" y2="856.7966"/><text fill="#000000" font-family="Verdana" font-size="14" lengthAdjust="spacing" textLength="134.6816" x="611.16" y="848.8571">TTL set for cleanup</text></g><g id="cleanup"><rect fill="#FFFFFF" height="50" rx="12.5" ry="12.5" style="stroke:#000000;stroke-width:1.0;" width="100.1787" x="700.21" y="966.7773"/><line style="stroke:#000000;stroke-width:1.0;" x1="700.21" x2="800.3887" y1="993.792" y2="993.792"/><text fill="#000000" font-family="Verdana" font-size="14" lengthAdjust="spacing" textLength="80.1787" x="710.21" y="985.8525">Cleaned Up</text></g><ellipse cx="597.3" cy="68.7373" fill="#FFFFFF" rx="10" ry="10" style="stroke:#000000;stroke-width:1.0;"/><ellipse cx="203.3" cy="991.7773" fill="none" rx="11" ry="11" style="stroke:#000000;stroke-width:1.0;"/><ellipse cx="203.3" cy="991.7773" fill="#FFFFFF" rx="6" ry="6" style="stroke:#000000;stroke-width:1.0;"/><g id="elem_GMN27"><path d="M846.34,355.5373 L846.34,380.2373 L811.85,384.2373 L846.34,388.2373 L846.34,412.9353 A0,0 0 0 0 846.34,412.9353 L998.2668,412.9353 A0,0 0 0 0 998.2668,412.9353 L998.2668,365.5373 L988.2668,355.5373 L846.34,355.5373 A0,0 0 0 0 846.34,355.5373 " fill="#FFFFFF" style="stroke:#000000;stroke-width:1.0;"/><path d="M988.2668,355.5373 L988.2668,365.5373 L998.2668,365.5373 L988.2668,355.5373 " fill="#FFFFFF" style="stroke:#000000;stroke-width:1.0;"/><text fill="#000000" font-family="Verdana" font-size="13" lengthAdjust="spacing" textLength="130.9268" x="852.34" y="373.6071">Unmined flag tracks</text><text fill="#000000" font-family="Verdana" font-size="13" lengthAdjust="spacing" textLength="130.5776" x="852.34" y="389.4064">transactions not yet</text><text fill="#000000" font-family="Verdana" font-size="13" lengthAdjust="spacing" textLength="116.0352" x="852.34" y="405.2058">included in blocks</text></g><g id="elem_GMN30"><path d="M1026.69,583.5573 L1026.69,608.2573 L763.98,612.2573 L1026.69,616.2573 L1026.69,640.9553 A0,0 0 0 0 1026.69,640.9553 L1189.9219,640.9553 A0,0 0 0 0 1189.9219,640.9553 L1189.9219,593.5573 L1179.9219,583.5573 L1026.69,583.5573 A0,0 0 0 0 1026.69,583.5573 " fill="#FFFFFF" style="stroke:#000000;stroke-width:1.0;"/><path d="M1179.9219,583.5573 L1179.9219,593.5573 L1189.9219,593.5573 L1179.9219,583.5573 " fill="#FFFFFF" style="stroke:#000000;stroke-width:1.0;"/><text fill="#000000" font-family="Verdana" font-size="13" lengthAdjust="spacing" textLength="142.2319" x="1032.69" y="601.6271">Unmined transactions</text><text fill="#000000" font-family="Verdana" font-size="13" lengthAdjust="spacing" textLength="140.8354" x="1032.69" y="617.4264">are loaded on startup</text><text fill="#000000" font-family="Verdana" font-size="13" lengthAdjust="spacing" textLength="79.2124" x="1032.69" y="633.2258">for recovery</text></g><!--link *start* to received--><g id="link_*start*_received"><path d="M597.3,79.1073 C597.3,95.8373 597.3,125.3273 597.3,149.3573 " fill="none" id="*start*-to-received" style="stroke:#000000;stroke-width:1.0;"/><polygon fill="#000000" points="597.3,155.3573,601.3,146.3573,597.3,150.3573,593.3,146.3573,597.3,155.3573" style="stroke:#000000;stroke-width:1.0;"/><text fill="#000000" font-family="Verdana" font-size="13" lengthAdjust="spacing" textLength="105.5425" x="598.3" y="122.8071">New transaction</text></g><!--link received to validated--><g id="link_received_validated"><path d="M597.3,206.0373 C597.3,237.7573 597.3,287.9973 597.3,328.6173 " fill="none" id="received-to-validated" style="stroke:#000000;stroke-width:1.0;"/><polygon fill="#000000" points="597.3,334.6173,601.3,325.6173,597.3,329.6173,593.3,325.6173,597.3,334.6173" style="stroke:#000000;stroke-width:1.0;"/><text fill="#000000" font-family="Verdana" font-size="13" lengthAdjust="spacing" textLength="135.313" x="627.7075" y="249.8071">Validation successful</text><path d="M602.3,258.5366 L602.3,299.5366 L788.3,299.5366 L788.3,268.5366 L778.3,258.5366 L602.3,258.5366 " fill="#FFFFFF" style="stroke:#000000;stroke-width:1.0;"/><path d="M778.3,258.5366 L778.3,268.5366 L788.3,268.5366 L778.3,258.5366 " fill="#FFFFFF" style="stroke:#000000;stroke-width:1.0;"/><text fill="#000000" font-family="Verdana" font-size="13" lengthAdjust="spacing" textLength="139.8325" x="608.3" y="276.6064">Transaction validated</text><text fill="#000000" font-family="Verdana" font-size="13" lengthAdjust="spacing" textLength="165.1279" x="608.3" y="292.4058">and stored in UTXO store</text></g><!--link validated to assembly--><g id="link_validated_assembly"><path d="M597.3,434.0073 C597.3,472.0273 597.3,518.5773 597.3,556.5773 " fill="none" id="validated-to-assembly" style="stroke:#000000;stroke-width:1.0;"/><polygon fill="#000000" points="597.3,562.5773,601.3,553.5773,597.3,557.5773,593.3,553.5773,597.3,562.5773" style="stroke:#000000;stroke-width:1.0;"/><text fill="#000000" font-family="Verdana" font-size="13" lengthAdjust="spacing" textLength="176.3379" x="598.3" y="477.8171">AddTx() to Block Assembly</text><path d="M606.697,486.5466 L606.697,527.5466 L765.697,527.5466 L765.697,496.5466 L755.697,486.5466 L606.697,486.5466 " fill="#FFFFFF" style="stroke:#000000;stroke-width:1.0;"/><path d="M755.697,486.5466 L755.697,496.5466 L765.697,496.5466 L755.697,486.5466 " fill="#FFFFFF" style="stroke:#000000;stroke-width:1.0;"/><text fill="#000000" font-family="Verdana" font-size="13" lengthAdjust="spacing" textLength="138.5439" x="612.697" y="504.6164">Transaction unlocked</text><text fill="#000000" font-family="Verdana" font-size="13" lengthAdjust="spacing" textLength="137.0776" x="612.697" y="520.4158">and ready for mining</text></g><!--link assembly to mined--><g id="link_assembly_mined"><path d="M472.87,662.1373 C452.61,671.2873 432.12,681.2873 413.3,691.7673 C361.13,720.7973 310.8324,756.2371 270.1724,786.8671 " fill="none" id="assembly-to-mined" style="stroke:#000000;stroke-width:1.0;"/><polygon fill="#000000" points="265.38,790.4773,274.9753,788.2569,269.3736,787.4688,270.1617,781.8671,265.38,790.4773" style="stroke:#000000;stroke-width:1.0;"/><text fill="#000000" font-family="Verdana" font-size="13" lengthAdjust="spacing" textLength="93.5518" x="454.8857" y="705.8371">Mined in block</text><path d="M418.3,714.5666 L418.3,755.5666 L584.3,755.5666 L584.3,724.5666 L574.3,714.5666 L418.3,714.5666 " fill="#FFFFFF" style="stroke:#000000;stroke-width:1.0;"/><path d="M574.3,714.5666 L574.3,724.5666 L584.3,724.5666 L574.3,714.5666 " fill="#FFFFFF" style="stroke:#000000;stroke-width:1.0;"/><text fill="#000000" font-family="Verdana" font-size="13" lengthAdjust="spacing" textLength="145.7231" x="424.3" y="732.6364">SetMinedMulti() called</text><text fill="#000000" font-family="Verdana" font-size="13" lengthAdjust="spacing" textLength="143.7871" x="424.3" y="748.4358">unminedSince cleared</text></g><!--link assembly to conflict--><g id="link_assembly_conflict"><path d="M597.3,662.0173 C597.3,700.0373 597.3,746.5973 597.3,784.5973 " fill="none" id="assembly-to-conflict" style="stroke:#000000;stroke-width:1.0;"/><polygon fill="#000000" points="597.3,790.5973,601.3,781.5973,597.3,785.5973,593.3,781.5973,597.3,790.5973" style="stroke:#000000;stroke-width:1.0;"/><text fill="#000000" font-family="Verdana" font-size="13" lengthAdjust="spacing" textLength="151.4106" x="612.0161" y="705.8371">Double-spend detected</text><path d="M602.3,714.5666 L602.3,755.5666 L772.3,755.5666 L772.3,724.5666 L762.3,714.5666 L602.3,714.5666 " fill="#FFFFFF" style="stroke:#000000;stroke-width:1.0;"/><path d="M762.3,714.5666 L762.3,724.5666 L772.3,724.5666 L762.3,714.5666 " fill="#FFFFFF" style="stroke:#000000;stroke-width:1.0;"/><text fill="#000000" font-family="Verdana" font-size="13" lengthAdjust="spacing" textLength="133.5864" x="608.3" y="732.6364">Transaction conflicts</text><text fill="#000000" font-family="Verdana" font-size="13" lengthAdjust="spacing" textLength="149.8428" x="608.3" y="748.4358">with mined transaction</text></g><!--link assembly to assembly--><g id="link_assembly_assembly"><path d="M763.98,593.6373 C784.92,596.9173 798.69,603.1273 798.69,612.2573 C798.69,621.3873 790.8477,626.6588 769.9077,629.9388 " fill="none" id="assembly-to-assembly" style="stroke:#000000;stroke-width:1.0;"/><polygon fill="#000000" points="763.98,630.8673,773.4906,633.4264,768.9198,630.0935,772.2526,625.5227,763.98,630.8673" style="stroke:#000000;stroke-width:1.0;"/><text fill="#000000" font-family="Verdana" font-size="13" lengthAdjust="spacing" textLength="96.1924" x="855.9544" y="591.8271">Service restart</text><path d="M803.69,605.5566 L803.69,646.5566 L1003.69,646.5566 L1003.69,615.5566 L993.69,605.5566 L803.69,605.5566 " fill="#FFFFFF" style="stroke:#000000;stroke-width:1.0;"/><path d="M993.69,605.5566 L993.69,615.5566 L1003.69,615.5566 L993.69,605.5566 " fill="#FFFFFF" style="stroke:#000000;stroke-width:1.0;"/><text fill="#000000" font-family="Verdana" font-size="13" lengthAdjust="spacing" textLength="179.7212" x="809.69" y="623.6264">loadUnminedTransactions()</text><text fill="#000000" font-family="Verdana" font-size="13" lengthAdjust="spacing" textLength="167.248" x="809.69" y="639.4258">restores from UTXO store</text></g><!--link assembly to cleanup--><g id="link_assembly_cleanup"><path d="M757.06,662.1073 C767.97,670.4773 777.65,680.2773 785.3,691.7673 C843.25,778.7673 791.9131,906.931 765.5331,961.201 " fill="none" id="assembly-to-cleanup" style="stroke:#000000;stroke-width:1.0;"/><polygon fill="#000000" points="762.91,966.5973,770.4421,960.2516,765.0959,962.1004,763.2471,956.7542,762.91,966.5973" style="stroke:#000000;stroke-width:1.0;"/><text fill="#000000" font-family="Verdana" font-size="13" lengthAdjust="spacing" textLength="161.2686" x="829.6423" y="819.8371">Retention period expired</text><path d="M816.07,828.5666 L816.07,869.5666 L1004.07,869.5666 L1004.07,838.5666 L994.07,828.5666 L816.07,828.5666 " fill="#FFFFFF" style="stroke:#000000;stroke-width:1.0;"/><path d="M994.07,828.5666 L994.07,838.5666 L1004.07,838.5666 L994.07,828.5666 " fill="#FFFFFF" style="stroke:#000000;stroke-width:1.0;"/><text fill="#000000" font-family="Verdana" font-size="13" lengthAdjust="spacing" textLength="167.4131" x="822.07" y="846.6364">Old unmined transactions</text><text fill="#000000" font-family="Verdana" font-size="13" lengthAdjust="spacing" textLength="149.354" x="822.07" y="862.4358">cleaned up periodically</text></g><!--link conflict to cleanup--><g id="link_conflict_cleanup"><path d="M647.4,890.2273 C673.54,915.7773 700.0887,941.7139 721.1387,962.2839 " fill="none" id="conflict-to-cleanup" style="stroke:#000000;stroke-width:1.0;"/><polygon fill="#000000" points="725.43,966.4773,721.7887,957.3263,721.8539,962.9828,716.1975,963.048,725.43,966.4773" style="stroke:#000000;stroke-width:1.0;"/><text fill="#000000" font-family="Verdana" font-size="13" lengthAdjust="spacing" textLength="74.9976" x="693" y="933.8471">TTL expires</text></g><!--link mined to *end*--><g id="link_mined_*end*"><path d="M203.3,890.2273 C203.3,922.4173 203.3,955.8773 203.3,974.3373 " fill="none" id="mined-to-*end*" style="stroke:#000000;stroke-width:1.0;"/><polygon fill="#000000" points="203.3,980.3373,207.3,971.3373,203.3,975.3373,199.3,971.3373,203.3,980.3373" style="stroke:#000000;stroke-width:1.0;"/><text fill="#000000" font-family="Verdana" font-size="13" lengthAdjust="spacing" textLength="134.3037" x="204.3" y="933.8471">Transaction finalized</text></g><!--SRC=[VLJ1JXin4BtxAwOSAgZ43qIY4Yq7aA1K95IL0277Eqii73kolO6qwhztnlRkUXE9NBAstynxC_FiJt65QuIDaTgAgAD1kBThRR61XPSsI1Mrit2jMrGxPL2846L4EAfFxr2Xtc9p13A0BuiU-4iQtT1N0vzX7fqliEsm_LS0_Ggwo-HpRHN26QZEUxJnct7gzHBroogcu89wRerygQCPHXdF8FeE4pBlPE2_Nj9vqn0gEaXvuJm4N2_DBWN8ifZA6XAtqWGi6khS5VRAmhnRHey8FxrJ68AsBobaCon7BLTMcOxbQ9lb96IUm4UTiTgCo0CDIyvqTH48-92-BsLOFQM0j7pss8uQlZlR6aspB3fLMKy5g15LTxZVFj2mM5n3m0Yjyq3EaRRRf80OpJFjL_HyIENUv_E25UBXonESdduT70Kp-85ln3muJuZXZ86ZfsPGRCVs39tYjhUT4TOH8MqPRLy9L9ju27wqqZPK15kLftA_-7sRbqAC3CmtU6K6PAd5-_79eQa-ekmjb1azocQNkaKpPO-88J-JPKlCu2RzawuqoFtqSum9SDEPg4cFaiOmmSGzt64gRezWcFeCBbotD7WQDaYw6eoegEIFAkbZmwDzqt5Ln4ucDU6gEZT7lzKaoYFPmSTz5kDaKrwaYZ0SdpnQZg2f16YzMq_6DAqh-ubotL4bDkdTeDUk0NpVQ7zOsQrf-YUche6AKyMgb2wdqDpWdH13ywQCV0SoIH0v7v-piQVzQxKbP_tXcIGjdfywSEteIhfP_SFC5urrgTT0kxL0e63OqTq2CiZuhYId1C73vEpx77stAeewAMsJMz8Ww8Jl4y-9BYWaiz8DT5lqkp7zVm00]--></g></svg>
