<svg xmlns="http://www.w3.org/2000/svg" xmlns:xlink="http://www.w3.org/1999/xlink" contentStyleType="text/css" height="353px" preserveAspectRatio="none" style="width:455px;height:353px;background:#F0F8FF;" version="1.1" viewBox="0 0 455 353" width="455px" zoomAndPan="magnify"><defs/><g><rect fill="#F0F8FF" height="353" style="stroke:none;stroke-width:1.0;" width="455" x="0" y="0"/><rect fill="#FFFFFF" height="29.3105" style="stroke:#181818;stroke-width:1.0;" width="10" x="392.2632" y="153.4199"/><rect fill="#FFFFFF" height="29.3105" style="stroke:#181818;stroke-width:1.0;" width="10" x="392.2632" y="255.3516"/><line style="stroke:#181818;stroke-width:0.5;stroke-dasharray:5.0,5.0;" x1="64" x2="64" y1="36.4883" y2="302.6621"/><line style="stroke:#181818;stroke-width:0.5;stroke-dasharray:5.0,5.0;" x1="396.5" x2="396.5" y1="36.4883" y2="302.6621"/><rect fill="#DDDDDD" height="30.4883" rx="2.5" ry="2.5" style="stroke:#666666;stroke-width:0.5;" width="119.458" x="5" y="5"/><text fill="#333333" font-family="sans-serif" font-size="14" lengthAdjust="spacing" textLength="105.458" x="12" y="25.5352">Block Assembly</text><rect fill="#DDDDDD" height="30.4883" rx="2.5" ry="2.5" style="stroke:#666666;stroke-width:0.5;" width="119.458" x="5" y="301.6621"/><text fill="#333333" font-family="sans-serif" font-size="14" lengthAdjust="spacing" textLength="105.458" x="12" y="322.1973">Block Assembly</text><rect fill="#DDDDDD" height="30.4883" rx="2.5" ry="2.5" style="stroke:#666666;stroke-width:0.5;" width="91.5264" x="351.5" y="5"/><text fill="#333333" font-family="sans-serif" font-size="14" lengthAdjust="spacing" textLength="77.5264" x="358.5" y="25.5352">UTXO Store</text><rect fill="#DDDDDD" height="30.4883" rx="2.5" ry="2.5" style="stroke:#666666;stroke-width:0.5;" width="91.5264" x="351.5" y="301.6621"/><text fill="#333333" font-family="sans-serif" font-size="14" lengthAdjust="spacing" textLength="77.5264" x="358.5" y="322.1973">UTXO Store</text><rect fill="#FFFFFF" height="29.3105" style="stroke:#181818;stroke-width:1.0;" width="10" x="392.2632" y="153.4199"/><rect fill="#FFFFFF" height="29.3105" style="stroke:#181818;stroke-width:1.0;" width="10" x="392.2632" y="255.3516"/><rect fill="#EEEEEE" height="3" style="stroke:#EEEEEE;stroke-width:1.0;" width="448.0264" x="0" y="67.1436"/><line style="stroke:#000000;stroke-width:1.0;" x1="0" x2="448.0264" y1="67.1436" y2="67.1436"/><line style="stroke:#000000;stroke-width:1.0;" x1="0" x2="448.0264" y1="70.1436" y2="70.1436"/><rect fill="#EEEEEE" height="23.3105" style="stroke:#000000;stroke-width:2.0;" width="149.3638" x="149.3313" y="56.4883"/><text fill="#333333" font-family="sans-serif" font-size="13" font-weight="bold" lengthAdjust="spacing" textLength="131.0791" x="155.3313" y="73.0566">Create Coinbase TX</text><line style="stroke:#666666;stroke-width:1.0;" x1="64.729" x2="106.729" y1="111.1094" y2="111.1094"/><line style="stroke:#666666;stroke-width:1.0;" x1="106.729" x2="106.729" y1="111.1094" y2="124.1094"/><line style="stroke:#666666;stroke-width:1.0;" x1="65.729" x2="106.729" y1="124.1094" y2="124.1094"/><polygon fill="#666666" points="75.729,120.1094,65.729,124.1094,75.729,128.1094,71.729,124.1094" style="stroke:#666666;stroke-width:1.0;"/><text fill="#333333" font-family="sans-serif" font-size="13" lengthAdjust="spacing" textLength="213.4907" x="71.729" y="106.3672">processCoinbaseUtxos(ctx, block)</text><polygon fill="#666666" points="380.2632,149.4199,390.2632,153.4199,380.2632,157.4199,384.2632,153.4199" style="stroke:#666666;stroke-width:1.0;"/><line style="stroke:#666666;stroke-width:1.0;" x1="64.729" x2="386.2632" y1="153.4199" y2="153.4199"/><text fill="#333333" font-family="sans-serif" font-size="13" lengthAdjust="spacing" textLength="308.5342" x="71.729" y="148.6777">Create(ctx, block.CoinbaseTx, blockHeight+100)</text><polygon fill="#666666" points="75.729,178.7305,65.729,182.7305,75.729,186.7305,71.729,182.7305" style="stroke:#666666;stroke-width:1.0;"/><line style="stroke:#666666;stroke-width:1.0;stroke-dasharray:2.0,2.0;" x1="69.729" x2="396.2632" y1="182.7305" y2="182.7305"/><text fill="#333333" font-family="sans-serif" font-size="13" lengthAdjust="spacing" textLength="82.894" x="81.729" y="177.9883">Confirmation</text><rect fill="#EEEEEE" height="3" style="stroke:#EEEEEE;stroke-width:1.0;" width="448.0264" x="0" y="211.3857"/><line style="stroke:#000000;stroke-width:1.0;" x1="0" x2="448.0264" y1="211.3857" y2="211.3857"/><line style="stroke:#000000;stroke-width:1.0;" x1="0" x2="448.0264" y1="214.3857" y2="214.3857"/><rect fill="#EEEEEE" height="23.3105" style="stroke:#000000;stroke-width:2.0;" width="148.7036" x="149.6614" y="200.7305"/><text fill="#333333" font-family="sans-serif" font-size="13" font-weight="bold" lengthAdjust="spacing" textLength="130.4189" x="155.6614" y="217.2988">Delete Coinbase TX</text><polygon fill="#666666" points="380.2632,251.3516,390.2632,255.3516,380.2632,259.3516,384.2632,255.3516" style="stroke:#666666;stroke-width:1.0;"/><line style="stroke:#666666;stroke-width:1.0;" x1="64.729" x2="386.2632" y1="255.3516" y2="255.3516"/><text fill="#333333" font-family="sans-serif" font-size="13" lengthAdjust="spacing" textLength="146.1548" x="71.729" y="250.6094">Delete(Coinbase UTXO)</text><polygon fill="#666666" points="75.729,280.6621,65.729,284.6621,75.729,288.6621,71.729,284.6621" style="stroke:#666666;stroke-width:1.0;"/><line style="stroke:#666666;stroke-width:1.0;stroke-dasharray:2.0,2.0;" x1="69.729" x2="396.2632" y1="284.6621" y2="284.6621"/><text fill="#333333" font-family="sans-serif" font-size="13" lengthAdjust="spacing" textLength="82.894" x="81.729" y="279.9199">Confirmation</text><text fill="#333333" font-family="sans-serif" font-size="10" lengthAdjust="spacing" textLength="155.4346" x="0" y="343.8184">Last Modified On: 24-Feb-2025</text><!--SRC=[jL9HIyCm47xFhpWguePM9eB8e8BhA3vOzk06UqsRwmnBav7ST4FyxwPrBQtpGHJl8UJklk-xxqBSMkeDjxo4ZEVhbJLRBMAZZ8MJP9JS9WbpBK9WmRUA4gFf0BckemFXrfhNG_Ec3iREO8g5r0YPiGAjWy9tkLA02alKv3fydqhQmni3cDJelfQlVdKvhOEziuvAxXrQe_uguq-IkTnmJR-JOgmh4KoKoTTmxnoMcTe7m1tKfQRIHo_conayaR5O8wkqpXYB8eWjSaA8ZTGPTmZp9KGHOpqv2E_w-cFOM9EZSmrjGJlZ1ZdjBY2hWCDZWNRi-32p0xziTEPDvG7bwfdEhqQZ8UCvoPVAPCTvUuNms5niT25joKaQpGH-nwzMd_flyvFLEyu_AOEMKhN-nw32Wlp_DeGM7haZI8sGXKG1Cps6Kr4zO214cAPfkFSH3Da7]--></g></svg>
