<svg contentStyleType="text/css" height="1818" preserveAspectRatio="none" viewBox="0 0 885 1818" width="885" xmlns="http://www.w3.org/2000/svg" zoomAndPan="magnify"><path d="m440 666.3887h428v133.5527h-428z" fill="none" stroke="#000" stroke-width="1.5"/><path d="m440 1570.3945h428v75.9316h-428z" fill="none" stroke="#000" stroke-width="1.5"/><g stroke="#181818"><path d="m23 81.4883v1640.459" stroke-dasharray="5 5" stroke-width=".5"/><path d="m223 81.4883v1640.459" stroke-dasharray="5 5" stroke-width=".5"/><path d="m499 81.4883v1640.459" stroke-dasharray="5 5" stroke-width=".5"/><path d="m816 81.4883v1640.459" stroke-dasharray="5 5" stroke-width=".5"/></g><text font-family="sans-serif" font-size="14" lengthAdjust="spacing" textLength="31" x="5" y="78.5352">User</text><ellipse cx="23.5" cy="13.5" fill="#e2e2f0" rx="8" ry="8" stroke="#181818" stroke-width=".5"/><path d="m23.5 21.5v27m-13-19h26m-13 19-13 15m13-15 13 15" fill="none" stroke="#181818" stroke-width=".5"/><text font-family="sans-serif" font-size="14" lengthAdjust="spacing" textLength="31" x="5" y="1734.4824">User</text><ellipse cx="23.5" cy="1745.9355" fill="#e2e2f0" rx="8" ry="8" stroke="#181818" stroke-width=".5"/><path d="m23.5 1753.9355v27m-13-19h26m-13 19-13 15m13-15 13 15" fill="none" stroke="#181818" stroke-width=".5"/><rect fill="#e2e2f0" height="30.4883" rx="2.5" stroke="#181818" stroke-width=".5" width="107" x="170" y="50"/><text font-family="sans-serif" font-size="14" lengthAdjust="spacing" textLength="93" x="177" y="70.5352">UI Dashboard</text><rect fill="#e2e2f0" height="30.4883" rx="2.5" stroke="#181818" stroke-width=".5" width="107" x="170" y="1720.9473"/><text font-family="sans-serif" font-size="14" lengthAdjust="spacing" textLength="93" x="177" y="1741.4824">UI Dashboard</text><rect fill="#e2e2f0" height="30.4883" rx="2.5" stroke="#181818" stroke-width=".5" width="99" x="450" y="50"/><text font-family="sans-serif" font-size="14" lengthAdjust="spacing" textLength="85" x="457" y="70.5352">AssetService</text><rect fill="#e2e2f0" height="30.4883" rx="2.5" stroke="#181818" stroke-width=".5" width="99" x="450" y="1720.9473"/><text font-family="sans-serif" font-size="14" lengthAdjust="spacing" textLength="85" x="457" y="1741.4824">AssetService</text><rect fill="#e2e2f0" height="30.4883" rx="2.5" stroke="#181818" stroke-width=".5" width="83" x="775" y="50"/><text font-family="sans-serif" font-size="14" lengthAdjust="spacing" textLength="69" x="782" y="70.5352">UtxoStore</text><rect fill="#e2e2f0" height="30.4883" rx="2.5" stroke="#181818" stroke-width=".5" width="83" x="775" y="1720.9473"/><text font-family="sans-serif" font-size="14" lengthAdjust="spacing" textLength="69" x="782" y="1741.4824">UtxoStore</text><path d="m0 112.1436h878v3h-878z" fill="#eee" stroke="#eee"/><path d="m0 112.1436h878" stroke="#000"/><path d="m0 115.1436h878" stroke="#000"/><path d="m390.5 101.4883h97v23.3105h-97z" fill="#eee" stroke="#000" stroke-width="2"/><text font-family="sans-serif" font-size="13" font-weight="bold" lengthAdjust="spacing" textLength="79" x="396.5" y="118.0566">Fetch UTXO</text><path d="m211.5 152.1094 10 4-10 4 4-4z" fill="#181818" stroke="#181818"/><path d="m23.5 156.1094h194" stroke="#181818"/><text font-family="sans-serif" font-size="13" lengthAdjust="spacing" textLength="123" x="30.5" y="151.3672">Request UTXO Meta</text><path d="m487.5 212.041 10 4-10 4 4-4z" fill="#181818" stroke="#181818"/><path d="m223.5 216.041h270" stroke="#181818"/><text font-family="sans-serif" font-size="13" lengthAdjust="spacing" textLength="175" x="230.5" y="180.6777">/utxo/:hash (binary stream)</text><text font-family="sans-serif" font-size="13" lengthAdjust="spacing" textLength="111" x="230.5" y="195.9883">/utxo/:hash/json</text><text font-family="sans-serif" font-size="13" lengthAdjust="spacing" textLength="107" x="230.5" y="211.2988">/utxo/:hash/hex</text><path d="m499.5 245.3516h42" stroke="#181818"/><path d="m541.5 245.3516v13" stroke="#181818"/><path d="m500.5 258.3516h41" stroke="#181818"/><path d="m510.5 254.3516-10 4 10 4-4-4z" fill="#181818" stroke="#181818"/><text font-family="sans-serif" font-size="13" lengthAdjust="spacing" textLength="64" x="506.5" y="240.6094">GetUTXO()</text><path d="m804.5 283.6621 10 4-10 4 4-4z" fill="#181818" stroke="#181818"/><path d="m499.5 287.6621h311" stroke="#181818"/><text font-family="sans-serif" font-size="13" lengthAdjust="spacing" textLength="153" x="506.5" y="282.9199">GetSpend(context, hash)</text><path d="m510.5 328.2832-10 4 10 4-4-4z" fill="#181818" stroke="#181818"/><path d="m504.5 332.2832h311" stroke="#181818"/><text font-family="sans-serif" font-size="13" lengthAdjust="spacing" textLength="186" x="516.5" y="312.2305">Return UTXO Spend Response</text><text font-family="sans-serif" font-size="13" lengthAdjust="spacing" textLength="143" x="516.5" y="327.541">(Status, SpendingTxID)</text><path d="m234.5 357.5938-10 4 10 4-4-4z" fill="#181818" stroke="#181818"/><path d="m228.5 361.5938h270" stroke="#181818"/><text font-family="sans-serif" font-size="13" lengthAdjust="spacing" textLength="186" x="240.5" y="356.8516">Return UTXO Spend Response</text><path d="m34.5 386.9043-10 4 10 4-4-4z" fill="#181818" stroke="#181818"/><path d="m28.5 390.9043h194" stroke="#181818"/><text font-family="sans-serif" font-size="13" lengthAdjust="spacing" textLength="168" x="40.5" y="386.1621">Display UTXO Spent Status</text><path d="m0 419.5596h878v3h-878z" fill="#eee" stroke="#eee"/><path d="m0 419.5596h878" stroke="#000"/><path d="m0 422.5596h878" stroke="#000"/><path d="m357.5 408.9043h163v23.3105h-163z" fill="#eee" stroke="#000" stroke-width="2"/><text font-family="sans-serif" font-size="13" font-weight="bold" lengthAdjust="spacing" textLength="145" x="363.5" y="425.4727">Fetch UTXOs by Tx Id</text><path d="m211.5 459.5254 10 4-10 4 4-4z" fill="#181818" stroke="#181818"/><path d="m23.5 463.5254h194" stroke="#181818"/><text font-family="sans-serif" font-size="13" lengthAdjust="spacing" textLength="123" x="30.5" y="458.7832">Request UTXO Meta</text><path d="m487.5 488.8359 10 4-10 4 4-4z" fill="#181818" stroke="#181818"/><path d="m223.5 492.8359h270" stroke="#181818"/><text font-family="sans-serif" font-size="13" lengthAdjust="spacing" textLength="118" x="230.5" y="488.0938">/utxos/:hash/json</text><path d="m499.5 522.1465h42" stroke="#181818"/><path d="m541.5 522.1465v13" stroke="#181818"/><path d="m500.5 535.1465h41" stroke="#181818"/><path d="m510.5 531.1465-10 4 10 4-4-4z" fill="#181818" stroke="#181818"/><text font-family="sans-serif" font-size="13" lengthAdjust="spacing" textLength="115" x="506.5" y="517.4043">GetUTXOsByTXID()</text><path d="m804.5 560.457 10 4-10 4 4-4z" fill="#181818" stroke="#181818"/><path d="m499.5 564.457h311" stroke="#181818"/><text font-family="sans-serif" font-size="13" lengthAdjust="spacing" textLength="145" x="506.5" y="559.7148">GetMeta(context, hash)</text><path d="m510.5 589.7676-10 4 10 4-4-4z" fill="#181818" stroke="#181818"/><path d="m504.5 593.7676h311" stroke="#181818"/><text font-family="sans-serif" font-size="13" lengthAdjust="spacing" textLength="114" x="516.5" y="589.0254">Return UTXO Meta</text><path d="m499.5 638.3887h42" stroke="#181818"/><path d="m541.5 638.3887v13" stroke="#181818"/><path d="m500.5 651.3887h41" stroke="#181818"/><path d="m510.5 647.3887-10 4 10 4-4-4z" fill="#181818" stroke="#181818"/><text font-family="sans-serif" font-size="13" lengthAdjust="spacing" textLength="54" x="506.5" y="618.3359">Use tx =</text><text font-family="sans-serif" font-size="13" lengthAdjust="spacing" textLength="299" x="510.5" y="633.6465">bt.NewTxFromBytes(txMeta.Tx.ExtendedBytes())</text><path d="m440 666.3887h74v7.3105l-10 10h-64z" fill="#eee" stroke="#000" stroke-width="1.5"/><path d="m440 666.3887h428v133.5527h-428z" fill="none" stroke="#000" stroke-width="1.5"/><text font-family="sans-serif" font-size="13" font-weight="bold" lengthAdjust="spacing" textLength="29" x="455" y="679.957">loop</text><text font-family="sans-serif" font-size="11" font-weight="bold" lengthAdjust="spacing" textLength="170" x="529" y="679.0234">[for each output in tx.Outputs]</text><path d="m499.5 705.0098h42" stroke="#181818"/><path d="m541.5 705.0098v13" stroke="#181818"/><path d="m500.5 718.0098h41" stroke="#181818"/><path d="m510.5 714.0098-10 4 10 4-4-4z" fill="#181818" stroke="#181818"/><text font-family="sans-serif" font-size="13" lengthAdjust="spacing" textLength="202" x="506.5" y="700.2676">Compute utxoHash from output</text><path d="m804.5 743.3203 10 4-10 4 4-4z" fill="#181818" stroke="#181818"/><path d="m499.5 747.3203h311" stroke="#181818"/><text font-family="sans-serif" font-size="13" lengthAdjust="spacing" textLength="184" x="506.5" y="742.5781">GetSpend(context, utxoHash)</text><path d="m510.5 787.9414-10 4 10 4-4-4z" fill="#181818" stroke="#181818"/><path d="m504.5 791.9414h311" stroke="#181818"/><text font-family="sans-serif" font-size="13" lengthAdjust="spacing" textLength="186" x="516.5" y="771.8887">Return UTXO Spend Response</text><text font-family="sans-serif" font-size="13" lengthAdjust="spacing" textLength="143" x="516.5" y="787.1992">(Status, SpendingTxID)</text><path d="m234.5 824.252-10 4 10 4-4-4z" fill="#181818" stroke="#181818"/><path d="m228.5 828.252h270" stroke="#181818"/><text font-family="sans-serif" font-size="13" lengthAdjust="spacing" textLength="87" x="240.5" y="823.5098">Return UTXOs</text><path d="m34.5 853.5625-10 4 10 4-4-4z" fill="#181818" stroke="#181818"/><path d="m28.5 857.5625h194" stroke="#181818"/><text font-family="sans-serif" font-size="13" lengthAdjust="spacing" textLength="175" x="40.5" y="852.8203">Display UTXOs Spent Status</text><path d="m0 886.2178h878v3h-878z" fill="#eee" stroke="#eee"/><path d="m0 886.2178h878" stroke="#000"/><path d="m0 889.2178h878" stroke="#000"/><path d="m354.5 875.5625h169v23.3105h-169z" fill="#eee" stroke="#000" stroke-width="2"/><text font-family="sans-serif" font-size="13" font-weight="bold" lengthAdjust="spacing" textLength="151" x="360.5" y="892.1309">Fetch UTXO Meta Data</text><path d="m211.5 926.1836 10 4-10 4 4-4z" fill="#181818" stroke="#181818"/><path d="m23.5 930.1836h194" stroke="#181818"/><text font-family="sans-serif" font-size="13" lengthAdjust="spacing" textLength="123" x="30.5" y="925.4414">Request UTXO Meta</text><path d="m487.5 955.4941 10 4-10 4 4-4z" fill="#181818" stroke="#181818"/><path d="m223.5 959.4941h270" stroke="#181818"/><text font-family="sans-serif" font-size="13" lengthAdjust="spacing" textLength="126" x="230.5" y="954.752">/txmeta/:hash/json</text><path d="m499.5 988.8047h42" stroke="#181818"/><path d="m541.5 988.8047v13" stroke="#181818"/><path d="m500.5 1001.8047h41" stroke="#181818"/><path d="m510.5 997.8047-10 4 10 4-4-4z" fill="#181818" stroke="#181818"/><text font-family="sans-serif" font-size="13" lengthAdjust="spacing" textLength="133" x="506.5" y="984.0625">GetTransactionMeta()</text><path d="m804.5 1027.1152 10 4-10 4 4-4z" fill="#181818" stroke="#181818"/><path d="m499.5 1031.1152h311" stroke="#181818"/><text font-family="sans-serif" font-size="13" lengthAdjust="spacing" textLength="115" x="506.5" y="1026.373">Get(context, hash)</text><path d="m510.5 1056.4258-10 4 10 4-4-4z" fill="#181818" stroke="#181818"/><path d="m504.5 1060.4258h311" stroke="#181818"/><text font-family="sans-serif" font-size="13" lengthAdjust="spacing" textLength="114" x="516.5" y="1055.6836">Return UTXO Meta</text><path d="m234.5 1085.7363-10 4 10 4-4-4z" fill="#181818" stroke="#181818"/><path d="m228.5 1089.7363h270" stroke="#181818"/><text font-family="sans-serif" font-size="13" lengthAdjust="spacing" textLength="114" x="240.5" y="1084.9941">Return UTXO Meta</text><path d="m34.5 1115.0469-10 4 10 4-4-4z" fill="#181818" stroke="#181818"/><path d="m28.5 1119.0469h194" stroke="#181818"/><text font-family="sans-serif" font-size="13" lengthAdjust="spacing" textLength="120" x="40.5" y="1114.3047">Display UTXO Meta</text><path d="m0 1147.7021h878v3h-878z" fill="#eee" stroke="#eee"/><path d="m0 1147.7021h878" stroke="#000"/><path d="m0 1150.7021h878" stroke="#000"/><path d="m370 1137.0469h138v23.3105h-138z" fill="#eee" stroke="#000" stroke-width="2"/><text font-family="sans-serif" font-size="13" font-weight="bold" lengthAdjust="spacing" textLength="120" x="376" y="1153.6152">Fetch Transaction</text><path d="m211.5 1187.668 10 4-10 4 4-4z" fill="#181818" stroke="#181818"/><path d="m23.5 1191.668h194" stroke="#181818"/><text font-family="sans-serif" font-size="13" lengthAdjust="spacing" textLength="176" x="30.5" y="1186.9258">Request Transaction Details</text><path d="m487.5 1247.5996 10 4-10 4 4-4z" fill="#181818" stroke="#181818"/><path d="m223.5 1251.5996h270" stroke="#181818"/><text font-family="sans-serif" font-size="13" lengthAdjust="spacing" textLength="159" x="230.5" y="1216.2363">/tx/:hash (binary stream)</text><text font-family="sans-serif" font-size="13" lengthAdjust="spacing" textLength="95" x="230.5" y="1231.5469">/tx/:hash/json</text><text font-family="sans-serif" font-size="13" lengthAdjust="spacing" textLength="91" x="230.5" y="1246.8574">/tx/:hash/hex</text><path d="m499.5 1280.9102h42" stroke="#181818"/><path d="m541.5 1280.9102v13" stroke="#181818"/><path d="m500.5 1293.9102h41" stroke="#181818"/><path d="m510.5 1289.9102-10 4 10 4-4-4z" fill="#181818" stroke="#181818"/><text font-family="sans-serif" font-size="13" lengthAdjust="spacing" textLength="103" x="506.5" y="1276.168">GetTransaction()</text><path d="m804.5 1319.2207 10 4-10 4 4-4z" fill="#181818" stroke="#181818"/><path d="m499.5 1323.2207h311" stroke="#181818"/><text font-family="sans-serif" font-size="13" lengthAdjust="spacing" textLength="117" x="506.5" y="1318.4785">GetMeta(ctx, hash)</text><path d="m510.5 1348.5313-10 4 10 4-4-4z" fill="#181818" stroke="#181818"/><path d="m504.5 1352.5313h311" stroke="#181818"/><text font-family="sans-serif" font-size="13" lengthAdjust="spacing" textLength="135" x="516.5" y="1347.7891">Return UTXO (txMeta)</text><path d="m234.5 1377.8418-10 4 10 4-4-4z" fill="#181818" stroke="#181818"/><path d="m228.5 1381.8418h270" stroke="#181818"/><text font-family="sans-serif" font-size="13" lengthAdjust="spacing" textLength="211" x="240.5" y="1377.0996">Return txMeta.Tx.ExtendedBytes()</text><path d="m34.5 1407.1523-10 4 10 4-4-4z" fill="#181818" stroke="#181818"/><path d="m28.5 1411.1523h194" stroke="#181818"/><text font-family="sans-serif" font-size="13" lengthAdjust="spacing" textLength="173" x="40.5" y="1406.4102">Display Transaction Details</text><path d="m0 1439.8076h878v3h-878z" fill="#eee" stroke="#eee"/><path d="m0 1439.8076h878" stroke="#000"/><path d="m0 1442.8076h878" stroke="#000"/><path d="m336 1429.1523h206v23.3105h-206z" fill="#eee" stroke="#000" stroke-width="2"/><text font-family="sans-serif" font-size="13" font-weight="bold" lengthAdjust="spacing" textLength="188" x="342" y="1445.7207">Fetch Transactions (Stream)</text><path d="m211.5 1479.7734 10 4-10 4 4-4z" fill="#181818" stroke="#181818"/><path d="m23.5 1483.7734h194" stroke="#181818"/><text font-family="sans-serif" font-size="13" lengthAdjust="spacing" textLength="162" x="30.5" y="1479.0313">Request Transactions List</text><path d="m487.5 1509.084 10 4-10 4 4-4z" fill="#181818" stroke="#181818"/><path d="m223.5 1513.084h270" stroke="#181818"/><text font-family="sans-serif" font-size="13" lengthAdjust="spacing" textLength="63" x="230.5" y="1508.3418">POST /txs</text><path d="m499.5 1542.3945h42" stroke="#181818"/><path d="m541.5 1542.3945v13" stroke="#181818"/><path d="m500.5 1555.3945h41" stroke="#181818"/><path d="m510.5 1551.3945-10 4 10 4-4-4z" fill="#181818" stroke="#181818"/><text font-family="sans-serif" font-size="13" lengthAdjust="spacing" textLength="110" x="506.5" y="1537.6523">GetTransactions()</text><path d="m440 1570.3945h74v7.3106l-10 10h-64z" fill="#eee" stroke="#000" stroke-width="1.5"/><path d="m440 1570.3945h428v75.9316h-428z" fill="none" stroke="#000" stroke-width="1.5"/><text font-family="sans-serif" font-size="13" font-weight="bold" lengthAdjust="spacing" textLength="29" x="455" y="1583.9629">loop</text><text font-family="sans-serif" font-size="11" font-weight="bold" lengthAdjust="spacing" textLength="230" x="529" y="1583.0293">[for each hash in the POST request body]</text><path d="m804.5 1605.0156 10 4-10 4 4-4z" fill="#181818" stroke="#181818"/><path d="m499.5 1609.0156h311" stroke="#181818"/><text font-family="sans-serif" font-size="13" lengthAdjust="spacing" textLength="136" x="506.5" y="1604.2734">GetMeta(ctx, tx.Hash)</text><path d="m510.5 1634.3262-10 4 10 4-4-4z" fill="#181818" stroke="#181818"/><path d="m504.5 1638.3262h311" stroke="#181818"/><text font-family="sans-serif" font-size="13" lengthAdjust="spacing" textLength="135" x="516.5" y="1633.584">Return UTXO (txMeta)</text><path d="m234.5 1670.6367-10 4 10 4-4-4z" fill="#181818" stroke="#181818"/><path d="m228.5 1674.6367h270" stroke="#181818"/><text font-family="sans-serif" font-size="13" lengthAdjust="spacing" textLength="252" x="240.5" y="1669.8945">Return list of txMeta.Tx.ExtendedBytes()</text><path d="m34.5 1699.9473-10 4 10 4-4-4z" fill="#181818" stroke="#181818"/><path d="m28.5 1703.9473h194" stroke="#181818"/><text font-family="sans-serif" font-size="13" lengthAdjust="spacing" textLength="159" x="40.5" y="1699.2051">Display Transactions List</text><text fill="#888" font-family="sans-serif" font-size="10" lengthAdjust="spacing" textLength="152" y="1808.1035">Last Modified On: 4-June-2024</text></svg>
