<svg contentStyleType="text/css" height="353" preserveAspectRatio="none" viewBox="0 0 455 353" width="455" xmlns="http://www.w3.org/2000/svg" zoomAndPan="magnify"><path d="m0 0h455v353h-455z" fill="#f0f8ff"/><g stroke="#181818"><path d="m392.2632 153.4199h10v29.3105h-10z" fill="#fff"/><path d="m392.2632 255.3516h10v29.3105h-10z" fill="#fff"/><path d="m64 36.4883v266.1738" stroke-dasharray="5 5" stroke-width=".5"/><path d="m396.5 36.4883v266.1738" stroke-dasharray="5 5" stroke-width=".5"/></g><rect fill="#ddd" height="30.4883" rx="2.5" stroke="#666" stroke-width=".5" width="119.458" x="5" y="5"/><text fill="#333" font-family="sans-serif" font-size="14" lengthAdjust="spacing" textLength="105.458" x="12" y="25.5352">Block Assembly</text><rect fill="#ddd" height="30.4883" rx="2.5" stroke="#666" stroke-width=".5" width="119.458" x="5" y="301.6621"/><text fill="#333" font-family="sans-serif" font-size="14" lengthAdjust="spacing" textLength="105.458" x="12" y="322.1973">Block Assembly</text><rect fill="#ddd" height="30.4883" rx="2.5" stroke="#666" stroke-width=".5" width="91.5264" x="351.5" y="5"/><text fill="#333" font-family="sans-serif" font-size="14" lengthAdjust="spacing" textLength="77.5264" x="358.5" y="25.5352">UTXO Store</text><rect fill="#ddd" height="30.4883" rx="2.5" stroke="#666" stroke-width=".5" width="91.5264" x="351.5" y="301.6621"/><text fill="#333" font-family="sans-serif" font-size="14" lengthAdjust="spacing" textLength="77.5264" x="358.5" y="322.1973">UTXO Store</text><path d="m392.2632 153.4199h10v29.3105h-10z" fill="#fff" stroke="#181818"/><path d="m392.2632 255.3516h10v29.3105h-10z" fill="#fff" stroke="#181818"/><path d="m0 67.1436h448.0264v3h-448.0264z" fill="#eee" stroke="#eee"/><path d="m0 67.1436h448.0264" stroke="#000"/><path d="m0 70.1436h448.0264" stroke="#000"/><path d="m149.3313 56.4883h149.3638v23.3105h-149.3638z" fill="#eee" stroke="#000" stroke-width="2"/><text fill="#333" font-family="sans-serif" font-size="13" font-weight="bold" lengthAdjust="spacing" textLength="131.0791" x="155.3313" y="73.0566">Create Coinbase TX</text><path d="m64.729 111.1094h42" stroke="#666"/><path d="m106.729 111.1094v13" stroke="#666"/><path d="m65.729 124.1094h41" stroke="#666"/><path d="m75.729 120.1094-10 4 10 4-4-4z" fill="#666" stroke="#666"/><text fill="#333" font-family="sans-serif" font-size="13" lengthAdjust="spacing" textLength="213.4907" x="71.729" y="106.3672">processCoinbaseUtxos(ctx, block)</text><path d="m380.2632 149.4199 10 4-10 4 4-4z" fill="#666" stroke="#666"/><path d="m64.729 153.4199h321.5342" stroke="#666"/><text fill="#333" font-family="sans-serif" font-size="13" lengthAdjust="spacing" textLength="308.5342" x="71.729" y="148.6777">Create(ctx, block.CoinbaseTx, blockHeight+100)</text><path d="m75.729 178.7305-10 4 10 4-4-4z" fill="#666" stroke="#666"/><path d="m69.729 182.7305h326.5342" stroke="#666" stroke-dasharray="2 2"/><text fill="#333" font-family="sans-serif" font-size="13" lengthAdjust="spacing" textLength="82.894" x="81.729" y="177.9883">Confirmation</text><path d="m0 211.3857h448.0264v3h-448.0264z" fill="#eee" stroke="#eee"/><path d="m0 211.3857h448.0264" stroke="#000"/><path d="m0 214.3857h448.0264" stroke="#000"/><path d="m149.6614 200.7305h148.7036v23.3105h-148.7036z" fill="#eee" stroke="#000" stroke-width="2"/><text fill="#333" font-family="sans-serif" font-size="13" font-weight="bold" lengthAdjust="spacing" textLength="130.4189" x="155.6614" y="217.2988">Delete Coinbase TX</text><path d="m380.2632 251.3516 10 4-10 4 4-4z" fill="#666" stroke="#666"/><path d="m64.729 255.3516h321.5342" stroke="#666"/><text fill="#333" font-family="sans-serif" font-size="13" lengthAdjust="spacing" textLength="146.1548" x="71.729" y="250.6094">Delete(Coinbase UTXO)</text><path d="m75.729 280.6621-10 4 10 4-4-4z" fill="#666" stroke="#666"/><path d="m69.729 284.6621h326.5342" stroke="#666" stroke-dasharray="2 2"/><text fill="#333" font-family="sans-serif" font-size="13" lengthAdjust="spacing" textLength="82.894" x="81.729" y="279.9199">Confirmation</text><text fill="#333" font-family="sans-serif" font-size="10" lengthAdjust="spacing" textLength="155.4346" y="343.8184">Last Modified On: 24-Feb-2025</text></svg>
