<svg xmlns="http://www.w3.org/2000/svg" xmlns:xlink="http://www.w3.org/1999/xlink" contentStyleType="text/css" height="894px" preserveAspectRatio="none" style="width:768px;height:894px;background:#FFFFFF;" version="1.1" viewBox="0 0 768 894" width="768px" zoomAndPan="magnify"><defs/><g><rect fill="#FFFFFF" height="661.2109" style="stroke:#181818;stroke-width:1.0;" width="10" x="484.2681" y="142.1094"/><rect fill="#FFFFFF" height="527.9688" style="stroke:#181818;stroke-width:1.0;" width="10" x="489.2681" y="275.3516"/><rect fill="#FFFFFF" height="336.1055" style="stroke:#181818;stroke-width:1.0;" width="10" x="494.2681" y="467.2148"/><rect fill="#FFFFFF" height="202.8633" style="stroke:#181818;stroke-width:1.0;" width="10" x="499.2681" y="600.457"/><rect fill="#FFFFFF" height="68.6211" style="stroke:#181818;stroke-width:1.0;" width="10" x="504.2681" y="733.6992"/><rect fill="none" height="46.6211" style="stroke:#000000;stroke-width:1.5;" width="655.0313" x="10" y="157.1094"/><rect fill="none" height="105.2422" style="stroke:#000000;stroke-width:1.5;" width="741.5508" x="10" y="290.3516"/><rect fill="none" height="46.6211" style="stroke:#000000;stroke-width:1.5;" width="655.0313" x="10" y="482.2148"/><rect fill="none" height="46.6211" style="stroke:#000000;stroke-width:1.5;" width="655.0313" x="10" y="615.457"/><rect fill="none" height="46.6211" style="stroke:#000000;stroke-width:1.5;" width="655.0313" x="10" y="748.6992"/><line style="stroke:#181818;stroke-width:0.5;stroke-dasharray:5.0,5.0;" x1="166" x2="166" y1="67.4883" y2="812.3203"/><line style="stroke:#181818;stroke-width:0.5;stroke-dasharray:5.0,5.0;" x1="488.5049" x2="488.5049" y1="67.4883" y2="812.3203"/><line style="stroke:#181818;stroke-width:0.5;stroke-dasharray:5.0,5.0;" x1="703.0313" x2="703.0313" y1="67.4883" y2="812.3203"/><rect fill="#E2E2F0" height="30.4883" rx="2.5" ry="2.5" style="stroke:#181818;stroke-width:0.5;" width="53.5049" x="140" y="36"/><text fill="#000000" font-family="sans-serif" font-size="14" lengthAdjust="spacing" textLength="39.5049" x="147" y="56.5352">Client</text><rect fill="#E2E2F0" height="30.4883" rx="2.5" ry="2.5" style="stroke:#181818;stroke-width:0.5;" width="53.5049" x="140" y="811.3203"/><text fill="#000000" font-family="sans-serif" font-size="14" lengthAdjust="spacing" textLength="39.5049" x="147" y="831.8555">Client</text><rect fill="#E2E2F0" height="30.4883" rx="2.5" ry="2.5" style="stroke:#181818;stroke-width:0.5;" width="91.5264" x="443.5049" y="36"/><text fill="#000000" font-family="sans-serif" font-size="14" lengthAdjust="spacing" textLength="77.5264" x="450.5049" y="56.5352">UTXO Store</text><rect fill="#E2E2F0" height="30.4883" rx="2.5" ry="2.5" style="stroke:#181818;stroke-width:0.5;" width="91.5264" x="443.5049" y="811.3203"/><text fill="#000000" font-family="sans-serif" font-size="14" lengthAdjust="spacing" textLength="77.5264" x="450.5049" y="831.8555">UTXO Store</text><text fill="#000000" font-family="sans-serif" font-size="14" lengthAdjust="spacing" textLength="70.5195" x="665.0313" y="64.5352">Data Store</text><path d="M685.291,15 C685.291,5 703.291,5 703.291,5 C703.291,5 721.291,5 721.291,15 L721.291,41 C721.291,51 703.291,51 703.291,51 C703.291,51 685.291,51 685.291,41 L685.291,15 " fill="#E2E2F0" style="stroke:#181818;stroke-width:1.5;"/><path d="M685.291,15 C685.291,25 703.291,25 703.291,25 C703.291,25 721.291,25 721.291,15 " fill="none" style="stroke:#181818;stroke-width:1.5;"/><text fill="#000000" font-family="sans-serif" font-size="14" lengthAdjust="spacing" textLength="70.5195" x="665.0313" y="824.8555">Data Store</text><path d="M685.291,837.8086 C685.291,827.8086 703.291,827.8086 703.291,827.8086 C703.291,827.8086 721.291,827.8086 721.291,837.8086 L721.291,863.8086 C721.291,873.8086 703.291,873.8086 703.291,873.8086 C703.291,873.8086 685.291,873.8086 685.291,863.8086 L685.291,837.8086 " fill="#E2E2F0" style="stroke:#181818;stroke-width:1.5;"/><path d="M685.291,837.8086 C685.291,847.8086 703.291,847.8086 703.291,847.8086 C703.291,847.8086 721.291,847.8086 721.291,837.8086 " fill="none" style="stroke:#181818;stroke-width:1.5;"/><rect fill="#FFFFFF" height="661.2109" style="stroke:#181818;stroke-width:1.0;" width="10" x="484.2681" y="142.1094"/><rect fill="#FFFFFF" height="527.9688" style="stroke:#181818;stroke-width:1.0;" width="10" x="489.2681" y="275.3516"/><rect fill="#FFFFFF" height="336.1055" style="stroke:#181818;stroke-width:1.0;" width="10" x="494.2681" y="467.2148"/><rect fill="#FFFFFF" height="202.8633" style="stroke:#181818;stroke-width:1.0;" width="10" x="499.2681" y="600.457"/><rect fill="#FFFFFF" height="68.6211" style="stroke:#181818;stroke-width:1.0;" width="10" x="504.2681" y="733.6992"/><rect fill="#EEEEEE" height="3" style="stroke:#EEEEEE;stroke-width:1.0;" width="761.5508" x="0" y="98.1436"/><line style="stroke:#000000;stroke-width:1.0;" x1="0" x2="761.5508" y1="98.1436" y2="98.1436"/><line style="stroke:#000000;stroke-width:1.0;" x1="0" x2="761.5508" y1="101.1436" y2="101.1436"/><rect fill="#EEEEEE" height="23.3105" style="stroke:#000000;stroke-width:2.0;" width="300.311" x="230.6199" y="87.4883"/><text fill="#000000" font-family="sans-serif" font-size="13" font-weight="bold" lengthAdjust="spacing" textLength="282.0264" x="236.6199" y="104.0566">Spend an unknown UTXO (no hash match)</text><polygon fill="#181818" points="472.2681,138.1094,482.2681,142.1094,472.2681,146.1094,476.2681,142.1094" style="stroke:#181818;stroke-width:1.0;"/><line style="stroke:#181818;stroke-width:1.0;" x1="166.7524" x2="478.2681" y1="142.1094" y2="142.1094"/><text fill="#000000" font-family="sans-serif" font-size="13" lengthAdjust="spacing" textLength="251.5132" x="173.7524" y="137.3672">Request to spend UTXO (Spend a UTXO)</text><path d="M10,157.1094 L72.1387,157.1094 L72.1387,164.4199 L62.1387,174.4199 L10,174.4199 L10,157.1094 " fill="#EEEEEE" style="stroke:#000000;stroke-width:1.5;"/><rect fill="none" height="46.6211" style="stroke:#000000;stroke-width:1.5;" width="655.0313" x="10" y="157.1094"/><text fill="#000000" font-family="sans-serif" font-size="13" font-weight="bold" lengthAdjust="spacing" textLength="17.1387" x="25" y="170.6777">alt</text><text fill="#000000" font-family="sans-serif" font-size="11" font-weight="bold" lengthAdjust="spacing" textLength="112.5835" x="87.1387" y="169.7441">[Key does not exist]</text><polygon fill="#181818" points="177.7524,191.7305,167.7524,195.7305,177.7524,199.7305,173.7524,195.7305" style="stroke:#181818;stroke-width:1.0;"/><line style="stroke:#181818;stroke-width:1.0;" x1="171.7524" x2="483.2681" y1="195.7305" y2="195.7305"/><text fill="#000000" font-family="sans-serif" font-size="13" lengthAdjust="spacing" textLength="77.4541" x="183.7524" y="190.9883">NOT FOUND</text><rect fill="#EEEEEE" height="3" style="stroke:#EEEEEE;stroke-width:1.0;" width="761.5508" x="0" y="231.3857"/><line style="stroke:#000000;stroke-width:1.0;" x1="0" x2="761.5508" y1="231.3857" y2="231.3857"/><line style="stroke:#000000;stroke-width:1.0;" x1="0" x2="761.5508" y1="234.3857" y2="234.3857"/><rect fill="#EEEEEE" height="23.3105" style="stroke:#000000;stroke-width:2.0;" width="150.3984" x="305.5762" y="220.7305"/><text fill="#000000" font-family="sans-serif" font-size="13" font-weight="bold" lengthAdjust="spacing" textLength="132.1138" x="311.5762" y="237.2988">Spend known UTXO</text><polygon fill="#181818" points="477.2681,271.3516,487.2681,275.3516,477.2681,279.3516,481.2681,275.3516" style="stroke:#181818;stroke-width:1.0;"/><line style="stroke:#181818;stroke-width:1.0;" x1="166.7524" x2="483.2681" y1="275.3516" y2="275.3516"/><text fill="#000000" font-family="sans-serif" font-size="13" lengthAdjust="spacing" textLength="251.5132" x="173.7524" y="270.6094">Request to spend UTXO (Spend a UTXO)</text><path d="M10,290.3516 L72.1387,290.3516 L72.1387,297.6621 L62.1387,307.6621 L10,307.6621 L10,290.3516 " fill="#EEEEEE" style="stroke:#000000;stroke-width:1.5;"/><rect fill="none" height="105.2422" style="stroke:#000000;stroke-width:1.5;" width="741.5508" x="10" y="290.3516"/><text fill="#000000" font-family="sans-serif" font-size="13" font-weight="bold" lengthAdjust="spacing" textLength="17.1387" x="25" y="303.9199">alt</text><text fill="#000000" font-family="sans-serif" font-size="11" font-weight="bold" lengthAdjust="spacing" textLength="208.3125" x="87.1387" y="302.9863">[Key exists and TX_ID Value is NULL]</text><polygon fill="#181818" points="691.291,324.9727,701.291,328.9727,691.291,332.9727,695.291,328.9727" style="stroke:#181818;stroke-width:1.0;"/><line style="stroke:#181818;stroke-width:1.0;" x1="499.2681" x2="697.291" y1="328.9727" y2="328.9727"/><text fill="#000000" font-family="sans-serif" font-size="13" lengthAdjust="spacing" textLength="98.4204" x="506.2681" y="324.2305">Set TX_ID Value</text><polygon fill="#181818" points="510.2681,354.2832,500.2681,358.2832,510.2681,362.2832,506.2681,358.2832" style="stroke:#181818;stroke-width:1.0;"/><line style="stroke:#181818;stroke-width:1.0;stroke-dasharray:2.0,2.0;" x1="504.2681" x2="702.291" y1="358.2832" y2="358.2832"/><text fill="#000000" font-family="sans-serif" font-size="13" lengthAdjust="spacing" textLength="121.1196" x="516.2681" y="353.541">TX_ID Value Set OK</text><polygon fill="#181818" points="177.7524,383.5938,167.7524,387.5938,177.7524,391.5938,173.7524,387.5938" style="stroke:#181818;stroke-width:1.0;"/><line style="stroke:#181818;stroke-width:1.0;" x1="171.7524" x2="488.2681" y1="387.5938" y2="387.5938"/><text fill="#000000" font-family="sans-serif" font-size="13" lengthAdjust="spacing" textLength="18.5859" x="183.7524" y="382.8516">OK</text><rect fill="#EEEEEE" height="3" style="stroke:#EEEEEE;stroke-width:1.0;" width="761.5508" x="0" y="423.249"/><line style="stroke:#000000;stroke-width:1.0;" x1="0" x2="761.5508" y1="423.249" y2="423.249"/><line style="stroke:#000000;stroke-width:1.0;" x1="0" x2="761.5508" y1="426.249" y2="426.249"/><rect fill="#EEEEEE" height="23.3105" style="stroke:#000000;stroke-width:2.0;" width="381.377" x="190.0869" y="412.5938"/><text fill="#000000" font-family="sans-serif" font-size="13" font-weight="bold" lengthAdjust="spacing" textLength="363.0923" x="196.0869" y="429.1621">Duplicate Spend UTXO (already spent by the same TX)</text><polygon fill="#181818" points="482.2681,463.2148,492.2681,467.2148,482.2681,471.2148,486.2681,467.2148" style="stroke:#181818;stroke-width:1.0;"/><line style="stroke:#181818;stroke-width:1.0;" x1="166.7524" x2="488.2681" y1="467.2148" y2="467.2148"/><text fill="#000000" font-family="sans-serif" font-size="13" lengthAdjust="spacing" textLength="251.5132" x="173.7524" y="462.4727">Request to spend UTXO (Spend a UTXO)</text><path d="M10,482.2148 L72.1387,482.2148 L72.1387,489.5254 L62.1387,499.5254 L10,499.5254 L10,482.2148 " fill="#EEEEEE" style="stroke:#000000;stroke-width:1.5;"/><rect fill="none" height="46.6211" style="stroke:#000000;stroke-width:1.5;" width="655.0313" x="10" y="482.2148"/><text fill="#000000" font-family="sans-serif" font-size="13" font-weight="bold" lengthAdjust="spacing" textLength="17.1387" x="25" y="495.7832">alt</text><text fill="#000000" font-family="sans-serif" font-size="11" font-weight="bold" lengthAdjust="spacing" textLength="300.0132" x="87.1387" y="494.8496">[Key exists and TX_ID Value matches Spending TXID]</text><polygon fill="#181818" points="177.7524,516.8359,167.7524,520.8359,177.7524,524.8359,173.7524,520.8359" style="stroke:#181818;stroke-width:1.0;"/><line style="stroke:#181818;stroke-width:1.0;" x1="171.7524" x2="493.2681" y1="520.8359" y2="520.8359"/><text fill="#000000" font-family="sans-serif" font-size="13" lengthAdjust="spacing" textLength="80.6724" x="183.7524" y="516.0938">ALREADY OK</text><rect fill="#EEEEEE" height="3" style="stroke:#EEEEEE;stroke-width:1.0;" width="761.5508" x="0" y="556.4912"/><line style="stroke:#000000;stroke-width:1.0;" x1="0" x2="761.5508" y1="556.4912" y2="556.4912"/><line style="stroke:#000000;stroke-width:1.0;" x1="0" x2="761.5508" y1="559.4912" y2="559.4912"/><rect fill="#EEEEEE" height="23.3105" style="stroke:#000000;stroke-width:2.0;" width="372.2681" x="194.6414" y="545.8359"/><text fill="#000000" font-family="sans-serif" font-size="13" font-weight="bold" lengthAdjust="spacing" textLength="353.9834" x="200.6414" y="562.4043">Duplicate Spend UTXO (already spent by another TX)</text><polygon fill="#181818" points="487.2681,596.457,497.2681,600.457,487.2681,604.457,491.2681,600.457" style="stroke:#181818;stroke-width:1.0;"/><line style="stroke:#181818;stroke-width:1.0;" x1="166.7524" x2="493.2681" y1="600.457" y2="600.457"/><text fill="#000000" font-family="sans-serif" font-size="13" lengthAdjust="spacing" textLength="251.5132" x="173.7524" y="595.7148">Request to spend UTXO (Spend a UTXO)</text><path d="M10,615.457 L72.1387,615.457 L72.1387,622.7676 L62.1387,632.7676 L10,632.7676 L10,615.457 " fill="#EEEEEE" style="stroke:#000000;stroke-width:1.5;"/><rect fill="none" height="46.6211" style="stroke:#000000;stroke-width:1.5;" width="655.0313" x="10" y="615.457"/><text fill="#000000" font-family="sans-serif" font-size="13" font-weight="bold" lengthAdjust="spacing" textLength="17.1387" x="25" y="629.0254">alt</text><text fill="#000000" font-family="sans-serif" font-size="11" font-weight="bold" lengthAdjust="spacing" textLength="340.2856" x="87.1387" y="628.0918">[Key exists and TX_ID Value does not match Spending TXID]</text><polygon fill="#181818" points="177.7524,650.0781,167.7524,654.0781,177.7524,658.0781,173.7524,654.0781" style="stroke:#181818;stroke-width:1.0;"/><line style="stroke:#181818;stroke-width:1.0;" x1="171.7524" x2="498.2681" y1="654.0781" y2="654.0781"/><text fill="#000000" font-family="sans-serif" font-size="13" lengthAdjust="spacing" textLength="229.5122" x="183.7524" y="649.3359">SPENT (with existing Spending TXID)</text><rect fill="#EEEEEE" height="3" style="stroke:#EEEEEE;stroke-width:1.0;" width="761.5508" x="0" y="689.7334"/><line style="stroke:#000000;stroke-width:1.0;" x1="0" x2="761.5508" y1="689.7334" y2="689.7334"/><line style="stroke:#000000;stroke-width:1.0;" x1="0" x2="761.5508" y1="692.7334" y2="692.7334"/><rect fill="#EEEEEE" height="23.3105" style="stroke:#000000;stroke-width:2.0;" width="149.0146" x="306.2681" y="679.0781"/><text fill="#000000" font-family="sans-serif" font-size="13" font-weight="bold" lengthAdjust="spacing" textLength="130.73" x="312.2681" y="695.6465">Spend frozen UTXO</text><polygon fill="#181818" points="492.2681,729.6992,502.2681,733.6992,492.2681,737.6992,496.2681,733.6992" style="stroke:#181818;stroke-width:1.0;"/><line style="stroke:#181818;stroke-width:1.0;" x1="166.7524" x2="498.2681" y1="733.6992" y2="733.6992"/><text fill="#000000" font-family="sans-serif" font-size="13" lengthAdjust="spacing" textLength="251.5132" x="173.7524" y="728.957">Request to spend UTXO (Spend a UTXO)</text><path d="M10,748.6992 L72.1387,748.6992 L72.1387,756.0098 L62.1387,766.0098 L10,766.0098 L10,748.6992 " fill="#EEEEEE" style="stroke:#000000;stroke-width:1.5;"/><rect fill="none" height="46.6211" style="stroke:#000000;stroke-width:1.5;" width="655.0313" x="10" y="748.6992"/><text fill="#000000" font-family="sans-serif" font-size="13" font-weight="bold" lengthAdjust="spacing" textLength="17.1387" x="25" y="762.2676">alt</text><text fill="#000000" font-family="sans-serif" font-size="11" font-weight="bold" lengthAdjust="spacing" textLength="94.0371" x="87.1387" y="761.334">[UTXO is frozen]</text><polygon fill="#181818" points="177.7524,783.3203,167.7524,787.3203,177.7524,791.3203,173.7524,787.3203" style="stroke:#181818;stroke-width:1.0;"/><line style="stroke:#181818;stroke-width:1.0;" x1="171.7524" x2="503.2681" y1="787.3203" y2="787.3203"/><text fill="#000000" font-family="sans-serif" font-size="13" lengthAdjust="spacing" textLength="203.3979" x="183.7524" y="782.5781">FROZEN (UTXO cannot be spent)</text><text fill="#888888" font-family="sans-serif" font-size="10" lengthAdjust="spacing" textLength="155.459" x="0" y="884.4766">Last Modified On: 30-Sep-2024</text><!--SRC=[lLHDQ-Cm5BphLmo6XVWGsDrZ80jbdK9fOeV4MTAzB2_MorhKaLnBQJVzzPNba3fB3ZsqrKaVetapJuFilT8rDRJ3d1gd2bMJTdEIKkc_-FRzgn3rwpwYdvLYxIAGHJSzFrxbwmnBPneEa30JaXnjo3AYnCzwn-rI234UOrcpbY2DlRxNvaaZ40sqGKcsn8vSKSOOZuNegcBue-CPOS4FUxOEpi06bkxgaJ6iOa65Ku_a-AX8KELmomT8mnRQEF0_PPs07m7HydULHaYp7DVPAas4P-pBxIbzVsL1aFKjaSZNVsuI_A9gpr0MwMewFLVQzd649Ri-D412muUlalfKBJwxlUpPxv_C9lkwKaMGs7D1LSCa3y6Pm-O0Lp8ixTZNY3-l7o4P_Wq3IHlPV7sJNFPqDLrChfAxaxUtMoEVa9ARptLsYcQm-1Q3o_aapJ5uKgxiI5lusRtuvBoJjctCCtz8X0FEXxMhS5dlzIBxFKan2DY2T6jsmrtRZqeb_qzUyTPXQuppxp4bBsrcfDegbiZq25_yNyE3IChXR3OR7lo8Ol42]--></g></svg>
