<svg contentStyleType="text/css" height="1818" preserveAspectRatio="none" viewBox="0 0 888 1818" width="888" xmlns="http://www.w3.org/2000/svg" zoomAndPan="magnify"><path d="m0 0h888v1818h-888z" fill="#f0f8ff"/><path d="m441.6733 666.3887h429.8491v133.5527h-429.8491z" fill="none" stroke="#000" stroke-width="1.5"/><path d="m441.6733 1570.3945h429.8491v75.9316h-429.8491z" fill="none" stroke="#000" stroke-width="1.5"/><g stroke="#181818"><path d="m23 81.4883v1640.459" stroke-dasharray="5 5" stroke-width=".5"/><path d="m221.9985 81.4883v1640.459" stroke-dasharray="5 5" stroke-width=".5"/><path d="m500.6733 81.4883v1640.459" stroke-dasharray="5 5" stroke-width=".5"/><path d="m820.4961 81.4883v1640.459" stroke-dasharray="5 5" stroke-width=".5"/></g><text fill="#333" font-family="sans-serif" font-size="14" lengthAdjust="spacing" textLength="30.3652" x="5" y="78.5352">User</text><ellipse cx="23.1826" cy="13.5" fill="#e2e2f0" rx="8" ry="8" stroke="#181818" stroke-width=".5"/><path d="m23.1826 21.5v27m-13-19h26m-13 19-13 15m13-15 13 15" fill="none" stroke="#181818" stroke-width=".5"/><text fill="#333" font-family="sans-serif" font-size="14" lengthAdjust="spacing" textLength="30.3652" x="5" y="1734.4824">User</text><ellipse cx="23.1826" cy="1745.9355" fill="#e2e2f0" rx="8" ry="8" stroke="#181818" stroke-width=".5"/><path d="m23.1826 1753.9355v27m-13-19h26m-13 19-13 15m13-15 13 15" fill="none" stroke="#181818" stroke-width=".5"/><rect fill="#ddd" height="30.4883" rx="2.5" stroke="#666" stroke-width=".5" width="105.8887" x="169.9985" y="50"/><text fill="#333" font-family="sans-serif" font-size="14" lengthAdjust="spacing" textLength="91.8887" x="176.9985" y="70.5352">UI Dashboard</text><rect fill="#ddd" height="30.4883" rx="2.5" stroke="#666" stroke-width=".5" width="105.8887" x="169.9985" y="1720.9473"/><text fill="#333" font-family="sans-serif" font-size="14" lengthAdjust="spacing" textLength="91.8887" x="176.9985" y="1741.4824">UI Dashboard</text><rect fill="#ddd" height="30.4883" rx="2.5" stroke="#666" stroke-width=".5" width="98.3008" x="451.6733" y="50"/><text fill="#333" font-family="sans-serif" font-size="14" lengthAdjust="spacing" textLength="84.3008" x="458.6733" y="70.5352">AssetService</text><rect fill="#ddd" height="30.4883" rx="2.5" stroke="#666" stroke-width=".5" width="98.3008" x="451.6733" y="1720.9473"/><text fill="#333" font-family="sans-serif" font-size="14" lengthAdjust="spacing" textLength="84.3008" x="458.6733" y="1741.4824">AssetService</text><rect fill="#ddd" height="30.4883" rx="2.5" stroke="#666" stroke-width=".5" width="81.0264" x="780.4961" y="50"/><text fill="#333" font-family="sans-serif" font-size="14" lengthAdjust="spacing" textLength="67.0264" x="787.4961" y="70.5352">UtxoStore</text><rect fill="#ddd" height="30.4883" rx="2.5" stroke="#666" stroke-width=".5" width="81.0264" x="780.4961" y="1720.9473"/><text fill="#333" font-family="sans-serif" font-size="14" lengthAdjust="spacing" textLength="67.0264" x="787.4961" y="1741.4824">UtxoStore</text><path d="m0 112.1436h881.5225v3h-881.5225z" fill="#eee" stroke="#eee"/><path d="m0 112.1436h881.5225" stroke="#000"/><path d="m0 115.1436h881.5225" stroke="#000"/><path d="m392.6157 101.4883h96.291v23.3105h-96.291z" fill="#eee" stroke="#000" stroke-width="2"/><text fill="#333" font-family="sans-serif" font-size="13" font-weight="bold" lengthAdjust="spacing" textLength="78.0063" x="398.6157" y="118.0566">Fetch UTXO</text><path d="m210.9429 152.1094 10 4-10 4 4-4z" fill="#666" stroke="#666"/><path d="m23.1826 156.1094h193.7603" stroke="#666"/><text fill="#333" font-family="sans-serif" font-size="13" lengthAdjust="spacing" textLength="124.6172" x="30.1826" y="151.3672">Request UTXO Meta</text><path d="m488.8237 212.041 10 4-10 4 4-4z" fill="#666" stroke="#666"/><path d="m222.9429 216.041h271.8808" stroke="#666"/><text fill="#333" font-family="sans-serif" font-size="13" lengthAdjust="spacing" textLength="175.9253" x="229.9429" y="180.6777">/utxo/:hash (binary stream)</text><text fill="#333" font-family="sans-serif" font-size="13" lengthAdjust="spacing" textLength="110.0303" x="229.9429" y="195.9883">/utxo/:hash/json</text><text fill="#333" font-family="sans-serif" font-size="13" lengthAdjust="spacing" textLength="106.6787" x="229.9429" y="211.2988">/utxo/:hash/hex</text><path d="m500.8237 245.3516h42" stroke="#666"/><path d="m542.8237 245.3516v13" stroke="#666"/><path d="m501.8237 258.3516h41" stroke="#666"/><path d="m511.8237 254.3516-10 4 10 4-4-4z" fill="#666" stroke="#666"/><text fill="#333" font-family="sans-serif" font-size="13" lengthAdjust="spacing" textLength="65.4189" x="507.8237" y="240.6094">GetUTXO()</text><path d="m809.0093 283.6621 10 4-10 4 4-4z" fill="#666" stroke="#666"/><path d="m500.8237 287.6621h314.1856" stroke="#666"/><text fill="#333" font-family="sans-serif" font-size="13" lengthAdjust="spacing" textLength="154.4512" x="507.8237" y="282.9199">GetSpend(context, hash)</text><path d="m511.8237 328.2832-10 4 10 4-4-4z" fill="#666" stroke="#666"/><path d="m505.8237 332.2832h314.1856" stroke="#666"/><text fill="#333" font-family="sans-serif" font-size="13" lengthAdjust="spacing" textLength="188.4556" x="517.8237" y="312.2305">Return UTXO Spend Response</text><text fill="#333" font-family="sans-serif" font-size="13" lengthAdjust="spacing" textLength="143.5649" x="517.8237" y="327.541">(Status, SpendingTxID)</text><path d="m233.9429 357.5938-10 4 10 4-4-4z" fill="#666" stroke="#666"/><path d="m227.9429 361.5938h271.8808" stroke="#666"/><text fill="#333" font-family="sans-serif" font-size="13" lengthAdjust="spacing" textLength="188.4556" x="239.9429" y="356.8516">Return UTXO Spend Response</text><path d="m34.1826 386.9043-10 4 10 4-4-4z" fill="#666" stroke="#666"/><path d="m28.1826 390.9043h193.7603" stroke="#666"/><text fill="#333" font-family="sans-serif" font-size="13" lengthAdjust="spacing" textLength="167.7939" x="40.1826" y="386.1621">Display UTXO Spent Status</text><path d="m0 419.5596h881.5225v3h-881.5225z" fill="#eee" stroke="#eee"/><path d="m0 419.5596h881.5225" stroke="#000"/><path d="m0 422.5596h881.5225" stroke="#000"/><path d="m359.6301 408.9043h162.2622v23.3105h-162.2622z" fill="#eee" stroke="#000" stroke-width="2"/><text fill="#333" font-family="sans-serif" font-size="13" font-weight="bold" lengthAdjust="spacing" textLength="143.9775" x="365.6301" y="425.4727">Fetch UTXOs by Tx Id</text><path d="m210.9429 459.5254 10 4-10 4 4-4z" fill="#666" stroke="#666"/><path d="m23.1826 463.5254h193.7603" stroke="#666"/><text fill="#333" font-family="sans-serif" font-size="13" lengthAdjust="spacing" textLength="124.6172" x="30.1826" y="458.7832">Request UTXO Meta</text><path d="m488.8237 488.8359 10 4-10 4 4-4z" fill="#666" stroke="#666"/><path d="m222.9429 492.8359h271.8808" stroke="#666"/><text fill="#333" font-family="sans-serif" font-size="13" lengthAdjust="spacing" textLength="116.6572" x="229.9429" y="488.0938">/utxos/:hash/json</text><path d="m500.8237 522.1465h42" stroke="#666"/><path d="m542.8237 522.1465v13" stroke="#666"/><path d="m501.8237 535.1465h41" stroke="#666"/><path d="m511.8237 531.1465-10 4 10 4-4-4z" fill="#666" stroke="#666"/><text fill="#333" font-family="sans-serif" font-size="13" lengthAdjust="spacing" textLength="116.1558" x="507.8237" y="517.4043">GetUTXOsByTXID()</text><path d="m809.0093 560.457 10 4-10 4 4-4z" fill="#666" stroke="#666"/><path d="m500.8237 564.457h314.1856" stroke="#666"/><text fill="#333" font-family="sans-serif" font-size="13" lengthAdjust="spacing" textLength="146.2563" x="507.8237" y="559.7148">GetMeta(context, hash)</text><path d="m511.8237 589.7676-10 4 10 4-4-4z" fill="#666" stroke="#666"/><path d="m505.8237 593.7676h314.1856" stroke="#666"/><text fill="#333" font-family="sans-serif" font-size="13" lengthAdjust="spacing" textLength="115.9526" x="517.8237" y="589.0254">Return UTXO Meta</text><path d="m500.8237 638.3887h42" stroke="#666"/><path d="m542.8237 638.3887v13" stroke="#666"/><path d="m501.8237 651.3887h41" stroke="#666"/><path d="m511.8237 647.3887-10 4 10 4-4-4z" fill="#666" stroke="#666"/><text fill="#333" font-family="sans-serif" font-size="13" lengthAdjust="spacing" textLength="54.2725" x="507.8237" y="618.3359">Use tx =</text><text fill="#333" font-family="sans-serif" font-size="13" lengthAdjust="spacing" textLength="302.0723" x="511.937" y="633.6465">bt.NewTxFromBytes(txMeta.Tx.ExtendedBytes())</text><path d="m441.6733 666.3887h74.4468v7.3105l-10 10h-64.4468z" fill="#eee" stroke="#000" stroke-width="1.5"/><path d="m441.6733 666.3887h429.8491v133.5527h-429.8491z" fill="none" stroke="#000" stroke-width="1.5"/><text fill="#333" font-family="sans-serif" font-size="13" font-weight="bold" lengthAdjust="spacing" textLength="29.4468" x="456.6733" y="679.957">loop</text><text fill="#333" font-family="sans-serif" font-size="11" font-weight="bold" lengthAdjust="spacing" textLength="173.3145" x="531.1201" y="679.0234">[for each output in tx.Outputs]</text><path d="m500.8237 705.0098h42" stroke="#666"/><path d="m542.8237 705.0098v13" stroke="#666"/><path d="m501.8237 718.0098h41" stroke="#666"/><path d="m511.8237 714.0098-10 4 10 4-4-4z" fill="#666" stroke="#666"/><text fill="#333" font-family="sans-serif" font-size="13" lengthAdjust="spacing" textLength="202.376" x="507.8237" y="700.2676">Compute utxoHash from output</text><path d="m809.0093 743.3203 10 4-10 4 4-4z" fill="#666" stroke="#666"/><path d="m500.8237 747.3203h314.1856" stroke="#666"/><text fill="#333" font-family="sans-serif" font-size="13" lengthAdjust="spacing" textLength="184.8247" x="507.8237" y="742.5781">GetSpend(context, utxoHash)</text><path d="m511.8237 787.9414-10 4 10 4-4-4z" fill="#666" stroke="#666"/><path d="m505.8237 791.9414h314.1856" stroke="#666"/><text fill="#333" font-family="sans-serif" font-size="13" lengthAdjust="spacing" textLength="188.4556" x="517.8237" y="771.8887">Return UTXO Spend Response</text><text fill="#333" font-family="sans-serif" font-size="13" lengthAdjust="spacing" textLength="143.5649" x="517.8237" y="787.1992">(Status, SpendingTxID)</text><path d="m233.9429 824.252-10 4 10 4-4-4z" fill="#666" stroke="#666"/><path d="m227.9429 828.252h271.8808" stroke="#666"/><text fill="#333" font-family="sans-serif" font-size="13" lengthAdjust="spacing" textLength="87.9849" x="239.9429" y="823.5098">Return UTXOs</text><path d="m34.1826 853.5625-10 4 10 4-4-4z" fill="#666" stroke="#666"/><path d="m28.1826 857.5625h193.7603" stroke="#666"/><text fill="#333" font-family="sans-serif" font-size="13" lengthAdjust="spacing" textLength="174.4209" x="40.1826" y="852.8203">Display UTXOs Spent Status</text><path d="m0 886.2178h881.5225v3h-881.5225z" fill="#eee" stroke="#eee"/><path d="m0 886.2178h881.5225" stroke="#000"/><path d="m0 889.2178h881.5225" stroke="#000"/><path d="m356.7356 875.5625h168.0513v23.3105h-168.0513z" fill="#eee" stroke="#000" stroke-width="2"/><text fill="#333" font-family="sans-serif" font-size="13" font-weight="bold" lengthAdjust="spacing" textLength="149.7666" x="362.7356" y="892.1309">Fetch UTXO Meta Data</text><path d="m210.9429 926.1836 10 4-10 4 4-4z" fill="#666" stroke="#666"/><path d="m23.1826 930.1836h193.7603" stroke="#666"/><text fill="#333" font-family="sans-serif" font-size="13" lengthAdjust="spacing" textLength="124.6172" x="30.1826" y="925.4414">Request UTXO Meta</text><path d="m488.8237 955.4941 10 4-10 4 4-4z" fill="#666" stroke="#666"/><path d="m222.9429 959.4941h271.8808" stroke="#666"/><text fill="#333" font-family="sans-serif" font-size="13" lengthAdjust="spacing" textLength="125.3979" x="229.9429" y="954.752">/txmeta/:hash/json</text><path d="m500.8237 988.8047h42" stroke="#666"/><path d="m542.8237 988.8047v13" stroke="#666"/><path d="m501.8237 1001.8047h41" stroke="#666"/><path d="m511.8237 997.8047-10 4 10 4-4-4z" fill="#666" stroke="#666"/><text fill="#333" font-family="sans-serif" font-size="13" lengthAdjust="spacing" textLength="134.3608" x="507.8237" y="984.0625">GetTransactionMeta()</text><path d="m809.0093 1027.1152 10 4-10 4 4-4z" fill="#666" stroke="#666"/><path d="m500.8237 1031.1152h314.1856" stroke="#666"/><text fill="#333" font-family="sans-serif" font-size="13" lengthAdjust="spacing" textLength="115.7749" x="507.8237" y="1026.373">Get(context, hash)</text><path d="m511.8237 1056.4258-10 4 10 4-4-4z" fill="#666" stroke="#666"/><path d="m505.8237 1060.4258h314.1856" stroke="#666"/><text fill="#333" font-family="sans-serif" font-size="13" lengthAdjust="spacing" textLength="115.9526" x="517.8237" y="1055.6836">Return UTXO Meta</text><path d="m233.9429 1085.7363-10 4 10 4-4-4z" fill="#666" stroke="#666"/><path d="m227.9429 1089.7363h271.8808" stroke="#666"/><text fill="#333" font-family="sans-serif" font-size="13" lengthAdjust="spacing" textLength="115.9526" x="239.9429" y="1084.9941">Return UTXO Meta</text><path d="m34.1826 1115.0469-10 4 10 4-4-4z" fill="#666" stroke="#666"/><path d="m28.1826 1119.0469h193.7603" stroke="#666"/><text fill="#333" font-family="sans-serif" font-size="13" lengthAdjust="spacing" textLength="120.2056" x="40.1826" y="1114.3047">Display UTXO Meta</text><path d="m0 1147.7021h881.5225v3h-881.5225z" fill="#eee" stroke="#eee"/><path d="m0 1147.7021h881.5225" stroke="#000"/><path d="m0 1150.7021h881.5225" stroke="#000"/><path d="m371.9192 1137.0469h137.6841v23.3105h-137.6841z" fill="#eee" stroke="#000" stroke-width="2"/><text fill="#333" font-family="sans-serif" font-size="13" font-weight="bold" lengthAdjust="spacing" textLength="119.3994" x="377.9192" y="1153.6152">Fetch Transaction</text><path d="m210.9429 1187.668 10 4-10 4 4-4z" fill="#666" stroke="#666"/><path d="m23.1826 1191.668h193.7603" stroke="#666"/><text fill="#333" font-family="sans-serif" font-size="13" lengthAdjust="spacing" textLength="175.7603" x="30.1826" y="1186.9258">Request Transaction Details</text><path d="m488.8237 1247.5996 10 4-10 4 4-4z" fill="#666" stroke="#666"/><path d="m222.9429 1251.5996h271.8808" stroke="#666"/><text fill="#333" font-family="sans-serif" font-size="13" lengthAdjust="spacing" textLength="159.8721" x="229.9429" y="1216.2363">/tx/:hash (binary stream)</text><text fill="#333" font-family="sans-serif" font-size="13" lengthAdjust="spacing" textLength="93.9771" x="229.9429" y="1231.5469">/tx/:hash/json</text><text fill="#333" font-family="sans-serif" font-size="13" lengthAdjust="spacing" textLength="90.6255" x="229.9429" y="1246.8574">/tx/:hash/hex</text><path d="m500.8237 1280.9102h42" stroke="#666"/><path d="m542.8237 1280.9102v13" stroke="#666"/><path d="m501.8237 1293.9102h41" stroke="#666"/><path d="m511.8237 1289.9102-10 4 10 4-4-4z" fill="#666" stroke="#666"/><text fill="#333" font-family="sans-serif" font-size="13" lengthAdjust="spacing" textLength="103.8794" x="507.8237" y="1276.168">GetTransaction()</text><path d="m809.0093 1319.2207 10 4-10 4 4-4z" fill="#666" stroke="#666"/><path d="m500.8237 1323.2207h314.1856" stroke="#666"/><text fill="#333" font-family="sans-serif" font-size="13" lengthAdjust="spacing" textLength="118.0981" x="507.8237" y="1318.4785">GetMeta(ctx, hash)</text><path d="m511.8237 1348.5313-10 4 10 4-4-4z" fill="#666" stroke="#666"/><path d="m505.8237 1352.5313h314.1856" stroke="#666"/><text fill="#333" font-family="sans-serif" font-size="13" lengthAdjust="spacing" textLength="137.2427" x="517.8237" y="1347.7891">Return UTXO (txMeta)</text><path d="m233.9429 1377.8418-10 4 10 4-4-4z" fill="#666" stroke="#666"/><path d="m227.9429 1381.8418h271.8808" stroke="#666"/><text fill="#333" font-family="sans-serif" font-size="13" lengthAdjust="spacing" textLength="213.8843" x="239.9429" y="1377.0996">Return txMeta.Tx.ExtendedBytes()</text><path d="m34.1826 1407.1523-10 4 10 4-4-4z" fill="#666" stroke="#666"/><path d="m28.1826 1411.1523h193.7603" stroke="#666"/><text fill="#333" font-family="sans-serif" font-size="13" lengthAdjust="spacing" textLength="171.3486" x="40.1826" y="1406.4102">Display Transaction Details</text><path d="m0 1439.8076h881.5225v3h-881.5225z" fill="#eee" stroke="#eee"/><path d="m0 1439.8076h881.5225" stroke="#000"/><path d="m0 1442.8076h881.5225" stroke="#000"/><path d="m338.0481 1429.1523h205.4263v23.3105h-205.4263z" fill="#eee" stroke="#000" stroke-width="2"/><text fill="#333" font-family="sans-serif" font-size="13" font-weight="bold" lengthAdjust="spacing" textLength="187.1416" x="344.0481" y="1445.7207">Fetch Transactions (Stream)</text><path d="m210.9429 1479.7734 10 4-10 4 4-4z" fill="#666" stroke="#666"/><path d="m23.1826 1483.7734h193.7603" stroke="#666"/><text fill="#333" font-family="sans-serif" font-size="13" lengthAdjust="spacing" textLength="161.4019" x="30.1826" y="1479.0313">Request Transactions List</text><path d="m488.8237 1509.084 10 4-10 4 4-4z" fill="#666" stroke="#666"/><path d="m222.9429 1513.084h271.8808" stroke="#666"/><text fill="#333" font-family="sans-serif" font-size="13" lengthAdjust="spacing" textLength="62.8989" x="229.9429" y="1508.3418">POST /txs</text><path d="m500.8237 1542.3945h42" stroke="#666"/><path d="m542.8237 1542.3945v13" stroke="#666"/><path d="m501.8237 1555.3945h41" stroke="#666"/><path d="m511.8237 1551.3945-10 4 10 4-4-4z" fill="#666" stroke="#666"/><text fill="#333" font-family="sans-serif" font-size="13" lengthAdjust="spacing" textLength="110.5063" x="507.8237" y="1537.6523">GetTransactions()</text><path d="m441.6733 1570.3945h74.4468v7.3106l-10 10h-64.4468z" fill="#eee" stroke="#000" stroke-width="1.5"/><path d="m441.6733 1570.3945h429.8491v75.9316h-429.8491z" fill="none" stroke="#000" stroke-width="1.5"/><text fill="#333" font-family="sans-serif" font-size="13" font-weight="bold" lengthAdjust="spacing" textLength="29.4468" x="456.6733" y="1583.9629">loop</text><text fill="#333" font-family="sans-serif" font-size="11" font-weight="bold" lengthAdjust="spacing" textLength="232.9443" x="531.1201" y="1583.0293">[for each hash in the POST request body]</text><path d="m809.0093 1605.0156 10 4-10 4 4-4z" fill="#666" stroke="#666"/><path d="m500.8237 1609.0156h314.1856" stroke="#666"/><text fill="#333" font-family="sans-serif" font-size="13" lengthAdjust="spacing" textLength="136.5317" x="507.8237" y="1604.2734">GetMeta(ctx, tx.Hash)</text><path d="m511.8237 1634.3262-10 4 10 4-4-4z" fill="#666" stroke="#666"/><path d="m505.8237 1638.3262h314.1856" stroke="#666"/><text fill="#333" font-family="sans-serif" font-size="13" lengthAdjust="spacing" textLength="137.2427" x="517.8237" y="1633.584">Return UTXO (txMeta)</text><path d="m233.9429 1670.6367-10 4 10 4-4-4z" fill="#666" stroke="#666"/><path d="m227.9429 1674.6367h271.8808" stroke="#666"/><text fill="#333" font-family="sans-serif" font-size="13" lengthAdjust="spacing" textLength="253.8809" x="239.9429" y="1669.8945">Return list of txMeta.Tx.ExtendedBytes()</text><path d="m34.1826 1699.9473-10 4 10 4-4-4z" fill="#666" stroke="#666"/><path d="m28.1826 1703.9473h193.7603" stroke="#666"/><text fill="#333" font-family="sans-serif" font-size="13" lengthAdjust="spacing" textLength="156.9902" x="40.1826" y="1699.2051">Display Transactions List</text><text fill="#333" font-family="sans-serif" font-size="10" lengthAdjust="spacing" textLength="155.4346" y="1808.1035">Last Modified On: 24-Feb-2025</text></svg>
