<svg xmlns="http://www.w3.org/2000/svg" xmlns:xlink="http://www.w3.org/1999/xlink" contentStyleType="text/css" height="651px" preserveAspectRatio="none" style="width:590px;height:651px;background:#F0F8FF;" version="1.1" viewBox="0 0 590 651" width="590px" zoomAndPan="magnify"><defs/><g><rect fill="#F0F8FF" height="651" style="stroke:none;stroke-width:1.0;" width="590" x="0" y="0"/><rect fill="#FFFFFF" height="87.9316" style="stroke:#181818;stroke-width:1.0;" width="10" x="295.0259" y="142.1094"/><rect fill="#FFFFFF" height="87.9316" style="stroke:#181818;stroke-width:1.0;" width="10" x="295.0259" y="302.6621"/><rect fill="#FFFFFF" height="87.9316" style="stroke:#181818;stroke-width:1.0;" width="10" x="295.0259" y="463.2148"/><line style="stroke:#181818;stroke-width:0.5;stroke-dasharray:5.0,5.0;" x1="54" x2="54" y1="67.4883" y2="569.1465"/><line style="stroke:#181818;stroke-width:0.5;stroke-dasharray:5.0,5.0;" x1="299.2627" x2="299.2627" y1="67.4883" y2="569.1465"/><line style="stroke:#181818;stroke-width:0.5;stroke-dasharray:5.0,5.0;" x1="540.1685" x2="540.1685" y1="67.4883" y2="569.1465"/><rect fill="#DDDDDD" height="30.4883" rx="2.5" ry="2.5" style="stroke:#666666;stroke-width:0.5;" width="98.998" x="5" y="36"/><text fill="#333333" font-family="sans-serif" font-size="14" lengthAdjust="spacing" textLength="84.998" x="12" y="56.5352">Alert System</text><rect fill="#DDDDDD" height="30.4883" rx="2.5" ry="2.5" style="stroke:#666666;stroke-width:0.5;" width="98.998" x="5" y="568.1465"/><text fill="#333333" font-family="sans-serif" font-size="14" lengthAdjust="spacing" textLength="84.998" x="12" y="588.6816">Alert System</text><rect fill="#DDDDDD" height="30.4883" rx="2.5" ry="2.5" style="stroke:#666666;stroke-width:0.5;" width="91.5264" x="254.2627" y="36"/><text fill="#333333" font-family="sans-serif" font-size="14" lengthAdjust="spacing" textLength="77.5264" x="261.2627" y="56.5352">UTXO Store</text><rect fill="#DDDDDD" height="30.4883" rx="2.5" ry="2.5" style="stroke:#666666;stroke-width:0.5;" width="91.5264" x="254.2627" y="568.1465"/><text fill="#333333" font-family="sans-serif" font-size="14" lengthAdjust="spacing" textLength="77.5264" x="261.2627" y="588.6816">UTXO Store</text><text fill="#333333" font-family="sans-serif" font-size="14" lengthAdjust="spacing" textLength="70.5195" x="502.1685" y="64.5352">Data Store</text><path d="M522.4282,15 C522.4282,5 540.4282,5 540.4282,5 C540.4282,5 558.4282,5 558.4282,15 L558.4282,41 C558.4282,51 540.4282,51 540.4282,51 C540.4282,51 522.4282,51 522.4282,41 L522.4282,15 " fill="#E2E2F0" style="stroke:#181818;stroke-width:1.5;"/><path d="M522.4282,15 C522.4282,25 540.4282,25 540.4282,25 C540.4282,25 558.4282,25 558.4282,15 " fill="none" style="stroke:#181818;stroke-width:1.5;"/><text fill="#333333" font-family="sans-serif" font-size="14" lengthAdjust="spacing" textLength="70.5195" x="502.1685" y="581.6816">Data Store</text><path d="M522.4282,594.6348 C522.4282,584.6348 540.4282,584.6348 540.4282,584.6348 C540.4282,584.6348 558.4282,584.6348 558.4282,594.6348 L558.4282,620.6348 C558.4282,630.6348 540.4282,630.6348 540.4282,630.6348 C540.4282,630.6348 522.4282,630.6348 522.4282,620.6348 L522.4282,594.6348 " fill="#E2E2F0" style="stroke:#181818;stroke-width:1.5;"/><path d="M522.4282,594.6348 C522.4282,604.6348 540.4282,604.6348 540.4282,604.6348 C540.4282,604.6348 558.4282,604.6348 558.4282,594.6348 " fill="none" style="stroke:#181818;stroke-width:1.5;"/><rect fill="#FFFFFF" height="87.9316" style="stroke:#181818;stroke-width:1.0;" width="10" x="295.0259" y="142.1094"/><rect fill="#FFFFFF" height="87.9316" style="stroke:#181818;stroke-width:1.0;" width="10" x="295.0259" y="302.6621"/><rect fill="#FFFFFF" height="87.9316" style="stroke:#181818;stroke-width:1.0;" width="10" x="295.0259" y="463.2148"/><rect fill="#EEEEEE" height="3" style="stroke:#EEEEEE;stroke-width:1.0;" width="583.688" x="0" y="98.1436"/><line style="stroke:#000000;stroke-width:1.0;" x1="0" x2="583.688" y1="98.1436" y2="98.1436"/><line style="stroke:#000000;stroke-width:1.0;" x1="0" x2="583.688" y1="101.1436" y2="101.1436"/><rect fill="#EEEEEE" height="23.3105" style="stroke:#000000;stroke-width:2.0;" width="111.7412" x="235.9734" y="87.4883"/><text fill="#333333" font-family="sans-serif" font-size="13" font-weight="bold" lengthAdjust="spacing" textLength="93.4565" x="241.9734" y="104.0566">Freeze UTXOs</text><polygon fill="#666666" points="283.0259,138.1094,293.0259,142.1094,283.0259,146.1094,287.0259,142.1094" style="stroke:#666666;stroke-width:1.0;"/><line style="stroke:#666666;stroke-width:1.0;" x1="54.499" x2="289.0259" y1="142.1094" y2="142.1094"/><text fill="#333333" font-family="sans-serif" font-size="13" lengthAdjust="spacing" textLength="164.6646" x="61.499" y="137.3672">FreezeUTXOs(ctx, spends)</text><polygon fill="#666666" points="528.4282,167.4199,538.4282,171.4199,528.4282,175.4199,532.4282,171.4199" style="stroke:#666666;stroke-width:1.0;"/><line style="stroke:#666666;stroke-width:1.0;" x1="305.0259" x2="534.4282" y1="171.4199" y2="171.4199"/><text fill="#333333" font-family="sans-serif" font-size="13" lengthAdjust="spacing" textLength="140.3784" x="312.0259" y="166.6777">Mark UTXOs as frozen</text><polygon fill="#666666" points="316.0259,196.7305,306.0259,200.7305,316.0259,204.7305,312.0259,200.7305" style="stroke:#666666;stroke-width:1.0;"/><line style="stroke:#666666;stroke-width:1.0;stroke-dasharray:2.0,2.0;" x1="310.0259" x2="539.4282" y1="200.7305" y2="200.7305"/><text fill="#333333" font-family="sans-serif" font-size="13" lengthAdjust="spacing" textLength="82.894" x="322.0259" y="195.9883">Confirmation</text><polygon fill="#666666" points="65.499,226.041,55.499,230.041,65.499,234.041,61.499,230.041" style="stroke:#666666;stroke-width:1.0;"/><line style="stroke:#666666;stroke-width:1.0;stroke-dasharray:2.0,2.0;" x1="59.499" x2="299.0259" y1="230.041" y2="230.041"/><text fill="#333333" font-family="sans-serif" font-size="13" lengthAdjust="spacing" textLength="82.894" x="71.499" y="225.2988">Confirmation</text><rect fill="#EEEEEE" height="3" style="stroke:#EEEEEE;stroke-width:1.0;" width="583.688" x="0" y="258.6963"/><line style="stroke:#000000;stroke-width:1.0;" x1="0" x2="583.688" y1="258.6963" y2="258.6963"/><line style="stroke:#000000;stroke-width:1.0;" x1="0" x2="583.688" y1="261.6963" y2="261.6963"/><rect fill="#EEEEEE" height="23.3105" style="stroke:#000000;stroke-width:2.0;" width="127.7754" x="227.9563" y="248.041"/><text fill="#333333" font-family="sans-serif" font-size="13" font-weight="bold" lengthAdjust="spacing" textLength="109.4907" x="233.9563" y="264.6094">Unfreeze UTXOs</text><polygon fill="#666666" points="283.0259,298.6621,293.0259,302.6621,283.0259,306.6621,287.0259,302.6621" style="stroke:#666666;stroke-width:1.0;"/><line style="stroke:#666666;stroke-width:1.0;" x1="54.499" x2="289.0259" y1="302.6621" y2="302.6621"/><text fill="#333333" font-family="sans-serif" font-size="13" lengthAdjust="spacing" textLength="181.7397" x="61.499" y="297.9199">UnFreezeUTXOs(ctx, spends)</text><polygon fill="#666666" points="528.4282,327.9727,538.4282,331.9727,528.4282,335.9727,532.4282,331.9727" style="stroke:#666666;stroke-width:1.0;"/><line style="stroke:#666666;stroke-width:1.0;" x1="305.0259" x2="534.4282" y1="331.9727" y2="331.9727"/><text fill="#333333" font-family="sans-serif" font-size="13" lengthAdjust="spacing" textLength="211.4023" x="312.0259" y="327.2305">Remove frozen mark from UTXOs</text><polygon fill="#666666" points="316.0259,357.2832,306.0259,361.2832,316.0259,365.2832,312.0259,361.2832" style="stroke:#666666;stroke-width:1.0;"/><line style="stroke:#666666;stroke-width:1.0;stroke-dasharray:2.0,2.0;" x1="310.0259" x2="539.4282" y1="361.2832" y2="361.2832"/><text fill="#333333" font-family="sans-serif" font-size="13" lengthAdjust="spacing" textLength="82.894" x="322.0259" y="356.541">Confirmation</text><polygon fill="#666666" points="65.499,386.5938,55.499,390.5938,65.499,394.5938,61.499,390.5938" style="stroke:#666666;stroke-width:1.0;"/><line style="stroke:#666666;stroke-width:1.0;stroke-dasharray:2.0,2.0;" x1="59.499" x2="299.0259" y1="390.5938" y2="390.5938"/><text fill="#333333" font-family="sans-serif" font-size="13" lengthAdjust="spacing" textLength="82.894" x="71.499" y="385.8516">Confirmation</text><rect fill="#EEEEEE" height="3" style="stroke:#EEEEEE;stroke-width:1.0;" width="583.688" x="0" y="419.249"/><line style="stroke:#000000;stroke-width:1.0;" x1="0" x2="583.688" y1="419.249" y2="419.249"/><line style="stroke:#000000;stroke-width:1.0;" x1="0" x2="583.688" y1="422.249" y2="422.249"/><rect fill="#EEEEEE" height="23.3105" style="stroke:#000000;stroke-width:2.0;" width="120.7549" x="231.4666" y="408.5938"/><text fill="#333333" font-family="sans-serif" font-size="13" font-weight="bold" lengthAdjust="spacing" textLength="102.4702" x="237.4666" y="425.1621">Reassign UTXO</text><polygon fill="#666666" points="283.0259,459.2148,293.0259,463.2148,283.0259,467.2148,287.0259,463.2148" style="stroke:#666666;stroke-width:1.0;"/><line style="stroke:#666666;stroke-width:1.0;" x1="54.499" x2="289.0259" y1="463.2148" y2="463.2148"/><text fill="#333333" font-family="sans-serif" font-size="13" lengthAdjust="spacing" textLength="221.5269" x="61.499" y="458.4727">ReAssignUTXO(ctx, utxo, newUtxo)</text><polygon fill="#666666" points="528.4282,488.5254,538.4282,492.5254,528.4282,496.5254,532.4282,492.5254" style="stroke:#666666;stroke-width:1.0;"/><line style="stroke:#666666;stroke-width:1.0;" x1="305.0259" x2="534.4282" y1="492.5254" y2="492.5254"/><text fill="#333333" font-family="sans-serif" font-size="13" lengthAdjust="spacing" textLength="161.021" x="312.0259" y="487.7832">Update UTXO assignment</text><polygon fill="#666666" points="316.0259,517.8359,306.0259,521.8359,316.0259,525.8359,312.0259,521.8359" style="stroke:#666666;stroke-width:1.0;"/><line style="stroke:#666666;stroke-width:1.0;stroke-dasharray:2.0,2.0;" x1="310.0259" x2="539.4282" y1="521.8359" y2="521.8359"/><text fill="#333333" font-family="sans-serif" font-size="13" lengthAdjust="spacing" textLength="82.894" x="322.0259" y="517.0938">Confirmation</text><polygon fill="#666666" points="65.499,547.1465,55.499,551.1465,65.499,555.1465,61.499,551.1465" style="stroke:#666666;stroke-width:1.0;"/><line style="stroke:#666666;stroke-width:1.0;stroke-dasharray:2.0,2.0;" x1="59.499" x2="299.0259" y1="551.1465" y2="551.1465"/><text fill="#333333" font-family="sans-serif" font-size="13" lengthAdjust="spacing" textLength="82.894" x="71.499" y="546.4043">Confirmation</text><text fill="#333333" font-family="sans-serif" font-size="10" lengthAdjust="spacing" textLength="155.4346" x="0" y="641.3027">Last Modified On: 24-Feb-2025</text><!--SRC=[lPHFIyD04CNl-oc6Y6YX1K4GALJGbfmCGcl0wpGxaQN9RjcTLglutTriOjsAYF_e7CBEx2zltZiaRg7q4YtMCCTYSM_DIikngOo5W_GaFKzJuRQ4f19N5QT6SuUSXeeGjDOyT9TdeOGuWWcLIXFCZPLa7PJ-5giAgAAQDBleVTygti2p0BWAzAwMdtvqEGabNaIaKdY7rbH_bV5FLeLQekRVIGaHIoIN5Lc6sSOnrGcWWp1e-rqolxsxWHaRIu5hsj09YOnpT0J9n9yYf6bRH8n6a5gY9mhlEHYDHBG81XVlUiEE3E1nmOzzS4lIqlK45gpMo1GjtvuQZUt28MHe5zqkxwIqvecqsDx3O7VZsEXIsHfP6HrBUYgo-O6Jz8cV9cckoszdpVL_f9rIRTRKnOIwoUxFTMjWNx6dXCwfUnt6NwUUqcL0cr4RUiMFfW-Q7d9_-57sV2dVG6WDD1_mNa9NLBB_SnWc2zVe638ZLQb8meqUmc7ZwpYHSf1bsM3ZA-c9Lm00]--></g></svg>
