<svg xmlns="http://www.w3.org/2000/svg" xmlns:xlink="http://www.w3.org/1999/xlink" contentStyleType="text/css" height="566px" preserveAspectRatio="none" style="width:772px;height:566px;background:#F0F8FF;" version="1.1" viewBox="0 0 772 566" width="772px" zoomAndPan="magnify"><defs/><g><rect fill="#F0F8FF" height="566" style="stroke:none;stroke-width:1.0;" width="772" x="0" y="0"/><rect fill="#FFFFFF" height="394.7266" style="stroke:#181818;stroke-width:1.0;" width="10" x="364.2681" y="111.1094"/><rect fill="#FFFFFF" height="261.4844" style="stroke:#181818;stroke-width:1.0;" width="10" x="369.2681" y="244.3516"/><rect fill="#FFFFFF" height="127.2422" style="stroke:#181818;stroke-width:1.0;" width="10" x="374.2681" y="377.5938"/><rect fill="none" height="46.6211" style="stroke:#000000;stroke-width:1.5;" width="495.0313" x="10" y="126.1094"/><rect fill="none" height="46.6211" style="stroke:#000000;stroke-width:1.5;" width="495.0313" x="10" y="259.3516"/><rect fill="none" height="105.2422" style="stroke:#000000;stroke-width:1.5;" width="745.1211" x="10" y="392.5938"/><line style="stroke:#181818;stroke-width:0.5;stroke-dasharray:5.0,5.0;" x1="126" x2="126" y1="36.4883" y2="514.8359"/><line style="stroke:#181818;stroke-width:0.5;stroke-dasharray:5.0,5.0;" x1="368.5049" x2="368.5049" y1="36.4883" y2="514.8359"/><line style="stroke:#181818;stroke-width:0.5;stroke-dasharray:5.0,5.0;" x1="625.0313" x2="625.0313" y1="36.4883" y2="514.8359"/><rect fill="#DDDDDD" height="30.4883" rx="2.5" ry="2.5" style="stroke:#666666;stroke-width:0.5;" width="53.5049" x="100" y="5"/><text fill="#333333" font-family="sans-serif" font-size="14" lengthAdjust="spacing" textLength="39.5049" x="107" y="25.5352">Client</text><rect fill="#DDDDDD" height="30.4883" rx="2.5" ry="2.5" style="stroke:#666666;stroke-width:0.5;" width="53.5049" x="100" y="513.8359"/><text fill="#333333" font-family="sans-serif" font-size="14" lengthAdjust="spacing" textLength="39.5049" x="107" y="534.3711">Client</text><rect fill="#DDDDDD" height="30.4883" rx="2.5" ry="2.5" style="stroke:#666666;stroke-width:0.5;" width="91.5264" x="323.5049" y="5"/><text fill="#333333" font-family="sans-serif" font-size="14" lengthAdjust="spacing" textLength="77.5264" x="330.5049" y="25.5352">UTXO Store</text><rect fill="#DDDDDD" height="30.4883" rx="2.5" ry="2.5" style="stroke:#666666;stroke-width:0.5;" width="91.5264" x="323.5049" y="513.8359"/><text fill="#333333" font-family="sans-serif" font-size="14" lengthAdjust="spacing" textLength="77.5264" x="330.5049" y="534.3711">UTXO Store</text><rect fill="#DDDDDD" height="30.4883" rx="2.5" ry="2.5" style="stroke:#666666;stroke-width:0.5;" width="80.0898" x="585.0313" y="5"/><text fill="#333333" font-family="sans-serif" font-size="14" lengthAdjust="spacing" textLength="66.0898" x="592.0313" y="25.5352">DataStore</text><rect fill="#DDDDDD" height="30.4883" rx="2.5" ry="2.5" style="stroke:#666666;stroke-width:0.5;" width="80.0898" x="585.0313" y="513.8359"/><text fill="#333333" font-family="sans-serif" font-size="14" lengthAdjust="spacing" textLength="66.0898" x="592.0313" y="534.3711">DataStore</text><rect fill="#FFFFFF" height="394.7266" style="stroke:#181818;stroke-width:1.0;" width="10" x="364.2681" y="111.1094"/><rect fill="#FFFFFF" height="261.4844" style="stroke:#181818;stroke-width:1.0;" width="10" x="369.2681" y="244.3516"/><rect fill="#FFFFFF" height="127.2422" style="stroke:#181818;stroke-width:1.0;" width="10" x="374.2681" y="377.5938"/><rect fill="#EEEEEE" height="3" style="stroke:#EEEEEE;stroke-width:1.0;" width="765.1211" x="0" y="67.1436"/><line style="stroke:#000000;stroke-width:1.0;" x1="0" x2="765.1211" y1="67.1436" y2="67.1436"/><line style="stroke:#000000;stroke-width:1.0;" x1="0" x2="765.1211" y1="70.1436" y2="70.1436"/><rect fill="#EEEEEE" height="23.3105" style="stroke:#000000;stroke-width:2.0;" width="249.5234" x="257.7988" y="56.4883"/><text fill="#333333" font-family="sans-serif" font-size="13" font-weight="bold" lengthAdjust="spacing" textLength="231.2388" x="263.7988" y="73.0566">Reset a UTXO - Key does not exist</text><polygon fill="#666666" points="352.2681,107.1094,362.2681,111.1094,352.2681,115.1094,356.2681,111.1094" style="stroke:#666666;stroke-width:1.0;"/><line style="stroke:#666666;stroke-width:1.0;" x1="126.7524" x2="358.2681" y1="111.1094" y2="111.1094"/><text fill="#333333" font-family="sans-serif" font-size="13" lengthAdjust="spacing" textLength="157.3457" x="133.7524" y="106.3672">Reset UTXO (UTXO Hash)</text><path d="M10,126.1094 L72.1387,126.1094 L72.1387,133.4199 L62.1387,143.4199 L10,143.4199 L10,126.1094 " fill="#EEEEEE" style="stroke:#000000;stroke-width:1.5;"/><rect fill="none" height="46.6211" style="stroke:#000000;stroke-width:1.5;" width="495.0313" x="10" y="126.1094"/><text fill="#333333" font-family="sans-serif" font-size="13" font-weight="bold" lengthAdjust="spacing" textLength="17.1387" x="25" y="139.6777">alt</text><text fill="#333333" font-family="sans-serif" font-size="11" font-weight="bold" lengthAdjust="spacing" textLength="112.5835" x="87.1387" y="138.7441">[Key does not exist]</text><polygon fill="#666666" points="137.7524,160.7305,127.7524,164.7305,137.7524,168.7305,133.7524,164.7305" style="stroke:#666666;stroke-width:1.0;"/><line style="stroke:#666666;stroke-width:1.0;" x1="131.7524" x2="363.2681" y1="164.7305" y2="164.7305"/><text fill="#333333" font-family="sans-serif" font-size="13" lengthAdjust="spacing" textLength="79.8408" x="143.7524" y="159.9883">NOT_FOUND</text><rect fill="#EEEEEE" height="3" style="stroke:#EEEEEE;stroke-width:1.0;" width="765.1211" x="0" y="200.3857"/><line style="stroke:#000000;stroke-width:1.0;" x1="0" x2="765.1211" y1="200.3857" y2="200.3857"/><line style="stroke:#000000;stroke-width:1.0;" x1="0" x2="765.1211" y1="203.3857" y2="203.3857"/><rect fill="#EEEEEE" height="23.3105" style="stroke:#000000;stroke-width:2.0;" width="319.6143" x="222.7534" y="189.7305"/><text fill="#333333" font-family="sans-serif" font-size="13" font-weight="bold" lengthAdjust="spacing" textLength="301.3296" x="228.7534" y="206.2988">Reset a UTXO - Key exists and Value is NULL</text><polygon fill="#666666" points="357.2681,240.3516,367.2681,244.3516,357.2681,248.3516,361.2681,244.3516" style="stroke:#666666;stroke-width:1.0;"/><line style="stroke:#666666;stroke-width:1.0;" x1="126.7524" x2="363.2681" y1="244.3516" y2="244.3516"/><text fill="#333333" font-family="sans-serif" font-size="13" lengthAdjust="spacing" textLength="157.3457" x="133.7524" y="239.6094">Reset UTXO (UTXO Hash)</text><path d="M10,259.3516 L72.1387,259.3516 L72.1387,266.6621 L62.1387,276.6621 L10,276.6621 L10,259.3516 " fill="#EEEEEE" style="stroke:#000000;stroke-width:1.5;"/><rect fill="none" height="46.6211" style="stroke:#000000;stroke-width:1.5;" width="495.0313" x="10" y="259.3516"/><text fill="#333333" font-family="sans-serif" font-size="13" font-weight="bold" lengthAdjust="spacing" textLength="17.1387" x="25" y="272.9199">alt</text><text fill="#333333" font-family="sans-serif" font-size="11" font-weight="bold" lengthAdjust="spacing" textLength="171.8911" x="87.1387" y="271.9863">[Key exists and Value is NULL]</text><polygon fill="#666666" points="137.7524,293.9727,127.7524,297.9727,137.7524,301.9727,133.7524,297.9727" style="stroke:#666666;stroke-width:1.0;"/><line style="stroke:#666666;stroke-width:1.0;" x1="131.7524" x2="368.2681" y1="297.9727" y2="297.9727"/><text fill="#333333" font-family="sans-serif" font-size="13" lengthAdjust="spacing" textLength="103.6636" x="143.7524" y="293.2305">OK (Idempotent)</text><rect fill="#EEEEEE" height="3" style="stroke:#EEEEEE;stroke-width:1.0;" width="765.1211" x="0" y="333.6279"/><line style="stroke:#000000;stroke-width:1.0;" x1="0" x2="765.1211" y1="333.6279" y2="333.6279"/><line style="stroke:#000000;stroke-width:1.0;" x1="0" x2="765.1211" y1="336.6279" y2="336.6279"/><rect fill="#EEEEEE" height="23.3105" style="stroke:#000000;stroke-width:2.0;" width="346.0078" x="209.5566" y="322.9727"/><text fill="#333333" font-family="sans-serif" font-size="13" font-weight="bold" lengthAdjust="spacing" textLength="327.7231" x="215.5566" y="339.541">Reset a UTXO - Key exists and Value is not NULL</text><polygon fill="#666666" points="362.2681,373.5938,372.2681,377.5938,362.2681,381.5938,366.2681,377.5938" style="stroke:#666666;stroke-width:1.0;"/><line style="stroke:#666666;stroke-width:1.0;" x1="126.7524" x2="368.2681" y1="377.5938" y2="377.5938"/><text fill="#333333" font-family="sans-serif" font-size="13" lengthAdjust="spacing" textLength="157.3457" x="133.7524" y="372.8516">Reset UTXO (UTXO Hash)</text><path d="M10,392.5938 L72.1387,392.5938 L72.1387,399.9043 L62.1387,409.9043 L10,409.9043 L10,392.5938 " fill="#EEEEEE" style="stroke:#000000;stroke-width:1.5;"/><rect fill="none" height="105.2422" style="stroke:#000000;stroke-width:1.5;" width="745.1211" x="10" y="392.5938"/><text fill="#333333" font-family="sans-serif" font-size="13" font-weight="bold" lengthAdjust="spacing" textLength="17.1387" x="25" y="406.1621">alt</text><text fill="#333333" font-family="sans-serif" font-size="11" font-weight="bold" lengthAdjust="spacing" textLength="194.2241" x="87.1387" y="405.2285">[Key exists and Value is not NULL]</text><polygon fill="#666666" points="613.0762,427.2148,623.0762,431.2148,613.0762,435.2148,617.0762,431.2148" style="stroke:#666666;stroke-width:1.0;"/><line style="stroke:#666666;stroke-width:1.0;" x1="384.2681" x2="619.0762" y1="431.2148" y2="431.2148"/><text fill="#333333" font-family="sans-serif" font-size="13" lengthAdjust="spacing" textLength="166.3149" x="391.2681" y="426.4727">Store NULL for UTXO Hash</text><polygon fill="#666666" points="395.2681,456.5254,385.2681,460.5254,395.2681,464.5254,391.2681,460.5254" style="stroke:#666666;stroke-width:1.0;"/><line style="stroke:#666666;stroke-width:1.0;" x1="389.2681" x2="624.0762" y1="460.5254" y2="460.5254"/><text fill="#333333" font-family="sans-serif" font-size="13" lengthAdjust="spacing" textLength="77.1812" x="401.2681" y="455.7832">NULL Stored</text><polygon fill="#666666" points="137.7524,485.8359,127.7524,489.8359,137.7524,493.8359,133.7524,489.8359" style="stroke:#666666;stroke-width:1.0;"/><line style="stroke:#666666;stroke-width:1.0;" x1="131.7524" x2="373.2681" y1="489.8359" y2="489.8359"/><text fill="#333333" font-family="sans-serif" font-size="13" lengthAdjust="spacing" textLength="18.5859" x="143.7524" y="485.0938">OK</text><text fill="#333333" font-family="sans-serif" font-size="10" lengthAdjust="spacing" textLength="155.4346" x="0" y="555.9922">Last Modified On: 24-Feb-2025</text><!--SRC=[jLDBQm8n4BxdLmoMKZqi28KYWZtKPMdniTBMqbiPDxCs61D9Obif_U-DsTMkeeU-vX2IpFVAi6jdGYtGu1mccCscHYyLxsgf3PmapQIL9Cnk4PnoN4gNQELAo7ce2WIDqQzbyo8KOsSGKouKmKGRJiP2xhie9P2aEIbdAtn_56u5xmpWAg1tjVpjVieu5FjW5PNC9pHQ_bR6hqvaOe7A_KoALTL6NseZv5oeARIQZ5LDQbqf_0HgW1QAxMvxVF-OmftJXW8ax1ZhTE2MB3b02808UhG2hic2qWxeJLW7dGvZXIH4bmMpNT82gHxMQxJF3OQP4o_eQ6E0qXsGz4-70h5MBBJRC4pldv9qF8mPANuiM-1RGCNX0UMIG5WOZllzFqbvJFnmthG7zHjEyuLs_jpuRkhrDFur-SPWDtsC3akFuYvaMFzNMvj0sE8geG8qxFcnaHHJuBGVL5Bkl8iVbO4- -gzgeBd81N58LHjEkOVMQvn7Wy4WMlcgDTWd]--></g></svg>
