<svg contentStyleType="text/css" height="353" preserveAspectRatio="none" viewBox="0 0 455 353" width="455" xmlns="http://www.w3.org/2000/svg" zoomAndPan="magnify"><g stroke="#181818"><path d="m391.5 153.4199h10v29.3105h-10z" fill="#fff"/><path d="m391.5 255.3516h10v29.3105h-10z" fill="#fff"/><path d="m64 36.4883v266.1738" stroke-dasharray="5 5" stroke-width=".5"/><path d="m396 36.4883v266.1738" stroke-dasharray="5 5" stroke-width=".5"/><rect fill="#e2e2f0" height="30.4883" rx="2.5" stroke-width=".5" width="119" x="5" y="5"/></g><text font-family="sans-serif" font-size="14" lengthAdjust="spacing" textLength="105" x="12" y="25.5352">Block Assembly</text><rect fill="#e2e2f0" height="30.4883" rx="2.5" stroke="#181818" stroke-width=".5" width="119" x="5" y="301.6621"/><text font-family="sans-serif" font-size="14" lengthAdjust="spacing" textLength="105" x="12" y="322.1973">Block Assembly</text><rect fill="#e2e2f0" height="30.4883" rx="2.5" stroke="#181818" stroke-width=".5" width="93" x="350" y="5"/><text font-family="sans-serif" font-size="14" lengthAdjust="spacing" textLength="79" x="357" y="25.5352">UTXO Store</text><rect fill="#e2e2f0" height="30.4883" rx="2.5" stroke="#181818" stroke-width=".5" width="93" x="350" y="301.6621"/><text font-family="sans-serif" font-size="14" lengthAdjust="spacing" textLength="79" x="357" y="322.1973">UTXO Store</text><path d="m391.5 153.4199h10v29.3105h-10z" fill="#fff" stroke="#181818"/><path d="m391.5 255.3516h10v29.3105h-10z" fill="#fff" stroke="#181818"/><path d="m0 67.1436h448v3h-448z" fill="#eee" stroke="#eee"/><path d="m0 67.1436h448" stroke="#000"/><path d="m0 70.1436h448" stroke="#000"/><path d="m149 56.4883h150v23.3105h-150z" fill="#eee" stroke="#000" stroke-width="2"/><text font-family="sans-serif" font-size="13" font-weight="bold" lengthAdjust="spacing" textLength="132" x="155" y="73.0566">Create Coinbase TX</text><path d="m64.5 111.1094h42" stroke="#181818"/><path d="m106.5 111.1094v13" stroke="#181818"/><path d="m65.5 124.1094h41" stroke="#181818"/><path d="m75.5 120.1094-10 4 10 4-4-4z" fill="#181818" stroke="#181818"/><text font-family="sans-serif" font-size="13" lengthAdjust="spacing" textLength="215" x="71.5" y="106.3672">processCoinbaseUtxos(ctx, block)</text><path d="m379.5 149.4199 10 4-10 4 4-4z" fill="#181818" stroke="#181818"/><path d="m64.5 153.4199h321" stroke="#181818"/><text font-family="sans-serif" font-size="13" lengthAdjust="spacing" textLength="308" x="71.5" y="148.6777">Create(ctx, block.CoinbaseTx, blockHeight+100)</text><path d="m75.5 178.7305-10 4 10 4-4-4z" fill="#181818" stroke="#181818"/><path d="m69.5 182.7305h326" stroke="#181818" stroke-dasharray="2 2"/><text font-family="sans-serif" font-size="13" lengthAdjust="spacing" textLength="83" x="81.5" y="177.9883">Confirmation</text><path d="m0 211.3857h448v3h-448z" fill="#eee" stroke="#eee"/><path d="m0 211.3857h448" stroke="#000"/><path d="m0 214.3857h448" stroke="#000"/><path d="m149.5 200.7305h149v23.3105h-149z" fill="#eee" stroke="#000" stroke-width="2"/><text font-family="sans-serif" font-size="13" font-weight="bold" lengthAdjust="spacing" textLength="131" x="155.5" y="217.2988">Delete Coinbase TX</text><path d="m379.5 251.3516 10 4-10 4 4-4z" fill="#181818" stroke="#181818"/><path d="m64.5 255.3516h321" stroke="#181818"/><text font-family="sans-serif" font-size="13" lengthAdjust="spacing" textLength="145" x="71.5" y="250.6094">Delete(Coinbase UTXO)</text><path d="m75.5 280.6621-10 4 10 4-4-4z" fill="#181818" stroke="#181818"/><path d="m69.5 284.6621h326" stroke="#181818" stroke-dasharray="2 2"/><text font-family="sans-serif" font-size="13" lengthAdjust="spacing" textLength="83" x="81.5" y="279.9199">Confirmation</text><text fill="#888" font-family="sans-serif" font-size="10" lengthAdjust="spacing" textLength="152" y="343.8184">Last Modified On: 4-June-2024</text></svg>
