<svg xmlns="http://www.w3.org/2000/svg" xmlns:xlink="http://www.w3.org/1999/xlink" contentStyleType="text/css" height="948px" preserveAspectRatio="none" style="width:1021px;height:948px;background:#FFFFFF;" version="1.1" viewBox="0 0 1021 948" width="1021px" zoomAndPan="magnify"><title>Block Assembly - Loading Unmined Transactions on Startup</title><defs/><g><text fill="#000000" font-family="Verdana" font-size="22" font-weight="bold" lengthAdjust="spacing" textLength="737.8486" x="145.7236" y="37.1182">Block Assembly - Loading Unmined Transactions on Startup</text><rect fill="#FFFFFF" height="808.5815" style="stroke:#000000;stroke-width:1.0;" width="10" x="177.2549" y="94.752"/><rect fill="#FFFFFF" height="631.7856" style="stroke:#000000;stroke-width:1.0;" width="10" x="182.2549" y="218.9492"/><rect fill="#FFFFFF" height="227.3945" style="stroke:#000000;stroke-width:1.0;" width="622.2041" x="90" y="328.3472"/><rect fill="#FFFFFF" height="195.5952" style="stroke:#000000;stroke-width:1.0;" width="602.2041" x="100" y="353.1465"/><rect fill="#FFFFFF" height="192.5952" style="stroke:#000000;stroke-width:1.0;" width="935.2959" x="80" y="651.1396"/><rect fill="#FFFFFF" height="160.7959" style="stroke:#000000;stroke-width:1.0;" width="915.2959" x="90" y="675.939"/><rect fill="#FFFFFF" height="77.3979" style="stroke:#000000;stroke-width:1.0;" width="895.2959" x="100" y="752.3369"/><line style="stroke:#000000;stroke-width:1.0;" x1="182" x2="182" y1="84.752" y2="912.3335"/><line style="stroke:#000000;stroke-width:1.0;" x1="395.8237" x2="395.8237" y1="84.752" y2="912.3335"/><line style="stroke:#000000;stroke-width:1.0;" x1="607.6846" x2="607.6846" y1="84.752" y2="912.3335"/><line style="stroke:#000000;stroke-width:1.0;" x1="780.2041" x2="780.2041" y1="84.752" y2="912.3335"/><line style="stroke:#000000;stroke-width:1.0;" x1="927.1348" x2="927.1348" y1="84.752" y2="912.3335"/><rect fill="#FFFFFF" height="31.0146" rx="2.5" ry="2.5" style="stroke:#000000;stroke-width:1.0;" width="124.5098" x="120" y="52.7373"/><text fill="#000000" font-family="Verdana" font-size="14" lengthAdjust="spacing" textLength="110.5098" x="127" y="73.8125">BlockAssembler</text><rect fill="#FFFFFF" height="31.0146" rx="2.5" ry="2.5" style="stroke:#000000;stroke-width:1.0;" width="124.5098" x="120" y="911.3335"/><text fill="#000000" font-family="Verdana" font-size="14" lengthAdjust="spacing" textLength="110.5098" x="127" y="932.4087">BlockAssembler</text><rect fill="#FFFFFF" height="31.0146" rx="2.5" ry="2.5" style="stroke:#000000;stroke-width:1.0;" width="96.3047" x="347.8237" y="52.7373"/><text fill="#000000" font-family="Verdana" font-size="14" lengthAdjust="spacing" textLength="82.3047" x="354.8237" y="73.8125">UTXO Store</text><rect fill="#FFFFFF" height="31.0146" rx="2.5" ry="2.5" style="stroke:#000000;stroke-width:1.0;" width="96.3047" x="347.8237" y="911.3335"/><text fill="#000000" font-family="Verdana" font-size="14" lengthAdjust="spacing" textLength="82.3047" x="354.8237" y="932.4087">UTXO Store</text><rect fill="#FFFFFF" height="31.0146" rx="2.5" ry="2.5" style="stroke:#000000;stroke-width:1.0;" width="147.5195" x="534.6846" y="52.7373"/><text fill="#000000" font-family="Verdana" font-size="14" lengthAdjust="spacing" textLength="133.5195" x="541.6846" y="73.8125">UnminedTxIterator</text><rect fill="#FFFFFF" height="31.0146" rx="2.5" ry="2.5" style="stroke:#000000;stroke-width:1.0;" width="147.5195" x="534.6846" y="911.3335"/><text fill="#000000" font-family="Verdana" font-size="14" lengthAdjust="spacing" textLength="133.5195" x="541.6846" y="932.4087">UnminedTxIterator</text><rect fill="#FFFFFF" height="31.0146" rx="2.5" ry="2.5" style="stroke:#000000;stroke-width:1.0;" width="136.9307" x="712.2041" y="52.7373"/><text fill="#000000" font-family="Verdana" font-size="14" lengthAdjust="spacing" textLength="122.9307" x="719.2041" y="73.8125">SubtreeProcessor</text><rect fill="#FFFFFF" height="31.0146" rx="2.5" ry="2.5" style="stroke:#000000;stroke-width:1.0;" width="136.9307" x="712.2041" y="911.3335"/><text fill="#000000" font-family="Verdana" font-size="14" lengthAdjust="spacing" textLength="122.9307" x="719.2041" y="932.4087">SubtreeProcessor</text><rect fill="#FFFFFF" height="31.0146" rx="2.5" ry="2.5" style="stroke:#000000;stroke-width:1.0;" width="96.1611" x="879.1348" y="52.7373"/><text fill="#000000" font-family="Verdana" font-size="14" lengthAdjust="spacing" textLength="82.1611" x="886.1348" y="73.8125">UTXOCache</text><rect fill="#FFFFFF" height="31.0146" rx="2.5" ry="2.5" style="stroke:#000000;stroke-width:1.0;" width="96.1611" x="879.1348" y="911.3335"/><text fill="#000000" font-family="Verdana" font-size="14" lengthAdjust="spacing" textLength="82.1611" x="886.1348" y="932.4087">UTXOCache</text><rect fill="#FFFFFF" height="808.5815" style="stroke:#000000;stroke-width:1.0;" width="10" x="177.2549" y="94.752"/><rect fill="#FFFFFF" height="631.7856" style="stroke:#000000;stroke-width:1.0;" width="10" x="182.2549" y="218.9492"/><line style="stroke:#000000;stroke-width:1.0;" x1="187.2549" x2="229.2549" y1="116.5513" y2="116.5513"/><line style="stroke:#000000;stroke-width:1.0;" x1="229.2549" x2="229.2549" y1="116.5513" y2="129.5513"/><line style="stroke:#000000;stroke-width:1.0;" x1="188.2549" x2="229.2549" y1="129.5513" y2="129.5513"/><polygon fill="#000000" points="198.2549,125.5513,188.2549,129.5513,198.2549,133.5513,194.2549,129.5513" style="stroke:#000000;stroke-width:1.0;"/><text fill="#000000" font-family="Verdana" font-size="13" lengthAdjust="spacing" textLength="44.2939" x="194.2549" y="111.8218">Start()</text><path d="M260.2939,103.252 L260.2939,128.252 L411.2939,128.252 L411.2939,113.252 L401.2939,103.252 L260.2939,103.252 " fill="#FFFFFF" style="stroke:#000000;stroke-width:1.0;"/><path d="M401.2939,103.252 L401.2939,113.252 L411.2939,113.252 L401.2939,103.252 " fill="#FFFFFF" style="stroke:#000000;stroke-width:1.0;"/><text fill="#000000" font-family="Verdana" font-size="13" lengthAdjust="spacing" textLength="130.9648" x="266.2939" y="121.3218">Service initialization</text><line style="stroke:#000000;stroke-width:1.0;" x1="187.2549" x2="229.2549" y1="163.7502" y2="163.7502"/><line style="stroke:#000000;stroke-width:1.0;" x1="229.2549" x2="229.2549" y1="163.7502" y2="176.7502"/><line style="stroke:#000000;stroke-width:1.0;" x1="188.2549" x2="229.2549" y1="176.7502" y2="176.7502"/><polygon fill="#000000" points="198.2549,172.7502,188.2549,176.7502,198.2549,180.7502,194.2549,176.7502" style="stroke:#000000;stroke-width:1.0;"/><text fill="#000000" font-family="Verdana" font-size="13" lengthAdjust="spacing" textLength="153.2642" x="194.2549" y="159.0208">waitForPendingBlocks()</text><path d="M369.2642,142.5513 L369.2642,183.5513 L556.2642,183.5513 L556.2642,152.5513 L546.2642,142.5513 L369.2642,142.5513 " fill="#FFFFFF" style="stroke:#000000;stroke-width:1.0;"/><path d="M546.2642,142.5513 L546.2642,152.5513 L556.2642,152.5513 L546.2642,142.5513 " fill="#FFFFFF" style="stroke:#000000;stroke-width:1.0;"/><text fill="#000000" font-family="Verdana" font-size="13" lengthAdjust="spacing" textLength="166.2515" x="375.2642" y="160.6211">Ensure all pending blocks</text><text fill="#000000" font-family="Verdana" font-size="13" lengthAdjust="spacing" textLength="121.2656" x="375.2642" y="176.4204">are processed first</text><line style="stroke:#000000;stroke-width:1.0;" x1="187.2549" x2="234.2549" y1="205.9492" y2="205.9492"/><line style="stroke:#000000;stroke-width:1.0;" x1="234.2549" x2="234.2549" y1="205.9492" y2="218.9492"/><line style="stroke:#000000;stroke-width:1.0;" x1="193.2549" x2="234.2549" y1="218.9492" y2="218.9492"/><polygon fill="#000000" points="203.2549,214.9492,193.2549,218.9492,203.2549,222.9492,199.2549,218.9492" style="stroke:#000000;stroke-width:1.0;"/><text fill="#000000" font-family="Verdana" font-size="13" lengthAdjust="spacing" textLength="179.7212" x="199.2549" y="201.2197">loadUnminedTransactions()</text><polygon fill="#000000" points="383.9761,249.7485,393.9761,253.7485,383.9761,257.7485,387.9761,253.7485" style="stroke:#000000;stroke-width:1.0;"/><line style="stroke:#000000;stroke-width:1.0;" x1="192.2549" x2="389.9761" y1="253.7485" y2="253.7485"/><text fill="#000000" font-family="Verdana" font-size="13" lengthAdjust="spacing" textLength="158.7358" x="199.2549" y="249.019">GetUnminedTxIterator()</text><polygon fill="#000000" points="203.2549,279.5479,193.2549,283.5479,203.2549,287.5479,199.2549,283.5479" style="stroke:#000000;stroke-width:1.0;"/><line style="stroke:#000000;stroke-width:1.0;stroke-dasharray:2.0,2.0;" x1="197.2549" x2="394.9761" y1="283.5479" y2="283.5479"/><text fill="#000000" font-family="Verdana" font-size="13" lengthAdjust="spacing" textLength="48.3501" x="209.2549" y="278.8184">iterator</text><polygon fill="#000000" points="596.4443,309.3472,606.4443,313.3472,596.4443,317.3472,600.4443,313.3472" style="stroke:#000000;stroke-width:1.0;"/><line style="stroke:#000000;stroke-width:1.0;" x1="192.2549" x2="602.4443" y1="313.3472" y2="313.3472"/><text fill="#000000" font-family="Verdana" font-size="13" lengthAdjust="spacing" textLength="93.6597" x="199.2549" y="308.6177">create iterator</text><path d="M90,328.3472 L355.2256,328.3472 L355.2256,336.1465 L345.2256,346.1465 L90,346.1465 L90,328.3472 " fill="#FFFFFF" style="stroke:#000000;stroke-width:1.0;"/><rect fill="none" height="227.3945" style="stroke:#000000;stroke-width:1.0;" width="622.2041" x="90" y="328.3472"/><text fill="#000000" font-family="Verdana" font-size="13" font-weight="bold" lengthAdjust="spacing" textLength="220.2256" x="105" y="342.417">Load all unmined transactions</text><path d="M100,353.1465 L176.3828,353.1465 L176.3828,360.9458 L166.3828,370.9458 L100,370.9458 L100,353.1465 " fill="#FFFFFF" style="stroke:#000000;stroke-width:1.0;"/><rect fill="none" height="195.5952" style="stroke:#000000;stroke-width:1.0;" width="602.2041" x="100" y="353.1465"/><text fill="#000000" font-family="Verdana" font-size="13" font-weight="bold" lengthAdjust="spacing" textLength="31.3828" x="115" y="367.2163">loop</text><text fill="#000000" font-family="Verdana" font-size="11" font-weight="bold" lengthAdjust="spacing" textLength="159.5645" x="191.3828" y="366.2056">[while transactions exist]</text><polygon fill="#000000" points="596.4443,388.7451,606.4443,392.7451,596.4443,396.7451,600.4443,392.7451" style="stroke:#000000;stroke-width:1.0;"/><line style="stroke:#000000;stroke-width:1.0;" x1="192.2549" x2="602.4443" y1="392.7451" y2="392.7451"/><text fill="#000000" font-family="Verdana" font-size="13" lengthAdjust="spacing" textLength="42.0913" x="199.2549" y="388.0156">Next()</text><polygon fill="#000000" points="406.9761,434.3438,396.9761,438.3438,406.9761,442.3438,402.9761,438.3438" style="stroke:#000000;stroke-width:1.0;"/><line style="stroke:#000000;stroke-width:1.0;" x1="400.9761" x2="607.4443" y1="438.3438" y2="438.3438"/><text fill="#000000" font-family="Verdana" font-size="13" lengthAdjust="spacing" textLength="116.0034" x="412.9761" y="417.8149">query unmined tx</text><text fill="#000000" font-family="Verdana" font-size="13" lengthAdjust="spacing" textLength="188.4683" x="412.9761" y="433.6143">(where unminedSince != nil)</text><polygon fill="#000000" points="596.4443,464.1431,606.4443,468.1431,596.4443,472.1431,600.4443,468.1431" style="stroke:#000000;stroke-width:1.0;"/><line style="stroke:#000000;stroke-width:1.0;stroke-dasharray:2.0,2.0;" x1="395.9761" x2="602.4443" y1="468.1431" y2="468.1431"/><text fill="#000000" font-family="Verdana" font-size="13" lengthAdjust="spacing" textLength="133.7769" x="402.9761" y="463.4136">UnminedTransaction</text><polygon fill="#000000" points="203.2549,493.9424,193.2549,497.9424,203.2549,501.9424,199.2549,497.9424" style="stroke:#000000;stroke-width:1.0;"/><line style="stroke:#000000;stroke-width:1.0;stroke-dasharray:2.0,2.0;" x1="197.2549" x2="607.4443" y1="497.9424" y2="497.9424"/><text fill="#000000" font-family="Verdana" font-size="13" lengthAdjust="spacing" textLength="46.2236" x="209.2549" y="493.2129">tx data</text><line style="stroke:#000000;stroke-width:1.0;" x1="192.2549" x2="234.2549" y1="527.7417" y2="527.7417"/><line style="stroke:#000000;stroke-width:1.0;" x1="234.2549" x2="234.2549" y1="527.7417" y2="540.7417"/><line style="stroke:#000000;stroke-width:1.0;" x1="193.2549" x2="234.2549" y1="540.7417" y2="540.7417"/><polygon fill="#000000" points="203.2549,536.7417,193.2549,540.7417,203.2549,544.7417,199.2549,540.7417" style="stroke:#000000;stroke-width:1.0;"/><text fill="#000000" font-family="Verdana" font-size="13" lengthAdjust="spacing" textLength="74.585" x="199.2549" y="523.0122">add to slice</text><polygon fill="#000000" points="596.4443,580.541,606.4443,584.541,596.4443,588.541,600.4443,584.541" style="stroke:#000000;stroke-width:1.0;"/><line style="stroke:#000000;stroke-width:1.0;" x1="192.2549" x2="602.4443" y1="584.541" y2="584.541"/><text fill="#000000" font-family="Verdana" font-size="13" lengthAdjust="spacing" textLength="46.8584" x="199.2549" y="579.8115">Close()</text><line style="stroke:#000000;stroke-width:1.0;" x1="192.2549" x2="234.2549" y1="618.74" y2="618.74"/><line style="stroke:#000000;stroke-width:1.0;" x1="234.2549" x2="234.2549" y1="618.74" y2="631.74"/><line style="stroke:#000000;stroke-width:1.0;" x1="193.2549" x2="234.2549" y1="631.74" y2="631.74"/><polygon fill="#000000" points="203.2549,627.74,193.2549,631.74,203.2549,635.74,199.2549,631.74" style="stroke:#000000;stroke-width:1.0;"/><text fill="#000000" font-family="Verdana" font-size="13" lengthAdjust="spacing" textLength="115.4194" x="199.2549" y="614.0105">sort by CreatedAt</text><path d="M341.4194,597.541 L341.4194,638.541 L529.4194,638.541 L529.4194,607.541 L519.4194,597.541 L341.4194,597.541 " fill="#FFFFFF" style="stroke:#000000;stroke-width:1.0;"/><path d="M519.4194,597.541 L519.4194,607.541 L529.4194,607.541 L519.4194,597.541 " fill="#FFFFFF" style="stroke:#000000;stroke-width:1.0;"/><text fill="#000000" font-family="Verdana" font-size="13" lengthAdjust="spacing" textLength="132.4565" x="347.4194" y="615.6108">Topological ordering</text><text fill="#000000" font-family="Verdana" font-size="13" lengthAdjust="spacing" textLength="167.9653" x="347.4194" y="631.4102">to maintain dependencies</text><path d="M80,651.1396 L374.6978,651.1396 L374.6978,658.939 L364.6978,668.939 L80,668.939 L80,651.1396 " fill="#FFFFFF" style="stroke:#000000;stroke-width:1.0;"/><rect fill="none" height="192.5952" style="stroke:#000000;stroke-width:1.0;" width="935.2959" x="80" y="651.1396"/><text fill="#000000" font-family="Verdana" font-size="13" font-weight="bold" lengthAdjust="spacing" textLength="249.6978" x="95" y="665.2095">Re-add transactions to processing</text><path d="M90,675.939 L166.3828,675.939 L166.3828,683.7383 L156.3828,693.7383 L90,693.7383 L90,675.939 " fill="#FFFFFF" style="stroke:#000000;stroke-width:1.0;"/><rect fill="none" height="160.7959" style="stroke:#000000;stroke-width:1.0;" width="915.2959" x="90" y="675.939"/><text fill="#000000" font-family="Verdana" font-size="13" font-weight="bold" lengthAdjust="spacing" textLength="31.3828" x="105" y="690.0088">loop</text><text fill="#000000" font-family="Verdana" font-size="11" font-weight="bold" lengthAdjust="spacing" textLength="136.1357" x="181.3828" y="688.998">[for each unmined tx]</text><polygon fill="#000000" points="768.6694,722.4373,778.6694,726.4373,768.6694,730.4373,772.6694,726.4373" style="stroke:#000000;stroke-width:1.0;"/><line style="stroke:#000000;stroke-width:1.0;" x1="192.2549" x2="774.6694" y1="726.4373" y2="726.4373"/><text fill="#000000" font-family="Verdana" font-size="13" lengthAdjust="spacing" textLength="99.7407" x="199.2549" y="721.7078">AddDirectly(tx)</text><path d="M785,698.7383 L785,739.7383 L970,739.7383 L970,708.7383 L960,698.7383 L785,698.7383 " fill="#FFFFFF" style="stroke:#000000;stroke-width:1.0;"/><path d="M960,698.7383 L960,708.7383 L970,708.7383 L960,698.7383 " fill="#FFFFFF" style="stroke:#000000;stroke-width:1.0;"/><text fill="#000000" font-family="Verdana" font-size="13" lengthAdjust="spacing" textLength="164.2329" x="791" y="716.8081">Bypass normal validation</text><text fill="#000000" font-family="Verdana" font-size="13" lengthAdjust="spacing" textLength="150.0015" x="791" y="732.6074">since already validated</text><path d="M100,752.3369 L164.0493,752.3369 L164.0493,760.1362 L154.0493,770.1362 L100,770.1362 L100,752.3369 " fill="#FFFFFF" style="stroke:#000000;stroke-width:1.0;"/><rect fill="none" height="77.3979" style="stroke:#000000;stroke-width:1.0;" width="895.2959" x="100" y="752.3369"/><text fill="#000000" font-family="Verdana" font-size="13" font-weight="bold" lengthAdjust="spacing" textLength="19.0493" x="115" y="766.4067">alt</text><text fill="#000000" font-family="Verdana" font-size="11" font-weight="bold" lengthAdjust="spacing" textLength="108.8184" x="179.0493" y="765.396">[if tx was locked]</text><polygon fill="#000000" points="915.2153,787.9355,925.2153,791.9355,915.2153,795.9355,919.2153,791.9355" style="stroke:#000000;stroke-width:1.0;"/><line style="stroke:#000000;stroke-width:1.0;" x1="192.2549" x2="921.2153" y1="791.9355" y2="791.9355"/><text fill="#000000" font-family="Verdana" font-size="13" lengthAdjust="spacing" textLength="119.812" x="199.2549" y="787.2061">unlock transaction</text><polygon fill="#000000" points="203.2549,817.7349,193.2549,821.7349,203.2549,825.7349,199.2549,821.7349" style="stroke:#000000;stroke-width:1.0;"/><line style="stroke:#000000;stroke-width:1.0;stroke-dasharray:2.0,2.0;" x1="197.2549" x2="926.2153" y1="821.7349" y2="821.7349"/><text fill="#000000" font-family="Verdana" font-size="13" lengthAdjust="spacing" textLength="58.2207" x="209.2549" y="817.0054">unlocked</text><line style="stroke:#000000;stroke-width:1.0;stroke-dasharray:2.0,2.0;" x1="187.2549" x2="229.2549" y1="876.9338" y2="876.9338"/><line style="stroke:#000000;stroke-width:1.0;stroke-dasharray:2.0,2.0;" x1="229.2549" x2="229.2549" y1="876.9338" y2="889.9338"/><line style="stroke:#000000;stroke-width:1.0;stroke-dasharray:2.0,2.0;" x1="188.2549" x2="229.2549" y1="889.9338" y2="889.9338"/><polygon fill="#000000" points="198.2549,885.9338,188.2549,889.9338,198.2549,893.9338,194.2549,889.9338" style="stroke:#000000;stroke-width:1.0;"/><text fill="#000000" font-family="Verdana" font-size="13" lengthAdjust="spacing" textLength="110.8555" x="194.2549" y="872.2043">startup complete</text><path d="M10,855.7349 L10,896.7349 L173,896.7349 L173,865.7349 L163,855.7349 L10,855.7349 " fill="#FFFFFF" style="stroke:#000000;stroke-width:1.0;"/><path d="M163,855.7349 L163,865.7349 L173,865.7349 L163,855.7349 " fill="#FFFFFF" style="stroke:#000000;stroke-width:1.0;"/><text fill="#000000" font-family="Verdana" font-size="13" lengthAdjust="spacing" textLength="142.2319" x="16" y="873.8047">Unmined transactions</text><text fill="#000000" font-family="Verdana" font-size="13" lengthAdjust="spacing" textLength="127.2388" x="16" y="889.604">restored to pipeline</text><!--SRC=[RLJBhXen3DtFL_ZU5Ltm0qYj1FGXfAf57P2wO1Cc1go694tCgrzV9_CWSEz8end5ZdrypabU-81716yKsOg93SBCkEOFJ6F4uzRSO0pVdT9azx2sHxAeOHMKZQfXSZQ2ir2p2dpoLUNbImrvPHbUSvck2ePNK15cqyUKzUhtJzdj0kRmkduAj_rMrmLZK9BMPYqUi-hJbWFYChW6O-oIwkNRJdFL7Bf6ywfA-C-ACO6gPbCOVvA_IJlBw4DbdOG2xGyiQnZEr22G9IPbw9zAevUxBehugmjBj8ceF7byAlB5nbD0KCQ0RzDWc_CsLicwR-4BkpiAaSlYHkZlgIYOb_hlpB2k9_0D-GrrahskOToLf6wrtxIOG1CmLHeYrJwuay_QPz2dJdmk85GWZt7Em-L0ufmo1dWbcGEwvzxe1ruJmNrWlUXX_prXkDtxN3TsT3cWSDCjrMH5X9UFOCaK-zkfKkMt93rqwMRdAsZ5wWbPYYWjRHr48sBdiEXKfRUWQMvSH86lSI1V35ce9GvasDvWdldKKtvmmSfvPzoU6cN01Or1VB2nqlGevu_b1Ot97cWRmjYBy0l76Lj9h-pfF2CbxaBiN021TYXuV9gqNavWglLd2jYmkOtuUYUpX3gxUHMZB8MZW3sBxtNs_SR6B8GoCg6-zH7KGvNXHna6sYN6BtBgajkBhC8Lyud0pRSElwDTrcy-wDTc5eMIGWzg5Thq1wCNfxsfe757Rv2nrSRWZWVtFB2yiG5Zkf-oCJnvD99J_GS0]--></g></svg>
