<svg xmlns="http://www.w3.org/2000/svg" xmlns:xlink="http://www.w3.org/1999/xlink" contentStyleType="text/css" height="912px" preserveAspectRatio="none" style="width:685px;height:912px;background:#F0F8FF;" version="1.1" viewBox="0 0 685 912" width="685px" zoomAndPan="magnify"><defs/><g><rect fill="#F0F8FF" height="912" style="stroke:none;stroke-width:1.0;" width="685" x="0" y="0"/><rect fill="none" height="428.3711" style="stroke:#000000;stroke-width:1.5;" width="669.3169" x="9" y="295.6621"/><rect fill="none" height="116.8867" style="stroke:#000000;stroke-width:1.5;" width="456.7197" x="31" y="404.5938"/><rect fill="none" height="59.6211" style="stroke:#000000;stroke-width:1.5;" width="450.9878" x="31" y="620.1016"/><line style="stroke:#181818;stroke-width:0.5;stroke-dasharray:5.0,5.0;" x1="106" x2="106" y1="36.4883" y2="860.9648"/><line style="stroke:#181818;stroke-width:0.5;stroke-dasharray:5.0,5.0;" x1="359.9629" x2="359.9629" y1="36.4883" y2="860.9648"/><rect fill="#E2E2F0" height="30.4883" rx="2.5" ry="2.5" style="stroke:#181818;stroke-width:0.5;" width="131.2432" x="41" y="5"/><text fill="#333333" font-family="sans-serif" font-size="14" lengthAdjust="spacing" textLength="117.2432" x="48" y="25.5352">SubtreeProcessor</text><rect fill="#E2E2F0" height="30.4883" rx="2.5" ry="2.5" style="stroke:#181818;stroke-width:0.5;" width="131.2432" x="41" y="859.9648"/><text fill="#333333" font-family="sans-serif" font-size="14" lengthAdjust="spacing" textLength="117.2432" x="48" y="880.5">SubtreeProcessor</text><rect fill="#E2E2F0" height="30.4883" rx="2.5" ry="2.5" style="stroke:#181818;stroke-width:0.5;" width="102.6416" x="308.9629" y="5"/><text fill="#333333" font-family="sans-serif" font-size="14" lengthAdjust="spacing" textLength="88.6416" x="315.9629" y="25.5352">Block Header</text><rect fill="#E2E2F0" height="30.4883" rx="2.5" ry="2.5" style="stroke:#181818;stroke-width:0.5;" width="102.6416" x="308.9629" y="859.9648"/><text fill="#333333" font-family="sans-serif" font-size="14" lengthAdjust="spacing" textLength="88.6416" x="315.9629" y="880.5">Block Header</text><path d="M36,51.4883 L36,76.4883 L176,76.4883 L176,61.4883 L166,51.4883 L36,51.4883 " fill="#FEFFDD" style="stroke:#181818;stroke-width:0.5;"/><path d="M166,51.4883 L166,61.4883 L176,61.4883 L166,51.4883 " fill="#FEFFDD" style="stroke:#181818;stroke-width:0.5;"/><text fill="#333333" font-family="sans-serif" font-size="13" lengthAdjust="spacing" textLength="119.8818" x="42" y="69.0566">Block N processing</text><line style="stroke:#666666;stroke-width:1.0;" x1="106.6216" x2="148.6216" y1="103.1094" y2="103.1094"/><line style="stroke:#666666;stroke-width:1.0;" x1="148.6216" x2="148.6216" y1="103.1094" y2="116.1094"/><line style="stroke:#666666;stroke-width:1.0;" x1="107.6216" x2="148.6216" y1="116.1094" y2="116.1094"/><polygon fill="#666666" points="117.6216,112.1094,107.6216,116.1094,117.6216,120.1094,113.6216,116.1094" style="stroke:#666666;stroke-width:1.0;"/><text fill="#333333" font-family="sans-serif" font-size="13" lengthAdjust="spacing" textLength="239.6621" x="113.6216" y="98.3672">Create subtrees based on current size</text><path d="M364.6621,90.2988 L364.6621,115.2988 L568.6621,115.2988 L568.6621,100.2988 L558.6621,90.2988 L364.6621,90.2988 " fill="#FEFFDD" style="stroke:#181818;stroke-width:0.5;"/><path d="M558.6621,90.2988 L558.6621,100.2988 L568.6621,100.2988 L558.6621,90.2988 " fill="#FEFFDD" style="stroke:#181818;stroke-width:0.5;"/><text fill="#333333" font-family="sans-serif" font-size="13" lengthAdjust="spacing" textLength="183.8281" x="370.6621" y="107.8672">Current subtree size: X items</text><polygon fill="#666666" points="117.6216,141.4199,107.6216,145.4199,117.6216,149.4199,113.6216,145.4199" style="stroke:#666666;stroke-width:1.0;"/><line style="stroke:#666666;stroke-width:1.0;stroke-dasharray:2.0,2.0;" x1="111.6216" x2="359.2837" y1="145.4199" y2="145.4199"/><text fill="#333333" font-family="sans-serif" font-size="13" lengthAdjust="spacing" textLength="190.8232" x="123.6216" y="140.6777">New block header (Block N+1)</text><line style="stroke:#666666;stroke-width:1.0;" x1="106.6216" x2="148.6216" y1="174.7305" y2="174.7305"/><line style="stroke:#666666;stroke-width:1.0;" x1="148.6216" x2="148.6216" y1="174.7305" y2="187.7305"/><line style="stroke:#666666;stroke-width:1.0;" x1="107.6216" x2="148.6216" y1="187.7305" y2="187.7305"/><polygon fill="#666666" points="117.6216,183.7305,107.6216,187.7305,117.6216,191.7305,113.6216,187.7305" style="stroke:#666666;stroke-width:1.0;"/><text fill="#333333" font-family="sans-serif" font-size="13" lengthAdjust="spacing" textLength="153.6323" x="113.6216" y="169.9883">SetCurrentBlockHeader()</text><path d="M278.6323,161.9199 L278.6323,186.9199 L462.6323,186.9199 L462.6323,171.9199 L452.6323,161.9199 L278.6323,161.9199 " fill="#FEFFDD" style="stroke:#181818;stroke-width:0.5;"/><path d="M452.6323,161.9199 L452.6323,171.9199 L462.6323,171.9199 L452.6323,161.9199 " fill="#FEFFDD" style="stroke:#181818;stroke-width:0.5;"/><text fill="#333333" font-family="sans-serif" font-size="13" lengthAdjust="spacing" textLength="163.96" x="284.6323" y="179.4883">Start timing for new block</text><line style="stroke:#666666;stroke-width:1.0;" x1="106.6216" x2="148.6216" y1="221.1963" y2="221.1963"/><line style="stroke:#666666;stroke-width:1.0;" x1="148.6216" x2="148.6216" y1="221.1963" y2="234.1963"/><line style="stroke:#666666;stroke-width:1.0;" x1="107.6216" x2="148.6216" y1="234.1963" y2="234.1963"/><polygon fill="#666666" points="117.6216,230.1963,107.6216,234.1963,117.6216,238.1963,113.6216,234.1963" style="stroke:#666666;stroke-width:1.0;"/><text fill="#333333" font-family="sans-serif" font-size="13" lengthAdjust="spacing" textLength="216.5186" x="113.6216" y="216.4541">Record intervals between subtrees</text><path d="M341.5186,200.7305 L341.5186,240.7305 L508.5186,240.7305 L508.5186,210.7305 L498.5186,200.7305 L341.5186,200.7305 " fill="#FEFFDD" style="stroke:#181818;stroke-width:0.5;"/><path d="M498.5186,200.7305 L498.5186,210.7305 L508.5186,210.7305 L498.5186,200.7305 " fill="#FEFFDD" style="stroke:#181818;stroke-width:0.5;"/><text fill="#333333" font-family="sans-serif" font-size="13" lengthAdjust="spacing" textLength="146.7832" x="347.5186" y="218.2988">Calculate time between</text><text fill="#333333" font-family="sans-serif" font-size="13" lengthAdjust="spacing" textLength="135.9922" x="347.5186" y="233.6094">each subtree creation</text><line style="stroke:#666666;stroke-width:1.0;" x1="106.6216" x2="148.6216" y1="267.6621" y2="267.6621"/><line style="stroke:#666666;stroke-width:1.0;" x1="148.6216" x2="148.6216" y1="267.6621" y2="280.6621"/><line style="stroke:#666666;stroke-width:1.0;" x1="107.6216" x2="148.6216" y1="280.6621" y2="280.6621"/><polygon fill="#666666" points="117.6216,276.6621,107.6216,280.6621,117.6216,284.6621,113.6216,280.6621" style="stroke:#666666;stroke-width:1.0;"/><text fill="#333333" font-family="sans-serif" font-size="13" lengthAdjust="spacing" textLength="120.7007" x="113.6216" y="262.9199">adjustSubtreeSize()</text><path d="M9,295.6621 L71.1387,295.6621 L71.1387,302.9727 L61.1387,312.9727 L9,312.9727 L9,295.6621 " fill="#EEEEEE" style="stroke:#000000;stroke-width:1.5;"/><rect fill="none" height="428.3711" style="stroke:#000000;stroke-width:1.5;" width="669.3169" x="9" y="295.6621"/><text fill="#333333" font-family="sans-serif" font-size="13" font-weight="bold" lengthAdjust="spacing" textLength="17.1387" x="24" y="309.2305">alt</text><text fill="#333333" font-family="sans-serif" font-size="11" font-weight="bold" lengthAdjust="spacing" textLength="182.9233" x="86.1387" y="308.2969">[UseDynamicSubtreeSize = true]</text><line style="stroke:#666666;stroke-width:1.0;" x1="106.6216" x2="148.6216" y1="334.2832" y2="334.2832"/><line style="stroke:#666666;stroke-width:1.0;" x1="148.6216" x2="148.6216" y1="334.2832" y2="347.2832"/><line style="stroke:#666666;stroke-width:1.0;" x1="107.6216" x2="148.6216" y1="347.2832" y2="347.2832"/><polygon fill="#666666" points="117.6216,343.2832,107.6216,347.2832,117.6216,351.2832,113.6216,347.2832" style="stroke:#666666;stroke-width:1.0;"/><text fill="#333333" font-family="sans-serif" font-size="13" lengthAdjust="spacing" textLength="161.8398" x="113.6216" y="329.541">Calculate average interval</text><path d="M286.8398,321.4727 L286.8398,346.4727 L533.8398,346.4727 L533.8398,331.4727 L523.8398,321.4727 L286.8398,321.4727 " fill="#FEFFDD" style="stroke:#181818;stroke-width:0.5;"/><path d="M523.8398,321.4727 L523.8398,331.4727 L533.8398,331.4727 L523.8398,321.4727 " fill="#FEFFDD" style="stroke:#181818;stroke-width:0.5;"/><text fill="#333333" font-family="sans-serif" font-size="13" lengthAdjust="spacing" textLength="226.9922" x="292.8398" y="339.041">avgInterval = sum(intervals) / count</text><line style="stroke:#666666;stroke-width:1.0;" x1="106.6216" x2="148.6216" y1="376.5938" y2="376.5938"/><line style="stroke:#666666;stroke-width:1.0;" x1="148.6216" x2="148.6216" y1="376.5938" y2="389.5938"/><line style="stroke:#666666;stroke-width:1.0;" x1="107.6216" x2="148.6216" y1="389.5938" y2="389.5938"/><polygon fill="#666666" points="117.6216,385.5938,107.6216,389.5938,117.6216,393.5938,113.6216,389.5938" style="stroke:#666666;stroke-width:1.0;"/><text fill="#333333" font-family="sans-serif" font-size="13" lengthAdjust="spacing" textLength="177.125" x="113.6216" y="371.8516">Calculate target/actual ratio</text><path d="M302.125,363.7832 L302.125,388.7832 L576.125,388.7832 L576.125,373.7832 L566.125,363.7832 L302.125,363.7832 " fill="#FEFFDD" style="stroke:#181818;stroke-width:0.5;"/><path d="M566.125,363.7832 L566.125,373.7832 L576.125,373.7832 L566.125,363.7832 " fill="#FEFFDD" style="stroke:#181818;stroke-width:0.5;"/><text fill="#333333" font-family="sans-serif" font-size="13" lengthAdjust="spacing" textLength="253.3032" x="308.125" y="381.3516">ratio = targetInterval(1sec) / avgInterval</text><path d="M31,404.5938 L93.1387,404.5938 L93.1387,411.9043 L83.1387,421.9043 L31,421.9043 L31,404.5938 " fill="#EEEEEE" style="stroke:#000000;stroke-width:1.5;"/><rect fill="none" height="116.8867" style="stroke:#000000;stroke-width:1.5;" width="456.7197" x="31" y="404.5938"/><text fill="#333333" font-family="sans-serif" font-size="13" font-weight="bold" lengthAdjust="spacing" textLength="17.1387" x="46" y="418.1621">alt</text><text fill="#333333" font-family="sans-serif" font-size="11" font-weight="bold" lengthAdjust="spacing" textLength="231.3223" x="108.1387" y="417.2285">[Subtrees created too quickly (ratio &gt; 1)]</text><line style="stroke:#666666;stroke-width:1.0;" x1="106.6216" x2="148.6216" y1="443.2148" y2="443.2148"/><line style="stroke:#666666;stroke-width:1.0;" x1="148.6216" x2="148.6216" y1="443.2148" y2="456.2148"/><line style="stroke:#666666;stroke-width:1.0;" x1="107.6216" x2="148.6216" y1="456.2148" y2="456.2148"/><polygon fill="#666666" points="117.6216,452.2148,107.6216,456.2148,117.6216,460.2148,113.6216,456.2148" style="stroke:#666666;stroke-width:1.0;"/><text fill="#333333" font-family="sans-serif" font-size="13" lengthAdjust="spacing" textLength="132.9326" x="113.6216" y="438.4727">Increase subtree size</text><path d="M257.9326,430.4043 L257.9326,455.4043 L465.9326,455.4043 L465.9326,440.4043 L455.9326,430.4043 L257.9326,430.4043 " fill="#FEFFDD" style="stroke:#181818;stroke-width:0.5;"/><path d="M455.9326,430.4043 L455.9326,440.4043 L465.9326,440.4043 L455.9326,430.4043 " fill="#FEFFDD" style="stroke:#181818;stroke-width:0.5;"/><text fill="#333333" font-family="sans-serif" font-size="13" lengthAdjust="spacing" textLength="187.9985" x="263.9326" y="447.9727">newSize = currentSize &#215; ratio</text><line style="stroke:#000000;stroke-width:1.0;stroke-dasharray:2.0,2.0;" x1="31" x2="487.7197" y1="465.2148" y2="465.2148"/><text fill="#333333" font-family="sans-serif" font-size="11" font-weight="bold" lengthAdjust="spacing" textLength="226.73" x="36" y="475.8496">[Subtrees created too slowly (ratio &lt; 1)]</text><line style="stroke:#666666;stroke-width:1.0;" x1="106.6216" x2="148.6216" y1="500.4805" y2="500.4805"/><line style="stroke:#666666;stroke-width:1.0;" x1="148.6216" x2="148.6216" y1="500.4805" y2="513.4805"/><line style="stroke:#666666;stroke-width:1.0;" x1="107.6216" x2="148.6216" y1="513.4805" y2="513.4805"/><polygon fill="#666666" points="117.6216,509.4805,107.6216,513.4805,117.6216,517.4805,113.6216,513.4805" style="stroke:#666666;stroke-width:1.0;"/><text fill="#333333" font-family="sans-serif" font-size="13" lengthAdjust="spacing" textLength="138.0996" x="113.6216" y="495.7383">Decrease subtree size</text><path d="M263.0996,487.6699 L263.0996,512.6699 L471.0996,512.6699 L471.0996,497.6699 L461.0996,487.6699 L263.0996,487.6699 " fill="#FEFFDD" style="stroke:#181818;stroke-width:0.5;"/><path d="M461.0996,487.6699 L461.0996,497.6699 L471.0996,497.6699 L461.0996,487.6699 " fill="#FEFFDD" style="stroke:#181818;stroke-width:0.5;"/><text fill="#333333" font-family="sans-serif" font-size="13" lengthAdjust="spacing" textLength="187.9985" x="269.0996" y="505.2383">newSize = currentSize &#215; ratio</text><line style="stroke:#666666;stroke-width:1.0;" x1="106.6216" x2="148.6216" y1="549.791" y2="549.791"/><line style="stroke:#666666;stroke-width:1.0;" x1="148.6216" x2="148.6216" y1="549.791" y2="562.791"/><line style="stroke:#666666;stroke-width:1.0;" x1="107.6216" x2="148.6216" y1="562.791" y2="562.791"/><polygon fill="#666666" points="117.6216,558.791,107.6216,562.791,117.6216,566.791,113.6216,562.791" style="stroke:#666666;stroke-width:1.0;"/><text fill="#333333" font-family="sans-serif" font-size="13" lengthAdjust="spacing" textLength="161.8145" x="113.6216" y="545.0488">Round to next power of 2</text><path d="M286.8145,536.9805 L286.8145,561.9805 L509.8145,561.9805 L509.8145,546.9805 L499.8145,536.9805 L286.8145,536.9805 " fill="#FEFFDD" style="stroke:#181818;stroke-width:0.5;"/><path d="M499.8145,536.9805 L499.8145,546.9805 L509.8145,546.9805 L499.8145,536.9805 " fill="#FEFFDD" style="stroke:#181818;stroke-width:0.5;"/><text fill="#333333" font-family="sans-serif" font-size="13" lengthAdjust="spacing" textLength="202.96" x="292.8145" y="554.5488">newSize = 2^ceil(log2(newSize))</text><line style="stroke:#666666;stroke-width:1.0;" x1="106.6216" x2="148.6216" y1="592.1016" y2="592.1016"/><line style="stroke:#666666;stroke-width:1.0;" x1="148.6216" x2="148.6216" y1="592.1016" y2="605.1016"/><line style="stroke:#666666;stroke-width:1.0;" x1="107.6216" x2="148.6216" y1="605.1016" y2="605.1016"/><polygon fill="#666666" points="117.6216,601.1016,107.6216,605.1016,117.6216,609.1016,113.6216,605.1016" style="stroke:#666666;stroke-width:1.0;"/><text fill="#333333" font-family="sans-serif" font-size="13" lengthAdjust="spacing" textLength="110.0112" x="113.6216" y="587.3594">Apply constraints</text><path d="M235.0112,579.291 L235.0112,604.291 L436.0112,604.291 L436.0112,589.291 L426.0112,579.291 L235.0112,579.291 " fill="#FEFFDD" style="stroke:#181818;stroke-width:0.5;"/><path d="M426.0112,579.291 L426.0112,589.291 L436.0112,589.291 L426.0112,579.291 " fill="#FEFFDD" style="stroke:#181818;stroke-width:0.5;"/><text fill="#333333" font-family="sans-serif" font-size="13" lengthAdjust="spacing" textLength="180.9844" x="241.0112" y="596.8594">Cap increase to 2x per block</text><path d="M235.0112,579.291 L235.0112,604.291 L445.0112,604.291 L445.0112,589.291 L435.0112,579.291 L235.0112,579.291 " fill="#FEFFDD" style="stroke:#181818;stroke-width:0.5;"/><path d="M435.0112,579.291 L435.0112,589.291 L445.0112,589.291 L435.0112,579.291 " fill="#FEFFDD" style="stroke:#181818;stroke-width:0.5;"/><text fill="#333333" font-family="sans-serif" font-size="13" lengthAdjust="spacing" textLength="189.6997" x="241.0112" y="596.8594">Enforce min/max size bounds</text><path d="M31,620.1016 L93.1387,620.1016 L93.1387,627.4121 L83.1387,637.4121 L31,637.4121 L31,620.1016 " fill="#EEEEEE" style="stroke:#000000;stroke-width:1.5;"/><rect fill="none" height="59.6211" style="stroke:#000000;stroke-width:1.5;" width="450.9878" x="31" y="620.1016"/><text fill="#333333" font-family="sans-serif" font-size="13" font-weight="bold" lengthAdjust="spacing" textLength="17.1387" x="46" y="633.6699">alt</text><text fill="#333333" font-family="sans-serif" font-size="11" font-weight="bold" lengthAdjust="spacing" textLength="137.5806" x="108.1387" y="632.7363">[newSize != currentSize]</text><line style="stroke:#666666;stroke-width:1.0;" x1="106.6216" x2="148.6216" y1="658.7227" y2="658.7227"/><line style="stroke:#666666;stroke-width:1.0;" x1="148.6216" x2="148.6216" y1="658.7227" y2="671.7227"/><line style="stroke:#666666;stroke-width:1.0;" x1="107.6216" x2="148.6216" y1="671.7227" y2="671.7227"/><polygon fill="#666666" points="117.6216,667.7227,107.6216,671.7227,117.6216,675.7227,113.6216,671.7227" style="stroke:#666666;stroke-width:1.0;"/><text fill="#333333" font-family="sans-serif" font-size="13" lengthAdjust="spacing" textLength="129.397" x="113.6216" y="653.9805">Set new subtree size</text><path d="M254.397,645.9121 L254.397,670.9121 L465.397,670.9121 L465.397,655.9121 L455.397,645.9121 L254.397,645.9121 " fill="#FEFFDD" style="stroke:#181818;stroke-width:0.5;"/><path d="M455.397,645.9121 L455.397,655.9121 L465.397,655.9121 L455.397,645.9121 " fill="#FEFFDD" style="stroke:#181818;stroke-width:0.5;"/><text fill="#333333" font-family="sans-serif" font-size="13" lengthAdjust="spacing" textLength="190.9692" x="260.397" y="663.4805">currentItemsPerFile = newSize</text><line style="stroke:#000000;stroke-width:1.0;stroke-dasharray:2.0,2.0;" x1="9" x2="678.3169" y1="687.7227" y2="687.7227"/><path d="M19,693.7227 L19,718.7227 L193,718.7227 L193,703.7227 L183,693.7227 L19,693.7227 " fill="#FEFFDD" style="stroke:#181818;stroke-width:0.5;"/><path d="M183,693.7227 L183,703.7227 L193,703.7227 L183,693.7227 " fill="#FEFFDD" style="stroke:#181818;stroke-width:0.5;"/><text fill="#333333" font-family="sans-serif" font-size="13" lengthAdjust="spacing" textLength="153.4355" x="25" y="711.291">Dynamic sizing disabled</text><line style="stroke:#666666;stroke-width:1.0;" x1="106.6216" x2="148.6216" y1="752.3438" y2="752.3438"/><line style="stroke:#666666;stroke-width:1.0;" x1="148.6216" x2="148.6216" y1="752.3438" y2="765.3438"/><line style="stroke:#666666;stroke-width:1.0;" x1="107.6216" x2="148.6216" y1="765.3438" y2="765.3438"/><polygon fill="#666666" points="117.6216,761.3438,107.6216,765.3438,117.6216,769.3438,113.6216,765.3438" style="stroke:#666666;stroke-width:1.0;"/><text fill="#333333" font-family="sans-serif" font-size="13" lengthAdjust="spacing" textLength="184.6025" x="113.6216" y="747.6016">Reset intervals for next block</text><path d="M309.6025,739.5332 L309.6025,764.5332 L444.6025,764.5332 L444.6025,749.5332 L434.6025,739.5332 L309.6025,739.5332 " fill="#FEFFDD" style="stroke:#181818;stroke-width:0.5;"/><path d="M434.6025,739.5332 L434.6025,749.5332 L444.6025,749.5332 L434.6025,739.5332 " fill="#FEFFDD" style="stroke:#181818;stroke-width:0.5;"/><text fill="#333333" font-family="sans-serif" font-size="13" lengthAdjust="spacing" textLength="114.7275" x="315.6025" y="757.1016">blockIntervals = []</text><path d="M26,778.3438 L26,803.3438 L185,803.3438 L185,788.3438 L175,778.3438 L26,778.3438 " fill="#FEFFDD" style="stroke:#181818;stroke-width:0.5;"/><path d="M175,778.3438 L175,788.3438 L185,788.3438 L175,778.3438 " fill="#FEFFDD" style="stroke:#181818;stroke-width:0.5;"/><text fill="#333333" font-family="sans-serif" font-size="13" lengthAdjust="spacing" textLength="138.436" x="32" y="795.9121">Block N+1 processing</text><line style="stroke:#666666;stroke-width:1.0;" x1="106.6216" x2="148.6216" y1="829.9648" y2="829.9648"/><line style="stroke:#666666;stroke-width:1.0;" x1="148.6216" x2="148.6216" y1="829.9648" y2="842.9648"/><line style="stroke:#666666;stroke-width:1.0;" x1="107.6216" x2="148.6216" y1="842.9648" y2="842.9648"/><polygon fill="#666666" points="117.6216,838.9648,107.6216,842.9648,117.6216,846.9648,113.6216,842.9648" style="stroke:#666666;stroke-width:1.0;"/><text fill="#333333" font-family="sans-serif" font-size="13" lengthAdjust="spacing" textLength="219.4512" x="113.6216" y="825.2227">Create subtrees based on new size</text><path d="M344.4512,817.1543 L344.4512,842.1543 L548.4512,842.1543 L548.4512,827.1543 L538.4512,817.1543 L344.4512,817.1543 " fill="#FEFFDD" style="stroke:#181818;stroke-width:0.5;"/><path d="M538.4512,817.1543 L538.4512,827.1543 L548.4512,827.1543 L538.4512,817.1543 " fill="#FEFFDD" style="stroke:#181818;stroke-width:0.5;"/><text fill="#333333" font-family="sans-serif" font-size="13" lengthAdjust="spacing" textLength="183.79" x="350.4512" y="834.7227">Current subtree size: Y items</text><text fill="#333333" font-family="sans-serif" font-size="10" lengthAdjust="spacing" textLength="155.4932" x="0" y="902.1211">Last Modified On: 2-May-2025</text><!--SRC=[hLJjRjCm5FsVfxWK8QMQgh4Y8LHjazX6jKfqJ2j883uarxdDJ5qxsCxQyI8y42_6jUEaoTR1Vk1_YO_FFUTS-zgbK0KpR0LpnfUvqQNAJhNK1fwEduzVZSU9RH0PBbWftLWh5o4lmcf1c35w7JTVXfKajEC45mLJ3dgpSkuCugNH7AtLfWVCmkpzPHTr8ZLVmZco32l4oNcYj4FGDsWyV0GLv0AAYaceF4be0mR7rVwfGKO7R5NFaZsB6MW5l3G6gOWLFx4YDIA_TdIYtgYE1C08Fe9mkB8L-U5WG596S85hc0S1rq4Zf57Eta6_esA6Bj86GEKexNVgpXnP1oTMv04Mb9ogsRkEhf1hau5G3iqDasG9tHfHDHwxRfZafVGH43FMs2yA6RzkB78Vaj2gMuXbtqlhOgTcb089JfXqyC7YsQrYAy5Rct04pfIO0ArE0ne1Z9h6ScoK1sXRAxl99t6Fs6ovIXkJVTW7JfVIXKD_AK8XvkZs6NSbiHXlwrwTyDVh3TYwP7fWaViwBHdRQjxthBv48I-wHavh-54AlfIta5Qinq2jXxZQ4YVAdxBOkLSDiYsF-Xu3ZNSqVFt-rNA3aeXsoh5IhxTg3XzISuR_KutAThVboeyHaaKa6mU5NjCJqGiO9WyN6NxZA6GgTJvCuzz-VpVxww8WfrmhwmoZcsBlqPwoWcvRT4eoXXieI4BrgEw2toXwT1o1tj_-Ycr28Z3t3cpt6jHYdtGYsHaplVlmZF-PSYIQ-1bpYMOif0yZLcf2zctVwjuEmVWQFRqV7fcmR2unksSno3QuehGiBCI689xspdYn97exNQf9HEshKclJXJ-J1da4dxyc3ypdlOFsX7xKW0wvFMuuVwg7iyI58yLqmC1RPXrCTIOMWWZVgH4yowXIsikomNGw7TpIwlMJFm00]--></g></svg>
