<svg xmlns="http://www.w3.org/2000/svg" xmlns:xlink="http://www.w3.org/1999/xlink" contentStyleType="text/css" height="678px" preserveAspectRatio="none" style="width:756px;height:678px;background:#F0F8FF;" version="1.1" viewBox="0 0 756 678" width="756px" zoomAndPan="magnify"><defs/><g><rect fill="#F0F8FF" height="678" style="stroke:none;stroke-width:1.0;" width="756" x="0" y="0"/><rect fill="#FFFFFF" height="541.6133" style="stroke:#181818;stroke-width:1.0;" width="10" x="96.3867" y="75.7988"/><rect fill="#FFFFFF" height="83.6211" style="stroke:#181818;stroke-width:1.0;" width="10" x="101.3867" y="511.791"/><rect fill="none" height="296.75" style="stroke:#000000;stroke-width:1.5;" width="740.2461" x="10" y="95.7988"/><rect fill="none" height="206.8184" style="stroke:#000000;stroke-width:1.5;" width="594.3623" x="20" y="178.7305"/><rect fill="none" height="116.8867" style="stroke:#000000;stroke-width:1.5;" width="307.9976" x="30" y="261.6621"/><rect fill="none" height="203.8633" style="stroke:#000000;stroke-width:1.5;" width="720.2461" x="30" y="406.5488"/><line style="stroke:#181818;stroke-width:0.5;stroke-dasharray:5.0,5.0;" x1="101" x2="101" y1="36.4883" y2="627.4121"/><line style="stroke:#181818;stroke-width:0.5;stroke-dasharray:5.0,5.0;" x1="540.6494" x2="540.6494" y1="36.4883" y2="627.4121"/><line style="stroke:#181818;stroke-width:0.5;stroke-dasharray:5.0,5.0;" x1="676.3623" x2="676.3623" y1="36.4883" y2="627.4121"/><rect fill="#DDDDDD" height="30.4883" rx="2.5" ry="2.5" style="stroke:#666666;stroke-width:0.5;" width="122.7734" x="40" y="5"/><text fill="#333333" font-family="sans-serif" font-size="14" lengthAdjust="spacing" textLength="108.7734" x="47" y="25.5352">Coinbase Server</text><rect fill="#DDDDDD" height="30.4883" rx="2.5" ry="2.5" style="stroke:#666666;stroke-width:0.5;" width="122.7734" x="40" y="626.4121"/><text fill="#333333" font-family="sans-serif" font-size="14" lengthAdjust="spacing" textLength="108.7734" x="47" y="646.9473">Coinbase Server</text><rect fill="#DDDDDD" height="30.4883" rx="2.5" ry="2.5" style="stroke:#666666;stroke-width:0.5;" width="125.7129" x="478.6494" y="5"/><text fill="#333333" font-family="sans-serif" font-size="14" lengthAdjust="spacing" textLength="111.7129" x="485.6494" y="25.5352">Blockchain Store</text><rect fill="#DDDDDD" height="30.4883" rx="2.5" ry="2.5" style="stroke:#666666;stroke-width:0.5;" width="125.7129" x="478.6494" y="626.4121"/><text fill="#333333" font-family="sans-serif" font-size="14" lengthAdjust="spacing" textLength="111.7129" x="485.6494" y="646.9473">Blockchain Store</text><rect fill="#DDDDDD" height="30.4883" rx="2.5" ry="2.5" style="stroke:#666666;stroke-width:0.5;" width="125.8838" x="614.3623" y="5"/><text fill="#333333" font-family="sans-serif" font-size="14" lengthAdjust="spacing" textLength="111.8838" x="621.3623" y="25.5352">BlockchainClient</text><rect fill="#DDDDDD" height="30.4883" rx="2.5" ry="2.5" style="stroke:#666666;stroke-width:0.5;" width="125.8838" x="614.3623" y="626.4121"/><text fill="#333333" font-family="sans-serif" font-size="14" lengthAdjust="spacing" textLength="111.8838" x="621.3623" y="646.9473">BlockchainClient</text><rect fill="#FFFFFF" height="541.6133" style="stroke:#181818;stroke-width:1.0;" width="10" x="96.3867" y="75.7988"/><rect fill="#FFFFFF" height="83.6211" style="stroke:#181818;stroke-width:1.0;" width="10" x="101.3867" y="511.791"/><line style="stroke:#666666;stroke-width:1.0;" x1="101.3867" x2="148.3867" y1="62.7988" y2="62.7988"/><line style="stroke:#666666;stroke-width:1.0;" x1="148.3867" x2="148.3867" y1="62.7988" y2="75.7988"/><line style="stroke:#666666;stroke-width:1.0;" x1="107.3867" x2="148.3867" y1="75.7988" y2="75.7988"/><polygon fill="#666666" points="117.3867,71.7988,107.3867,75.7988,117.3867,79.7988,113.3867,75.7988" style="stroke:#666666;stroke-width:1.0;"/><text fill="#333333" font-family="sans-serif" font-size="13" lengthAdjust="spacing" textLength="211.1675" x="113.3867" y="58.0566">catchup(ctx, fromBlock, baseURL)</text><path d="M10,95.7988 L84.4468,95.7988 L84.4468,103.1094 L74.4468,113.1094 L10,113.1094 L10,95.7988 " fill="#EEEEEE" style="stroke:#000000;stroke-width:1.5;"/><rect fill="none" height="296.75" style="stroke:#000000;stroke-width:1.5;" width="740.2461" x="10" y="95.7988"/><text fill="#333333" font-family="sans-serif" font-size="13" font-weight="bold" lengthAdjust="spacing" textLength="29.4468" x="25" y="109.3672">loop</text><text fill="#333333" font-family="sans-serif" font-size="11" font-weight="bold" lengthAdjust="spacing" textLength="169.3076" x="99.4468" y="108.4336">[while parent block unknown]</text><polygon fill="#666666" points="665.3042,130.4199,675.3042,134.4199,665.3042,138.4199,669.3042,134.4199" style="stroke:#666666;stroke-width:1.0;"/><line style="stroke:#666666;stroke-width:1.0;" x1="106.3867" x2="671.3042" y1="134.4199" y2="134.4199"/><text fill="#333333" font-family="sans-serif" font-size="13" lengthAdjust="spacing" textLength="323.4512" x="113.3867" y="129.6777">GetBlockHeaders(ctx, fromBlockHeaderHash, 1000)</text><polygon fill="#666666" points="117.3867,159.7305,107.3867,163.7305,117.3867,167.7305,113.3867,163.7305" style="stroke:#666666;stroke-width:1.0;"/><line style="stroke:#666666;stroke-width:1.0;stroke-dasharray:2.0,2.0;" x1="111.3867" x2="676.3042" y1="163.7305" y2="163.7305"/><text fill="#333333" font-family="sans-serif" font-size="13" lengthAdjust="spacing" textLength="85.5283" x="123.3867" y="158.9883">blockHeaders</text><path d="M20,178.7305 L94.4468,178.7305 L94.4468,186.041 L84.4468,196.041 L20,196.041 L20,178.7305 " fill="#EEEEEE" style="stroke:#000000;stroke-width:1.5;"/><rect fill="none" height="206.8184" style="stroke:#000000;stroke-width:1.5;" width="594.3623" x="20" y="178.7305"/><text fill="#333333" font-family="sans-serif" font-size="13" font-weight="bold" lengthAdjust="spacing" textLength="29.4468" x="35" y="192.2988">loop</text><text fill="#333333" font-family="sans-serif" font-size="11" font-weight="bold" lengthAdjust="spacing" textLength="113.9316" x="109.4468" y="191.3652">[over blockHeaders]</text><polygon fill="#666666" points="529.5059,213.3516,539.5059,217.3516,529.5059,221.3516,533.5059,217.3516" style="stroke:#666666;stroke-width:1.0;"/><line style="stroke:#666666;stroke-width:1.0;" x1="106.3867" x2="535.5059" y1="217.3516" y2="217.3516"/><text fill="#333333" font-family="sans-serif" font-size="13" lengthAdjust="spacing" textLength="250.9419" x="113.3867" y="212.6094">GetBlockExists(ctx, blockHeader.Hash())</text><polygon fill="#666666" points="117.3867,242.6621,107.3867,246.6621,117.3867,250.6621,113.3867,246.6621" style="stroke:#666666;stroke-width:1.0;"/><line style="stroke:#666666;stroke-width:1.0;stroke-dasharray:2.0,2.0;" x1="111.3867" x2="540.5059" y1="246.6621" y2="246.6621"/><text fill="#333333" font-family="sans-serif" font-size="13" lengthAdjust="spacing" textLength="37.0894" x="123.3867" y="241.9199">exists</text><path d="M30,261.6621 L92.1387,261.6621 L92.1387,268.9727 L82.1387,278.9727 L30,278.9727 L30,261.6621 " fill="#EEEEEE" style="stroke:#000000;stroke-width:1.5;"/><rect fill="none" height="116.8867" style="stroke:#000000;stroke-width:1.5;" width="307.9976" x="30" y="261.6621"/><text fill="#333333" font-family="sans-serif" font-size="13" font-weight="bold" lengthAdjust="spacing" textLength="17.1387" x="45" y="275.2305">alt</text><text fill="#333333" font-family="sans-serif" font-size="11" font-weight="bold" lengthAdjust="spacing" textLength="63.9053" x="107.1387" y="274.2969">[not exists]</text><line style="stroke:#666666;stroke-width:1.0;" x1="106.3867" x2="148.3867" y1="300.2832" y2="300.2832"/><line style="stroke:#666666;stroke-width:1.0;" x1="148.3867" x2="148.3867" y1="300.2832" y2="313.2832"/><line style="stroke:#666666;stroke-width:1.0;" x1="107.3867" x2="148.3867" y1="313.2832" y2="313.2832"/><polygon fill="#666666" points="117.3867,309.2832,107.3867,313.2832,117.3867,317.2832,113.3867,313.2832" style="stroke:#666666;stroke-width:1.0;"/><text fill="#333333" font-family="sans-serif" font-size="13" lengthAdjust="spacing" textLength="202.6108" x="113.3867" y="295.541">append to catchupBlockHeaders</text><line style="stroke:#000000;stroke-width:1.0;stroke-dasharray:2.0,2.0;" x1="30" x2="337.9976" y1="322.2832" y2="322.2832"/><text fill="#333333" font-family="sans-serif" font-size="11" font-weight="bold" lengthAdjust="spacing" textLength="41.5723" x="35" y="332.918">[exists]</text><line style="stroke:#666666;stroke-width:1.0;" x1="106.3867" x2="148.3867" y1="357.5488" y2="357.5488"/><line style="stroke:#666666;stroke-width:1.0;" x1="148.3867" x2="148.3867" y1="357.5488" y2="370.5488"/><line style="stroke:#666666;stroke-width:1.0;" x1="107.3867" x2="148.3867" y1="370.5488" y2="370.5488"/><polygon fill="#666666" points="117.3867,366.5488,107.3867,370.5488,117.3867,374.5488,113.3867,370.5488" style="stroke:#666666;stroke-width:1.0;"/><text fill="#333333" font-family="sans-serif" font-size="13" lengthAdjust="spacing" textLength="67.5454" x="113.3867" y="352.8066">break loop</text><path d="M30,406.5488 L104.4468,406.5488 L104.4468,413.8594 L94.4468,423.8594 L30,423.8594 L30,406.5488 " fill="#EEEEEE" style="stroke:#000000;stroke-width:1.5;"/><rect fill="none" height="203.8633" style="stroke:#000000;stroke-width:1.5;" width="720.2461" x="30" y="406.5488"/><text fill="#333333" font-family="sans-serif" font-size="13" font-weight="bold" lengthAdjust="spacing" textLength="29.4468" x="45" y="420.1172">loop</text><text fill="#333333" font-family="sans-serif" font-size="11" font-weight="bold" lengthAdjust="spacing" textLength="203.6504" x="119.4468" y="419.1836">[reverse over catchupBlockHeaders]</text><polygon fill="#666666" points="665.3042,441.1699,675.3042,445.1699,665.3042,449.1699,669.3042,445.1699" style="stroke:#666666;stroke-width:1.0;"/><line style="stroke:#666666;stroke-width:1.0;" x1="106.3867" x2="671.3042" y1="445.1699" y2="445.1699"/><text fill="#333333" font-family="sans-serif" font-size="13" lengthAdjust="spacing" textLength="214.0493" x="113.3867" y="440.4277">GetBlock(ctx, blockHeader.Hash())</text><polygon fill="#666666" points="117.3867,470.4805,107.3867,474.4805,117.3867,478.4805,113.3867,474.4805" style="stroke:#666666;stroke-width:1.0;"/><line style="stroke:#666666;stroke-width:1.0;stroke-dasharray:2.0,2.0;" x1="111.3867" x2="676.3042" y1="474.4805" y2="474.4805"/><text fill="#333333" font-family="sans-serif" font-size="13" lengthAdjust="spacing" textLength="34.1821" x="123.3867" y="469.7383">block</text><line style="stroke:#666666;stroke-width:1.0;" x1="106.3867" x2="153.3867" y1="498.791" y2="498.791"/><line style="stroke:#666666;stroke-width:1.0;" x1="153.3867" x2="153.3867" y1="498.791" y2="511.791"/><line style="stroke:#666666;stroke-width:1.0;" x1="112.3867" x2="153.3867" y1="511.791" y2="511.791"/><polygon fill="#666666" points="122.3867,507.791,112.3867,511.791,122.3867,515.791,118.3867,511.791" style="stroke:#666666;stroke-width:1.0;"/><text fill="#333333" font-family="sans-serif" font-size="13" lengthAdjust="spacing" textLength="135.8716" x="118.3867" y="494.0488">storeBlock(ctx, block)</text><polygon fill="#666666" points="529.5059,542.1016,539.5059,546.1016,529.5059,550.1016,533.5059,546.1016" style="stroke:#666666;stroke-width:1.0;"/><line style="stroke:#666666;stroke-width:1.0;" x1="111.3867" x2="535.5059" y1="546.1016" y2="546.1016"/><text fill="#333333" font-family="sans-serif" font-size="13" lengthAdjust="spacing" textLength="154.1846" x="118.3867" y="541.3594">StoreBlock(ctx, block, "")</text><polygon fill="#666666" points="122.3867,556.1016,112.3867,560.1016,122.3867,564.1016,118.3867,560.1016" style="stroke:#666666;stroke-width:1.0;"/><line style="stroke:#666666;stroke-width:1.0;stroke-dasharray:2.0,2.0;" x1="116.3867" x2="540.5059" y1="560.1016" y2="560.1016"/><line style="stroke:#666666;stroke-width:1.0;" x1="111.3867" x2="153.3867" y1="594.4121" y2="594.4121"/><line style="stroke:#666666;stroke-width:1.0;" x1="153.3867" x2="153.3867" y1="594.4121" y2="607.4121"/><line style="stroke:#666666;stroke-width:1.0;" x1="106.3867" x2="153.3867" y1="607.4121" y2="607.4121"/><polygon fill="#666666" points="116.3867,603.4121,106.3867,607.4121,116.3867,611.4121,112.3867,607.4121" style="stroke:#666666;stroke-width:1.0;"/><text fill="#333333" font-family="sans-serif" font-size="13" lengthAdjust="spacing" textLength="396.1191" x="118.3867" y="589.6699">processCoinbase(ctx, blockId, block.Hash(), block.CoinbaseTx)</text><text fill="#333333" font-family="sans-serif" font-size="10" lengthAdjust="spacing" textLength="155.4346" x="0" y="668.5684">Last Modified On: 24-Feb-2025</text><!--SRC=[fLJDYjim4BxhAOQKqWIIab8e9OSUxAsxXGs5Uli0iZLkX1MDaIQRBANlNbbs4jlTtKChI6nhlf_HDqvyhMqZdTn38SlwfwE3LIaPSl0gMsSViqpu2q9X9G-6CxBSGzx7DO18v-ZO5p_49SGRkC5AMuI2d4BdeGfLQGoWmJrQzWD-UDJy2By4G1BHOwsmE-to9YxnMmnKoj2X8_E_Ck6RTQaRQVdVf8GOIinIqhQG7Y57zu1k1j93IcDCOgYiovtK5d8cXn6KytEWrEWGMGGbgH0fmUfJqDn0ARdS7PfvoQSbL8xsaRE4rl_7zxk5a2Nh1ydOTY0CKGF7dJRO7ZeeGj72uM1hIqSRJWdGQIVf1huWHxLRbEqy9nxTxgtqkoMyMw_NYyXEKbZrhHK3heZ5Q4yXad4D-jKvvtnr_dpIddlZ0ULjwpfVB2xCd2-k62cNYZGCbdYwVRLhER9fq2fWEiUPFDKUcZ3I5tKAXxAEfxoIh1BdQ_lfHk0mX13KOXRFUVuzY9U3c4OlnitvzZMRodJCuJio7aJ-56a9irb7lEG-yMeSbUZz-OSmu7vL_KtV-ldf3Bq_TSeAXqt5vCPRmc35uI-6E4Hu9pt3bfIkD2huPZVmMWNSVARKQhlThXx32Yt_0G00]--></g></svg>
