<svg xmlns="http://www.w3.org/2000/svg" xmlns:xlink="http://www.w3.org/1999/xlink" contentStyleType="text/css" height="867px" preserveAspectRatio="none" style="width:962px;height:867px;background:#F0F8FF;" version="1.1" viewBox="0 0 962 867" width="962px" zoomAndPan="magnify"><defs/><g><rect fill="#F0F8FF" height="867" style="stroke:none;stroke-width:1.0;" width="962" x="0" y="0"/><rect fill="#FFFFFF" height="668.8555" style="stroke:#181818;stroke-width:1.0;" width="10" x="402.4971" y="98.7988"/><rect fill="#FFFFFF" height="87.9316" style="stroke:#181818;stroke-width:1.0;" width="10" x="673.8887" y="219.041"/><rect fill="#FFFFFF" height="87.9316" style="stroke:#181818;stroke-width:1.0;" width="10" x="673.8887" y="505.5254"/><rect fill="none" height="625.5449" style="stroke:#000000;stroke-width:1.5;" width="628.2944" x="328.3809" y="113.7988"/><rect fill="none" height="551.9238" style="stroke:#000000;stroke-width:1.5;" width="608.2944" x="338.3809" y="180.4199"/><rect fill="none" height="116.8867" style="stroke:#000000;stroke-width:1.5;" width="312.7451" x="348.3809" y="608.457"/><line style="stroke:#181818;stroke-width:0.5;stroke-dasharray:5.0,5.0;" x1="24" x2="24" y1="67.4883" y2="785.6543"/><line style="stroke:#181818;stroke-width:0.5;stroke-dasharray:5.0,5.0;" x1="407.3809" x2="407.3809" y1="67.4883" y2="785.6543"/><line style="stroke:#181818;stroke-width:0.5;stroke-dasharray:5.0,5.0;" x1="678.1255" x2="678.1255" y1="67.4883" y2="785.6543"/><line style="stroke:#181818;stroke-width:0.5;stroke-dasharray:5.0,5.0;" x1="899.9888" x2="899.9888" y1="67.4883" y2="785.6543"/><rect fill="#DDDDDD" height="30.4883" rx="2.5" ry="2.5" style="stroke:#666666;stroke-width:0.5;" width="38.3291" x="5" y="36"/><text fill="#333333" font-family="sans-serif" font-size="14" lengthAdjust="spacing" textLength="24.3291" x="12" y="56.5352">P2P</text><rect fill="#DDDDDD" height="30.4883" rx="2.5" ry="2.5" style="stroke:#666666;stroke-width:0.5;" width="38.3291" x="5" y="784.6543"/><text fill="#333333" font-family="sans-serif" font-size="14" lengthAdjust="spacing" textLength="24.3291" x="12" y="805.1895">P2P</text><rect fill="#DDDDDD" height="30.4883" rx="2.5" ry="2.5" style="stroke:#666666;stroke-width:0.5;" width="98.2324" x="358.3809" y="36"/><text fill="#333333" font-family="sans-serif" font-size="14" lengthAdjust="spacing" textLength="84.2324" x="365.3809" y="56.5352">Alert Service</text><rect fill="#DDDDDD" height="30.4883" rx="2.5" ry="2.5" style="stroke:#666666;stroke-width:0.5;" width="98.2324" x="358.3809" y="784.6543"/><text fill="#333333" font-family="sans-serif" font-size="14" lengthAdjust="spacing" textLength="84.2324" x="365.3809" y="805.1895">Alert Service</text><rect fill="#DDDDDD" height="30.4883" rx="2.5" ry="2.5" style="stroke:#666666;stroke-width:0.5;" width="91.5264" x="633.1255" y="36"/><text fill="#333333" font-family="sans-serif" font-size="14" lengthAdjust="spacing" textLength="77.5264" x="640.1255" y="56.5352">UTXO Store</text><rect fill="#DDDDDD" height="30.4883" rx="2.5" ry="2.5" style="stroke:#666666;stroke-width:0.5;" width="91.5264" x="633.1255" y="784.6543"/><text fill="#333333" font-family="sans-serif" font-size="14" lengthAdjust="spacing" textLength="77.5264" x="640.1255" y="805.1895">UTXO Store</text><text fill="#333333" font-family="sans-serif" font-size="14" lengthAdjust="spacing" textLength="65.6865" x="864.9888" y="64.5352">Datastore</text><path d="M882.832,15 C882.832,5 900.832,5 900.832,5 C900.832,5 918.832,5 918.832,15 L918.832,41 C918.832,51 900.832,51 900.832,51 C900.832,51 882.832,51 882.832,41 L882.832,15 " fill="#E2E2F0" style="stroke:#181818;stroke-width:1.5;"/><path d="M882.832,15 C882.832,25 900.832,25 900.832,25 C900.832,25 918.832,25 918.832,15 " fill="none" style="stroke:#181818;stroke-width:1.5;"/><text fill="#333333" font-family="sans-serif" font-size="14" lengthAdjust="spacing" textLength="65.6865" x="864.9888" y="798.1895">Datastore</text><path d="M882.832,811.1426 C882.832,801.1426 900.832,801.1426 900.832,801.1426 C900.832,801.1426 918.832,801.1426 918.832,811.1426 L918.832,837.1426 C918.832,847.1426 900.832,847.1426 900.832,847.1426 C900.832,847.1426 882.832,847.1426 882.832,837.1426 L882.832,811.1426 " fill="#E2E2F0" style="stroke:#181818;stroke-width:1.5;"/><path d="M882.832,811.1426 C882.832,821.1426 900.832,821.1426 900.832,821.1426 C900.832,821.1426 918.832,821.1426 918.832,811.1426 " fill="none" style="stroke:#181818;stroke-width:1.5;"/><rect fill="#FFFFFF" height="668.8555" style="stroke:#181818;stroke-width:1.0;" width="10" x="402.4971" y="98.7988"/><rect fill="#FFFFFF" height="87.9316" style="stroke:#181818;stroke-width:1.0;" width="10" x="673.8887" y="219.041"/><rect fill="#FFFFFF" height="87.9316" style="stroke:#181818;stroke-width:1.0;" width="10" x="673.8887" y="505.5254"/><polygon fill="#666666" points="390.4971,94.7988,400.4971,98.7988,390.4971,102.7988,394.4971,98.7988" style="stroke:#666666;stroke-width:1.0;"/><line style="stroke:#666666;stroke-width:1.0;" x1="24.1646" x2="396.4971" y1="98.7988" y2="98.7988"/><text fill="#333333" font-family="sans-serif" font-size="13" lengthAdjust="spacing" textLength="276.1611" x="31.1646" y="94.0566">AddToConfiscationTransactionWhitelist(txs)</text><path d="M328.3809,113.7988 L402.8276,113.7988 L402.8276,121.1094 L392.8276,131.1094 L328.3809,131.1094 L328.3809,113.7988 " fill="#EEEEEE" style="stroke:#000000;stroke-width:1.5;"/><rect fill="none" height="625.5449" style="stroke:#000000;stroke-width:1.5;" width="628.2944" x="328.3809" y="113.7988"/><text fill="#333333" font-family="sans-serif" font-size="13" font-weight="bold" lengthAdjust="spacing" textLength="29.4468" x="343.3809" y="127.3672">loop</text><text fill="#333333" font-family="sans-serif" font-size="11" font-weight="bold" lengthAdjust="spacing" textLength="157.1851" x="417.8276" y="126.4336">[for each transaction in txs]</text><line style="stroke:#666666;stroke-width:1.0;" x1="412.4971" x2="454.4971" y1="152.4199" y2="152.4199"/><line style="stroke:#666666;stroke-width:1.0;" x1="454.4971" x2="454.4971" y1="152.4199" y2="165.4199"/><line style="stroke:#666666;stroke-width:1.0;" x1="413.4971" x2="454.4971" y1="165.4199" y2="165.4199"/><polygon fill="#666666" points="423.4971,161.4199,413.4971,165.4199,423.4971,169.4199,419.4971,165.4199" style="stroke:#666666;stroke-width:1.0;"/><text fill="#333333" font-family="sans-serif" font-size="13" lengthAdjust="spacing" textLength="169.9648" x="419.4971" y="147.6777">Parse transaction from hex</text><path d="M338.3809,180.4199 L412.8276,180.4199 L412.8276,187.7305 L402.8276,197.7305 L338.3809,197.7305 L338.3809,180.4199 " fill="#EEEEEE" style="stroke:#000000;stroke-width:1.5;"/><rect fill="none" height="551.9238" style="stroke:#000000;stroke-width:1.5;" width="608.2944" x="338.3809" y="180.4199"/><text fill="#333333" font-family="sans-serif" font-size="13" font-weight="bold" lengthAdjust="spacing" textLength="29.4468" x="353.3809" y="193.9883">loop</text><text fill="#333333" font-family="sans-serif" font-size="11" font-weight="bold" lengthAdjust="spacing" textLength="169.7803" x="427.8276" y="193.0547">[for each input in transaction]</text><polygon fill="#666666" points="661.8887,215.041,671.8887,219.041,661.8887,223.041,665.8887,219.041" style="stroke:#666666;stroke-width:1.0;"/><line style="stroke:#666666;stroke-width:1.0;" x1="412.4971" x2="667.8887" y1="219.041" y2="219.041"/><text fill="#333333" font-family="sans-serif" font-size="13" lengthAdjust="spacing" textLength="146.1484" x="419.4971" y="214.2988">Get(ctx, parentTxHash)</text><polygon fill="#666666" points="888.832,244.3516,898.832,248.3516,888.832,252.3516,892.832,248.3516" style="stroke:#666666;stroke-width:1.0;"/><line style="stroke:#666666;stroke-width:1.0;" x1="683.8887" x2="894.832" y1="248.3516" y2="248.3516"/><text fill="#333333" font-family="sans-serif" font-size="13" lengthAdjust="spacing" textLength="184.9644" x="690.8887" y="243.6094">Fetch parent transaction data</text><polygon fill="#666666" points="694.8887,273.6621,684.8887,277.6621,694.8887,281.6621,690.8887,277.6621" style="stroke:#666666;stroke-width:1.0;"/><line style="stroke:#666666;stroke-width:1.0;stroke-dasharray:2.0,2.0;" x1="688.8887" x2="899.832" y1="277.6621" y2="277.6621"/><text fill="#333333" font-family="sans-serif" font-size="13" lengthAdjust="spacing" textLength="192.9434" x="700.8887" y="272.9199">Return parent transaction data</text><polygon fill="#666666" points="423.4971,302.9727,413.4971,306.9727,423.4971,310.9727,419.4971,306.9727" style="stroke:#666666;stroke-width:1.0;"/><line style="stroke:#666666;stroke-width:1.0;stroke-dasharray:2.0,2.0;" x1="417.4971" x2="677.8887" y1="306.9727" y2="306.9727"/><text fill="#333333" font-family="sans-serif" font-size="13" lengthAdjust="spacing" textLength="224.3643" x="429.4971" y="302.2305">Return parent transaction metadata</text><line style="stroke:#666666;stroke-width:1.0;" x1="412.4971" x2="454.4971" y1="336.2832" y2="336.2832"/><line style="stroke:#666666;stroke-width:1.0;" x1="454.4971" x2="454.4971" y1="336.2832" y2="349.2832"/><line style="stroke:#666666;stroke-width:1.0;" x1="413.4971" x2="454.4971" y1="349.2832" y2="349.2832"/><polygon fill="#666666" points="423.4971,345.2832,413.4971,349.2832,423.4971,353.2832,419.4971,349.2832" style="stroke:#666666;stroke-width:1.0;"/><text fill="#333333" font-family="sans-serif" font-size="13" lengthAdjust="spacing" textLength="155.3716" x="419.4971" y="331.541">Calculate old UTXO hash</text><line style="stroke:#666666;stroke-width:1.0;" x1="412.4971" x2="454.4971" y1="378.5938" y2="378.5938"/><line style="stroke:#666666;stroke-width:1.0;" x1="454.4971" x2="454.4971" y1="378.5938" y2="391.5938"/><line style="stroke:#666666;stroke-width:1.0;" x1="413.4971" x2="454.4971" y1="391.5938" y2="391.5938"/><polygon fill="#666666" points="423.4971,387.5938,413.4971,391.5938,423.4971,395.5938,419.4971,391.5938" style="stroke:#666666;stroke-width:1.0;"/><text fill="#333333" font-family="sans-serif" font-size="13" lengthAdjust="spacing" textLength="183.752" x="419.4971" y="373.8516">Extract public key from input</text><line style="stroke:#666666;stroke-width:1.0;" x1="412.4971" x2="454.4971" y1="420.9043" y2="420.9043"/><line style="stroke:#666666;stroke-width:1.0;" x1="454.4971" x2="454.4971" y1="420.9043" y2="433.9043"/><line style="stroke:#666666;stroke-width:1.0;" x1="413.4971" x2="454.4971" y1="433.9043" y2="433.9043"/><polygon fill="#666666" points="423.4971,429.9043,413.4971,433.9043,423.4971,437.9043,419.4971,433.9043" style="stroke:#666666;stroke-width:1.0;"/><text fill="#333333" font-family="sans-serif" font-size="13" lengthAdjust="spacing" textLength="159.8467" x="419.4971" y="416.1621">Create new locking script</text><line style="stroke:#666666;stroke-width:1.0;" x1="412.4971" x2="454.4971" y1="463.2148" y2="463.2148"/><line style="stroke:#666666;stroke-width:1.0;" x1="454.4971" x2="454.4971" y1="463.2148" y2="476.2148"/><line style="stroke:#666666;stroke-width:1.0;" x1="413.4971" x2="454.4971" y1="476.2148" y2="476.2148"/><polygon fill="#666666" points="423.4971,472.2148,413.4971,476.2148,423.4971,480.2148,419.4971,476.2148" style="stroke:#666666;stroke-width:1.0;"/><text fill="#333333" font-family="sans-serif" font-size="13" lengthAdjust="spacing" textLength="160.7734" x="419.4971" y="458.4727">Calculate new UTXO hash</text><polygon fill="#666666" points="661.8887,501.5254,671.8887,505.5254,661.8887,509.5254,665.8887,505.5254" style="stroke:#666666;stroke-width:1.0;"/><line style="stroke:#666666;stroke-width:1.0;" x1="412.4971" x2="667.8887" y1="505.5254" y2="505.5254"/><text fill="#333333" font-family="sans-serif" font-size="13" lengthAdjust="spacing" textLength="242.3916" x="419.4971" y="500.7832">ReAssignUTXO(ctx, oldUtxo, newUtxo)</text><polygon fill="#666666" points="888.832,530.8359,898.832,534.8359,888.832,538.8359,892.832,534.8359" style="stroke:#666666;stroke-width:1.0;"/><line style="stroke:#666666;stroke-width:1.0;" x1="683.8887" x2="894.832" y1="534.8359" y2="534.8359"/><text fill="#333333" font-family="sans-serif" font-size="13" lengthAdjust="spacing" textLength="161.021" x="690.8887" y="530.0938">Update UTXO assignment</text><polygon fill="#666666" points="694.8887,560.1465,684.8887,564.1465,694.8887,568.1465,690.8887,564.1465" style="stroke:#666666;stroke-width:1.0;"/><line style="stroke:#666666;stroke-width:1.0;stroke-dasharray:2.0,2.0;" x1="688.8887" x2="899.832" y1="564.1465" y2="564.1465"/><text fill="#333333" font-family="sans-serif" font-size="13" lengthAdjust="spacing" textLength="98.8711" x="700.8887" y="559.4043">Confirm update</text><polygon fill="#666666" points="423.4971,589.457,413.4971,593.457,423.4971,597.457,419.4971,593.457" style="stroke:#666666;stroke-width:1.0;"/><line style="stroke:#666666;stroke-width:1.0;stroke-dasharray:2.0,2.0;" x1="417.4971" x2="677.8887" y1="593.457" y2="593.457"/><text fill="#333333" font-family="sans-serif" font-size="13" lengthAdjust="spacing" textLength="140.3911" x="429.4971" y="588.7148">Confirm reassignment</text><path d="M348.3809,608.457 L410.5195,608.457 L410.5195,615.7676 L400.5195,625.7676 L348.3809,625.7676 L348.3809,608.457 " fill="#EEEEEE" style="stroke:#000000;stroke-width:1.5;"/><rect fill="none" height="116.8867" style="stroke:#000000;stroke-width:1.5;" width="312.7451" x="348.3809" y="608.457"/><text fill="#333333" font-family="sans-serif" font-size="13" font-weight="bold" lengthAdjust="spacing" textLength="17.1387" x="363.3809" y="622.0254">alt</text><text fill="#333333" font-family="sans-serif" font-size="11" font-weight="bold" lengthAdjust="spacing" textLength="148.3818" x="425.5195" y="621.0918">[reassignment successful]</text><line style="stroke:#666666;stroke-width:1.0;" x1="412.4971" x2="454.4971" y1="647.0781" y2="647.0781"/><line style="stroke:#666666;stroke-width:1.0;" x1="454.4971" x2="454.4971" y1="647.0781" y2="660.0781"/><line style="stroke:#666666;stroke-width:1.0;" x1="413.4971" x2="454.4971" y1="660.0781" y2="660.0781"/><polygon fill="#666666" points="423.4971,656.0781,413.4971,660.0781,423.4971,664.0781,419.4971,660.0781" style="stroke:#666666;stroke-width:1.0;"/><text fill="#333333" font-family="sans-serif" font-size="13" lengthAdjust="spacing" textLength="133.5928" x="419.4971" y="642.3359">Add to processed list</text><line style="stroke:#000000;stroke-width:1.0;stroke-dasharray:2.0,2.0;" x1="348.3809" x2="661.126" y1="669.0781" y2="669.0781"/><text fill="#333333" font-family="sans-serif" font-size="11" font-weight="bold" lengthAdjust="spacing" textLength="120.8979" x="353.3809" y="679.7129">[reassignment failed]</text><line style="stroke:#666666;stroke-width:1.0;" x1="412.4971" x2="454.4971" y1="704.3438" y2="704.3438"/><line style="stroke:#666666;stroke-width:1.0;" x1="454.4971" x2="454.4971" y1="704.3438" y2="717.3438"/><line style="stroke:#666666;stroke-width:1.0;" x1="413.4971" x2="454.4971" y1="717.3438" y2="717.3438"/><polygon fill="#666666" points="423.4971,713.3438,413.4971,717.3438,423.4971,721.3438,419.4971,717.3438" style="stroke:#666666;stroke-width:1.0;"/><text fill="#333333" font-family="sans-serif" font-size="13" lengthAdjust="spacing" textLength="219.6289" x="419.4971" y="699.6016">Add to notProcessed list with error</text><polygon fill="#666666" points="35.1646,763.6543,25.1646,767.6543,35.1646,771.6543,31.1646,767.6543" style="stroke:#666666;stroke-width:1.0;"/><line style="stroke:#666666;stroke-width:1.0;stroke-dasharray:2.0,2.0;" x1="29.1646" x2="406.4971" y1="767.6543" y2="767.6543"/><text fill="#333333" font-family="sans-serif" font-size="13" lengthAdjust="spacing" textLength="354.3325" x="41.1646" y="762.9121">Return AddToConfiscationTransactionWhitelistResponse</text><text fill="#333333" font-family="sans-serif" font-size="10" lengthAdjust="spacing" textLength="155.4346" x="0" y="857.8105">Last Modified On: 24-Feb-2025</text><!--SRC=[fLLHRnen37xFhx2Ofb6fIDCcJHCFaqePsyDGKKkrlOR4Lo92SafyBMZQVvyJoa7Mqj8k4bmkyVTzZktuuiAuMWQvX9bKYvlW6wVFlVK1tepUZpwFHYAs5XehsLWQUKVt9X_ps3EH8VYx-yrFUGZn3ePO6OSmyq5ZY53nhhGMqE8I7SKzFByQMiDl0J38rYKNh_xhvJ0FyKViiIZsC7ZxlpJyJqQPMZfw7PKG-nIToOT91sG4VfORPnO3mHM6MwCmc-IL-uNIzdhwwmAko8UDONhDRq9BaZCP4Jf3diNMOZWGWXMXzwLWxSEPrbD_xbrbef9al9i6wQ9KQVfpRWYjYTIbLJmHQV5M4fP-2UjzdRE9Kis1Td0m3XZ8qO42yj29YGpiyZwq2du9Sro9Z2ubE3CDPV8T89iz9jI6fW_VaBgALgSffLnYqzLt6USdBR8ztYwQswrs9J4E1tqO8R4Z6vx2xnJ_5ZOSGAzquHAf2UvPu9xUWrWTfbWYoO96uoDdEXYfKkPSMjNO1FLMPpZCELn7eh-ks355K3SpQnGiSBt9Q4xTiHu4JF8ExpZ_Yk_Z3KGLJ4qlFa6Ys9tWc5AvnBCOpOrBIvkQuIXSqygV9h8qULtTNDTwQyctCYcatlT4mUIR6PRGPE1H1RA5SFWUAZnT4j9I0OFOA8KnLerjRPuFFBSK80zry0cB6b8BQV5e-QeN8fKq5lNB1PodIQ41TuRcWFpr2Jivjs5Ep_GJ9JLpSrjiRzLHtV0IO-rTv6QBXreYLdmixma3_E0k36ElJMNOpGlNXxSfbTsErhtnUDnRy-YSYBy0]--></g></svg>
