<svg contentStyleType="text/css" height="742" preserveAspectRatio="none" viewBox="0 0 881 742" width="881" xmlns="http://www.w3.org/2000/svg" zoomAndPan="magnify"><path d="m0 0h881v742h-881z" fill="#f0f8ff"/><path d="m248.8667 98.7988h10v543.9238h-10z" fill="#fff" stroke="#181818"/><path d="m614.1953 152.4199h10v87.9316h-10z" fill="#fff" stroke="#181818"/><path d="m614.1953 336.2832h10v87.9316h-10z" fill="#fff" stroke="#181818"/><path d="m174.7505 113.7988h700.4863v500.6133h-700.4863z" fill="none" stroke="#000" stroke-width="1.5"/><path d="m184.7505 297.6621h680.4863v309.75h-680.4863z" fill="none" stroke="#000" stroke-width="1.5"/><path d="m194.7505 439.2148h312.7451v116.8867h-312.7451z" fill="none" stroke="#000" stroke-width="1.5"/><path d="m24 67.4883v593.2344" stroke="#181818" stroke-dasharray="5 5" stroke-width=".5"/><path d="m253.7505 67.4883v593.2344" stroke="#181818" stroke-dasharray="5 5" stroke-width=".5"/><path d="m618.4321 67.4883v593.2344" stroke="#181818" stroke-dasharray="5 5" stroke-width=".5"/><path d="m797.9282 67.4883v593.2344" stroke="#181818" stroke-dasharray="5 5" stroke-width=".5"/><rect fill="#ddd" height="30.4883" rx="2.5" stroke="#666" stroke-width=".5" width="38.3291" x="5" y="36"/><text fill="#333" font-family="sans-serif" font-size="14" lengthAdjust="spacing" textLength="24.3291" x="12" y="56.5352">P2P</text><rect fill="#ddd" height="30.4883" rx="2.5" stroke="#666" stroke-width=".5" width="38.3291" x="5" y="659.7227"/><text fill="#333" font-family="sans-serif" font-size="14" lengthAdjust="spacing" textLength="24.3291" x="12" y="680.2578">P2P</text><rect fill="#ddd" height="30.4883" rx="2.5" stroke="#666" stroke-width=".5" width="98.2324" x="204.7505" y="36"/><text fill="#333" font-family="sans-serif" font-size="14" lengthAdjust="spacing" textLength="84.2324" x="211.7505" y="56.5352">Alert Service</text><rect fill="#ddd" height="30.4883" rx="2.5" stroke="#666" stroke-width=".5" width="98.2324" x="204.7505" y="659.7227"/><text fill="#333" font-family="sans-serif" font-size="14" lengthAdjust="spacing" textLength="84.2324" x="211.7505" y="680.2578">Alert Service</text><rect fill="#ddd" height="30.4883" rx="2.5" stroke="#666" stroke-width=".5" width="91.5264" x="573.4321" y="36"/><text fill="#333" font-family="sans-serif" font-size="14" lengthAdjust="spacing" textLength="77.5264" x="580.4321" y="56.5352">UTXO Store</text><rect fill="#ddd" height="30.4883" rx="2.5" stroke="#666" stroke-width=".5" width="91.5264" x="573.4321" y="659.7227"/><text fill="#333" font-family="sans-serif" font-size="14" lengthAdjust="spacing" textLength="77.5264" x="580.4321" y="680.2578">UTXO Store</text><text fill="#333" font-family="sans-serif" font-size="14" lengthAdjust="spacing" textLength="108.3086" x="740.9282" y="64.5352">UTXO Datastore</text><path d="m780.0825 15c0-10 18-10 18-10s18 0 18 10v26c0 10-18 10-18 10s-18 0-18-10z" fill="#e2e2f0" stroke="#181818" stroke-width="1.5"/><path d="m780.0825 15c0 10 18 10 18 10s18 0 18-10" fill="none" stroke="#181818" stroke-width="1.5"/><text fill="#333" font-family="sans-serif" font-size="14" lengthAdjust="spacing" textLength="108.3086" x="740.9282" y="673.2578">UTXO Datastore</text><g stroke="#181818"><path d="m780.0825 686.2109c0-10 18-10 18-10s18 0 18 10v26c0 10-18 10-18 10s-18 0-18-10z" fill="#e2e2f0" stroke-width="1.5"/><path d="m780.0825 686.2109c0 10 18 10 18 10s18 0 18-10" fill="none" stroke-width="1.5"/><path d="m248.8667 98.7988h10v543.9238h-10z" fill="#fff"/><path d="m614.1953 152.4199h10v87.9316h-10z" fill="#fff"/><path d="m614.1953 336.2832h10v87.9316h-10z" fill="#fff"/></g><path d="m236.8667 94.7988 10 4-10 4 4-4z" fill="#666" stroke="#666"/><path d="m24.1646 98.7988h218.7021" stroke="#666"/><text fill="#333" font-family="sans-serif" font-size="13" lengthAdjust="spacing" textLength="205.7021" x="31.1646" y="94.0566">AddToConsensusBlacklist(funds)</text><path d="m174.7505 113.7988h74.4468v7.3106l-10 10h-64.4468z" fill="#eee" stroke="#000" stroke-width="1.5"/><path d="m174.7505 113.7988h700.4863v500.6133h-700.4863z" fill="none" stroke="#000" stroke-width="1.5"/><text fill="#333" font-family="sans-serif" font-size="13" font-weight="bold" lengthAdjust="spacing" textLength="29.4468" x="189.7505" y="127.3672">loop</text><text fill="#333" font-family="sans-serif" font-size="11" font-weight="bold" lengthAdjust="spacing" textLength="134.8467" x="264.1973" y="126.4336">[for each fund in funds]</text><path d="m602.1953 148.4199 10 4-10 4 4-4z" fill="#666" stroke="#666"/><path d="m258.8667 152.4199h349.3286" stroke="#666"/><text fill="#333" font-family="sans-serif" font-size="13" lengthAdjust="spacing" textLength="101.937" x="265.8667" y="147.6777">Get(ctx, txHash)</text><path d="m786.0825 177.7305 10 4-10 4 4-4z" fill="#666" stroke="#666"/><path d="m624.1953 181.7305h167.8872" stroke="#666"/><text fill="#333" font-family="sans-serif" font-size="13" lengthAdjust="spacing" textLength="139.9976" x="631.1953" y="176.9883">Fetch transaction data</text><path d="m635.1953 207.041-10 4 10 4-4-4z" fill="#666" stroke="#666"/><path d="m629.1953 211.041h167.8872" stroke="#666" stroke-dasharray="2 2"/><text fill="#333" font-family="sans-serif" font-size="13" lengthAdjust="spacing" textLength="147.9766" x="641.1953" y="206.2988">Return transaction data</text><path d="m269.8667 236.3516-10 4 10 4-4-4z" fill="#666" stroke="#666"/><path d="m263.8667 240.3516h354.3286" stroke="#666" stroke-dasharray="2 2"/><text fill="#333" font-family="sans-serif" font-size="13" lengthAdjust="spacing" textLength="179.3975" x="275.8667" y="235.6094">Return transaction metadata</text><path d="m258.8667 269.6621h42" stroke="#666"/><path d="m300.8667 269.6621v13" stroke="#666"/><path d="m259.8667 282.6621h41" stroke="#666"/><path d="m269.8667 278.6621-10 4 10 4-4-4z" fill="#666" stroke="#666"/><text fill="#333" font-family="sans-serif" font-size="13" lengthAdjust="spacing" textLength="131.333" x="265.8667" y="264.9199">Calculate UTXO hash</text><path d="m184.7505 297.6621h62.1387v7.3106l-10 10h-52.1387z" fill="#eee" stroke="#000" stroke-width="1.5"/><path d="m184.7505 297.6621h680.4863v309.75h-680.4863z" fill="none" stroke="#000" stroke-width="1.5"/><text fill="#333" font-family="sans-serif" font-size="13" font-weight="bold" lengthAdjust="spacing" textLength="17.1387" x="199.7505" y="311.2305">alt</text><text fill="#333" font-family="sans-serif" font-size="11" font-weight="bold" lengthAdjust="spacing" textLength="260.0952" x="261.8892" y="310.2969">[EnforceAtHeight.Stop &lt; current block height]</text><path d="m602.1953 332.2832 10 4-10 4 4-4z" fill="#666" stroke="#666"/><path d="m258.8667 336.2832h349.3286" stroke="#666"/><text fill="#333" font-family="sans-serif" font-size="13" lengthAdjust="spacing" textLength="183.5679" x="265.8667" y="331.541">UnFreezeUTXOs(ctx, [spend])</text><path d="m786.0825 361.5938 10 4-10 4 4-4z" fill="#666" stroke="#666"/><path d="m624.1953 365.5938h167.8872" stroke="#666"/><text fill="#333" font-family="sans-serif" font-size="13" lengthAdjust="spacing" textLength="149.8872" x="631.1953" y="360.8516">Mark UTXO as unfrozen</text><path d="m635.1953 390.9043-10 4 10 4-4-4z" fill="#666" stroke="#666"/><path d="m629.1953 394.9043h167.8872" stroke="#666" stroke-dasharray="2 2"/><text fill="#333" font-family="sans-serif" font-size="13" lengthAdjust="spacing" textLength="98.8711" x="641.1953" y="390.1621">Confirm update</text><path d="m269.8667 420.2148-10 4 10 4-4-4z" fill="#666" stroke="#666"/><path d="m263.8667 424.2148h354.3286" stroke="#666" stroke-dasharray="2 2"/><text fill="#333" font-family="sans-serif" font-size="13" lengthAdjust="spacing" textLength="110.5698" x="275.8667" y="419.4727">Confirm unfreeze</text><path d="m194.7505 439.2148h62.1387v7.3106l-10 10h-52.1387z" fill="#eee" stroke="#000" stroke-width="1.5"/><path d="m194.7505 439.2148h312.7451v116.8867h-312.7451z" fill="none" stroke="#000" stroke-width="1.5"/><text fill="#333" font-family="sans-serif" font-size="13" font-weight="bold" lengthAdjust="spacing" textLength="17.1387" x="209.7505" y="452.7832">alt</text><text fill="#333" font-family="sans-serif" font-size="11" font-weight="bold" lengthAdjust="spacing" textLength="121.0215" x="271.8892" y="451.8496">[unfreeze successful]</text><path d="m258.8667 477.8359h42" stroke="#666"/><path d="m300.8667 477.8359v13" stroke="#666"/><path d="m259.8667 490.8359h41" stroke="#666"/><path d="m269.8667 486.8359-10 4 10 4-4-4z" fill="#666" stroke="#666"/><text fill="#333" font-family="sans-serif" font-size="13" lengthAdjust="spacing" textLength="133.5928" x="265.8667" y="473.0938">Add to processed list</text><path d="m194.7505 499.8359h312.7451" stroke="#000" stroke-dasharray="2 2"/><text fill="#333" font-family="sans-serif" font-size="11" font-weight="bold" lengthAdjust="spacing" textLength="93.5376" x="199.7505" y="510.4707">[unfreeze failed]</text><path d="m258.8667 535.1016h42" stroke="#666"/><path d="m300.8667 535.1016v13" stroke="#666"/><path d="m259.8667 548.1016h41" stroke="#666"/><path d="m269.8667 544.1016-10 4 10 4-4-4z" fill="#666" stroke="#666"/><text fill="#333" font-family="sans-serif" font-size="13" lengthAdjust="spacing" textLength="219.6289" x="265.8667" y="530.3594">Add to notProcessed list with error</text><path d="m184.7505 564.1016h680.4863" stroke="#000" stroke-dasharray="2 2"/><path d="m258.8667 586.4121h42" stroke="#666"/><path d="m300.8667 586.4121v13" stroke="#666"/><path d="m259.8667 599.4121h41" stroke="#666"/><path d="m269.8667 595.4121-10 4 10 4-4-4z" fill="#666" stroke="#666"/><text fill="#333" font-family="sans-serif" font-size="13" lengthAdjust="spacing" textLength="331.3286" x="265.8667" y="581.6699">Add to notProcessed list (not eligible for unfreezing)</text><path d="m35.1646 638.7227-10 4 10 4-4-4z" fill="#666" stroke="#666"/><path d="m29.1646 642.7227h223.7021" stroke="#666" stroke-dasharray="2 2"/><text fill="#333" font-family="sans-serif" font-size="13" lengthAdjust="spacing" textLength="157.7646" x="41.1646" y="637.9805">Return BlacklistResponse</text><text fill="#333" font-family="sans-serif" font-size="10" lengthAdjust="spacing" textLength="155.4346" y="732.8789">Last Modified On: 24-Feb-2025</text></svg>
