<svg xmlns="http://www.w3.org/2000/svg" xmlns:xlink="http://www.w3.org/1999/xlink" contentStyleType="text/css" height="822px" preserveAspectRatio="none" style="width:865px;height:822px;background:#F0F8FF;" version="1.1" viewBox="0 0 865 822" width="865px" zoomAndPan="magnify"><defs/><g><rect fill="#F0F8FF" height="822" style="stroke:none;stroke-width:1.0;" width="865" x="0" y="0"/><rect fill="#FFFFFF" height="621.2109" style="stroke:#181818;stroke-width:1.0;" width="10" x="250.4258" y="114.1094"/><rect fill="#FFFFFF" height="364.7266" style="stroke:#181818;stroke-width:1.0;" width="10" x="255.4258" y="185.7305"/><rect fill="#FFFFFF" height="146.5527" style="stroke:#181818;stroke-width:1.0;" width="10" x="255.4258" y="579.7676"/><line style="stroke:#181818;stroke-width:0.5;stroke-dasharray:5.0,5.0;" x1="28" x2="28" y1="67.4883" y2="744.3203"/><line style="stroke:#181818;stroke-width:0.5;stroke-dasharray:5.0,5.0;" x1="255.3096" x2="255.3096" y1="67.4883" y2="744.3203"/><line style="stroke:#181818;stroke-width:0.5;stroke-dasharray:5.0,5.0;" x1="502.4229" x2="502.4229" y1="67.4883" y2="744.3203"/><line style="stroke:#181818;stroke-width:0.5;stroke-dasharray:5.0,5.0;" x1="581.3213" x2="581.3213" y1="67.4883" y2="744.3203"/><line style="stroke:#181818;stroke-width:0.5;stroke-dasharray:5.0,5.0;" x1="730.3413" x2="730.3413" y1="67.4883" y2="744.3203"/><line style="stroke:#181818;stroke-width:0.5;stroke-dasharray:5.0,5.0;" x1="817.0063" x2="817.0063" y1="67.4883" y2="744.3203"/><rect fill="#DDDDDD" height="30.4883" rx="2.5" ry="2.5" style="stroke:#666666;stroke-width:0.5;" width="46.5254" x="5" y="36"/><text fill="#333333" font-family="sans-serif" font-size="14" lengthAdjust="spacing" textLength="32.5254" x="12" y="56.5352">Main</text><rect fill="#DDDDDD" height="30.4883" rx="2.5" ry="2.5" style="stroke:#666666;stroke-width:0.5;" width="46.5254" x="5" y="743.3203"/><text fill="#333333" font-family="sans-serif" font-size="14" lengthAdjust="spacing" textLength="32.5254" x="12" y="763.8555">Main</text><rect fill="#DDDDDD" height="30.4883" rx="2.5" ry="2.5" style="stroke:#666666;stroke-width:0.5;" width="98.2324" x="206.3096" y="36"/><text fill="#333333" font-family="sans-serif" font-size="14" lengthAdjust="spacing" textLength="84.2324" x="213.3096" y="56.5352">Alert Service</text><rect fill="#DDDDDD" height="30.4883" rx="2.5" ry="2.5" style="stroke:#666666;stroke-width:0.5;" width="98.2324" x="206.3096" y="743.3203"/><text fill="#333333" font-family="sans-serif" font-size="14" lengthAdjust="spacing" textLength="84.2324" x="213.3096" y="763.8555">Alert Service</text><rect fill="#DDDDDD" height="30.4883" rx="2.5" ry="2.5" style="stroke:#666666;stroke-width:0.5;" width="58.8984" x="473.4229" y="36"/><text fill="#333333" font-family="sans-serif" font-size="14" lengthAdjust="spacing" textLength="44.8984" x="480.4229" y="56.5352">Config</text><rect fill="#DDDDDD" height="30.4883" rx="2.5" ry="2.5" style="stroke:#666666;stroke-width:0.5;" width="58.8984" x="473.4229" y="743.3203"/><text fill="#333333" font-family="sans-serif" font-size="14" lengthAdjust="spacing" textLength="44.8984" x="480.4229" y="763.8555">Config</text><rect fill="#DDDDDD" height="30.4883" rx="2.5" ry="2.5" style="stroke:#666666;stroke-width:0.5;" width="79.6865" x="542.3213" y="36"/><text fill="#333333" font-family="sans-serif" font-size="14" lengthAdjust="spacing" textLength="65.6865" x="549.3213" y="56.5352">Datastore</text><rect fill="#DDDDDD" height="30.4883" rx="2.5" ry="2.5" style="stroke:#666666;stroke-width:0.5;" width="79.6865" x="542.3213" y="743.3203"/><text fill="#333333" font-family="sans-serif" font-size="14" lengthAdjust="spacing" textLength="65.6865" x="549.3213" y="763.8555">Datastore</text><text fill="#333333" font-family="sans-serif" font-size="14" lengthAdjust="spacing" textLength="62.665" x="696.3413" y="64.5352">Database</text><path d="M712.6738,15 C712.6738,5 730.6738,5 730.6738,5 C730.6738,5 748.6738,5 748.6738,15 L748.6738,41 C748.6738,51 730.6738,51 730.6738,51 C730.6738,51 712.6738,51 712.6738,41 L712.6738,15 " fill="#E2E2F0" style="stroke:#181818;stroke-width:1.5;"/><path d="M712.6738,15 C712.6738,25 730.6738,25 730.6738,25 C730.6738,25 748.6738,25 748.6738,15 " fill="none" style="stroke:#181818;stroke-width:1.5;"/><text fill="#333333" font-family="sans-serif" font-size="14" lengthAdjust="spacing" textLength="62.665" x="696.3413" y="756.8555">Database</text><path d="M712.6738,769.8086 C712.6738,759.8086 730.6738,759.8086 730.6738,759.8086 C730.6738,759.8086 748.6738,759.8086 748.6738,769.8086 L748.6738,795.8086 C748.6738,805.8086 730.6738,805.8086 730.6738,805.8086 C730.6738,805.8086 712.6738,805.8086 712.6738,795.8086 L712.6738,769.8086 " fill="#E2E2F0" style="stroke:#181818;stroke-width:1.5;"/><path d="M712.6738,769.8086 C712.6738,779.8086 730.6738,779.8086 730.6738,779.8086 C730.6738,779.8086 748.6738,779.8086 748.6738,769.8086 " fill="none" style="stroke:#181818;stroke-width:1.5;"/><rect fill="#DDDDDD" height="30.4883" rx="2.5" ry="2.5" style="stroke:#666666;stroke-width:0.5;" width="84.6016" x="775.0063" y="36"/><text fill="#333333" font-family="sans-serif" font-size="14" lengthAdjust="spacing" textLength="70.6016" x="782.0063" y="56.5352">P2P Server</text><rect fill="#DDDDDD" height="30.4883" rx="2.5" ry="2.5" style="stroke:#666666;stroke-width:0.5;" width="84.6016" x="775.0063" y="743.3203"/><text fill="#333333" font-family="sans-serif" font-size="14" lengthAdjust="spacing" textLength="70.6016" x="782.0063" y="763.8555">P2P Server</text><rect fill="#FFFFFF" height="621.2109" style="stroke:#181818;stroke-width:1.0;" width="10" x="250.4258" y="114.1094"/><rect fill="#FFFFFF" height="364.7266" style="stroke:#181818;stroke-width:1.0;" width="10" x="255.4258" y="185.7305"/><rect fill="#FFFFFF" height="146.5527" style="stroke:#181818;stroke-width:1.0;" width="10" x="255.4258" y="579.7676"/><polygon fill="#666666" points="238.4258,110.1094,248.4258,114.1094,238.4258,118.1094,242.4258,114.1094" style="stroke:#666666;stroke-width:1.0;"/><line style="stroke:#666666;stroke-width:1.0;" x1="28.2627" x2="244.4258" y1="114.1094" y2="114.1094"/><text fill="#333333" font-family="sans-serif" font-size="13" lengthAdjust="spacing" textLength="188.5444" x="35.2627" y="94.0566">New(logger, blockchainClient,</text><text fill="#333333" font-family="sans-serif" font-size="13" lengthAdjust="spacing" textLength="203.1631" x="35.2627" y="109.3672">utxoStore, blockassemblyClient)</text><line style="stroke:#666666;stroke-width:1.0;" x1="260.4258" x2="302.4258" y1="143.4199" y2="143.4199"/><line style="stroke:#666666;stroke-width:1.0;" x1="302.4258" x2="302.4258" y1="143.4199" y2="156.4199"/><line style="stroke:#666666;stroke-width:1.0;" x1="261.4258" x2="302.4258" y1="156.4199" y2="156.4199"/><polygon fill="#666666" points="271.4258,152.4199,261.4258,156.4199,271.4258,160.4199,267.4258,156.4199" style="stroke:#666666;stroke-width:1.0;"/><text fill="#333333" font-family="sans-serif" font-size="13" lengthAdjust="spacing" textLength="149.3032" x="267.4258" y="138.6777">initPrometheusMetrics()</text><polygon fill="#666666" points="243.4258,181.7305,253.4258,185.7305,243.4258,189.7305,247.4258,185.7305" style="stroke:#666666;stroke-width:1.0;"/><line style="stroke:#666666;stroke-width:1.0;" x1="28.2627" x2="249.4258" y1="185.7305" y2="185.7305"/><text fill="#333333" font-family="sans-serif" font-size="13" lengthAdjust="spacing" textLength="48.3818" x="35.2627" y="180.9883">Init(ctx)</text><polygon fill="#666666" points="490.8721,211.041,500.8721,215.041,490.8721,219.041,494.8721,215.041" style="stroke:#666666;stroke-width:1.0;"/><line style="stroke:#666666;stroke-width:1.0;" x1="265.4258" x2="496.8721" y1="215.041" y2="215.041"/><text fill="#333333" font-family="sans-serif" font-size="13" lengthAdjust="spacing" textLength="118.9868" x="272.4258" y="210.2988">Load configuration</text><polygon fill="#666666" points="276.4258,240.3516,266.4258,244.3516,276.4258,248.3516,272.4258,244.3516" style="stroke:#666666;stroke-width:1.0;"/><line style="stroke:#666666;stroke-width:1.0;stroke-dasharray:2.0,2.0;" x1="270.4258" x2="501.8721" y1="244.3516" y2="244.3516"/><text fill="#333333" font-family="sans-serif" font-size="13" lengthAdjust="spacing" textLength="130.4888" x="282.4258" y="239.6094">Return configuration</text><polygon fill="#666666" points="570.1646,269.6621,580.1646,273.6621,570.1646,277.6621,574.1646,273.6621" style="stroke:#666666;stroke-width:1.0;"/><line style="stroke:#666666;stroke-width:1.0;" x1="265.4258" x2="576.1646" y1="273.6621" y2="273.6621"/><text fill="#333333" font-family="sans-serif" font-size="13" lengthAdjust="spacing" textLength="101.3911" x="272.4258" y="268.9199">Initialize(config)</text><polygon fill="#666666" points="718.6738,298.9727,728.6738,302.9727,718.6738,306.9727,722.6738,302.9727" style="stroke:#666666;stroke-width:1.0;"/><line style="stroke:#666666;stroke-width:1.0;" x1="582.1646" x2="724.6738" y1="302.9727" y2="302.9727"/><text fill="#333333" font-family="sans-serif" font-size="13" lengthAdjust="spacing" textLength="118.5171" x="589.1646" y="298.2305">Connect and setup</text><polygon fill="#666666" points="593.1646,328.2832,583.1646,332.2832,593.1646,336.2832,589.1646,332.2832" style="stroke:#666666;stroke-width:1.0;"/><line style="stroke:#666666;stroke-width:1.0;stroke-dasharray:2.0,2.0;" x1="587.1646" x2="729.6738" y1="332.2832" y2="332.2832"/><text fill="#333333" font-family="sans-serif" font-size="13" lengthAdjust="spacing" textLength="124.5093" x="599.1646" y="327.541">Confirm connection</text><polygon fill="#666666" points="276.4258,357.5938,266.4258,361.5938,276.4258,365.5938,272.4258,361.5938" style="stroke:#666666;stroke-width:1.0;"/><line style="stroke:#666666;stroke-width:1.0;stroke-dasharray:2.0,2.0;" x1="270.4258" x2="581.1646" y1="361.5938" y2="361.5938"/><text fill="#333333" font-family="sans-serif" font-size="13" lengthAdjust="spacing" textLength="99.8232" x="282.4258" y="356.8516">Datastore ready</text><line style="stroke:#666666;stroke-width:1.0;" x1="265.4258" x2="307.4258" y1="390.9043" y2="390.9043"/><line style="stroke:#666666;stroke-width:1.0;" x1="307.4258" x2="307.4258" y1="390.9043" y2="403.9043"/><line style="stroke:#666666;stroke-width:1.0;" x1="266.4258" x2="307.4258" y1="403.9043" y2="403.9043"/><polygon fill="#666666" points="276.4258,399.9043,266.4258,403.9043,276.4258,407.9043,272.4258,403.9043" style="stroke:#666666;stroke-width:1.0;"/><text fill="#333333" font-family="sans-serif" font-size="13" lengthAdjust="spacing" textLength="125.0996" x="272.4258" y="386.1621">Create genesis alert</text><polygon fill="#666666" points="718.6738,429.2148,728.6738,433.2148,718.6738,437.2148,722.6738,433.2148" style="stroke:#666666;stroke-width:1.0;"/><line style="stroke:#666666;stroke-width:1.0;" x1="265.4258" x2="724.6738" y1="433.2148" y2="433.2148"/><text fill="#333333" font-family="sans-serif" font-size="13" lengthAdjust="spacing" textLength="116.6699" x="272.4258" y="428.4727">Store genesis alert</text><polygon fill="#666666" points="276.4258,458.5254,266.4258,462.5254,276.4258,466.5254,272.4258,462.5254" style="stroke:#666666;stroke-width:1.0;"/><line style="stroke:#666666;stroke-width:1.0;stroke-dasharray:2.0,2.0;" x1="270.4258" x2="729.6738" y1="462.5254" y2="462.5254"/><text fill="#333333" font-family="sans-serif" font-size="13" lengthAdjust="spacing" textLength="102.4766" x="282.4258" y="457.7832">Confirm storage</text><polygon fill="#666666" points="490.8721,487.8359,500.8721,491.8359,490.8721,495.8359,494.8721,491.8359" style="stroke:#666666;stroke-width:1.0;"/><line style="stroke:#666666;stroke-width:1.0;" x1="265.4258" x2="496.8721" y1="491.8359" y2="491.8359"/><text fill="#333333" font-family="sans-serif" font-size="13" lengthAdjust="spacing" textLength="213.4463" x="272.4258" y="487.0938">Verify RPC connection (if enabled)</text><polygon fill="#666666" points="276.4258,517.1465,266.4258,521.1465,276.4258,525.1465,272.4258,521.1465" style="stroke:#666666;stroke-width:1.0;"/><line style="stroke:#666666;stroke-width:1.0;stroke-dasharray:2.0,2.0;" x1="270.4258" x2="501.8721" y1="521.1465" y2="521.1465"/><text fill="#333333" font-family="sans-serif" font-size="13" lengthAdjust="spacing" textLength="153.0229" x="282.4258" y="516.4043">Confirm RPC connection</text><polygon fill="#666666" points="39.2627,546.457,29.2627,550.457,39.2627,554.457,35.2627,550.457" style="stroke:#666666;stroke-width:1.0;"/><line style="stroke:#666666;stroke-width:1.0;stroke-dasharray:2.0,2.0;" x1="33.2627" x2="249.4258" y1="550.457" y2="550.457"/><text fill="#333333" font-family="sans-serif" font-size="13" lengthAdjust="spacing" textLength="82.6147" x="45.2627" y="545.7148">Init complete</text><polygon fill="#666666" points="243.4258,575.7676,253.4258,579.7676,243.4258,583.7676,247.4258,579.7676" style="stroke:#666666;stroke-width:1.0;"/><line style="stroke:#666666;stroke-width:1.0;" x1="28.2627" x2="249.4258" y1="579.7676" y2="579.7676"/><text fill="#333333" font-family="sans-serif" font-size="13" lengthAdjust="spacing" textLength="57.1733" x="35.2627" y="575.0254">Start(ctx)</text><polygon fill="#666666" points="805.3071,605.0781,815.3071,609.0781,805.3071,613.0781,809.3071,609.0781" style="stroke:#666666;stroke-width:1.0;"/><line style="stroke:#666666;stroke-width:1.0;" x1="265.4258" x2="811.3071" y1="609.0781" y2="609.0781"/><text fill="#333333" font-family="sans-serif" font-size="13" lengthAdjust="spacing" textLength="113.5278" x="272.4258" y="604.3359">NewServer(config)</text><polygon fill="#666666" points="276.4258,634.3887,266.4258,638.3887,276.4258,642.3887,272.4258,638.3887" style="stroke:#666666;stroke-width:1.0;"/><line style="stroke:#666666;stroke-width:1.0;stroke-dasharray:2.0,2.0;" x1="270.4258" x2="816.3071" y1="638.3887" y2="638.3887"/><text fill="#333333" font-family="sans-serif" font-size="13" lengthAdjust="spacing" textLength="122.1353" x="282.4258" y="633.6465">P2P Server instance</text><polygon fill="#666666" points="805.3071,663.6992,815.3071,667.6992,805.3071,671.6992,809.3071,667.6992" style="stroke:#666666;stroke-width:1.0;"/><line style="stroke:#666666;stroke-width:1.0;" x1="265.4258" x2="811.3071" y1="667.6992" y2="667.6992"/><text fill="#333333" font-family="sans-serif" font-size="13" lengthAdjust="spacing" textLength="57.1733" x="272.4258" y="662.957">Start(ctx)</text><polygon fill="#666666" points="276.4258,693.0098,266.4258,697.0098,276.4258,701.0098,272.4258,697.0098" style="stroke:#666666;stroke-width:1.0;"/><line style="stroke:#666666;stroke-width:1.0;stroke-dasharray:2.0,2.0;" x1="270.4258" x2="816.3071" y1="697.0098" y2="697.0098"/><text fill="#333333" font-family="sans-serif" font-size="13" lengthAdjust="spacing" textLength="113.9468" x="282.4258" y="692.2676">P2P Server started</text><polygon fill="#666666" points="39.2627,722.3203,29.2627,726.3203,39.2627,730.3203,35.2627,726.3203" style="stroke:#666666;stroke-width:1.0;"/><line style="stroke:#666666;stroke-width:1.0;stroke-dasharray:2.0,2.0;" x1="33.2627" x2="249.4258" y1="726.3203" y2="726.3203"/><text fill="#333333" font-family="sans-serif" font-size="13" lengthAdjust="spacing" textLength="92.3394" x="45.2627" y="721.5781">Service started</text><!--SRC=[fLHHQzim47xNhn3Tmn9eOMmmHXu6Iu9Xi8xGm9xsShRFheWY1UdSDXlxxpj9Zcl7zTfjUZ0wtNVVVJhTsU-KEO23lSoXsDNEDgPSMMsTV9MzoJvacV0TeiGA6asPDTH2tiNLWu1pzhvrlezBYDToZPKoA7FhIdHULkm5hILgtACXtujdKz5H_XHIBYDwoCMdvohNSObVeiTIi49dzV_Iy9TKeGvWwD-eXEXJN5o3CXSIl0oReUkJHaToY-vE5HWnyQGz669NrbIgZg2q7RhNGE39kaJJMQBaNGuU4oBi4c0v3D-ytKGTwAARpMG94LJBguy3PGlv5UzdsjOrkakPQrliYbl6hRJYfxpyRXfwiDkGl_M2zxZFzJ41vW8AKdT0EBolw5lZdCeesZYxHxh5nbyZELNusNnAucU6pmfwU76sLDQ5_6AX3Ct4HkE0b3KYkUJLACaDKkFC6Nh4t3r7KgL0gnyuIq5pqNaZTBa8GWmM9C6KqdE2WrWlO-uUJrJaOjC7R4ZRundfVFGvXFBuNAbNZE9wrMZGAyzZoyxnhLXgVEGpN2lsZB7L6qH0_OVgVqEdggEysQnwTvCpLV5V0dADvNpwDKv9Xi7dkJWiT4nw2yRj3ng99mKd-kJfzjeIpyzVzLStL75yqhPhWixvnBKUXvDdm1EOPzXxqbv8wqC4bfELEfsSS5Er-Wq0]--></g></svg>
