<svg contentStyleType="text/css" height="684" preserveAspectRatio="none" viewBox="0 0 962 684" width="962" xmlns="http://www.w3.org/2000/svg" zoomAndPan="magnify"><path d="m0 0h962v684h-962z" fill="#f0f8ff"/><path d="m211.4092 98.7988h10v484.9688h-10z" fill="#fff" stroke="#181818"/><path d="m436.374 128.1094h10v426.3477h-10z" fill="#fff" stroke="#181818"/><path d="m356.2173 260.3516h600.0352v164.8633h-600.0352z" fill="none" stroke="#000" stroke-width="1.5"/><path d="m366.2173 326.9727h580.0352v91.2422h-580.0352z" fill="none" stroke="#000" stroke-width="1.5"/><g stroke-width=".5"><path d="m24 67.4883v534.2793" stroke="#181818" stroke-dasharray="5 5"/><path d="m216.293 67.4883v534.2793" stroke="#181818" stroke-dasharray="5 5"/><path d="m441.2173 67.4883v534.2793" stroke="#181818" stroke-dasharray="5 5"/><path d="m747.0815 67.4883v534.2793" stroke="#181818" stroke-dasharray="5 5"/><path d="m875.7944 67.4883v534.2793" stroke="#181818" stroke-dasharray="5 5"/><rect fill="#ddd" height="30.4883" rx="2.5" stroke="#666" width="38.3291" x="5" y="36"/></g><text fill="#333" font-family="sans-serif" font-size="14" lengthAdjust="spacing" textLength="24.3291" x="12" y="56.5352">P2P</text><rect fill="#ddd" height="30.4883" rx="2.5" stroke="#666" stroke-width=".5" width="38.3291" x="5" y="600.7676"/><text fill="#333" font-family="sans-serif" font-size="14" lengthAdjust="spacing" textLength="24.3291" x="12" y="621.3027">P2P</text><rect fill="#ddd" height="30.4883" rx="2.5" stroke="#666" stroke-width=".5" width="98.2324" x="167.293" y="36"/><text fill="#333" font-family="sans-serif" font-size="14" lengthAdjust="spacing" textLength="84.2324" x="174.293" y="56.5352">Alert Service</text><rect fill="#ddd" height="30.4883" rx="2.5" stroke="#666" stroke-width=".5" width="98.2324" x="167.293" y="600.7676"/><text fill="#333" font-family="sans-serif" font-size="14" lengthAdjust="spacing" textLength="84.2324" x="174.293" y="621.3027">Alert Service</text><rect fill="#ddd" height="30.4883" rx="2.5" stroke="#666" stroke-width=".5" width="130.3135" x="376.2173" y="36"/><text fill="#333" font-family="sans-serif" font-size="14" lengthAdjust="spacing" textLength="116.3135" x="383.2173" y="56.5352">Blockchain Client</text><rect fill="#ddd" height="30.4883" rx="2.5" stroke="#666" stroke-width=".5" width="130.3135" x="376.2173" y="600.7676"/><text fill="#333" font-family="sans-serif" font-size="14" lengthAdjust="spacing" textLength="116.3135" x="383.2173" y="621.3027">Blockchain Client</text><text fill="#333" font-family="sans-serif" font-size="14" lengthAdjust="spacing" textLength="111.7129" x="689.0815" y="64.5352">Blockchain Store</text><path d="m729.938 15c0-10 18-10 18-10s18 0 18 10v26c0 10-18 10-18 10s-18 0-18-10z" fill="#e2e2f0" stroke="#181818" stroke-width="1.5"/><path d="m729.938 15c0 10 18 10 18 10s18 0 18-10" fill="none" stroke="#181818" stroke-width="1.5"/><text fill="#333" font-family="sans-serif" font-size="14" lengthAdjust="spacing" textLength="111.7129" x="689.0815" y="614.3027">Blockchain Store</text><path d="m729.938 627.2559c0-10 18-10 18-10s18 0 18 10v26c0 10-18 10-18 10s-18 0-18-10z" fill="#e2e2f0" stroke="#181818" stroke-width="1.5"/><path d="m729.938 627.2559c0 10 18 10 18 10s18 0 18-10" fill="none" stroke="#181818" stroke-width="1.5"/><rect fill="#ddd" height="30.4883" rx="2.5" stroke="#666" stroke-width=".5" width="119.458" x="816.7944" y="36"/><text fill="#333" font-family="sans-serif" font-size="14" lengthAdjust="spacing" textLength="105.458" x="823.7944" y="56.5352">Block Assembly</text><rect fill="#ddd" height="30.4883" rx="2.5" stroke="#666" stroke-width=".5" width="119.458" x="816.7944" y="600.7676"/><text fill="#333" font-family="sans-serif" font-size="14" lengthAdjust="spacing" textLength="105.458" x="823.7944" y="621.3027">Block Assembly</text><path d="m211.4092 98.7988h10v484.9688h-10z" fill="#fff" stroke="#181818"/><path d="m436.374 128.1094h10v426.3477h-10z" fill="#fff" stroke="#181818"/><path d="m199.4092 94.7988 10 4-10 4 4-4z" fill="#666" stroke="#666"/><path d="m24.1646 98.7988h181.2446" stroke="#666"/><text fill="#333" font-family="sans-serif" font-size="13" lengthAdjust="spacing" textLength="168.2446" x="31.1646" y="94.0566">InvalidateBlock(blockHash)</text><path d="m424.374 124.1094 10 4-10 4 4-4z" fill="#666" stroke="#666"/><path d="m221.4092 128.1094h208.9648" stroke="#666"/><text fill="#333" font-family="sans-serif" font-size="13" lengthAdjust="spacing" textLength="195.9648" x="228.4092" y="123.3672">InvalidateBlock(ctx, blockHash)</text><path d="m735.938 153.4199 10 4-10 4 4-4z" fill="#666" stroke="#666"/><path d="m446.374 157.4199h295.564" stroke="#666"/><text fill="#333" font-family="sans-serif" font-size="13" lengthAdjust="spacing" textLength="133.0532" x="453.374" y="152.6777">Mark block as invalid</text><path d="m457.374 182.7305-10 4 10 4-4-4z" fill="#666" stroke="#666"/><path d="m451.374 186.7305h295.564" stroke="#666" stroke-dasharray="2 2"/><text fill="#333" font-family="sans-serif" font-size="13" lengthAdjust="spacing" textLength="128.4385" x="463.374" y="181.9883">Confirm invalidation</text><path d="m735.938 212.041 10 4-10 4 4-4z" fill="#666" stroke="#666"/><path d="m446.374 216.041h295.564" stroke="#666"/><text fill="#333" font-family="sans-serif" font-size="13" lengthAdjust="spacing" textLength="277.564" x="453.374" y="211.2988">Retrieve transactions from invalidated block</text><path d="m457.374 241.3516-10 4 10 4-4-4z" fill="#666" stroke="#666"/><path d="m451.374 245.3516h295.564" stroke="#666" stroke-dasharray="2 2"/><text fill="#333" font-family="sans-serif" font-size="13" lengthAdjust="spacing" textLength="123.0874" x="463.374" y="240.6094">Return transactions</text><path d="m356.2173 260.3516h74.4468v7.3105l-10 10h-64.4468z" fill="#eee" stroke="#000" stroke-width="1.5"/><path d="m356.2173 260.3516h600.0352v164.8633h-600.0352z" fill="none" stroke="#000" stroke-width="1.5"/><text fill="#333" font-family="sans-serif" font-size="13" font-weight="bold" lengthAdjust="spacing" textLength="29.4468" x="371.2173" y="273.9199">loop</text><text fill="#333" font-family="sans-serif" font-size="11" font-weight="bold" lengthAdjust="spacing" textLength="237.2358" x="445.6641" y="272.9863">[for each transaction in invalidated block]</text><path d="m446.374 298.9727h42" stroke="#666"/><path d="m488.374 298.9727v13" stroke="#666"/><path d="m447.374 311.9727h41" stroke="#666"/><path d="m457.374 307.9727-10 4 10 4-4-4z" fill="#666" stroke="#666"/><text fill="#333" font-family="sans-serif" font-size="13" lengthAdjust="spacing" textLength="125.3408" x="453.374" y="294.2305">Validate transaction</text><path d="m366.2173 326.9727h62.1387v7.3105l-10 10h-52.1387z" fill="#eee" stroke="#000" stroke-width="1.5"/><path d="m366.2173 326.9727h580.0352v91.2422h-580.0352z" fill="none" stroke="#000" stroke-width="1.5"/><text fill="#333" font-family="sans-serif" font-size="13" font-weight="bold" lengthAdjust="spacing" textLength="17.1387" x="381.2173" y="340.541">alt</text><text fill="#333" font-family="sans-serif" font-size="11" font-weight="bold" lengthAdjust="spacing" textLength="116.6118" x="443.356" y="339.6074">[transaction is valid]</text><path d="m864.5234 376.9043 10 4-10 4 4-4z" fill="#666" stroke="#666"/><path d="m446.374 380.9043h424.1494" stroke="#666"/><text fill="#333" font-family="sans-serif" font-size="13" lengthAdjust="spacing" textLength="122.2114" x="453.374" y="360.8516">Add transaction for</text><text fill="#333" font-family="sans-serif" font-size="13" lengthAdjust="spacing" textLength="137.6934" x="453.374" y="376.1621">re-inclusion in blocks</text><path d="m457.374 406.2148-10 4 10 4-4-4z" fill="#666" stroke="#666"/><path d="m451.374 410.2148h424.1494" stroke="#666" stroke-dasharray="2 2"/><text fill="#333" font-family="sans-serif" font-size="13" lengthAdjust="spacing" textLength="107.1294" x="463.374" y="405.4727">Confirm addition</text><path d="m735.938 449.5254 10 4-10 4 4-4z" fill="#666" stroke="#666"/><path d="m446.374 453.5254h295.564" stroke="#666"/><text fill="#333" font-family="sans-serif" font-size="13" lengthAdjust="spacing" textLength="117.8188" x="453.374" y="448.7832">Get previous block</text><path d="m457.374 478.8359-10 4 10 4-4-4z" fill="#666" stroke="#666"/><path d="m451.374 482.8359h295.564" stroke="#666" stroke-dasharray="2 2"/><text fill="#333" font-family="sans-serif" font-size="13" lengthAdjust="spacing" textLength="138.0996" x="463.374" y="478.0938">Return previous block</text><path d="m446.374 512.1465h42" stroke="#666"/><path d="m488.374 512.1465v13" stroke="#666"/><path d="m447.374 525.1465h41" stroke="#666"/><path d="m457.374 521.1465-10 4 10 4-4-4z" fill="#666" stroke="#666"/><text fill="#333" font-family="sans-serif" font-size="13" lengthAdjust="spacing" textLength="191.147" x="453.374" y="507.4043">Set chain tip to previous block</text><path d="m232.4092 550.457-10 4 10 4-4-4z" fill="#666" stroke="#666"/><path d="m226.4092 554.457h213.9648" stroke="#666" stroke-dasharray="2 2"/><text fill="#333" font-family="sans-serif" font-size="13" lengthAdjust="spacing" textLength="166.7339" x="238.4092" y="549.7148">Confirm block invalidation</text><path d="m35.1646 579.7676-10 4 10 4-4-4z" fill="#666" stroke="#666"/><path d="m29.1646 583.7676h186.2446" stroke="#666" stroke-dasharray="2 2"/><text fill="#333" font-family="sans-serif" font-size="13" lengthAdjust="spacing" textLength="159.1675" x="41.1646" y="579.0254">Return invalidation result</text><text fill="#333" font-family="sans-serif" font-size="10" lengthAdjust="spacing" textLength="155.4346" y="673.9238">Last Modified On: 24-Feb-2025</text></svg>
