<svg xmlns="http://www.w3.org/2000/svg" xmlns:xlink="http://www.w3.org/1999/xlink" contentStyleType="text/css" height="742px" preserveAspectRatio="none" style="width:881px;height:742px;background:#F0F8FF;" version="1.1" viewBox="0 0 881 742" width="881px" zoomAndPan="magnify"><defs/><g><rect fill="#F0F8FF" height="742" style="stroke:none;stroke-width:1.0;" width="881" x="0" y="0"/><rect fill="#FFFFFF" height="543.9238" style="stroke:#181818;stroke-width:1.0;" width="10" x="248.8667" y="98.7988"/><rect fill="#FFFFFF" height="87.9316" style="stroke:#181818;stroke-width:1.0;" width="10" x="614.1953" y="152.4199"/><rect fill="#FFFFFF" height="87.9316" style="stroke:#181818;stroke-width:1.0;" width="10" x="614.1953" y="336.2832"/><rect fill="none" height="500.6133" style="stroke:#000000;stroke-width:1.5;" width="700.4863" x="174.7505" y="113.7988"/><rect fill="none" height="309.75" style="stroke:#000000;stroke-width:1.5;" width="680.4863" x="184.7505" y="297.6621"/><rect fill="none" height="116.8867" style="stroke:#000000;stroke-width:1.5;" width="312.7451" x="194.7505" y="439.2148"/><line style="stroke:#181818;stroke-width:0.5;stroke-dasharray:5.0,5.0;" x1="24" x2="24" y1="67.4883" y2="660.7227"/><line style="stroke:#181818;stroke-width:0.5;stroke-dasharray:5.0,5.0;" x1="253.7505" x2="253.7505" y1="67.4883" y2="660.7227"/><line style="stroke:#181818;stroke-width:0.5;stroke-dasharray:5.0,5.0;" x1="618.4321" x2="618.4321" y1="67.4883" y2="660.7227"/><line style="stroke:#181818;stroke-width:0.5;stroke-dasharray:5.0,5.0;" x1="797.9282" x2="797.9282" y1="67.4883" y2="660.7227"/><rect fill="#DDDDDD" height="30.4883" rx="2.5" ry="2.5" style="stroke:#666666;stroke-width:0.5;" width="38.3291" x="5" y="36"/><text fill="#333333" font-family="sans-serif" font-size="14" lengthAdjust="spacing" textLength="24.3291" x="12" y="56.5352">P2P</text><rect fill="#DDDDDD" height="30.4883" rx="2.5" ry="2.5" style="stroke:#666666;stroke-width:0.5;" width="38.3291" x="5" y="659.7227"/><text fill="#333333" font-family="sans-serif" font-size="14" lengthAdjust="spacing" textLength="24.3291" x="12" y="680.2578">P2P</text><rect fill="#DDDDDD" height="30.4883" rx="2.5" ry="2.5" style="stroke:#666666;stroke-width:0.5;" width="98.2324" x="204.7505" y="36"/><text fill="#333333" font-family="sans-serif" font-size="14" lengthAdjust="spacing" textLength="84.2324" x="211.7505" y="56.5352">Alert Service</text><rect fill="#DDDDDD" height="30.4883" rx="2.5" ry="2.5" style="stroke:#666666;stroke-width:0.5;" width="98.2324" x="204.7505" y="659.7227"/><text fill="#333333" font-family="sans-serif" font-size="14" lengthAdjust="spacing" textLength="84.2324" x="211.7505" y="680.2578">Alert Service</text><rect fill="#DDDDDD" height="30.4883" rx="2.5" ry="2.5" style="stroke:#666666;stroke-width:0.5;" width="91.5264" x="573.4321" y="36"/><text fill="#333333" font-family="sans-serif" font-size="14" lengthAdjust="spacing" textLength="77.5264" x="580.4321" y="56.5352">UTXO Store</text><rect fill="#DDDDDD" height="30.4883" rx="2.5" ry="2.5" style="stroke:#666666;stroke-width:0.5;" width="91.5264" x="573.4321" y="659.7227"/><text fill="#333333" font-family="sans-serif" font-size="14" lengthAdjust="spacing" textLength="77.5264" x="580.4321" y="680.2578">UTXO Store</text><text fill="#333333" font-family="sans-serif" font-size="14" lengthAdjust="spacing" textLength="108.3086" x="740.9282" y="64.5352">UTXO Datastore</text><path d="M780.0825,15 C780.0825,5 798.0825,5 798.0825,5 C798.0825,5 816.0825,5 816.0825,15 L816.0825,41 C816.0825,51 798.0825,51 798.0825,51 C798.0825,51 780.0825,51 780.0825,41 L780.0825,15 " fill="#E2E2F0" style="stroke:#181818;stroke-width:1.5;"/><path d="M780.0825,15 C780.0825,25 798.0825,25 798.0825,25 C798.0825,25 816.0825,25 816.0825,15 " fill="none" style="stroke:#181818;stroke-width:1.5;"/><text fill="#333333" font-family="sans-serif" font-size="14" lengthAdjust="spacing" textLength="108.3086" x="740.9282" y="673.2578">UTXO Datastore</text><path d="M780.0825,686.2109 C780.0825,676.2109 798.0825,676.2109 798.0825,676.2109 C798.0825,676.2109 816.0825,676.2109 816.0825,686.2109 L816.0825,712.2109 C816.0825,722.2109 798.0825,722.2109 798.0825,722.2109 C798.0825,722.2109 780.0825,722.2109 780.0825,712.2109 L780.0825,686.2109 " fill="#E2E2F0" style="stroke:#181818;stroke-width:1.5;"/><path d="M780.0825,686.2109 C780.0825,696.2109 798.0825,696.2109 798.0825,696.2109 C798.0825,696.2109 816.0825,696.2109 816.0825,686.2109 " fill="none" style="stroke:#181818;stroke-width:1.5;"/><rect fill="#FFFFFF" height="543.9238" style="stroke:#181818;stroke-width:1.0;" width="10" x="248.8667" y="98.7988"/><rect fill="#FFFFFF" height="87.9316" style="stroke:#181818;stroke-width:1.0;" width="10" x="614.1953" y="152.4199"/><rect fill="#FFFFFF" height="87.9316" style="stroke:#181818;stroke-width:1.0;" width="10" x="614.1953" y="336.2832"/><polygon fill="#666666" points="236.8667,94.7988,246.8667,98.7988,236.8667,102.7988,240.8667,98.7988" style="stroke:#666666;stroke-width:1.0;"/><line style="stroke:#666666;stroke-width:1.0;" x1="24.1646" x2="242.8667" y1="98.7988" y2="98.7988"/><text fill="#333333" font-family="sans-serif" font-size="13" lengthAdjust="spacing" textLength="205.7021" x="31.1646" y="94.0566">AddToConsensusBlacklist(funds)</text><path d="M174.7505,113.7988 L249.1973,113.7988 L249.1973,121.1094 L239.1973,131.1094 L174.7505,131.1094 L174.7505,113.7988 " fill="#EEEEEE" style="stroke:#000000;stroke-width:1.5;"/><rect fill="none" height="500.6133" style="stroke:#000000;stroke-width:1.5;" width="700.4863" x="174.7505" y="113.7988"/><text fill="#333333" font-family="sans-serif" font-size="13" font-weight="bold" lengthAdjust="spacing" textLength="29.4468" x="189.7505" y="127.3672">loop</text><text fill="#333333" font-family="sans-serif" font-size="11" font-weight="bold" lengthAdjust="spacing" textLength="134.8467" x="264.1973" y="126.4336">[for each fund in funds]</text><polygon fill="#666666" points="602.1953,148.4199,612.1953,152.4199,602.1953,156.4199,606.1953,152.4199" style="stroke:#666666;stroke-width:1.0;"/><line style="stroke:#666666;stroke-width:1.0;" x1="258.8667" x2="608.1953" y1="152.4199" y2="152.4199"/><text fill="#333333" font-family="sans-serif" font-size="13" lengthAdjust="spacing" textLength="101.937" x="265.8667" y="147.6777">Get(ctx, txHash)</text><polygon fill="#666666" points="786.0825,177.7305,796.0825,181.7305,786.0825,185.7305,790.0825,181.7305" style="stroke:#666666;stroke-width:1.0;"/><line style="stroke:#666666;stroke-width:1.0;" x1="624.1953" x2="792.0825" y1="181.7305" y2="181.7305"/><text fill="#333333" font-family="sans-serif" font-size="13" lengthAdjust="spacing" textLength="139.9976" x="631.1953" y="176.9883">Fetch transaction data</text><polygon fill="#666666" points="635.1953,207.041,625.1953,211.041,635.1953,215.041,631.1953,211.041" style="stroke:#666666;stroke-width:1.0;"/><line style="stroke:#666666;stroke-width:1.0;stroke-dasharray:2.0,2.0;" x1="629.1953" x2="797.0825" y1="211.041" y2="211.041"/><text fill="#333333" font-family="sans-serif" font-size="13" lengthAdjust="spacing" textLength="147.9766" x="641.1953" y="206.2988">Return transaction data</text><polygon fill="#666666" points="269.8667,236.3516,259.8667,240.3516,269.8667,244.3516,265.8667,240.3516" style="stroke:#666666;stroke-width:1.0;"/><line style="stroke:#666666;stroke-width:1.0;stroke-dasharray:2.0,2.0;" x1="263.8667" x2="618.1953" y1="240.3516" y2="240.3516"/><text fill="#333333" font-family="sans-serif" font-size="13" lengthAdjust="spacing" textLength="179.3975" x="275.8667" y="235.6094">Return transaction metadata</text><line style="stroke:#666666;stroke-width:1.0;" x1="258.8667" x2="300.8667" y1="269.6621" y2="269.6621"/><line style="stroke:#666666;stroke-width:1.0;" x1="300.8667" x2="300.8667" y1="269.6621" y2="282.6621"/><line style="stroke:#666666;stroke-width:1.0;" x1="259.8667" x2="300.8667" y1="282.6621" y2="282.6621"/><polygon fill="#666666" points="269.8667,278.6621,259.8667,282.6621,269.8667,286.6621,265.8667,282.6621" style="stroke:#666666;stroke-width:1.0;"/><text fill="#333333" font-family="sans-serif" font-size="13" lengthAdjust="spacing" textLength="131.333" x="265.8667" y="264.9199">Calculate UTXO hash</text><path d="M184.7505,297.6621 L246.8892,297.6621 L246.8892,304.9727 L236.8892,314.9727 L184.7505,314.9727 L184.7505,297.6621 " fill="#EEEEEE" style="stroke:#000000;stroke-width:1.5;"/><rect fill="none" height="309.75" style="stroke:#000000;stroke-width:1.5;" width="680.4863" x="184.7505" y="297.6621"/><text fill="#333333" font-family="sans-serif" font-size="13" font-weight="bold" lengthAdjust="spacing" textLength="17.1387" x="199.7505" y="311.2305">alt</text><text fill="#333333" font-family="sans-serif" font-size="11" font-weight="bold" lengthAdjust="spacing" textLength="260.0952" x="261.8892" y="310.2969">[EnforceAtHeight.Stop &lt; current block height]</text><polygon fill="#666666" points="602.1953,332.2832,612.1953,336.2832,602.1953,340.2832,606.1953,336.2832" style="stroke:#666666;stroke-width:1.0;"/><line style="stroke:#666666;stroke-width:1.0;" x1="258.8667" x2="608.1953" y1="336.2832" y2="336.2832"/><text fill="#333333" font-family="sans-serif" font-size="13" lengthAdjust="spacing" textLength="183.5679" x="265.8667" y="331.541">UnFreezeUTXOs(ctx, [spend])</text><polygon fill="#666666" points="786.0825,361.5938,796.0825,365.5938,786.0825,369.5938,790.0825,365.5938" style="stroke:#666666;stroke-width:1.0;"/><line style="stroke:#666666;stroke-width:1.0;" x1="624.1953" x2="792.0825" y1="365.5938" y2="365.5938"/><text fill="#333333" font-family="sans-serif" font-size="13" lengthAdjust="spacing" textLength="149.8872" x="631.1953" y="360.8516">Mark UTXO as unfrozen</text><polygon fill="#666666" points="635.1953,390.9043,625.1953,394.9043,635.1953,398.9043,631.1953,394.9043" style="stroke:#666666;stroke-width:1.0;"/><line style="stroke:#666666;stroke-width:1.0;stroke-dasharray:2.0,2.0;" x1="629.1953" x2="797.0825" y1="394.9043" y2="394.9043"/><text fill="#333333" font-family="sans-serif" font-size="13" lengthAdjust="spacing" textLength="98.8711" x="641.1953" y="390.1621">Confirm update</text><polygon fill="#666666" points="269.8667,420.2148,259.8667,424.2148,269.8667,428.2148,265.8667,424.2148" style="stroke:#666666;stroke-width:1.0;"/><line style="stroke:#666666;stroke-width:1.0;stroke-dasharray:2.0,2.0;" x1="263.8667" x2="618.1953" y1="424.2148" y2="424.2148"/><text fill="#333333" font-family="sans-serif" font-size="13" lengthAdjust="spacing" textLength="110.5698" x="275.8667" y="419.4727">Confirm unfreeze</text><path d="M194.7505,439.2148 L256.8892,439.2148 L256.8892,446.5254 L246.8892,456.5254 L194.7505,456.5254 L194.7505,439.2148 " fill="#EEEEEE" style="stroke:#000000;stroke-width:1.5;"/><rect fill="none" height="116.8867" style="stroke:#000000;stroke-width:1.5;" width="312.7451" x="194.7505" y="439.2148"/><text fill="#333333" font-family="sans-serif" font-size="13" font-weight="bold" lengthAdjust="spacing" textLength="17.1387" x="209.7505" y="452.7832">alt</text><text fill="#333333" font-family="sans-serif" font-size="11" font-weight="bold" lengthAdjust="spacing" textLength="121.0215" x="271.8892" y="451.8496">[unfreeze successful]</text><line style="stroke:#666666;stroke-width:1.0;" x1="258.8667" x2="300.8667" y1="477.8359" y2="477.8359"/><line style="stroke:#666666;stroke-width:1.0;" x1="300.8667" x2="300.8667" y1="477.8359" y2="490.8359"/><line style="stroke:#666666;stroke-width:1.0;" x1="259.8667" x2="300.8667" y1="490.8359" y2="490.8359"/><polygon fill="#666666" points="269.8667,486.8359,259.8667,490.8359,269.8667,494.8359,265.8667,490.8359" style="stroke:#666666;stroke-width:1.0;"/><text fill="#333333" font-family="sans-serif" font-size="13" lengthAdjust="spacing" textLength="133.5928" x="265.8667" y="473.0938">Add to processed list</text><line style="stroke:#000000;stroke-width:1.0;stroke-dasharray:2.0,2.0;" x1="194.7505" x2="507.4956" y1="499.8359" y2="499.8359"/><text fill="#333333" font-family="sans-serif" font-size="11" font-weight="bold" lengthAdjust="spacing" textLength="93.5376" x="199.7505" y="510.4707">[unfreeze failed]</text><line style="stroke:#666666;stroke-width:1.0;" x1="258.8667" x2="300.8667" y1="535.1016" y2="535.1016"/><line style="stroke:#666666;stroke-width:1.0;" x1="300.8667" x2="300.8667" y1="535.1016" y2="548.1016"/><line style="stroke:#666666;stroke-width:1.0;" x1="259.8667" x2="300.8667" y1="548.1016" y2="548.1016"/><polygon fill="#666666" points="269.8667,544.1016,259.8667,548.1016,269.8667,552.1016,265.8667,548.1016" style="stroke:#666666;stroke-width:1.0;"/><text fill="#333333" font-family="sans-serif" font-size="13" lengthAdjust="spacing" textLength="219.6289" x="265.8667" y="530.3594">Add to notProcessed list with error</text><line style="stroke:#000000;stroke-width:1.0;stroke-dasharray:2.0,2.0;" x1="184.7505" x2="865.2368" y1="564.1016" y2="564.1016"/><line style="stroke:#666666;stroke-width:1.0;" x1="258.8667" x2="300.8667" y1="586.4121" y2="586.4121"/><line style="stroke:#666666;stroke-width:1.0;" x1="300.8667" x2="300.8667" y1="586.4121" y2="599.4121"/><line style="stroke:#666666;stroke-width:1.0;" x1="259.8667" x2="300.8667" y1="599.4121" y2="599.4121"/><polygon fill="#666666" points="269.8667,595.4121,259.8667,599.4121,269.8667,603.4121,265.8667,599.4121" style="stroke:#666666;stroke-width:1.0;"/><text fill="#333333" font-family="sans-serif" font-size="13" lengthAdjust="spacing" textLength="331.3286" x="265.8667" y="581.6699">Add to notProcessed list (not eligible for unfreezing)</text><polygon fill="#666666" points="35.1646,638.7227,25.1646,642.7227,35.1646,646.7227,31.1646,642.7227" style="stroke:#666666;stroke-width:1.0;"/><line style="stroke:#666666;stroke-width:1.0;stroke-dasharray:2.0,2.0;" x1="29.1646" x2="252.8667" y1="642.7227" y2="642.7227"/><text fill="#333333" font-family="sans-serif" font-size="13" lengthAdjust="spacing" textLength="157.7646" x="41.1646" y="637.9805">Return BlacklistResponse</text><text fill="#333333" font-family="sans-serif" font-size="10" lengthAdjust="spacing" textLength="155.4346" x="0" y="732.8789">Last Modified On: 24-Feb-2025</text><!--SRC=[fLJRQXin47tNLmmkfJRKfRHGYYc5EEus3pK9kK2Xz46MPcrXMLgasTnA_hqZsLQyYKDe8x0NZSuvSv5cujAuHWQvWfbKotdmhTE7tle0hwhtrUUg4h4WDDQojLHvHnl8nxns8384VxKv_9IN46zWWhLn23CVD8O8DPzAQm4jhj1HtE7prj0D_140uupkQh7rOPIJlCITs55H767mzgKo_4z6cKOw-Zyf8NObUYSVJdeW8_2tUt1WCH2SORWq2ZCaMpQ6BlRY_ESnd94FQs3QvftGakHCHjn09hoD1JOP2y5kOVYr8ps20wtF_Q5t4LriuzXoCjP4wjUSJnm8gSXSIi9kGC9wt-HhHAaMaB1WNFv6hWXqqCbdYN84tv7wYgxV0bqVoRWOP7nnSvzECfTTqfYCHr0XiJyAqiL4yGvIrXax6SEmw-aKgGrkFtf7-L59zl1MIB9mDUu9Ts_QNTr3QLLhjpHOSFPhchG4tnoNK-417Q6PB-WTgpRm1LGR0lS4pAnNIrZaiynvfieNhWg8jvXCSLtlNx51ftyF2ls9ekyj_5I6vJfiVaojguE_HLVWZslFBwesOGLjmsNRg_kuF5iAgwVG2-dfUc-BjwL0R9N26ElMblFdxuLR0CX34tpYeeRK08MFbbkgEAYbiQZ_NTnvEkdemvMX1I2Fot3logsLaqlnGla-crZ8pCtCOcxLJGx6pTTF87bBFz7rm2vuK9GkA1FX56EJneJOkOu7Gm5hOa-UCC0FdZqmzThKXYCwTYDudHv2lwVrS3gT3czuzGRYBm00]--></g></svg>
