<svg xmlns="http://www.w3.org/2000/svg" xmlns:xlink="http://www.w3.org/1999/xlink" contentStyleType="text/css" height="667px" preserveAspectRatio="none" style="width:757px;height:667px;background:#F0F8FF;" version="1.1" viewBox="0 0 757 667" width="757px" zoomAndPan="magnify"><defs/><g><rect fill="#F0F8FF" height="667" style="stroke:none;stroke-width:1.0;" width="757" x="0" y="0"/><rect fill="#FFFFFF" height="468.3027" style="stroke:#181818;stroke-width:1.0;" width="10" x="248.8667" y="98.7988"/><rect fill="#FFFFFF" height="87.9316" style="stroke:#181818;stroke-width:1.0;" width="10" x="502.4956" y="152.4199"/><rect fill="#FFFFFF" height="87.9316" style="stroke:#181818;stroke-width:1.0;" width="10" x="502.4956" y="311.9727"/><rect fill="none" height="424.9922" style="stroke:#000000;stroke-width:1.5;" width="566.876" x="184.7505" y="113.7988"/><rect fill="none" height="116.8867" style="stroke:#000000;stroke-width:1.5;" width="312.7451" x="194.7505" y="414.9043"/><line style="stroke:#181818;stroke-width:0.5;stroke-dasharray:5.0,5.0;" x1="24" x2="24" y1="67.4883" y2="585.1016"/><line style="stroke:#181818;stroke-width:0.5;stroke-dasharray:5.0,5.0;" x1="253.7505" x2="253.7505" y1="67.4883" y2="585.1016"/><line style="stroke:#181818;stroke-width:0.5;stroke-dasharray:5.0,5.0;" x1="506.7324" x2="506.7324" y1="67.4883" y2="585.1016"/><line style="stroke:#181818;stroke-width:0.5;stroke-dasharray:5.0,5.0;" x1="684.3179" x2="684.3179" y1="67.4883" y2="585.1016"/><rect fill="#DDDDDD" height="30.4883" rx="2.5" ry="2.5" style="stroke:#666666;stroke-width:0.5;" width="38.3291" x="5" y="36"/><text fill="#333333" font-family="sans-serif" font-size="14" lengthAdjust="spacing" textLength="24.3291" x="12" y="56.5352">P2P</text><rect fill="#DDDDDD" height="30.4883" rx="2.5" ry="2.5" style="stroke:#666666;stroke-width:0.5;" width="38.3291" x="5" y="584.1016"/><text fill="#333333" font-family="sans-serif" font-size="14" lengthAdjust="spacing" textLength="24.3291" x="12" y="604.6367">P2P</text><rect fill="#DDDDDD" height="30.4883" rx="2.5" ry="2.5" style="stroke:#666666;stroke-width:0.5;" width="98.2324" x="204.7505" y="36"/><text fill="#333333" font-family="sans-serif" font-size="14" lengthAdjust="spacing" textLength="84.2324" x="211.7505" y="56.5352">Alert Service</text><rect fill="#DDDDDD" height="30.4883" rx="2.5" ry="2.5" style="stroke:#666666;stroke-width:0.5;" width="98.2324" x="204.7505" y="584.1016"/><text fill="#333333" font-family="sans-serif" font-size="14" lengthAdjust="spacing" textLength="84.2324" x="211.7505" y="604.6367">Alert Service</text><rect fill="#DDDDDD" height="30.4883" rx="2.5" ry="2.5" style="stroke:#666666;stroke-width:0.5;" width="91.5264" x="461.7324" y="36"/><text fill="#333333" font-family="sans-serif" font-size="14" lengthAdjust="spacing" textLength="77.5264" x="468.7324" y="56.5352">UTXO Store</text><rect fill="#DDDDDD" height="30.4883" rx="2.5" ry="2.5" style="stroke:#666666;stroke-width:0.5;" width="91.5264" x="461.7324" y="584.1016"/><text fill="#333333" font-family="sans-serif" font-size="14" lengthAdjust="spacing" textLength="77.5264" x="468.7324" y="604.6367">UTXO Store</text><text fill="#333333" font-family="sans-serif" font-size="14" lengthAdjust="spacing" textLength="108.3086" x="627.3179" y="64.5352">UTXO Datastore</text><path d="M666.4722,15 C666.4722,5 684.4722,5 684.4722,5 C684.4722,5 702.4722,5 702.4722,15 L702.4722,41 C702.4722,51 684.4722,51 684.4722,51 C684.4722,51 666.4722,51 666.4722,41 L666.4722,15 " fill="#E2E2F0" style="stroke:#181818;stroke-width:1.5;"/><path d="M666.4722,15 C666.4722,25 684.4722,25 684.4722,25 C684.4722,25 702.4722,25 702.4722,15 " fill="none" style="stroke:#181818;stroke-width:1.5;"/><text fill="#333333" font-family="sans-serif" font-size="14" lengthAdjust="spacing" textLength="108.3086" x="627.3179" y="597.6367">UTXO Datastore</text><path d="M666.4722,610.5898 C666.4722,600.5898 684.4722,600.5898 684.4722,600.5898 C684.4722,600.5898 702.4722,600.5898 702.4722,610.5898 L702.4722,636.5898 C702.4722,646.5898 684.4722,646.5898 684.4722,646.5898 C684.4722,646.5898 666.4722,646.5898 666.4722,636.5898 L666.4722,610.5898 " fill="#E2E2F0" style="stroke:#181818;stroke-width:1.5;"/><path d="M666.4722,610.5898 C666.4722,620.5898 684.4722,620.5898 684.4722,620.5898 C684.4722,620.5898 702.4722,620.5898 702.4722,610.5898 " fill="none" style="stroke:#181818;stroke-width:1.5;"/><rect fill="#FFFFFF" height="468.3027" style="stroke:#181818;stroke-width:1.0;" width="10" x="248.8667" y="98.7988"/><rect fill="#FFFFFF" height="87.9316" style="stroke:#181818;stroke-width:1.0;" width="10" x="502.4956" y="152.4199"/><rect fill="#FFFFFF" height="87.9316" style="stroke:#181818;stroke-width:1.0;" width="10" x="502.4956" y="311.9727"/><polygon fill="#666666" points="236.8667,94.7988,246.8667,98.7988,236.8667,102.7988,240.8667,98.7988" style="stroke:#666666;stroke-width:1.0;"/><line style="stroke:#666666;stroke-width:1.0;" x1="24.1646" x2="242.8667" y1="98.7988" y2="98.7988"/><text fill="#333333" font-family="sans-serif" font-size="13" lengthAdjust="spacing" textLength="205.7021" x="31.1646" y="94.0566">AddToConsensusBlacklist(funds)</text><path d="M184.7505,113.7988 L259.1973,113.7988 L259.1973,121.1094 L249.1973,131.1094 L184.7505,131.1094 L184.7505,113.7988 " fill="#EEEEEE" style="stroke:#000000;stroke-width:1.5;"/><rect fill="none" height="424.9922" style="stroke:#000000;stroke-width:1.5;" width="566.876" x="184.7505" y="113.7988"/><text fill="#333333" font-family="sans-serif" font-size="13" font-weight="bold" lengthAdjust="spacing" textLength="29.4468" x="199.7505" y="127.3672">loop</text><text fill="#333333" font-family="sans-serif" font-size="11" font-weight="bold" lengthAdjust="spacing" textLength="134.8467" x="274.1973" y="126.4336">[for each fund in funds]</text><polygon fill="#666666" points="490.4956,148.4199,500.4956,152.4199,490.4956,156.4199,494.4956,152.4199" style="stroke:#666666;stroke-width:1.0;"/><line style="stroke:#666666;stroke-width:1.0;" x1="258.8667" x2="496.4956" y1="152.4199" y2="152.4199"/><text fill="#333333" font-family="sans-serif" font-size="13" lengthAdjust="spacing" textLength="101.937" x="265.8667" y="147.6777">Get(ctx, txHash)</text><polygon fill="#666666" points="672.4722,177.7305,682.4722,181.7305,672.4722,185.7305,676.4722,181.7305" style="stroke:#666666;stroke-width:1.0;"/><line style="stroke:#666666;stroke-width:1.0;" x1="512.4956" x2="678.4722" y1="181.7305" y2="181.7305"/><text fill="#333333" font-family="sans-serif" font-size="13" lengthAdjust="spacing" textLength="139.9976" x="519.4956" y="176.9883">Fetch transaction data</text><polygon fill="#666666" points="523.4956,207.041,513.4956,211.041,523.4956,215.041,519.4956,211.041" style="stroke:#666666;stroke-width:1.0;"/><line style="stroke:#666666;stroke-width:1.0;stroke-dasharray:2.0,2.0;" x1="517.4956" x2="683.4722" y1="211.041" y2="211.041"/><text fill="#333333" font-family="sans-serif" font-size="13" lengthAdjust="spacing" textLength="147.9766" x="529.4956" y="206.2988">Return transaction data</text><polygon fill="#666666" points="269.8667,236.3516,259.8667,240.3516,269.8667,244.3516,265.8667,240.3516" style="stroke:#666666;stroke-width:1.0;"/><line style="stroke:#666666;stroke-width:1.0;stroke-dasharray:2.0,2.0;" x1="263.8667" x2="506.4956" y1="240.3516" y2="240.3516"/><text fill="#333333" font-family="sans-serif" font-size="13" lengthAdjust="spacing" textLength="179.3975" x="275.8667" y="235.6094">Return transaction metadata</text><line style="stroke:#666666;stroke-width:1.0;" x1="258.8667" x2="300.8667" y1="269.6621" y2="269.6621"/><line style="stroke:#666666;stroke-width:1.0;" x1="300.8667" x2="300.8667" y1="269.6621" y2="282.6621"/><line style="stroke:#666666;stroke-width:1.0;" x1="259.8667" x2="300.8667" y1="282.6621" y2="282.6621"/><polygon fill="#666666" points="269.8667,278.6621,259.8667,282.6621,269.8667,286.6621,265.8667,282.6621" style="stroke:#666666;stroke-width:1.0;"/><text fill="#333333" font-family="sans-serif" font-size="13" lengthAdjust="spacing" textLength="131.333" x="265.8667" y="264.9199">Calculate UTXO hash</text><polygon fill="#666666" points="490.4956,307.9727,500.4956,311.9727,490.4956,315.9727,494.4956,311.9727" style="stroke:#666666;stroke-width:1.0;"/><line style="stroke:#666666;stroke-width:1.0;" x1="258.8667" x2="496.4956" y1="311.9727" y2="311.9727"/><text fill="#333333" font-family="sans-serif" font-size="13" lengthAdjust="spacing" textLength="166.4927" x="265.8667" y="307.2305">FreezeUTXOs(ctx, [spend])</text><polygon fill="#666666" points="672.4722,337.2832,682.4722,341.2832,672.4722,345.2832,676.4722,341.2832" style="stroke:#666666;stroke-width:1.0;"/><line style="stroke:#666666;stroke-width:1.0;" x1="512.4956" x2="678.4722" y1="341.2832" y2="341.2832"/><text fill="#333333" font-family="sans-serif" font-size="13" lengthAdjust="spacing" textLength="133.7515" x="519.4956" y="336.541">Mark UTXO as frozen</text><polygon fill="#666666" points="523.4956,366.5938,513.4956,370.5938,523.4956,374.5938,519.4956,370.5938" style="stroke:#666666;stroke-width:1.0;"/><line style="stroke:#666666;stroke-width:1.0;stroke-dasharray:2.0,2.0;" x1="517.4956" x2="683.4722" y1="370.5938" y2="370.5938"/><text fill="#333333" font-family="sans-serif" font-size="13" lengthAdjust="spacing" textLength="98.8711" x="529.4956" y="365.8516">Confirm update</text><polygon fill="#666666" points="269.8667,395.9043,259.8667,399.9043,269.8667,403.9043,265.8667,399.9043" style="stroke:#666666;stroke-width:1.0;"/><line style="stroke:#666666;stroke-width:1.0;stroke-dasharray:2.0,2.0;" x1="263.8667" x2="506.4956" y1="399.9043" y2="399.9043"/><text fill="#333333" font-family="sans-serif" font-size="13" lengthAdjust="spacing" textLength="94.4341" x="275.8667" y="395.1621">Confirm freeze</text><path d="M194.7505,414.9043 L256.8892,414.9043 L256.8892,422.2148 L246.8892,432.2148 L194.7505,432.2148 L194.7505,414.9043 " fill="#EEEEEE" style="stroke:#000000;stroke-width:1.5;"/><rect fill="none" height="116.8867" style="stroke:#000000;stroke-width:1.5;" width="312.7451" x="194.7505" y="414.9043"/><text fill="#333333" font-family="sans-serif" font-size="13" font-weight="bold" lengthAdjust="spacing" textLength="17.1387" x="209.7505" y="428.4727">alt</text><text fill="#333333" font-family="sans-serif" font-size="11" font-weight="bold" lengthAdjust="spacing" textLength="106.5732" x="271.8892" y="427.5391">[freeze successful]</text><line style="stroke:#666666;stroke-width:1.0;" x1="258.8667" x2="300.8667" y1="453.5254" y2="453.5254"/><line style="stroke:#666666;stroke-width:1.0;" x1="300.8667" x2="300.8667" y1="453.5254" y2="466.5254"/><line style="stroke:#666666;stroke-width:1.0;" x1="259.8667" x2="300.8667" y1="466.5254" y2="466.5254"/><polygon fill="#666666" points="269.8667,462.5254,259.8667,466.5254,269.8667,470.5254,265.8667,466.5254" style="stroke:#666666;stroke-width:1.0;"/><text fill="#333333" font-family="sans-serif" font-size="13" lengthAdjust="spacing" textLength="133.5928" x="265.8667" y="448.7832">Add to processed list</text><line style="stroke:#000000;stroke-width:1.0;stroke-dasharray:2.0,2.0;" x1="194.7505" x2="507.4956" y1="475.5254" y2="475.5254"/><text fill="#333333" font-family="sans-serif" font-size="11" font-weight="bold" lengthAdjust="spacing" textLength="79.0894" x="199.7505" y="486.1602">[freeze failed]</text><line style="stroke:#666666;stroke-width:1.0;" x1="258.8667" x2="300.8667" y1="510.791" y2="510.791"/><line style="stroke:#666666;stroke-width:1.0;" x1="300.8667" x2="300.8667" y1="510.791" y2="523.791"/><line style="stroke:#666666;stroke-width:1.0;" x1="259.8667" x2="300.8667" y1="523.791" y2="523.791"/><polygon fill="#666666" points="269.8667,519.791,259.8667,523.791,269.8667,527.791,265.8667,523.791" style="stroke:#666666;stroke-width:1.0;"/><text fill="#333333" font-family="sans-serif" font-size="13" lengthAdjust="spacing" textLength="219.6289" x="265.8667" y="506.0488">Add to notProcessed list with error</text><polygon fill="#666666" points="35.1646,563.1016,25.1646,567.1016,35.1646,571.1016,31.1646,567.1016" style="stroke:#666666;stroke-width:1.0;"/><line style="stroke:#666666;stroke-width:1.0;stroke-dasharray:2.0,2.0;" x1="29.1646" x2="252.8667" y1="567.1016" y2="567.1016"/><text fill="#333333" font-family="sans-serif" font-size="13" lengthAdjust="spacing" textLength="157.7646" x="41.1646" y="562.3594">Return BlacklistResponse</text><text fill="#333333" font-family="sans-serif" font-size="10" lengthAdjust="spacing" textLength="155.4346" x="0" y="657.2578">Last Modified On: 24-Feb-2025</text><!--SRC=[fLJVYnCn47xFNp5Kn1OiY8987uJRBgiFbYjt9mZYGxgPsD0qMPBP-oN-xqxIlNNth9JJG7UPoJVVp7mxqxWphf51xc4Zwzttu5kdbjxw0C-gLzMxgXAnHoZKihLKUKSTv4q-0uWCmTzqbs_p4U85bAYDGzZue314q7mhhGMqk4T7SH3Ffg4x-240YemUSx7tSPLbFkAd6B3KN67mzdzf-4ccDerqz6zKGWmf9klNwmd82FmUNvnP30IN6AvDZHcIFPrZZFryzUKSBic70p2PsH9Aajp8Y1saP3FsiB8GWjF2_Fs8UW5dIbtvfNSHNMnZORaPQo9DDVSJPqBMPAubuRWWORrlycT4MMyXOS6u_8wi28pGAMTVvG8-84rhkdq9TFjHnkqiu_iqlzj9xjvA76MnW0g9yr6GBgOGxo1rdR5b0VDnfWkaDhZZw07p7v8SYTiZoJvMuP5oZxOzvbrAMxVs8GostBqufLOL4EynEU91jQ-nGQU-FKssbGoxGr8U1HtyFRg_QCQJe4tOGzjmktXIgWUupcMUK4TQwe0Gsxh667LhyyrfxNXCWJmqmQSuL926DCUYvP7lQBKq5jNJA9sdzOWLRWnj0VcFB1mIE2NIJupfc8yNgf-MVdCkC3PfdSH0Y4VBWvg5y9umm2VUKLXvPRJXzETk0S-JyDE9KlFLQZM_upEPYLy0]--></g></svg>
