<svg contentStyleType="text/css" height="867" preserveAspectRatio="none" viewBox="0 0 962 867" width="962" xmlns="http://www.w3.org/2000/svg" zoomAndPan="magnify"><path d="m0 0h962v867h-962z" fill="#f0f8ff"/><path d="m402.4971 98.7988h10v668.8555h-10z" fill="#fff" stroke="#181818"/><path d="m673.8887 219.041h10v87.9316h-10z" fill="#fff" stroke="#181818"/><path d="m673.8887 505.5254h10v87.9316h-10z" fill="#fff" stroke="#181818"/><path d="m328.3809 113.7988h628.2944v625.5449h-628.2944z" fill="none" stroke="#000" stroke-width="1.5"/><path d="m338.3809 180.4199h608.2944v551.9238h-608.2944z" fill="none" stroke="#000" stroke-width="1.5"/><path d="m348.3809 608.457h312.7451v116.8867h-312.7451z" fill="none" stroke="#000" stroke-width="1.5"/><path d="m24 67.4883v718.166" stroke="#181818" stroke-dasharray="5 5" stroke-width=".5"/><path d="m407.3809 67.4883v718.166" stroke="#181818" stroke-dasharray="5 5" stroke-width=".5"/><path d="m678.1255 67.4883v718.166" stroke="#181818" stroke-dasharray="5 5" stroke-width=".5"/><path d="m899.9888 67.4883v718.166" stroke="#181818" stroke-dasharray="5 5" stroke-width=".5"/><rect fill="#ddd" height="30.4883" rx="2.5" stroke="#666" stroke-width=".5" width="38.3291" x="5" y="36"/><text fill="#333" font-family="sans-serif" font-size="14" lengthAdjust="spacing" textLength="24.3291" x="12" y="56.5352">P2P</text><rect fill="#ddd" height="30.4883" rx="2.5" stroke="#666" stroke-width=".5" width="38.3291" x="5" y="784.6543"/><text fill="#333" font-family="sans-serif" font-size="14" lengthAdjust="spacing" textLength="24.3291" x="12" y="805.1895">P2P</text><rect fill="#ddd" height="30.4883" rx="2.5" stroke="#666" stroke-width=".5" width="98.2324" x="358.3809" y="36"/><text fill="#333" font-family="sans-serif" font-size="14" lengthAdjust="spacing" textLength="84.2324" x="365.3809" y="56.5352">Alert Service</text><rect fill="#ddd" height="30.4883" rx="2.5" stroke="#666" stroke-width=".5" width="98.2324" x="358.3809" y="784.6543"/><text fill="#333" font-family="sans-serif" font-size="14" lengthAdjust="spacing" textLength="84.2324" x="365.3809" y="805.1895">Alert Service</text><rect fill="#ddd" height="30.4883" rx="2.5" stroke="#666" stroke-width=".5" width="91.5264" x="633.1255" y="36"/><text fill="#333" font-family="sans-serif" font-size="14" lengthAdjust="spacing" textLength="77.5264" x="640.1255" y="56.5352">UTXO Store</text><rect fill="#ddd" height="30.4883" rx="2.5" stroke="#666" stroke-width=".5" width="91.5264" x="633.1255" y="784.6543"/><text fill="#333" font-family="sans-serif" font-size="14" lengthAdjust="spacing" textLength="77.5264" x="640.1255" y="805.1895">UTXO Store</text><text fill="#333" font-family="sans-serif" font-size="14" lengthAdjust="spacing" textLength="65.6865" x="864.9888" y="64.5352">Datastore</text><path d="m882.832 15c0-10 18-10 18-10s18 0 18 10v26c0 10-18 10-18 10s-18 0-18-10z" fill="#e2e2f0" stroke="#181818" stroke-width="1.5"/><path d="m882.832 15c0 10 18 10 18 10s18 0 18-10" fill="none" stroke="#181818" stroke-width="1.5"/><text fill="#333" font-family="sans-serif" font-size="14" lengthAdjust="spacing" textLength="65.6865" x="864.9888" y="798.1895">Datastore</text><g stroke="#181818"><path d="m882.832 811.1426c0-10 18-10 18-10s18 0 18 10v26c0 10-18 10-18 10s-18 0-18-10z" fill="#e2e2f0" stroke-width="1.5"/><path d="m882.832 811.1426c0 10 18 10 18 10s18 0 18-10" fill="none" stroke-width="1.5"/><path d="m402.4971 98.7988h10v668.8555h-10z" fill="#fff"/><path d="m673.8887 219.041h10v87.9316h-10z" fill="#fff"/><path d="m673.8887 505.5254h10v87.9316h-10z" fill="#fff"/></g><path d="m390.4971 94.7988 10 4-10 4 4-4z" fill="#666" stroke="#666"/><path d="m24.1646 98.7988h372.3325" stroke="#666"/><text fill="#333" font-family="sans-serif" font-size="13" lengthAdjust="spacing" textLength="276.1611" x="31.1646" y="94.0566">AddToConfiscationTransactionWhitelist(txs)</text><path d="m328.3809 113.7988h74.4467v7.3106l-10 10h-64.4467z" fill="#eee" stroke="#000" stroke-width="1.5"/><path d="m328.3809 113.7988h628.2944v625.5449h-628.2944z" fill="none" stroke="#000" stroke-width="1.5"/><text fill="#333" font-family="sans-serif" font-size="13" font-weight="bold" lengthAdjust="spacing" textLength="29.4468" x="343.3809" y="127.3672">loop</text><text fill="#333" font-family="sans-serif" font-size="11" font-weight="bold" lengthAdjust="spacing" textLength="157.1851" x="417.8276" y="126.4336">[for each transaction in txs]</text><path d="m412.4971 152.4199h42" stroke="#666"/><path d="m454.4971 152.4199v13" stroke="#666"/><path d="m413.4971 165.4199h41" stroke="#666"/><path d="m423.4971 161.4199-10 4 10 4-4-4z" fill="#666" stroke="#666"/><text fill="#333" font-family="sans-serif" font-size="13" lengthAdjust="spacing" textLength="169.9648" x="419.4971" y="147.6777">Parse transaction from hex</text><path d="m338.3809 180.4199h74.4467v7.3106l-10 10h-64.4467z" fill="#eee" stroke="#000" stroke-width="1.5"/><path d="m338.3809 180.4199h608.2944v551.9238h-608.2944z" fill="none" stroke="#000" stroke-width="1.5"/><text fill="#333" font-family="sans-serif" font-size="13" font-weight="bold" lengthAdjust="spacing" textLength="29.4468" x="353.3809" y="193.9883">loop</text><text fill="#333" font-family="sans-serif" font-size="11" font-weight="bold" lengthAdjust="spacing" textLength="169.7803" x="427.8276" y="193.0547">[for each input in transaction]</text><path d="m661.8887 215.041 10 4-10 4 4-4z" fill="#666" stroke="#666"/><path d="m412.4971 219.041h255.3916" stroke="#666"/><text fill="#333" font-family="sans-serif" font-size="13" lengthAdjust="spacing" textLength="146.1484" x="419.4971" y="214.2988">Get(ctx, parentTxHash)</text><path d="m888.832 244.3516 10 4-10 4 4-4z" fill="#666" stroke="#666"/><path d="m683.8887 248.3516h210.9433" stroke="#666"/><text fill="#333" font-family="sans-serif" font-size="13" lengthAdjust="spacing" textLength="184.9644" x="690.8887" y="243.6094">Fetch parent transaction data</text><path d="m694.8887 273.6621-10 4 10 4-4-4z" fill="#666" stroke="#666"/><path d="m688.8887 277.6621h210.9433" stroke="#666" stroke-dasharray="2 2"/><text fill="#333" font-family="sans-serif" font-size="13" lengthAdjust="spacing" textLength="192.9434" x="700.8887" y="272.9199">Return parent transaction data</text><path d="m423.4971 302.9727-10 4 10 4-4-4z" fill="#666" stroke="#666"/><path d="m417.4971 306.9727h260.3916" stroke="#666" stroke-dasharray="2 2"/><text fill="#333" font-family="sans-serif" font-size="13" lengthAdjust="spacing" textLength="224.3643" x="429.4971" y="302.2305">Return parent transaction metadata</text><path d="m412.4971 336.2832h42" stroke="#666"/><path d="m454.4971 336.2832v13" stroke="#666"/><path d="m413.4971 349.2832h41" stroke="#666"/><path d="m423.4971 345.2832-10 4 10 4-4-4z" fill="#666" stroke="#666"/><text fill="#333" font-family="sans-serif" font-size="13" lengthAdjust="spacing" textLength="155.3716" x="419.4971" y="331.541">Calculate old UTXO hash</text><path d="m412.4971 378.5938h42" stroke="#666"/><path d="m454.4971 378.5938v13" stroke="#666"/><path d="m413.4971 391.5938h41" stroke="#666"/><path d="m423.4971 387.5938-10 4 10 4-4-4z" fill="#666" stroke="#666"/><text fill="#333" font-family="sans-serif" font-size="13" lengthAdjust="spacing" textLength="183.752" x="419.4971" y="373.8516">Extract public key from input</text><path d="m412.4971 420.9043h42" stroke="#666"/><path d="m454.4971 420.9043v13" stroke="#666"/><path d="m413.4971 433.9043h41" stroke="#666"/><path d="m423.4971 429.9043-10 4 10 4-4-4z" fill="#666" stroke="#666"/><text fill="#333" font-family="sans-serif" font-size="13" lengthAdjust="spacing" textLength="159.8467" x="419.4971" y="416.1621">Create new locking script</text><path d="m412.4971 463.2148h42" stroke="#666"/><path d="m454.4971 463.2148v13" stroke="#666"/><path d="m413.4971 476.2148h41" stroke="#666"/><path d="m423.4971 472.2148-10 4 10 4-4-4z" fill="#666" stroke="#666"/><text fill="#333" font-family="sans-serif" font-size="13" lengthAdjust="spacing" textLength="160.7734" x="419.4971" y="458.4727">Calculate new UTXO hash</text><path d="m661.8887 501.5254 10 4-10 4 4-4z" fill="#666" stroke="#666"/><path d="m412.4971 505.5254h255.3916" stroke="#666"/><text fill="#333" font-family="sans-serif" font-size="13" lengthAdjust="spacing" textLength="242.3916" x="419.4971" y="500.7832">ReAssignUTXO(ctx, oldUtxo, newUtxo)</text><path d="m888.832 530.8359 10 4-10 4 4-4z" fill="#666" stroke="#666"/><path d="m683.8887 534.8359h210.9433" stroke="#666"/><text fill="#333" font-family="sans-serif" font-size="13" lengthAdjust="spacing" textLength="161.021" x="690.8887" y="530.0938">Update UTXO assignment</text><path d="m694.8887 560.1465-10 4 10 4-4-4z" fill="#666" stroke="#666"/><path d="m688.8887 564.1465h210.9433" stroke="#666" stroke-dasharray="2 2"/><text fill="#333" font-family="sans-serif" font-size="13" lengthAdjust="spacing" textLength="98.8711" x="700.8887" y="559.4043">Confirm update</text><path d="m423.4971 589.457-10 4 10 4-4-4z" fill="#666" stroke="#666"/><path d="m417.4971 593.457h260.3916" stroke="#666" stroke-dasharray="2 2"/><text fill="#333" font-family="sans-serif" font-size="13" lengthAdjust="spacing" textLength="140.3911" x="429.4971" y="588.7148">Confirm reassignment</text><path d="m348.3809 608.457h62.1386v7.3106l-10 10h-52.1386z" fill="#eee" stroke="#000" stroke-width="1.5"/><path d="m348.3809 608.457h312.7451v116.8867h-312.7451z" fill="none" stroke="#000" stroke-width="1.5"/><text fill="#333" font-family="sans-serif" font-size="13" font-weight="bold" lengthAdjust="spacing" textLength="17.1387" x="363.3809" y="622.0254">alt</text><text fill="#333" font-family="sans-serif" font-size="11" font-weight="bold" lengthAdjust="spacing" textLength="148.3818" x="425.5195" y="621.0918">[reassignment successful]</text><path d="m412.4971 647.0781h42" stroke="#666"/><path d="m454.4971 647.0781v13" stroke="#666"/><path d="m413.4971 660.0781h41" stroke="#666"/><path d="m423.4971 656.0781-10 4 10 4-4-4z" fill="#666" stroke="#666"/><text fill="#333" font-family="sans-serif" font-size="13" lengthAdjust="spacing" textLength="133.5928" x="419.4971" y="642.3359">Add to processed list</text><path d="m348.3809 669.0781h312.7451" stroke="#000" stroke-dasharray="2 2"/><text fill="#333" font-family="sans-serif" font-size="11" font-weight="bold" lengthAdjust="spacing" textLength="120.8979" x="353.3809" y="679.7129">[reassignment failed]</text><path d="m412.4971 704.3438h42" stroke="#666"/><path d="m454.4971 704.3438v13" stroke="#666"/><path d="m413.4971 717.3438h41" stroke="#666"/><path d="m423.4971 713.3438-10 4 10 4-4-4z" fill="#666" stroke="#666"/><text fill="#333" font-family="sans-serif" font-size="13" lengthAdjust="spacing" textLength="219.6289" x="419.4971" y="699.6016">Add to notProcessed list with error</text><path d="m35.1646 763.6543-10 4 10 4-4-4z" fill="#666" stroke="#666"/><path d="m29.1646 767.6543h377.3325" stroke="#666" stroke-dasharray="2 2"/><text fill="#333" font-family="sans-serif" font-size="13" lengthAdjust="spacing" textLength="354.3325" x="41.1646" y="762.9121">Return AddToConfiscationTransactionWhitelistResponse</text><text fill="#333" font-family="sans-serif" font-size="10" lengthAdjust="spacing" textLength="155.4346" y="857.8105">Last Modified On: 24-Feb-2025</text></svg>
