<svg contentStyleType="text/css" height="667" preserveAspectRatio="none" viewBox="0 0 757 667" width="757" xmlns="http://www.w3.org/2000/svg" zoomAndPan="magnify"><path d="m0 0h757v667h-757z" fill="#f0f8ff"/><path d="m248.8667 98.7988h10v468.3027h-10z" fill="#fff" stroke="#181818"/><path d="m502.4956 152.4199h10v87.9316h-10z" fill="#fff" stroke="#181818"/><path d="m502.4956 311.9727h10v87.9316h-10z" fill="#fff" stroke="#181818"/><path d="m184.7505 113.7988h566.876v424.9922h-566.876z" fill="none" stroke="#000" stroke-width="1.5"/><path d="m194.7505 414.9043h312.7451v116.8867h-312.7451z" fill="none" stroke="#000" stroke-width="1.5"/><path d="m24 67.4883v517.6133" stroke="#181818" stroke-dasharray="5 5" stroke-width=".5"/><path d="m253.7505 67.4883v517.6133" stroke="#181818" stroke-dasharray="5 5" stroke-width=".5"/><path d="m506.7324 67.4883v517.6133" stroke="#181818" stroke-dasharray="5 5" stroke-width=".5"/><path d="m684.3179 67.4883v517.6133" stroke="#181818" stroke-dasharray="5 5" stroke-width=".5"/><rect fill="#ddd" height="30.4883" rx="2.5" stroke="#666" stroke-width=".5" width="38.3291" x="5" y="36"/><text fill="#333" font-family="sans-serif" font-size="14" lengthAdjust="spacing" textLength="24.3291" x="12" y="56.5352">P2P</text><rect fill="#ddd" height="30.4883" rx="2.5" stroke="#666" stroke-width=".5" width="38.3291" x="5" y="584.1016"/><text fill="#333" font-family="sans-serif" font-size="14" lengthAdjust="spacing" textLength="24.3291" x="12" y="604.6367">P2P</text><rect fill="#ddd" height="30.4883" rx="2.5" stroke="#666" stroke-width=".5" width="98.2324" x="204.7505" y="36"/><text fill="#333" font-family="sans-serif" font-size="14" lengthAdjust="spacing" textLength="84.2324" x="211.7505" y="56.5352">Alert Service</text><rect fill="#ddd" height="30.4883" rx="2.5" stroke="#666" stroke-width=".5" width="98.2324" x="204.7505" y="584.1016"/><text fill="#333" font-family="sans-serif" font-size="14" lengthAdjust="spacing" textLength="84.2324" x="211.7505" y="604.6367">Alert Service</text><rect fill="#ddd" height="30.4883" rx="2.5" stroke="#666" stroke-width=".5" width="91.5264" x="461.7324" y="36"/><text fill="#333" font-family="sans-serif" font-size="14" lengthAdjust="spacing" textLength="77.5264" x="468.7324" y="56.5352">UTXO Store</text><rect fill="#ddd" height="30.4883" rx="2.5" stroke="#666" stroke-width=".5" width="91.5264" x="461.7324" y="584.1016"/><text fill="#333" font-family="sans-serif" font-size="14" lengthAdjust="spacing" textLength="77.5264" x="468.7324" y="604.6367">UTXO Store</text><text fill="#333" font-family="sans-serif" font-size="14" lengthAdjust="spacing" textLength="108.3086" x="627.3179" y="64.5352">UTXO Datastore</text><path d="m666.4722 15c0-10 18-10 18-10s18 0 18 10v26c0 10-18 10-18 10s-18 0-18-10z" fill="#e2e2f0" stroke="#181818" stroke-width="1.5"/><path d="m666.4722 15c0 10 18 10 18 10s18 0 18-10" fill="none" stroke="#181818" stroke-width="1.5"/><text fill="#333" font-family="sans-serif" font-size="14" lengthAdjust="spacing" textLength="108.3086" x="627.3179" y="597.6367">UTXO Datastore</text><g stroke="#181818"><path d="m666.4722 610.5898c0-10 18-10 18-10s18 0 18 10v26c0 10-18 10-18 10s-18 0-18-10z" fill="#e2e2f0" stroke-width="1.5"/><path d="m666.4722 610.5898c0 10 18 10 18 10s18 0 18-10" fill="none" stroke-width="1.5"/><path d="m248.8667 98.7988h10v468.3027h-10z" fill="#fff"/><path d="m502.4956 152.4199h10v87.9316h-10z" fill="#fff"/><path d="m502.4956 311.9727h10v87.9316h-10z" fill="#fff"/></g><path d="m236.8667 94.7988 10 4-10 4 4-4z" fill="#666" stroke="#666"/><path d="m24.1646 98.7988h218.7021" stroke="#666"/><text fill="#333" font-family="sans-serif" font-size="13" lengthAdjust="spacing" textLength="205.7021" x="31.1646" y="94.0566">AddToConsensusBlacklist(funds)</text><path d="m184.7505 113.7988h74.4468v7.3106l-10 10h-64.4468z" fill="#eee" stroke="#000" stroke-width="1.5"/><path d="m184.7505 113.7988h566.876v424.9922h-566.876z" fill="none" stroke="#000" stroke-width="1.5"/><text fill="#333" font-family="sans-serif" font-size="13" font-weight="bold" lengthAdjust="spacing" textLength="29.4468" x="199.7505" y="127.3672">loop</text><text fill="#333" font-family="sans-serif" font-size="11" font-weight="bold" lengthAdjust="spacing" textLength="134.8467" x="274.1973" y="126.4336">[for each fund in funds]</text><path d="m490.4956 148.4199 10 4-10 4 4-4z" fill="#666" stroke="#666"/><path d="m258.8667 152.4199h237.6289" stroke="#666"/><text fill="#333" font-family="sans-serif" font-size="13" lengthAdjust="spacing" textLength="101.937" x="265.8667" y="147.6777">Get(ctx, txHash)</text><path d="m672.4722 177.7305 10 4-10 4 4-4z" fill="#666" stroke="#666"/><path d="m512.4956 181.7305h165.9766" stroke="#666"/><text fill="#333" font-family="sans-serif" font-size="13" lengthAdjust="spacing" textLength="139.9976" x="519.4956" y="176.9883">Fetch transaction data</text><path d="m523.4956 207.041-10 4 10 4-4-4z" fill="#666" stroke="#666"/><path d="m517.4956 211.041h165.9766" stroke="#666" stroke-dasharray="2 2"/><text fill="#333" font-family="sans-serif" font-size="13" lengthAdjust="spacing" textLength="147.9766" x="529.4956" y="206.2988">Return transaction data</text><path d="m269.8667 236.3516-10 4 10 4-4-4z" fill="#666" stroke="#666"/><path d="m263.8667 240.3516h242.6289" stroke="#666" stroke-dasharray="2 2"/><text fill="#333" font-family="sans-serif" font-size="13" lengthAdjust="spacing" textLength="179.3975" x="275.8667" y="235.6094">Return transaction metadata</text><path d="m258.8667 269.6621h42" stroke="#666"/><path d="m300.8667 269.6621v13" stroke="#666"/><path d="m259.8667 282.6621h41" stroke="#666"/><path d="m269.8667 278.6621-10 4 10 4-4-4z" fill="#666" stroke="#666"/><text fill="#333" font-family="sans-serif" font-size="13" lengthAdjust="spacing" textLength="131.333" x="265.8667" y="264.9199">Calculate UTXO hash</text><path d="m490.4956 307.9727 10 4-10 4 4-4z" fill="#666" stroke="#666"/><path d="m258.8667 311.9727h237.6289" stroke="#666"/><text fill="#333" font-family="sans-serif" font-size="13" lengthAdjust="spacing" textLength="166.4927" x="265.8667" y="307.2305">FreezeUTXOs(ctx, [spend])</text><path d="m672.4722 337.2832 10 4-10 4 4-4z" fill="#666" stroke="#666"/><path d="m512.4956 341.2832h165.9766" stroke="#666"/><text fill="#333" font-family="sans-serif" font-size="13" lengthAdjust="spacing" textLength="133.7515" x="519.4956" y="336.541">Mark UTXO as frozen</text><path d="m523.4956 366.5938-10 4 10 4-4-4z" fill="#666" stroke="#666"/><path d="m517.4956 370.5938h165.9766" stroke="#666" stroke-dasharray="2 2"/><text fill="#333" font-family="sans-serif" font-size="13" lengthAdjust="spacing" textLength="98.8711" x="529.4956" y="365.8516">Confirm update</text><path d="m269.8667 395.9043-10 4 10 4-4-4z" fill="#666" stroke="#666"/><path d="m263.8667 399.9043h242.6289" stroke="#666" stroke-dasharray="2 2"/><text fill="#333" font-family="sans-serif" font-size="13" lengthAdjust="spacing" textLength="94.4341" x="275.8667" y="395.1621">Confirm freeze</text><path d="m194.7505 414.9043h62.1387v7.3105l-10 10h-52.1387z" fill="#eee" stroke="#000" stroke-width="1.5"/><path d="m194.7505 414.9043h312.7451v116.8867h-312.7451z" fill="none" stroke="#000" stroke-width="1.5"/><text fill="#333" font-family="sans-serif" font-size="13" font-weight="bold" lengthAdjust="spacing" textLength="17.1387" x="209.7505" y="428.4727">alt</text><text fill="#333" font-family="sans-serif" font-size="11" font-weight="bold" lengthAdjust="spacing" textLength="106.5732" x="271.8892" y="427.5391">[freeze successful]</text><path d="m258.8667 453.5254h42" stroke="#666"/><path d="m300.8667 453.5254v13" stroke="#666"/><path d="m259.8667 466.5254h41" stroke="#666"/><path d="m269.8667 462.5254-10 4 10 4-4-4z" fill="#666" stroke="#666"/><text fill="#333" font-family="sans-serif" font-size="13" lengthAdjust="spacing" textLength="133.5928" x="265.8667" y="448.7832">Add to processed list</text><path d="m194.7505 475.5254h312.7451" stroke="#000" stroke-dasharray="2 2"/><text fill="#333" font-family="sans-serif" font-size="11" font-weight="bold" lengthAdjust="spacing" textLength="79.0894" x="199.7505" y="486.1602">[freeze failed]</text><path d="m258.8667 510.791h42" stroke="#666"/><path d="m300.8667 510.791v13" stroke="#666"/><path d="m259.8667 523.791h41" stroke="#666"/><path d="m269.8667 519.791-10 4 10 4-4-4z" fill="#666" stroke="#666"/><text fill="#333" font-family="sans-serif" font-size="13" lengthAdjust="spacing" textLength="219.6289" x="265.8667" y="506.0488">Add to notProcessed list with error</text><path d="m35.1646 563.1016-10 4 10 4-4-4z" fill="#666" stroke="#666"/><path d="m29.1646 567.1016h223.7021" stroke="#666" stroke-dasharray="2 2"/><text fill="#333" font-family="sans-serif" font-size="13" lengthAdjust="spacing" textLength="157.7646" x="41.1646" y="562.3594">Return BlacklistResponse</text><text fill="#333" font-family="sans-serif" font-size="10" lengthAdjust="spacing" textLength="155.4346" y="657.2578">Last Modified On: 24-Feb-2025</text></svg>
