<?xml version="1.0" encoding="us-ascii" standalone="no"?><svg xmlns="http://www.w3.org/2000/svg" xmlns:xlink="http://www.w3.org/1999/xlink" contentStyleType="text/css" height="432px" preserveAspectRatio="none" style="width:768px;height:432px;background:#FFFFFF;" version="1.1" viewBox="0 0 768 432" width="768px" zoomAndPan="magnify"><defs/><g><rect fill="#FFFFFF" height="205.1738" style="stroke:#181818;stroke-width:1.0;" width="10" x="62" y="150.7305"/><rect fill="#FFFFFF" height="303.1055" style="stroke:#181818;stroke-width:1.0;" width="10" x="204" y="67.7988"/><rect fill="#FFFFFF" height="50.6211" style="stroke:#181818;stroke-width:1.0;" width="10" x="441" y="46.4883"/><rect fill="#FFFFFF" height="146.5527" style="stroke:#181818;stroke-width:1.0;" width="10" x="441" y="180.041"/><rect fill="#FFFFFF" height="29.3105" style="stroke:#181818;stroke-width:1.0;" width="10" x="625" y="209.3516"/><rect fill="#FFFFFF" height="29.3105" style="stroke:#181818;stroke-width:1.0;" width="10" x="709" y="267.9727"/><rect fill="none" height="251.7949" style="stroke:#000000;stroke-width:1.5;" width="752" x="10" y="112.1094"/><line style="stroke:#181818;stroke-width:0.5;stroke-dasharray:5.0,5.0;" x1="67" x2="67" y1="36.4883" y2="380.9043"/><line style="stroke:#181818;stroke-width:0.5;stroke-dasharray:5.0,5.0;" x1="208.5" x2="208.5" y1="36.4883" y2="380.9043"/><line style="stroke:#181818;stroke-width:0.5;stroke-dasharray:5.0,5.0;" x1="445.5" x2="445.5" y1="36.4883" y2="380.9043"/><line style="stroke:#181818;stroke-width:0.5;stroke-dasharray:5.0,5.0;" x1="630" x2="630" y1="36.4883" y2="380.9043"/><line style="stroke:#181818;stroke-width:0.5;stroke-dasharray:5.0,5.0;" x1="714" x2="714" y1="36.4883" y2="380.9043"/><rect fill="#E2E2F0" height="30.4883" rx="2.5" ry="2.5" style="stroke:#181818;stroke-width:0.5;" width="94" x="20" y="5"/><text fill="#000000" font-family="sans-serif" font-size="14" lengthAdjust="spacing" textLength="80" x="27" y="25.5352">HTTP Client</text><rect fill="#E2E2F0" height="30.4883" rx="2.5" ry="2.5" style="stroke:#181818;stroke-width:0.5;" width="94" x="20" y="379.9043"/><text fill="#000000" font-family="sans-serif" font-size="14" lengthAdjust="spacing" textLength="80" x="27" y="400.4395">HTTP Client</text><rect fill="#E2E2F0" height="30.4883" rx="2.5" ry="2.5" style="stroke:#181818;stroke-width:0.5;" width="97" x="160.5" y="5"/><text fill="#000000" font-family="sans-serif" font-size="14" lengthAdjust="spacing" textLength="83" x="167.5" y="25.5352">HTTP Server</text><rect fill="#E2E2F0" height="30.4883" rx="2.5" ry="2.5" style="stroke:#181818;stroke-width:0.5;" width="97" x="160.5" y="379.9043"/><text fill="#000000" font-family="sans-serif" font-size="14" lengthAdjust="spacing" textLength="83" x="167.5" y="400.4395">HTTP Server</text><rect fill="#E2E2F0" height="30.4883" rx="2.5" ry="2.5" style="stroke:#181818;stroke-width:0.5;" width="145" x="373.5" y="5"/><text fill="#000000" font-family="sans-serif" font-size="14" lengthAdjust="spacing" textLength="131" x="380.5" y="25.5352">Propagation Server</text><rect fill="#E2E2F0" height="30.4883" rx="2.5" ry="2.5" style="stroke:#181818;stroke-width:0.5;" width="145" x="373.5" y="379.9043"/><text fill="#000000" font-family="sans-serif" font-size="14" lengthAdjust="spacing" textLength="131" x="380.5" y="400.4395">Propagation Server</text><rect fill="#E2E2F0" height="30.4883" rx="2.5" ry="2.5" style="stroke:#181818;stroke-width:0.5;" width="72" x="594" y="5"/><text fill="#000000" font-family="sans-serif" font-size="14" lengthAdjust="spacing" textLength="58" x="601" y="25.5352">Tx Store</text><rect fill="#E2E2F0" height="30.4883" rx="2.5" ry="2.5" style="stroke:#181818;stroke-width:0.5;" width="72" x="594" y="379.9043"/><text fill="#000000" font-family="sans-serif" font-size="14" lengthAdjust="spacing" textLength="58" x="601" y="400.4395">Tx Store</text><rect fill="#E2E2F0" height="30.4883" rx="2.5" ry="2.5" style="stroke:#181818;stroke-width:0.5;" width="76" x="676" y="5"/><text fill="#000000" font-family="sans-serif" font-size="14" lengthAdjust="spacing" textLength="62" x="683" y="25.5352">Validator</text><rect fill="#E2E2F0" height="30.4883" rx="2.5" ry="2.5" style="stroke:#181818;stroke-width:0.5;" width="76" x="676" y="379.9043"/><text fill="#000000" font-family="sans-serif" font-size="14" lengthAdjust="spacing" textLength="62" x="683" y="400.4395">Validator</text><rect fill="#FFFFFF" height="205.1738" style="stroke:#181818;stroke-width:1.0;" width="10" x="62" y="150.7305"/><rect fill="#FFFFFF" height="303.1055" style="stroke:#181818;stroke-width:1.0;" width="10" x="204" y="67.7988"/><rect fill="#FFFFFF" height="50.6211" style="stroke:#181818;stroke-width:1.0;" width="10" x="441" y="46.4883"/><rect fill="#FFFFFF" height="146.5527" style="stroke:#181818;stroke-width:1.0;" width="10" x="441" y="180.041"/><rect fill="#FFFFFF" height="29.3105" style="stroke:#181818;stroke-width:1.0;" width="10" x="625" y="209.3516"/><rect fill="#FFFFFF" height="29.3105" style="stroke:#181818;stroke-width:1.0;" width="10" x="709" y="267.9727"/><polygon fill="#181818" points="225,63.7988,215,67.7988,225,71.7988,221,67.7988" style="stroke:#181818;stroke-width:1.0;"/><line style="stroke:#181818;stroke-width:1.0;" x1="219" x2="440" y1="67.7988" y2="67.7988"/><text fill="#000000" font-family="sans-serif" font-size="13" lengthAdjust="spacing" textLength="198" x="231" y="63.0566">StartHTTPServer(ctx, serverURL)</text><polygon fill="#181818" points="434,93.1094,444,97.1094,434,101.1094,438,97.1094" style="stroke:#181818;stroke-width:1.0;"/><line style="stroke:#181818;stroke-width:1.0;stroke-dasharray:2.0,2.0;" x1="214" x2="440" y1="97.1094" y2="97.1094"/><text fill="#000000" font-family="sans-serif" font-size="13" lengthAdjust="spacing" textLength="123" x="221" y="92.3672">HTTP Server started</text><path d="M10,112.1094 L84,112.1094 L84,119.4199 L74,129.4199 L10,129.4199 L10,112.1094 " fill="#EEEEEE" style="stroke:#000000;stroke-width:1.5;"/><rect fill="none" height="251.7949" style="stroke:#000000;stroke-width:1.5;" width="752" x="10" y="112.1094"/><text fill="#000000" font-family="sans-serif" font-size="13" font-weight="bold" lengthAdjust="spacing" textLength="29" x="25" y="125.6777">loop</text><text fill="#000000" font-family="sans-serif" font-size="11" font-weight="bold" lengthAdjust="spacing" textLength="143" x="99" y="124.7441">[HTTP Request Handling]</text><polygon fill="#181818" points="192,146.7305,202,150.7305,192,154.7305,196,150.7305" style="stroke:#181818;stroke-width:1.0;"/><line style="stroke:#181818;stroke-width:1.0;" x1="72" x2="198" y1="150.7305" y2="150.7305"/><text fill="#000000" font-family="sans-serif" font-size="13" lengthAdjust="spacing" textLength="113" x="79" y="145.9883">Send request (/tx)</text><polygon fill="#181818" points="429,176.041,439,180.041,429,184.041,433,180.041" style="stroke:#181818;stroke-width:1.0;"/><line style="stroke:#181818;stroke-width:1.0;" x1="214" x2="435" y1="180.041" y2="180.041"/><text fill="#000000" font-family="sans-serif" font-size="13" lengthAdjust="spacing" textLength="208" x="221" y="175.2988">ProcessTransaction(ctx, Request)</text><polygon fill="#181818" points="613,205.3516,623,209.3516,613,213.3516,617,209.3516" style="stroke:#181818;stroke-width:1.0;"/><line style="stroke:#181818;stroke-width:1.0;" x1="451" x2="619" y1="209.3516" y2="209.3516"/><text fill="#000000" font-family="sans-serif" font-size="13" lengthAdjust="spacing" textLength="155" x="458" y="204.6094">storeTransaction(ctx, tx)</text><polygon fill="#181818" points="462,234.6621,452,238.6621,462,242.6621,458,238.6621" style="stroke:#181818;stroke-width:1.0;"/><line style="stroke:#181818;stroke-width:1.0;stroke-dasharray:2.0,2.0;" x1="456" x2="629" y1="238.6621" y2="238.6621"/><text fill="#000000" font-family="sans-serif" font-size="13" lengthAdjust="spacing" textLength="25" x="468" y="233.9199">txId</text><polygon fill="#181818" points="697,263.9727,707,267.9727,697,271.9727,701,267.9727" style="stroke:#181818;stroke-width:1.0;"/><line style="stroke:#181818;stroke-width:1.0;" x1="451" x2="703" y1="267.9727" y2="267.9727"/><text fill="#000000" font-family="sans-serif" font-size="13" lengthAdjust="spacing" textLength="99" x="458" y="263.2305">Validate(ctx, tx)</text><polygon fill="#181818" points="462,293.2832,452,297.2832,462,301.2832,458,297.2832" style="stroke:#181818;stroke-width:1.0;"/><line style="stroke:#181818;stroke-width:1.0;stroke-dasharray:2.0,2.0;" x1="456" x2="713" y1="297.2832" y2="297.2832"/><text fill="#000000" font-family="sans-serif" font-size="13" lengthAdjust="spacing" textLength="102" x="468" y="292.541">ValidationResult</text><polygon fill="#181818" points="225,322.5938,215,326.5938,225,330.5938,221,326.5938" style="stroke:#181818;stroke-width:1.0;"/><line style="stroke:#181818;stroke-width:1.0;stroke-dasharray:2.0,2.0;" x1="219" x2="445" y1="326.5938" y2="326.5938"/><text fill="#000000" font-family="sans-serif" font-size="13" lengthAdjust="spacing" textLength="142" x="231" y="321.8516">Transaction processed</text><polygon fill="#181818" points="78,351.9043,68,355.9043,78,359.9043,74,355.9043" style="stroke:#181818;stroke-width:1.0;"/><line style="stroke:#181818;stroke-width:1.0;" x1="72" x2="203" y1="355.9043" y2="355.9043"/><text fill="#000000" font-family="sans-serif" font-size="13" lengthAdjust="spacing" textLength="60" x="84" y="351.1621">Response</text><text fill="#888888" font-family="sans-serif" font-size="10" lengthAdjust="spacing" textLength="157" x="0" y="422.0605">Last Modified On: 28-May-2024</text><!--SRC=[TL9DQyCm3BtxLuYUMbZOA3kC77RPfOEMbJRRtSHgCGJRYzMI_VlvAurJRxb4bfwVdfviU4-obOOhWiMcQVRmrabKj01kKyXCWJbYVyK-OFnvZjZtsl0p9wbL3epX7DeCS2JTOm0qGuZdY2_UIS5TFa3IoJ5xDjaYOxmbUUM48pzZCO3gDMYhNGT7wCDOMBOqF80DyUTXkveOmYXXlifTZkWQie71UYeKJ63HjjFQHEm1loze2JPSYKwgCmFtHIipKQW4z0cvVAHX5M0tscIzpqL5ao3dRulMDZrNrkErYYEbldT4IP_FJSOagsitaFiLJ8MQSJK-cUAPHpIyYr3CZCdlJ9sB3TPZ2l_fNUxSbuliJCzKFQ2zT7IlxM_EKULjIPanOABhMCoP6JnkAYwlTXknHYkBzrVISjqJOFbJ2k-FTNWYE6bDJigMkzUnqqAU90huK3MiNweT_wdMJ-jdzWi0]--></g></svg>
