<?xml version="1.0" encoding="us-ascii" standalone="no"?><svg xmlns="http://www.w3.org/2000/svg" xmlns:xlink="http://www.w3.org/1999/xlink" contentStyleType="text/css" height="736px" preserveAspectRatio="none" style="width:1075px;height:736px;background:#FFFFFF;" version="1.1" viewBox="0 0 1075 736" width="1075px" zoomAndPan="magnify"><defs/><g><rect fill="#FFFFFF" height="636.832" style="stroke:#181818;stroke-width:1.0;" width="10" x="72.5" y="46.4883"/><rect fill="#FFFFFF" height="29.3105" style="stroke:#181818;stroke-width:1.0;" width="10" x="475.5" y="126.4199"/><rect fill="#FFFFFF" height="29.3105" style="stroke:#181818;stroke-width:1.0;" width="10" x="592" y="243.6621"/><rect fill="#FFFFFF" height="29.3105" style="stroke:#181818;stroke-width:1.0;" width="10" x="699.5" y="360.9043"/><rect fill="#FFFFFF" height="29.3105" style="stroke:#181818;stroke-width:1.0;" width="10" x="805" y="478.1465"/><rect fill="#FFFFFF" height="29.3105" style="stroke:#181818;stroke-width:1.0;" width="10" x="909.5" y="595.3887"/><rect fill="#FFFFFF" height="29.3105" style="stroke:#181818;stroke-width:1.0;" width="10" x="1016" y="654.0098"/><line style="stroke:#181818;stroke-width:0.5;stroke-dasharray:5.0,5.0;" x1="77" x2="77" y1="36.4883" y2="701.3203"/><line style="stroke:#181818;stroke-width:0.5;stroke-dasharray:5.0,5.0;" x1="331.5" x2="331.5" y1="36.4883" y2="701.3203"/><line style="stroke:#181818;stroke-width:0.5;stroke-dasharray:5.0,5.0;" x1="480.5" x2="480.5" y1="36.4883" y2="701.3203"/><line style="stroke:#181818;stroke-width:0.5;stroke-dasharray:5.0,5.0;" x1="596.5" x2="596.5" y1="36.4883" y2="701.3203"/><line style="stroke:#181818;stroke-width:0.5;stroke-dasharray:5.0,5.0;" x1="704.5" x2="704.5" y1="36.4883" y2="701.3203"/><line style="stroke:#181818;stroke-width:0.5;stroke-dasharray:5.0,5.0;" x1="809.5" x2="809.5" y1="36.4883" y2="701.3203"/><line style="stroke:#181818;stroke-width:0.5;stroke-dasharray:5.0,5.0;" x1="914.5" x2="914.5" y1="36.4883" y2="701.3203"/><line style="stroke:#181818;stroke-width:0.5;stroke-dasharray:5.0,5.0;" x1="1020.5" x2="1020.5" y1="36.4883" y2="701.3203"/><rect fill="#E2E2F0" height="30.4883" rx="2.5" ry="2.5" style="stroke:#181818;stroke-width:0.5;" width="145" x="5" y="5"/><text fill="#000000" font-family="sans-serif" font-size="14" lengthAdjust="spacing" textLength="131" x="12" y="25.5352">Propagation Server</text><rect fill="#E2E2F0" height="30.4883" rx="2.5" ry="2.5" style="stroke:#181818;stroke-width:0.5;" width="145" x="5" y="700.3203"/><text fill="#000000" font-family="sans-serif" font-size="14" lengthAdjust="spacing" textLength="131" x="12" y="720.8555">Propagation Server</text><rect fill="#E2E2F0" height="30.4883" rx="2.5" ry="2.5" style="stroke:#181818;stroke-width:0.5;" width="162" x="250.5" y="5"/><text fill="#000000" font-family="sans-serif" font-size="14" lengthAdjust="spacing" textLength="148" x="257.5" y="25.5352">Configuration System</text><rect fill="#E2E2F0" height="30.4883" rx="2.5" ry="2.5" style="stroke:#181818;stroke-width:0.5;" width="162" x="250.5" y="700.3203"/><text fill="#000000" font-family="sans-serif" font-size="14" lengthAdjust="spacing" textLength="148" x="257.5" y="720.8555">Configuration System</text><rect fill="#E2E2F0" height="30.4883" rx="2.5" ry="2.5" style="stroke:#181818;stroke-width:0.5;" width="116" x="422.5" y="5"/><text fill="#000000" font-family="sans-serif" font-size="14" lengthAdjust="spacing" textLength="102" x="429.5" y="25.5352">UDP6 Listeners</text><rect fill="#E2E2F0" height="30.4883" rx="2.5" ry="2.5" style="stroke:#181818;stroke-width:0.5;" width="116" x="422.5" y="700.3203"/><text fill="#000000" font-family="sans-serif" font-size="14" lengthAdjust="spacing" textLength="102" x="429.5" y="720.8555">UDP6 Listeners</text><rect fill="#E2E2F0" height="30.4883" rx="2.5" ry="2.5" style="stroke:#181818;stroke-width:0.5;" width="97" x="548.5" y="5"/><text fill="#000000" font-family="sans-serif" font-size="14" lengthAdjust="spacing" textLength="83" x="555.5" y="25.5352">HTTP Server</text><rect fill="#E2E2F0" height="30.4883" rx="2.5" ry="2.5" style="stroke:#181818;stroke-width:0.5;" width="97" x="548.5" y="700.3203"/><text fill="#000000" font-family="sans-serif" font-size="14" lengthAdjust="spacing" textLength="83" x="555.5" y="720.8555">HTTP Server</text><rect fill="#E2E2F0" height="30.4883" rx="2.5" ry="2.5" style="stroke:#181818;stroke-width:0.5;" width="98" x="655.5" y="5"/><text fill="#000000" font-family="sans-serif" font-size="14" lengthAdjust="spacing" textLength="84" x="662.5" y="25.5352">DRPC Server</text><rect fill="#E2E2F0" height="30.4883" rx="2.5" ry="2.5" style="stroke:#181818;stroke-width:0.5;" width="98" x="655.5" y="700.3203"/><text fill="#000000" font-family="sans-serif" font-size="14" lengthAdjust="spacing" textLength="84" x="662.5" y="720.8555">DRPC Server</text><rect fill="#E2E2F0" height="30.4883" rx="2.5" ry="2.5" style="stroke:#181818;stroke-width:0.5;" width="93" x="763.5" y="5"/><text fill="#000000" font-family="sans-serif" font-size="14" lengthAdjust="spacing" textLength="79" x="770.5" y="25.5352">fRPC Server</text><rect fill="#E2E2F0" height="30.4883" rx="2.5" ry="2.5" style="stroke:#181818;stroke-width:0.5;" width="93" x="763.5" y="700.3203"/><text fill="#000000" font-family="sans-serif" font-size="14" lengthAdjust="spacing" textLength="79" x="770.5" y="720.8555">fRPC Server</text><rect fill="#E2E2F0" height="30.4883" rx="2.5" ry="2.5" style="stroke:#181818;stroke-width:0.5;" width="96" x="866.5" y="5"/><text fill="#000000" font-family="sans-serif" font-size="14" lengthAdjust="spacing" textLength="82" x="873.5" y="25.5352">QUIC Server</text><rect fill="#E2E2F0" height="30.4883" rx="2.5" ry="2.5" style="stroke:#181818;stroke-width:0.5;" width="96" x="866.5" y="700.3203"/><text fill="#000000" font-family="sans-serif" font-size="14" lengthAdjust="spacing" textLength="82" x="873.5" y="720.8555">QUIC Server</text><rect fill="#E2E2F0" height="30.4883" rx="2.5" ry="2.5" style="stroke:#181818;stroke-width:0.5;" width="97" x="972.5" y="5"/><text fill="#000000" font-family="sans-serif" font-size="14" lengthAdjust="spacing" textLength="83" x="979.5" y="25.5352">gRPC Server</text><rect fill="#E2E2F0" height="30.4883" rx="2.5" ry="2.5" style="stroke:#181818;stroke-width:0.5;" width="97" x="972.5" y="700.3203"/><text fill="#000000" font-family="sans-serif" font-size="14" lengthAdjust="spacing" textLength="83" x="979.5" y="720.8555">gRPC Server</text><rect fill="#FFFFFF" height="636.832" style="stroke:#181818;stroke-width:1.0;" width="10" x="72.5" y="46.4883"/><rect fill="#FFFFFF" height="29.3105" style="stroke:#181818;stroke-width:1.0;" width="10" x="475.5" y="126.4199"/><rect fill="#FFFFFF" height="29.3105" style="stroke:#181818;stroke-width:1.0;" width="10" x="592" y="243.6621"/><rect fill="#FFFFFF" height="29.3105" style="stroke:#181818;stroke-width:1.0;" width="10" x="699.5" y="360.9043"/><rect fill="#FFFFFF" height="29.3105" style="stroke:#181818;stroke-width:1.0;" width="10" x="805" y="478.1465"/><rect fill="#FFFFFF" height="29.3105" style="stroke:#181818;stroke-width:1.0;" width="10" x="909.5" y="595.3887"/><rect fill="#FFFFFF" height="29.3105" style="stroke:#181818;stroke-width:1.0;" width="10" x="1016" y="654.0098"/><polygon fill="#181818" points="319.5,63.7988,329.5,67.7988,319.5,71.7988,323.5,67.7988" style="stroke:#181818;stroke-width:1.0;"/><line style="stroke:#181818;stroke-width:1.0;" x1="82.5" x2="325.5" y1="67.7988" y2="67.7988"/><text fill="#000000" font-family="sans-serif" font-size="13" lengthAdjust="spacing" textLength="122" x="89.5" y="63.0566">Get ipv6_addresses</text><polygon fill="#181818" points="93.5,93.1094,83.5,97.1094,93.5,101.1094,89.5,97.1094" style="stroke:#181818;stroke-width:1.0;"/><line style="stroke:#181818;stroke-width:1.0;stroke-dasharray:2.0,2.0;" x1="87.5" x2="330.5" y1="97.1094" y2="97.1094"/><text fill="#000000" font-family="sans-serif" font-size="13" lengthAdjust="spacing" textLength="92" x="99.5" y="92.3672">ipv6Addresses</text><polygon fill="#181818" points="463.5,122.4199,473.5,126.4199,463.5,130.4199,467.5,126.4199" style="stroke:#181818;stroke-width:1.0;"/><line style="stroke:#181818;stroke-width:1.0;" x1="82.5" x2="469.5" y1="126.4199" y2="126.4199"/><text fill="#000000" font-family="sans-serif" font-size="13" lengthAdjust="spacing" textLength="248" x="89.5" y="121.6777">StartUDP6Listeners(ctx, ipv6Addresses)</text><polygon fill="#181818" points="93.5,151.7305,83.5,155.7305,93.5,159.7305,89.5,155.7305" style="stroke:#181818;stroke-width:1.0;"/><line style="stroke:#181818;stroke-width:1.0;stroke-dasharray:2.0,2.0;" x1="87.5" x2="479.5" y1="155.7305" y2="155.7305"/><text fill="#000000" font-family="sans-serif" font-size="13" lengthAdjust="spacing" textLength="147" x="99.5" y="150.9883">Listeners started/failed</text><polygon fill="#181818" points="319.5,181.041,329.5,185.041,319.5,189.041,323.5,185.041" style="stroke:#181818;stroke-width:1.0;"/><line style="stroke:#181818;stroke-width:1.0;" x1="82.5" x2="325.5" y1="185.041" y2="185.041"/><text fill="#000000" font-family="sans-serif" font-size="13" lengthAdjust="spacing" textLength="185" x="89.5" y="180.2988">Get propagation_httpAddress</text><polygon fill="#181818" points="93.5,210.3516,83.5,214.3516,93.5,218.3516,89.5,214.3516" style="stroke:#181818;stroke-width:1.0;"/><line style="stroke:#181818;stroke-width:1.0;stroke-dasharray:2.0,2.0;" x1="87.5" x2="330.5" y1="214.3516" y2="214.3516"/><text fill="#000000" font-family="sans-serif" font-size="13" lengthAdjust="spacing" textLength="77" x="99.5" y="209.6094">httpAddress</text><polygon fill="#181818" points="580,239.6621,590,243.6621,580,247.6621,584,243.6621" style="stroke:#181818;stroke-width:1.0;"/><line style="stroke:#181818;stroke-width:1.0;" x1="82.5" x2="586" y1="243.6621" y2="243.6621"/><text fill="#000000" font-family="sans-serif" font-size="13" lengthAdjust="spacing" textLength="198" x="89.5" y="238.9199">StartHTTPServer(ctx, serverURL)</text><polygon fill="#181818" points="93.5,268.9727,83.5,272.9727,93.5,276.9727,89.5,272.9727" style="stroke:#181818;stroke-width:1.0;"/><line style="stroke:#181818;stroke-width:1.0;stroke-dasharray:2.0,2.0;" x1="87.5" x2="596" y1="272.9727" y2="272.9727"/><text fill="#000000" font-family="sans-serif" font-size="13" lengthAdjust="spacing" textLength="165" x="99.5" y="268.2305">HTTP Server started/failed</text><polygon fill="#181818" points="319.5,298.2832,329.5,302.2832,319.5,306.2832,323.5,302.2832" style="stroke:#181818;stroke-width:1.0;"/><line style="stroke:#181818;stroke-width:1.0;" x1="82.5" x2="325.5" y1="302.2832" y2="302.2832"/><text fill="#000000" font-family="sans-serif" font-size="13" lengthAdjust="spacing" textLength="225" x="89.5" y="297.541">Get propagation_drpcListenAddress</text><polygon fill="#181818" points="93.5,327.5938,83.5,331.5938,93.5,335.5938,89.5,331.5938" style="stroke:#181818;stroke-width:1.0;"/><line style="stroke:#181818;stroke-width:1.0;stroke-dasharray:2.0,2.0;" x1="87.5" x2="330.5" y1="331.5938" y2="331.5938"/><text fill="#000000" font-family="sans-serif" font-size="13" lengthAdjust="spacing" textLength="79" x="99.5" y="326.8516">drpcAddress</text><polygon fill="#181818" points="687.5,356.9043,697.5,360.9043,687.5,364.9043,691.5,360.9043" style="stroke:#181818;stroke-width:1.0;"/><line style="stroke:#181818;stroke-width:1.0;" x1="82.5" x2="693.5" y1="360.9043" y2="360.9043"/><text fill="#000000" font-family="sans-serif" font-size="13" lengthAdjust="spacing" textLength="181" x="89.5" y="356.1621">drpcServer(ctx, drpcAddress)</text><polygon fill="#181818" points="93.5,386.2148,83.5,390.2148,93.5,394.2148,89.5,390.2148" style="stroke:#181818;stroke-width:1.0;"/><line style="stroke:#181818;stroke-width:1.0;stroke-dasharray:2.0,2.0;" x1="87.5" x2="703.5" y1="390.2148" y2="390.2148"/><text fill="#000000" font-family="sans-serif" font-size="13" lengthAdjust="spacing" textLength="166" x="99.5" y="385.4727">DRPC Server started/failed</text><polygon fill="#181818" points="319.5,415.5254,329.5,419.5254,319.5,423.5254,323.5,419.5254" style="stroke:#181818;stroke-width:1.0;"/><line style="stroke:#181818;stroke-width:1.0;" x1="82.5" x2="325.5" y1="419.5254" y2="419.5254"/><text fill="#000000" font-family="sans-serif" font-size="13" lengthAdjust="spacing" textLength="222" x="89.5" y="414.7832">Get propagation_frpcListenAddress</text><polygon fill="#181818" points="93.5,444.8359,83.5,448.8359,93.5,452.8359,89.5,448.8359" style="stroke:#181818;stroke-width:1.0;"/><line style="stroke:#181818;stroke-width:1.0;stroke-dasharray:2.0,2.0;" x1="87.5" x2="330.5" y1="448.8359" y2="448.8359"/><text fill="#000000" font-family="sans-serif" font-size="13" lengthAdjust="spacing" textLength="76" x="99.5" y="444.0938">frpcAddress</text><polygon fill="#181818" points="793,474.1465,803,478.1465,793,482.1465,797,478.1465" style="stroke:#181818;stroke-width:1.0;"/><line style="stroke:#181818;stroke-width:1.0;" x1="82.5" x2="799" y1="478.1465" y2="478.1465"/><text fill="#000000" font-family="sans-serif" font-size="13" lengthAdjust="spacing" textLength="175" x="89.5" y="473.4043">frpcServer(ctx, frpcAddress)</text><polygon fill="#181818" points="93.5,503.457,83.5,507.457,93.5,511.457,89.5,507.457" style="stroke:#181818;stroke-width:1.0;"/><line style="stroke:#181818;stroke-width:1.0;stroke-dasharray:2.0,2.0;" x1="87.5" x2="809" y1="507.457" y2="507.457"/><text fill="#000000" font-family="sans-serif" font-size="13" lengthAdjust="spacing" textLength="161" x="99.5" y="502.7148">fRPC Server started/failed</text><polygon fill="#181818" points="319.5,532.7676,329.5,536.7676,319.5,540.7676,323.5,536.7676" style="stroke:#181818;stroke-width:1.0;"/><line style="stroke:#181818;stroke-width:1.0;" x1="82.5" x2="325.5" y1="536.7676" y2="536.7676"/><text fill="#000000" font-family="sans-serif" font-size="13" lengthAdjust="spacing" textLength="224" x="89.5" y="532.0254">Get propagation_quicListenAddress</text><polygon fill="#181818" points="93.5,562.0781,83.5,566.0781,93.5,570.0781,89.5,566.0781" style="stroke:#181818;stroke-width:1.0;"/><line style="stroke:#181818;stroke-width:1.0;stroke-dasharray:2.0,2.0;" x1="87.5" x2="330.5" y1="566.0781" y2="566.0781"/><text fill="#000000" font-family="sans-serif" font-size="13" lengthAdjust="spacing" textLength="78" x="99.5" y="561.3359">quicAddress</text><polygon fill="#181818" points="897.5,591.3887,907.5,595.3887,897.5,599.3887,901.5,595.3887" style="stroke:#181818;stroke-width:1.0;"/><line style="stroke:#181818;stroke-width:1.0;" x1="82.5" x2="903.5" y1="595.3887" y2="595.3887"/><text fill="#000000" font-family="sans-serif" font-size="13" lengthAdjust="spacing" textLength="179" x="89.5" y="590.6465">quicServer(ctx, quicAddress)</text><polygon fill="#181818" points="93.5,620.6992,83.5,624.6992,93.5,628.6992,89.5,624.6992" style="stroke:#181818;stroke-width:1.0;"/><line style="stroke:#181818;stroke-width:1.0;stroke-dasharray:2.0,2.0;" x1="87.5" x2="913.5" y1="624.6992" y2="624.6992"/><text fill="#000000" font-family="sans-serif" font-size="13" lengthAdjust="spacing" textLength="164" x="99.5" y="619.957">QUIC Server started/failed</text><polygon fill="#181818" points="1004,650.0098,1014,654.0098,1004,658.0098,1008,654.0098" style="stroke:#181818;stroke-width:1.0;"/><line style="stroke:#181818;stroke-width:1.0;" x1="82.5" x2="1010" y1="654.0098" y2="654.0098"/><text fill="#000000" font-family="sans-serif" font-size="13" lengthAdjust="spacing" textLength="222" x="89.5" y="649.2676">StartGRPCServer(ctx, "propagation")</text><polygon fill="#181818" points="88.5,679.3203,78.5,683.3203,88.5,687.3203,84.5,683.3203" style="stroke:#181818;stroke-width:1.0;"/><line style="stroke:#181818;stroke-width:1.0;stroke-dasharray:2.0,2.0;" x1="82.5" x2="1020" y1="683.3203" y2="683.3203"/><text fill="#000000" font-family="sans-serif" font-size="13" lengthAdjust="spacing" textLength="164" x="94.5" y="678.5781">gRPC Server started/failed</text><!--SRC=[ZPJ1ReCm38RlF4N4QPDMxTO3XqbJAtMJUc1jELSH93JI1bcIektjXnq63dIC4qxys-Ppd6XkdCgLvfLZSMfgpKlkL5snep2DC37ZjZCZJQMRkfAgl9fE_6sT-42nTuJYR9kksLwrcaeOYpBO2aKlfrDAgy8wL6mFwOOgO1qgv4WX9ugtx3LGm3fKbACSi8uYdZlLS2T-cn7vBrizTSG9smd7b6xMPruKHbWhREHTRDMgl3v1nNCl6B90Gn9sTEslWDbtwovtNmzXrFtmDzX6R2-jqGSp2_b4yIYvUXT5L8WmyWyAFSp1-UASxYhVmg7k8HcSNGS3fdTu4ejsTjWJ2ZngF7-QcWp430V6Bk0eZCvzNsPeG3IbWJdpFWf2j0G5Pn87bUObapk3Wh4BKEGI57aJHIAA7A78coXuUUGOHIv2aGjHFg_gVnGGJL7WvdeVHI5QWeAt7Ay-pKlUWXaKZ2LrIsmXplQkDMdncA35f3m-8UMua-MYJlhdXsnq3z0F]--></g></svg>
