<?xml version="1.0" encoding="us-ascii" standalone="no"?><svg xmlns="http://www.w3.org/2000/svg" xmlns:xlink="http://www.w3.org/1999/xlink" contentStyleType="text/css" height="417px" preserveAspectRatio="none" style="width:836px;height:417px;background:#FFFFFF;" version="1.1" viewBox="0 0 836 417" width="836px" zoomAndPan="magnify"><defs/><g><rect fill="#FFFFFF" height="280.75" style="stroke:#181818;stroke-width:1.0;" width="10" x="322" y="67.7988"/><rect fill="#FFFFFF" height="222.1289" style="stroke:#181818;stroke-width:1.0;" width="10" x="519" y="97.1094"/><rect fill="#FFFFFF" height="29.3105" style="stroke:#181818;stroke-width:1.0;" width="10" x="703" y="150.7305"/><rect fill="#FFFFFF" height="29.3105" style="stroke:#181818;stroke-width:1.0;" width="10" x="787" y="289.9277"/><rect fill="none" height="149.5078" style="stroke:#000000;stroke-width:1.5;" width="485.5" x="268.5" y="112.1094"/><line style="stroke:#181818;stroke-width:0.5;stroke-dasharray:5.0,5.0;" x1="52" x2="52" y1="36.4883" y2="366.5488"/><line style="stroke:#181818;stroke-width:0.5;stroke-dasharray:5.0,5.0;" x1="326.5" x2="326.5" y1="36.4883" y2="366.5488"/><line style="stroke:#181818;stroke-width:0.5;stroke-dasharray:5.0,5.0;" x1="523.5" x2="523.5" y1="36.4883" y2="366.5488"/><line style="stroke:#181818;stroke-width:0.5;stroke-dasharray:5.0,5.0;" x1="708" x2="708" y1="36.4883" y2="366.5488"/><line style="stroke:#181818;stroke-width:0.5;stroke-dasharray:5.0,5.0;" x1="792" x2="792" y1="36.4883" y2="366.5488"/><rect fill="#E2E2F0" height="30.4883" rx="2.5" ry="2.5" style="stroke:#181818;stroke-width:0.5;" width="94" x="5" y="5"/><text fill="#000000" font-family="sans-serif" font-size="14" lengthAdjust="spacing" textLength="80" x="12" y="25.5352">gRPC Client</text><rect fill="#E2E2F0" height="30.4883" rx="2.5" ry="2.5" style="stroke:#181818;stroke-width:0.5;" width="94" x="5" y="365.5488"/><text fill="#000000" font-family="sans-serif" font-size="14" lengthAdjust="spacing" textLength="80" x="12" y="386.084">gRPC Client</text><rect fill="#E2E2F0" height="30.4883" rx="2.5" ry="2.5" style="stroke:#181818;stroke-width:0.5;" width="97" x="278.5" y="5"/><text fill="#000000" font-family="sans-serif" font-size="14" lengthAdjust="spacing" textLength="83" x="285.5" y="25.5352">gRPC Server</text><rect fill="#E2E2F0" height="30.4883" rx="2.5" ry="2.5" style="stroke:#181818;stroke-width:0.5;" width="97" x="278.5" y="365.5488"/><text fill="#000000" font-family="sans-serif" font-size="14" lengthAdjust="spacing" textLength="83" x="285.5" y="386.084">gRPC Server</text><rect fill="#E2E2F0" height="30.4883" rx="2.5" ry="2.5" style="stroke:#181818;stroke-width:0.5;" width="141" x="453.5" y="5"/><text fill="#000000" font-family="sans-serif" font-size="14" lengthAdjust="spacing" textLength="127" x="460.5" y="25.5352">PropagationServer</text><rect fill="#E2E2F0" height="30.4883" rx="2.5" ry="2.5" style="stroke:#181818;stroke-width:0.5;" width="141" x="453.5" y="365.5488"/><text fill="#000000" font-family="sans-serif" font-size="14" lengthAdjust="spacing" textLength="127" x="460.5" y="386.084">PropagationServer</text><rect fill="#E2E2F0" height="30.4883" rx="2.5" ry="2.5" style="stroke:#181818;stroke-width:0.5;" width="72" x="672" y="5"/><text fill="#000000" font-family="sans-serif" font-size="14" lengthAdjust="spacing" textLength="58" x="679" y="25.5352">Tx Store</text><rect fill="#E2E2F0" height="30.4883" rx="2.5" ry="2.5" style="stroke:#181818;stroke-width:0.5;" width="72" x="672" y="365.5488"/><text fill="#000000" font-family="sans-serif" font-size="14" lengthAdjust="spacing" textLength="58" x="679" y="386.084">Tx Store</text><rect fill="#E2E2F0" height="30.4883" rx="2.5" ry="2.5" style="stroke:#181818;stroke-width:0.5;" width="76" x="754" y="5"/><text fill="#000000" font-family="sans-serif" font-size="14" lengthAdjust="spacing" textLength="62" x="761" y="25.5352">Validator</text><rect fill="#E2E2F0" height="30.4883" rx="2.5" ry="2.5" style="stroke:#181818;stroke-width:0.5;" width="76" x="754" y="365.5488"/><text fill="#000000" font-family="sans-serif" font-size="14" lengthAdjust="spacing" textLength="62" x="761" y="386.084">Validator</text><rect fill="#FFFFFF" height="280.75" style="stroke:#181818;stroke-width:1.0;" width="10" x="322" y="67.7988"/><rect fill="#FFFFFF" height="222.1289" style="stroke:#181818;stroke-width:1.0;" width="10" x="519" y="97.1094"/><rect fill="#FFFFFF" height="29.3105" style="stroke:#181818;stroke-width:1.0;" width="10" x="703" y="150.7305"/><rect fill="#FFFFFF" height="29.3105" style="stroke:#181818;stroke-width:1.0;" width="10" x="787" y="289.9277"/><polygon fill="#181818" points="310,63.7988,320,67.7988,310,71.7988,314,67.7988" style="stroke:#181818;stroke-width:1.0;"/><line style="stroke:#181818;stroke-width:1.0;" x1="52" x2="316" y1="67.7988" y2="67.7988"/><text fill="#000000" font-family="sans-serif" font-size="13" lengthAdjust="spacing" textLength="251" x="59" y="63.0566">Send gRPC request (ProcessTransaction)</text><polygon fill="#181818" points="507,93.1094,517,97.1094,507,101.1094,511,97.1094" style="stroke:#181818;stroke-width:1.0;"/><line style="stroke:#181818;stroke-width:1.0;" x1="332" x2="513" y1="97.1094" y2="97.1094"/><text fill="#000000" font-family="sans-serif" font-size="13" lengthAdjust="spacing" textLength="168" x="339" y="92.3672">Invoke ProcessTransaction</text><path d="M268.5,112.1094 L330.5,112.1094 L330.5,119.4199 L320.5,129.4199 L268.5,129.4199 L268.5,112.1094 " fill="#EEEEEE" style="stroke:#000000;stroke-width:1.5;"/><rect fill="none" height="149.5078" style="stroke:#000000;stroke-width:1.5;" width="485.5" x="268.5" y="112.1094"/><text fill="#000000" font-family="sans-serif" font-size="13" font-weight="bold" lengthAdjust="spacing" textLength="17" x="283.5" y="125.6777">alt</text><text fill="#000000" font-family="sans-serif" font-size="11" font-weight="bold" lengthAdjust="spacing" textLength="129" x="345.5" y="124.7441">[if transaction is valid]</text><polygon fill="#181818" points="691,146.7305,701,150.7305,691,154.7305,695,150.7305" style="stroke:#181818;stroke-width:1.0;"/><line style="stroke:#181818;stroke-width:1.0;" x1="529" x2="697" y1="150.7305" y2="150.7305"/><text fill="#000000" font-family="sans-serif" font-size="13" lengthAdjust="spacing" textLength="155" x="536" y="145.9883">storeTransaction(ctx, tx)</text><polygon fill="#181818" points="540,176.041,530,180.041,540,184.041,536,180.041" style="stroke:#181818;stroke-width:1.0;"/><line style="stroke:#181818;stroke-width:1.0;stroke-dasharray:2.0,2.0;" x1="534" x2="707" y1="180.041" y2="180.041"/><text fill="#000000" font-family="sans-serif" font-size="13" lengthAdjust="spacing" textLength="132" x="546" y="175.2988">Storage confirmation</text><polygon fill="#181818" points="343,205.3516,333,209.3516,343,213.3516,339,209.3516" style="stroke:#181818;stroke-width:1.0;"/><line style="stroke:#181818;stroke-width:1.0;stroke-dasharray:2.0,2.0;" x1="337" x2="518" y1="209.3516" y2="209.3516"/><text fill="#000000" font-family="sans-serif" font-size="13" lengthAdjust="spacing" textLength="145" x="349" y="204.6094">Send success response</text><line style="stroke:#000000;stroke-width:1.0;stroke-dasharray:2.0,2.0;" x1="268.5" x2="754" y1="218.3516" y2="218.3516"/><text fill="#000000" font-family="sans-serif" font-size="11" font-weight="bold" lengthAdjust="spacing" textLength="140" x="273.5" y="228.9863">[if transaction is invalid]</text><polygon fill="#181818" points="343,249.6172,333,253.6172,343,257.6172,339,253.6172" style="stroke:#181818;stroke-width:1.0;"/><line style="stroke:#181818;stroke-width:1.0;stroke-dasharray:2.0,2.0;" x1="337" x2="518" y1="253.6172" y2="253.6172"/><text fill="#000000" font-family="sans-serif" font-size="13" lengthAdjust="spacing" textLength="125" x="349" y="248.875">Send error response</text><polygon fill="#181818" points="775,285.9277,785,289.9277,775,293.9277,779,289.9277" style="stroke:#181818;stroke-width:1.0;"/><line style="stroke:#181818;stroke-width:1.0;" x1="529" x2="781" y1="289.9277" y2="289.9277"/><text fill="#000000" font-family="sans-serif" font-size="13" lengthAdjust="spacing" textLength="99" x="536" y="285.1855">Validate(ctx, tx)</text><polygon fill="#181818" points="535,315.2383,525,319.2383,535,323.2383,531,319.2383" style="stroke:#181818;stroke-width:1.0;"/><line style="stroke:#181818;stroke-width:1.0;stroke-dasharray:2.0,2.0;" x1="529" x2="791" y1="319.2383" y2="319.2383"/><text fill="#000000" font-family="sans-serif" font-size="13" lengthAdjust="spacing" textLength="124" x="541" y="314.4961">Validation response</text><polygon fill="#181818" points="63,344.5488,53,348.5488,63,352.5488,59,348.5488" style="stroke:#181818;stroke-width:1.0;"/><line style="stroke:#181818;stroke-width:1.0;" x1="57" x2="326" y1="348.5488" y2="348.5488"/><text fill="#000000" font-family="sans-serif" font-size="13" lengthAdjust="spacing" textLength="102" x="69" y="343.8066">Return response</text><text fill="#888888" font-family="sans-serif" font-size="10" lengthAdjust="spacing" textLength="157" x="0" y="407.7051">Last Modified On: 28-May-2024</text><!--SRC=[VL9DQyCm3BtxLuYUMbXWb1r63hlqD5XPQSFk8b6AMMPdjXgoVp_R-QwpvI95UNfwUb6DXcKkQrGCc-lvT8139Kdn1j3sgQWZp8LCGoPWkdI9EHbTunLPQZL3HjLbKzR2XRMXWCtQa2yH7rZ90bqzGCOt8JgTaBpqQb8NLG51gg7l6rc6hHkVaxMPGMKnzofsmiS6cOOjH1SzKwGsXLVLw4-2c6ZYYNSK0Yi6MG9FU90M6YzVW7kY7Z- -Do05wyDirZRdzW6utONUSV1Wc2_sEIJhQ_YFU2N8jIgb-GhVGbz1gtGh-kwTjhVSM-BCjhLMbWHLbbQMbkhVjUzfoHXjPgIgS7QksZKUGpgaD1arRZMTp9ZzPL8FyBh7-JD_PiStgyP_VrBOtMWAP-ARMISTBgQYag7Kcbtd6xhRFUf2bf8AU5Sfx9-J8_ua-yVza_W5]--></g></svg>
