<svg contentStyleType="text/css" height="635" preserveAspectRatio="none" viewBox="0 0 966 635" width="966" xmlns="http://www.w3.org/2000/svg" zoomAndPan="magnify"><g stroke="#181818"><path d="m72.5 46.4883h10v519.5898h-10z" fill="#fff"/><path d="m474.5 126.4199h10v29.3105h-10z" fill="#fff"/><path d="m591 243.6621h10v29.3105h-10z" fill="#fff"/><path d="m696 360.9043h10v29.3105h-10z" fill="#fff"/><path d="m800.5 478.1465h10v29.3105h-10z" fill="#fff"/><path d="m907 536.7676h10v29.3105h-10z" fill="#fff"/><g stroke-width=".5"><path d="m77 36.4883v547.5898" stroke-dasharray="5 5"/><path d="m330.5 36.4883v547.5898" stroke-dasharray="5 5"/><path d="m479.5 36.4883v547.5898" stroke-dasharray="5 5"/><path d="m595.5 36.4883v547.5898" stroke-dasharray="5 5"/><path d="m700.5 36.4883v547.5898" stroke-dasharray="5 5"/><path d="m805.5 36.4883v547.5898" stroke-dasharray="5 5"/><path d="m911.5 36.4883v547.5898" stroke-dasharray="5 5"/><rect fill="#e2e2f0" height="30.4883" rx="2.5" width="145" x="5" y="5"/></g></g><text font-family="sans-serif" font-size="14" lengthAdjust="spacing" textLength="131" x="12" y="25.5352">Propagation Server</text><rect fill="#e2e2f0" height="30.4883" rx="2.5" stroke="#181818" stroke-width=".5" width="145" x="5" y="583.0781"/><text font-family="sans-serif" font-size="14" lengthAdjust="spacing" textLength="131" x="12" y="603.6133">Propagation Server</text><rect fill="#e2e2f0" height="30.4883" rx="2.5" stroke="#181818" stroke-width=".5" width="162" x="249.5" y="5"/><text font-family="sans-serif" font-size="14" lengthAdjust="spacing" textLength="148" x="256.5" y="25.5352">Configuration System</text><rect fill="#e2e2f0" height="30.4883" rx="2.5" stroke="#181818" stroke-width=".5" width="162" x="249.5" y="583.0781"/><text font-family="sans-serif" font-size="14" lengthAdjust="spacing" textLength="148" x="256.5" y="603.6133">Configuration System</text><rect fill="#e2e2f0" height="30.4883" rx="2.5" stroke="#181818" stroke-width=".5" width="116" x="421.5" y="5"/><text font-family="sans-serif" font-size="14" lengthAdjust="spacing" textLength="102" x="428.5" y="25.5352">UDP6 Listeners</text><rect fill="#e2e2f0" height="30.4883" rx="2.5" stroke="#181818" stroke-width=".5" width="116" x="421.5" y="583.0781"/><text font-family="sans-serif" font-size="14" lengthAdjust="spacing" textLength="102" x="428.5" y="603.6133">UDP6 Listeners</text><rect fill="#e2e2f0" height="30.4883" rx="2.5" stroke="#181818" stroke-width=".5" width="97" x="547.5" y="5"/><text font-family="sans-serif" font-size="14" lengthAdjust="spacing" textLength="83" x="554.5" y="25.5352">HTTP Server</text><rect fill="#e2e2f0" height="30.4883" rx="2.5" stroke="#181818" stroke-width=".5" width="97" x="547.5" y="583.0781"/><text font-family="sans-serif" font-size="14" lengthAdjust="spacing" textLength="83" x="554.5" y="603.6133">HTTP Server</text><rect fill="#e2e2f0" height="30.4883" rx="2.5" stroke="#181818" stroke-width=".5" width="93" x="654.5" y="5"/><text font-family="sans-serif" font-size="14" lengthAdjust="spacing" textLength="79" x="661.5" y="25.5352">fRPC Server</text><rect fill="#e2e2f0" height="30.4883" rx="2.5" stroke="#181818" stroke-width=".5" width="93" x="654.5" y="583.0781"/><text font-family="sans-serif" font-size="14" lengthAdjust="spacing" textLength="79" x="661.5" y="603.6133">fRPC Server</text><rect fill="#e2e2f0" height="30.4883" rx="2.5" stroke="#181818" stroke-width=".5" width="96" x="757.5" y="5"/><text font-family="sans-serif" font-size="14" lengthAdjust="spacing" textLength="82" x="764.5" y="25.5352">QUIC Server</text><rect fill="#e2e2f0" height="30.4883" rx="2.5" stroke="#181818" stroke-width=".5" width="96" x="757.5" y="583.0781"/><text font-family="sans-serif" font-size="14" lengthAdjust="spacing" textLength="82" x="764.5" y="603.6133">QUIC Server</text><rect fill="#e2e2f0" height="30.4883" rx="2.5" stroke="#181818" stroke-width=".5" width="97" x="863.5" y="5"/><text font-family="sans-serif" font-size="14" lengthAdjust="spacing" textLength="83" x="870.5" y="25.5352">gRPC Server</text><rect fill="#e2e2f0" height="30.4883" rx="2.5" stroke="#181818" stroke-width=".5" width="97" x="863.5" y="583.0781"/><text font-family="sans-serif" font-size="14" lengthAdjust="spacing" textLength="83" x="870.5" y="603.6133">gRPC Server</text><g stroke="#181818"><path d="m72.5 46.4883h10v519.5898h-10z" fill="#fff"/><path d="m474.5 126.4199h10v29.3105h-10z" fill="#fff"/><path d="m591 243.6621h10v29.3105h-10z" fill="#fff"/><path d="m696 360.9043h10v29.3105h-10z" fill="#fff"/><path d="m800.5 478.1465h10v29.3105h-10z" fill="#fff"/><path d="m907 536.7676h10v29.3105h-10z" fill="#fff"/><path d="m318.5 63.7988 10 4-10 4 4-4z" fill="#181818"/><path d="m82.5 67.7988h242"/></g><text font-family="sans-serif" font-size="13" lengthAdjust="spacing" textLength="122" x="89.5" y="63.0566">Get ipv6_addresses</text><path d="m93.5 93.1094-10 4 10 4-4-4z" fill="#181818" stroke="#181818"/><path d="m87.5 97.1094h242" stroke="#181818" stroke-dasharray="2 2"/><text font-family="sans-serif" font-size="13" lengthAdjust="spacing" textLength="92" x="99.5" y="92.3672">ipv6Addresses</text><path d="m462.5 122.4199 10 4-10 4 4-4z" fill="#181818" stroke="#181818"/><path d="m82.5 126.4199h386" stroke="#181818"/><text font-family="sans-serif" font-size="13" lengthAdjust="spacing" textLength="248" x="89.5" y="121.6777">StartUDP6Listeners(ctx, ipv6Addresses)</text><path d="m93.5 151.7305-10 4 10 4-4-4z" fill="#181818" stroke="#181818"/><path d="m87.5 155.7305h391" stroke="#181818" stroke-dasharray="2 2"/><text font-family="sans-serif" font-size="13" lengthAdjust="spacing" textLength="147" x="99.5" y="150.9883">Listeners started/failed</text><path d="m318.5 181.041 10 4-10 4 4-4z" fill="#181818" stroke="#181818"/><path d="m82.5 185.041h242" stroke="#181818"/><text font-family="sans-serif" font-size="13" lengthAdjust="spacing" textLength="185" x="89.5" y="180.2988">Get propagation_httpAddress</text><path d="m93.5 210.3516-10 4 10 4-4-4z" fill="#181818" stroke="#181818"/><path d="m87.5 214.3516h242" stroke="#181818" stroke-dasharray="2 2"/><text font-family="sans-serif" font-size="13" lengthAdjust="spacing" textLength="77" x="99.5" y="209.6094">httpAddress</text><path d="m579 239.6621 10 4-10 4 4-4z" fill="#181818" stroke="#181818"/><path d="m82.5 243.6621h502.5" stroke="#181818"/><text font-family="sans-serif" font-size="13" lengthAdjust="spacing" textLength="198" x="89.5" y="238.9199">StartHTTPServer(ctx, serverURL)</text><path d="m93.5 268.9727-10 4 10 4-4-4z" fill="#181818" stroke="#181818"/><path d="m87.5 272.9727h507.5" stroke="#181818" stroke-dasharray="2 2"/><text font-family="sans-serif" font-size="13" lengthAdjust="spacing" textLength="165" x="99.5" y="268.2305">HTTP Server started/failed</text><path d="m318.5 298.2832 10 4-10 4 4-4z" fill="#181818" stroke="#181818"/><path d="m82.5 302.2832h242" stroke="#181818"/><text font-family="sans-serif" font-size="13" lengthAdjust="spacing" textLength="222" x="89.5" y="297.541">Get propagation_frpcListenAddress</text><path d="m93.5 327.5938-10 4 10 4-4-4z" fill="#181818" stroke="#181818"/><path d="m87.5 331.5938h242" stroke="#181818" stroke-dasharray="2 2"/><text font-family="sans-serif" font-size="13" lengthAdjust="spacing" textLength="76" x="99.5" y="326.8516">frpcAddress</text><path d="m684 356.9043 10 4-10 4 4-4z" fill="#181818" stroke="#181818"/><path d="m82.5 360.9043h607.5" stroke="#181818"/><text font-family="sans-serif" font-size="13" lengthAdjust="spacing" textLength="175" x="89.5" y="356.1621">frpcServer(ctx, frpcAddress)</text><path d="m93.5 386.2148-10 4 10 4-4-4z" fill="#181818" stroke="#181818"/><path d="m87.5 390.2148h612.5" stroke="#181818" stroke-dasharray="2 2"/><text font-family="sans-serif" font-size="13" lengthAdjust="spacing" textLength="161" x="99.5" y="385.4727">fRPC Server started/failed</text><path d="m318.5 415.5254 10 4-10 4 4-4z" fill="#181818" stroke="#181818"/><path d="m82.5 419.5254h242" stroke="#181818"/><text font-family="sans-serif" font-size="13" lengthAdjust="spacing" textLength="224" x="89.5" y="414.7832">Get propagation_quicListenAddress</text><path d="m93.5 444.8359-10 4 10 4-4-4z" fill="#181818" stroke="#181818"/><path d="m87.5 448.8359h242" stroke="#181818" stroke-dasharray="2 2"/><text font-family="sans-serif" font-size="13" lengthAdjust="spacing" textLength="78" x="99.5" y="444.0938">quicAddress</text><path d="m788.5 474.1465 10 4-10 4 4-4z" fill="#181818" stroke="#181818"/><path d="m82.5 478.1465h712" stroke="#181818"/><text font-family="sans-serif" font-size="13" lengthAdjust="spacing" textLength="179" x="89.5" y="473.4043">quicServer(ctx, quicAddress)</text><path d="m93.5 503.457-10 4 10 4-4-4z" fill="#181818" stroke="#181818"/><path d="m87.5 507.457h717" stroke="#181818" stroke-dasharray="2 2"/><text font-family="sans-serif" font-size="13" lengthAdjust="spacing" textLength="164" x="99.5" y="502.7148">QUIC Server started/failed</text><path d="m895 532.7676 10 4-10 4 4-4z" fill="#181818" stroke="#181818"/><path d="m82.5 536.7676h818.5" stroke="#181818"/><text font-family="sans-serif" font-size="13" lengthAdjust="spacing" textLength="222" x="89.5" y="532.0254">StartGRPCServer(ctx, "propagation")</text><path d="m88.5 562.0781-10 4 10 4-4-4z" fill="#181818" stroke="#181818"/><path d="m82.5 566.0781h828.5" stroke="#181818" stroke-dasharray="2 2"/><text font-family="sans-serif" font-size="13" lengthAdjust="spacing" textLength="164" x="94.5" y="561.3359">gRPC Server started/failed</text><text fill="#888" font-family="sans-serif" font-size="10" lengthAdjust="spacing" textLength="155" y="625.2344">Last Modified On: 18-Dec-2023</text></svg>
