<svg contentStyleType="text/css" height="417" preserveAspectRatio="none" viewBox="0 0 895 417" width="895" xmlns="http://www.w3.org/2000/svg" zoomAndPan="magnify"><path d="m322 67.7988h10v280.75h-10z" fill="#fff" stroke="#181818"/><path d="m519 97.1094h10v222.1289h-10z" fill="#fff" stroke="#181818"/><path d="m703 150.7305h10v29.3105h-10z" fill="#fff" stroke="#181818"/><path d="m816.5 289.9277h10v29.3105h-10z" fill="#fff" stroke="#181818"/><path d="m268.5 112.1094h485.5v149.5078h-485.5z" fill="none" stroke="#000" stroke-width="1.5"/><g stroke="#181818"><path d="m52 36.4883v330.0605" stroke-dasharray="5 5" stroke-width=".5"/><path d="m326.5 36.4883v330.0605" stroke-dasharray="5 5" stroke-width=".5"/><path d="m523.5 36.4883v330.0605" stroke-dasharray="5 5" stroke-width=".5"/><path d="m708 36.4883v330.0605" stroke-dasharray="5 5" stroke-width=".5"/><path d="m821 36.4883v330.0605" stroke-dasharray="5 5" stroke-width=".5"/><rect fill="#e2e2f0" height="30.4883" rx="2.5" stroke-width=".5" width="94" x="5" y="5"/></g><text font-family="sans-serif" font-size="14" lengthAdjust="spacing" textLength="80" x="12" y="25.5352">gRPC Client</text><rect fill="#e2e2f0" height="30.4883" rx="2.5" stroke="#181818" stroke-width=".5" width="94" x="5" y="365.5488"/><text font-family="sans-serif" font-size="14" lengthAdjust="spacing" textLength="80" x="12" y="386.084">gRPC Client</text><rect fill="#e2e2f0" height="30.4883" rx="2.5" stroke="#181818" stroke-width=".5" width="97" x="278.5" y="5"/><text font-family="sans-serif" font-size="14" lengthAdjust="spacing" textLength="83" x="285.5" y="25.5352">gRPC Server</text><rect fill="#e2e2f0" height="30.4883" rx="2.5" stroke="#181818" stroke-width=".5" width="97" x="278.5" y="365.5488"/><text font-family="sans-serif" font-size="14" lengthAdjust="spacing" textLength="83" x="285.5" y="386.084">gRPC Server</text><rect fill="#e2e2f0" height="30.4883" rx="2.5" stroke="#181818" stroke-width=".5" width="141" x="453.5" y="5"/><text font-family="sans-serif" font-size="14" lengthAdjust="spacing" textLength="127" x="460.5" y="25.5352">PropagationServer</text><rect fill="#e2e2f0" height="30.4883" rx="2.5" stroke="#181818" stroke-width=".5" width="141" x="453.5" y="365.5488"/><text font-family="sans-serif" font-size="14" lengthAdjust="spacing" textLength="127" x="460.5" y="386.084">PropagationServer</text><rect fill="#e2e2f0" height="30.4883" rx="2.5" stroke="#181818" stroke-width=".5" width="72" x="672" y="5"/><text font-family="sans-serif" font-size="14" lengthAdjust="spacing" textLength="58" x="679" y="25.5352">Tx Store</text><rect fill="#e2e2f0" height="30.4883" rx="2.5" stroke="#181818" stroke-width=".5" width="72" x="672" y="365.5488"/><text font-family="sans-serif" font-size="14" lengthAdjust="spacing" textLength="58" x="679" y="386.084">Tx Store</text><rect fill="#e2e2f0" height="30.4883" rx="2.5" stroke="#181818" stroke-width=".5" width="135" x="754" y="5"/><text font-family="sans-serif" font-size="14" lengthAdjust="spacing" textLength="121" x="761" y="25.5352">Validation Service</text><rect fill="#e2e2f0" height="30.4883" rx="2.5" stroke="#181818" stroke-width=".5" width="135" x="754" y="365.5488"/><text font-family="sans-serif" font-size="14" lengthAdjust="spacing" textLength="121" x="761" y="386.084">Validation Service</text><path d="m322 67.7988h10v280.75h-10z" fill="#fff" stroke="#181818"/><path d="m519 97.1094h10v222.1289h-10z" fill="#fff" stroke="#181818"/><path d="m703 150.7305h10v29.3105h-10z" fill="#fff" stroke="#181818"/><path d="m816.5 289.9277h10v29.3105h-10z" fill="#fff" stroke="#181818"/><path d="m310 63.7988 10 4-10 4 4-4z" fill="#181818" stroke="#181818"/><path d="m52 67.7988h264" stroke="#181818"/><text font-family="sans-serif" font-size="13" lengthAdjust="spacing" textLength="251" x="59" y="63.0566">Send gRPC request (ProcessTransaction)</text><path d="m507 93.1094 10 4-10 4 4-4z" fill="#181818" stroke="#181818"/><path d="m332 97.1094h181" stroke="#181818"/><text font-family="sans-serif" font-size="13" lengthAdjust="spacing" textLength="168" x="339" y="92.3672">Invoke ProcessTransaction</text><path d="m268.5 112.1094h62v7.3105l-10 10h-52z" fill="#eee" stroke="#000" stroke-width="1.5"/><path d="m268.5 112.1094h485.5v149.5078h-485.5z" fill="none" stroke="#000" stroke-width="1.5"/><text font-family="sans-serif" font-size="13" font-weight="bold" lengthAdjust="spacing" textLength="17" x="283.5" y="125.6777">alt</text><text font-family="sans-serif" font-size="11" font-weight="bold" lengthAdjust="spacing" textLength="129" x="345.5" y="124.7441">[if transaction is valid]</text><path d="m691 146.7305 10 4-10 4 4-4z" fill="#181818" stroke="#181818"/><path d="m529 150.7305h168" stroke="#181818"/><text font-family="sans-serif" font-size="13" lengthAdjust="spacing" textLength="155" x="536" y="145.9883">storeTransaction(ctx, tx)</text><path d="m540 176.041-10 4 10 4-4-4z" fill="#181818" stroke="#181818"/><path d="m534 180.041h173" stroke="#181818" stroke-dasharray="2 2"/><text font-family="sans-serif" font-size="13" lengthAdjust="spacing" textLength="132" x="546" y="175.2988">Storage confirmation</text><path d="m343 205.3516-10 4 10 4-4-4z" fill="#181818" stroke="#181818"/><path d="m337 209.3516h181" stroke="#181818" stroke-dasharray="2 2"/><text font-family="sans-serif" font-size="13" lengthAdjust="spacing" textLength="145" x="349" y="204.6094">Send success response</text><path d="m268.5 218.3516h485.5" stroke="#000" stroke-dasharray="2 2"/><text font-family="sans-serif" font-size="11" font-weight="bold" lengthAdjust="spacing" textLength="140" x="273.5" y="228.9863">[if transaction is invalid]</text><path d="m343 249.6172-10 4 10 4-4-4z" fill="#181818" stroke="#181818"/><path d="m337 253.6172h181" stroke="#181818" stroke-dasharray="2 2"/><text font-family="sans-serif" font-size="13" lengthAdjust="spacing" textLength="125" x="349" y="248.875">Send error response</text><path d="m804.5 285.9277 10 4-10 4 4-4z" fill="#181818" stroke="#181818"/><path d="m529 289.9277h281.5" stroke="#181818"/><text font-family="sans-serif" font-size="13" lengthAdjust="spacing" textLength="99" x="536" y="285.1855">Validate(ctx, tx)</text><path d="m535 315.2383-10 4 10 4-4-4z" fill="#181818" stroke="#181818"/><path d="m529 319.2383h291.5" stroke="#181818" stroke-dasharray="2 2"/><text font-family="sans-serif" font-size="13" lengthAdjust="spacing" textLength="124" x="541" y="314.4961">Validation response</text><path d="m63 344.5488-10 4 10 4-4-4z" fill="#181818" stroke="#181818"/><path d="m57 348.5488h269" stroke="#181818"/><text font-family="sans-serif" font-size="13" lengthAdjust="spacing" textLength="102" x="69" y="343.8066">Return response</text><text fill="#888" font-family="sans-serif" font-size="10" lengthAdjust="spacing" textLength="155" y="407.7051">Last Modified On: 18-Dec-2023</text></svg>
