<svg contentStyleType="text/css" height="616" preserveAspectRatio="none" viewBox="0 0 553 616" width="553" xmlns="http://www.w3.org/2000/svg" zoomAndPan="magnify"><path d="m0 0h553v616h-553z" fill="#f0f8ff"/><g stroke="#181818"><path d="m82.8652 119.1094h10v428.0371h-10z" fill="#fff"/><path d="m402.9243 153.4199h10v29.3105h-10z" fill="#fff"/><path d="m402.9243 313.9727h10v29.3105h-10z" fill="#fff"/><path d="m402.9243 517.8359h10v29.3105h-10z" fill="#fff"/><path d="m500.7798 212.041h10v29.3105h-10z" fill="#fff"/><path d="m500.7798 415.9043h10v29.3105h-10z" fill="#fff"/><path d="m87 36.4883v528.6582" stroke-dasharray="5 5" stroke-width=".5"/><path d="m407.4551 36.4883v528.6582" stroke-dasharray="5 5" stroke-width=".5"/><path d="m505.3936 36.4883v528.6582" stroke-dasharray="5 5" stroke-width=".5"/></g><rect fill="#ddd" height="30.4883" rx="2.5" stroke="#666" stroke-width=".5" width="165.7305" x="5" y="5"/><text fill="#333" font-family="sans-serif" font-size="14" lengthAdjust="spacing" textLength="151.7305" x="12" y="25.5352">Block Assembly Server</text><rect fill="#ddd" height="30.4883" rx="2.5" stroke="#666" stroke-width=".5" width="165.7305" x="5" y="564.1465"/><text fill="#333" font-family="sans-serif" font-size="14" lengthAdjust="spacing" textLength="151.7305" x="12" y="584.6816">Block Assembly Server</text><rect fill="#ddd" height="30.4883" rx="2.5" stroke="#666" stroke-width=".5" width="104.9385" x="355.4551" y="5"/><text fill="#333" font-family="sans-serif" font-size="14" lengthAdjust="spacing" textLength="90.9385" x="362.4551" y="25.5352">Subtree Store</text><rect fill="#ddd" height="30.4883" rx="2.5" stroke="#666" stroke-width=".5" width="104.9385" x="355.4551" y="564.1465"/><text fill="#333" font-family="sans-serif" font-size="14" lengthAdjust="spacing" textLength="90.9385" x="362.4551" y="584.6816">Subtree Store</text><rect fill="#ddd" height="30.4883" rx="2.5" stroke="#666" stroke-width=".5" width="70.7725" x="470.3936" y="5"/><text fill="#333" font-family="sans-serif" font-size="14" lengthAdjust="spacing" textLength="56.7725" x="477.3936" y="25.5352">Tx Store</text><rect fill="#ddd" height="30.4883" rx="2.5" stroke="#666" stroke-width=".5" width="70.7725" x="470.3936" y="564.1465"/><text fill="#333" font-family="sans-serif" font-size="14" lengthAdjust="spacing" textLength="56.7725" x="477.3936" y="584.6816">Tx Store</text><path d="m82.8652 119.1094h10v428.0371h-10z" fill="#fff" stroke="#181818"/><path d="m402.9243 153.4199h10v29.3105h-10z" fill="#fff" stroke="#181818"/><path d="m402.9243 313.9727h10v29.3105h-10z" fill="#fff" stroke="#181818"/><path d="m402.9243 517.8359h10v29.3105h-10z" fill="#fff" stroke="#181818"/><path d="m500.7798 212.041h10v29.3105h-10z" fill="#fff" stroke="#181818"/><path d="m500.7798 415.9043h10v29.3105h-10z" fill="#fff" stroke="#181818"/><path d="m0 67.1436h546.166v3h-546.166z" fill="#eee" stroke="#eee"/><path d="m0 67.1436h546.166" stroke="#000"/><path d="m0 70.1436h546.166" stroke="#000"/><path d="m211.8772 56.4883h122.4116v23.3105h-122.4116z" fill="#eee" stroke="#000" stroke-width="2"/><text fill="#333" font-family="sans-serif" font-size="13" font-weight="bold" lengthAdjust="spacing" textLength="104.127" x="217.8772" y="73.0566">Initialize Stores</text><path d="m87.8652 106.1094h47" stroke="#666"/><path d="m134.8652 106.1094v13" stroke="#666"/><path d="m93.8652 119.1094h41" stroke="#666"/><path d="m103.8652 115.1094-10 4 10 4-4-4z" fill="#666" stroke="#666"/><text fill="#333" font-family="sans-serif" font-size="13" lengthAdjust="spacing" textLength="134.7544" x="99.8652" y="101.3672">NewHTTPBlobServer()</text><path d="m390.9243 149.4199 10 4-10 4 4-4z" fill="#666" stroke="#666"/><path d="m92.8652 153.4199h304.0591" stroke="#666"/><text fill="#333" font-family="sans-serif" font-size="13" lengthAdjust="spacing" textLength="268.8105" x="99.8652" y="148.6777">NewStore(logger, subtreeStoreURL, opts...)</text><path d="m103.8652 178.7305-10 4 10 4-4-4z" fill="#666" stroke="#666"/><path d="m97.8652 182.7305h309.0591" stroke="#666" stroke-dasharray="2 2"/><text fill="#333" font-family="sans-serif" font-size="13" lengthAdjust="spacing" textLength="79.9551" x="109.8652" y="177.9883">subtreeStore</text><path d="m488.7798 208.041 10 4-10 4 4-4z" fill="#666" stroke="#666"/><path d="m92.8652 212.041h401.9146" stroke="#666"/><text fill="#333" font-family="sans-serif" font-size="13" lengthAdjust="spacing" textLength="185.8784" x="99.8652" y="207.2988">NewStore(logger, txStoreURL)</text><path d="m103.8652 237.3516-10 4 10 4-4-4z" fill="#666" stroke="#666"/><path d="m97.8652 241.3516h406.9146" stroke="#666" stroke-dasharray="2 2"/><text fill="#333" font-family="sans-serif" font-size="13" lengthAdjust="spacing" textLength="45.2461" x="109.8652" y="236.6094">txStore</text><path d="m0 270.0068h546.166v3h-546.166z" fill="#eee" stroke="#eee"/><path d="m0 270.0068h546.166" stroke="#000"/><path d="m0 273.0068h546.166" stroke="#000"/><path d="m202.4858 259.3516h141.1943v23.3105h-141.1943z" fill="#eee" stroke="#000" stroke-width="2"/><text fill="#333" font-family="sans-serif" font-size="13" font-weight="bold" lengthAdjust="spacing" textLength="122.9097" x="208.4858" y="275.9199">Store New Subtree</text><path d="m390.9243 309.9727 10 4-10 4 4-4z" fill="#666" stroke="#666"/><path d="m92.8652 313.9727h304.0591" stroke="#666"/><text fill="#333" font-family="sans-serif" font-size="13" lengthAdjust="spacing" textLength="291.0591" x="99.8652" y="309.2305">Set(ctx, subtreeHash, subtreeBytes, options...)</text><path d="m103.8652 339.2832-10 4 10 4-4-4z" fill="#666" stroke="#666"/><path d="m97.8652 343.2832h309.0591" stroke="#666" stroke-dasharray="2 2"/><text fill="#333" font-family="sans-serif" font-size="13" lengthAdjust="spacing" textLength="17.8813" x="109.8652" y="338.541">err</text><path d="m0 371.9385h546.166v3h-546.166z" fill="#eee" stroke="#eee"/><path d="m0 371.9385h546.166" stroke="#000"/><path d="m0 374.9385h546.166" stroke="#000"/><path d="m171.9631 361.2832h202.2397v23.3105h-202.2397z" fill="#eee" stroke="#000" stroke-width="2"/><text fill="#333" font-family="sans-serif" font-size="13" font-weight="bold" lengthAdjust="spacing" textLength="183.9551" x="177.9631" y="377.8516">Store Coinbase Transaction</text><path d="m488.7798 411.9043 10 4-10 4 4-4z" fill="#666" stroke="#666"/><path d="m92.8652 415.9043h401.9146" stroke="#666"/><text fill="#333" font-family="sans-serif" font-size="13" lengthAdjust="spacing" textLength="271.7241" x="99.8652" y="411.1621">Set(ctx, coinbaseTxHash, coinbaseTxBytes)</text><path d="m103.8652 441.2148-10 4 10 4-4-4z" fill="#666" stroke="#666"/><path d="m97.8652 445.2148h406.9146" stroke="#666" stroke-dasharray="2 2"/><text fill="#333" font-family="sans-serif" font-size="13" lengthAdjust="spacing" textLength="17.8813" x="109.8652" y="440.4727">err</text><path d="m0 473.8701h546.166v3h-546.166z" fill="#eee" stroke="#eee"/><path d="m0 473.8701h546.166" stroke="#000"/><path d="m0 476.8701h546.166" stroke="#000"/><path d="m194.9988 463.2148h156.1685v23.3105h-156.1685z" fill="#eee" stroke="#000" stroke-width="2"/><text fill="#333" font-family="sans-serif" font-size="13" font-weight="bold" lengthAdjust="spacing" textLength="137.8838" x="200.9988" y="479.7832">Remove Subtree TTL</text><path d="m390.9243 513.8359 10 4-10 4 4-4z" fill="#666" stroke="#666"/><path d="m92.8652 517.8359h304.0591" stroke="#666"/><text fill="#333" font-family="sans-serif" font-size="13" lengthAdjust="spacing" textLength="242.106" x="99.8652" y="513.0938">SetTTL(ctx, subtreeHash, 0, options...)</text><path d="m98.8652 543.1465-10 4 10 4-4-4z" fill="#666" stroke="#666"/><path d="m92.8652 547.1465h314.0591" stroke="#666" stroke-dasharray="2 2"/><text fill="#333" font-family="sans-serif" font-size="13" lengthAdjust="spacing" textLength="17.8813" x="104.8652" y="542.4043">err</text><text fill="#333" font-family="sans-serif" font-size="10" lengthAdjust="spacing" textLength="155.4346" y="606.3027">Last Modified On: 24-Feb-2025</text></svg>
