<svg contentStyleType="text/css" height="788" preserveAspectRatio="none" viewBox="0 0 647 788" width="647" xmlns="http://www.w3.org/2000/svg" zoomAndPan="magnify"><path d="m0 0h647v788h-647z" fill="#f0f8ff"/><g stroke="#181818"><path d="m107.6934 67.7988h10v651.1875h-10z" fill="#fff"/><path d="m112.6934 194.3516h10v55.6211h-10z" fill="#fff"/><path d="m112.6934 439.0137h10v63.6211h-10z" fill="#fff"/><path d="m112.6934 626.0547h10v63.6211h-10z" fill="#fff"/><path d="m328.3931 122.4199h10v19.3105h-10z" fill="#fff"/><path d="m414.2856 354.9043h10v31.4883h-10z" fill="#fff"/><path d="m519.9272 541.9453h10v31.4883h-10z" fill="#fff"/><path d="m607.0161 286.2832h10v29.3105h-10z" fill="#fff"/><path d="m31 36.4883v700.498" stroke-dasharray="5 5" stroke-width=".5"/><path d="m111.772 36.4883v700.498" stroke-dasharray="5 5" stroke-width=".5"/><path d="m332.5024 108.1094v628.8769" stroke-dasharray="5 5" stroke-width=".5"/><path d="m419.2837 354.3379v382.6484" stroke-dasharray="5 5" stroke-width=".5"/><path d="m524.2876 541.3789v195.6074" stroke-dasharray="5 5" stroke-width=".5"/><path d="m611.5669 36.4883v700.498" stroke-dasharray="5 5" stroke-width=".5"/></g><rect fill="#ddd" height="30.4883" rx="2.5" stroke="#666" stroke-width=".5" width="53.04" x="5" y="5"/><text fill="#333" font-family="sans-serif" font-size="14" lengthAdjust="spacing" textLength="39.04" x="12" y="25.5352">Caller</text><rect fill="#ddd" height="30.4883" rx="2.5" stroke="#666" stroke-width=".5" width="53.04" x="5" y="735.9863"/><text fill="#333" font-family="sans-serif" font-size="14" lengthAdjust="spacing" textLength="39.04" x="12" y="756.5215">Caller</text><rect fill="#ddd" height="30.4883" rx="2.5" stroke="#666" stroke-width=".5" width="55.8428" x="84.772" y="5"/><text fill="#333" font-family="sans-serif" font-size="14" lengthAdjust="spacing" textLength="41.8428" x="91.772" y="25.5352">Server</text><rect fill="#ddd" height="30.4883" rx="2.5" stroke="#666" stroke-width=".5" width="55.8428" x="84.772" y="735.9863"/><text fill="#333" font-family="sans-serif" font-size="14" lengthAdjust="spacing" textLength="41.8428" x="91.772" y="756.5215">Server</text><rect fill="#ddd" height="30.4883" rx="2.5" stroke="#666" stroke-width=".5" width="55.7813" x="305.5024" y="735.9863"/><text fill="#333" font-family="sans-serif" font-size="14" lengthAdjust="spacing" textLength="41.7813" x="312.5024" y="756.5215">Ticker</text><rect fill="#ddd" height="30.4883" rx="2.5" stroke="#666" stroke-width=".5" width="96.0039" x="371.2837" y="735.9863"/><text fill="#333" font-family="sans-serif" font-size="14" lengthAdjust="spacing" textLength="82.0039" x="378.2837" y="756.5215">HTTP Server</text><rect fill="#ddd" height="30.4883" rx="2.5" stroke="#666" stroke-width=".5" width="95.2793" x="477.2876" y="735.9863"/><text fill="#333" font-family="sans-serif" font-size="14" lengthAdjust="spacing" textLength="81.2793" x="484.2876" y="756.5215">gRPC Server</text><rect fill="#ddd" height="30.4883" rx="2.5" stroke="#666" stroke-width=".5" width="58.8984" x="582.5669" y="5"/><text fill="#333" font-family="sans-serif" font-size="14" lengthAdjust="spacing" textLength="44.8984" x="589.5669" y="25.5352">Config</text><rect fill="#ddd" height="30.4883" rx="2.5" stroke="#666" stroke-width=".5" width="58.8984" x="582.5669" y="735.9863"/><text fill="#333" font-family="sans-serif" font-size="14" lengthAdjust="spacing" textLength="44.8984" x="589.5669" y="756.5215">Config</text><path d="m107.6934 67.7988h10v651.1875h-10z" fill="#fff" stroke="#181818"/><path d="m112.6934 194.3516h10v55.6211h-10z" fill="#fff" stroke="#181818"/><path d="m112.6934 439.0137h10v63.6211h-10z" fill="#fff" stroke="#181818"/><path d="m112.6934 626.0547h10v63.6211h-10z" fill="#fff" stroke="#181818"/><path d="m328.3931 122.4199h10v19.3105h-10z" fill="#fff" stroke="#181818"/><path d="m414.2856 354.9043h10v31.4883h-10z" fill="#fff" stroke="#181818"/><path d="m519.9272 541.9453h10v31.4883h-10z" fill="#fff" stroke="#181818"/><path d="m607.0161 286.2832h10v29.3105h-10z" fill="#fff" stroke="#181818"/><path d="m95.6934 63.7988 10 4-10 4 4-4z" fill="#666" stroke="#666"/><path d="m31.52 67.7988h70.1734" stroke="#666"/><text fill="#333" font-family="sans-serif" font-size="13" lengthAdjust="spacing" textLength="57.1733" x="38.52" y="63.0566">Start(ctx)</text><path d="m293.5024 108.4199 10 4-10 4 4-4z" fill="#666" stroke="#666"/><path d="m117.6934 112.4199h181.809" stroke="#666"/><text fill="#333" font-family="sans-serif" font-size="13" lengthAdjust="spacing" textLength="103.1113" x="124.6934" y="92.3672">Start New Ticker</text><text fill="#333" font-family="sans-serif" font-size="13" lengthAdjust="spacing" textLength="80.3994" x="124.6934" y="107.6777">(10 seconds)</text><rect fill="#ddd" height="30.4883" rx="2.5" stroke="#666" stroke-width=".5" width="55.7813" x="305.5024" y="78.9316"/><text fill="#333" font-family="sans-serif" font-size="14" lengthAdjust="spacing" textLength="41.7813" x="312.5024" y="99.4668">Ticker</text><path d="m128.6934 137.7305-10 4 10 4-4-4z" fill="#666" stroke="#666"/><path d="m122.6934 141.7305h209.6997" stroke="#666" stroke-dasharray="2 2"/><text fill="#333" font-family="sans-serif" font-size="13" lengthAdjust="spacing" textLength="87.5596" x="134.6934" y="136.9883">Ticker Started</text><path d="m117.6934 181.3516h47" stroke="#666"/><path d="m164.6934 181.3516v13" stroke="#666"/><path d="m123.6934 194.3516h41" stroke="#666"/><path d="m133.6934 190.3516-10 4 10 4-4-4z" fill="#666" stroke="#666"/><text fill="#333" font-family="sans-serif" font-size="13" lengthAdjust="spacing" textLength="103.0352" x="129.6934" y="161.2988">Start Go Routine</text><text fill="#333" font-family="sans-serif" font-size="13" lengthAdjust="spacing" textLength="69.4497" x="129.6934" y="176.6094">(for Ticker)</text><path d="m122.6934 248.9727h42" stroke="#666"/><path d="m164.6934 248.9727v13" stroke="#666"/><path d="m117.6934 261.9727h47" stroke="#666"/><path d="m127.6934 257.9727-10 4 10 4-4-4z" fill="#666" stroke="#666"/><text fill="#333" font-family="sans-serif" font-size="13" lengthAdjust="spacing" textLength="176.6997" x="129.6934" y="228.9199">Broadcast Ping Notifications</text><text fill="#333" font-family="sans-serif" font-size="13" lengthAdjust="spacing" textLength="117.6411" x="129.6934" y="244.2305">(Every 10 seconds)</text><path d="m595.0161 282.2832 10 4-10 4 4-4z" fill="#666" stroke="#666"/><path d="m117.6934 286.2832h483.3227" stroke="#666"/><text fill="#333" font-family="sans-serif" font-size="13" lengthAdjust="spacing" textLength="155.6572" x="124.6934" y="281.541">Get HTTP Listen Address</text><path d="m128.6934 311.5938-10 4 10 4-4-4z" fill="#666" stroke="#666"/><path d="m122.6934 315.5938h488.3227" stroke="#666" stroke-dasharray="2 2"/><text fill="#333" font-family="sans-serif" font-size="13" lengthAdjust="spacing" textLength="51.1494" x="134.6934" y="310.8516">Address</text><path d="m359.2837 340.9043 10 4-10 4 4-4z" fill="#666" stroke="#666"/><path d="m117.6934 344.9043h247.5903" stroke="#666"/><text fill="#333" font-family="sans-serif" font-size="13" lengthAdjust="spacing" textLength="133.8403" x="124.6934" y="340.1621">Initialize HTTP Server</text><rect fill="#ddd" height="30.4883" rx="2.5" stroke="#666" stroke-width=".5" width="96.0039" x="371.2837" y="323.5938"/><text fill="#333" font-family="sans-serif" font-size="14" lengthAdjust="spacing" textLength="82.0039" x="378.2837" y="344.1289">HTTP Server</text><path d="m128.6934 382.3926-10 4 10 4-4-4z" fill="#666" stroke="#666"/><path d="m122.6934 386.3926h295.5922" stroke="#666" stroke-dasharray="2 2"/><text fill="#333" font-family="sans-serif" font-size="13" lengthAdjust="spacing" textLength="117.876" x="134.6934" y="381.6504">HTTP Server Ready</text><path d="m117.6934 426.0137h47" stroke="#666"/><path d="m164.6934 426.0137v13" stroke="#666"/><path d="m123.6934 439.0137h41" stroke="#666"/><path d="m133.6934 435.0137-10 4 10 4-4-4z" fill="#666" stroke="#666"/><text fill="#333" font-family="sans-serif" font-size="13" lengthAdjust="spacing" textLength="103.0352" x="129.6934" y="405.9609">Start Go Routine</text><text fill="#333" font-family="sans-serif" font-size="13" lengthAdjust="spacing" textLength="106.7993" x="129.6934" y="421.2715">(for HTTP Server)</text><path d="m407.2856 469.3242 10 4-10 4 4-4z" fill="#666" stroke="#666"/><path d="m122.6934 473.3242h290.5922" stroke="#666"/><text fill="#333" font-family="sans-serif" font-size="13" lengthAdjust="spacing" textLength="109.4844" x="129.6934" y="468.582">Start HTTP Server</text><path d="m128.6934 498.6348-10 4 10 4-4-4z" fill="#666" stroke="#666"/><path d="m122.6934 502.6348h295.5922" stroke="#666" stroke-dasharray="2 2"/><text fill="#333" font-family="sans-serif" font-size="13" lengthAdjust="spacing" textLength="132.6152" x="134.6934" y="497.8926">HTTP Server Running</text><path d="m465.2876 527.9453 10 4-10 4 4-4z" fill="#666" stroke="#666"/><path d="m117.6934 531.9453h353.5942" stroke="#666"/><text fill="#333" font-family="sans-serif" font-size="13" lengthAdjust="spacing" textLength="133.1675" x="124.6934" y="527.2031">Initialize gRPC Server</text><rect fill="#ddd" height="30.4883" rx="2.5" stroke="#666" stroke-width=".5" width="95.2793" x="477.2876" y="510.6348"/><text fill="#333" font-family="sans-serif" font-size="14" lengthAdjust="spacing" textLength="81.2793" x="484.2876" y="531.1699">gRPC Server</text><path d="m128.6934 569.4336-10 4 10 4-4-4z" fill="#666" stroke="#666"/><path d="m122.6934 573.4336h401.2338" stroke="#666" stroke-dasharray="2 2"/><text fill="#333" font-family="sans-serif" font-size="13" lengthAdjust="spacing" textLength="117.2031" x="134.6934" y="568.6914">gRPC Server Ready</text><path d="m117.6934 613.0547h47" stroke="#666"/><path d="m164.6934 613.0547v13" stroke="#666"/><path d="m123.6934 626.0547h41" stroke="#666"/><path d="m133.6934 622.0547-10 4 10 4-4-4z" fill="#666" stroke="#666"/><text fill="#333" font-family="sans-serif" font-size="13" lengthAdjust="spacing" textLength="103.0352" x="129.6934" y="593.002">Start Go Routine</text><text fill="#333" font-family="sans-serif" font-size="13" lengthAdjust="spacing" textLength="106.1265" x="129.6934" y="608.3125">(for gRPC Server)</text><path d="m512.9272 656.3652 10 4-10 4 4-4z" fill="#666" stroke="#666"/><path d="m122.6934 660.3652h396.2338" stroke="#666"/><text fill="#333" font-family="sans-serif" font-size="13" lengthAdjust="spacing" textLength="108.8115" x="129.6934" y="655.623">Start gRPC Server</text><path d="m128.6934 685.6758-10 4 10 4-4-4z" fill="#666" stroke="#666"/><path d="m122.6934 689.6758h401.2338" stroke="#666" stroke-dasharray="2 2"/><text fill="#333" font-family="sans-serif" font-size="13" lengthAdjust="spacing" textLength="131.9424" x="134.6934" y="684.9336">gRPC Server Running</text><path d="m42.52 714.9863-10 4 10 4-4-4z" fill="#666" stroke="#666"/><path d="m36.52 718.9863h75.1734" stroke="#666" stroke-dasharray="2 2"/><text fill="#333" font-family="sans-serif" font-size="13" lengthAdjust="spacing" textLength="44.6494" x="48.52" y="714.2441">Started</text><text fill="#333" font-family="sans-serif" font-size="10" lengthAdjust="spacing" textLength="155.4346" y="778.1426">Last Modified On: 24-Feb-2025</text></svg>
