<svg contentStyleType="text/css" height="758" preserveAspectRatio="none" viewBox="0 0 882 758" width="882" xmlns="http://www.w3.org/2000/svg" zoomAndPan="magnify"><g fill="#fff" stroke="#181818"><path d="m152.5 98.7988h10v568.5898h-10z"/><path d="m157.5 194.7305h10v471.6582h-10z"/><path d="m350.5 128.1094h10v29.3105h-10z"/><path d="m455 271.3516h10v177.8633h-10z"/><path d="m455 622.0781h10v29.3105h-10z"/><path d="m559 354.2832h10v29.3105h-10z"/><path d="m559 532.1465h10v29.3105h-10z"/><path d="m784 478.5254h10v97.9316h-10z"/></g><path d="m119 315.6621h506v75.9316h-506z" fill="none" stroke="#000" stroke-width="1.5"/><path d="m503 493.5254h373v75.9316h-373z" fill="none" stroke="#000" stroke-width="1.5"/><path d="m119 583.457h394v75.9316h-394z" fill="none" stroke="#000" stroke-width="1.5"/><g stroke="#181818"><path d="m48 67.4883v608.9004" stroke-dasharray="5 5" stroke-width=".5"/><path d="m157 67.4883v608.9004" stroke-dasharray="5 5" stroke-width=".5"/><path d="m355 67.4883v608.9004" stroke-dasharray="5 5" stroke-width=".5"/><path d="m460 67.4883v608.9004" stroke-dasharray="5 5" stroke-width=".5"/><path d="m564 67.4883v608.9004" stroke-dasharray="5 5" stroke-width=".5"/><path d="m789 67.4883v608.9004" stroke-dasharray="5 5" stroke-width=".5"/><rect fill="#e2e2f0" height="30.4883" rx="2.5" stroke-width=".5" width="87" x="5" y="36"/></g><text font-family="sans-serif" font-size="14" lengthAdjust="spacing" textLength="73" x="12" y="56.5352">Subscriber</text><rect fill="#e2e2f0" height="30.4883" rx="2.5" stroke="#181818" stroke-width=".5" width="87" x="5" y="675.3887"/><text font-family="sans-serif" font-size="14" lengthAdjust="spacing" textLength="73" x="12" y="695.9238">Subscriber</text><rect fill="#e2e2f0" height="30.4883" rx="2.5" stroke="#181818" stroke-width=".5" width="57" x="129" y="36"/><text font-family="sans-serif" font-size="14" lengthAdjust="spacing" textLength="43" x="136" y="56.5352">Server</text><rect fill="#e2e2f0" height="30.4883" rx="2.5" stroke="#181818" stroke-width=".5" width="57" x="129" y="675.3887"/><text font-family="sans-serif" font-size="14" lengthAdjust="spacing" textLength="43" x="136" y="695.9238">Server</text><rect fill="#e2e2f0" height="30.4883" rx="2.5" stroke="#181818" stroke-width=".5" width="103" x="304" y="36"/><text font-family="sans-serif" font-size="14" lengthAdjust="spacing" textLength="89" x="311" y="56.5352">Peer Context</text><rect fill="#e2e2f0" height="30.4883" rx="2.5" stroke="#181818" stroke-width=".5" width="103" x="304" y="675.3887"/><text font-family="sans-serif" font-size="14" lengthAdjust="spacing" textLength="89" x="311" y="695.9238">Peer Context</text><text font-family="sans-serif" font-size="14" lengthAdjust="spacing" textLength="80" x="417" y="64.5352">Subscribers</text><path d="m442 15c0-10 18-10 18-10s18 0 18 10v26c0 10-18 10-18 10s-18 0-18-10z" fill="#e2e2f0" stroke="#181818" stroke-width="1.5"/><path d="m442 15c0 10 18 10 18 10s18 0 18-10" fill="none" stroke="#181818" stroke-width="1.5"/><text font-family="sans-serif" font-size="14" lengthAdjust="spacing" textLength="80" x="417" y="688.9238">Subscribers</text><path d="m442 701.877c0-10 18-10 18-10s18 0 18 10v26c0 10-18 10-18 10s-18 0-18-10z" fill="#e2e2f0" stroke="#181818" stroke-width="1.5"/><path d="m442 701.877c0 10 18 10 18 10s18 0 18-10" fill="none" stroke="#181818" stroke-width="1.5"/><rect fill="#e2e2f0" height="30.4883" rx="2.5" stroke="#181818" stroke-width=".5" width="102" x="513" y="36"/><text font-family="sans-serif" font-size="14" lengthAdjust="spacing" textLength="88" x="520" y="56.5352">gRPC Stream</text><rect fill="#e2e2f0" height="30.4883" rx="2.5" stroke="#181818" stroke-width=".5" width="102" x="513" y="675.3887"/><text font-family="sans-serif" font-size="14" lengthAdjust="spacing" textLength="88" x="520" y="695.9238">gRPC Stream</text><rect fill="#e2e2f0" height="30.4883" rx="2.5" stroke="#181818" stroke-width=".5" width="154" x="712" y="36"/><text font-family="sans-serif" font-size="14" lengthAdjust="spacing" textLength="140" x="719" y="56.5352">Notification Channel</text><rect fill="#e2e2f0" height="30.4883" rx="2.5" stroke="#181818" stroke-width=".5" width="154" x="712" y="675.3887"/><text font-family="sans-serif" font-size="14" lengthAdjust="spacing" textLength="140" x="719" y="695.9238">Notification Channel</text><g stroke="#181818"><g fill="#fff"><path d="m152.5 98.7988h10v568.5898h-10z"/><path d="m157.5 194.7305h10v471.6582h-10z"/><path d="m350.5 128.1094h10v29.3105h-10z"/><path d="m455 271.3516h10v177.8633h-10z"/><path d="m455 622.0781h10v29.3105h-10z"/><path d="m559 354.2832h10v29.3105h-10z"/><path d="m559 532.1465h10v29.3105h-10z"/><path d="m784 478.5254h10v97.9316h-10z"/></g><path d="m140.5 94.7988 10 4-10 4 4-4z" fill="#181818"/><path d="m48.5 98.7988h98"/></g><text font-family="sans-serif" font-size="13" lengthAdjust="spacing" textLength="85" x="55.5" y="94.0566">Connect(info)</text><path d="m338.5 124.1094 10 4-10 4 4-4z" fill="#181818" stroke="#181818"/><path d="m162.5 128.1094h182" stroke="#181818"/><text font-family="sans-serif" font-size="13" lengthAdjust="spacing" textLength="103" x="169.5" y="123.3672">Extract Peer Info</text><path d="m173.5 153.4199-10 4 10 4-4-4z" fill="#181818" stroke="#181818"/><path d="m167.5 157.4199h187" stroke="#181818" stroke-dasharray="2 2"/><text font-family="sans-serif" font-size="13" lengthAdjust="spacing" textLength="55" x="179.5" y="152.6777">Peer Info</text><path d="m162.5 181.7305h47" stroke="#181818"/><path d="m209.5 181.7305v13" stroke="#181818"/><path d="m168.5 194.7305h41" stroke="#181818"/><path d="m178.5 190.7305-10 4 10 4-4-4z" fill="#181818" stroke="#181818"/><text font-family="sans-serif" font-size="13" lengthAdjust="spacing" textLength="174" x="174.5" y="176.9883">Create Notification Channel</text><path d="m167.5 229.041h42" stroke="#181818" stroke-dasharray="2 2"/><path d="m209.5 229.041v13" stroke="#181818" stroke-dasharray="2 2"/><path d="m168.5 242.041h41" stroke="#181818" stroke-dasharray="2 2"/><path d="m178.5 238.041-10 4 10 4-4-4z" fill="#181818" stroke="#181818"/><text font-family="sans-serif" font-size="13" lengthAdjust="spacing" textLength="103" x="174.5" y="224.2988">Channel Created</text><path d="m443 267.3516 10 4-10 4 4-4z" fill="#181818" stroke="#181818"/><path d="m167.5 271.3516h281.5" stroke="#181818"/><text font-family="sans-serif" font-size="13" lengthAdjust="spacing" textLength="153" x="174.5" y="266.6094">Get Existing Subscribers</text><path d="m178.5 296.6621-10 4 10 4-4-4z" fill="#181818" stroke="#181818"/><path d="m172.5 300.6621h281.5" stroke="#181818" stroke-dasharray="2 2"/><text font-family="sans-serif" font-size="13" lengthAdjust="spacing" textLength="128" x="184.5" y="295.9199">Existing Subscribers</text><path d="m119 315.6621h74v7.3106l-10 10h-64z" fill="#eee" stroke="#000" stroke-width="1.5"/><path d="m119 315.6621h506v75.9316h-506z" fill="none" stroke="#000" stroke-width="1.5"/><text font-family="sans-serif" font-size="13" font-weight="bold" lengthAdjust="spacing" textLength="29" x="134" y="329.2305">loop</text><text font-family="sans-serif" font-size="11" font-weight="bold" lengthAdjust="spacing" textLength="146" x="208" y="328.2969">[Each Existing Subscriber]</text><path d="m547 350.2832 10 4-10 4 4-4z" fill="#181818" stroke="#181818"/><path d="m167.5 354.2832h385.5" stroke="#181818"/><text font-family="sans-serif" font-size="13" lengthAdjust="spacing" textLength="177" x="174.5" y="349.541">Send Info to New Subscriber</text><path d="m178.5 379.5938-10 4 10 4-4-4z" fill="#181818" stroke="#181818"/><path d="m172.5 383.5938h390.5" stroke="#181818" stroke-dasharray="2 2"/><text font-family="sans-serif" font-size="13" lengthAdjust="spacing" textLength="56" x="184.5" y="378.8516">Info Sent</text><path d="m443 415.9043 10 4-10 4 4-4z" fill="#181818" stroke="#181818"/><path d="m167.5 419.9043h281.5" stroke="#181818"/><text font-family="sans-serif" font-size="13" lengthAdjust="spacing" textLength="126" x="174.5" y="415.1621">Add New Subscriber</text><path d="m178.5 445.2148-10 4 10 4-4-4z" fill="#181818" stroke="#181818"/><path d="m172.5 449.2148h286.5" stroke="#181818" stroke-dasharray="2 2"/><text font-family="sans-serif" font-size="13" lengthAdjust="spacing" textLength="110" x="184.5" y="444.4727">Subscriber Added</text><path d="m772 474.5254 10 4-10 4 4-4z" fill="#181818" stroke="#181818"/><path d="m167.5 478.5254h610.5" stroke="#181818"/><text font-family="sans-serif" font-size="13" lengthAdjust="spacing" textLength="146" x="174.5" y="473.7832">Listen for Notifications</text><path d="m503 493.5254h74v7.3105l-10 10h-64z" fill="#eee" stroke="#000" stroke-width="1.5"/><path d="m503 493.5254h373v75.9316h-373z" fill="none" stroke="#000" stroke-width="1.5"/><text font-family="sans-serif" font-size="13" font-weight="bold" lengthAdjust="spacing" textLength="29" x="518" y="507.0938">loop</text><text font-family="sans-serif" font-size="11" font-weight="bold" lengthAdjust="spacing" textLength="128" x="592" y="506.1602">[Notification Received]</text><path d="m580 528.1465-10 4 10 4-4-4z" fill="#181818" stroke="#181818"/><path d="m574 532.1465h209" stroke="#181818"/><text font-family="sans-serif" font-size="13" lengthAdjust="spacing" textLength="196" x="586" y="527.4043">Send Notification to Subscriber</text><path d="m772 557.457 10 4-10 4 4-4z" fill="#181818" stroke="#181818"/><path d="m564 561.457h214" stroke="#181818" stroke-dasharray="2 2"/><text font-family="sans-serif" font-size="13" lengthAdjust="spacing" textLength="106" x="571" y="556.7148">Notification Sent</text><path d="m119 583.457h62v7.3106l-10 10h-52z" fill="#eee" stroke="#000" stroke-width="1.5"/><path d="m119 583.457h394v75.9316h-394z" fill="none" stroke="#000" stroke-width="1.5"/><text font-family="sans-serif" font-size="13" font-weight="bold" lengthAdjust="spacing" textLength="17" x="134" y="597.0254">alt</text><text font-family="sans-serif" font-size="11" font-weight="bold" lengthAdjust="spacing" textLength="101" x="196" y="596.0918">[If Disconnection]</text><path d="m443 618.0781 10 4-10 4 4-4z" fill="#181818" stroke="#181818"/><path d="m167.5 622.0781h281.5" stroke="#181818"/><text font-family="sans-serif" font-size="13" lengthAdjust="spacing" textLength="119" x="174.5" y="617.3359">Remove Subscriber</text><path d="m178.5 647.3887-10 4 10 4-4-4z" fill="#181818" stroke="#181818"/><path d="m172.5 651.3887h286.5" stroke="#181818" stroke-dasharray="2 2"/><text font-family="sans-serif" font-size="13" lengthAdjust="spacing" textLength="127" x="184.5" y="646.6465">Subscriber Removed</text><text fill="#888" font-family="sans-serif" font-size="10" lengthAdjust="spacing" textLength="155" y="748.5449">Last Modified On: 23-Nov-2023</text></svg>
