<svg contentStyleType="text/css" height="758" preserveAspectRatio="none" viewBox="0 0 886 758" width="886" xmlns="http://www.w3.org/2000/svg" zoomAndPan="magnify"><path d="m0 0h886v758h-886z" fill="#f0f8ff"/><g fill="#fff"><path d="m151.6567 98.7988h10v568.5898h-10z" stroke="#181818"/><path d="m156.6567 194.7305h10v471.6582h-10z" stroke="#181818"/><path d="m359.3604 128.1094h10v29.3105h-10z" stroke="#181818"/><path d="m462.3247 271.3516h10v177.8633h-10z" stroke="#181818"/><path d="m462.3247 622.0781h10v29.3105h-10z" stroke="#181818"/><path d="m564.896 354.2832h10v29.3105h-10z" stroke="#181818"/><path d="m564.896 532.1465h10v29.3105h-10z" stroke="#181818"/><path d="m789.1943 478.5254h10v97.9316h-10z" stroke="#181818"/></g><path d="m118.7354 315.6621h511.4321v75.9316h-511.4321z" fill="none" stroke="#000" stroke-width="1.5"/><path d="m509.6245 493.5254h370.8965v75.9316h-370.8965z" fill="none" stroke="#000" stroke-width="1.5"/><path d="m118.7354 583.457h400.8892v75.9316h-400.8892z" fill="none" stroke="#000" stroke-width="1.5"/><path d="m47 67.4883v608.9004" stroke="#181818" stroke-dasharray="5 5" stroke-width=".5"/><path d="m155.7354 67.4883v608.9004" stroke="#181818" stroke-dasharray="5 5" stroke-width=".5"/><path d="m363.6958 67.4883v608.9004" stroke="#181818" stroke-dasharray="5 5" stroke-width=".5"/><path d="m467.0249 67.4883v608.9004" stroke="#181818" stroke-dasharray="5 5" stroke-width=".5"/><path d="m569.6245 67.4883v608.9004" stroke="#181818" stroke-dasharray="5 5" stroke-width=".5"/><path d="m793.8677 67.4883v608.9004" stroke="#181818" stroke-dasharray="5 5" stroke-width=".5"/><rect fill="#ddd" height="30.4883" rx="2.5" stroke="#666" stroke-width=".5" width="85.4629" x="5" y="36"/><text fill="#333" font-family="sans-serif" font-size="14" lengthAdjust="spacing" textLength="71.4629" x="12" y="56.5352">Subscriber</text><rect fill="#ddd" height="30.4883" rx="2.5" stroke="#666" stroke-width=".5" width="85.4629" x="5" y="675.3887"/><text fill="#333" font-family="sans-serif" font-size="14" lengthAdjust="spacing" textLength="71.4629" x="12" y="695.9238">Subscriber</text><rect fill="#ddd" height="30.4883" rx="2.5" stroke="#666" stroke-width=".5" width="55.8428" x="128.7354" y="36"/><text fill="#333" font-family="sans-serif" font-size="14" lengthAdjust="spacing" textLength="41.8428" x="135.7354" y="56.5352">Server</text><rect fill="#ddd" height="30.4883" rx="2.5" stroke="#666" stroke-width=".5" width="55.8428" x="128.7354" y="675.3887"/><text fill="#333" font-family="sans-serif" font-size="14" lengthAdjust="spacing" textLength="41.8428" x="135.7354" y="695.9238">Server</text><rect fill="#ddd" height="30.4883" rx="2.5" stroke="#666" stroke-width=".5" width="101.3291" x="313.6958" y="36"/><text fill="#333" font-family="sans-serif" font-size="14" lengthAdjust="spacing" textLength="87.3291" x="320.6958" y="56.5352">Peer Context</text><rect fill="#ddd" height="30.4883" rx="2.5" stroke="#666" stroke-width=".5" width="101.3291" x="313.6958" y="675.3887"/><text fill="#333" font-family="sans-serif" font-size="14" lengthAdjust="spacing" textLength="87.3291" x="320.6958" y="695.9238">Peer Context</text><text fill="#333" font-family="sans-serif" font-size="14" lengthAdjust="spacing" textLength="78.5996" x="425.0249" y="64.5352">Subscribers</text><path d="m449.3247 15c0-10 18-10 18-10s18 0 18 10v26c0 10-18 10-18 10s-18 0-18-10z" fill="#e2e2f0" stroke="#181818" stroke-width="1.5"/><path d="m449.3247 15c0 10 18 10 18 10s18 0 18-10" fill="none" stroke="#181818" stroke-width="1.5"/><text fill="#333" font-family="sans-serif" font-size="14" lengthAdjust="spacing" textLength="78.5996" x="425.0249" y="688.9238">Subscribers</text><path d="m449.3247 701.877c0-10 18-10 18-10s18 0 18 10v26c0 10-18 10-18 10s-18 0-18-10z" fill="#e2e2f0" stroke="#181818" stroke-width="1.5"/><path d="m449.3247 701.877c0 10 18 10 18 10s18 0 18-10" fill="none" stroke="#181818" stroke-width="1.5"/><rect fill="#ddd" height="30.4883" rx="2.5" stroke="#666" stroke-width=".5" width="100.543" x="519.6245" y="36"/><text fill="#333" font-family="sans-serif" font-size="14" lengthAdjust="spacing" textLength="86.543" x="526.6245" y="56.5352">gRPC Stream</text><rect fill="#ddd" height="30.4883" rx="2.5" stroke="#666" stroke-width=".5" width="100.543" x="519.6245" y="675.3887"/><text fill="#333" font-family="sans-serif" font-size="14" lengthAdjust="spacing" textLength="86.543" x="526.6245" y="695.9238">gRPC Stream</text><rect fill="#ddd" height="30.4883" rx="2.5" stroke="#666" stroke-width=".5" width="152.6533" x="717.8677" y="36"/><text fill="#333" font-family="sans-serif" font-size="14" lengthAdjust="spacing" textLength="138.6533" x="724.8677" y="56.5352">Notification Channel</text><rect fill="#ddd" height="30.4883" rx="2.5" stroke="#666" stroke-width=".5" width="152.6533" x="717.8677" y="675.3887"/><text fill="#333" font-family="sans-serif" font-size="14" lengthAdjust="spacing" textLength="138.6533" x="724.8677" y="695.9238">Notification Channel</text><path d="m151.6567 98.7988h10v568.5898h-10z" fill="#fff" stroke="#181818"/><path d="m156.6567 194.7305h10v471.6582h-10z" fill="#fff" stroke="#181818"/><path d="m359.3604 128.1094h10v29.3105h-10z" fill="#fff" stroke="#181818"/><path d="m462.3247 271.3516h10v177.8633h-10z" fill="#fff" stroke="#181818"/><path d="m462.3247 622.0781h10v29.3105h-10z" fill="#fff" stroke="#181818"/><path d="m564.896 354.2832h10v29.3105h-10z" fill="#fff" stroke="#181818"/><path d="m564.896 532.1465h10v29.3105h-10z" fill="#fff" stroke="#181818"/><path d="m789.1943 478.5254h10v97.9316h-10z" fill="#fff" stroke="#181818"/><path d="m139.6567 94.7988 10 4-10 4 4-4z" fill="#666" stroke="#666"/><path d="m47.7314 98.7988h97.9253" stroke="#666"/><text fill="#333" font-family="sans-serif" font-size="13" lengthAdjust="spacing" textLength="84.9253" x="54.7314" y="94.0566">Connect(info)</text><path d="m347.3604 124.1094 10 4-10 4 4-4z" fill="#666" stroke="#666"/><path d="m161.6567 128.1094h191.7037" stroke="#666"/><text fill="#333" font-family="sans-serif" font-size="13" lengthAdjust="spacing" textLength="103.6953" x="168.6567" y="123.3672">Extract Peer Info</text><path d="m172.6567 153.4199-10 4 10 4-4-4z" fill="#666" stroke="#666"/><path d="m166.6567 157.4199h196.7037" stroke="#666" stroke-dasharray="2 2"/><text fill="#333" font-family="sans-serif" font-size="13" lengthAdjust="spacing" textLength="55.6816" x="178.6567" y="152.6777">Peer Info</text><path d="m161.6567 181.7305h47" stroke="#666"/><path d="m208.6567 181.7305v13" stroke="#666"/><path d="m167.6567 194.7305h41" stroke="#666"/><path d="m177.6567 190.7305-10 4 10 4-4-4z" fill="#666" stroke="#666"/><text fill="#333" font-family="sans-serif" font-size="13" lengthAdjust="spacing" textLength="173.7036" x="173.6567" y="176.9883">Create Notification Channel</text><path d="m166.6567 229.041h42" stroke="#666" stroke-dasharray="2 2"/><path d="m208.6567 229.041v13" stroke="#666" stroke-dasharray="2 2"/><path d="m167.6567 242.041h41" stroke="#666" stroke-dasharray="2 2"/><path d="m177.6567 238.041-10 4 10 4-4-4z" fill="#666" stroke="#666"/><text fill="#333" font-family="sans-serif" font-size="13" lengthAdjust="spacing" textLength="104.5142" x="173.6567" y="224.2988">Channel Created</text><path d="m450.3247 267.3516 10 4-10 4 4-4z" fill="#666" stroke="#666"/><path d="m166.6567 271.3516h289.668" stroke="#666"/><text fill="#333" font-family="sans-serif" font-size="13" lengthAdjust="spacing" textLength="152.9087" x="173.6567" y="266.6094">Get Existing Subscribers</text><path d="m177.6567 296.6621-10 4 10 4-4-4z" fill="#666" stroke="#666"/><path d="m171.6567 300.6621h289.668" stroke="#666" stroke-dasharray="2 2"/><text fill="#333" font-family="sans-serif" font-size="13" lengthAdjust="spacing" textLength="127.2959" x="183.6567" y="295.9199">Existing Subscribers</text><path d="m118.7354 315.6621h74.4467v7.3106l-10 10h-64.4467z" fill="#eee" stroke="#000" stroke-width="1.5"/><path d="m118.7354 315.6621h511.4321v75.9316h-511.4321z" fill="none" stroke="#000" stroke-width="1.5"/><text fill="#333" font-family="sans-serif" font-size="13" font-weight="bold" lengthAdjust="spacing" textLength="29.4468" x="133.7354" y="329.2305">loop</text><text fill="#333" font-family="sans-serif" font-size="11" font-weight="bold" lengthAdjust="spacing" textLength="147.1572" x="208.1821" y="328.2969">[Each Existing Subscriber]</text><path d="m552.896 350.2832 10 4-10 4 4-4z" fill="#666" stroke="#666"/><path d="m166.6567 354.2832h392.2393" stroke="#666"/><text fill="#333" font-family="sans-serif" font-size="13" lengthAdjust="spacing" textLength="177.5947" x="173.6567" y="349.541">Send Info to New Subscriber</text><path d="m177.6567 379.5938-10 4 10 4-4-4z" fill="#666" stroke="#666"/><path d="m171.6567 383.5938h397.2393" stroke="#666" stroke-dasharray="2 2"/><text fill="#333" font-family="sans-serif" font-size="13" lengthAdjust="spacing" textLength="55.8657" x="183.6567" y="378.8516">Info Sent</text><path d="m450.3247 415.9043 10 4-10 4 4-4z" fill="#666" stroke="#666"/><path d="m166.6567 419.9043h289.668" stroke="#666"/><text fill="#333" font-family="sans-serif" font-size="13" lengthAdjust="spacing" textLength="126.7817" x="173.6567" y="415.1621">Add New Subscriber</text><path d="m177.6567 445.2148-10 4 10 4-4-4z" fill="#666" stroke="#666"/><path d="m171.6567 449.2148h294.668" stroke="#666" stroke-dasharray="2 2"/><text fill="#333" font-family="sans-serif" font-size="13" lengthAdjust="spacing" textLength="111.23" x="183.6567" y="444.4727">Subscriber Added</text><path d="m777.1943 474.5254 10 4-10 4 4-4z" fill="#666" stroke="#666"/><path d="m166.6567 478.5254h616.5376" stroke="#666"/><text fill="#333" font-family="sans-serif" font-size="13" lengthAdjust="spacing" textLength="143.6855" x="173.6567" y="473.7832">Listen for Notifications</text><path d="m509.6245 493.5254h74.4468v7.3105l-10 10h-64.4468z" fill="#eee" stroke="#000" stroke-width="1.5"/><path d="m509.6245 493.5254h370.8965v75.9316h-370.8965z" fill="none" stroke="#000" stroke-width="1.5"/><text fill="#333" font-family="sans-serif" font-size="13" font-weight="bold" lengthAdjust="spacing" textLength="29.4468" x="524.6245" y="507.0938">loop</text><text fill="#333" font-family="sans-serif" font-size="11" font-weight="bold" lengthAdjust="spacing" textLength="128.208" x="599.0713" y="506.1602">[Notification Received]</text><path d="m585.896 528.1465-10 4 10 4-4-4z" fill="#666" stroke="#666"/><path d="m579.896 532.1465h208.2983" stroke="#666"/><text fill="#333" font-family="sans-serif" font-size="13" lengthAdjust="spacing" textLength="195.2983" x="591.896" y="527.4043">Send Notification to Subscriber</text><path d="m777.1943 557.457 10 4-10 4 4-4z" fill="#666" stroke="#666"/><path d="m569.896 561.457h213.2983" stroke="#666" stroke-dasharray="2 2"/><text fill="#333" font-family="sans-serif" font-size="13" lengthAdjust="spacing" textLength="104.5459" x="576.896" y="556.7148">Notification Sent</text><path d="m118.7354 583.457h62.1386v7.3106l-10 10h-52.1386z" fill="#eee" stroke="#000" stroke-width="1.5"/><path d="m118.7354 583.457h400.8892v75.9316h-400.8892z" fill="none" stroke="#000" stroke-width="1.5"/><text fill="#333" font-family="sans-serif" font-size="13" font-weight="bold" lengthAdjust="spacing" textLength="17.1387" x="133.7354" y="597.0254">alt</text><text fill="#333" font-family="sans-serif" font-size="11" font-weight="bold" lengthAdjust="spacing" textLength="100.418" x="195.874" y="596.0918">[If Disconnection]</text><path d="m450.3247 618.0781 10 4-10 4 4-4z" fill="#666" stroke="#666"/><path d="m166.6567 622.0781h289.668" stroke="#666"/><text fill="#333" font-family="sans-serif" font-size="13" lengthAdjust="spacing" textLength="120.0278" x="173.6567" y="617.3359">Remove Subscriber</text><path d="m177.6567 647.3887-10 4 10 4-4-4z" fill="#666" stroke="#666"/><path d="m171.6567 651.3887h294.668" stroke="#666" stroke-dasharray="2 2"/><text fill="#333" font-family="sans-serif" font-size="13" lengthAdjust="spacing" textLength="128.21" x="183.6567" y="646.6465">Subscriber Removed</text><text fill="#333" font-family="sans-serif" font-size="10" lengthAdjust="spacing" textLength="155.4346" y="748.5449">Last Modified On: 24-Feb-2025</text></svg>
