<svg xmlns="http://www.w3.org/2000/svg" xmlns:xlink="http://www.w3.org/1999/xlink" contentStyleType="text/css" height="1058px" preserveAspectRatio="none" style="width:1085px;height:1058px;background:#F0F8FF;" version="1.1" viewBox="0 0 1085 1058" width="1085px" zoomAndPan="magnify"><defs/><g><rect fill="#F0F8FF" height="1058" style="stroke:none;stroke-width:1.0;" width="1085" x="0" y="0"/><rect fill="#FFFFFF" height="326.416" style="stroke:#181818;stroke-width:1.0;" width="10" x="265.6587" y="77.4883"/><rect fill="#FFFFFF" height="103.2422" style="stroke:#181818;stroke-width:1.0;" width="10" x="265.6587" y="476.5254"/><rect fill="#FFFFFF" height="161.5527" style="stroke:#181818;stroke-width:1.0;" width="10" x="265.6587" y="652.3887"/><rect fill="#FFFFFF" height="71.6211" style="stroke:#181818;stroke-width:1.0;" width="10" x="265.6587" y="886.5625"/><rect fill="#FFFFFF" height="29.3105" style="stroke:#181818;stroke-width:1.0;" width="10" x="542.8584" y="199.7305"/><rect fill="#FFFFFF" height="29.3105" style="stroke:#181818;stroke-width:1.0;" width="10" x="644.5479" y="315.9727"/><rect fill="#FFFFFF" height="29.3105" style="stroke:#181818;stroke-width:1.0;" width="10" x="769.1216" y="374.5938"/><rect fill="#FFFFFF" height="29.3105" style="stroke:#181818;stroke-width:1.0;" width="10" x="1011.2383" y="521.1465"/><rect fill="#FFFFFF" height="29.3105" style="stroke:#181818;stroke-width:1.0;" width="10" x="1011.2383" y="748.3203"/><rect fill="none" height="75.9316" style="stroke:#000000;stroke-width:1.5;" width="836.2324" x="232.7373" y="709.6992"/><line style="stroke:#181818;stroke-width:0.5;stroke-dasharray:5.0,5.0;" x1="31" x2="31" y1="67.4883" y2="976.1836"/><line style="stroke:#181818;stroke-width:0.5;stroke-dasharray:5.0,5.0;" x1="269.7373" x2="269.7373" y1="67.4883" y2="976.1836"/><line style="stroke:#181818;stroke-width:0.5;stroke-dasharray:5.0,5.0;" x1="547.4092" x2="547.4092" y1="67.4883" y2="976.1836"/><line style="stroke:#181818;stroke-width:0.5;stroke-dasharray:5.0,5.0;" x1="649.3076" x2="649.3076" y1="67.4883" y2="976.1836"/><line style="stroke:#181818;stroke-width:0.5;stroke-dasharray:5.0,5.0;" x1="773.7881" x2="773.7881" y1="67.4883" y2="976.1836"/><line style="stroke:#181818;stroke-width:0.5;stroke-dasharray:5.0,5.0;" x1="897.4551" x2="897.4551" y1="67.4883" y2="976.1836"/><line style="stroke:#181818;stroke-width:0.5;stroke-dasharray:5.0,5.0;" x1="1015.5068" x2="1015.5068" y1="67.4883" y2="976.1836"/><rect fill="#DDDDDD" height="30.4883" rx="2.5" ry="2.5" style="stroke:#666666;stroke-width:0.5;" width="53.5049" x="5" y="36"/><text fill="#333333" font-family="sans-serif" font-size="14" lengthAdjust="spacing" textLength="39.5049" x="12" y="56.5352">Client</text><rect fill="#DDDDDD" height="30.4883" rx="2.5" ry="2.5" style="stroke:#666666;stroke-width:0.5;" width="53.5049" x="5" y="975.1836"/><text fill="#333333" font-family="sans-serif" font-size="14" lengthAdjust="spacing" textLength="39.5049" x="12" y="995.7188">Client</text><rect fill="#DDDDDD" height="30.4883" rx="2.5" ry="2.5" style="stroke:#666666;stroke-width:0.5;" width="55.8428" x="242.7373" y="36"/><text fill="#333333" font-family="sans-serif" font-size="14" lengthAdjust="spacing" textLength="41.8428" x="249.7373" y="56.5352">Server</text><rect fill="#DDDDDD" height="30.4883" rx="2.5" ry="2.5" style="stroke:#666666;stroke-width:0.5;" width="55.8428" x="242.7373" y="975.1836"/><text fill="#333333" font-family="sans-serif" font-size="14" lengthAdjust="spacing" textLength="41.8428" x="249.7373" y="995.7188">Server</text><text fill="#333333" font-family="sans-serif" font-size="14" lengthAdjust="spacing" textLength="44.8984" x="522.4092" y="64.5352">Config</text><path d="M529.8584,15 C529.8584,5 547.8584,5 547.8584,5 C547.8584,5 565.8584,5 565.8584,15 L565.8584,41 C565.8584,51 547.8584,51 547.8584,51 C547.8584,51 529.8584,51 529.8584,41 L529.8584,15 " fill="#E2E2F0" style="stroke:#181818;stroke-width:1.5;"/><path d="M529.8584,15 C529.8584,25 547.8584,25 547.8584,25 C547.8584,25 565.8584,25 565.8584,15 " fill="none" style="stroke:#181818;stroke-width:1.5;"/><text fill="#333333" font-family="sans-serif" font-size="14" lengthAdjust="spacing" textLength="44.8984" x="522.4092" y="988.7188">Config</text><path d="M529.8584,1001.6719 C529.8584,991.6719 547.8584,991.6719 547.8584,991.6719 C547.8584,991.6719 565.8584,991.6719 565.8584,1001.6719 L565.8584,1027.6719 C565.8584,1037.6719 547.8584,1037.6719 547.8584,1037.6719 C547.8584,1037.6719 529.8584,1037.6719 529.8584,1027.6719 L529.8584,1001.6719 " fill="#E2E2F0" style="stroke:#181818;stroke-width:1.5;"/><path d="M529.8584,1001.6719 C529.8584,1011.6719 547.8584,1011.6719 547.8584,1011.6719 C547.8584,1011.6719 565.8584,1011.6719 565.8584,1001.6719 " fill="none" style="stroke:#181818;stroke-width:1.5;"/><rect fill="#DDDDDD" height="30.4883" rx="2.5" ry="2.5" style="stroke:#666666;stroke-width:0.5;" width="132.4805" x="583.3076" y="36"/><text fill="#333333" font-family="sans-serif" font-size="14" lengthAdjust="spacing" textLength="118.4805" x="590.3076" y="56.5352">Echo HTTP Server</text><rect fill="#DDDDDD" height="30.4883" rx="2.5" ry="2.5" style="stroke:#666666;stroke-width:0.5;" width="132.4805" x="583.3076" y="975.1836"/><text fill="#333333" font-family="sans-serif" font-size="14" lengthAdjust="spacing" textLength="118.4805" x="590.3076" y="995.7188">Echo HTTP Server</text><rect fill="#DDDDDD" height="30.4883" rx="2.5" ry="2.5" style="stroke:#666666;stroke-width:0.5;" width="96.667" x="725.7881" y="36"/><text fill="#333333" font-family="sans-serif" font-size="14" lengthAdjust="spacing" textLength="82.667" x="732.7881" y="56.5352">GRPC Server</text><rect fill="#DDDDDD" height="30.4883" rx="2.5" ry="2.5" style="stroke:#666666;stroke-width:0.5;" width="96.667" x="725.7881" y="975.1836"/><text fill="#333333" font-family="sans-serif" font-size="14" lengthAdjust="spacing" textLength="82.667" x="732.7881" y="995.7188">GRPC Server</text><rect fill="#DDDDDD" height="30.4883" rx="2.5" ry="2.5" style="stroke:#666666;stroke-width:0.5;" width="131.0518" x="832.4551" y="36"/><text fill="#333333" font-family="sans-serif" font-size="14" lengthAdjust="spacing" textLength="117.0518" x="839.4551" y="56.5352">WebSocket Client</text><rect fill="#DDDDDD" height="30.4883" rx="2.5" ry="2.5" style="stroke:#666666;stroke-width:0.5;" width="131.0518" x="832.4551" y="975.1836"/><text fill="#333333" font-family="sans-serif" font-size="14" lengthAdjust="spacing" textLength="117.0518" x="839.4551" y="995.7188">WebSocket Client</text><rect fill="#DDDDDD" height="30.4883" rx="2.5" ry="2.5" style="stroke:#666666;stroke-width:0.5;" width="85.4629" x="973.5068" y="36"/><text fill="#333333" font-family="sans-serif" font-size="14" lengthAdjust="spacing" textLength="71.4629" x="980.5068" y="56.5352">Subscriber</text><rect fill="#DDDDDD" height="30.4883" rx="2.5" ry="2.5" style="stroke:#666666;stroke-width:0.5;" width="85.4629" x="973.5068" y="975.1836"/><text fill="#333333" font-family="sans-serif" font-size="14" lengthAdjust="spacing" textLength="71.4629" x="980.5068" y="995.7188">Subscriber</text><rect fill="#FFFFFF" height="326.416" style="stroke:#181818;stroke-width:1.0;" width="10" x="265.6587" y="77.4883"/><rect fill="#FFFFFF" height="103.2422" style="stroke:#181818;stroke-width:1.0;" width="10" x="265.6587" y="476.5254"/><rect fill="#FFFFFF" height="161.5527" style="stroke:#181818;stroke-width:1.0;" width="10" x="265.6587" y="652.3887"/><rect fill="#FFFFFF" height="71.6211" style="stroke:#181818;stroke-width:1.0;" width="10" x="265.6587" y="886.5625"/><rect fill="#FFFFFF" height="29.3105" style="stroke:#181818;stroke-width:1.0;" width="10" x="542.8584" y="199.7305"/><rect fill="#FFFFFF" height="29.3105" style="stroke:#181818;stroke-width:1.0;" width="10" x="644.5479" y="315.9727"/><rect fill="#FFFFFF" height="29.3105" style="stroke:#181818;stroke-width:1.0;" width="10" x="769.1216" y="374.5938"/><rect fill="#FFFFFF" height="29.3105" style="stroke:#181818;stroke-width:1.0;" width="10" x="1011.2383" y="521.1465"/><rect fill="#FFFFFF" height="29.3105" style="stroke:#181818;stroke-width:1.0;" width="10" x="1011.2383" y="748.3203"/><rect fill="#EEEEEE" height="3" style="stroke:#EEEEEE;stroke-width:1.0;" width="1078.9697" x="0" y="98.1436"/><line style="stroke:#000000;stroke-width:1.0;" x1="0" x2="1078.9697" y1="98.1436" y2="98.1436"/><line style="stroke:#000000;stroke-width:1.0;" x1="0" x2="1078.9697" y1="101.1436" y2="101.1436"/><rect fill="#EEEEEE" height="23.3105" style="stroke:#000000;stroke-width:2.0;" width="102.6133" x="488.1782" y="87.4883"/><text fill="#333333" font-family="sans-serif" font-size="13" font-weight="bold" lengthAdjust="spacing" textLength="84.3286" x="494.1782" y="104.0566">Initialization</text><line style="stroke:#666666;stroke-width:1.0;" x1="275.6587" x2="317.6587" y1="142.1094" y2="142.1094"/><line style="stroke:#666666;stroke-width:1.0;" x1="317.6587" x2="317.6587" y1="142.1094" y2="155.1094"/><line style="stroke:#666666;stroke-width:1.0;" x1="276.6587" x2="317.6587" y1="155.1094" y2="155.1094"/><polygon fill="#666666" points="286.6587,151.1094,276.6587,155.1094,286.6587,159.1094,282.6587,155.1094" style="stroke:#666666;stroke-width:1.0;"/><text fill="#333333" font-family="sans-serif" font-size="13" lengthAdjust="spacing" textLength="28.8882" x="282.6587" y="137.3672">Init()</text><polygon fill="#666666" points="530.8584,195.7305,540.8584,199.7305,530.8584,203.7305,534.8584,199.7305" style="stroke:#666666;stroke-width:1.0;"/><line style="stroke:#666666;stroke-width:1.0;" x1="275.6587" x2="536.8584" y1="199.7305" y2="199.7305"/><text fill="#333333" font-family="sans-serif" font-size="13" lengthAdjust="spacing" textLength="76.6289" x="282.6587" y="179.6777">Read Config</text><text fill="#333333" font-family="sans-serif" font-size="13" lengthAdjust="spacing" textLength="248.1997" x="282.6587" y="194.9883">(grpcListenAddress, httpListenAddress)</text><polygon fill="#666666" points="286.6587,225.041,276.6587,229.041,286.6587,233.041,282.6587,229.041" style="stroke:#666666;stroke-width:1.0;"/><line style="stroke:#666666;stroke-width:1.0;stroke-dasharray:2.0,2.0;" x1="280.6587" x2="546.8584" y1="229.041" y2="229.041"/><text fill="#333333" font-family="sans-serif" font-size="13" lengthAdjust="spacing" textLength="74.7627" x="292.6587" y="224.2988">Config Data</text><line style="stroke:#666666;stroke-width:1.0;" x1="275.6587" x2="317.6587" y1="258.3516" y2="258.3516"/><line style="stroke:#666666;stroke-width:1.0;" x1="317.6587" x2="317.6587" y1="258.3516" y2="271.3516"/><line style="stroke:#666666;stroke-width:1.0;" x1="276.6587" x2="317.6587" y1="271.3516" y2="271.3516"/><polygon fill="#666666" points="286.6587,267.3516,276.6587,271.3516,286.6587,275.3516,282.6587,271.3516" style="stroke:#666666;stroke-width:1.0;"/><text fill="#333333" font-family="sans-serif" font-size="13" lengthAdjust="spacing" textLength="155.8096" x="282.6587" y="253.6094">Setup Discovery Channel</text><polygon fill="#666666" points="632.5479,311.9727,642.5479,315.9727,632.5479,319.9727,636.5479,315.9727" style="stroke:#666666;stroke-width:1.0;"/><line style="stroke:#666666;stroke-width:1.0;" x1="275.6587" x2="638.5479" y1="315.9727" y2="315.9727"/><text fill="#333333" font-family="sans-serif" font-size="13" lengthAdjust="spacing" textLength="112.1948" x="282.6587" y="295.9199">Setup Echo Server</text><text fill="#333333" font-family="sans-serif" font-size="13" lengthAdjust="spacing" textLength="155.5239" x="282.6587" y="311.2305">(HTTP/HTTPS Endpoints)</text><polygon fill="#666666" points="286.6587,341.2832,276.6587,345.2832,286.6587,349.2832,282.6587,345.2832" style="stroke:#666666;stroke-width:1.0;"/><line style="stroke:#666666;stroke-width:1.0;stroke-dasharray:2.0,2.0;" x1="280.6587" x2="648.5479" y1="345.2832" y2="345.2832"/><text fill="#333333" font-family="sans-serif" font-size="13" lengthAdjust="spacing" textLength="114.4546" x="292.6587" y="340.541">Echo Server Ready</text><polygon fill="#666666" points="757.1216,370.5938,767.1216,374.5938,757.1216,378.5938,761.1216,374.5938" style="stroke:#666666;stroke-width:1.0;"/><line style="stroke:#666666;stroke-width:1.0;" x1="275.6587" x2="763.1216" y1="374.5938" y2="374.5938"/><text fill="#333333" font-family="sans-serif" font-size="13" lengthAdjust="spacing" textLength="116.2319" x="282.6587" y="369.8516">Setup GRPC Server</text><polygon fill="#666666" points="281.6587,399.9043,271.6587,403.9043,281.6587,407.9043,277.6587,403.9043" style="stroke:#666666;stroke-width:1.0;"/><line style="stroke:#666666;stroke-width:1.0;stroke-dasharray:2.0,2.0;" x1="275.6587" x2="773.1216" y1="403.9043" y2="403.9043"/><text fill="#333333" font-family="sans-serif" font-size="13" lengthAdjust="spacing" textLength="118.4917" x="287.6587" y="399.1621">GRPC Server Ready</text><rect fill="#EEEEEE" height="3" style="stroke:#EEEEEE;stroke-width:1.0;" width="1078.9697" x="0" y="432.5596"/><line style="stroke:#000000;stroke-width:1.0;" x1="0" x2="1078.9697" y1="432.5596" y2="432.5596"/><line style="stroke:#000000;stroke-width:1.0;" x1="0" x2="1078.9697" y1="435.5596" y2="435.5596"/><rect fill="#EEEEEE" height="23.3105" style="stroke:#000000;stroke-width:2.0;" width="158.5869" x="460.1914" y="421.9043"/><text fill="#333333" font-family="sans-serif" font-size="13" font-weight="bold" lengthAdjust="spacing" textLength="140.3022" x="466.1914" y="438.4727">Connection Handling</text><polygon fill="#666666" points="253.6587,472.5254,263.6587,476.5254,253.6587,480.5254,257.6587,476.5254" style="stroke:#666666;stroke-width:1.0;"/><line style="stroke:#666666;stroke-width:1.0;" x1="31.7524" x2="259.6587" y1="476.5254" y2="476.5254"/><text fill="#333333" font-family="sans-serif" font-size="13" lengthAdjust="spacing" textLength="84.9253" x="38.7524" y="471.7832">Connect(info)</text><polygon fill="#666666" points="999.2383,517.1465,1009.2383,521.1465,999.2383,525.1465,1003.2383,521.1465" style="stroke:#666666;stroke-width:1.0;"/><line style="stroke:#666666;stroke-width:1.0;" x1="275.6587" x2="1005.2383" y1="521.1465" y2="521.1465"/><text fill="#333333" font-family="sans-serif" font-size="13" lengthAdjust="spacing" textLength="126.7817" x="282.6587" y="501.0938">Add New Subscriber</text><text fill="#333333" font-family="sans-serif" font-size="13" lengthAdjust="spacing" textLength="33.0459" x="282.6587" y="516.4043">(info)</text><polygon fill="#666666" points="286.6587,546.457,276.6587,550.457,286.6587,554.457,282.6587,550.457" style="stroke:#666666;stroke-width:1.0;"/><line style="stroke:#666666;stroke-width:1.0;stroke-dasharray:2.0,2.0;" x1="280.6587" x2="1015.2383" y1="550.457" y2="550.457"/><text fill="#333333" font-family="sans-serif" font-size="13" lengthAdjust="spacing" textLength="111.23" x="292.6587" y="545.7148">Subscriber Added</text><polygon fill="#666666" points="42.7524,575.7676,32.7524,579.7676,42.7524,583.7676,38.7524,579.7676" style="stroke:#666666;stroke-width:1.0;"/><line style="stroke:#666666;stroke-width:1.0;stroke-dasharray:2.0,2.0;" x1="36.7524" x2="269.6587" y1="579.7676" y2="579.7676"/><text fill="#333333" font-family="sans-serif" font-size="13" lengthAdjust="spacing" textLength="67.3042" x="48.7524" y="575.0254">Connected</text><rect fill="#EEEEEE" height="3" style="stroke:#EEEEEE;stroke-width:1.0;" width="1078.9697" x="0" y="608.4229"/><line style="stroke:#000000;stroke-width:1.0;" x1="0" x2="1078.9697" y1="608.4229" y2="608.4229"/><line style="stroke:#000000;stroke-width:1.0;" x1="0" x2="1078.9697" y1="611.4229" y2="611.4229"/><rect fill="#EEEEEE" height="23.3105" style="stroke:#000000;stroke-width:2.0;" width="166.7119" x="456.1289" y="597.7676"/><text fill="#333333" font-family="sans-serif" font-size="13" font-weight="bold" lengthAdjust="spacing" textLength="148.4272" x="462.1289" y="614.3359">Broadcast Notification</text><polygon fill="#666666" points="253.6587,648.3887,263.6587,652.3887,253.6587,656.3887,257.6587,652.3887" style="stroke:#666666;stroke-width:1.0;"/><line style="stroke:#666666;stroke-width:1.0;" x1="31.7524" x2="259.6587" y1="652.3887" y2="652.3887"/><text fill="#333333" font-family="sans-serif" font-size="13" lengthAdjust="spacing" textLength="214.9063" x="38.7524" y="647.6465">BroadcastNotification(notification)</text><line style="stroke:#666666;stroke-width:1.0;" x1="275.6587" x2="317.6587" y1="681.6992" y2="681.6992"/><line style="stroke:#666666;stroke-width:1.0;" x1="317.6587" x2="317.6587" y1="681.6992" y2="694.6992"/><line style="stroke:#666666;stroke-width:1.0;" x1="276.6587" x2="317.6587" y1="694.6992" y2="694.6992"/><polygon fill="#666666" points="286.6587,690.6992,276.6587,694.6992,286.6587,698.6992,282.6587,694.6992" style="stroke:#666666;stroke-width:1.0;"/><text fill="#333333" font-family="sans-serif" font-size="13" lengthAdjust="spacing" textLength="115.6606" x="282.6587" y="676.957">Check Subscribers</text><path d="M232.7373,709.6992 L307.1841,709.6992 L307.1841,717.0098 L297.1841,727.0098 L232.7373,727.0098 L232.7373,709.6992 " fill="#EEEEEE" style="stroke:#000000;stroke-width:1.5;"/><rect fill="none" height="75.9316" style="stroke:#000000;stroke-width:1.5;" width="836.2324" x="232.7373" y="709.6992"/><text fill="#333333" font-family="sans-serif" font-size="13" font-weight="bold" lengthAdjust="spacing" textLength="29.4468" x="247.7373" y="723.2676">loop</text><text fill="#333333" font-family="sans-serif" font-size="11" font-weight="bold" lengthAdjust="spacing" textLength="118.1641" x="322.1841" y="722.334">[for each Subscriber]</text><polygon fill="#666666" points="999.2383,744.3203,1009.2383,748.3203,999.2383,752.3203,1003.2383,748.3203" style="stroke:#666666;stroke-width:1.0;"/><line style="stroke:#666666;stroke-width:1.0;" x1="275.6587" x2="1005.2383" y1="748.3203" y2="748.3203"/><text fill="#333333" font-family="sans-serif" font-size="13" lengthAdjust="spacing" textLength="107.8657" x="282.6587" y="743.5781">Send Notification</text><polygon fill="#666666" points="286.6587,773.6309,276.6587,777.6309,286.6587,781.6309,282.6587,777.6309" style="stroke:#666666;stroke-width:1.0;"/><line style="stroke:#666666;stroke-width:1.0;stroke-dasharray:2.0,2.0;" x1="280.6587" x2="1015.2383" y1="777.6309" y2="777.6309"/><text fill="#333333" font-family="sans-serif" font-size="13" lengthAdjust="spacing" textLength="108.894" x="292.6587" y="772.8887">Acknowledgment</text><polygon fill="#666666" points="42.7524,809.9414,32.7524,813.9414,42.7524,817.9414,38.7524,813.9414" style="stroke:#666666;stroke-width:1.0;"/><line style="stroke:#666666;stroke-width:1.0;stroke-dasharray:2.0,2.0;" x1="36.7524" x2="269.6587" y1="813.9414" y2="813.9414"/><text fill="#333333" font-family="sans-serif" font-size="13" lengthAdjust="spacing" textLength="111.1729" x="48.7524" y="809.1992">Notifications Sent</text><rect fill="#EEEEEE" height="3" style="stroke:#EEEEEE;stroke-width:1.0;" width="1078.9697" x="0" y="842.5967"/><line style="stroke:#000000;stroke-width:1.0;" x1="0" x2="1078.9697" y1="842.5967" y2="842.5967"/><line style="stroke:#000000;stroke-width:1.0;" x1="0" x2="1078.9697" y1="845.5967" y2="845.5967"/><rect fill="#EEEEEE" height="23.3105" style="stroke:#000000;stroke-width:2.0;" width="87.0234" x="495.9731" y="831.9414"/><text fill="#333333" font-family="sans-serif" font-size="13" font-weight="bold" lengthAdjust="spacing" textLength="68.7388" x="501.9731" y="848.5098">Get Nodes</text><polygon fill="#666666" points="253.6587,882.5625,263.6587,886.5625,253.6587,890.5625,257.6587,886.5625" style="stroke:#666666;stroke-width:1.0;"/><line style="stroke:#666666;stroke-width:1.0;" x1="31.7524" x2="259.6587" y1="886.5625" y2="886.5625"/><text fill="#333333" font-family="sans-serif" font-size="13" lengthAdjust="spacing" textLength="69.5957" x="38.7524" y="881.8203">GetNodes()</text><line style="stroke:#666666;stroke-width:1.0;" x1="275.6587" x2="317.6587" y1="915.873" y2="915.873"/><line style="stroke:#666666;stroke-width:1.0;" x1="317.6587" x2="317.6587" y1="915.873" y2="928.873"/><line style="stroke:#666666;stroke-width:1.0;" x1="276.6587" x2="317.6587" y1="928.873" y2="928.873"/><polygon fill="#666666" points="286.6587,924.873,276.6587,928.873,286.6587,932.873,282.6587,928.873" style="stroke:#666666;stroke-width:1.0;"/><text fill="#333333" font-family="sans-serif" font-size="13" lengthAdjust="spacing" textLength="165.0137" x="282.6587" y="911.1309">Collect Nodes Information</text><polygon fill="#666666" points="42.7524,954.1836,32.7524,958.1836,42.7524,962.1836,38.7524,958.1836" style="stroke:#666666;stroke-width:1.0;"/><line style="stroke:#666666;stroke-width:1.0;stroke-dasharray:2.0,2.0;" x1="36.7524" x2="269.6587" y1="958.1836" y2="958.1836"/><text fill="#333333" font-family="sans-serif" font-size="13" lengthAdjust="spacing" textLength="55.1929" x="48.7524" y="953.4414">NodeList</text><text fill="#333333" font-family="sans-serif" font-size="10" lengthAdjust="spacing" textLength="155.4346" x="0" y="1048.3398">Last Modified On: 24-Feb-2025</text><!--SRC=[fLHHQzim47xNhpWonX9Os60mHY63rd7IGjELkj2NlSZIEH5H9ICfBTdOVzzPJXpPsLusFHYa- -wxxxwJvRVArDpnPoYvsAwTtHcPMMqTl5byN7nPB9Zl418hljDXOKquG3x5bK2uS_Rr4FmS5sFlO8wLCWYbTHATXugYN6j0ZSzeWa_oQQl27duoWAk8xdFHwL3bF2xsYoKiWXGwg_-NXhv12LLp4_wDYh6K8jEAskiTZGfqB-X6m3qKJFB0I-uHHfarbLh7uwoVa8kDXUl7ntj8KlC-PlbmdwNXPJ_yX6LXnHQFYYBcQQ1hLthXL7dKjYiPcytWngYWk5O_U53Mm6p6k0ZgXGSa-GLClq815n4rdhJxZFOFo2MqBNqtuxMhnQto0Ssbb0wzVm-R4EhUqUJ4cx4CfWVYbWFcv1EJc42wqWM6NGrpvOMbxlUGRRWng5j0tW6YYwr3fAYnyqFpAI0tihQAxcIY86Tvfo19Z6tjKnrvMsRPbKa6SQ9RicL7bm3EwPRffeZ-am46HVJ-cXkfbLatGsZd22UN6j1OcSfEpWUqAmb3FiCTli9fpkJ3C866tg2FOa_O9XrbJrw3ZSY3bax601VRk7AMIy5zW3iRLAL4TvtwdNIu53OsoMRonmkORL1i4xsUQMlh-EwGb4qIeVyN8F6bG2DxeYAWrsRCI6ov55jZNpNATVEOnV306E8ScfEMy4tLSExI4Xj_9FfpOoWK8-E_z6-r9kiFsJSqLlVSTdCcGsBpumsAQwm2kMK3ZVgs6TFAIfAB4hwP2tXBxnIEHr9ELwlLT4zhD66_0G00]--></g></svg>
