<svg contentStyleType="text/css" height="348" preserveAspectRatio="none" viewBox="0 0 725 348" width="725" xmlns="http://www.w3.org/2000/svg" zoomAndPan="magnify"><path d="m0 0h725v348h-725z" fill="#f0f8ff"/><path d="m34 198.041h558.3638v81.9316h-558.3638z" fill="none" stroke="#000" stroke-width="1.5"/><g stroke-width=".5"><path d="m219 36.4883v260.4844" stroke="#181818" stroke-dasharray="5 5"/><path d="m510.7778 36.4883v260.4844" stroke="#181818" stroke-dasharray="5 5"/><rect fill="#ddd" height="30.4883" rx="2.5" stroke="#666" width="93.666" x="173" y="5"/></g><text fill="#333" font-family="sans-serif" font-size="14" lengthAdjust="spacing" textLength="79.666" x="180" y="25.5352">HTTP Client</text><rect fill="#ddd" height="30.4883" rx="2.5" stroke="#666" stroke-width=".5" width="93.666" x="173" y="295.9727"/><text fill="#333" font-family="sans-serif" font-size="14" lengthAdjust="spacing" textLength="79.666" x="180" y="316.5078">HTTP Client</text><rect fill="#ddd" height="30.4883" rx="2.5" stroke="#666" stroke-width=".5" width="141.5859" x="440.7778" y="5"/><text fill="#333" font-family="sans-serif" font-size="14" lengthAdjust="spacing" textLength="127.5859" x="447.7778" y="25.5352">HTTP Server (Echo)</text><rect fill="#ddd" height="30.4883" rx="2.5" stroke="#666" stroke-width=".5" width="141.5859" x="440.7778" y="295.9727"/><text fill="#333" font-family="sans-serif" font-size="14" lengthAdjust="spacing" textLength="127.5859" x="447.7778" y="316.5078">HTTP Server (Echo)</text><path d="m499.5708 63.7988 10 4-10 4 4-4z" fill="#666" stroke="#666"/><path d="m219.833 67.7988h285.7378" stroke="#666"/><text fill="#333" font-family="sans-serif" font-size="13" lengthAdjust="spacing" textLength="110.9888" x="226.833" y="63.0566">HTTP GET /nodes</text><path d="m516 80.7988v40h202v-30l-10-10z" fill="#feffdd" stroke="#181818" stroke-width=".5"/><path d="m708 80.7988v10h10z" fill="#feffdd" stroke="#181818" stroke-width=".5"/><text fill="#333" font-family="sans-serif" font-size="13" lengthAdjust="spacing" textLength="181.4224" x="522" y="98.3672">Server processes the request</text><text fill="#333" font-family="sans-serif" font-size="13" lengthAdjust="spacing" textLength="148.6812" x="522" y="113.6777">and gathers nodes data</text><path d="m230.833 143.7305-10 4 10 4-4-4z" fill="#666" stroke="#666"/><path d="m224.833 147.7305h285.7378" stroke="#666" stroke-dasharray="2 2"/><text fill="#333" font-family="sans-serif" font-size="13" lengthAdjust="spacing" textLength="240.0049" x="236.833" y="142.9883">HTTP 200 OK with nodes data in JSON</text><path d="m5 160.7305v25h210v-15l-10-10z" fill="#feffdd" stroke="#181818" stroke-width=".5"/><path d="m205 160.7305v10h10z" fill="#feffdd" stroke="#181818" stroke-width=".5"/><text fill="#333" font-family="sans-serif" font-size="13" lengthAdjust="spacing" textLength="189.0015" x="11" y="178.2988">Client processes the response</text><path d="m34 198.041h62.1387v7.3106l-10 10h-52.1387z" fill="#eee" stroke="#000" stroke-width="1.5"/><path d="m34 198.041h558.3638v81.9316h-558.3638z" fill="none" stroke="#000" stroke-width="1.5"/><text fill="#333" font-family="sans-serif" font-size="13" font-weight="bold" lengthAdjust="spacing" textLength="17.1387" x="49" y="211.6094">alt</text><text fill="#333" font-family="sans-serif" font-size="11" font-weight="bold" lengthAdjust="spacing" textLength="112.3955" x="111.1387" y="210.6758">[If there is an error]</text><path d="m230.833 232.6621-10 4 10 4-4-4z" fill="#666" stroke="#666"/><path d="m224.833 236.6621h285.7378" stroke="#666" stroke-dasharray="2 2"/><text fill="#333" font-family="sans-serif" font-size="13" lengthAdjust="spacing" textLength="267.7378" x="236.833" y="231.9199">HTTP Error (e.g., 500 Internal Server Error)</text><path d="m44 249.6621v25h170v-15l-10-10z" fill="#feffdd" stroke="#181818" stroke-width=".5"/><path d="m204 249.6621v10h10z" fill="#feffdd" stroke="#181818" stroke-width=".5"/><text fill="#333" font-family="sans-serif" font-size="13" lengthAdjust="spacing" textLength="149.5063" x="50" y="267.2305">Client handles the error</text><text fill="#333" font-family="sans-serif" font-size="10" lengthAdjust="spacing" textLength="155.4346" y="338.1289">Last Modified On: 24-Feb-2025</text></svg>
