<svg xmlns="http://www.w3.org/2000/svg" xmlns:xlink="http://www.w3.org/1999/xlink" contentStyleType="text/css" height="459px" preserveAspectRatio="none" style="width:865px;height:459px;background:#F0F8FF;" version="1.1" viewBox="0 0 865 459" width="865px" zoomAndPan="magnify"><defs/><g><rect fill="#F0F8FF" height="459" style="stroke:none;stroke-width:1.0;" width="865" x="0" y="0"/><rect fill="#FFFFFF" height="322.416" style="stroke:#181818;stroke-width:1.0;" width="10" x="198.228" y="67.7988"/><rect fill="#FFFFFF" height="29.3105" style="stroke:#181818;stroke-width:1.0;" width="10" x="388.522" y="97.1094"/><rect fill="#FFFFFF" height="29.3105" style="stroke:#181818;stroke-width:1.0;" width="10" x="534.4067" y="155.7305"/><rect fill="#FFFFFF" height="29.3105" style="stroke:#181818;stroke-width:1.0;" width="10" x="677.1504" y="214.3516"/><rect fill="#FFFFFF" height="87.9316" style="stroke:#181818;stroke-width:1.0;" width="10" x="803.8911" y="272.9727"/><line style="stroke:#181818;stroke-width:0.5;stroke-dasharray:5.0,5.0;" x1="31" x2="31" y1="36.4883" y2="408.2148"/><line style="stroke:#181818;stroke-width:0.5;stroke-dasharray:5.0,5.0;" x1="202.3066" x2="202.3066" y1="36.4883" y2="408.2148"/><line style="stroke:#181818;stroke-width:0.5;stroke-dasharray:5.0,5.0;" x1="392.8774" x2="392.8774" y1="36.4883" y2="408.2148"/><line style="stroke:#181818;stroke-width:0.5;stroke-dasharray:5.0,5.0;" x1="539.1665" x2="539.1665" y1="36.4883" y2="408.2148"/><line style="stroke:#181818;stroke-width:0.5;stroke-dasharray:5.0,5.0;" x1="681.647" x2="681.647" y1="36.4883" y2="408.2148"/><line style="stroke:#181818;stroke-width:0.5;stroke-dasharray:5.0,5.0;" x1="808.6538" x2="808.6538" y1="36.4883" y2="408.2148"/><rect fill="#DDDDDD" height="30.4883" rx="2.5" ry="2.5" style="stroke:#666666;stroke-width:0.5;" width="53.04" x="5" y="5"/><text fill="#333333" font-family="sans-serif" font-size="14" lengthAdjust="spacing" textLength="39.04" x="12" y="25.5352">Caller</text><rect fill="#DDDDDD" height="30.4883" rx="2.5" ry="2.5" style="stroke:#666666;stroke-width:0.5;" width="53.04" x="5" y="407.2148"/><text fill="#333333" font-family="sans-serif" font-size="14" lengthAdjust="spacing" textLength="39.04" x="12" y="427.75">Caller</text><rect fill="#DDDDDD" height="30.4883" rx="2.5" ry="2.5" style="stroke:#666666;stroke-width:0.5;" width="55.8428" x="175.3066" y="5"/><text fill="#333333" font-family="sans-serif" font-size="14" lengthAdjust="spacing" textLength="41.8428" x="182.3066" y="25.5352">Server</text><rect fill="#DDDDDD" height="30.4883" rx="2.5" ry="2.5" style="stroke:#666666;stroke-width:0.5;" width="55.8428" x="175.3066" y="407.2148"/><text fill="#333333" font-family="sans-serif" font-size="14" lengthAdjust="spacing" textLength="41.8428" x="182.3066" y="427.75">Server</text><rect fill="#DDDDDD" height="30.4883" rx="2.5" ry="2.5" style="stroke:#666666;stroke-width:0.5;" width="139.2891" x="323.8774" y="5"/><text fill="#333333" font-family="sans-serif" font-size="14" lengthAdjust="spacing" textLength="125.2891" x="330.8774" y="25.5352">Discovery Channel</text><rect fill="#DDDDDD" height="30.4883" rx="2.5" ry="2.5" style="stroke:#666666;stroke-width:0.5;" width="139.2891" x="323.8774" y="407.2148"/><text fill="#333333" font-family="sans-serif" font-size="14" lengthAdjust="spacing" textLength="125.2891" x="330.8774" y="427.75">Discovery Channel</text><rect fill="#DDDDDD" height="30.4883" rx="2.5" ry="2.5" style="stroke:#666666;stroke-width:0.5;" width="132.4805" x="473.1665" y="5"/><text fill="#333333" font-family="sans-serif" font-size="14" lengthAdjust="spacing" textLength="118.4805" x="480.1665" y="25.5352">Echo HTTP Server</text><rect fill="#DDDDDD" height="30.4883" rx="2.5" ry="2.5" style="stroke:#666666;stroke-width:0.5;" width="132.4805" x="473.1665" y="407.2148"/><text fill="#333333" font-family="sans-serif" font-size="14" lengthAdjust="spacing" textLength="118.4805" x="480.1665" y="427.75">Echo HTTP Server</text><rect fill="#DDDDDD" height="30.4883" rx="2.5" ry="2.5" style="stroke:#666666;stroke-width:0.5;" width="133.0068" x="615.647" y="5"/><text fill="#333333" font-family="sans-serif" font-size="14" lengthAdjust="spacing" textLength="119.0068" x="622.647" y="25.5352">CORS Middleware</text><rect fill="#DDDDDD" height="30.4883" rx="2.5" ry="2.5" style="stroke:#666666;stroke-width:0.5;" width="133.0068" x="615.647" y="407.2148"/><text fill="#333333" font-family="sans-serif" font-size="14" lengthAdjust="spacing" textLength="119.0068" x="622.647" y="427.75">CORS Middleware</text><rect fill="#DDDDDD" height="30.4883" rx="2.5" ry="2.5" style="stroke:#666666;stroke-width:0.5;" width="100.4746" x="758.6538" y="5"/><text fill="#333333" font-family="sans-serif" font-size="14" lengthAdjust="spacing" textLength="86.4746" x="765.6538" y="25.5352">HTTP Routes</text><rect fill="#DDDDDD" height="30.4883" rx="2.5" ry="2.5" style="stroke:#666666;stroke-width:0.5;" width="100.4746" x="758.6538" y="407.2148"/><text fill="#333333" font-family="sans-serif" font-size="14" lengthAdjust="spacing" textLength="86.4746" x="765.6538" y="427.75">HTTP Routes</text><rect fill="#FFFFFF" height="322.416" style="stroke:#181818;stroke-width:1.0;" width="10" x="198.228" y="67.7988"/><rect fill="#FFFFFF" height="29.3105" style="stroke:#181818;stroke-width:1.0;" width="10" x="388.522" y="97.1094"/><rect fill="#FFFFFF" height="29.3105" style="stroke:#181818;stroke-width:1.0;" width="10" x="534.4067" y="155.7305"/><rect fill="#FFFFFF" height="29.3105" style="stroke:#181818;stroke-width:1.0;" width="10" x="677.1504" y="214.3516"/><rect fill="#FFFFFF" height="87.9316" style="stroke:#181818;stroke-width:1.0;" width="10" x="803.8911" y="272.9727"/><polygon fill="#666666" points="186.228,63.7988,196.228,67.7988,186.228,71.7988,190.228,67.7988" style="stroke:#666666;stroke-width:1.0;"/><line style="stroke:#666666;stroke-width:1.0;" x1="31.52" x2="192.228" y1="67.7988" y2="67.7988"/><text fill="#333333" font-family="sans-serif" font-size="13" lengthAdjust="spacing" textLength="28.8882" x="38.52" y="63.0566">Init()</text><polygon fill="#666666" points="376.522,93.1094,386.522,97.1094,376.522,101.1094,380.522,97.1094" style="stroke:#666666;stroke-width:1.0;"/><line style="stroke:#666666;stroke-width:1.0;" x1="208.228" x2="382.522" y1="97.1094" y2="97.1094"/><text fill="#333333" font-family="sans-serif" font-size="13" lengthAdjust="spacing" textLength="161.2939" x="215.228" y="92.3672">Create Discovery Channel</text><polygon fill="#666666" points="219.228,122.4199,209.228,126.4199,219.228,130.4199,215.228,126.4199" style="stroke:#666666;stroke-width:1.0;"/><line style="stroke:#666666;stroke-width:1.0;stroke-dasharray:2.0,2.0;" x1="213.228" x2="392.522" y1="126.4199" y2="126.4199"/><text fill="#333333" font-family="sans-serif" font-size="13" lengthAdjust="spacing" textLength="104.5142" x="225.228" y="121.6777">Channel Created</text><polygon fill="#666666" points="522.4067,151.7305,532.4067,155.7305,522.4067,159.7305,526.4067,155.7305" style="stroke:#666666;stroke-width:1.0;"/><line style="stroke:#666666;stroke-width:1.0;" x1="208.228" x2="528.4067" y1="155.7305" y2="155.7305"/><text fill="#333333" font-family="sans-serif" font-size="13" lengthAdjust="spacing" textLength="130.4189" x="215.228" y="150.9883">Initialize Echo Server</text><polygon fill="#666666" points="219.228,181.041,209.228,185.041,219.228,189.041,215.228,185.041" style="stroke:#666666;stroke-width:1.0;"/><line style="stroke:#666666;stroke-width:1.0;stroke-dasharray:2.0,2.0;" x1="213.228" x2="538.4067" y1="185.041" y2="185.041"/><text fill="#333333" font-family="sans-serif" font-size="13" lengthAdjust="spacing" textLength="104.73" x="225.228" y="180.2988">Server Initialized</text><polygon fill="#666666" points="665.1504,210.3516,675.1504,214.3516,665.1504,218.3516,669.1504,214.3516" style="stroke:#666666;stroke-width:1.0;"/><line style="stroke:#666666;stroke-width:1.0;" x1="208.228" x2="671.1504" y1="214.3516" y2="214.3516"/><text fill="#333333" font-family="sans-serif" font-size="13" lengthAdjust="spacing" textLength="100.75" x="215.228" y="209.6094">Configure CORS</text><polygon fill="#666666" points="219.228,239.6621,209.228,243.6621,219.228,247.6621,215.228,243.6621" style="stroke:#666666;stroke-width:1.0;"/><line style="stroke:#666666;stroke-width:1.0;stroke-dasharray:2.0,2.0;" x1="213.228" x2="681.1504" y1="243.6621" y2="243.6621"/><text fill="#333333" font-family="sans-serif" font-size="13" lengthAdjust="spacing" textLength="108.9321" x="225.228" y="238.9199">CORS Configured</text><polygon fill="#666666" points="791.8911,268.9727,801.8911,272.9727,791.8911,276.9727,795.8911,272.9727" style="stroke:#666666;stroke-width:1.0;"/><line style="stroke:#666666;stroke-width:1.0;" x1="208.228" x2="797.8911" y1="272.9727" y2="272.9727"/><text fill="#333333" font-family="sans-serif" font-size="13" lengthAdjust="spacing" textLength="186.856" x="215.228" y="268.2305">Define '/ws' WebSocket Route</text><polygon fill="#666666" points="219.228,298.2832,209.228,302.2832,219.228,306.2832,215.228,302.2832" style="stroke:#666666;stroke-width:1.0;"/><line style="stroke:#666666;stroke-width:1.0;stroke-dasharray:2.0,2.0;" x1="213.228" x2="802.8911" y1="302.2832" y2="302.2832"/><text fill="#333333" font-family="sans-serif" font-size="13" lengthAdjust="spacing" textLength="89.502" x="225.228" y="297.541">Route Defined</text><polygon fill="#666666" points="791.8911,327.5938,801.8911,331.5938,791.8911,335.5938,795.8911,331.5938" style="stroke:#666666;stroke-width:1.0;"/><line style="stroke:#666666;stroke-width:1.0;" x1="208.228" x2="797.8911" y1="331.5938" y2="331.5938"/><text fill="#333333" font-family="sans-serif" font-size="13" lengthAdjust="spacing" textLength="136.3096" x="215.228" y="326.8516">Define '/nodes' Route</text><polygon fill="#666666" points="219.228,356.9043,209.228,360.9043,219.228,364.9043,215.228,360.9043" style="stroke:#666666;stroke-width:1.0;"/><line style="stroke:#666666;stroke-width:1.0;stroke-dasharray:2.0,2.0;" x1="213.228" x2="807.8911" y1="360.9043" y2="360.9043"/><text fill="#333333" font-family="sans-serif" font-size="13" lengthAdjust="spacing" textLength="89.502" x="225.228" y="356.1621">Route Defined</text><polygon fill="#666666" points="42.52,386.2148,32.52,390.2148,42.52,394.2148,38.52,390.2148" style="stroke:#666666;stroke-width:1.0;"/><line style="stroke:#666666;stroke-width:1.0;stroke-dasharray:2.0,2.0;" x1="36.52" x2="202.228" y1="390.2148" y2="390.2148"/><text fill="#333333" font-family="sans-serif" font-size="13" lengthAdjust="spacing" textLength="142.708" x="48.52" y="385.4727">Initialization Complete</text><text fill="#333333" font-family="sans-serif" font-size="10" lengthAdjust="spacing" textLength="155.4346" x="0" y="449.3711">Last Modified On: 24-Feb-2025</text><!--SRC=[fPDDQnin48Rl-XM3It1oC0q4IicXXsgpk90bnHleMLxD9iAoP2GvnYtzxnrznDQcxQNLmM2zppmxCslxZJ8xuSGMrcBOF3cxDv9RRHsyQw_RZstB_8cGE8gz3gqreI0twLI8SCuUIlWX7SRcqE2e3CBQEedEmqYfq1fGunPDy5KzVLNX23yOmET4Jrrq-xRB9XtsarMMWJfqLl-lXZw36jHEcF1lAiPg1QUPqKskPZsw5tGp41xwQT8eFrZAZi2VXJ6e4zJmANKtF5jOFZv-XSfqjtpZuW-h7ZebfSQ3S9WWtasP95dPVK2VykMAiTmnB3v13xVmnQXmUSN44DIB24WDipvc3QUGEuntltLzngbr8XT5Lk9I9vd46inYcgCyLWcjlYEaQVEWPs-SDfAlvfnNPHDvfBETTx4DQqRrj7S8SKTdAMs7ybEpSNydTE8ZCEkMAmBB3tt-_k3dy0tNlHqs6F9Qpt9QBT6lyXIMIlb7cR4IoPSjVwsicehlBY-alC5gYo8eQsYOxKuZwQegMep6CT3VqmQgkHS-G6Ub6XLAU32tS249kvn9kUYwRd6aCxjYlm00]--></g></svg>
