<svg xmlns="http://www.w3.org/2000/svg" xmlns:xlink="http://www.w3.org/1999/xlink" contentStyleType="text/css" height="758px" preserveAspectRatio="none" style="width:886px;height:758px;background:#F0F8FF;" version="1.1" viewBox="0 0 886 758" width="886px" zoomAndPan="magnify"><defs/><g><rect fill="#F0F8FF" height="758" style="stroke:none;stroke-width:1.0;" width="886" x="0" y="0"/><rect fill="#FFFFFF" height="568.5898" style="stroke:#181818;stroke-width:1.0;" width="10" x="151.6567" y="98.7988"/><rect fill="#FFFFFF" height="471.6582" style="stroke:#181818;stroke-width:1.0;" width="10" x="156.6567" y="194.7305"/><rect fill="#FFFFFF" height="29.3105" style="stroke:#181818;stroke-width:1.0;" width="10" x="359.3604" y="128.1094"/><rect fill="#FFFFFF" height="177.8633" style="stroke:#181818;stroke-width:1.0;" width="10" x="462.3247" y="271.3516"/><rect fill="#FFFFFF" height="29.3105" style="stroke:#181818;stroke-width:1.0;" width="10" x="462.3247" y="622.0781"/><rect fill="#FFFFFF" height="29.3105" style="stroke:#181818;stroke-width:1.0;" width="10" x="564.896" y="354.2832"/><rect fill="#FFFFFF" height="29.3105" style="stroke:#181818;stroke-width:1.0;" width="10" x="564.896" y="532.1465"/><rect fill="#FFFFFF" height="97.9316" style="stroke:#181818;stroke-width:1.0;" width="10" x="789.1943" y="478.5254"/><rect fill="none" height="75.9316" style="stroke:#000000;stroke-width:1.5;" width="511.4321" x="118.7354" y="315.6621"/><rect fill="none" height="75.9316" style="stroke:#000000;stroke-width:1.5;" width="370.8965" x="509.6245" y="493.5254"/><rect fill="none" height="75.9316" style="stroke:#000000;stroke-width:1.5;" width="400.8892" x="118.7354" y="583.457"/><line style="stroke:#181818;stroke-width:0.5;stroke-dasharray:5.0,5.0;" x1="47" x2="47" y1="67.4883" y2="676.3887"/><line style="stroke:#181818;stroke-width:0.5;stroke-dasharray:5.0,5.0;" x1="155.7354" x2="155.7354" y1="67.4883" y2="676.3887"/><line style="stroke:#181818;stroke-width:0.5;stroke-dasharray:5.0,5.0;" x1="363.6958" x2="363.6958" y1="67.4883" y2="676.3887"/><line style="stroke:#181818;stroke-width:0.5;stroke-dasharray:5.0,5.0;" x1="467.0249" x2="467.0249" y1="67.4883" y2="676.3887"/><line style="stroke:#181818;stroke-width:0.5;stroke-dasharray:5.0,5.0;" x1="569.6245" x2="569.6245" y1="67.4883" y2="676.3887"/><line style="stroke:#181818;stroke-width:0.5;stroke-dasharray:5.0,5.0;" x1="793.8677" x2="793.8677" y1="67.4883" y2="676.3887"/><rect fill="#DDDDDD" height="30.4883" rx="2.5" ry="2.5" style="stroke:#666666;stroke-width:0.5;" width="85.4629" x="5" y="36"/><text fill="#333333" font-family="sans-serif" font-size="14" lengthAdjust="spacing" textLength="71.4629" x="12" y="56.5352">Subscriber</text><rect fill="#DDDDDD" height="30.4883" rx="2.5" ry="2.5" style="stroke:#666666;stroke-width:0.5;" width="85.4629" x="5" y="675.3887"/><text fill="#333333" font-family="sans-serif" font-size="14" lengthAdjust="spacing" textLength="71.4629" x="12" y="695.9238">Subscriber</text><rect fill="#DDDDDD" height="30.4883" rx="2.5" ry="2.5" style="stroke:#666666;stroke-width:0.5;" width="55.8428" x="128.7354" y="36"/><text fill="#333333" font-family="sans-serif" font-size="14" lengthAdjust="spacing" textLength="41.8428" x="135.7354" y="56.5352">Server</text><rect fill="#DDDDDD" height="30.4883" rx="2.5" ry="2.5" style="stroke:#666666;stroke-width:0.5;" width="55.8428" x="128.7354" y="675.3887"/><text fill="#333333" font-family="sans-serif" font-size="14" lengthAdjust="spacing" textLength="41.8428" x="135.7354" y="695.9238">Server</text><rect fill="#DDDDDD" height="30.4883" rx="2.5" ry="2.5" style="stroke:#666666;stroke-width:0.5;" width="101.3291" x="313.6958" y="36"/><text fill="#333333" font-family="sans-serif" font-size="14" lengthAdjust="spacing" textLength="87.3291" x="320.6958" y="56.5352">Peer Context</text><rect fill="#DDDDDD" height="30.4883" rx="2.5" ry="2.5" style="stroke:#666666;stroke-width:0.5;" width="101.3291" x="313.6958" y="675.3887"/><text fill="#333333" font-family="sans-serif" font-size="14" lengthAdjust="spacing" textLength="87.3291" x="320.6958" y="695.9238">Peer Context</text><text fill="#333333" font-family="sans-serif" font-size="14" lengthAdjust="spacing" textLength="78.5996" x="425.0249" y="64.5352">Subscribers</text><path d="M449.3247,15 C449.3247,5 467.3247,5 467.3247,5 C467.3247,5 485.3247,5 485.3247,15 L485.3247,41 C485.3247,51 467.3247,51 467.3247,51 C467.3247,51 449.3247,51 449.3247,41 L449.3247,15 " fill="#E2E2F0" style="stroke:#181818;stroke-width:1.5;"/><path d="M449.3247,15 C449.3247,25 467.3247,25 467.3247,25 C467.3247,25 485.3247,25 485.3247,15 " fill="none" style="stroke:#181818;stroke-width:1.5;"/><text fill="#333333" font-family="sans-serif" font-size="14" lengthAdjust="spacing" textLength="78.5996" x="425.0249" y="688.9238">Subscribers</text><path d="M449.3247,701.877 C449.3247,691.877 467.3247,691.877 467.3247,691.877 C467.3247,691.877 485.3247,691.877 485.3247,701.877 L485.3247,727.877 C485.3247,737.877 467.3247,737.877 467.3247,737.877 C467.3247,737.877 449.3247,737.877 449.3247,727.877 L449.3247,701.877 " fill="#E2E2F0" style="stroke:#181818;stroke-width:1.5;"/><path d="M449.3247,701.877 C449.3247,711.877 467.3247,711.877 467.3247,711.877 C467.3247,711.877 485.3247,711.877 485.3247,701.877 " fill="none" style="stroke:#181818;stroke-width:1.5;"/><rect fill="#DDDDDD" height="30.4883" rx="2.5" ry="2.5" style="stroke:#666666;stroke-width:0.5;" width="100.543" x="519.6245" y="36"/><text fill="#333333" font-family="sans-serif" font-size="14" lengthAdjust="spacing" textLength="86.543" x="526.6245" y="56.5352">gRPC Stream</text><rect fill="#DDDDDD" height="30.4883" rx="2.5" ry="2.5" style="stroke:#666666;stroke-width:0.5;" width="100.543" x="519.6245" y="675.3887"/><text fill="#333333" font-family="sans-serif" font-size="14" lengthAdjust="spacing" textLength="86.543" x="526.6245" y="695.9238">gRPC Stream</text><rect fill="#DDDDDD" height="30.4883" rx="2.5" ry="2.5" style="stroke:#666666;stroke-width:0.5;" width="152.6533" x="717.8677" y="36"/><text fill="#333333" font-family="sans-serif" font-size="14" lengthAdjust="spacing" textLength="138.6533" x="724.8677" y="56.5352">Notification Channel</text><rect fill="#DDDDDD" height="30.4883" rx="2.5" ry="2.5" style="stroke:#666666;stroke-width:0.5;" width="152.6533" x="717.8677" y="675.3887"/><text fill="#333333" font-family="sans-serif" font-size="14" lengthAdjust="spacing" textLength="138.6533" x="724.8677" y="695.9238">Notification Channel</text><rect fill="#FFFFFF" height="568.5898" style="stroke:#181818;stroke-width:1.0;" width="10" x="151.6567" y="98.7988"/><rect fill="#FFFFFF" height="471.6582" style="stroke:#181818;stroke-width:1.0;" width="10" x="156.6567" y="194.7305"/><rect fill="#FFFFFF" height="29.3105" style="stroke:#181818;stroke-width:1.0;" width="10" x="359.3604" y="128.1094"/><rect fill="#FFFFFF" height="177.8633" style="stroke:#181818;stroke-width:1.0;" width="10" x="462.3247" y="271.3516"/><rect fill="#FFFFFF" height="29.3105" style="stroke:#181818;stroke-width:1.0;" width="10" x="462.3247" y="622.0781"/><rect fill="#FFFFFF" height="29.3105" style="stroke:#181818;stroke-width:1.0;" width="10" x="564.896" y="354.2832"/><rect fill="#FFFFFF" height="29.3105" style="stroke:#181818;stroke-width:1.0;" width="10" x="564.896" y="532.1465"/><rect fill="#FFFFFF" height="97.9316" style="stroke:#181818;stroke-width:1.0;" width="10" x="789.1943" y="478.5254"/><polygon fill="#666666" points="139.6567,94.7988,149.6567,98.7988,139.6567,102.7988,143.6567,98.7988" style="stroke:#666666;stroke-width:1.0;"/><line style="stroke:#666666;stroke-width:1.0;" x1="47.7314" x2="145.6567" y1="98.7988" y2="98.7988"/><text fill="#333333" font-family="sans-serif" font-size="13" lengthAdjust="spacing" textLength="84.9253" x="54.7314" y="94.0566">Connect(info)</text><polygon fill="#666666" points="347.3604,124.1094,357.3604,128.1094,347.3604,132.1094,351.3604,128.1094" style="stroke:#666666;stroke-width:1.0;"/><line style="stroke:#666666;stroke-width:1.0;" x1="161.6567" x2="353.3604" y1="128.1094" y2="128.1094"/><text fill="#333333" font-family="sans-serif" font-size="13" lengthAdjust="spacing" textLength="103.6953" x="168.6567" y="123.3672">Extract Peer Info</text><polygon fill="#666666" points="172.6567,153.4199,162.6567,157.4199,172.6567,161.4199,168.6567,157.4199" style="stroke:#666666;stroke-width:1.0;"/><line style="stroke:#666666;stroke-width:1.0;stroke-dasharray:2.0,2.0;" x1="166.6567" x2="363.3604" y1="157.4199" y2="157.4199"/><text fill="#333333" font-family="sans-serif" font-size="13" lengthAdjust="spacing" textLength="55.6816" x="178.6567" y="152.6777">Peer Info</text><line style="stroke:#666666;stroke-width:1.0;" x1="161.6567" x2="208.6567" y1="181.7305" y2="181.7305"/><line style="stroke:#666666;stroke-width:1.0;" x1="208.6567" x2="208.6567" y1="181.7305" y2="194.7305"/><line style="stroke:#666666;stroke-width:1.0;" x1="167.6567" x2="208.6567" y1="194.7305" y2="194.7305"/><polygon fill="#666666" points="177.6567,190.7305,167.6567,194.7305,177.6567,198.7305,173.6567,194.7305" style="stroke:#666666;stroke-width:1.0;"/><text fill="#333333" font-family="sans-serif" font-size="13" lengthAdjust="spacing" textLength="173.7036" x="173.6567" y="176.9883">Create Notification Channel</text><line style="stroke:#666666;stroke-width:1.0;stroke-dasharray:2.0,2.0;" x1="166.6567" x2="208.6567" y1="229.041" y2="229.041"/><line style="stroke:#666666;stroke-width:1.0;stroke-dasharray:2.0,2.0;" x1="208.6567" x2="208.6567" y1="229.041" y2="242.041"/><line style="stroke:#666666;stroke-width:1.0;stroke-dasharray:2.0,2.0;" x1="167.6567" x2="208.6567" y1="242.041" y2="242.041"/><polygon fill="#666666" points="177.6567,238.041,167.6567,242.041,177.6567,246.041,173.6567,242.041" style="stroke:#666666;stroke-width:1.0;"/><text fill="#333333" font-family="sans-serif" font-size="13" lengthAdjust="spacing" textLength="104.5142" x="173.6567" y="224.2988">Channel Created</text><polygon fill="#666666" points="450.3247,267.3516,460.3247,271.3516,450.3247,275.3516,454.3247,271.3516" style="stroke:#666666;stroke-width:1.0;"/><line style="stroke:#666666;stroke-width:1.0;" x1="166.6567" x2="456.3247" y1="271.3516" y2="271.3516"/><text fill="#333333" font-family="sans-serif" font-size="13" lengthAdjust="spacing" textLength="152.9087" x="173.6567" y="266.6094">Get Existing Subscribers</text><polygon fill="#666666" points="177.6567,296.6621,167.6567,300.6621,177.6567,304.6621,173.6567,300.6621" style="stroke:#666666;stroke-width:1.0;"/><line style="stroke:#666666;stroke-width:1.0;stroke-dasharray:2.0,2.0;" x1="171.6567" x2="461.3247" y1="300.6621" y2="300.6621"/><text fill="#333333" font-family="sans-serif" font-size="13" lengthAdjust="spacing" textLength="127.2959" x="183.6567" y="295.9199">Existing Subscribers</text><path d="M118.7354,315.6621 L193.1821,315.6621 L193.1821,322.9727 L183.1821,332.9727 L118.7354,332.9727 L118.7354,315.6621 " fill="#EEEEEE" style="stroke:#000000;stroke-width:1.5;"/><rect fill="none" height="75.9316" style="stroke:#000000;stroke-width:1.5;" width="511.4321" x="118.7354" y="315.6621"/><text fill="#333333" font-family="sans-serif" font-size="13" font-weight="bold" lengthAdjust="spacing" textLength="29.4468" x="133.7354" y="329.2305">loop</text><text fill="#333333" font-family="sans-serif" font-size="11" font-weight="bold" lengthAdjust="spacing" textLength="147.1572" x="208.1821" y="328.2969">[Each Existing Subscriber]</text><polygon fill="#666666" points="552.896,350.2832,562.896,354.2832,552.896,358.2832,556.896,354.2832" style="stroke:#666666;stroke-width:1.0;"/><line style="stroke:#666666;stroke-width:1.0;" x1="166.6567" x2="558.896" y1="354.2832" y2="354.2832"/><text fill="#333333" font-family="sans-serif" font-size="13" lengthAdjust="spacing" textLength="177.5947" x="173.6567" y="349.541">Send Info to New Subscriber</text><polygon fill="#666666" points="177.6567,379.5938,167.6567,383.5938,177.6567,387.5938,173.6567,383.5938" style="stroke:#666666;stroke-width:1.0;"/><line style="stroke:#666666;stroke-width:1.0;stroke-dasharray:2.0,2.0;" x1="171.6567" x2="568.896" y1="383.5938" y2="383.5938"/><text fill="#333333" font-family="sans-serif" font-size="13" lengthAdjust="spacing" textLength="55.8657" x="183.6567" y="378.8516">Info Sent</text><polygon fill="#666666" points="450.3247,415.9043,460.3247,419.9043,450.3247,423.9043,454.3247,419.9043" style="stroke:#666666;stroke-width:1.0;"/><line style="stroke:#666666;stroke-width:1.0;" x1="166.6567" x2="456.3247" y1="419.9043" y2="419.9043"/><text fill="#333333" font-family="sans-serif" font-size="13" lengthAdjust="spacing" textLength="126.7817" x="173.6567" y="415.1621">Add New Subscriber</text><polygon fill="#666666" points="177.6567,445.2148,167.6567,449.2148,177.6567,453.2148,173.6567,449.2148" style="stroke:#666666;stroke-width:1.0;"/><line style="stroke:#666666;stroke-width:1.0;stroke-dasharray:2.0,2.0;" x1="171.6567" x2="466.3247" y1="449.2148" y2="449.2148"/><text fill="#333333" font-family="sans-serif" font-size="13" lengthAdjust="spacing" textLength="111.23" x="183.6567" y="444.4727">Subscriber Added</text><polygon fill="#666666" points="777.1943,474.5254,787.1943,478.5254,777.1943,482.5254,781.1943,478.5254" style="stroke:#666666;stroke-width:1.0;"/><line style="stroke:#666666;stroke-width:1.0;" x1="166.6567" x2="783.1943" y1="478.5254" y2="478.5254"/><text fill="#333333" font-family="sans-serif" font-size="13" lengthAdjust="spacing" textLength="143.6855" x="173.6567" y="473.7832">Listen for Notifications</text><path d="M509.6245,493.5254 L584.0713,493.5254 L584.0713,500.8359 L574.0713,510.8359 L509.6245,510.8359 L509.6245,493.5254 " fill="#EEEEEE" style="stroke:#000000;stroke-width:1.5;"/><rect fill="none" height="75.9316" style="stroke:#000000;stroke-width:1.5;" width="370.8965" x="509.6245" y="493.5254"/><text fill="#333333" font-family="sans-serif" font-size="13" font-weight="bold" lengthAdjust="spacing" textLength="29.4468" x="524.6245" y="507.0938">loop</text><text fill="#333333" font-family="sans-serif" font-size="11" font-weight="bold" lengthAdjust="spacing" textLength="128.208" x="599.0713" y="506.1602">[Notification Received]</text><polygon fill="#666666" points="585.896,528.1465,575.896,532.1465,585.896,536.1465,581.896,532.1465" style="stroke:#666666;stroke-width:1.0;"/><line style="stroke:#666666;stroke-width:1.0;" x1="579.896" x2="788.1943" y1="532.1465" y2="532.1465"/><text fill="#333333" font-family="sans-serif" font-size="13" lengthAdjust="spacing" textLength="195.2983" x="591.896" y="527.4043">Send Notification to Subscriber</text><polygon fill="#666666" points="777.1943,557.457,787.1943,561.457,777.1943,565.457,781.1943,561.457" style="stroke:#666666;stroke-width:1.0;"/><line style="stroke:#666666;stroke-width:1.0;stroke-dasharray:2.0,2.0;" x1="569.896" x2="783.1943" y1="561.457" y2="561.457"/><text fill="#333333" font-family="sans-serif" font-size="13" lengthAdjust="spacing" textLength="104.5459" x="576.896" y="556.7148">Notification Sent</text><path d="M118.7354,583.457 L180.874,583.457 L180.874,590.7676 L170.874,600.7676 L118.7354,600.7676 L118.7354,583.457 " fill="#EEEEEE" style="stroke:#000000;stroke-width:1.5;"/><rect fill="none" height="75.9316" style="stroke:#000000;stroke-width:1.5;" width="400.8892" x="118.7354" y="583.457"/><text fill="#333333" font-family="sans-serif" font-size="13" font-weight="bold" lengthAdjust="spacing" textLength="17.1387" x="133.7354" y="597.0254">alt</text><text fill="#333333" font-family="sans-serif" font-size="11" font-weight="bold" lengthAdjust="spacing" textLength="100.418" x="195.874" y="596.0918">[If Disconnection]</text><polygon fill="#666666" points="450.3247,618.0781,460.3247,622.0781,450.3247,626.0781,454.3247,622.0781" style="stroke:#666666;stroke-width:1.0;"/><line style="stroke:#666666;stroke-width:1.0;" x1="166.6567" x2="456.3247" y1="622.0781" y2="622.0781"/><text fill="#333333" font-family="sans-serif" font-size="13" lengthAdjust="spacing" textLength="120.0278" x="173.6567" y="617.3359">Remove Subscriber</text><polygon fill="#666666" points="177.6567,647.3887,167.6567,651.3887,177.6567,655.3887,173.6567,651.3887" style="stroke:#666666;stroke-width:1.0;"/><line style="stroke:#666666;stroke-width:1.0;stroke-dasharray:2.0,2.0;" x1="171.6567" x2="466.3247" y1="651.3887" y2="651.3887"/><text fill="#333333" font-family="sans-serif" font-size="13" lengthAdjust="spacing" textLength="128.21" x="183.6567" y="646.6465">Subscriber Removed</text><text fill="#333333" font-family="sans-serif" font-size="10" lengthAdjust="spacing" textLength="155.4346" x="0" y="748.5449">Last Modified On: 24-Feb-2025</text><!--SRC=[fLFHQXin47pNLomkfSc3eL0enG-5z9mhWTWrlY-GfJr7v2mPQUqabFvxzwIpBJaEfUqz69zsPdPsLXSUZTrABpUmakfnxTtEwifrpiEx-cFzfQv5E28qjdBNKUqi3P1FySaWqdltD1G_nqU83p35rbY4bVCQVO2MgxBh03lSeAMGyVdLq0ly503V8hhKujDpbzFuY5yYKr7iqBlkVsNubumoMsdftwI4o2MQtIeeRrReY-DHWtwFVWGoG5DM5eWUAXu6dodM5vNGakHA1cJUKIyaCh-N_FLoKK537kKc8UBV4ZDtP5gZ91bdeNgGrc8NmVDAY5CB67-51YQz6ukAhenjtRMGYinU4h9nqVGGxZU1ssVoN85e_uw19nmFm93n87O2QCmXIIksOyDyTibathmvIWx5WQWFKZm75xyZiJaJoDXrjewGIVKPHlH1y29UTCvjuLQgXqjrlXG0gMyCd5KQj3fE2kHWZa_dw9E1jAAeaCW78v7DEXIBMM03XJkKqzveVTwgc2nRBaCvgroppo6fpVkLtlEGQEENc-yYIuwlImobMDKI5PezI_UMMUXL90MQe_cxMAArGk8F-MId_VMM7S5T2rCJLBhMB94jByMun8tRuzlE-gGYvuri4r-_SjNpuixoGxvPs1Bdx8Yfzp8Gp9pc-L333pk1z_pvuzL8w_5iDXk_y3Ew5hy1]--></g></svg>
