<svg xmlns="http://www.w3.org/2000/svg" xmlns:xlink="http://www.w3.org/1999/xlink" contentStyleType="text/css" height="788px" preserveAspectRatio="none" style="width:647px;height:788px;background:#F0F8FF;" version="1.1" viewBox="0 0 647 788" width="647px" zoomAndPan="magnify"><defs/><g><rect fill="#F0F8FF" height="788" style="stroke:none;stroke-width:1.0;" width="647" x="0" y="0"/><rect fill="#FFFFFF" height="651.1875" style="stroke:#181818;stroke-width:1.0;" width="10" x="107.6934" y="67.7988"/><rect fill="#FFFFFF" height="55.6211" style="stroke:#181818;stroke-width:1.0;" width="10" x="112.6934" y="194.3516"/><rect fill="#FFFFFF" height="63.6211" style="stroke:#181818;stroke-width:1.0;" width="10" x="112.6934" y="439.0137"/><rect fill="#FFFFFF" height="63.6211" style="stroke:#181818;stroke-width:1.0;" width="10" x="112.6934" y="626.0547"/><rect fill="#FFFFFF" height="19.3105" style="stroke:#181818;stroke-width:1.0;" width="10" x="328.3931" y="122.4199"/><rect fill="#FFFFFF" height="31.4883" style="stroke:#181818;stroke-width:1.0;" width="10" x="414.2856" y="354.9043"/><rect fill="#FFFFFF" height="31.4883" style="stroke:#181818;stroke-width:1.0;" width="10" x="519.9272" y="541.9453"/><rect fill="#FFFFFF" height="29.3105" style="stroke:#181818;stroke-width:1.0;" width="10" x="607.0161" y="286.2832"/><line style="stroke:#181818;stroke-width:0.5;stroke-dasharray:5.0,5.0;" x1="31" x2="31" y1="36.4883" y2="736.9863"/><line style="stroke:#181818;stroke-width:0.5;stroke-dasharray:5.0,5.0;" x1="111.772" x2="111.772" y1="36.4883" y2="736.9863"/><line style="stroke:#181818;stroke-width:0.5;stroke-dasharray:5.0,5.0;" x1="332.5024" x2="332.5024" y1="108.1094" y2="736.9863"/><line style="stroke:#181818;stroke-width:0.5;stroke-dasharray:5.0,5.0;" x1="419.2837" x2="419.2837" y1="354.3379" y2="736.9863"/><line style="stroke:#181818;stroke-width:0.5;stroke-dasharray:5.0,5.0;" x1="524.2876" x2="524.2876" y1="541.3789" y2="736.9863"/><line style="stroke:#181818;stroke-width:0.5;stroke-dasharray:5.0,5.0;" x1="611.5669" x2="611.5669" y1="36.4883" y2="736.9863"/><rect fill="#DDDDDD" height="30.4883" rx="2.5" ry="2.5" style="stroke:#666666;stroke-width:0.5;" width="53.04" x="5" y="5"/><text fill="#333333" font-family="sans-serif" font-size="14" lengthAdjust="spacing" textLength="39.04" x="12" y="25.5352">Caller</text><rect fill="#DDDDDD" height="30.4883" rx="2.5" ry="2.5" style="stroke:#666666;stroke-width:0.5;" width="53.04" x="5" y="735.9863"/><text fill="#333333" font-family="sans-serif" font-size="14" lengthAdjust="spacing" textLength="39.04" x="12" y="756.5215">Caller</text><rect fill="#DDDDDD" height="30.4883" rx="2.5" ry="2.5" style="stroke:#666666;stroke-width:0.5;" width="55.8428" x="84.772" y="5"/><text fill="#333333" font-family="sans-serif" font-size="14" lengthAdjust="spacing" textLength="41.8428" x="91.772" y="25.5352">Server</text><rect fill="#DDDDDD" height="30.4883" rx="2.5" ry="2.5" style="stroke:#666666;stroke-width:0.5;" width="55.8428" x="84.772" y="735.9863"/><text fill="#333333" font-family="sans-serif" font-size="14" lengthAdjust="spacing" textLength="41.8428" x="91.772" y="756.5215">Server</text><rect fill="#DDDDDD" height="30.4883" rx="2.5" ry="2.5" style="stroke:#666666;stroke-width:0.5;" width="55.7813" x="305.5024" y="735.9863"/><text fill="#333333" font-family="sans-serif" font-size="14" lengthAdjust="spacing" textLength="41.7813" x="312.5024" y="756.5215">Ticker</text><rect fill="#DDDDDD" height="30.4883" rx="2.5" ry="2.5" style="stroke:#666666;stroke-width:0.5;" width="96.0039" x="371.2837" y="735.9863"/><text fill="#333333" font-family="sans-serif" font-size="14" lengthAdjust="spacing" textLength="82.0039" x="378.2837" y="756.5215">HTTP Server</text><rect fill="#DDDDDD" height="30.4883" rx="2.5" ry="2.5" style="stroke:#666666;stroke-width:0.5;" width="95.2793" x="477.2876" y="735.9863"/><text fill="#333333" font-family="sans-serif" font-size="14" lengthAdjust="spacing" textLength="81.2793" x="484.2876" y="756.5215">gRPC Server</text><rect fill="#DDDDDD" height="30.4883" rx="2.5" ry="2.5" style="stroke:#666666;stroke-width:0.5;" width="58.8984" x="582.5669" y="5"/><text fill="#333333" font-family="sans-serif" font-size="14" lengthAdjust="spacing" textLength="44.8984" x="589.5669" y="25.5352">Config</text><rect fill="#DDDDDD" height="30.4883" rx="2.5" ry="2.5" style="stroke:#666666;stroke-width:0.5;" width="58.8984" x="582.5669" y="735.9863"/><text fill="#333333" font-family="sans-serif" font-size="14" lengthAdjust="spacing" textLength="44.8984" x="589.5669" y="756.5215">Config</text><rect fill="#FFFFFF" height="651.1875" style="stroke:#181818;stroke-width:1.0;" width="10" x="107.6934" y="67.7988"/><rect fill="#FFFFFF" height="55.6211" style="stroke:#181818;stroke-width:1.0;" width="10" x="112.6934" y="194.3516"/><rect fill="#FFFFFF" height="63.6211" style="stroke:#181818;stroke-width:1.0;" width="10" x="112.6934" y="439.0137"/><rect fill="#FFFFFF" height="63.6211" style="stroke:#181818;stroke-width:1.0;" width="10" x="112.6934" y="626.0547"/><rect fill="#FFFFFF" height="19.3105" style="stroke:#181818;stroke-width:1.0;" width="10" x="328.3931" y="122.4199"/><rect fill="#FFFFFF" height="31.4883" style="stroke:#181818;stroke-width:1.0;" width="10" x="414.2856" y="354.9043"/><rect fill="#FFFFFF" height="31.4883" style="stroke:#181818;stroke-width:1.0;" width="10" x="519.9272" y="541.9453"/><rect fill="#FFFFFF" height="29.3105" style="stroke:#181818;stroke-width:1.0;" width="10" x="607.0161" y="286.2832"/><polygon fill="#666666" points="95.6934,63.7988,105.6934,67.7988,95.6934,71.7988,99.6934,67.7988" style="stroke:#666666;stroke-width:1.0;"/><line style="stroke:#666666;stroke-width:1.0;" x1="31.52" x2="101.6934" y1="67.7988" y2="67.7988"/><text fill="#333333" font-family="sans-serif" font-size="13" lengthAdjust="spacing" textLength="57.1733" x="38.52" y="63.0566">Start(ctx)</text><polygon fill="#666666" points="293.5024,108.4199,303.5024,112.4199,293.5024,116.4199,297.5024,112.4199" style="stroke:#666666;stroke-width:1.0;"/><line style="stroke:#666666;stroke-width:1.0;" x1="117.6934" x2="299.5024" y1="112.4199" y2="112.4199"/><text fill="#333333" font-family="sans-serif" font-size="13" lengthAdjust="spacing" textLength="103.1113" x="124.6934" y="92.3672">Start New Ticker</text><text fill="#333333" font-family="sans-serif" font-size="13" lengthAdjust="spacing" textLength="80.3994" x="124.6934" y="107.6777">(10 seconds)</text><rect fill="#DDDDDD" height="30.4883" rx="2.5" ry="2.5" style="stroke:#666666;stroke-width:0.5;" width="55.7813" x="305.5024" y="78.9316"/><text fill="#333333" font-family="sans-serif" font-size="14" lengthAdjust="spacing" textLength="41.7813" x="312.5024" y="99.4668">Ticker</text><polygon fill="#666666" points="128.6934,137.7305,118.6934,141.7305,128.6934,145.7305,124.6934,141.7305" style="stroke:#666666;stroke-width:1.0;"/><line style="stroke:#666666;stroke-width:1.0;stroke-dasharray:2.0,2.0;" x1="122.6934" x2="332.3931" y1="141.7305" y2="141.7305"/><text fill="#333333" font-family="sans-serif" font-size="13" lengthAdjust="spacing" textLength="87.5596" x="134.6934" y="136.9883">Ticker Started</text><line style="stroke:#666666;stroke-width:1.0;" x1="117.6934" x2="164.6934" y1="181.3516" y2="181.3516"/><line style="stroke:#666666;stroke-width:1.0;" x1="164.6934" x2="164.6934" y1="181.3516" y2="194.3516"/><line style="stroke:#666666;stroke-width:1.0;" x1="123.6934" x2="164.6934" y1="194.3516" y2="194.3516"/><polygon fill="#666666" points="133.6934,190.3516,123.6934,194.3516,133.6934,198.3516,129.6934,194.3516" style="stroke:#666666;stroke-width:1.0;"/><text fill="#333333" font-family="sans-serif" font-size="13" lengthAdjust="spacing" textLength="103.0352" x="129.6934" y="161.2988">Start Go Routine</text><text fill="#333333" font-family="sans-serif" font-size="13" lengthAdjust="spacing" textLength="69.4497" x="129.6934" y="176.6094">(for Ticker)</text><line style="stroke:#666666;stroke-width:1.0;" x1="122.6934" x2="164.6934" y1="248.9727" y2="248.9727"/><line style="stroke:#666666;stroke-width:1.0;" x1="164.6934" x2="164.6934" y1="248.9727" y2="261.9727"/><line style="stroke:#666666;stroke-width:1.0;" x1="117.6934" x2="164.6934" y1="261.9727" y2="261.9727"/><polygon fill="#666666" points="127.6934,257.9727,117.6934,261.9727,127.6934,265.9727,123.6934,261.9727" style="stroke:#666666;stroke-width:1.0;"/><text fill="#333333" font-family="sans-serif" font-size="13" lengthAdjust="spacing" textLength="176.6997" x="129.6934" y="228.9199">Broadcast Ping Notifications</text><text fill="#333333" font-family="sans-serif" font-size="13" lengthAdjust="spacing" textLength="117.6411" x="129.6934" y="244.2305">(Every 10 seconds)</text><polygon fill="#666666" points="595.0161,282.2832,605.0161,286.2832,595.0161,290.2832,599.0161,286.2832" style="stroke:#666666;stroke-width:1.0;"/><line style="stroke:#666666;stroke-width:1.0;" x1="117.6934" x2="601.0161" y1="286.2832" y2="286.2832"/><text fill="#333333" font-family="sans-serif" font-size="13" lengthAdjust="spacing" textLength="155.6572" x="124.6934" y="281.541">Get HTTP Listen Address</text><polygon fill="#666666" points="128.6934,311.5938,118.6934,315.5938,128.6934,319.5938,124.6934,315.5938" style="stroke:#666666;stroke-width:1.0;"/><line style="stroke:#666666;stroke-width:1.0;stroke-dasharray:2.0,2.0;" x1="122.6934" x2="611.0161" y1="315.5938" y2="315.5938"/><text fill="#333333" font-family="sans-serif" font-size="13" lengthAdjust="spacing" textLength="51.1494" x="134.6934" y="310.8516">Address</text><polygon fill="#666666" points="359.2837,340.9043,369.2837,344.9043,359.2837,348.9043,363.2837,344.9043" style="stroke:#666666;stroke-width:1.0;"/><line style="stroke:#666666;stroke-width:1.0;" x1="117.6934" x2="365.2837" y1="344.9043" y2="344.9043"/><text fill="#333333" font-family="sans-serif" font-size="13" lengthAdjust="spacing" textLength="133.8403" x="124.6934" y="340.1621">Initialize HTTP Server</text><rect fill="#DDDDDD" height="30.4883" rx="2.5" ry="2.5" style="stroke:#666666;stroke-width:0.5;" width="96.0039" x="371.2837" y="323.5938"/><text fill="#333333" font-family="sans-serif" font-size="14" lengthAdjust="spacing" textLength="82.0039" x="378.2837" y="344.1289">HTTP Server</text><polygon fill="#666666" points="128.6934,382.3926,118.6934,386.3926,128.6934,390.3926,124.6934,386.3926" style="stroke:#666666;stroke-width:1.0;"/><line style="stroke:#666666;stroke-width:1.0;stroke-dasharray:2.0,2.0;" x1="122.6934" x2="418.2856" y1="386.3926" y2="386.3926"/><text fill="#333333" font-family="sans-serif" font-size="13" lengthAdjust="spacing" textLength="117.876" x="134.6934" y="381.6504">HTTP Server Ready</text><line style="stroke:#666666;stroke-width:1.0;" x1="117.6934" x2="164.6934" y1="426.0137" y2="426.0137"/><line style="stroke:#666666;stroke-width:1.0;" x1="164.6934" x2="164.6934" y1="426.0137" y2="439.0137"/><line style="stroke:#666666;stroke-width:1.0;" x1="123.6934" x2="164.6934" y1="439.0137" y2="439.0137"/><polygon fill="#666666" points="133.6934,435.0137,123.6934,439.0137,133.6934,443.0137,129.6934,439.0137" style="stroke:#666666;stroke-width:1.0;"/><text fill="#333333" font-family="sans-serif" font-size="13" lengthAdjust="spacing" textLength="103.0352" x="129.6934" y="405.9609">Start Go Routine</text><text fill="#333333" font-family="sans-serif" font-size="13" lengthAdjust="spacing" textLength="106.7993" x="129.6934" y="421.2715">(for HTTP Server)</text><polygon fill="#666666" points="407.2856,469.3242,417.2856,473.3242,407.2856,477.3242,411.2856,473.3242" style="stroke:#666666;stroke-width:1.0;"/><line style="stroke:#666666;stroke-width:1.0;" x1="122.6934" x2="413.2856" y1="473.3242" y2="473.3242"/><text fill="#333333" font-family="sans-serif" font-size="13" lengthAdjust="spacing" textLength="109.4844" x="129.6934" y="468.582">Start HTTP Server</text><polygon fill="#666666" points="128.6934,498.6348,118.6934,502.6348,128.6934,506.6348,124.6934,502.6348" style="stroke:#666666;stroke-width:1.0;"/><line style="stroke:#666666;stroke-width:1.0;stroke-dasharray:2.0,2.0;" x1="122.6934" x2="418.2856" y1="502.6348" y2="502.6348"/><text fill="#333333" font-family="sans-serif" font-size="13" lengthAdjust="spacing" textLength="132.6152" x="134.6934" y="497.8926">HTTP Server Running</text><polygon fill="#666666" points="465.2876,527.9453,475.2876,531.9453,465.2876,535.9453,469.2876,531.9453" style="stroke:#666666;stroke-width:1.0;"/><line style="stroke:#666666;stroke-width:1.0;" x1="117.6934" x2="471.2876" y1="531.9453" y2="531.9453"/><text fill="#333333" font-family="sans-serif" font-size="13" lengthAdjust="spacing" textLength="133.1675" x="124.6934" y="527.2031">Initialize gRPC Server</text><rect fill="#DDDDDD" height="30.4883" rx="2.5" ry="2.5" style="stroke:#666666;stroke-width:0.5;" width="95.2793" x="477.2876" y="510.6348"/><text fill="#333333" font-family="sans-serif" font-size="14" lengthAdjust="spacing" textLength="81.2793" x="484.2876" y="531.1699">gRPC Server</text><polygon fill="#666666" points="128.6934,569.4336,118.6934,573.4336,128.6934,577.4336,124.6934,573.4336" style="stroke:#666666;stroke-width:1.0;"/><line style="stroke:#666666;stroke-width:1.0;stroke-dasharray:2.0,2.0;" x1="122.6934" x2="523.9272" y1="573.4336" y2="573.4336"/><text fill="#333333" font-family="sans-serif" font-size="13" lengthAdjust="spacing" textLength="117.2031" x="134.6934" y="568.6914">gRPC Server Ready</text><line style="stroke:#666666;stroke-width:1.0;" x1="117.6934" x2="164.6934" y1="613.0547" y2="613.0547"/><line style="stroke:#666666;stroke-width:1.0;" x1="164.6934" x2="164.6934" y1="613.0547" y2="626.0547"/><line style="stroke:#666666;stroke-width:1.0;" x1="123.6934" x2="164.6934" y1="626.0547" y2="626.0547"/><polygon fill="#666666" points="133.6934,622.0547,123.6934,626.0547,133.6934,630.0547,129.6934,626.0547" style="stroke:#666666;stroke-width:1.0;"/><text fill="#333333" font-family="sans-serif" font-size="13" lengthAdjust="spacing" textLength="103.0352" x="129.6934" y="593.002">Start Go Routine</text><text fill="#333333" font-family="sans-serif" font-size="13" lengthAdjust="spacing" textLength="106.1265" x="129.6934" y="608.3125">(for gRPC Server)</text><polygon fill="#666666" points="512.9272,656.3652,522.9272,660.3652,512.9272,664.3652,516.9272,660.3652" style="stroke:#666666;stroke-width:1.0;"/><line style="stroke:#666666;stroke-width:1.0;" x1="122.6934" x2="518.9272" y1="660.3652" y2="660.3652"/><text fill="#333333" font-family="sans-serif" font-size="13" lengthAdjust="spacing" textLength="108.8115" x="129.6934" y="655.623">Start gRPC Server</text><polygon fill="#666666" points="128.6934,685.6758,118.6934,689.6758,128.6934,693.6758,124.6934,689.6758" style="stroke:#666666;stroke-width:1.0;"/><line style="stroke:#666666;stroke-width:1.0;stroke-dasharray:2.0,2.0;" x1="122.6934" x2="523.9272" y1="689.6758" y2="689.6758"/><text fill="#333333" font-family="sans-serif" font-size="13" lengthAdjust="spacing" textLength="131.9424" x="134.6934" y="684.9336">gRPC Server Running</text><polygon fill="#666666" points="42.52,714.9863,32.52,718.9863,42.52,722.9863,38.52,718.9863" style="stroke:#666666;stroke-width:1.0;"/><line style="stroke:#666666;stroke-width:1.0;stroke-dasharray:2.0,2.0;" x1="36.52" x2="111.6934" y1="718.9863" y2="718.9863"/><text fill="#333333" font-family="sans-serif" font-size="13" lengthAdjust="spacing" textLength="44.6494" x="48.52" y="714.2441">Started</text><text fill="#333333" font-family="sans-serif" font-size="10" lengthAdjust="spacing" textLength="155.4346" x="0" y="778.1426">Last Modified On: 24-Feb-2025</text><!--SRC=[fLHBQzj04BxlhnXSGfs38QLGYW-1HAcaG9mQIyTSDjgHMQpiXjrrKhVqltVqi3II6rhQFGXPtsE-6OtiTzeyIoUVu54MkwspUwCYMra7x-AB-7CS2zyp59PoNuNOcj1HFZQ7KQHpzhK3FpL7YFTmWwKs28_MANGUIa9bLG5M-8GcUAQddpeSu8S0k6xOOozwEarvqnpnKp2NWX8wM_sl3Ls3BlIpDE7Vh8JW5X7rZ6xqQ9QXUq4t0-aX6oEvBdOTae-HDC_Nm8JfHBdTh2EE9nCyigRKsmQAX6XJmU8ICbX25eWvByAtSo6Be5zaG0ec2eVrNIwocfWVYN2Fhz06VJ3p3nVWaKQlF1Fd8eT5PzuoMoageP2nMkS-0YGMDdOVQ6t8kLwOLZoArKkkdPMga3x0MfijtDkWIrt8eAtn9Fz2apW0ZyTAPrtfY7mI3D1CzqxxW0Qkb7Be_L0p4b7VpH5aNb4_gRHBbzRCMwE3bfN-Zi3UtU1APE8TVHa5DYZLWLT8ipzFYXcCt-AGg5NoC6y5s1j38vr468-lQpdfMaucBRDr7D8GEHagCiffoybVjCmCJZSa6OGyorlrJpjEijE5gJUc_NAMlrje8bLO1lghiu4uT_LkhgoYjKG5NyqIpXJHvZEb5glLQd6WCpiNlm00]--></g></svg>
