<svg contentStyleType="text/css" height="459" preserveAspectRatio="none" viewBox="0 0 865 459" width="865" xmlns="http://www.w3.org/2000/svg" zoomAndPan="magnify"><path d="m0 0h865v459h-865z" fill="#f0f8ff"/><g stroke="#181818"><path d="m198.228 67.7988h10v322.416h-10z" fill="#fff"/><path d="m388.522 97.1094h10v29.3105h-10z" fill="#fff"/><path d="m534.4067 155.7305h10v29.3105h-10z" fill="#fff"/><path d="m677.1504 214.3516h10v29.3105h-10z" fill="#fff"/><path d="m803.8911 272.9727h10v87.9316h-10z" fill="#fff"/><path d="m31 36.4883v371.7265" stroke-dasharray="5 5" stroke-width=".5"/><path d="m202.3066 36.4883v371.7265" stroke-dasharray="5 5" stroke-width=".5"/><path d="m392.8774 36.4883v371.7265" stroke-dasharray="5 5" stroke-width=".5"/><path d="m539.1665 36.4883v371.7265" stroke-dasharray="5 5" stroke-width=".5"/><path d="m681.647 36.4883v371.7265" stroke-dasharray="5 5" stroke-width=".5"/><path d="m808.6538 36.4883v371.7265" stroke-dasharray="5 5" stroke-width=".5"/></g><rect fill="#ddd" height="30.4883" rx="2.5" stroke="#666" stroke-width=".5" width="53.04" x="5" y="5"/><text fill="#333" font-family="sans-serif" font-size="14" lengthAdjust="spacing" textLength="39.04" x="12" y="25.5352">Caller</text><rect fill="#ddd" height="30.4883" rx="2.5" stroke="#666" stroke-width=".5" width="53.04" x="5" y="407.2148"/><text fill="#333" font-family="sans-serif" font-size="14" lengthAdjust="spacing" textLength="39.04" x="12" y="427.75">Caller</text><rect fill="#ddd" height="30.4883" rx="2.5" stroke="#666" stroke-width=".5" width="55.8428" x="175.3066" y="5"/><text fill="#333" font-family="sans-serif" font-size="14" lengthAdjust="spacing" textLength="41.8428" x="182.3066" y="25.5352">Server</text><rect fill="#ddd" height="30.4883" rx="2.5" stroke="#666" stroke-width=".5" width="55.8428" x="175.3066" y="407.2148"/><text fill="#333" font-family="sans-serif" font-size="14" lengthAdjust="spacing" textLength="41.8428" x="182.3066" y="427.75">Server</text><rect fill="#ddd" height="30.4883" rx="2.5" stroke="#666" stroke-width=".5" width="139.2891" x="323.8774" y="5"/><text fill="#333" font-family="sans-serif" font-size="14" lengthAdjust="spacing" textLength="125.2891" x="330.8774" y="25.5352">Discovery Channel</text><rect fill="#ddd" height="30.4883" rx="2.5" stroke="#666" stroke-width=".5" width="139.2891" x="323.8774" y="407.2148"/><text fill="#333" font-family="sans-serif" font-size="14" lengthAdjust="spacing" textLength="125.2891" x="330.8774" y="427.75">Discovery Channel</text><rect fill="#ddd" height="30.4883" rx="2.5" stroke="#666" stroke-width=".5" width="132.4805" x="473.1665" y="5"/><text fill="#333" font-family="sans-serif" font-size="14" lengthAdjust="spacing" textLength="118.4805" x="480.1665" y="25.5352">Echo HTTP Server</text><rect fill="#ddd" height="30.4883" rx="2.5" stroke="#666" stroke-width=".5" width="132.4805" x="473.1665" y="407.2148"/><text fill="#333" font-family="sans-serif" font-size="14" lengthAdjust="spacing" textLength="118.4805" x="480.1665" y="427.75">Echo HTTP Server</text><rect fill="#ddd" height="30.4883" rx="2.5" stroke="#666" stroke-width=".5" width="133.0068" x="615.647" y="5"/><text fill="#333" font-family="sans-serif" font-size="14" lengthAdjust="spacing" textLength="119.0068" x="622.647" y="25.5352">CORS Middleware</text><rect fill="#ddd" height="30.4883" rx="2.5" stroke="#666" stroke-width=".5" width="133.0068" x="615.647" y="407.2148"/><text fill="#333" font-family="sans-serif" font-size="14" lengthAdjust="spacing" textLength="119.0068" x="622.647" y="427.75">CORS Middleware</text><rect fill="#ddd" height="30.4883" rx="2.5" stroke="#666" stroke-width=".5" width="100.4746" x="758.6538" y="5"/><text fill="#333" font-family="sans-serif" font-size="14" lengthAdjust="spacing" textLength="86.4746" x="765.6538" y="25.5352">HTTP Routes</text><rect fill="#ddd" height="30.4883" rx="2.5" stroke="#666" stroke-width=".5" width="100.4746" x="758.6538" y="407.2148"/><text fill="#333" font-family="sans-serif" font-size="14" lengthAdjust="spacing" textLength="86.4746" x="765.6538" y="427.75">HTTP Routes</text><path d="m198.228 67.7988h10v322.416h-10z" fill="#fff" stroke="#181818"/><path d="m388.522 97.1094h10v29.3105h-10z" fill="#fff" stroke="#181818"/><path d="m534.4067 155.7305h10v29.3105h-10z" fill="#fff" stroke="#181818"/><path d="m677.1504 214.3516h10v29.3105h-10z" fill="#fff" stroke="#181818"/><path d="m803.8911 272.9727h10v87.9316h-10z" fill="#fff" stroke="#181818"/><path d="m186.228 63.7988 10 4-10 4 4-4z" fill="#666" stroke="#666"/><path d="m31.52 67.7988h160.708" stroke="#666"/><text fill="#333" font-family="sans-serif" font-size="13" lengthAdjust="spacing" textLength="28.8882" x="38.52" y="63.0566">Init()</text><path d="m376.522 93.1094 10 4-10 4 4-4z" fill="#666" stroke="#666"/><path d="m208.228 97.1094h174.294" stroke="#666"/><text fill="#333" font-family="sans-serif" font-size="13" lengthAdjust="spacing" textLength="161.2939" x="215.228" y="92.3672">Create Discovery Channel</text><path d="m219.228 122.4199-10 4 10 4-4-4z" fill="#666" stroke="#666"/><path d="m213.228 126.4199h179.294" stroke="#666" stroke-dasharray="2 2"/><text fill="#333" font-family="sans-serif" font-size="13" lengthAdjust="spacing" textLength="104.5142" x="225.228" y="121.6777">Channel Created</text><path d="m522.4067 151.7305 10 4-10 4 4-4z" fill="#666" stroke="#666"/><path d="m208.228 155.7305h320.1787" stroke="#666"/><text fill="#333" font-family="sans-serif" font-size="13" lengthAdjust="spacing" textLength="130.4189" x="215.228" y="150.9883">Initialize Echo Server</text><path d="m219.228 181.041-10 4 10 4-4-4z" fill="#666" stroke="#666"/><path d="m213.228 185.041h325.1787" stroke="#666" stroke-dasharray="2 2"/><text fill="#333" font-family="sans-serif" font-size="13" lengthAdjust="spacing" textLength="104.73" x="225.228" y="180.2988">Server Initialized</text><path d="m665.1504 210.3516 10 4-10 4 4-4z" fill="#666" stroke="#666"/><path d="m208.228 214.3516h462.9224" stroke="#666"/><text fill="#333" font-family="sans-serif" font-size="13" lengthAdjust="spacing" textLength="100.75" x="215.228" y="209.6094">Configure CORS</text><path d="m219.228 239.6621-10 4 10 4-4-4z" fill="#666" stroke="#666"/><path d="m213.228 243.6621h467.9224" stroke="#666" stroke-dasharray="2 2"/><text fill="#333" font-family="sans-serif" font-size="13" lengthAdjust="spacing" textLength="108.9321" x="225.228" y="238.9199">CORS Configured</text><path d="m791.8911 268.9727 10 4-10 4 4-4z" fill="#666" stroke="#666"/><path d="m208.228 272.9727h589.6631" stroke="#666"/><text fill="#333" font-family="sans-serif" font-size="13" lengthAdjust="spacing" textLength="186.856" x="215.228" y="268.2305">Define '/ws' WebSocket Route</text><path d="m219.228 298.2832-10 4 10 4-4-4z" fill="#666" stroke="#666"/><path d="m213.228 302.2832h589.6631" stroke="#666" stroke-dasharray="2 2"/><text fill="#333" font-family="sans-serif" font-size="13" lengthAdjust="spacing" textLength="89.502" x="225.228" y="297.541">Route Defined</text><path d="m791.8911 327.5938 10 4-10 4 4-4z" fill="#666" stroke="#666"/><path d="m208.228 331.5938h589.6631" stroke="#666"/><text fill="#333" font-family="sans-serif" font-size="13" lengthAdjust="spacing" textLength="136.3096" x="215.228" y="326.8516">Define '/nodes' Route</text><path d="m219.228 356.9043-10 4 10 4-4-4z" fill="#666" stroke="#666"/><path d="m213.228 360.9043h594.6631" stroke="#666" stroke-dasharray="2 2"/><text fill="#333" font-family="sans-serif" font-size="13" lengthAdjust="spacing" textLength="89.502" x="225.228" y="356.1621">Route Defined</text><path d="m42.52 386.2148-10 4 10 4-4-4z" fill="#666" stroke="#666"/><path d="m36.52 390.2148h165.708" stroke="#666" stroke-dasharray="2 2"/><text fill="#333" font-family="sans-serif" font-size="13" lengthAdjust="spacing" textLength="142.708" x="48.52" y="385.4727">Initialization Complete</text><text fill="#333" font-family="sans-serif" font-size="10" lengthAdjust="spacing" textLength="155.4346" y="449.3711">Last Modified On: 24-Feb-2025</text></svg>
