<svg contentStyleType="text/css" height="1058" preserveAspectRatio="none" viewBox="0 0 1094 1058" width="1094" xmlns="http://www.w3.org/2000/svg" zoomAndPan="magnify"><g fill="#fff" stroke="#181818"><path d="m268 77.4883h10v326.416h-10z"/><path d="m268 476.5254h10v103.2422h-10z"/><path d="m268 652.3887h10v161.5527h-10z"/><path d="m268 886.5625h10v71.6211h-10z"/><path d="m545 199.7305h10v29.3105h-10z"/><path d="m648 315.9727h10v29.3105h-10z"/><path d="m774 374.5938h10v29.3105h-10z"/><path d="m1018.5 521.1465h10v29.3105h-10z"/><path d="m1018.5 748.3203h10v29.3105h-10z"/></g><path d="m234.5 709.6992h842.5v75.9316h-842.5z" fill="none" stroke="#000" stroke-width="1.5"/><g stroke="#181818"><path d="m32 67.4883v908.6953" stroke-dasharray="5 5" stroke-width=".5"/><path d="m272.5 67.4883v908.6953" stroke-dasharray="5 5" stroke-width=".5"/><path d="m550 67.4883v908.6953" stroke-dasharray="5 5" stroke-width=".5"/><path d="m653 67.4883v908.6953" stroke-dasharray="5 5" stroke-width=".5"/><path d="m779 67.4883v908.6953" stroke-dasharray="5 5" stroke-width=".5"/><path d="m904 67.4883v908.6953" stroke-dasharray="5 5" stroke-width=".5"/><path d="m1023 67.4883v908.6953" stroke-dasharray="5 5" stroke-width=".5"/><rect fill="#e2e2f0" height="30.4883" rx="2.5" stroke-width=".5" width="54" x="5" y="36"/></g><text font-family="sans-serif" font-size="14" lengthAdjust="spacing" textLength="40" x="12" y="56.5352">Client</text><rect fill="#e2e2f0" height="30.4883" rx="2.5" stroke="#181818" stroke-width=".5" width="54" x="5" y="975.1836"/><text font-family="sans-serif" font-size="14" lengthAdjust="spacing" textLength="40" x="12" y="995.7188">Client</text><rect fill="#e2e2f0" height="30.4883" rx="2.5" stroke="#181818" stroke-width=".5" width="57" x="244.5" y="36"/><text font-family="sans-serif" font-size="14" lengthAdjust="spacing" textLength="43" x="251.5" y="56.5352">Server</text><rect fill="#e2e2f0" height="30.4883" rx="2.5" stroke="#181818" stroke-width=".5" width="57" x="244.5" y="975.1836"/><text font-family="sans-serif" font-size="14" lengthAdjust="spacing" textLength="43" x="251.5" y="995.7188">Server</text><text font-family="sans-serif" font-size="14" lengthAdjust="spacing" textLength="46" x="524" y="64.5352">Config</text><path d="m532 15c0-10 18-10 18-10s18 0 18 10v26c0 10-18 10-18 10s-18 0-18-10z" fill="#e2e2f0" stroke="#181818" stroke-width="1.5"/><path d="m532 15c0 10 18 10 18 10s18 0 18-10" fill="none" stroke="#181818" stroke-width="1.5"/><text font-family="sans-serif" font-size="14" lengthAdjust="spacing" textLength="46" x="524" y="988.7188">Config</text><path d="m532 1001.6719c0-10 18-10 18-10s18 0 18 10v26c0 10-18 10-18 10s-18 0-18-10z" fill="#e2e2f0" stroke="#181818" stroke-width="1.5"/><path d="m532 1001.6719c0 10 18 10 18 10s18 0 18-10" fill="none" stroke="#181818" stroke-width="1.5"/><rect fill="#e2e2f0" height="30.4883" rx="2.5" stroke="#181818" stroke-width=".5" width="134" x="586" y="36"/><text font-family="sans-serif" font-size="14" lengthAdjust="spacing" textLength="120" x="593" y="56.5352">Echo HTTP Server</text><rect fill="#e2e2f0" height="30.4883" rx="2.5" stroke="#181818" stroke-width=".5" width="134" x="586" y="975.1836"/><text font-family="sans-serif" font-size="14" lengthAdjust="spacing" textLength="120" x="593" y="995.7188">Echo HTTP Server</text><rect fill="#e2e2f0" height="30.4883" rx="2.5" stroke="#181818" stroke-width=".5" width="98" x="730" y="36"/><text font-family="sans-serif" font-size="14" lengthAdjust="spacing" textLength="84" x="737" y="56.5352">GRPC Server</text><rect fill="#e2e2f0" height="30.4883" rx="2.5" stroke="#181818" stroke-width=".5" width="98" x="730" y="975.1836"/><text font-family="sans-serif" font-size="14" lengthAdjust="spacing" textLength="84" x="737" y="995.7188">GRPC Server</text><rect fill="#e2e2f0" height="30.4883" rx="2.5" stroke="#181818" stroke-width=".5" width="132" x="838" y="36"/><text font-family="sans-serif" font-size="14" lengthAdjust="spacing" textLength="118" x="845" y="56.5352">WebSocket Client</text><rect fill="#e2e2f0" height="30.4883" rx="2.5" stroke="#181818" stroke-width=".5" width="132" x="838" y="975.1836"/><text font-family="sans-serif" font-size="14" lengthAdjust="spacing" textLength="118" x="845" y="995.7188">WebSocket Client</text><rect fill="#e2e2f0" height="30.4883" rx="2.5" stroke="#181818" stroke-width=".5" width="87" x="980" y="36"/><text font-family="sans-serif" font-size="14" lengthAdjust="spacing" textLength="73" x="987" y="56.5352">Subscriber</text><rect fill="#e2e2f0" height="30.4883" rx="2.5" stroke="#181818" stroke-width=".5" width="87" x="980" y="975.1836"/><text font-family="sans-serif" font-size="14" lengthAdjust="spacing" textLength="73" x="987" y="995.7188">Subscriber</text><g fill="#fff" stroke="#181818"><path d="m268 77.4883h10v326.416h-10z"/><path d="m268 476.5254h10v103.2422h-10z"/><path d="m268 652.3887h10v161.5527h-10z"/><path d="m268 886.5625h10v71.6211h-10z"/><path d="m545 199.7305h10v29.3105h-10z"/><path d="m648 315.9727h10v29.3105h-10z"/><path d="m774 374.5938h10v29.3105h-10z"/><path d="m1018.5 521.1465h10v29.3105h-10z"/><path d="m1018.5 748.3203h10v29.3105h-10z"/></g><path d="m0 98.1436h1087v3h-1087z" fill="#eee" stroke="#eee"/><path d="m0 98.1436h1087" stroke="#000"/><path d="m0 101.1436h1087" stroke="#000"/><path d="m492.5 87.4883h102v23.3105h-102z" fill="#eee" stroke="#000" stroke-width="2"/><text font-family="sans-serif" font-size="13" font-weight="bold" lengthAdjust="spacing" textLength="84" x="498.5" y="104.0566">Initialization</text><path d="m278 142.1094h42" stroke="#181818"/><path d="m320 142.1094v13" stroke="#181818"/><path d="m279 155.1094h41" stroke="#181818"/><path d="m289 151.1094-10 4 10 4-4-4z" fill="#181818" stroke="#181818"/><text font-family="sans-serif" font-size="13" lengthAdjust="spacing" textLength="29" x="285" y="137.3672">Init()</text><path d="m533 195.7305 10 4-10 4 4-4z" fill="#181818" stroke="#181818"/><path d="m278 199.7305h261" stroke="#181818"/><text font-family="sans-serif" font-size="13" lengthAdjust="spacing" textLength="76" x="285" y="179.6777">Read Config</text><text font-family="sans-serif" font-size="13" lengthAdjust="spacing" textLength="248" x="285" y="194.9883">(grpcListenAddress, httpListenAddress)</text><path d="m289 225.041-10 4 10 4-4-4z" fill="#181818" stroke="#181818"/><path d="m283 229.041h266" stroke="#181818" stroke-dasharray="2 2"/><text font-family="sans-serif" font-size="13" lengthAdjust="spacing" textLength="75" x="295" y="224.2988">Config Data</text><path d="m278 258.3516h42" stroke="#181818"/><path d="m320 258.3516v13" stroke="#181818"/><path d="m279 271.3516h41" stroke="#181818"/><path d="m289 267.3516-10 4 10 4-4-4z" fill="#181818" stroke="#181818"/><text font-family="sans-serif" font-size="13" lengthAdjust="spacing" textLength="156" x="285" y="253.6094">Setup Discovery Channel</text><path d="m636 311.9727 10 4-10 4 4-4z" fill="#181818" stroke="#181818"/><path d="m278 315.9727h364" stroke="#181818"/><text font-family="sans-serif" font-size="13" lengthAdjust="spacing" textLength="111" x="285" y="295.9199">Setup Echo Server</text><text font-family="sans-serif" font-size="13" lengthAdjust="spacing" textLength="155" x="285" y="311.2305">(HTTP/HTTPS Endpoints)</text><path d="m289 341.2832-10 4 10 4-4-4z" fill="#181818" stroke="#181818"/><path d="m283 345.2832h369" stroke="#181818" stroke-dasharray="2 2"/><text font-family="sans-serif" font-size="13" lengthAdjust="spacing" textLength="113" x="295" y="340.541">Echo Server Ready</text><path d="m762 370.5938 10 4-10 4 4-4z" fill="#181818" stroke="#181818"/><path d="m278 374.5938h490" stroke="#181818"/><text font-family="sans-serif" font-size="13" lengthAdjust="spacing" textLength="114" x="285" y="369.8516">Setup GRPC Server</text><path d="m284 399.9043-10 4 10 4-4-4z" fill="#181818" stroke="#181818"/><path d="m278 403.9043h500" stroke="#181818" stroke-dasharray="2 2"/><text font-family="sans-serif" font-size="13" lengthAdjust="spacing" textLength="116" x="290" y="399.1621">GRPC Server Ready</text><path d="m0 432.5596h1087v3h-1087z" fill="#eee" stroke="#eee"/><path d="m0 432.5596h1087" stroke="#000"/><path d="m0 435.5596h1087" stroke="#000"/><path d="m463.5 421.9043h160v23.3105h-160z" fill="#eee" stroke="#000" stroke-width="2"/><text font-family="sans-serif" font-size="13" font-weight="bold" lengthAdjust="spacing" textLength="142" x="469.5" y="438.4727">Connection Handling</text><path d="m256 472.5254 10 4-10 4 4-4z" fill="#181818" stroke="#181818"/><path d="m32 476.5254h230" stroke="#181818"/><text font-family="sans-serif" font-size="13" lengthAdjust="spacing" textLength="85" x="39" y="471.7832">Connect(info)</text><path d="m1006.5 517.1465 10 4-10 4 4-4z" fill="#181818" stroke="#181818"/><path d="m278 521.1465h734.5" stroke="#181818"/><text font-family="sans-serif" font-size="13" lengthAdjust="spacing" textLength="126" x="285" y="501.0938">Add New Subscriber</text><text font-family="sans-serif" font-size="13" lengthAdjust="spacing" textLength="33" x="285" y="516.4043">(info)</text><path d="m289 546.457-10 4 10 4-4-4z" fill="#181818" stroke="#181818"/><path d="m283 550.457h739.5" stroke="#181818" stroke-dasharray="2 2"/><text font-family="sans-serif" font-size="13" lengthAdjust="spacing" textLength="110" x="295" y="545.7148">Subscriber Added</text><path d="m43 575.7676-10 4 10 4-4-4z" fill="#181818" stroke="#181818"/><path d="m37 579.7676h235" stroke="#181818" stroke-dasharray="2 2"/><text font-family="sans-serif" font-size="13" lengthAdjust="spacing" textLength="67" x="49" y="575.0254">Connected</text><path d="m0 608.4229h1087v3h-1087z" fill="#eee" stroke="#eee"/><path d="m0 608.4229h1087" stroke="#000"/><path d="m0 611.4229h1087" stroke="#000"/><path d="m461 597.7676h165v23.3105h-165z" fill="#eee" stroke="#000" stroke-width="2"/><text font-family="sans-serif" font-size="13" font-weight="bold" lengthAdjust="spacing" textLength="147" x="467" y="614.3359">Broadcast Notification</text><path d="m256 648.3887 10 4-10 4 4-4z" fill="#181818" stroke="#181818"/><path d="m32 652.3887h230" stroke="#181818"/><text font-family="sans-serif" font-size="13" lengthAdjust="spacing" textLength="217" x="39" y="647.6465">BroadcastNotification(notification)</text><path d="m278 681.6992h42" stroke="#181818"/><path d="m320 681.6992v13" stroke="#181818"/><path d="m279 694.6992h41" stroke="#181818"/><path d="m289 690.6992-10 4 10 4-4-4z" fill="#181818" stroke="#181818"/><text font-family="sans-serif" font-size="13" lengthAdjust="spacing" textLength="116" x="285" y="676.957">Check Subscribers</text><path d="m234.5 709.6992h74v7.3106l-10 10h-64z" fill="#eee" stroke="#000" stroke-width="1.5"/><path d="m234.5 709.6992h842.5v75.9316h-842.5z" fill="none" stroke="#000" stroke-width="1.5"/><text font-family="sans-serif" font-size="13" font-weight="bold" lengthAdjust="spacing" textLength="29" x="249.5" y="723.2676">loop</text><text font-family="sans-serif" font-size="11" font-weight="bold" lengthAdjust="spacing" textLength="117" x="323.5" y="722.334">[for each Subscriber]</text><path d="m1006.5 744.3203 10 4-10 4 4-4z" fill="#181818" stroke="#181818"/><path d="m278 748.3203h734.5" stroke="#181818"/><text font-family="sans-serif" font-size="13" lengthAdjust="spacing" textLength="109" x="285" y="743.5781">Send Notification</text><path d="m289 773.6309-10 4 10 4-4-4z" fill="#181818" stroke="#181818"/><path d="m283 777.6309h739.5" stroke="#181818" stroke-dasharray="2 2"/><text font-family="sans-serif" font-size="13" lengthAdjust="spacing" textLength="109" x="295" y="772.8887">Acknowledgment</text><path d="m43 809.9414-10 4 10 4-4-4z" fill="#181818" stroke="#181818"/><path d="m37 813.9414h235" stroke="#181818" stroke-dasharray="2 2"/><text font-family="sans-serif" font-size="13" lengthAdjust="spacing" textLength="113" x="49" y="809.1992">Notifications Sent</text><path d="m0 842.5967h1087v3h-1087z" fill="#eee" stroke="#eee"/><path d="m0 842.5967h1087" stroke="#000"/><path d="m0 845.5967h1087" stroke="#000"/><path d="m500 831.9414h87v23.3105h-87z" fill="#eee" stroke="#000" stroke-width="2"/><text font-family="sans-serif" font-size="13" font-weight="bold" lengthAdjust="spacing" textLength="69" x="506" y="848.5098">Get Nodes</text><path d="m256 882.5625 10 4-10 4 4-4z" fill="#181818" stroke="#181818"/><path d="m32 886.5625h230" stroke="#181818"/><text font-family="sans-serif" font-size="13" lengthAdjust="spacing" textLength="69" x="39" y="881.8203">GetNodes()</text><path d="m278 915.873h42" stroke="#181818"/><path d="m320 915.873v13" stroke="#181818"/><path d="m279 928.873h41" stroke="#181818"/><path d="m289 924.873-10 4 10 4-4-4z" fill="#181818" stroke="#181818"/><text font-family="sans-serif" font-size="13" lengthAdjust="spacing" textLength="166" x="285" y="911.1309">Collect Nodes Information</text><path d="m43 954.1836-10 4 10 4-4-4z" fill="#181818" stroke="#181818"/><path d="m37 958.1836h235" stroke="#181818" stroke-dasharray="2 2"/><text font-family="sans-serif" font-size="13" lengthAdjust="spacing" textLength="56" x="49" y="953.4414">NodeList</text><text fill="#888" font-family="sans-serif" font-size="10" lengthAdjust="spacing" textLength="155" y="1048.3398">Last Modified On: 23-Nov-2023</text></svg>
