<svg contentStyleType="text/css" height="286" preserveAspectRatio="none" viewBox="0 0 432 286" width="432" xmlns="http://www.w3.org/2000/svg" zoomAndPan="magnify"><path d="m0 0h432v286h-432z" fill="#f0f8ff"/><g stroke="#181818"><path d="m218.9609 98.7988h10v87.9316h-10z" fill="#fff"/><path d="m384.1152 128.1094h10v29.3105h-10z" fill="#fff"/><path d="m53 67.4883v137.2422" stroke-dasharray="5 5" stroke-width=".5"/><path d="m223.1064 67.4883v137.2422" stroke-dasharray="5 5" stroke-width=".5"/><path d="m388.8154 67.4883v137.2422" stroke-dasharray="5 5" stroke-width=".5"/></g><rect fill="#ddd" height="30.4883" rx="2.5" stroke="#666" stroke-width=".5" width="96.1064" x="5" y="36"/><text fill="#333" font-family="sans-serif" font-size="14" lengthAdjust="spacing" textLength="82.1064" x="12" y="56.5352">Peer (Client)</text><rect fill="#ddd" height="30.4883" rx="2.5" stroke="#666" stroke-width=".5" width="96.1064" x="5" y="203.7305"/><text fill="#333" font-family="sans-serif" font-size="14" lengthAdjust="spacing" textLength="82.1064" x="12" y="224.2656">Peer (Client)</text><rect fill="#ddd" height="30.4883" rx="2.5" stroke="#666" stroke-width=".5" width="225.709" x="111.1064" y="36"/><text fill="#333" font-family="sans-serif" font-size="14" lengthAdjust="spacing" textLength="211.709" x="118.1064" y="56.5352">gRPC Server (Bootstrap Service)</text><rect fill="#ddd" height="30.4883" rx="2.5" stroke="#666" stroke-width=".5" width="225.709" x="111.1064" y="203.7305"/><text fill="#333" font-family="sans-serif" font-size="14" lengthAdjust="spacing" textLength="211.709" x="118.1064" y="224.2656">gRPC Server (Bootstrap Service)</text><text fill="#333" font-family="sans-serif" font-size="14" lengthAdjust="spacing" textLength="78.5996" x="346.8154" y="64.5352">Subscribers</text><path d="m371.1152 15c0-10 18-10 18-10s18 0 18 10v26c0 10-18 10-18 10s-18 0-18-10z" fill="#e2e2f0" stroke="#181818" stroke-width="1.5"/><path d="m371.1152 15c0 10 18 10 18 10s18 0 18-10" fill="none" stroke="#181818" stroke-width="1.5"/><text fill="#333" font-family="sans-serif" font-size="14" lengthAdjust="spacing" textLength="78.5996" x="346.8154" y="217.2656">Subscribers</text><path d="m371.1152 230.2188c0-10 18-10 18-10s18 0 18 10v26c0 10-18 10-18 10s-18 0-18-10z" fill="#e2e2f0" stroke="#181818" stroke-width="1.5"/><path d="m371.1152 230.2188c0 10 18 10 18 10s18 0 18-10" fill="none" stroke="#181818" stroke-width="1.5"/><path d="m218.9609 98.7988h10v87.9316h-10z" fill="#fff" stroke="#181818"/><path d="m384.1152 128.1094h10v29.3105h-10z" fill="#fff" stroke="#181818"/><path d="m206.9609 94.7988 10 4-10 4 4-4z" fill="#666" stroke="#666"/><path d="m53.0532 98.7988h159.9077" stroke="#666"/><text fill="#333" font-family="sans-serif" font-size="13" lengthAdjust="spacing" textLength="69.5957" x="60.0532" y="94.0566">GetNodes()</text><path d="m372.1152 124.1094 10 4-10 4 4-4z" fill="#666" stroke="#666"/><path d="m228.9609 128.1094h149.1543" stroke="#666"/><text fill="#333" font-family="sans-serif" font-size="13" lengthAdjust="spacing" textLength="103.8477" x="235.9609" y="123.3672">Fetch Nodes List</text><path d="m239.9609 153.4199-10 4 10 4-4-4z" fill="#666" stroke="#666"/><path d="m233.9609 157.4199h154.1543" stroke="#666" stroke-dasharray="2 2"/><text fill="#333" font-family="sans-serif" font-size="13" lengthAdjust="spacing" textLength="65.9331" x="245.9609" y="152.6777">Nodes List</text><path d="m64.0532 182.7305-10 4 10 4-4-4z" fill="#666" stroke="#666"/><path d="m58.0532 186.7305h164.9077" stroke="#666" stroke-dasharray="2 2"/><text fill="#333" font-family="sans-serif" font-size="13" lengthAdjust="spacing" textLength="111.8267" x="70.0532" y="181.9883">Return Nodes List</text><text fill="#333" font-family="sans-serif" font-size="10" lengthAdjust="spacing" textLength="155.4346" y="276.8867">Last Modified On: 24-Feb-2025</text></svg>
