<svg xmlns="http://www.w3.org/2000/svg" xmlns:xlink="http://www.w3.org/1999/xlink" contentStyleType="text/css" height="475px" preserveAspectRatio="none" style="width:531px;height:475px;background:#F0F8FF;" version="1.1" viewBox="0 0 531 475" width="531px" zoomAndPan="magnify"><defs/><g><rect fill="#F0F8FF" height="475" style="stroke:none;stroke-width:1.0;" width="531" x="0" y="0"/><rect fill="#FFFFFF" height="173.5078" style="stroke:#181818;stroke-width:1.0;" width="10" x="282.979" y="184.4199"/><rect fill="#FFFFFF" height="112.8867" style="stroke:#181818;stroke-width:1.0;" width="10" x="423.5991" y="238.041"/><rect fill="none" height="151.5078" style="stroke:#000000;stroke-width:1.5;" width="504.125" x="10" y="199.4199"/><rect fill="none" height="90.8867" style="stroke:#000000;stroke-width:1.5;" width="484.125" x="20" y="253.041"/><line style="stroke:#181818;stroke-width:0.5;stroke-dasharray:5.0,5.0;" x1="57" x2="57" y1="67.4883" y2="397.2383"/><line style="stroke:#181818;stroke-width:0.5;stroke-dasharray:5.0,5.0;" x1="287.8848" x2="287.8848" y1="67.4883" y2="397.2383"/><line style="stroke:#181818;stroke-width:0.5;stroke-dasharray:5.0,5.0;" x1="428.0732" x2="428.0732" y1="67.4883" y2="397.2383"/><rect fill="#DDDDDD" height="30.4883" rx="2.5" ry="2.5" style="stroke:#666666;stroke-width:0.5;" width="55.8428" x="30" y="36"/><text fill="#333333" font-family="sans-serif" font-size="14" lengthAdjust="spacing" textLength="41.8428" x="37" y="56.5352">Server</text><rect fill="#DDDDDD" height="30.4883" rx="2.5" ry="2.5" style="stroke:#666666;stroke-width:0.5;" width="55.8428" x="30" y="396.2383"/><text fill="#333333" font-family="sans-serif" font-size="14" lengthAdjust="spacing" textLength="41.8428" x="37" y="416.7734">Server</text><text fill="#333333" font-family="sans-serif" font-size="14" lengthAdjust="spacing" textLength="124.1885" x="222.8848" y="64.5352">WebSocket Clients</text><path d="M269.979,15 C269.979,5 287.979,5 287.979,5 C287.979,5 305.979,5 305.979,15 L305.979,41 C305.979,51 287.979,51 287.979,51 C287.979,51 269.979,51 269.979,41 L269.979,15 " fill="#E2E2F0" style="stroke:#181818;stroke-width:1.5;"/><path d="M269.979,15 C269.979,25 287.979,25 287.979,25 C287.979,25 305.979,25 305.979,15 " fill="none" style="stroke:#181818;stroke-width:1.5;"/><text fill="#333333" font-family="sans-serif" font-size="14" lengthAdjust="spacing" textLength="124.1885" x="222.8848" y="409.7734">WebSocket Clients</text><path d="M269.979,422.7266 C269.979,412.7266 287.979,412.7266 287.979,412.7266 C287.979,412.7266 305.979,412.7266 305.979,422.7266 L305.979,448.7266 C305.979,458.7266 287.979,458.7266 287.979,458.7266 C287.979,458.7266 269.979,458.7266 269.979,448.7266 L269.979,422.7266 " fill="#E2E2F0" style="stroke:#181818;stroke-width:1.5;"/><path d="M269.979,422.7266 C269.979,432.7266 287.979,432.7266 287.979,432.7266 C287.979,432.7266 305.979,432.7266 305.979,422.7266 " fill="none" style="stroke:#181818;stroke-width:1.5;"/><rect fill="#DDDDDD" height="30.4883" rx="2.5" ry="2.5" style="stroke:#666666;stroke-width:0.5;" width="131.0518" x="363.0732" y="36"/><text fill="#333333" font-family="sans-serif" font-size="14" lengthAdjust="spacing" textLength="117.0518" x="370.0732" y="56.5352">WebSocket Client</text><rect fill="#DDDDDD" height="30.4883" rx="2.5" ry="2.5" style="stroke:#666666;stroke-width:0.5;" width="131.0518" x="363.0732" y="396.2383"/><text fill="#333333" font-family="sans-serif" font-size="14" lengthAdjust="spacing" textLength="117.0518" x="370.0732" y="416.7734">WebSocket Client</text><rect fill="#FFFFFF" height="173.5078" style="stroke:#181818;stroke-width:1.0;" width="10" x="282.979" y="184.4199"/><rect fill="#FFFFFF" height="112.8867" style="stroke:#181818;stroke-width:1.0;" width="10" x="423.5991" y="238.041"/><rect fill="#EEEEEE" height="3" style="stroke:#EEEEEE;stroke-width:1.0;" width="524.125" x="0" y="98.1436"/><line style="stroke:#000000;stroke-width:1.0;" x1="0" x2="524.125" y1="98.1436" y2="98.1436"/><line style="stroke:#000000;stroke-width:1.0;" x1="0" x2="524.125" y1="101.1436" y2="101.1436"/><rect fill="#EEEEEE" height="23.3105" style="stroke:#000000;stroke-width:2.0;" width="174.3989" x="174.863" y="87.4883"/><text fill="#333333" font-family="sans-serif" font-size="13" font-weight="bold" lengthAdjust="spacing" textLength="156.1143" x="180.863" y="104.0566">Ping WebSocket Clients</text><line style="stroke:#666666;stroke-width:1.0;" x1="57.9214" x2="99.9214" y1="142.1094" y2="142.1094"/><line style="stroke:#666666;stroke-width:1.0;" x1="99.9214" x2="99.9214" y1="142.1094" y2="155.1094"/><line style="stroke:#666666;stroke-width:1.0;" x1="58.9214" x2="99.9214" y1="155.1094" y2="155.1094"/><polygon fill="#666666" points="68.9214,151.1094,58.9214,155.1094,68.9214,159.1094,64.9214,155.1094" style="stroke:#666666;stroke-width:1.0;"/><text fill="#333333" font-family="sans-serif" font-size="13" lengthAdjust="spacing" textLength="109.186" x="64.9214" y="137.3672">Every 10 seconds</text><polygon fill="#666666" points="270.979,180.4199,280.979,184.4199,270.979,188.4199,274.979,184.4199" style="stroke:#666666;stroke-width:1.0;"/><line style="stroke:#666666;stroke-width:1.0;" x1="57.9214" x2="276.979" y1="184.4199" y2="184.4199"/><text fill="#333333" font-family="sans-serif" font-size="13" lengthAdjust="spacing" textLength="191.2739" x="64.9214" y="179.6777">Iterate over WebSocket Clients</text><path d="M10,199.4199 L84.4468,199.4199 L84.4468,206.7305 L74.4468,216.7305 L10,216.7305 L10,199.4199 " fill="#EEEEEE" style="stroke:#000000;stroke-width:1.5;"/><rect fill="none" height="151.5078" style="stroke:#000000;stroke-width:1.5;" width="504.125" x="10" y="199.4199"/><text fill="#333333" font-family="sans-serif" font-size="13" font-weight="bold" lengthAdjust="spacing" textLength="29.4468" x="25" y="212.9883">loop</text><text fill="#333333" font-family="sans-serif" font-size="11" font-weight="bold" lengthAdjust="spacing" textLength="135.3784" x="99.4468" y="212.0547">[Each WebSocket Client]</text><polygon fill="#666666" points="411.5991,234.041,421.5991,238.041,411.5991,242.041,415.5991,238.041" style="stroke:#666666;stroke-width:1.0;"/><line style="stroke:#666666;stroke-width:1.0;" x1="57.9214" x2="417.5991" y1="238.041" y2="238.041"/><text fill="#333333" font-family="sans-serif" font-size="13" lengthAdjust="spacing" textLength="61.7246" x="64.9214" y="233.2988">Send Ping</text><path d="M20,253.041 L82.1387,253.041 L82.1387,260.3516 L72.1387,270.3516 L20,270.3516 L20,253.041 " fill="#EEEEEE" style="stroke:#000000;stroke-width:1.5;"/><rect fill="none" height="90.8867" style="stroke:#000000;stroke-width:1.5;" width="484.125" x="20" y="253.041"/><text fill="#333333" font-family="sans-serif" font-size="13" font-weight="bold" lengthAdjust="spacing" textLength="17.1387" x="35" y="266.6094">alt</text><text fill="#333333" font-family="sans-serif" font-size="11" font-weight="bold" lengthAdjust="spacing" textLength="112.0303" x="97.1387" y="265.6758">[If Client Responds]</text><polygon fill="#666666" points="68.9214,287.6621,58.9214,291.6621,68.9214,295.6621,64.9214,291.6621" style="stroke:#666666;stroke-width:1.0;"/><line style="stroke:#666666;stroke-width:1.0;stroke-dasharray:2.0,2.0;" x1="62.9214" x2="422.5991" y1="291.6621" y2="291.6621"/><text fill="#333333" font-family="sans-serif" font-size="13" lengthAdjust="spacing" textLength="115.0576" x="74.9214" y="286.9199">Acknowledge Ping</text><line style="stroke:#000000;stroke-width:1.0;stroke-dasharray:2.0,2.0;" x1="20" x2="504.125" y1="300.6621" y2="300.6621"/><text fill="#333333" font-family="sans-serif" font-size="11" font-weight="bold" lengthAdjust="spacing" textLength="161.4121" x="25" y="311.2969">[If Client Does Not Respond]</text><polygon fill="#666666" points="270.979,331.9277,280.979,335.9277,270.979,339.9277,274.979,335.9277" style="stroke:#666666;stroke-width:1.0;"/><line style="stroke:#666666;stroke-width:1.0;" x1="57.9214" x2="276.979" y1="335.9277" y2="335.9277"/><text fill="#333333" font-family="sans-serif" font-size="13" lengthAdjust="spacing" textLength="187.8779" x="64.9214" y="331.1855">Mark Client for Disconnection</text><polygon fill="#666666" points="275.979,375.2383,285.979,379.2383,275.979,383.2383,279.979,379.2383" style="stroke:#666666;stroke-width:1.0;"/><line style="stroke:#666666;stroke-width:1.0;" x1="57.9214" x2="281.979" y1="379.2383" y2="379.2383"/><text fill="#333333" font-family="sans-serif" font-size="13" lengthAdjust="spacing" textLength="206.0576" x="64.9214" y="374.4961">Disconnect Unresponsive Clients</text><!--SRC=[fPB1IyCm5CRl-IiUy-1fC154X0hQhh238WRPEKrUPsYMb2JR6EB_RfhMDjjk-Ww5lFUzNxvyr3LIjyooBLICDnjhTbhaHXaBL-MYl2zBuaQ5m9hjb2-DzeFaDbOYOTQQmp2yYqN8DHHOIurG6IlGEgZ3b2a5g72BshjaFnobFy8N0NYEwbDMw9wxB6AHRv9GU71eZVel9dozvB9bslyDHKYAc56qUxGpO0ue4SopYZc4sHehQdY37d8bkpoYOarFbyzLlIWd9ClWJUeDN60WomY5-IDGU81bkFa8Dmjm6D8HZlIZTJTRURJC8vYWkSGGnhtST_DWIHdJmfBnpmjTI0AWP-Q1IL6Bw2ls9qJUdvM7LJrimZkwDdg2eG9XFlX-ueqs1uLYWnCELSXjsYyCEdWr8sZaJ4zyORRvbNU_No5TY45Zy6Lqpnps1APcksxQeKbi4mC-j8rNExd7CRTaZ_u0]--></g></svg>
