<svg contentStyleType="text/css" height="404" preserveAspectRatio="none" viewBox="0 0 581 404" width="581" xmlns="http://www.w3.org/2000/svg" zoomAndPan="magnify"><g stroke="#181818"><path d="m73 36.4883v317.1055" stroke-dasharray="5 5" stroke-width=".5"/><path d="m231 36.4883v317.1055" stroke-dasharray="5 5" stroke-width=".5"/><path d="m391 36.4883v317.1055" stroke-dasharray="5 5" stroke-width=".5"/><path d="m523 36.4883v317.1055" stroke-dasharray="5 5" stroke-width=".5"/><rect fill="#e2e2f0" height="30.4883" rx="2.5" stroke-width=".5" width="136" x="5" y="5"/></g><text font-family="sans-serif" font-size="14" lengthAdjust="spacing" textLength="122" x="12" y="25.5352">Subtree Assembly</text><rect fill="#e2e2f0" height="30.4883" rx="2.5" stroke="#181818" stroke-width=".5" width="136" x="5" y="352.5938"/><text font-family="sans-serif" font-size="14" lengthAdjust="spacing" textLength="122" x="12" y="373.1289">Subtree Assembly</text><rect fill="#e2e2f0" height="30.4883" rx="2.5" stroke="#181818" stroke-width=".5" width="161" x="151" y="5"/><text font-family="sans-serif" font-size="14" lengthAdjust="spacing" textLength="147" x="158" y="25.5352">Configuration Loader</text><rect fill="#e2e2f0" height="30.4883" rx="2.5" stroke="#181818" stroke-width=".5" width="161" x="151" y="352.5938"/><text font-family="sans-serif" font-size="14" lengthAdjust="spacing" textLength="147" x="158" y="373.1289">Configuration Loader</text><rect fill="#e2e2f0" height="30.4883" rx="2.5" stroke="#181818" stroke-width=".5" width="139" x="322" y="5"/><text font-family="sans-serif" font-size="14" lengthAdjust="spacing" textLength="125" x="329" y="25.5352">Blockchain Service</text><rect fill="#e2e2f0" height="30.4883" rx="2.5" stroke="#181818" stroke-width=".5" width="139" x="322" y="352.5938"/><text font-family="sans-serif" font-size="14" lengthAdjust="spacing" textLength="125" x="329" y="373.1289">Blockchain Service</text><rect fill="#e2e2f0" height="30.4883" rx="2.5" stroke="#181818" stroke-width=".5" width="104" x="471" y="5"/><text font-family="sans-serif" font-size="14" lengthAdjust="spacing" textLength="90" x="478" y="25.5352">Kafka Service</text><rect fill="#e2e2f0" height="30.4883" rx="2.5" stroke="#181818" stroke-width=".5" width="104" x="471" y="352.5938"/><text font-family="sans-serif" font-size="14" lengthAdjust="spacing" textLength="90" x="478" y="373.1289">Kafka Service</text><path d="m73 67.7988h42" stroke="#181818"/><path d="m115 67.7988v13" stroke="#181818"/><path d="m74 80.7988h41" stroke="#181818"/><path d="m84 76.7988-10 4 10 4-4-4z" fill="#181818" stroke="#181818"/><text font-family="sans-serif" font-size="13" lengthAdjust="spacing" textLength="121" x="80" y="63.0566">Load Configuration</text><path d="m73 110.1094h42" stroke="#181818" stroke-dasharray="2 2"/><path d="m115 110.1094v13" stroke="#181818" stroke-dasharray="2 2"/><path d="m74 123.1094h41" stroke="#181818" stroke-dasharray="2 2"/><path d="m84 119.1094-10 4 10 4-4-4z" fill="#181818" stroke="#181818"/><text font-family="sans-serif" font-size="13" lengthAdjust="spacing" textLength="120" x="80" y="105.3672">Configuration Data</text><path d="m379.5 148.4199 10 4-10 4 4-4z" fill="#181818" stroke="#181818"/><path d="m73 152.4199h312.5" stroke="#181818"/><text font-family="sans-serif" font-size="13" lengthAdjust="spacing" textLength="174" x="80" y="147.6777">Initialize Blockchain Service</text><path d="m84 177.7305-10 4 10 4-4-4z" fill="#181818" stroke="#181818"/><path d="m78 181.7305h312.5" stroke="#181818" stroke-dasharray="2 2"/><text font-family="sans-serif" font-size="13" lengthAdjust="spacing" textLength="173" x="90" y="176.9883">Blockchain Service Instance</text><path d="m511 207.041 10 4-10 4 4-4z" fill="#181818" stroke="#181818"/><path d="m73 211.041h444" stroke="#181818"/><text font-family="sans-serif" font-size="13" lengthAdjust="spacing" textLength="178" x="80" y="206.2988">Subscribe to Kafka Listeners</text><path d="m84 236.3516-10 4 10 4-4-4z" fill="#181818" stroke="#181818"/><path d="m78 240.3516h444" stroke="#181818" stroke-dasharray="2 2"/><text font-family="sans-serif" font-size="13" lengthAdjust="spacing" textLength="179" x="90" y="235.6094">Listen to Block Notifications</text><path d="m84 265.6621-10 4 10 4-4-4z" fill="#181818" stroke="#181818"/><path d="m78 269.6621h444" stroke="#181818" stroke-dasharray="2 2"/><text font-family="sans-serif" font-size="13" lengthAdjust="spacing" textLength="264" x="90" y="264.9199">Listen to Subtree Processing Notifications</text><path d="m350 282.6621v55h168v-45l-10-10z" fill="#feffdd" stroke="#181818" stroke-width=".5"/><path d="m508 282.6621v10h10z" fill="#feffdd" stroke="#181818" stroke-width=".5"/><text font-family="sans-serif" font-size="13" lengthAdjust="spacing" textLength="79" x="356" y="300.2305">Listeners for</text><text font-family="sans-serif" font-size="13" lengthAdjust="spacing" textLength="147" x="356" y="315.541">Block Notifications and</text><text font-family="sans-serif" font-size="13" lengthAdjust="spacing" textLength="119" x="356" y="330.8516">Subtree Processing</text><text fill="#888" font-family="sans-serif" font-size="10" lengthAdjust="spacing" textLength="161" y="394.75">Last Modified On: 4-March-2024</text></svg>
