<svg contentStyleType="text/css" height="340" preserveAspectRatio="none" viewBox="0 0 667 340" width="667" xmlns="http://www.w3.org/2000/svg" zoomAndPan="magnify"><path d="m220.5 154.4199h441v118.2422h-441z" fill="none" stroke="#000" stroke-width="1.5"/><g stroke="#181818"><path d="m74 36.4883v253.1738" stroke-dasharray="5 5" stroke-width=".5"/><path d="m282.5 36.4883v253.1738" stroke-dasharray="5 5" stroke-width=".5"/><path d="m488.5 36.4883v253.1738" stroke-dasharray="5 5" stroke-width=".5"/><rect fill="#e2e2f0" height="30.4883" rx="2.5" stroke-width=".5" width="139" x="5" y="5"/></g><text font-family="sans-serif" font-size="14" lengthAdjust="spacing" textLength="125" x="12" y="25.5352">Blockchain Service</text><rect fill="#e2e2f0" height="30.4883" rx="2.5" stroke="#181818" stroke-width=".5" width="139" x="5" y="288.6621"/><text font-family="sans-serif" font-size="14" lengthAdjust="spacing" textLength="125" x="12" y="309.1973">Blockchain Service</text><rect fill="#e2e2f0" height="30.4883" rx="2.5" stroke="#181818" stroke-width=".5" width="104" x="230.5" y="5"/><text font-family="sans-serif" font-size="14" lengthAdjust="spacing" textLength="90" x="237.5" y="25.5352">Kafka Service</text><rect fill="#e2e2f0" height="30.4883" rx="2.5" stroke="#181818" stroke-width=".5" width="104" x="230.5" y="288.6621"/><text font-family="sans-serif" font-size="14" lengthAdjust="spacing" textLength="90" x="237.5" y="309.1973">Kafka Service</text><rect fill="#e2e2f0" height="30.4883" rx="2.5" stroke="#181818" stroke-width=".5" width="184" x="396.5" y="5"/><text font-family="sans-serif" font-size="14" lengthAdjust="spacing" textLength="170" x="403.5" y="25.5352">SubtreeAssembly Service</text><rect fill="#e2e2f0" height="30.4883" rx="2.5" stroke="#181818" stroke-width=".5" width="184" x="396.5" y="288.6621"/><text font-family="sans-serif" font-size="14" lengthAdjust="spacing" textLength="170" x="403.5" y="309.1973">SubtreeAssembly Service</text><path d="m270.5 63.7988 10 4-10 4 4-4z" fill="#181818" stroke="#181818"/><path d="m74.5 67.7988h202" stroke="#181818"/><text font-family="sans-serif" font-size="13" lengthAdjust="spacing" textLength="184" x="81.5" y="63.0566">Emit Kafka Block Notification</text><path d="m476.5 93.1094 10 4-10 4 4-4z" fill="#181818" stroke="#181818"/><path d="m282.5 97.1094h200" stroke="#181818"/><text font-family="sans-serif" font-size="13" lengthAdjust="spacing" textLength="136" x="289.5" y="92.3672">Notify Block Received</text><path d="m488.5 126.4199h42" stroke="#181818"/><path d="m530.5 126.4199v13" stroke="#181818"/><path d="m489.5 139.4199h41" stroke="#181818"/><path d="m499.5 135.4199-10 4 10 4-4-4z" fill="#181818" stroke="#181818"/><text font-family="sans-serif" font-size="13" lengthAdjust="spacing" textLength="153" x="495.5" y="121.6777">Split Block into Subtrees</text><path d="m220.5 154.4199h74v7.3106l-10 10h-64z" fill="#eee" stroke="#000" stroke-width="1.5"/><path d="m220.5 154.4199h441v118.2422h-441z" fill="none" stroke="#000" stroke-width="1.5"/><text font-family="sans-serif" font-size="13" font-weight="bold" lengthAdjust="spacing" textLength="29" x="235.5" y="167.9883">loop</text><text font-family="sans-serif" font-size="11" font-weight="bold" lengthAdjust="spacing" textLength="99" x="309.5" y="167.0547">[for each Subtree]</text><path d="m293.5 189.041-10 4 10 4-4-4z" fill="#181818" stroke="#181818"/><path d="m287.5 193.041h200" stroke="#181818"/><text font-family="sans-serif" font-size="13" lengthAdjust="spacing" textLength="182" x="299.5" y="188.2988">Send Notification for Subtree</text><path d="m476.5 218.3516 10 4-10 4 4-4z" fill="#181818" stroke="#181818"/><path d="m282.5 222.3516h200" stroke="#181818"/><text font-family="sans-serif" font-size="13" lengthAdjust="spacing" textLength="178" x="289.5" y="217.6094">Call ProcessSubtree(Subtree)</text><path d="m488.5 251.6621h42" stroke="#181818"/><path d="m530.5 251.6621v13" stroke="#181818"/><path d="m489.5 264.6621h41" stroke="#181818"/><path d="m499.5 260.6621-10 4 10 4-4-4z" fill="#181818" stroke="#181818"/><text font-family="sans-serif" font-size="13" lengthAdjust="spacing" textLength="154" x="495.5" y="246.9199">Process Subtree(Subtree)</text><text fill="#888" font-family="sans-serif" font-size="10" lengthAdjust="spacing" textLength="161" y="330.8184">Last Modified On: 4-March-2024</text></svg>
