<?xml version="1.0" encoding="us-ascii" standalone="no"?><svg xmlns="http://www.w3.org/2000/svg" xmlns:xlink="http://www.w3.org/1999/xlink" contentStyleType="text/css" height="389px" preserveAspectRatio="none" style="width:581px;height:389px;background:#FFFFFF;" version="1.1" viewBox="0 0 581 389" width="581px" zoomAndPan="magnify"><defs/><g><line style="stroke:#181818;stroke-width:0.5;stroke-dasharray:5.0,5.0;" x1="73" x2="73" y1="36.4883" y2="353.5938"/><line style="stroke:#181818;stroke-width:0.5;stroke-dasharray:5.0,5.0;" x1="231" x2="231" y1="36.4883" y2="353.5938"/><line style="stroke:#181818;stroke-width:0.5;stroke-dasharray:5.0,5.0;" x1="391" x2="391" y1="36.4883" y2="353.5938"/><line style="stroke:#181818;stroke-width:0.5;stroke-dasharray:5.0,5.0;" x1="523" x2="523" y1="36.4883" y2="353.5938"/><rect fill="#E2E2F0" height="30.4883" rx="2.5" ry="2.5" style="stroke:#181818;stroke-width:0.5;" width="136" x="5" y="5"/><text fill="#000000" font-family="sans-serif" font-size="14" lengthAdjust="spacing" textLength="122" x="12" y="25.5352">Subtree Assembly</text><rect fill="#E2E2F0" height="30.4883" rx="2.5" ry="2.5" style="stroke:#181818;stroke-width:0.5;" width="136" x="5" y="352.5938"/><text fill="#000000" font-family="sans-serif" font-size="14" lengthAdjust="spacing" textLength="122" x="12" y="373.1289">Subtree Assembly</text><rect fill="#E2E2F0" height="30.4883" rx="2.5" ry="2.5" style="stroke:#181818;stroke-width:0.5;" width="161" x="151" y="5"/><text fill="#000000" font-family="sans-serif" font-size="14" lengthAdjust="spacing" textLength="147" x="158" y="25.5352">Configuration Loader</text><rect fill="#E2E2F0" height="30.4883" rx="2.5" ry="2.5" style="stroke:#181818;stroke-width:0.5;" width="161" x="151" y="352.5938"/><text fill="#000000" font-family="sans-serif" font-size="14" lengthAdjust="spacing" textLength="147" x="158" y="373.1289">Configuration Loader</text><rect fill="#E2E2F0" height="30.4883" rx="2.5" ry="2.5" style="stroke:#181818;stroke-width:0.5;" width="139" x="322" y="5"/><text fill="#000000" font-family="sans-serif" font-size="14" lengthAdjust="spacing" textLength="125" x="329" y="25.5352">Blockchain Service</text><rect fill="#E2E2F0" height="30.4883" rx="2.5" ry="2.5" style="stroke:#181818;stroke-width:0.5;" width="139" x="322" y="352.5938"/><text fill="#000000" font-family="sans-serif" font-size="14" lengthAdjust="spacing" textLength="125" x="329" y="373.1289">Blockchain Service</text><rect fill="#E2E2F0" height="30.4883" rx="2.5" ry="2.5" style="stroke:#181818;stroke-width:0.5;" width="104" x="471" y="5"/><text fill="#000000" font-family="sans-serif" font-size="14" lengthAdjust="spacing" textLength="90" x="478" y="25.5352">Kafka Service</text><rect fill="#E2E2F0" height="30.4883" rx="2.5" ry="2.5" style="stroke:#181818;stroke-width:0.5;" width="104" x="471" y="352.5938"/><text fill="#000000" font-family="sans-serif" font-size="14" lengthAdjust="spacing" textLength="90" x="478" y="373.1289">Kafka Service</text><line style="stroke:#181818;stroke-width:1.0;" x1="73" x2="115" y1="67.7988" y2="67.7988"/><line style="stroke:#181818;stroke-width:1.0;" x1="115" x2="115" y1="67.7988" y2="80.7988"/><line style="stroke:#181818;stroke-width:1.0;" x1="74" x2="115" y1="80.7988" y2="80.7988"/><polygon fill="#181818" points="84,76.7988,74,80.7988,84,84.7988,80,80.7988" style="stroke:#181818;stroke-width:1.0;"/><text fill="#000000" font-family="sans-serif" font-size="13" lengthAdjust="spacing" textLength="121" x="80" y="63.0566">Load Configuration</text><line style="stroke:#181818;stroke-width:1.0;stroke-dasharray:2.0,2.0;" x1="73" x2="115" y1="110.1094" y2="110.1094"/><line style="stroke:#181818;stroke-width:1.0;stroke-dasharray:2.0,2.0;" x1="115" x2="115" y1="110.1094" y2="123.1094"/><line style="stroke:#181818;stroke-width:1.0;stroke-dasharray:2.0,2.0;" x1="74" x2="115" y1="123.1094" y2="123.1094"/><polygon fill="#181818" points="84,119.1094,74,123.1094,84,127.1094,80,123.1094" style="stroke:#181818;stroke-width:1.0;"/><text fill="#000000" font-family="sans-serif" font-size="13" lengthAdjust="spacing" textLength="120" x="80" y="105.3672">Configuration Data</text><polygon fill="#181818" points="379.5,148.4199,389.5,152.4199,379.5,156.4199,383.5,152.4199" style="stroke:#181818;stroke-width:1.0;"/><line style="stroke:#181818;stroke-width:1.0;" x1="73" x2="385.5" y1="152.4199" y2="152.4199"/><text fill="#000000" font-family="sans-serif" font-size="13" lengthAdjust="spacing" textLength="174" x="80" y="147.6777">Initialize Blockchain Service</text><polygon fill="#181818" points="84,177.7305,74,181.7305,84,185.7305,80,181.7305" style="stroke:#181818;stroke-width:1.0;"/><line style="stroke:#181818;stroke-width:1.0;stroke-dasharray:2.0,2.0;" x1="78" x2="390.5" y1="181.7305" y2="181.7305"/><text fill="#000000" font-family="sans-serif" font-size="13" lengthAdjust="spacing" textLength="173" x="90" y="176.9883">Blockchain Service Instance</text><polygon fill="#181818" points="511,207.041,521,211.041,511,215.041,515,211.041" style="stroke:#181818;stroke-width:1.0;"/><line style="stroke:#181818;stroke-width:1.0;" x1="73" x2="517" y1="211.041" y2="211.041"/><text fill="#000000" font-family="sans-serif" font-size="13" lengthAdjust="spacing" textLength="178" x="80" y="206.2988">Subscribe to Kafka Listeners</text><polygon fill="#181818" points="84,236.3516,74,240.3516,84,244.3516,80,240.3516" style="stroke:#181818;stroke-width:1.0;"/><line style="stroke:#181818;stroke-width:1.0;stroke-dasharray:2.0,2.0;" x1="78" x2="522" y1="240.3516" y2="240.3516"/><text fill="#000000" font-family="sans-serif" font-size="13" lengthAdjust="spacing" textLength="179" x="90" y="235.6094">Listen to Block Notifications</text><polygon fill="#181818" points="84,265.6621,74,269.6621,84,273.6621,80,269.6621" style="stroke:#181818;stroke-width:1.0;"/><line style="stroke:#181818;stroke-width:1.0;stroke-dasharray:2.0,2.0;" x1="78" x2="522" y1="269.6621" y2="269.6621"/><text fill="#000000" font-family="sans-serif" font-size="13" lengthAdjust="spacing" textLength="264" x="90" y="264.9199">Listen to Subtree Processing Notifications</text><path d="M350,282.6621 L350,337.6621 L518,337.6621 L518,292.6621 L508,282.6621 L350,282.6621 " fill="#FEFFDD" style="stroke:#181818;stroke-width:0.5;"/><path d="M508,282.6621 L508,292.6621 L518,292.6621 L508,282.6621 " fill="#FEFFDD" style="stroke:#181818;stroke-width:0.5;"/><text fill="#000000" font-family="sans-serif" font-size="13" lengthAdjust="spacing" textLength="79" x="356" y="300.2305">Listeners for</text><text fill="#000000" font-family="sans-serif" font-size="13" lengthAdjust="spacing" textLength="147" x="356" y="315.541">Block Notifications and</text><text fill="#000000" font-family="sans-serif" font-size="13" lengthAdjust="spacing" textLength="119" x="356" y="330.8516">Subtree Processing</text><!--SRC=[XO_FJiCm3CRlUGfhTrwW1oGsBeW98UswYvivmrgngzX3Oa_FbbBQK2IE-VBx_hZ7x1ovHt5OxSwjPo9uCAFtjljS0HfyYw6VankLnCTpHcSLs2eUA1Tw-AZXTQVn5D-G1NQKFpXIGIUvnfyndR0YYnB2EE_kVXpLb6gerapOdAi7FwBNUTEM1fw4dR7Z2y5oUPX9LS4IlGQPermzywPoItFpMSpS4hWE6cpPd8IoXU5TnG-VDxWKmOiw9uxbd7yCO_bhraXcBCTVxY3g11qb1qtZm9yra3JlvOzMG3diPPd-1G00]--></g></svg>
