<svg contentStyleType="text/css" height="683" preserveAspectRatio="none" viewBox="0 0 609 683" width="609" xmlns="http://www.w3.org/2000/svg" zoomAndPan="magnify"><path d="m0 0h609v683h-609z" fill="#f0f8ff"/><text fill="#333" font-family="sans-serif" font-size="14" font-weight="bold" lengthAdjust="spacing" textLength="366.7549" x="122.4185" y="28.5352">UTXO Persister - Service Initialization and Starting</text><path d="m95.623 113.2871h10v216.8184h-10z" fill="#fff" stroke="#181818"/><path d="m95.623 374.416h10v233.1738h-10z" fill="#fff" stroke="#181818"/><path d="m10 162.5977h592.5918v90.8867h-592.5918z" fill="none" stroke="#000" stroke-width="1.5"/><path d="m10 394.416h456.8789v75.9316h-456.8789z" fill="none" stroke="#000" stroke-width="1.5"/><path d="m10 484.3477h456.8789v46.6211h-456.8789z" fill="none" stroke="#000" stroke-width="1.5"/><g stroke-width=".5"><path d="m100 73.9766v558.6132" stroke="#181818" stroke-dasharray="5 5"/><path d="m271.1787 73.9766v558.6132" stroke="#181818" stroke-dasharray="5 5"/><path d="m391.5654 73.9766v558.6132" stroke="#181818" stroke-dasharray="5 5"/><path d="m528.8789 73.9766v558.6132" stroke="#181818" stroke-dasharray="5 5"/><rect fill="#ddd" height="30.4883" rx="2.5" stroke="#666" width="161.2461" x="20" y="42.4883"/></g><text fill="#333" font-family="sans-serif" font-size="14" lengthAdjust="spacing" textLength="147.2461" x="27" y="63.0234">UTXO Persister Server</text><rect fill="#ddd" height="30.4883" rx="2.5" stroke="#666" stroke-width=".5" width="161.2461" x="20" y="631.5898"/><text fill="#333" font-family="sans-serif" font-size="14" lengthAdjust="spacing" textLength="147.2461" x="27" y="652.125">UTXO Persister Server</text><rect fill="#ddd" height="30.4883" rx="2.5" stroke="#666" stroke-width=".5" width="89.3867" x="227.1787" y="42.4883"/><text fill="#333" font-family="sans-serif" font-size="14" lengthAdjust="spacing" textLength="75.3867" x="234.1787" y="63.0234">Block Store</text><rect fill="#ddd" height="30.4883" rx="2.5" stroke="#666" stroke-width=".5" width="89.3867" x="227.1787" y="631.5898"/><text fill="#333" font-family="sans-serif" font-size="14" lengthAdjust="spacing" textLength="75.3867" x="234.1787" y="652.125">Block Store</text><rect fill="#ddd" height="30.4883" rx="2.5" stroke="#666" stroke-width=".5" width="130.3135" x="326.5654" y="42.4883"/><text fill="#333" font-family="sans-serif" font-size="14" lengthAdjust="spacing" textLength="116.3135" x="333.5654" y="63.0234">Blockchain Client</text><rect fill="#ddd" height="30.4883" rx="2.5" stroke="#666" stroke-width=".5" width="130.3135" x="326.5654" y="631.5898"/><text fill="#333" font-family="sans-serif" font-size="14" lengthAdjust="spacing" textLength="116.3135" x="333.5654" y="652.125">Blockchain Client</text><rect fill="#ddd" height="30.4883" rx="2.5" stroke="#666" stroke-width=".5" width="125.7129" x="466.8789" y="42.4883"/><text fill="#333" font-family="sans-serif" font-size="14" lengthAdjust="spacing" textLength="111.7129" x="473.8789" y="63.0234">Blockchain Store</text><rect fill="#ddd" height="30.4883" rx="2.5" stroke="#666" stroke-width=".5" width="125.7129" x="466.8789" y="631.5898"/><text fill="#333" font-family="sans-serif" font-size="14" lengthAdjust="spacing" textLength="111.7129" x="473.8789" y="652.125">Blockchain Store</text><path d="m95.623 113.2871h10v216.8184h-10z" fill="#fff" stroke="#181818"/><path d="m95.623 374.416h10v233.1738h-10z" fill="#fff" stroke="#181818"/><path d="m100.623 100.2871h47" stroke="#666"/><path d="m147.623 100.2871v13" stroke="#666"/><path d="m106.623 113.2871h41" stroke="#666"/><path d="m116.623 109.2871-10 4 10 4-4-4z" fill="#666" stroke="#666"/><text fill="#333" font-family="sans-serif" font-size="13" lengthAdjust="spacing" textLength="35.3184" x="112.623" y="95.5449">New()</text><path d="m259.8721 143.5977 10 4-10 4 4-4z" fill="#666" stroke="#666"/><path d="m105.623 147.5977h160.2491" stroke="#666"/><text fill="#333" font-family="sans-serif" font-size="13" lengthAdjust="spacing" textLength="53.5806" x="112.623" y="142.8555">Initialize</text><path d="m10 162.5977h62.1387v7.3105l-10 10h-52.1387z" fill="#eee" stroke="#000" stroke-width="1.5"/><path d="m10 162.5977h592.5918v90.8867h-592.5918z" fill="none" stroke="#000" stroke-width="1.5"/><text fill="#333" font-family="sans-serif" font-size="13" font-weight="bold" lengthAdjust="spacing" textLength="17.1387" x="25" y="176.166">alt</text><text fill="#333" font-family="sans-serif" font-size="11" font-weight="bold" lengthAdjust="spacing" textLength="86.6304" x="87.1387" y="175.2324">[indirect mode]</text><path d="m379.7222 197.2188 10 4-10 4 4-4z" fill="#666" stroke="#666"/><path d="m105.623 201.2188h280.0992" stroke="#666"/><text fill="#333" font-family="sans-serif" font-size="13" lengthAdjust="spacing" textLength="53.5806" x="112.623" y="196.4766">Initialize</text><path d="m10 210.2188h592.5918" stroke="#000" stroke-dasharray="2 2"/><text fill="#333" font-family="sans-serif" font-size="11" font-weight="bold" lengthAdjust="spacing" textLength="75.8291" x="15" y="220.8535">[direct mode]</text><path d="m517.7354 241.4844 10 4-10 4 4-4z" fill="#666" stroke="#666"/><path d="m105.623 245.4844h418.1124" stroke="#666"/><text fill="#333" font-family="sans-serif" font-size="13" lengthAdjust="spacing" textLength="53.5806" x="112.623" y="240.7422">Initialize</text><path d="m105.623 281.7949h42" stroke="#666"/><path d="m147.623 281.7949v13" stroke="#666"/><path d="m106.623 294.7949h41" stroke="#666"/><path d="m116.623 290.7949-10 4 10 4-4-4z" fill="#666" stroke="#666"/><text fill="#333" font-family="sans-serif" font-size="13" lengthAdjust="spacing" textLength="28.8882" x="112.623" y="277.0527">Init()</text><path d="m105.623 329.1055h42" stroke="#666"/><path d="m147.623 329.1055v13" stroke="#666"/><path d="m100.623 342.1055h47" stroke="#666"/><path d="m110.623 338.1055-10 4 10 4-4-4z" fill="#666" stroke="#666"/><text fill="#333" font-family="sans-serif" font-size="13" lengthAdjust="spacing" textLength="103.5684" x="112.623" y="324.3633">readLastHeight()</text><path d="m100.623 361.416h47" stroke="#666"/><path d="m147.623 361.416v13" stroke="#666"/><path d="m106.623 374.416h41" stroke="#666"/><path d="m116.623 370.416-10 4 10 4-4-4z" fill="#666" stroke="#666"/><text fill="#333" font-family="sans-serif" font-size="13" lengthAdjust="spacing" textLength="37.6797" x="112.623" y="356.6738">Start()</text><path d="m10 394.416h62.1387v7.3106l-10 10h-52.1387z" fill="#eee" stroke="#000" stroke-width="1.5"/><path d="m10 394.416h456.8789v75.9316h-456.8789z" fill="none" stroke="#000" stroke-width="1.5"/><text fill="#333" font-family="sans-serif" font-size="13" font-weight="bold" lengthAdjust="spacing" textLength="17.1387" x="25" y="407.9844">alt</text><text fill="#333" font-family="sans-serif" font-size="11" font-weight="bold" lengthAdjust="spacing" textLength="149.4185" x="87.1387" y="407.0508">[fsm_state_restore is true]</text><path d="m379.7222 429.0371 10 4-10 4 4-4z" fill="#666" stroke="#666"/><path d="m105.623 433.0371h280.0992" stroke="#666"/><text fill="#333" font-family="sans-serif" font-size="13" lengthAdjust="spacing" textLength="55.9546" x="112.623" y="428.2949">Restore()</text><path d="m379.7222 458.3477 10 4-10 4 4-4z" fill="#666" stroke="#666"/><path d="m105.623 462.3477h280.0992" stroke="#666"/><text fill="#333" font-family="sans-serif" font-size="13" lengthAdjust="spacing" textLength="240.0557" x="112.623" y="457.6055">WaitForFSMtoTransitionToGivenState()</text><path d="m10 484.3477h62.1387v7.3105l-10 10h-52.1387z" fill="#eee" stroke="#000" stroke-width="1.5"/><path d="m10 484.3477h456.8789v46.6211h-456.8789z" fill="none" stroke="#000" stroke-width="1.5"/><text fill="#333" font-family="sans-serif" font-size="13" font-weight="bold" lengthAdjust="spacing" textLength="17.1387" x="25" y="497.916">alt</text><text fill="#333" font-family="sans-serif" font-size="11" font-weight="bold" lengthAdjust="spacing" textLength="155.7241" x="87.1387" y="496.9824">[BlockchainClient is not nil]</text><path d="m379.7222 518.9688 10 4-10 4 4-4z" fill="#666" stroke="#666"/><path d="m105.623 522.9688h280.0992" stroke="#666"/><text fill="#333" font-family="sans-serif" font-size="13" lengthAdjust="spacing" textLength="69.4941" x="112.623" y="518.2266">Subscribe()</text><path d="m105.623 559.2793h42" stroke="#666"/><path d="m147.623 559.2793v13" stroke="#666"/><path d="m106.623 572.2793h41" stroke="#666"/><path d="m116.623 568.2793-10 4 10 4-4-4z" fill="#666" stroke="#666"/><text fill="#333" font-family="sans-serif" font-size="13" lengthAdjust="spacing" textLength="105.9805" x="112.623" y="554.5371">trigger("startup")</text><path d="m105.623 606.5898h42" stroke="#666" stroke-dasharray="2 2"/><path d="m147.623 606.5898v13" stroke="#666" stroke-dasharray="2 2"/><path d="m100.623 619.5898h47" stroke="#666" stroke-dasharray="2 2"/><path d="m110.623 615.5898-10 4 10 4-4-4z" fill="#666" stroke="#666"/><text fill="#333" font-family="sans-serif" font-size="13" lengthAdjust="spacing" textLength="137.249" x="112.623" y="601.8477">Enter processing loop</text><text fill="#333" font-family="sans-serif" font-size="10" lengthAdjust="spacing" textLength="155.4346" y="673.7461">Last Modified On: 24-Feb-2025</text></svg>
