<svg xmlns="http://www.w3.org/2000/svg" xmlns:xlink="http://www.w3.org/1999/xlink" contentStyleType="text/css" height="683px" preserveAspectRatio="none" style="width:609px;height:683px;background:#F0F8FF;" version="1.1" viewBox="0 0 609 683" width="609px" zoomAndPan="magnify"><title>UTXO Persister - Service Initialization and Starting</title><defs/><g><rect fill="#F0F8FF" height="683" style="stroke:none;stroke-width:1.0;" width="609" x="0" y="0"/><text fill="#333333" font-family="sans-serif" font-size="14" font-weight="bold" lengthAdjust="spacing" textLength="366.7549" x="122.4185" y="28.5352">UTXO Persister - Service Initialization and Starting</text><rect fill="#FFFFFF" height="216.8184" style="stroke:#181818;stroke-width:1.0;" width="10" x="95.623" y="113.2871"/><rect fill="#FFFFFF" height="233.1738" style="stroke:#181818;stroke-width:1.0;" width="10" x="95.623" y="374.416"/><rect fill="none" height="90.8867" style="stroke:#000000;stroke-width:1.5;" width="592.5918" x="10" y="162.5977"/><rect fill="none" height="75.9316" style="stroke:#000000;stroke-width:1.5;" width="456.8789" x="10" y="394.416"/><rect fill="none" height="46.6211" style="stroke:#000000;stroke-width:1.5;" width="456.8789" x="10" y="484.3477"/><line style="stroke:#181818;stroke-width:0.5;stroke-dasharray:5.0,5.0;" x1="100" x2="100" y1="73.9766" y2="632.5898"/><line style="stroke:#181818;stroke-width:0.5;stroke-dasharray:5.0,5.0;" x1="271.1787" x2="271.1787" y1="73.9766" y2="632.5898"/><line style="stroke:#181818;stroke-width:0.5;stroke-dasharray:5.0,5.0;" x1="391.5654" x2="391.5654" y1="73.9766" y2="632.5898"/><line style="stroke:#181818;stroke-width:0.5;stroke-dasharray:5.0,5.0;" x1="528.8789" x2="528.8789" y1="73.9766" y2="632.5898"/><rect fill="#DDDDDD" height="30.4883" rx="2.5" ry="2.5" style="stroke:#666666;stroke-width:0.5;" width="161.2461" x="20" y="42.4883"/><text fill="#333333" font-family="sans-serif" font-size="14" lengthAdjust="spacing" textLength="147.2461" x="27" y="63.0234">UTXO Persister Server</text><rect fill="#DDDDDD" height="30.4883" rx="2.5" ry="2.5" style="stroke:#666666;stroke-width:0.5;" width="161.2461" x="20" y="631.5898"/><text fill="#333333" font-family="sans-serif" font-size="14" lengthAdjust="spacing" textLength="147.2461" x="27" y="652.125">UTXO Persister Server</text><rect fill="#DDDDDD" height="30.4883" rx="2.5" ry="2.5" style="stroke:#666666;stroke-width:0.5;" width="89.3867" x="227.1787" y="42.4883"/><text fill="#333333" font-family="sans-serif" font-size="14" lengthAdjust="spacing" textLength="75.3867" x="234.1787" y="63.0234">Block Store</text><rect fill="#DDDDDD" height="30.4883" rx="2.5" ry="2.5" style="stroke:#666666;stroke-width:0.5;" width="89.3867" x="227.1787" y="631.5898"/><text fill="#333333" font-family="sans-serif" font-size="14" lengthAdjust="spacing" textLength="75.3867" x="234.1787" y="652.125">Block Store</text><rect fill="#DDDDDD" height="30.4883" rx="2.5" ry="2.5" style="stroke:#666666;stroke-width:0.5;" width="130.3135" x="326.5654" y="42.4883"/><text fill="#333333" font-family="sans-serif" font-size="14" lengthAdjust="spacing" textLength="116.3135" x="333.5654" y="63.0234">Blockchain Client</text><rect fill="#DDDDDD" height="30.4883" rx="2.5" ry="2.5" style="stroke:#666666;stroke-width:0.5;" width="130.3135" x="326.5654" y="631.5898"/><text fill="#333333" font-family="sans-serif" font-size="14" lengthAdjust="spacing" textLength="116.3135" x="333.5654" y="652.125">Blockchain Client</text><rect fill="#DDDDDD" height="30.4883" rx="2.5" ry="2.5" style="stroke:#666666;stroke-width:0.5;" width="125.7129" x="466.8789" y="42.4883"/><text fill="#333333" font-family="sans-serif" font-size="14" lengthAdjust="spacing" textLength="111.7129" x="473.8789" y="63.0234">Blockchain Store</text><rect fill="#DDDDDD" height="30.4883" rx="2.5" ry="2.5" style="stroke:#666666;stroke-width:0.5;" width="125.7129" x="466.8789" y="631.5898"/><text fill="#333333" font-family="sans-serif" font-size="14" lengthAdjust="spacing" textLength="111.7129" x="473.8789" y="652.125">Blockchain Store</text><rect fill="#FFFFFF" height="216.8184" style="stroke:#181818;stroke-width:1.0;" width="10" x="95.623" y="113.2871"/><rect fill="#FFFFFF" height="233.1738" style="stroke:#181818;stroke-width:1.0;" width="10" x="95.623" y="374.416"/><line style="stroke:#666666;stroke-width:1.0;" x1="100.623" x2="147.623" y1="100.2871" y2="100.2871"/><line style="stroke:#666666;stroke-width:1.0;" x1="147.623" x2="147.623" y1="100.2871" y2="113.2871"/><line style="stroke:#666666;stroke-width:1.0;" x1="106.623" x2="147.623" y1="113.2871" y2="113.2871"/><polygon fill="#666666" points="116.623,109.2871,106.623,113.2871,116.623,117.2871,112.623,113.2871" style="stroke:#666666;stroke-width:1.0;"/><text fill="#333333" font-family="sans-serif" font-size="13" lengthAdjust="spacing" textLength="35.3184" x="112.623" y="95.5449">New()</text><polygon fill="#666666" points="259.8721,143.5977,269.8721,147.5977,259.8721,151.5977,263.8721,147.5977" style="stroke:#666666;stroke-width:1.0;"/><line style="stroke:#666666;stroke-width:1.0;" x1="105.623" x2="265.8721" y1="147.5977" y2="147.5977"/><text fill="#333333" font-family="sans-serif" font-size="13" lengthAdjust="spacing" textLength="53.5806" x="112.623" y="142.8555">Initialize</text><path d="M10,162.5977 L72.1387,162.5977 L72.1387,169.9082 L62.1387,179.9082 L10,179.9082 L10,162.5977 " fill="#EEEEEE" style="stroke:#000000;stroke-width:1.5;"/><rect fill="none" height="90.8867" style="stroke:#000000;stroke-width:1.5;" width="592.5918" x="10" y="162.5977"/><text fill="#333333" font-family="sans-serif" font-size="13" font-weight="bold" lengthAdjust="spacing" textLength="17.1387" x="25" y="176.166">alt</text><text fill="#333333" font-family="sans-serif" font-size="11" font-weight="bold" lengthAdjust="spacing" textLength="86.6304" x="87.1387" y="175.2324">[indirect mode]</text><polygon fill="#666666" points="379.7222,197.2188,389.7222,201.2188,379.7222,205.2188,383.7222,201.2188" style="stroke:#666666;stroke-width:1.0;"/><line style="stroke:#666666;stroke-width:1.0;" x1="105.623" x2="385.7222" y1="201.2188" y2="201.2188"/><text fill="#333333" font-family="sans-serif" font-size="13" lengthAdjust="spacing" textLength="53.5806" x="112.623" y="196.4766">Initialize</text><line style="stroke:#000000;stroke-width:1.0;stroke-dasharray:2.0,2.0;" x1="10" x2="602.5918" y1="210.2188" y2="210.2188"/><text fill="#333333" font-family="sans-serif" font-size="11" font-weight="bold" lengthAdjust="spacing" textLength="75.8291" x="15" y="220.8535">[direct mode]</text><polygon fill="#666666" points="517.7354,241.4844,527.7354,245.4844,517.7354,249.4844,521.7354,245.4844" style="stroke:#666666;stroke-width:1.0;"/><line style="stroke:#666666;stroke-width:1.0;" x1="105.623" x2="523.7354" y1="245.4844" y2="245.4844"/><text fill="#333333" font-family="sans-serif" font-size="13" lengthAdjust="spacing" textLength="53.5806" x="112.623" y="240.7422">Initialize</text><line style="stroke:#666666;stroke-width:1.0;" x1="105.623" x2="147.623" y1="281.7949" y2="281.7949"/><line style="stroke:#666666;stroke-width:1.0;" x1="147.623" x2="147.623" y1="281.7949" y2="294.7949"/><line style="stroke:#666666;stroke-width:1.0;" x1="106.623" x2="147.623" y1="294.7949" y2="294.7949"/><polygon fill="#666666" points="116.623,290.7949,106.623,294.7949,116.623,298.7949,112.623,294.7949" style="stroke:#666666;stroke-width:1.0;"/><text fill="#333333" font-family="sans-serif" font-size="13" lengthAdjust="spacing" textLength="28.8882" x="112.623" y="277.0527">Init()</text><line style="stroke:#666666;stroke-width:1.0;" x1="105.623" x2="147.623" y1="329.1055" y2="329.1055"/><line style="stroke:#666666;stroke-width:1.0;" x1="147.623" x2="147.623" y1="329.1055" y2="342.1055"/><line style="stroke:#666666;stroke-width:1.0;" x1="100.623" x2="147.623" y1="342.1055" y2="342.1055"/><polygon fill="#666666" points="110.623,338.1055,100.623,342.1055,110.623,346.1055,106.623,342.1055" style="stroke:#666666;stroke-width:1.0;"/><text fill="#333333" font-family="sans-serif" font-size="13" lengthAdjust="spacing" textLength="103.5684" x="112.623" y="324.3633">readLastHeight()</text><line style="stroke:#666666;stroke-width:1.0;" x1="100.623" x2="147.623" y1="361.416" y2="361.416"/><line style="stroke:#666666;stroke-width:1.0;" x1="147.623" x2="147.623" y1="361.416" y2="374.416"/><line style="stroke:#666666;stroke-width:1.0;" x1="106.623" x2="147.623" y1="374.416" y2="374.416"/><polygon fill="#666666" points="116.623,370.416,106.623,374.416,116.623,378.416,112.623,374.416" style="stroke:#666666;stroke-width:1.0;"/><text fill="#333333" font-family="sans-serif" font-size="13" lengthAdjust="spacing" textLength="37.6797" x="112.623" y="356.6738">Start()</text><path d="M10,394.416 L72.1387,394.416 L72.1387,401.7266 L62.1387,411.7266 L10,411.7266 L10,394.416 " fill="#EEEEEE" style="stroke:#000000;stroke-width:1.5;"/><rect fill="none" height="75.9316" style="stroke:#000000;stroke-width:1.5;" width="456.8789" x="10" y="394.416"/><text fill="#333333" font-family="sans-serif" font-size="13" font-weight="bold" lengthAdjust="spacing" textLength="17.1387" x="25" y="407.9844">alt</text><text fill="#333333" font-family="sans-serif" font-size="11" font-weight="bold" lengthAdjust="spacing" textLength="149.4185" x="87.1387" y="407.0508">[fsm_state_restore is true]</text><polygon fill="#666666" points="379.7222,429.0371,389.7222,433.0371,379.7222,437.0371,383.7222,433.0371" style="stroke:#666666;stroke-width:1.0;"/><line style="stroke:#666666;stroke-width:1.0;" x1="105.623" x2="385.7222" y1="433.0371" y2="433.0371"/><text fill="#333333" font-family="sans-serif" font-size="13" lengthAdjust="spacing" textLength="55.9546" x="112.623" y="428.2949">Restore()</text><polygon fill="#666666" points="379.7222,458.3477,389.7222,462.3477,379.7222,466.3477,383.7222,462.3477" style="stroke:#666666;stroke-width:1.0;"/><line style="stroke:#666666;stroke-width:1.0;" x1="105.623" x2="385.7222" y1="462.3477" y2="462.3477"/><text fill="#333333" font-family="sans-serif" font-size="13" lengthAdjust="spacing" textLength="240.0557" x="112.623" y="457.6055">WaitForFSMtoTransitionToGivenState()</text><path d="M10,484.3477 L72.1387,484.3477 L72.1387,491.6582 L62.1387,501.6582 L10,501.6582 L10,484.3477 " fill="#EEEEEE" style="stroke:#000000;stroke-width:1.5;"/><rect fill="none" height="46.6211" style="stroke:#000000;stroke-width:1.5;" width="456.8789" x="10" y="484.3477"/><text fill="#333333" font-family="sans-serif" font-size="13" font-weight="bold" lengthAdjust="spacing" textLength="17.1387" x="25" y="497.916">alt</text><text fill="#333333" font-family="sans-serif" font-size="11" font-weight="bold" lengthAdjust="spacing" textLength="155.7241" x="87.1387" y="496.9824">[BlockchainClient is not nil]</text><polygon fill="#666666" points="379.7222,518.9688,389.7222,522.9688,379.7222,526.9688,383.7222,522.9688" style="stroke:#666666;stroke-width:1.0;"/><line style="stroke:#666666;stroke-width:1.0;" x1="105.623" x2="385.7222" y1="522.9688" y2="522.9688"/><text fill="#333333" font-family="sans-serif" font-size="13" lengthAdjust="spacing" textLength="69.4941" x="112.623" y="518.2266">Subscribe()</text><line style="stroke:#666666;stroke-width:1.0;" x1="105.623" x2="147.623" y1="559.2793" y2="559.2793"/><line style="stroke:#666666;stroke-width:1.0;" x1="147.623" x2="147.623" y1="559.2793" y2="572.2793"/><line style="stroke:#666666;stroke-width:1.0;" x1="106.623" x2="147.623" y1="572.2793" y2="572.2793"/><polygon fill="#666666" points="116.623,568.2793,106.623,572.2793,116.623,576.2793,112.623,572.2793" style="stroke:#666666;stroke-width:1.0;"/><text fill="#333333" font-family="sans-serif" font-size="13" lengthAdjust="spacing" textLength="105.9805" x="112.623" y="554.5371">trigger("startup")</text><line style="stroke:#666666;stroke-width:1.0;stroke-dasharray:2.0,2.0;" x1="105.623" x2="147.623" y1="606.5898" y2="606.5898"/><line style="stroke:#666666;stroke-width:1.0;stroke-dasharray:2.0,2.0;" x1="147.623" x2="147.623" y1="606.5898" y2="619.5898"/><line style="stroke:#666666;stroke-width:1.0;stroke-dasharray:2.0,2.0;" x1="100.623" x2="147.623" y1="619.5898" y2="619.5898"/><polygon fill="#666666" points="110.623,615.5898,100.623,619.5898,110.623,623.5898,106.623,619.5898" style="stroke:#666666;stroke-width:1.0;"/><text fill="#333333" font-family="sans-serif" font-size="13" lengthAdjust="spacing" textLength="137.249" x="112.623" y="601.8477">Enter processing loop</text><text fill="#333333" font-family="sans-serif" font-size="10" lengthAdjust="spacing" textLength="155.4346" x="0" y="673.7461">Last Modified On: 24-Feb-2025</text><!--SRC=[fLF1RXCn4BtxAqQB4EqX4X8IGZrmQCi24g681C6jSkpPxIYElHfxKnN4lpDsGh995rg13wlr-CrxRzwkuv9yfrclOA7DikNGUtiHN61uKZ-lNzMrYZk4nKRtBjN1fotaHLa3Y6OEjzl3bsKfzGmkiI6Fi0XiaICqSggT0tIuGf_Ye5-sbExWXm8uB-X3BgaUkxmiI_rK0nOZ3Zcu_wMHPo93dVRftwYKacaSmfVvjolu9ADJJCWmWHdocWp2Uq-9jAFlEb7meBs5MSgglbLgA5yTKMG2v0fqtBuUeizTC4kX2em5K_PbEu8pDveyN3YIyFVeKjqK_zXp952A6nMrSGMJrrj_S0OVyVRaL6cJQAqJ_lOzGEvT2deN3Ihj4f2tn6WIh895IHtWg6_Wzx0RNKHuJFE8CdexEag6o2mZ9upQVj0nlKDgRp96MVpBoBk-yjd7uid3Dt5r7PDKhnbZSKaH4lUF2EBpfa6O7uH-rIHtc-lPD8KvQnyf_vJpy9RMAE68lB2KHBAdUmHYoOS4djp3KhD-4GtJOiSuaaXYQblaaohcQFgkskSzXBtn-Jvq70p6AFS6N0ZTQEeE6uaoX8pFdmYcmL93QE7Ady5JcmUih9rCfzF9dImH_0K0]--></g></svg>
