<svg xmlns="http://www.w3.org/2000/svg" xmlns:xlink="http://www.w3.org/1999/xlink" contentStyleType="text/css" height="1150px" preserveAspectRatio="none" style="width:1391px;height:1150px;background:#F0F8FF;" version="1.1" viewBox="0 0 1391 1150" width="1391px" zoomAndPan="magnify"><title>UTXO Persister - Block Processing</title><defs/><g><rect fill="#F0F8FF" height="1150" style="stroke:none;stroke-width:1.0;" width="1391" x="0" y="0"/><text fill="#333333" font-family="sans-serif" font-size="14" font-weight="bold" lengthAdjust="spacing" textLength="248.9922" x="572.187" y="28.5352">UTXO Persister - Block Processing</text><rect fill="#FFFFFF" height="1004.8711" style="stroke:#181818;stroke-width:1.0;" width="10" x="105.623" y="83.9766"/><rect fill="#FFFFFF" height="130.2422" style="stroke:#181818;stroke-width:1.0;" width="10" x="672.1934" y="814.3633"/><rect fill="#FFFFFF" height="161.5527" style="stroke:#181818;stroke-width:1.0;" width="10" x="1135.6245" y="623.5"/><rect fill="none" height="90.8867" style="stroke:#000000;stroke-width:1.5;" width="620.8091" x="20" y="175.5977"/><rect fill="none" height="759.0527" style="stroke:#000000;stroke-width:1.5;" width="1374.3662" x="10" y="322.7949"/><rect fill="none" height="90.8867" style="stroke:#000000;stroke-width:1.5;" width="620.8091" x="20" y="419.6816"/><rect fill="none" height="118.2422" style="stroke:#000000;stroke-width:1.5;" width="534.2964" x="840.0698" y="638.5"/><line style="stroke:#181818;stroke-width:0.5;stroke-dasharray:5.0,5.0;" x1="110" x2="110" y1="73.9766" y2="1098.8477"/><line style="stroke:#181818;stroke-width:0.5;stroke-dasharray:5.0,5.0;" x1="429.7827" x2="429.7827" y1="73.9766" y2="1098.8477"/><line style="stroke:#181818;stroke-width:0.5;stroke-dasharray:5.0,5.0;" x1="567.0962" x2="567.0962" y1="73.9766" y2="1098.8477"/><line style="stroke:#181818;stroke-width:0.5;stroke-dasharray:5.0,5.0;" x1="676.8091" x2="676.8091" y1="73.9766" y2="1098.8477"/><line style="stroke:#181818;stroke-width:0.5;stroke-dasharray:5.0,5.0;" x1="894.0698" x2="894.0698" y1="73.9766" y2="1098.8477"/><line style="stroke:#181818;stroke-width:0.5;stroke-dasharray:5.0,5.0;" x1="1140.4263" x2="1140.4263" y1="73.9766" y2="1098.8477"/><rect fill="#DDDDDD" height="30.4883" rx="2.5" ry="2.5" style="stroke:#666666;stroke-width:0.5;" width="161.2461" x="30" y="42.4883"/><text fill="#333333" font-family="sans-serif" font-size="14" lengthAdjust="spacing" textLength="147.2461" x="37" y="63.0234">UTXO Persister Server</text><rect fill="#DDDDDD" height="30.4883" rx="2.5" ry="2.5" style="stroke:#666666;stroke-width:0.5;" width="161.2461" x="30" y="1097.8477"/><text fill="#333333" font-family="sans-serif" font-size="14" lengthAdjust="spacing" textLength="147.2461" x="37" y="1118.3828">UTXO Persister Server</text><rect fill="#DDDDDD" height="30.4883" rx="2.5" ry="2.5" style="stroke:#666666;stroke-width:0.5;" width="130.3135" x="364.7827" y="42.4883"/><text fill="#333333" font-family="sans-serif" font-size="14" lengthAdjust="spacing" textLength="116.3135" x="371.7827" y="63.0234">Blockchain Client</text><rect fill="#DDDDDD" height="30.4883" rx="2.5" ry="2.5" style="stroke:#666666;stroke-width:0.5;" width="130.3135" x="364.7827" y="1097.8477"/><text fill="#333333" font-family="sans-serif" font-size="14" lengthAdjust="spacing" textLength="116.3135" x="371.7827" y="1118.3828">Blockchain Client</text><rect fill="#DDDDDD" height="30.4883" rx="2.5" ry="2.5" style="stroke:#666666;stroke-width:0.5;" width="125.7129" x="505.0962" y="42.4883"/><text fill="#333333" font-family="sans-serif" font-size="14" lengthAdjust="spacing" textLength="111.7129" x="512.0962" y="63.0234">Blockchain Store</text><rect fill="#DDDDDD" height="30.4883" rx="2.5" ry="2.5" style="stroke:#666666;stroke-width:0.5;" width="125.7129" x="505.0962" y="1097.8477"/><text fill="#333333" font-family="sans-serif" font-size="14" lengthAdjust="spacing" textLength="111.7129" x="512.0962" y="1118.3828">Blockchain Store</text><rect fill="#DDDDDD" height="30.4883" rx="2.5" ry="2.5" style="stroke:#666666;stroke-width:0.5;" width="72.7686" x="640.8091" y="42.4883"/><text fill="#333333" font-family="sans-serif" font-size="14" lengthAdjust="spacing" textLength="58.7686" x="647.8091" y="63.0234">UTXOSet</text><rect fill="#DDDDDD" height="30.4883" rx="2.5" ry="2.5" style="stroke:#666666;stroke-width:0.5;" width="72.7686" x="640.8091" y="1097.8477"/><text fill="#333333" font-family="sans-serif" font-size="14" lengthAdjust="spacing" textLength="58.7686" x="647.8091" y="1118.3828">UTXOSet</text><rect fill="#DDDDDD" height="30.4883" rx="2.5" ry="2.5" style="stroke:#666666;stroke-width:0.5;" width="89.3867" x="850.0698" y="42.4883"/><text fill="#333333" font-family="sans-serif" font-size="14" lengthAdjust="spacing" textLength="75.3867" x="857.0698" y="63.0234">Block Store</text><rect fill="#DDDDDD" height="30.4883" rx="2.5" ry="2.5" style="stroke:#666666;stroke-width:0.5;" width="89.3867" x="850.0698" y="1097.8477"/><text fill="#333333" font-family="sans-serif" font-size="14" lengthAdjust="spacing" textLength="75.3867" x="857.0698" y="1118.3828">Block Store</text><rect fill="#DDDDDD" height="30.4883" rx="2.5" ry="2.5" style="stroke:#666666;stroke-width:0.5;" width="98.3965" x="1091.4263" y="42.4883"/><text fill="#333333" font-family="sans-serif" font-size="14" lengthAdjust="spacing" textLength="84.3965" x="1098.4263" y="63.0234">consolidator</text><rect fill="#DDDDDD" height="30.4883" rx="2.5" ry="2.5" style="stroke:#666666;stroke-width:0.5;" width="98.3965" x="1091.4263" y="1097.8477"/><text fill="#333333" font-family="sans-serif" font-size="14" lengthAdjust="spacing" textLength="84.3965" x="1098.4263" y="1118.3828">consolidator</text><rect fill="#FFFFFF" height="1004.8711" style="stroke:#181818;stroke-width:1.0;" width="10" x="105.623" y="83.9766"/><rect fill="#FFFFFF" height="130.2422" style="stroke:#181818;stroke-width:1.0;" width="10" x="672.1934" y="814.3633"/><rect fill="#FFFFFF" height="161.5527" style="stroke:#181818;stroke-width:1.0;" width="10" x="1135.6245" y="623.5"/><line style="stroke:#666666;stroke-width:1.0;" x1="115.623" x2="157.623" y1="105.2871" y2="105.2871"/><line style="stroke:#666666;stroke-width:1.0;" x1="157.623" x2="157.623" y1="105.2871" y2="118.2871"/><line style="stroke:#666666;stroke-width:1.0;" x1="116.623" x2="157.623" y1="118.2871" y2="118.2871"/><polygon fill="#666666" points="126.623,114.2871,116.623,118.2871,126.623,122.2871,122.623,118.2871" style="stroke:#666666;stroke-width:1.0;"/><text fill="#333333" font-family="sans-serif" font-size="13" lengthAdjust="spacing" textLength="93.0693" x="122.623" y="100.5449">trigger(source)</text><line style="stroke:#666666;stroke-width:1.0;" x1="115.623" x2="157.623" y1="147.5977" y2="147.5977"/><line style="stroke:#666666;stroke-width:1.0;" x1="157.623" x2="157.623" y1="147.5977" y2="160.5977"/><line style="stroke:#666666;stroke-width:1.0;" x1="116.623" x2="157.623" y1="160.5977" y2="160.5977"/><polygon fill="#666666" points="126.623,156.5977,116.623,160.5977,126.623,164.5977,122.623,160.5977" style="stroke:#666666;stroke-width:1.0;"/><text fill="#333333" font-family="sans-serif" font-size="13" lengthAdjust="spacing" textLength="120.2563" x="122.623" y="142.8555">processNextBlock()</text><path d="M20,175.5977 L82.1387,175.5977 L82.1387,182.9082 L72.1387,192.9082 L20,192.9082 L20,175.5977 " fill="#EEEEEE" style="stroke:#000000;stroke-width:1.5;"/><rect fill="none" height="90.8867" style="stroke:#000000;stroke-width:1.5;" width="620.8091" x="20" y="175.5977"/><text fill="#333333" font-family="sans-serif" font-size="13" font-weight="bold" lengthAdjust="spacing" textLength="17.1387" x="35" y="189.166">alt</text><text fill="#333333" font-family="sans-serif" font-size="11" font-weight="bold" lengthAdjust="spacing" textLength="133.187" x="97.1387" y="188.2324">[using BlockchainStore]</text><polygon fill="#666666" points="555.9526,210.2188,565.9526,214.2188,555.9526,218.2188,559.9526,214.2188" style="stroke:#666666;stroke-width:1.0;"/><line style="stroke:#666666;stroke-width:1.0;" x1="115.623" x2="561.9526" y1="214.2188" y2="214.2188"/><text fill="#333333" font-family="sans-serif" font-size="13" lengthAdjust="spacing" textLength="134.3608" x="122.623" y="209.4766">GetBestBlockHeader()</text><line style="stroke:#000000;stroke-width:1.0;stroke-dasharray:2.0,2.0;" x1="20" x2="640.8091" y1="223.2188" y2="223.2188"/><text fill="#333333" font-family="sans-serif" font-size="11" font-weight="bold" lengthAdjust="spacing" textLength="137.0918" x="25" y="233.8535">[using BlockchainClient]</text><polygon fill="#666666" points="417.9395,254.4844,427.9395,258.4844,417.9395,262.4844,421.9395,258.4844" style="stroke:#666666;stroke-width:1.0;"/><line style="stroke:#666666;stroke-width:1.0;" x1="115.623" x2="423.9395" y1="258.4844" y2="258.4844"/><text fill="#333333" font-family="sans-serif" font-size="13" lengthAdjust="spacing" textLength="134.3608" x="122.623" y="253.7422">GetBestBlockHeader()</text><line style="stroke:#666666;stroke-width:1.0;" x1="115.623" x2="157.623" y1="294.7949" y2="294.7949"/><line style="stroke:#666666;stroke-width:1.0;" x1="157.623" x2="157.623" y1="294.7949" y2="307.7949"/><line style="stroke:#666666;stroke-width:1.0;" x1="116.623" x2="157.623" y1="307.7949" y2="307.7949"/><polygon fill="#666666" points="126.623,303.7949,116.623,307.7949,126.623,311.7949,122.623,307.7949" style="stroke:#666666;stroke-width:1.0;"/><text fill="#333333" font-family="sans-serif" font-size="13" lengthAdjust="spacing" textLength="264.4243" x="122.623" y="290.0527">maxHeight = bestBlockMeta.Height - 100</text><path d="M10,322.7949 L72.1387,322.7949 L72.1387,330.1055 L62.1387,340.1055 L10,340.1055 L10,322.7949 " fill="#EEEEEE" style="stroke:#000000;stroke-width:1.5;"/><rect fill="none" height="759.0527" style="stroke:#000000;stroke-width:1.5;" width="1374.3662" x="10" y="322.7949"/><text fill="#333333" font-family="sans-serif" font-size="13" font-weight="bold" lengthAdjust="spacing" textLength="17.1387" x="25" y="336.3633">alt</text><text fill="#333333" font-family="sans-serif" font-size="11" font-weight="bold" lengthAdjust="spacing" textLength="161.2832" x="87.1387" y="335.4297">[s.lastHeight &gt;= maxHeight]</text><line style="stroke:#666666;stroke-width:1.0;" x1="115.623" x2="157.623" y1="376.7266" y2="376.7266"/><line style="stroke:#666666;stroke-width:1.0;" x1="157.623" x2="157.623" y1="376.7266" y2="389.7266"/><line style="stroke:#666666;stroke-width:1.0;" x1="116.623" x2="157.623" y1="389.7266" y2="389.7266"/><polygon fill="#666666" points="126.623,385.7266,116.623,389.7266,126.623,393.7266,122.623,389.7266" style="stroke:#666666;stroke-width:1.0;"/><text fill="#333333" font-family="sans-serif" font-size="13" lengthAdjust="spacing" textLength="169.1904" x="122.623" y="356.6738">Wait for 100 confirmations</text><text fill="#333333" font-family="sans-serif" font-size="13" lengthAdjust="spacing" textLength="145.1836" x="122.623" y="371.9844">(return 1 minute delay)</text><line style="stroke:#000000;stroke-width:1.0;stroke-dasharray:2.0,2.0;" x1="10" x2="1384.3662" y1="398.7266" y2="398.7266"/><text fill="#333333" font-family="sans-serif" font-size="11" font-weight="bold" lengthAdjust="spacing" textLength="152.5337" x="15" y="409.3613">[s.lastHeight &lt; maxHeight]</text><path d="M20,419.6816 L82.1387,419.6816 L82.1387,426.9922 L72.1387,436.9922 L20,436.9922 L20,419.6816 " fill="#EEEEEE" style="stroke:#000000;stroke-width:1.5;"/><rect fill="none" height="90.8867" style="stroke:#000000;stroke-width:1.5;" width="620.8091" x="20" y="419.6816"/><text fill="#333333" font-family="sans-serif" font-size="13" font-weight="bold" lengthAdjust="spacing" textLength="17.1387" x="35" y="433.25">alt</text><text fill="#333333" font-family="sans-serif" font-size="11" font-weight="bold" lengthAdjust="spacing" textLength="133.187" x="97.1387" y="432.3164">[using BlockchainStore]</text><polygon fill="#666666" points="555.9526,454.3027,565.9526,458.3027,555.9526,462.3027,559.9526,458.3027" style="stroke:#666666;stroke-width:1.0;"/><line style="stroke:#666666;stroke-width:1.0;" x1="115.623" x2="561.9526" y1="458.3027" y2="458.3027"/><text fill="#333333" font-family="sans-serif" font-size="13" lengthAdjust="spacing" textLength="290.3164" x="122.623" y="453.5605">GetBlockHeadersFromHeight(s.lastHeight + 1)</text><line style="stroke:#000000;stroke-width:1.0;stroke-dasharray:2.0,2.0;" x1="20" x2="640.8091" y1="467.3027" y2="467.3027"/><text fill="#333333" font-family="sans-serif" font-size="11" font-weight="bold" lengthAdjust="spacing" textLength="137.0918" x="25" y="477.9375">[using BlockchainClient]</text><polygon fill="#666666" points="417.9395,498.5684,427.9395,502.5684,417.9395,506.5684,421.9395,502.5684" style="stroke:#666666;stroke-width:1.0;"/><line style="stroke:#666666;stroke-width:1.0;" x1="115.623" x2="423.9395" y1="502.5684" y2="502.5684"/><text fill="#333333" font-family="sans-serif" font-size="13" lengthAdjust="spacing" textLength="290.3164" x="122.623" y="497.8262">GetBlockHeadersFromHeight(s.lastHeight + 1)</text><line style="stroke:#666666;stroke-width:1.0;" x1="115.623" x2="157.623" y1="538.8789" y2="538.8789"/><line style="stroke:#666666;stroke-width:1.0;" x1="157.623" x2="157.623" y1="538.8789" y2="551.8789"/><line style="stroke:#666666;stroke-width:1.0;" x1="116.623" x2="157.623" y1="551.8789" y2="551.8789"/><polygon fill="#666666" points="126.623,547.8789,116.623,551.8789,126.623,555.8789,122.623,551.8789" style="stroke:#666666;stroke-width:1.0;"/><text fill="#333333" font-family="sans-serif" font-size="13" lengthAdjust="spacing" textLength="87.7817" x="122.623" y="534.1367">verifyLastSet()</text><line style="stroke:#666666;stroke-width:1.0;" x1="115.623" x2="157.623" y1="581.1895" y2="581.1895"/><line style="stroke:#666666;stroke-width:1.0;" x1="157.623" x2="157.623" y1="581.1895" y2="594.1895"/><line style="stroke:#666666;stroke-width:1.0;" x1="116.623" x2="157.623" y1="594.1895" y2="594.1895"/><polygon fill="#666666" points="126.623,590.1895,116.623,594.1895,126.623,598.1895,122.623,594.1895" style="stroke:#666666;stroke-width:1.0;"/><text fill="#333333" font-family="sans-serif" font-size="13" lengthAdjust="spacing" textLength="212.9512" x="122.623" y="576.4473">consolidator = NewConsolidator()</text><polygon fill="#666666" points="1123.6245,619.5,1133.6245,623.5,1123.6245,627.5,1127.6245,623.5" style="stroke:#666666;stroke-width:1.0;"/><line style="stroke:#666666;stroke-width:1.0;" x1="115.623" x2="1129.6245" y1="623.5" y2="623.5"/><text fill="#333333" font-family="sans-serif" font-size="13" lengthAdjust="spacing" textLength="282.915" x="122.623" y="618.7578">ConsolidateBlockRange(startBlock, endBlock)</text><path d="M840.0698,638.5 L914.5166,638.5 L914.5166,645.8105 L904.5166,655.8105 L840.0698,655.8105 L840.0698,638.5 " fill="#EEEEEE" style="stroke:#000000;stroke-width:1.5;"/><rect fill="none" height="118.2422" style="stroke:#000000;stroke-width:1.5;" width="534.2964" x="840.0698" y="638.5"/><text fill="#333333" font-family="sans-serif" font-size="13" font-weight="bold" lengthAdjust="spacing" textLength="29.4468" x="855.0698" y="652.0684">loop</text><text fill="#333333" font-family="sans-serif" font-size="11" font-weight="bold" lengthAdjust="spacing" textLength="139.1328" x="929.5166" y="651.1348">[for each block in range]</text><polygon fill="#666666" points="905.7632,673.1211,895.7632,677.1211,905.7632,681.1211,901.7632,677.1211" style="stroke:#666666;stroke-width:1.0;"/><line style="stroke:#666666;stroke-width:1.0;" x1="899.7632" x2="1134.6245" y1="677.1211" y2="677.1211"/><text fill="#333333" font-family="sans-serif" font-size="13" lengthAdjust="spacing" textLength="215.7505" x="911.7632" y="672.3789">GetUTXODeletionsReader(blockID)</text><polygon fill="#666666" points="905.7632,702.4316,895.7632,706.4316,905.7632,710.4316,901.7632,706.4316" style="stroke:#666666;stroke-width:1.0;"/><line style="stroke:#666666;stroke-width:1.0;" x1="899.7632" x2="1134.6245" y1="706.4316" y2="706.4316"/><text fill="#333333" font-family="sans-serif" font-size="13" lengthAdjust="spacing" textLength="216.8613" x="911.7632" y="701.6895">GetUTXOAdditionsReader(blockID)</text><line style="stroke:#666666;stroke-width:1.0;" x1="1145.6245" x2="1187.6245" y1="735.7422" y2="735.7422"/><line style="stroke:#666666;stroke-width:1.0;" x1="1187.6245" x2="1187.6245" y1="735.7422" y2="748.7422"/><line style="stroke:#666666;stroke-width:1.0;" x1="1146.6245" x2="1187.6245" y1="748.7422" y2="748.7422"/><polygon fill="#666666" points="1156.6245,744.7422,1146.6245,748.7422,1156.6245,752.7422,1152.6245,748.7422" style="stroke:#666666;stroke-width:1.0;"/><text fill="#333333" font-family="sans-serif" font-size="13" lengthAdjust="spacing" textLength="199.7417" x="1152.6245" y="731">Process deletions and additions</text><polygon fill="#666666" points="126.623,781.0527,116.623,785.0527,126.623,789.0527,122.623,785.0527" style="stroke:#666666;stroke-width:1.0;"/><line style="stroke:#666666;stroke-width:1.0;stroke-dasharray:2.0,2.0;" x1="120.623" x2="1139.6245" y1="785.0527" y2="785.0527"/><text fill="#333333" font-family="sans-serif" font-size="13" lengthAdjust="spacing" textLength="157.8979" x="132.623" y="780.3105">Return consolidated data</text><polygon fill="#666666" points="660.1934,810.3633,670.1934,814.3633,660.1934,818.3633,664.1934,814.3633" style="stroke:#666666;stroke-width:1.0;"/><line style="stroke:#666666;stroke-width:1.0;" x1="115.623" x2="666.1934" y1="814.3633" y2="814.3633"/><text fill="#333333" font-family="sans-serif" font-size="13" lengthAdjust="spacing" textLength="251.1196" x="122.623" y="809.6211">CreateUTXOSet(consolidator, baseHash)</text><polygon fill="#666666" points="882.7632,839.6738,892.7632,843.6738,882.7632,847.6738,886.7632,843.6738" style="stroke:#666666;stroke-width:1.0;"/><line style="stroke:#666666;stroke-width:1.0;" x1="682.1934" x2="888.7632" y1="843.6738" y2="843.6738"/><text fill="#333333" font-family="sans-serif" font-size="13" lengthAdjust="spacing" textLength="188.5698" x="689.1934" y="838.9316">GetUTXOSetReader(baseHash)</text><line style="stroke:#666666;stroke-width:1.0;" x1="682.1934" x2="724.1934" y1="872.9844" y2="872.9844"/><line style="stroke:#666666;stroke-width:1.0;" x1="724.1934" x2="724.1934" y1="872.9844" y2="885.9844"/><line style="stroke:#666666;stroke-width:1.0;" x1="683.1934" x2="724.1934" y1="885.9844" y2="885.9844"/><polygon fill="#666666" points="693.1934,881.9844,683.1934,885.9844,693.1934,889.9844,689.1934,885.9844" style="stroke:#666666;stroke-width:1.0;"/><text fill="#333333" font-family="sans-serif" font-size="13" lengthAdjust="spacing" textLength="174.4272" x="689.1934" y="868.2422">Apply consolidator changes</text><polygon fill="#666666" points="882.7632,911.2949,892.7632,915.2949,882.7632,919.2949,886.7632,915.2949" style="stroke:#666666;stroke-width:1.0;"/><line style="stroke:#666666;stroke-width:1.0;" x1="682.1934" x2="888.7632" y1="915.2949" y2="915.2949"/><text fill="#333333" font-family="sans-serif" font-size="13" lengthAdjust="spacing" textLength="124.1665" x="689.1934" y="910.5527">Write new UTXO set</text><polygon fill="#666666" points="126.623,940.6055,116.623,944.6055,126.623,948.6055,122.623,944.6055" style="stroke:#666666;stroke-width:1.0;"/><line style="stroke:#666666;stroke-width:1.0;stroke-dasharray:2.0,2.0;" x1="120.623" x2="676.1934" y1="944.6055" y2="944.6055"/><text fill="#333333" font-family="sans-serif" font-size="13" lengthAdjust="spacing" textLength="109.1099" x="132.623" y="939.8633">UTXO set created</text><polygon fill="#666666" points="882.7632,985.2266,892.7632,989.2266,882.7632,993.2266,886.7632,989.2266" style="stroke:#666666;stroke-width:1.0;"/><line style="stroke:#666666;stroke-width:1.0;" x1="115.623" x2="888.7632" y1="989.2266" y2="989.2266"/><text fill="#333333" font-family="sans-serif" font-size="13" lengthAdjust="spacing" textLength="204.6929" x="122.623" y="969.1738">Delete previous block's UTXOSet</text><text fill="#333333" font-family="sans-serif" font-size="13" lengthAdjust="spacing" textLength="221.9458" x="122.623" y="984.4844">(if skipDeletePreviousBlock is false)</text><line style="stroke:#666666;stroke-width:1.0;" x1="115.623" x2="157.623" y1="1018.5371" y2="1018.5371"/><line style="stroke:#666666;stroke-width:1.0;" x1="157.623" x2="157.623" y1="1018.5371" y2="1031.5371"/><line style="stroke:#666666;stroke-width:1.0;" x1="116.623" x2="157.623" y1="1031.5371" y2="1031.5371"/><polygon fill="#666666" points="126.623,1027.5371,116.623,1031.5371,126.623,1035.5371,122.623,1031.5371" style="stroke:#666666;stroke-width:1.0;"/><text fill="#333333" font-family="sans-serif" font-size="13" lengthAdjust="spacing" textLength="181.6001" x="122.623" y="1013.7949">writeLastHeight(s.lastHeight)</text><line style="stroke:#666666;stroke-width:1.0;" x1="115.623" x2="157.623" y1="1060.8477" y2="1060.8477"/><line style="stroke:#666666;stroke-width:1.0;" x1="157.623" x2="157.623" y1="1060.8477" y2="1073.8477"/><line style="stroke:#666666;stroke-width:1.0;" x1="116.623" x2="157.623" y1="1073.8477" y2="1073.8477"/><polygon fill="#666666" points="126.623,1069.8477,116.623,1073.8477,126.623,1077.8477,122.623,1073.8477" style="stroke:#666666;stroke-width:1.0;"/><text fill="#333333" font-family="sans-serif" font-size="13" lengthAdjust="spacing" textLength="189.3125" x="122.623" y="1056.1055">Trigger next block processing</text><text fill="#333333" font-family="sans-serif" font-size="10" lengthAdjust="spacing" textLength="157.5488" x="0" y="1140.0039">Last Modified On: 04-Aug-2025</text><!--SRC=[fLRTJzim47_FNt7gD95g584cJHCQI43LCOa20YRsi1StlhGMhXtPBb1D-zztiVFTXi7cXpGvt_tk-wxsGQYC6RQ46KiUvaQl53_JKXjuDzcVV9vC8bjnS4pPIhg9LgvW-UXFWuKPev-Aoq_-HD4EZ34L2c6c3KTZ8QLR9YMWn2KgPnloz2dS6dv50AUUkur5rAwLOt-Ytr439I4BZPR_2qDF9nAHCUN-3IgAo1k9yFtknnLSa-l2EZGmWbEfamUuDZf1QuMQHr5Jrw33Vulc4Sq0c2rUszmUB5ameU1C2egWvwofWTWhS-kqmOw8fstQT8i1ktZV0jb52q0HIvnuP0vB-yCFZ8uB0Xo2Cs8-HnDRlJ893hUnP25Ub_ZiF7Wy96JfO9M7SCDwe5E3T6u9xIkwKxG1wHmPPPRmK5hSm2i2s0SOhdiH5O-sERDap-SevWi7Hp0hfQRes5v17i71_dvmqEv9Pbr1FpwgPJisLU3tJ3ZVPWIHTqCgp98vePNzgMA3RcKK7C1Ig1NbXADawyBrbgOl7KKln_eryQuZOoT6BmDst5Bw0Gw67kzlgNXLEjwaCCzKJq3fATBr1KbHtSV3FZOAjTLIS4O-KrulaMPXJTcGQx4VGisBtl0RfkOOMqTTvhztSnFzMm2gkgg9us-arfdFFx9a0JFVcTJg9WUiWjVINeQmaQsyoySqettTt8Hwzb3VniCtWPnmBju4qebBCIVpGWt605CSM8bQ9MyJgfcRcr3sDGDoe2VpOXot1xEJi6BmvRaoICp5TzoKsQLDQl6SsKKdI-NKp8abK4_4wAgCLGkh8LQRSf9bSjrsd1g1CcrVL7Ll11cby2ci9zkrh1cxaWCIxpRlngnqRTkCBFNvKa8QulWezCg6gjofbWaD9f42BTyiC5uNV66j2FhNm6WWz7RUK-xDHTNLhHRl5ReBEuU2yEoABidgdUpdGSF9OdT54jDykEfyDUSQOQgvI0MLqvKwXFTvPSK3paVJwNIqfZCOHdy0]--></g></svg>
