<svg xmlns="http://www.w3.org/2000/svg" xmlns:xlink="http://www.w3.org/1999/xlink" contentStyleType="text/css" height="1062px" preserveAspectRatio="none" style="width:975px;height:1062px;background:#F0F8FF;" version="1.1" viewBox="0 0 975 1062" width="975px" zoomAndPan="magnify"><title>UTXO Persister - Block Processing</title><defs/><g><rect fill="#F0F8FF" height="1062" style="stroke:none;stroke-width:1.0;" width="975" x="0" y="0"/><text fill="#333333" font-family="sans-serif" font-size="14" font-weight="bold" lengthAdjust="spacing" textLength="248.9922" x="364.3911" y="28.5352">UTXO Persister - Block Processing</text><rect fill="#FFFFFF" height="916.9395" style="stroke:#181818;stroke-width:1.0;" width="10" x="105.623" y="83.9766"/><rect fill="#FFFFFF" height="87.9316" style="stroke:#181818;stroke-width:1.0;" width="10" x="576.1895" y="537.9238"/><rect fill="#FFFFFF" height="159.5527" style="stroke:#181818;stroke-width:1.0;" width="10" x="576.1895" y="655.166"/><rect fill="none" height="90.8867" style="stroke:#000000;stroke-width:1.5;" width="524.8052" x="20" y="175.5977"/><rect fill="none" height="713.4316" style="stroke:#000000;stroke-width:1.5;" width="958.7744" x="10" y="280.4844"/><rect fill="none" height="90.8867" style="stroke:#000000;stroke-width:1.5;" width="524.8052" x="20" y="304.7949"/><line style="stroke:#181818;stroke-width:0.5;stroke-dasharray:5.0,5.0;" x1="110" x2="110" y1="73.9766" y2="1010.916"/><line style="stroke:#181818;stroke-width:0.5;stroke-dasharray:5.0,5.0;" x1="333.7788" x2="333.7788" y1="73.9766" y2="1010.916"/><line style="stroke:#181818;stroke-width:0.5;stroke-dasharray:5.0,5.0;" x1="471.0923" x2="471.0923" y1="73.9766" y2="1010.916"/><line style="stroke:#181818;stroke-width:0.5;stroke-dasharray:5.0,5.0;" x1="580.8052" x2="580.8052" y1="73.9766" y2="1010.916"/><line style="stroke:#181818;stroke-width:0.5;stroke-dasharray:5.0,5.0;" x1="802.4756" x2="802.4756" y1="73.9766" y2="1010.916"/><line style="stroke:#181818;stroke-width:0.5;stroke-dasharray:5.0,5.0;" x1="907.8623" x2="907.8623" y1="73.9766" y2="1010.916"/><rect fill="#DDDDDD" height="30.4883" rx="2.5" ry="2.5" style="stroke:#666666;stroke-width:0.5;" width="161.2461" x="30" y="42.4883"/><text fill="#333333" font-family="sans-serif" font-size="14" lengthAdjust="spacing" textLength="147.2461" x="37" y="63.0234">UTXO Persister Server</text><rect fill="#DDDDDD" height="30.4883" rx="2.5" ry="2.5" style="stroke:#666666;stroke-width:0.5;" width="161.2461" x="30" y="1009.916"/><text fill="#333333" font-family="sans-serif" font-size="14" lengthAdjust="spacing" textLength="147.2461" x="37" y="1030.4512">UTXO Persister Server</text><rect fill="#DDDDDD" height="30.4883" rx="2.5" ry="2.5" style="stroke:#666666;stroke-width:0.5;" width="130.3135" x="268.7788" y="42.4883"/><text fill="#333333" font-family="sans-serif" font-size="14" lengthAdjust="spacing" textLength="116.3135" x="275.7788" y="63.0234">Blockchain Client</text><rect fill="#DDDDDD" height="30.4883" rx="2.5" ry="2.5" style="stroke:#666666;stroke-width:0.5;" width="130.3135" x="268.7788" y="1009.916"/><text fill="#333333" font-family="sans-serif" font-size="14" lengthAdjust="spacing" textLength="116.3135" x="275.7788" y="1030.4512">Blockchain Client</text><rect fill="#DDDDDD" height="30.4883" rx="2.5" ry="2.5" style="stroke:#666666;stroke-width:0.5;" width="125.7129" x="409.0923" y="42.4883"/><text fill="#333333" font-family="sans-serif" font-size="14" lengthAdjust="spacing" textLength="111.7129" x="416.0923" y="63.0234">Blockchain Store</text><rect fill="#DDDDDD" height="30.4883" rx="2.5" ry="2.5" style="stroke:#666666;stroke-width:0.5;" width="125.7129" x="409.0923" y="1009.916"/><text fill="#333333" font-family="sans-serif" font-size="14" lengthAdjust="spacing" textLength="111.7129" x="416.0923" y="1030.4512">Blockchain Store</text><rect fill="#DDDDDD" height="30.4883" rx="2.5" ry="2.5" style="stroke:#666666;stroke-width:0.5;" width="72.7686" x="544.8052" y="42.4883"/><text fill="#333333" font-family="sans-serif" font-size="14" lengthAdjust="spacing" textLength="58.7686" x="551.8052" y="63.0234">UTXOSet</text><rect fill="#DDDDDD" height="30.4883" rx="2.5" ry="2.5" style="stroke:#666666;stroke-width:0.5;" width="72.7686" x="544.8052" y="1009.916"/><text fill="#333333" font-family="sans-serif" font-size="14" lengthAdjust="spacing" textLength="58.7686" x="551.8052" y="1030.4512">UTXOSet</text><rect fill="#DDDDDD" height="30.4883" rx="2.5" ry="2.5" style="stroke:#666666;stroke-width:0.5;" width="89.3867" x="758.4756" y="42.4883"/><text fill="#333333" font-family="sans-serif" font-size="14" lengthAdjust="spacing" textLength="75.3867" x="765.4756" y="63.0234">Block Store</text><rect fill="#DDDDDD" height="30.4883" rx="2.5" ry="2.5" style="stroke:#666666;stroke-width:0.5;" width="89.3867" x="758.4756" y="1009.916"/><text fill="#333333" font-family="sans-serif" font-size="14" lengthAdjust="spacing" textLength="75.3867" x="765.4756" y="1030.4512">Block Store</text><rect fill="#DDDDDD" height="30.4883" rx="2.5" ry="2.5" style="stroke:#666666;stroke-width:0.5;" width="100.9121" x="857.8623" y="42.4883"/><text fill="#333333" font-family="sans-serif" font-size="14" lengthAdjust="spacing" textLength="86.9121" x="864.8623" y="63.0234">Consolidator</text><rect fill="#DDDDDD" height="30.4883" rx="2.5" ry="2.5" style="stroke:#666666;stroke-width:0.5;" width="100.9121" x="857.8623" y="1009.916"/><text fill="#333333" font-family="sans-serif" font-size="14" lengthAdjust="spacing" textLength="86.9121" x="864.8623" y="1030.4512">Consolidator</text><rect fill="#FFFFFF" height="916.9395" style="stroke:#181818;stroke-width:1.0;" width="10" x="105.623" y="83.9766"/><rect fill="#FFFFFF" height="87.9316" style="stroke:#181818;stroke-width:1.0;" width="10" x="576.1895" y="537.9238"/><rect fill="#FFFFFF" height="159.5527" style="stroke:#181818;stroke-width:1.0;" width="10" x="576.1895" y="655.166"/><line style="stroke:#666666;stroke-width:1.0;" x1="115.623" x2="157.623" y1="105.2871" y2="105.2871"/><line style="stroke:#666666;stroke-width:1.0;" x1="157.623" x2="157.623" y1="105.2871" y2="118.2871"/><line style="stroke:#666666;stroke-width:1.0;" x1="116.623" x2="157.623" y1="118.2871" y2="118.2871"/><polygon fill="#666666" points="126.623,114.2871,116.623,118.2871,126.623,122.2871,122.623,118.2871" style="stroke:#666666;stroke-width:1.0;"/><text fill="#333333" font-family="sans-serif" font-size="13" lengthAdjust="spacing" textLength="93.0693" x="122.623" y="100.5449">trigger(source)</text><line style="stroke:#666666;stroke-width:1.0;" x1="115.623" x2="157.623" y1="147.5977" y2="147.5977"/><line style="stroke:#666666;stroke-width:1.0;" x1="157.623" x2="157.623" y1="147.5977" y2="160.5977"/><line style="stroke:#666666;stroke-width:1.0;" x1="116.623" x2="157.623" y1="160.5977" y2="160.5977"/><polygon fill="#666666" points="126.623,156.5977,116.623,160.5977,126.623,164.5977,122.623,160.5977" style="stroke:#666666;stroke-width:1.0;"/><text fill="#333333" font-family="sans-serif" font-size="13" lengthAdjust="spacing" textLength="120.2563" x="122.623" y="142.8555">processNextBlock()</text><path d="M20,175.5977 L82.1387,175.5977 L82.1387,182.9082 L72.1387,192.9082 L20,192.9082 L20,175.5977 " fill="#EEEEEE" style="stroke:#000000;stroke-width:1.5;"/><rect fill="none" height="90.8867" style="stroke:#000000;stroke-width:1.5;" width="524.8052" x="20" y="175.5977"/><text fill="#333333" font-family="sans-serif" font-size="13" font-weight="bold" lengthAdjust="spacing" textLength="17.1387" x="35" y="189.166">alt</text><text fill="#333333" font-family="sans-serif" font-size="11" font-weight="bold" lengthAdjust="spacing" textLength="133.187" x="97.1387" y="188.2324">[using BlockchainStore]</text><polygon fill="#666666" points="459.9487,210.2188,469.9487,214.2188,459.9487,218.2188,463.9487,214.2188" style="stroke:#666666;stroke-width:1.0;"/><line style="stroke:#666666;stroke-width:1.0;" x1="115.623" x2="465.9487" y1="214.2188" y2="214.2188"/><text fill="#333333" font-family="sans-serif" font-size="13" lengthAdjust="spacing" textLength="134.3608" x="122.623" y="209.4766">GetBestBlockHeader()</text><line style="stroke:#000000;stroke-width:1.0;stroke-dasharray:2.0,2.0;" x1="20" x2="544.8052" y1="223.2188" y2="223.2188"/><text fill="#333333" font-family="sans-serif" font-size="11" font-weight="bold" lengthAdjust="spacing" textLength="137.0918" x="25" y="233.8535">[using BlockchainClient]</text><polygon fill="#666666" points="321.9355,254.4844,331.9355,258.4844,321.9355,262.4844,325.9355,258.4844" style="stroke:#666666;stroke-width:1.0;"/><line style="stroke:#666666;stroke-width:1.0;" x1="115.623" x2="327.9355" y1="258.4844" y2="258.4844"/><text fill="#333333" font-family="sans-serif" font-size="13" lengthAdjust="spacing" textLength="134.3608" x="122.623" y="253.7422">GetBestBlockHeader()</text><path d="M10,280.4844 L72.1387,280.4844 L72.1387,287.7949 L62.1387,297.7949 L10,297.7949 L10,280.4844 " fill="#EEEEEE" style="stroke:#000000;stroke-width:1.5;"/><rect fill="none" height="713.4316" style="stroke:#000000;stroke-width:1.5;" width="958.7744" x="10" y="280.4844"/><text fill="#333333" font-family="sans-serif" font-size="13" font-weight="bold" lengthAdjust="spacing" textLength="17.1387" x="25" y="294.0527">alt</text><text fill="#333333" font-family="sans-serif" font-size="11" font-weight="bold" lengthAdjust="spacing" textLength="272.9751" x="87.1387" y="293.1191">[current height is more than 100 blocks behind]</text><path d="M20,304.7949 L82.1387,304.7949 L82.1387,312.1055 L72.1387,322.1055 L20,322.1055 L20,304.7949 " fill="#EEEEEE" style="stroke:#000000;stroke-width:1.5;"/><rect fill="none" height="90.8867" style="stroke:#000000;stroke-width:1.5;" width="524.8052" x="20" y="304.7949"/><text fill="#333333" font-family="sans-serif" font-size="13" font-weight="bold" lengthAdjust="spacing" textLength="17.1387" x="35" y="318.3633">alt</text><text fill="#333333" font-family="sans-serif" font-size="11" font-weight="bold" lengthAdjust="spacing" textLength="133.187" x="97.1387" y="317.4297">[using BlockchainStore]</text><polygon fill="#666666" points="459.9487,339.416,469.9487,343.416,459.9487,347.416,463.9487,343.416" style="stroke:#666666;stroke-width:1.0;"/><line style="stroke:#666666;stroke-width:1.0;" x1="115.623" x2="465.9487" y1="343.416" y2="343.416"/><text fill="#333333" font-family="sans-serif" font-size="13" lengthAdjust="spacing" textLength="188.7793" x="122.623" y="338.6738">GetBlockHeadersFromHeight()</text><line style="stroke:#000000;stroke-width:1.0;stroke-dasharray:2.0,2.0;" x1="20" x2="544.8052" y1="352.416" y2="352.416"/><text fill="#333333" font-family="sans-serif" font-size="11" font-weight="bold" lengthAdjust="spacing" textLength="137.0918" x="25" y="363.0508">[using BlockchainClient]</text><polygon fill="#666666" points="321.9355,383.6816,331.9355,387.6816,321.9355,391.6816,325.9355,387.6816" style="stroke:#666666;stroke-width:1.0;"/><line style="stroke:#666666;stroke-width:1.0;" x1="115.623" x2="327.9355" y1="387.6816" y2="387.6816"/><text fill="#333333" font-family="sans-serif" font-size="13" lengthAdjust="spacing" textLength="188.7793" x="122.623" y="382.9395">GetBlockHeadersFromHeight()</text><line style="stroke:#666666;stroke-width:1.0;" x1="115.623" x2="157.623" y1="423.9922" y2="423.9922"/><line style="stroke:#666666;stroke-width:1.0;" x1="157.623" x2="157.623" y1="423.9922" y2="436.9922"/><line style="stroke:#666666;stroke-width:1.0;" x1="116.623" x2="157.623" y1="436.9922" y2="436.9922"/><polygon fill="#666666" points="126.623,432.9922,116.623,436.9922,126.623,440.9922,122.623,436.9922" style="stroke:#666666;stroke-width:1.0;"/><text fill="#333333" font-family="sans-serif" font-size="13" lengthAdjust="spacing" textLength="87.7817" x="122.623" y="419.25">verifyLastSet()</text><line style="stroke:#666666;stroke-width:1.0;" x1="115.623" x2="157.623" y1="466.3027" y2="466.3027"/><line style="stroke:#666666;stroke-width:1.0;" x1="157.623" x2="157.623" y1="466.3027" y2="479.3027"/><line style="stroke:#666666;stroke-width:1.0;" x1="116.623" x2="157.623" y1="479.3027" y2="479.3027"/><polygon fill="#666666" points="126.623,475.3027,116.623,479.3027,126.623,483.3027,122.623,479.3027" style="stroke:#666666;stroke-width:1.0;"/><text fill="#333333" font-family="sans-serif" font-size="13" lengthAdjust="spacing" textLength="120.1357" x="122.623" y="461.5605">New Consolidator()</text><polygon fill="#666666" points="896.3184,504.6133,906.3184,508.6133,896.3184,512.6133,900.3184,508.6133" style="stroke:#666666;stroke-width:1.0;"/><line style="stroke:#666666;stroke-width:1.0;" x1="115.623" x2="902.3184" y1="508.6133" y2="508.6133"/><text fill="#333333" font-family="sans-serif" font-size="13" lengthAdjust="spacing" textLength="155.3906" x="122.623" y="503.8711">ConsolidateBlockRange()</text><polygon fill="#666666" points="564.1895,533.9238,574.1895,537.9238,564.1895,541.9238,568.1895,537.9238" style="stroke:#666666;stroke-width:1.0;"/><line style="stroke:#666666;stroke-width:1.0;" x1="115.623" x2="570.1895" y1="537.9238" y2="537.9238"/><text fill="#333333" font-family="sans-serif" font-size="13" lengthAdjust="spacing" textLength="198.1738" x="122.623" y="533.1816">GetUTXOSetWithDeletionsMap()</text><polygon fill="#666666" points="791.1689,563.2344,801.1689,567.2344,791.1689,571.2344,795.1689,567.2344" style="stroke:#666666;stroke-width:1.0;"/><line style="stroke:#666666;stroke-width:1.0;" x1="586.1895" x2="797.1689" y1="567.2344" y2="567.2344"/><text fill="#333333" font-family="sans-serif" font-size="13" lengthAdjust="spacing" textLength="122.916" x="593.1895" y="562.4922">Get UTXO deletions</text><polygon fill="#666666" points="597.1895,592.5449,587.1895,596.5449,597.1895,600.5449,593.1895,596.5449" style="stroke:#666666;stroke-width:1.0;"/><line style="stroke:#666666;stroke-width:1.0;stroke-dasharray:2.0,2.0;" x1="591.1895" x2="802.1689" y1="596.5449" y2="596.5449"/><text fill="#333333" font-family="sans-serif" font-size="13" lengthAdjust="spacing" textLength="97.3032" x="603.1895" y="591.8027">UTXO deletions</text><polygon fill="#666666" points="126.623,621.8555,116.623,625.8555,126.623,629.8555,122.623,625.8555" style="stroke:#666666;stroke-width:1.0;"/><line style="stroke:#666666;stroke-width:1.0;stroke-dasharray:2.0,2.0;" x1="120.623" x2="580.1895" y1="625.8555" y2="625.8555"/><text fill="#333333" font-family="sans-serif" font-size="13" lengthAdjust="spacing" textLength="224.7324" x="132.623" y="621.1133">Return UTXOSet with deletions map</text><polygon fill="#666666" points="564.1895,651.166,574.1895,655.166,564.1895,659.166,568.1895,655.166" style="stroke:#666666;stroke-width:1.0;"/><line style="stroke:#666666;stroke-width:1.0;" x1="115.623" x2="570.1895" y1="655.166" y2="655.166"/><text fill="#333333" font-family="sans-serif" font-size="13" lengthAdjust="spacing" textLength="103.8667" x="122.623" y="650.4238">CreateUTXOSet()</text><polygon fill="#666666" points="791.1689,680.4766,801.1689,684.4766,791.1689,688.4766,795.1689,684.4766" style="stroke:#666666;stroke-width:1.0;"/><line style="stroke:#666666;stroke-width:1.0;" x1="586.1895" x2="797.1689" y1="684.4766" y2="684.4766"/><text fill="#333333" font-family="sans-serif" font-size="13" lengthAdjust="spacing" textLength="189.8457" x="593.1895" y="679.7344">Get previous block's UTXO set</text><polygon fill="#666666" points="597.1895,709.7871,587.1895,713.7871,597.1895,717.7871,593.1895,713.7871" style="stroke:#666666;stroke-width:1.0;"/><line style="stroke:#666666;stroke-width:1.0;stroke-dasharray:2.0,2.0;" x1="591.1895" x2="802.1689" y1="713.7871" y2="713.7871"/><text fill="#333333" font-family="sans-serif" font-size="13" lengthAdjust="spacing" textLength="163.2363" x="603.1895" y="709.0449">Previous block's UTXO set</text><line style="stroke:#666666;stroke-width:1.0;" x1="586.1895" x2="628.1895" y1="743.0977" y2="743.0977"/><line style="stroke:#666666;stroke-width:1.0;" x1="628.1895" x2="628.1895" y1="743.0977" y2="756.0977"/><line style="stroke:#666666;stroke-width:1.0;" x1="587.1895" x2="628.1895" y1="756.0977" y2="756.0977"/><polygon fill="#666666" points="597.1895,752.0977,587.1895,756.0977,597.1895,760.0977,593.1895,756.0977" style="stroke:#666666;stroke-width:1.0;"/><text fill="#333333" font-family="sans-serif" font-size="13" lengthAdjust="spacing" textLength="187.9795" x="593.1895" y="738.3555">Apply deletions and additions</text><polygon fill="#666666" points="791.1689,781.4082,801.1689,785.4082,791.1689,789.4082,795.1689,785.4082" style="stroke:#666666;stroke-width:1.0;"/><line style="stroke:#666666;stroke-width:1.0;" x1="586.1895" x2="797.1689" y1="785.4082" y2="785.4082"/><text fill="#333333" font-family="sans-serif" font-size="13" lengthAdjust="spacing" textLength="124.1665" x="593.1895" y="780.666">Write new UTXO set</text><polygon fill="#666666" points="126.623,810.7188,116.623,814.7188,126.623,818.7188,122.623,814.7188" style="stroke:#666666;stroke-width:1.0;"/><line style="stroke:#666666;stroke-width:1.0;stroke-dasharray:2.0,2.0;" x1="120.623" x2="580.1895" y1="814.7188" y2="814.7188"/><text fill="#333333" font-family="sans-serif" font-size="13" lengthAdjust="spacing" textLength="109.1099" x="132.623" y="809.9766">UTXO set created</text><polygon fill="#666666" points="791.1689,840.0293,801.1689,844.0293,791.1689,848.0293,795.1689,844.0293" style="stroke:#666666;stroke-width:1.0;"/><line style="stroke:#666666;stroke-width:1.0;" x1="115.623" x2="797.1689" y1="844.0293" y2="844.0293"/><text fill="#333333" font-family="sans-serif" font-size="13" lengthAdjust="spacing" textLength="304.7129" x="122.623" y="839.2871">Delete previous block's UTXOSet (if not skipped)</text><line style="stroke:#666666;stroke-width:1.0;" x1="115.623" x2="157.623" y1="873.3398" y2="873.3398"/><line style="stroke:#666666;stroke-width:1.0;" x1="157.623" x2="157.623" y1="873.3398" y2="886.3398"/><line style="stroke:#666666;stroke-width:1.0;" x1="116.623" x2="157.623" y1="886.3398" y2="886.3398"/><polygon fill="#666666" points="126.623,882.3398,116.623,886.3398,126.623,890.3398,122.623,886.3398" style="stroke:#666666;stroke-width:1.0;"/><text fill="#333333" font-family="sans-serif" font-size="13" lengthAdjust="spacing" textLength="106.8438" x="122.623" y="868.5977">writeLastHeight()</text><line style="stroke:#666666;stroke-width:1.0;" x1="115.623" x2="157.623" y1="915.6504" y2="915.6504"/><line style="stroke:#666666;stroke-width:1.0;" x1="157.623" x2="157.623" y1="915.6504" y2="928.6504"/><line style="stroke:#666666;stroke-width:1.0;" x1="116.623" x2="157.623" y1="928.6504" y2="928.6504"/><polygon fill="#666666" points="126.623,924.6504,116.623,928.6504,126.623,932.6504,122.623,928.6504" style="stroke:#666666;stroke-width:1.0;"/><text fill="#333333" font-family="sans-serif" font-size="13" lengthAdjust="spacing" textLength="189.3125" x="122.623" y="910.9082">Trigger next block processing</text><line style="stroke:#000000;stroke-width:1.0;stroke-dasharray:2.0,2.0;" x1="10" x2="968.7744" y1="937.6504" y2="937.6504"/><text fill="#333333" font-family="sans-serif" font-size="11" font-weight="bold" lengthAdjust="spacing" textLength="266.2988" x="15" y="948.2852">[current height is less than 100 blocks behind]</text><line style="stroke:#666666;stroke-width:1.0;" x1="115.623" x2="157.623" y1="972.916" y2="972.916"/><line style="stroke:#666666;stroke-width:1.0;" x1="157.623" x2="157.623" y1="972.916" y2="985.916"/><line style="stroke:#666666;stroke-width:1.0;" x1="116.623" x2="157.623" y1="985.916" y2="985.916"/><polygon fill="#666666" points="126.623,981.916,116.623,985.916,126.623,989.916,122.623,985.916" style="stroke:#666666;stroke-width:1.0;"/><text fill="#333333" font-family="sans-serif" font-size="13" lengthAdjust="spacing" textLength="177.2139" x="122.623" y="968.1738">Wait for more confirmations</text><text fill="#333333" font-family="sans-serif" font-size="10" lengthAdjust="spacing" textLength="155.4346" x="0" y="1052.0723">Last Modified On: 24-Feb-2025</text><!--SRC=[fLLDRzim3BthLn0PXgQ701q634CF0zOKMGzBM_G3tLMnw4Ie8XcIt3GOzjz7VJYn4oShEXriItfyvACfoZrBNN7Bbp3ZnVFScbgBiL76meV9sUJhPCBS1Y6mvBNo4wDzXdoEemNXrffLtlmI1sCdS8cbr0WpOmLQ1oNjSgK05IvHUzUofwdqQ_ZD02uYkij5gxjHNiR1_h0MIq4HMgF-buQUNXQoujg_ZuenKgCG7Xz-tS0jIPVEeuKHN2XJFCEjDGKw9_MSiRQlmGx-7kqBsW5mbp-xw4XMBBZKC5QICXYHszMqUD3ctXkBEoPnRJ-cUqpS-Rk7SfSj4J5UUFd2FJRnfnUClkK5E0TlvNoETkXCRGiyxODKAL_N-EeZ-V2Kc9M7EgHmBtgWiINPsIMs7-Wlq2McA-JqPuaFbSCzlfp0GuHf-o2Z5YdAehOsu1OevmiFqi4o1E8NNCEdipEO1JC7Crn8CWdEZcjxYxvj96vYpV8gkgQWWks_fBv9xb47GNcNPVChwIdBzK_kFDLHnlV0hd45OwETKL9mqhM7R6yIVZl56DeTrtCCPTArolMRDEJ9a_IBI-f8NXB7b5VPrQPocveFYurzavTMojDP5mrHXBSmeuxt7ko6kfs6E_IrrPkz5OMwDOCbhwAfmBrW3-eUMoHSdhzNQcNnHPhQfT8zINq1NBOygFhsg5dBuTRaUrMfTKiormAu4B8dRpjnFbb9YZJLKR-NTfeR11GnE-ADMUtuYoM4_Qa93eUo16qyq2rJLIWELlugn1tEH-T8zG0VKjyaYQy-UMlwPBXNuY7VxpoAjezrdXu_JrpwU7F7haKtR2djagSV44zwAr6vopE5PR0nuH8BMc1gX2mb2hZHv_0n7DFXG8ZHT3eThMaCJjbV]--></g></svg>
