<svg xmlns="http://www.w3.org/2000/svg" xmlns:xlink="http://www.w3.org/1999/xlink" contentStyleType="text/css" height="1020px" preserveAspectRatio="none" style="width:1630px;height:1020px;background:#F0F8FF;" version="1.1" viewBox="0 0 1630 1020" width="1630px" zoomAndPan="magnify"><defs/><g><rect fill="#F0F8FF" height="1020" style="stroke:none;stroke-width:1.0;" width="1630" x="0" y="0"/><rect fill="#FFFFFF" height="830.3848" style="stroke:#181818;stroke-width:1.0;" width="10" x="223.3325" y="98.7988"/><rect fill="#FFFFFF" height="801.0742" style="stroke:#181818;stroke-width:1.0;" width="10" x="478.0679" y="128.1094"/><rect fill="#FFFFFF" height="153.5527" style="stroke:#181818;stroke-width:1.0;" width="10" x="483.0679" y="559.457"/><rect fill="#FFFFFF" height="29.3105" style="stroke:#181818;stroke-width:1.0;" width="10" x="792.7104" y="157.4199"/><rect fill="#FFFFFF" height="29.3105" style="stroke:#181818;stroke-width:1.0;" width="10" x="911.5215" y="216.041"/><rect fill="#FFFFFF" height="29.3105" style="stroke:#181818;stroke-width:1.0;" width="10" x="911.5215" y="742.3203"/><rect fill="#FFFFFF" height="29.3105" style="stroke:#181818;stroke-width:1.0;" width="10" x="1032.5674" y="316.9727"/><rect fill="#FFFFFF" height="29.3105" style="stroke:#181818;stroke-width:1.0;" width="10" x="1206.7192" y="375.5938"/><rect fill="#FFFFFF" height="29.3105" style="stroke:#181818;stroke-width:1.0;" width="10" x="1320.9551" y="434.2148"/><rect fill="#FFFFFF" height="29.3105" style="stroke:#181818;stroke-width:1.0;" width="10" x="1421.1875" y="618.0781"/><rect fill="#FFFFFF" height="29.3105" style="stroke:#181818;stroke-width:1.0;" width="10" x="1544.8135" y="492.8359"/><rect fill="#FFFFFF" height="29.3105" style="stroke:#181818;stroke-width:1.0;" width="10" x="1544.8135" y="683.6992"/><rect fill="#FFFFFF" height="29.3105" style="stroke:#181818;stroke-width:1.0;" width="10" x="1544.8135" y="825.252"/><rect fill="none" height="75.9316" style="stroke:#000000;stroke-width:1.5;" width="1094.4541" x="390.2026" y="579.457"/><rect fill="none" height="75.9316" style="stroke:#000000;stroke-width:1.5;" width="1234.7676" x="390.2026" y="786.6309"/><line style="stroke:#181818;stroke-width:0.5;stroke-dasharray:5.0,5.0;" x1="35" x2="35" y1="67.4883" y2="938.1836"/><line style="stroke:#181818;stroke-width:0.5;stroke-dasharray:5.0,5.0;" x1="227.6362" x2="227.6362" y1="67.4883" y2="938.1836"/><line style="stroke:#181818;stroke-width:0.5;stroke-dasharray:5.0,5.0;" x1="482.2026" x2="482.2026" y1="67.4883" y2="938.1836"/><line style="stroke:#181818;stroke-width:0.5;stroke-dasharray:5.0,5.0;" x1="797.2344" x2="797.2344" y1="67.4883" y2="938.1836"/><line style="stroke:#181818;stroke-width:0.5;stroke-dasharray:5.0,5.0;" x1="916.1865" x2="916.1865" y1="67.4883" y2="938.1836"/><line style="stroke:#181818;stroke-width:0.5;stroke-dasharray:5.0,5.0;" x1="982.8564" x2="982.8564" y1="67.4883" y2="938.1836"/><line style="stroke:#181818;stroke-width:0.5;stroke-dasharray:5.0,5.0;" x1="1036.9092" x2="1036.9092" y1="67.4883" y2="938.1836"/><line style="stroke:#181818;stroke-width:0.5;stroke-dasharray:5.0,5.0;" x1="1211.2466" x2="1211.2466" y1="67.4883" y2="938.1836"/><line style="stroke:#181818;stroke-width:0.5;stroke-dasharray:5.0,5.0;" x1="1325.1919" x2="1325.1919" y1="67.4883" y2="938.1836"/><line style="stroke:#181818;stroke-width:0.5;stroke-dasharray:5.0,5.0;" x1="1425.7183" x2="1425.7183" y1="67.4883" y2="938.1836"/><line style="stroke:#181818;stroke-width:0.5;stroke-dasharray:5.0,5.0;" x1="1549.6567" x2="1549.6567" y1="67.4883" y2="938.1836"/><rect fill="#DDDDDD" height="30.4883" rx="2.5" ry="2.5" style="stroke:#666666;stroke-width:0.5;" width="60.2588" x="5" y="36"/><text fill="#333333" font-family="sans-serif" font-size="14" lengthAdjust="spacing" textLength="46.2588" x="12" y="56.5352">Mining</text><rect fill="#DDDDDD" height="30.4883" rx="2.5" ry="2.5" style="stroke:#666666;stroke-width:0.5;" width="60.2588" x="5" y="937.1836"/><text fill="#333333" font-family="sans-serif" font-size="14" lengthAdjust="spacing" textLength="46.2588" x="12" y="957.7188">Mining</text><rect fill="#DDDDDD" height="30.4883" rx="2.5" ry="2.5" style="stroke:#666666;stroke-width:0.5;" width="163.3926" x="146.6362" y="36"/><text fill="#333333" font-family="sans-serif" font-size="14" lengthAdjust="spacing" textLength="149.3926" x="153.6362" y="56.5352">Block Assembly Client</text><rect fill="#DDDDDD" height="30.4883" rx="2.5" ry="2.5" style="stroke:#666666;stroke-width:0.5;" width="163.3926" x="146.6362" y="937.1836"/><text fill="#333333" font-family="sans-serif" font-size="14" lengthAdjust="spacing" textLength="149.3926" x="153.6362" y="957.7188">Block Assembly Client</text><rect fill="#DDDDDD" height="30.4883" rx="2.5" ry="2.5" style="stroke:#666666;stroke-width:0.5;" width="165.7305" x="400.2026" y="36"/><text fill="#333333" font-family="sans-serif" font-size="14" lengthAdjust="spacing" textLength="151.7305" x="407.2026" y="56.5352">Block Assembly Server</text><rect fill="#DDDDDD" height="30.4883" rx="2.5" ry="2.5" style="stroke:#666666;stroke-width:0.5;" width="165.7305" x="400.2026" y="937.1836"/><text fill="#333333" font-family="sans-serif" font-size="14" lengthAdjust="spacing" textLength="151.7305" x="407.2026" y="957.7188">Block Assembly Server</text><rect fill="#DDDDDD" height="30.4883" rx="2.5" ry="2.5" style="stroke:#666666;stroke-width:0.5;" width="146.9521" x="724.2344" y="36"/><text fill="#333333" font-family="sans-serif" font-size="14" lengthAdjust="spacing" textLength="132.9521" x="731.2344" y="56.5352">blockSubmissionCh</text><rect fill="#DDDDDD" height="30.4883" rx="2.5" ry="2.5" style="stroke:#666666;stroke-width:0.5;" width="146.9521" x="724.2344" y="937.1836"/><text fill="#333333" font-family="sans-serif" font-size="14" lengthAdjust="spacing" textLength="132.9521" x="731.2344" y="957.7188">blockSubmissionCh</text><rect fill="#DDDDDD" height="30.4883" rx="2.5" ry="2.5" style="stroke:#666666;stroke-width:0.5;" width="70.6699" x="881.1865" y="36"/><text fill="#333333" font-family="sans-serif" font-size="14" lengthAdjust="spacing" textLength="56.6699" x="888.1865" y="56.5352">JobStore</text><rect fill="#DDDDDD" height="30.4883" rx="2.5" ry="2.5" style="stroke:#666666;stroke-width:0.5;" width="70.6699" x="881.1865" y="937.1836"/><text fill="#333333" font-family="sans-serif" font-size="14" lengthAdjust="spacing" textLength="56.6699" x="888.1865" y="957.7188">JobStore</text><text fill="#333333" font-family="sans-serif" font-size="14" lengthAdjust="spacing" textLength="36.0527" x="961.8564" y="64.5352">Block</text><ellipse cx="982.8828" cy="35" fill="#DDDDDD" rx="12" ry="12" style="stroke:#666666;stroke-width:0.5;"/><line style="stroke:#666666;stroke-width:0.5;" x1="970.8828" x2="994.8828" y1="49" y2="49"/><text fill="#333333" font-family="sans-serif" font-size="14" lengthAdjust="spacing" textLength="36.0527" x="961.8564" y="950.7188">Block</text><ellipse cx="982.8828" cy="969.6719" fill="#DDDDDD" rx="12" ry="12" style="stroke:#666666;stroke-width:0.5;"/><line style="stroke:#666666;stroke-width:0.5;" x1="970.8828" x2="994.8828" y1="983.6719" y2="983.6719"/><text fill="#333333" font-family="sans-serif" font-size="14" lengthAdjust="spacing" textLength="41.3164" x="1013.9092" y="64.5352">Model</text><ellipse cx="1037.5674" cy="35" fill="#DDDDDD" rx="12" ry="12" style="stroke:#666666;stroke-width:0.5;"/><line style="stroke:#666666;stroke-width:0.5;" x1="1025.5674" x2="1049.5674" y1="49" y2="49"/><text fill="#333333" font-family="sans-serif" font-size="14" lengthAdjust="spacing" textLength="41.3164" x="1013.9092" y="950.7188">Model</text><ellipse cx="1037.5674" cy="969.6719" fill="#DDDDDD" rx="12" ry="12" style="stroke:#666666;stroke-width:0.5;"/><line style="stroke:#666666;stroke-width:0.5;" x1="1025.5674" x2="1049.5674" y1="983.6719" y2="983.6719"/><text fill="#333333" font-family="sans-serif" font-size="14" lengthAdjust="spacing" textLength="118.9453" x="1149.2466" y="64.5352">Transaction Store</text><path d="M1193.7192,15 C1193.7192,5 1211.7192,5 1211.7192,5 C1211.7192,5 1229.7192,5 1229.7192,15 L1229.7192,41 C1229.7192,51 1211.7192,51 1211.7192,51 C1211.7192,51 1193.7192,51 1193.7192,41 L1193.7192,15 " fill="#E2E2F0" style="stroke:#181818;stroke-width:1.5;"/><path d="M1193.7192,15 C1193.7192,25 1211.7192,25 1211.7192,25 C1211.7192,25 1229.7192,25 1229.7192,15 " fill="none" style="stroke:#181818;stroke-width:1.5;"/><text fill="#333333" font-family="sans-serif" font-size="14" lengthAdjust="spacing" textLength="118.9453" x="1149.2466" y="950.7188">Transaction Store</text><path d="M1193.7192,963.6719 C1193.7192,953.6719 1211.7192,953.6719 1211.7192,953.6719 C1211.7192,953.6719 1229.7192,953.6719 1229.7192,963.6719 L1229.7192,989.6719 C1229.7192,999.6719 1211.7192,999.6719 1211.7192,999.6719 C1211.7192,999.6719 1193.7192,999.6719 1193.7192,989.6719 L1193.7192,963.6719 " fill="#E2E2F0" style="stroke:#181818;stroke-width:1.5;"/><path d="M1193.7192,963.6719 C1193.7192,973.6719 1211.7192,973.6719 1211.7192,973.6719 C1211.7192,973.6719 1229.7192,973.6719 1229.7192,963.6719 " fill="none" style="stroke:#181818;stroke-width:1.5;"/><text fill="#333333" font-family="sans-serif" font-size="14" lengthAdjust="spacing" textLength="77.5264" x="1284.1919" y="64.5352">UTXO Store</text><path d="M1307.9551,15 C1307.9551,5 1325.9551,5 1325.9551,5 C1325.9551,5 1343.9551,5 1343.9551,15 L1343.9551,41 C1343.9551,51 1325.9551,51 1325.9551,51 C1325.9551,51 1307.9551,51 1307.9551,41 L1307.9551,15 " fill="#E2E2F0" style="stroke:#181818;stroke-width:1.5;"/><path d="M1307.9551,15 C1307.9551,25 1325.9551,25 1325.9551,25 C1325.9551,25 1343.9551,25 1343.9551,15 " fill="none" style="stroke:#181818;stroke-width:1.5;"/><text fill="#333333" font-family="sans-serif" font-size="14" lengthAdjust="spacing" textLength="77.5264" x="1284.1919" y="950.7188">UTXO Store</text><path d="M1307.9551,963.6719 C1307.9551,953.6719 1325.9551,953.6719 1325.9551,953.6719 C1325.9551,953.6719 1343.9551,953.6719 1343.9551,963.6719 L1343.9551,989.6719 C1343.9551,999.6719 1325.9551,999.6719 1325.9551,999.6719 C1325.9551,999.6719 1307.9551,999.6719 1307.9551,989.6719 L1307.9551,963.6719 " fill="#E2E2F0" style="stroke:#181818;stroke-width:1.5;"/><path d="M1307.9551,963.6719 C1307.9551,973.6719 1325.9551,973.6719 1325.9551,973.6719 C1325.9551,973.6719 1343.9551,973.6719 1343.9551,963.6719 " fill="none" style="stroke:#181818;stroke-width:1.5;"/><text fill="#333333" font-family="sans-serif" font-size="14" lengthAdjust="spacing" textLength="90.9385" x="1377.7183" y="64.5352">Subtree Store</text><path d="M1408.1875,15 C1408.1875,5 1426.1875,5 1426.1875,5 C1426.1875,5 1444.1875,5 1444.1875,15 L1444.1875,41 C1444.1875,51 1426.1875,51 1426.1875,51 C1426.1875,51 1408.1875,51 1408.1875,41 L1408.1875,15 " fill="#E2E2F0" style="stroke:#181818;stroke-width:1.5;"/><path d="M1408.1875,15 C1408.1875,25 1426.1875,25 1426.1875,25 C1426.1875,25 1444.1875,25 1444.1875,15 " fill="none" style="stroke:#181818;stroke-width:1.5;"/><text fill="#333333" font-family="sans-serif" font-size="14" lengthAdjust="spacing" textLength="90.9385" x="1377.7183" y="950.7188">Subtree Store</text><path d="M1408.1875,963.6719 C1408.1875,953.6719 1426.1875,953.6719 1426.1875,953.6719 C1426.1875,953.6719 1444.1875,953.6719 1444.1875,963.6719 L1444.1875,989.6719 C1444.1875,999.6719 1426.1875,999.6719 1426.1875,999.6719 C1426.1875,999.6719 1408.1875,999.6719 1408.1875,989.6719 L1408.1875,963.6719 " fill="#E2E2F0" style="stroke:#181818;stroke-width:1.5;"/><path d="M1408.1875,963.6719 C1408.1875,973.6719 1426.1875,973.6719 1426.1875,973.6719 C1426.1875,973.6719 1444.1875,973.6719 1444.1875,963.6719 " fill="none" style="stroke:#181818;stroke-width:1.5;"/><rect fill="#DDDDDD" height="30.4883" rx="2.5" ry="2.5" style="stroke:#666666;stroke-width:0.5;" width="130.3135" x="1484.6567" y="36"/><text fill="#333333" font-family="sans-serif" font-size="14" lengthAdjust="spacing" textLength="116.3135" x="1491.6567" y="56.5352">Blockchain Client</text><rect fill="#DDDDDD" height="30.4883" rx="2.5" ry="2.5" style="stroke:#666666;stroke-width:0.5;" width="130.3135" x="1484.6567" y="937.1836"/><text fill="#333333" font-family="sans-serif" font-size="14" lengthAdjust="spacing" textLength="116.3135" x="1491.6567" y="957.7188">Blockchain Client</text><rect fill="#FFFFFF" height="830.3848" style="stroke:#181818;stroke-width:1.0;" width="10" x="223.3325" y="98.7988"/><rect fill="#FFFFFF" height="801.0742" style="stroke:#181818;stroke-width:1.0;" width="10" x="478.0679" y="128.1094"/><rect fill="#FFFFFF" height="153.5527" style="stroke:#181818;stroke-width:1.0;" width="10" x="483.0679" y="559.457"/><rect fill="#FFFFFF" height="29.3105" style="stroke:#181818;stroke-width:1.0;" width="10" x="792.7104" y="157.4199"/><rect fill="#FFFFFF" height="29.3105" style="stroke:#181818;stroke-width:1.0;" width="10" x="911.5215" y="216.041"/><rect fill="#FFFFFF" height="29.3105" style="stroke:#181818;stroke-width:1.0;" width="10" x="911.5215" y="742.3203"/><rect fill="#FFFFFF" height="29.3105" style="stroke:#181818;stroke-width:1.0;" width="10" x="1032.5674" y="316.9727"/><rect fill="#FFFFFF" height="29.3105" style="stroke:#181818;stroke-width:1.0;" width="10" x="1206.7192" y="375.5938"/><rect fill="#FFFFFF" height="29.3105" style="stroke:#181818;stroke-width:1.0;" width="10" x="1320.9551" y="434.2148"/><rect fill="#FFFFFF" height="29.3105" style="stroke:#181818;stroke-width:1.0;" width="10" x="1421.1875" y="618.0781"/><rect fill="#FFFFFF" height="29.3105" style="stroke:#181818;stroke-width:1.0;" width="10" x="1544.8135" y="492.8359"/><rect fill="#FFFFFF" height="29.3105" style="stroke:#181818;stroke-width:1.0;" width="10" x="1544.8135" y="683.6992"/><rect fill="#FFFFFF" height="29.3105" style="stroke:#181818;stroke-width:1.0;" width="10" x="1544.8135" y="825.252"/><polygon fill="#666666" points="211.3325,94.7988,221.3325,98.7988,211.3325,102.7988,215.3325,98.7988" style="stroke:#666666;stroke-width:1.0;"/><line style="stroke:#666666;stroke-width:1.0;" x1="35.1294" x2="217.3325" y1="98.7988" y2="98.7988"/><text fill="#333333" font-family="sans-serif" font-size="13" lengthAdjust="spacing" textLength="169.2031" x="42.1294" y="94.0566">Solve the mining challenge</text><polygon fill="#666666" points="466.0679,124.1094,476.0679,128.1094,466.0679,132.1094,470.0679,128.1094" style="stroke:#666666;stroke-width:1.0;"/><line style="stroke:#666666;stroke-width:1.0;" x1="233.3325" x2="472.0679" y1="128.1094" y2="128.1094"/><text fill="#333333" font-family="sans-serif" font-size="13" lengthAdjust="spacing" textLength="225.7354" x="240.3325" y="123.3672">SubmitMiningSolution(ctx, solution)</text><polygon fill="#666666" points="780.7104,153.4199,790.7104,157.4199,780.7104,161.4199,784.7104,157.4199" style="stroke:#666666;stroke-width:1.0;"/><line style="stroke:#666666;stroke-width:1.0;" x1="488.0679" x2="786.7104" y1="157.4199" y2="157.4199"/><text fill="#333333" font-family="sans-serif" font-size="13" lengthAdjust="spacing" textLength="139.5786" x="495.0679" y="152.6777">Add block submission</text><polygon fill="#666666" points="499.0679,182.7305,489.0679,186.7305,499.0679,190.7305,495.0679,186.7305" style="stroke:#666666;stroke-width:1.0;"/><line style="stroke:#666666;stroke-width:1.0;" x1="493.0679" x2="796.7104" y1="186.7305" y2="186.7305"/><text fill="#333333" font-family="sans-serif" font-size="13" lengthAdjust="spacing" textLength="280.6426" x="505.0679" y="181.9883">submitMiningSolution(ctx, blockSubmission)</text><polygon fill="#666666" points="899.5215,212.041,909.5215,216.041,899.5215,220.041,903.5215,216.041" style="stroke:#666666;stroke-width:1.0;"/><line style="stroke:#666666;stroke-width:1.0;" x1="488.0679" x2="905.5215" y1="216.041" y2="216.041"/><text fill="#333333" font-family="sans-serif" font-size="13" lengthAdjust="spacing" textLength="146.853" x="495.0679" y="211.2988">jobItem = Get(*storeId)</text><polygon fill="#666666" points="499.0679,241.3516,489.0679,245.3516,499.0679,249.3516,495.0679,245.3516" style="stroke:#666666;stroke-width:1.0;"/><line style="stroke:#666666;stroke-width:1.0;stroke-dasharray:2.0,2.0;" x1="493.0679" x2="915.5215" y1="245.3516" y2="245.3516"/><text fill="#333333" font-family="sans-serif" font-size="13" lengthAdjust="spacing" textLength="91.1016" x="505.0679" y="240.6094">return jobItem</text><line style="stroke:#666666;stroke-width:1.0;" x1="488.0679" x2="530.0679" y1="274.6621" y2="274.6621"/><line style="stroke:#666666;stroke-width:1.0;" x1="530.0679" x2="530.0679" y1="274.6621" y2="287.6621"/><line style="stroke:#666666;stroke-width:1.0;" x1="489.0679" x2="530.0679" y1="287.6621" y2="287.6621"/><polygon fill="#666666" points="499.0679,283.6621,489.0679,287.6621,499.0679,291.6621,495.0679,287.6621" style="stroke:#666666;stroke-width:1.0;"/><text fill="#333333" font-family="sans-serif" font-size="13" lengthAdjust="spacing" textLength="229.6709" x="495.0679" y="269.9199">Create new block with proof of work</text><polygon fill="#666666" points="1020.5674,312.9727,1030.5674,316.9727,1020.5674,320.9727,1024.5674,316.9727" style="stroke:#666666;stroke-width:1.0;"/><line style="stroke:#666666;stroke-width:1.0;" x1="488.0679" x2="1026.5674" y1="316.9727" y2="316.9727"/><text fill="#333333" font-family="sans-serif" font-size="13" lengthAdjust="spacing" textLength="181.981" x="495.0679" y="312.2305">block.Valid(cntxt, nil, nil, nil)</text><polygon fill="#666666" points="499.0679,342.2832,489.0679,346.2832,499.0679,350.2832,495.0679,346.2832" style="stroke:#666666;stroke-width:1.0;"/><line style="stroke:#666666;stroke-width:1.0;stroke-dasharray:2.0,2.0;" x1="493.0679" x2="1036.5674" y1="346.2832" y2="346.2832"/><text fill="#333333" font-family="sans-serif" font-size="13" lengthAdjust="spacing" textLength="103.2192" x="505.0679" y="341.541">Validation result</text><polygon fill="#666666" points="1194.7192,371.5938,1204.7192,375.5938,1194.7192,379.5938,1198.7192,375.5938" style="stroke:#666666;stroke-width:1.0;"/><line style="stroke:#666666;stroke-width:1.0;" x1="488.0679" x2="1200.7192" y1="375.5938" y2="375.5938"/><text fill="#333333" font-family="sans-serif" font-size="13" lengthAdjust="spacing" textLength="699.6514" x="495.0679" y="370.8516">Set(context.Background(), block.CoinbaseTx.TxIDChainHash().CloneBytes(), block.CoinbaseTx.ExtendedBytes())</text><polygon fill="#666666" points="499.0679,400.9043,489.0679,404.9043,499.0679,408.9043,495.0679,404.9043" style="stroke:#666666;stroke-width:1.0;"/><line style="stroke:#666666;stroke-width:1.0;stroke-dasharray:2.0,2.0;" x1="493.0679" x2="1210.7192" y1="404.9043" y2="404.9043"/><text fill="#333333" font-family="sans-serif" font-size="13" lengthAdjust="spacing" textLength="180.4067" x="505.0679" y="400.1621">Coinbase Transaction stored</text><polygon fill="#666666" points="1308.9551,430.2148,1318.9551,434.2148,1308.9551,438.2148,1312.9551,434.2148" style="stroke:#666666;stroke-width:1.0;"/><line style="stroke:#666666;stroke-width:1.0;" x1="488.0679" x2="1314.9551" y1="434.2148" y2="434.2148"/><text fill="#333333" font-family="sans-serif" font-size="13" lengthAdjust="spacing" textLength="202.4712" x="495.0679" y="429.4727">Create(cntxt, block.CoinbaseTx)</text><polygon fill="#666666" points="499.0679,459.5254,489.0679,463.5254,499.0679,467.5254,495.0679,463.5254" style="stroke:#666666;stroke-width:1.0;"/><line style="stroke:#666666;stroke-width:1.0;stroke-dasharray:2.0,2.0;" x1="493.0679" x2="1324.9551" y1="463.5254" y2="463.5254"/><text fill="#333333" font-family="sans-serif" font-size="13" lengthAdjust="spacing" textLength="164.3662" x="505.0679" y="458.7832">Coinbase Metadata stored</text><polygon fill="#666666" points="1532.8135,488.8359,1542.8135,492.8359,1532.8135,496.8359,1536.8135,492.8359" style="stroke:#666666;stroke-width:1.0;"/><line style="stroke:#666666;stroke-width:1.0;" x1="488.0679" x2="1538.8135" y1="492.8359" y2="492.8359"/><text fill="#333333" font-family="sans-serif" font-size="13" lengthAdjust="spacing" textLength="160.0371" x="495.0679" y="488.0938">AddBlock(cntxt, block, "")</text><polygon fill="#666666" points="499.0679,518.1465,489.0679,522.1465,499.0679,526.1465,495.0679,522.1465" style="stroke:#666666;stroke-width:1.0;"/><line style="stroke:#666666;stroke-width:1.0;" x1="493.0679" x2="1548.8135" y1="522.1465" y2="522.1465"/><text fill="#333333" font-family="sans-serif" font-size="13" lengthAdjust="spacing" textLength="222.5806" x="505.0679" y="517.4043">Block added to the local Blockchain</text><line style="stroke:#666666;stroke-width:1.0;" x1="488.0679" x2="535.0679" y1="546.457" y2="546.457"/><line style="stroke:#666666;stroke-width:1.0;" x1="535.0679" x2="535.0679" y1="546.457" y2="559.457"/><line style="stroke:#666666;stroke-width:1.0;" x1="494.0679" x2="535.0679" y1="559.457" y2="559.457"/><polygon fill="#666666" points="504.0679,555.457,494.0679,559.457,504.0679,563.457,500.0679,559.457" style="stroke:#666666;stroke-width:1.0;"/><text fill="#333333" font-family="sans-serif" font-size="13" lengthAdjust="spacing" textLength="205.3721" x="500.0679" y="541.7148">removeSubtreesTTL(gCtx, block)</text><path d="M390.2026,579.457 L452.3413,579.457 L452.3413,586.7676 L442.3413,596.7676 L390.2026,596.7676 L390.2026,579.457 " fill="#EEEEEE" style="stroke:#000000;stroke-width:1.5;"/><rect fill="none" height="75.9316" style="stroke:#000000;stroke-width:1.5;" width="1094.4541" x="390.2026" y="579.457"/><text fill="#333333" font-family="sans-serif" font-size="13" font-weight="bold" lengthAdjust="spacing" textLength="17.1387" x="405.2026" y="593.0254">alt</text><a href="for" target="_top" title="for" xlink:actuate="onRequest" xlink:href="for" xlink:show="new" xlink:title="for" xlink:type="simple"><text fill="#0000FF" font-family="sans-serif" font-size="11" font-weight="bold" lengthAdjust="spacing" text-decoration="underline" textLength="72.6978" x="467.3413" y="592.0918">each subtree</text></a><polygon fill="#666666" points="1409.1875,614.0781,1419.1875,618.0781,1409.1875,622.0781,1413.1875,618.0781" style="stroke:#666666;stroke-width:1.0;"/><line style="stroke:#666666;stroke-width:1.0;" x1="493.0679" x2="1415.1875" y1="618.0781" y2="618.0781"/><text fill="#333333" font-family="sans-serif" font-size="13" lengthAdjust="spacing" textLength="416.7617" x="500.0679" y="613.3359">SetTTL(setCtx, subtreeHashBytes, 0) # 0 means delete the subtree</text><polygon fill="#666666" points="504.0679,643.3887,494.0679,647.3887,504.0679,651.3887,500.0679,647.3887" style="stroke:#666666;stroke-width:1.0;"/><line style="stroke:#666666;stroke-width:1.0;stroke-dasharray:2.0,2.0;" x1="498.0679" x2="1425.1875" y1="647.3887" y2="647.3887"/><text fill="#333333" font-family="sans-serif" font-size="13" lengthAdjust="spacing" textLength="131.4155" x="510.0679" y="642.6465">Subtree TTL updated</text><polygon fill="#666666" points="1532.8135,679.6992,1542.8135,683.6992,1532.8135,687.6992,1536.8135,683.6992" style="stroke:#666666;stroke-width:1.0;"/><line style="stroke:#666666;stroke-width:1.0;" x1="493.0679" x2="1538.8135" y1="683.6992" y2="683.6992"/><text fill="#333333" font-family="sans-serif" font-size="13" lengthAdjust="spacing" textLength="228.0205" x="500.0679" y="678.957">SetBlockSubtreesSet(ctx, blockHash)</text><polygon fill="#666666" points="499.0679,709.0098,489.0679,713.0098,499.0679,717.0098,495.0679,713.0098" style="stroke:#666666;stroke-width:1.0;"/><line style="stroke:#666666;stroke-width:1.0;stroke-dasharray:2.0,2.0;" x1="493.0679" x2="1548.8135" y1="713.0098" y2="713.0098"/><text fill="#333333" font-family="sans-serif" font-size="13" lengthAdjust="spacing" textLength="194.3843" x="505.0679" y="708.2676">Block Subtrees marked as "set"</text><polygon fill="#666666" points="899.5215,738.3203,909.5215,742.3203,899.5215,746.3203,903.5215,742.3203" style="stroke:#666666;stroke-width:1.0;"/><line style="stroke:#666666;stroke-width:1.0;" x1="488.0679" x2="905.5215" y1="742.3203" y2="742.3203"/><text fill="#333333" font-family="sans-serif" font-size="13" lengthAdjust="spacing" textLength="65.0254" x="495.0679" y="737.5781">DeleteAll()</text><polygon fill="#666666" points="499.0679,767.6309,489.0679,771.6309,499.0679,775.6309,495.0679,771.6309" style="stroke:#666666;stroke-width:1.0;"/><line style="stroke:#666666;stroke-width:1.0;" x1="493.0679" x2="915.5215" y1="771.6309" y2="771.6309"/><text fill="#333333" font-family="sans-serif" font-size="13" lengthAdjust="spacing" textLength="98.1729" x="505.0679" y="766.8887">All jobs deleted</text><path d="M390.2026,786.6309 L452.3413,786.6309 L452.3413,793.9414 L442.3413,803.9414 L390.2026,803.9414 L390.2026,786.6309 " fill="#EEEEEE" style="stroke:#000000;stroke-width:1.5;"/><rect fill="none" height="75.9316" style="stroke:#000000;stroke-width:1.5;" width="1234.7676" x="390.2026" y="786.6309"/><text fill="#333333" font-family="sans-serif" font-size="13" font-weight="bold" lengthAdjust="spacing" textLength="17.1387" x="405.2026" y="800.1992">alt</text><a href="If" target="_top" title="If" xlink:actuate="onRequest" xlink:href="If" xlink:show="new" xlink:title="If" xlink:type="simple"><text fill="#0000FF" font-family="sans-serif" font-size="11" font-weight="bold" lengthAdjust="spacing" text-decoration="underline" textLength="71.4678" x="467.3413" y="799.2656">Error Occurs</text></a><polygon fill="#666666" points="1532.8135,821.252,1542.8135,825.252,1532.8135,829.252,1536.8135,825.252" style="stroke:#666666;stroke-width:1.0;"/><line style="stroke:#666666;stroke-width:1.0;" x1="488.0679" x2="1538.8135" y1="825.252" y2="825.252"/><text fill="#333333" font-family="sans-serif" font-size="13" lengthAdjust="spacing" textLength="278.4336" x="495.0679" y="820.5098">InvalidateBlock(setCtx, block.Header.Hash())</text><polygon fill="#666666" points="499.0679,850.5625,489.0679,854.5625,499.0679,858.5625,495.0679,854.5625" style="stroke:#666666;stroke-width:1.0;"/><line style="stroke:#666666;stroke-width:1.0;stroke-dasharray:2.0,2.0;" x1="493.0679" x2="1548.8135" y1="854.5625" y2="854.5625"/><text fill="#333333" font-family="sans-serif" font-size="13" lengthAdjust="spacing" textLength="106.4883" x="505.0679" y="849.8203">Block invalidated</text><polygon fill="#666666" points="244.3325,886.873,234.3325,890.873,244.3325,894.873,240.3325,890.873" style="stroke:#666666;stroke-width:1.0;"/><line style="stroke:#666666;stroke-width:1.0;stroke-dasharray:2.0,2.0;" x1="238.3325" x2="477.0679" y1="890.873" y2="890.873"/><text fill="#333333" font-family="sans-serif" font-size="13" lengthAdjust="spacing" textLength="81.7705" x="250.3325" y="886.1309">Return result</text><polygon fill="#666666" points="46.1294,916.1836,36.1294,920.1836,46.1294,924.1836,42.1294,920.1836" style="stroke:#666666;stroke-width:1.0;"/><line style="stroke:#666666;stroke-width:1.0;stroke-dasharray:2.0,2.0;" x1="40.1294" x2="222.3325" y1="920.1836" y2="920.1836"/><text fill="#333333" font-family="sans-serif" font-size="13" lengthAdjust="spacing" textLength="81.7705" x="52.1294" y="915.4414">Return result</text><text fill="#333333" font-family="sans-serif" font-size="10" lengthAdjust="spacing" textLength="155.4346" x="0" y="1010.3398">Last Modified On: 24-Feb-2025</text><!--SRC=[fLPjQoCt4FwkNp7uABLBOWA5KWmj9Cwvvt8cS77BmT4FykuuLgsLWYGx3gN__KOlkwlTTLpQBiQxacP6y_BC8zczKC_Sy0eslDW_6NrGvLnBRU3TucRnusB1R2DHufOVf5jevPB8z-79HBWn-YKj_X0Unhw5UzmAXR3HfaHZOKkhN4f0YHKgPpDz6Wht2dynWBiWtRL5itqlxyF3_cQPbO8yD5h-NpFqxqGXdhbo_yqKOxc9qKeeePv6m2t4p-xodTJ57cwjnMeZNs4k1MKZI8ULEBweyeZcYAPLYUEkoYOi73QLi5PeDTy5yNoYA_-htZmwRJ28rGEMwXGTQ3TivbUwH1aZzL-iv8vlk4KOhGrNbXUEjeBMyFeKxRPolwq_FsG2VjWN8QUTGSoaqamK76Qgs76X1eaDiocxB1O6hd_Eapw3HosF26w7K4K1Kf8IrHCo7ykHE-nKYMM3nbWinomcsyMToF31vs9SkDCLs3IQzAocGh9iuAtcLPl1RLb2g2xOPhwrqwamoqS3_-oR_lN0Cs4blh51pzCQE3FuKs-M3Ylu2Nv1D_xE-jbbcGNSOAp-WEk-WmRTmQZQLEv4eznteAC_D-Y55RwaXBq8juDde_KMwFUYpRwl7s0yY-BJtxaKvRXGxkIkG0dP_cLnHE2py1g644pmq0K6BR5g7aLIxRcGUeJmGudp58SdDstPPpn9zPdEjL2-GzQdwVgql9zxV7_WTZUUJETIAxnxTMZFYhy_ELGbbaaYYwPkqFGU1bHRWRp1GtNBFBJQJZ-ufh_hwjJfxVkO-THoGlDrmQyLEkwvuunJhQ6piCa88dHPcEpuTmMZKRzdSrhfJmmG6OcSbvHxS3eG3SrmcPdA7HxorYMu6wpq4HCtslNwu_XftdJpMrJ3fOCl_gIcNNUU4hpo7tJU0GnPg27T04w_WqKNzaYA7du1L5TmCu5tS0CL4apeIY7HHM9Dac67d5HQGlSh-SImsFM9G1x0uPcgJNNsMbsQQYqIsDa_rXn2K7U9-a8EGmSsAVJ1_RlgT_s6klwrUQYusHCIw8GQKI97bqlVNwmh-3O7tuUitqevlioxlUoIWkVSkchbUU8Dm5bkuJrT1Gqy5CN1sBEu6VRMKXqZBM9iiHf4aGC-8AVhrpGosQIBaq5MclqkvBrEksYs7Q1bO3SWfXD8_whmAHvEYTKxzm1_ZeHJjI_596uTtOkr8uiVkNN-211RGHXuK3Funlis7fNbzMgrkdwbXzZcAm00]--></g></svg>
