<svg xmlns="http://www.w3.org/2000/svg" xmlns:xlink="http://www.w3.org/1999/xlink" contentStyleType="text/css" height="557px" preserveAspectRatio="none" style="width:643px;height:557px;background:#F0F8FF;" version="1.1" viewBox="0 0 643 557" width="643px" zoomAndPan="magnify"><defs/><g><rect fill="#F0F8FF" height="557" style="stroke:none;stroke-width:1.0;" width="643" x="0" y="0"/><rect fill="#FFFFFF" height="112.2422" style="stroke:#181818;stroke-width:1.0;" width="10" x="314.6133" y="98.7988"/><rect fill="#FFFFFF" height="29.3105" style="stroke:#181818;stroke-width:1.0;" width="10" x="503.5952" y="255.3066"/><rect fill="#FFFFFF" height="29.3105" style="stroke:#181818;stroke-width:1.0;" width="10" x="577.9468" y="128.1094"/><rect fill="none" height="285.7051" style="stroke:#000000;stroke-width:1.5;" width="626.605" x="10" y="172.4199"/><rect fill="none" height="151.5078" style="stroke:#000000;stroke-width:1.5;" width="606.605" x="20" y="299.6172"/><rect fill="none" height="46.6211" style="stroke:#000000;stroke-width:1.5;" width="376.062" x="240.543" y="368.1934"/><line style="stroke:#181818;stroke-width:0.5;stroke-dasharray:5.0,5.0;" x1="76" x2="76" y1="67.4883" y2="475.125"/><line style="stroke:#181818;stroke-width:0.5;stroke-dasharray:5.0,5.0;" x1="319.543" x2="319.543" y1="67.4883" y2="475.125"/><line style="stroke:#181818;stroke-width:0.5;stroke-dasharray:5.0,5.0;" x1="507.9019" x2="507.9019" y1="67.4883" y2="475.125"/><line style="stroke:#181818;stroke-width:0.5;stroke-dasharray:5.0,5.0;" x1="582.2886" x2="582.2886" y1="67.4883" y2="475.125"/><rect fill="#DDDDDD" height="30.4883" rx="2.5" ry="2.5" style="stroke:#666666;stroke-width:0.5;" width="92.832" x="30" y="36"/><text fill="#333333" font-family="sans-serif" font-size="14" lengthAdjust="spacing" textLength="78.832" x="37" y="56.5352">Client Code</text><rect fill="#DDDDDD" height="30.4883" rx="2.5" ry="2.5" style="stroke:#666666;stroke-width:0.5;" width="92.832" x="30" y="474.125"/><text fill="#333333" font-family="sans-serif" font-size="14" lengthAdjust="spacing" textLength="78.832" x="37" y="494.6602">Client Code</text><rect fill="#DDDDDD" height="30.4883" rx="2.5" ry="2.5" style="stroke:#666666;stroke-width:0.5;" width="138.1406" x="250.543" y="36"/><text fill="#333333" font-family="sans-serif" font-size="14" lengthAdjust="spacing" textLength="124.1406" x="257.543" y="56.5352">Blockchain Service</text><rect fill="#DDDDDD" height="30.4883" rx="2.5" ry="2.5" style="stroke:#666666;stroke-width:0.5;" width="138.1406" x="250.543" y="474.125"/><text fill="#333333" font-family="sans-serif" font-size="14" lengthAdjust="spacing" textLength="124.1406" x="257.543" y="494.6602">Blockchain Service</text><text fill="#333333" font-family="sans-serif" font-size="14" lengthAdjust="spacing" textLength="75.3867" x="467.9019" y="64.5352">Block Store</text><path d="M490.5952,15 C490.5952,5 508.5952,5 508.5952,5 C508.5952,5 526.5952,5 526.5952,15 L526.5952,41 C526.5952,51 508.5952,51 508.5952,51 C508.5952,51 490.5952,51 490.5952,41 L490.5952,15 " fill="#E2E2F0" style="stroke:#181818;stroke-width:1.5;"/><path d="M490.5952,15 C490.5952,25 508.5952,25 508.5952,25 C508.5952,25 526.5952,25 526.5952,15 " fill="none" style="stroke:#181818;stroke-width:1.5;"/><text fill="#333333" font-family="sans-serif" font-size="14" lengthAdjust="spacing" textLength="75.3867" x="467.9019" y="487.6602">Block Store</text><path d="M490.5952,500.6133 C490.5952,490.6133 508.5952,490.6133 508.5952,490.6133 C508.5952,490.6133 526.5952,490.6133 526.5952,500.6133 L526.5952,526.6133 C526.5952,536.6133 508.5952,536.6133 508.5952,536.6133 C508.5952,536.6133 490.5952,536.6133 490.5952,526.6133 L490.5952,500.6133 " fill="#E2E2F0" style="stroke:#181818;stroke-width:1.5;"/><path d="M490.5952,500.6133 C490.5952,510.6133 508.5952,510.6133 508.5952,510.6133 C508.5952,510.6133 526.5952,510.6133 526.5952,500.6133 " fill="none" style="stroke:#181818;stroke-width:1.5;"/><text fill="#333333" font-family="sans-serif" font-size="14" lengthAdjust="spacing" textLength="41.3164" x="559.2886" y="64.5352">Model</text><ellipse cx="582.9468" cy="35" fill="#DDDDDD" rx="12" ry="12" style="stroke:#666666;stroke-width:0.5;"/><line style="stroke:#666666;stroke-width:0.5;" x1="570.9468" x2="594.9468" y1="49" y2="49"/><text fill="#333333" font-family="sans-serif" font-size="14" lengthAdjust="spacing" textLength="41.3164" x="559.2886" y="487.6602">Model</text><ellipse cx="582.9468" cy="506.6133" fill="#DDDDDD" rx="12" ry="12" style="stroke:#666666;stroke-width:0.5;"/><line style="stroke:#666666;stroke-width:0.5;" x1="570.9468" x2="594.9468" y1="520.6133" y2="520.6133"/><rect fill="#FFFFFF" height="112.2422" style="stroke:#181818;stroke-width:1.0;" width="10" x="314.6133" y="98.7988"/><rect fill="#FFFFFF" height="29.3105" style="stroke:#181818;stroke-width:1.0;" width="10" x="503.5952" y="255.3066"/><rect fill="#FFFFFF" height="29.3105" style="stroke:#181818;stroke-width:1.0;" width="10" x="577.9468" y="128.1094"/><polygon fill="#666666" points="302.6133,94.7988,312.6133,98.7988,302.6133,102.7988,306.6133,98.7988" style="stroke:#666666;stroke-width:1.0;"/><line style="stroke:#666666;stroke-width:1.0;" x1="76.416" x2="308.6133" y1="98.7988" y2="98.7988"/><text fill="#333333" font-family="sans-serif" font-size="13" lengthAdjust="spacing" textLength="138.6963" x="83.416" y="94.0566">GetBlock(ctx, request)</text><polygon fill="#666666" points="565.9468,124.1094,575.9468,128.1094,565.9468,132.1094,569.9468,128.1094" style="stroke:#666666;stroke-width:1.0;"/><line style="stroke:#666666;stroke-width:1.0;" x1="324.6133" x2="571.9468" y1="128.1094" y2="128.1094"/><text fill="#333333" font-family="sans-serif" font-size="13" lengthAdjust="spacing" textLength="149.8301" x="331.6133" y="123.3672">NewHash(request.Hash)</text><polygon fill="#666666" points="335.6133,153.4199,325.6133,157.4199,335.6133,161.4199,331.6133,157.4199" style="stroke:#666666;stroke-width:1.0;"/><line style="stroke:#666666;stroke-width:1.0;stroke-dasharray:2.0,2.0;" x1="329.6133" x2="581.9468" y1="157.4199" y2="157.4199"/><text fill="#333333" font-family="sans-serif" font-size="13" lengthAdjust="spacing" textLength="111.6426" x="341.6133" y="152.6777">blockHash / Error</text><path d="M10,172.4199 L72.1387,172.4199 L72.1387,179.7305 L62.1387,189.7305 L10,189.7305 L10,172.4199 " fill="#EEEEEE" style="stroke:#000000;stroke-width:1.5;"/><rect fill="none" height="285.7051" style="stroke:#000000;stroke-width:1.5;" width="626.605" x="10" y="172.4199"/><text fill="#333333" font-family="sans-serif" font-size="13" font-weight="bold" lengthAdjust="spacing" textLength="17.1387" x="25" y="185.9883">alt</text><text fill="#333333" font-family="sans-serif" font-size="11" font-weight="bold" lengthAdjust="spacing" textLength="119.5552" x="87.1387" y="185.0547">[If Error in NewHash]</text><polygon fill="#666666" points="87.416,207.041,77.416,211.041,87.416,215.041,83.416,211.041" style="stroke:#666666;stroke-width:1.0;"/><line style="stroke:#666666;stroke-width:1.0;stroke-dasharray:2.0,2.0;" x1="81.416" x2="318.6133" y1="211.041" y2="211.041"/><text fill="#333333" font-family="sans-serif" font-size="13" lengthAdjust="spacing" textLength="76.8828" x="93.416" y="206.2988">Return Error</text><line style="stroke:#000000;stroke-width:1.0;stroke-dasharray:2.0,2.0;" x1="10" x2="636.605" y1="220.041" y2="220.041"/><text fill="#333333" font-family="sans-serif" font-size="11" font-weight="bold" lengthAdjust="spacing" textLength="163.2275" x="15" y="230.6758">[If Successful Hash Creation]</text><polygon fill="#666666" points="491.5952,251.3066,501.5952,255.3066,491.5952,259.3066,495.5952,255.3066" style="stroke:#666666;stroke-width:1.0;"/><line style="stroke:#666666;stroke-width:1.0;" x1="319.6133" x2="497.5952" y1="255.3066" y2="255.3066"/><text fill="#333333" font-family="sans-serif" font-size="13" lengthAdjust="spacing" textLength="164.9819" x="326.6133" y="250.5645">GetBlock(ctx1, blockHash)</text><polygon fill="#666666" points="330.6133,280.6172,320.6133,284.6172,330.6133,288.6172,326.6133,284.6172" style="stroke:#666666;stroke-width:1.0;"/><line style="stroke:#666666;stroke-width:1.0;stroke-dasharray:2.0,2.0;" x1="324.6133" x2="507.5952" y1="284.6172" y2="284.6172"/><text fill="#333333" font-family="sans-serif" font-size="13" lengthAdjust="spacing" textLength="128.5464" x="336.6133" y="279.875">block, height / Error</text><path d="M20,299.6172 L82.1387,299.6172 L82.1387,306.9277 L72.1387,316.9277 L20,316.9277 L20,299.6172 " fill="#EEEEEE" style="stroke:#000000;stroke-width:1.5;"/><rect fill="none" height="151.5078" style="stroke:#000000;stroke-width:1.5;" width="606.605" x="20" y="299.6172"/><text fill="#333333" font-family="sans-serif" font-size="13" font-weight="bold" lengthAdjust="spacing" textLength="17.1387" x="35" y="313.1855">alt</text><text fill="#333333" font-family="sans-serif" font-size="11" font-weight="bold" lengthAdjust="spacing" textLength="116.123" x="97.1387" y="312.252">[If Error in GetBlock]</text><polygon fill="#666666" points="87.416,334.2383,77.416,338.2383,87.416,342.2383,83.416,338.2383" style="stroke:#666666;stroke-width:1.0;"/><line style="stroke:#666666;stroke-width:1.0;stroke-dasharray:2.0,2.0;" x1="81.416" x2="318.6133" y1="338.2383" y2="338.2383"/><text fill="#333333" font-family="sans-serif" font-size="13" lengthAdjust="spacing" textLength="76.8828" x="93.416" y="333.4961">Return Error</text><line style="stroke:#000000;stroke-width:1.0;stroke-dasharray:2.0,2.0;" x1="20" x2="626.605" y1="347.2383" y2="347.2383"/><text fill="#333333" font-family="sans-serif" font-size="11" font-weight="bold" lengthAdjust="spacing" textLength="132.5264" x="25" y="357.873">[If Successful GetBlock]</text><path d="M240.543,368.1934 L314.9897,368.1934 L314.9897,375.5039 L304.9897,385.5039 L240.543,385.5039 L240.543,368.1934 " fill="#EEEEEE" style="stroke:#000000;stroke-width:1.5;"/><rect fill="none" height="46.6211" style="stroke:#000000;stroke-width:1.5;" width="376.062" x="240.543" y="368.1934"/><text fill="#333333" font-family="sans-serif" font-size="13" font-weight="bold" lengthAdjust="spacing" textLength="29.4468" x="255.543" y="381.7617">loop</text><text fill="#333333" font-family="sans-serif" font-size="11" font-weight="bold" lengthAdjust="spacing" textLength="183.9224" x="329.9897" y="380.8281">[For Each Subtree Hash in block]</text><polygon fill="#666666" points="570.9468,402.8145,580.9468,406.8145,570.9468,410.8145,574.9468,406.8145" style="stroke:#666666;stroke-width:1.0;"/><line style="stroke:#666666;stroke-width:1.0;" x1="319.6133" x2="576.9468" y1="406.8145" y2="406.8145"/><text fill="#333333" font-family="sans-serif" font-size="13" lengthAdjust="spacing" textLength="186.7354" x="326.6133" y="402.0723">Convert SubtreeHash to Bytes</text><polygon fill="#666666" points="87.416,439.125,77.416,443.125,87.416,447.125,83.416,443.125" style="stroke:#666666;stroke-width:1.0;"/><line style="stroke:#666666;stroke-width:1.0;stroke-dasharray:2.0,2.0;" x1="81.416" x2="318.6133" y1="443.125" y2="443.125"/><text fill="#333333" font-family="sans-serif" font-size="13" lengthAdjust="spacing" textLength="219.1973" x="93.416" y="438.3828">Create &amp; Return GetBlockResponse</text><text fill="#333333" font-family="sans-serif" font-size="10" lengthAdjust="spacing" textLength="155.4346" x="0" y="547.2813">Last Modified On: 24-Feb-2025</text><!--SRC=[fLHTZzCm47pthrW50QtKyY4aXFfm3yrT08c2TFq5ZhsvMFNPnTxqg13_7STnSaae284VehKzEpipJUeFoXovu_TGSd6uSxOnChVQEdXIl2hU5GNp0q9YnHjDXJMK86_Y6a6uS_OXNRwDYx7dS8sLCWYbTHATXohSSgq1DTwZ8J_g3rj5P_ZE0BOHFUKAftELrt6n7sp48e92P_N_qeGdAQ6EtD2_KJ4sfiXohO8_oAt43BY7RZ_5RBKL1r5pPM2FxgH41qqravnuoJqc8Ep9keHeAvRootPXXexdiM8ipLvVzLGRU8yKIHQ2lgt0uTS6FIqP5wHEd72OoLBHDaUs3Np6Xm_SrulKzABTZ3gxcV49w_78iftNWk4bt8HNnJ69iox6DS77ghk644EQ5P8669G4qixH1cwH6cSINGiQKVOMK8V80kc-4GAzhneDKKNka9EoPaf-rOKvJUZrwb7zCk8VfyJe8qLRNR2yWXhLNKs3xRdEoD2npkpt6kBbNsVmcnpQumjP_393Mtk48WYuuQ8Eo98SOXTPa5HEiBFeqXkIMtD2HtrlR2KBspEX7rhHIFP7N_7tGNZM6-o5tg8_MkEJeS0IcIuOPXeh2dyubj319-wfrQSgXHA-c0qy3TyJBZ8frxlTRdqEArkodm00]--></g></svg>
