<svg xmlns="http://www.w3.org/2000/svg" xmlns:xlink="http://www.w3.org/1999/xlink" contentStyleType="text/css" height="635px" preserveAspectRatio="none" style="width:886px;height:635px;background:#F0F8FF;" version="1.1" viewBox="0 0 886 635" width="886px" zoomAndPan="magnify"><defs/><g><rect fill="#F0F8FF" height="635" style="stroke:none;stroke-width:1.0;" width="886" x="0" y="0"/><rect fill="#FFFFFF" height="191.4844" style="stroke:#181818;stroke-width:1.0;" width="10" x="444.3247" y="111.1094"/><rect fill="#FFFFFF" height="191.4844" style="stroke:#181818;stroke-width:1.0;" width="10" x="444.3247" y="375.2148"/><rect fill="#FFFFFF" height="29.3105" style="stroke:#181818;stroke-width:1.0;" width="10" x="806.5239" y="140.4199"/><rect fill="#FFFFFF" height="29.3105" style="stroke:#181818;stroke-width:1.0;" width="10" x="806.5239" y="404.5254"/><line style="stroke:#181818;stroke-width:0.5;stroke-dasharray:5.0,5.0;" x1="66" x2="66" y1="36.4883" y2="584.6992"/><line style="stroke:#181818;stroke-width:0.5;stroke-dasharray:5.0,5.0;" x1="196.5752" x2="196.5752" y1="36.4883" y2="584.6992"/><line style="stroke:#181818;stroke-width:0.5;stroke-dasharray:5.0,5.0;" x1="449.1353" x2="449.1353" y1="36.4883" y2="584.6992"/><line style="stroke:#181818;stroke-width:0.5;stroke-dasharray:5.0,5.0;" x1="810.6675" x2="810.6675" y1="36.4883" y2="584.6992"/><rect fill="#DDDDDD" height="30.4883" rx="2.5" ry="2.5" style="stroke:#666666;stroke-width:0.5;" width="122.5752" x="5" y="5"/><text fill="#333333" font-family="sans-serif" font-size="14" lengthAdjust="spacing" textLength="108.5752" x="12" y="25.5352">Block Validation</text><rect fill="#DDDDDD" height="30.4883" rx="2.5" ry="2.5" style="stroke:#666666;stroke-width:0.5;" width="122.5752" x="5" y="583.6992"/><text fill="#333333" font-family="sans-serif" font-size="14" lengthAdjust="spacing" textLength="108.5752" x="12" y="604.2344">Block Validation</text><rect fill="#DDDDDD" height="30.4883" rx="2.5" ry="2.5" style="stroke:#666666;stroke-width:0.5;" width="119.458" x="137.5752" y="5"/><text fill="#333333" font-family="sans-serif" font-size="14" lengthAdjust="spacing" textLength="105.458" x="144.5752" y="25.5352">Block Assembly</text><rect fill="#DDDDDD" height="30.4883" rx="2.5" ry="2.5" style="stroke:#666666;stroke-width:0.5;" width="119.458" x="137.5752" y="583.6992"/><text fill="#333333" font-family="sans-serif" font-size="14" lengthAdjust="spacing" textLength="105.458" x="144.5752" y="604.2344">Block Assembly</text><rect fill="#DDDDDD" height="30.4883" rx="2.5" ry="2.5" style="stroke:#666666;stroke-width:0.5;" width="86.3789" x="406.1353" y="5"/><text fill="#333333" font-family="sans-serif" font-size="14" lengthAdjust="spacing" textLength="72.3789" x="413.1353" y="25.5352">Blockchain</text><rect fill="#DDDDDD" height="30.4883" rx="2.5" ry="2.5" style="stroke:#666666;stroke-width:0.5;" width="86.3789" x="406.1353" y="583.6992"/><text fill="#333333" font-family="sans-serif" font-size="14" lengthAdjust="spacing" textLength="72.3789" x="413.1353" y="604.2344">Blockchain</text><rect fill="#DDDDDD" height="30.4883" rx="2.5" ry="2.5" style="stroke:#666666;stroke-width:0.5;" width="125.7129" x="748.6675" y="5"/><text fill="#333333" font-family="sans-serif" font-size="14" lengthAdjust="spacing" textLength="111.7129" x="755.6675" y="25.5352">Blockchain Store</text><rect fill="#DDDDDD" height="30.4883" rx="2.5" ry="2.5" style="stroke:#666666;stroke-width:0.5;" width="125.7129" x="748.6675" y="583.6992"/><text fill="#333333" font-family="sans-serif" font-size="14" lengthAdjust="spacing" textLength="111.7129" x="755.6675" y="604.2344">Blockchain Store</text><rect fill="#FFFFFF" height="191.4844" style="stroke:#181818;stroke-width:1.0;" width="10" x="444.3247" y="111.1094"/><rect fill="#FFFFFF" height="191.4844" style="stroke:#181818;stroke-width:1.0;" width="10" x="444.3247" y="375.2148"/><rect fill="#FFFFFF" height="29.3105" style="stroke:#181818;stroke-width:1.0;" width="10" x="806.5239" y="140.4199"/><rect fill="#FFFFFF" height="29.3105" style="stroke:#181818;stroke-width:1.0;" width="10" x="806.5239" y="404.5254"/><rect fill="#EEEEEE" height="3" style="stroke:#EEEEEE;stroke-width:1.0;" width="879.3804" x="0" y="67.1436"/><line style="stroke:#000000;stroke-width:1.0;" x1="0" x2="879.3804" y1="67.1436" y2="67.1436"/><line style="stroke:#000000;stroke-width:1.0;" x1="0" x2="879.3804" y1="70.1436" y2="70.1436"/><rect fill="#EEEEEE" height="23.3105" style="stroke:#000000;stroke-width:2.0;" width="274.9521" x="302.2141" y="56.4883"/><text fill="#333333" font-family="sans-serif" font-size="13" font-weight="bold" lengthAdjust="spacing" textLength="256.6675" x="308.2141" y="73.0566">Block Validation validates a new block</text><polygon fill="#666666" points="432.3247,107.1094,442.3247,111.1094,432.3247,115.1094,436.3247,111.1094" style="stroke:#666666;stroke-width:1.0;"/><line style="stroke:#666666;stroke-width:1.0;" x1="66.2876" x2="438.3247" y1="111.1094" y2="111.1094"/><text fill="#333333" font-family="sans-serif" font-size="13" lengthAdjust="spacing" textLength="228.0205" x="73.2876" y="106.3672">SetBlockSubtreesSet(ctx, blockHash)</text><polygon fill="#666666" points="794.5239,136.4199,804.5239,140.4199,794.5239,144.4199,798.5239,140.4199" style="stroke:#666666;stroke-width:1.0;"/><line style="stroke:#666666;stroke-width:1.0;" x1="454.3247" x2="800.5239" y1="140.4199" y2="140.4199"/><text fill="#333333" font-family="sans-serif" font-size="13" lengthAdjust="spacing" textLength="228.0205" x="461.3247" y="135.6777">SetBlockSubtreesSet(ctx, blockHash)</text><polygon fill="#666666" points="465.3247,165.7305,455.3247,169.7305,465.3247,173.7305,461.3247,169.7305" style="stroke:#666666;stroke-width:1.0;"/><line style="stroke:#666666;stroke-width:1.0;stroke-dasharray:2.0,2.0;" x1="459.3247" x2="810.5239" y1="169.7305" y2="169.7305"/><text fill="#333333" font-family="sans-serif" font-size="13" lengthAdjust="spacing" textLength="23.2261" x="471.3247" y="164.9883">Ack</text><line style="stroke:#666666;stroke-width:1.0;" x1="454.3247" x2="496.3247" y1="260.2832" y2="260.2832"/><line style="stroke:#666666;stroke-width:1.0;" x1="496.3247" x2="496.3247" y1="260.2832" y2="273.2832"/><line style="stroke:#666666;stroke-width:1.0;" x1="455.3247" x2="496.3247" y1="273.2832" y2="273.2832"/><polygon fill="#666666" points="465.3247,269.2832,455.3247,273.2832,465.3247,277.2832,461.3247,273.2832" style="stroke:#666666;stroke-width:1.0;"/><text fill="#333333" font-family="sans-serif" font-size="13" lengthAdjust="spacing" textLength="131.5869" x="461.3247" y="194.2988">SendNotification(ctx,</text><text fill="#333333" font-family="sans-serif" font-size="13" lengthAdjust="spacing" textLength="184.1963" x="473.6646" y="209.6094">&amp;blockchain_api.Notification{</text><text fill="#333333" font-family="sans-serif" font-size="13" lengthAdjust="spacing" textLength="303.5195" x="481.8911" y="224.9199">Type: model.NotificationType_BlockSubtreesSet,</text><text fill="#333333" font-family="sans-serif" font-size="13" lengthAdjust="spacing" textLength="138.2646" x="481.8911" y="240.2305">Hash: blockHashBytes</text><text fill="#333333" font-family="sans-serif" font-size="13" lengthAdjust="spacing" textLength="8.4551" x="461.3247" y="255.541">})</text><polygon fill="#666666" points="77.2876,298.5938,67.2876,302.5938,77.2876,306.5938,73.2876,302.5938" style="stroke:#666666;stroke-width:1.0;"/><line style="stroke:#666666;stroke-width:1.0;stroke-dasharray:2.0,2.0;" x1="71.2876" x2="448.3247" y1="302.5938" y2="302.5938"/><text fill="#333333" font-family="sans-serif" font-size="13" lengthAdjust="spacing" textLength="23.2261" x="83.2876" y="297.8516">Ack</text><rect fill="#EEEEEE" height="3" style="stroke:#EEEEEE;stroke-width:1.0;" width="879.3804" x="0" y="331.249"/><line style="stroke:#000000;stroke-width:1.0;" x1="0" x2="879.3804" y1="331.249" y2="331.249"/><line style="stroke:#000000;stroke-width:1.0;" x1="0" x2="879.3804" y1="334.249" y2="334.249"/><rect fill="#EEEEEE" height="23.3105" style="stroke:#000000;stroke-width:2.0;" width="252.1323" x="313.624" y="320.5938"/><text fill="#333333" font-family="sans-serif" font-size="13" font-weight="bold" lengthAdjust="spacing" textLength="233.8477" x="319.624" y="337.1621">Block Assembly mines a new block</text><polygon fill="#666666" points="432.3247,371.2148,442.3247,375.2148,432.3247,379.2148,436.3247,375.2148" style="stroke:#666666;stroke-width:1.0;"/><line style="stroke:#666666;stroke-width:1.0;" x1="197.3042" x2="438.3247" y1="375.2148" y2="375.2148"/><text fill="#333333" font-family="sans-serif" font-size="13" lengthAdjust="spacing" textLength="228.0205" x="204.3042" y="370.4727">SetBlockSubtreesSet(ctx, blockHash)</text><polygon fill="#666666" points="794.5239,400.5254,804.5239,404.5254,794.5239,408.5254,798.5239,404.5254" style="stroke:#666666;stroke-width:1.0;"/><line style="stroke:#666666;stroke-width:1.0;" x1="454.3247" x2="800.5239" y1="404.5254" y2="404.5254"/><text fill="#333333" font-family="sans-serif" font-size="13" lengthAdjust="spacing" textLength="228.0205" x="461.3247" y="399.7832">SetBlockSubtreesSet(ctx, blockHash)</text><polygon fill="#666666" points="465.3247,429.8359,455.3247,433.8359,465.3247,437.8359,461.3247,433.8359" style="stroke:#666666;stroke-width:1.0;"/><line style="stroke:#666666;stroke-width:1.0;stroke-dasharray:2.0,2.0;" x1="459.3247" x2="810.5239" y1="433.8359" y2="433.8359"/><text fill="#333333" font-family="sans-serif" font-size="13" lengthAdjust="spacing" textLength="23.2261" x="471.3247" y="429.0938">Ack</text><line style="stroke:#666666;stroke-width:1.0;" x1="454.3247" x2="496.3247" y1="524.3887" y2="524.3887"/><line style="stroke:#666666;stroke-width:1.0;" x1="496.3247" x2="496.3247" y1="524.3887" y2="537.3887"/><line style="stroke:#666666;stroke-width:1.0;" x1="455.3247" x2="496.3247" y1="537.3887" y2="537.3887"/><polygon fill="#666666" points="465.3247,533.3887,455.3247,537.3887,465.3247,541.3887,461.3247,537.3887" style="stroke:#666666;stroke-width:1.0;"/><text fill="#333333" font-family="sans-serif" font-size="13" lengthAdjust="spacing" textLength="131.5869" x="461.3247" y="458.4043">SendNotification(ctx,</text><text fill="#333333" font-family="sans-serif" font-size="13" lengthAdjust="spacing" textLength="184.1963" x="473.6646" y="473.7148">&amp;blockchain_api.Notification{</text><text fill="#333333" font-family="sans-serif" font-size="13" lengthAdjust="spacing" textLength="303.5195" x="481.8911" y="489.0254">Type: model.NotificationType_BlockSubtreesSet,</text><text fill="#333333" font-family="sans-serif" font-size="13" lengthAdjust="spacing" textLength="138.2646" x="481.8911" y="504.3359">Hash: blockHashBytes</text><text fill="#333333" font-family="sans-serif" font-size="13" lengthAdjust="spacing" textLength="8.4551" x="461.3247" y="519.6465">})</text><polygon fill="#666666" points="208.3042,562.6992,198.3042,566.6992,208.3042,570.6992,204.3042,566.6992" style="stroke:#666666;stroke-width:1.0;"/><line style="stroke:#666666;stroke-width:1.0;stroke-dasharray:2.0,2.0;" x1="202.3042" x2="448.3247" y1="566.6992" y2="566.6992"/><text fill="#333333" font-family="sans-serif" font-size="13" lengthAdjust="spacing" textLength="23.2261" x="214.3042" y="561.957">Ack</text><text fill="#333333" font-family="sans-serif" font-size="10" lengthAdjust="spacing" textLength="155.4346" x="0" y="625.8555">Last Modified On: 24-Feb-2025</text><!--SRC=[xLJ1IWCn4BtFLmmLjGKhWY0YLB3Aui7geU99a6mogw7Pf2IfkeZ_RffrstInFTIB1tDOTYPl7k_joyPDf9uooqhC6PyyMpFJuj8eOt4dEyfEimpS0Y6eO3FbCwFzD-GuhWJ2h3LltvidSG7iunKLKXFcnWgo3ekmovH2KbIIzYwP3wNq5Nu0uZ2YLxb2jwtoAYxuX8I51uNMgD_IXAUNN4wPzjjH0QGKdQ4oV88FJ4d1l3IwWynXR2vxFqrSE4TbhgeblkdyWEOlJ2RCiLm7mx4tbbhWs0CO3B2j5r_hLtB8KDCRvX4m602qN63_F64ymp7vM8vdkRT4BjHTxjyFQePhvbvwmBYNhu4yrGs9rXNAA79htjfYgyP-I_G5du2WjUDhjSrbQN5hl2maZv-ZrlIe4N4lN-2Us5GUfh2F6e9uNqs3kT88KYk0UV-fRVYWcPhRFLiw7rOXg4VzsLiHsYXTPhN1Q78AcXE7PVYJr-I_mFod_yVJRvBQc3qeAdouh8qdYpVCUHmP4TIGmBjWStT-4tGxGlH7er6_2glJWoy0]--></g></svg>
