<svg xmlns="http://www.w3.org/2000/svg" xmlns:xlink="http://www.w3.org/1999/xlink" contentStyleType="text/css" height="362px" preserveAspectRatio="none" style="width:489px;height:362px;background:#FFFFFF;" version="1.1" viewBox="0 0 489 362" width="489px" zoomAndPan="magnify"><defs/><g><rect fill="#FFFFFF" height="171.5078" style="stroke:#181818;stroke-width:1.0;" width="10" x="267.0493" y="98.7988"/><rect fill="#FFFFFF" height="29.3105" style="stroke:#181818;stroke-width:1.0;" width="10" x="449.9038" y="128.1094"/><rect fill="none" height="90.8867" style="stroke:#000000;stroke-width:1.5;" width="341.1196" x="10" y="172.4199"/><line style="stroke:#181818;stroke-width:0.5;stroke-dasharray:5.0,5.0;" x1="46" x2="46" y1="67.4883" y2="280.3066"/><line style="stroke:#181818;stroke-width:0.5;stroke-dasharray:5.0,5.0;" x1="271.979" x2="271.979" y1="67.4883" y2="280.3066"/><line style="stroke:#181818;stroke-width:0.5;stroke-dasharray:5.0,5.0;" x1="454.4517" x2="454.4517" y1="67.4883" y2="280.3066"/><rect fill="#E2E2F0" height="30.4883" rx="2.5" ry="2.5" style="stroke:#181818;stroke-width:0.5;" width="53.5049" x="20" y="36"/><text fill="#000000" font-family="sans-serif" font-size="14" lengthAdjust="spacing" textLength="39.5049" x="27" y="56.5352">Client</text><rect fill="#E2E2F0" height="30.4883" rx="2.5" ry="2.5" style="stroke:#181818;stroke-width:0.5;" width="53.5049" x="20" y="279.3066"/><text fill="#000000" font-family="sans-serif" font-size="14" lengthAdjust="spacing" textLength="39.5049" x="27" y="299.8418">Client</text><rect fill="#E2E2F0" height="30.4883" rx="2.5" ry="2.5" style="stroke:#181818;stroke-width:0.5;" width="138.1406" x="202.979" y="36"/><text fill="#000000" font-family="sans-serif" font-size="14" lengthAdjust="spacing" textLength="124.1406" x="209.979" y="56.5352">Blockchain Service</text><rect fill="#E2E2F0" height="30.4883" rx="2.5" ry="2.5" style="stroke:#181818;stroke-width:0.5;" width="138.1406" x="202.979" y="279.3066"/><text fill="#000000" font-family="sans-serif" font-size="14" lengthAdjust="spacing" textLength="124.1406" x="209.979" y="299.8418">Blockchain Service</text><text fill="#000000" font-family="sans-serif" font-size="14" lengthAdjust="spacing" textLength="34.9043" x="434.4517" y="64.5352">Store</text><path d="M436.9038,15 C436.9038,5 454.9038,5 454.9038,5 C454.9038,5 472.9038,5 472.9038,15 L472.9038,41 C472.9038,51 454.9038,51 454.9038,51 C454.9038,51 436.9038,51 436.9038,41 L436.9038,15 " fill="#E2E2F0" style="stroke:#181818;stroke-width:1.5;"/><path d="M436.9038,15 C436.9038,25 454.9038,25 454.9038,25 C454.9038,25 472.9038,25 472.9038,15 " fill="none" style="stroke:#181818;stroke-width:1.5;"/><text fill="#000000" font-family="sans-serif" font-size="14" lengthAdjust="spacing" textLength="34.9043" x="434.4517" y="292.8418">Store</text><path d="M436.9038,305.7949 C436.9038,295.7949 454.9038,295.7949 454.9038,295.7949 C454.9038,295.7949 472.9038,295.7949 472.9038,305.7949 L472.9038,331.7949 C472.9038,341.7949 454.9038,341.7949 454.9038,341.7949 C454.9038,341.7949 436.9038,341.7949 436.9038,331.7949 L436.9038,305.7949 " fill="#E2E2F0" style="stroke:#181818;stroke-width:1.5;"/><path d="M436.9038,305.7949 C436.9038,315.7949 454.9038,315.7949 454.9038,315.7949 C454.9038,315.7949 472.9038,315.7949 472.9038,305.7949 " fill="none" style="stroke:#181818;stroke-width:1.5;"/><rect fill="#FFFFFF" height="171.5078" style="stroke:#181818;stroke-width:1.0;" width="10" x="267.0493" y="98.7988"/><rect fill="#FFFFFF" height="29.3105" style="stroke:#181818;stroke-width:1.0;" width="10" x="449.9038" y="128.1094"/><polygon fill="#181818" points="255.0493,94.7988,265.0493,98.7988,255.0493,102.7988,259.0493,98.7988" style="stroke:#181818;stroke-width:1.0;"/><line style="stroke:#181818;stroke-width:1.0;" x1="46.7524" x2="261.0493" y1="98.7988" y2="98.7988"/><text fill="#000000" font-family="sans-serif" font-size="13" lengthAdjust="spacing" textLength="201.2969" x="53.7524" y="94.0566">GetBestBlockHeader(ctx, empty)</text><polygon fill="#181818" points="437.9038,124.1094,447.9038,128.1094,437.9038,132.1094,441.9038,128.1094" style="stroke:#181818;stroke-width:1.0;"/><line style="stroke:#181818;stroke-width:1.0;" x1="277.0493" x2="443.9038" y1="128.1094" y2="128.1094"/><text fill="#000000" font-family="sans-serif" font-size="13" lengthAdjust="spacing" textLength="153.8545" x="284.0493" y="123.3672">GetBestBlockHeader(ctx)</text><polygon fill="#181818" points="288.0493,153.4199,278.0493,157.4199,288.0493,161.4199,284.0493,157.4199" style="stroke:#181818;stroke-width:1.0;"/><line style="stroke:#181818;stroke-width:1.0;stroke-dasharray:2.0,2.0;" x1="282.0493" x2="453.9038" y1="157.4199" y2="157.4199"/><text fill="#000000" font-family="sans-serif" font-size="13" lengthAdjust="spacing" textLength="119.647" x="294.0493" y="152.6777">chainTip, meta, err</text><path d="M10,172.4199 L72.1387,172.4199 L72.1387,179.7305 L62.1387,189.7305 L10,189.7305 L10,172.4199 " fill="#EEEEEE" style="stroke:#000000;stroke-width:1.5;"/><rect fill="none" height="90.8867" style="stroke:#000000;stroke-width:1.5;" width="341.1196" x="10" y="172.4199"/><text fill="#000000" font-family="sans-serif" font-size="13" font-weight="bold" lengthAdjust="spacing" textLength="17.1387" x="25" y="185.9883">alt</text><text fill="#000000" font-family="sans-serif" font-size="11" font-weight="bold" lengthAdjust="spacing" textLength="48.6191" x="87.1387" y="185.0547">[If Error]</text><polygon fill="#181818" points="57.7524,207.041,47.7524,211.041,57.7524,215.041,53.7524,211.041" style="stroke:#181818;stroke-width:1.0;"/><line style="stroke:#181818;stroke-width:1.0;stroke-dasharray:2.0,2.0;" x1="51.7524" x2="266.0493" y1="211.041" y2="211.041"/><text fill="#000000" font-family="sans-serif" font-size="13" lengthAdjust="spacing" textLength="76.8828" x="63.7524" y="206.2988">Return Error</text><line style="stroke:#000000;stroke-width:1.0;stroke-dasharray:2.0,2.0;" x1="10" x2="351.1196" y1="220.041" y2="220.041"/><text fill="#000000" font-family="sans-serif" font-size="11" font-weight="bold" lengthAdjust="spacing" textLength="79.4492" x="15" y="230.6758">[If Successful]</text><polygon fill="#181818" points="57.7524,251.3066,47.7524,255.3066,57.7524,259.3066,53.7524,255.3066" style="stroke:#181818;stroke-width:1.0;"/><line style="stroke:#181818;stroke-width:1.0;stroke-dasharray:2.0,2.0;" x1="51.7524" x2="266.0493" y1="255.3066" y2="255.3066"/><text fill="#000000" font-family="sans-serif" font-size="13" lengthAdjust="spacing" textLength="159.8911" x="63.7524" y="250.5645">GetBlockHeaderResponse</text><text fill="#888888" font-family="sans-serif" font-size="10" lengthAdjust="spacing" textLength="154.8389" x="0" y="352.4629">Last Modified On: 18-Oct-2024</text><!--SRC=[TL3DQiCm3BxhAKHWq4Bp0Zdiq36smSAWsGjejipCNDlOIbdVVewJTjcWEfWFfE_FaP9OPIDvmUR1MVRI86MS8SJrUk-2-bAVP3qEd4vMSJrTC6WI-g3Cs0mIqhAR4C2iXktzvRZ39vOzPwcQpqoQqqR9zmxv6EMy1L9YJoHyLOS5L959zPR4cblTwuljshoMUBTnXqSMAgOfWUP_F20d-6BmCQMG0CjS8nIjkLA71vOn-UM8NQbVACEe5ETiHdUJDuN_3NxW78FF3Emr_8bogU_O29eGX1E-KXRiWxR6iiOtt-5T-NpUD5gtVT-tvpBD5du0]--></g></svg>
