<svg contentStyleType="text/css" height="699" preserveAspectRatio="none" viewBox="0 0 848 699" width="848" xmlns="http://www.w3.org/2000/svg" zoomAndPan="magnify"><path d="m0 0h848v699h-848z" fill="#f0f8ff"/><path d="m195.2451 464.1699h10v135.2422h-10z" fill="#fff" stroke="#181818"/><path d="m433.6118 128.1094h10v277.4395h-10z" fill="#fff" stroke="#181818"/><path d="m777.168 157.4199h10v29.3105h-10z" fill="#fff" stroke="#181818"/><path d="m30 334.9727h108.9199v63.5762h-108.9199z" fill="none" stroke="#000" stroke-width="1.5"/><path d="m40 374.2383h88.0098v17.3105h-88.0098z" fill="none" stroke="#000" stroke-width="1.5"/><path d="m56 67.4883v549.9238" stroke="#181818" stroke-dasharray="5 5" stroke-width=".5"/><path d="m200.0884 67.4883v549.9238" stroke="#181818" stroke-dasharray="5 5" stroke-width=".5"/><path d="m438.2861 67.4883v549.9238" stroke="#181818" stroke-dasharray="5 5" stroke-width=".5"/><path d="m781.248 67.4883v549.9238" stroke="#181818" stroke-dasharray="5 5" stroke-width=".5"/><rect fill="#ddd" height="30.4883" rx="2.5" stroke="#666" stroke-width=".5" width="53.5049" x="30" y="36"/><text fill="#333" font-family="sans-serif" font-size="14" lengthAdjust="spacing" textLength="39.5049" x="37" y="56.5352">Client</text><rect fill="#ddd" height="30.4883" rx="2.5" stroke="#666" stroke-width=".5" width="53.5049" x="30" y="616.4121"/><text fill="#333" font-family="sans-serif" font-size="14" lengthAdjust="spacing" textLength="39.5049" x="37" y="636.9473">Client</text><rect fill="#ddd" height="30.4883" rx="2.5" stroke="#666" stroke-width=".5" width="130.3135" x="135.0884" y="36"/><text fill="#333" font-family="sans-serif" font-size="14" lengthAdjust="spacing" textLength="116.3135" x="142.0884" y="56.5352">Blockchain Client</text><rect fill="#ddd" height="30.4883" rx="2.5" stroke="#666" stroke-width=".5" width="130.3135" x="135.0884" y="616.4121"/><text fill="#333" font-family="sans-serif" font-size="14" lengthAdjust="spacing" textLength="116.3135" x="142.0884" y="636.9473">Blockchain Client</text><rect fill="#ddd" height="30.4883" rx="2.5" stroke="#666" stroke-width=".5" width="132.6514" x="372.2861" y="36"/><text fill="#333" font-family="sans-serif" font-size="14" lengthAdjust="spacing" textLength="118.6514" x="379.2861" y="56.5352">Blockchain Server</text><rect fill="#ddd" height="30.4883" rx="2.5" stroke="#666" stroke-width=".5" width="132.6514" x="372.2861" y="616.4121"/><text fill="#333" font-family="sans-serif" font-size="14" lengthAdjust="spacing" textLength="118.6514" x="379.2861" y="636.9473">Blockchain Server</text><text fill="#333" font-family="sans-serif" font-size="14" lengthAdjust="spacing" textLength="123.8398" x="717.248" y="64.5352">Subscription Store</text><path d="m764.168 15c0-10 18-10 18-10s18 0 18 10v26c0 10-18 10-18 10s-18 0-18-10z" fill="#e2e2f0" stroke="#181818" stroke-width="1.5"/><path d="m764.168 15c0 10 18 10 18 10s18 0 18-10" fill="none" stroke="#181818" stroke-width="1.5"/><text fill="#333" font-family="sans-serif" font-size="14" lengthAdjust="spacing" textLength="123.8398" x="717.248" y="629.9473">Subscription Store</text><g stroke="#181818"><path d="m764.168 642.9004c0-10 18-10 18-10s18 0 18 10v26c0 10-18 10-18 10s-18 0-18-10z" fill="#e2e2f0" stroke-width="1.5"/><path d="m764.168 642.9004c0 10 18 10 18 10s18 0 18-10" fill="none" stroke-width="1.5"/><path d="m195.2451 464.1699h10v135.2422h-10z" fill="#fff"/><path d="m433.6118 128.1094h10v277.4395h-10z" fill="#fff"/><path d="m777.168 157.4199h10v29.3105h-10z" fill="#fff"/></g><path d="m188.2451 94.7988 10 4-10 4 4-4z" fill="#666" stroke="#666"/><path d="m56.7524 98.7988h137.4927" stroke="#666"/><text fill="#333" font-family="sans-serif" font-size="13" lengthAdjust="spacing" textLength="111.395" x="63.7524" y="94.0566">Subscribe(source)</text><path d="m421.6118 124.1094 10 4-10 4 4-4z" fill="#666" stroke="#666"/><path d="m200.2451 128.1094h227.3667" stroke="#666"/><text fill="#333" font-family="sans-serif" font-size="13" lengthAdjust="spacing" textLength="111.395" x="207.2451" y="123.3672">Subscribe(source)</text><path d="m765.168 153.4199 10 4-10 4 4-4z" fill="#666" stroke="#666"/><path d="m443.6118 157.4199h327.5562" stroke="#666"/><text fill="#333" font-family="sans-serif" font-size="13" lengthAdjust="spacing" textLength="23.5435" x="450.6118" y="152.6777">add</text><path d="m454.6118 182.7305-10 4 10 4-4-4z" fill="#666" stroke="#666"/><path d="m448.6118 186.7305h332.5562" stroke="#666" stroke-dasharray="2 2"/><text fill="#333" font-family="sans-serif" font-size="13" lengthAdjust="spacing" textLength="83.8271" x="460.6118" y="181.9883">Acknowledge</text><path d="m443.6118 240.3516h42" stroke="#666"/><path d="m485.6118 240.3516v13" stroke="#666"/><path d="m444.6118 253.3516h41" stroke="#666"/><path d="m454.6118 249.3516-10 4 10 4-4-4z" fill="#666" stroke="#666"/><text fill="#333" font-family="sans-serif" font-size="13" lengthAdjust="spacing" textLength="309.5562" x="450.6118" y="235.6094">Wait for Client disconnection or Subscription end</text><path d="m443.6118 306.9727h42" stroke="#666"/><path d="m485.6118 306.9727v13" stroke="#666"/><path d="m444.6118 319.9727h41" stroke="#666"/><path d="m454.6118 315.9727-10 4 10 4-4-4z" fill="#666" stroke="#666"/><text fill="#333" font-family="sans-serif" font-size="13" lengthAdjust="spacing" textLength="161.1797" x="450.6118" y="302.2305">Log "Client disconnected"</text><path d="m30 334.9727h83.0098v7.3105l-10 10h-73.0098z" fill="#eee" stroke="#000" stroke-width="1.5"/><path d="m30 334.9727h108.9199v63.5762h-108.9199z" fill="none" stroke="#000" stroke-width="1.5"/><text fill="#333" font-family="sans-serif" font-size="13" font-weight="bold" lengthAdjust="spacing" textLength="38.0098" x="45" y="348.541">break</text><path d="m30 353.2832h108.9199" stroke="#000" stroke-dasharray="2 2"/><text fill="#333" font-family="sans-serif" font-size="11" font-weight="bold" lengthAdjust="spacing" textLength="103.9199" x="35" y="363.918">[Subscription End]</text><path d="m40 374.2383h83.0098v7.3105l-10 10h-73.0098z" fill="#eee" stroke="#000" stroke-width="1.5"/><path d="m40 374.2383h88.0098v17.3105h-88.0098z" fill="none" stroke="#000" stroke-width="1.5"/><text fill="#333" font-family="sans-serif" font-size="13" font-weight="bold" lengthAdjust="spacing" textLength="38.0098" x="55" y="387.8066">break</text><path d="m211.2451 422.8594-10 4 10 4-4-4z" fill="#666" stroke="#666"/><path d="m205.2451 426.8594h232.3667" stroke="#666" stroke-dasharray="2 2"/><text fill="#333" font-family="sans-serif" font-size="13" lengthAdjust="spacing" textLength="214.3667" x="217.2451" y="422.1172">Subscription Established or Ended</text><path d="m200.2451 451.1699h47" stroke="#666"/><path d="m247.2451 451.1699v13" stroke="#666"/><path d="m206.2451 464.1699h41" stroke="#666"/><path d="m216.2451 460.1699-10 4 10 4-4-4z" fill="#666" stroke="#666"/><text fill="#333" font-family="sans-serif" font-size="13" lengthAdjust="spacing" textLength="131.5552" x="212.2451" y="446.4277">Manage Subscription</text><path d="m426.6118 494.4805 10 4-10 4 4-4z" fill="#666" stroke="#666"/><path d="m205.2451 498.4805h227.3667" stroke="#666"/><text fill="#333" font-family="sans-serif" font-size="13" lengthAdjust="spacing" textLength="169.1587" x="212.2451" y="493.7383">Stream Recv (Notifications)</text><path d="m216.2451 523.791-10 4 10 4-4-4z" fill="#666" stroke="#666"/><path d="m210.2451 527.791h227.3667" stroke="#666" stroke-dasharray="2 2"/><text fill="#333" font-family="sans-serif" font-size="13" lengthAdjust="spacing" textLength="114.4927" x="222.2451" y="523.0488">Send Notifications</text><path d="m205.2451 557.1016h42" stroke="#666" stroke-dasharray="2 2"/><path d="m247.2451 557.1016v13" stroke="#666" stroke-dasharray="2 2"/><path d="m206.2451 570.1016h41" stroke="#666" stroke-dasharray="2 2"/><path d="m216.2451 566.1016-10 4 10 4-4-4z" fill="#666" stroke="#666"/><text fill="#333" font-family="sans-serif" font-size="13" lengthAdjust="spacing" textLength="131.644" x="212.2451" y="552.3594">Process Notifications</text><path d="m67.7524 595.4121-10 4 10 4-4-4z" fill="#666" stroke="#666"/><path d="m61.7524 599.4121h137.4927" stroke="#666" stroke-dasharray="2 2"/><text fill="#333" font-family="sans-serif" font-size="13" lengthAdjust="spacing" textLength="114.4927" x="73.7524" y="594.6699">Send Notifications</text><text fill="#333" font-family="sans-serif" font-size="10" lengthAdjust="spacing" textLength="152.2705" y="689.5684">Last Modified On:24-Feb-2025</text></svg>
