<svg xmlns="http://www.w3.org/2000/svg" xmlns:xlink="http://www.w3.org/1999/xlink" contentStyleType="text/css" height="699px" preserveAspectRatio="none" style="width:848px;height:699px;background:#F0F8FF;" version="1.1" viewBox="0 0 848 699" width="848px" zoomAndPan="magnify"><defs/><g><rect fill="#F0F8FF" height="699" style="stroke:none;stroke-width:1.0;" width="848" x="0" y="0"/><rect fill="#FFFFFF" height="135.2422" style="stroke:#181818;stroke-width:1.0;" width="10" x="195.2451" y="464.1699"/><rect fill="#FFFFFF" height="277.4395" style="stroke:#181818;stroke-width:1.0;" width="10" x="433.6118" y="128.1094"/><rect fill="#FFFFFF" height="29.3105" style="stroke:#181818;stroke-width:1.0;" width="10" x="777.168" y="157.4199"/><rect fill="none" height="63.5762" style="stroke:#000000;stroke-width:1.5;" width="108.9199" x="30" y="334.9727"/><rect fill="none" height="17.3105" style="stroke:#000000;stroke-width:1.5;" width="88.0098" x="40" y="374.2383"/><line style="stroke:#181818;stroke-width:0.5;stroke-dasharray:5.0,5.0;" x1="56" x2="56" y1="67.4883" y2="617.4121"/><line style="stroke:#181818;stroke-width:0.5;stroke-dasharray:5.0,5.0;" x1="200.0884" x2="200.0884" y1="67.4883" y2="617.4121"/><line style="stroke:#181818;stroke-width:0.5;stroke-dasharray:5.0,5.0;" x1="438.2861" x2="438.2861" y1="67.4883" y2="617.4121"/><line style="stroke:#181818;stroke-width:0.5;stroke-dasharray:5.0,5.0;" x1="781.248" x2="781.248" y1="67.4883" y2="617.4121"/><rect fill="#DDDDDD" height="30.4883" rx="2.5" ry="2.5" style="stroke:#666666;stroke-width:0.5;" width="53.5049" x="30" y="36"/><text fill="#333333" font-family="sans-serif" font-size="14" lengthAdjust="spacing" textLength="39.5049" x="37" y="56.5352">Client</text><rect fill="#DDDDDD" height="30.4883" rx="2.5" ry="2.5" style="stroke:#666666;stroke-width:0.5;" width="53.5049" x="30" y="616.4121"/><text fill="#333333" font-family="sans-serif" font-size="14" lengthAdjust="spacing" textLength="39.5049" x="37" y="636.9473">Client</text><rect fill="#DDDDDD" height="30.4883" rx="2.5" ry="2.5" style="stroke:#666666;stroke-width:0.5;" width="130.3135" x="135.0884" y="36"/><text fill="#333333" font-family="sans-serif" font-size="14" lengthAdjust="spacing" textLength="116.3135" x="142.0884" y="56.5352">Blockchain Client</text><rect fill="#DDDDDD" height="30.4883" rx="2.5" ry="2.5" style="stroke:#666666;stroke-width:0.5;" width="130.3135" x="135.0884" y="616.4121"/><text fill="#333333" font-family="sans-serif" font-size="14" lengthAdjust="spacing" textLength="116.3135" x="142.0884" y="636.9473">Blockchain Client</text><rect fill="#DDDDDD" height="30.4883" rx="2.5" ry="2.5" style="stroke:#666666;stroke-width:0.5;" width="132.6514" x="372.2861" y="36"/><text fill="#333333" font-family="sans-serif" font-size="14" lengthAdjust="spacing" textLength="118.6514" x="379.2861" y="56.5352">Blockchain Server</text><rect fill="#DDDDDD" height="30.4883" rx="2.5" ry="2.5" style="stroke:#666666;stroke-width:0.5;" width="132.6514" x="372.2861" y="616.4121"/><text fill="#333333" font-family="sans-serif" font-size="14" lengthAdjust="spacing" textLength="118.6514" x="379.2861" y="636.9473">Blockchain Server</text><text fill="#333333" font-family="sans-serif" font-size="14" lengthAdjust="spacing" textLength="123.8398" x="717.248" y="64.5352">Subscription Store</text><path d="M764.168,15 C764.168,5 782.168,5 782.168,5 C782.168,5 800.168,5 800.168,15 L800.168,41 C800.168,51 782.168,51 782.168,51 C782.168,51 764.168,51 764.168,41 L764.168,15 " fill="#E2E2F0" style="stroke:#181818;stroke-width:1.5;"/><path d="M764.168,15 C764.168,25 782.168,25 782.168,25 C782.168,25 800.168,25 800.168,15 " fill="none" style="stroke:#181818;stroke-width:1.5;"/><text fill="#333333" font-family="sans-serif" font-size="14" lengthAdjust="spacing" textLength="123.8398" x="717.248" y="629.9473">Subscription Store</text><path d="M764.168,642.9004 C764.168,632.9004 782.168,632.9004 782.168,632.9004 C782.168,632.9004 800.168,632.9004 800.168,642.9004 L800.168,668.9004 C800.168,678.9004 782.168,678.9004 782.168,678.9004 C782.168,678.9004 764.168,678.9004 764.168,668.9004 L764.168,642.9004 " fill="#E2E2F0" style="stroke:#181818;stroke-width:1.5;"/><path d="M764.168,642.9004 C764.168,652.9004 782.168,652.9004 782.168,652.9004 C782.168,652.9004 800.168,652.9004 800.168,642.9004 " fill="none" style="stroke:#181818;stroke-width:1.5;"/><rect fill="#FFFFFF" height="135.2422" style="stroke:#181818;stroke-width:1.0;" width="10" x="195.2451" y="464.1699"/><rect fill="#FFFFFF" height="277.4395" style="stroke:#181818;stroke-width:1.0;" width="10" x="433.6118" y="128.1094"/><rect fill="#FFFFFF" height="29.3105" style="stroke:#181818;stroke-width:1.0;" width="10" x="777.168" y="157.4199"/><polygon fill="#666666" points="188.2451,94.7988,198.2451,98.7988,188.2451,102.7988,192.2451,98.7988" style="stroke:#666666;stroke-width:1.0;"/><line style="stroke:#666666;stroke-width:1.0;" x1="56.7524" x2="194.2451" y1="98.7988" y2="98.7988"/><text fill="#333333" font-family="sans-serif" font-size="13" lengthAdjust="spacing" textLength="111.395" x="63.7524" y="94.0566">Subscribe(source)</text><polygon fill="#666666" points="421.6118,124.1094,431.6118,128.1094,421.6118,132.1094,425.6118,128.1094" style="stroke:#666666;stroke-width:1.0;"/><line style="stroke:#666666;stroke-width:1.0;" x1="200.2451" x2="427.6118" y1="128.1094" y2="128.1094"/><text fill="#333333" font-family="sans-serif" font-size="13" lengthAdjust="spacing" textLength="111.395" x="207.2451" y="123.3672">Subscribe(source)</text><polygon fill="#666666" points="765.168,153.4199,775.168,157.4199,765.168,161.4199,769.168,157.4199" style="stroke:#666666;stroke-width:1.0;"/><line style="stroke:#666666;stroke-width:1.0;" x1="443.6118" x2="771.168" y1="157.4199" y2="157.4199"/><text fill="#333333" font-family="sans-serif" font-size="13" lengthAdjust="spacing" textLength="23.5435" x="450.6118" y="152.6777">add</text><polygon fill="#666666" points="454.6118,182.7305,444.6118,186.7305,454.6118,190.7305,450.6118,186.7305" style="stroke:#666666;stroke-width:1.0;"/><line style="stroke:#666666;stroke-width:1.0;stroke-dasharray:2.0,2.0;" x1="448.6118" x2="781.168" y1="186.7305" y2="186.7305"/><text fill="#333333" font-family="sans-serif" font-size="13" lengthAdjust="spacing" textLength="83.8271" x="460.6118" y="181.9883">Acknowledge</text><line style="stroke:#666666;stroke-width:1.0;" x1="443.6118" x2="485.6118" y1="240.3516" y2="240.3516"/><line style="stroke:#666666;stroke-width:1.0;" x1="485.6118" x2="485.6118" y1="240.3516" y2="253.3516"/><line style="stroke:#666666;stroke-width:1.0;" x1="444.6118" x2="485.6118" y1="253.3516" y2="253.3516"/><polygon fill="#666666" points="454.6118,249.3516,444.6118,253.3516,454.6118,257.3516,450.6118,253.3516" style="stroke:#666666;stroke-width:1.0;"/><text fill="#333333" font-family="sans-serif" font-size="13" lengthAdjust="spacing" textLength="309.5562" x="450.6118" y="235.6094">Wait for Client disconnection or Subscription end</text><line style="stroke:#666666;stroke-width:1.0;" x1="443.6118" x2="485.6118" y1="306.9727" y2="306.9727"/><line style="stroke:#666666;stroke-width:1.0;" x1="485.6118" x2="485.6118" y1="306.9727" y2="319.9727"/><line style="stroke:#666666;stroke-width:1.0;" x1="444.6118" x2="485.6118" y1="319.9727" y2="319.9727"/><polygon fill="#666666" points="454.6118,315.9727,444.6118,319.9727,454.6118,323.9727,450.6118,319.9727" style="stroke:#666666;stroke-width:1.0;"/><text fill="#333333" font-family="sans-serif" font-size="13" lengthAdjust="spacing" textLength="161.1797" x="450.6118" y="302.2305">Log "Client disconnected"</text><path d="M30,334.9727 L113.0098,334.9727 L113.0098,342.2832 L103.0098,352.2832 L30,352.2832 L30,334.9727 " fill="#EEEEEE" style="stroke:#000000;stroke-width:1.5;"/><rect fill="none" height="63.5762" style="stroke:#000000;stroke-width:1.5;" width="108.9199" x="30" y="334.9727"/><text fill="#333333" font-family="sans-serif" font-size="13" font-weight="bold" lengthAdjust="spacing" textLength="38.0098" x="45" y="348.541">break</text><line style="stroke:#000000;stroke-width:1.0;stroke-dasharray:2.0,2.0;" x1="30" x2="138.9199" y1="353.2832" y2="353.2832"/><text fill="#333333" font-family="sans-serif" font-size="11" font-weight="bold" lengthAdjust="spacing" textLength="103.9199" x="35" y="363.918">[Subscription End]</text><path d="M40,374.2383 L123.0098,374.2383 L123.0098,381.5488 L113.0098,391.5488 L40,391.5488 L40,374.2383 " fill="#EEEEEE" style="stroke:#000000;stroke-width:1.5;"/><rect fill="none" height="17.3105" style="stroke:#000000;stroke-width:1.5;" width="88.0098" x="40" y="374.2383"/><text fill="#333333" font-family="sans-serif" font-size="13" font-weight="bold" lengthAdjust="spacing" textLength="38.0098" x="55" y="387.8066">break</text><polygon fill="#666666" points="211.2451,422.8594,201.2451,426.8594,211.2451,430.8594,207.2451,426.8594" style="stroke:#666666;stroke-width:1.0;"/><line style="stroke:#666666;stroke-width:1.0;stroke-dasharray:2.0,2.0;" x1="205.2451" x2="437.6118" y1="426.8594" y2="426.8594"/><text fill="#333333" font-family="sans-serif" font-size="13" lengthAdjust="spacing" textLength="214.3667" x="217.2451" y="422.1172">Subscription Established or Ended</text><line style="stroke:#666666;stroke-width:1.0;" x1="200.2451" x2="247.2451" y1="451.1699" y2="451.1699"/><line style="stroke:#666666;stroke-width:1.0;" x1="247.2451" x2="247.2451" y1="451.1699" y2="464.1699"/><line style="stroke:#666666;stroke-width:1.0;" x1="206.2451" x2="247.2451" y1="464.1699" y2="464.1699"/><polygon fill="#666666" points="216.2451,460.1699,206.2451,464.1699,216.2451,468.1699,212.2451,464.1699" style="stroke:#666666;stroke-width:1.0;"/><text fill="#333333" font-family="sans-serif" font-size="13" lengthAdjust="spacing" textLength="131.5552" x="212.2451" y="446.4277">Manage Subscription</text><polygon fill="#666666" points="426.6118,494.4805,436.6118,498.4805,426.6118,502.4805,430.6118,498.4805" style="stroke:#666666;stroke-width:1.0;"/><line style="stroke:#666666;stroke-width:1.0;" x1="205.2451" x2="432.6118" y1="498.4805" y2="498.4805"/><text fill="#333333" font-family="sans-serif" font-size="13" lengthAdjust="spacing" textLength="169.1587" x="212.2451" y="493.7383">Stream Recv (Notifications)</text><polygon fill="#666666" points="216.2451,523.791,206.2451,527.791,216.2451,531.791,212.2451,527.791" style="stroke:#666666;stroke-width:1.0;"/><line style="stroke:#666666;stroke-width:1.0;stroke-dasharray:2.0,2.0;" x1="210.2451" x2="437.6118" y1="527.791" y2="527.791"/><text fill="#333333" font-family="sans-serif" font-size="13" lengthAdjust="spacing" textLength="114.4927" x="222.2451" y="523.0488">Send Notifications</text><line style="stroke:#666666;stroke-width:1.0;stroke-dasharray:2.0,2.0;" x1="205.2451" x2="247.2451" y1="557.1016" y2="557.1016"/><line style="stroke:#666666;stroke-width:1.0;stroke-dasharray:2.0,2.0;" x1="247.2451" x2="247.2451" y1="557.1016" y2="570.1016"/><line style="stroke:#666666;stroke-width:1.0;stroke-dasharray:2.0,2.0;" x1="206.2451" x2="247.2451" y1="570.1016" y2="570.1016"/><polygon fill="#666666" points="216.2451,566.1016,206.2451,570.1016,216.2451,574.1016,212.2451,570.1016" style="stroke:#666666;stroke-width:1.0;"/><text fill="#333333" font-family="sans-serif" font-size="13" lengthAdjust="spacing" textLength="131.644" x="212.2451" y="552.3594">Process Notifications</text><polygon fill="#666666" points="67.7524,595.4121,57.7524,599.4121,67.7524,603.4121,63.7524,599.4121" style="stroke:#666666;stroke-width:1.0;"/><line style="stroke:#666666;stroke-width:1.0;stroke-dasharray:2.0,2.0;" x1="61.7524" x2="199.2451" y1="599.4121" y2="599.4121"/><text fill="#333333" font-family="sans-serif" font-size="13" lengthAdjust="spacing" textLength="114.4927" x="73.7524" y="594.6699">Send Notifications</text><text fill="#333333" font-family="sans-serif" font-size="10" lengthAdjust="spacing" textLength="152.2705" x="0" y="689.5684">Last Modified On:24-Feb-2025</text><!--SRC=[fLDDYzim4BthLmmkfSaXK2YKaaDXDwbFwxPq3psFfN5MM962f6IxbFxtZcKbAsTT2gqWZYozz-RDXqElxG4zxg55sU-yErgrSSPvU5M_hJ_KjGWNXA8EZoRMpiOCUPTM0K7ltME-V9-M46zWIvss1AtpYdo0Zc_H6213Ux8n57n-rV49VWg0suIUQl7fjSjjMkANA5GaE_JE_AyCFwEM-e0s_fkK4AL4jJ6Qywi00upR1hMTGcwDaxryu7DuWVuZyfxyYNn2ZbkXC6ABWQ2wFxP1Uds8sZ4mEayZRjW9yMm3LXzpc3LaJakBu8vUqZBZ1imOO0w3CkeJHZfx4ED_8WtHre1A5QZa83rXLGZVoDwwHqDgHqBH5LmOvmvSSu12F1E_euvfjB9PfGFFWIMPKkVpIId8ggI39fu96vuQ-X5Xwoobk_auTsvtRcKHWrHruRIUi4zlPBW7axYVSjmh79yElqd6OndF1bxs9mi6RhNHuO7Ka2Jhan95mywa1YtkfcQUcv47RARDaJtkuHl94om-kwWxBN7WXkMiCqu29h2BPe7wwfsa4Fu67CPoLhAiKdOk37L3zrraHtSO8ZHECOMByiMkN_FtG8jAgLNJDAidNjLI_0O0]--></g></svg>
