<?xml version="1.0" encoding="us-ascii" standalone="no"?><svg xmlns="http://www.w3.org/2000/svg" xmlns:xlink="http://www.w3.org/1999/xlink" contentStyleType="text/css" height="635px" preserveAspectRatio="none" style="width:878px;height:635px;background:#FFFFFF;" version="1.1" viewBox="0 0 878 635" width="878px" zoomAndPan="magnify"><defs/><g><rect fill="#FFFFFF" height="191.4844" style="stroke:#181818;stroke-width:1.0;" width="10" x="445.5" y="111.1094"/><rect fill="#FFFFFF" height="191.4844" style="stroke:#181818;stroke-width:1.0;" width="10" x="445.5" y="375.2148"/><rect fill="#FFFFFF" height="29.3105" style="stroke:#181818;stroke-width:1.0;" width="10" x="797.5" y="140.4199"/><rect fill="#FFFFFF" height="29.3105" style="stroke:#181818;stroke-width:1.0;" width="10" x="797.5" y="404.5254"/><line style="stroke:#181818;stroke-width:0.5;stroke-dasharray:5.0,5.0;" x1="66" x2="66" y1="36.4883" y2="584.6992"/><line style="stroke:#181818;stroke-width:0.5;stroke-dasharray:5.0,5.0;" x1="197" x2="197" y1="36.4883" y2="584.6992"/><line style="stroke:#181818;stroke-width:0.5;stroke-dasharray:5.0,5.0;" x1="450" x2="450" y1="36.4883" y2="584.6992"/><line style="stroke:#181818;stroke-width:0.5;stroke-dasharray:5.0,5.0;" x1="802" x2="802" y1="36.4883" y2="584.6992"/><rect fill="#E2E2F0" height="30.4883" rx="2.5" ry="2.5" style="stroke:#181818;stroke-width:0.5;" width="123" x="5" y="5"/><text fill="#000000" font-family="sans-serif" font-size="14" lengthAdjust="spacing" textLength="109" x="12" y="25.5352">Block Validation</text><rect fill="#E2E2F0" height="30.4883" rx="2.5" ry="2.5" style="stroke:#181818;stroke-width:0.5;" width="123" x="5" y="583.6992"/><text fill="#000000" font-family="sans-serif" font-size="14" lengthAdjust="spacing" textLength="109" x="12" y="604.2344">Block Validation</text><rect fill="#E2E2F0" height="30.4883" rx="2.5" ry="2.5" style="stroke:#181818;stroke-width:0.5;" width="119" x="138" y="5"/><text fill="#000000" font-family="sans-serif" font-size="14" lengthAdjust="spacing" textLength="105" x="145" y="25.5352">Block Assembly</text><rect fill="#E2E2F0" height="30.4883" rx="2.5" ry="2.5" style="stroke:#181818;stroke-width:0.5;" width="119" x="138" y="583.6992"/><text fill="#000000" font-family="sans-serif" font-size="14" lengthAdjust="spacing" textLength="105" x="145" y="604.2344">Block Assembly</text><rect fill="#E2E2F0" height="30.4883" rx="2.5" ry="2.5" style="stroke:#181818;stroke-width:0.5;" width="87" x="407" y="5"/><text fill="#000000" font-family="sans-serif" font-size="14" lengthAdjust="spacing" textLength="73" x="414" y="25.5352">Blockchain</text><rect fill="#E2E2F0" height="30.4883" rx="2.5" ry="2.5" style="stroke:#181818;stroke-width:0.5;" width="87" x="407" y="583.6992"/><text fill="#000000" font-family="sans-serif" font-size="14" lengthAdjust="spacing" textLength="73" x="414" y="604.2344">Blockchain</text><rect fill="#E2E2F0" height="30.4883" rx="2.5" ry="2.5" style="stroke:#181818;stroke-width:0.5;" width="127" x="739" y="5"/><text fill="#000000" font-family="sans-serif" font-size="14" lengthAdjust="spacing" textLength="113" x="746" y="25.5352">Blockchain Store</text><rect fill="#E2E2F0" height="30.4883" rx="2.5" ry="2.5" style="stroke:#181818;stroke-width:0.5;" width="127" x="739" y="583.6992"/><text fill="#000000" font-family="sans-serif" font-size="14" lengthAdjust="spacing" textLength="113" x="746" y="604.2344">Blockchain Store</text><rect fill="#FFFFFF" height="191.4844" style="stroke:#181818;stroke-width:1.0;" width="10" x="445.5" y="111.1094"/><rect fill="#FFFFFF" height="191.4844" style="stroke:#181818;stroke-width:1.0;" width="10" x="445.5" y="375.2148"/><rect fill="#FFFFFF" height="29.3105" style="stroke:#181818;stroke-width:1.0;" width="10" x="797.5" y="140.4199"/><rect fill="#FFFFFF" height="29.3105" style="stroke:#181818;stroke-width:1.0;" width="10" x="797.5" y="404.5254"/><rect fill="#EEEEEE" height="3" style="stroke:#EEEEEE;stroke-width:1.0;" width="871" x="0" y="67.1436"/><line style="stroke:#000000;stroke-width:1.0;" x1="0" x2="871" y1="67.1436" y2="67.1436"/><line style="stroke:#000000;stroke-width:1.0;" x1="0" x2="871" y1="70.1436" y2="70.1436"/><rect fill="#EEEEEE" height="23.3105" style="stroke:#000000;stroke-width:2.0;" width="274" x="298.5" y="56.4883"/><text fill="#000000" font-family="sans-serif" font-size="13" font-weight="bold" lengthAdjust="spacing" textLength="256" x="304.5" y="73.0566">Block Validation validates a new block</text><polygon fill="#181818" points="433.5,107.1094,443.5,111.1094,433.5,115.1094,437.5,111.1094" style="stroke:#181818;stroke-width:1.0;"/><line style="stroke:#181818;stroke-width:1.0;" x1="66.5" x2="439.5" y1="111.1094" y2="111.1094"/><text fill="#000000" font-family="sans-serif" font-size="13" lengthAdjust="spacing" textLength="229" x="73.5" y="106.3672">SetBlockSubtreesSet(ctx, blockHash)</text><polygon fill="#181818" points="785.5,136.4199,795.5,140.4199,785.5,144.4199,789.5,140.4199" style="stroke:#181818;stroke-width:1.0;"/><line style="stroke:#181818;stroke-width:1.0;" x1="455.5" x2="791.5" y1="140.4199" y2="140.4199"/><text fill="#000000" font-family="sans-serif" font-size="13" lengthAdjust="spacing" textLength="229" x="462.5" y="135.6777">SetBlockSubtreesSet(ctx, blockHash)</text><polygon fill="#181818" points="466.5,165.7305,456.5,169.7305,466.5,173.7305,462.5,169.7305" style="stroke:#181818;stroke-width:1.0;"/><line style="stroke:#181818;stroke-width:1.0;stroke-dasharray:2.0,2.0;" x1="460.5" x2="801.5" y1="169.7305" y2="169.7305"/><text fill="#000000" font-family="sans-serif" font-size="13" lengthAdjust="spacing" textLength="24" x="472.5" y="164.9883">Ack</text><line style="stroke:#181818;stroke-width:1.0;" x1="455.5" x2="497.5" y1="260.2832" y2="260.2832"/><line style="stroke:#181818;stroke-width:1.0;" x1="497.5" x2="497.5" y1="260.2832" y2="273.2832"/><line style="stroke:#181818;stroke-width:1.0;" x1="456.5" x2="497.5" y1="273.2832" y2="273.2832"/><polygon fill="#181818" points="466.5,269.2832,456.5,273.2832,466.5,277.2832,462.5,273.2832" style="stroke:#181818;stroke-width:1.0;"/><text fill="#000000" font-family="sans-serif" font-size="13" lengthAdjust="spacing" textLength="133" x="462.5" y="194.2988">SendNotification(ctx,</text><text fill="#000000" font-family="sans-serif" font-size="13" lengthAdjust="spacing" textLength="187" x="474.5" y="209.6094">&amp;blockchain_api.Notification{</text><text fill="#000000" font-family="sans-serif" font-size="13" lengthAdjust="spacing" textLength="304" x="482.5" y="224.9199">Type: model.NotificationType_BlockSubtreesSet,</text><text fill="#000000" font-family="sans-serif" font-size="13" lengthAdjust="spacing" textLength="140" x="482.5" y="240.2305">Hash: blockHashBytes</text><text fill="#000000" font-family="sans-serif" font-size="13" lengthAdjust="spacing" textLength="8" x="462.5" y="255.541">})</text><polygon fill="#181818" points="77.5,298.5938,67.5,302.5938,77.5,306.5938,73.5,302.5938" style="stroke:#181818;stroke-width:1.0;"/><line style="stroke:#181818;stroke-width:1.0;stroke-dasharray:2.0,2.0;" x1="71.5" x2="449.5" y1="302.5938" y2="302.5938"/><text fill="#000000" font-family="sans-serif" font-size="13" lengthAdjust="spacing" textLength="24" x="83.5" y="297.8516">Ack</text><rect fill="#EEEEEE" height="3" style="stroke:#EEEEEE;stroke-width:1.0;" width="871" x="0" y="331.249"/><line style="stroke:#000000;stroke-width:1.0;" x1="0" x2="871" y1="331.249" y2="331.249"/><line style="stroke:#000000;stroke-width:1.0;" x1="0" x2="871" y1="334.249" y2="334.249"/><rect fill="#EEEEEE" height="23.3105" style="stroke:#000000;stroke-width:2.0;" width="252" x="309.5" y="320.5938"/><text fill="#000000" font-family="sans-serif" font-size="13" font-weight="bold" lengthAdjust="spacing" textLength="234" x="315.5" y="337.1621">Block Assembly mines a new block</text><polygon fill="#181818" points="433.5,371.2148,443.5,375.2148,433.5,379.2148,437.5,375.2148" style="stroke:#181818;stroke-width:1.0;"/><line style="stroke:#181818;stroke-width:1.0;" x1="197.5" x2="439.5" y1="375.2148" y2="375.2148"/><text fill="#000000" font-family="sans-serif" font-size="13" lengthAdjust="spacing" textLength="229" x="204.5" y="370.4727">SetBlockSubtreesSet(ctx, blockHash)</text><polygon fill="#181818" points="785.5,400.5254,795.5,404.5254,785.5,408.5254,789.5,404.5254" style="stroke:#181818;stroke-width:1.0;"/><line style="stroke:#181818;stroke-width:1.0;" x1="455.5" x2="791.5" y1="404.5254" y2="404.5254"/><text fill="#000000" font-family="sans-serif" font-size="13" lengthAdjust="spacing" textLength="229" x="462.5" y="399.7832">SetBlockSubtreesSet(ctx, blockHash)</text><polygon fill="#181818" points="466.5,429.8359,456.5,433.8359,466.5,437.8359,462.5,433.8359" style="stroke:#181818;stroke-width:1.0;"/><line style="stroke:#181818;stroke-width:1.0;stroke-dasharray:2.0,2.0;" x1="460.5" x2="801.5" y1="433.8359" y2="433.8359"/><text fill="#000000" font-family="sans-serif" font-size="13" lengthAdjust="spacing" textLength="24" x="472.5" y="429.0938">Ack</text><line style="stroke:#181818;stroke-width:1.0;" x1="455.5" x2="497.5" y1="524.3887" y2="524.3887"/><line style="stroke:#181818;stroke-width:1.0;" x1="497.5" x2="497.5" y1="524.3887" y2="537.3887"/><line style="stroke:#181818;stroke-width:1.0;" x1="456.5" x2="497.5" y1="537.3887" y2="537.3887"/><polygon fill="#181818" points="466.5,533.3887,456.5,537.3887,466.5,541.3887,462.5,537.3887" style="stroke:#181818;stroke-width:1.0;"/><text fill="#000000" font-family="sans-serif" font-size="13" lengthAdjust="spacing" textLength="133" x="462.5" y="458.4043">SendNotification(ctx,</text><text fill="#000000" font-family="sans-serif" font-size="13" lengthAdjust="spacing" textLength="187" x="474.5" y="473.7148">&amp;blockchain_api.Notification{</text><text fill="#000000" font-family="sans-serif" font-size="13" lengthAdjust="spacing" textLength="304" x="482.5" y="489.0254">Type: model.NotificationType_BlockSubtreesSet,</text><text fill="#000000" font-family="sans-serif" font-size="13" lengthAdjust="spacing" textLength="140" x="482.5" y="504.3359">Hash: blockHashBytes</text><text fill="#000000" font-family="sans-serif" font-size="13" lengthAdjust="spacing" textLength="8" x="462.5" y="519.6465">})</text><polygon fill="#181818" points="208.5,562.6992,198.5,566.6992,208.5,570.6992,204.5,566.6992" style="stroke:#181818;stroke-width:1.0;"/><line style="stroke:#181818;stroke-width:1.0;stroke-dasharray:2.0,2.0;" x1="202.5" x2="449.5" y1="566.6992" y2="566.6992"/><text fill="#000000" font-family="sans-serif" font-size="13" lengthAdjust="spacing" textLength="24" x="214.5" y="561.957">Ack</text><text fill="#888888" font-family="sans-serif" font-size="10" lengthAdjust="spacing" textLength="148" x="0" y="625.8555">Last Modified On: 3-July-2024</text><!--SRC=[xP8_QyCm4CLtVOeZGsaWBYNj570XcKhfdy6bKo38yfc8o9AnbBIczBjNbd4iAtM6JXsw-OvtZz_pKqahmnalgJGmMGd5Tl161S-euKfEW6fmotv7ojEBfTPOfABkzTtc1pNRKkuvkt5C1ebH5GPYjoCaZY7aXKFxYHeeI7o7r0dYc90W1KHtdkC24ZHkJFQfgH2rdI-P-PYr3lTKRwU4CiCFrjpd9XxhmD91_jgtZHZC40NGIxOZ6OwUZx8rM39xLeRddBdVqJAj9G1Sf4VTXfRyofTzjXA0rxgquGgLeHW8clqc33phhfguYpxvghP5hUNNT03QaVPTdGdglOBknK71vLZ_Hyr_-t-y_QwfizqJWRc1N2c35JnIRU19PPO6CtYnCM-YXxsee_dr_9Py0m00]--></g></svg>
