<svg xmlns="http://www.w3.org/2000/svg" xmlns:xlink="http://www.w3.org/1999/xlink" contentStyleType="text/css" height="404px" preserveAspectRatio="none" style="width:576px;height:404px;background:#F0F8FF;" version="1.1" viewBox="0 0 576 404" width="576px" zoomAndPan="magnify"><defs/><g><rect fill="#F0F8FF" height="404" style="stroke:none;stroke-width:1.0;" width="576" x="0" y="0"/><rect fill="#FFFFFF" height="213.8184" style="stroke:#181818;stroke-width:1.0;" width="10" x="313.4805" y="98.7988"/><rect fill="#FFFFFF" height="29.3105" style="stroke:#181818;stroke-width:1.0;" width="10" x="536.1348" y="170.4199"/><rect fill="none" height="90.8867" style="stroke:#000000;stroke-width:1.5;" width="387.5508" x="10" y="214.7305"/><line style="stroke:#181818;stroke-width:0.5;stroke-dasharray:5.0,5.0;" x1="46" x2="46" y1="67.4883" y2="322.6172"/><line style="stroke:#181818;stroke-width:0.5;stroke-dasharray:5.0,5.0;" x1="318.4102" x2="318.4102" y1="67.4883" y2="322.6172"/><line style="stroke:#181818;stroke-width:0.5;stroke-dasharray:5.0,5.0;" x1="540.6826" x2="540.6826" y1="67.4883" y2="322.6172"/><rect fill="#DDDDDD" height="30.4883" rx="2.5" ry="2.5" style="stroke:#666666;stroke-width:0.5;" width="53.5049" x="20" y="36"/><text fill="#333333" font-family="sans-serif" font-size="14" lengthAdjust="spacing" textLength="39.5049" x="27" y="56.5352">Client</text><rect fill="#DDDDDD" height="30.4883" rx="2.5" ry="2.5" style="stroke:#666666;stroke-width:0.5;" width="53.5049" x="20" y="321.6172"/><text fill="#333333" font-family="sans-serif" font-size="14" lengthAdjust="spacing" textLength="39.5049" x="27" y="342.1523">Client</text><rect fill="#DDDDDD" height="30.4883" rx="2.5" ry="2.5" style="stroke:#666666;stroke-width:0.5;" width="138.1406" x="249.4102" y="36"/><text fill="#333333" font-family="sans-serif" font-size="14" lengthAdjust="spacing" textLength="124.1406" x="256.4102" y="56.5352">Blockchain Service</text><rect fill="#DDDDDD" height="30.4883" rx="2.5" ry="2.5" style="stroke:#666666;stroke-width:0.5;" width="138.1406" x="249.4102" y="321.6172"/><text fill="#333333" font-family="sans-serif" font-size="14" lengthAdjust="spacing" textLength="124.1406" x="256.4102" y="342.1523">Blockchain Service</text><text fill="#333333" font-family="sans-serif" font-size="14" lengthAdjust="spacing" textLength="34.9043" x="520.6826" y="64.5352">Store</text><path d="M523.1348,15 C523.1348,5 541.1348,5 541.1348,5 C541.1348,5 559.1348,5 559.1348,15 L559.1348,41 C559.1348,51 541.1348,51 541.1348,51 C541.1348,51 523.1348,51 523.1348,41 L523.1348,15 " fill="#E2E2F0" style="stroke:#181818;stroke-width:1.5;"/><path d="M523.1348,15 C523.1348,25 541.1348,25 541.1348,25 C541.1348,25 559.1348,25 559.1348,15 " fill="none" style="stroke:#181818;stroke-width:1.5;"/><text fill="#333333" font-family="sans-serif" font-size="14" lengthAdjust="spacing" textLength="34.9043" x="520.6826" y="335.1523">Store</text><path d="M523.1348,348.1055 C523.1348,338.1055 541.1348,338.1055 541.1348,338.1055 C541.1348,338.1055 559.1348,338.1055 559.1348,348.1055 L559.1348,374.1055 C559.1348,384.1055 541.1348,384.1055 541.1348,384.1055 C541.1348,384.1055 523.1348,384.1055 523.1348,374.1055 L523.1348,348.1055 " fill="#E2E2F0" style="stroke:#181818;stroke-width:1.5;"/><path d="M523.1348,348.1055 C523.1348,358.1055 541.1348,358.1055 541.1348,358.1055 C541.1348,358.1055 559.1348,358.1055 559.1348,348.1055 " fill="none" style="stroke:#181818;stroke-width:1.5;"/><rect fill="#FFFFFF" height="213.8184" style="stroke:#181818;stroke-width:1.0;" width="10" x="313.4805" y="98.7988"/><rect fill="#FFFFFF" height="29.3105" style="stroke:#181818;stroke-width:1.0;" width="10" x="536.1348" y="170.4199"/><polygon fill="#666666" points="301.4805,94.7988,311.4805,98.7988,301.4805,102.7988,305.4805,98.7988" style="stroke:#666666;stroke-width:1.0;"/><line style="stroke:#666666;stroke-width:1.0;" x1="46.7524" x2="307.4805" y1="98.7988" y2="98.7988"/><text fill="#333333" font-family="sans-serif" font-size="13" lengthAdjust="spacing" textLength="175.5889" x="53.7524" y="94.0566">GetBlockExists(ctx, request)</text><line style="stroke:#666666;stroke-width:1.0;" x1="323.4805" x2="365.4805" y1="128.1094" y2="128.1094"/><line style="stroke:#666666;stroke-width:1.0;" x1="365.4805" x2="365.4805" y1="128.1094" y2="141.1094"/><line style="stroke:#666666;stroke-width:1.0;" x1="324.4805" x2="365.4805" y1="141.1094" y2="141.1094"/><polygon fill="#666666" points="334.4805,137.1094,324.4805,141.1094,334.4805,145.1094,330.4805,141.1094" style="stroke:#666666;stroke-width:1.0;"/><text fill="#333333" font-family="sans-serif" font-size="13" lengthAdjust="spacing" textLength="149.8301" x="330.4805" y="123.3672">NewHash(request.Hash)</text><polygon fill="#666666" points="524.1348,166.4199,534.1348,170.4199,524.1348,174.4199,528.1348,170.4199" style="stroke:#666666;stroke-width:1.0;"/><line style="stroke:#666666;stroke-width:1.0;" x1="323.4805" x2="530.1348" y1="170.4199" y2="170.4199"/><text fill="#333333" font-family="sans-serif" font-size="13" lengthAdjust="spacing" textLength="193.6543" x="330.4805" y="165.6777">GetBlockExists(ctx, blockHash)</text><polygon fill="#666666" points="334.4805,195.7305,324.4805,199.7305,334.4805,203.7305,330.4805,199.7305" style="stroke:#666666;stroke-width:1.0;"/><line style="stroke:#666666;stroke-width:1.0;stroke-dasharray:2.0,2.0;" x1="328.4805" x2="540.1348" y1="199.7305" y2="199.7305"/><text fill="#333333" font-family="sans-serif" font-size="13" lengthAdjust="spacing" textLength="63.1973" x="340.4805" y="194.9883">exists, err</text><path d="M10,214.7305 L72.1387,214.7305 L72.1387,222.041 L62.1387,232.041 L10,232.041 L10,214.7305 " fill="#EEEEEE" style="stroke:#000000;stroke-width:1.5;"/><rect fill="none" height="90.8867" style="stroke:#000000;stroke-width:1.5;" width="387.5508" x="10" y="214.7305"/><text fill="#333333" font-family="sans-serif" font-size="13" font-weight="bold" lengthAdjust="spacing" textLength="17.1387" x="25" y="228.2988">alt</text><text fill="#333333" font-family="sans-serif" font-size="11" font-weight="bold" lengthAdjust="spacing" textLength="48.6191" x="87.1387" y="227.3652">[If Error]</text><polygon fill="#666666" points="57.7524,249.3516,47.7524,253.3516,57.7524,257.3516,53.7524,253.3516" style="stroke:#666666;stroke-width:1.0;"/><line style="stroke:#666666;stroke-width:1.0;stroke-dasharray:2.0,2.0;" x1="51.7524" x2="312.4805" y1="253.3516" y2="253.3516"/><text fill="#333333" font-family="sans-serif" font-size="13" lengthAdjust="spacing" textLength="76.8828" x="63.7524" y="248.6094">Return Error</text><line style="stroke:#000000;stroke-width:1.0;stroke-dasharray:2.0,2.0;" x1="10" x2="397.5508" y1="262.3516" y2="262.3516"/><text fill="#333333" font-family="sans-serif" font-size="11" font-weight="bold" lengthAdjust="spacing" textLength="79.4492" x="15" y="272.9863">[If Successful]</text><polygon fill="#666666" points="57.7524,293.6172,47.7524,297.6172,57.7524,301.6172,53.7524,297.6172" style="stroke:#666666;stroke-width:1.0;"/><line style="stroke:#666666;stroke-width:1.0;stroke-dasharray:2.0,2.0;" x1="51.7524" x2="312.4805" y1="297.6172" y2="297.6172"/><text fill="#333333" font-family="sans-serif" font-size="13" lengthAdjust="spacing" textLength="242.728" x="63.7524" y="292.875">GetBlockExistsResponse{Exists: exists}</text><text fill="#333333" font-family="sans-serif" font-size="10" lengthAdjust="spacing" textLength="155.4346" x="0" y="394.7734">Last Modified On: 24-Feb-2025</text><!--SRC=[fLBRIWCn47sVhnXMn1PQ4GIHFlZWPLMm2lOBfici3Or9JMQz8FwxQNPRTqLVT1x2JEQSCoUNk3HkHO4USKvg-H1yxVIPjpxWJdbG7fSbn2r2SqMrbT8xQI67EJeG2i6_jCsZ701xUCwLSOnp7pI7Y5NgahN8bX_PIUpmKsda3Ty1yJIZ-rffzxlBynpm0HqLbHm6R_yharOnogp8oT-a0BeInParwNm5KiGcxRTFhLTBjI3ZSCRXsIZEq3O7JK9pYep5J7neU-iCe573ySa6FC5BbgntyMgYn86Irn46VgevoX18YNacuQqsj4bFufPVhYWk1YrjVrqC-z3r-9zdpTSR3UDhMdQRLnnt9t4cZf130CtVy41MyBh2Y_IrGhflnAs3fD4SVOBtB7LmBOXjkgP4cTLASOnLRN_bzRtVSrnv5_czAJVEFe2TXfwrpSLPhYHzQ2ySy8QYuDHhKndMUESck9iUZGU5rkFfT3f-Ir4CuHC0]--></g></svg>
