<svg contentStyleType="text/css" height="597" preserveAspectRatio="none" viewBox="0 0 842 597" width="842" xmlns="http://www.w3.org/2000/svg" zoomAndPan="magnify"><path d="m0 0h842v597h-842z" fill="#f0f8ff"/><path d="m338.6006 371.2832h10v127.2422h-10z" fill="#fff" stroke="#181818"/><path d="m480.083 131.1094h10v187.5527h-10z" fill="#fff" stroke="#181818"/><path d="m480.083 400.5938h10v97.9316h-10z" fill="#fff" stroke="#181818"/><path d="m746.2803 250.041h10v68.6211h-10z" fill="#fff" stroke="#181818"/><path d="m746.2803 429.9043h10v68.6211h-10z" fill="#fff" stroke="#181818"/><path d="m398.7573 84.4883h437.4429v234.1738h-437.4429z" fill="none" stroke="#000" stroke-width="1.5"/><path d="m408.7573 265.041h417.4429v46.6211h-417.4429z" fill="none" stroke="#000" stroke-width="1.5"/><path d="m10 332.6621h826.2002v165.8633h-826.2002z" fill="none" stroke="#000" stroke-width="1.5"/><path d="m408.7573 444.9043h417.4429v46.6211h-417.4429z" fill="none" stroke="#000" stroke-width="1.5"/><path d="m79 67.4883v448.0371" stroke="#181818" stroke-dasharray="5 5" stroke-width=".5"/><path d="m343.4438 67.4883v448.0371" stroke="#181818" stroke-dasharray="5 5" stroke-width=".5"/><path d="m484.7573 67.4883v448.0371" stroke="#181818" stroke-dasharray="5 5" stroke-width=".5"/><path d="m750.3604 67.4883v448.0371" stroke="#181818" stroke-dasharray="5 5" stroke-width=".5"/><rect fill="#ddd" height="30.4883" rx="2.5" stroke="#666" stroke-width=".5" width="119.458" x="20" y="36"/><text fill="#333" font-family="sans-serif" font-size="14" lengthAdjust="spacing" textLength="105.458" x="27" y="56.5352">Block Assembly</text><rect fill="#ddd" height="30.4883" rx="2.5" stroke="#666" stroke-width=".5" width="119.458" x="20" y="514.5254"/><text fill="#333" font-family="sans-serif" font-size="14" lengthAdjust="spacing" textLength="105.458" x="27" y="535.0605">Block Assembly</text><rect fill="#ddd" height="30.4883" rx="2.5" stroke="#666" stroke-width=".5" width="130.3135" x="278.4438" y="36"/><text fill="#333" font-family="sans-serif" font-size="14" lengthAdjust="spacing" textLength="116.3135" x="285.4438" y="56.5352">Blockchain Client</text><rect fill="#ddd" height="30.4883" rx="2.5" stroke="#666" stroke-width=".5" width="130.3135" x="278.4438" y="514.5254"/><text fill="#333" font-family="sans-serif" font-size="14" lengthAdjust="spacing" textLength="116.3135" x="285.4438" y="535.0605">Blockchain Client</text><rect fill="#ddd" height="30.4883" rx="2.5" stroke="#666" stroke-width=".5" width="132.6514" x="418.7573" y="36"/><text fill="#333" font-family="sans-serif" font-size="14" lengthAdjust="spacing" textLength="118.6514" x="425.7573" y="56.5352">Blockchain Server</text><rect fill="#ddd" height="30.4883" rx="2.5" stroke="#666" stroke-width=".5" width="132.6514" x="418.7573" y="514.5254"/><text fill="#333" font-family="sans-serif" font-size="14" lengthAdjust="spacing" textLength="118.6514" x="425.7573" y="535.0605">Blockchain Server</text><text fill="#333" font-family="sans-serif" font-size="14" lengthAdjust="spacing" textLength="123.8398" x="686.3604" y="64.5352">Subscription Store</text><path d="m733.2803 15c0-10 18-10 18-10s18 0 18 10v26c0 10-18 10-18 10s-18 0-18-10z" fill="#e2e2f0" stroke="#181818" stroke-width="1.5"/><path d="m733.2803 15c0 10 18 10 18 10s18 0 18-10" fill="none" stroke="#181818" stroke-width="1.5"/><text fill="#333" font-family="sans-serif" font-size="14" lengthAdjust="spacing" textLength="123.8398" x="686.3604" y="528.0605">Subscription Store</text><g stroke="#181818"><path d="m733.2803 541.0137c0-10 18-10 18-10s18 0 18 10v26c0 10-18 10-18 10s-18 0-18-10z" fill="#e2e2f0" stroke-width="1.5"/><path d="m733.2803 541.0137c0 10 18 10 18 10s18 0 18-10" fill="none" stroke-width="1.5"/><path d="m338.6006 371.2832h10v127.2422h-10z" fill="#fff"/><path d="m480.083 131.1094h10v187.5527h-10z" fill="#fff"/><path d="m480.083 400.5938h10v97.9316h-10z" fill="#fff"/><path d="m746.2803 250.041h10v68.6211h-10z" fill="#fff"/><path d="m746.2803 429.9043h10v68.6211h-10z" fill="#fff"/></g><path d="m398.7573 84.4883h62.1387v7.3105l-10 10h-52.1387z" fill="#eee" stroke="#000" stroke-width="1.5"/><path d="m398.7573 84.4883h437.4429v234.1738h-437.4429z" fill="none" stroke="#000" stroke-width="1.5"/><text fill="#333" font-family="sans-serif" font-size="13" font-weight="bold" lengthAdjust="spacing" textLength="17.1387" x="413.7573" y="98.0566">alt</text><text fill="#333" font-family="sans-serif" font-size="11" font-weight="bold" lengthAdjust="spacing" textLength="208.9355" x="475.896" y="97.123">[Notification from Blockchain Server]</text><path d="m485.083 118.1094h47" stroke="#666"/><path d="m532.083 118.1094v13" stroke="#666"/><path d="m491.083 131.1094h41" stroke="#666"/><path d="m501.083 127.1094-10 4 10 4-4-4z" fill="#666" stroke="#666"/><text fill="#333" font-family="sans-serif" font-size="13" lengthAdjust="spacing" textLength="67.2661" x="497.083" y="113.3672">AddBlock()</text><path d="m490.083 165.4199h42" stroke="#666"/><path d="m532.083 165.4199v13" stroke="#666"/><path d="m491.083 178.4199h41" stroke="#666"/><path d="m501.083 174.4199-10 4 10 4-4-4z" fill="#666" stroke="#666"/><text fill="#333" font-family="sans-serif" font-size="13" lengthAdjust="spacing" textLength="232.1973" x="497.083" y="160.6777">Create Notification (MiningOn/Block)</text><path d="m490.083 207.7305h42" stroke="#666"/><path d="m532.083 207.7305v13" stroke="#666"/><path d="m491.083 220.7305h41" stroke="#666"/><path d="m501.083 216.7305-10 4 10 4-4-4z" fill="#666" stroke="#666"/><text fill="#333" font-family="sans-serif" font-size="13" lengthAdjust="spacing" textLength="112.2075" x="497.083" y="202.9883">SendNotification()</text><path d="m734.2803 246.041 10 4-10 4 4-4z" fill="#666" stroke="#666"/><path d="m490.083 250.041h250.1973" stroke="#666"/><text fill="#333" font-family="sans-serif" font-size="13" lengthAdjust="spacing" textLength="114.8799" x="497.083" y="245.2988">Notify Subscribers</text><path d="m408.7573 265.041h74.4468v7.3106l-10 10h-64.4468z" fill="#eee" stroke="#000" stroke-width="1.5"/><path d="m408.7573 265.041h417.4429v46.6211h-417.4429z" fill="none" stroke="#000" stroke-width="1.5"/><text fill="#333" font-family="sans-serif" font-size="13" font-weight="bold" lengthAdjust="spacing" textLength="29.4468" x="423.7573" y="278.6094">loop</text><text fill="#333" font-family="sans-serif" font-size="11" font-weight="bold" lengthAdjust="spacing" textLength="98.1138" x="498.2041" y="277.6758">[Each Subscriber]</text><path d="m501.083 299.6621-10 4 10 4-4-4z" fill="#666" stroke="#666"/><path d="m495.083 303.6621h250.1973" stroke="#666" stroke-dasharray="2 2"/><text fill="#333" font-family="sans-serif" font-size="13" lengthAdjust="spacing" textLength="107.8657" x="507.083" y="298.9199">Send Notification</text><path d="m10 332.6621h62.1387v7.3106l-10 10h-52.1387z" fill="#eee" stroke="#000" stroke-width="1.5"/><path d="m10 332.6621h826.2002v165.8633h-826.2002z" fill="none" stroke="#000" stroke-width="1.5"/><text fill="#333" font-family="sans-serif" font-size="13" font-weight="bold" lengthAdjust="spacing" textLength="17.1387" x="25" y="346.2305">alt</text><text fill="#333" font-family="sans-serif" font-size="11" font-weight="bold" lengthAdjust="spacing" textLength="347.918" x="87.1387" y="345.2969">[Notification from Block Assembly through Blockchain Client]</text><path d="m326.6006 367.2832 10 4-10 4 4-4z" fill="#666" stroke="#666"/><path d="m79.729 371.2832h252.8716" stroke="#666"/><text fill="#333" font-family="sans-serif" font-size="13" lengthAdjust="spacing" textLength="239.8716" x="86.729" y="366.541">Request to Send Notification (Subtree)</text><path d="m468.083 396.5938 10 4-10 4 4-4z" fill="#666" stroke="#666"/><path d="m348.6006 400.5938h125.4824" stroke="#666"/><text fill="#333" font-family="sans-serif" font-size="13" lengthAdjust="spacing" textLength="112.2075" x="355.6006" y="395.8516">SendNotification()</text><path d="m734.2803 425.9043 10 4-10 4 4-4z" fill="#666" stroke="#666"/><path d="m490.083 429.9043h250.1973" stroke="#666"/><text fill="#333" font-family="sans-serif" font-size="13" lengthAdjust="spacing" textLength="114.8799" x="497.083" y="425.1621">Notify Subscribers</text><path d="m408.7573 444.9043h74.4468v7.3105l-10 10h-64.4468z" fill="#eee" stroke="#000" stroke-width="1.5"/><path d="m408.7573 444.9043h417.4429v46.6211h-417.4429z" fill="none" stroke="#000" stroke-width="1.5"/><text fill="#333" font-family="sans-serif" font-size="13" font-weight="bold" lengthAdjust="spacing" textLength="29.4468" x="423.7573" y="458.4727">loop</text><text fill="#333" font-family="sans-serif" font-size="11" font-weight="bold" lengthAdjust="spacing" textLength="98.1138" x="498.2041" y="457.5391">[Each Subscriber]</text><path d="m501.083 479.5254-10 4 10 4-4-4z" fill="#666" stroke="#666"/><path d="m495.083 483.5254h250.1973" stroke="#666" stroke-dasharray="2 2"/><text fill="#333" font-family="sans-serif" font-size="13" lengthAdjust="spacing" textLength="107.8657" x="507.083" y="478.7832">Send Notification</text><text fill="#333" font-family="sans-serif" font-size="10" lengthAdjust="spacing" textLength="155.4346" y="587.6816">Last Modified On: 24-Feb-2025</text></svg>
