<svg xmlns="http://www.w3.org/2000/svg" xmlns:xlink="http://www.w3.org/1999/xlink" contentStyleType="text/css" height="362px" preserveAspectRatio="none" style="width:826px;height:362px;background:#F0F8FF;" version="1.1" viewBox="0 0 826 362" width="826px" zoomAndPan="magnify"><defs/><g><rect fill="#F0F8FF" height="362" style="stroke:none;stroke-width:1.0;" width="826" x="0" y="0"/><rect fill="#FFFFFF" height="112.2422" style="stroke:#181818;stroke-width:1.0;" width="10" x="326.7808" y="98.7988"/><rect fill="#FFFFFF" height="29.3105" style="stroke:#181818;stroke-width:1.0;" width="10" x="780.3057" y="128.1094"/><rect fill="none" height="90.8867" style="stroke:#000000;stroke-width:1.5;" width="400.8511" x="10" y="172.4199"/><line style="stroke:#181818;stroke-width:0.5;stroke-dasharray:5.0,5.0;" x1="46" x2="46" y1="67.4883" y2="280.3066"/><line style="stroke:#181818;stroke-width:0.5;stroke-dasharray:5.0,5.0;" x1="331.7104" x2="331.7104" y1="67.4883" y2="280.3066"/><line style="stroke:#181818;stroke-width:0.5;stroke-dasharray:5.0,5.0;" x1="784.6123" x2="784.6123" y1="67.4883" y2="280.3066"/><rect fill="#DDDDDD" height="30.4883" rx="2.5" ry="2.5" style="stroke:#666666;stroke-width:0.5;" width="53.5049" x="20" y="36"/><text fill="#333333" font-family="sans-serif" font-size="14" lengthAdjust="spacing" textLength="39.5049" x="27" y="56.5352">Client</text><rect fill="#DDDDDD" height="30.4883" rx="2.5" ry="2.5" style="stroke:#666666;stroke-width:0.5;" width="53.5049" x="20" y="279.3066"/><text fill="#333333" font-family="sans-serif" font-size="14" lengthAdjust="spacing" textLength="39.5049" x="27" y="299.8418">Client</text><rect fill="#DDDDDD" height="30.4883" rx="2.5" ry="2.5" style="stroke:#666666;stroke-width:0.5;" width="138.1406" x="262.7104" y="36"/><text fill="#333333" font-family="sans-serif" font-size="14" lengthAdjust="spacing" textLength="124.1406" x="269.7104" y="56.5352">Blockchain Service</text><rect fill="#DDDDDD" height="30.4883" rx="2.5" ry="2.5" style="stroke:#666666;stroke-width:0.5;" width="138.1406" x="262.7104" y="279.3066"/><text fill="#333333" font-family="sans-serif" font-size="14" lengthAdjust="spacing" textLength="124.1406" x="269.7104" y="299.8418">Blockchain Service</text><text fill="#333333" font-family="sans-serif" font-size="14" lengthAdjust="spacing" textLength="75.3867" x="744.6123" y="64.5352">Block Store</text><path d="M767.3057,15 C767.3057,5 785.3057,5 785.3057,5 C785.3057,5 803.3057,5 803.3057,15 L803.3057,41 C803.3057,51 785.3057,51 785.3057,51 C785.3057,51 767.3057,51 767.3057,41 L767.3057,15 " fill="#E2E2F0" style="stroke:#181818;stroke-width:1.5;"/><path d="M767.3057,15 C767.3057,25 785.3057,25 785.3057,25 C785.3057,25 803.3057,25 803.3057,15 " fill="none" style="stroke:#181818;stroke-width:1.5;"/><text fill="#333333" font-family="sans-serif" font-size="14" lengthAdjust="spacing" textLength="75.3867" x="744.6123" y="292.8418">Block Store</text><path d="M767.3057,305.7949 C767.3057,295.7949 785.3057,295.7949 785.3057,295.7949 C785.3057,295.7949 803.3057,295.7949 803.3057,305.7949 L803.3057,331.7949 C803.3057,341.7949 785.3057,341.7949 785.3057,341.7949 C785.3057,341.7949 767.3057,341.7949 767.3057,331.7949 L767.3057,305.7949 " fill="#E2E2F0" style="stroke:#181818;stroke-width:1.5;"/><path d="M767.3057,305.7949 C767.3057,315.7949 785.3057,315.7949 785.3057,315.7949 C785.3057,315.7949 803.3057,315.7949 803.3057,305.7949 " fill="none" style="stroke:#181818;stroke-width:1.5;"/><rect fill="#FFFFFF" height="112.2422" style="stroke:#181818;stroke-width:1.0;" width="10" x="326.7808" y="98.7988"/><rect fill="#FFFFFF" height="29.3105" style="stroke:#181818;stroke-width:1.0;" width="10" x="780.3057" y="128.1094"/><polygon fill="#666666" points="314.7808,94.7988,324.7808,98.7988,314.7808,102.7988,318.7808,98.7988" style="stroke:#666666;stroke-width:1.0;"/><line style="stroke:#666666;stroke-width:1.0;" x1="46.7524" x2="320.7808" y1="98.7988" y2="98.7988"/><text fill="#333333" font-family="sans-serif" font-size="13" lengthAdjust="spacing" textLength="180.5273" x="53.7524" y="94.0566">GetLastNBlocks(ctx, request)</text><polygon fill="#666666" points="768.3057,124.1094,778.3057,128.1094,768.3057,132.1094,772.3057,128.1094" style="stroke:#666666;stroke-width:1.0;"/><line style="stroke:#666666;stroke-width:1.0;" x1="336.7808" x2="774.3057" y1="128.1094" y2="128.1094"/><text fill="#333333" font-family="sans-serif" font-size="13" lengthAdjust="spacing" textLength="424.5249" x="343.7808" y="123.3672">GetLastNBlocks(ctx, numberOfBlocks, includeOrphans, fromHeight)</text><polygon fill="#666666" points="347.7808,153.4199,337.7808,157.4199,347.7808,161.4199,343.7808,157.4199" style="stroke:#666666;stroke-width:1.0;"/><line style="stroke:#666666;stroke-width:1.0;stroke-dasharray:2.0,2.0;" x1="341.7808" x2="784.3057" y1="157.4199" y2="157.4199"/><text fill="#333333" font-family="sans-serif" font-size="13" lengthAdjust="spacing" textLength="104.7935" x="353.7808" y="152.6777">blockInfo / Error</text><path d="M10,172.4199 L72.1387,172.4199 L72.1387,179.7305 L62.1387,189.7305 L10,189.7305 L10,172.4199 " fill="#EEEEEE" style="stroke:#000000;stroke-width:1.5;"/><rect fill="none" height="90.8867" style="stroke:#000000;stroke-width:1.5;" width="400.8511" x="10" y="172.4199"/><text fill="#333333" font-family="sans-serif" font-size="13" font-weight="bold" lengthAdjust="spacing" textLength="17.1387" x="25" y="185.9883">alt</text><text fill="#333333" font-family="sans-serif" font-size="11" font-weight="bold" lengthAdjust="spacing" textLength="154.3384" x="87.1387" y="185.0547">[If Error in GetLastNBlocks]</text><polygon fill="#666666" points="57.7524,207.041,47.7524,211.041,57.7524,215.041,53.7524,211.041" style="stroke:#666666;stroke-width:1.0;"/><line style="stroke:#666666;stroke-width:1.0;stroke-dasharray:2.0,2.0;" x1="51.7524" x2="330.7808" y1="211.041" y2="211.041"/><text fill="#333333" font-family="sans-serif" font-size="13" lengthAdjust="spacing" textLength="76.8828" x="63.7524" y="206.2988">Return Error</text><line style="stroke:#000000;stroke-width:1.0;stroke-dasharray:2.0,2.0;" x1="10" x2="410.8511" y1="220.041" y2="220.041"/><text fill="#333333" font-family="sans-serif" font-size="11" font-weight="bold" lengthAdjust="spacing" textLength="79.4492" x="15" y="230.6758">[If Successful]</text><polygon fill="#666666" points="57.7524,251.3066,47.7524,255.3066,57.7524,259.3066,53.7524,255.3066" style="stroke:#666666;stroke-width:1.0;"/><line style="stroke:#666666;stroke-width:1.0;stroke-dasharray:2.0,2.0;" x1="51.7524" x2="330.7808" y1="255.3066" y2="255.3066"/><text fill="#333333" font-family="sans-serif" font-size="13" lengthAdjust="spacing" textLength="261.0283" x="63.7524" y="250.5645">Create &amp; Return GetLastNBlocksResponse</text><text fill="#333333" font-family="sans-serif" font-size="10" lengthAdjust="spacing" textLength="155.4346" x="0" y="352.4629">Last Modified On: 24-Feb-2025</text><!--SRC=[fPBFRXCn4CRlynIZ8A2L6e64X50E79goK8aGgNc2MNlSM77iC9ujL8Xtn-lTHfkeN60EbktvvZUV_-ITZmSIscDBPdSlgOjscK8IVD6yRJuq3UIZmhAZBcYJeewITpKc4X99FyRa-ne0h_66dO-CRHBBaj6LB8M077ZFKVEalYozFk8lGBokwbDMsJrtULC3ViE4Oef3IU5_CMLKR_o1eluR2c2Ac2s3B-UR8MKSfgVfwv3Cpcp9HzomF7Z3LJhEmP9IIvb78MuqoQZePm034-SVdqeM-9drAsNzLYloXT6VLoZylUEibq16_GCf7pl0EAc8dlay87RxbcNjXhqhzD64pl9Q3bkAPUqaxR-mlz-UzAWUwuZpgSMsfzn6b_0DVYg_Hy3oMHLGKBnrGxgqEtDLtW3nQBsmXujOu1rh9t6azg8fUJmpXtAZXRtfZE6SNHV-YbiAzvMldhYdBkuu7rBCXHWjm3ET8B3JylUJic1VYAjalVDiSHqN-BAyBr_Ch9slLglvOudP9Vm1]--></g></svg>
