<svg xmlns="http://www.w3.org/2000/svg" xmlns:xlink="http://www.w3.org/1999/xlink" contentStyleType="text/css" height="459px" preserveAspectRatio="none" style="width:509px;height:459px;background:#F0F8FF;" version="1.1" viewBox="0 0 509 459" width="509px" zoomAndPan="magnify"><defs/><g><rect fill="#F0F8FF" height="459" style="stroke:none;stroke-width:1.0;" width="509" x="0" y="0"/><rect fill="#FFFFFF" height="117.5527" style="stroke:#181818;stroke-width:1.0;" width="10" x="221.9419" y="67.7988"/><rect fill="#FFFFFF" height="175.8633" style="stroke:#181818;stroke-width:1.0;" width="10" x="221.9419" y="214.6621"/><rect fill="none" height="59.6211" style="stroke:#000000;stroke-width:1.5;" width="355.8936" x="147.8716" y="302.5938"/><line style="stroke:#181818;stroke-width:0.5;stroke-dasharray:5.0,5.0;" x1="28" x2="28" y1="36.4883" y2="408.5254"/><line style="stroke:#181818;stroke-width:0.5;stroke-dasharray:5.0,5.0;" x1="226.8716" x2="226.8716" y1="36.4883" y2="408.5254"/><rect fill="#DDDDDD" height="30.4883" rx="2.5" ry="2.5" style="stroke:#666666;stroke-width:0.5;" width="46.5254" x="5" y="5"/><text fill="#333333" font-family="sans-serif" font-size="14" lengthAdjust="spacing" textLength="32.5254" x="12" y="25.5352">Main</text><rect fill="#DDDDDD" height="30.4883" rx="2.5" ry="2.5" style="stroke:#666666;stroke-width:0.5;" width="46.5254" x="5" y="407.5254"/><text fill="#333333" font-family="sans-serif" font-size="14" lengthAdjust="spacing" textLength="32.5254" x="12" y="428.0605">Main</text><rect fill="#DDDDDD" height="30.4883" rx="2.5" ry="2.5" style="stroke:#666666;stroke-width:0.5;" width="138.1406" x="157.8716" y="5"/><text fill="#333333" font-family="sans-serif" font-size="14" lengthAdjust="spacing" textLength="124.1406" x="164.8716" y="25.5352">Blockchain Service</text><rect fill="#DDDDDD" height="30.4883" rx="2.5" ry="2.5" style="stroke:#666666;stroke-width:0.5;" width="138.1406" x="157.8716" y="407.5254"/><text fill="#333333" font-family="sans-serif" font-size="14" lengthAdjust="spacing" textLength="124.1406" x="164.8716" y="428.0605">Blockchain Service</text><rect fill="#FFFFFF" height="117.5527" style="stroke:#181818;stroke-width:1.0;" width="10" x="221.9419" y="67.7988"/><rect fill="#FFFFFF" height="175.8633" style="stroke:#181818;stroke-width:1.0;" width="10" x="221.9419" y="214.6621"/><polygon fill="#666666" points="209.9419,63.7988,219.9419,67.7988,209.9419,71.7988,213.9419,67.7988" style="stroke:#666666;stroke-width:1.0;"/><line style="stroke:#666666;stroke-width:1.0;" x1="28.2627" x2="215.9419" y1="67.7988" y2="67.7988"/><text fill="#333333" font-family="sans-serif" font-size="13" lengthAdjust="spacing" textLength="75.8354" x="35.2627" y="63.0566">New(logger)</text><line style="stroke:#666666;stroke-width:1.0;" x1="231.9419" x2="273.9419" y1="143.041" y2="143.041"/><line style="stroke:#666666;stroke-width:1.0;" x1="273.9419" x2="273.9419" y1="143.041" y2="156.041"/><line style="stroke:#666666;stroke-width:1.0;" x1="232.9419" x2="273.9419" y1="156.041" y2="156.041"/><polygon fill="#666666" points="242.9419,152.041,232.9419,156.041,242.9419,160.041,238.9419,156.041" style="stroke:#666666;stroke-width:1.0;"/><text fill="#333333" font-family="sans-serif" font-size="13" lengthAdjust="spacing" textLength="101.645" x="238.9419" y="92.3672">Initialize Service</text><text fill="#333333" font-family="sans-serif" font-size="13" lengthAdjust="spacing" textLength="159.2817" x="238.9419" y="107.6777">- Set up blockchain store</text><text fill="#333333" font-family="sans-serif" font-size="13" lengthAdjust="spacing" textLength="124.998" x="238.9419" y="122.9883">- Initialize channels</text><text fill="#333333" font-family="sans-serif" font-size="13" lengthAdjust="spacing" textLength="227.4492" x="238.9419" y="138.2988">- Prepare context and subscriptions</text><polygon fill="#666666" points="39.2627,181.3516,29.2627,185.3516,39.2627,189.3516,35.2627,185.3516" style="stroke:#666666;stroke-width:1.0;"/><line style="stroke:#666666;stroke-width:1.0;stroke-dasharray:2.0,2.0;" x1="33.2627" x2="225.9419" y1="185.3516" y2="185.3516"/><text fill="#333333" font-family="sans-serif" font-size="13" lengthAdjust="spacing" textLength="169.6792" x="45.2627" y="180.6094">Return Blockchain instance</text><polygon fill="#666666" points="209.9419,210.6621,219.9419,214.6621,209.9419,218.6621,213.9419,214.6621" style="stroke:#666666;stroke-width:1.0;"/><line style="stroke:#666666;stroke-width:1.0;" x1="28.2627" x2="215.9419" y1="214.6621" y2="214.6621"/><text fill="#333333" font-family="sans-serif" font-size="13" lengthAdjust="spacing" textLength="57.1733" x="35.2627" y="209.9199">Start(ctx)</text><line style="stroke:#666666;stroke-width:1.0;" x1="231.9419" x2="273.9419" y1="274.5938" y2="274.5938"/><line style="stroke:#666666;stroke-width:1.0;" x1="273.9419" x2="273.9419" y1="274.5938" y2="287.5938"/><line style="stroke:#666666;stroke-width:1.0;" x1="232.9419" x2="273.9419" y1="287.5938" y2="287.5938"/><polygon fill="#666666" points="242.9419,283.5938,232.9419,287.5938,242.9419,291.5938,238.9419,287.5938" style="stroke:#666666;stroke-width:1.0;"/><text fill="#333333" font-family="sans-serif" font-size="13" lengthAdjust="spacing" textLength="143.1396" x="238.9419" y="239.2305">Start server operations</text><text fill="#333333" font-family="sans-serif" font-size="13" lengthAdjust="spacing" textLength="120.6309" x="238.9419" y="254.541">- Channel listeners</text><text fill="#333333" font-family="sans-serif" font-size="13" lengthAdjust="spacing" textLength="88.3975" x="238.9419" y="269.8516">- GRPC Server</text><path d="M147.8716,302.5938 L222.3184,302.5938 L222.3184,309.9043 L212.3184,319.9043 L147.8716,319.9043 L147.8716,302.5938 " fill="#EEEEEE" style="stroke:#000000;stroke-width:1.5;"/><rect fill="none" height="59.6211" style="stroke:#000000;stroke-width:1.5;" width="355.8936" x="147.8716" y="302.5938"/><text fill="#333333" font-family="sans-serif" font-size="13" font-weight="bold" lengthAdjust="spacing" textLength="29.4468" x="162.8716" y="316.1621">loop</text><text fill="#333333" font-family="sans-serif" font-size="11" font-weight="bold" lengthAdjust="spacing" textLength="239.5669" x="237.3184" y="315.2285">[Notifications and Subscriptions handling]</text><line style="stroke:#666666;stroke-width:1.0;" x1="231.9419" x2="273.9419" y1="341.2148" y2="341.2148"/><line style="stroke:#666666;stroke-width:1.0;" x1="273.9419" x2="273.9419" y1="341.2148" y2="354.2148"/><line style="stroke:#666666;stroke-width:1.0;" x1="232.9419" x2="273.9419" y1="354.2148" y2="354.2148"/><polygon fill="#666666" points="242.9419,350.2148,232.9419,354.2148,242.9419,358.2148,238.9419,354.2148" style="stroke:#666666;stroke-width:1.0;"/><text fill="#333333" font-family="sans-serif" font-size="13" lengthAdjust="spacing" textLength="242.8232" x="238.9419" y="336.4727">Handle notifications and subscriptions</text><polygon fill="#666666" points="39.2627,386.5254,29.2627,390.5254,39.2627,394.5254,35.2627,390.5254" style="stroke:#666666;stroke-width:1.0;"/><line style="stroke:#666666;stroke-width:1.0;stroke-dasharray:2.0,2.0;" x1="33.2627" x2="225.9419" y1="390.5254" y2="390.5254"/><text fill="#333333" font-family="sans-serif" font-size="13" lengthAdjust="spacing" textLength="87.2422" x="45.2627" y="385.7832">Server started</text><text fill="#333333" font-family="sans-serif" font-size="10" lengthAdjust="spacing" textLength="155.4346" x="0" y="449.6816">Last Modified On: 24-Feb-2025</text><!--SRC=[fLDDJ-Cm4BtxLuoALfH3fPLMMgrwu41HOAKD87hbujgJCgePH_Q4hnN_dQbJIhhqi08V4dlclPdt9avU4RSssJjOMBTQfjYndyKG4nnKtwjVLMNo5k6niLsGAh9i83_A6a1iIl5Xa_nPbZ67S8eDCS8Y9eyfGwDP6m9Wm3jaoGE-7acUuAy1E2detLeQ_LVbQLdcnGogE5MOOlXg6NqAEMejo-TA6JCiCQejyGXiXbaWDRgRF0dHhTojGc2EwPuS5kXcRqpFWSdnMsWA5_Wm3d6vn7Hah1Ewju9RmkQzG_ZD96G3FMzXDppHhK3Nmk9TG9QOIcf0q0mpXhmENoLKxLZcZ8y2bZtaRf5TebOeSdxlhkrxvLEuHkaImy0eSHRBAjRZ1_tx3Cz59pPsylYVVWiUiXunGMmnsQ9kRM7Msu50MP3rLgw3PzTNiyB6P4ACBLn4eOPSJoisvqERe4Ly85xgDTZN_toTHk0FLNQ7XUpt3gnNebz3NQ3VEwI0ZUZ_54LnVsmMgAFNNkZXagVmpIjuFF9-KjVrv4dNwCYy0W00]--></g></svg>
