<svg xmlns="http://www.w3.org/2000/svg" xmlns:xlink="http://www.w3.org/1999/xlink" contentStyleType="text/css" height="778px" preserveAspectRatio="none" style="width:689px;height:778px;background:#F0F8FF;" version="1.1" viewBox="0 0 689 778" width="689px" zoomAndPan="magnify"><defs/><g><rect fill="#F0F8FF" height="778" style="stroke:none;stroke-width:1.0;" width="689" x="0" y="0"/><rect fill="#FFFFFF" height="130.2422" style="stroke:#181818;stroke-width:1.0;" width="10" x="254.2773" y="142.1094"/><rect fill="#FFFFFF" height="130.2422" style="stroke:#181818;stroke-width:1.0;" width="10" x="254.2773" y="344.9727"/><rect fill="#FFFFFF" height="130.2422" style="stroke:#181818;stroke-width:1.0;" width="10" x="254.2773" y="547.8359"/><rect fill="#FFFFFF" height="29.3105" style="stroke:#181818;stroke-width:1.0;" width="10" x="649.3975" y="213.7305"/><rect fill="#FFFFFF" height="29.3105" style="stroke:#181818;stroke-width:1.0;" width="10" x="649.3975" y="416.5938"/><rect fill="#FFFFFF" height="29.3105" style="stroke:#181818;stroke-width:1.0;" width="10" x="649.3975" y="619.457"/><line style="stroke:#181818;stroke-width:0.5;stroke-dasharray:5.0,5.0;" x1="31" x2="31" y1="67.4883" y2="696.0781"/><line style="stroke:#181818;stroke-width:0.5;stroke-dasharray:5.0,5.0;" x1="259.207" x2="259.207" y1="67.4883" y2="696.0781"/><line style="stroke:#181818;stroke-width:0.5;stroke-dasharray:5.0,5.0;" x1="653.9453" x2="653.9453" y1="67.4883" y2="696.0781"/><rect fill="#DDDDDD" height="30.4883" rx="2.5" ry="2.5" style="stroke:#666666;stroke-width:0.5;" width="53.5049" x="5" y="36"/><text fill="#333333" font-family="sans-serif" font-size="14" lengthAdjust="spacing" textLength="39.5049" x="12" y="56.5352">Client</text><rect fill="#DDDDDD" height="30.4883" rx="2.5" ry="2.5" style="stroke:#666666;stroke-width:0.5;" width="53.5049" x="5" y="695.0781"/><text fill="#333333" font-family="sans-serif" font-size="14" lengthAdjust="spacing" textLength="39.5049" x="12" y="715.6133">Client</text><rect fill="#DDDDDD" height="30.4883" rx="2.5" ry="2.5" style="stroke:#666666;stroke-width:0.5;" width="138.1406" x="190.207" y="36"/><text fill="#333333" font-family="sans-serif" font-size="14" lengthAdjust="spacing" textLength="124.1406" x="197.207" y="56.5352">Blockchain Service</text><rect fill="#DDDDDD" height="30.4883" rx="2.5" ry="2.5" style="stroke:#666666;stroke-width:0.5;" width="138.1406" x="190.207" y="695.0781"/><text fill="#333333" font-family="sans-serif" font-size="14" lengthAdjust="spacing" textLength="124.1406" x="197.207" y="715.6133">Blockchain Service</text><text fill="#333333" font-family="sans-serif" font-size="14" lengthAdjust="spacing" textLength="34.9043" x="633.9453" y="64.5352">Store</text><path d="M636.3975,15 C636.3975,5 654.3975,5 654.3975,5 C654.3975,5 672.3975,5 672.3975,15 L672.3975,41 C672.3975,51 654.3975,51 654.3975,51 C654.3975,51 636.3975,51 636.3975,41 L636.3975,15 " fill="#E2E2F0" style="stroke:#181818;stroke-width:1.5;"/><path d="M636.3975,15 C636.3975,25 654.3975,25 654.3975,25 C654.3975,25 672.3975,25 672.3975,15 " fill="none" style="stroke:#181818;stroke-width:1.5;"/><text fill="#333333" font-family="sans-serif" font-size="14" lengthAdjust="spacing" textLength="34.9043" x="633.9453" y="708.6133">Store</text><path d="M636.3975,721.5664 C636.3975,711.5664 654.3975,711.5664 654.3975,711.5664 C654.3975,711.5664 672.3975,711.5664 672.3975,721.5664 L672.3975,747.5664 C672.3975,757.5664 654.3975,757.5664 654.3975,757.5664 C654.3975,757.5664 636.3975,757.5664 636.3975,747.5664 L636.3975,721.5664 " fill="#E2E2F0" style="stroke:#181818;stroke-width:1.5;"/><path d="M636.3975,721.5664 C636.3975,731.5664 654.3975,731.5664 654.3975,731.5664 C654.3975,731.5664 672.3975,731.5664 672.3975,721.5664 " fill="none" style="stroke:#181818;stroke-width:1.5;"/><rect fill="#FFFFFF" height="130.2422" style="stroke:#181818;stroke-width:1.0;" width="10" x="254.2773" y="142.1094"/><rect fill="#FFFFFF" height="130.2422" style="stroke:#181818;stroke-width:1.0;" width="10" x="254.2773" y="344.9727"/><rect fill="#FFFFFF" height="130.2422" style="stroke:#181818;stroke-width:1.0;" width="10" x="254.2773" y="547.8359"/><rect fill="#FFFFFF" height="29.3105" style="stroke:#181818;stroke-width:1.0;" width="10" x="649.3975" y="213.7305"/><rect fill="#FFFFFF" height="29.3105" style="stroke:#181818;stroke-width:1.0;" width="10" x="649.3975" y="416.5938"/><rect fill="#FFFFFF" height="29.3105" style="stroke:#181818;stroke-width:1.0;" width="10" x="649.3975" y="619.457"/><rect fill="#EEEEEE" height="3" style="stroke:#EEEEEE;stroke-width:1.0;" width="679.8496" x="0" y="98.1436"/><line style="stroke:#000000;stroke-width:1.0;" x1="0" x2="679.8496" y1="98.1436" y2="98.1436"/><line style="stroke:#000000;stroke-width:1.0;" x1="0" x2="679.8496" y1="101.1436" y2="101.1436"/><rect fill="#EEEEEE" height="23.3105" style="stroke:#000000;stroke-width:2.0;" width="124.2715" x="277.7891" y="87.4883"/><text fill="#333333" font-family="sans-serif" font-size="13" font-weight="bold" lengthAdjust="spacing" textLength="105.9868" x="283.7891" y="104.0566">GetBlockHeader</text><polygon fill="#666666" points="242.2773,138.1094,252.2773,142.1094,242.2773,146.1094,246.2773,142.1094" style="stroke:#666666;stroke-width:1.0;"/><line style="stroke:#666666;stroke-width:1.0;" x1="31.7524" x2="248.2773" y1="142.1094" y2="142.1094"/><text fill="#333333" font-family="sans-serif" font-size="13" lengthAdjust="spacing" textLength="183.4155" x="38.7524" y="137.3672">GetBlockHeader(ctx, request)</text><line style="stroke:#666666;stroke-width:1.0;" x1="264.2773" x2="306.2773" y1="171.4199" y2="171.4199"/><line style="stroke:#666666;stroke-width:1.0;" x1="306.2773" x2="306.2773" y1="171.4199" y2="184.4199"/><line style="stroke:#666666;stroke-width:1.0;" x1="265.2773" x2="306.2773" y1="184.4199" y2="184.4199"/><polygon fill="#666666" points="275.2773,180.4199,265.2773,184.4199,275.2773,188.4199,271.2773,184.4199" style="stroke:#666666;stroke-width:1.0;"/><text fill="#333333" font-family="sans-serif" font-size="13" lengthAdjust="spacing" textLength="251.0942" x="271.2773" y="166.6777">chainhash.NewHash(request.BlockHash)</text><polygon fill="#666666" points="637.3975,209.7305,647.3975,213.7305,637.3975,217.7305,641.3975,213.7305" style="stroke:#666666;stroke-width:1.0;"/><line style="stroke:#666666;stroke-width:1.0;" x1="264.2773" x2="643.3975" y1="213.7305" y2="213.7305"/><text fill="#333333" font-family="sans-serif" font-size="13" lengthAdjust="spacing" textLength="165.8135" x="271.2773" y="208.9883">GetBlockHeader(ctx, hash)</text><polygon fill="#666666" points="275.2773,239.041,265.2773,243.041,275.2773,247.041,271.2773,243.041" style="stroke:#666666;stroke-width:1.0;"/><line style="stroke:#666666;stroke-width:1.0;stroke-dasharray:2.0,2.0;" x1="269.2773" x2="653.3975" y1="243.041" y2="243.041"/><text fill="#333333" font-family="sans-serif" font-size="13" lengthAdjust="spacing" textLength="144.6567" x="281.2773" y="238.2988">blockHeader, meta, err</text><polygon fill="#666666" points="42.7524,268.3516,32.7524,272.3516,42.7524,276.3516,38.7524,272.3516" style="stroke:#666666;stroke-width:1.0;"/><line style="stroke:#666666;stroke-width:1.0;stroke-dasharray:2.0,2.0;" x1="36.7524" x2="258.2773" y1="272.3516" y2="272.3516"/><text fill="#333333" font-family="sans-serif" font-size="13" lengthAdjust="spacing" textLength="159.8911" x="48.7524" y="267.6094">GetBlockHeaderResponse</text><rect fill="#EEEEEE" height="3" style="stroke:#EEEEEE;stroke-width:1.0;" width="679.8496" x="0" y="301.0068"/><line style="stroke:#000000;stroke-width:1.0;" x1="0" x2="679.8496" y1="301.0068" y2="301.0068"/><line style="stroke:#000000;stroke-width:1.0;" x1="0" x2="679.8496" y1="304.0068" y2="304.0068"/><rect fill="#EEEEEE" height="23.3105" style="stroke:#000000;stroke-width:2.0;" width="131.6221" x="274.1138" y="290.3516"/><text fill="#333333" font-family="sans-serif" font-size="13" font-weight="bold" lengthAdjust="spacing" textLength="113.3374" x="280.1138" y="306.9199">GetBlockHeaders</text><polygon fill="#666666" points="242.2773,340.9727,252.2773,344.9727,242.2773,348.9727,246.2773,344.9727" style="stroke:#666666;stroke-width:1.0;"/><line style="stroke:#666666;stroke-width:1.0;" x1="31.7524" x2="248.2773" y1="344.9727" y2="344.9727"/><text fill="#333333" font-family="sans-serif" font-size="13" lengthAdjust="spacing" textLength="190.0425" x="38.7524" y="340.2305">GetBlockHeaders(ctx, request)</text><line style="stroke:#666666;stroke-width:1.0;" x1="264.2773" x2="306.2773" y1="374.2832" y2="374.2832"/><line style="stroke:#666666;stroke-width:1.0;" x1="306.2773" x2="306.2773" y1="374.2832" y2="387.2832"/><line style="stroke:#666666;stroke-width:1.0;" x1="265.2773" x2="306.2773" y1="387.2832" y2="387.2832"/><polygon fill="#666666" points="275.2773,383.2832,265.2773,387.2832,275.2773,391.2832,271.2773,387.2832" style="stroke:#666666;stroke-width:1.0;"/><text fill="#333333" font-family="sans-serif" font-size="13" lengthAdjust="spacing" textLength="246.8413" x="271.2773" y="369.541">chainhash.NewHash(request.StartHash)</text><polygon fill="#666666" points="637.3975,412.5938,647.3975,416.5938,637.3975,420.5938,641.3975,416.5938" style="stroke:#666666;stroke-width:1.0;"/><line style="stroke:#666666;stroke-width:1.0;" x1="264.2773" x2="643.3975" y1="416.5938" y2="416.5938"/><text fill="#333333" font-family="sans-serif" font-size="13" lengthAdjust="spacing" textLength="352.6377" x="271.2773" y="411.8516">GetBlockHeaders(ctx, startHash, req.NumberOfHeaders)</text><polygon fill="#666666" points="275.2773,441.9043,265.2773,445.9043,275.2773,449.9043,271.2773,445.9043" style="stroke:#666666;stroke-width:1.0;"/><line style="stroke:#666666;stroke-width:1.0;stroke-dasharray:2.0,2.0;" x1="269.2773" x2="653.3975" y1="445.9043" y2="445.9043"/><text fill="#333333" font-family="sans-serif" font-size="13" lengthAdjust="spacing" textLength="235.8726" x="281.2773" y="441.1621">blockHeaders, blockHeaderMetas, err</text><polygon fill="#666666" points="42.7524,471.2148,32.7524,475.2148,42.7524,479.2148,38.7524,475.2148" style="stroke:#666666;stroke-width:1.0;"/><line style="stroke:#666666;stroke-width:1.0;stroke-dasharray:2.0,2.0;" x1="36.7524" x2="258.2773" y1="475.2148" y2="475.2148"/><text fill="#333333" font-family="sans-serif" font-size="13" lengthAdjust="spacing" textLength="166.5181" x="48.7524" y="470.4727">GetBlockHeadersResponse</text><rect fill="#EEEEEE" height="3" style="stroke:#EEEEEE;stroke-width:1.0;" width="679.8496" x="0" y="503.8701"/><line style="stroke:#000000;stroke-width:1.0;" x1="0" x2="679.8496" y1="503.8701" y2="503.8701"/><line style="stroke:#000000;stroke-width:1.0;" x1="0" x2="679.8496" y1="506.8701" y2="506.8701"/><rect fill="#EEEEEE" height="23.3105" style="stroke:#000000;stroke-width:2.0;" width="146.2407" x="266.8044" y="493.2148"/><text fill="#333333" font-family="sans-serif" font-size="13" font-weight="bold" lengthAdjust="spacing" textLength="127.9561" x="272.8044" y="509.7832">GetBlockHeaderIDs</text><polygon fill="#666666" points="242.2773,543.8359,252.2773,547.8359,242.2773,551.8359,246.2773,547.8359" style="stroke:#666666;stroke-width:1.0;"/><line style="stroke:#666666;stroke-width:1.0;" x1="31.7524" x2="248.2773" y1="547.8359" y2="547.8359"/><text fill="#333333" font-family="sans-serif" font-size="13" lengthAdjust="spacing" textLength="203.5249" x="38.7524" y="543.0938">GetBlockHeaderIDs(ctx, request)</text><line style="stroke:#666666;stroke-width:1.0;" x1="264.2773" x2="306.2773" y1="577.1465" y2="577.1465"/><line style="stroke:#666666;stroke-width:1.0;" x1="306.2773" x2="306.2773" y1="577.1465" y2="590.1465"/><line style="stroke:#666666;stroke-width:1.0;" x1="265.2773" x2="306.2773" y1="590.1465" y2="590.1465"/><polygon fill="#666666" points="275.2773,586.1465,265.2773,590.1465,275.2773,594.1465,271.2773,590.1465" style="stroke:#666666;stroke-width:1.0;"/><text fill="#333333" font-family="sans-serif" font-size="13" lengthAdjust="spacing" textLength="246.8413" x="271.2773" y="572.4043">chainhash.NewHash(request.StartHash)</text><polygon fill="#666666" points="637.3975,615.457,647.3975,619.457,637.3975,623.457,641.3975,619.457" style="stroke:#666666;stroke-width:1.0;"/><line style="stroke:#666666;stroke-width:1.0;" x1="264.2773" x2="643.3975" y1="619.457" y2="619.457"/><text fill="#333333" font-family="sans-serif" font-size="13" lengthAdjust="spacing" textLength="366.1201" x="271.2773" y="614.7148">GetBlockHeaderIDs(ctx, startHash, req.NumberOfHeaders)</text><polygon fill="#666666" points="275.2773,644.7676,265.2773,648.7676,275.2773,652.7676,271.2773,648.7676" style="stroke:#666666;stroke-width:1.0;"/><line style="stroke:#666666;stroke-width:1.0;stroke-dasharray:2.0,2.0;" x1="269.2773" x2="653.3975" y1="648.7676" y2="648.7676"/><text fill="#333333" font-family="sans-serif" font-size="13" lengthAdjust="spacing" textLength="44.6748" x="281.2773" y="644.0254">ids, err</text><polygon fill="#666666" points="42.7524,674.0781,32.7524,678.0781,42.7524,682.0781,38.7524,678.0781" style="stroke:#666666;stroke-width:1.0;"/><line style="stroke:#666666;stroke-width:1.0;stroke-dasharray:2.0,2.0;" x1="36.7524" x2="258.2773" y1="678.0781" y2="678.0781"/><text fill="#333333" font-family="sans-serif" font-size="13" lengthAdjust="spacing" textLength="180.0005" x="48.7524" y="673.3359">GetBlockHeaderIDsResponse</text><text fill="#333333" font-family="sans-serif" font-size="10" lengthAdjust="spacing" textLength="155.4346" x="0" y="768.2344">Last Modified On: 24-Feb-2025</text><!--SRC=[nLJHQXin47pNLonNIcsmJQ5GIi1vICmrXLu2zHVidVPgOLbofNNIKFhltSYoS-UKuZY1xeDEqixix0w7ujAuDGPSGOtDydlm6wSllVK1tfJloqzbgU8UeQd5ZUNIEywG3oaw40p1t-NannHAlOCPjSOHr3ve2X5QoQArG9PMv3Xs-78qV0-_5C15GlThoUrXbxCKwhVgL6cam-3jIyl8ogOnQtHyMYcbkYMAIsjalW8mmdRRJrzOtooR1He7Smgtfg44pNkbaR76I53CsOUSUzWfDPt2P-B4loAK7c4wLLi969_lAfmTW0OD_nn1e1yRYZnKsB2vHQQzOFxsAgJs5XWNaskwkvBl8FCdsy9oC-mH7nhyk_0YOHzLqoXfXN5NiduaZc15Z2EW49IcG-fELSZRsGzrlr5SUnUfnyt3FlKm7cLYV5qNvon_n74kPkMuOwGc9jURLKtXfisOPneSHzrJ9MR7azsEpxFxo-mummNttopVQx_STADFTrRQ-AUtbbgMHzQpF0HVCJ9KNflMa8ORTmPlvI6XGQ7rkAggyRr4CLH_0000]--></g></svg>
