<svg contentStyleType="text/css" height="557" preserveAspectRatio="none" viewBox="0 0 643 557" width="643" xmlns="http://www.w3.org/2000/svg" zoomAndPan="magnify"><path d="m0 0h643v557h-643z" fill="#f0f8ff"/><path d="m314.6133 98.7988h10v112.2422h-10z" fill="#fff" stroke="#181818"/><path d="m503.5952 255.3066h10v29.3105h-10z" fill="#fff" stroke="#181818"/><path d="m577.9468 128.1094h10v29.3105h-10z" fill="#fff" stroke="#181818"/><path d="m10 172.4199h626.605v285.7051h-626.605z" fill="none" stroke="#000" stroke-width="1.5"/><path d="m20 299.6172h606.605v151.5078h-606.605z" fill="none" stroke="#000" stroke-width="1.5"/><path d="m240.543 368.1934h376.062v46.6211h-376.062z" fill="none" stroke="#000" stroke-width="1.5"/><g stroke-width=".5"><path d="m76 67.4883v407.6367" stroke="#181818" stroke-dasharray="5 5"/><path d="m319.543 67.4883v407.6367" stroke="#181818" stroke-dasharray="5 5"/><path d="m507.9019 67.4883v407.6367" stroke="#181818" stroke-dasharray="5 5"/><path d="m582.2886 67.4883v407.6367" stroke="#181818" stroke-dasharray="5 5"/><rect fill="#ddd" height="30.4883" rx="2.5" stroke="#666" width="92.832" x="30" y="36"/></g><text fill="#333" font-family="sans-serif" font-size="14" lengthAdjust="spacing" textLength="78.832" x="37" y="56.5352">Client Code</text><rect fill="#ddd" height="30.4883" rx="2.5" stroke="#666" stroke-width=".5" width="92.832" x="30" y="474.125"/><text fill="#333" font-family="sans-serif" font-size="14" lengthAdjust="spacing" textLength="78.832" x="37" y="494.6602">Client Code</text><rect fill="#ddd" height="30.4883" rx="2.5" stroke="#666" stroke-width=".5" width="138.1406" x="250.543" y="36"/><text fill="#333" font-family="sans-serif" font-size="14" lengthAdjust="spacing" textLength="124.1406" x="257.543" y="56.5352">Blockchain Service</text><rect fill="#ddd" height="30.4883" rx="2.5" stroke="#666" stroke-width=".5" width="138.1406" x="250.543" y="474.125"/><text fill="#333" font-family="sans-serif" font-size="14" lengthAdjust="spacing" textLength="124.1406" x="257.543" y="494.6602">Blockchain Service</text><text fill="#333" font-family="sans-serif" font-size="14" lengthAdjust="spacing" textLength="75.3867" x="467.9019" y="64.5352">Block Store</text><path d="m490.5952 15c0-10 18-10 18-10s18 0 18 10v26c0 10-18 10-18 10s-18 0-18-10z" fill="#e2e2f0" stroke="#181818" stroke-width="1.5"/><path d="m490.5952 15c0 10 18 10 18 10s18 0 18-10" fill="none" stroke="#181818" stroke-width="1.5"/><text fill="#333" font-family="sans-serif" font-size="14" lengthAdjust="spacing" textLength="75.3867" x="467.9019" y="487.6602">Block Store</text><path d="m490.5952 500.6133c0-10 18-10 18-10s18 0 18 10v26c0 10-18 10-18 10s-18 0-18-10z" fill="#e2e2f0" stroke="#181818" stroke-width="1.5"/><path d="m490.5952 500.6133c0 10 18 10 18 10s18 0 18-10" fill="none" stroke="#181818" stroke-width="1.5"/><text fill="#333" font-family="sans-serif" font-size="14" lengthAdjust="spacing" textLength="41.3164" x="559.2886" y="64.5352">Model</text><ellipse cx="582.9468" cy="35" fill="#ddd" rx="12" ry="12" stroke="#666" stroke-width=".5"/><path d="m570.9468 49h24" stroke="#666" stroke-width=".5"/><text fill="#333" font-family="sans-serif" font-size="14" lengthAdjust="spacing" textLength="41.3164" x="559.2886" y="487.6602">Model</text><ellipse cx="582.9468" cy="506.6133" fill="#ddd" rx="12" ry="12" stroke="#666" stroke-width=".5"/><path d="m570.9468 520.6133h24" stroke="#666" stroke-width=".5"/><path d="m314.6133 98.7988h10v112.2422h-10z" fill="#fff" stroke="#181818"/><path d="m503.5952 255.3066h10v29.3105h-10z" fill="#fff" stroke="#181818"/><path d="m577.9468 128.1094h10v29.3105h-10z" fill="#fff" stroke="#181818"/><path d="m302.6133 94.7988 10 4-10 4 4-4z" fill="#666" stroke="#666"/><path d="m76.416 98.7988h232.1973" stroke="#666"/><text fill="#333" font-family="sans-serif" font-size="13" lengthAdjust="spacing" textLength="138.6963" x="83.416" y="94.0566">GetBlock(ctx, request)</text><path d="m565.9468 124.1094 10 4-10 4 4-4z" fill="#666" stroke="#666"/><path d="m324.6133 128.1094h247.3335" stroke="#666"/><text fill="#333" font-family="sans-serif" font-size="13" lengthAdjust="spacing" textLength="149.8301" x="331.6133" y="123.3672">NewHash(request.Hash)</text><path d="m335.6133 153.4199-10 4 10 4-4-4z" fill="#666" stroke="#666"/><path d="m329.6133 157.4199h252.3335" stroke="#666" stroke-dasharray="2 2"/><text fill="#333" font-family="sans-serif" font-size="13" lengthAdjust="spacing" textLength="111.6426" x="341.6133" y="152.6777">blockHash / Error</text><path d="m10 172.4199h62.1387v7.3106l-10 10h-52.1387z" fill="#eee" stroke="#000" stroke-width="1.5"/><path d="m10 172.4199h626.605v285.7051h-626.605z" fill="none" stroke="#000" stroke-width="1.5"/><text fill="#333" font-family="sans-serif" font-size="13" font-weight="bold" lengthAdjust="spacing" textLength="17.1387" x="25" y="185.9883">alt</text><text fill="#333" font-family="sans-serif" font-size="11" font-weight="bold" lengthAdjust="spacing" textLength="119.5552" x="87.1387" y="185.0547">[If Error in NewHash]</text><path d="m87.416 207.041-10 4 10 4-4-4z" fill="#666" stroke="#666"/><path d="m81.416 211.041h237.1973" stroke="#666" stroke-dasharray="2 2"/><text fill="#333" font-family="sans-serif" font-size="13" lengthAdjust="spacing" textLength="76.8828" x="93.416" y="206.2988">Return Error</text><path d="m10 220.041h626.605" stroke="#000" stroke-dasharray="2 2"/><text fill="#333" font-family="sans-serif" font-size="11" font-weight="bold" lengthAdjust="spacing" textLength="163.2275" x="15" y="230.6758">[If Successful Hash Creation]</text><path d="m491.5952 251.3066 10 4-10 4 4-4z" fill="#666" stroke="#666"/><path d="m319.6133 255.3066h177.9819" stroke="#666"/><text fill="#333" font-family="sans-serif" font-size="13" lengthAdjust="spacing" textLength="164.9819" x="326.6133" y="250.5645">GetBlock(ctx1, blockHash)</text><path d="m330.6133 280.6172-10 4 10 4-4-4z" fill="#666" stroke="#666"/><path d="m324.6133 284.6172h182.9819" stroke="#666" stroke-dasharray="2 2"/><text fill="#333" font-family="sans-serif" font-size="13" lengthAdjust="spacing" textLength="128.5464" x="336.6133" y="279.875">block, height / Error</text><path d="m20 299.6172h62.1387v7.3105l-10 10h-52.1387z" fill="#eee" stroke="#000" stroke-width="1.5"/><path d="m20 299.6172h606.605v151.5078h-606.605z" fill="none" stroke="#000" stroke-width="1.5"/><text fill="#333" font-family="sans-serif" font-size="13" font-weight="bold" lengthAdjust="spacing" textLength="17.1387" x="35" y="313.1855">alt</text><text fill="#333" font-family="sans-serif" font-size="11" font-weight="bold" lengthAdjust="spacing" textLength="116.123" x="97.1387" y="312.252">[If Error in GetBlock]</text><path d="m87.416 334.2383-10 4 10 4-4-4z" fill="#666" stroke="#666"/><path d="m81.416 338.2383h237.1973" stroke="#666" stroke-dasharray="2 2"/><text fill="#333" font-family="sans-serif" font-size="13" lengthAdjust="spacing" textLength="76.8828" x="93.416" y="333.4961">Return Error</text><path d="m20 347.2383h606.605" stroke="#000" stroke-dasharray="2 2"/><text fill="#333" font-family="sans-serif" font-size="11" font-weight="bold" lengthAdjust="spacing" textLength="132.5264" x="25" y="357.873">[If Successful GetBlock]</text><path d="m240.543 368.1934h74.4467v7.3105l-10 10h-64.4467z" fill="#eee" stroke="#000" stroke-width="1.5"/><path d="m240.543 368.1934h376.062v46.6211h-376.062z" fill="none" stroke="#000" stroke-width="1.5"/><text fill="#333" font-family="sans-serif" font-size="13" font-weight="bold" lengthAdjust="spacing" textLength="29.4468" x="255.543" y="381.7617">loop</text><text fill="#333" font-family="sans-serif" font-size="11" font-weight="bold" lengthAdjust="spacing" textLength="183.9224" x="329.9897" y="380.8281">[For Each Subtree Hash in block]</text><path d="m570.9468 402.8145 10 4-10 4 4-4z" fill="#666" stroke="#666"/><path d="m319.6133 406.8145h257.3335" stroke="#666"/><text fill="#333" font-family="sans-serif" font-size="13" lengthAdjust="spacing" textLength="186.7354" x="326.6133" y="402.0723">Convert SubtreeHash to Bytes</text><path d="m87.416 439.125-10 4 10 4-4-4z" fill="#666" stroke="#666"/><path d="m81.416 443.125h237.1973" stroke="#666" stroke-dasharray="2 2"/><text fill="#333" font-family="sans-serif" font-size="13" lengthAdjust="spacing" textLength="219.1973" x="93.416" y="438.3828">Create &amp; Return GetBlockResponse</text><text fill="#333" font-family="sans-serif" font-size="10" lengthAdjust="spacing" textLength="155.4346" y="547.2813">Last Modified On: 24-Feb-2025</text></svg>
