<svg contentStyleType="text/css" height="459" preserveAspectRatio="none" viewBox="0 0 509 459" width="509" xmlns="http://www.w3.org/2000/svg" zoomAndPan="magnify"><path d="m0 0h509v459h-509z" fill="#f0f8ff"/><path d="m221.9419 67.7988h10v117.5527h-10z" fill="#fff" stroke="#181818"/><path d="m221.9419 214.6621h10v175.8633h-10z" fill="#fff" stroke="#181818"/><path d="m147.8716 302.5938h355.8936v59.6211h-355.8936z" fill="none" stroke="#000" stroke-width="1.5"/><path d="m28 36.4883v372.0371" stroke="#181818" stroke-dasharray="5 5" stroke-width=".5"/><path d="m226.8716 36.4883v372.0371" stroke="#181818" stroke-dasharray="5 5" stroke-width=".5"/><rect fill="#ddd" height="30.4883" rx="2.5" stroke="#666" stroke-width=".5" width="46.5254" x="5" y="5"/><text fill="#333" font-family="sans-serif" font-size="14" lengthAdjust="spacing" textLength="32.5254" x="12" y="25.5352">Main</text><rect fill="#ddd" height="30.4883" rx="2.5" stroke="#666" stroke-width=".5" width="46.5254" x="5" y="407.5254"/><text fill="#333" font-family="sans-serif" font-size="14" lengthAdjust="spacing" textLength="32.5254" x="12" y="428.0605">Main</text><rect fill="#ddd" height="30.4883" rx="2.5" stroke="#666" stroke-width=".5" width="138.1406" x="157.8716" y="5"/><text fill="#333" font-family="sans-serif" font-size="14" lengthAdjust="spacing" textLength="124.1406" x="164.8716" y="25.5352">Blockchain Service</text><rect fill="#ddd" height="30.4883" rx="2.5" stroke="#666" stroke-width=".5" width="138.1406" x="157.8716" y="407.5254"/><text fill="#333" font-family="sans-serif" font-size="14" lengthAdjust="spacing" textLength="124.1406" x="164.8716" y="428.0605">Blockchain Service</text><path d="m221.9419 67.7988h10v117.5527h-10z" fill="#fff" stroke="#181818"/><path d="m221.9419 214.6621h10v175.8633h-10z" fill="#fff" stroke="#181818"/><path d="m209.9419 63.7988 10 4-10 4 4-4z" fill="#666" stroke="#666"/><path d="m28.2627 67.7988h187.6792" stroke="#666"/><text fill="#333" font-family="sans-serif" font-size="13" lengthAdjust="spacing" textLength="75.8354" x="35.2627" y="63.0566">New(logger)</text><g stroke="#666"><path d="m231.9419 143.041h42"/><path d="m273.9419 143.041v13"/><path d="m232.9419 156.041h41"/><path d="m242.9419 152.041-10 4 10 4-4-4z" fill="#666"/></g><text fill="#333" font-family="sans-serif" font-size="13" lengthAdjust="spacing" textLength="101.645" x="238.9419" y="92.3672">Initialize Service</text><text fill="#333" font-family="sans-serif" font-size="13" lengthAdjust="spacing" textLength="159.2817" x="238.9419" y="107.6777">- Set up blockchain store</text><text fill="#333" font-family="sans-serif" font-size="13" lengthAdjust="spacing" textLength="124.998" x="238.9419" y="122.9883">- Initialize channels</text><text fill="#333" font-family="sans-serif" font-size="13" lengthAdjust="spacing" textLength="227.4492" x="238.9419" y="138.2988">- Prepare context and subscriptions</text><path d="m39.2627 181.3516-10 4 10 4-4-4z" fill="#666" stroke="#666"/><path d="m33.2627 185.3516h192.6792" stroke="#666" stroke-dasharray="2 2"/><text fill="#333" font-family="sans-serif" font-size="13" lengthAdjust="spacing" textLength="169.6792" x="45.2627" y="180.6094">Return Blockchain instance</text><path d="m209.9419 210.6621 10 4-10 4 4-4z" fill="#666" stroke="#666"/><path d="m28.2627 214.6621h187.6792" stroke="#666"/><text fill="#333" font-family="sans-serif" font-size="13" lengthAdjust="spacing" textLength="57.1733" x="35.2627" y="209.9199">Start(ctx)</text><path d="m231.9419 274.5938h42" stroke="#666"/><path d="m273.9419 274.5938v13" stroke="#666"/><path d="m232.9419 287.5938h41" stroke="#666"/><path d="m242.9419 283.5938-10 4 10 4-4-4z" fill="#666" stroke="#666"/><text fill="#333" font-family="sans-serif" font-size="13" lengthAdjust="spacing" textLength="143.1396" x="238.9419" y="239.2305">Start server operations</text><text fill="#333" font-family="sans-serif" font-size="13" lengthAdjust="spacing" textLength="120.6309" x="238.9419" y="254.541">- Channel listeners</text><text fill="#333" font-family="sans-serif" font-size="13" lengthAdjust="spacing" textLength="88.3975" x="238.9419" y="269.8516">- GRPC Server</text><path d="m147.8716 302.5938h74.4468v7.3105l-10 10h-64.4468z" fill="#eee" stroke="#000" stroke-width="1.5"/><path d="m147.8716 302.5938h355.8936v59.6211h-355.8936z" fill="none" stroke="#000" stroke-width="1.5"/><text fill="#333" font-family="sans-serif" font-size="13" font-weight="bold" lengthAdjust="spacing" textLength="29.4468" x="162.8716" y="316.1621">loop</text><text fill="#333" font-family="sans-serif" font-size="11" font-weight="bold" lengthAdjust="spacing" textLength="239.5669" x="237.3184" y="315.2285">[Notifications and Subscriptions handling]</text><path d="m231.9419 341.2148h42" stroke="#666"/><path d="m273.9419 341.2148v13" stroke="#666"/><path d="m232.9419 354.2148h41" stroke="#666"/><path d="m242.9419 350.2148-10 4 10 4-4-4z" fill="#666" stroke="#666"/><text fill="#333" font-family="sans-serif" font-size="13" lengthAdjust="spacing" textLength="242.8232" x="238.9419" y="336.4727">Handle notifications and subscriptions</text><path d="m39.2627 386.5254-10 4 10 4-4-4z" fill="#666" stroke="#666"/><path d="m33.2627 390.5254h192.6792" stroke="#666" stroke-dasharray="2 2"/><text fill="#333" font-family="sans-serif" font-size="13" lengthAdjust="spacing" textLength="87.2422" x="45.2627" y="385.7832">Server started</text><text fill="#333" font-family="sans-serif" font-size="10" lengthAdjust="spacing" textLength="155.4346" y="449.6816">Last Modified On: 24-Feb-2025</text></svg>
