<svg contentStyleType="text/css" height="762" preserveAspectRatio="none" viewBox="0 0 1072 762" width="1072" xmlns="http://www.w3.org/2000/svg" zoomAndPan="magnify"><path d="m143.5 366.6621h10v304.1738h-10z" fill="#fff" stroke="#181818"/><path d="m153.5 452.2832h10v217.5527h-10z" fill="#fff" stroke="#181818"/><path d="m153.5 452.2832h10v217.5527h-10z" fill="#fff" stroke="#181818"/><path d="m420.5 142.1094h10v143.9316h-10z" fill="#fff" stroke="#181818"/><path d="m420.5 510.9043h10v143.9316h-10z" fill="#fff" stroke="#181818"/><path d="m633 171.4199h10v100.6211h-10z" fill="#fff" stroke="#181818"/><path d="m633 540.2148h10v100.6211h-10z" fill="#fff" stroke="#181818"/><path d="m772.5 200.7305h10v57.3105h-10z" fill="#fff" stroke="#181818"/><path d="m772.5 569.5254h10v57.3105h-10z" fill="#fff" stroke="#181818"/><path d="m914.5 230.041h10v14h-10z" fill="#fff" stroke="#181818"/><path d="m914.5 598.8359h10v14h-10z" fill="#fff" stroke="#181818"/><path d="m1023 400.9727h10v14h-10z" fill="#fff" stroke="#181818"/><path d="m10 472.2832h986v190.5527h-986z" fill="none" stroke="#000" stroke-width="1.5"/><path d="m148 67.4883v612.3476" stroke="#181818" stroke-dasharray="5 5" stroke-width=".5"/><path d="m425 67.4883v612.3476" stroke="#181818" stroke-dasharray="5 5" stroke-width=".5"/><path d="m638 67.4883v612.3476" stroke="#181818" stroke-dasharray="5 5" stroke-width=".5"/><path d="m777 67.4883v612.3476" stroke="#181818" stroke-dasharray="5 5" stroke-width=".5"/><path d="m919 67.4883v612.3476" stroke="#181818" stroke-dasharray="5 5" stroke-width=".5"/><path d="m1028 67.4883v612.3476" stroke="#181818" stroke-dasharray="5 5" stroke-width=".5"/><rect fill="#e2e2f0" height="46.9766" rx="2.5" stroke="#181818" stroke-width=".5" width="257" x="20" y="19.5117"/><text font-family="sans-serif" font-size="14" lengthAdjust="spacing" textLength="152" x="72.5" y="40.0469">Block Assembly Server</text><text font-family="sans-serif" font-size="14" lengthAdjust="spacing" textLength="243" x="27" y="56.5352">(services/blockassembly/Server.go)</text><rect fill="#e2e2f0" height="46.9766" rx="2.5" stroke="#181818" stroke-width=".5" width="257" x="20" y="678.8359"/><text font-family="sans-serif" font-size="14" lengthAdjust="spacing" textLength="152" x="72.5" y="699.3711">Block Assembly Server</text><text font-family="sans-serif" font-size="14" lengthAdjust="spacing" textLength="243" x="27" y="715.8594">(services/blockassembly/Server.go)</text><rect fill="#e2e2f0" height="46.9766" rx="2.5" stroke="#181818" stroke-width=".5" width="277" x="287" y="19.5117"/><text font-family="sans-serif" font-size="14" lengthAdjust="spacing" textLength="81" x="385" y="40.0469">Remote TTL</text><text font-family="sans-serif" font-size="14" lengthAdjust="spacing" textLength="263" x="294" y="56.5352">(services/blockassembly/remotettl.go)</text><rect fill="#e2e2f0" height="46.9766" rx="2.5" stroke="#181818" stroke-width=".5" width="277" x="287" y="678.8359"/><text font-family="sans-serif" font-size="14" lengthAdjust="spacing" textLength="81" x="385" y="699.3711">Remote TTL</text><text font-family="sans-serif" font-size="14" lengthAdjust="spacing" textLength="263" x="294" y="715.8594">(services/blockassembly/remotettl.go)</text><rect fill="#e2e2f0" height="46.9766" rx="2.5" stroke="#181818" stroke-width=".5" width="128" x="574" y="19.5117"/><text font-family="sans-serif" font-size="14" lengthAdjust="spacing" textLength="81" x="597.5" y="40.0469">Asset Client</text><text font-family="sans-serif" font-size="14" lengthAdjust="spacing" textLength="114" x="581" y="56.5352">(asset/Client.go)</text><rect fill="#e2e2f0" height="46.9766" rx="2.5" stroke="#181818" stroke-width=".5" width="128" x="574" y="678.8359"/><text font-family="sans-serif" font-size="14" lengthAdjust="spacing" textLength="81" x="597.5" y="699.3711">Asset Client</text><text font-family="sans-serif" font-size="14" lengthAdjust="spacing" textLength="114" x="581" y="715.8594">(asset/Client.go)</text><rect fill="#e2e2f0" height="46.9766" rx="2.5" stroke="#181818" stroke-width=".5" width="131" x="712" y="19.5117"/><text font-family="sans-serif" font-size="14" lengthAdjust="spacing" textLength="84" x="735.5" y="40.0469">Asset Server</text><text font-family="sans-serif" font-size="14" lengthAdjust="spacing" textLength="117" x="719" y="56.5352">(asset/Server.go)</text><rect fill="#e2e2f0" height="46.9766" rx="2.5" stroke="#181818" stroke-width=".5" width="131" x="712" y="678.8359"/><text font-family="sans-serif" font-size="14" lengthAdjust="spacing" textLength="84" x="735.5" y="699.3711">Asset Server</text><text font-family="sans-serif" font-size="14" lengthAdjust="spacing" textLength="117" x="719" y="715.8594">(asset/Server.go)</text><text font-family="sans-serif" font-size="14" lengthAdjust="spacing" textLength="127" x="853" y="64.5352">Blob Subtree Store</text><path d="m901.5 15c0-10 18-10 18-10s18 0 18 10v26c0 10-18 10-18 10s-18 0-18-10z" fill="#e2e2f0" stroke="#181818" stroke-width="1.5"/><path d="m901.5 15c0 10 18 10 18 10s18 0 18-10" fill="none" stroke="#181818" stroke-width="1.5"/><text font-family="sans-serif" font-size="14" lengthAdjust="spacing" textLength="127" x="853" y="692.3711">Blob Subtree Store</text><path d="m901.5 705.3242c0-10 18-10 18-10s18 0 18 10v26c0 10-18 10-18 10s-18 0-18-10z" fill="#e2e2f0" stroke="#181818" stroke-width="1.5"/><path d="m901.5 705.3242c0 10 18 10 18 10s18 0 18-10" fill="none" stroke="#181818" stroke-width="1.5"/><text font-family="sans-serif" font-size="14" lengthAdjust="spacing" textLength="58" x="996" y="64.5352">Tx Store</text><path d="m1010 15c0-10 18-10 18-10s18 0 18 10v26c0 10-18 10-18 10s-18 0-18-10z" fill="#e2e2f0" stroke="#181818" stroke-width="1.5"/><path d="m1010 15c0 10 18 10 18 10s18 0 18-10" fill="none" stroke="#181818" stroke-width="1.5"/><text font-family="sans-serif" font-size="14" lengthAdjust="spacing" textLength="58" x="996" y="692.3711">Tx Store</text><g stroke="#181818"><path d="m1010 705.3242c0-10 18-10 18-10s18 0 18 10v26c0 10-18 10-18 10s-18 0-18-10z" fill="#e2e2f0" stroke-width="1.5"/><path d="m1010 705.3242c0 10 18 10 18 10s18 0 18-10" fill="none" stroke-width="1.5"/><path d="m143.5 366.6621h10v304.1738h-10z" fill="#fff"/><path d="m153.5 452.2832h10v217.5527h-10z" fill="#fff"/><path d="m153.5 452.2832h10v217.5527h-10z" fill="#fff"/><path d="m420.5 142.1094h10v143.9316h-10z" fill="#fff"/><path d="m420.5 510.9043h10v143.9316h-10z" fill="#fff"/><path d="m633 171.4199h10v100.6211h-10z" fill="#fff"/><path d="m633 540.2148h10v100.6211h-10z" fill="#fff"/><path d="m772.5 200.7305h10v57.3105h-10z" fill="#fff"/><path d="m772.5 569.5254h10v57.3105h-10z" fill="#fff"/><path d="m914.5 230.041h10v14h-10z" fill="#fff"/><path d="m914.5 598.8359h10v14h-10z" fill="#fff"/><path d="m1023 400.9727h10v14h-10z" fill="#fff"/></g><path d="m0 98.1436h1065v3h-1065z" fill="#eee" stroke="#eee"/><path d="m0 98.1436h1065" stroke="#000"/><path d="m0 101.1436h1065" stroke="#000"/><path d="m450.5 87.4883h164v23.3105h-164z" fill="#eee" stroke="#000" stroke-width="2"/><text font-family="sans-serif" font-size="13" font-weight="bold" lengthAdjust="spacing" textLength="146" x="456.5" y="104.0566">New Subtree Scenario</text><path d="m408.5 138.1094 10 4-10 4 4-4z" fill="#181818" stroke="#181818"/><path d="m148.5 142.1094h266" stroke="#181818"/><text font-family="sans-serif" font-size="13" lengthAdjust="spacing" textLength="102" x="155.5" y="137.3672">Set(ctx, subtree)</text><path d="m621 167.4199 10 4-10 4 4-4z" fill="#181818" stroke="#181818"/><path d="m430.5 171.4199h196.5" stroke="#181818"/><text font-family="sans-serif" font-size="13" lengthAdjust="spacing" textLength="102" x="437.5" y="166.6777">set(ctx, subtree)</text><path d="m760.5 196.7305 10 4-10 4 4-4z" fill="#181818" stroke="#181818"/><path d="m643 200.7305h123.5" stroke="#181818"/><text font-family="sans-serif" font-size="13" lengthAdjust="spacing" textLength="102" x="650" y="195.9883">Set(ctx, subtree)</text><path d="m902.5 226.041 10 4-10 4 4-4z" fill="#181818" stroke="#181818"/><path d="m782.5 230.041h126" stroke="#181818"/><text font-family="sans-serif" font-size="13" lengthAdjust="spacing" textLength="102" x="789.5" y="225.2988">Set(ctx, subtree)</text><path d="m793.5 240.041-10 4 10 4-4-4z" fill="#181818" stroke="#181818"/><path d="m787.5 244.041h131" stroke="#181818" stroke-dasharray="2 2"/><path d="m654 254.041-10 4 10 4-4-4z" fill="#181818" stroke="#181818"/><path d="m648 258.041h128.5" stroke="#181818" stroke-dasharray="2 2"/><path d="m441.5 268.041-10 4 10 4-4-4z" fill="#181818" stroke="#181818"/><path d="m435.5 272.041h201.5" stroke="#181818" stroke-dasharray="2 2"/><path d="m159.5 282.041-10 4 10 4-4-4z" fill="#181818" stroke="#181818"/><path d="m153.5 286.041h271" stroke="#181818" stroke-dasharray="2 2"/><path d="m0 314.6963h1065v3h-1065z" fill="#eee" stroke="#eee"/><path d="m0 314.6963h1065" stroke="#000"/><path d="m0 317.6963h1065" stroke="#000"/><path d="m415 304.041h235v23.3105h-235z" fill="#eee" stroke="#000" stroke-width="2"/><text font-family="sans-serif" font-size="13" font-weight="bold" lengthAdjust="spacing" textLength="217" x="421" y="320.6094">Submit Mining Solution Scenario</text><path d="m148.5 353.6621h47" stroke="#181818"/><path d="m195.5 353.6621v13" stroke="#181818"/><path d="m154.5 366.6621h41" stroke="#181818"/><path d="m164.5 362.6621-10 4 10 4-4-4z" fill="#181818" stroke="#181818"/><text font-family="sans-serif" font-size="13" lengthAdjust="spacing" textLength="210" x="160.5" y="348.9199">submitMiningSolution(ctx, block)</text><path d="m1011 396.9727 10 4-10 4 4-4z" fill="#181818" stroke="#181818"/><path d="m153.5 400.9727h863.5" stroke="#181818"/><text font-family="sans-serif" font-size="13" lengthAdjust="spacing" textLength="220" x="160.5" y="396.2305">Save Coinbase Tx Set(ctx, hash, tx)</text><path d="m164.5 410.9727-10 4 10 4-4-4z" fill="#181818" stroke="#181818"/><path d="m158.5 414.9727h868.5" stroke="#181818" stroke-dasharray="2 2"/><path d="m153.5 439.2832h47" stroke="#181818"/><path d="m200.5 439.2832v13" stroke="#181818"/><path d="m159.5 452.2832h41" stroke="#181818"/><path d="m169.5 448.2832-10 4 10 4-4-4z" fill="#181818" stroke="#181818"/><text font-family="sans-serif" font-size="13" lengthAdjust="spacing" textLength="193" x="165.5" y="434.541">removeSubtreesTTL(ctx, Block)</text><path d="m10 472.2832h74v7.3106l-10 10h-64z" fill="#eee" stroke="#000" stroke-width="1.5"/><path d="m10 472.2832h986v190.5527h-986z" fill="none" stroke="#000" stroke-width="1.5"/><text font-family="sans-serif" font-size="13" font-weight="bold" lengthAdjust="spacing" textLength="29" x="25" y="485.8516">loop</text><text font-family="sans-serif" font-size="11" font-weight="bold" lengthAdjust="spacing" textLength="172" x="99" y="484.918">[For Each Subtree in the Block]</text><path d="m408.5 506.9043 10 4-10 4 4-4z" fill="#181818" stroke="#181818"/><path d="m163.5 510.9043h251" stroke="#181818"/><text font-family="sans-serif" font-size="13" lengthAdjust="spacing" textLength="92" x="170.5" y="506.1621">SetTTL(ctx, ttl)</text><path d="m621 536.2148 10 4-10 4 4-4z" fill="#181818" stroke="#181818"/><path d="m430.5 540.2148h196.5" stroke="#181818"/><text font-family="sans-serif" font-size="13" lengthAdjust="spacing" textLength="92" x="437.5" y="535.4727">SetTTL(ctx, ttl)</text><path d="m760.5 565.5254 10 4-10 4 4-4z" fill="#181818" stroke="#181818"/><path d="m643 569.5254h123.5" stroke="#181818"/><text font-family="sans-serif" font-size="13" lengthAdjust="spacing" textLength="92" x="650" y="564.7832">SetTTL(ctx, ttl)</text><path d="m902.5 594.8359 10 4-10 4 4-4z" fill="#181818" stroke="#181818"/><path d="m782.5 598.8359h126" stroke="#181818"/><text font-family="sans-serif" font-size="13" lengthAdjust="spacing" textLength="92" x="789.5" y="594.0938">SetTTL(ctx, ttl)</text><path d="m793.5 608.8359-10 4 10 4-4-4z" fill="#181818" stroke="#181818"/><path d="m787.5 612.8359h131" stroke="#181818" stroke-dasharray="2 2"/><path d="m654 622.8359-10 4 10 4-4-4z" fill="#181818" stroke="#181818"/><path d="m648 626.8359h128.5" stroke="#181818" stroke-dasharray="2 2"/><path d="m441.5 636.8359-10 4 10 4-4-4z" fill="#181818" stroke="#181818"/><path d="m435.5 640.8359h201.5" stroke="#181818" stroke-dasharray="2 2"/><path d="m174.5 650.8359-10 4 10 4-4-4z" fill="#181818" stroke="#181818"/><path d="m168.5 654.8359h256" stroke="#181818" stroke-dasharray="2 2"/><text fill="#888" font-family="sans-serif" font-size="10" lengthAdjust="spacing" textLength="149" y="751.9922">Last Modified On: 6-Dec-2023</text></svg>
