<svg contentStyleType="text/css" height="362" preserveAspectRatio="none" viewBox="0 0 826 362" width="826" xmlns="http://www.w3.org/2000/svg" zoomAndPan="magnify"><path d="m0 0h826v362h-826z" fill="#f0f8ff"/><path d="m326.7808 98.7988h10v112.2422h-10z" fill="#fff" stroke="#181818"/><path d="m780.3057 128.1094h10v29.3105h-10z" fill="#fff" stroke="#181818"/><path d="m10 172.4199h400.8511v90.8867h-400.8511z" fill="none" stroke="#000" stroke-width="1.5"/><path d="m46 67.4883v212.8183" stroke="#181818" stroke-dasharray="5 5" stroke-width=".5"/><path d="m331.7104 67.4883v212.8183" stroke="#181818" stroke-dasharray="5 5" stroke-width=".5"/><path d="m784.6123 67.4883v212.8183" stroke="#181818" stroke-dasharray="5 5" stroke-width=".5"/><rect fill="#ddd" height="30.4883" rx="2.5" stroke="#666" stroke-width=".5" width="53.5049" x="20" y="36"/><text fill="#333" font-family="sans-serif" font-size="14" lengthAdjust="spacing" textLength="39.5049" x="27" y="56.5352">Client</text><rect fill="#ddd" height="30.4883" rx="2.5" stroke="#666" stroke-width=".5" width="53.5049" x="20" y="279.3066"/><text fill="#333" font-family="sans-serif" font-size="14" lengthAdjust="spacing" textLength="39.5049" x="27" y="299.8418">Client</text><rect fill="#ddd" height="30.4883" rx="2.5" stroke="#666" stroke-width=".5" width="138.1406" x="262.7104" y="36"/><text fill="#333" font-family="sans-serif" font-size="14" lengthAdjust="spacing" textLength="124.1406" x="269.7104" y="56.5352">Blockchain Service</text><rect fill="#ddd" height="30.4883" rx="2.5" stroke="#666" stroke-width=".5" width="138.1406" x="262.7104" y="279.3066"/><text fill="#333" font-family="sans-serif" font-size="14" lengthAdjust="spacing" textLength="124.1406" x="269.7104" y="299.8418">Blockchain Service</text><text fill="#333" font-family="sans-serif" font-size="14" lengthAdjust="spacing" textLength="75.3867" x="744.6123" y="64.5352">Block Store</text><path d="m767.3057 15c0-10 18-10 18-10s18 0 18 10v26c0 10-18 10-18 10s-18 0-18-10z" fill="#e2e2f0" stroke="#181818" stroke-width="1.5"/><path d="m767.3057 15c0 10 18 10 18 10s18 0 18-10" fill="none" stroke="#181818" stroke-width="1.5"/><text fill="#333" font-family="sans-serif" font-size="14" lengthAdjust="spacing" textLength="75.3867" x="744.6123" y="292.8418">Block Store</text><g stroke="#181818"><path d="m767.3057 305.7949c0-10 18-10 18-10s18 0 18 10v26c0 10-18 10-18 10s-18 0-18-10z" fill="#e2e2f0" stroke-width="1.5"/><path d="m767.3057 305.7949c0 10 18 10 18 10s18 0 18-10" fill="none" stroke-width="1.5"/><path d="m326.7808 98.7988h10v112.2422h-10z" fill="#fff"/><path d="m780.3057 128.1094h10v29.3105h-10z" fill="#fff"/></g><path d="m314.7808 94.7988 10 4-10 4 4-4z" fill="#666" stroke="#666"/><path d="m46.7524 98.7988h274.0284" stroke="#666"/><text fill="#333" font-family="sans-serif" font-size="13" lengthAdjust="spacing" textLength="180.5273" x="53.7524" y="94.0566">GetLastNBlocks(ctx, request)</text><path d="m768.3057 124.1094 10 4-10 4 4-4z" fill="#666" stroke="#666"/><path d="m336.7808 128.1094h437.5249" stroke="#666"/><text fill="#333" font-family="sans-serif" font-size="13" lengthAdjust="spacing" textLength="424.5249" x="343.7808" y="123.3672">GetLastNBlocks(ctx, numberOfBlocks, includeOrphans, fromHeight)</text><path d="m347.7808 153.4199-10 4 10 4-4-4z" fill="#666" stroke="#666"/><path d="m341.7808 157.4199h442.5249" stroke="#666" stroke-dasharray="2 2"/><text fill="#333" font-family="sans-serif" font-size="13" lengthAdjust="spacing" textLength="104.7935" x="353.7808" y="152.6777">blockInfo / Error</text><path d="m10 172.4199h62.1387v7.3106l-10 10h-52.1387z" fill="#eee" stroke="#000" stroke-width="1.5"/><path d="m10 172.4199h400.8511v90.8867h-400.8511z" fill="none" stroke="#000" stroke-width="1.5"/><text fill="#333" font-family="sans-serif" font-size="13" font-weight="bold" lengthAdjust="spacing" textLength="17.1387" x="25" y="185.9883">alt</text><text fill="#333" font-family="sans-serif" font-size="11" font-weight="bold" lengthAdjust="spacing" textLength="154.3384" x="87.1387" y="185.0547">[If Error in GetLastNBlocks]</text><path d="m57.7524 207.041-10 4 10 4-4-4z" fill="#666" stroke="#666"/><path d="m51.7524 211.041h279.0284" stroke="#666" stroke-dasharray="2 2"/><text fill="#333" font-family="sans-serif" font-size="13" lengthAdjust="spacing" textLength="76.8828" x="63.7524" y="206.2988">Return Error</text><path d="m10 220.041h400.8511" stroke="#000" stroke-dasharray="2 2"/><text fill="#333" font-family="sans-serif" font-size="11" font-weight="bold" lengthAdjust="spacing" textLength="79.4492" x="15" y="230.6758">[If Successful]</text><path d="m57.7524 251.3066-10 4 10 4-4-4z" fill="#666" stroke="#666"/><path d="m51.7524 255.3066h279.0284" stroke="#666" stroke-dasharray="2 2"/><text fill="#333" font-family="sans-serif" font-size="13" lengthAdjust="spacing" textLength="261.0283" x="63.7524" y="250.5645">Create &amp; Return GetLastNBlocksResponse</text><text fill="#333" font-family="sans-serif" font-size="10" lengthAdjust="spacing" textLength="155.4346" y="352.4629">Last Modified On: 24-Feb-2025</text></svg>
