<svg contentStyleType="text/css" height="360" preserveAspectRatio="none" viewBox="0 0 690 360" width="690" xmlns="http://www.w3.org/2000/svg" zoomAndPan="magnify"><path d="m0 0h690v360h-690z" fill="#f0f8ff"/><path d="m451.4976 165.4199h10v87.9316h-10z" fill="#fff" stroke="#181818"/><path d="m648.7422 194.7305h10v29.3105h-10z" fill="#fff" stroke="#181818"/><path d="m10 126.7988h674.1943v134.5527h-674.1943z" fill="none" stroke="#000" stroke-width="1.5"/><path d="m79 67.4883v210.8633" stroke="#181818" stroke-dasharray="5 5" stroke-width=".5"/><path d="m456.4272 67.4883v210.8633" stroke="#181818" stroke-dasharray="5 5" stroke-width=".5"/><path d="m653.29 67.4883v210.8633" stroke="#181818" stroke-dasharray="5 5" stroke-width=".5"/><rect fill="#ddd" height="30.4883" rx="2.5" stroke="#666" stroke-width=".5" width="119.458" x="20" y="36"/><text fill="#333" font-family="sans-serif" font-size="14" lengthAdjust="spacing" textLength="105.458" x="27" y="56.5352">Block Assembly</text><rect fill="#ddd" height="30.4883" rx="2.5" stroke="#666" stroke-width=".5" width="119.458" x="20" y="277.3516"/><text fill="#333" font-family="sans-serif" font-size="14" lengthAdjust="spacing" textLength="105.458" x="27" y="297.8867">Block Assembly</text><rect fill="#ddd" height="30.4883" rx="2.5" stroke="#666" stroke-width=".5" width="138.1406" x="387.4272" y="36"/><text fill="#333" font-family="sans-serif" font-size="14" lengthAdjust="spacing" textLength="124.1406" x="394.4272" y="56.5352">Blockchain Service</text><rect fill="#ddd" height="30.4883" rx="2.5" stroke="#666" stroke-width=".5" width="138.1406" x="387.4272" y="277.3516"/><text fill="#333" font-family="sans-serif" font-size="14" lengthAdjust="spacing" textLength="124.1406" x="394.4272" y="297.8867">Blockchain Service</text><text fill="#333" font-family="sans-serif" font-size="14" lengthAdjust="spacing" textLength="34.9043" x="633.29" y="64.5352">Store</text><path d="m635.7422 15c0-10 18-10 18-10s18 0 18 10v26c0 10-18 10-18 10s-18 0-18-10z" fill="#e2e2f0" stroke="#181818" stroke-width="1.5"/><path d="m635.7422 15c0 10 18 10 18 10s18 0 18-10" fill="none" stroke="#181818" stroke-width="1.5"/><text fill="#333" font-family="sans-serif" font-size="14" lengthAdjust="spacing" textLength="34.9043" x="633.29" y="290.8867">Store</text><g stroke="#181818"><path d="m635.7422 303.8398c0-10 18-10 18-10s18 0 18 10v26c0 10-18 10-18 10s-18 0-18-10z" fill="#e2e2f0" stroke-width="1.5"/><path d="m635.7422 303.8398c0 10 18 10 18 10s18 0 18-10" fill="none" stroke-width="1.5"/><path d="m451.4976 165.4199h10v87.9316h-10z" fill="#fff"/><path d="m648.7422 194.7305h10v29.3105h-10z" fill="#fff"/></g><path d="m79.729 98.7988h42" stroke="#666"/><path d="m121.729 98.7988v13" stroke="#666"/><path d="m80.729 111.7988h41" stroke="#666"/><path d="m90.729 107.7988-10 4 10 4-4-4z" fill="#666" stroke="#666"/><text fill="#333" font-family="sans-serif" font-size="13" lengthAdjust="spacing" textLength="362.7686" x="86.729" y="94.0566">submitMiningSolution(ctx, submitMiningSolutionRequest)</text><path d="m10 126.7988h62.1387v7.3106l-10 10h-52.1387z" fill="#eee" stroke="#000" stroke-width="1.5"/><path d="m10 126.7988h674.1943v134.5527h-674.1943z" fill="none" stroke="#000" stroke-width="1.5"/><text fill="#333" font-family="sans-serif" font-size="13" font-weight="bold" lengthAdjust="spacing" textLength="17.1387" x="25" y="140.3672">alt</text><text fill="#333" font-family="sans-serif" font-size="11" font-weight="bold" lengthAdjust="spacing" textLength="193.1016" x="87.1387" y="139.4336">[Failed to submit mining solution]</text><path d="m439.4976 161.4199 10 4-10 4 4-4z" fill="#666" stroke="#666"/><path d="m79.729 165.4199h365.7686" stroke="#666"/><text fill="#333" font-family="sans-serif" font-size="13" lengthAdjust="spacing" textLength="150.1792" x="86.729" y="160.6777">InvalidateBlock(request)</text><path d="m636.7422 190.7305 10 4-10 4 4-4z" fill="#666" stroke="#666"/><path d="m461.4976 194.7305h181.2446" stroke="#666"/><text fill="#333" font-family="sans-serif" font-size="13" lengthAdjust="spacing" textLength="168.2446" x="468.4976" y="189.9883">InvalidateBlock(blockHash)</text><path d="m472.4976 220.041-10 4 10 4-4-4z" fill="#666" stroke="#666"/><path d="m466.4976 224.041h186.2446" stroke="#666" stroke-dasharray="2 2"/><text fill="#333" font-family="sans-serif" font-size="13" lengthAdjust="spacing" textLength="38.7778" x="478.4976" y="219.2988">Result</text><path d="m90.729 249.3516-10 4 10 4-4-4z" fill="#666" stroke="#666"/><path d="m84.729 253.3516h370.7686" stroke="#666" stroke-dasharray="2 2"/><text fill="#333" font-family="sans-serif" font-size="13" lengthAdjust="spacing" textLength="164.3027" x="96.729" y="248.6094">Response (Empty or Error)</text><text fill="#333" font-family="sans-serif" font-size="10" lengthAdjust="spacing" textLength="155.4346" y="350.5078">Last Modified On: 24-Feb-2025</text></svg>
