<svg contentStyleType="text/css" height="778" preserveAspectRatio="none" viewBox="0 0 689 778" width="689" xmlns="http://www.w3.org/2000/svg" zoomAndPan="magnify"><path d="m0 0h689v778h-689z" fill="#f0f8ff"/><g stroke="#181818"><path d="m254.2773 142.1094h10v130.2422h-10z" fill="#fff"/><path d="m254.2773 344.9727h10v130.2422h-10z" fill="#fff"/><path d="m254.2773 547.8359h10v130.2422h-10z" fill="#fff"/><path d="m649.3975 213.7305h10v29.3105h-10z" fill="#fff"/><path d="m649.3975 416.5938h10v29.3105h-10z" fill="#fff"/><path d="m649.3975 619.457h10v29.3105h-10z" fill="#fff"/><path d="m31 67.4883v628.5898" stroke-dasharray="5 5" stroke-width=".5"/><path d="m259.207 67.4883v628.5898" stroke-dasharray="5 5" stroke-width=".5"/><path d="m653.9453 67.4883v628.5898" stroke-dasharray="5 5" stroke-width=".5"/></g><rect fill="#ddd" height="30.4883" rx="2.5" stroke="#666" stroke-width=".5" width="53.5049" x="5" y="36"/><text fill="#333" font-family="sans-serif" font-size="14" lengthAdjust="spacing" textLength="39.5049" x="12" y="56.5352">Client</text><rect fill="#ddd" height="30.4883" rx="2.5" stroke="#666" stroke-width=".5" width="53.5049" x="5" y="695.0781"/><text fill="#333" font-family="sans-serif" font-size="14" lengthAdjust="spacing" textLength="39.5049" x="12" y="715.6133">Client</text><rect fill="#ddd" height="30.4883" rx="2.5" stroke="#666" stroke-width=".5" width="138.1406" x="190.207" y="36"/><text fill="#333" font-family="sans-serif" font-size="14" lengthAdjust="spacing" textLength="124.1406" x="197.207" y="56.5352">Blockchain Service</text><rect fill="#ddd" height="30.4883" rx="2.5" stroke="#666" stroke-width=".5" width="138.1406" x="190.207" y="695.0781"/><text fill="#333" font-family="sans-serif" font-size="14" lengthAdjust="spacing" textLength="124.1406" x="197.207" y="715.6133">Blockchain Service</text><text fill="#333" font-family="sans-serif" font-size="14" lengthAdjust="spacing" textLength="34.9043" x="633.9453" y="64.5352">Store</text><path d="m636.3975 15c0-10 18-10 18-10s18 0 18 10v26c0 10-18 10-18 10s-18 0-18-10z" fill="#e2e2f0" stroke="#181818" stroke-width="1.5"/><path d="m636.3975 15c0 10 18 10 18 10s18 0 18-10" fill="none" stroke="#181818" stroke-width="1.5"/><text fill="#333" font-family="sans-serif" font-size="14" lengthAdjust="spacing" textLength="34.9043" x="633.9453" y="708.6133">Store</text><path d="m636.3975 721.5664c0-10 18-10 18-10s18 0 18 10v26c0 10-18 10-18 10s-18 0-18-10z" fill="#e2e2f0" stroke="#181818" stroke-width="1.5"/><path d="m636.3975 721.5664c0 10 18 10 18 10s18 0 18-10" fill="none" stroke="#181818" stroke-width="1.5"/><path d="m254.2773 142.1094h10v130.2422h-10z" fill="#fff" stroke="#181818"/><path d="m254.2773 344.9727h10v130.2422h-10z" fill="#fff" stroke="#181818"/><path d="m254.2773 547.8359h10v130.2422h-10z" fill="#fff" stroke="#181818"/><path d="m649.3975 213.7305h10v29.3105h-10z" fill="#fff" stroke="#181818"/><path d="m649.3975 416.5938h10v29.3105h-10z" fill="#fff" stroke="#181818"/><path d="m649.3975 619.457h10v29.3105h-10z" fill="#fff" stroke="#181818"/><path d="m0 98.1436h679.8496v3h-679.8496z" fill="#eee" stroke="#eee"/><path d="m0 98.1436h679.8496" stroke="#000"/><path d="m0 101.1436h679.8496" stroke="#000"/><path d="m277.7891 87.4883h124.2715v23.3105h-124.2715z" fill="#eee" stroke="#000" stroke-width="2"/><text fill="#333" font-family="sans-serif" font-size="13" font-weight="bold" lengthAdjust="spacing" textLength="105.9868" x="283.7891" y="104.0566">GetBlockHeader</text><path d="m242.2773 138.1094 10 4-10 4 4-4z" fill="#666" stroke="#666"/><path d="m31.7524 142.1094h216.5249" stroke="#666"/><text fill="#333" font-family="sans-serif" font-size="13" lengthAdjust="spacing" textLength="183.4155" x="38.7524" y="137.3672">GetBlockHeader(ctx, request)</text><path d="m264.2773 171.4199h42" stroke="#666"/><path d="m306.2773 171.4199v13" stroke="#666"/><path d="m265.2773 184.4199h41" stroke="#666"/><path d="m275.2773 180.4199-10 4 10 4-4-4z" fill="#666" stroke="#666"/><text fill="#333" font-family="sans-serif" font-size="13" lengthAdjust="spacing" textLength="251.0942" x="271.2773" y="166.6777">chainhash.NewHash(request.BlockHash)</text><path d="m637.3975 209.7305 10 4-10 4 4-4z" fill="#666" stroke="#666"/><path d="m264.2773 213.7305h379.1202" stroke="#666"/><text fill="#333" font-family="sans-serif" font-size="13" lengthAdjust="spacing" textLength="165.8135" x="271.2773" y="208.9883">GetBlockHeader(ctx, hash)</text><path d="m275.2773 239.041-10 4 10 4-4-4z" fill="#666" stroke="#666"/><path d="m269.2773 243.041h384.1202" stroke="#666" stroke-dasharray="2 2"/><text fill="#333" font-family="sans-serif" font-size="13" lengthAdjust="spacing" textLength="144.6567" x="281.2773" y="238.2988">blockHeader, meta, err</text><path d="m42.7524 268.3516-10 4 10 4-4-4z" fill="#666" stroke="#666"/><path d="m36.7524 272.3516h221.5249" stroke="#666" stroke-dasharray="2 2"/><text fill="#333" font-family="sans-serif" font-size="13" lengthAdjust="spacing" textLength="159.8911" x="48.7524" y="267.6094">GetBlockHeaderResponse</text><path d="m0 301.0068h679.8496v3h-679.8496z" fill="#eee" stroke="#eee"/><path d="m0 301.0068h679.8496" stroke="#000"/><path d="m0 304.0068h679.8496" stroke="#000"/><path d="m274.1138 290.3516h131.6221v23.3105h-131.6221z" fill="#eee" stroke="#000" stroke-width="2"/><text fill="#333" font-family="sans-serif" font-size="13" font-weight="bold" lengthAdjust="spacing" textLength="113.3374" x="280.1138" y="306.9199">GetBlockHeaders</text><path d="m242.2773 340.9727 10 4-10 4 4-4z" fill="#666" stroke="#666"/><path d="m31.7524 344.9727h216.5249" stroke="#666"/><text fill="#333" font-family="sans-serif" font-size="13" lengthAdjust="spacing" textLength="190.0425" x="38.7524" y="340.2305">GetBlockHeaders(ctx, request)</text><path d="m264.2773 374.2832h42" stroke="#666"/><path d="m306.2773 374.2832v13" stroke="#666"/><path d="m265.2773 387.2832h41" stroke="#666"/><path d="m275.2773 383.2832-10 4 10 4-4-4z" fill="#666" stroke="#666"/><text fill="#333" font-family="sans-serif" font-size="13" lengthAdjust="spacing" textLength="246.8413" x="271.2773" y="369.541">chainhash.NewHash(request.StartHash)</text><path d="m637.3975 412.5938 10 4-10 4 4-4z" fill="#666" stroke="#666"/><path d="m264.2773 416.5938h379.1202" stroke="#666"/><text fill="#333" font-family="sans-serif" font-size="13" lengthAdjust="spacing" textLength="352.6377" x="271.2773" y="411.8516">GetBlockHeaders(ctx, startHash, req.NumberOfHeaders)</text><path d="m275.2773 441.9043-10 4 10 4-4-4z" fill="#666" stroke="#666"/><path d="m269.2773 445.9043h384.1202" stroke="#666" stroke-dasharray="2 2"/><text fill="#333" font-family="sans-serif" font-size="13" lengthAdjust="spacing" textLength="235.8726" x="281.2773" y="441.1621">blockHeaders, blockHeaderMetas, err</text><path d="m42.7524 471.2148-10 4 10 4-4-4z" fill="#666" stroke="#666"/><path d="m36.7524 475.2148h221.5249" stroke="#666" stroke-dasharray="2 2"/><text fill="#333" font-family="sans-serif" font-size="13" lengthAdjust="spacing" textLength="166.5181" x="48.7524" y="470.4727">GetBlockHeadersResponse</text><path d="m0 503.8701h679.8496v3h-679.8496z" fill="#eee" stroke="#eee"/><path d="m0 503.8701h679.8496" stroke="#000"/><path d="m0 506.8701h679.8496" stroke="#000"/><path d="m266.8044 493.2148h146.2407v23.3105h-146.2407z" fill="#eee" stroke="#000" stroke-width="2"/><text fill="#333" font-family="sans-serif" font-size="13" font-weight="bold" lengthAdjust="spacing" textLength="127.9561" x="272.8044" y="509.7832">GetBlockHeaderIDs</text><path d="m242.2773 543.8359 10 4-10 4 4-4z" fill="#666" stroke="#666"/><path d="m31.7524 547.8359h216.5249" stroke="#666"/><text fill="#333" font-family="sans-serif" font-size="13" lengthAdjust="spacing" textLength="203.5249" x="38.7524" y="543.0938">GetBlockHeaderIDs(ctx, request)</text><path d="m264.2773 577.1465h42" stroke="#666"/><path d="m306.2773 577.1465v13" stroke="#666"/><path d="m265.2773 590.1465h41" stroke="#666"/><path d="m275.2773 586.1465-10 4 10 4-4-4z" fill="#666" stroke="#666"/><text fill="#333" font-family="sans-serif" font-size="13" lengthAdjust="spacing" textLength="246.8413" x="271.2773" y="572.4043">chainhash.NewHash(request.StartHash)</text><path d="m637.3975 615.457 10 4-10 4 4-4z" fill="#666" stroke="#666"/><path d="m264.2773 619.457h379.1202" stroke="#666"/><text fill="#333" font-family="sans-serif" font-size="13" lengthAdjust="spacing" textLength="366.1201" x="271.2773" y="614.7148">GetBlockHeaderIDs(ctx, startHash, req.NumberOfHeaders)</text><path d="m275.2773 644.7676-10 4 10 4-4-4z" fill="#666" stroke="#666"/><path d="m269.2773 648.7676h384.1202" stroke="#666" stroke-dasharray="2 2"/><text fill="#333" font-family="sans-serif" font-size="13" lengthAdjust="spacing" textLength="44.6748" x="281.2773" y="644.0254">ids, err</text><path d="m42.7524 674.0781-10 4 10 4-4-4z" fill="#666" stroke="#666"/><path d="m36.7524 678.0781h221.5249" stroke="#666" stroke-dasharray="2 2"/><text fill="#333" font-family="sans-serif" font-size="13" lengthAdjust="spacing" textLength="180.0005" x="48.7524" y="673.3359">GetBlockHeaderIDsResponse</text><text fill="#333" font-family="sans-serif" font-size="10" lengthAdjust="spacing" textLength="155.4346" y="768.2344">Last Modified On: 24-Feb-2025</text></svg>
