<svg width="24" height="24" viewBox="0 0 24 24" fill="none" xmlns="http://www.w3.org/2000/svg">
<path fill-rule="evenodd" clip-rule="evenodd" d="M7.69025 6.45395C8.02678 6.79151 8.02678 7.33881 7.69025 7.67638L3.23048 12.1498L7.69025 16.6232C8.02678 16.9608 8.02678 17.5081 7.69025 17.8456C7.35371 18.1832 6.80808 18.1832 6.47155 17.8456L1.40243 12.761C1.06589 12.4234 1.06589 11.8761 1.40243 11.5386L6.47155 6.45395C6.80808 6.11638 7.35371 6.11638 7.69025 6.45395Z" fill="white" fill-opacity="0.88"/>
<path fill-rule="evenodd" clip-rule="evenodd" d="M14.3867 3.17581C14.8484 3.29159 15.1291 3.7609 15.0137 4.22403L10.9584 20.4948C10.843 20.958 10.3751 21.2396 9.91339 21.1238C9.45166 21.008 9.17094 20.5387 9.28637 20.0756L13.3417 3.80474C13.4571 3.34161 13.925 3.06002 14.3867 3.17581Z" fill="white" fill-opacity="0.88"/>
<path fill-rule="evenodd" clip-rule="evenodd" d="M16.6098 6.45395C16.9464 6.11638 17.492 6.11638 17.8285 6.45395L22.8976 11.5386C23.2342 11.8761 23.2342 12.4234 22.8976 12.761L17.8285 17.8456C17.492 18.1832 16.9464 18.1832 16.6098 17.8456C16.2733 17.5081 16.2733 16.9608 16.6098 16.6232L21.0696 12.1498L16.6098 7.67638C16.2733 7.33881 16.2733 6.79151 16.6098 6.45395Z" fill="white" fill-opacity="0.88"/>
</svg>
