<svg width="24" height="24" viewBox="0 0 24 24" fill="none" xmlns="http://www.w3.org/2000/svg">
<path fill-rule="evenodd" clip-rule="evenodd" d="M1 12C1 5.92 5.92 1 12 1C18.08 1 23 5.92 23 12C23 18.08 18.08 23 12 23C5.92 23 1 18.08 1 12ZM13.69 21.25C17.82 20.5 21.01 17.05 21.37 12.8H16.67C16.39 15.82 15.36 18.72 13.69 21.25ZM16.67 11.2H21.37C21.01 6.95 17.82 3.5 13.69 2.75C15.36 5.27 16.38 8.17 16.67 11.2ZM10.31 2.75C6.18 3.5 2.99 6.95 2.63 11.2H7.33C7.61 8.18 8.64 5.28 10.31 2.75ZM8.94 11.2C9.24 8.28 10.29 5.5 12 3.12C13.71 5.5 14.76 8.29 15.06 11.2H8.94ZM8.94 12.8H15.06C14.76 15.72 13.71 18.5 12 20.88C10.29 18.5 9.24 15.71 8.94 12.8ZM7.33 12.8C7.61 15.82 8.64 18.72 10.31 21.25C6.18 20.5 2.99 17.05 2.63 12.8H7.33Z" fill="white" fill-opacity="0.88"/>
</svg>
