<svg width="24" height="24" viewBox="0 0 24 24" fill="none" xmlns="http://www.w3.org/2000/svg">
<path fill-rule="evenodd" clip-rule="evenodd" d="M13.8382 13.6041C14.1117 13.4088 14.4514 13.3111 14.7926 13.3111H20.7185C21.0596 13.3111 21.3994 13.4088 21.6728 13.604C21.9448 13.7983 22.2 14.1335 22.2 14.5809V20.9302C22.2 21.3776 21.9447 21.7128 21.6728 21.907C21.3994 22.1023 21.0597 22.2 20.7185 22.2H14.7926C14.4514 22.2 14.1116 22.1023 13.8382 21.907C13.5663 21.7128 13.3111 21.3776 13.3111 20.9302V14.5809C13.3111 14.1335 13.5663 13.7983 13.8382 13.6041ZM14.7926 14.7926V20.7185H20.7185V14.7926H14.7926Z" fill="white" fill-opacity="0.88"/>
<path fill-rule="evenodd" clip-rule="evenodd" d="M13.8382 2.49294C14.1117 2.29764 14.4514 2.2 14.7926 2.2H20.7185C21.0596 2.2 21.3994 2.29765 21.6728 2.49293C21.9448 2.68719 22.2 3.02237 22.2 3.46984V9.81905C22.2 10.2665 21.9447 10.6017 21.6728 10.7959C21.3994 10.9912 21.0597 11.0889 20.7185 11.0889H14.7926C14.4514 11.0889 14.1116 10.9912 13.8382 10.7959C13.5663 10.6016 13.3111 10.2665 13.3111 9.81905V3.46984C13.3111 3.02242 13.5663 2.68723 13.8382 2.49294ZM14.7926 3.68148V9.6074H20.7185V3.68148H14.7926Z" fill="white" fill-opacity="0.88"/>
<path fill-rule="evenodd" clip-rule="evenodd" d="M2.72717 2.49294C3.00059 2.29764 3.34035 2.2 3.68149 2.2H9.60742C9.94855 2.2 10.2883 2.29765 10.5617 2.49293C10.8337 2.68719 11.0889 3.02237 11.0889 3.46984V9.81905C11.0889 10.2665 10.8337 10.6017 10.5617 10.7959C10.2883 10.9912 9.94858 11.0889 9.60742 11.0889H3.68149C3.34033 11.0889 3.00056 10.9912 2.72715 10.7959C2.45519 10.6016 2.20001 10.2665 2.20001 9.81905V3.46984C2.20001 3.02242 2.45517 2.68723 2.72717 2.49294ZM3.68149 3.68148V9.6074H9.60742V3.68148H3.68149Z" fill="white" fill-opacity="0.88"/>
<path fill-rule="evenodd" clip-rule="evenodd" d="M2.72717 13.6041C3.00059 13.4088 3.34035 13.3111 3.68149 13.3111H9.60742C9.94855 13.3111 10.2883 13.4088 10.5617 13.604C10.8337 13.7983 11.0889 14.1335 11.0889 14.5809V20.9302C11.0889 21.3776 10.8337 21.7128 10.5617 21.907C10.2883 22.1023 9.94858 22.2 9.60742 22.2H3.68149C3.34033 22.2 3.00056 22.1023 2.72715 21.907C2.45519 21.7128 2.20001 21.3776 2.20001 20.9302V14.5809C2.20001 14.1335 2.45517 13.7983 2.72717 13.6041ZM3.68149 14.7926V20.7185H9.60742V14.7926H3.68149Z" fill="white" fill-opacity="0.88"/>
</svg>
