<svg width="24" height="24" viewBox="0 0 24 24" fill="none" xmlns="http://www.w3.org/2000/svg">
<path d="M9.5245 10.8074H14.5154C14.9546 10.8074 15.314 10.4531 15.314 10.0202V5.09981C15.314 4.66682 14.9546 4.31256 14.5154 4.31256H9.5245C9.0853 4.31256 8.72595 4.66682 8.72595 5.09981V10.0202C8.72595 10.4531 9.0853 10.8074 9.5245 10.8074ZM10.323 5.88707H13.7169V9.2329H10.323V5.88707ZM22.2015 9.93158H17.2105C16.7713 9.93158 16.412 10.2858 16.412 10.7188V15.6392C16.412 16.0722 16.7713 16.4264 17.2105 16.4264H22.2015C22.6407 16.4264 23 16.0722 23 15.6392V10.7188C23 10.2858 22.6407 9.93158 22.2015 9.93158ZM21.4029 14.8519H18.0091V11.5061H21.4029V14.8519ZM22.2015 2H17.2105C16.7713 2 16.412 2.35426 16.412 2.78725V7.70759C16.412 8.14058 16.7713 8.49485 17.2105 8.49485H22.2015C22.6407 8.49485 23 8.14058 23 7.70759V2.78725C23 2.35426 22.6407 2 22.2015 2ZM21.4029 6.92034H18.0091V3.57451H21.4029V6.92034ZM15.2441 17.0366H11.5708V13.3857C11.5708 12.9527 11.2114 12.5984 10.7722 12.5984H7.08893V8.92783C7.08893 8.49485 6.72958 8.14058 6.29038 8.14058H1.79855C1.35935 8.14058 1 8.49485 1 8.92783V13.3561V17.7844V22.2127C1 22.6457 1.35935 23 1.79855 23H15.2441C15.6833 23 16.0426 22.6457 16.0426 22.2127V17.7844C16.0426 17.3515 15.6833 16.9972 15.2441 16.9972V17.0366ZM5.48185 17.0169H2.5971V14.1631H5.47187V17.0169H5.48185ZM7.09891 18.6111H9.9637V21.4649H7.09891V18.6111ZM9.98367 17.0366H7.09891V14.1828H9.98367V17.0366ZM2.5971 9.72493H5.49183V12.5787H2.5971V9.72493ZM2.5971 18.6111H5.47187V21.4649H2.5971V18.6111ZM14.4456 21.4649H11.5708V18.6111H14.4456V21.4649Z" fill="white" fill-opacity="0.88"/>
</svg>
