<svg width="24" height="24" viewBox="0 0 24 24" fill="none" xmlns="http://www.w3.org/2000/svg">
<path d="M14.6861 3.79119L3.40506 14.9366C3.2403 15.0916 3.03678 15.1789 2.82356 15.1789C2.61035 15.1789 2.39713 15.1013 2.24207 14.9366C1.92224 14.6167 1.92224 14.0934 2.24207 13.7736L13.5037 2.64758H9.9566C9.5011 2.64758 9.13281 2.2793 9.13281 1.82379C9.13281 1.36828 9.5011 1 9.9566 1H15.5099C15.6165 1 15.7231 1.01938 15.8297 1.06784C15.9266 1.10661 16.0236 1.17445 16.0914 1.25198C16.1108 1.27137 16.1108 1.29075 16.1302 1.30044C16.1883 1.36828 16.2368 1.43612 16.2659 1.51366C16.3046 1.60088 16.3143 1.6978 16.324 1.78502C16.324 1.79471 16.324 1.8141 16.324 1.82379V7.29956C16.324 7.75507 15.9557 8.12335 15.5002 8.12335C15.0447 8.12335 14.6764 7.75507 14.6764 7.29956V3.79119H14.6861ZM20.85 9.07313C20.5302 8.7533 20.0068 8.74361 19.687 9.07313L8.40594 20.2088V16.7004C8.40594 16.2449 8.03766 15.8767 7.58215 15.8767C7.12665 15.8767 6.75836 16.2449 6.75836 16.7004V22.1762C6.75836 22.1762 6.76806 22.2344 6.77775 22.2634C6.77775 22.341 6.79713 22.4185 6.82621 22.4863C6.85528 22.5639 6.91343 22.6317 6.97158 22.6996C6.98127 22.7189 6.99096 22.7383 7.01035 22.748C7.08788 22.8256 7.17511 22.8837 7.28171 22.9322C7.37863 22.9709 7.49493 23 7.60154 23H13.1548C13.6103 23 13.9786 22.6317 13.9786 22.1762C13.9786 21.7207 13.6103 21.3524 13.1548 21.3524H9.6077L20.8694 10.2361C21.1892 9.9163 21.1989 9.39295 20.8694 9.07313H20.85Z" fill="white" fill-opacity="0.88"/>
</svg>
