<svg width="24" height="24" viewBox="0 0 24 24" fill="none" xmlns="http://www.w3.org/2000/svg">
<path d="M21.9409 1H7.62726C7.02955 1 6.54719 1.5088 6.54719 2.13927V6.78482H5.38322C4.78551 6.78482 4.30315 7.29362 4.30315 7.92408V11.4193H2.08008C1.48236 11.4193 1 11.9281 1 12.5586V21.8607C1 22.4912 1.48236 23 2.08008 23H10.899C11.4967 23 11.979 22.4912 11.979 21.8607V20.6883H16.3832C16.9809 20.6883 17.4633 20.1795 17.4633 19.549V18.3766H21.9199C22.5176 18.3766 23 17.8678 23 17.2373V2.13927C23 1.5088 22.5176 1 21.9199 1H21.9409ZM10.3117 18.9296V21.2524H2.67779V13.2001H10.3117V18.9296ZM15.8065 16.6068V18.9296H11.9895V12.5696C11.9895 11.9392 11.5071 11.4304 10.9094 11.4304H5.98093V8.56561H15.8065V16.6179V16.6068ZM21.3537 16.6068H17.4843V7.93514C17.4843 7.30468 17.0019 6.79588 16.4042 6.79588H8.23546V2.76973H21.3537V16.6068Z" fill="white" fill-opacity="0.88"/>
</svg>
