<svg width="22" height="22" viewBox="0 0 22 22" fill="none" xmlns="http://www.w3.org/2000/svg">
<g clip-path="url(#clip0_211_670)">
<path fill-rule="evenodd" clip-rule="evenodd" d="M15.2436 21.1269C13.9172 21.7018 12.5026 21.9893 11 21.9893C9.49737 21.9893 8.08283 21.7018 6.75636 21.1269C5.4299 20.5521 4.2598 19.758 3.24607 18.7447C2.23235 17.7316 1.43791 16.562 0.862744 15.2362C0.287581 13.9104 0 12.4965 0 10.9946C0 9.49275 0.287581 8.0789 0.862744 6.75307C1.43791 5.42725 2.23055 4.25773 3.24068 3.24449C4.25081 2.23126 5.41911 1.43721 6.74558 0.862324C8.07205 0.287441 9.48659 0 10.9892 0C12.4918 0 13.9082 0.287441 15.2382 0.862324C16.5683 1.43721 17.7402 2.23126 18.7539 3.24449C19.7676 4.25773 20.5621 5.42725 21.1372 6.75307C21.7124 8.0789 22 9.49275 22 10.9946C22 12.4965 21.7124 13.9104 21.1372 15.2362C20.5621 16.562 19.7676 17.7316 18.7539 18.7447C17.7402 19.758 16.5701 20.5521 15.2436 21.1269ZM7.95881 6.9956V15.3278C7.95881 15.5793 8.0361 15.7823 8.19067 15.9369C8.34525 16.0913 8.55195 16.1685 8.81078 16.1685H9.26371V17.0201C9.26371 17.1782 9.31224 17.3058 9.40931 17.4028C9.50636 17.4998 9.63038 17.5483 9.78136 17.5483C9.93234 17.5483 10.0564 17.4998 10.1534 17.4028C10.2505 17.3058 10.299 17.1782 10.299 17.0201V16.1685H11V17.0201C11 17.1782 11.0503 17.3058 11.151 17.4028C11.2517 17.4998 11.3739 17.5483 11.5176 17.5483C11.6686 17.5483 11.7945 17.4998 11.8951 17.4028C11.9957 17.3058 12.0461 17.1782 12.0461 17.0201V16.1362C12.9375 16.0428 13.6331 15.7482 14.1329 15.2524C14.6325 14.7565 14.8824 14.1133 14.8824 13.3229C14.8824 12.7121 14.7152 12.1911 14.3809 11.7599C14.0466 11.3288 13.6026 11.0306 13.049 10.8653C13.4444 10.6713 13.7679 10.3766 14.0196 9.9814C14.2712 9.58617 14.397 9.16219 14.397 8.70947C14.397 8.04117 14.1849 7.48066 13.7607 7.02794C13.3366 6.57522 12.765 6.29496 12.0461 6.18717V5.31407C12.0461 5.16317 11.9957 5.03741 11.8951 4.93681C11.7945 4.8362 11.6686 4.7859 11.5176 4.7859C11.3739 4.7859 11.2517 4.8362 11.151 4.93681C11.0503 5.03741 11 5.16317 11 5.31407V6.14406H10.299V5.31407C10.299 5.16317 10.2505 5.03741 10.1534 4.93681C10.0564 4.8362 9.93234 4.7859 9.78136 4.7859C9.63038 4.7859 9.50636 4.8362 9.40931 4.93681C9.31224 5.03741 9.26371 5.16317 9.26371 5.31407V6.14406H8.81078C8.55914 6.14406 8.35424 6.22311 8.19607 6.3812C8.0379 6.53929 7.95881 6.74409 7.95881 6.9956ZM11.2803 14.8967L9.3392 14.9075V11.6306H11.1617C11.931 11.6306 12.5134 11.7671 12.9089 12.0402C13.3043 12.3133 13.502 12.7229 13.502 13.269C13.502 13.8008 13.3133 14.2032 12.9358 14.4762C12.5584 14.7493 12.0065 14.8894 11.2803 14.8967ZM10.8814 10.3802L9.3392 10.3694V7.39443H11.1834C11.7657 7.39443 12.2168 7.51659 12.5367 7.76091C12.8567 8.00524 13.0166 8.35735 13.0166 8.81726C13.0166 9.32029 12.8333 9.70833 12.4667 9.9814C12.1 10.2545 11.5715 10.3874 10.8814 10.3802Z" fill="white" fill-opacity="0.88"/>
</g>
<defs>
<clipPath id="clip0_211_670">
<rect width="22" height="22" fill="white"/>
</clipPath>
</defs>
</svg>
