<svg width="24" height="24" viewBox="0 0 24 24" fill="none" xmlns="http://www.w3.org/2000/svg">
<path d="M6.01266 22.2481C5.91983 22.6008 5.59494 22.8329 5.25148 22.8329C5.1865 22.8329 5.11224 22.8329 5.03797 22.8051C3.21857 22.3038 1.79831 20.9392 1.24135 19.1384C1.11139 18.7207 1.34346 18.2844 1.76118 18.1544C2.16962 18.0245 2.61519 18.2565 2.74515 18.6743C3.13502 19.9367 4.17468 20.9392 5.4557 21.292C5.87342 21.4034 6.12405 21.8397 6.01266 22.2574V22.2481ZM22.2295 18.1451C21.8118 18.0152 21.3755 18.2473 21.2456 18.665C20.8557 19.9274 19.816 20.93 18.535 21.2827C18.1173 21.3941 17.8667 21.8304 17.9873 22.2481C18.0802 22.6008 18.4051 22.8329 18.7485 22.8329C18.8228 22.8329 18.8878 22.8329 18.962 22.8051C20.7814 22.3038 22.2017 20.9392 22.7586 19.1384C22.8886 18.7207 22.6565 18.2844 22.2388 18.1544L22.2295 18.1451ZM13.5688 21.4219H10.4312C9.99494 21.4219 9.64219 21.7747 9.64219 22.211C9.64219 22.6473 9.99494 23 10.4312 23H13.5688C14.0051 23 14.3578 22.6473 14.3578 22.211C14.3578 21.7747 14.0051 21.4219 13.5688 21.4219ZM10.4312 2.57806H13.5688C14.0051 2.57806 14.3578 2.22532 14.3578 1.78903C14.3578 1.35274 14.0051 1 13.5688 1H10.4312C9.99494 1 9.64219 1.35274 9.64219 1.78903C9.64219 2.22532 9.99494 2.57806 10.4312 2.57806ZM1.78903 14.3578C2.22532 14.3578 2.57806 14.0051 2.57806 13.5688V10.4312C2.57806 9.99494 2.22532 9.64219 1.78903 9.64219C1.35274 9.64219 1 9.99494 1 10.4312V13.5688C1 14.0051 1.35274 14.3578 1.78903 14.3578ZM22.211 9.64219C21.7747 9.64219 21.4219 9.99494 21.4219 10.4312V13.5688C21.4219 14.0051 21.7747 14.3578 22.211 14.3578C22.6473 14.3578 23 14.0051 23 13.5688V10.4312C23 9.99494 22.6473 9.64219 22.211 9.64219ZM5.04726 1.19494C3.2557 1.68692 1.79831 3.08861 1.25063 4.8616C1.12068 5.27932 1.35274 5.71561 1.77046 5.84557C1.84473 5.87342 1.92827 5.8827 2.00253 5.8827C2.33671 5.8827 2.65232 5.6692 2.75443 5.32574C3.1443 4.06329 4.18397 3.06076 5.46498 2.70802C5.8827 2.59662 6.13333 2.16034 6.02194 1.74262C5.91055 1.32489 5.47426 1.07426 5.05654 1.18565L5.04726 1.19494ZM18.5443 2.7173C19.8253 3.07004 20.8557 4.07257 21.2549 5.33502C21.357 5.6692 21.6726 5.89198 22.0068 5.89198C22.081 5.89198 22.1646 5.8827 22.2388 5.85485C22.6565 5.72489 22.8886 5.27933 22.7586 4.87089C22.211 3.09789 20.7536 1.6962 18.962 1.20422C18.5443 1.09283 18.108 1.33418 17.9966 1.76118C17.8852 2.1789 18.1266 2.61519 18.5443 2.72658V2.7173ZM14.5899 13.0118L12.7983 14.8034V7.28439C12.7983 6.8481 12.4456 6.49536 12.0093 6.49536C11.573 6.49536 11.2203 6.8481 11.2203 7.28439V14.8034L9.42869 13.0118C9.12236 12.7055 8.6211 12.7055 8.31477 13.0118C8.00844 13.3181 8.00844 13.8194 8.31477 14.1257L11.4523 17.2633C11.4523 17.2633 11.4987 17.2911 11.5266 17.3097C11.5823 17.3561 11.638 17.4025 11.7122 17.4304C11.8051 17.4675 11.9072 17.4954 12.0186 17.4954C12.0186 17.4954 12.0186 17.4954 12.0278 17.4954C12.13 17.4954 12.2228 17.4768 12.3156 17.4397C12.3992 17.4025 12.4827 17.3468 12.5477 17.2819C12.5477 17.2819 12.5662 17.2819 12.5755 17.2633L15.7131 14.1257C16.0194 13.8194 16.0194 13.3181 15.7131 13.0118C15.4068 12.7055 14.9055 12.7055 14.5992 13.0118H14.5899Z" fill="white" fill-opacity="0.88"/>
</svg>
