<svg width="24" height="24" viewBox="0 0 24 24" fill="none" xmlns="http://www.w3.org/2000/svg">
<g clip-path="url(#clip0_303_16)">
<path d="M7.82726 20.0636H7.80908C7.46362 20.0636 7.10908 19.9727 6.79999 19.8182C6.4909 19.6636 6.20908 19.4364 5.99999 19.1636L2.1909 14.2545C1.88181 13.8545 1.95453 13.2909 2.35453 12.9818C2.74544 12.6727 3.31817 12.7455 3.62726 13.1364L7.44544 18.0455C7.4909 18.1091 7.55453 18.1545 7.61817 18.1909C7.68181 18.2273 7.75453 18.2364 7.83635 18.2455C7.90908 18.2455 7.97272 18.2273 8.04544 18.2C8.11817 18.1727 8.17272 18.1273 8.21817 18.0727L20.3909 3.32727C20.7091 2.93636 21.2818 2.88182 21.6727 3.20909C22.0636 3.52727 22.1182 4.1 21.7909 4.49091L9.60908 19.2273C9.3909 19.4909 9.10908 19.7091 8.79999 19.8455C8.49999 19.9818 8.16362 20.0545 7.82726 20.0545V20.0636Z" fill="white" fill-opacity="0.88"/>
</g>
<defs>
<clipPath id="clip0_303_16">
<rect width="20" height="17.0636" fill="white" transform="translate(2 3)"/>
</clipPath>
</defs>
</svg>
