<svg width="24" height="24" viewBox="0 0 24 24" fill="none" xmlns="http://www.w3.org/2000/svg">
<path d="M21.4286 10.6429H20.6429V8.28571C20.6429 7.65714 20.3914 7.06 19.9514 6.62C19.5114 6.18 18.9143 5.92857 18.2857 5.92857H17.5V2.78571C17.5 2.34571 17.1543 2 16.7143 2H6.5C3.46714 2 1 4.46714 1 7.5V19.2857C1 19.8986 1.25143 20.5114 1.69143 20.9514C2.13143 21.3914 2.72857 21.6429 3.35714 21.6429H18.2857C18.9143 21.6429 19.5114 21.3914 19.9514 20.9514C20.3914 20.5114 20.6429 19.8986 20.6429 19.2857V16.9286H21.4286C22.2929 16.9286 23 16.2214 23 15.3571V12.2143C23 11.35 22.2929 10.6429 21.4286 10.6429ZM19.0714 19.2857C19.0714 19.49 18.9929 19.6943 18.8357 19.8357C18.6786 19.9771 18.49 20.0714 18.2857 20.0714H3.35714C3.15286 20.0714 2.94857 19.9929 2.80714 19.8357C2.66571 19.6786 2.57143 19.49 2.57143 19.2857V7.5C2.57143 5.33143 4.33143 3.57143 6.5 3.57143H15.9286V5.92857H6.5C6.06 5.92857 5.71429 6.27429 5.71429 6.71429C5.71429 7.15429 6.06 7.5 6.5 7.5H18.2857C18.49 7.5 18.6943 7.57857 18.8357 7.73571C18.9771 7.87714 19.0714 8.08143 19.0714 8.28571V10.6429H15.9286C15.0643 10.6429 14.3571 11.35 14.3571 12.2143V15.3571C14.3571 16.2214 15.0643 16.9286 15.9286 16.9286H19.0714V19.2857ZM21.4286 15.3571H15.9286V12.2143H21.4286V15.3571Z" fill="white" fill-opacity="0.88"/>
</svg>
