<svg width="24" height="24" viewBox="0 0 24 24" fill="none" xmlns="http://www.w3.org/2000/svg">
<path d="M2.71879 13.4084H7.14135C7.59392 13.4084 7.86679 13.2139 7.95997 12.8247L9.43215 6.22294L12.083 21.4843C12.1096 21.6594 12.1879 21.7892 12.3177 21.8735C12.4474 21.9578 12.5938 22 12.7569 22C12.9199 22 13.068 21.9578 13.2011 21.8735C13.3342 21.7892 13.4174 21.6594 13.4508 21.4843L15.9925 9.85733L16.5855 12.7469C16.672 13.1879 16.9448 13.4084 17.4041 13.4084H21.2775C21.4772 13.4084 21.6469 13.342 21.7867 13.209C21.9264 13.0761 21.9963 12.9155 21.9963 12.7274C21.9963 12.5328 21.9281 12.369 21.7917 12.236C21.6553 12.1031 21.4839 12.0366 21.2775 12.0366H17.74L16.5954 7.08405C16.5555 6.91539 16.4723 6.79053 16.3458 6.70944C16.2194 6.62836 16.0796 6.58782 15.9265 6.58782C15.7734 6.58782 15.632 6.63161 15.5023 6.71918C15.3725 6.80674 15.2877 6.9381 15.2477 7.11323L12.7407 18.0331L10.1163 2.52072C10.0897 2.35207 10.0165 2.22396 9.89671 2.13639C9.77691 2.04882 9.64214 2.00342 9.49238 2.00017C9.34264 1.99693 9.20454 2.03909 9.07809 2.12666C8.95163 2.21423 8.86844 2.34559 8.82851 2.52072L6.71529 12.0366H2.71879C2.51247 12.0366 2.34109 12.1047 2.20466 12.2409C2.06822 12.3771 2 12.5393 2 12.7274C2 12.9155 2.06822 13.0761 2.20466 13.209C2.34109 13.342 2.51247 13.4084 2.71879 13.4084Z" fill="white" fill-opacity="0.88"/>
</svg>
