<svg width="24" height="24" viewBox="0 0 24 24" fill="none" xmlns="http://www.w3.org/2000/svg">
<path fill-rule="evenodd" clip-rule="evenodd" d="M12.2816 2.82957C12.2301 2.80441 12.1699 2.80441 12.1185 2.82958L3.61345 6.98688L12.2 11.4172L20.7866 6.98688L12.2816 2.82957ZM21.7085 8.1959L12.9458 12.7171V21.3005L21.6113 16.5513C21.6712 16.5184 21.7085 16.4554 21.7085 16.3868V8.1959ZM11.4543 21.3005V12.7171L2.69154 8.1959V16.3868C2.69154 16.4554 2.7288 16.5184 2.7887 16.5513L11.4543 21.3005ZM11.466 1.48194C11.9294 1.25543 12.4707 1.25543 12.9341 1.48194L22.7805 6.29495C23.0371 6.4204 23.2 6.68201 23.2 6.96877V16.3868C23.2 17.0038 22.8646 17.5715 22.3255 17.8669L12.5571 23.2206C12.3345 23.3426 12.0655 23.3426 11.8429 23.2206L2.07448 17.8669C1.53542 17.5715 1.20001 17.0038 1.20001 16.3868V6.96877C1.20001 6.68201 1.36289 6.4204 1.61953 6.29495L11.466 1.48194Z" fill="white" fill-opacity="0.88"/>
</svg>
