<svg width="24" height="24" viewBox="0 0 24 24" fill="none" xmlns="http://www.w3.org/2000/svg">
<g clip-path="url(#clip0_1_1588)">
<path d="M6.53249 23C6.32828 23 6.11477 22.9907 5.91055 22.9628C4.59241 22.8142 3.34853 22.2196 2.42026 21.272L1.72406 20.5938C1.25992 20.1106 1.00929 19.4975 1.00929 18.8471C1.00929 18.1968 1.25992 17.5743 1.71477 17.1098L4.72237 14.1275C5.65064 13.2078 7.25655 13.2078 8.18481 14.1275C8.51899 14.4527 9.1038 14.462 9.44726 14.1275L14.1443 9.41723C14.2279 9.33361 14.2928 9.23142 14.3392 9.12922C14.3857 9.01774 14.4042 8.90625 14.4042 8.79476C14.4042 8.68328 14.3857 8.5625 14.3392 8.4603C14.2928 8.34882 14.2279 8.25591 14.1443 8.1723C13.6802 7.69848 13.4295 7.0853 13.4295 6.43497C13.4295 5.78463 13.6802 5.17145 14.135 4.70693L17.1148 1.71537C18.0616 0.786317 19.6582 0.795608 20.5958 1.71537L21.3013 2.43074C22.2388 3.35051 22.8329 4.59544 22.9814 5.9147C23.13 7.23395 22.8143 8.58108 22.0903 9.69594C18.7671 14.6106 14.5992 18.7728 9.70718 22.0802C9.70718 22.0802 9.70718 22.0802 9.6979 22.0802C8.76034 22.6841 7.66498 23.0093 6.55106 23.0093L6.53249 23Z" fill="white" fill-opacity="0.88"/>
</g>
<defs>
<clipPath id="clip0_1_1588">
<rect width="22" height="22" fill="white" transform="translate(1 1)"/>
</clipPath>
</defs>
</svg>
