<svg width="25" height="24" viewBox="0 0 25 24" fill="none" xmlns="http://www.w3.org/2000/svg">
<path fill-rule="evenodd" clip-rule="evenodd" d="M14.3095 2.03339C14.6128 2.12963 14.8195 2.41633 14.8195 2.74079V9.12252H18.9749C19.2442 9.12252 19.4913 9.27496 19.6166 9.51841C19.742 9.76186 19.725 10.0562 19.5724 10.2829L11.9031 21.6789C11.7232 21.9462 11.3938 22.0629 11.0905 21.9666C10.7872 21.8704 10.5805 21.5837 10.5805 21.2592V14.8775H6.42511C6.15584 14.8775 5.90874 14.725 5.78338 14.4816C5.65802 14.2381 5.67505 13.9438 5.8276 13.7171L13.4969 2.32114C13.6769 2.05377 14.0062 1.93715 14.3095 2.03339Z" fill="white" fill-opacity="0.88"/>
</svg>
