<svg width="24" height="24" viewBox="0 0 24 24" fill="none" xmlns="http://www.w3.org/2000/svg">
<path fill-rule="evenodd" clip-rule="evenodd" d="M12.4588 15.5766C12.4588 16.6932 13.366 17.6178 14.5 17.6178H21.0634V20.2348C21.0634 20.7059 20.889 21.1595 20.5575 21.4735C20.226 21.7875 19.7898 21.9795 19.3188 21.9795H2.74465C2.27359 21.9795 1.83743 21.805 1.50595 21.4735C1.19191 21.142 1 20.7059 1 20.2348V7.14996C1 4.25384 3.33783 1.91602 6.23394 1.91602H16.1959C16.9635 1.91602 17.5741 2.52664 17.5741 3.29429V5.40531H6.4433C5.9548 5.40531 5.57098 5.78913 5.57098 6.27763C5.57098 6.76613 5.9548 7.14996 6.4433 7.14996H19.5282C19.755 7.14996 19.9818 7.25464 20.1388 7.41165C20.3132 7.56867 20.4005 7.79548 20.4005 8.02228V10.6393H14.5C13.3834 10.6393 12.4588 11.5465 12.4588 12.6805V15.5766ZM14.9999 12.1406H22.0055C22.5464 12.1406 23 12.5768 23 13.1351V15.2287C23 15.7695 22.5638 16.2231 22.0055 16.2231H14.9999C14.4591 16.2231 14.0055 15.7869 14.0055 15.2287V13.1351C14.0055 12.5942 14.4417 12.1406 14.9999 12.1406Z" fill="white" fill-opacity="0.88"/>
</svg>
