<svg width="24" height="24" viewBox="0 0 24 24" fill="none" xmlns="http://www.w3.org/2000/svg">
<path d="M1 16.1504C1 16.9547 1.21687 17.6728 1.65061 18.3048C2.08435 18.9367 2.66315 19.4365 3.387 19.8042C4.11086 20.1718 4.91227 20.3557 5.79124 20.3557C6.66446 20.3557 7.46299 20.1718 8.18685 19.8042C8.91071 19.4365 9.48806 18.9367 9.91891 18.3048C10.3498 17.6728 10.5652 16.9547 10.5652 16.1504V13.9444C10.7778 13.864 11.0076 13.8008 11.2546 13.7548C11.5016 13.7088 11.7515 13.6859 12.0043 13.6859C12.5845 13.6859 13.0614 13.7519 13.4348 13.8841V16.1504C13.4348 16.9547 13.6488 17.6728 14.0768 18.3048C14.5048 18.9367 15.0807 19.4365 15.8045 19.8042C16.5284 20.1718 17.3298 20.3557 18.2088 20.3557C19.0878 20.3557 19.8892 20.1718 20.6131 19.8042C21.3369 19.4365 21.9157 18.9367 22.3494 18.3048C22.7831 17.6728 23 16.9547 23 16.1504C23 15.8345 22.9699 15.5185 22.9096 15.2026C22.8493 14.8866 22.73 14.5247 22.5519 14.1167L18.9757 5.77517C18.7287 5.21217 18.3596 4.77556 17.8684 4.46533C17.3772 4.15511 16.8099 4 16.1665 4C15.3392 4 14.6771 4.24129 14.1802 4.72386C13.6833 5.20642 13.4348 5.84123 13.4348 6.62828V7.46417C13.2165 7.40672 12.9896 7.36363 12.754 7.3349C12.5185 7.30618 12.2686 7.29182 12.0043 7.29182C11.7573 7.29182 11.5131 7.31049 11.2718 7.34783C11.0306 7.38517 10.795 7.44119 10.5652 7.51587V6.62828C10.5652 5.84123 10.3167 5.20642 9.81984 4.72386C9.3229 4.24129 8.6608 4 7.83354 4C7.18437 4 6.61418 4.15511 6.123 4.46533C5.63181 4.77556 5.26558 5.21217 5.02429 5.77517L1.43948 14.1167C1.26714 14.5247 1.1508 14.8866 1.09048 15.2026C1.03016 15.5185 1 15.8345 1 16.1504ZM2.35292 16.1504C2.35292 15.5702 2.50516 15.0618 2.80964 14.6252C3.11412 14.1886 3.52488 13.8482 4.04192 13.604C4.55896 13.3598 5.14206 13.2378 5.79124 13.2378C6.43466 13.2378 7.02064 13.3598 7.54917 13.604C8.0777 13.8482 8.49707 14.1886 8.8073 14.6252C9.11752 15.0618 9.27263 15.5702 9.27263 16.1504C9.27263 16.7307 9.11752 17.2391 8.8073 17.6757C8.49707 18.1123 8.07913 18.4527 7.55348 18.6968C7.02782 18.941 6.4404 19.0631 5.79124 19.0631C5.14206 19.0631 4.55896 18.9396 4.04192 18.6925C3.52488 18.4455 3.11412 18.1037 2.80964 17.6671C2.50516 17.2304 2.35292 16.7249 2.35292 16.1504ZM14.7274 16.1504C14.7274 15.5702 14.8825 15.0618 15.1928 14.6252C15.5029 14.1886 15.9209 13.8482 16.4466 13.604C16.9722 13.3598 17.5596 13.2378 18.2088 13.2378C18.858 13.2378 19.4411 13.3598 19.9581 13.604C20.4752 13.8482 20.8845 14.1886 21.1861 14.6252C21.4877 15.0618 21.6385 15.5702 21.6385 16.1504C21.6385 16.7249 21.4877 17.2304 21.1861 17.6671C20.8845 18.1037 20.4752 18.4455 19.9581 18.6925C19.4411 18.9396 18.858 19.0631 18.2088 19.0631C17.5596 19.0631 16.9722 18.941 16.4466 18.6968C15.9209 18.4527 15.5029 18.1123 15.1928 17.6757C14.8825 17.2391 14.7274 16.7307 14.7274 16.1504ZM10.5652 11.3161V10.1442C11.0248 10.0005 11.5045 9.92872 12.0043 9.92872C12.2686 9.92872 12.5185 9.94308 12.754 9.9718C12.9896 10.0005 13.2165 10.0407 13.4348 10.0924V11.2472C13.0614 11.1208 12.5845 11.0576 12.0043 11.0576C11.7515 11.0576 11.5016 11.0806 11.2546 11.1265C11.0076 11.1725 10.7778 11.2357 10.5652 11.3161Z" fill="white" fill-opacity="0.88"/>
</svg>
