<svg width="24" height="24" viewBox="0 0 24 24" fill="none" xmlns="http://www.w3.org/2000/svg">
<path fill-rule="evenodd" clip-rule="evenodd" d="M11.9361 0.935707C5.861 0.935707 0.936127 5.86058 0.936127 11.9357C0.936127 18.0109 5.861 22.9357 11.9361 22.9357C18.0113 22.9357 22.9361 18.0109 22.9361 11.9357C22.9361 5.86058 18.0113 0.935707 11.9361 0.935707ZM2.65963 11.9357C2.65963 6.81244 6.81286 2.65921 11.9361 2.65921C17.0595 2.65921 21.2126 6.81244 21.2126 11.9357C21.2126 17.0591 17.0595 21.2122 11.9361 21.2122C6.81286 21.2122 2.65963 17.059 2.65963 11.9357ZM11.9361 6.39479C12.4121 6.39479 12.7979 6.78061 12.7979 7.25654V11.074H16.6153C17.0913 11.074 17.4771 11.4598 17.4771 11.9357C17.4771 12.4116 17.0913 12.7975 16.6153 12.7975H12.7979V16.6149C12.7979 17.0909 12.4121 17.4767 11.9361 17.4767C11.4602 17.4767 11.0744 17.0909 11.0744 16.6149V12.7975H7.25696C6.78103 12.7975 6.39521 12.4116 6.39521 11.9357C6.39521 11.4598 6.78103 11.074 7.25696 11.074H11.0744V7.25654C11.0744 6.78061 11.4602 6.39479 11.9361 6.39479Z" fill="white" fill-opacity="0.88"/>
</svg>
