<svg width="25" height="24" viewBox="0 0 25 24" fill="none" xmlns="http://www.w3.org/2000/svg">
<path d="M22.9903 4.05021C22.5341 3.60433 21.9157 3.34086 21.277 3.34086H19.0161V1.86135C19.0161 1.38508 18.6309 1 18.1544 1C17.6779 1 17.2926 1.38508 17.2926 1.86135V6.54307C17.2926 7.01935 17.6779 7.40442 18.1544 7.40442C18.6309 7.40442 19.0161 7.01935 19.0161 6.54307V5.06357H21.277C21.4595 5.06357 21.6419 5.1345 21.7737 5.26624C21.9055 5.39797 21.9765 5.58038 21.9765 5.76278V8.80286H3.42351V5.76278C3.42351 5.58038 3.49448 5.39797 3.62628 5.26624C3.75808 5.1345 3.93043 5.06357 4.12305 5.06357C4.59955 5.06357 4.9848 4.67849 4.9848 4.20221C4.9848 3.72593 4.59955 3.34086 4.12305 3.34086C3.47421 3.34086 2.86591 3.5942 2.40969 4.05021C1.95347 4.50622 1.70001 5.12437 1.70001 5.76278V20.5781C1.70001 21.2165 1.96361 21.8448 2.40969 22.2906C2.86591 22.7467 3.47421 23 4.12305 23H21.277C21.9258 23 22.5341 22.7467 22.9903 22.2906C23.4364 21.8448 23.7 21.2165 23.7 20.5781V5.76278C23.7 5.12437 23.4466 4.50622 22.9903 4.05021ZM6.38388 6.54307V1.86135C6.38388 1.38508 6.76914 1 7.24563 1C7.72213 1 8.10739 1.38508 8.10739 1.86135V3.34086H15.0419C15.5184 3.34086 15.9037 3.72593 15.9037 4.20221C15.9037 4.67849 15.5184 5.06357 15.0419 5.06357H8.10739V6.54307C8.10739 7.01935 7.72213 7.40442 7.24563 7.40442C6.76914 7.40442 6.38388 7.01935 6.38388 6.54307Z" fill="white" fill-opacity="0.88"/>
</svg>
