<svg width="24" height="24" viewBox="0 0 24 24" fill="none" xmlns="http://www.w3.org/2000/svg">
<path d="M23 1.78903V6.44894C23 6.88523 22.6472 7.23797 22.2109 7.23797C21.7747 7.23797 21.4219 6.88523 21.4219 6.44894V3.66413L11.87 13.0025C11.7122 13.1511 11.5173 13.2253 11.3223 13.2253C11.1274 13.2253 10.9139 13.1511 10.7561 12.984C10.4498 12.6684 10.4591 12.1764 10.7654 11.87L20.2801 2.57806H17.4489C17.0126 2.57806 16.6599 2.22532 16.6599 1.78903C16.6599 1.35274 17.0126 1 17.4489 1H22.2109C22.3131 1 22.4152 1.01857 22.5173 1.06498C22.6101 1.10211 22.7029 1.16709 22.7679 1.24135C22.7865 1.25992 22.7958 1.28776 22.8143 1.30633C22.8607 1.36203 22.9072 1.427 22.935 1.49198C22.9628 1.55696 22.9721 1.63122 22.9814 1.6962C22.9814 1.72405 23 1.7519 23 1.78903ZM21.3198 11.8793C20.8835 11.8793 20.5308 12.2321 20.5308 12.6684C20.5308 14.4042 20.0109 16.0844 19.027 17.5232C18.0337 18.9713 16.6413 20.0852 14.9983 20.7536C13.346 21.4219 11.5544 21.5983 9.79998 21.2549C8.05483 20.9114 6.45821 20.0852 5.19576 18.8506C3.94259 17.6253 3.08859 16.0751 2.74513 14.3671C2.40167 12.6684 2.57804 10.9232 3.25567 9.3173C3.93331 7.71139 5.07508 6.35612 6.56032 5.38143C8.04555 4.41603 9.77213 3.90549 11.5544 3.90549C11.9907 3.90549 12.3434 3.55274 12.3434 3.11646C12.3434 2.68017 11.9907 2.32743 11.5544 2.32743C9.4658 2.32743 7.43289 2.9308 5.69703 4.06329C3.95188 5.20506 2.60589 6.80169 1.80757 8.70464C0.999979 10.5983 0.79576 12.6684 1.2042 14.6827C1.61264 16.697 2.61517 18.5257 4.1004 19.9738C5.58563 21.4219 7.45146 22.3966 9.50293 22.7958C10.1899 22.9257 10.8768 22.9907 11.5637 22.9907C12.9375 22.9907 14.3021 22.7308 15.5924 22.2017C17.5232 21.4219 19.1662 20.1038 20.3358 18.3958C21.5055 16.6878 22.1181 14.7013 22.1181 12.6498C22.1181 12.2135 21.7654 11.8608 21.3291 11.8608L21.3198 11.8793Z" fill="white" fill-opacity="0.88"/>
</svg>
