<svg width="24" height="24" viewBox="0 0 24 24" fill="none" xmlns="http://www.w3.org/2000/svg">
<path fill-rule="evenodd" clip-rule="evenodd" d="M3.39062 18.3184C3.13021 18.1035 3 17.8171 3 17.459C3 17.1335 3.0944 16.8177 3.2832 16.5117C3.47201 16.2057 3.70801 15.9062 3.99121 15.6133C4.27442 15.3203 4.55599 15.0273 4.83594 14.7344C5.05078 14.513 5.21842 14.2233 5.33887 13.8652C5.45931 13.5071 5.54883 13.1263 5.60742 12.7227C5.66601 12.319 5.70833 11.9284 5.73438 11.5508C5.75391 10.2682 5.88737 9.1403 6.13477 8.16699C6.38216 7.19368 6.77116 6.38151 7.30176 5.73047C7.83236 5.07943 8.5306 4.59766 9.39648 4.28516C9.55924 3.64713 9.88965 3.10677 10.3877 2.66406C10.8857 2.22135 11.4928 2 12.209 2C12.9317 2 13.542 2.22135 14.04 2.66406C14.5381 3.10677 14.8685 3.64713 15.0312 4.28516C15.8971 4.59766 16.5938 5.07943 17.1211 5.73047C17.6484 6.38151 18.0374 7.19368 18.2881 8.16699C18.5388 9.1403 18.6739 10.2682 18.6934 11.5508C18.7194 11.9284 18.7617 12.319 18.8203 12.7227C18.8789 13.1263 18.9684 13.5071 19.0889 13.8652C19.2093 14.2233 19.3769 14.513 19.5918 14.7344C19.8717 15.0273 20.1533 15.3203 20.4365 15.6133C20.7197 15.9062 20.9557 16.2057 21.1445 16.5117C21.3333 16.8177 21.4277 17.1335 21.4277 17.459C21.4277 17.8171 21.2975 18.1035 21.0371 18.3184C20.7767 18.5332 20.4154 18.6406 19.9531 18.6406H4.47461C4.01237 18.6406 3.65104 18.5332 3.39062 18.3184ZM13.5367 21.7304C13.1151 21.9632 12.6369 22.0796 12.102 22.0796C11.5735 22.0796 11.0984 21.9632 10.6768 21.7304C10.2552 21.4976 9.91546 21.1924 9.65748 20.8149C9.3995 20.4373 9.25162 20.0284 9.21387 19.5879H14.9996C14.9556 20.0284 14.8062 20.4373 14.5513 20.8149C14.2965 21.1924 13.9583 21.4976 13.5367 21.7304Z" fill="white" fill-opacity="0.88"/>
</svg>
