<svg width="24" height="24" viewBox="0 0 24 24" fill="none" xmlns="http://www.w3.org/2000/svg">
<path d="M5.86608 6.78202C4.60417 6.78202 3.64434 7.10262 2.98661 7.74382C2.32887 8.38502 2 9.31686 2 10.5393V11.9056C2 13.1281 2.32887 14.0599 2.98661 14.7011C3.64434 15.3424 4.60417 15.663 5.86608 15.663H7.94643V6.78202H5.86608ZM9.16965 15.6719C10.0506 15.7738 10.9405 15.9311 11.8393 16.1438C12.7381 16.3566 13.6265 16.6217 14.5045 16.9394C15.3825 17.2569 16.2351 17.6284 17.0625 18.0539C17.0625 18.0299 17.0625 18.0045 17.0625 17.9775C17.0625 17.9506 17.0625 17.9251 17.0625 17.9011V4.4809C17.0625 4.46891 17.0625 4.45543 17.0625 4.44045C17.0625 4.42547 17.0625 4.41198 17.0625 4.4C16.2292 4.83146 15.3571 5.20899 14.4464 5.53259C13.5357 5.85618 12.6294 6.12285 11.7276 6.33259C10.8259 6.54233 9.97322 6.69214 9.16965 6.78202V15.6719ZM18.2857 18.4135C18.2857 18.785 18.3631 19.1116 18.5179 19.3933C18.6726 19.6749 18.8884 19.8937 19.1652 20.0495C19.442 20.2053 19.7649 20.2832 20.1339 20.2832C20.5089 20.2832 20.8363 20.2053 21.1161 20.0495C21.3958 19.8937 21.6131 19.6749 21.7679 19.3933C21.9226 19.1116 22 18.785 22 18.4135V3.97753C22 3.6 21.9226 3.27041 21.7679 2.98877C21.6131 2.70712 21.3958 2.48839 21.1161 2.33258C20.8363 2.17678 20.5089 2.09888 20.1339 2.09888C19.7649 2.09888 19.442 2.17678 19.1652 2.33258C18.8884 2.48839 18.6726 2.70712 18.5179 2.98877C18.3631 3.27041 18.2857 3.6 18.2857 3.97753V18.4135ZM9.5625 22C9.9375 22 10.2693 21.9146 10.558 21.7438C10.8467 21.5731 11.0565 21.3244 11.1875 20.9977C11.3185 20.6711 11.3334 20.2711 11.2322 19.7977L10.6429 16.9933C10.494 16.9334 10.2604 16.8824 9.94196 16.8404C9.62351 16.7985 9.29315 16.7671 8.95089 16.7461C8.60863 16.7251 8.32143 16.7116 8.08929 16.7057H5.79464L7.48214 20.3911C7.72024 20.9004 7.99405 21.2959 8.30357 21.5775C8.61309 21.8592 9.03273 22 9.5625 22Z" fill="white" fill-opacity="0.88"/>
</svg>
