<svg width="24" height="24" viewBox="0 0 24 24" fill="none" xmlns="http://www.w3.org/2000/svg">
<path d="M3.02002 9.51C3.02002 7.5 4.66002 5.86 6.67002 5.86C8.68002 5.86 10.32 7.5 10.32 9.51C10.32 11.52 8.68002 13.16 6.67002 13.16C4.66002 13.16 3.02002 11.52 3.02002 9.51ZM6.57002 20.6V19.73C6.58002 18.32 6.95002 16.94 7.65002 15.72C7.93002 15.22 8.28002 14.77 8.65002 14.34C8.52002 14.19 8.36002 14.09 8.15002 14.06C7.86002 14.02 7.55002 13.99 7.23002 13.97C7.23002 13.97 7.22002 13.97 7.21002 13.97H7.19002C6.31002 13.97 5.50002 14.09 4.78002 14.34C2.32002 15.17 1.02002 17.37 1.02002 20.31C1.02002 20.74 1.26002 21.12 1.69002 21.12H6.75002C6.66002 20.96 6.59002 20.79 6.59002 20.6H6.57002ZM20.17 7.25C20.17 9.59 18.26 11.5 15.92 11.5C13.58 11.5 11.67 9.59 11.67 7.25C11.67 4.91 13.56 3 15.91 3C18.26 3 20.16 4.91 20.16 7.25H20.17ZM22.91 19.49V20.22C22.91 20.7 22.52 21.1 22.03 21.1H9.80002C9.32002 21.1 8.92002 20.71 8.92002 20.22V19.49C8.92002 18.31 9.24002 17.14 9.83002 16.12C10.42 15.09 11.25 14.22 12.25 13.61C12.41 13.51 12.59 13.42 12.75 13.34L12.8 13.31C12.8 13.31 12.81 13.3 12.83 13.28C12.85 13.28 12.86 13.27 12.88 13.26C13.07 13.17 13.23 13.11 13.39 13.05L13.5 13.01C13.58 12.98 13.66 12.95 13.74 12.92C13.87 12.88 14 12.84 14.14 12.81L14.28 12.77C14.38 12.74 14.49 12.72 14.59 12.7C14.73 12.67 14.87 12.66 15.01 12.64L15.17 12.62C15.26 12.61 15.36 12.6 15.45 12.59H15.49C15.49 12.59 15.59 12.58 15.64 12.58C15.69 12.58 15.73 12.58 15.78 12.58C15.86 12.58 15.95 12.58 16.04 12.58C16.11 12.58 16.18 12.58 16.25 12.58C16.28 12.58 16.3 12.58 16.32 12.58H16.36C16.45 12.59 16.54 12.6 16.64 12.62L16.8 12.64C16.94 12.66 17.08 12.67 17.22 12.7C17.33 12.72 17.43 12.75 17.53 12.77L17.67 12.81C17.8 12.84 17.94 12.88 18.06 12.92C18.15 12.95 18.24 12.99 18.33 13.02L18.41 13.05C18.57 13.11 18.73 13.17 18.89 13.25C18.93 13.27 18.95 13.27 18.96 13.28L19.05 13.33C19.22 13.41 19.39 13.5 19.55 13.6C20.55 14.22 21.39 15.08 21.97 16.11C22.55 17.13 22.87 18.3 22.88 19.48L22.91 19.49Z" fill="white" fill-opacity="0.88"/>
</svg>
