<svg width="24" height="24" viewBox="0 0 24 24" fill="none" xmlns="http://www.w3.org/2000/svg">
<path d="M22.2903 4.05021C21.8341 3.60433 21.2157 3.34086 20.577 3.34086H18.3161V1.86135C18.3161 1.38508 17.9309 1 17.4544 1C16.9779 1 16.5926 1.38508 16.5926 1.86135V6.54307C16.5926 7.01935 16.9779 7.40442 17.4544 7.40442C17.9309 7.40442 18.3161 7.01935 18.3161 6.54307V5.06357H20.577C20.7594 5.06357 20.9419 5.1345 21.0737 5.26624C21.2055 5.39797 21.2765 5.58038 21.2765 5.76278V8.80286H2.7235V5.76278C2.7235 5.58038 2.79447 5.39797 2.92627 5.26624C3.05806 5.1345 3.23041 5.06357 3.42304 5.06357C3.89954 5.06357 4.28479 4.67849 4.28479 4.20221C4.28479 3.72593 3.89954 3.34086 3.42304 3.34086C2.77419 3.34086 2.1659 3.5942 1.70968 4.05021C1.25346 4.50622 1 5.12437 1 5.76278V20.5781C1 21.2165 1.26359 21.8448 1.70968 22.2907C2.1659 22.7467 2.77419 23 3.42304 23H20.577C21.2258 23 21.8341 22.7467 22.2903 22.2907C22.7364 21.8448 23 21.2165 23 20.5781V5.76278C23 5.12437 22.7465 4.50622 22.2903 4.05021ZM21.0737 21.0645C20.9419 21.1962 20.7594 21.2672 20.577 21.2672H3.42304C3.24055 21.2672 3.05806 21.1962 2.92627 21.0645C2.79447 20.9328 2.7235 20.7605 2.7235 20.5679V10.5154H21.2765V20.5679C21.2765 20.7503 21.2055 20.9328 21.0737 21.0645ZM5.68387 6.54307V1.86135C5.68387 1.38508 6.06912 1 6.54562 1C7.02212 1 7.40737 1.38508 7.40737 1.86135V3.34086H14.3419C14.8184 3.34086 15.2037 3.72593 15.2037 4.20221C15.2037 4.67849 14.8184 5.06357 14.3419 5.06357H7.40737V6.54307C7.40737 7.01935 7.02212 7.40442 6.54562 7.40442C6.06912 7.40442 5.68387 7.01935 5.68387 6.54307Z" fill="white" fill-opacity="0.88"/>
</svg>
