<svg width="24" height="24" viewBox="0 0 24 24" fill="none" xmlns="http://www.w3.org/2000/svg">
<path fill-rule="evenodd" clip-rule="evenodd" d="M17.266 1.25C16.7271 1.24982 16.1948 1.36736 15.7065 1.59432C15.2182 1.82128 14.7859 2.15214 14.4401 2.56355C14.0942 2.97497 13.8433 3.45691 13.7049 3.97539C13.5666 4.49388 13.5442 5.03626 13.6394 5.56429L8.2788 9.30093C8.25199 9.31939 8.22626 9.33935 8.20173 9.36073C7.65789 8.93751 7.00553 8.67495 6.31904 8.60299C5.63255 8.53102 4.93955 8.65254 4.31909 8.9537C3.69862 9.25486 3.17565 9.72352 2.80981 10.3063C2.44398 10.889 2.25 11.5623 2.25 12.2495C2.25 12.9367 2.44398 13.61 2.80981 14.1928C3.17565 14.7755 3.69862 15.2442 4.31909 15.5453C4.93955 15.8465 5.63255 15.968 6.31904 15.896C7.00553 15.8241 7.65789 15.5615 8.20173 15.1383C8.22623 15.1601 8.25196 15.1804 8.2788 15.1992L13.6394 18.9359C13.4803 19.819 13.6519 20.7295 14.1218 21.4951C14.5918 22.2607 15.3274 22.8282 16.1894 23.0902C17.0514 23.3522 17.9799 23.2904 18.7993 22.9167C19.6186 22.5429 20.2718 21.883 20.6353 21.062C20.9988 20.241 21.0473 19.3158 20.7716 18.4616C20.4958 17.6074 19.9151 16.8835 19.1393 16.4269C18.3634 15.9703 17.4463 15.8128 16.5616 15.9841C15.677 16.1553 14.886 16.6436 14.3387 17.3564L9.26252 13.8194C9.48919 13.3433 9.61612 12.8119 9.61612 12.2501C9.61612 11.6882 9.48919 11.1557 9.26252 10.6807L14.3398 7.14266C14.7201 7.63825 15.2211 8.02908 15.7955 8.27818C16.3698 8.52729 16.9985 8.62645 17.6221 8.56628C18.2456 8.50611 18.8435 8.2886 19.3591 7.93432C19.8746 7.58004 20.2909 7.1007 20.5686 6.54162C20.8462 5.98254 20.976 5.36221 20.9457 4.73928C20.9154 4.11634 20.726 3.5114 20.3953 2.98166C20.0647 2.45191 19.6038 2.01487 19.0563 1.71186C18.5087 1.40885 17.8925 1.24989 17.266 1.25ZM15.2827 4.91669C15.2827 4.39306 15.4917 3.89087 15.8636 3.5206C16.2356 3.15033 16.74 2.94232 17.266 2.94232C17.792 2.94232 18.2965 3.15033 18.6685 3.5206C19.0404 3.89087 19.2493 4.39306 19.2493 4.91669C19.2493 5.44033 19.0404 5.94252 18.6685 6.31279C18.2965 6.68305 17.792 6.89107 17.266 6.89107C16.74 6.89107 16.2356 6.68305 15.8636 6.31279C15.4917 5.94252 15.2827 5.44033 15.2827 4.91669ZM5.93282 10.2757C5.40682 10.2757 4.90235 10.4837 4.53041 10.854C4.15847 11.2243 3.94951 11.7264 3.94951 12.2501C3.94951 12.7737 4.15847 13.2759 4.53041 13.6462C4.90235 14.0164 5.40682 14.2245 5.93282 14.2245C6.45883 14.2245 6.96329 14.0164 7.33524 13.6462C7.70718 13.2759 7.91614 12.7737 7.91614 12.2501C7.91614 11.7264 7.70718 11.2243 7.33524 10.854C6.96329 10.4837 6.45883 10.2757 5.93282 10.2757ZM17.266 17.6091C16.74 17.6091 16.2356 17.8171 15.8636 18.1874C15.4917 18.5576 15.2827 19.0598 15.2827 19.5835C15.2827 20.1071 15.4917 20.6093 15.8636 20.9796C16.2356 21.3498 16.74 21.5578 17.266 21.5578C17.792 21.5578 18.2965 21.3498 18.6685 20.9796C19.0404 20.6093 19.2493 20.1071 19.2493 19.5835C19.2493 19.0598 19.0404 18.5576 18.6685 18.1874C18.2965 17.8171 17.792 17.6091 17.266 17.6091Z" fill="white" fill-opacity="0.88"/>
</svg>
