<svg width="24" height="24" viewBox="0 0 24 24" fill="none" xmlns="http://www.w3.org/2000/svg">
<path fill-rule="evenodd" clip-rule="evenodd" d="M2.13923 2.45894C2.2662 2.21222 2.5204 2.05714 2.79787 2.05714H21.3164C21.5939 2.05714 21.8481 2.21222 21.975 2.45894C22.102 2.70565 22.0804 3.00264 21.9192 3.22843L14.9346 13.0068V18.4674C14.9346 18.7151 14.8108 18.9464 14.6048 19.0837L10.3313 21.9327C10.104 22.0843 9.81171 22.0984 9.57085 21.9695C9.33 21.8406 9.17964 21.5896 9.17964 21.3164V13.0068L2.19511 3.22843C2.03383 3.00264 2.01226 2.70565 2.13923 2.45894ZM4.23727 3.53863L10.5231 12.3388C10.6129 12.4645 10.6611 12.615 10.6611 12.7694V19.9323L13.4531 18.071V12.7694C13.4531 12.615 13.5014 12.4645 13.5911 12.3388L19.877 3.53863H4.23727Z" fill="white" fill-opacity="0.88"/>
</svg>
