<svg width="22" height="22" viewBox="0 0 22 22" fill="none" xmlns="http://www.w3.org/2000/svg">
<g clip-path="url(#clip0_66_36)">
<path fill-rule="evenodd" clip-rule="evenodd" d="M18.52 3.18C16.49 1.15 13.73 0 10.85 0C7.97 0 5.21 1.14 3.18 3.18C1.15 5.22 0 7.97 0 10.85C0 13.73 1.14 16.49 3.18 18.52C5.21 20.55 7.97 21.7 10.85 21.7C13.73 21.7 16.49 20.56 18.52 18.52C20.55 16.49 21.7 13.73 21.7 10.85C21.7 7.97 20.56 5.21 18.52 3.18ZM10.85 16.59C10.24 16.59 9.75 16.1 9.75 15.49C9.75 14.88 10.24 14.39 10.85 14.39C11.46 14.39 11.95 14.88 11.95 15.49C11.95 16.1 11.46 16.59 10.85 16.59ZM14.13 9.51C13.86 10.16 13.41 10.71 12.82 11.1C12.48 11.33 12.1 11.49 11.7 11.59V12.63C11.7 13.1 11.32 13.49 10.84 13.49C10.36 13.49 9.98 13.11 9.98 12.63V10.83C9.98 10.6 10.07 10.38 10.23 10.22C10.39 10.06 10.61 9.97 10.84 9.97C11.2 9.97 11.56 9.86 11.86 9.66C12.16 9.46 12.4 9.17 12.54 8.84C12.64 8.59 12.69 8.32 12.68 8.05C12.67 7.78 12.59 7.51 12.46 7.27C12.33 7.03 12.15 6.82 11.93 6.66C11.71 6.5 11.46 6.39 11.19 6.33C10.92 6.28 10.65 6.28 10.39 6.35C10.13 6.42 9.88 6.54 9.67 6.71C9.46 6.88 9.29 7.1 9.18 7.34C9.06 7.59 9 7.85 9 8.13C9 8.6 8.62 8.99 8.14 8.99C7.67 8.99 7.28 8.61 7.28 8.13C7.28 7.6 7.4 7.09 7.62 6.61C7.84 6.13 8.17 5.72 8.58 5.38C8.99 5.05 9.46 4.81 9.97 4.68C10.48 4.55 11.01 4.54 11.53 4.64C12.04 4.74 12.53 4.96 12.95 5.27C13.37 5.58 13.72 5.98 13.97 6.45C14.22 6.91 14.36 7.42 14.39 7.95C14.42 8.47 14.33 9 14.13 9.48V9.51Z" fill="white" fill-opacity="0.88"/>
</g>
<defs>
<clipPath id="clip0_66_36">
<rect width="21.7" height="21.7" fill="white"/>
</clipPath>
</defs>
</svg>
