<svg width="24" height="24" viewBox="0 0 24 24" fill="none" xmlns="http://www.w3.org/2000/svg">
<path fill-rule="evenodd" clip-rule="evenodd" d="M10.5892 2.00714C5.84946 2.00714 2.00714 5.84946 2.00714 10.5892C2.00714 15.329 5.84946 19.1713 10.5892 19.1713C12.677 19.1713 14.5907 18.4258 16.0785 17.1864L20.6698 21.7777C20.9757 22.0836 21.4717 22.0836 21.7777 21.7777C22.0836 21.4717 22.0836 20.9757 21.7777 20.6698L17.1864 16.0785C18.4258 14.5907 19.1713 12.677 19.1713 10.5892C19.1713 5.84946 15.329 2.00714 10.5892 2.00714ZM3.57396 10.5892C3.57396 6.71479 6.71479 3.57396 10.5892 3.57396C14.4636 3.57396 17.6044 6.71479 17.6044 10.5892C17.6044 14.4636 14.4636 17.6044 10.5892 17.6044C6.71479 17.6044 3.57396 14.4636 3.57396 10.5892Z" fill="white" fill-opacity="0.88"/>
</svg>
