<svg width="24" height="24" viewBox="0 0 24 24" fill="none" xmlns="http://www.w3.org/2000/svg">
<path d="M6.66034 8.94077C6.66034 11.3637 8.63535 13.3387 11.0583 13.3387C13.4813 13.3387 15.4563 11.3637 15.4563 8.94077C15.4563 6.51782 13.4813 4.5428 11.0583 4.5428C8.63535 4.5428 6.66034 6.51782 6.66034 8.94077ZM13.7358 8.94077C13.7358 10.4169 12.5345 11.6081 11.0685 11.6081C9.6025 11.6081 8.4012 10.4068 8.4012 8.94077C8.4012 7.47478 9.6025 6.27348 11.0685 6.27348C12.5345 6.27348 13.7358 7.47478 13.7358 8.94077ZM18.9074 16.118C18.1236 15.5988 17.0241 15.7006 16.3522 16.3725C15.9653 16.7492 15.7617 17.2582 15.7617 17.7978C15.7617 18.1948 15.8839 18.5919 16.0976 18.9176C16.3216 19.2536 16.6372 19.5081 17.0037 19.6608C17.248 19.7626 17.5127 19.8135 17.7774 19.8135C17.9098 19.8135 18.0421 19.8033 18.1745 19.7728C18.5715 19.6913 18.9278 19.5081 19.2129 19.223C19.4979 18.938 19.6913 18.5817 19.7626 18.1846C19.8441 17.7876 19.8033 17.3906 19.6506 17.0139C19.4979 16.6474 19.2434 16.3318 18.9074 16.1078V16.118ZM18.5715 17.9505C18.541 18.1032 18.4697 18.2457 18.3577 18.3577C18.2457 18.4697 18.1032 18.541 17.9505 18.5715C17.7876 18.602 17.6349 18.5817 17.4924 18.5308C17.3498 18.4697 17.2175 18.3679 17.136 18.2355C17.0444 18.1032 17.0037 17.9505 17.0037 17.7978C17.0037 17.584 17.0851 17.3804 17.2379 17.2277C17.3906 17.075 17.5942 16.9935 17.808 16.9935C17.9708 16.9935 18.1236 17.0444 18.2559 17.1259C18.3882 17.2175 18.4901 17.3397 18.5511 17.4822C18.6122 17.6247 18.6326 17.7876 18.5919 17.9505H18.5715ZM22.3179 18.6529L21.9209 18.1643V17.4109L22.3077 16.9223C22.4706 16.7085 22.5724 16.4641 22.5928 16.1994C22.6131 15.9348 22.5521 15.6701 22.4197 15.4461L22.1347 14.9472C22.0023 14.7233 21.8089 14.54 21.5747 14.428C21.3406 14.3161 21.0759 14.2652 20.8112 14.3059L20.1902 14.3975L19.5386 14.0208L19.3147 13.4405C19.223 13.1962 19.05 12.9824 18.8362 12.8399C18.6122 12.6872 18.3577 12.6057 18.093 12.6057H17.5127C17.248 12.6057 16.9935 12.6872 16.7696 12.8399C16.5558 12.9926 16.3827 13.2064 16.2911 13.4507L16.0671 14.031L15.3952 14.4077L14.764 14.3161C14.4993 14.2753 14.2448 14.3161 14.0106 14.4382C13.7765 14.5502 13.5831 14.7335 13.4507 14.9676L13.1758 15.4461C13.0435 15.6802 12.9722 15.9449 12.9926 16.2096C13.013 16.4743 13.1148 16.7288 13.2776 16.9426L13.6747 17.4313V18.1846L13.298 18.6733C13.1351 18.8871 13.0333 19.1314 13.013 19.3961C12.9926 19.6608 13.0537 19.9255 13.186 20.1495L13.4711 20.6483C13.6034 20.8723 13.7969 21.0555 14.031 21.1675C14.2652 21.2795 14.5197 21.3304 14.7945 21.2897L15.4155 21.1981L16.0671 21.5747L16.2911 22.155C16.3827 22.3994 16.5558 22.6131 16.7696 22.7658C16.9833 22.9186 17.248 23 17.5127 23H18.1134C18.3781 23 18.6326 22.9186 18.8565 22.7658C19.0805 22.6131 19.2434 22.3994 19.335 22.155L19.559 21.5747L20.2106 21.1981L20.8417 21.2897C21.1064 21.3304 21.3609 21.2897 21.5951 21.1675C21.8292 21.0555 22.0227 20.8723 22.155 20.6483L22.4401 20.1596C22.5724 19.9255 22.6335 19.671 22.6131 19.4063C22.5928 19.1416 22.5012 18.8973 22.3281 18.6733L22.3179 18.6529ZM21.0046 20.068L20.1698 19.9459C20.0375 19.9255 19.895 19.9459 19.7728 20.0171L18.7446 20.6076C18.6224 20.6789 18.5308 20.7807 18.4799 20.913L18.1745 21.6969L18.093 21.758H17.5025L17.4211 21.6969L17.1157 20.913C17.0648 20.7807 16.9732 20.6789 16.851 20.6076L15.8228 20.0171C15.7311 19.9662 15.6192 19.9357 15.5174 19.9357C15.4868 19.9357 15.4563 19.9357 15.4257 19.9357L14.5095 20.0171L14.2244 19.5285C14.2244 19.5285 14.2244 19.4165 14.2244 19.4063L14.7335 18.7547C14.8149 18.6428 14.8658 18.5104 14.8658 18.3781V17.1971C14.8658 17.0546 14.8149 16.9223 14.7335 16.8103L14.2041 16.1587V16.0467L14.5706 15.5072L15.4054 15.6293C15.5377 15.6497 15.6802 15.6293 15.8024 15.5581L16.8408 14.9676C16.963 14.8963 17.0546 14.7844 17.1055 14.6622L17.4109 13.8783L17.4924 13.8172H18.0727L18.1541 13.8783L18.4595 14.6622C18.5104 14.7945 18.602 14.8963 18.7242 14.9676L19.7524 15.5581C19.8746 15.6293 20.0171 15.6497 20.1495 15.6293L21.0657 15.5479L21.3508 16.0366V16.1485L20.8316 16.8001C20.7501 16.9121 20.6992 17.0444 20.6992 17.1768V18.3577C20.6992 18.5002 20.7501 18.6326 20.8316 18.7446L21.3609 19.3961V19.5081L20.9944 20.0477L21.0046 20.068ZM10.8445 19.3758C11.0278 19.9866 11.3026 20.5567 11.6386 21.0861C11.4452 21.0963 11.2619 21.1166 11.0685 21.1166C5.50995 21.1166 1 16.6067 1 11.0583C1 5.50995 5.50995 1 11.0583 1C16.6067 1 21.1166 5.50995 21.1166 11.0583C20.5669 10.7529 19.9764 10.5187 19.3554 10.366C18.9991 6.10042 15.4155 2.73068 11.0583 2.73068C6.46691 2.73068 2.73068 6.46691 2.73068 11.0583C2.73068 13.2166 3.56548 15.1712 4.9093 16.6576C5.54049 15.894 6.30403 15.2425 7.16937 14.7538C8.46229 14.031 9.94864 13.7154 11.4248 13.7765C11.1296 14.3161 10.9056 14.8862 10.7427 15.497C9.79593 15.5479 8.84914 15.7922 8.01435 16.2605C7.31189 16.6576 6.69088 17.187 6.19204 17.808C7.50532 18.7547 9.09348 19.3248 10.8242 19.3758H10.8445Z" fill="white" fill-opacity="0.88"/>
</svg>
