<svg width="24" height="24" viewBox="0 0 24 24" fill="none" xmlns="http://www.w3.org/2000/svg">
<path d="M20.64 2H3.36C2.06 2 1 3.18762 1 4.64471V19.3553C1 20.8124 2.06 22 3.36 22H20.64C21.94 22 23 20.8124 23 19.3553V4.64471C23 3.18762 21.94 2 20.64 2ZM3.36 3.57685H20.64C21.01 3.57685 21.32 3.95609 21.39 4.44511L12.57 11.2814C12.26 11.4411 11.74 11.4411 11.43 11.2814L2.61 4.44511C2.68 3.96607 2.99 3.57685 3.36 3.57685ZM20.64 20.4232H3.36C2.94 20.4232 2.58 19.9341 2.58 19.3553V6.41118L10.51 12.5589C10.51 12.5589 10.56 12.5988 10.59 12.6188C10.99 12.8583 11.49 12.988 12 12.988C12.51 12.988 13 12.8583 13.4 12.6287C13.43 12.6088 13.46 12.5888 13.49 12.5689L21.42 6.42116V19.3553C21.42 19.9341 21.06 20.4232 20.64 20.4232Z" fill="white" fill-opacity="0.88"/>
</svg>
