<svg width="25" height="24" viewBox="0 0 25 24" fill="none" xmlns="http://www.w3.org/2000/svg">
<path d="M14.4474 8.94812C14.4474 10.4257 13.245 11.6179 11.7776 11.6179C10.3103 11.6179 9.10788 10.4155 9.10788 8.94812C9.10788 7.48078 10.3103 6.27837 11.7776 6.27837C13.245 6.27837 14.4474 7.48078 14.4474 8.94812ZM13.5609 13.9717C9.89896 13.1493 6.53917 15.0176 4.47147 17.9866C2.75957 16.183 1.71001 13.7476 1.71001 11.0778C1.69982 5.51413 6.21395 1 11.7674 1C17.3209 1 21.8351 5.51413 21.8351 11.0676C21.8351 11.516 21.7943 11.9541 21.7332 12.3923C20.7957 11.8115 19.685 11.465 18.4928 11.465C16.465 11.465 14.6614 12.4535 13.5507 13.9717H13.5609ZM16.1797 8.94812C16.1797 6.52293 14.2028 4.54609 11.7776 4.54609C9.35244 4.54609 7.37559 6.52293 7.37559 8.94812C7.37559 11.3733 9.35244 13.3502 11.7776 13.3502C14.2028 13.3502 16.1797 11.3733 16.1797 8.94812ZM12.7151 15.5716C11.3598 15.3678 9.93326 15.6021 8.73085 16.2747C7.81376 16.7842 6.34641 18.2311 5.77578 19.138C7.45711 20.3914 9.52566 21.1352 11.7776 21.1352C12.3279 21.1352 12.8578 21.0741 13.3876 20.9926C12.7457 20.0245 12.3686 18.8527 12.3686 17.5994C12.3686 16.8861 12.5011 16.2033 12.7253 15.5614L12.7151 15.5716ZM23.3126 19.403C23.333 19.6679 23.2718 19.9328 23.1394 20.157L22.8541 20.6461C22.7216 20.8703 22.528 21.0537 22.2936 21.1658C22.0592 21.2779 21.8045 21.3289 21.5396 21.2881L20.9078 21.1964L20.2556 21.5734L20.0315 22.1542C19.9397 22.3988 19.7665 22.6128 19.5525 22.7656C19.3385 22.9185 19.0838 22.9898 18.8087 23H18.2075C17.9425 23 17.6776 22.9185 17.4636 22.7656C17.2394 22.6128 17.0764 22.3988 16.9847 22.1542L16.7605 21.5734L16.1083 21.1964L15.4868 21.2881C15.2116 21.3289 14.9569 21.2881 14.7225 21.1658C14.4881 21.0435 14.2945 20.8703 14.1621 20.6461L13.8768 20.1468C13.7443 19.9226 13.6831 19.6577 13.7035 19.3928C13.7239 19.1278 13.8156 18.8731 13.9888 18.6693L14.3659 18.1802V17.4261L13.9685 16.937C13.7952 16.723 13.7035 16.4785 13.6831 16.2033C13.6628 15.9384 13.7239 15.6735 13.8666 15.4391L14.1417 14.9602C14.2742 14.7258 14.4678 14.5526 14.7021 14.4303C14.9365 14.3182 15.2014 14.2673 15.4562 14.308L16.088 14.3997L16.7605 14.0227L16.9847 13.4419C17.0764 13.1973 17.2496 12.9833 17.4636 12.8305C17.6878 12.6776 17.9425 12.5961 18.2075 12.5961H18.7883C19.0532 12.5961 19.3182 12.6776 19.5321 12.8305C19.7461 12.9833 19.9194 13.1871 20.0111 13.4317L20.2353 14.0125L20.8874 14.3895L21.509 14.2978C21.7841 14.2571 22.0389 14.2978 22.2732 14.4201C22.5076 14.5322 22.7012 14.7156 22.8337 14.9398L23.119 15.4391C23.2515 15.6633 23.3126 15.9282 23.2922 16.1931C23.2718 16.4581 23.1801 16.7128 23.0069 16.9166L22.6197 17.4057V18.1598L23.0171 18.6489C23.1903 18.8629 23.282 19.1176 23.3024 19.3826L23.3126 19.403ZM22.0796 19.5456V19.4335L21.5497 18.7814C21.458 18.6693 21.4173 18.5368 21.4173 18.3942V17.2121C21.4173 17.0797 21.458 16.9472 21.5497 16.8351L22.0694 16.183V16.0709L21.7841 15.5818L20.867 15.6633C20.7346 15.6837 20.5919 15.6633 20.4696 15.5919L19.4404 15.0009C19.3182 14.9296 19.2264 14.8277 19.1755 14.6952L18.8698 13.9106L18.7883 13.8495H18.2075L18.1259 13.9106L17.8202 14.6952C17.7693 14.8277 17.6776 14.9398 17.5553 15.0009L16.5159 15.5919C16.3937 15.6633 16.2612 15.6837 16.1185 15.6633L15.283 15.541L14.9161 16.0811V16.1931L15.446 16.8453C15.5377 16.9574 15.5785 17.0899 15.5785 17.2325V18.4145C15.5785 18.547 15.5377 18.6795 15.446 18.7916L14.9365 19.4437C14.9365 19.4437 14.9365 19.5558 14.9365 19.566L15.2218 20.0551L16.1389 19.9736C16.1389 19.9736 16.2001 19.9736 16.2306 19.9736C16.3325 19.9736 16.4446 20.0042 16.5363 20.0551L17.5655 20.6461C17.6878 20.7175 17.7795 20.8194 17.8304 20.9518L18.1361 21.7365L18.2176 21.7976H18.8087L18.8902 21.7365L19.1959 20.9518C19.2468 20.8194 19.3385 20.7175 19.4608 20.6461L20.49 20.0551C20.6123 19.9838 20.7549 19.9634 20.8874 19.9838L21.723 20.1061L22.0898 19.566L22.0796 19.5456ZM20.3677 17.0287C20.5206 17.4057 20.5613 17.8032 20.4798 18.2006C20.3983 18.598 20.2149 18.9546 19.9296 19.2399C19.6442 19.5252 19.2876 19.7189 18.8902 19.7902C18.7577 19.8208 18.6252 19.8309 18.4928 19.8309C18.2278 19.8309 17.9731 19.78 17.7183 19.6781C17.3413 19.5252 17.0356 19.2603 16.8114 18.9342C16.5873 18.598 16.4752 18.2107 16.4752 17.8133C16.4752 17.2733 16.6892 16.7638 17.0662 16.3868C17.7285 15.7244 18.8392 15.6123 19.6239 16.132C19.9601 16.3562 20.2149 16.6721 20.3677 17.0389V17.0287ZM19.2366 17.4975C19.1755 17.3548 19.0736 17.2223 18.9411 17.1408C18.8087 17.0491 18.6558 17.0083 18.4928 17.0083C18.2788 17.0083 18.075 17.0899 17.9221 17.2427C17.7693 17.3956 17.6878 17.5994 17.6878 17.8133C17.6878 17.9764 17.7387 18.1292 17.8202 18.2515C17.912 18.384 18.0342 18.4859 18.1769 18.547C18.3195 18.6082 18.4826 18.6183 18.6354 18.5878C18.7883 18.5572 18.9309 18.4859 19.043 18.3738C19.1551 18.2617 19.2265 18.119 19.257 17.9662C19.2876 17.8032 19.2774 17.6503 19.2163 17.4975H19.2366Z" fill="white" fill-opacity="0.88"/>
</svg>
