<svg width="24" height="24" viewBox="0 0 24 24" fill="none" xmlns="http://www.w3.org/2000/svg">
<g clip-path="url(#clip0_1_1583)">
<path d="M1.27 3.43784C1.66 2.58912 2.45 2 3.36 2H20.64C21.56 2 22.36 2.5991 22.74 3.4678C22.66 3.49775 22.59 3.52771 22.52 3.57763L12.63 11.2062C12.29 11.3759 11.74 11.3859 11.4 11.2062L1.3 3.45781C1.3 3.45781 1.28 3.45781 1.27 3.43784ZM13.62 12.5841C13.62 12.5841 13.56 12.6241 13.53 12.644C13.1 12.8937 12.56 13.0334 12.02 13.0334C11.48 13.0334 10.94 12.8937 10.51 12.644C10.48 12.6241 10.45 12.6041 10.42 12.5841L1 5.36495V19.364C1 20.8218 2.06 22.01 3.36 22.01H20.64C21.94 22.01 23 20.8218 23 19.364V5.35497L13.62 12.5841Z" fill="white" fill-opacity="0.88"/>
</g>
<defs>
<clipPath id="clip0_1_1583">
<rect width="22" height="20" fill="white" transform="translate(1 2)"/>
</clipPath>
</defs>
</svg>
