<svg width="24" height="24" viewBox="0 0 24 24" fill="none" xmlns="http://www.w3.org/2000/svg">
<path fill-rule="evenodd" clip-rule="evenodd" d="M18.1185 5.05079C15.878 3.17039 12.7872 2.37806 9.74958 3.19199C5.03454 4.45538 2.14592 9.13438 3.03325 13.8531C3.12121 14.3208 2.81334 14.7713 2.34561 14.8593C1.87789 14.9472 1.42742 14.6393 1.33947 14.1716C0.286879 8.57407 3.71138 3.02565 9.30351 1.52724C12.8436 0.57869 16.4419 1.47047 19.0846 3.61379V2.01422C19.0846 1.5383 19.4704 1.15249 19.9463 1.15249C20.4222 1.15249 20.8081 1.5383 20.8081 2.01422V5.91252C20.8081 6.38845 20.4222 6.77426 19.9463 6.77426H16.0479C15.572 6.77426 15.1862 6.38845 15.1862 5.91252C15.1862 5.4366 15.572 5.05079 16.0479 5.05079H18.1185ZM22.9601 10.128C22.8721 9.6603 22.4216 9.35243 21.9539 9.44038C21.4862 9.52833 21.1783 9.9788 21.2663 10.4465C22.1536 15.1653 19.265 19.8443 14.55 21.1076C11.5124 21.9215 8.42154 21.1292 6.18103 19.2488H8.25122C8.72714 19.2488 9.11295 18.863 9.11295 18.3871C9.11295 17.9112 8.72714 17.5254 8.25122 17.5254H4.35293C3.877 17.5254 3.49119 17.9112 3.49119 18.3871V18.6193V18.6409V22.2853C3.49119 22.7612 3.877 23.147 4.35293 23.147C4.82885 23.147 5.21466 22.7612 5.21466 22.2853V20.6856C7.85732 22.8291 11.4559 23.7209 14.996 22.7724C20.5882 21.2741 24.0126 15.7256 22.9601 10.128Z" fill="white" fill-opacity="0.88"/>
</svg>
