<svg width="25" height="24" viewBox="0 0 25 24" fill="none" xmlns="http://www.w3.org/2000/svg">
<path fill-rule="evenodd" clip-rule="evenodd" d="M2.20001 11.4991C1.88111 11.7964 1.70001 12.2127 1.70001 12.6487V21.6429C1.70001 22.9446 2.75534 24 4.05716 24H10.5C10.5 24 10.5 20.1536 10.5 19.2857C10.5 18.4178 11.6 17.4 12.7 17.4C13.8 17.4 14.9 18.4178 14.9 19.2857V24H21.3429C22.6446 24 23.7 22.9446 23.7 21.6429V12.6487C23.7 12.2127 23.519 11.7964 23.2 11.4991L13.2114 2.18916C12.9171 1.93695 12.4829 1.93695 12.1887 2.18916L2.20001 11.4991Z" fill="white" fill-opacity="0.88"/>
</svg>
