<svg width="24" height="24" viewBox="0 0 24 24" fill="none" xmlns="http://www.w3.org/2000/svg">
<g clip-path="url(#clip0_19_1741)">
<path fill-rule="evenodd" clip-rule="evenodd" d="M0 0V24H24V0H0ZM14.1 18.36L12.01 20.45C10.87 21.59 9.36 22.21 7.76 22.21C6.16 22.21 4.64 21.58 3.51 20.45C2.37 19.31 1.75 17.8 1.75 16.2C1.75 14.6 2.38 13.08 3.51 11.95L5.6 9.86C5.97 9.49 6.58 9.49 6.96 9.86C7.33 10.23 7.33 10.84 6.96 11.22L4.87 13.31C4.1 14.08 3.67 15.11 3.67 16.21C3.67 17.31 4.1 18.33 4.87 19.11C6.47 20.71 9.07 20.7 10.66 19.11L12.75 17.02C13.12 16.65 13.73 16.65 14.11 17.02C14.48 17.39 14.48 18 14.11 18.38L14.1 18.36ZM15.53 9.78L9.81 15.5C9.63 15.68 9.39 15.78 9.13 15.78C8.87 15.78 8.63 15.68 8.45 15.5C8.27 15.32 8.17 15.08 8.17 14.82C8.17 14.56 8.27 14.32 8.45 14.14L14.17 8.42C14.54 8.05 15.15 8.04 15.53 8.42C15.9 8.79 15.9 9.4 15.53 9.78ZM20.48 11.97L18.39 14.06C18.21 14.24 17.97 14.34 17.71 14.34C17.45 14.34 17.21 14.24 17.03 14.06C16.66 13.69 16.66 13.08 17.03 12.7L19.12 10.61C19.89 9.84 20.32 8.81 20.32 7.71C20.32 6.61 19.89 5.59 19.12 4.81C18.35 4.03 17.32 3.61 16.22 3.61C15.12 3.61 14.1 4.04 13.32 4.81L11.23 6.9C10.87 7.26 10.24 7.26 9.87 6.9C9.69 6.72 9.59 6.48 9.59 6.22C9.59 5.96 9.69 5.72 9.87 5.54L11.96 3.45C14.3 1.11 18.12 1.11 20.46 3.45C22.8 5.79 22.8 9.61 20.46 11.95L20.48 11.97Z" fill="white" fill-opacity="0.88"/>
</g>
<defs>
<clipPath id="clip0_19_1741">
<rect width="24" height="24" rx="3" fill="white"/>
</clipPath>
</defs>
</svg>
