<svg width="24" height="24" viewBox="0 0 24 24" fill="none" xmlns="http://www.w3.org/2000/svg">
<path fill-rule="evenodd" clip-rule="evenodd" d="M21.4 12C21.4 17.1915 17.1915 21.4 12 21.4C6.80852 21.4 2.6 17.1915 2.6 12C2.6 6.80852 6.80852 2.6 12 2.6C17.1915 2.6 21.4 6.80852 21.4 12ZM23 12C23 18.0751 18.0751 23 12 23C5.92487 23 1 18.0751 1 12C1 5.92487 5.92487 1 12 1C18.0751 1 23 5.92487 23 12ZM6.88824 16.0152C5.77386 14.808 5.21667 13.3564 5.21667 11.6605C5.21667 10.8485 5.36046 10.0688 5.64804 9.32142C5.93563 8.57408 6.34903 7.90937 6.88824 7.3273C7.02484 7.16921 7.18841 7.08657 7.37893 7.07938C7.56945 7.0722 7.72942 7.14406 7.85883 7.29496C7.96667 7.42431 8.0134 7.57342 7.99902 7.74229C7.98465 7.91116 7.90915 8.07824 7.77255 8.24352C6.90981 9.1777 6.47844 10.3167 6.47844 11.6605C6.47844 13.0186 6.90981 14.1648 7.77255 15.099C8.06732 15.4511 8.09248 15.7673 7.84804 16.0475C7.71863 16.1912 7.56046 16.2595 7.37353 16.2524C7.18661 16.2452 7.02484 16.1661 6.88824 16.0152ZM8.74314 14.2043C8.1536 13.4714 7.85883 12.6234 7.85883 11.6605C7.85883 10.7119 8.1536 9.87116 8.74314 9.13818C8.87255 8.96571 9.03611 8.87409 9.23382 8.86331C9.43154 8.85254 9.5987 8.9262 9.7353 9.08429C9.84314 9.20644 9.88987 9.34657 9.87549 9.50467C9.86111 9.66276 9.78922 9.83163 9.65981 10.0113C9.48726 10.2484 9.35425 10.5071 9.26079 10.7874C9.16733 11.0676 9.1206 11.3587 9.1206 11.6605C9.1206 12.3216 9.30033 12.8749 9.65981 13.3204C9.78922 13.5001 9.86111 13.6689 9.87549 13.8271C9.88987 13.9851 9.84314 14.1288 9.7353 14.2582C9.60589 14.4019 9.44053 14.4702 9.23922 14.4631C9.03791 14.4559 8.87255 14.3696 8.74314 14.2043ZM10.927 12.3072C10.8083 12.1204 10.749 11.9048 10.749 11.6605C10.749 11.3155 10.8694 11.0227 11.1103 10.782C11.3511 10.5413 11.6441 10.4209 11.9892 10.4209C12.3415 10.4209 12.6381 10.5413 12.8789 10.782C13.1198 11.0227 13.2402 11.3155 13.2402 11.6605C13.2402 11.8976 13.1809 12.1114 13.0623 12.3019C12.9436 12.4922 12.7872 12.6413 12.5931 12.7491V18.3435C12.5931 18.5375 12.5374 18.6956 12.426 18.8178C12.3145 18.9399 12.1689 19.001 11.9892 19.001C11.8167 19.001 11.6747 18.9399 11.5632 18.8178C11.4518 18.6956 11.3961 18.5375 11.3961 18.3435V12.7491C11.202 12.6413 11.0456 12.494 10.927 12.3072ZM14.7338 12.5659C14.8237 12.2857 14.8686 11.9839 14.8686 11.6605C14.8686 11.3587 14.8219 11.0676 14.7284 10.7874C14.635 10.5071 14.502 10.2484 14.3294 10.0113C14.2 9.83163 14.1281 9.66276 14.1137 9.50467C14.0994 9.34657 14.1461 9.20644 14.254 9.08429C14.3905 8.9262 14.5577 8.85254 14.7554 8.86331C14.9531 8.87409 15.1167 8.96571 15.2461 9.13818C15.8356 9.87116 16.1304 10.7119 16.1304 11.6605C16.1304 12.6234 15.8356 13.4714 15.2461 14.2043C15.1167 14.3696 14.9513 14.4559 14.75 14.4631C14.5487 14.4702 14.3833 14.4019 14.254 14.2582C14.1461 14.1288 14.0994 13.9851 14.1137 13.8271C14.1281 13.6689 14.2 13.5001 14.3294 13.3204C14.5092 13.0977 14.644 12.8462 14.7338 12.5659ZM16.2167 15.099C17.0794 14.1648 17.5108 13.0186 17.5108 11.6605C17.5108 10.3167 17.0794 9.1777 16.2167 8.24352C16.0801 8.07824 16.0046 7.91116 15.9902 7.74229C15.9758 7.57342 16.0226 7.42431 16.1304 7.29496C16.2598 7.14406 16.4198 7.0722 16.6102 7.07938C16.8008 7.08657 16.9644 7.16921 17.101 7.3273C17.6402 7.90937 18.0536 8.57408 18.3411 9.32142C18.6288 10.0688 18.7726 10.8485 18.7726 11.6605C18.7726 13.3564 18.2154 14.808 17.101 16.0152C16.9644 16.1661 16.8026 16.2452 16.6157 16.2524C16.4287 16.2595 16.2706 16.1912 16.1411 16.0475C15.8967 15.7673 15.9219 15.4511 16.2167 15.099Z" fill="white" fill-opacity="0.88"/>
</svg>
