<svg width="24" height="24" viewBox="0 0 24 24" fill="none" xmlns="http://www.w3.org/2000/svg">
<path d="M21.22 5.70999H16.63C16.63 4.44999 16.15 3.26999 15.28 2.37999C14.41 1.48999 13.24 0.98999 12.01 0.98999C10.78 0.98999 9.61 1.47999 8.74 2.37999C7.87 3.26999 7.39 4.44999 7.39 5.70999H2.78C2.35 5.70999 2 6.05999 2 6.49999C2 6.93999 2.35 7.28999 2.78 7.28999H4.3V20.64C4.3 21.27 4.54 21.86 4.98 22.31C5.42 22.76 6 23 6.62 23H17.37C17.99 23 18.58 22.75 19.01 22.31C19.45 21.86 19.69 21.27 19.69 20.64V7.28999H21.21C21.64 7.28999 21.99 6.93999 21.99 6.49999C21.99 6.05999 21.64 5.70999 21.21 5.70999H21.22ZM9.84 3.48999C10.99 2.30999 13 2.30999 14.16 3.48999C14.74 4.07999 15.06 4.86999 15.06 5.70999H8.95C8.95 4.87999 9.28 4.06999 9.85 3.48999H9.84ZM18.13 20.64C18.13 20.85 18.05 21.05 17.9 21.2C17.76 21.35 17.57 21.42 17.37 21.42H6.62C6.42 21.42 6.23 21.34 6.09 21.2C5.95 21.05 5.86 20.85 5.86 20.64V7.28999H8.15H15.83H18.12V20.64H18.13ZM10.48 11.22V17.51C10.48 17.95 10.13 18.3 9.7 18.3C9.27 18.3 8.92 17.95 8.92 17.51V11.22C8.92 10.78 9.27 10.43 9.7 10.43C10.13 10.43 10.48 10.78 10.48 11.22ZM15.09 11.22V17.51C15.09 17.95 14.74 18.3 14.31 18.3C13.88 18.3 13.53 17.95 13.53 17.51V11.22C13.53 10.78 13.88 10.43 14.31 10.43C14.74 10.43 15.09 10.78 15.09 11.22Z" fill="white" fill-opacity="0.88"/>
</svg>
