<svg width="24" height="24" viewBox="0 0 24 24" fill="none" xmlns="http://www.w3.org/2000/svg">
<path d="M12 22.9893C13.5026 22.9893 14.9172 22.7018 16.2436 22.1269C17.5701 21.5521 18.7402 20.758 19.7539 19.7447C20.7676 18.7316 21.5621 17.562 22.1372 16.2362C22.7124 14.9104 23 13.4965 23 11.9946C23 10.4928 22.7124 9.0789 22.1372 7.75307C21.5621 6.42725 20.7676 5.25773 19.7539 4.24449C18.7402 3.23126 17.5683 2.43721 16.2382 1.86232C14.9082 1.28744 13.4918 1 11.9892 1C10.4866 1 9.07205 1.28744 7.74558 1.86232C6.41911 2.43721 5.25081 3.23126 4.24068 4.24449C3.23055 5.25773 2.43791 6.42725 1.86274 7.75307C1.28758 9.0789 1 10.4928 1 11.9946C1 13.4965 1.28758 14.9104 1.86274 16.2362C2.43791 17.562 3.23235 18.7316 4.24607 19.7447C5.2598 20.758 6.4299 21.5521 7.75636 22.1269C9.08283 22.7018 10.4974 22.9893 12 22.9893ZM12 21.1568C10.7274 21.1568 9.53757 20.9197 8.43039 20.4454C7.3232 19.9712 6.35081 19.3155 5.51323 18.4783C4.67565 17.6411 4.0214 16.6692 3.55049 15.5625C3.07957 14.4559 2.84411 13.2666 2.84411 11.9946C2.84411 10.7227 3.07957 9.53342 3.55049 8.42677C4.0214 7.32012 4.67385 6.34641 5.50784 5.50564C6.34182 4.66487 7.31241 4.00915 8.4196 3.53846C9.52679 3.06778 10.7167 2.83244 11.9892 2.83244C13.2618 2.83244 14.4516 3.06778 15.5588 3.53846C16.666 4.00915 17.6402 4.66487 18.4814 5.50564C19.3226 6.34641 19.9804 7.32012 20.4549 8.42677C20.9294 9.53342 21.1666 10.7227 21.1666 11.9946C21.1666 13.2666 20.9312 14.4559 20.4603 15.5625C19.9894 16.6692 19.3351 17.6411 18.4975 18.4783C17.6599 19.3155 16.6857 19.9712 15.5749 20.4454C14.4642 20.9197 13.2726 21.1568 12 21.1568ZM8.94803 16.3278C8.94803 16.5793 9.02532 16.7823 9.1799 16.9369C9.33447 17.0913 9.54117 17.1685 9.79999 17.1685H10.2529V18.0201C10.2529 18.1782 10.3015 18.3058 10.3985 18.4028C10.4956 18.4998 10.6196 18.5483 10.7706 18.5483C10.9216 18.5483 11.0456 18.4998 11.1426 18.4028C11.2397 18.3058 11.2882 18.1782 11.2882 18.0201V17.1685H11.9892V18.0201C11.9892 18.1782 12.0395 18.3058 12.1402 18.4028C12.2408 18.4998 12.363 18.5483 12.5068 18.5483C12.6578 18.5483 12.7836 18.4998 12.8843 18.4028C12.9849 18.3058 13.0352 18.1782 13.0352 18.0201V17.1362C13.9268 17.0428 14.6224 16.7482 15.1221 16.2524C15.6217 15.7565 15.8716 15.1133 15.8716 14.3229C15.8716 13.7121 15.7044 13.1911 15.3701 12.7599C15.0358 12.3288 14.5918 12.0306 14.0382 11.8653C14.4337 11.6713 14.7572 11.3766 15.0088 10.9814C15.2604 10.5862 15.3862 10.1622 15.3862 9.70947C15.3862 9.04117 15.1741 8.48066 14.75 8.02794C14.3258 7.57522 13.7542 7.29496 13.0352 7.18718V6.31407C13.0352 6.16317 12.9849 6.03742 12.8843 5.93681C12.7836 5.8362 12.6578 5.7859 12.5068 5.7859C12.363 5.7859 12.2408 5.8362 12.1402 5.93681C12.0395 6.03742 11.9892 6.16317 11.9892 6.31407V7.14406H11.2882V6.31407C11.2882 6.16317 11.2397 6.03742 11.1426 5.93681C11.0456 5.8362 10.9216 5.7859 10.7706 5.7859C10.6196 5.7859 10.4956 5.8362 10.3985 5.93681C10.3015 6.03742 10.2529 6.16317 10.2529 6.31407V7.14406H9.79999C9.54835 7.14406 9.34345 7.22311 9.18528 7.3812C9.02712 7.53929 8.94803 7.74409 8.94803 7.9956V16.3278ZM10.3284 15.9075V12.6306H12.151C12.9203 12.6306 13.5026 12.7671 13.898 13.0402C14.2935 13.3133 14.4912 13.7229 14.4912 14.269C14.4912 14.8008 14.3024 15.2032 13.925 15.4762C13.5475 15.7493 12.9957 15.8894 12.2696 15.8967L10.3284 15.9075ZM10.3284 11.3694V8.39443H12.1725C12.7549 8.39443 13.206 8.51659 13.526 8.76092C13.8459 9.00524 14.0058 9.35736 14.0058 9.81726C14.0058 10.3203 13.8225 10.7083 13.4559 10.9814C13.0892 11.2545 12.5607 11.3874 11.8706 11.3802L10.3284 11.3694Z" fill="white" fill-opacity="0.88"/>
</svg>
