<svg width="24" height="24" viewBox="0 0 24 24" fill="none" xmlns="http://www.w3.org/2000/svg">
<path fill-rule="evenodd" clip-rule="evenodd" d="M9.8 23V18.2857C9.8 17.4178 10.9 16.4 12 16.4C13.1 16.4 14.2 17.4178 14.2 18.2857V23H20.6429C21.9446 23 23 21.9446 23 20.6429V11.6487C23 11.2127 22.819 10.7964 22.5 10.4991L12.5113 1.18916C12.2171 0.936948 11.7829 0.936948 11.4887 1.18916L1.5 10.4991C1.1811 10.7964 1 11.2127 1 11.6487V20.6429C1 21.9446 2.05533 23 3.35714 23H9.8ZM12 2.89978L2.6 11.6611V20.6429C2.6 21.061 2.939 21.4 3.35714 21.4H8.2V18.2857C8.2 17.22 8.82724 16.347 9.43059 15.8162C10.0647 15.2582 10.9763 14.8 12 14.8C13.0237 14.8 13.9353 15.2582 14.5694 15.8162C15.1728 16.347 15.8 17.22 15.8 18.2857V21.4H20.6429C21.061 21.4 21.4 21.061 21.4 20.6429V11.6611L12 2.89978Z" fill="white" fill-opacity="0.88"/>
</svg>
