<svg width="24" height="24" viewBox="0 0 24 24" fill="none" xmlns="http://www.w3.org/2000/svg">
<path fill-rule="evenodd" clip-rule="evenodd" d="M2.00714 10.5892C2.00714 5.84946 5.84946 2.00714 10.5892 2.00714C15.329 2.00714 19.1713 5.84946 19.1713 10.5892C19.1713 12.677 18.4258 14.5906 17.1864 16.0785L21.7777 20.6698C22.0837 20.9757 22.0837 21.4717 21.7777 21.7777C21.4718 22.0836 20.9758 22.0836 20.6698 21.7777L16.0785 17.1864C14.5907 18.4257 12.677 19.1713 10.5892 19.1713C5.84946 19.1713 2.00714 15.329 2.00714 10.5892ZM10.5892 3.57396C6.71479 3.57396 3.57396 6.71479 3.57396 10.5892C3.57396 14.4636 6.71479 17.6044 10.5892 17.6044C14.4636 17.6044 17.6044 14.4636 17.6044 10.5892C17.6044 6.71479 14.4636 3.57396 10.5892 3.57396ZM10.5001 16C13.5376 16 16.0001 13.5376 16.0001 10.5C16.0001 7.46243 13.5376 5 10.5001 5C7.46249 5 5.00006 7.46243 5.00006 10.5C5.00006 13.5376 7.46249 16 10.5001 16Z" fill="white" fill-opacity="0.88"/>
</svg>
