<svg width="24" height="24" viewBox="0 0 24 24" fill="none" xmlns="http://www.w3.org/2000/svg">
<path fill-rule="evenodd" clip-rule="evenodd" d="M2 6C2 5.44772 2.40701 5 2.90909 5H21.0909C21.593 5 22 5.44772 22 6C22 6.55228 21.593 7 21.0909 7H2.90909C2.40701 7 2 6.55228 2 6Z" fill="white" fill-opacity="0.88"/>
<path fill-rule="evenodd" clip-rule="evenodd" d="M7 12C7 11.4477 7.40701 11 7.90909 11H21.0909C21.593 11 22 11.4477 22 12C22 12.5523 21.593 13 21.0909 13H7.90909C7.40701 13 7 12.5523 7 12Z" fill="white" fill-opacity="0.88"/>
<path fill-rule="evenodd" clip-rule="evenodd" d="M12 18C12 17.4477 12.407 17 12.9091 17H21.0909C21.593 17 22 17.4477 22 18C22 18.5523 21.593 19 21.0909 19H12.9091C12.407 19 12 18.5523 12 18Z" fill="white" fill-opacity="0.88"/>
</svg>
