<svg width="24" height="24" viewBox="0 0 24 24" fill="none" xmlns="http://www.w3.org/2000/svg">
<path d="M15.91 3C13.57 3 11.66 4.91 11.66 7.25C11.66 9.59 13.57 11.5 15.91 11.5C18.25 11.5 20.16 9.59 20.16 7.25C20.16 4.91 18.25 3 15.91 3ZM15.91 9.73C14.54 9.73 13.43 8.62 13.43 7.25C13.43 5.88 14.54 4.77 15.91 4.77C17.28 4.77 18.39 5.88 18.39 7.25C18.39 8.62 17.28 9.73 15.91 9.73ZM22 16.12C21.41 15.09 20.58 14.22 19.58 13.61C19.42 13.51 19.24 13.42 19.08 13.34L18.99 13.29C18.99 13.29 18.96 13.28 18.92 13.26C18.76 13.19 18.6 13.12 18.44 13.06L18.36 13.03C18.27 12.99 18.18 12.96 18.09 12.93C17.96 12.89 17.83 12.85 17.7 12.82L17.56 12.78C17.46 12.75 17.35 12.73 17.25 12.71C17.11 12.68 16.97 12.67 16.83 12.65L16.67 12.63C16.58 12.62 16.48 12.61 16.39 12.6H16.35C16.35 12.6 16.3 12.59 16.28 12.59C16.21 12.59 16.14 12.59 16.07 12.59C15.98 12.59 15.9 12.59 15.81 12.59C15.76 12.59 15.72 12.59 15.67 12.59C15.62 12.59 15.57 12.59 15.52 12.59H15.48C15.39 12.6 15.29 12.61 15.2 12.63L15.04 12.65C14.9 12.67 14.76 12.68 14.62 12.71C14.52 12.73 14.41 12.76 14.31 12.78L14.17 12.82C14.04 12.85 13.9 12.89 13.77 12.93C13.69 12.96 13.61 12.99 13.53 13.02L13.42 13.06C13.26 13.12 13.1 13.18 12.91 13.27C12.9 13.27 12.88 13.28 12.86 13.29C12.84 13.3 12.82 13.32 12.83 13.32L12.78 13.35C12.61 13.43 12.44 13.52 12.28 13.62C11.28 14.24 10.44 15.1 9.86002 16.13C9.28002 17.15 8.96002 18.32 8.95002 19.5V20.23C8.95002 20.71 9.34002 21.11 9.83002 21.11H22.06C22.54 21.11 22.94 20.72 22.94 20.23V19.5C22.94 18.32 22.62 17.15 22.03 16.13L22 16.12ZM21.14 19.35H10.69C10.73 18.52 10.96 17.7 11.36 16.98C11.79 16.22 12.42 15.57 13.17 15.1C13.31 15.01 13.46 14.93 13.66 14.84C13.8 14.77 13.94 14.72 14.08 14.67L14.15 14.64C14.15 14.64 14.22 14.61 14.26 14.6C14.4 14.55 14.55 14.52 14.69 14.48L14.78 14.46C14.78 14.46 14.86 14.44 14.91 14.43C15.02 14.41 15.12 14.4 15.23 14.38L15.36 14.36C15.43 14.36 15.51 14.34 15.58 14.34C15.67 14.34 15.76 14.34 15.85 14.34H15.98C16.07 14.34 16.16 14.34 16.25 14.34C16.32 14.34 16.4 14.35 16.47 14.36L16.6 14.38C16.71 14.39 16.82 14.41 16.92 14.43C16.96 14.43 17.01 14.45 17.05 14.46L17.13 14.48C17.27 14.52 17.42 14.55 17.56 14.6C17.6 14.61 17.63 14.63 17.67 14.64L17.74 14.67C17.88 14.72 18.02 14.78 18.16 14.84C18.36 14.94 18.51 15.02 18.65 15.1C19.4 15.57 20.03 16.22 20.46 16.98C20.87 17.7 21.1 18.52 21.13 19.35H21.14ZM6.68002 13.16C4.67002 13.16 3.03002 11.52 3.03002 9.51C3.03002 7.5 4.67002 5.86 6.68002 5.86C8.69002 5.86 10.33 7.5 10.33 9.51C10.33 11.52 8.69002 13.16 6.68002 13.16ZM6.68002 7.53C5.59002 7.53 4.70002 8.42 4.70002 9.51C4.70002 10.6 5.59002 11.49 6.68002 11.49C7.77002 11.49 8.66002 10.6 8.66002 9.51C8.66002 8.42 7.77002 7.53 6.68002 7.53ZM8.15002 14.07C7.86002 14.03 7.55002 14 7.23002 13.98C7.23002 13.98 7.22002 13.98 7.21002 13.98H7.19002C6.31002 13.98 5.50002 14.1 4.78002 14.35C2.32002 15.18 1.02002 17.38 1.02002 20.32C1.02002 20.75 1.26002 21.13 1.69002 21.13H7.21002C7.67002 21.13 8.04002 20.76 8.04002 20.3C8.04002 19.84 7.67002 19.47 7.21002 19.47H2.56002C2.72002 18.41 3.30002 16.6 5.29002 15.93C5.84002 15.75 6.46002 15.65 7.16002 15.65C7.42002 15.66 7.67002 15.68 7.90002 15.72C7.94002 15.72 7.98002 15.72 8.02002 15.72C8.42002 15.72 8.78002 15.42 8.84002 15.01C8.91002 14.56 8.59002 14.13 8.14002 14.07H8.15002Z" fill="white" fill-opacity="0.88"/>
</svg>
