<svg width="25" height="24" viewBox="0 0 25 24" fill="none" xmlns="http://www.w3.org/2000/svg">
<path fill-rule="evenodd" clip-rule="evenodd" d="M3.87677 18.2305C3.61635 18.0156 3.48615 17.7292 3.48615 17.3711C3.48615 17.0456 3.58055 16.7298 3.76935 16.4238C3.95815 16.1178 4.19415 15.8183 4.47736 15.5254C4.76056 15.2324 5.04214 14.9394 5.32209 14.6465C5.53693 14.4251 5.70457 14.1354 5.82502 13.7773C5.94546 13.4192 6.03497 13.0384 6.09356 12.6348C6.15216 12.2311 6.19448 11.8405 6.22053 11.4629C6.24005 10.1803 6.37351 9.05241 6.62091 8.0791C6.86831 7.10579 7.25731 6.29362 7.78791 5.64258C8.31851 4.99154 9.01675 4.50977 9.88263 4.19727C10.0454 3.55924 10.3758 3.01888 10.8738 2.57617C11.3719 2.13346 11.979 1.91211 12.6951 1.91211C13.4178 1.91211 14.0281 2.13346 14.5261 2.57617C15.0242 3.01888 15.3546 3.55924 15.5173 4.19727C16.3833 4.50977 17.0799 4.99154 17.6072 5.64258C18.1346 6.29362 18.5236 7.10579 18.7742 8.0791C19.0249 9.05241 19.16 10.1803 19.1795 11.4629C19.2055 11.8405 19.2478 12.2311 19.3064 12.6348C19.365 13.0384 19.4546 13.4192 19.575 13.7773C19.6954 14.1354 19.8631 14.4251 20.0779 14.6465C20.3579 14.9394 20.6394 15.2324 20.9226 15.5254C21.2058 15.8183 21.4418 16.1178 21.6306 16.4238C21.8194 16.7298 21.9138 17.0456 21.9138 17.3711C21.9138 17.7292 21.7836 18.0156 21.5232 18.2305C21.2628 18.4453 20.9015 18.5527 20.4392 18.5527H4.96075C4.49852 18.5527 4.13719 18.4453 3.87677 18.2305ZM14.0228 21.6425C13.6013 21.8753 13.123 21.9917 12.5882 21.9917C12.0596 21.9917 11.5845 21.8753 11.163 21.6425C10.7414 21.4097 10.4016 21.1045 10.1436 20.727C9.88564 20.3495 9.73777 19.9405 9.70001 19.5H15.4857C15.4417 19.9405 15.2923 20.3495 15.0375 20.727C14.7826 21.1045 14.4444 21.4097 14.0228 21.6425Z" fill="white" fill-opacity="0.88"/>
</svg>
