<svg width="24" height="24" viewBox="0 0 24 24" fill="none" xmlns="http://www.w3.org/2000/svg">
<path d="M11.3316 11.5544L21.654 1.23207C21.9603 0.925738 22.4616 0.925738 22.7679 1.23207C23.0742 1.5384 23.0742 2.03966 22.7679 2.34599L12.4455 12.6684H15.6481C16.0843 12.6684 16.4371 13.0211 16.4371 13.4574C16.4371 13.8937 16.0843 14.2464 15.6481 14.2464H10.5426C10.4405 14.2464 10.3384 14.2278 10.2362 14.1814C10.1434 14.1443 10.0506 14.0886 9.97633 14.0143C9.97633 14.0143 9.96705 13.9958 9.95777 13.9865C9.89279 13.9215 9.84637 13.8473 9.80924 13.7637C9.77211 13.6709 9.74426 13.5595 9.74426 13.4574V8.3519C9.74426 7.91561 10.097 7.56287 10.5333 7.56287C10.9696 7.56287 11.3223 7.91561 11.3223 8.3519V11.5544H11.3316ZM22.2109 11.211C21.7746 11.211 21.4219 11.5637 21.4219 12C21.4219 13.8658 20.8742 15.6759 19.8346 17.2354C18.7949 18.7949 17.3375 19.9924 15.6109 20.7072C13.8843 21.4219 12 21.6076 10.162 21.2456C8.33329 20.8835 6.66241 19.9924 5.33498 18.665C4.01684 17.3376 3.1257 15.6759 2.75439 13.838C2.39237 12 2.57802 10.1249 3.29279 8.39831C4.00756 6.67173 5.20502 5.20506 6.76452 4.1654C8.31473 3.12574 10.1249 2.57806 12 2.57806C12.4362 2.57806 12.789 2.22532 12.789 1.78903C12.789 1.35274 12.4362 1 12 1C9.81853 1 7.70207 1.64051 5.89194 2.85654C4.08182 4.07257 2.67085 5.77131 1.8354 7.79494C0.99996 9.80928 0.786458 12.0093 1.21346 14.1443C1.64047 16.2886 2.68013 18.2287 4.22106 19.7789C5.76199 21.3198 7.71135 22.3595 9.85566 22.7865C10.5704 22.9257 11.2945 23 12.0092 23C13.4481 23 14.8683 22.7215 16.2143 22.1646C18.2287 21.3291 19.9367 19.9274 21.1527 18.1173C22.3687 16.2979 23.0092 14.1907 23.0092 12.0093C23.0092 11.573 22.6565 11.2203 22.2202 11.2203L22.2109 11.211Z" fill="white" fill-opacity="0.88"/>
</svg>
