<svg width="24" height="24" viewBox="0 0 24 24" fill="none" xmlns="http://www.w3.org/2000/svg">
<path fill-rule="evenodd" clip-rule="evenodd" d="M8.23 21.18C8.23 21.63 7.86 22 7.41 22H4.13C2.95 22 2 21.05 2 19.87V16.59C2 16.14 2.37 15.77 2.82 15.77C3.27 15.77 3.64 16.14 3.64 16.59V19.87C3.64 20.14 3.86 20.36 4.13 20.36H7.41C7.86 20.36 8.23 20.73 8.23 21.18ZM21.18 15.77C20.73 15.77 20.36 16.14 20.36 16.59V19.87C20.36 20.14 20.14 20.36 19.87 20.36H16.59C16.14 20.36 15.77 20.73 15.77 21.18C15.77 21.63 16.14 22 16.59 22H19.87C21.05 22 22 21.05 22 19.87V16.59C22 16.14 21.63 15.77 21.18 15.77ZM19.87 2H16.59C16.14 2 15.77 2.37 15.77 2.82C15.77 3.27 16.14 3.64 16.59 3.64H19.87C20.14 3.64 20.36 3.86 20.36 4.13V7.41C20.36 7.86 20.73 8.23 21.18 8.23C21.63 8.23 22 7.86 22 7.41V4.13C22 2.95 21.05 2 19.87 2ZM2.82 8.23C3.27 8.23 3.64 7.86 3.64 7.41V4.13C3.64 3.86 3.86 3.64 4.13 3.64H7.41C7.86 3.64 8.23 3.27 8.23 2.82C8.23 2.37 7.86 2 7.41 2H4.13C2.95 2 2 2.95 2 4.13V7.41C2 7.86 2.37 8.23 2.82 8.23ZM21.18 11.18H2.82C2.37 11.18 2 11.55 2 12C2 12.45 2.37 12.82 2.82 12.82H21.18C21.63 12.82 22 12.45 22 12C22 11.55 21.63 11.18 21.18 11.18Z" fill="white" fill-opacity="0.88"/>
</svg>
