<svg width="24" height="24" viewBox="0 0 24 24" fill="none" xmlns="http://www.w3.org/2000/svg">
<path fill-rule="evenodd" clip-rule="evenodd" d="M2.99998 4.16525C2.99998 2.96942 3.9694 2 5.16523 2H8.72648C9.9223 2 10.8917 2.96941 10.8917 4.16525V19.8348C10.8917 21.0306 9.92229 22 8.72648 22H5.16523C3.9694 22 2.99998 21.0306 2.99998 19.8348V4.16525Z" fill="white"/>
<path fill-rule="evenodd" clip-rule="evenodd" d="M13.923 4.16525C13.923 2.96941 14.8925 2 16.0883 2H19.6495C20.8454 2 21.8148 2.96942 21.8148 4.16525V19.8348C21.8148 21.0306 20.8454 22 19.6495 22H16.0883C14.8925 22 13.923 21.0306 13.923 19.8348V4.16525Z" fill="white"/>
</svg>
