<svg width="24" height="24" viewBox="0 0 24 24" fill="none" xmlns="http://www.w3.org/2000/svg">
<path d="M1 15.8657C1 16.67 1.21687 17.3881 1.65061 18.02C2.08435 18.6519 2.66315 19.1517 3.387 19.5194C4.11086 19.8871 4.91227 20.0709 5.79124 20.0709C6.66446 20.0709 7.46299 19.8871 8.18685 19.5194C8.91071 19.1517 9.48806 18.6519 9.91891 18.02C10.3498 17.3881 10.5652 16.67 10.5652 15.8657V6.34352C10.5652 5.55647 10.3167 4.92167 9.81984 4.4391C9.3229 3.95653 8.6608 3.71524 7.83354 3.71524C7.18437 3.71524 6.61418 3.87035 6.123 4.18058C5.63181 4.4908 5.26558 4.92741 5.02429 5.49041L1.43948 13.832C1.26714 14.2399 1.1508 14.6018 1.09048 14.9178C1.03016 15.2338 1 15.5497 1 15.8657ZM3.56797 12.1775L6.19625 6.06777C6.34562 5.72307 6.55961 5.4545 6.83824 5.26205C7.11686 5.0696 7.4314 4.97337 7.78184 4.97337C8.23568 4.97337 8.59905 5.11268 8.87193 5.39131C9.14481 5.66993 9.28126 6.0333 9.28126 6.4814V13.0306C8.85038 12.6054 8.32903 12.2708 7.7172 12.0267C7.10538 11.7825 6.46339 11.6604 5.79124 11.6604C5.40633 11.6604 5.02286 11.7049 4.64082 11.794C4.25879 11.883 3.90117 12.0109 3.56797 12.1775ZM2.35292 15.8657C2.35292 15.2855 2.50516 14.7771 2.80964 14.3404C3.11412 13.9038 3.52488 13.5634 4.04192 13.3192C4.55896 13.0751 5.14206 12.953 5.79124 12.953C6.43466 12.953 7.02064 13.0751 7.54917 13.3192C8.0777 13.5634 8.49707 13.9038 8.8073 14.3404C9.11752 14.7771 9.27263 15.2855 9.27263 15.8657C9.27263 16.4459 9.11752 16.9543 8.8073 17.3909C8.49707 17.8276 8.07913 18.1679 7.55348 18.4121C7.02782 18.6563 6.4404 18.7784 5.79124 18.7784C5.14206 18.7784 4.55896 18.6548 4.04192 18.4077C3.52488 18.1607 3.11412 17.8189 2.80964 17.3823C2.50516 16.9457 2.35292 16.4401 2.35292 15.8657ZM23 15.8657C23 15.5497 22.9699 15.2338 22.9096 14.9178C22.8493 14.6018 22.73 14.2399 22.5519 13.832L18.9757 5.49041C18.7287 4.92741 18.3596 4.4908 17.8684 4.18058C17.3772 3.87035 16.8099 3.71524 16.1665 3.71524C15.3392 3.71524 14.6771 3.95653 14.1802 4.4391C13.6833 4.92167 13.4348 5.55647 13.4348 6.34352V15.8657C13.4348 16.67 13.6488 17.3881 14.0768 18.02C14.5048 18.6519 15.0807 19.1517 15.8045 19.5194C16.5284 19.8871 17.3298 20.0709 18.2088 20.0709C19.0878 20.0709 19.8892 19.8871 20.6131 19.5194C21.3369 19.1517 21.9157 18.6519 22.3494 18.02C22.7831 17.3881 23 16.67 23 15.8657ZM20.4321 12.1775C20.0931 12.0109 19.7326 11.883 19.3506 11.794C18.9686 11.7049 18.588 11.6604 18.2088 11.6604C17.5309 11.6604 16.886 11.7825 16.2742 12.0267C15.6624 12.2708 15.141 12.6054 14.7102 13.0306V6.4814C14.7102 6.0333 14.8466 5.66993 15.1195 5.39131C15.3924 5.11268 15.7586 4.97337 16.2182 4.97337C16.5686 4.97337 16.8817 5.0696 17.1574 5.26205C17.4332 5.4545 17.6458 5.72307 17.7952 6.06777L20.4321 12.1775ZM21.6385 15.8657C21.6385 16.4401 21.4877 16.9457 21.1861 17.3823C20.8845 17.8189 20.4752 18.1607 19.9581 18.4077C19.4411 18.6548 18.858 18.7784 18.2088 18.7784C17.5596 18.7784 16.9722 18.6563 16.4466 18.4121C15.9209 18.1679 15.5029 17.8276 15.1928 17.3909C14.8825 16.9543 14.7274 16.4459 14.7274 15.8657C14.7274 15.2855 14.8825 14.7771 15.1928 14.3404C15.5029 13.9038 15.9209 13.5634 16.4466 13.3192C16.9722 13.0751 17.5596 12.953 18.2088 12.953C18.858 12.953 19.4411 13.0751 19.9581 13.3192C20.4752 13.5634 20.8845 13.9038 21.1861 14.3404C21.4877 14.7771 21.6385 15.2855 21.6385 15.8657ZM9.98783 13.9268C10.2349 13.7659 10.5351 13.6381 10.8884 13.5433C11.2417 13.4485 11.6136 13.4011 12.0043 13.4011C12.9235 13.4011 13.6129 13.5706 14.0725 13.9096V12.6256C13.5153 12.39 12.8259 12.2722 12.0043 12.2722C11.6424 12.2722 11.2905 12.3067 10.9487 12.3757C10.6069 12.4446 10.2866 12.5423 9.98783 12.6686V13.9268ZM9.98783 11.2985C10.2349 11.1376 10.5351 11.0098 10.8884 10.915C11.2417 10.8202 11.6136 10.7728 12.0043 10.7728C12.9235 10.7728 13.6129 10.9423 14.0725 11.2813V9.99727C13.5153 9.76173 12.8259 9.64396 12.0043 9.64396C11.6424 9.64396 11.2905 9.67843 10.9487 9.74736C10.6069 9.81631 10.2866 9.91397 9.98783 10.0404V11.2985ZM9.98783 8.66159C10.2349 8.50073 10.5351 8.37291 10.8884 8.27812C11.2417 8.18332 11.6136 8.13593 12.0043 8.13593C12.9235 8.13593 13.6129 8.3054 14.0725 8.64435V7.36899C13.5153 7.1277 12.8259 7.00706 12.0043 7.00706C11.6424 7.00706 11.2905 7.04297 10.9487 7.11478C10.6069 7.18659 10.2866 7.28569 9.98783 7.41207V8.66159Z" fill="white" fill-opacity="0.88"/>
</svg>
