<svg width="24" height="24" viewBox="0 0 24 24" fill="none" xmlns="http://www.w3.org/2000/svg">
<path d="M19.7243 18.4007C20.0901 18.7665 20.0901 19.3624 19.7243 19.7282C19.5361 19.9164 19.2957 20 19.0553 20C18.8148 20 18.5744 19.9059 18.3863 19.7282L11.9889 13.3308L5.61241 19.7282C5.42425 19.9164 5.18383 20 4.9434 20C4.70298 20 4.46256 19.9059 4.2744 19.7282C3.90853 19.3624 3.90853 18.7665 4.2744 18.4007L10.6718 12.0033L4.2744 5.61635C3.90853 5.25048 3.90853 4.65465 4.2744 4.27833C4.64026 3.90201 5.2361 3.91247 5.61241 4.27833L12.0098 10.6757L18.3967 4.27833C18.7626 3.91247 19.3584 3.91247 19.7243 4.27833C20.0901 4.64419 20.0901 5.24003 19.7243 5.60589L13.3269 12.0033L19.7243 18.4007Z" fill="white" fill-opacity="0.88"/>
</svg>
