<svg width="24" height="24" viewBox="0 0 24 24" fill="none" xmlns="http://www.w3.org/2000/svg">
<path d="M18.08 12.23C18.08 12.23 18.08 12.25 18.08 12.26C18.08 12.36 18.06 12.47 18.02 12.56C17.98 12.66 17.91 12.76 17.84 12.83L12.46 18.21C12.29 18.38 12.08 18.46 11.86 18.46C11.64 18.46 11.42 18.38 11.26 18.21C10.93 17.88 10.93 17.34 11.26 17.01L15.19 13.08H1.85C1.38 13.08 1 12.7 1 12.23C1 11.76 1.38 11.38 1.85 11.38H15.18L11.25 7.45C10.92 7.12 10.92 6.58 11.25 6.25C11.58 5.92 12.12 5.92 12.45 6.25L17.83 11.63C17.91 11.71 17.97 11.8 18.01 11.9C18.05 12 18.08 12.11 18.08 12.23ZM21.85 6C21.38 6 21 6.38 21 6.85V17.62C21 18.09 21.38 18.47 21.85 18.47C22.32 18.47 22.7 18.09 22.7 17.62V6.85C22.7 6.38 22.32 6 21.85 6Z" fill="white" fill-opacity="0.88"/>
</svg>
