<svg width="24" height="24" viewBox="0 0 24 24" fill="none" xmlns="http://www.w3.org/2000/svg">
<path fill-rule="evenodd" clip-rule="evenodd" d="M4.95291 2.38902C5.32555 2.18211 5.74484 2.07346 6.17127 2.07346C6.60391 2.07346 7.02923 2.1853 7.40591 2.39814C7.41369 2.40254 7.4214 2.40708 7.42903 2.41176L19.7401 9.9692C20.118 10.1596 20.4369 10.4497 20.6624 10.8083C20.895 11.1788 21.0185 11.6076 21.0185 12.0449C21.0185 12.4822 20.8952 12.9108 20.6625 13.2812C20.4373 13.6395 20.1187 13.9296 19.7413 14.12L7.43114 21.7337C7.42286 21.7388 7.41449 21.7438 7.40602 21.7486C7.02936 21.9615 6.60401 22.0735 6.17127 22.0735C5.74481 22.0735 5.32555 21.9647 4.95297 21.7578C4.57324 21.5643 4.25284 21.2716 4.02562 20.911C3.79499 20.5449 3.66911 20.1226 3.66166 19.6899L3.66144 19.6771L3.66155 4.45689C3.669 4.02428 3.795 3.602 4.02562 3.23594C4.2529 2.87518 4.57332 2.58263 4.95291 2.38902ZM6.17127 3.55494C5.99402 3.55494 5.81977 3.60076 5.66544 3.68796C5.65455 3.69411 5.64351 3.69999 5.63233 3.70558C5.48755 3.77797 5.36537 3.88866 5.2791 4.02562C5.19377 4.16105 5.14676 4.31705 5.14303 4.47699V19.6698C5.14677 19.8299 5.19379 19.9859 5.27909 20.1213C5.36539 20.2583 5.48752 20.3689 5.63207 20.4411C5.64338 20.4467 5.65455 20.4527 5.66555 20.4589C5.8199 20.5461 5.99412 20.592 6.17127 20.592C6.34423 20.592 6.51438 20.5483 6.66594 20.4651L18.9919 12.8415C19.014 12.8279 19.0367 12.8154 19.0601 12.8042C19.2028 12.7354 19.3234 12.6277 19.408 12.4933C19.4923 12.3591 19.537 12.2036 19.537 12.0449C19.537 11.8861 19.4923 11.7307 19.408 11.5965C19.3234 11.4621 19.2028 11.3544 19.0601 11.2856C19.0375 11.2747 19.0154 11.2627 18.994 11.2496L6.66695 3.6823C6.51517 3.59878 6.34466 3.55494 6.17127 3.55494Z" fill="white"/>
</svg>
