<svg width="24" height="24" viewBox="0 0 24 24" fill="none" xmlns="http://www.w3.org/2000/svg">
<path fill-rule="evenodd" clip-rule="evenodd" d="M17.5242 11.3313C17.5242 12.6009 16.5648 13.6282 15.3339 13.7639V14.607C15.3339 15.0626 14.9656 15.4308 14.5101 15.4308C14.0546 15.4308 13.6863 15.0626 13.6863 14.607V13.7639C12.7366 13.6573 11.9515 13.0176 11.6414 12.1454C11.4863 11.7189 11.7189 11.2441 12.1454 11.0987C12.5718 10.9436 13.0467 11.1762 13.1921 11.6026C13.3084 11.9225 13.6088 12.1454 13.9577 12.1454H14.5004H15.0432C15.489 12.1454 15.8573 11.7771 15.8573 11.3313C15.8573 10.9436 15.5859 10.6141 15.2176 10.5366L13.289 10.1101C12.2423 9.87753 11.4863 8.94714 11.4863 7.87137C11.4863 6.64053 12.4555 5.65198 13.6767 5.59383V4.77004C13.6767 4.31454 14.0449 3.94626 14.5004 3.94626C14.9559 3.94626 15.3242 4.31454 15.3242 4.77004V5.61322C15.9445 5.68106 16.4969 5.97181 16.8846 6.40793C17.0978 6.64053 17.2626 6.92159 17.3692 7.23172C17.5242 7.65815 17.2916 8.13304 16.8652 8.27841C16.4388 8.43348 15.9639 8.20088 15.8185 7.77445C15.7797 7.67753 15.7313 7.58062 15.6537 7.50308C15.4987 7.33833 15.2855 7.23172 15.0432 7.23172H13.7736C13.4247 7.23172 13.1339 7.52247 13.1339 7.87137C13.1339 8.17181 13.3471 8.43348 13.6379 8.50132L15.5665 8.92775C16.7004 9.17974 17.5048 10.178 17.5048 11.3313H17.5242ZM23.2132 9.69339C23.2132 14.5004 19.3172 18.3868 14.5198 18.3868C9.72247 18.3868 5.81674 14.5004 5.81674 9.69339C5.81674 4.88634 9.71277 1 14.5101 1C19.3075 1 23.2035 4.89604 23.2035 9.69339H23.2132ZM21.5656 9.69339C21.5656 5.79736 18.4062 2.64758 14.5198 2.64758C10.6335 2.64758 7.47401 5.80705 7.47401 9.69339C7.47401 13.5797 10.6335 16.7392 14.5198 16.7392C18.4062 16.7392 21.5656 13.5797 21.5656 9.69339ZM12.7656 20.6449C11.8352 21.1004 10.7982 21.3524 9.69339 21.3524C5.79736 21.3524 2.64758 18.193 2.64758 14.3066C2.64758 13.0952 2.95771 11.9515 3.49075 10.9533C3.70396 10.5559 3.55859 10.052 3.16123 9.83877C2.76388 9.62555 2.25991 9.77092 2.0467 10.1683C1.37797 11.3991 1 12.8141 1 14.3066C1 19.104 4.89603 23 9.69339 23C11.0502 23 12.3392 22.6899 13.4925 22.1278C13.8996 21.9242 14.074 21.4396 13.8705 21.0229C13.667 20.6159 13.1824 20.4414 12.7656 20.6449Z" fill="white" fill-opacity="0.88"/>
</svg>
