<svg width="24" height="24" viewBox="0 0 24 24" fill="none" xmlns="http://www.w3.org/2000/svg">
<path fill-rule="evenodd" clip-rule="evenodd" d="M5.7509 12.2648C5.60368 12.0965 5.39098 12 5.16741 12C4.94383 12 4.73114 12.0965 4.58391 12.2648L1.19185 16.1414C0.909872 16.4637 0.942527 16.9535 1.26478 17.2355C1.58704 17.5174 2.07686 17.4848 2.35884 17.1625L4.39795 14.8321V19.2426C4.39795 21.4246 6.4154 23 8.64676 23H15.2681C17.4994 23 19.5169 21.4246 19.5169 19.2426V17.9007C19.5169 17.4725 19.1698 17.1254 18.7416 17.1254C18.3134 17.1254 17.9662 17.4725 17.9662 17.9007V19.2426C17.9662 20.3546 16.8734 21.4493 15.2681 21.4493H8.64676C7.04141 21.4493 5.94861 20.3546 5.94861 19.2426V14.8455L7.97598 17.1625C8.25795 17.4848 8.74778 17.5174 9.07003 17.2355C9.39229 16.9535 9.42494 16.4637 9.14297 16.1414L5.7509 12.2648Z" fill="white" fill-opacity="0.88"/>
<path fill-rule="evenodd" clip-rule="evenodd" d="M18.2491 11.7352C18.3963 11.9035 18.609 12 18.8326 12C19.0562 12 19.2689 11.9035 19.4161 11.7352L22.8082 7.85859C23.0901 7.53633 23.0575 7.04651 22.7352 6.76453C22.413 6.48256 21.9231 6.51522 21.6412 6.83747L19.6021 9.16789V4.75737C19.6021 2.57542 17.5846 1 15.3532 1H8.73191C6.50056 1 4.4831 2.57542 4.4831 4.75737V6.09928C4.4831 6.52749 4.83023 6.87461 5.25843 6.87461C5.68663 6.87461 6.03376 6.52749 6.03376 6.09928V4.75737C6.03376 3.64535 7.12656 2.55066 8.73191 2.55066H15.3532C16.9586 2.55066 18.0514 3.64535 18.0514 4.75737V9.15447L16.024 6.83747C15.742 6.51522 15.2522 6.48256 14.93 6.76453C14.6077 7.04651 14.5751 7.53633 14.857 7.85859L18.2491 11.7352Z" fill="white" fill-opacity="0.88"/>
</svg>
