<svg width="24" height="24" viewBox="0 0 24 24" fill="none" xmlns="http://www.w3.org/2000/svg">
<path d="M2 11.9047C2 13.1394 2.31849 14.0805 2.95547 14.7281C3.59245 15.3757 4.52198 15.6995 5.74406 15.6995H8.86554C9.64375 15.7903 10.4263 15.9264 11.2132 16.108C12 16.2896 12.7825 16.5166 13.5607 16.7889C14.3389 17.0613 15.1042 17.3775 15.8564 17.7376C16.6087 18.0977 17.3365 18.5017 18.0397 18.9496V17.3427C17.348 16.9009 16.6347 16.5075 15.8997 16.1625C15.1647 15.8175 14.4095 15.5179 13.6342 15.2637C12.8589 15.0095 12.0692 14.7977 11.265 14.6282C10.4609 14.4587 9.64375 14.3286 8.81366 14.2379H5.74406C4.91397 14.2379 4.31446 14.0548 3.94553 13.6886C3.5766 13.3224 3.39213 12.7278 3.39213 11.9047V10.5247C3.39213 9.70161 3.5766 9.10697 3.94553 8.7408C4.31446 8.37464 4.91397 8.19155 5.74406 8.19155H8.72719C9.57457 8.10076 10.409 7.96912 11.2304 7.79663C12.0519 7.62414 12.8546 7.4108 13.6385 7.1566C14.4226 6.9024 15.1835 6.60281 15.9213 6.25783C16.6592 5.91284 17.3653 5.52247 18.0397 5.08669V3.4798C17.3596 3.92767 16.6361 4.33469 15.8695 4.70086C15.1027 5.06702 14.3187 5.38629 13.5175 5.65865C12.7162 5.931 11.925 6.15796 11.1439 6.33953C10.3629 6.5211 9.62069 6.65123 8.91742 6.72991H5.74406C4.52198 6.72991 3.59245 7.05371 2.95547 7.70131C2.31849 8.34891 2 9.29005 2 10.5247V11.9047ZM10.3182 15.645H9.01253L9.7648 19.6304C9.81668 19.9089 9.77777 20.1313 9.64808 20.2977C9.51837 20.4642 9.34111 20.5474 9.1163 20.5474C8.90878 20.5474 8.74737 20.4914 8.63207 20.3795C8.51678 20.2675 8.40438 20.0904 8.29486 19.8483L6.34068 15.4725H4.9399L6.99783 20.2478C7.23995 20.8107 7.5325 21.2298 7.87548 21.5052C8.21847 21.7806 8.64073 21.9183 9.14224 21.9183C9.55728 21.9183 9.92333 21.8184 10.2404 21.6187C10.5574 21.4189 10.7895 21.133 10.9365 20.7608C11.0834 20.3886 11.1079 19.9422 11.01 19.4216L10.3182 15.645ZM7.68094 7.45619V14.9732H9.07306V7.45619H7.68094ZM17.5988 18.0599C17.5988 18.5199 17.6896 18.9239 17.8712 19.2719C18.0527 19.6199 18.3092 19.8892 18.6407 20.0798C18.9722 20.2705 19.357 20.3659 19.7951 20.3659C20.2389 20.3659 20.6251 20.2705 20.9537 20.0798C21.2823 19.8892 21.5388 19.6199 21.7233 19.2719C21.9078 18.9239 22 18.5199 22 18.0599V4.31502C22 3.84899 21.9078 3.44348 21.7233 3.0985C21.5388 2.75352 21.2823 2.48419 20.9537 2.29051C20.6251 2.09684 20.2389 2 19.7951 2C19.357 2 18.9722 2.09684 18.6407 2.29051C18.3092 2.48419 18.0527 2.75352 17.8712 3.0985C17.6896 3.44348 17.5988 3.84899 17.5988 4.31502V18.0599ZM18.991 18.0599V4.31502C18.991 4.05477 19.0644 3.84748 19.2114 3.69314C19.3584 3.53881 19.553 3.46165 19.7951 3.46165C20.0372 3.46165 20.2332 3.53881 20.383 3.69314C20.5329 3.84748 20.6078 4.05477 20.6078 4.31502V18.0599C20.6078 18.3141 20.5329 18.5183 20.383 18.6727C20.2332 18.827 20.0372 18.9042 19.7951 18.9042C19.553 18.9042 19.3584 18.827 19.2114 18.6727C19.0644 18.5183 18.991 18.3141 18.991 18.0599Z" fill="white" fill-opacity="0.88"/>
</svg>
