<svg width="24" height="24" viewBox="0 0 24 24" fill="none" xmlns="http://www.w3.org/2000/svg">
<path d="M6.53108 22.9907C6.32657 22.9907 6.11276 22.9814 5.90825 22.9535C4.58823 22.8048 3.34258 22.2098 2.41298 21.2617L1.71579 20.5831C1.25099 20.0997 1 19.4861 1 18.8354C1 18.1847 1.25099 17.5619 1.70649 17.0971L4.71837 14.1131C5.64797 13.1928 7.25616 13.1928 8.18576 14.1131C8.52041 14.4384 9.10606 14.4477 9.45001 14.1131L14.1537 9.40004C14.2374 9.31638 14.3025 9.21413 14.349 9.11187C14.3954 9.00032 14.414 8.88877 14.414 8.77722C14.414 8.66567 14.3954 8.54482 14.349 8.44256C14.3025 8.33101 14.2374 8.23805 14.1537 8.15439C13.689 7.6803 13.438 7.06676 13.438 6.41605C13.438 5.76533 13.689 5.1518 14.1445 4.68701L17.1284 1.69371C18.0766 0.76412 19.6755 0.773416 20.6144 1.69371L21.3209 2.4095C22.2598 3.3298 22.8547 4.57545 23.0035 5.89548C23.1522 7.2155 22.8362 8.56341 22.1111 9.67892C18.7831 14.5965 14.6093 18.7611 9.71029 22.0704C9.71029 22.0704 9.71029 22.0704 9.701 22.0704C8.76211 22.6746 7.66519 23 6.54967 23L6.53108 22.9907ZM6.43812 14.9776C6.20572 14.9776 5.98262 15.0706 5.81529 15.2379L2.822 18.2033C2.66397 18.3613 2.57101 18.5937 2.57101 18.8261C2.57101 19.0585 2.66397 19.2909 2.8313 19.4582L3.52849 20.1369C4.21639 20.834 5.1181 21.271 6.07558 21.3825C7.03306 21.4848 8.00914 21.2617 8.81788 20.7411C13.5495 17.5433 17.5747 13.5181 20.7818 8.78651C21.293 7.98706 21.5254 7.01099 21.4232 6.04421C21.3209 5.07743 20.884 4.17573 20.1961 3.49713L19.4989 2.78134C19.1828 2.47457 18.5879 2.46528 18.244 2.79063L15.2693 5.77463C15.1112 5.94196 15.0183 6.15576 15.0183 6.39746C15.0183 6.63915 15.1112 6.85296 15.2786 7.02029C15.5017 7.24339 15.6876 7.51297 15.8084 7.81044C15.9386 8.10791 15.9943 8.43327 15.9943 8.75863C15.9943 9.08398 15.9293 9.40934 15.8084 9.70681C15.6783 10.0136 15.5017 10.2832 15.2693 10.5063L10.5655 15.2193C9.61733 16.1489 8.01843 16.1396 7.07954 15.2193C6.91222 15.052 6.68911 14.959 6.45671 14.959L6.43812 14.9776Z" fill="white" fill-opacity="0.88"/>
</svg>
