<svg width="24" height="24" viewBox="0 0 24 24" fill="none" xmlns="http://www.w3.org/2000/svg">
<path fill-rule="evenodd" clip-rule="evenodd" d="M12 3C9.23858 3 7 5.23858 7 8C7 10.7614 9.23858 13 12 13C14.7614 13 17 10.7614 17 8C17 5.23858 14.7614 3 12 3ZM8.6 8C8.6 6.12223 10.1222 4.6 12 4.6C13.8778 4.6 15.4 6.12223 15.4 8C15.4 9.87777 13.8778 11.4 12 11.4C10.1222 11.4 8.6 9.87777 8.6 8Z" fill="white" fill-opacity="0.88"/>
<path fill-rule="evenodd" clip-rule="evenodd" d="M8 15C5.79086 15 4 16.7909 4 19V20C4 20.5523 4.44772 21 5 21H19C19.5523 21 20 20.5523 20 20V19C20 16.7909 18.2091 15 16 15H8ZM5.6 19C5.6 17.6745 6.67452 16.6 8 16.6H16C17.3255 16.6 18.4 17.6745 18.4 19V19.4H5.6V19Z" fill="white" fill-opacity="0.88"/>
</svg>
