<svg width="24" height="24" viewBox="0 0 24 24" fill="none" xmlns="http://www.w3.org/2000/svg">
<path d="M23 13.5613V20.577C23 21.2157 22.7465 21.8341 22.2903 22.2903C21.8341 22.7465 21.2258 23 20.577 23H3.42304C2.77419 23 2.1659 22.7465 1.70968 22.2903C1.26359 21.8442 1 21.2157 1 20.577V3.42304C1 2.77419 1.25346 2.1659 1.70968 1.70968C2.1659 1.25346 2.77419 1 3.42304 1H10.4387C10.9152 1 11.3005 1.38525 11.3005 1.86175C11.3005 2.33825 10.9152 2.7235 10.4387 2.7235H3.42304C3.24055 2.7235 3.05806 2.79447 2.92627 2.92627C2.79447 3.05806 2.7235 3.23041 2.7235 3.42304V20.577C2.7235 20.7594 2.79447 20.9419 2.92627 21.0737C3.05806 21.2055 3.23041 21.2765 3.42304 21.2765H20.577C20.7594 21.2765 20.9419 21.2055 21.0737 21.0737C21.2055 20.9419 21.2765 20.7594 21.2765 20.577V13.5613C21.2765 13.0848 21.6618 12.6995 22.1382 12.6995C22.6147 12.6995 23 13.0848 23 13.5613ZM22.929 1.53733C22.8378 1.32442 22.6756 1.16221 22.4627 1.07097C22.3613 1.03041 22.2498 1 22.1281 1H16.6737C16.1972 1 15.812 1.38525 15.812 1.86175C15.812 2.33825 16.1972 2.7235 16.6737 2.7235H20.0498L11.3816 11.3917C11.047 11.7263 11.047 12.2737 11.3816 12.6083C11.5539 12.7806 11.7668 12.8618 11.9899 12.8618C12.2129 12.8618 12.4359 12.7806 12.5982 12.6083L21.2765 3.94009V7.31613C21.2765 7.79263 21.6618 8.17788 22.1382 8.17788C22.6147 8.17788 23 7.79263 23 7.31613V1.86175C23 1.75023 22.9797 1.63871 22.929 1.53733Z" fill="white" fill-opacity="0.88"/>
</svg>
