<svg width="24" height="24" viewBox="0 0 24 24" fill="none" xmlns="http://www.w3.org/2000/svg">
<path fill-rule="evenodd" clip-rule="evenodd" d="M3.38177 1C2.07829 1 1 2.07829 1 3.38177V14.3504C1 15.6539 2.07829 16.7322 3.38177 16.7322H7.26781V20.6182C7.26781 21.9218 8.34611 23 9.64957 23H20.6182C21.9337 23 23 21.9337 23 20.6182V9.64957C23 8.34611 21.9218 7.26781 20.6182 7.26781H16.7322V3.38177C16.7322 2.07829 15.6539 1 14.3504 1H3.38177ZM15.9183 8.89744C15.918 8.89744 15.9177 8.89744 15.9174 8.89744C15.9171 8.89744 15.9168 8.89744 15.9165 8.89744H9.64957C9.24611 8.89744 8.89744 9.24611 8.89744 9.64957V15.9165C8.89744 15.9168 8.89744 15.9171 8.89744 15.9174C8.89744 15.9177 8.89744 15.918 8.89744 15.9183V20.6182C8.89744 21.0217 9.24609 21.3704 9.64957 21.3704H20.6182C21.0337 21.3704 21.3704 21.0337 21.3704 20.6182V9.64957C21.3704 9.24609 21.0217 8.89744 20.6182 8.89744H15.9183ZM7.26781 15.1026V9.64957C7.26781 8.34609 8.34609 7.26781 9.64957 7.26781H15.1026V3.38177C15.1026 2.97831 14.7539 2.62963 14.3504 2.62963H3.38177C2.97831 2.62963 2.62963 2.97831 2.62963 3.38177V14.3504C2.62963 14.7539 2.97831 15.1026 3.38177 15.1026H7.26781Z" fill="white" fill-opacity="0.88"/>
</svg>
