<svg width="24" height="24" viewBox="0 0 24 24" fill="none" xmlns="http://www.w3.org/2000/svg">
<path d="M3 17.459C3 17.8171 3.13021 18.1035 3.39062 18.3184C3.65104 18.5332 4.01237 18.6406 4.47461 18.6406H8.5957C8.62175 19.2721 8.79265 19.8548 9.1084 20.3887C9.42415 20.9226 9.84896 21.3539 10.3828 21.6826C10.9167 22.0114 11.5254 22.1758 12.209 22.1758C12.8991 22.1758 13.511 22.013 14.0449 21.6875C14.5788 21.362 15.0036 20.9307 15.3193 20.3936C15.6351 19.8565 15.806 19.2721 15.832 18.6406H19.9531C20.4154 18.6406 20.7767 18.5332 21.0371 18.3184C21.2975 18.1035 21.4277 17.8171 21.4277 17.459C21.4277 17.1335 21.3333 16.8177 21.1445 16.5117C20.9557 16.2057 20.7197 15.9062 20.4365 15.6133C20.1533 15.3203 19.8717 15.0273 19.5918 14.7344C19.3769 14.513 19.2093 14.2233 19.0889 13.8652C18.9684 13.5071 18.8789 13.1263 18.8203 12.7227C18.7617 12.319 18.7194 11.9284 18.6934 11.5508C18.6739 10.2682 18.5388 9.1403 18.2881 8.16699C18.0374 7.19368 17.6484 6.38151 17.1211 5.73047C16.5938 5.07943 15.8971 4.59766 15.0312 4.28516C14.8685 3.64713 14.5381 3.10677 14.04 2.66406C13.542 2.22135 12.9317 2 12.209 2C11.4928 2 10.8857 2.22135 10.3877 2.66406C9.88965 3.10677 9.55924 3.64713 9.39648 4.28516C8.5306 4.59766 7.83236 5.07943 7.30176 5.73047C6.77116 6.38151 6.38216 7.19368 6.13477 8.16699C5.88737 9.1403 5.75391 10.2682 5.73438 11.5508C5.70833 11.9284 5.66601 12.319 5.60742 12.7227C5.54883 13.1263 5.45931 13.5071 5.33887 13.8652C5.21842 14.2233 5.05078 14.513 4.83594 14.7344C4.55599 15.0273 4.27442 15.3203 3.99121 15.6133C3.70801 15.9062 3.47201 16.2057 3.2832 16.5117C3.0944 16.8177 3 17.1335 3 17.459ZM4.89453 17.166V17.0488C4.95312 16.9577 5.05078 16.8356 5.1875 16.6826C5.32422 16.5296 5.47884 16.362 5.65137 16.1797C5.8239 15.9974 5.99479 15.8118 6.16406 15.623C6.33984 15.4277 6.49284 15.2015 6.62305 14.9443C6.75326 14.6872 6.86393 14.3958 6.95508 14.0703C7.04623 13.7448 7.11784 13.3834 7.16992 12.9863C7.22201 12.5892 7.26107 12.153 7.28711 11.6777C7.31315 10.2585 7.45963 9.13216 7.72656 8.29883C7.99349 7.4655 8.34993 6.84538 8.7959 6.43848C9.24186 6.03157 9.74479 5.75 10.3047 5.59375C10.4284 5.56771 10.5228 5.52051 10.5879 5.45215C10.653 5.38379 10.6888 5.28776 10.6953 5.16406C10.7148 4.65625 10.8597 4.24121 11.1299 3.91895C11.4001 3.59668 11.7598 3.43555 12.209 3.43555C12.6647 3.43555 13.0277 3.59668 13.2979 3.91895C13.568 4.24121 13.7129 4.65625 13.7324 5.16406C13.7324 5.28776 13.7666 5.38379 13.835 5.45215C13.9033 5.52051 13.9961 5.56771 14.1133 5.59375C14.6732 5.75 15.1761 6.03157 15.6221 6.43848C16.068 6.84538 16.4261 7.4655 16.6963 8.29883C16.9665 9.13216 17.1146 10.2585 17.1406 11.6777C17.1601 12.153 17.1976 12.5892 17.2529 12.9863C17.3082 13.3834 17.3799 13.7448 17.4678 14.0703C17.5557 14.3958 17.6647 14.6872 17.7949 14.9443C17.9251 15.2015 18.0781 15.4277 18.2539 15.623C18.4297 15.8118 18.6039 15.9974 18.7764 16.1797C18.9489 16.362 19.1019 16.5296 19.2354 16.6826C19.3688 16.8356 19.4648 16.9577 19.5234 17.0488V17.166H4.89453ZM10.1191 18.6406H14.3086C14.2695 19.3047 14.0579 19.8304 13.6738 20.2178C13.2897 20.6051 12.8015 20.7988 12.209 20.7988C11.623 20.7988 11.1364 20.6051 10.749 20.2178C10.3617 19.8304 10.1517 19.3047 10.1191 18.6406Z" fill="white" fill-opacity="0.88"/>
</svg>
