<svg width="24" height="24" viewBox="0 0 24 24" fill="none" xmlns="http://www.w3.org/2000/svg">
<path fill-rule="evenodd" clip-rule="evenodd" d="M4.95291 2.38903C5.32554 2.18212 5.74483 2.07346 6.17126 2.07346C6.6039 2.07346 7.02922 2.1853 7.4059 2.39815C7.41369 2.40255 7.4214 2.40709 7.42902 2.41177L19.7401 9.9692C20.118 10.1596 20.4369 10.4497 20.6624 10.8083C20.895 11.1788 21.0185 11.6076 21.0185 12.0449C21.0185 12.4822 20.8952 12.9108 20.6625 13.2812C20.4373 13.6395 20.1187 13.9296 19.7413 14.12L7.43113 21.7337C7.42286 21.7388 7.41448 21.7438 7.40601 21.7486C7.02935 21.9615 6.604 22.0735 6.17126 22.0735C5.7448 22.0735 5.32554 21.9647 4.95297 21.7578C4.57323 21.5643 4.25283 21.2716 4.02562 20.911C3.79498 20.5449 3.6691 20.1226 3.66165 19.6899L3.66143 19.6772L3.66154 4.45689C3.66899 4.02429 3.795 3.602 4.02562 3.23594C4.25289 2.87519 4.57331 2.58263 4.95291 2.38903Z" fill="white"/>
</svg>
