<svg width="24" height="24" viewBox="0 0 24 24" fill="none" xmlns="http://www.w3.org/2000/svg">
<path d="M21.2296 5.70785H16.6373C16.6373 4.44842 16.1571 3.26895 15.2866 2.37936C14.4162 1.48976 13.2456 0.98999 12.015 0.98999C10.7844 0.98999 9.61381 1.47977 8.74337 2.37936C7.87294 3.26895 7.3927 4.44842 7.3927 5.70785H2.78039C2.35018 5.70785 2 6.05769 2 6.49749C2 6.93729 2.35018 7.28713 2.78039 7.28713H4.30115V20.6311C4.30115 21.2608 4.54127 21.8505 4.98149 22.3003C5.42171 22.7501 6.002 22.99 6.62231 22.99H17.3777C17.998 22.99 18.5883 22.7401 19.0185 22.3003C19.4587 21.8505 19.6988 21.2608 19.6988 20.6311V7.28713H21.2196C21.6498 7.28713 22 6.93729 22 6.49749C22 6.05769 21.6498 5.70785 21.2196 5.70785H21.2296ZM9.84392 3.48885C10.9945 2.30939 13.0055 2.30939 14.1661 3.48885C14.7464 4.07859 15.0665 4.86823 15.0665 5.70785H8.95348C8.95348 4.87822 9.28364 4.06859 9.85393 3.48885H9.84392ZM10.4842 11.2053V17.4925C10.4842 17.9323 10.1341 18.2821 9.70385 18.2821C9.27364 18.2821 8.92346 17.9323 8.92346 17.4925V11.2053C8.92346 10.7655 9.27364 10.4157 9.70385 10.4157C10.1341 10.4157 10.4842 10.7655 10.4842 11.2053ZM15.0965 11.2053V17.4925C15.0965 17.9323 14.7464 18.2821 14.3162 18.2821C13.8859 18.2821 13.5358 17.9323 13.5358 17.4925V11.2053C13.5358 10.7655 13.8859 10.4157 14.3162 10.4157C14.7464 10.4157 15.0965 10.7655 15.0965 11.2053Z" fill="white" fill-opacity="0.88"/>
</svg>
