<svg width="24" height="24" viewBox="0 0 24 24" fill="none" xmlns="http://www.w3.org/2000/svg">
<path fill-rule="evenodd" clip-rule="evenodd" d="M23 11.05H17.48C17.15 7.45 15.95 4 13.98 1C18.83 1.89 22.57 5.99 22.99 11.05H23ZM15.59 11.05C15.24 7.58 14 4.27 12 1.44C10 4.27 8.76 7.59 8.41 11.05H15.6H15.59ZM6.52 11.05C6.85 7.45 8.05 4 10.02 1C5.17 1.89 1.42 5.99 1 11.05H6.52ZM10.02 23C8.06 20 6.86 16.55 6.52 12.95H1C1.42 18.01 5.17 22.11 10.01 23H10.02ZM15.6 12.95H8.41C8.76 16.42 10 19.73 12 22.56C14 19.73 15.24 16.41 15.59 12.95H15.6ZM17.49 12.95C17.16 16.55 15.96 20 13.99 23C18.84 22.11 22.58 18.01 23 12.95H17.48H17.49Z" fill="white" fill-opacity="0.88"/>
</svg>
