<?xml version="1.0" encoding="us-ascii" standalone="no"?><svg xmlns="http://www.w3.org/2000/svg" xmlns:xlink="http://www.w3.org/1999/xlink" contentStyleType="text/css" height="779px" preserveAspectRatio="none" style="width:498px;height:779px;background:#FFFFFF;" version="1.1" viewBox="0 0 498 779" width="498px" zoomAndPan="magnify"><defs/><g><rect fill="none" height="90.8867" style="stroke:#000000;stroke-width:1.5;" width="423" x="10" y="304.9727"/><rect fill="none" height="46.6211" style="stroke:#000000;stroke-width:1.5;" width="424" x="67" y="439.1699"/><rect fill="none" height="46.6211" style="stroke:#000000;stroke-width:1.5;" width="424" x="67" y="499.791"/><rect fill="none" height="90.8867" style="stroke:#000000;stroke-width:1.5;" width="481" x="10" y="619.0332"/><line style="stroke:#181818;stroke-width:0.5;stroke-dasharray:5.0,5.0;" x1="43" x2="43" y1="53.4883" y2="726.9199"/><line style="stroke:#181818;stroke-width:0.5;stroke-dasharray:5.0,5.0;" x1="132" x2="132" y1="53.4883" y2="726.9199"/><line style="stroke:#181818;stroke-width:0.5;stroke-dasharray:5.0,5.0;" x1="331" x2="331" y1="53.4883" y2="726.9199"/><line style="stroke:#181818;stroke-width:0.5;stroke-dasharray:5.0,5.0;" x1="404" x2="404" y1="53.4883" y2="726.9199"/><line style="stroke:#181818;stroke-width:0.5;stroke-dasharray:5.0,5.0;" x1="457" x2="457" y1="53.4883" y2="726.9199"/><rect fill="#E2E2F0" height="30.4883" rx="2.5" ry="2.5" style="stroke:#181818;stroke-width:0.5;" width="47" x="20" y="22"/><text fill="#000000" font-family="sans-serif" font-size="14" lengthAdjust="spacing" textLength="33" x="27" y="42.5352">Main</text><rect fill="#E2E2F0" height="30.4883" rx="2.5" ry="2.5" style="stroke:#181818;stroke-width:0.5;" width="47" x="20" y="725.9199"/><text fill="#000000" font-family="sans-serif" font-size="14" lengthAdjust="spacing" textLength="33" x="27" y="746.4551">Main</text><text fill="#000000" font-family="sans-serif" font-size="14" lengthAdjust="spacing" textLength="104" x="77" y="50.5352">Server Instance</text><ellipse cx="132" cy="21" fill="#E2E2F0" rx="12" ry="12" style="stroke:#181818;stroke-width:0.5;"/><line style="stroke:#181818;stroke-width:0.5;" x1="120" x2="144" y1="35" y2="35"/><text fill="#000000" font-family="sans-serif" font-size="14" lengthAdjust="spacing" textLength="104" x="77" y="739.4551">Server Instance</text><ellipse cx="132" cy="758.4082" fill="#E2E2F0" rx="12" ry="12" style="stroke:#181818;stroke-width:0.5;"/><line style="stroke:#181818;stroke-width:0.5;" x1="120" x2="144" y1="772.4082" y2="772.4082"/><text fill="#000000" font-family="sans-serif" font-size="14" lengthAdjust="spacing" textLength="82" x="287" y="50.5352">NewServer()</text><ellipse cx="331" cy="21" fill="#E2E2F0" rx="12" ry="12" style="stroke:#181818;stroke-width:0.5;"/><polygon fill="#181818" points="327,9,333,4,331,9,333,14,327,9" style="stroke:#181818;stroke-width:1.0;"/><text fill="#000000" font-family="sans-serif" font-size="14" lengthAdjust="spacing" textLength="82" x="287" y="739.4551">NewServer()</text><ellipse cx="331" cy="758.4082" fill="#E2E2F0" rx="12" ry="12" style="stroke:#181818;stroke-width:0.5;"/><polygon fill="#181818" points="327,746.4082,333,741.4082,331,746.4082,333,751.4082,327,746.4082" style="stroke:#181818;stroke-width:1.0;"/><text fill="#000000" font-family="sans-serif" font-size="14" lengthAdjust="spacing" textLength="32" x="385" y="50.5352">Init()</text><ellipse cx="404" cy="21" fill="#E2E2F0" rx="12" ry="12" style="stroke:#181818;stroke-width:0.5;"/><polygon fill="#181818" points="400,9,406,4,404,9,406,14,400,9" style="stroke:#181818;stroke-width:1.0;"/><text fill="#000000" font-family="sans-serif" font-size="14" lengthAdjust="spacing" textLength="32" x="385" y="739.4551">Init()</text><ellipse cx="404" cy="758.4082" fill="#E2E2F0" rx="12" ry="12" style="stroke:#181818;stroke-width:0.5;"/><polygon fill="#181818" points="400,746.4082,406,741.4082,404,746.4082,406,751.4082,400,746.4082" style="stroke:#181818;stroke-width:1.0;"/><text fill="#000000" font-family="sans-serif" font-size="14" lengthAdjust="spacing" textLength="42" x="433" y="50.5352">Start()</text><ellipse cx="457" cy="21" fill="#E2E2F0" rx="12" ry="12" style="stroke:#181818;stroke-width:0.5;"/><polygon fill="#181818" points="453,9,459,4,457,9,459,14,453,9" style="stroke:#181818;stroke-width:1.0;"/><text fill="#000000" font-family="sans-serif" font-size="14" lengthAdjust="spacing" textLength="42" x="433" y="739.4551">Start()</text><ellipse cx="457" cy="758.4082" fill="#E2E2F0" rx="12" ry="12" style="stroke:#181818;stroke-width:0.5;"/><polygon fill="#181818" points="453,746.4082,459,741.4082,457,746.4082,459,751.4082,453,746.4082" style="stroke:#181818;stroke-width:1.0;"/><polygon fill="#181818" points="319,80.7988,329,84.7988,319,88.7988,323,84.7988" style="stroke:#181818;stroke-width:1.0;"/><line style="stroke:#181818;stroke-width:1.0;" x1="43.5" x2="325" y1="84.7988" y2="84.7988"/><text fill="#000000" font-family="sans-serif" font-size="13" lengthAdjust="spacing" textLength="54" x="50.5" y="80.0566">Initialize</text><polygon fill="#181818" points="143,110.1094,133,114.1094,143,118.1094,139,114.1094" style="stroke:#181818;stroke-width:1.0;"/><line style="stroke:#181818;stroke-width:1.0;" x1="137" x2="330" y1="114.1094" y2="114.1094"/><text fill="#000000" font-family="sans-serif" font-size="13" lengthAdjust="spacing" textLength="97" x="149" y="109.3672">Create instance</text><polygon fill="#181818" points="143,139.4199,133,143.4199,143,147.4199,139,143.4199" style="stroke:#181818;stroke-width:1.0;"/><line style="stroke:#181818;stroke-width:1.0;" x1="137" x2="330" y1="143.4199" y2="143.4199"/><text fill="#000000" font-family="sans-serif" font-size="13" lengthAdjust="spacing" textLength="114" x="149" y="138.6777">Initialize channels</text><polygon fill="#181818" points="143,168.7305,133,172.7305,143,176.7305,139,172.7305" style="stroke:#181818;stroke-width:1.0;"/><line style="stroke:#181818;stroke-width:1.0;" x1="137" x2="330" y1="172.7305" y2="172.7305"/><text fill="#000000" font-family="sans-serif" font-size="13" lengthAdjust="spacing" textLength="162" x="149" y="167.9883">Initialize subscribers map</text><polygon fill="#181818" points="143,198.041,133,202.041,143,206.041,139,202.041" style="stroke:#181818;stroke-width:1.0;"/><line style="stroke:#181818;stroke-width:1.0;" x1="137" x2="330" y1="202.041" y2="202.041"/><text fill="#000000" font-family="sans-serif" font-size="13" lengthAdjust="spacing" textLength="175" x="149" y="197.2988">Create subscription context</text><polygon fill="#181818" points="54.5,227.3516,44.5,231.3516,54.5,235.3516,50.5,231.3516" style="stroke:#181818;stroke-width:1.0;"/><line style="stroke:#181818;stroke-width:1.0;" x1="48.5" x2="330" y1="231.3516" y2="231.3516"/><text fill="#000000" font-family="sans-serif" font-size="13" lengthAdjust="spacing" textLength="98" x="60.5" y="226.6094">Return instance</text><polygon fill="#181818" points="392,256.6621,402,260.6621,392,264.6621,396,260.6621" style="stroke:#181818;stroke-width:1.0;"/><line style="stroke:#181818;stroke-width:1.0;" x1="43.5" x2="398" y1="260.6621" y2="260.6621"/><text fill="#000000" font-family="sans-serif" font-size="13" lengthAdjust="spacing" textLength="113" x="50.5" y="255.9199">Initialize validator</text><polygon fill="#181818" points="143,285.9727,133,289.9727,143,293.9727,139,289.9727" style="stroke:#181818;stroke-width:1.0;"/><line style="stroke:#181818;stroke-width:1.0;" x1="137" x2="403" y1="289.9727" y2="289.9727"/><text fill="#000000" font-family="sans-serif" font-size="13" lengthAdjust="spacing" textLength="99" x="149" y="285.2305">Create validator</text><path d="M10,304.9727 L72,304.9727 L72,312.2832 L62,322.2832 L10,322.2832 L10,304.9727 " fill="#EEEEEE" style="stroke:#000000;stroke-width:1.5;"/><rect fill="none" height="90.8867" style="stroke:#000000;stroke-width:1.5;" width="423" x="10" y="304.9727"/><text fill="#000000" font-family="sans-serif" font-size="13" font-weight="bold" lengthAdjust="spacing" textLength="17" x="25" y="318.541">alt</text><text fill="#000000" font-family="sans-serif" font-size="11" font-weight="bold" lengthAdjust="spacing" textLength="167" x="87" y="317.6074">[if error in validator creation]</text><polygon fill="#181818" points="54.5,339.5938,44.5,343.5938,54.5,347.5938,50.5,343.5938" style="stroke:#181818;stroke-width:1.0;"/><line style="stroke:#181818;stroke-width:1.0;" x1="48.5" x2="403" y1="343.5938" y2="343.5938"/><text fill="#000000" font-family="sans-serif" font-size="13" lengthAdjust="spacing" textLength="75" x="60.5" y="338.8516">Return error</text><line style="stroke:#000000;stroke-width:1.0;stroke-dasharray:2.0,2.0;" x1="10" x2="433" y1="352.5938" y2="352.5938"/><text fill="#000000" font-family="sans-serif" font-size="11" font-weight="bold" lengthAdjust="spacing" textLength="175" x="15" y="363.2285">[validator created successfully]</text><polygon fill="#181818" points="54.5,383.8594,44.5,387.8594,54.5,391.8594,50.5,387.8594" style="stroke:#181818;stroke-width:1.0;"/><line style="stroke:#181818;stroke-width:1.0;" x1="48.5" x2="403" y1="387.8594" y2="387.8594"/><text fill="#000000" font-family="sans-serif" font-size="13" lengthAdjust="spacing" textLength="95" x="60.5" y="383.1172">Return success</text><polygon fill="#181818" points="445,420.1699,455,424.1699,445,428.1699,449,424.1699" style="stroke:#181818;stroke-width:1.0;"/><line style="stroke:#181818;stroke-width:1.0;" x1="43.5" x2="451" y1="424.1699" y2="424.1699"/><text fill="#000000" font-family="sans-serif" font-size="13" lengthAdjust="spacing" textLength="84" x="50.5" y="419.4277">Start services</text><path d="M67,439.1699 L129,439.1699 L129,446.4805 L119,456.4805 L67,456.4805 L67,439.1699 " fill="#EEEEEE" style="stroke:#000000;stroke-width:1.5;"/><rect fill="none" height="46.6211" style="stroke:#000000;stroke-width:1.5;" width="424" x="67" y="439.1699"/><text fill="#000000" font-family="sans-serif" font-size="13" font-weight="bold" lengthAdjust="spacing" textLength="17" x="82" y="452.7383">alt</text><text fill="#000000" font-family="sans-serif" font-size="11" font-weight="bold" lengthAdjust="spacing" textLength="129" x="144" y="451.8047">[if DRPC config exists]</text><polygon fill="#181818" points="143,473.791,133,477.791,143,481.791,139,477.791" style="stroke:#181818;stroke-width:1.0;"/><line style="stroke:#181818;stroke-width:1.0;" x1="137" x2="456" y1="477.791" y2="477.791"/><text fill="#000000" font-family="sans-serif" font-size="13" lengthAdjust="spacing" textLength="115" x="149" y="473.0488">Setup DRPC server</text><path d="M67,499.791 L129,499.791 L129,507.1016 L119,517.1016 L67,517.1016 L67,499.791 " fill="#EEEEEE" style="stroke:#000000;stroke-width:1.5;"/><rect fill="none" height="46.6211" style="stroke:#000000;stroke-width:1.5;" width="424" x="67" y="499.791"/><text fill="#000000" font-family="sans-serif" font-size="13" font-weight="bold" lengthAdjust="spacing" textLength="17" x="82" y="513.3594">alt</text><text fill="#000000" font-family="sans-serif" font-size="11" font-weight="bold" lengthAdjust="spacing" textLength="125" x="144" y="512.4258">[if fRPC config exists]</text><polygon fill="#181818" points="143,534.4121,133,538.4121,143,542.4121,139,538.4121" style="stroke:#181818;stroke-width:1.0;"/><line style="stroke:#181818;stroke-width:1.0;" x1="137" x2="456" y1="538.4121" y2="538.4121"/><text fill="#000000" font-family="sans-serif" font-size="13" lengthAdjust="spacing" textLength="110" x="149" y="533.6699">Setup fRPC server</text><polygon fill="#181818" points="143,570.7227,133,574.7227,143,578.7227,139,574.7227" style="stroke:#181818;stroke-width:1.0;"/><line style="stroke:#181818;stroke-width:1.0;" x1="137" x2="456" y1="574.7227" y2="574.7227"/><text fill="#000000" font-family="sans-serif" font-size="13" lengthAdjust="spacing" textLength="138" x="149" y="569.9805">Manage subscriptions</text><polygon fill="#181818" points="143,600.0332,133,604.0332,143,608.0332,139,604.0332" style="stroke:#181818;stroke-width:1.0;"/><line style="stroke:#181818;stroke-width:1.0;" x1="137" x2="456" y1="604.0332" y2="604.0332"/><text fill="#000000" font-family="sans-serif" font-size="13" lengthAdjust="spacing" textLength="107" x="149" y="599.291">Start gRPC server</text><path d="M10,619.0332 L72,619.0332 L72,626.3438 L62,636.3438 L10,636.3438 L10,619.0332 " fill="#EEEEEE" style="stroke:#000000;stroke-width:1.5;"/><rect fill="none" height="90.8867" style="stroke:#000000;stroke-width:1.5;" width="481" x="10" y="619.0332"/><text fill="#000000" font-family="sans-serif" font-size="13" font-weight="bold" lengthAdjust="spacing" textLength="17" x="25" y="632.6016">alt</text><text fill="#000000" font-family="sans-serif" font-size="11" font-weight="bold" lengthAdjust="spacing" textLength="137" x="87" y="631.668">[if error in gRPC server]</text><polygon fill="#181818" points="54.5,653.6543,44.5,657.6543,54.5,661.6543,50.5,657.6543" style="stroke:#181818;stroke-width:1.0;"/><line style="stroke:#181818;stroke-width:1.0;" x1="48.5" x2="456" y1="657.6543" y2="657.6543"/><text fill="#000000" font-family="sans-serif" font-size="13" lengthAdjust="spacing" textLength="75" x="60.5" y="652.9121">Return error</text><line style="stroke:#000000;stroke-width:1.0;stroke-dasharray:2.0,2.0;" x1="10" x2="491" y1="666.6543" y2="666.6543"/><text fill="#000000" font-family="sans-serif" font-size="11" font-weight="bold" lengthAdjust="spacing" textLength="153" x="15" y="677.2891">[gRPC started successfully]</text><polygon fill="#181818" points="54.5,697.9199,44.5,701.9199,54.5,705.9199,50.5,701.9199" style="stroke:#181818;stroke-width:1.0;"/><line style="stroke:#181818;stroke-width:1.0;" x1="48.5" x2="456" y1="701.9199" y2="701.9199"/><text fill="#000000" font-family="sans-serif" font-size="13" lengthAdjust="spacing" textLength="95" x="60.5" y="697.1777">Return success</text><!--SRC=[bL91Si8m3Bpx5Hekj8T-W4ClzC9qw7J82uHHgAQfax552drzxTZW90GwzSMsjBjQMMxG2cjkq0YiaOqY8omdc1LaMxAmCaxGQ9e1EeWnfMiZjgvWzaRVCVJmsEKlzmnP6PQK3SUSACHNJfdkh5Ie3q_FMMRHSHWh_Y5rYGR8ER-qX4B0oUKqA8k0_a1Zg79_0jrXwxJbBLa7NzZShPwmZN1j83H8HnaIGcSBs90ShCbcBms7keFghTzsABLL8JXHCWEm4k0IoDhQUkcS0HsWtf82lyuw0oSTIVdde36DThuhhScvyb1LfziI2UM_pIxtqyrp4JTmtZbxZ9h7UwyPhs6PMe9NB3ynF5t9UpLFBVM3G4TsuZM2aIkTmdjf8bxDWvEayB9vNuu4xl0xj8l_joTI_aka78bSmTPeS3_yC-uQ5GFxdjXupltSmC-j2KT2G4qDTvhUd-ul]--></g></svg>
