<svg contentStyleType="text/css" height="734" preserveAspectRatio="none" viewBox="0 0 498 734" width="498" xmlns="http://www.w3.org/2000/svg" zoomAndPan="magnify"><path d="m10 304.9727h423v90.8867h-423z" fill="none" stroke="#000" stroke-width="1.5"/><path d="m67 439.1699h424v46.6211h-424z" fill="none" stroke="#000" stroke-width="1.5"/><path d="m10 558.4121h481v90.8867h-481z" fill="none" stroke="#000" stroke-width="1.5"/><g stroke="#181818"><path d="m43 53.4883v612.8105" stroke-dasharray="5 5" stroke-width=".5"/><path d="m132 53.4883v612.8105" stroke-dasharray="5 5" stroke-width=".5"/><path d="m331 53.4883v612.8105" stroke-dasharray="5 5" stroke-width=".5"/><path d="m404 53.4883v612.8105" stroke-dasharray="5 5" stroke-width=".5"/><path d="m457 53.4883v612.8105" stroke-dasharray="5 5" stroke-width=".5"/><rect fill="#e2e2f0" height="30.4883" rx="2.5" stroke-width=".5" width="47" x="20" y="22"/></g><text font-family="sans-serif" font-size="14" lengthAdjust="spacing" textLength="33" x="27" y="42.5352">Main</text><rect fill="#e2e2f0" height="30.4883" rx="2.5" stroke="#181818" stroke-width=".5" width="47" x="20" y="665.2988"/><text font-family="sans-serif" font-size="14" lengthAdjust="spacing" textLength="33" x="27" y="685.834">Main</text><text font-family="sans-serif" font-size="14" lengthAdjust="spacing" textLength="104" x="77" y="50.5352">Server Instance</text><ellipse cx="132" cy="21" fill="#e2e2f0" rx="12" ry="12" stroke="#181818" stroke-width=".5"/><path d="m120 35h24" stroke="#181818" stroke-width=".5"/><text font-family="sans-serif" font-size="14" lengthAdjust="spacing" textLength="104" x="77" y="678.834">Server Instance</text><ellipse cx="132" cy="697.7871" fill="#e2e2f0" rx="12" ry="12" stroke="#181818" stroke-width=".5"/><path d="m120 711.7871h24" stroke="#181818" stroke-width=".5"/><text font-family="sans-serif" font-size="14" lengthAdjust="spacing" textLength="82" x="287" y="50.5352">NewServer()</text><ellipse cx="331" cy="21" fill="#e2e2f0" rx="12" ry="12" stroke="#181818" stroke-width=".5"/><path d="m327 9 6-5-2 5 2 5z" fill="#181818" stroke="#181818"/><text font-family="sans-serif" font-size="14" lengthAdjust="spacing" textLength="82" x="287" y="678.834">NewServer()</text><ellipse cx="331" cy="697.7871" fill="#e2e2f0" rx="12" ry="12" stroke="#181818" stroke-width=".5"/><path d="m327 685.7871 6-5-2 5 2 5z" fill="#181818" stroke="#181818"/><text font-family="sans-serif" font-size="14" lengthAdjust="spacing" textLength="32" x="385" y="50.5352">Init()</text><ellipse cx="404" cy="21" fill="#e2e2f0" rx="12" ry="12" stroke="#181818" stroke-width=".5"/><path d="m400 9 6-5-2 5 2 5z" fill="#181818" stroke="#181818"/><text font-family="sans-serif" font-size="14" lengthAdjust="spacing" textLength="32" x="385" y="678.834">Init()</text><ellipse cx="404" cy="697.7871" fill="#e2e2f0" rx="12" ry="12" stroke="#181818" stroke-width=".5"/><path d="m400 685.7871 6-5-2 5 2 5z" fill="#181818" stroke="#181818"/><text font-family="sans-serif" font-size="14" lengthAdjust="spacing" textLength="42" x="433" y="50.5352">Start()</text><ellipse cx="457" cy="21" fill="#e2e2f0" rx="12" ry="12" stroke="#181818" stroke-width=".5"/><path d="m453 9 6-5-2 5 2 5z" fill="#181818" stroke="#181818"/><text font-family="sans-serif" font-size="14" lengthAdjust="spacing" textLength="42" x="433" y="678.834">Start()</text><ellipse cx="457" cy="697.7871" fill="#e2e2f0" rx="12" ry="12" stroke="#181818" stroke-width=".5"/><path d="m453 685.7871 6-5-2 5 2 5z" fill="#181818" stroke="#181818"/><path d="m319 80.7988 10 4-10 4 4-4z" fill="#181818" stroke="#181818"/><path d="m43.5 84.7988h281.5" stroke="#181818"/><text font-family="sans-serif" font-size="13" lengthAdjust="spacing" textLength="54" x="50.5" y="80.0566">Initialize</text><path d="m143 110.1094-10 4 10 4-4-4z" fill="#181818" stroke="#181818"/><path d="m137 114.1094h193" stroke="#181818"/><text font-family="sans-serif" font-size="13" lengthAdjust="spacing" textLength="97" x="149" y="109.3672">Create instance</text><path d="m143 139.4199-10 4 10 4-4-4z" fill="#181818" stroke="#181818"/><path d="m137 143.4199h193" stroke="#181818"/><text font-family="sans-serif" font-size="13" lengthAdjust="spacing" textLength="114" x="149" y="138.6777">Initialize channels</text><path d="m143 168.7305-10 4 10 4-4-4z" fill="#181818" stroke="#181818"/><path d="m137 172.7305h193" stroke="#181818"/><text font-family="sans-serif" font-size="13" lengthAdjust="spacing" textLength="162" x="149" y="167.9883">Initialize subscribers map</text><path d="m143 198.041-10 4 10 4-4-4z" fill="#181818" stroke="#181818"/><path d="m137 202.041h193" stroke="#181818"/><text font-family="sans-serif" font-size="13" lengthAdjust="spacing" textLength="175" x="149" y="197.2988">Create subscription context</text><path d="m54.5 227.3516-10 4 10 4-4-4z" fill="#181818" stroke="#181818"/><path d="m48.5 231.3516h281.5" stroke="#181818"/><text font-family="sans-serif" font-size="13" lengthAdjust="spacing" textLength="98" x="60.5" y="226.6094">Return instance</text><path d="m392 256.6621 10 4-10 4 4-4z" fill="#181818" stroke="#181818"/><path d="m43.5 260.6621h354.5" stroke="#181818"/><text font-family="sans-serif" font-size="13" lengthAdjust="spacing" textLength="113" x="50.5" y="255.9199">Initialize validator</text><path d="m143 285.9727-10 4 10 4-4-4z" fill="#181818" stroke="#181818"/><path d="m137 289.9727h266" stroke="#181818"/><text font-family="sans-serif" font-size="13" lengthAdjust="spacing" textLength="99" x="149" y="285.2305">Create validator</text><path d="m10 304.9727h62v7.3105l-10 10h-52z" fill="#eee" stroke="#000" stroke-width="1.5"/><path d="m10 304.9727h423v90.8867h-423z" fill="none" stroke="#000" stroke-width="1.5"/><text font-family="sans-serif" font-size="13" font-weight="bold" lengthAdjust="spacing" textLength="17" x="25" y="318.541">alt</text><text font-family="sans-serif" font-size="11" font-weight="bold" lengthAdjust="spacing" textLength="167" x="87" y="317.6074">[if error in validator creation]</text><path d="m54.5 339.5938-10 4 10 4-4-4z" fill="#181818" stroke="#181818"/><path d="m48.5 343.5938h354.5" stroke="#181818"/><text font-family="sans-serif" font-size="13" lengthAdjust="spacing" textLength="75" x="60.5" y="338.8516">Return error</text><path d="m10 352.5938h423" stroke="#000" stroke-dasharray="2 2"/><text font-family="sans-serif" font-size="11" font-weight="bold" lengthAdjust="spacing" textLength="175" x="15" y="363.2285">[validator created successfully]</text><path d="m54.5 383.8594-10 4 10 4-4-4z" fill="#181818" stroke="#181818"/><path d="m48.5 387.8594h354.5" stroke="#181818"/><text font-family="sans-serif" font-size="13" lengthAdjust="spacing" textLength="95" x="60.5" y="383.1172">Return success</text><path d="m445 420.1699 10 4-10 4 4-4z" fill="#181818" stroke="#181818"/><path d="m43.5 424.1699h407.5" stroke="#181818"/><text font-family="sans-serif" font-size="13" lengthAdjust="spacing" textLength="84" x="50.5" y="419.4277">Start services</text><path d="m67 439.1699h62v7.3106l-10 10h-52z" fill="#eee" stroke="#000" stroke-width="1.5"/><path d="m67 439.1699h424v46.6211h-424z" fill="none" stroke="#000" stroke-width="1.5"/><text font-family="sans-serif" font-size="13" font-weight="bold" lengthAdjust="spacing" textLength="17" x="82" y="452.7383">alt</text><text font-family="sans-serif" font-size="11" font-weight="bold" lengthAdjust="spacing" textLength="125" x="144" y="451.8047">[if fRPC config exists]</text><path d="m143 473.791-10 4 10 4-4-4z" fill="#181818" stroke="#181818"/><path d="m137 477.791h319" stroke="#181818"/><text font-family="sans-serif" font-size="13" lengthAdjust="spacing" textLength="110" x="149" y="473.0488">Setup fRPC server</text><path d="m143 510.1016-10 4 10 4-4-4z" fill="#181818" stroke="#181818"/><path d="m137 514.1016h319" stroke="#181818"/><text font-family="sans-serif" font-size="13" lengthAdjust="spacing" textLength="138" x="149" y="509.3594">Manage subscriptions</text><path d="m143 539.4121-10 4 10 4-4-4z" fill="#181818" stroke="#181818"/><path d="m137 543.4121h319" stroke="#181818"/><text font-family="sans-serif" font-size="13" lengthAdjust="spacing" textLength="107" x="149" y="538.6699">Start gRPC server</text><path d="m10 558.4121h62v7.3106l-10 10h-52z" fill="#eee" stroke="#000" stroke-width="1.5"/><path d="m10 558.4121h481v90.8867h-481z" fill="none" stroke="#000" stroke-width="1.5"/><text font-family="sans-serif" font-size="13" font-weight="bold" lengthAdjust="spacing" textLength="17" x="25" y="571.9805">alt</text><text font-family="sans-serif" font-size="11" font-weight="bold" lengthAdjust="spacing" textLength="137" x="87" y="571.0469">[if error in gRPC server]</text><path d="m54.5 593.0332-10 4 10 4-4-4z" fill="#181818" stroke="#181818"/><path d="m48.5 597.0332h407.5" stroke="#181818"/><text font-family="sans-serif" font-size="13" lengthAdjust="spacing" textLength="75" x="60.5" y="592.291">Return error</text><path d="m10 606.0332h481" stroke="#000" stroke-dasharray="2 2"/><text font-family="sans-serif" font-size="11" font-weight="bold" lengthAdjust="spacing" textLength="153" x="15" y="616.668">[gRPC started successfully]</text><path d="m54.5 637.2988-10 4 10 4-4-4z" fill="#181818" stroke="#181818"/><path d="m48.5 641.2988h407.5" stroke="#181818"/><text font-family="sans-serif" font-size="13" lengthAdjust="spacing" textLength="95" x="60.5" y="636.5566">Return success</text><text fill="#888" font-family="sans-serif" font-size="10" lengthAdjust="spacing" textLength="146" y="724.4551">Last Modified On: 2-Jan-2024</text></svg>
