<svg xmlns="http://www.w3.org/2000/svg" xmlns:xlink="http://www.w3.org/1999/xlink" contentStyleType="text/css" height="730px" preserveAspectRatio="none" style="width:705px;height:730px;background:#F0F8FF;" version="1.1" viewBox="0 0 705 730" width="705px" zoomAndPan="magnify"><defs/><g><rect fill="#F0F8FF" height="730" style="stroke:none;stroke-width:1.0;" width="705" x="0" y="0"/><rect fill="#FFFFFF" height="557.9238" style="stroke:#181818;stroke-width:1.0;" width="10" x="194.3892" y="111.1094"/><rect fill="#FFFFFF" height="218.4844" style="stroke:#181818;stroke-width:1.0;" width="10" x="407.2217" y="335.9727"/><rect fill="#FFFFFF" height="86.9316" style="stroke:#181818;stroke-width:1.0;" width="10" x="549.1064" y="380.5938"/><rect fill="none" height="364.6816" style="stroke:#000000;stroke-width:1.5;" width="583.583" x="104.4355" y="297.3516"/><line style="stroke:#181818;stroke-width:0.5;stroke-dasharray:5.0,5.0;" x1="54" x2="54" y1="36.4883" y2="679.0332"/><line style="stroke:#181818;stroke-width:0.5;stroke-dasharray:5.0,5.0;" x1="198.4355" x2="198.4355" y1="36.4883" y2="679.0332"/><line style="stroke:#181818;stroke-width:0.5;stroke-dasharray:5.0,5.0;" x1="412.1514" x2="412.1514" y1="36.4883" y2="679.0332"/><line style="stroke:#181818;stroke-width:0.5;stroke-dasharray:5.0,5.0;" x1="553.5542" x2="553.5542" y1="36.4883" y2="679.0332"/><rect fill="#DDDDDD" height="30.4883" rx="2.5" ry="2.5" style="stroke:#666666;stroke-width:0.5;" width="99.4355" x="5" y="5"/><text fill="#333333" font-family="sans-serif" font-size="14" lengthAdjust="spacing" textLength="85.4355" x="12" y="25.5352">P2P Network</text><rect fill="#DDDDDD" height="30.4883" rx="2.5" ry="2.5" style="stroke:#666666;stroke-width:0.5;" width="99.4355" x="5" y="678.0332"/><text fill="#333333" font-family="sans-serif" font-size="14" lengthAdjust="spacing" textLength="85.4355" x="12" y="698.5684">P2P Network</text><rect fill="#DDDDDD" height="30.4883" rx="2.5" ry="2.5" style="stroke:#666666;stroke-width:0.5;" width="169.9072" x="114.4355" y="5"/><text fill="#333333" font-family="sans-serif" font-size="14" lengthAdjust="spacing" textLength="155.9072" x="121.4355" y="25.5352">BlockValidation Service</text><rect fill="#DDDDDD" height="30.4883" rx="2.5" ry="2.5" style="stroke:#666666;stroke-width:0.5;" width="169.9072" x="114.4355" y="678.0332"/><text fill="#333333" font-family="sans-serif" font-size="14" lengthAdjust="spacing" textLength="155.9072" x="121.4355" y="698.5684">BlockValidation Service</text><rect fill="#DDDDDD" height="30.4883" rx="2.5" ry="2.5" style="stroke:#666666;stroke-width:0.5;" width="138.1406" x="343.1514" y="5"/><text fill="#333333" font-family="sans-serif" font-size="14" lengthAdjust="spacing" textLength="124.1406" x="350.1514" y="25.5352">Blockchain Service</text><rect fill="#DDDDDD" height="30.4883" rx="2.5" ry="2.5" style="stroke:#666666;stroke-width:0.5;" width="138.1406" x="343.1514" y="678.0332"/><text fill="#333333" font-family="sans-serif" font-size="14" lengthAdjust="spacing" textLength="124.1406" x="350.1514" y="698.5684">Blockchain Service</text><rect fill="#DDDDDD" height="30.4883" rx="2.5" ry="2.5" style="stroke:#666666;stroke-width:0.5;" width="41.1045" x="533.5542" y="5"/><text fill="#333333" font-family="sans-serif" font-size="14" lengthAdjust="spacing" textLength="27.1045" x="540.5542" y="25.5352">FSM</text><rect fill="#DDDDDD" height="30.4883" rx="2.5" ry="2.5" style="stroke:#666666;stroke-width:0.5;" width="41.1045" x="533.5542" y="678.0332"/><text fill="#333333" font-family="sans-serif" font-size="14" lengthAdjust="spacing" textLength="27.1045" x="540.5542" y="698.5684">FSM</text><rect fill="#FFFFFF" height="557.9238" style="stroke:#181818;stroke-width:1.0;" width="10" x="194.3892" y="111.1094"/><rect fill="#FFFFFF" height="218.4844" style="stroke:#181818;stroke-width:1.0;" width="10" x="407.2217" y="335.9727"/><rect fill="#FFFFFF" height="86.9316" style="stroke:#181818;stroke-width:1.0;" width="10" x="549.1064" y="380.5938"/><rect fill="#EEEEEE" height="3" style="stroke:#EEEEEE;stroke-width:1.0;" width="698.0186" x="0" y="67.1436"/><line style="stroke:#000000;stroke-width:1.0;" x1="0" x2="698.0186" y1="67.1436" y2="67.1436"/><line style="stroke:#000000;stroke-width:1.0;" x1="0" x2="698.0186" y1="70.1436" y2="70.1436"/><rect fill="#EEEEEE" height="23.3105" style="stroke:#000000;stroke-width:2.0;" width="225.6436" x="236.1875" y="56.4883"/><text fill="#333333" font-family="sans-serif" font-size="13" font-weight="bold" lengthAdjust="spacing" textLength="207.3589" x="242.1875" y="73.0566">Block Reception and Validation</text><polygon fill="#666666" points="182.3892,107.1094,192.3892,111.1094,182.3892,115.1094,186.3892,111.1094" style="stroke:#666666;stroke-width:1.0;"/><line style="stroke:#666666;stroke-width:1.0;" x1="54.7178" x2="188.3892" y1="111.1094" y2="111.1094"/><text fill="#333333" font-family="sans-serif" font-size="13" lengthAdjust="spacing" textLength="64.4541" x="61.7178" y="106.3672">New Block</text><line style="stroke:#666666;stroke-width:1.0;" x1="204.3892" x2="246.3892" y1="140.4199" y2="140.4199"/><line style="stroke:#666666;stroke-width:1.0;" x1="246.3892" x2="246.3892" y1="140.4199" y2="153.4199"/><line style="stroke:#666666;stroke-width:1.0;" x1="205.3892" x2="246.3892" y1="153.4199" y2="153.4199"/><polygon fill="#666666" points="215.3892,149.4199,205.3892,153.4199,215.3892,157.4199,211.3892,153.4199" style="stroke:#666666;stroke-width:1.0;"/><text fill="#333333" font-family="sans-serif" font-size="13" lengthAdjust="spacing" textLength="88.2515" x="211.3892" y="135.6777">Validate Block</text><rect fill="#EEEEEE" height="3" style="stroke:#EEEEEE;stroke-width:1.0;" width="698.0186" x="0" y="182.0752"/><line style="stroke:#000000;stroke-width:1.0;" x1="0" x2="698.0186" y1="182.0752" y2="182.0752"/><line style="stroke:#000000;stroke-width:1.0;" x1="0" x2="698.0186" y1="185.0752" y2="185.0752"/><rect fill="#EEEEEE" height="23.3105" style="stroke:#000000;stroke-width:2.0;" width="141.4165" x="278.301" y="171.4199"/><text fill="#333333" font-family="sans-serif" font-size="13" font-weight="bold" lengthAdjust="spacing" textLength="123.1318" x="284.301" y="187.9883">Catchup Detection</text><line style="stroke:#666666;stroke-width:1.0;" x1="204.3892" x2="246.3892" y1="226.041" y2="226.041"/><line style="stroke:#666666;stroke-width:1.0;" x1="246.3892" x2="246.3892" y1="226.041" y2="239.041"/><line style="stroke:#666666;stroke-width:1.0;" x1="205.3892" x2="246.3892" y1="239.041" y2="239.041"/><polygon fill="#666666" points="215.3892,235.041,205.3892,239.041,215.3892,243.041,211.3892,239.041" style="stroke:#666666;stroke-width:1.0;"/><text fill="#333333" font-family="sans-serif" font-size="13" lengthAdjust="spacing" textLength="135.4526" x="211.3892" y="221.2988">Detect Catchup Mode</text><rect fill="#EEEEEE" height="3" style="stroke:#EEEEEE;stroke-width:1.0;" width="698.0186" x="0" y="267.6963"/><line style="stroke:#000000;stroke-width:1.0;" x1="0" x2="698.0186" y1="267.6963" y2="267.6963"/><line style="stroke:#000000;stroke-width:1.0;" x1="0" x2="698.0186" y1="270.6963" y2="270.6963"/><rect fill="#EEEEEE" height="23.3105" style="stroke:#000000;stroke-width:2.0;" width="198.8691" x="249.5747" y="257.041"/><text fill="#333333" font-family="sans-serif" font-size="13" font-weight="bold" lengthAdjust="spacing" textLength="180.5845" x="255.5747" y="273.6094">CatchupBlocks Notification</text><path d="M104.4355,297.3516 L166.5742,297.3516 L166.5742,304.6621 L156.5742,314.6621 L104.4355,314.6621 L104.4355,297.3516 " fill="#EEEEEE" style="stroke:#000000;stroke-width:1.5;"/><rect fill="none" height="364.6816" style="stroke:#000000;stroke-width:1.5;" width="583.583" x="104.4355" y="297.3516"/><text fill="#333333" font-family="sans-serif" font-size="13" font-weight="bold" lengthAdjust="spacing" textLength="17.1387" x="119.4355" y="310.9199">alt</text><text fill="#333333" font-family="sans-serif" font-size="11" font-weight="bold" lengthAdjust="spacing" textLength="103.3721" x="181.5742" y="309.9863">[In Catchup Mode]</text><polygon fill="#666666" points="395.2217,331.9727,405.2217,335.9727,395.2217,339.9727,399.2217,335.9727" style="stroke:#666666;stroke-width:1.0;"/><line style="stroke:#666666;stroke-width:1.0;" x1="204.3892" x2="401.2217" y1="335.9727" y2="335.9727"/><text fill="#333333" font-family="sans-serif" font-size="13" lengthAdjust="spacing" textLength="137.1919" x="211.3892" y="331.2305">CatchupBlocks (gRPC)</text><polygon fill="#666666" points="537.1064,376.5938,547.1064,380.5938,537.1064,384.5938,541.1064,380.5938" style="stroke:#666666;stroke-width:1.0;"/><line style="stroke:#666666;stroke-width:1.0;" x1="417.2217" x2="543.1064" y1="380.5938" y2="380.5938"/><text fill="#333333" font-family="sans-serif" font-size="13" lengthAdjust="spacing" textLength="92.1172" x="424.2217" y="360.541">CatchupBlocks</text><text fill="#333333" font-family="sans-serif" font-size="13" lengthAdjust="spacing" textLength="33.9473" x="428.335" y="375.8516">Event</text><line style="stroke:#666666;stroke-width:1.0;" x1="559.1064" x2="601.1064" y1="425.2148" y2="425.2148"/><line style="stroke:#666666;stroke-width:1.0;" x1="601.1064" x2="601.1064" y1="425.2148" y2="438.2148"/><line style="stroke:#666666;stroke-width:1.0;" x1="560.1064" x2="601.1064" y1="438.2148" y2="438.2148"/><polygon fill="#666666" points="570.1064,434.2148,560.1064,438.2148,570.1064,442.2148,566.1064,438.2148" style="stroke:#666666;stroke-width:1.0;"/><text fill="#333333" font-family="sans-serif" font-size="13" lengthAdjust="spacing" textLength="80.8057" x="566.1064" y="405.1621">Transition to</text><text fill="#333333" font-family="sans-serif" font-size="13" lengthAdjust="spacing" textLength="95.7988" x="570.2197" y="420.4727">CatchingBlocks</text><polygon fill="#666666" points="428.2217,463.5254,418.2217,467.5254,428.2217,471.5254,424.2217,467.5254" style="stroke:#666666;stroke-width:1.0;"/><line style="stroke:#666666;stroke-width:1.0;stroke-dasharray:2.0,2.0;" x1="422.2217" x2="553.1064" y1="467.5254" y2="467.5254"/><text fill="#333333" font-family="sans-serif" font-size="13" lengthAdjust="spacing" textLength="88.0991" x="434.2217" y="462.7832">State Updated</text><line style="stroke:#666666;stroke-width:1.0;" x1="417.2217" x2="459.2217" y1="512.1465" y2="512.1465"/><line style="stroke:#666666;stroke-width:1.0;" x1="459.2217" x2="459.2217" y1="512.1465" y2="525.1465"/><line style="stroke:#666666;stroke-width:1.0;" x1="418.2217" x2="459.2217" y1="525.1465" y2="525.1465"/><polygon fill="#666666" points="428.2217,521.1465,418.2217,525.1465,428.2217,529.1465,424.2217,525.1465" style="stroke:#666666;stroke-width:1.0;"/><text fill="#333333" font-family="sans-serif" font-size="13" lengthAdjust="spacing" textLength="66.8154" x="424.2217" y="492.0938">Start Block</text><text fill="#333333" font-family="sans-serif" font-size="13" lengthAdjust="spacing" textLength="103.7715" x="428.335" y="507.4043">Catchup Process</text><polygon fill="#666666" points="215.3892,550.457,205.3892,554.457,215.3892,558.457,211.3892,554.457" style="stroke:#666666;stroke-width:1.0;"/><line style="stroke:#666666;stroke-width:1.0;stroke-dasharray:2.0,2.0;" x1="209.3892" x2="411.2217" y1="554.457" y2="554.457"/><text fill="#333333" font-family="sans-serif" font-size="13" lengthAdjust="spacing" textLength="156.4253" x="221.3892" y="549.7148">CatchupBlocks Response</text><line style="stroke:#666666;stroke-width:1.0;" x1="204.3892" x2="246.3892" y1="583.7676" y2="583.7676"/><line style="stroke:#666666;stroke-width:1.0;" x1="246.3892" x2="246.3892" y1="583.7676" y2="596.7676"/><line style="stroke:#666666;stroke-width:1.0;" x1="205.3892" x2="246.3892" y1="596.7676" y2="596.7676"/><polygon fill="#666666" points="215.3892,592.7676,205.3892,596.7676,215.3892,600.7676,211.3892,596.7676" style="stroke:#666666;stroke-width:1.0;"/><text fill="#333333" font-family="sans-serif" font-size="13" lengthAdjust="spacing" textLength="108.291" x="211.3892" y="579.0254">Handle Response</text><line style="stroke:#000000;stroke-width:1.0;stroke-dasharray:2.0,2.0;" x1="104.4355" x2="688.0186" y1="605.7676" y2="605.7676"/><text fill="#333333" font-family="sans-serif" font-size="11" font-weight="bold" lengthAdjust="spacing" textLength="126.8652" x="109.4355" y="616.4023">[Not in Catchup Mode]</text><line style="stroke:#666666;stroke-width:1.0;" x1="204.3892" x2="246.3892" y1="641.0332" y2="641.0332"/><line style="stroke:#666666;stroke-width:1.0;" x1="246.3892" x2="246.3892" y1="641.0332" y2="654.0332"/><line style="stroke:#666666;stroke-width:1.0;" x1="205.3892" x2="246.3892" y1="654.0332" y2="654.0332"/><polygon fill="#666666" points="215.3892,650.0332,205.3892,654.0332,215.3892,658.0332,211.3892,654.0332" style="stroke:#666666;stroke-width:1.0;"/><text fill="#333333" font-family="sans-serif" font-size="13" lengthAdjust="spacing" textLength="178.8325" x="211.3892" y="636.291">Continue Normal Processing</text><text fill="#333333" font-family="sans-serif" font-size="10" lengthAdjust="spacing" textLength="155.4346" x="0" y="720.1895">Last Modified On: 24-Feb-2025</text><!--SRC=[fLHDRnCn4BtxLmn1YFOG2O64KAKWqJGBIDqG9OLJBguzcrfnx9Nj9AeG_vrPxpPPRpT0onmIUJplpPiFhryhKtB7Dt3BnNhbxDR8iTNMmSliJVOXovW_H4Wi-5Q7p9hGXBoBrWhXpjbzS_a-6cEluGeBPH1khPFeF1HqoxK6rBX14tmBJqSLxk4d0xYCqIaNURighwAnNwp58aYXi_f_QUWtAA5ARiBpg1Xx8UlIvvFnpQVfv-i92CszPwpDFPYzdS4KmzwwzG2u1pgd0PVQYlKFhfNaGLa32tGx9J06T-vwWEAEgnvCT3VU59KjyXX6_rJ3Q5J7mnm5bZ4_Dn9QSaOZLfKm_DWL0nTKrxxsCYw2sl60ZnHtGRqypQ51HrLZ7iJTjgJr2YWUXFmJMOqu4EHMOfin0ZnCRL254eSQkGxmrQGe83kLijrWIfgIdwtci_5vnAUDISPov4_8A0FDfikvD33PqGjAIUCGAq-5E01l73TUHRd1BfkYb5dLJ2t0YM8MeUB-NbOZaJ5QukEKlSfFqBbGtooF7PuvAv1Uomcgtj6cNPwZBwtns5Nufqx_RNc-qFPhF5AZzbZj2gWdx4QgcRvNocmh5hVX-g5k6WT38ndh2c-z7QQn2FH5jG4TN7CVgjIqjIZXcxc0LzLypWPI3lCy7zwJ3Sv_0m00]--></g></svg>
