<?xml version="1.0" encoding="us-ascii" standalone="no"?><svg xmlns="http://www.w3.org/2000/svg" xmlns:xlink="http://www.w3.org/1999/xlink" contentStyleType="text/css" height="467px" preserveAspectRatio="none" style="width:508px;height:467px;background:#FFFFFF;" version="1.1" viewBox="0 0 508 467" width="508px" zoomAndPan="magnify"><defs/><g><rect fill="#FFFFFF" height="311.7949" style="stroke:#181818;stroke-width:1.0;" width="10" x="56" y="111.1094"/><rect fill="#FFFFFF" height="145.5527" style="stroke:#181818;stroke-width:1.0;" width="10" x="241" y="226.041"/><rect fill="#FFFFFF" height="86.9316" style="stroke:#181818;stroke-width:1.0;" width="10" x="380" y="255.3516"/><line style="stroke:#181818;stroke-width:0.5;stroke-dasharray:5.0,5.0;" x1="61" x2="61" y1="36.4883" y2="431.9043"/><line style="stroke:#181818;stroke-width:0.5;stroke-dasharray:5.0,5.0;" x1="245.5" x2="245.5" y1="36.4883" y2="431.9043"/><line style="stroke:#181818;stroke-width:0.5;stroke-dasharray:5.0,5.0;" x1="385" x2="385" y1="36.4883" y2="431.9043"/><rect fill="#E2E2F0" height="30.4883" rx="2.5" ry="2.5" style="stroke:#181818;stroke-width:0.5;" width="112" x="5" y="5"/><text fill="#000000" font-family="sans-serif" font-size="14" lengthAdjust="spacing" textLength="98" x="12" y="25.5352">Legacy Service</text><rect fill="#E2E2F0" height="30.4883" rx="2.5" ry="2.5" style="stroke:#181818;stroke-width:0.5;" width="112" x="5" y="430.9043"/><text fill="#000000" font-family="sans-serif" font-size="14" lengthAdjust="spacing" textLength="98" x="12" y="451.4395">Legacy Service</text><rect fill="#E2E2F0" height="30.4883" rx="2.5" ry="2.5" style="stroke:#181818;stroke-width:0.5;" width="139" x="176.5" y="5"/><text fill="#000000" font-family="sans-serif" font-size="14" lengthAdjust="spacing" textLength="125" x="183.5" y="25.5352">Blockchain Service</text><rect fill="#E2E2F0" height="30.4883" rx="2.5" ry="2.5" style="stroke:#181818;stroke-width:0.5;" width="139" x="176.5" y="430.9043"/><text fill="#000000" font-family="sans-serif" font-size="14" lengthAdjust="spacing" textLength="125" x="183.5" y="451.4395">Blockchain Service</text><rect fill="#E2E2F0" height="30.4883" rx="2.5" ry="2.5" style="stroke:#181818;stroke-width:0.5;" width="42" x="364" y="5"/><text fill="#000000" font-family="sans-serif" font-size="14" lengthAdjust="spacing" textLength="28" x="371" y="25.5352">FSM</text><rect fill="#E2E2F0" height="30.4883" rx="2.5" ry="2.5" style="stroke:#181818;stroke-width:0.5;" width="42" x="364" y="430.9043"/><text fill="#000000" font-family="sans-serif" font-size="14" lengthAdjust="spacing" textLength="28" x="371" y="451.4395">FSM</text><rect fill="#FFFFFF" height="311.7949" style="stroke:#181818;stroke-width:1.0;" width="10" x="56" y="111.1094"/><rect fill="#FFFFFF" height="145.5527" style="stroke:#181818;stroke-width:1.0;" width="10" x="241" y="226.041"/><rect fill="#FFFFFF" height="86.9316" style="stroke:#181818;stroke-width:1.0;" width="10" x="380" y="255.3516"/><rect fill="#EEEEEE" height="3" style="stroke:#EEEEEE;stroke-width:1.0;" width="501" x="0" y="67.1436"/><line style="stroke:#000000;stroke-width:1.0;" x1="0" x2="501" y1="67.1436" y2="67.1436"/><line style="stroke:#000000;stroke-width:1.0;" x1="0" x2="501" y1="70.1436" y2="70.1436"/><rect fill="#EEEEEE" height="23.3105" style="stroke:#000000;stroke-width:2.0;" width="67" x="217" y="56.4883"/><text fill="#000000" font-family="sans-serif" font-size="13" font-weight="bold" lengthAdjust="spacing" textLength="49" x="223" y="73.0566">Startup</text><polygon fill="#181818" points="44,107.1094,54,111.1094,44,115.1094,48,111.1094" style="stroke:#181818;stroke-width:1.0;"/><line style="stroke:#181818;stroke-width:1.0;" x1="0" x2="50" y1="111.1094" y2="111.1094"/><text fill="#000000" font-family="sans-serif" font-size="13" lengthAdjust="spacing" textLength="29" x="7" y="106.3672">Start</text><line style="stroke:#181818;stroke-width:1.0;" x1="66" x2="108" y1="140.4199" y2="140.4199"/><line style="stroke:#181818;stroke-width:1.0;" x1="108" x2="108" y1="140.4199" y2="153.4199"/><line style="stroke:#181818;stroke-width:1.0;" x1="67" x2="108" y1="153.4199" y2="153.4199"/><polygon fill="#181818" points="77,149.4199,67,153.4199,77,157.4199,73,153.4199" style="stroke:#181818;stroke-width:1.0;"/><text fill="#000000" font-family="sans-serif" font-size="13" lengthAdjust="spacing" textLength="54" x="73" y="135.6777">Initialize</text><rect fill="#EEEEEE" height="3" style="stroke:#EEEEEE;stroke-width:1.0;" width="501" x="0" y="182.0752"/><line style="stroke:#000000;stroke-width:1.0;" x1="0" x2="501" y1="182.0752" y2="182.0752"/><line style="stroke:#000000;stroke-width:1.0;" x1="0" x2="501" y1="185.0752" y2="185.0752"/><rect fill="#EEEEEE" height="23.3105" style="stroke:#000000;stroke-width:2.0;" width="156" x="172.5" y="171.4199"/><text fill="#000000" font-family="sans-serif" font-size="13" font-weight="bold" lengthAdjust="spacing" textLength="138" x="178.5" y="187.9883">LegacySync Request</text><polygon fill="#181818" points="229,222.041,239,226.041,229,230.041,233,226.041" style="stroke:#181818;stroke-width:1.0;"/><line style="stroke:#181818;stroke-width:1.0;" x1="66" x2="235" y1="226.041" y2="226.041"/><text fill="#000000" font-family="sans-serif" font-size="13" lengthAdjust="spacing" textLength="116" x="73" y="221.2988">LegacySync (gRPC)</text><polygon fill="#181818" points="368,251.3516,378,255.3516,368,259.3516,372,255.3516" style="stroke:#181818;stroke-width:1.0;"/><line style="stroke:#181818;stroke-width:1.0;" x1="251" x2="374" y1="255.3516" y2="255.3516"/><text fill="#000000" font-family="sans-serif" font-size="13" lengthAdjust="spacing" textLength="110" x="258" y="250.6094">LegacySync Event</text><line style="stroke:#181818;stroke-width:1.0;" x1="390" x2="432" y1="299.9727" y2="299.9727"/><line style="stroke:#181818;stroke-width:1.0;" x1="432" x2="432" y1="299.9727" y2="312.9727"/><line style="stroke:#181818;stroke-width:1.0;" x1="391" x2="432" y1="312.9727" y2="312.9727"/><polygon fill="#181818" points="401,308.9727,391,312.9727,401,316.9727,397,312.9727" style="stroke:#181818;stroke-width:1.0;"/><text fill="#000000" font-family="sans-serif" font-size="13" lengthAdjust="spacing" textLength="81" x="397" y="279.9199">Transition to</text><text fill="#000000" font-family="sans-serif" font-size="13" lengthAdjust="spacing" textLength="92" x="397" y="295.2305">LegacySyncing</text><polygon fill="#181818" points="262,338.2832,252,342.2832,262,346.2832,258,342.2832" style="stroke:#181818;stroke-width:1.0;"/><line style="stroke:#181818;stroke-width:1.0;stroke-dasharray:2.0,2.0;" x1="256" x2="384" y1="342.2832" y2="342.2832"/><text fill="#000000" font-family="sans-serif" font-size="13" lengthAdjust="spacing" textLength="87" x="268" y="337.541">State Updated</text><polygon fill="#181818" points="77,367.5938,67,371.5938,77,375.5938,73,371.5938" style="stroke:#181818;stroke-width:1.0;"/><line style="stroke:#181818;stroke-width:1.0;stroke-dasharray:2.0,2.0;" x1="71" x2="245" y1="371.5938" y2="371.5938"/><text fill="#000000" font-family="sans-serif" font-size="13" lengthAdjust="spacing" textLength="136" x="83" y="366.8516">LegacySync Response</text><line style="stroke:#181818;stroke-width:1.0;" x1="66" x2="108" y1="400.9043" y2="400.9043"/><line style="stroke:#181818;stroke-width:1.0;" x1="108" x2="108" y1="400.9043" y2="413.9043"/><line style="stroke:#181818;stroke-width:1.0;" x1="67" x2="108" y1="413.9043" y2="413.9043"/><polygon fill="#181818" points="77,409.9043,67,413.9043,77,417.9043,73,413.9043" style="stroke:#181818;stroke-width:1.0;"/><text fill="#000000" font-family="sans-serif" font-size="13" lengthAdjust="spacing" textLength="161" x="73" y="396.1621">Start Legacy Sync Process</text><!--SRC=[XLB1QiCm3BtxAqHFss4_KCWE7HiCEYZDUkekmX6PQ96zs0rqNrybpPPuyUZ98Bttz9vaZqraonubmc9DDTepbDIqR6a16E1Q6Yh6Jz6hexC7-uai2MCiPralvLiFqzUOee0oQlVaeIZC_k4ndGVBQzkWZTnYf3zsKd26_IeS6O_yJVsieNqM2rlwEb68tTYPoYo1AaseT_LsytG_Ufe7DdC5bTN4gT1pIpB9rc-a0_rYtnkKe0cSG7Jm8IENfHwm__ZLlQdapbVwLAQYT4h6NsPxoRg2Tn9egfJ9VVCW_JdXvvzrofl6MGh1N000]--></g></svg>
