<?xml version="1.0" encoding="us-ascii" standalone="no"?><svg xmlns="http://www.w3.org/2000/svg" xmlns:xlink="http://www.w3.org/1999/xlink" contentStyleType="text/css" height="714px" preserveAspectRatio="none" style="width:677px;height:714px;background:#FFFFFF;" version="1.1" viewBox="0 0 677 714" width="677px" zoomAndPan="magnify"><defs/><g><rect fill="#FFFFFF" height="557.9238" style="stroke:#181818;stroke-width:1.0;" width="10" x="195.5" y="111.1094"/><rect fill="#FFFFFF" height="218.4844" style="stroke:#181818;stroke-width:1.0;" width="10" x="398.5" y="335.9727"/><rect fill="#FFFFFF" height="86.9316" style="stroke:#181818;stroke-width:1.0;" width="10" x="530.5" y="380.5938"/><rect fill="none" height="364.6816" style="stroke:#000000;stroke-width:1.5;" width="555.5" x="105" y="297.3516"/><line style="stroke:#181818;stroke-width:0.5;stroke-dasharray:5.0,5.0;" x1="55" x2="55" y1="36.4883" y2="679.0332"/><line style="stroke:#181818;stroke-width:0.5;stroke-dasharray:5.0,5.0;" x1="200" x2="200" y1="36.4883" y2="679.0332"/><line style="stroke:#181818;stroke-width:0.5;stroke-dasharray:5.0,5.0;" x1="403" x2="403" y1="36.4883" y2="679.0332"/><line style="stroke:#181818;stroke-width:0.5;stroke-dasharray:5.0,5.0;" x1="535.5" x2="535.5" y1="36.4883" y2="679.0332"/><rect fill="#E2E2F0" height="30.4883" rx="2.5" ry="2.5" style="stroke:#181818;stroke-width:0.5;" width="100" x="5" y="5"/><text fill="#000000" font-family="sans-serif" font-size="14" lengthAdjust="spacing" textLength="86" x="12" y="25.5352">P2P Network</text><rect fill="#E2E2F0" height="30.4883" rx="2.5" ry="2.5" style="stroke:#181818;stroke-width:0.5;" width="100" x="5" y="678.0332"/><text fill="#000000" font-family="sans-serif" font-size="14" lengthAdjust="spacing" textLength="86" x="12" y="698.5684">P2P Network</text><rect fill="#E2E2F0" height="30.4883" rx="2.5" ry="2.5" style="stroke:#181818;stroke-width:0.5;" width="171" x="115" y="5"/><text fill="#000000" font-family="sans-serif" font-size="14" lengthAdjust="spacing" textLength="157" x="122" y="25.5352">BlockValidation Service</text><rect fill="#E2E2F0" height="30.4883" rx="2.5" ry="2.5" style="stroke:#181818;stroke-width:0.5;" width="171" x="115" y="678.0332"/><text fill="#000000" font-family="sans-serif" font-size="14" lengthAdjust="spacing" textLength="157" x="122" y="698.5684">BlockValidation Service</text><rect fill="#E2E2F0" height="30.4883" rx="2.5" ry="2.5" style="stroke:#181818;stroke-width:0.5;" width="139" x="334" y="5"/><text fill="#000000" font-family="sans-serif" font-size="14" lengthAdjust="spacing" textLength="125" x="341" y="25.5352">Blockchain Service</text><rect fill="#E2E2F0" height="30.4883" rx="2.5" ry="2.5" style="stroke:#181818;stroke-width:0.5;" width="139" x="334" y="678.0332"/><text fill="#000000" font-family="sans-serif" font-size="14" lengthAdjust="spacing" textLength="125" x="341" y="698.5684">Blockchain Service</text><rect fill="#E2E2F0" height="30.4883" rx="2.5" ry="2.5" style="stroke:#181818;stroke-width:0.5;" width="42" x="514.5" y="5"/><text fill="#000000" font-family="sans-serif" font-size="14" lengthAdjust="spacing" textLength="28" x="521.5" y="25.5352">FSM</text><rect fill="#E2E2F0" height="30.4883" rx="2.5" ry="2.5" style="stroke:#181818;stroke-width:0.5;" width="42" x="514.5" y="678.0332"/><text fill="#000000" font-family="sans-serif" font-size="14" lengthAdjust="spacing" textLength="28" x="521.5" y="698.5684">FSM</text><rect fill="#FFFFFF" height="557.9238" style="stroke:#181818;stroke-width:1.0;" width="10" x="195.5" y="111.1094"/><rect fill="#FFFFFF" height="218.4844" style="stroke:#181818;stroke-width:1.0;" width="10" x="398.5" y="335.9727"/><rect fill="#FFFFFF" height="86.9316" style="stroke:#181818;stroke-width:1.0;" width="10" x="530.5" y="380.5938"/><rect fill="#EEEEEE" height="3" style="stroke:#EEEEEE;stroke-width:1.0;" width="670.5" x="0" y="67.1436"/><line style="stroke:#000000;stroke-width:1.0;" x1="0" x2="670.5" y1="67.1436" y2="67.1436"/><line style="stroke:#000000;stroke-width:1.0;" x1="0" x2="670.5" y1="70.1436" y2="70.1436"/><rect fill="#EEEEEE" height="23.3105" style="stroke:#000000;stroke-width:2.0;" width="226" x="222.25" y="56.4883"/><text fill="#000000" font-family="sans-serif" font-size="13" font-weight="bold" lengthAdjust="spacing" textLength="208" x="228.25" y="73.0566">Block Reception and Validation</text><polygon fill="#181818" points="183.5,107.1094,193.5,111.1094,183.5,115.1094,187.5,111.1094" style="stroke:#181818;stroke-width:1.0;"/><line style="stroke:#181818;stroke-width:1.0;" x1="55" x2="189.5" y1="111.1094" y2="111.1094"/><text fill="#000000" font-family="sans-serif" font-size="13" lengthAdjust="spacing" textLength="65" x="62" y="106.3672">New Block</text><line style="stroke:#181818;stroke-width:1.0;" x1="205.5" x2="247.5" y1="140.4199" y2="140.4199"/><line style="stroke:#181818;stroke-width:1.0;" x1="247.5" x2="247.5" y1="140.4199" y2="153.4199"/><line style="stroke:#181818;stroke-width:1.0;" x1="206.5" x2="247.5" y1="153.4199" y2="153.4199"/><polygon fill="#181818" points="216.5,149.4199,206.5,153.4199,216.5,157.4199,212.5,153.4199" style="stroke:#181818;stroke-width:1.0;"/><text fill="#000000" font-family="sans-serif" font-size="13" lengthAdjust="spacing" textLength="88" x="212.5" y="135.6777">Validate Block</text><rect fill="#EEEEEE" height="3" style="stroke:#EEEEEE;stroke-width:1.0;" width="670.5" x="0" y="182.0752"/><line style="stroke:#000000;stroke-width:1.0;" x1="0" x2="670.5" y1="182.0752" y2="182.0752"/><line style="stroke:#000000;stroke-width:1.0;" x1="0" x2="670.5" y1="185.0752" y2="185.0752"/><rect fill="#EEEEEE" height="23.3105" style="stroke:#000000;stroke-width:2.0;" width="142" x="264.25" y="171.4199"/><text fill="#000000" font-family="sans-serif" font-size="13" font-weight="bold" lengthAdjust="spacing" textLength="124" x="270.25" y="187.9883">Catchup Detection</text><line style="stroke:#181818;stroke-width:1.0;" x1="205.5" x2="247.5" y1="226.041" y2="226.041"/><line style="stroke:#181818;stroke-width:1.0;" x1="247.5" x2="247.5" y1="226.041" y2="239.041"/><line style="stroke:#181818;stroke-width:1.0;" x1="206.5" x2="247.5" y1="239.041" y2="239.041"/><polygon fill="#181818" points="216.5,235.041,206.5,239.041,216.5,243.041,212.5,239.041" style="stroke:#181818;stroke-width:1.0;"/><text fill="#000000" font-family="sans-serif" font-size="13" lengthAdjust="spacing" textLength="135" x="212.5" y="221.2988">Detect Catchup Mode</text><rect fill="#EEEEEE" height="3" style="stroke:#EEEEEE;stroke-width:1.0;" width="670.5" x="0" y="267.6963"/><line style="stroke:#000000;stroke-width:1.0;" x1="0" x2="670.5" y1="267.6963" y2="267.6963"/><line style="stroke:#000000;stroke-width:1.0;" x1="0" x2="670.5" y1="270.6963" y2="270.6963"/><rect fill="#EEEEEE" height="23.3105" style="stroke:#000000;stroke-width:2.0;" width="197" x="236.75" y="257.041"/><text fill="#000000" font-family="sans-serif" font-size="13" font-weight="bold" lengthAdjust="spacing" textLength="179" x="242.75" y="273.6094">CatchupBlocks Notification</text><path d="M105,297.3516 L167,297.3516 L167,304.6621 L157,314.6621 L105,314.6621 L105,297.3516 " fill="#EEEEEE" style="stroke:#000000;stroke-width:1.5;"/><rect fill="none" height="364.6816" style="stroke:#000000;stroke-width:1.5;" width="555.5" x="105" y="297.3516"/><text fill="#000000" font-family="sans-serif" font-size="13" font-weight="bold" lengthAdjust="spacing" textLength="17" x="120" y="310.9199">alt</text><text fill="#000000" font-family="sans-serif" font-size="11" font-weight="bold" lengthAdjust="spacing" textLength="102" x="182" y="309.9863">[In Catchup Mode]</text><polygon fill="#181818" points="386.5,331.9727,396.5,335.9727,386.5,339.9727,390.5,335.9727" style="stroke:#181818;stroke-width:1.0;"/><line style="stroke:#181818;stroke-width:1.0;" x1="205.5" x2="392.5" y1="335.9727" y2="335.9727"/><text fill="#000000" font-family="sans-serif" font-size="13" lengthAdjust="spacing" textLength="137" x="212.5" y="331.2305">CatchupBlocks (gRPC)</text><polygon fill="#181818" points="518.5,376.5938,528.5,380.5938,518.5,384.5938,522.5,380.5938" style="stroke:#181818;stroke-width:1.0;"/><line style="stroke:#181818;stroke-width:1.0;" x1="408.5" x2="524.5" y1="380.5938" y2="380.5938"/><text fill="#000000" font-family="sans-serif" font-size="13" lengthAdjust="spacing" textLength="93" x="415.5" y="360.541">CatchupBlocks</text><text fill="#000000" font-family="sans-serif" font-size="13" lengthAdjust="spacing" textLength="34" x="419.5" y="375.8516">Event</text><line style="stroke:#181818;stroke-width:1.0;" x1="540.5" x2="582.5" y1="425.2148" y2="425.2148"/><line style="stroke:#181818;stroke-width:1.0;" x1="582.5" x2="582.5" y1="425.2148" y2="438.2148"/><line style="stroke:#181818;stroke-width:1.0;" x1="541.5" x2="582.5" y1="438.2148" y2="438.2148"/><polygon fill="#181818" points="551.5,434.2148,541.5,438.2148,551.5,442.2148,547.5,438.2148" style="stroke:#181818;stroke-width:1.0;"/><text fill="#000000" font-family="sans-serif" font-size="13" lengthAdjust="spacing" textLength="81" x="547.5" y="405.1621">Transition to</text><text fill="#000000" font-family="sans-serif" font-size="13" lengthAdjust="spacing" textLength="97" x="551.5" y="420.4727">CatchingBlocks</text><polygon fill="#181818" points="419.5,463.5254,409.5,467.5254,419.5,471.5254,415.5,467.5254" style="stroke:#181818;stroke-width:1.0;"/><line style="stroke:#181818;stroke-width:1.0;stroke-dasharray:2.0,2.0;" x1="413.5" x2="534.5" y1="467.5254" y2="467.5254"/><text fill="#000000" font-family="sans-serif" font-size="13" lengthAdjust="spacing" textLength="87" x="425.5" y="462.7832">State Updated</text><line style="stroke:#181818;stroke-width:1.0;" x1="408.5" x2="450.5" y1="512.1465" y2="512.1465"/><line style="stroke:#181818;stroke-width:1.0;" x1="450.5" x2="450.5" y1="512.1465" y2="525.1465"/><line style="stroke:#181818;stroke-width:1.0;" x1="409.5" x2="450.5" y1="525.1465" y2="525.1465"/><polygon fill="#181818" points="419.5,521.1465,409.5,525.1465,419.5,529.1465,415.5,525.1465" style="stroke:#181818;stroke-width:1.0;"/><text fill="#000000" font-family="sans-serif" font-size="13" lengthAdjust="spacing" textLength="67" x="415.5" y="492.0938">Start Block</text><text fill="#000000" font-family="sans-serif" font-size="13" lengthAdjust="spacing" textLength="104" x="419.5" y="507.4043">Catchup Process</text><polygon fill="#181818" points="216.5,550.457,206.5,554.457,216.5,558.457,212.5,554.457" style="stroke:#181818;stroke-width:1.0;"/><line style="stroke:#181818;stroke-width:1.0;stroke-dasharray:2.0,2.0;" x1="210.5" x2="402.5" y1="554.457" y2="554.457"/><text fill="#000000" font-family="sans-serif" font-size="13" lengthAdjust="spacing" textLength="157" x="222.5" y="549.7148">CatchupBlocks Response</text><line style="stroke:#181818;stroke-width:1.0;" x1="205.5" x2="247.5" y1="583.7676" y2="583.7676"/><line style="stroke:#181818;stroke-width:1.0;" x1="247.5" x2="247.5" y1="583.7676" y2="596.7676"/><line style="stroke:#181818;stroke-width:1.0;" x1="206.5" x2="247.5" y1="596.7676" y2="596.7676"/><polygon fill="#181818" points="216.5,592.7676,206.5,596.7676,216.5,600.7676,212.5,596.7676" style="stroke:#181818;stroke-width:1.0;"/><text fill="#000000" font-family="sans-serif" font-size="13" lengthAdjust="spacing" textLength="108" x="212.5" y="579.0254">Handle Response</text><line style="stroke:#000000;stroke-width:1.0;stroke-dasharray:2.0,2.0;" x1="105" x2="660.5" y1="605.7676" y2="605.7676"/><text fill="#000000" font-family="sans-serif" font-size="11" font-weight="bold" lengthAdjust="spacing" textLength="125" x="110" y="616.4023">[Not in Catchup Mode]</text><line style="stroke:#181818;stroke-width:1.0;" x1="205.5" x2="247.5" y1="641.0332" y2="641.0332"/><line style="stroke:#181818;stroke-width:1.0;" x1="247.5" x2="247.5" y1="641.0332" y2="654.0332"/><line style="stroke:#181818;stroke-width:1.0;" x1="206.5" x2="247.5" y1="654.0332" y2="654.0332"/><polygon fill="#181818" points="216.5,650.0332,206.5,654.0332,216.5,658.0332,212.5,654.0332" style="stroke:#181818;stroke-width:1.0;"/><text fill="#000000" font-family="sans-serif" font-size="13" lengthAdjust="spacing" textLength="179" x="212.5" y="636.291">Continue Normal Processing</text><!--SRC=[bPDDJyCm38Rl-HLc9pXmuOXK91ZZGs9JrGrEkqI9jqKhIPLuszydIRkjAIqVlLH9_3v-RISN4bTA8nIJyU9-zlms0L5ovnYhk2KbLCKrmIY_oM66T31sEmBkmA_JW8VIYEq7BvNaf8o6ETgz4XY3EsSzGh7XgaSJjvlTLFKqdyOm_sUCPLaT3mKAh69-hYMqx6GP2oLSttNDmAslwr3lCYv8xJdXDyTTKI-dMJJgw6hCIMns5JmYeJWQ-HEiLfm0KoEnJOm21pD3QgN4gKPU4hpgL0N-6qhPRh1Fci8lrqK-lehwj379MCxy1EOp-DbqcKiDaprgIg5nY64dA4x2XUNQgMYNpB8fIkbrJMe91egPKs2_Ls4aCaPB_9wor_a0pb9ziZntEBT6e7yj0wZUqQPTBj1LHZliElofqxzTdXT_-qiyex5q6EuAg7_SZTIpqQJqBb3i9o-FTVjnCDIIiQxnrjlv0W00]--></g></svg>
