<svg contentStyleType="text/css" height="507" preserveAspectRatio="none" viewBox="0 0 1035 507" width="1035" xmlns="http://www.w3.org/2000/svg" zoomAndPan="magnify"><path d="m0 0h1035v507h-1035z" fill="#f0f8ff"/><path d="m346.3691 98.7988h10v316.1055h-10z" fill="#fff" stroke="#181818"/><path d="m351.3691 136.1094h10v278.7949h-10z" fill="#fff" stroke="#181818"/><path d="m547.2109 194.7305h10v205.1738h-10z" fill="#fff" stroke="#181818"/><path d="m673.1382 224.041h10v146.5527h-10z" fill="#fff" stroke="#181818"/><path d="m809.5996 253.3516h10v87.9316h-10z" fill="#fff" stroke="#181818"/><path d="m949.3823 282.6621h10v29.3105h-10z" fill="#fff" stroke="#181818"/><path d="m260.3154 156.1094h769.5063v251.7949h-769.5063z" fill="none" stroke="#000" stroke-width="1.5"/><path d="m132 67.4883v357.416" stroke="#181818" stroke-dasharray="5 5" stroke-width=".5"/><path d="m351.3154 67.4883v357.416" stroke="#181818" stroke-dasharray="5 5" stroke-width=".5"/><path d="m551.4019 67.4883v357.416" stroke="#181818" stroke-dasharray="5 5" stroke-width=".5"/><path d="m678.02 67.4883v357.416" stroke="#181818" stroke-dasharray="5 5" stroke-width=".5"/><path d="m814.2563 67.4883v357.416" stroke="#181818" stroke-dasharray="5 5" stroke-width=".5"/><path d="m953.9429 67.4883v357.416" stroke="#181818" stroke-dasharray="5 5" stroke-width=".5"/><rect fill="#ddd" height="46.9766" rx="2.5" stroke="#666" stroke-width=".5" width="255.3154" x="5" y="19.5117"/><text fill="#333" font-family="sans-serif" font-size="14" lengthAdjust="spacing" textLength="151.7305" x="56.7925" y="40.0469">Block Assembly Server</text><text fill="#333" font-family="sans-serif" font-size="14" lengthAdjust="spacing" textLength="241.3154" x="12" y="56.5352">(services/blockassembly/Server.go)</text><rect fill="#ddd" height="46.9766" rx="2.5" stroke="#666" stroke-width=".5" width="255.3154" x="5" y="423.9043"/><text fill="#333" font-family="sans-serif" font-size="14" lengthAdjust="spacing" textLength="151.7305" x="56.7925" y="444.4395">Block Assembly Server</text><text fill="#333" font-family="sans-serif" font-size="14" lengthAdjust="spacing" textLength="241.3154" x="12" y="460.9277">(services/blockassembly/Server.go)</text><rect fill="#ddd" height="46.9766" rx="2.5" stroke="#666" stroke-width=".5" width="162.1074" x="270.3154" y="19.5117"/><text fill="#333" font-family="sans-serif" font-size="14" lengthAdjust="spacing" textLength="121.6729" x="290.5327" y="40.0469">Subtree Processor</text><text fill="#333" font-family="sans-serif" font-size="14" lengthAdjust="spacing" textLength="148.1074" x="277.3154" y="56.5352">(SubtreeProcessor.go)</text><rect fill="#ddd" height="46.9766" rx="2.5" stroke="#666" stroke-width=".5" width="162.1074" x="270.3154" y="423.9043"/><text fill="#333" font-family="sans-serif" font-size="14" lengthAdjust="spacing" textLength="121.6729" x="290.5327" y="444.4395">Subtree Processor</text><text fill="#333" font-family="sans-serif" font-size="14" lengthAdjust="spacing" textLength="148.1074" x="277.3154" y="460.9277">(SubtreeProcessor.go)</text><rect fill="#ddd" height="46.9766" rx="2.5" stroke="#666" stroke-width=".5" width="107.6182" x="498.4019" y="19.5117"/><text fill="#333" font-family="sans-serif" font-size="14" lengthAdjust="spacing" textLength="80.958" x="511.7319" y="40.0469">Remote TTL</text><text fill="#333" font-family="sans-serif" font-size="14" lengthAdjust="spacing" textLength="93.6182" x="505.4019" y="56.5352">(remotettl.go)</text><rect fill="#ddd" height="46.9766" rx="2.5" stroke="#666" stroke-width=".5" width="107.6182" x="498.4019" y="423.9043"/><text fill="#333" font-family="sans-serif" font-size="14" lengthAdjust="spacing" textLength="80.958" x="511.7319" y="444.4395">Remote TTL</text><text fill="#333" font-family="sans-serif" font-size="14" lengthAdjust="spacing" textLength="93.6182" x="505.4019" y="460.9277">(remotettl.go)</text><rect fill="#ddd" height="46.9766" rx="2.5" stroke="#666" stroke-width=".5" width="124.2363" x="616.02" y="19.5117"/><text fill="#333" font-family="sans-serif" font-size="14" lengthAdjust="spacing" textLength="80.9033" x="637.6865" y="40.0469">Asset Client</text><text fill="#333" font-family="sans-serif" font-size="14" lengthAdjust="spacing" textLength="110.2363" x="623.02" y="56.5352">(asset/client.go)</text><rect fill="#ddd" height="46.9766" rx="2.5" stroke="#666" stroke-width=".5" width="124.2363" x="616.02" y="423.9043"/><text fill="#333" font-family="sans-serif" font-size="14" lengthAdjust="spacing" textLength="80.9033" x="637.6865" y="444.4395">Asset Client</text><text fill="#333" font-family="sans-serif" font-size="14" lengthAdjust="spacing" textLength="110.2363" x="623.02" y="460.9277">(asset/client.go)</text><rect fill="#ddd" height="46.9766" rx="2.5" stroke="#666" stroke-width=".5" width="128.6865" x="750.2563" y="19.5117"/><text fill="#333" font-family="sans-serif" font-size="14" lengthAdjust="spacing" textLength="83.2412" x="772.979" y="40.0469">Asset Server</text><text fill="#333" font-family="sans-serif" font-size="14" lengthAdjust="spacing" textLength="114.6865" x="757.2563" y="56.5352">(asset/server.go)</text><rect fill="#ddd" height="46.9766" rx="2.5" stroke="#666" stroke-width=".5" width="128.6865" x="750.2563" y="423.9043"/><text fill="#333" font-family="sans-serif" font-size="14" lengthAdjust="spacing" textLength="83.2412" x="772.979" y="444.4395">Asset Server</text><text fill="#333" font-family="sans-serif" font-size="14" lengthAdjust="spacing" textLength="114.6865" x="757.2563" y="460.9277">(asset/server.go)</text><text fill="#333" font-family="sans-serif" font-size="14" lengthAdjust="spacing" textLength="124.8789" x="888.9429" y="64.5352">Blob Subtree Store</text><path d="m936.3823 15c0-10 18-10 18-10s18 0 18 10v26c0 10-18 10-18 10s-18 0-18-10z" fill="#e2e2f0" stroke="#181818" stroke-width="1.5"/><path d="m936.3823 15c0 10 18 10 18 10s18 0 18-10" fill="none" stroke="#181818" stroke-width="1.5"/><text fill="#333" font-family="sans-serif" font-size="14" lengthAdjust="spacing" textLength="124.8789" x="888.9429" y="437.4395">Blob Subtree Store</text><g stroke="#181818"><path d="m936.3823 450.3926c0-10 18-10 18-10s18 0 18 10v26c0 10-18 10-18 10s-18 0-18-10z" fill="#e2e2f0" stroke-width="1.5"/><path d="m936.3823 450.3926c0 10 18 10 18 10s18 0 18-10" fill="none" stroke-width="1.5"/><path d="m346.3691 98.7988h10v316.1055h-10z" fill="#fff"/><path d="m351.3691 136.1094h10v278.7949h-10z" fill="#fff"/><path d="m547.2109 194.7305h10v205.1738h-10z" fill="#fff"/><path d="m673.1382 224.041h10v146.5527h-10z" fill="#fff"/><path d="m809.5996 253.3516h10v87.9316h-10z" fill="#fff"/><path d="m949.3823 282.6621h10v29.3105h-10z" fill="#fff"/></g><path d="m334.3691 94.7988 10 4-10 4 4-4z" fill="#666" stroke="#666"/><path d="m132.6577 98.7988h207.7114" stroke="#666"/><text fill="#333" font-family="sans-serif" font-size="13" lengthAdjust="spacing" textLength="82.5322" x="139.6577" y="94.0566">reorgBlocks()</text><path d="m356.3691 123.1094h47" stroke="#666"/><path d="m403.3691 123.1094v13" stroke="#666"/><path d="m362.3691 136.1094h41" stroke="#666"/><path d="m372.3691 132.1094-10 4 10 4-4-4z" fill="#666" stroke="#666"/><text fill="#333" font-family="sans-serif" font-size="13" lengthAdjust="spacing" textLength="166.8418" x="368.3691" y="118.3672">moveBackBlock(ctx, block)</text><path d="m260.3154 156.1094h74.4468v7.3105l-10 10h-64.4468z" fill="#eee" stroke="#000" stroke-width="1.5"/><path d="m260.3154 156.1094h769.5063v251.7949h-769.5063z" fill="none" stroke="#000" stroke-width="1.5"/><text fill="#333" font-family="sans-serif" font-size="13" font-weight="bold" lengthAdjust="spacing" textLength="29.4468" x="275.3154" y="169.6777">loop</text><text fill="#333" font-family="sans-serif" font-size="11" font-weight="bold" lengthAdjust="spacing" textLength="151.4434" x="349.7622" y="168.7441">[For Each Subtree in Block]</text><path d="m535.2109 190.7305 10 4-10 4 4-4z" fill="#666" stroke="#666"/><path d="m361.3691 194.7305h179.8418" stroke="#666"/><text fill="#333" font-family="sans-serif" font-size="13" lengthAdjust="spacing" textLength="79.3076" x="368.3691" y="189.9883">Get(ctx, key)</text><path d="m661.1382 220.041 10 4-10 4 4-4z" fill="#666" stroke="#666"/><path d="m557.2109 224.041h109.9273" stroke="#666"/><text fill="#333" font-family="sans-serif" font-size="13" lengthAdjust="spacing" textLength="79.3076" x="564.2109" y="219.2988">Get(ctx, key)</text><path d="m797.5996 249.3516 10 4-10 4 4-4z" fill="#666" stroke="#666"/><path d="m683.1382 253.3516h120.4614" stroke="#666"/><text fill="#333" font-family="sans-serif" font-size="13" lengthAdjust="spacing" textLength="79.3076" x="690.1382" y="248.6094">Get(ctx, key)</text><path d="m937.3823 278.6621 10 4-10 4 4-4z" fill="#666" stroke="#666"/><path d="m819.5996 282.6621h123.7827" stroke="#666"/><text fill="#333" font-family="sans-serif" font-size="13" lengthAdjust="spacing" textLength="87.6167" x="826.5996" y="277.9199">Get(ctx, hash)</text><path d="m830.5996 307.9727-10 4 10 4-4-4z" fill="#666" stroke="#666"/><path d="m824.5996 311.9727h128.7827" stroke="#666" stroke-dasharray="2 2"/><text fill="#333" font-family="sans-serif" font-size="13" lengthAdjust="spacing" textLength="76.502" x="836.5996" y="307.2305">subtreeData</text><path d="m694.1382 337.2832-10 4 10 4-4-4z" fill="#666" stroke="#666"/><path d="m688.1382 341.2832h125.4614" stroke="#666" stroke-dasharray="2 2"/><text fill="#333" font-family="sans-serif" font-size="13" lengthAdjust="spacing" textLength="76.502" x="700.1382" y="336.541">subtreeData</text><path d="m568.2109 366.5938-10 4 10 4-4-4z" fill="#666" stroke="#666"/><path d="m562.2109 370.5938h114.9273" stroke="#666" stroke-dasharray="2 2"/><text fill="#333" font-family="sans-serif" font-size="13" lengthAdjust="spacing" textLength="76.502" x="574.2109" y="365.8516">subtreeData</text><path d="m372.3691 395.9043-10 4 10 4-4-4z" fill="#666" stroke="#666"/><path d="m366.3691 399.9043h184.8418" stroke="#666" stroke-dasharray="2 2"/><text fill="#333" font-family="sans-serif" font-size="13" lengthAdjust="spacing" textLength="76.502" x="378.3691" y="395.1621">subtreeData</text><text fill="#333" font-family="sans-serif" font-size="10" lengthAdjust="spacing" textLength="155.4346" y="497.0605">Last Modified On: 24-Feb-2025</text></svg>
