<svg contentStyleType="text/css" height="316" preserveAspectRatio="none" viewBox="0 0 854 316" width="854" xmlns="http://www.w3.org/2000/svg" zoomAndPan="magnify"><path d="m0 0h854v316h-854z" fill="#f0f8ff"/><g stroke="#181818"><path d="m292.2627 84.2871h10v146.5527h-10z" fill="#fff"/><path d="m520.1855 113.5977h10v87.9316h-10z" fill="#fff"/><path d="m780.9639 142.9082h10v29.3105h-10z" fill="#fff"/><path d="m51 52.9766v195.8632" stroke-dasharray="5 5" stroke-width=".5"/><path d="m296.5078 52.9766v195.8632" stroke-dasharray="5 5" stroke-width=".5"/><path d="m525.1226 52.9766v195.8632" stroke-dasharray="5 5" stroke-width=".5"/><path d="m785.022 52.9766v195.8632" stroke-dasharray="5 5" stroke-width=".5"/></g><rect fill="#ddd" height="30.4883" rx="2.5" stroke="#666" stroke-width=".5" width="93.666" x="5" y="21.4883"/><text fill="#333" font-family="sans-serif" font-size="14" lengthAdjust="spacing" textLength="79.666" x="12" y="42.0234">HTTP Client</text><rect fill="#ddd" height="30.4883" rx="2.5" stroke="#666" stroke-width=".5" width="93.666" x="5" y="247.8398"/><text fill="#333" font-family="sans-serif" font-size="14" lengthAdjust="spacing" textLength="79.666" x="12" y="268.375">HTTP Client</text><rect fill="#ddd" height="46.9766" rx="2.5" stroke="#666" stroke-width=".5" width="187.5098" x="203.5078" y="5"/><text fill="#333" font-family="sans-serif" font-size="14" lengthAdjust="spacing" textLength="82.0039" x="256.2607" y="25.5352">HTTP Server</text><text fill="#333" font-family="sans-serif" font-size="14" lengthAdjust="spacing" textLength="173.5098" x="210.5078" y="42.0234">(asset/http_impl/http.go)</text><rect fill="#ddd" height="46.9766" rx="2.5" stroke="#666" stroke-width=".5" width="187.5098" x="203.5078" y="247.8398"/><text fill="#333" font-family="sans-serif" font-size="14" lengthAdjust="spacing" textLength="82.0039" x="256.2607" y="268.375">HTTP Server</text><text fill="#333" font-family="sans-serif" font-size="14" lengthAdjust="spacing" textLength="173.5098" x="210.5078" y="284.8633">(asset/http_impl/http.go)</text><rect fill="#ddd" height="30.4883" rx="2.5" stroke="#666" stroke-width=".5" width="86.126" x="482.1226" y="21.4883"/><text fill="#333" font-family="sans-serif" font-size="14" lengthAdjust="spacing" textLength="72.126" x="489.1226" y="42.0234">Repository</text><rect fill="#ddd" height="30.4883" rx="2.5" stroke="#666" stroke-width=".5" width="86.126" x="482.1226" y="247.8398"/><text fill="#333" font-family="sans-serif" font-size="14" lengthAdjust="spacing" textLength="72.126" x="489.1226" y="268.375">Repository</text><rect fill="#ddd" height="30.4883" rx="2.5" stroke="#666" stroke-width=".5" width="125.8838" x="723.022" y="21.4883"/><text fill="#333" font-family="sans-serif" font-size="14" lengthAdjust="spacing" textLength="111.8838" x="730.022" y="42.0234">BlockchainClient</text><rect fill="#ddd" height="30.4883" rx="2.5" stroke="#666" stroke-width=".5" width="125.8838" x="723.022" y="247.8398"/><text fill="#333" font-family="sans-serif" font-size="14" lengthAdjust="spacing" textLength="111.8838" x="730.022" y="268.375">BlockchainClient</text><path d="m292.2627 84.2871h10v146.5527h-10z" fill="#fff" stroke="#181818"/><path d="m520.1855 113.5977h10v87.9316h-10z" fill="#fff" stroke="#181818"/><path d="m780.9639 142.9082h10v29.3105h-10z" fill="#fff" stroke="#181818"/><path d="m280.2627 80.2871 10 4-10 4 4-4z" fill="#666" stroke="#666"/><path d="m51.833 84.2871h234.4297" stroke="#666"/><text fill="#333" font-family="sans-serif" font-size="13" lengthAdjust="spacing" textLength="185.6309" x="58.833" y="79.5449">GET /blockgraphdata/:period</text><path d="m508.1855 109.5977 10 4-10 4 4-4z" fill="#666" stroke="#666"/><path d="m302.2627 113.5977h211.9228" stroke="#666"/><text fill="#333" font-family="sans-serif" font-size="13" lengthAdjust="spacing" textLength="198.9229" x="309.2627" y="108.8555">GetBlockGraphData(ctx, period)</text><path d="m768.9639 138.9082 10 4-10 4 4-4z" fill="#666" stroke="#666"/><path d="m530.1855 142.9082h244.7784" stroke="#666"/><text fill="#333" font-family="sans-serif" font-size="13" lengthAdjust="spacing" textLength="231.7783" x="537.1855" y="138.166">GetBlockGraphData(ctx, periodMillis)</text><path d="m541.1855 168.2188-10 4 10 4-4-4z" fill="#666" stroke="#666"/><path d="m535.1855 172.2188h249.7784" stroke="#666" stroke-dasharray="2 2"/><ellipse cx="552.6855" cy="162.7188" fill="#333" rx="2.5" ry="2.5"/><text fill="#333" font-family="sans-serif" font-size="13" lengthAdjust="spacing" textLength="144.3394" x="559.1855" y="167.4766">model.BlockDataPoints</text><path d="m313.2627 197.5293-10 4 10 4-4-4z" fill="#666" stroke="#666"/><path d="m307.2627 201.5293h216.9228" stroke="#666" stroke-dasharray="2 2"/><ellipse cx="324.7627" cy="192.0293" fill="#333" rx="2.5" ry="2.5"/><text fill="#333" font-family="sans-serif" font-size="13" lengthAdjust="spacing" textLength="144.3394" x="331.2627" y="196.7871">model.BlockDataPoints</text><path d="m62.833 226.8398-10 4 10 4-4-4z" fill="#666" stroke="#666"/><path d="m56.833 230.8398h239.4297" stroke="#666" stroke-dasharray="2 2"/><text fill="#333" font-family="sans-serif" font-size="13" lengthAdjust="spacing" textLength="216.4297" x="68.833" y="226.0977">JSON Response (Block Graph Data)</text><text fill="#333" font-family="sans-serif" font-size="10" lengthAdjust="spacing" textLength="155.4346" y="306.4844">Last Modified On: 24-Feb-2025</text></svg>
