<svg contentStyleType="text/css" height="406" preserveAspectRatio="none" viewBox="0 0 825 406" width="825" xmlns="http://www.w3.org/2000/svg" zoomAndPan="magnify"><path d="m0 0h825v406h-825z" fill="#f0f8ff"/><path d="m275.9194 84.2871h10v236.4844h-10z" fill="#fff" stroke="#181818"/><path d="m480.5591 113.5977h10v177.8633h-10z" fill="#fff" stroke="#181818"/><path d="m630.6533 142.9082h10v29.3105h-10z" fill="#fff" stroke="#181818"/><path d="m753.8496 225.8398h10v29.3105h-10z" fill="#fff" stroke="#181818"/><path d="m432.4961 187.2188h386.6079v75.9316h-386.6079z" fill="none" stroke="#000" stroke-width="1.5"/><g stroke-width=".5"><path d="m51 52.9766v285.7949" stroke="#181818" stroke-dasharray="5 5"/><path d="m280.1646 52.9766v285.7949" stroke="#181818" stroke-dasharray="5 5"/><path d="m485.4961 52.9766v285.7949" stroke="#181818" stroke-dasharray="5 5"/><path d="m634.7114 52.9766v285.7949" stroke="#181818" stroke-dasharray="5 5"/><path d="m758.5952 52.9766v285.7949" stroke="#181818" stroke-dasharray="5 5"/><rect fill="#ddd" height="30.4883" rx="2.5" stroke="#666" width="93.666" x="5" y="21.4883"/></g><text fill="#333" font-family="sans-serif" font-size="14" lengthAdjust="spacing" textLength="79.666" x="12" y="42.0234">HTTP Client</text><rect fill="#ddd" height="30.4883" rx="2.5" stroke="#666" stroke-width=".5" width="93.666" x="5" y="337.7715"/><text fill="#333" font-family="sans-serif" font-size="14" lengthAdjust="spacing" textLength="79.666" x="12" y="358.3066">HTTP Client</text><rect fill="#ddd" height="46.9766" rx="2.5" stroke="#666" stroke-width=".5" width="187.5098" x="187.1646" y="5"/><text fill="#333" font-family="sans-serif" font-size="14" lengthAdjust="spacing" textLength="82.0039" x="239.9175" y="25.5352">HTTP Server</text><text fill="#333" font-family="sans-serif" font-size="14" lengthAdjust="spacing" textLength="173.5098" x="194.1646" y="42.0234">(asset/http_impl/http.go)</text><rect fill="#ddd" height="46.9766" rx="2.5" stroke="#666" stroke-width=".5" width="187.5098" x="187.1646" y="337.7715"/><text fill="#333" font-family="sans-serif" font-size="14" lengthAdjust="spacing" textLength="82.0039" x="239.9175" y="358.3066">HTTP Server</text><text fill="#333" font-family="sans-serif" font-size="14" lengthAdjust="spacing" textLength="173.5098" x="194.1646" y="374.7949">(asset/http_impl/http.go)</text><rect fill="#ddd" height="30.4883" rx="2.5" stroke="#666" stroke-width=".5" width="86.126" x="442.4961" y="21.4883"/><text fill="#333" font-family="sans-serif" font-size="14" lengthAdjust="spacing" textLength="72.126" x="449.4961" y="42.0234">Repository</text><rect fill="#ddd" height="30.4883" rx="2.5" stroke="#666" stroke-width=".5" width="86.126" x="442.4961" y="337.7715"/><text fill="#333" font-family="sans-serif" font-size="14" lengthAdjust="spacing" textLength="72.126" x="449.4961" y="358.3066">Repository</text><rect fill="#ddd" height="30.4883" rx="2.5" stroke="#666" stroke-width=".5" width="125.8838" x="572.7114" y="21.4883"/><text fill="#333" font-family="sans-serif" font-size="14" lengthAdjust="spacing" textLength="111.8838" x="579.7114" y="42.0234">BlockchainClient</text><rect fill="#ddd" height="30.4883" rx="2.5" stroke="#666" stroke-width=".5" width="125.8838" x="572.7114" y="337.7715"/><text fill="#333" font-family="sans-serif" font-size="14" lengthAdjust="spacing" textLength="111.8838" x="579.7114" y="358.3066">BlockchainClient</text><rect fill="#ddd" height="30.4883" rx="2.5" stroke="#666" stroke-width=".5" width="100.5088" x="708.5952" y="21.4883"/><text fill="#333" font-family="sans-serif" font-size="14" lengthAdjust="spacing" textLength="86.5088" x="715.5952" y="42.0234">SubtreeStore</text><rect fill="#ddd" height="30.4883" rx="2.5" stroke="#666" stroke-width=".5" width="100.5088" x="708.5952" y="337.7715"/><text fill="#333" font-family="sans-serif" font-size="14" lengthAdjust="spacing" textLength="86.5088" x="715.5952" y="358.3066">SubtreeStore</text><path d="m275.9194 84.2871h10v236.4844h-10z" fill="#fff" stroke="#181818"/><path d="m480.5591 113.5977h10v177.8633h-10z" fill="#fff" stroke="#181818"/><path d="m630.6533 142.9082h10v29.3105h-10z" fill="#fff" stroke="#181818"/><path d="m753.8496 225.8398h10v29.3105h-10z" fill="#fff" stroke="#181818"/><path d="m263.9194 80.2871 10 4-10 4 4-4z" fill="#666" stroke="#666"/><path d="m51.833 84.2871h218.0864" stroke="#666"/><text fill="#333" font-family="sans-serif" font-size="13" lengthAdjust="spacing" textLength="205.0864" x="58.833" y="79.5449">GET /block/:hash/subtrees/json</text><path d="m468.5591 109.5977 10 4-10 4 4-4z" fill="#666" stroke="#666"/><path d="m285.9194 113.5977h188.6397" stroke="#666"/><text fill="#333" font-family="sans-serif" font-size="13" lengthAdjust="spacing" textLength="175.6396" x="292.9194" y="108.8555">GetBlockSubtrees(ctx, hash)</text><path d="m618.6533 138.9082 10 4-10 4 4-4z" fill="#666" stroke="#666"/><path d="m490.5591 142.9082h134.0942" stroke="#666"/><text fill="#333" font-family="sans-serif" font-size="13" lengthAdjust="spacing" textLength="121.0942" x="497.5591" y="138.166">GetBlock(ctx, hash)</text><path d="m501.5591 168.2188-10 4 10 4-4-4z" fill="#666" stroke="#666"/><path d="m495.5591 172.2188h139.0942" stroke="#666" stroke-dasharray="2 2"/><text fill="#333" font-family="sans-serif" font-size="13" lengthAdjust="spacing" textLength="76.8955" x="507.5591" y="167.4766">model.Block</text><path d="m432.4961 187.2188h74.4468v7.3105l-10 10h-64.4468z" fill="#eee" stroke="#000" stroke-width="1.5"/><path d="m432.4961 187.2188h386.6079v75.9316h-386.6079z" fill="none" stroke="#000" stroke-width="1.5"/><text fill="#333" font-family="sans-serif" font-size="13" font-weight="bold" lengthAdjust="spacing" textLength="29.4468" x="447.4961" y="200.7871">loop</text><text fill="#333" font-family="sans-serif" font-size="11" font-weight="bold" lengthAdjust="spacing" textLength="172.4712" x="521.9429" y="199.8535">[For each transaction in block]</text><path d="m741.8496 221.8398 10 4-10 4 4-4z" fill="#666" stroke="#666"/><path d="m490.5591 225.8398h257.2905" stroke="#666"/><text fill="#333" font-family="sans-serif" font-size="13" lengthAdjust="spacing" textLength="182.0127" x="497.5591" y="221.0977">GetSubtreeHead(ctx, txHash)</text><path d="m501.5591 251.1504-10 4 10 4-4-4z" fill="#666" stroke="#666"/><path d="m495.5591 255.1504h262.2905" stroke="#666" stroke-dasharray="2 2"/><text fill="#333" font-family="sans-serif" font-size="13" lengthAdjust="spacing" textLength="148.6177" x="507.5591" y="250.4082">util.Subtree, numNodes</text><path d="m296.9194 287.4609-10 4 10 4-4-4z" fill="#666" stroke="#666"/><path d="m290.9194 291.4609h193.6397" stroke="#666" stroke-dasharray="2 2"/><text fill="#333" font-family="sans-serif" font-size="13" lengthAdjust="spacing" textLength="80.9517" x="302.9194" y="286.7188">[]SubtreeInfo</text><path d="m62.833 316.7715-10 4 10 4-4-4z" fill="#666" stroke="#666"/><path d="m56.833 320.7715h223.0864" stroke="#666" stroke-dasharray="2 2"/><text fill="#333" font-family="sans-serif" font-size="13" lengthAdjust="spacing" textLength="193.686" x="68.833" y="316.0293">JSON Response (Subtrees data)</text><text fill="#333" font-family="sans-serif" font-size="10" lengthAdjust="spacing" textLength="155.4346" y="396.416">Last Modified On: 24-Feb-2025</text></svg>
