<svg contentStyleType="text/css" height="333" preserveAspectRatio="none" viewBox="0 0 584 333" width="584" xmlns="http://www.w3.org/2000/svg" zoomAndPan="magnify"><path d="m0 0h584v333h-584z" fill="#f0f8ff"/><path d="m294.9985 84.2871h10v163.5078h-10z" fill="#fff" stroke="#181818"/><path d="m516.6606 113.5977h10v112.8867h-10z" fill="#fff" stroke="#181818"/><path d="m196.2437 128.5977h381.1802v90.8867h-381.1802z" fill="none" stroke="#000" stroke-width="1.5"/><g stroke-width=".5"><path d="m51 52.9766v212.8183" stroke="#181818" stroke-dasharray="5 5"/><path d="m299.2437 52.9766v212.8183" stroke="#181818" stroke-dasharray="5 5"/><path d="m520.8975 52.9766v212.8183" stroke="#181818" stroke-dasharray="5 5"/><rect fill="#ddd" height="30.4883" rx="2.5" stroke="#666" width="93.666" x="5" y="21.4883"/></g><text fill="#333" font-family="sans-serif" font-size="14" lengthAdjust="spacing" textLength="79.666" x="12" y="42.0234">HTTP Client</text><rect fill="#ddd" height="30.4883" rx="2.5" stroke="#666" stroke-width=".5" width="93.666" x="5" y="264.7949"/><text fill="#333" font-family="sans-serif" font-size="14" lengthAdjust="spacing" textLength="79.666" x="12" y="285.3301">HTTP Client</text><rect fill="#ddd" height="46.9766" rx="2.5" stroke="#666" stroke-width=".5" width="187.5098" x="206.2437" y="5"/><text fill="#333" font-family="sans-serif" font-size="14" lengthAdjust="spacing" textLength="82.0039" x="258.9966" y="25.5352">HTTP Server</text><text fill="#333" font-family="sans-serif" font-size="14" lengthAdjust="spacing" textLength="173.5098" x="213.2437" y="42.0234">(asset/http_impl/http.go)</text><rect fill="#ddd" height="46.9766" rx="2.5" stroke="#666" stroke-width=".5" width="187.5098" x="206.2437" y="264.7949"/><text fill="#333" font-family="sans-serif" font-size="14" lengthAdjust="spacing" textLength="82.0039" x="258.9966" y="285.3301">HTTP Server</text><text fill="#333" font-family="sans-serif" font-size="14" lengthAdjust="spacing" textLength="173.5098" x="213.2437" y="301.8184">(asset/http_impl/http.go)</text><rect fill="#ddd" height="30.4883" rx="2.5" stroke="#666" stroke-width=".5" width="91.5264" x="475.8975" y="21.4883"/><text fill="#333" font-family="sans-serif" font-size="14" lengthAdjust="spacing" textLength="77.5264" x="482.8975" y="42.0234">UTXO Store</text><rect fill="#ddd" height="30.4883" rx="2.5" stroke="#666" stroke-width=".5" width="91.5264" x="475.8975" y="264.7949"/><text fill="#333" font-family="sans-serif" font-size="14" lengthAdjust="spacing" textLength="77.5264" x="482.8975" y="285.3301">UTXO Store</text><path d="m294.9985 84.2871h10v163.5078h-10z" fill="#fff" stroke="#181818"/><path d="m516.6606 113.5977h10v112.8867h-10z" fill="#fff" stroke="#181818"/><path d="m282.9985 80.2871 10 4-10 4 4-4z" fill="#666" stroke="#666"/><path d="m51.833 84.2871h237.1655" stroke="#666"/><text fill="#333" font-family="sans-serif" font-size="13" lengthAdjust="spacing" textLength="154.1719" x="58.833" y="79.5449">GET /txmeta/:hash/json</text><path d="m504.6606 109.5977 10 4-10 4 4-4z" fill="#666" stroke="#666"/><path d="m304.9985 113.5977h205.6621" stroke="#666"/><text fill="#333" font-family="sans-serif" font-size="13" lengthAdjust="spacing" textLength="87.6167" x="311.9985" y="108.8555">Get(ctx, hash)</text><path d="m196.2437 128.5977h62.1386v7.3105l-10 10h-52.1386z" fill="#eee" stroke="#000" stroke-width="1.5"/><path d="m196.2437 128.5977h381.1802v90.8867h-381.1802z" fill="none" stroke="#000" stroke-width="1.5"/><text fill="#333" font-family="sans-serif" font-size="13" font-weight="bold" lengthAdjust="spacing" textLength="17.1387" x="211.2437" y="142.166">alt</text><text fill="#333" font-family="sans-serif" font-size="11" font-weight="bold" lengthAdjust="spacing" textLength="152.9526" x="273.3823" y="141.2324">[UTXO Store has metadata]</text><path d="m315.9985 163.2188-10 4 10 4-4-4z" fill="#666" stroke="#666"/><path d="m309.9985 167.2188h205.6621" stroke="#666" stroke-dasharray="2 2"/><text fill="#333" font-family="sans-serif" font-size="13" lengthAdjust="spacing" textLength="187.6621" x="321.9985" y="162.4766">Transaction metadata in JSON</text><path d="m196.2437 176.2188h381.1801" stroke="#000" stroke-dasharray="2 2"/><text fill="#333" font-family="sans-serif" font-size="11" font-weight="bold" lengthAdjust="spacing" textLength="212.6416" x="201.2437" y="186.8535">[UTXO Store does not have metadata]</text><path d="m315.9985 207.4844-10 4 10 4-4-4z" fill="#666" stroke="#666"/><path d="m309.9985 211.4844h205.6621" stroke="#666" stroke-dasharray="2 2"/><text fill="#333" font-family="sans-serif" font-size="13" lengthAdjust="spacing" textLength="95.1831" x="321.9985" y="206.7422">Data not found</text><path d="m62.833 243.7949-10 4 10 4-4-4z" fill="#666" stroke="#666"/><path d="m56.833 247.7949h242.1655" stroke="#666" stroke-dasharray="2 2"/><text fill="#333" font-family="sans-serif" font-size="13" lengthAdjust="spacing" textLength="219.1655" x="68.833" y="243.0527">Response (JSON metadata or error)</text><text fill="#333" font-family="sans-serif" font-size="10" lengthAdjust="spacing" textLength="155.4346" y="323.4395">Last Modified On: 24-Feb-2025</text></svg>
