<svg contentStyleType="text/css" height="675" preserveAspectRatio="none" viewBox="0 0 660 675" width="660" xmlns="http://www.w3.org/2000/svg" zoomAndPan="magnify"><path d="m0 0h660v675h-660z" fill="#f0f8ff"/><g fill="#fff"><path d="m347.9082 84.2871h10v206.8184h-10z" stroke="#181818"/><path d="m347.9082 320.416h10v269.4395h-10z" stroke="#181818"/><path d="m497.4263 113.5977h10v485.2578h-10z" stroke="#181818"/><path d="m502.4263 398.3477h10v200.5078h-10z" stroke="#181818"/><path d="m586.3608 225.4844h10v29.3105h-10z" stroke="#181818"/><path d="m586.3608 510.2344h10v29.3105h-10z" stroke="#181818"/></g><path d="m249.1533 128.5977h385.3789v134.1973h-385.3789z" fill="none" stroke="#000" stroke-width="1.5"/><path d="m229.1533 335.416h425.3789v226.1289h-425.3789z" fill="none" stroke="#000" stroke-width="1.5"/><path d="m239.1533 359.7266h405.3789v194.8184h-405.3789z" fill="none" stroke="#000" stroke-width="1.5"/><path d="m249.1533 413.3477h385.3789v134.1973h-385.3789z" fill="none" stroke="#000" stroke-width="1.5"/><path d="m51 52.9766v554.8789" stroke="#181818" stroke-dasharray="5 5" stroke-width=".5"/><path d="m352.1533 52.9766v554.8789" stroke="#181818" stroke-dasharray="5 5" stroke-width=".5"/><path d="m501.6631 52.9766v554.8789" stroke="#181818" stroke-dasharray="5 5" stroke-width=".5"/><path d="m591.1895 52.9766v554.8789" stroke="#181818" stroke-dasharray="5 5" stroke-width=".5"/><rect fill="#ddd" height="30.4883" rx="2.5" stroke="#666" stroke-width=".5" width="93.666" x="5" y="21.4883"/><text fill="#333" font-family="sans-serif" font-size="14" lengthAdjust="spacing" textLength="79.666" x="12" y="42.0234">HTTP Client</text><rect fill="#ddd" height="30.4883" rx="2.5" stroke="#666" stroke-width=".5" width="93.666" x="5" y="606.8555"/><text fill="#333" font-family="sans-serif" font-size="14" lengthAdjust="spacing" textLength="79.666" x="12" y="627.3906">HTTP Client</text><rect fill="#ddd" height="46.9766" rx="2.5" stroke="#666" stroke-width=".5" width="187.5098" x="259.1533" y="5"/><text fill="#333" font-family="sans-serif" font-size="14" lengthAdjust="spacing" textLength="82.0039" x="311.9063" y="25.5352">HTTP Server</text><text fill="#333" font-family="sans-serif" font-size="14" lengthAdjust="spacing" textLength="173.5098" x="266.1533" y="42.0234">(asset/http_impl/http.go)</text><rect fill="#ddd" height="46.9766" rx="2.5" stroke="#666" stroke-width=".5" width="187.5098" x="259.1533" y="606.8555"/><text fill="#333" font-family="sans-serif" font-size="14" lengthAdjust="spacing" textLength="82.0039" x="311.9063" y="627.3906">HTTP Server</text><text fill="#333" font-family="sans-serif" font-size="14" lengthAdjust="spacing" textLength="173.5098" x="266.1533" y="643.8789">(asset/http_impl/http.go)</text><rect fill="#ddd" height="30.4883" rx="2.5" stroke="#666" stroke-width=".5" width="91.5264" x="456.6631" y="21.4883"/><text fill="#333" font-family="sans-serif" font-size="14" lengthAdjust="spacing" textLength="77.5264" x="463.6631" y="42.0234">UTXO Store</text><rect fill="#ddd" height="30.4883" rx="2.5" stroke="#666" stroke-width=".5" width="91.5264" x="456.6631" y="606.8555"/><text fill="#333" font-family="sans-serif" font-size="14" lengthAdjust="spacing" textLength="77.5264" x="463.6631" y="627.3906">UTXO Store</text><rect fill="#ddd" height="30.4883" rx="2.5" stroke="#666" stroke-width=".5" width="66.3428" x="558.1895" y="21.4883"/><text fill="#333" font-family="sans-serif" font-size="14" lengthAdjust="spacing" textLength="52.3428" x="565.1895" y="42.0234">TxStore</text><rect fill="#ddd" height="30.4883" rx="2.5" stroke="#666" stroke-width=".5" width="66.3428" x="558.1895" y="606.8555"/><text fill="#333" font-family="sans-serif" font-size="14" lengthAdjust="spacing" textLength="52.3428" x="565.1895" y="627.3906">TxStore</text><path d="m347.9082 84.2871h10v206.8184h-10z" fill="#fff" stroke="#181818"/><path d="m347.9082 320.416h10v269.4395h-10z" fill="#fff" stroke="#181818"/><path d="m497.4263 113.5977h10v485.2578h-10z" fill="#fff" stroke="#181818"/><path d="m502.4263 398.3477h10v200.5078h-10z" fill="#fff" stroke="#181818"/><path d="m586.3608 225.4844h10v29.3105h-10z" fill="#fff" stroke="#181818"/><path d="m586.3608 510.2344h10v29.3105h-10z" fill="#fff" stroke="#181818"/><path d="m335.9082 80.2871 10 4-10 4 4-4z" fill="#666" stroke="#666"/><path d="m51.833 84.2871h290.0752" stroke="#666"/><text fill="#333" font-family="sans-serif" font-size="13" lengthAdjust="spacing" textLength="277.0752" x="58.833" y="79.5449">GET /tx/:hash (BINARY_STREAM, HEX, JSON)</text><path d="m485.4263 109.5977 10 4-10 4 4-4z" fill="#666" stroke="#666"/><path d="m357.9082 113.5977h133.5181" stroke="#666"/><text fill="#333" font-family="sans-serif" font-size="13" lengthAdjust="spacing" textLength="87.6167" x="364.9082" y="108.8555">Get(ctx, hash)</text><path d="m249.1533 128.5977h62.1387v7.3105l-10 10h-52.1387z" fill="#eee" stroke="#000" stroke-width="1.5"/><path d="m249.1533 128.5977h385.3789v134.1973h-385.3789z" fill="none" stroke="#000" stroke-width="1.5"/><text fill="#333" font-family="sans-serif" font-size="13" font-weight="bold" lengthAdjust="spacing" textLength="17.1387" x="264.1533" y="142.166">alt</text><text fill="#333" font-family="sans-serif" font-size="11" font-weight="bold" lengthAdjust="spacing" textLength="121.29" x="326.292" y="141.2324">[UTXOStore has data]</text><path d="m368.9082 163.2188-10 4 10 4-4-4z" fill="#666" stroke="#666"/><path d="m362.9082 167.2188h133.5181" stroke="#666" stroke-dasharray="2 2"/><text fill="#333" font-family="sans-serif" font-size="13" lengthAdjust="spacing" textLength="99.5249" x="374.9082" y="162.4766">transactionData</text><path d="m249.1533 176.2188h385.3789" stroke="#000" stroke-dasharray="2 2"/><text fill="#333" font-family="sans-serif" font-size="11" font-weight="bold" lengthAdjust="spacing" textLength="180.979" x="254.1533" y="186.8535">[UTXOStore does not have data]</text><path d="m368.9082 192.1738-10 4 10 4-4-4z" fill="#666" stroke="#666"/><path d="m362.9082 196.1738h133.5181" stroke="#666" stroke-dasharray="2 2"/><path d="m574.3608 221.4844 10 4-10 4 4-4z" fill="#666" stroke="#666"/><path d="m357.9082 225.4844h222.4526" stroke="#666"/><text fill="#333" font-family="sans-serif" font-size="13" lengthAdjust="spacing" textLength="87.6167" x="364.9082" y="220.7422">Get(ctx, hash)</text><path d="m368.9082 250.7949-10 4 10 4-4-4z" fill="#666" stroke="#666"/><path d="m362.9082 254.7949h227.4526" stroke="#666" stroke-dasharray="2 2"/><text fill="#333" font-family="sans-serif" font-size="13" lengthAdjust="spacing" textLength="99.5249" x="374.9082" y="250.0527">transactionData</text><path d="m62.833 287.1055-10 4 10 4-4-4z" fill="#666" stroke="#666"/><path d="m56.833 291.1055h295.0752" stroke="#666" stroke-dasharray="2 2"/><text fill="#333" font-family="sans-serif" font-size="13" lengthAdjust="spacing" textLength="99.5249" x="68.833" y="286.3633">transactionData</text><path d="m335.9082 316.416 10 4-10 4 4-4z" fill="#666" stroke="#666"/><path d="m51.833 320.416h290.0752" stroke="#666"/><text fill="#333" font-family="sans-serif" font-size="13" lengthAdjust="spacing" textLength="162.4492" x="58.833" y="315.6738">POST /txs (List of hashes)</text><path d="m229.1533 335.416h62.1387v7.3106l-10 10h-52.1387z" fill="#eee" stroke="#000" stroke-width="1.5"/><path d="m229.1533 335.416h425.3789v226.1289h-425.3789z" fill="none" stroke="#000" stroke-width="1.5"/><text fill="#333" font-family="sans-serif" font-size="13" font-weight="bold" lengthAdjust="spacing" textLength="17.1387" x="244.1533" y="348.9844">alt</text><text fill="#333" font-family="sans-serif" font-size="11" font-weight="bold" lengthAdjust="spacing" textLength="127.0962" x="306.292" y="348.0508">[For Each Hash in List]</text><path d="m239.1533 359.7266h74.4468v7.3105l-10 10h-64.4468z" fill="#eee" stroke="#000" stroke-width="1.5"/><path d="m239.1533 359.7266h405.3789v194.8184h-405.3789z" fill="none" stroke="#000" stroke-width="1.5"/><text fill="#333" font-family="sans-serif" font-size="13" font-weight="bold" lengthAdjust="spacing" textLength="29.4468" x="254.1533" y="373.2949">loop</text><path d="m490.4263 394.3477 10 4-10 4 4-4z" fill="#666" stroke="#666"/><path d="m357.9082 398.3477h138.5181" stroke="#666"/><text fill="#333" font-family="sans-serif" font-size="13" lengthAdjust="spacing" textLength="87.6167" x="364.9082" y="393.6055">Get(ctx, hash)</text><path d="m249.1533 413.3477h62.1387v7.3105l-10 10h-52.1387z" fill="#eee" stroke="#000" stroke-width="1.5"/><path d="m249.1533 413.3477h385.3789v134.1973h-385.3789z" fill="none" stroke="#000" stroke-width="1.5"/><text fill="#333" font-family="sans-serif" font-size="13" font-weight="bold" lengthAdjust="spacing" textLength="17.1387" x="264.1533" y="426.916">alt</text><text fill="#333" font-family="sans-serif" font-size="11" font-weight="bold" lengthAdjust="spacing" textLength="124.9155" x="326.292" y="425.9824">[UTXO Store has data]</text><path d="m368.9082 447.9688-10 4 10 4-4-4z" fill="#666" stroke="#666"/><path d="m362.9082 451.9688h138.5181" stroke="#666" stroke-dasharray="2 2"/><text fill="#333" font-family="sans-serif" font-size="13" lengthAdjust="spacing" textLength="99.5249" x="374.9082" y="447.2266">transactionData</text><path d="m249.1533 460.9688h385.3789" stroke="#000" stroke-dasharray="2 2"/><text fill="#333" font-family="sans-serif" font-size="11" font-weight="bold" lengthAdjust="spacing" textLength="184.6045" x="254.1533" y="471.6035">[UTXO Store does not have data]</text><path d="m368.9082 476.9238-10 4 10 4-4-4z" fill="#666" stroke="#666"/><path d="m362.9082 480.9238h138.5181" stroke="#666" stroke-dasharray="2 2"/><path d="m574.3608 506.2344 10 4-10 4 4-4z" fill="#666" stroke="#666"/><path d="m357.9082 510.2344h222.4526" stroke="#666"/><text fill="#333" font-family="sans-serif" font-size="13" lengthAdjust="spacing" textLength="87.6167" x="364.9082" y="505.4922">Get(ctx, hash)</text><path d="m368.9082 535.5449-10 4 10 4-4-4z" fill="#666" stroke="#666"/><path d="m362.9082 539.5449h227.4526" stroke="#666" stroke-dasharray="2 2"/><text fill="#333" font-family="sans-serif" font-size="13" lengthAdjust="spacing" textLength="99.5249" x="374.9082" y="534.8027">transactionData</text><path d="m62.833 585.8555-10 4 10 4-4-4z" fill="#666" stroke="#666"/><path d="m56.833 589.8555h295.0752" stroke="#666" stroke-dasharray="2 2"/><text fill="#333" font-family="sans-serif" font-size="13" lengthAdjust="spacing" textLength="120.123" x="68.833" y="585.1133">All transactionData</text><text fill="#333" font-family="sans-serif" font-size="10" lengthAdjust="spacing" textLength="155.4346" y="665.5">Last Modified On: 24-Feb-2025</text></svg>
