<svg contentStyleType="text/css" height="566" preserveAspectRatio="none" viewBox="0 0 775 566" width="775" xmlns="http://www.w3.org/2000/svg" zoomAndPan="magnify"><g fill="#fff" stroke="#181818"><path d="m365.5 111.1094h10v394.7266h-10z"/><path d="m370.5 244.3516h10v261.4844h-10z"/><path d="m375.5 377.5938h10v127.2422h-10z"/></g><path d="m10 126.1094h497v46.6211h-497z" fill="none" stroke="#000" stroke-width="1.5"/><path d="m10 259.3516h497v46.6211h-497z" fill="none" stroke="#000" stroke-width="1.5"/><path d="m10 392.5938h748v105.2422h-748z" fill="none" stroke="#000" stroke-width="1.5"/><g stroke="#181818" stroke-width=".5"><g stroke-dasharray="5 5"><path d="m127 36.4883v478.3476"/><path d="m370 36.4883v478.3476"/><path d="m627 36.4883v478.3476"/></g><rect fill="#e2e2f0" height="30.4883" rx="2.5" width="54" x="100" y="5"/></g><text font-family="sans-serif" font-size="14" lengthAdjust="spacing" textLength="40" x="107" y="25.5352">Client</text><rect fill="#e2e2f0" height="30.4883" rx="2.5" stroke="#181818" stroke-width=".5" width="54" x="100" y="513.8359"/><text font-family="sans-serif" font-size="14" lengthAdjust="spacing" textLength="40" x="107" y="534.3711">Client</text><rect fill="#e2e2f0" height="30.4883" rx="2.5" stroke="#181818" stroke-width=".5" width="93" x="324" y="5"/><text font-family="sans-serif" font-size="14" lengthAdjust="spacing" textLength="79" x="331" y="25.5352">UTXO Store</text><rect fill="#e2e2f0" height="30.4883" rx="2.5" stroke="#181818" stroke-width=".5" width="93" x="324" y="513.8359"/><text font-family="sans-serif" font-size="14" lengthAdjust="spacing" textLength="79" x="331" y="534.3711">UTXO Store</text><rect fill="#e2e2f0" height="30.4883" rx="2.5" stroke="#181818" stroke-width=".5" width="81" x="587" y="5"/><text font-family="sans-serif" font-size="14" lengthAdjust="spacing" textLength="67" x="594" y="25.5352">DataStore</text><rect fill="#e2e2f0" height="30.4883" rx="2.5" stroke="#181818" stroke-width=".5" width="81" x="587" y="513.8359"/><text font-family="sans-serif" font-size="14" lengthAdjust="spacing" textLength="67" x="594" y="534.3711">DataStore</text><path d="m365.5 111.1094h10v394.7266h-10z" fill="#fff" stroke="#181818"/><path d="m370.5 244.3516h10v261.4844h-10z" fill="#fff" stroke="#181818"/><path d="m375.5 377.5938h10v127.2422h-10z" fill="#fff" stroke="#181818"/><path d="m0 67.1436h768v3h-768z" fill="#eee" stroke="#eee"/><path d="m0 67.1436h768" stroke="#000"/><path d="m0 70.1436h768" stroke="#000"/><path d="m259.5 56.4883h249v23.3105h-249z" fill="#eee" stroke="#000" stroke-width="2"/><text font-family="sans-serif" font-size="13" font-weight="bold" lengthAdjust="spacing" textLength="231" x="265.5" y="73.0566">Reset a UTXO - Key does not exist</text><path d="m353.5 107.1094 10 4-10 4 4-4z" fill="#181818" stroke="#181818"/><path d="m127 111.1094h232.5" stroke="#181818"/><text font-family="sans-serif" font-size="13" lengthAdjust="spacing" textLength="156" x="134" y="106.3672">Reset UTXO (UTXO Hash)</text><path d="m10 126.1094h62v7.3105l-10 10h-52z" fill="#eee" stroke="#000" stroke-width="1.5"/><path d="m10 126.1094h497v46.6211h-497z" fill="none" stroke="#000" stroke-width="1.5"/><text font-family="sans-serif" font-size="13" font-weight="bold" lengthAdjust="spacing" textLength="17" x="25" y="139.6777">alt</text><text font-family="sans-serif" font-size="11" font-weight="bold" lengthAdjust="spacing" textLength="110" x="87" y="138.7441">[Key does not exist]</text><path d="m138 160.7305-10 4 10 4-4-4z" fill="#181818" stroke="#181818"/><path d="m132 164.7305h232.5" stroke="#181818"/><text font-family="sans-serif" font-size="13" lengthAdjust="spacing" textLength="81" x="144" y="159.9883">NOT_FOUND</text><path d="m0 200.3857h768v3h-768z" fill="#eee" stroke="#eee"/><path d="m0 200.3857h768" stroke="#000"/><path d="m0 203.3857h768" stroke="#000"/><path d="m223.5 189.7305h321v23.3105h-321z" fill="#eee" stroke="#000" stroke-width="2"/><text font-family="sans-serif" font-size="13" font-weight="bold" lengthAdjust="spacing" textLength="303" x="229.5" y="206.2988">Reset a UTXO - Key exists and Value is NULL</text><path d="m358.5 240.3516 10 4-10 4 4-4z" fill="#181818" stroke="#181818"/><path d="m127 244.3516h237.5" stroke="#181818"/><text font-family="sans-serif" font-size="13" lengthAdjust="spacing" textLength="156" x="134" y="239.6094">Reset UTXO (UTXO Hash)</text><path d="m10 259.3516h62v7.3105l-10 10h-52z" fill="#eee" stroke="#000" stroke-width="1.5"/><path d="m10 259.3516h497v46.6211h-497z" fill="none" stroke="#000" stroke-width="1.5"/><text font-family="sans-serif" font-size="13" font-weight="bold" lengthAdjust="spacing" textLength="17" x="25" y="272.9199">alt</text><text font-family="sans-serif" font-size="11" font-weight="bold" lengthAdjust="spacing" textLength="169" x="87" y="271.9863">[Key exists and Value is NULL]</text><path d="m138 293.9727-10 4 10 4-4-4z" fill="#181818" stroke="#181818"/><path d="m132 297.9727h237.5" stroke="#181818"/><text font-family="sans-serif" font-size="13" lengthAdjust="spacing" textLength="102" x="144" y="293.2305">OK (Idempotent)</text><path d="m0 333.6279h768v3h-768z" fill="#eee" stroke="#eee"/><path d="m0 333.6279h768" stroke="#000"/><path d="m0 336.6279h768" stroke="#000"/><path d="m210.5 322.9727h347v23.3105h-347z" fill="#eee" stroke="#000" stroke-width="2"/><text font-family="sans-serif" font-size="13" font-weight="bold" lengthAdjust="spacing" textLength="329" x="216.5" y="339.541">Reset a UTXO - Key exists and Value is not NULL</text><path d="m363.5 373.5938 10 4-10 4 4-4z" fill="#181818" stroke="#181818"/><path d="m127 377.5938h242.5" stroke="#181818"/><text font-family="sans-serif" font-size="13" lengthAdjust="spacing" textLength="156" x="134" y="372.8516">Reset UTXO (UTXO Hash)</text><path d="m10 392.5938h62v7.3105l-10 10h-52z" fill="#eee" stroke="#000" stroke-width="1.5"/><path d="m10 392.5938h748v105.2422h-748z" fill="none" stroke="#000" stroke-width="1.5"/><text font-family="sans-serif" font-size="13" font-weight="bold" lengthAdjust="spacing" textLength="17" x="25" y="406.1621">alt</text><text font-family="sans-serif" font-size="11" font-weight="bold" lengthAdjust="spacing" textLength="191" x="87" y="405.2285">[Key exists and Value is not NULL]</text><path d="m615.5 427.2148 10 4-10 4 4-4z" fill="#181818" stroke="#181818"/><path d="m385.5 431.2148h236" stroke="#181818"/><text font-family="sans-serif" font-size="13" lengthAdjust="spacing" textLength="166" x="392.5" y="426.4727">Store NULL for UTXO Hash</text><path d="m396.5 456.5254-10 4 10 4-4-4z" fill="#181818" stroke="#181818"/><path d="m390.5 460.5254h236" stroke="#181818"/><text font-family="sans-serif" font-size="13" lengthAdjust="spacing" textLength="77" x="402.5" y="455.7832">NULL Stored</text><path d="m138 485.8359-10 4 10 4-4-4z" fill="#181818" stroke="#181818"/><path d="m132 489.8359h242.5" stroke="#181818"/><text font-family="sans-serif" font-size="13" lengthAdjust="spacing" textLength="18" x="144" y="485.0938">OK</text><text fill="#888" font-family="sans-serif" font-size="10" lengthAdjust="spacing" textLength="155" y="555.9922">Last Modified On: 24-Nov-2023</text></svg>
