<svg contentStyleType="text/css" height="424" preserveAspectRatio="none" viewBox="0 0 733 424" width="733" xmlns="http://www.w3.org/2000/svg" zoomAndPan="magnify"><ellipse cx="146.5" cy="20" fill="#222" rx="10" ry="10" stroke="#222"/><rect fill="#f1f1f1" height="33.9688" rx="12.5" stroke="#181818" stroke-width=".5" width="243" x="25" y="50"/><text font-family="sans-serif" font-size="12" lengthAdjust="spacing" textLength="223" x="35" y="71.1387">Receive TXID, VOUT, Script, Satoshis</text><path d="m247 108.3867v8.5664l-20 4 20 4v8.5664a0 0 0 0 0 0 0h148a0 0 0 0 0 0 0v-15.1328l-10-10h-138a0 0 0 0 0 0 0" fill="#feffdd" stroke="#181818" stroke-width=".5"/><path d="m385 108.3867v10h10z" fill="#feffdd" stroke="#181818" stroke-width=".5"/><text font-family="sans-serif" font-size="13" lengthAdjust="spacing" textLength="127" x="253" y="125.4536">UTXO Hash Created</text><rect fill="#f1f1f1" height="33.9688" rx="12.5" stroke="#181818" stroke-width=".5" width="161" x="66" y="103.9688"/><text font-family="sans-serif" font-size="12" lengthAdjust="spacing" textLength="141" x="76" y="125.1074">Compute SHA256 Hash</text><rect fill="#f1f1f1" height="33.9688" rx="12.5" stroke="#181818" stroke-width=".5" width="271" x="11" y="157.9375"/><text font-family="sans-serif" font-size="12" lengthAdjust="spacing" textLength="251" x="21" y="179.0762">Store UTXO with Hash Key and Lock Time</text><g stroke="#222"><ellipse cx="146.5" cy="222.9063" fill="none" rx="11" ry="11"/><ellipse cx="146.5" cy="222.9063" fill="#222" rx="6" ry="6"/><ellipse cx="146.5" cy="253.9063" fill="#222" rx="10" ry="10"/></g><rect fill="#f1f1f1" height="33.9688" rx="12.5" stroke="#181818" stroke-width=".5" width="59" x="117" y="283.9063"/><text font-family="sans-serif" font-size="12" lengthAdjust="spacing" textLength="39" x="127" y="305.0449">Spend</text><path d="m268.5 342.293v8.5664l-20 4 20 4v8.5664a0 0 0 0 0 0 0h453a0 0 0 0 0 0 0v-15.1328l-10-10h-443a0 0 0 0 0 0 0" fill="#feffdd" stroke="#181818" stroke-width=".5"/><path d="m711.5 342.293v10h10z" fill="#feffdd" stroke="#181818" stroke-width=".5"/><text font-family="sans-serif" font-size="13" lengthAdjust="spacing" textLength="432" x="274.5" y="359.3599">UTXO is marked as spent by the specific TX that used it as an input</text><rect fill="#f1f1f1" height="33.9688" rx="12.5" stroke="#181818" stroke-width=".5" width="204" x="44.5" y="337.875"/><text font-family="sans-serif" font-size="12" lengthAdjust="spacing" textLength="184" x="54.5" y="359.0137">Update UTXO with Spend TXID</text><ellipse cx="146.5" cy="402.8438" fill="none" rx="11" ry="11" stroke="#222"/><ellipse cx="146.5" cy="402.8438" fill="#222" rx="6" ry="6" stroke="#222"/><g stroke="#181818"><path d="m146.5 30v20"/><path d="m142.5 40 4 10 4-10-4 4z" fill="#181818"/><path d="m146.5 83.9688v20"/><path d="m142.5 93.9688 4 10 4-10-4 4z" fill="#181818"/><path d="m146.5 137.9375v20"/><path d="m142.5 147.9375 4 10 4-10-4 4z" fill="#181818"/><path d="m146.5 191.9063v20"/><path d="m142.5 201.9063 4 10 4-10-4 4z" fill="#181818"/><path d="m146.5 263.9063v20"/><path d="m142.5 273.9063 4 10 4-10-4 4z" fill="#181818"/><path d="m146.5 317.875v20"/><path d="m142.5 327.875 4 10 4-10-4 4z" fill="#181818"/><path d="m146.5 371.8438v20"/><path d="m142.5 381.8438 4 10 4-10-4 4z" fill="#181818"/></g></svg>
