<svg contentStyleType="text/css" height="577" preserveAspectRatio="none" viewBox="0 0 526 577" width="526" xmlns="http://www.w3.org/2000/svg" zoomAndPan="magnify"><g fill="#fff"><path d="m91.5 119.1094h10v397.6816h-10z" stroke="#181818"/><path d="m96.5 185.7305h10v330.0605h-10z" stroke="#181818"/><path d="m101.5 270.3516h10v238.4395h-10z" stroke="#181818"/><path d="m432.5 270.3516h10v246.4395h-10z" stroke="#181818"/><path d="m437.5 373.5938h10v135.1973h-10z" stroke="#181818"/></g><path d="m10 139.1094h499v369.6816h-499z" fill="none" stroke="#000" stroke-width="1.5"/><path d="m20 290.3516h479v211.4395h-479z" fill="none" stroke="#000" stroke-width="1.5"/><path d="m30 403.5488h459v91.2422h-459z" fill="none" stroke="#000" stroke-width="1.5"/><path d="m96 36.4883v489.3027" stroke="#181818" stroke-dasharray="5 5" stroke-width=".5"/><path d="m437 36.4883v489.3027" stroke="#181818" stroke-dasharray="5 5" stroke-width=".5"/><rect fill="#e2e2f0" height="30.4883" rx="2.5" stroke="#181818" stroke-width=".5" width="113" x="40" y="5"/><text font-family="sans-serif" font-size="14" lengthAdjust="spacing" textLength="99" x="47" y="25.5352">Block Persister</text><rect fill="#e2e2f0" height="30.4883" rx="2.5" stroke="#181818" stroke-width=".5" width="113" x="40" y="524.791"/><text font-family="sans-serif" font-size="14" lengthAdjust="spacing" textLength="99" x="47" y="545.3262">Block Persister</text><rect fill="#e2e2f0" height="30.4883" rx="2.5" stroke="#181818" stroke-width=".5" width="83" x="396" y="5"/><text font-family="sans-serif" font-size="14" lengthAdjust="spacing" textLength="69" x="403" y="25.5352">UtxoStore</text><rect fill="#e2e2f0" height="30.4883" rx="2.5" stroke="#181818" stroke-width=".5" width="83" x="396" y="524.791"/><text font-family="sans-serif" font-size="14" lengthAdjust="spacing" textLength="69" x="403" y="545.3262">UtxoStore</text><path d="m91.5 119.1094h10v397.6816h-10z" fill="#fff" stroke="#181818"/><path d="m96.5 185.7305h10v330.0605h-10z" fill="#fff" stroke="#181818"/><path d="m101.5 270.3516h10v238.4395h-10z" fill="#fff" stroke="#181818"/><path d="m432.5 270.3516h10v246.4395h-10z" fill="#fff" stroke="#181818"/><path d="m437.5 373.5938h10v135.1973h-10z" fill="#fff" stroke="#181818"/><path d="m0 67.1436h519v3h-519z" fill="#eee" stroke="#eee"/><path d="m0 67.1436h519" stroke="#000"/><path d="m0 70.1436h519" stroke="#000"/><path d="m211 56.4883h97v23.3105h-97z" fill="#eee" stroke="#000" stroke-width="2"/><text font-family="sans-serif" font-size="13" font-weight="bold" lengthAdjust="spacing" textLength="79" x="217" y="73.0566">Fetch UTXO</text><path d="m96.5 106.1094h47" stroke="#181818"/><path d="m143.5 106.1094v13" stroke="#181818"/><path d="m102.5 119.1094h41" stroke="#181818"/><path d="m112.5 115.1094-10 4 10 4-4-4z" fill="#181818" stroke="#181818"/><text font-family="sans-serif" font-size="13" lengthAdjust="spacing" textLength="256" x="108.5" y="101.3672">persistBlock(ctx, blockHash, blockBytes)</text><path d="m10 139.1094h74v7.3105l-10 10h-64z" fill="#eee" stroke="#000" stroke-width="1.5"/><path d="m10 139.1094h499v369.6816h-499z" fill="none" stroke="#000" stroke-width="1.5"/><text font-family="sans-serif" font-size="13" font-weight="bold" lengthAdjust="spacing" textLength="29" x="25" y="152.6777">loop</text><text font-family="sans-serif" font-size="11" font-weight="bold" lengthAdjust="spacing" textLength="170" x="99" y="151.7441">[for each subtree in the block]</text><path d="m101.5 172.7305h47" stroke="#181818"/><path d="m148.5 172.7305v13" stroke="#181818"/><path d="m107.5 185.7305h41" stroke="#181818"/><path d="m117.5 181.7305-10 4 10 4-4-4z" fill="#181818" stroke="#181818"/><text font-family="sans-serif" font-size="13" lengthAdjust="spacing" textLength="272" x="113.5" y="167.9883">processSubtree(ctx, subtreeHash, utxoDiff)</text><path d="m106.5 220.041h42" stroke="#181818"/><path d="m148.5 220.041v13" stroke="#181818"/><path d="m107.5 233.041h41" stroke="#181818"/><path d="m117.5 229.041-10 4 10 4-4-4z" fill="#181818" stroke="#181818"/><text font-family="sans-serif" font-size="13" lengthAdjust="spacing" textLength="263" x="113.5" y="215.2988">Collect the list of txHashes in the Subtree</text><path d="m106.5 257.3516h47" stroke="#181818"/><path d="m153.5 257.3516v13" stroke="#181818"/><path d="m112.5 270.3516h41" stroke="#181818"/><path d="m122.5 266.3516-10 4 10 4-4-4z" fill="#181818" stroke="#181818"/><text font-family="sans-serif" font-size="13" lengthAdjust="spacing" textLength="312" x="118.5" y="252.6094">processTxMetaUsingStore(ctx, txHashes, txBytes)</text><path d="m20 290.3516h62v7.3105l-10 10h-52z" fill="#eee" stroke="#000" stroke-width="1.5"/><path d="m20 290.3516h479v211.4395h-479z" fill="none" stroke="#000" stroke-width="1.5"/><text font-family="sans-serif" font-size="13" font-weight="bold" lengthAdjust="spacing" textLength="17" x="35" y="303.9199">alt</text><text font-family="sans-serif" font-size="11" font-weight="bold" lengthAdjust="spacing" textLength="4" x="97" y="302.9863">[</text><text font-family="sans-serif" font-size="11" font-weight="bold" lengthAdjust="spacing" textLength="112" x="133" y="302.9863">batched processing]</text><path d="m420.5 324.9727 10 4-10 4 4-4z" fill="#181818" stroke="#181818"/><path d="m111.5 328.9727h315" stroke="#181818"/><text font-family="sans-serif" font-size="13" lengthAdjust="spacing" textLength="246" x="118.5" y="324.2305">MetaBatchDecorate(ctx, txHashes, "tx")</text><path d="m122.5 369.5938-10 4 10 4-4-4z" fill="#181818" stroke="#181818"/><path d="m116.5 373.5938h320" stroke="#181818"/><text font-family="sans-serif" font-size="13" lengthAdjust="spacing" textLength="258" x="128.5" y="353.541">Return UTXO Meta Data for the tx hashes</text><text font-family="sans-serif" font-size="13" lengthAdjust="spacing" textLength="4" x="128.5" y="368.8516"></text><path d="m20 382.5938h479" stroke="#000" stroke-dasharray="2 2"/><text font-family="sans-serif" font-size="11" font-weight="bold" lengthAdjust="spacing" textLength="4" x="25" y="393.2285">[</text><text font-family="sans-serif" font-size="11" font-weight="bold" lengthAdjust="spacing" textLength="4" x="57" y="393.2285"></text><text font-family="sans-serif" font-size="11" font-weight="bold" lengthAdjust="spacing" textLength="4" x="89" y="393.2285"></text><text font-family="sans-serif" font-size="11" font-weight="bold" lengthAdjust="spacing" textLength="103" x="125" y="393.2285">single processing]</text><path d="m30 403.5488h74v7.3106l-10 10h-64z" fill="#eee" stroke="#000" stroke-width="1.5"/><path d="m30 403.5488h459v91.2422h-459z" fill="none" stroke="#000" stroke-width="1.5"/><text font-family="sans-serif" font-size="13" font-weight="bold" lengthAdjust="spacing" textLength="29" x="45" y="417.1172">loop</text><text font-family="sans-serif" font-size="11" font-weight="bold" lengthAdjust="spacing" textLength="179" x="119" y="416.1836">[for each tx hash in the subtree]</text><path d="m425.5 438.1699 10 4-10 4 4-4z" fill="#181818" stroke="#181818"/><path d="m111.5 442.1699h320" stroke="#181818"/><text font-family="sans-serif" font-size="13" lengthAdjust="spacing" textLength="132" x="118.5" y="437.4277">GetMeta(ctx, txHash)</text><path d="m122.5 482.791-10 4 10 4-4-4z" fill="#181818" stroke="#181818"/><path d="m116.5 486.791h320" stroke="#181818"/><text font-family="sans-serif" font-size="13" lengthAdjust="spacing" textLength="244" x="128.5" y="466.7383">Return UTXO Meta Data for the tx hash</text><text font-family="sans-serif" font-size="13" lengthAdjust="spacing" textLength="4" x="128.5" y="482.0488"></text><text fill="#888" font-family="sans-serif" font-size="10" lengthAdjust="spacing" textLength="152" y="566.9473">Last Modified On: 4-June-2024</text></svg>
