<svg contentStyleType="text/css" height="415" preserveAspectRatio="none" viewBox="0 0 756 415" width="756" xmlns="http://www.w3.org/2000/svg" zoomAndPan="magnify"><g stroke="#181818"><path d="m231 112.4297h10v203.9297h-10z" fill="#fff"/><path d="m434 141.5625h10v145.6641h-10z" fill="#fff"/><path d="m571.5 170.6953h10v87.3984h-10z" fill="#fff"/><path d="m710.5 199.8281h10v29.1328h-10z" fill="#fff"/><path d="m32 81.2969v253.0625" stroke-dasharray="5 5" stroke-width=".5"/><path d="m236 81.2969v253.0625" stroke-dasharray="5 5" stroke-width=".5"/><path d="m439 81.2969v253.0625" stroke-dasharray="5 5" stroke-width=".5"/><path d="m576 81.2969v253.0625" stroke-dasharray="5 5" stroke-width=".5"/><path d="m715.5 81.2969v253.0625" stroke-dasharray="5 5" stroke-width=".5"/></g><text font-family="sans-serif" font-size="14" lengthAdjust="spacing" textLength="48" x="5" y="77.9951">UI User</text><ellipse cx="32" cy="13.5" fill="#e2e2f0" rx="8" ry="8" stroke="#181818" stroke-width=".5"/><path d="m32 21.5v27m-13-19h26m-13 19-13 15m13-15 13 15" fill="none" stroke="#181818" stroke-width=".5"/><text font-family="sans-serif" font-size="14" lengthAdjust="spacing" textLength="48" x="5" y="346.3545">UI User</text><ellipse cx="32" cy="358.1563" fill="#e2e2f0" rx="8" ry="8" stroke="#181818" stroke-width=".5"/><path d="m32 366.1563v27m-13-19h26m-13 19-13 15m13-15 13 15" fill="none" stroke="#181818" stroke-width=".5"/><rect fill="#e2e2f0" height="30.2969" rx="2.5" stroke="#181818" stroke-width=".5" width="108" x="182" y="50"/><text font-family="sans-serif" font-size="14" lengthAdjust="spacing" textLength="94" x="189" y="69.9951">UI Dashboard</text><rect fill="#e2e2f0" height="30.2969" rx="2.5" stroke="#181818" stroke-width=".5" width="108" x="182" y="333.3594"/><text font-family="sans-serif" font-size="14" lengthAdjust="spacing" textLength="94" x="189" y="353.3545">UI Dashboard</text><rect fill="#e2e2f0" height="30.2969" rx="2.5" stroke="#181818" stroke-width=".5" width="158" x="360" y="50"/><text font-family="sans-serif" font-size="14" lengthAdjust="spacing" textLength="144" x="367" y="69.9951">AssetService (HTTP)</text><rect fill="#e2e2f0" height="30.2969" rx="2.5" stroke="#181818" stroke-width=".5" width="158" x="360" y="333.3594"/><text font-family="sans-serif" font-size="14" lengthAdjust="spacing" textLength="144" x="367" y="353.3545">AssetService (HTTP)</text><rect fill="#e2e2f0" height="30.2969" rx="2.5" stroke="#181818" stroke-width=".5" width="97" x="528" y="50"/><text font-family="sans-serif" font-size="14" lengthAdjust="spacing" textLength="83" x="535" y="69.9951">UTXO Store</text><rect fill="#e2e2f0" height="30.2969" rx="2.5" stroke="#181818" stroke-width=".5" width="97" x="528" y="333.3594"/><text font-family="sans-serif" font-size="14" lengthAdjust="spacing" textLength="83" x="535" y="353.3545">UTXO Store</text><text font-family="sans-serif" font-size="14" lengthAdjust="spacing" textLength="74" x="675.5" y="77.9951">DataStore</text><path d="m697.5 29c0-10 18-10 18-10s18 0 18 10v26c0 10-18 10-18 10s-18 0-18-10z" fill="#e2e2f0" stroke="#181818" stroke-width="1.5"/><path d="m697.5 29c0 10 18 10 18 10s18 0 18-10" fill="none" stroke="#181818" stroke-width="1.5"/><text font-family="sans-serif" font-size="14" lengthAdjust="spacing" textLength="74" x="675.5" y="346.3545">DataStore</text><path d="m697.5 359.6563c0-10 18-10 18-10s18 0 18 10v26c0 10-18 10-18 10s-18 0-18-10z" fill="#e2e2f0" stroke="#181818" stroke-width="1.5"/><path d="m697.5 359.6563c0 10 18 10 18 10s18 0 18-10" fill="none" stroke="#181818" stroke-width="1.5"/><path d="m231 112.4297h10v203.9297h-10z" fill="#fff" stroke="#181818"/><path d="m434 141.5625h10v145.6641h-10z" fill="#fff" stroke="#181818"/><path d="m571.5 170.6953h10v87.3984h-10z" fill="#fff" stroke="#181818"/><path d="m710.5 199.8281h10v29.1328h-10z" fill="#fff" stroke="#181818"/><path d="m219 108.4297 10 4-10 4 4-4z" fill="#181818" stroke="#181818"/><path d="m32 112.4297h193" stroke="#181818"/><text font-family="sans-serif" font-size="13" lengthAdjust="spacing" textLength="180" x="39" y="107.3638">Request to View UTXO Data</text><path d="m422 137.5625 10 4-10 4 4-4z" fill="#181818" stroke="#181818"/><path d="m241 141.5625h187" stroke="#181818"/><text font-family="sans-serif" font-size="13" lengthAdjust="spacing" textLength="128" x="248" y="136.4966">Request UTXO Data</text><path d="m559.5 166.6953 10 4-10 4 4-4z" fill="#181818" stroke="#181818"/><path d="m444 170.6953h121.5" stroke="#181818"/><text font-family="sans-serif" font-size="13" lengthAdjust="spacing" textLength="33" x="451" y="165.6294">Get()</text><path d="m698.5 195.8281 10 4-10 4 4-4z" fill="#181818" stroke="#181818"/><path d="m581.5 199.8281h123" stroke="#181818"/><text font-family="sans-serif" font-size="13" lengthAdjust="spacing" textLength="110" x="588.5" y="194.7622">Fetch UTXO Data</text><path d="m592.5 224.9609-10 4 10 4-4-4z" fill="#181818" stroke="#181818"/><path d="m586.5 228.9609h128" stroke="#181818" stroke-dasharray="2 2"/><text font-family="sans-serif" font-size="13" lengthAdjust="spacing" textLength="71" x="598.5" y="223.895">UTXO Data</text><path d="m455 254.0938-10 4 10 4-4-4z" fill="#181818" stroke="#181818"/><path d="m449 258.0938h126.5" stroke="#181818" stroke-dasharray="2 2"/><text font-family="sans-serif" font-size="13" lengthAdjust="spacing" textLength="71" x="461" y="253.0278">UTXO Data</text><path d="m252 283.2266-10 4 10 4-4-4z" fill="#181818" stroke="#181818"/><path d="m246 287.2266h192" stroke="#181818" stroke-dasharray="2 2"/><text font-family="sans-serif" font-size="13" lengthAdjust="spacing" textLength="169" x="258" y="282.1606">Response with UTXO Data</text><path d="m43 312.3594-10 4 10 4-4-4z" fill="#181818" stroke="#181818"/><path d="m37 316.3594h198" stroke="#181818" stroke-dasharray="2 2"/><text font-family="sans-serif" font-size="13" lengthAdjust="spacing" textLength="122" x="49" y="311.2935">UTXO Data Loaded</text></svg>
