<svg contentStyleType="text/css" height="490" preserveAspectRatio="none" viewBox="0 0 487 490" width="487" xmlns="http://www.w3.org/2000/svg" zoomAndPan="magnify"><g stroke="#181818"><path d="m228.5 142.1094h10v87.9316h-10z" fill="#fff"/><path d="m228.5 302.6621h10v87.9316h-10z" fill="#fff"/><path d="m378.5 171.4199h10v29.3105h-10z" fill="#fff"/><path d="m378.5 331.9727h10v29.3105h-10z" fill="#fff"/><path d="m64 67.4883v341.1055" stroke-dasharray="5 5" stroke-width=".5"/><path d="m233 67.4883v341.1055" stroke-dasharray="5 5" stroke-width=".5"/><path d="m383.5 67.4883v341.1055" stroke-dasharray="5 5" stroke-width=".5"/><rect fill="#e2e2f0" height="30.4883" rx="2.5" stroke-width=".5" width="119" x="5" y="36"/></g><text font-family="sans-serif" font-size="14" lengthAdjust="spacing" textLength="105" x="12" y="56.5352">Block Assembly</text><rect fill="#e2e2f0" height="30.4883" rx="2.5" stroke="#181818" stroke-width=".5" width="119" x="5" y="407.5938"/><text font-family="sans-serif" font-size="14" lengthAdjust="spacing" textLength="105" x="12" y="428.1289">Block Assembly</text><rect fill="#e2e2f0" height="30.4883" rx="2.5" stroke="#181818" stroke-width=".5" width="93" x="187" y="36"/><text font-family="sans-serif" font-size="14" lengthAdjust="spacing" textLength="79" x="194" y="56.5352">UTXO Store</text><rect fill="#e2e2f0" height="30.4883" rx="2.5" stroke="#181818" stroke-width=".5" width="93" x="187" y="407.5938"/><text font-family="sans-serif" font-size="14" lengthAdjust="spacing" textLength="79" x="194" y="428.1289">UTXO Store</text><text font-family="sans-serif" font-size="14" lengthAdjust="spacing" textLength="178" x="291.5" y="64.5352">Datastore Implementation</text><path d="m365.5 15c0-10 18-10 18-10s18 0 18 10v26c0 10-18 10-18 10s-18 0-18-10z" fill="#e2e2f0" stroke="#181818" stroke-width="1.5"/><path d="m365.5 15c0 10 18 10 18 10s18 0 18-10" fill="none" stroke="#181818" stroke-width="1.5"/><text font-family="sans-serif" font-size="14" lengthAdjust="spacing" textLength="178" x="291.5" y="421.1289">Datastore Implementation</text><path d="m365.5 434.082c0-10 18-10 18-10s18 0 18 10v26c0 10-18 10-18 10s-18 0-18-10z" fill="#e2e2f0" stroke="#181818" stroke-width="1.5"/><path d="m365.5 434.082c0 10 18 10 18 10s18 0 18-10" fill="none" stroke="#181818" stroke-width="1.5"/><path d="m228.5 142.1094h10v87.9316h-10z" fill="#fff" stroke="#181818"/><path d="m228.5 302.6621h10v87.9316h-10z" fill="#fff" stroke="#181818"/><path d="m378.5 171.4199h10v29.3105h-10z" fill="#fff" stroke="#181818"/><path d="m378.5 331.9727h10v29.3105h-10z" fill="#fff" stroke="#181818"/><path d="m0 98.1436h480.5v3h-480.5z" fill="#eee" stroke="#eee"/><path d="m0 98.1436h480.5" stroke="#000"/><path d="m0 101.1436h480.5" stroke="#000"/><path d="m165.25 87.4883h150v23.3105h-150z" fill="#eee" stroke="#000" stroke-width="2"/><text font-family="sans-serif" font-size="13" font-weight="bold" lengthAdjust="spacing" textLength="132" x="171.25" y="104.0566">Create Coinbase TX</text><path d="m216.5 138.1094 10 4-10 4 4-4z" fill="#181818" stroke="#181818"/><path d="m64.5 142.1094h158" stroke="#181818"/><text font-family="sans-serif" font-size="13" lengthAdjust="spacing" textLength="137" x="71.5" y="137.3672">Store(Coinbase UTXO)</text><path d="m366.5 167.4199 10 4-10 4 4-4z" fill="#181818" stroke="#181818"/><path d="m238.5 171.4199h134" stroke="#181818"/><text font-family="sans-serif" font-size="13" lengthAdjust="spacing" textLength="71" x="245.5" y="166.6777">Store UTXO</text><path d="m249.5 196.7305-10 4 10 4-4-4z" fill="#181818" stroke="#181818"/><path d="m243.5 200.7305h139" stroke="#181818" stroke-dasharray="2 2"/><text font-family="sans-serif" font-size="13" lengthAdjust="spacing" textLength="116" x="255.5" y="195.9883">Acknowledgement</text><path d="m75.5 226.041-10 4 10 4-4-4z" fill="#181818" stroke="#181818"/><path d="m69.5 230.041h163" stroke="#181818" stroke-dasharray="2 2"/><text font-family="sans-serif" font-size="13" lengthAdjust="spacing" textLength="83" x="81.5" y="225.2988">Confirmation</text><path d="m0 258.6963h480.5v3h-480.5z" fill="#eee" stroke="#eee"/><path d="m0 258.6963h480.5" stroke="#000"/><path d="m0 261.6963h480.5" stroke="#000"/><path d="m165.75 248.041h149v23.3105h-149z" fill="#eee" stroke="#000" stroke-width="2"/><text font-family="sans-serif" font-size="13" font-weight="bold" lengthAdjust="spacing" textLength="131" x="171.75" y="264.6094">Delete Coinbase TX</text><path d="m216.5 298.6621 10 4-10 4 4-4z" fill="#181818" stroke="#181818"/><path d="m64.5 302.6621h158" stroke="#181818"/><text font-family="sans-serif" font-size="13" lengthAdjust="spacing" textLength="145" x="71.5" y="297.9199">Delete(Coinbase UTXO)</text><path d="m366.5 327.9727 10 4-10 4 4-4z" fill="#181818" stroke="#181818"/><path d="m238.5 331.9727h134" stroke="#181818"/><text font-family="sans-serif" font-size="13" lengthAdjust="spacing" textLength="79" x="245.5" y="327.2305">Delete UTXO</text><path d="m249.5 357.2832-10 4 10 4-4-4z" fill="#181818" stroke="#181818"/><path d="m243.5 361.2832h139" stroke="#181818" stroke-dasharray="2 2"/><text font-family="sans-serif" font-size="13" lengthAdjust="spacing" textLength="116" x="255.5" y="356.541">Acknowledgement</text><path d="m75.5 386.5938-10 4 10 4-4-4z" fill="#181818" stroke="#181818"/><path d="m69.5 390.5938h163" stroke="#181818" stroke-dasharray="2 2"/><text font-family="sans-serif" font-size="13" lengthAdjust="spacing" textLength="83" x="81.5" y="385.8516">Confirmation</text><text fill="#888" font-family="sans-serif" font-size="10" lengthAdjust="spacing" textLength="155" y="480.75">Last Modified On: 23-Nov-2023</text></svg>
