<svg contentStyleType="text/css" height="719" preserveAspectRatio="none" viewBox="0 0 430 719" width="430" xmlns="http://www.w3.org/2000/svg" zoomAndPan="magnify"><g stroke="#181818"><path d="m367 111.1094h10v29.3105h-10z" fill="#fff"/><path d="m367 213.041h10v29.3105h-10z" fill="#fff"/><path d="m367 314.9727h10v29.3105h-10z" fill="#fff"/><path d="m367 416.9043h10v29.3105h-10z" fill="#fff"/><path d="m367 518.8359h10v29.3105h-10z" fill="#fff"/><path d="m367 620.7676h10v29.3105h-10z" fill="#fff"/><path d="m103 36.4883v631.5898" stroke-dasharray="5 5" stroke-width=".5"/><path d="m371.5 36.4883v631.5898" stroke-dasharray="5 5" stroke-width=".5"/><rect fill="#e2e2f0" height="30.4883" rx="2.5" stroke-width=".5" width="196" x="5" y="5"/></g><text font-family="sans-serif" font-size="14" lengthAdjust="spacing" textLength="182" x="12" y="25.5352">TX Validator (Validator.go)</text><rect fill="#e2e2f0" height="30.4883" rx="2.5" stroke="#181818" stroke-width=".5" width="196" x="5" y="667.0781"/><text font-family="sans-serif" font-size="14" lengthAdjust="spacing" textLength="182" x="12" y="687.6133">TX Validator (Validator.go)</text><rect fill="#e2e2f0" height="30.4883" rx="2.5" stroke="#181818" stroke-width=".5" width="93" x="325.5" y="5"/><text font-family="sans-serif" font-size="14" lengthAdjust="spacing" textLength="79" x="332.5" y="25.5352">UTXO Store</text><rect fill="#e2e2f0" height="30.4883" rx="2.5" stroke="#181818" stroke-width=".5" width="93" x="325.5" y="667.0781"/><text font-family="sans-serif" font-size="14" lengthAdjust="spacing" textLength="79" x="332.5" y="687.6133">UTXO Store</text><path d="m367 111.1094h10v29.3105h-10z" fill="#fff" stroke="#181818"/><path d="m367 213.041h10v29.3105h-10z" fill="#fff" stroke="#181818"/><path d="m367 314.9727h10v29.3105h-10z" fill="#fff" stroke="#181818"/><path d="m367 416.9043h10v29.3105h-10z" fill="#fff" stroke="#181818"/><path d="m367 518.8359h10v29.3105h-10z" fill="#fff" stroke="#181818"/><path d="m367 620.7676h10v29.3105h-10z" fill="#fff" stroke="#181818"/><path d="m0 67.1436h423.5v3h-423.5z" fill="#eee" stroke="#eee"/><path d="m0 67.1436h423.5" stroke="#000"/><path d="m0 70.1436h423.5" stroke="#000"/><path d="m140.75 56.4883h142v23.3105h-142z" fill="#eee" stroke="#000" stroke-width="2"/><text font-family="sans-serif" font-size="13" font-weight="bold" lengthAdjust="spacing" textLength="124" x="146.75" y="73.0566">Fetch Block Height</text><path d="m355 107.1094 10 4-10 4 4-4z" fill="#181818" stroke="#181818"/><path d="m103 111.1094h258" stroke="#181818"/><text font-family="sans-serif" font-size="13" lengthAdjust="spacing" textLength="104" x="110" y="106.3672">getBlockHeight()</text><path d="m114 136.4199-10 4 10 4-4-4z" fill="#181818" stroke="#181818"/><path d="m108 140.4199h263" stroke="#181818" stroke-dasharray="2 2"/><text font-family="sans-serif" font-size="13" lengthAdjust="spacing" textLength="80" x="120" y="135.6777">Block Height</text><path d="m0 169.0752h423.5v3h-423.5z" fill="#eee" stroke="#eee"/><path d="m0 169.0752h423.5" stroke="#000"/><path d="m0 172.0752h423.5" stroke="#000"/><path d="m160.25 158.4199h103v23.3105h-103z" fill="#eee" stroke="#000" stroke-width="2"/><text font-family="sans-serif" font-size="13" font-weight="bold" lengthAdjust="spacing" textLength="85" x="166.25" y="174.9883">Spend UTXO</text><path d="m355 209.041 10 4-10 4 4-4z" fill="#181818" stroke="#181818"/><path d="m103 213.041h258" stroke="#181818"/><text font-family="sans-serif" font-size="13" lengthAdjust="spacing" textLength="119" x="110" y="208.2988">Spend(ctx, spends)</text><path d="m114 238.3516-10 4 10 4-4-4z" fill="#181818" stroke="#181818"/><path d="m108 242.3516h263" stroke="#181818" stroke-dasharray="2 2"/><text font-family="sans-serif" font-size="13" lengthAdjust="spacing" textLength="142" x="120" y="237.6094">Confirmation of Spend</text><path d="m0 271.0068h423.5v3h-423.5z" fill="#eee" stroke="#eee"/><path d="m0 271.0068h423.5" stroke="#000"/><path d="m0 274.0068h423.5" stroke="#000"/><path d="m150.75 260.3516h122v23.3105h-122z" fill="#eee" stroke="#000" stroke-width="2"/><text font-family="sans-serif" font-size="13" font-weight="bold" lengthAdjust="spacing" textLength="104" x="156.75" y="276.9199">Unspend UTXO</text><path d="m355 310.9727 10 4-10 4 4-4z" fill="#181818" stroke="#181818"/><path d="m103 314.9727h258" stroke="#181818"/><text font-family="sans-serif" font-size="13" lengthAdjust="spacing" textLength="163" x="110" y="310.2305">UnSpend(ctx, spentUtxos)</text><path d="m114 340.2832-10 4 10 4-4-4z" fill="#181818" stroke="#181818"/><path d="m108 344.2832h263" stroke="#181818" stroke-dasharray="2 2"/><text font-family="sans-serif" font-size="13" lengthAdjust="spacing" textLength="159" x="120" y="339.541">Confirmation of Unspend</text><path d="m0 372.9385h423.5v3h-423.5z" fill="#eee" stroke="#eee"/><path d="m0 372.9385h423.5" stroke="#000"/><path d="m0 375.9385h423.5" stroke="#000"/><path d="m159.25 362.2832h105v23.3105h-105z" fill="#eee" stroke="#000" stroke-width="2"/><text font-family="sans-serif" font-size="13" font-weight="bold" lengthAdjust="spacing" textLength="87" x="165.25" y="378.8516">Create UTXO</text><path d="m355 412.9043 10 4-10 4 4-4z" fill="#181818" stroke="#181818"/><path d="m103 416.9043h258" stroke="#181818"/><text font-family="sans-serif" font-size="13" lengthAdjust="spacing" textLength="89" x="110" y="412.1621">Create(ctx, tx)</text><path d="m114 442.2148-10 4 10 4-4-4z" fill="#181818" stroke="#181818"/><path d="m108 446.2148h263" stroke="#181818" stroke-dasharray="2 2"/><text font-family="sans-serif" font-size="13" lengthAdjust="spacing" textLength="196" x="120" y="441.4727">Confirmation of UTXO Creation</text><path d="m0 474.8701h423.5v3h-423.5z" fill="#eee" stroke="#eee"/><path d="m0 474.8701h423.5" stroke="#000"/><path d="m0 477.8701h423.5" stroke="#000"/><path d="m159.75 464.2148h104v23.3105h-104z" fill="#eee" stroke="#000" stroke-width="2"/><text font-family="sans-serif" font-size="13" font-weight="bold" lengthAdjust="spacing" textLength="86" x="165.75" y="480.7832">Delete UTXO</text><path d="m355 514.8359 10 4-10 4 4-4z" fill="#181818" stroke="#181818"/><path d="m103 518.8359h258" stroke="#181818"/><text font-family="sans-serif" font-size="13" lengthAdjust="spacing" textLength="101" x="110" y="514.0938">Delete(ctx, txId)</text><path d="m114 544.1465-10 4 10 4-4-4z" fill="#181818" stroke="#181818"/><path d="m108 548.1465h263" stroke="#181818" stroke-dasharray="2 2"/><text font-family="sans-serif" font-size="13" lengthAdjust="spacing" textLength="191" x="120" y="543.4043">Confirmation of Deleted UTXO</text><path d="m0 576.8018h423.5v3h-423.5z" fill="#eee" stroke="#eee"/><path d="m0 576.8018h423.5" stroke="#000"/><path d="m0 579.8018h423.5" stroke="#000"/><path d="m113.25 566.1465h197v23.3105h-197z" fill="#eee" stroke="#000" stroke-width="2"/><text font-family="sans-serif" font-size="13" font-weight="bold" lengthAdjust="spacing" textLength="179" x="119.25" y="582.7148">Decorate previous outputs</text><path d="m355 616.7676 10 4-10 4 4-4z" fill="#181818" stroke="#181818"/><path d="m103 620.7676h258" stroke="#181818"/><text font-family="sans-serif" font-size="13" lengthAdjust="spacing" textLength="245" x="110" y="616.0254">PreviousOutputsDecorate(ctx, outputs)</text><path d="m114 646.0781-10 4 10 4-4-4z" fill="#181818" stroke="#181818"/><path d="m108 650.0781h263" stroke="#181818" stroke-dasharray="2 2"/><text font-family="sans-serif" font-size="13" lengthAdjust="spacing" textLength="117" x="120" y="645.3359">Decorated outputs</text><text fill="#888" font-family="sans-serif" font-size="10" lengthAdjust="spacing" textLength="152" y="709.2344">Last Modified On: 5-June-2024</text></svg>
