<svg contentStyleType="text/css" height="804" preserveAspectRatio="none" viewBox="0 0 605 804" width="605" xmlns="http://www.w3.org/2000/svg" zoomAndPan="magnify"><g stroke="#181818"><path d="m291 141.5625h10v87.3984h-10z" fill="#fff"/><path d="m291 301.2266h10v87.3984h-10z" fill="#fff"/><path d="m291 460.8906h10v87.3984h-10z" fill="#fff"/><path d="m291 620.5547h10v87.3984h-10z" fill="#fff"/><path d="m489 170.6953h10v29.1328h-10z" fill="#fff"/><path d="m489 330.3594h10v29.1328h-10z" fill="#fff"/><path d="m489 490.0234h10v29.1328h-10z" fill="#fff"/><path d="m489 649.6875h10v29.1328h-10z" fill="#fff"/><path d="m107 67.2969v658.6562" stroke-dasharray="5 5" stroke-width=".5"/><path d="m295.5 67.2969v658.6562" stroke-dasharray="5 5" stroke-width=".5"/><path d="m493.5 67.2969v658.6562" stroke-dasharray="5 5" stroke-width=".5"/><rect fill="#e2e2f0" height="30.2969" rx="2.5" stroke-width=".5" width="204" x="5" y="36"/></g><text font-family="sans-serif" font-size="14" lengthAdjust="spacing" textLength="190" x="12" y="55.9951">TX Validator (Validator.go)</text><rect fill="#e2e2f0" height="30.2969" rx="2.5" stroke="#181818" stroke-width=".5" width="204" x="5" y="724.9531"/><text font-family="sans-serif" font-size="14" lengthAdjust="spacing" textLength="190" x="12" y="744.9482">TX Validator (Validator.go)</text><rect fill="#e2e2f0" height="30.2969" rx="2.5" stroke="#181818" stroke-width=".5" width="97" x="247.5" y="36"/><text font-family="sans-serif" font-size="14" lengthAdjust="spacing" textLength="83" x="254.5" y="55.9951">UTXO Store</text><rect fill="#e2e2f0" height="30.2969" rx="2.5" stroke="#181818" stroke-width=".5" width="97" x="247.5" y="724.9531"/><text font-family="sans-serif" font-size="14" lengthAdjust="spacing" textLength="83" x="254.5" y="744.9482">UTXO Store</text><text font-family="sans-serif" font-size="14" lengthAdjust="spacing" textLength="193" x="394.5" y="63.9951">Datastore Implementation</text><path d="m476 15c0-10 18-10 18-10s18 0 18 10v26c0 10-18 10-18 10s-18 0-18-10z" fill="#e2e2f0" stroke="#181818" stroke-width="1.5"/><path d="m476 15c0 10 18 10 18 10s18 0 18-10" fill="none" stroke="#181818" stroke-width="1.5"/><text font-family="sans-serif" font-size="14" lengthAdjust="spacing" textLength="193" x="394.5" y="737.9482">Datastore Implementation</text><path d="m476 751.25c0-10 18-10 18-10s18 0 18 10v26c0 10-18 10-18 10s-18 0-18-10z" fill="#e2e2f0" stroke="#181818" stroke-width="1.5"/><path d="m476 751.25c0 10 18 10 18 10s18 0 18-10" fill="none" stroke="#181818" stroke-width="1.5"/><path d="m291 141.5625h10v87.3984h-10z" fill="#fff" stroke="#181818"/><path d="m291 301.2266h10v87.3984h-10z" fill="#fff" stroke="#181818"/><path d="m291 460.8906h10v87.3984h-10z" fill="#fff" stroke="#181818"/><path d="m291 620.5547h10v87.3984h-10z" fill="#fff" stroke="#181818"/><path d="m489 170.6953h10v29.1328h-10z" fill="#fff" stroke="#181818"/><path d="m489 330.3594h10v29.1328h-10z" fill="#fff" stroke="#181818"/><path d="m489 490.0234h10v29.1328h-10z" fill="#fff" stroke="#181818"/><path d="m489 649.6875h10v29.1328h-10z" fill="#fff" stroke="#181818"/><path d="m0 97.8633h598.5v3h-598.5z" fill="#eee" stroke="#eee"/><path d="m0 97.8633h598.5" stroke="#000"/><path d="m0 100.8633h598.5" stroke="#000"/><path d="m217.75 87.2969h163v23.1328h-163z" fill="#eee" stroke="#000" stroke-width="2"/><text font-family="sans-serif" font-size="13" font-weight="bold" lengthAdjust="spacing" textLength="144" x="223.75" y="103.3638">Fetch Block Height</text><path d="m279 137.5625 10 4-10 4 4-4z" fill="#181818" stroke="#181818"/><path d="m107 141.5625h178" stroke="#181818"/><text font-family="sans-serif" font-size="13" lengthAdjust="spacing" textLength="105" x="114" y="136.4966">getBlockHeight()</text><path d="m477 166.6953 10 4-10 4 4-4z" fill="#181818" stroke="#181818"/><path d="m301 170.6953h182" stroke="#181818"/><text font-family="sans-serif" font-size="13" lengthAdjust="spacing" textLength="169" x="308" y="165.6294">Fetch Current Block Height</text><path d="m312 195.8281-10 4 10 4-4-4z" fill="#181818" stroke="#181818"/><path d="m306 199.8281h187" stroke="#181818" stroke-dasharray="2 2"/><text font-family="sans-serif" font-size="13" lengthAdjust="spacing" textLength="130" x="318" y="194.7622">Current Block Height</text><path d="m118 224.9609-10 4 10 4-4-4z" fill="#181818" stroke="#181818"/><path d="m112 228.9609h183" stroke="#181818" stroke-dasharray="2 2"/><text font-family="sans-serif" font-size="13" lengthAdjust="spacing" textLength="78" x="124" y="223.895">Block Height</text><path d="m0 257.5273h598.5v3h-598.5z" fill="#eee" stroke="#eee"/><path d="m0 257.5273h598.5" stroke="#000"/><path d="m0 260.5273h598.5" stroke="#000"/><path d="m254.25 246.9609h90v23.1328h-90z" fill="#eee" stroke="#000" stroke-width="2"/><text font-family="sans-serif" font-size="13" font-weight="bold" lengthAdjust="spacing" textLength="71" x="260.25" y="263.0278">Spend TX</text><path d="m279 297.2266 10 4-10 4 4-4z" fill="#181818" stroke="#181818"/><path d="m107 301.2266h178" stroke="#181818"/><text font-family="sans-serif" font-size="13" lengthAdjust="spacing" textLength="86" x="114" y="296.1606">Spend(UTXO)</text><path d="m477 326.3594 10 4-10 4 4-4z" fill="#181818" stroke="#181818"/><path d="m301 330.3594h182" stroke="#181818"/><text font-family="sans-serif" font-size="13" lengthAdjust="spacing" textLength="130" x="308" y="325.2935">Mark UTXO as Spent</text><path d="m312 355.4922-10 4 10 4-4-4z" fill="#181818" stroke="#181818"/><path d="m306 359.4922h187" stroke="#181818" stroke-dasharray="2 2"/><text font-family="sans-serif" font-size="13" lengthAdjust="spacing" textLength="119" x="318" y="354.4263">Acknowledgement</text><path d="m118 384.625-10 4 10 4-4-4z" fill="#181818" stroke="#181818"/><path d="m112 388.625h183" stroke="#181818" stroke-dasharray="2 2"/><text font-family="sans-serif" font-size="13" lengthAdjust="spacing" textLength="144" x="124" y="383.5591">Confirmation of Spend</text><path d="m0 417.1914h598.5v3h-598.5z" fill="#eee" stroke="#eee"/><path d="m0 417.1914h598.5" stroke="#000"/><path d="m0 420.1914h598.5" stroke="#000"/><path d="m245.25 406.625h108v23.1328h-108z" fill="#eee" stroke="#000" stroke-width="2"/><text font-family="sans-serif" font-size="13" font-weight="bold" lengthAdjust="spacing" textLength="89" x="251.25" y="422.6919">Unspend TX</text><path d="m279 456.8906 10 4-10 4 4-4z" fill="#181818" stroke="#181818"/><path d="m107 460.8906h178" stroke="#181818"/><text font-family="sans-serif" font-size="13" lengthAdjust="spacing" textLength="102" x="114" y="455.8247">Unspend(UTXO)</text><path d="m477 486.0234 10 4-10 4 4-4z" fill="#181818" stroke="#181818"/><path d="m301 490.0234h182" stroke="#181818"/><text font-family="sans-serif" font-size="13" lengthAdjust="spacing" textLength="157" x="308" y="484.9575">Revert UTXO to Unspent</text><path d="m312 515.1563-10 4 10 4-4-4z" fill="#181818" stroke="#181818"/><path d="m306 519.1563h187" stroke="#181818" stroke-dasharray="2 2"/><text font-family="sans-serif" font-size="13" lengthAdjust="spacing" textLength="119" x="318" y="514.0903">Acknowledgement</text><path d="m118 544.2891-10 4 10 4-4-4z" fill="#181818" stroke="#181818"/><path d="m112 548.2891h183" stroke="#181818" stroke-dasharray="2 2"/><text font-family="sans-serif" font-size="13" lengthAdjust="spacing" textLength="160" x="124" y="543.2231">Confirmation of Unspend</text><path d="m0 576.8555h598.5v3h-598.5z" fill="#eee" stroke="#eee"/><path d="m0 576.8555h598.5" stroke="#000"/><path d="m0 579.8555h598.5" stroke="#000"/><path d="m255.25 566.2891h88v23.1328h-88z" fill="#eee" stroke="#000" stroke-width="2"/><text font-family="sans-serif" font-size="13" font-weight="bold" lengthAdjust="spacing" textLength="69" x="261.25" y="582.356">Store TX</text><path d="m279 616.5547 10 4-10 4 4-4z" fill="#181818" stroke="#181818"/><path d="m107 620.5547h178" stroke="#181818"/><text font-family="sans-serif" font-size="13" lengthAdjust="spacing" textLength="112" x="114" y="615.4888">Store(New UTXO)</text><path d="m477 645.6875 10 4-10 4 4-4z" fill="#181818" stroke="#181818"/><path d="m301 649.6875h182" stroke="#181818"/><text font-family="sans-serif" font-size="13" lengthAdjust="spacing" textLength="106" x="308" y="644.6216">Store New UTXO</text><path d="m312 674.8203-10 4 10 4-4-4z" fill="#181818" stroke="#181818"/><path d="m306 678.8203h187" stroke="#181818" stroke-dasharray="2 2"/><text font-family="sans-serif" font-size="13" lengthAdjust="spacing" textLength="119" x="318" y="673.7544">Acknowledgement</text><path d="m118 703.9531-10 4 10 4-4-4z" fill="#181818" stroke="#181818"/><path d="m112 707.9531h183" stroke="#181818" stroke-dasharray="2 2"/><text font-family="sans-serif" font-size="13" lengthAdjust="spacing" textLength="138" x="124" y="702.8872">Confirmation of Store</text></svg>
