<svg contentStyleType="text/css" height="761" preserveAspectRatio="none" viewBox="0 0 771 761" width="771" xmlns="http://www.w3.org/2000/svg" zoomAndPan="magnify"><g fill="#fff"><path d="m485.5 142.1094h10v527.9688h-10z" stroke="#181818"/><path d="m490.5 275.3516h10v394.7266h-10z" stroke="#181818"/><path d="m495.5 467.2148h10v202.8633h-10z" stroke="#181818"/><path d="m500.5 600.457h10v68.6211h-10z" stroke="#181818"/></g><path d="m10 157.1094h657v46.6211h-657z" fill="none" stroke="#000" stroke-width="1.5"/><path d="m10 290.3516h744v105.2422h-744z" fill="none" stroke="#000" stroke-width="1.5"/><path d="m10 482.2148h657v46.6211h-657z" fill="none" stroke="#000" stroke-width="1.5"/><path d="m10 615.457h657v46.6211h-657z" fill="none" stroke="#000" stroke-width="1.5"/><path d="m167 67.4883v611.5898" stroke="#181818" stroke-dasharray="5 5" stroke-width=".5"/><path d="m490 67.4883v611.5898" stroke="#181818" stroke-dasharray="5 5" stroke-width=".5"/><path d="m705 67.4883v611.5898" stroke="#181818" stroke-dasharray="5 5" stroke-width=".5"/><rect fill="#e2e2f0" height="30.4883" rx="2.5" stroke="#181818" stroke-width=".5" width="54" x="140" y="36"/><text font-family="sans-serif" font-size="14" lengthAdjust="spacing" textLength="40" x="147" y="56.5352">Client</text><rect fill="#e2e2f0" height="30.4883" rx="2.5" stroke="#181818" stroke-width=".5" width="54" x="140" y="678.0781"/><text font-family="sans-serif" font-size="14" lengthAdjust="spacing" textLength="40" x="147" y="698.6133">Client</text><rect fill="#e2e2f0" height="30.4883" rx="2.5" stroke="#181818" stroke-width=".5" width="93" x="444" y="36"/><text font-family="sans-serif" font-size="14" lengthAdjust="spacing" textLength="79" x="451" y="56.5352">UTXO Store</text><rect fill="#e2e2f0" height="30.4883" rx="2.5" stroke="#181818" stroke-width=".5" width="93" x="444" y="678.0781"/><text font-family="sans-serif" font-size="14" lengthAdjust="spacing" textLength="79" x="451" y="698.6133">UTXO Store</text><text font-family="sans-serif" font-size="14" lengthAdjust="spacing" textLength="71" x="667" y="64.5352">Data Store</text><path d="m687.5 15c0-10 18-10 18-10s18 0 18 10v26c0 10-18 10-18 10s-18 0-18-10z" fill="#e2e2f0" stroke="#181818" stroke-width="1.5"/><path d="m687.5 15c0 10 18 10 18 10s18 0 18-10" fill="none" stroke="#181818" stroke-width="1.5"/><text font-family="sans-serif" font-size="14" lengthAdjust="spacing" textLength="71" x="667" y="691.6133">Data Store</text><g stroke="#181818"><path d="m687.5 704.5664c0-10 18-10 18-10s18 0 18 10v26c0 10-18 10-18 10s-18 0-18-10z" fill="#e2e2f0" stroke-width="1.5"/><path d="m687.5 704.5664c0 10 18 10 18 10s18 0 18-10" fill="none" stroke-width="1.5"/><g fill="#fff"><path d="m485.5 142.1094h10v527.9688h-10z"/><path d="m490.5 275.3516h10v394.7266h-10z"/><path d="m495.5 467.2148h10v202.8633h-10z"/><path d="m500.5 600.457h10v68.6211h-10z"/></g></g><path d="m0 98.1436h764v3h-764z" fill="#eee" stroke="#eee"/><path d="m0 98.1436h764" stroke="#000"/><path d="m0 101.1436h764" stroke="#000"/><path d="m229.5 87.4883h305v23.3105h-305z" fill="#eee" stroke="#000" stroke-width="2"/><text font-family="sans-serif" font-size="13" font-weight="bold" lengthAdjust="spacing" textLength="287" x="235.5" y="104.0566">Spend an unknown UTXO (no hash match)</text><path d="m473.5 138.1094 10 4-10 4 4-4z" fill="#181818" stroke="#181818"/><path d="m167 142.1094h312.5" stroke="#181818"/><text font-family="sans-serif" font-size="13" lengthAdjust="spacing" textLength="248" x="174" y="137.3672">Request to spend UTXO (Spend a UTXO)</text><path d="m10 157.1094h62v7.3105l-10 10h-52z" fill="#eee" stroke="#000" stroke-width="1.5"/><path d="m10 157.1094h657v46.6211h-657z" fill="none" stroke="#000" stroke-width="1.5"/><text font-family="sans-serif" font-size="13" font-weight="bold" lengthAdjust="spacing" textLength="17" x="25" y="170.6777">alt</text><text font-family="sans-serif" font-size="11" font-weight="bold" lengthAdjust="spacing" textLength="110" x="87" y="169.7441">[Key does not exist]</text><path d="m178 191.7305-10 4 10 4-4-4z" fill="#181818" stroke="#181818"/><path d="m172 195.7305h312.5" stroke="#181818"/><text font-family="sans-serif" font-size="13" lengthAdjust="spacing" textLength="78" x="184" y="190.9883">NOT FOUND</text><path d="m0 231.3857h764v3h-764z" fill="#eee" stroke="#eee"/><path d="m0 231.3857h764" stroke="#000"/><path d="m0 234.3857h764" stroke="#000"/><path d="m306 220.7305h152v23.3105h-152z" fill="#eee" stroke="#000" stroke-width="2"/><text font-family="sans-serif" font-size="13" font-weight="bold" lengthAdjust="spacing" textLength="134" x="312" y="237.2988">Spend known UTXO</text><path d="m478.5 271.3516 10 4-10 4 4-4z" fill="#181818" stroke="#181818"/><path d="m167 275.3516h317.5" stroke="#181818"/><text font-family="sans-serif" font-size="13" lengthAdjust="spacing" textLength="248" x="174" y="270.6094">Request to spend UTXO (Spend a UTXO)</text><path d="m10 290.3516h62v7.3105l-10 10h-52z" fill="#eee" stroke="#000" stroke-width="1.5"/><path d="m10 290.3516h744v105.2422h-744z" fill="none" stroke="#000" stroke-width="1.5"/><text font-family="sans-serif" font-size="13" font-weight="bold" lengthAdjust="spacing" textLength="17" x="25" y="303.9199">alt</text><text font-family="sans-serif" font-size="11" font-weight="bold" lengthAdjust="spacing" textLength="207" x="87" y="302.9863">[Key exists and TX_ID Value is NULL]</text><path d="m693.5 324.9727 10 4-10 4 4-4z" fill="#181818" stroke="#181818"/><path d="m500.5 328.9727h199" stroke="#181818"/><text font-family="sans-serif" font-size="13" lengthAdjust="spacing" textLength="98" x="507.5" y="324.2305">Set TX_ID Value</text><path d="m511.5 354.2832-10 4 10 4-4-4z" fill="#181818" stroke="#181818"/><path d="m505.5 358.2832h199" stroke="#181818" stroke-dasharray="2 2"/><text font-family="sans-serif" font-size="13" lengthAdjust="spacing" textLength="120" x="517.5" y="353.541">TX_ID Value Set OK</text><path d="m178 383.5938-10 4 10 4-4-4z" fill="#181818" stroke="#181818"/><path d="m172 387.5938h317.5" stroke="#181818"/><text font-family="sans-serif" font-size="13" lengthAdjust="spacing" textLength="18" x="184" y="382.8516">OK</text><path d="m0 423.249h764v3h-764z" fill="#eee" stroke="#eee"/><path d="m0 423.249h764" stroke="#000"/><path d="m0 426.249h764" stroke="#000"/><path d="m188.5 412.5938h387v23.3105h-387z" fill="#eee" stroke="#000" stroke-width="2"/><text font-family="sans-serif" font-size="13" font-weight="bold" lengthAdjust="spacing" textLength="369" x="194.5" y="429.1621">Duplicate Spend UTXO (already spent by the same TX)</text><path d="m483.5 463.2148 10 4-10 4 4-4z" fill="#181818" stroke="#181818"/><path d="m167 467.2148h322.5" stroke="#181818"/><text font-family="sans-serif" font-size="13" lengthAdjust="spacing" textLength="248" x="174" y="462.4727">Request to spend UTXO (Spend a UTXO)</text><path d="m10 482.2148h62v7.3106l-10 10h-52z" fill="#eee" stroke="#000" stroke-width="1.5"/><path d="m10 482.2148h657v46.6211h-657z" fill="none" stroke="#000" stroke-width="1.5"/><text font-family="sans-serif" font-size="13" font-weight="bold" lengthAdjust="spacing" textLength="17" x="25" y="495.7832">alt</text><text font-family="sans-serif" font-size="11" font-weight="bold" lengthAdjust="spacing" textLength="298" x="87" y="494.8496">[Key exists and TX_ID Value matches Spending TXID]</text><path d="m178 516.8359-10 4 10 4-4-4z" fill="#181818" stroke="#181818"/><path d="m172 520.8359h322.5" stroke="#181818"/><text font-family="sans-serif" font-size="13" lengthAdjust="spacing" textLength="80" x="184" y="516.0938">ALREADY OK</text><path d="m0 556.4912h764v3h-764z" fill="#eee" stroke="#eee"/><path d="m0 556.4912h764" stroke="#000"/><path d="m0 559.4912h764" stroke="#000"/><path d="m193 545.8359h378v23.3105h-378z" fill="#eee" stroke="#000" stroke-width="2"/><text font-family="sans-serif" font-size="13" font-weight="bold" lengthAdjust="spacing" textLength="360" x="199" y="562.4043">Duplicate Spend UTXO (already spent by another TX)</text><path d="m488.5 596.457 10 4-10 4 4-4z" fill="#181818" stroke="#181818"/><path d="m167 600.457h327.5" stroke="#181818"/><text font-family="sans-serif" font-size="13" lengthAdjust="spacing" textLength="248" x="174" y="595.7148">Request to spend UTXO (Spend a UTXO)</text><path d="m10 615.457h62v7.3106l-10 10h-52z" fill="#eee" stroke="#000" stroke-width="1.5"/><path d="m10 615.457h657v46.6211h-657z" fill="none" stroke="#000" stroke-width="1.5"/><text font-family="sans-serif" font-size="13" font-weight="bold" lengthAdjust="spacing" textLength="17" x="25" y="629.0254">alt</text><text font-family="sans-serif" font-size="11" font-weight="bold" lengthAdjust="spacing" textLength="338" x="87" y="628.0918">[Key exists and TX_ID Value does not match Spending TXID]</text><path d="m178 650.0781-10 4 10 4-4-4z" fill="#181818" stroke="#181818"/><path d="m172 654.0781h327.5" stroke="#181818"/><text font-family="sans-serif" font-size="13" lengthAdjust="spacing" textLength="229" x="184" y="649.3359">SPENT (with existing Spending TXID)</text><text fill="#888" font-family="sans-serif" font-size="10" lengthAdjust="spacing" textLength="155" y="751.2344">Last Modified On: 24-Nov-2023</text></svg>
