<svg contentStyleType="text/css" height="432" preserveAspectRatio="none" viewBox="0 0 729 432" width="729" xmlns="http://www.w3.org/2000/svg" zoomAndPan="magnify"><g stroke="#181818"><path d="m223.5 112.7988h10v205.1738h-10z" fill="#fff"/><path d="m420.5 142.1094h10v146.5527h-10z" fill="#fff"/><path d="m551.5 171.4199h10v87.9316h-10z" fill="#fff"/><path d="m686.5 200.7305h10v29.3105h-10z" fill="#fff"/><g stroke-dasharray="5 5" stroke-width=".5"><path d="m32 81.4883v254.4844"/><path d="m228 81.4883v254.4844"/><path d="m425 81.4883v254.4844"/><path d="m556 81.4883v254.4844"/><path d="m691 81.4883v254.4844"/></g></g><text font-family="sans-serif" font-size="14" lengthAdjust="spacing" textLength="49" x="5" y="78.5352">UI User</text><ellipse cx="32.5" cy="13.5" fill="#e2e2f0" rx="8" ry="8" stroke="#181818" stroke-width=".5"/><path d="m32.5 21.5v27m-13-19h26m-13 19-13 15m13-15 13 15" fill="none" stroke="#181818" stroke-width=".5"/><text font-family="sans-serif" font-size="14" lengthAdjust="spacing" textLength="49" x="5" y="348.5078">UI User</text><ellipse cx="32.5" cy="359.9609" fill="#e2e2f0" rx="8" ry="8" stroke="#181818" stroke-width=".5"/><path d="m32.5 367.9609v27m-13-19h26m-13 19-13 15m13-15 13 15" fill="none" stroke="#181818" stroke-width=".5"/><rect fill="#e2e2f0" height="30.4883" rx="2.5" stroke="#181818" stroke-width=".5" width="107" x="175" y="50"/><text font-family="sans-serif" font-size="14" lengthAdjust="spacing" textLength="93" x="182" y="70.5352">UI Dashboard</text><rect fill="#e2e2f0" height="30.4883" rx="2.5" stroke="#181818" stroke-width=".5" width="107" x="175" y="334.9727"/><text font-family="sans-serif" font-size="14" lengthAdjust="spacing" textLength="93" x="182" y="355.5078">UI Dashboard</text><rect fill="#e2e2f0" height="30.4883" rx="2.5" stroke="#181818" stroke-width=".5" width="149" x="351" y="50"/><text font-family="sans-serif" font-size="14" lengthAdjust="spacing" textLength="135" x="358" y="70.5352">AssetService (HTTP)</text><rect fill="#e2e2f0" height="30.4883" rx="2.5" stroke="#181818" stroke-width=".5" width="149" x="351" y="334.9727"/><text font-family="sans-serif" font-size="14" lengthAdjust="spacing" textLength="135" x="358" y="355.5078">AssetService (HTTP)</text><rect fill="#e2e2f0" height="30.4883" rx="2.5" stroke="#181818" stroke-width=".5" width="93" x="510" y="50"/><text font-family="sans-serif" font-size="14" lengthAdjust="spacing" textLength="79" x="517" y="70.5352">UTXO Store</text><rect fill="#e2e2f0" height="30.4883" rx="2.5" stroke="#181818" stroke-width=".5" width="93" x="510" y="334.9727"/><text font-family="sans-serif" font-size="14" lengthAdjust="spacing" textLength="79" x="517" y="355.5078">UTXO Store</text><text font-family="sans-serif" font-size="14" lengthAdjust="spacing" textLength="67" x="655" y="78.5352">DataStore</text><path d="m673.5 29c0-10 18-10 18-10s18 0 18 10v26c0 10-18 10-18 10s-18 0-18-10z" fill="#e2e2f0" stroke="#181818" stroke-width="1.5"/><path d="m673.5 29c0 10 18 10 18 10s18 0 18-10" fill="none" stroke="#181818" stroke-width="1.5"/><text font-family="sans-serif" font-size="14" lengthAdjust="spacing" textLength="67" x="655" y="348.5078">DataStore</text><g stroke="#181818"><path d="m673.5 361.4609c0-10 18-10 18-10s18 0 18 10v26c0 10-18 10-18 10s-18 0-18-10z" fill="#e2e2f0" stroke-width="1.5"/><path d="m673.5 361.4609c0 10 18 10 18 10s18 0 18-10" fill="none" stroke-width="1.5"/><path d="m223.5 112.7988h10v205.1738h-10z" fill="#fff"/><path d="m420.5 142.1094h10v146.5527h-10z" fill="#fff"/><path d="m551.5 171.4199h10v87.9316h-10z" fill="#fff"/><path d="m686.5 200.7305h10v29.3105h-10z" fill="#fff"/><path d="m211.5 108.7988 10 4-10 4 4-4z" fill="#181818"/><path d="m32.5 112.7988h185"/></g><text font-family="sans-serif" font-size="13" lengthAdjust="spacing" textLength="172" x="39.5" y="108.0566">Request to View UTXO Data</text><path d="m408.5 138.1094 10 4-10 4 4-4z" fill="#181818" stroke="#181818"/><path d="m233.5 142.1094h181" stroke="#181818"/><text font-family="sans-serif" font-size="13" lengthAdjust="spacing" textLength="122" x="240.5" y="137.3672">Request UTXO Data</text><path d="m539.5 167.4199 10 4-10 4 4-4z" fill="#181818" stroke="#181818"/><path d="m430.5 171.4199h115" stroke="#181818"/><text font-family="sans-serif" font-size="13" lengthAdjust="spacing" textLength="29" x="437.5" y="166.6777">Get()</text><path d="m674.5 196.7305 10 4-10 4 4-4z" fill="#181818" stroke="#181818"/><path d="m561.5 200.7305h119" stroke="#181818"/><text font-family="sans-serif" font-size="13" lengthAdjust="spacing" textLength="106" x="568.5" y="195.9883">Fetch UTXO Data</text><path d="m572.5 226.041-10 4 10 4-4-4z" fill="#181818" stroke="#181818"/><path d="m566.5 230.041h124" stroke="#181818" stroke-dasharray="2 2"/><text font-family="sans-serif" font-size="13" lengthAdjust="spacing" textLength="68" x="578.5" y="225.2988">UTXO Data</text><path d="m441.5 255.3516-10 4 10 4-4-4z" fill="#181818" stroke="#181818"/><path d="m435.5 259.3516h120" stroke="#181818" stroke-dasharray="2 2"/><text font-family="sans-serif" font-size="13" lengthAdjust="spacing" textLength="68" x="447.5" y="254.6094">UTXO Data</text><path d="m244.5 284.6621-10 4 10 4-4-4z" fill="#181818" stroke="#181818"/><path d="m238.5 288.6621h186" stroke="#181818" stroke-dasharray="2 2"/><text font-family="sans-serif" font-size="13" lengthAdjust="spacing" textLength="163" x="250.5" y="283.9199">Response with UTXO Data</text><path d="m43.5 313.9727-10 4 10 4-4-4z" fill="#181818" stroke="#181818"/><path d="m37.5 317.9727h190" stroke="#181818" stroke-dasharray="2 2"/><text font-family="sans-serif" font-size="13" lengthAdjust="spacing" textLength="117" x="49.5" y="313.2305">UTXO Data Loaded</text><text fill="#888" font-family="sans-serif" font-size="10" lengthAdjust="spacing" textLength="155" y="422.1289">Last Modified On: 23-Nov-2023</text></svg>
