<svg xmlns="http://www.w3.org/2000/svg" xmlns:xlink="http://www.w3.org/1999/xlink" contentStyleType="text/css" height="774px" preserveAspectRatio="none" style="width:929px;height:774px;background:#F0F8FF;" version="1.1" viewBox="0 0 929 774" width="929px" zoomAndPan="magnify"><defs/><g><rect fill="#F0F8FF" height="774" style="stroke:none;stroke-width:1.0;" width="929" x="0" y="0"/><rect fill="#FFFFFF" height="557.9238" style="stroke:#181818;stroke-width:1.0;" width="10" x="418.9473" y="155.7305"/><rect fill="#FFFFFF" height="218.4844" style="stroke:#181818;stroke-width:1.0;" width="10" x="631.7798" y="380.5938"/><rect fill="#FFFFFF" height="86.9316" style="stroke:#181818;stroke-width:1.0;" width="10" x="773.6646" y="425.2148"/><rect fill="none" height="364.6816" style="stroke:#000000;stroke-width:1.5;" width="583.583" x="328.9937" y="341.9727"/><line style="stroke:#181818;stroke-width:0.5;stroke-dasharray:5.0,5.0;" x1="54" x2="54" y1="36.4883" y2="723.6543"/><line style="stroke:#181818;stroke-width:0.5;stroke-dasharray:5.0,5.0;" x1="243.9331" x2="243.9331" y1="36.4883" y2="723.6543"/><line style="stroke:#181818;stroke-width:0.5;stroke-dasharray:5.0,5.0;" x1="422.9937" x2="422.9937" y1="36.4883" y2="723.6543"/><line style="stroke:#181818;stroke-width:0.5;stroke-dasharray:5.0,5.0;" x1="636.7095" x2="636.7095" y1="36.4883" y2="723.6543"/><line style="stroke:#181818;stroke-width:0.5;stroke-dasharray:5.0,5.0;" x1="778.1123" x2="778.1123" y1="36.4883" y2="723.6543"/><rect fill="#DDDDDD" height="30.4883" rx="2.5" ry="2.5" style="stroke:#666666;stroke-width:0.5;" width="99.4355" x="5" y="5"/><text fill="#333333" font-family="sans-serif" font-size="14" lengthAdjust="spacing" textLength="85.4355" x="12" y="25.5352">P2P Network</text><rect fill="#DDDDDD" height="30.4883" rx="2.5" ry="2.5" style="stroke:#666666;stroke-width:0.5;" width="99.4355" x="5" y="722.6543"/><text fill="#333333" font-family="sans-serif" font-size="14" lengthAdjust="spacing" textLength="85.4355" x="12" y="743.1895">P2P Network</text><rect fill="#DDDDDD" height="30.4883" rx="2.5" ry="2.5" style="stroke:#666666;stroke-width:0.5;" width="51.9326" x="218.9331" y="5"/><text fill="#333333" font-family="sans-serif" font-size="14" lengthAdjust="spacing" textLength="37.9326" x="225.9331" y="25.5352">Kafka</text><rect fill="#DDDDDD" height="30.4883" rx="2.5" ry="2.5" style="stroke:#666666;stroke-width:0.5;" width="51.9326" x="218.9331" y="722.6543"/><text fill="#333333" font-family="sans-serif" font-size="14" lengthAdjust="spacing" textLength="37.9326" x="225.9331" y="743.1895">Kafka</text><rect fill="#DDDDDD" height="30.4883" rx="2.5" ry="2.5" style="stroke:#666666;stroke-width:0.5;" width="169.9072" x="338.9937" y="5"/><text fill="#333333" font-family="sans-serif" font-size="14" lengthAdjust="spacing" textLength="155.9072" x="345.9937" y="25.5352">BlockValidation Service</text><rect fill="#DDDDDD" height="30.4883" rx="2.5" ry="2.5" style="stroke:#666666;stroke-width:0.5;" width="169.9072" x="338.9937" y="722.6543"/><text fill="#333333" font-family="sans-serif" font-size="14" lengthAdjust="spacing" textLength="155.9072" x="345.9937" y="743.1895">BlockValidation Service</text><rect fill="#DDDDDD" height="30.4883" rx="2.5" ry="2.5" style="stroke:#666666;stroke-width:0.5;" width="138.1406" x="567.7095" y="5"/><text fill="#333333" font-family="sans-serif" font-size="14" lengthAdjust="spacing" textLength="124.1406" x="574.7095" y="25.5352">Blockchain Service</text><rect fill="#DDDDDD" height="30.4883" rx="2.5" ry="2.5" style="stroke:#666666;stroke-width:0.5;" width="138.1406" x="567.7095" y="722.6543"/><text fill="#333333" font-family="sans-serif" font-size="14" lengthAdjust="spacing" textLength="124.1406" x="574.7095" y="743.1895">Blockchain Service</text><rect fill="#DDDDDD" height="30.4883" rx="2.5" ry="2.5" style="stroke:#666666;stroke-width:0.5;" width="41.1045" x="758.1123" y="5"/><text fill="#333333" font-family="sans-serif" font-size="14" lengthAdjust="spacing" textLength="27.1045" x="765.1123" y="25.5352">FSM</text><rect fill="#DDDDDD" height="30.4883" rx="2.5" ry="2.5" style="stroke:#666666;stroke-width:0.5;" width="41.1045" x="758.1123" y="722.6543"/><text fill="#333333" font-family="sans-serif" font-size="14" lengthAdjust="spacing" textLength="27.1045" x="765.1123" y="743.1895">FSM</text><rect fill="#FFFFFF" height="557.9238" style="stroke:#181818;stroke-width:1.0;" width="10" x="418.9473" y="155.7305"/><rect fill="#FFFFFF" height="218.4844" style="stroke:#181818;stroke-width:1.0;" width="10" x="631.7798" y="380.5938"/><rect fill="#FFFFFF" height="86.9316" style="stroke:#181818;stroke-width:1.0;" width="10" x="773.6646" y="425.2148"/><rect fill="#EEEEEE" height="3" style="stroke:#EEEEEE;stroke-width:1.0;" width="922.5767" x="0" y="67.1436"/><line style="stroke:#000000;stroke-width:1.0;" x1="0" x2="922.5767" y1="67.1436" y2="67.1436"/><line style="stroke:#000000;stroke-width:1.0;" x1="0" x2="922.5767" y1="70.1436" y2="70.1436"/><rect fill="#EEEEEE" height="23.3105" style="stroke:#000000;stroke-width:2.0;" width="225.6436" x="348.4666" y="56.4883"/><text fill="#333333" font-family="sans-serif" font-size="13" font-weight="bold" lengthAdjust="spacing" textLength="207.3589" x="354.4666" y="73.0566">Block Reception and Validation</text><polygon fill="#666666" points="232.8994,122.4199,242.8994,126.4199,232.8994,130.4199,236.8994,126.4199" style="stroke:#666666;stroke-width:1.0;"/><line style="stroke:#666666;stroke-width:1.0;" x1="54.7178" x2="238.8994" y1="126.4199" y2="126.4199"/><text fill="#333333" font-family="sans-serif" font-size="13" lengthAdjust="spacing" textLength="83.2368" x="61.7178" y="106.3672">Publish Block</text><text fill="#333333" font-family="sans-serif" font-size="13" lengthAdjust="spacing" textLength="166.1816" x="61.7178" y="121.6777">(KafkaBlockTopicMessage)</text><polygon fill="#666666" points="406.9473,151.7305,416.9473,155.7305,406.9473,159.7305,410.9473,155.7305" style="stroke:#666666;stroke-width:1.0;"/><line style="stroke:#666666;stroke-width:1.0;" x1="244.8994" x2="412.9473" y1="155.7305" y2="155.7305"/><text fill="#333333" font-family="sans-serif" font-size="13" lengthAdjust="spacing" textLength="155.0479" x="251.8994" y="150.9883">Consume Block Message</text><line style="stroke:#666666;stroke-width:1.0;" x1="428.9473" x2="470.9473" y1="185.041" y2="185.041"/><line style="stroke:#666666;stroke-width:1.0;" x1="470.9473" x2="470.9473" y1="185.041" y2="198.041"/><line style="stroke:#666666;stroke-width:1.0;" x1="429.9473" x2="470.9473" y1="198.041" y2="198.041"/><polygon fill="#666666" points="439.9473,194.041,429.9473,198.041,439.9473,202.041,435.9473,198.041" style="stroke:#666666;stroke-width:1.0;"/><text fill="#333333" font-family="sans-serif" font-size="13" lengthAdjust="spacing" textLength="88.2515" x="435.9473" y="180.2988">Validate Block</text><rect fill="#EEEEEE" height="3" style="stroke:#EEEEEE;stroke-width:1.0;" width="922.5767" x="0" y="226.6963"/><line style="stroke:#000000;stroke-width:1.0;" x1="0" x2="922.5767" y1="226.6963" y2="226.6963"/><line style="stroke:#000000;stroke-width:1.0;" x1="0" x2="922.5767" y1="229.6963" y2="229.6963"/><rect fill="#EEEEEE" height="23.3105" style="stroke:#000000;stroke-width:2.0;" width="141.4165" x="390.5801" y="216.041"/><text fill="#333333" font-family="sans-serif" font-size="13" font-weight="bold" lengthAdjust="spacing" textLength="123.1318" x="396.5801" y="232.6094">Catchup Detection</text><line style="stroke:#666666;stroke-width:1.0;" x1="428.9473" x2="470.9473" y1="270.6621" y2="270.6621"/><line style="stroke:#666666;stroke-width:1.0;" x1="470.9473" x2="470.9473" y1="270.6621" y2="283.6621"/><line style="stroke:#666666;stroke-width:1.0;" x1="429.9473" x2="470.9473" y1="283.6621" y2="283.6621"/><polygon fill="#666666" points="439.9473,279.6621,429.9473,283.6621,439.9473,287.6621,435.9473,283.6621" style="stroke:#666666;stroke-width:1.0;"/><text fill="#333333" font-family="sans-serif" font-size="13" lengthAdjust="spacing" textLength="135.4526" x="435.9473" y="265.9199">Detect Catchup Mode</text><rect fill="#EEEEEE" height="3" style="stroke:#EEEEEE;stroke-width:1.0;" width="922.5767" x="0" y="312.3174"/><line style="stroke:#000000;stroke-width:1.0;" x1="0" x2="922.5767" y1="312.3174" y2="312.3174"/><line style="stroke:#000000;stroke-width:1.0;" x1="0" x2="922.5767" y1="315.3174" y2="315.3174"/><rect fill="#EEEEEE" height="23.3105" style="stroke:#000000;stroke-width:2.0;" width="198.8691" x="361.8538" y="301.6621"/><text fill="#333333" font-family="sans-serif" font-size="13" font-weight="bold" lengthAdjust="spacing" textLength="180.5845" x="367.8538" y="318.2305">CatchupBlocks Notification</text><path d="M328.9937,341.9727 L391.1323,341.9727 L391.1323,349.2832 L381.1323,359.2832 L328.9937,359.2832 L328.9937,341.9727 " fill="#EEEEEE" style="stroke:#000000;stroke-width:1.5;"/><rect fill="none" height="364.6816" style="stroke:#000000;stroke-width:1.5;" width="583.583" x="328.9937" y="341.9727"/><text fill="#333333" font-family="sans-serif" font-size="13" font-weight="bold" lengthAdjust="spacing" textLength="17.1387" x="343.9937" y="355.541">alt</text><text fill="#333333" font-family="sans-serif" font-size="11" font-weight="bold" lengthAdjust="spacing" textLength="103.3721" x="406.1323" y="354.6074">[In Catchup Mode]</text><polygon fill="#666666" points="619.7798,376.5938,629.7798,380.5938,619.7798,384.5938,623.7798,380.5938" style="stroke:#666666;stroke-width:1.0;"/><line style="stroke:#666666;stroke-width:1.0;" x1="428.9473" x2="625.7798" y1="380.5938" y2="380.5938"/><text fill="#333333" font-family="sans-serif" font-size="13" lengthAdjust="spacing" textLength="137.1919" x="435.9473" y="375.8516">CatchupBlocks (gRPC)</text><polygon fill="#666666" points="761.6646,421.2148,771.6646,425.2148,761.6646,429.2148,765.6646,425.2148" style="stroke:#666666;stroke-width:1.0;"/><line style="stroke:#666666;stroke-width:1.0;" x1="641.7798" x2="767.6646" y1="425.2148" y2="425.2148"/><text fill="#333333" font-family="sans-serif" font-size="13" lengthAdjust="spacing" textLength="92.1172" x="648.7798" y="405.1621">CatchupBlocks</text><text fill="#333333" font-family="sans-serif" font-size="13" lengthAdjust="spacing" textLength="33.9473" x="652.8931" y="420.4727">Event</text><line style="stroke:#666666;stroke-width:1.0;" x1="783.6646" x2="825.6646" y1="469.8359" y2="469.8359"/><line style="stroke:#666666;stroke-width:1.0;" x1="825.6646" x2="825.6646" y1="469.8359" y2="482.8359"/><line style="stroke:#666666;stroke-width:1.0;" x1="784.6646" x2="825.6646" y1="482.8359" y2="482.8359"/><polygon fill="#666666" points="794.6646,478.8359,784.6646,482.8359,794.6646,486.8359,790.6646,482.8359" style="stroke:#666666;stroke-width:1.0;"/><text fill="#333333" font-family="sans-serif" font-size="13" lengthAdjust="spacing" textLength="80.8057" x="790.6646" y="449.7832">Transition to</text><text fill="#333333" font-family="sans-serif" font-size="13" lengthAdjust="spacing" textLength="95.7988" x="794.7778" y="465.0938">CatchingBlocks</text><polygon fill="#666666" points="652.7798,508.1465,642.7798,512.1465,652.7798,516.1465,648.7798,512.1465" style="stroke:#666666;stroke-width:1.0;"/><line style="stroke:#666666;stroke-width:1.0;stroke-dasharray:2.0,2.0;" x1="646.7798" x2="777.6646" y1="512.1465" y2="512.1465"/><text fill="#333333" font-family="sans-serif" font-size="13" lengthAdjust="spacing" textLength="88.0991" x="658.7798" y="507.4043">State Updated</text><line style="stroke:#666666;stroke-width:1.0;" x1="641.7798" x2="683.7798" y1="556.7676" y2="556.7676"/><line style="stroke:#666666;stroke-width:1.0;" x1="683.7798" x2="683.7798" y1="556.7676" y2="569.7676"/><line style="stroke:#666666;stroke-width:1.0;" x1="642.7798" x2="683.7798" y1="569.7676" y2="569.7676"/><polygon fill="#666666" points="652.7798,565.7676,642.7798,569.7676,652.7798,573.7676,648.7798,569.7676" style="stroke:#666666;stroke-width:1.0;"/><text fill="#333333" font-family="sans-serif" font-size="13" lengthAdjust="spacing" textLength="66.8154" x="648.7798" y="536.7148">Start Block</text><text fill="#333333" font-family="sans-serif" font-size="13" lengthAdjust="spacing" textLength="103.7715" x="652.8931" y="552.0254">Catchup Process</text><polygon fill="#666666" points="439.9473,595.0781,429.9473,599.0781,439.9473,603.0781,435.9473,599.0781" style="stroke:#666666;stroke-width:1.0;"/><line style="stroke:#666666;stroke-width:1.0;stroke-dasharray:2.0,2.0;" x1="433.9473" x2="635.7798" y1="599.0781" y2="599.0781"/><text fill="#333333" font-family="sans-serif" font-size="13" lengthAdjust="spacing" textLength="156.4253" x="445.9473" y="594.3359">CatchupBlocks Response</text><line style="stroke:#666666;stroke-width:1.0;" x1="428.9473" x2="470.9473" y1="628.3887" y2="628.3887"/><line style="stroke:#666666;stroke-width:1.0;" x1="470.9473" x2="470.9473" y1="628.3887" y2="641.3887"/><line style="stroke:#666666;stroke-width:1.0;" x1="429.9473" x2="470.9473" y1="641.3887" y2="641.3887"/><polygon fill="#666666" points="439.9473,637.3887,429.9473,641.3887,439.9473,645.3887,435.9473,641.3887" style="stroke:#666666;stroke-width:1.0;"/><text fill="#333333" font-family="sans-serif" font-size="13" lengthAdjust="spacing" textLength="108.291" x="435.9473" y="623.6465">Handle Response</text><line style="stroke:#000000;stroke-width:1.0;stroke-dasharray:2.0,2.0;" x1="328.9937" x2="912.5767" y1="650.3887" y2="650.3887"/><text fill="#333333" font-family="sans-serif" font-size="11" font-weight="bold" lengthAdjust="spacing" textLength="126.8652" x="333.9937" y="661.0234">[Not in Catchup Mode]</text><line style="stroke:#666666;stroke-width:1.0;" x1="428.9473" x2="470.9473" y1="685.6543" y2="685.6543"/><line style="stroke:#666666;stroke-width:1.0;" x1="470.9473" x2="470.9473" y1="685.6543" y2="698.6543"/><line style="stroke:#666666;stroke-width:1.0;" x1="429.9473" x2="470.9473" y1="698.6543" y2="698.6543"/><polygon fill="#666666" points="439.9473,694.6543,429.9473,698.6543,439.9473,702.6543,435.9473,698.6543" style="stroke:#666666;stroke-width:1.0;"/><text fill="#333333" font-family="sans-serif" font-size="13" lengthAdjust="spacing" textLength="178.8325" x="435.9473" y="680.9121">Continue Normal Processing</text><text fill="#333333" font-family="sans-serif" font-size="10" lengthAdjust="spacing" textLength="157.5488" x="0" y="764.8105">Last Modified On: 04-Aug-2025</text><!--SRC=[fLHDZzem4BtxLqofgi81gMgbgaAYKfSbRSM68g0zSHdi2LWOEx8TLgkg_xsE2MoIXNxE0MJFl3VpPiPnEwbpjBY7DVBTnff2Yv5HniBpv5NoBacOEqS8oh1GFZ7QLo5lejL2q5fpNpdVHcFi9TnI9ZN1sbX1ra4MlAWKaA8zQUzg-72K_W6-Cu2R6Dta2hVjAc-ZiH-ini93XTQe_wK9lrvocQFs_qR5s3Dnb3uVZvOVfX_lni0LEiTOdRipUps3AVbxOtSTG0VXt0oOOBR3w9eq7JVAyDqtL5AWbqR3Wkn1SegXBTy58D-Yl829rzLj4vKiqXWM_eEuuV0O3tFYbCVyg0NKoXaEMQcj_nucC81PiLRIRO-WbUv6LV6mDBdaAJc76-gnIGbeAnl0o6XNxAdAMKKpv5uUqDCJkMs2YvpLeK97IIFqV5laOMazyPEAFo8x8iu4gH5KPum01rFZPIRvkK6eF7pMJHG4kvQoFfsoAmtoxcO-6_KYljcOnamV-Hja8KCOR9jpfM5y2E-oIHeteBmf4MVWqg9sCfRhpQeI9VNco5G3N16py2NtrxmSYOZHWfwcl5Zv5JhhJ-jsxl3C6XwMvnhLvTrhT7bEBW_BIEqAVzNftotFf_1q53rIat9KxWh8lzYDzdlnKXSbYzsZEkaEus2a1MFjmcjlXodAVFXE6qyMxj3vCdNOMXBmHG_WHJcVRaU8Vfgc_OTWdTvF]--></g></svg>
