<svg xmlns="http://www.w3.org/2000/svg" xmlns:xlink="http://www.w3.org/1999/xlink" contentStyleType="text/css" height="483px" preserveAspectRatio="none" style="width:526px;height:483px;background:#F0F8FF;" version="1.1" viewBox="0 0 526 483" width="526px" zoomAndPan="magnify"><defs/><g><rect fill="#F0F8FF" height="483" style="stroke:none;stroke-width:1.0;" width="526" x="0" y="0"/><rect fill="#FFFFFF" height="311.7949" style="stroke:#181818;stroke-width:1.0;" width="10" x="55.9863" y="111.1094"/><rect fill="#FFFFFF" height="145.5527" style="stroke:#181818;stroke-width:1.0;" width="10" x="250.6265" y="226.041"/><rect fill="#FFFFFF" height="86.9316" style="stroke:#181818;stroke-width:1.0;" width="10" x="389.1172" y="255.3516"/><line style="stroke:#181818;stroke-width:0.5;stroke-dasharray:5.0,5.0;" x1="60" x2="60" y1="36.4883" y2="431.9043"/><line style="stroke:#181818;stroke-width:0.5;stroke-dasharray:5.0,5.0;" x1="255.5562" x2="255.5562" y1="36.4883" y2="431.9043"/><line style="stroke:#181818;stroke-width:0.5;stroke-dasharray:5.0,5.0;" x1="393.5649" x2="393.5649" y1="36.4883" y2="431.9043"/><rect fill="#DDDDDD" height="30.4883" rx="2.5" ry="2.5" style="stroke:#666666;stroke-width:0.5;" width="111.9727" x="5" y="5"/><text fill="#333333" font-family="sans-serif" font-size="14" lengthAdjust="spacing" textLength="97.9727" x="12" y="25.5352">Legacy Service</text><rect fill="#DDDDDD" height="30.4883" rx="2.5" ry="2.5" style="stroke:#666666;stroke-width:0.5;" width="111.9727" x="5" y="430.9043"/><text fill="#333333" font-family="sans-serif" font-size="14" lengthAdjust="spacing" textLength="97.9727" x="12" y="451.4395">Legacy Service</text><rect fill="#DDDDDD" height="30.4883" rx="2.5" ry="2.5" style="stroke:#666666;stroke-width:0.5;" width="138.1406" x="186.5562" y="5"/><text fill="#333333" font-family="sans-serif" font-size="14" lengthAdjust="spacing" textLength="124.1406" x="193.5562" y="25.5352">Blockchain Service</text><rect fill="#DDDDDD" height="30.4883" rx="2.5" ry="2.5" style="stroke:#666666;stroke-width:0.5;" width="138.1406" x="186.5562" y="430.9043"/><text fill="#333333" font-family="sans-serif" font-size="14" lengthAdjust="spacing" textLength="124.1406" x="193.5562" y="451.4395">Blockchain Service</text><rect fill="#DDDDDD" height="30.4883" rx="2.5" ry="2.5" style="stroke:#666666;stroke-width:0.5;" width="41.1045" x="373.5649" y="5"/><text fill="#333333" font-family="sans-serif" font-size="14" lengthAdjust="spacing" textLength="27.1045" x="380.5649" y="25.5352">FSM</text><rect fill="#DDDDDD" height="30.4883" rx="2.5" ry="2.5" style="stroke:#666666;stroke-width:0.5;" width="41.1045" x="373.5649" y="430.9043"/><text fill="#333333" font-family="sans-serif" font-size="14" lengthAdjust="spacing" textLength="27.1045" x="380.5649" y="451.4395">FSM</text><rect fill="#FFFFFF" height="311.7949" style="stroke:#181818;stroke-width:1.0;" width="10" x="55.9863" y="111.1094"/><rect fill="#FFFFFF" height="145.5527" style="stroke:#181818;stroke-width:1.0;" width="10" x="250.6265" y="226.041"/><rect fill="#FFFFFF" height="86.9316" style="stroke:#181818;stroke-width:1.0;" width="10" x="389.1172" y="255.3516"/><rect fill="#EEEEEE" height="3" style="stroke:#EEEEEE;stroke-width:1.0;" width="519.479" x="0" y="67.1436"/><line style="stroke:#000000;stroke-width:1.0;" x1="0" x2="519.479" y1="67.1436" y2="67.1436"/><line style="stroke:#000000;stroke-width:1.0;" x1="0" x2="519.479" y1="70.1436" y2="70.1436"/><rect fill="#EEEEEE" height="23.3105" style="stroke:#000000;stroke-width:2.0;" width="66.9521" x="226.2634" y="56.4883"/><text fill="#333333" font-family="sans-serif" font-size="13" font-weight="bold" lengthAdjust="spacing" textLength="48.6675" x="232.2634" y="73.0566">Startup</text><polygon fill="#666666" points="43.9863,107.1094,53.9863,111.1094,43.9863,115.1094,47.9863,111.1094" style="stroke:#666666;stroke-width:1.0;"/><line style="stroke:#666666;stroke-width:1.0;" x1="0" x2="49.9863" y1="111.1094" y2="111.1094"/><text fill="#333333" font-family="sans-serif" font-size="13" lengthAdjust="spacing" textLength="29.2246" x="7" y="106.3672">Start</text><line style="stroke:#666666;stroke-width:1.0;" x1="65.9863" x2="107.9863" y1="140.4199" y2="140.4199"/><line style="stroke:#666666;stroke-width:1.0;" x1="107.9863" x2="107.9863" y1="140.4199" y2="153.4199"/><line style="stroke:#666666;stroke-width:1.0;" x1="66.9863" x2="107.9863" y1="153.4199" y2="153.4199"/><polygon fill="#666666" points="76.9863,149.4199,66.9863,153.4199,76.9863,157.4199,72.9863,153.4199" style="stroke:#666666;stroke-width:1.0;"/><text fill="#333333" font-family="sans-serif" font-size="13" lengthAdjust="spacing" textLength="53.5806" x="72.9863" y="135.6777">Initialize</text><rect fill="#EEEEEE" height="3" style="stroke:#EEEEEE;stroke-width:1.0;" width="519.479" x="0" y="182.0752"/><line style="stroke:#000000;stroke-width:1.0;" x1="0" x2="519.479" y1="182.0752" y2="182.0752"/><line style="stroke:#000000;stroke-width:1.0;" x1="0" x2="519.479" y1="185.0752" y2="185.0752"/><rect fill="#EEEEEE" height="23.3105" style="stroke:#000000;stroke-width:2.0;" width="152.8994" x="183.2898" y="171.4199"/><text fill="#333333" font-family="sans-serif" font-size="13" font-weight="bold" lengthAdjust="spacing" textLength="134.6147" x="189.2898" y="187.9883">LegacySync Request</text><polygon fill="#666666" points="238.6265,222.041,248.6265,226.041,238.6265,230.041,242.6265,226.041" style="stroke:#666666;stroke-width:1.0;"/><line style="stroke:#666666;stroke-width:1.0;" x1="65.9863" x2="244.6265" y1="226.041" y2="226.041"/><text fill="#333333" font-family="sans-serif" font-size="13" lengthAdjust="spacing" textLength="116.5049" x="72.9863" y="221.2988">LegacySync (gRPC)</text><polygon fill="#666666" points="377.1172,251.3516,387.1172,255.3516,377.1172,259.3516,381.1172,255.3516" style="stroke:#666666;stroke-width:1.0;"/><line style="stroke:#666666;stroke-width:1.0;" x1="260.6265" x2="383.1172" y1="255.3516" y2="255.3516"/><text fill="#333333" font-family="sans-serif" font-size="13" lengthAdjust="spacing" textLength="109.4907" x="267.6265" y="250.6094">LegacySync Event</text><line style="stroke:#666666;stroke-width:1.0;" x1="399.1172" x2="441.1172" y1="299.9727" y2="299.9727"/><line style="stroke:#666666;stroke-width:1.0;" x1="441.1172" x2="441.1172" y1="299.9727" y2="312.9727"/><line style="stroke:#666666;stroke-width:1.0;" x1="400.1172" x2="441.1172" y1="312.9727" y2="312.9727"/><polygon fill="#666666" points="410.1172,308.9727,400.1172,312.9727,410.1172,316.9727,406.1172,312.9727" style="stroke:#666666;stroke-width:1.0;"/><text fill="#333333" font-family="sans-serif" font-size="13" lengthAdjust="spacing" textLength="80.8057" x="406.1172" y="279.9199">Transition to</text><text fill="#333333" font-family="sans-serif" font-size="13" lengthAdjust="spacing" textLength="91.3618" x="406.1172" y="295.2305">LegacySyncing</text><polygon fill="#666666" points="271.6265,338.2832,261.6265,342.2832,271.6265,346.2832,267.6265,342.2832" style="stroke:#666666;stroke-width:1.0;"/><line style="stroke:#666666;stroke-width:1.0;stroke-dasharray:2.0,2.0;" x1="265.6265" x2="393.1172" y1="342.2832" y2="342.2832"/><text fill="#333333" font-family="sans-serif" font-size="13" lengthAdjust="spacing" textLength="88.0991" x="277.6265" y="337.541">State Updated</text><polygon fill="#666666" points="76.9863,367.5938,66.9863,371.5938,76.9863,375.5938,72.9863,371.5938" style="stroke:#666666;stroke-width:1.0;"/><line style="stroke:#666666;stroke-width:1.0;stroke-dasharray:2.0,2.0;" x1="70.9863" x2="254.6265" y1="371.5938" y2="371.5938"/><text fill="#333333" font-family="sans-serif" font-size="13" lengthAdjust="spacing" textLength="135.7383" x="82.9863" y="366.8516">LegacySync Response</text><line style="stroke:#666666;stroke-width:1.0;" x1="65.9863" x2="107.9863" y1="400.9043" y2="400.9043"/><line style="stroke:#666666;stroke-width:1.0;" x1="107.9863" x2="107.9863" y1="400.9043" y2="413.9043"/><line style="stroke:#666666;stroke-width:1.0;" x1="66.9863" x2="107.9863" y1="413.9043" y2="413.9043"/><polygon fill="#666666" points="76.9863,409.9043,66.9863,413.9043,76.9863,417.9043,72.9863,413.9043" style="stroke:#666666;stroke-width:1.0;"/><text fill="#333333" font-family="sans-serif" font-size="13" lengthAdjust="spacing" textLength="160.6401" x="72.9863" y="396.1621">Start Legacy Sync Process</text><text fill="#333333" font-family="sans-serif" font-size="10" lengthAdjust="spacing" textLength="155.4346" x="0" y="473.0605">Last Modified On: 24-Feb-2025</text><!--SRC=[fPFVIyCm4CVVyrSS4t5x60Y2o60-p5aGLXoRFkbBbbnhM9RK99rCyN_trjMrtIg2taDBxxxtkHz9_LAPZ3k-WWKNozJPtCWRgws3a-WykeeYvlSAYGdFTOYi2QNaeh2QX3jdtyhWPM6CdS4O4sKG5jP9T1uIYdAj0JMkq0HVowTF5JRmmG16XRh98kzXb-F2s2UhKGHrwAp-BuQUGGcLSHF-XYAhCpeJJBdOm1pTMWdi0FUmSvMUfdgahLYA5wvC8wDojsP5yxYGqPknuH3cWQ9v1iCXU-fVD-l1O1TcN0IrvW4FsccAMxBlZ0gAQ_MEHQqol342PlYQem_RiaUKemc8L4ljfhFfJQ_gwNXWTamWB4tS1DskwJfLd68ZMz5U- -2uyJI1DH0iF9igLvcqrFxGB-sDa8-Pf9Ta4fjLMlfhsLvZNJwpncETr3BthmTI72TytxCjUUgiGEyPqvW4-lLiG0SJJaSJMwaIXHBkpG1EjuDqErBsupZkRyWwlIy0]--></g></svg>
