<svg contentStyleType="text/css" height="713" preserveAspectRatio="none" viewBox="0 0 675 713" width="675" xmlns="http://www.w3.org/2000/svg" zoomAndPan="magnify"><path d="m0 0h675v713h-675z" fill="#f0f8ff"/><path d="m10 84.4883h659.4019v530.2344h-659.4019z" fill="none" stroke="#000" stroke-width="1.5"/><path d="m20 226.041h639.4019v381.6816h-639.4019z" fill="none" stroke="#000" stroke-width="1.5"/><path d="m30 422.9043h619.4019v46.6211h-619.4019z" fill="none" stroke="#000" stroke-width="1.5"/><g stroke-width=".5"><path d="m122 67.4883v564.2344" stroke="#181818" stroke-dasharray="5 5"/><path d="m325.5591 67.4883v564.2344" stroke="#181818" stroke-dasharray="5 5"/><path d="m473.6997 67.4883v564.2344" stroke="#181818" stroke-dasharray="5 5"/><path d="m596.2075 67.4883v564.2344" stroke="#181818" stroke-dasharray="5 5"/><rect fill="#ddd" height="30.4883" rx="2.5" stroke="#666" width="164.5957" x="40" y="36"/></g><text fill="#333" font-family="sans-serif" font-size="14" lengthAdjust="spacing" textLength="150.5957" x="47" y="56.5352">Block Persister Service</text><rect fill="#ddd" height="30.4883" rx="2.5" stroke="#666" stroke-width=".5" width="164.5957" x="40" y="630.7227"/><text fill="#333" font-family="sans-serif" font-size="14" lengthAdjust="spacing" textLength="150.5957" x="47" y="651.2578">Block Persister Service</text><rect fill="#ddd" height="30.4883" rx="2.5" stroke="#666" stroke-width=".5" width="138.1406" x="256.5591" y="36"/><text fill="#333" font-family="sans-serif" font-size="14" lengthAdjust="spacing" textLength="124.1406" x="263.5591" y="56.5352">Blockchain Service</text><rect fill="#ddd" height="30.4883" rx="2.5" stroke="#666" stroke-width=".5" width="138.1406" x="256.5591" y="630.7227"/><text fill="#333" font-family="sans-serif" font-size="14" lengthAdjust="spacing" textLength="124.1406" x="263.5591" y="651.2578">Blockchain Service</text><rect fill="#ddd" height="30.4883" rx="2.5" stroke="#666" stroke-width=".5" width="139.5078" x="404.6997" y="36"/><text fill="#333" font-family="sans-serif" font-size="14" lengthAdjust="spacing" textLength="125.5078" x="411.6997" y="56.5352">State Management</text><rect fill="#ddd" height="30.4883" rx="2.5" stroke="#666" stroke-width=".5" width="139.5078" x="404.6997" y="630.7227"/><text fill="#333" font-family="sans-serif" font-size="14" lengthAdjust="spacing" textLength="125.5078" x="411.6997" y="651.2578">State Management</text><text fill="#333" font-family="sans-serif" font-size="14" lengthAdjust="spacing" textLength="79.1943" x="554.2075" y="64.5352">File Storage</text><path d="m578.8047 15c0-10 18-10 18-10s18 0 18 10v26c0 10-18 10-18 10s-18 0-18-10z" fill="#e2e2f0" stroke="#181818" stroke-width="1.5"/><path d="m578.8047 15c0 10 18 10 18 10s18 0 18-10" fill="none" stroke="#181818" stroke-width="1.5"/><text fill="#333" font-family="sans-serif" font-size="14" lengthAdjust="spacing" textLength="79.1943" x="554.2075" y="644.2578">File Storage</text><path d="m578.8047 657.2109c0-10 18-10 18-10s18 0 18 10v26c0 10-18 10-18 10s-18 0-18-10z" fill="#e2e2f0" stroke="#181818" stroke-width="1.5"/><path d="m578.8047 657.2109c0 10 18 10 18 10s18 0 18-10" fill="none" stroke="#181818" stroke-width="1.5"/><path d="m10 84.4883h74.4468v7.3105l-10 10h-64.4468z" fill="#eee" stroke="#000" stroke-width="1.5"/><path d="m10 84.4883h659.4019v530.2344h-659.4019z" fill="none" stroke="#000" stroke-width="1.5"/><text fill="#333" font-family="sans-serif" font-size="13" font-weight="bold" lengthAdjust="spacing" textLength="29.4468" x="25" y="98.0566">loop</text><text fill="#333" font-family="sans-serif" font-size="11" font-weight="bold" lengthAdjust="spacing" textLength="101.084" x="99.4468" y="97.123">[Processing Loop]</text><path d="m462.4536 119.1094 10 4-10 4 4-4z" fill="#666" stroke="#666"/><path d="m122.2979 123.1094h346.1557" stroke="#666"/><text fill="#333" font-family="sans-serif" font-size="13" lengthAdjust="spacing" textLength="158.0757" x="129.2979" y="118.3672">Get Last Persisted Height</text><path d="m133.2979 148.4199-10 4 10 4-4-4z" fill="#666" stroke="#666"/><path d="m127.2979 152.4199h346.1557" stroke="#666" stroke-dasharray="2 2"/><text fill="#333" font-family="sans-serif" font-size="13" lengthAdjust="spacing" textLength="71.3032" x="139.2979" y="147.6777">Last Height</text><path d="m313.6294 177.7305 10 4-10 4 4-4z" fill="#666" stroke="#666"/><path d="m122.2979 181.7305h197.3315" stroke="#666"/><text fill="#333" font-family="sans-serif" font-size="13" lengthAdjust="spacing" textLength="138.2456" x="129.2979" y="176.9883">Get Best Block Header</text><path d="m133.2979 207.041-10 4 10 4-4-4z" fill="#666" stroke="#666"/><path d="m127.2979 211.041h197.3315" stroke="#666" stroke-dasharray="2 2"/><text fill="#333" font-family="sans-serif" font-size="13" lengthAdjust="spacing" textLength="98.395" x="139.2979" y="206.2988">Best Block Meta</text><path d="m20 226.041h62.1387v7.3106l-10 10h-52.1387z" fill="#eee" stroke="#000" stroke-width="1.5"/><path d="m20 226.041h639.4019v381.6816h-639.4019z" fill="none" stroke="#000" stroke-width="1.5"/><text fill="#333" font-family="sans-serif" font-size="13" font-weight="bold" lengthAdjust="spacing" textLength="17.1387" x="35" y="239.6094">alt</text><text fill="#333" font-family="sans-serif" font-size="11" font-weight="bold" lengthAdjust="spacing" textLength="162.4863" x="97.1387" y="238.6758">[Need to Process Next Block]</text><path d="m313.6294 260.6621 10 4-10 4 4-4z" fill="#666" stroke="#666"/><path d="m122.2979 264.6621h197.3315" stroke="#666"/><text fill="#333" font-family="sans-serif" font-size="13" lengthAdjust="spacing" textLength="139.5024" x="129.2979" y="259.9199">Get Block at Height+1</text><path d="m133.2979 289.9727-10 4 10 4-4-4z" fill="#666" stroke="#666"/><path d="m127.2979 293.9727h197.3315" stroke="#666" stroke-dasharray="2 2"/><text fill="#333" font-family="sans-serif" font-size="13" lengthAdjust="spacing" textLength="66.5488" x="139.2979" y="289.2305">Block Data</text><path d="m122.2979 323.2832h42" stroke="#666"/><path d="m164.2979 323.2832v13" stroke="#666"/><path d="m123.2979 336.2832h41" stroke="#666"/><path d="m133.2979 332.2832-10 4 10 4-4-4z" fill="#666" stroke="#666"/><text fill="#333" font-family="sans-serif" font-size="13" lengthAdjust="spacing" textLength="96.2051" x="129.2979" y="318.541">Get Block Bytes</text><path d="m122.2979 365.5938h42" stroke="#666"/><path d="m164.2979 365.5938v13" stroke="#666"/><path d="m123.2979 378.5938h41" stroke="#666"/><path d="m133.2979 374.5938-10 4 10 4-4-4z" fill="#666" stroke="#666"/><text fill="#333" font-family="sans-serif" font-size="13" lengthAdjust="spacing" textLength="79.2124" x="129.2979" y="360.8516">Persist Block</text><path d="m584.8047 403.9043 10 4-10 4 4-4z" fill="#666" stroke="#666"/><path d="m122.2979 407.9043h468.5068" stroke="#666"/><text fill="#333" font-family="sans-serif" font-size="13" lengthAdjust="spacing" textLength="146.707" x="129.2979" y="403.1621">Store Block File (.block)</text><path d="m30 422.9043h74.4468v7.3105l-10 10h-64.4468z" fill="#eee" stroke="#000" stroke-width="1.5"/><path d="m30 422.9043h619.4019v46.6211h-619.4019z" fill="none" stroke="#000" stroke-width="1.5"/><text fill="#333" font-family="sans-serif" font-size="13" font-weight="bold" lengthAdjust="spacing" textLength="29.4468" x="45" y="436.4727">loop</text><text fill="#333" font-family="sans-serif" font-size="11" font-weight="bold" lengthAdjust="spacing" textLength="171.2788" x="119.4468" y="435.5391">[for each Subtree in the Block]</text><path d="m584.8047 457.5254 10 4-10 4 4-4z" fill="#666" stroke="#666"/><path d="m122.2979 461.5254h468.5068" stroke="#666"/><text fill="#333" font-family="sans-serif" font-size="13" lengthAdjust="spacing" textLength="174.5098" x="129.2979" y="456.7832">Store Subtree File (.subtree)</text><path d="m584.8047 509.1465 10 4-10 4 4-4z" fill="#666" stroke="#666"/><path d="m122.2979 513.1465h468.5068" stroke="#666"/><text fill="#333" font-family="sans-serif" font-size="13" lengthAdjust="spacing" textLength="104.457" x="129.2979" y="493.0938">Store UTXO Files</text><text fill="#333" font-family="sans-serif" font-size="13" lengthAdjust="spacing" textLength="214.0557" x="129.2979" y="508.4043">(.utxo-additions, .utxo-deletions)</text><path d="m462.4536 538.457 10 4-10 4 4-4z" fill="#666" stroke="#666"/><path d="m122.2979 542.457h346.1557" stroke="#666"/><text fill="#333" font-family="sans-serif" font-size="13" lengthAdjust="spacing" textLength="181.2319" x="129.2979" y="537.7148">Update Last Persisted Height</text><path d="m20 551.457h639.4019" stroke="#000" stroke-dasharray="2 2"/><text fill="#333" font-family="sans-serif" font-size="11" font-weight="bold" lengthAdjust="spacing" textLength="91.8403" x="25" y="562.0918">[No New Blocks]</text><path d="m122.2979 586.7227h42" stroke="#666"/><path d="m164.2979 586.7227v13" stroke="#666"/><path d="m123.2979 599.7227h41" stroke="#666"/><path d="m133.2979 595.7227-10 4 10 4-4-4z" fill="#666" stroke="#666"/><text fill="#333" font-family="sans-serif" font-size="13" lengthAdjust="spacing" textLength="189.3315" x="129.2979" y="581.9805">Sleep for Configured Duration</text><text fill="#333" font-family="sans-serif" font-size="10" lengthAdjust="spacing" textLength="155.4346" y="703.8789">Last Modified On: 24-Feb-2025</text></svg>
