<svg contentStyleType="text/css" height="403" preserveAspectRatio="none" viewBox="0 0 522 403" width="522" xmlns="http://www.w3.org/2000/svg" zoomAndPan="magnify"><path d="m0 0h522v403h-522z" fill="#f0f8ff"/><g stroke-width=".5"><path d="m61 36.4883v315.7949" stroke="#181818" stroke-dasharray="5 5"/><path d="m297.6123 36.4883v315.7949" stroke="#181818" stroke-dasharray="5 5"/><path d="m445.7529 36.4883v315.7949" stroke="#181818" stroke-dasharray="5 5"/><rect fill="#ddd" height="30.4883" rx="2.5" stroke="#666" width="112.834" x="5" y="5"/></g><text fill="#333" font-family="sans-serif" font-size="14" lengthAdjust="spacing" textLength="98.834" x="12" y="25.5352">Block Persister</text><rect fill="#ddd" height="30.4883" rx="2.5" stroke="#666" stroke-width=".5" width="112.834" x="5" y="351.2832"/><text fill="#333" font-family="sans-serif" font-size="14" lengthAdjust="spacing" textLength="98.834" x="12" y="371.8184">Block Persister</text><rect fill="#ddd" height="30.4883" rx="2.5" stroke="#666" stroke-width=".5" width="138.1406" x="228.6123" y="5"/><text fill="#333" font-family="sans-serif" font-size="14" lengthAdjust="spacing" textLength="124.1406" x="235.6123" y="25.5352">Blockchain Service</text><rect fill="#ddd" height="30.4883" rx="2.5" stroke="#666" stroke-width=".5" width="138.1406" x="228.6123" y="351.2832"/><text fill="#333" font-family="sans-serif" font-size="14" lengthAdjust="spacing" textLength="124.1406" x="235.6123" y="371.8184">Blockchain Service</text><rect fill="#ddd" height="30.4883" rx="2.5" stroke="#666" stroke-width=".5" width="139.5078" x="376.7529" y="5"/><text fill="#333" font-family="sans-serif" font-size="14" lengthAdjust="spacing" textLength="125.5078" x="383.7529" y="25.5352">State Management</text><rect fill="#ddd" height="30.4883" rx="2.5" stroke="#666" stroke-width=".5" width="139.5078" x="376.7529" y="351.2832"/><text fill="#333" font-family="sans-serif" font-size="14" lengthAdjust="spacing" textLength="125.5078" x="383.7529" y="371.8184">State Management</text><path d="m61.417 67.7988h42" stroke="#666"/><path d="m103.417 67.7988v13" stroke="#666"/><path d="m62.417 80.7988h41" stroke="#666"/><path d="m72.417 76.7988-10 4 10 4-4-4z" fill="#666" stroke="#666"/><text fill="#333" font-family="sans-serif" font-size="13" lengthAdjust="spacing" textLength="84.9189" x="68.417" y="63.0566">Load Settings</text><path d="m61.417 110.1094h42" stroke="#666" stroke-dasharray="2 2"/><path d="m103.417 110.1094v13" stroke="#666" stroke-dasharray="2 2"/><path d="m62.417 123.1094h41" stroke="#666" stroke-dasharray="2 2"/><path d="m72.417 119.1094-10 4 10 4-4-4z" fill="#666" stroke="#666"/><text fill="#333" font-family="sans-serif" font-size="13" lengthAdjust="spacing" textLength="120.0024" x="68.417" y="105.3672">Configuration Data</text><path d="m434.5068 148.4199 10 4-10 4 4-4z" fill="#666" stroke="#666"/><path d="m61.417 152.4199h379.0898" stroke="#666"/><text fill="#333" font-family="sans-serif" font-size="13" lengthAdjust="spacing" textLength="174.2368" x="68.417" y="147.6777">Initialize State Management</text><path d="m72.417 177.7305-10 4 10 4-4-4z" fill="#666" stroke="#666"/><path d="m66.417 181.7305h379.0898" stroke="#666" stroke-dasharray="2 2"/><text fill="#333" font-family="sans-serif" font-size="13" lengthAdjust="spacing" textLength="87.7119" x="78.417" y="176.9883">State Instance</text><path d="m285.6826 207.041 10 4-10 4 4-4z" fill="#666" stroke="#666"/><path d="m61.417 211.041h230.2656" stroke="#666"/><text fill="#333" font-family="sans-serif" font-size="13" lengthAdjust="spacing" textLength="165.6992" x="68.417" y="206.2988">Initialize Blockchain Client</text><path d="m72.417 236.3516-10 4 10 4-4-4z" fill="#666" stroke="#666"/><path d="m66.417 240.3516h230.2656" stroke="#666" stroke-dasharray="2 2"/><text fill="#333" font-family="sans-serif" font-size="13" lengthAdjust="spacing" textLength="164.5693" x="78.417" y="235.6094">Blockchain Client Instance</text><path d="m285.6826 265.6621 10 4-10 4 4-4z" fill="#666" stroke="#666"/><path d="m61.417 269.6621h230.2656" stroke="#666"/><text fill="#333" font-family="sans-serif" font-size="13" lengthAdjust="spacing" textLength="212.2656" x="68.417" y="264.9199">Wait for FSM Transition from IDLE</text><path d="m72.417 294.9727-10 4 10 4-4-4z" fill="#666" stroke="#666"/><path d="m66.417 298.9727h230.2656" stroke="#666" stroke-dasharray="2 2"/><text fill="#333" font-family="sans-serif" font-size="13" lengthAdjust="spacing" textLength="81.6372" x="78.417" y="294.2305">FSM Running</text><path d="m66 311.9727v25h219v-15l-10-10z" fill="#feffdd" stroke="#181818" stroke-width=".5"/><path d="m275 311.9727v10h10z" fill="#feffdd" stroke="#181818" stroke-width=".5"/><text fill="#333" font-family="sans-serif" font-size="13" lengthAdjust="spacing" textLength="198.0596" x="72" y="329.541">Initialize Block Processing Loop</text><text fill="#333" font-family="sans-serif" font-size="10" lengthAdjust="spacing" textLength="155.4346" y="393.4395">Last Modified On: 24-Feb-2025</text></svg>
