<svg xmlns="http://www.w3.org/2000/svg" xmlns:xlink="http://www.w3.org/1999/xlink" contentStyleType="text/css" height="814px" preserveAspectRatio="none" style="width:675px;height:814px;background:#F0F8FF;" version="1.1" viewBox="0 0 675 814" width="675px" zoomAndPan="magnify"><defs/><g><rect fill="#F0F8FF" height="814" style="stroke:none;stroke-width:1.0;" width="675" x="0" y="0"/><rect fill="none" height="631.166" style="stroke:#000000;stroke-width:1.5;" width="659.4019" x="10" y="84.4883"/><rect fill="none" height="482.6133" style="stroke:#000000;stroke-width:1.5;" width="639.4019" x="20" y="226.041"/><rect fill="none" height="147.5527" style="stroke:#000000;stroke-width:1.5;" width="619.4019" x="30" y="422.9043"/><line style="stroke:#181818;stroke-width:0.5;stroke-dasharray:5.0,5.0;" x1="122" x2="122" y1="67.4883" y2="732.6543"/><line style="stroke:#181818;stroke-width:0.5;stroke-dasharray:5.0,5.0;" x1="325.5591" x2="325.5591" y1="67.4883" y2="732.6543"/><line style="stroke:#181818;stroke-width:0.5;stroke-dasharray:5.0,5.0;" x1="473.6997" x2="473.6997" y1="67.4883" y2="732.6543"/><line style="stroke:#181818;stroke-width:0.5;stroke-dasharray:5.0,5.0;" x1="596.2075" x2="596.2075" y1="67.4883" y2="732.6543"/><rect fill="#DDDDDD" height="30.4883" rx="2.5" ry="2.5" style="stroke:#666666;stroke-width:0.5;" width="164.5957" x="40" y="36"/><text fill="#333333" font-family="sans-serif" font-size="14" lengthAdjust="spacing" textLength="150.5957" x="47" y="56.5352">Block Persister Service</text><rect fill="#DDDDDD" height="30.4883" rx="2.5" ry="2.5" style="stroke:#666666;stroke-width:0.5;" width="164.5957" x="40" y="731.6543"/><text fill="#333333" font-family="sans-serif" font-size="14" lengthAdjust="spacing" textLength="150.5957" x="47" y="752.1895">Block Persister Service</text><rect fill="#DDDDDD" height="30.4883" rx="2.5" ry="2.5" style="stroke:#666666;stroke-width:0.5;" width="138.1406" x="256.5591" y="36"/><text fill="#333333" font-family="sans-serif" font-size="14" lengthAdjust="spacing" textLength="124.1406" x="263.5591" y="56.5352">Blockchain Service</text><rect fill="#DDDDDD" height="30.4883" rx="2.5" ry="2.5" style="stroke:#666666;stroke-width:0.5;" width="138.1406" x="256.5591" y="731.6543"/><text fill="#333333" font-family="sans-serif" font-size="14" lengthAdjust="spacing" textLength="124.1406" x="263.5591" y="752.1895">Blockchain Service</text><rect fill="#DDDDDD" height="30.4883" rx="2.5" ry="2.5" style="stroke:#666666;stroke-width:0.5;" width="139.5078" x="404.6997" y="36"/><text fill="#333333" font-family="sans-serif" font-size="14" lengthAdjust="spacing" textLength="125.5078" x="411.6997" y="56.5352">State Management</text><rect fill="#DDDDDD" height="30.4883" rx="2.5" ry="2.5" style="stroke:#666666;stroke-width:0.5;" width="139.5078" x="404.6997" y="731.6543"/><text fill="#333333" font-family="sans-serif" font-size="14" lengthAdjust="spacing" textLength="125.5078" x="411.6997" y="752.1895">State Management</text><text fill="#333333" font-family="sans-serif" font-size="14" lengthAdjust="spacing" textLength="79.1943" x="554.2075" y="64.5352">File Storage</text><path d="M578.8047,15 C578.8047,5 596.8047,5 596.8047,5 C596.8047,5 614.8047,5 614.8047,15 L614.8047,41 C614.8047,51 596.8047,51 596.8047,51 C596.8047,51 578.8047,51 578.8047,41 L578.8047,15 " fill="#E2E2F0" style="stroke:#181818;stroke-width:1.5;"/><path d="M578.8047,15 C578.8047,25 596.8047,25 596.8047,25 C596.8047,25 614.8047,25 614.8047,15 " fill="none" style="stroke:#181818;stroke-width:1.5;"/><text fill="#333333" font-family="sans-serif" font-size="14" lengthAdjust="spacing" textLength="79.1943" x="554.2075" y="745.1895">File Storage</text><path d="M578.8047,758.1426 C578.8047,748.1426 596.8047,748.1426 596.8047,748.1426 C596.8047,748.1426 614.8047,748.1426 614.8047,758.1426 L614.8047,784.1426 C614.8047,794.1426 596.8047,794.1426 596.8047,794.1426 C596.8047,794.1426 578.8047,794.1426 578.8047,784.1426 L578.8047,758.1426 " fill="#E2E2F0" style="stroke:#181818;stroke-width:1.5;"/><path d="M578.8047,758.1426 C578.8047,768.1426 596.8047,768.1426 596.8047,768.1426 C596.8047,768.1426 614.8047,768.1426 614.8047,758.1426 " fill="none" style="stroke:#181818;stroke-width:1.5;"/><path d="M10,84.4883 L84.4468,84.4883 L84.4468,91.7988 L74.4468,101.7988 L10,101.7988 L10,84.4883 " fill="#EEEEEE" style="stroke:#000000;stroke-width:1.5;"/><rect fill="none" height="631.166" style="stroke:#000000;stroke-width:1.5;" width="659.4019" x="10" y="84.4883"/><text fill="#333333" font-family="sans-serif" font-size="13" font-weight="bold" lengthAdjust="spacing" textLength="29.4468" x="25" y="98.0566">loop</text><text fill="#333333" font-family="sans-serif" font-size="11" font-weight="bold" lengthAdjust="spacing" textLength="101.084" x="99.4468" y="97.123">[Processing Loop]</text><polygon fill="#666666" points="462.4536,119.1094,472.4536,123.1094,462.4536,127.1094,466.4536,123.1094" style="stroke:#666666;stroke-width:1.0;"/><line style="stroke:#666666;stroke-width:1.0;" x1="122.2979" x2="468.4536" y1="123.1094" y2="123.1094"/><text fill="#333333" font-family="sans-serif" font-size="13" lengthAdjust="spacing" textLength="158.0757" x="129.2979" y="118.3672">Get Last Persisted Height</text><polygon fill="#666666" points="133.2979,148.4199,123.2979,152.4199,133.2979,156.4199,129.2979,152.4199" style="stroke:#666666;stroke-width:1.0;"/><line style="stroke:#666666;stroke-width:1.0;stroke-dasharray:2.0,2.0;" x1="127.2979" x2="473.4536" y1="152.4199" y2="152.4199"/><text fill="#333333" font-family="sans-serif" font-size="13" lengthAdjust="spacing" textLength="71.3032" x="139.2979" y="147.6777">Last Height</text><polygon fill="#666666" points="313.6294,177.7305,323.6294,181.7305,313.6294,185.7305,317.6294,181.7305" style="stroke:#666666;stroke-width:1.0;"/><line style="stroke:#666666;stroke-width:1.0;" x1="122.2979" x2="319.6294" y1="181.7305" y2="181.7305"/><text fill="#333333" font-family="sans-serif" font-size="13" lengthAdjust="spacing" textLength="138.2456" x="129.2979" y="176.9883">Get Best Block Header</text><polygon fill="#666666" points="133.2979,207.041,123.2979,211.041,133.2979,215.041,129.2979,211.041" style="stroke:#666666;stroke-width:1.0;"/><line style="stroke:#666666;stroke-width:1.0;stroke-dasharray:2.0,2.0;" x1="127.2979" x2="324.6294" y1="211.041" y2="211.041"/><text fill="#333333" font-family="sans-serif" font-size="13" lengthAdjust="spacing" textLength="98.395" x="139.2979" y="206.2988">Best Block Meta</text><path d="M20,226.041 L82.1387,226.041 L82.1387,233.3516 L72.1387,243.3516 L20,243.3516 L20,226.041 " fill="#EEEEEE" style="stroke:#000000;stroke-width:1.5;"/><rect fill="none" height="482.6133" style="stroke:#000000;stroke-width:1.5;" width="639.4019" x="20" y="226.041"/><text fill="#333333" font-family="sans-serif" font-size="13" font-weight="bold" lengthAdjust="spacing" textLength="17.1387" x="35" y="239.6094">alt</text><text fill="#333333" font-family="sans-serif" font-size="11" font-weight="bold" lengthAdjust="spacing" textLength="162.4863" x="97.1387" y="238.6758">[Need to Process Next Block]</text><polygon fill="#666666" points="313.6294,260.6621,323.6294,264.6621,313.6294,268.6621,317.6294,264.6621" style="stroke:#666666;stroke-width:1.0;"/><line style="stroke:#666666;stroke-width:1.0;" x1="122.2979" x2="319.6294" y1="264.6621" y2="264.6621"/><text fill="#333333" font-family="sans-serif" font-size="13" lengthAdjust="spacing" textLength="139.5024" x="129.2979" y="259.9199">Get Block at Height+1</text><polygon fill="#666666" points="133.2979,289.9727,123.2979,293.9727,133.2979,297.9727,129.2979,293.9727" style="stroke:#666666;stroke-width:1.0;"/><line style="stroke:#666666;stroke-width:1.0;stroke-dasharray:2.0,2.0;" x1="127.2979" x2="324.6294" y1="293.9727" y2="293.9727"/><text fill="#333333" font-family="sans-serif" font-size="13" lengthAdjust="spacing" textLength="66.5488" x="139.2979" y="289.2305">Block Data</text><line style="stroke:#666666;stroke-width:1.0;" x1="122.2979" x2="164.2979" y1="323.2832" y2="323.2832"/><line style="stroke:#666666;stroke-width:1.0;" x1="164.2979" x2="164.2979" y1="323.2832" y2="336.2832"/><line style="stroke:#666666;stroke-width:1.0;" x1="123.2979" x2="164.2979" y1="336.2832" y2="336.2832"/><polygon fill="#666666" points="133.2979,332.2832,123.2979,336.2832,133.2979,340.2832,129.2979,336.2832" style="stroke:#666666;stroke-width:1.0;"/><text fill="#333333" font-family="sans-serif" font-size="13" lengthAdjust="spacing" textLength="96.2051" x="129.2979" y="318.541">Get Block Bytes</text><line style="stroke:#666666;stroke-width:1.0;" x1="122.2979" x2="164.2979" y1="365.5938" y2="365.5938"/><line style="stroke:#666666;stroke-width:1.0;" x1="164.2979" x2="164.2979" y1="365.5938" y2="378.5938"/><line style="stroke:#666666;stroke-width:1.0;" x1="123.2979" x2="164.2979" y1="378.5938" y2="378.5938"/><polygon fill="#666666" points="133.2979,374.5938,123.2979,378.5938,133.2979,382.5938,129.2979,378.5938" style="stroke:#666666;stroke-width:1.0;"/><text fill="#333333" font-family="sans-serif" font-size="13" lengthAdjust="spacing" textLength="79.2124" x="129.2979" y="360.8516">Persist Block</text><polygon fill="#666666" points="584.8047,403.9043,594.8047,407.9043,584.8047,411.9043,588.8047,407.9043" style="stroke:#666666;stroke-width:1.0;"/><line style="stroke:#666666;stroke-width:1.0;" x1="122.2979" x2="590.8047" y1="407.9043" y2="407.9043"/><text fill="#333333" font-family="sans-serif" font-size="13" lengthAdjust="spacing" textLength="146.707" x="129.2979" y="403.1621">Store Block File (.block)</text><path d="M30,422.9043 L104.4468,422.9043 L104.4468,430.2148 L94.4468,440.2148 L30,440.2148 L30,422.9043 " fill="#EEEEEE" style="stroke:#000000;stroke-width:1.5;"/><rect fill="none" height="147.5527" style="stroke:#000000;stroke-width:1.5;" width="619.4019" x="30" y="422.9043"/><text fill="#333333" font-family="sans-serif" font-size="13" font-weight="bold" lengthAdjust="spacing" textLength="29.4468" x="45" y="436.4727">loop</text><text fill="#333333" font-family="sans-serif" font-size="11" font-weight="bold" lengthAdjust="spacing" textLength="171.2788" x="119.4468" y="435.5391">[for each Subtree in the Block]</text><polygon fill="#666666" points="584.8047,457.5254,594.8047,461.5254,584.8047,465.5254,588.8047,461.5254" style="stroke:#666666;stroke-width:1.0;"/><line style="stroke:#666666;stroke-width:1.0;" x1="122.2979" x2="590.8047" y1="461.5254" y2="461.5254"/><text fill="#333333" font-family="sans-serif" font-size="13" lengthAdjust="spacing" textLength="172.9229" x="129.2979" y="456.7832">Read Subtree File (.subtree)</text><line style="stroke:#666666;stroke-width:1.0;" x1="122.2979" x2="164.2979" y1="490.8359" y2="490.8359"/><line style="stroke:#666666;stroke-width:1.0;" x1="164.2979" x2="164.2979" y1="490.8359" y2="503.8359"/><line style="stroke:#666666;stroke-width:1.0;" x1="123.2979" x2="164.2979" y1="503.8359" y2="503.8359"/><polygon fill="#666666" points="133.2979,499.8359,123.2979,503.8359,133.2979,507.8359,129.2979,503.8359" style="stroke:#666666;stroke-width:1.0;"/><text fill="#333333" font-family="sans-serif" font-size="13" lengthAdjust="spacing" textLength="99.6772" x="129.2979" y="486.0938">Process Subtree</text><polygon fill="#666666" points="584.8047,529.1465,594.8047,533.1465,584.8047,537.1465,588.8047,533.1465" style="stroke:#666666;stroke-width:1.0;"/><line style="stroke:#666666;stroke-width:1.0;" x1="122.2979" x2="590.8047" y1="533.1465" y2="533.1465"/><text fill="#333333" font-family="sans-serif" font-size="13" lengthAdjust="spacing" textLength="236.4312" x="129.2979" y="528.4043">Write Subtree Data File (.subtreeData)</text><polygon fill="#666666" points="584.8047,558.457,594.8047,562.457,584.8047,566.457,588.8047,562.457" style="stroke:#666666;stroke-width:1.0;"/><line style="stroke:#666666;stroke-width:1.0;" x1="122.2979" x2="590.8047" y1="562.457" y2="562.457"/><text fill="#333333" font-family="sans-serif" font-size="13" lengthAdjust="spacing" textLength="252.1797" x="129.2979" y="557.7148">Update Subtree DAH (Delete-At-Height)</text><polygon fill="#666666" points="584.8047,610.0781,594.8047,614.0781,584.8047,618.0781,588.8047,614.0781" style="stroke:#666666;stroke-width:1.0;"/><line style="stroke:#666666;stroke-width:1.0;" x1="122.2979" x2="590.8047" y1="614.0781" y2="614.0781"/><text fill="#333333" font-family="sans-serif" font-size="13" lengthAdjust="spacing" textLength="104.457" x="129.2979" y="594.0254">Store UTXO Files</text><text fill="#333333" font-family="sans-serif" font-size="13" lengthAdjust="spacing" textLength="214.0557" x="129.2979" y="609.3359">(.utxo-additions, .utxo-deletions)</text><polygon fill="#666666" points="462.4536,639.3887,472.4536,643.3887,462.4536,647.3887,466.4536,643.3887" style="stroke:#666666;stroke-width:1.0;"/><line style="stroke:#666666;stroke-width:1.0;" x1="122.2979" x2="468.4536" y1="643.3887" y2="643.3887"/><text fill="#333333" font-family="sans-serif" font-size="13" lengthAdjust="spacing" textLength="181.2319" x="129.2979" y="638.6465">Update Last Persisted Height</text><line style="stroke:#000000;stroke-width:1.0;stroke-dasharray:2.0,2.0;" x1="20" x2="659.4019" y1="652.3887" y2="652.3887"/><text fill="#333333" font-family="sans-serif" font-size="11" font-weight="bold" lengthAdjust="spacing" textLength="91.8403" x="25" y="663.0234">[No New Blocks]</text><line style="stroke:#666666;stroke-width:1.0;" x1="122.2979" x2="164.2979" y1="687.6543" y2="687.6543"/><line style="stroke:#666666;stroke-width:1.0;" x1="164.2979" x2="164.2979" y1="687.6543" y2="700.6543"/><line style="stroke:#666666;stroke-width:1.0;" x1="123.2979" x2="164.2979" y1="700.6543" y2="700.6543"/><polygon fill="#666666" points="133.2979,696.6543,123.2979,700.6543,133.2979,704.6543,129.2979,700.6543" style="stroke:#666666;stroke-width:1.0;"/><text fill="#333333" font-family="sans-serif" font-size="13" lengthAdjust="spacing" textLength="189.3315" x="129.2979" y="682.9121">Sleep for Configured Duration</text><text fill="#333333" font-family="sans-serif" font-size="10" lengthAdjust="spacing" textLength="157.5488" x="0" y="804.8105">Last Modified On: 04-Aug-2025</text><!--SRC=[fLJ1RXCn4BtxAqP1Y4Im5GW9eHoGcaPB3jss8bHmu39PpoPMN3kolRGLuj-PzJh99cr30pv4yVYzDs_6u_LBPLRey0PcM2xdpjP6dbbj7Rp8t-OVyrpu3K9IXRKEkJKXGTx7rO6WS_Os7Nw8IuXNCAPA6OAPTPASXufFKMiWJJTaWk_mUQl2FVmI0AE8tjNYwBxBSLpYj-YebEpGMVs_ClmRLAbMQCA_IGdHbUYDj2sNSCKjK3wGWocvdwga7g27UBOvUeHNBb2PXvGOteLF0mQ20WtEOtyZE0Q5n80pz0IzN6dYe7KCYe0caFP2Q6jNSELiITuhCuTptdEfi6SJia-jy10-Ku1pz65JdeG9gVaYH5fhAMFuhi2mvIJa4ncsTRPfHiIKjfSJGhwHBQzjqcDvEgI20hQvK0Uu8BOQxBfQtjybO8Gyqr8KndKbhz_jSW_OYiGnhXqTIDTXRLEExWFv8vZfRohm0B4p3iCu9vGoni7fdyoQpM2h42UcUTY4vGAczImu8k2gmuBsslcCX5_uNZSYAQDljuE_w3oeEDrhKZl6nJUdU6hNDffBslFIX0R7A5wl97ObJoVG7_DdC51s6h9sUBQ2PEIHLtJzzVjbZFiVfdzIXpkRePGgA6ly6sW3iidN10Q7nDEpJeQVVjca-MjoOVdPtBOgnqpZL1ErKtDcJQNcjMFnSUsmyIVMBOXjq5G5Hjf6ARefh5ILOlmbly6NZSj-JygiA8hidbTly0S0]--></g></svg>
