<svg contentStyleType="text/css" height="608" preserveAspectRatio="none" viewBox="0 0 892 608" width="892" xmlns="http://www.w3.org/2000/svg" zoomAndPan="magnify"><path d="m0 0h892v608h-892z" fill="#f0f8ff"/><path d="m85.957 46.4883h10v492.2793h-10z" fill="#fff" stroke="#181818"/><path d="m445.7046 333.5938h10v29.3105h-10z" fill="#fff" stroke="#181818"/><path d="m561.4668 509.457h10v29.3105h-10z" fill="#fff" stroke="#181818"/><path d="m677.4204 450.8359h10v29.3105h-10z" fill="#fff" stroke="#181818"/><path d="m10 112.1094h876.6182v134.5527h-876.6182z" fill="none" stroke="#000" stroke-width="1.5"/><g stroke-width=".5"><path d="m90 36.4883v520.2793" stroke="#181818" stroke-dasharray="5 5"/><path d="m302.4365 36.4883v520.2793" stroke="#181818" stroke-dasharray="5 5"/><path d="m450.582 36.4883v520.2793" stroke="#181818" stroke-dasharray="5 5"/><path d="m565.8271 36.4883v520.2793" stroke="#181818" stroke-dasharray="5 5"/><path d="m682.1064 36.4883v520.2793" stroke="#181818" stroke-dasharray="5 5"/><path d="m812.7344 36.4883v520.2793" stroke="#181818" stroke-dasharray="5 5"/><rect fill="#ddd" height="30.4883" rx="2.5" stroke="#666" width="141.9141" x="20" y="5"/></g><text fill="#333" font-family="sans-serif" font-size="14" lengthAdjust="spacing" textLength="127.9141" x="27" y="25.5352">Propagation Server</text><rect fill="#ddd" height="30.4883" rx="2.5" stroke="#666" stroke-width=".5" width="141.9141" x="20" y="555.7676"/><text fill="#333" font-family="sans-serif" font-size="14" lengthAdjust="spacing" textLength="127.9141" x="27" y="576.3027">Propagation Server</text><rect fill="#ddd" height="30.4883" rx="2.5" stroke="#666" stroke-width=".5" width="160.1455" x="222.4365" y="5"/><text fill="#333" font-family="sans-serif" font-size="14" lengthAdjust="spacing" textLength="146.1455" x="229.4365" y="25.5352">Configuration System</text><rect fill="#ddd" height="30.4883" rx="2.5" stroke="#666" stroke-width=".5" width="160.1455" x="222.4365" y="555.7676"/><text fill="#333" font-family="sans-serif" font-size="14" lengthAdjust="spacing" textLength="146.1455" x="229.4365" y="576.3027">Configuration System</text><rect fill="#ddd" height="30.4883" rx="2.5" stroke="#666" stroke-width=".5" width="116.2451" x="392.582" y="5"/><text fill="#333" font-family="sans-serif" font-size="14" lengthAdjust="spacing" textLength="102.2451" x="399.582" y="25.5352">UDP6 Listeners</text><rect fill="#ddd" height="30.4883" rx="2.5" stroke="#666" stroke-width=".5" width="116.2451" x="392.582" y="555.7676"/><text fill="#333" font-family="sans-serif" font-size="14" lengthAdjust="spacing" textLength="102.2451" x="399.582" y="576.3027">UDP6 Listeners</text><rect fill="#ddd" height="30.4883" rx="2.5" stroke="#666" stroke-width=".5" width="95.2793" x="518.8271" y="5"/><text fill="#333" font-family="sans-serif" font-size="14" lengthAdjust="spacing" textLength="81.2793" x="525.8271" y="25.5352">gRPC Server</text><rect fill="#ddd" height="30.4883" rx="2.5" stroke="#666" stroke-width=".5" width="95.2793" x="518.8271" y="555.7676"/><text fill="#333" font-family="sans-serif" font-size="14" lengthAdjust="spacing" textLength="81.2793" x="525.8271" y="576.3027">gRPC Server</text><rect fill="#ddd" height="30.4883" rx="2.5" stroke="#666" stroke-width=".5" width="116.6279" x="624.1064" y="5"/><text fill="#333" font-family="sans-serif" font-size="14" lengthAdjust="spacing" textLength="102.6279" x="631.1064" y="25.5352">Kafka Producer</text><rect fill="#ddd" height="30.4883" rx="2.5" stroke="#666" stroke-width=".5" width="116.6279" x="624.1064" y="555.7676"/><text fill="#333" font-family="sans-serif" font-size="14" lengthAdjust="spacing" textLength="102.6279" x="631.1064" y="576.3027">Kafka Producer</text><rect fill="#ddd" height="30.4883" rx="2.5" stroke="#666" stroke-width=".5" width="125.8838" x="750.7344" y="5"/><text fill="#333" font-family="sans-serif" font-size="14" lengthAdjust="spacing" textLength="111.8838" x="757.7344" y="25.5352">BlockchainClient</text><rect fill="#ddd" height="30.4883" rx="2.5" stroke="#666" stroke-width=".5" width="125.8838" x="750.7344" y="555.7676"/><text fill="#333" font-family="sans-serif" font-size="14" lengthAdjust="spacing" textLength="111.8838" x="757.7344" y="576.3027">BlockchainClient</text><path d="m85.957 46.4883h10v492.2793h-10z" fill="#fff" stroke="#181818"/><path d="m445.7046 333.5938h10v29.3105h-10z" fill="#fff" stroke="#181818"/><path d="m561.4668 509.457h10v29.3105h-10z" fill="#fff" stroke="#181818"/><path d="m677.4204 450.8359h10v29.3105h-10z" fill="#fff" stroke="#181818"/><path d="m290.5093 63.7988 10 4-10 4 4-4z" fill="#666" stroke="#666"/><path d="m95.957 67.7988h200.5523" stroke="#666"/><text fill="#333" font-family="sans-serif" font-size="13" lengthAdjust="spacing" textLength="137.5283" x="102.957" y="63.0566">Get fsm_state_restore</text><path d="m106.957 93.1094-10 4 10 4-4-4z" fill="#666" stroke="#666"/><path d="m100.957 97.1094h200.5523" stroke="#666" stroke-dasharray="2 2"/><text fill="#333" font-family="sans-serif" font-size="13" lengthAdjust="spacing" textLength="102.1909" x="112.957" y="92.3672">fsmStateRestore</text><path d="m10 112.1094h62.1387v7.3105l-10 10h-52.1387z" fill="#eee" stroke="#000" stroke-width="1.5"/><path d="m10 112.1094h876.6182v134.5527h-876.6182z" fill="none" stroke="#000" stroke-width="1.5"/><text fill="#333" font-family="sans-serif" font-size="13" font-weight="bold" lengthAdjust="spacing" textLength="17.1387" x="25" y="125.6777">alt</text><text fill="#333" font-family="sans-serif" font-size="11" font-weight="bold" lengthAdjust="spacing" textLength="152.8345" x="87.1387" y="124.7441">[if fsmStateRestore is true]</text><path d="m801.6763 146.7305 10 4-10 4 4-4z" fill="#666" stroke="#666"/><path d="m95.957 150.7305h711.7193" stroke="#666"/><text fill="#333" font-family="sans-serif" font-size="13" lengthAdjust="spacing" textLength="55.9546" x="102.957" y="145.9883">Restore()</text><path d="m106.957 176.041-10 4 10 4-4-4z" fill="#666" stroke="#666"/><path d="m100.957 180.041h711.7193" stroke="#666" stroke-dasharray="2 2"/><text fill="#333" font-family="sans-serif" font-size="13" lengthAdjust="spacing" textLength="55.6816" x="112.957" y="175.2988">Restored</text><path d="m801.6763 205.3516 10 4-10 4 4-4z" fill="#666" stroke="#666"/><path d="m95.957 209.3516h711.7193" stroke="#666"/><text fill="#333" font-family="sans-serif" font-size="13" lengthAdjust="spacing" textLength="299.2349" x="102.957" y="204.6094">WaitForFSMtoTransitionToGivenState(RUNNING)</text><path d="m106.957 234.6621-10 4 10 4-4-4z" fill="#666" stroke="#666"/><path d="m100.957 238.6621h711.7193" stroke="#666" stroke-dasharray="2 2"/><text fill="#333" font-family="sans-serif" font-size="13" lengthAdjust="spacing" textLength="139.2866" x="112.957" y="233.9199">FSM in RUNNING state</text><path d="m290.5093 270.9727 10 4-10 4 4-4z" fill="#666" stroke="#666"/><path d="m95.957 274.9727h200.5523" stroke="#666"/><text fill="#333" font-family="sans-serif" font-size="13" lengthAdjust="spacing" textLength="122.2305" x="102.957" y="270.2305">Get ipv6_addresses</text><path d="m106.957 300.2832-10 4 10 4-4-4z" fill="#666" stroke="#666"/><path d="m100.957 304.2832h200.5523" stroke="#666" stroke-dasharray="2 2"/><text fill="#333" font-family="sans-serif" font-size="13" lengthAdjust="spacing" textLength="91.9077" x="112.957" y="299.541">ipv6Addresses</text><path d="m433.7046 329.5938 10 4-10 4 4-4z" fill="#666" stroke="#666"/><path d="m95.957 333.5938h343.7476" stroke="#666"/><text fill="#333" font-family="sans-serif" font-size="13" lengthAdjust="spacing" textLength="248.1362" x="102.957" y="328.8516">StartUDP6Listeners(ctx, ipv6Addresses)</text><path d="m106.957 358.9043-10 4 10 4-4-4z" fill="#666" stroke="#666"/><path d="m100.957 362.9043h348.7476" stroke="#666" stroke-dasharray="2 2"/><text fill="#333" font-family="sans-serif" font-size="13" lengthAdjust="spacing" textLength="146.7832" x="112.957" y="358.1621">Listeners started/failed</text><path d="m290.5093 388.2148 10 4-10 4 4-4z" fill="#666" stroke="#666"/><path d="m95.957 392.2148h200.5523" stroke="#666"/><text fill="#333" font-family="sans-serif" font-size="13" lengthAdjust="spacing" textLength="182.5522" x="102.957" y="387.4727">Get kafka_validatortxsConfig</text><path d="m106.957 417.5254-10 4 10 4-4-4z" fill="#666" stroke="#666"/><path d="m100.957 421.5254h200.5523" stroke="#666" stroke-dasharray="2 2"/><text fill="#333" font-family="sans-serif" font-size="13" lengthAdjust="spacing" textLength="76.0259" x="112.957" y="416.7832">kafkaConfig</text><path d="m665.4204 446.8359 10 4-10 4 4-4z" fill="#666" stroke="#666"/><path d="m95.957 450.8359h575.4634" stroke="#666"/><text fill="#333" font-family="sans-serif" font-size="13" lengthAdjust="spacing" textLength="134.7671" x="102.957" y="446.0938">Setup Kafka Producer</text><path d="m106.957 476.1465-10 4 10 4-4-4z" fill="#666" stroke="#666"/><path d="m100.957 480.1465h580.4634" stroke="#666" stroke-dasharray="2 2"/><text fill="#333" font-family="sans-serif" font-size="13" lengthAdjust="spacing" textLength="134.126" x="112.957" y="475.4043">Kafka Producer ready</text><path d="m549.4668 505.457 10 4-10 4 4-4z" fill="#666" stroke="#666"/><path d="m95.957 509.457h459.5098" stroke="#666"/><text fill="#333" font-family="sans-serif" font-size="13" lengthAdjust="spacing" textLength="224.5674" x="102.957" y="504.7148">StartGRPCServer(ctx, "propagation")</text><path d="m101.957 534.7676-10 4 10 4-4-4z" fill="#666" stroke="#666"/><path d="m95.957 538.7676h469.5098" stroke="#666" stroke-dasharray="2 2"/><text fill="#333" font-family="sans-serif" font-size="13" lengthAdjust="spacing" textLength="165.5786" x="107.957" y="534.0254">gRPC Server started/failed</text><text fill="#333" font-family="sans-serif" font-size="10" lengthAdjust="spacing" textLength="156.4355" y="597.9238">Last Modified On: 25-Mar-2025</text></svg>
