<svg xmlns="http://www.w3.org/2000/svg" xmlns:xlink="http://www.w3.org/1999/xlink" contentStyleType="text/css" height="616px" preserveAspectRatio="none" style="width:553px;height:616px;background:#F0F8FF;" version="1.1" viewBox="0 0 553 616" width="553px" zoomAndPan="magnify"><defs/><g><rect fill="#F0F8FF" height="616" style="stroke:none;stroke-width:1.0;" width="553" x="0" y="0"/><rect fill="#FFFFFF" height="428.0371" style="stroke:#181818;stroke-width:1.0;" width="10" x="82.8652" y="119.1094"/><rect fill="#FFFFFF" height="29.3105" style="stroke:#181818;stroke-width:1.0;" width="10" x="402.9243" y="153.4199"/><rect fill="#FFFFFF" height="29.3105" style="stroke:#181818;stroke-width:1.0;" width="10" x="402.9243" y="313.9727"/><rect fill="#FFFFFF" height="29.3105" style="stroke:#181818;stroke-width:1.0;" width="10" x="402.9243" y="517.8359"/><rect fill="#FFFFFF" height="29.3105" style="stroke:#181818;stroke-width:1.0;" width="10" x="500.7798" y="212.041"/><rect fill="#FFFFFF" height="29.3105" style="stroke:#181818;stroke-width:1.0;" width="10" x="500.7798" y="415.9043"/><line style="stroke:#181818;stroke-width:0.5;stroke-dasharray:5.0,5.0;" x1="87" x2="87" y1="36.4883" y2="565.1465"/><line style="stroke:#181818;stroke-width:0.5;stroke-dasharray:5.0,5.0;" x1="407.4551" x2="407.4551" y1="36.4883" y2="565.1465"/><line style="stroke:#181818;stroke-width:0.5;stroke-dasharray:5.0,5.0;" x1="505.3936" x2="505.3936" y1="36.4883" y2="565.1465"/><rect fill="#DDDDDD" height="30.4883" rx="2.5" ry="2.5" style="stroke:#666666;stroke-width:0.5;" width="165.7305" x="5" y="5"/><text fill="#333333" font-family="sans-serif" font-size="14" lengthAdjust="spacing" textLength="151.7305" x="12" y="25.5352">Block Assembly Server</text><rect fill="#DDDDDD" height="30.4883" rx="2.5" ry="2.5" style="stroke:#666666;stroke-width:0.5;" width="165.7305" x="5" y="564.1465"/><text fill="#333333" font-family="sans-serif" font-size="14" lengthAdjust="spacing" textLength="151.7305" x="12" y="584.6816">Block Assembly Server</text><rect fill="#DDDDDD" height="30.4883" rx="2.5" ry="2.5" style="stroke:#666666;stroke-width:0.5;" width="104.9385" x="355.4551" y="5"/><text fill="#333333" font-family="sans-serif" font-size="14" lengthAdjust="spacing" textLength="90.9385" x="362.4551" y="25.5352">Subtree Store</text><rect fill="#DDDDDD" height="30.4883" rx="2.5" ry="2.5" style="stroke:#666666;stroke-width:0.5;" width="104.9385" x="355.4551" y="564.1465"/><text fill="#333333" font-family="sans-serif" font-size="14" lengthAdjust="spacing" textLength="90.9385" x="362.4551" y="584.6816">Subtree Store</text><rect fill="#DDDDDD" height="30.4883" rx="2.5" ry="2.5" style="stroke:#666666;stroke-width:0.5;" width="70.7725" x="470.3936" y="5"/><text fill="#333333" font-family="sans-serif" font-size="14" lengthAdjust="spacing" textLength="56.7725" x="477.3936" y="25.5352">Tx Store</text><rect fill="#DDDDDD" height="30.4883" rx="2.5" ry="2.5" style="stroke:#666666;stroke-width:0.5;" width="70.7725" x="470.3936" y="564.1465"/><text fill="#333333" font-family="sans-serif" font-size="14" lengthAdjust="spacing" textLength="56.7725" x="477.3936" y="584.6816">Tx Store</text><rect fill="#FFFFFF" height="428.0371" style="stroke:#181818;stroke-width:1.0;" width="10" x="82.8652" y="119.1094"/><rect fill="#FFFFFF" height="29.3105" style="stroke:#181818;stroke-width:1.0;" width="10" x="402.9243" y="153.4199"/><rect fill="#FFFFFF" height="29.3105" style="stroke:#181818;stroke-width:1.0;" width="10" x="402.9243" y="313.9727"/><rect fill="#FFFFFF" height="29.3105" style="stroke:#181818;stroke-width:1.0;" width="10" x="402.9243" y="517.8359"/><rect fill="#FFFFFF" height="29.3105" style="stroke:#181818;stroke-width:1.0;" width="10" x="500.7798" y="212.041"/><rect fill="#FFFFFF" height="29.3105" style="stroke:#181818;stroke-width:1.0;" width="10" x="500.7798" y="415.9043"/><rect fill="#EEEEEE" height="3" style="stroke:#EEEEEE;stroke-width:1.0;" width="546.166" x="0" y="67.1436"/><line style="stroke:#000000;stroke-width:1.0;" x1="0" x2="546.166" y1="67.1436" y2="67.1436"/><line style="stroke:#000000;stroke-width:1.0;" x1="0" x2="546.166" y1="70.1436" y2="70.1436"/><rect fill="#EEEEEE" height="23.3105" style="stroke:#000000;stroke-width:2.0;" width="122.4116" x="211.8772" y="56.4883"/><text fill="#333333" font-family="sans-serif" font-size="13" font-weight="bold" lengthAdjust="spacing" textLength="104.127" x="217.8772" y="73.0566">Initialize Stores</text><line style="stroke:#666666;stroke-width:1.0;" x1="87.8652" x2="134.8652" y1="106.1094" y2="106.1094"/><line style="stroke:#666666;stroke-width:1.0;" x1="134.8652" x2="134.8652" y1="106.1094" y2="119.1094"/><line style="stroke:#666666;stroke-width:1.0;" x1="93.8652" x2="134.8652" y1="119.1094" y2="119.1094"/><polygon fill="#666666" points="103.8652,115.1094,93.8652,119.1094,103.8652,123.1094,99.8652,119.1094" style="stroke:#666666;stroke-width:1.0;"/><text fill="#333333" font-family="sans-serif" font-size="13" lengthAdjust="spacing" textLength="134.7544" x="99.8652" y="101.3672">NewHTTPBlobServer()</text><polygon fill="#666666" points="390.9243,149.4199,400.9243,153.4199,390.9243,157.4199,394.9243,153.4199" style="stroke:#666666;stroke-width:1.0;"/><line style="stroke:#666666;stroke-width:1.0;" x1="92.8652" x2="396.9243" y1="153.4199" y2="153.4199"/><text fill="#333333" font-family="sans-serif" font-size="13" lengthAdjust="spacing" textLength="268.8105" x="99.8652" y="148.6777">NewStore(logger, subtreeStoreURL, opts...)</text><polygon fill="#666666" points="103.8652,178.7305,93.8652,182.7305,103.8652,186.7305,99.8652,182.7305" style="stroke:#666666;stroke-width:1.0;"/><line style="stroke:#666666;stroke-width:1.0;stroke-dasharray:2.0,2.0;" x1="97.8652" x2="406.9243" y1="182.7305" y2="182.7305"/><text fill="#333333" font-family="sans-serif" font-size="13" lengthAdjust="spacing" textLength="79.9551" x="109.8652" y="177.9883">subtreeStore</text><polygon fill="#666666" points="488.7798,208.041,498.7798,212.041,488.7798,216.041,492.7798,212.041" style="stroke:#666666;stroke-width:1.0;"/><line style="stroke:#666666;stroke-width:1.0;" x1="92.8652" x2="494.7798" y1="212.041" y2="212.041"/><text fill="#333333" font-family="sans-serif" font-size="13" lengthAdjust="spacing" textLength="185.8784" x="99.8652" y="207.2988">NewStore(logger, txStoreURL)</text><polygon fill="#666666" points="103.8652,237.3516,93.8652,241.3516,103.8652,245.3516,99.8652,241.3516" style="stroke:#666666;stroke-width:1.0;"/><line style="stroke:#666666;stroke-width:1.0;stroke-dasharray:2.0,2.0;" x1="97.8652" x2="504.7798" y1="241.3516" y2="241.3516"/><text fill="#333333" font-family="sans-serif" font-size="13" lengthAdjust="spacing" textLength="45.2461" x="109.8652" y="236.6094">txStore</text><rect fill="#EEEEEE" height="3" style="stroke:#EEEEEE;stroke-width:1.0;" width="546.166" x="0" y="270.0068"/><line style="stroke:#000000;stroke-width:1.0;" x1="0" x2="546.166" y1="270.0068" y2="270.0068"/><line style="stroke:#000000;stroke-width:1.0;" x1="0" x2="546.166" y1="273.0068" y2="273.0068"/><rect fill="#EEEEEE" height="23.3105" style="stroke:#000000;stroke-width:2.0;" width="141.1943" x="202.4858" y="259.3516"/><text fill="#333333" font-family="sans-serif" font-size="13" font-weight="bold" lengthAdjust="spacing" textLength="122.9097" x="208.4858" y="275.9199">Store New Subtree</text><polygon fill="#666666" points="390.9243,309.9727,400.9243,313.9727,390.9243,317.9727,394.9243,313.9727" style="stroke:#666666;stroke-width:1.0;"/><line style="stroke:#666666;stroke-width:1.0;" x1="92.8652" x2="396.9243" y1="313.9727" y2="313.9727"/><text fill="#333333" font-family="sans-serif" font-size="13" lengthAdjust="spacing" textLength="291.0591" x="99.8652" y="309.2305">Set(ctx, subtreeHash, subtreeBytes, options...)</text><polygon fill="#666666" points="103.8652,339.2832,93.8652,343.2832,103.8652,347.2832,99.8652,343.2832" style="stroke:#666666;stroke-width:1.0;"/><line style="stroke:#666666;stroke-width:1.0;stroke-dasharray:2.0,2.0;" x1="97.8652" x2="406.9243" y1="343.2832" y2="343.2832"/><text fill="#333333" font-family="sans-serif" font-size="13" lengthAdjust="spacing" textLength="17.8813" x="109.8652" y="338.541">err</text><rect fill="#EEEEEE" height="3" style="stroke:#EEEEEE;stroke-width:1.0;" width="546.166" x="0" y="371.9385"/><line style="stroke:#000000;stroke-width:1.0;" x1="0" x2="546.166" y1="371.9385" y2="371.9385"/><line style="stroke:#000000;stroke-width:1.0;" x1="0" x2="546.166" y1="374.9385" y2="374.9385"/><rect fill="#EEEEEE" height="23.3105" style="stroke:#000000;stroke-width:2.0;" width="202.2397" x="171.9631" y="361.2832"/><text fill="#333333" font-family="sans-serif" font-size="13" font-weight="bold" lengthAdjust="spacing" textLength="183.9551" x="177.9631" y="377.8516">Store Coinbase Transaction</text><polygon fill="#666666" points="488.7798,411.9043,498.7798,415.9043,488.7798,419.9043,492.7798,415.9043" style="stroke:#666666;stroke-width:1.0;"/><line style="stroke:#666666;stroke-width:1.0;" x1="92.8652" x2="494.7798" y1="415.9043" y2="415.9043"/><text fill="#333333" font-family="sans-serif" font-size="13" lengthAdjust="spacing" textLength="271.7241" x="99.8652" y="411.1621">Set(ctx, coinbaseTxHash, coinbaseTxBytes)</text><polygon fill="#666666" points="103.8652,441.2148,93.8652,445.2148,103.8652,449.2148,99.8652,445.2148" style="stroke:#666666;stroke-width:1.0;"/><line style="stroke:#666666;stroke-width:1.0;stroke-dasharray:2.0,2.0;" x1="97.8652" x2="504.7798" y1="445.2148" y2="445.2148"/><text fill="#333333" font-family="sans-serif" font-size="13" lengthAdjust="spacing" textLength="17.8813" x="109.8652" y="440.4727">err</text><rect fill="#EEEEEE" height="3" style="stroke:#EEEEEE;stroke-width:1.0;" width="546.166" x="0" y="473.8701"/><line style="stroke:#000000;stroke-width:1.0;" x1="0" x2="546.166" y1="473.8701" y2="473.8701"/><line style="stroke:#000000;stroke-width:1.0;" x1="0" x2="546.166" y1="476.8701" y2="476.8701"/><rect fill="#EEEEEE" height="23.3105" style="stroke:#000000;stroke-width:2.0;" width="160.6943" x="192.7358" y="463.2148"/><text fill="#333333" font-family="sans-serif" font-size="13" font-weight="bold" lengthAdjust="spacing" textLength="142.4097" x="198.7358" y="479.7832">Remove Subtree DAH</text><polygon fill="#666666" points="390.9243,513.8359,400.9243,517.8359,390.9243,521.8359,394.9243,517.8359" style="stroke:#666666;stroke-width:1.0;"/><line style="stroke:#666666;stroke-width:1.0;" x1="92.8652" x2="396.9243" y1="517.8359" y2="517.8359"/><text fill="#333333" font-family="sans-serif" font-size="13" lengthAdjust="spacing" textLength="246.9937" x="99.8652" y="513.0938">SetDAH(ctx, subtreeHash, 0, options...)</text><polygon fill="#666666" points="98.8652,543.1465,88.8652,547.1465,98.8652,551.1465,94.8652,547.1465" style="stroke:#666666;stroke-width:1.0;"/><line style="stroke:#666666;stroke-width:1.0;stroke-dasharray:2.0,2.0;" x1="92.8652" x2="406.9243" y1="547.1465" y2="547.1465"/><text fill="#333333" font-family="sans-serif" font-size="13" lengthAdjust="spacing" textLength="17.8813" x="104.8652" y="542.4043">err</text><text fill="#333333" font-family="sans-serif" font-size="10" lengthAdjust="spacing" textLength="157.5488" x="0" y="606.3027">Last Modified On: 04-Aug-2025</text><!--SRC=[lLHXQzim4FskNt5aZAQGX49XZ48AJOF9eDb6u_u0sJfd8eeKf4lgREo_JvCTLovsO2rC7sphxjtJUy_ORYFrZbk-XOpdcxKrUotkZJ8MFYHNoUSaOQv122puNb5YDDMGwx0Y2BVMFDVDJs4nTW5pBAH6o8mLQ1qKlikL0bIuHKqkclTRIKVunG1c0TtcyjNNAkTXiTyiOiczGclKUsdybMGkTrpJswWOYoa6CsNo3TmvXzjC7M65ze1s0Dn1w9mQLRqzkjfdP15XHSPY6AaheT36fcK4IyiAmQPJ-A8bIQxapvh7mNJAEew6yMsNeXluYi-BDFtkUrbL6buodfCySC9E3ptaiVR06fw6ogpNQ4VWelRJuyC8p8xSP3A93ckvZpSmxXCVipA1tLGzWkiKExHIUP8PgJk5Nj_xDTNJiPpuXLNJ_ioJo3Clh9tf2ccOKzbakU3kHxEP7GbTI5KQ_VvWqThUF5zSt1kfC-wyGSkr-uis-eoT9l76ILuJf6LbvcKV_Bmb_bVAu-WVSMiEZHcOtot-9NiFxuZ_wZzb7ZMwFagci23_4pRarJzmHx0qGXOI1NpJD_1H-C7XG8ZnShaS7_qQNB8_]--></g></svg>
