<?xml version="1.0" encoding="us-ascii" standalone="no"?><svg xmlns="http://www.w3.org/2000/svg" xmlns:xlink="http://www.w3.org/1999/xlink" contentStyleType="text/css" height="1197px" preserveAspectRatio="none" style="width:1060px;height:1197px;background:#FFFFFF;" version="1.1" viewBox="0 0 1060 1197" width="1060px" zoomAndPan="magnify"><defs/><g><rect fill="#FFFFFF" height="931.7637" style="stroke:#181818;stroke-width:1.0;" width="10" x="437.5" y="165.4199"/><rect fill="#FFFFFF" height="889.4531" style="stroke:#181818;stroke-width:1.0;" width="10" x="442.5" y="207.7305"/><rect fill="#FFFFFF" height="431.7266" style="stroke:#181818;stroke-width:1.0;" width="10" x="447.5" y="472.9043"/><rect fill="#FFFFFF" height="118.9316" style="stroke:#181818;stroke-width:1.0;" width="10" x="447.5" y="978.252"/><rect fill="none" height="486.3477" style="stroke:#000000;stroke-width:1.5;" width="724" x="330" y="426.2832"/><rect fill="none" height="60.6211" style="stroke:#000000;stroke-width:1.5;" width="491" x="350" y="564.5254"/><rect fill="none" height="152.5527" style="stroke:#000000;stroke-width:1.5;" width="511" x="340" y="681.457"/><rect fill="none" height="107.2422" style="stroke:#000000;stroke-width:1.5;" width="491" x="350" y="705.7676"/><line style="stroke:#181818;stroke-width:0.5;stroke-dasharray:5.0,5.0;" x1="74" x2="74" y1="67.4883" y2="1115.1836"/><line style="stroke:#181818;stroke-width:0.5;stroke-dasharray:5.0,5.0;" x1="282.5" x2="282.5" y1="67.4883" y2="1115.1836"/><line style="stroke:#181818;stroke-width:0.5;stroke-dasharray:5.0,5.0;" x1="442" x2="442" y1="67.4883" y2="1115.1836"/><line style="stroke:#181818;stroke-width:0.5;stroke-dasharray:5.0,5.0;" x1="784" x2="784" y1="67.4883" y2="1115.1836"/><line style="stroke:#181818;stroke-width:0.5;stroke-dasharray:5.0,5.0;" x1="894" x2="894" y1="67.4883" y2="1115.1836"/><line style="stroke:#181818;stroke-width:0.5;stroke-dasharray:5.0,5.0;" x1="1000" x2="1000" y1="67.4883" y2="1115.1836"/><rect fill="#E2E2F0" height="30.4883" rx="2.5" ry="2.5" style="stroke:#181818;stroke-width:0.5;" width="139" x="5" y="36"/><text fill="#000000" font-family="sans-serif" font-size="14" lengthAdjust="spacing" textLength="125" x="12" y="56.5352">Blockchain Service</text><rect fill="#E2E2F0" height="30.4883" rx="2.5" ry="2.5" style="stroke:#181818;stroke-width:0.5;" width="139" x="5" y="1114.1836"/><text fill="#000000" font-family="sans-serif" font-size="14" lengthAdjust="spacing" textLength="125" x="12" y="1134.7188">Blockchain Service</text><rect fill="#E2E2F0" height="30.4883" rx="2.5" ry="2.5" style="stroke:#181818;stroke-width:0.5;" width="52" x="256.5" y="36"/><text fill="#000000" font-family="sans-serif" font-size="14" lengthAdjust="spacing" textLength="38" x="263.5" y="56.5352">Kafka</text><rect fill="#E2E2F0" height="30.4883" rx="2.5" ry="2.5" style="stroke:#181818;stroke-width:0.5;" width="52" x="256.5" y="1114.1836"/><text fill="#000000" font-family="sans-serif" font-size="14" lengthAdjust="spacing" textLength="38" x="263.5" y="1134.7188">Kafka</text><rect fill="#E2E2F0" height="30.4883" rx="2.5" ry="2.5" style="stroke:#181818;stroke-width:0.5;" width="165" x="360" y="36"/><text fill="#000000" font-family="sans-serif" font-size="14" lengthAdjust="spacing" textLength="151" x="367" y="56.5352">Block Persister Service</text><rect fill="#E2E2F0" height="30.4883" rx="2.5" ry="2.5" style="stroke:#181818;stroke-width:0.5;" width="165" x="360" y="1114.1836"/><text fill="#000000" font-family="sans-serif" font-size="14" lengthAdjust="spacing" textLength="151" x="367" y="1134.7188">Block Persister Service</text><text fill="#000000" font-family="sans-serif" font-size="14" lengthAdjust="spacing" textLength="87" x="738" y="64.5352">TxMetaStore</text><path d="M766.5,15 C766.5,5 784.5,5 784.5,5 C784.5,5 802.5,5 802.5,15 L802.5,41 C802.5,51 784.5,51 784.5,51 C784.5,51 766.5,51 766.5,41 L766.5,15 " fill="#E2E2F0" style="stroke:#181818;stroke-width:1.5;"/><path d="M766.5,15 C766.5,25 784.5,25 784.5,25 C784.5,25 802.5,25 802.5,15 " fill="none" style="stroke:#181818;stroke-width:1.5;"/><text fill="#000000" font-family="sans-serif" font-size="14" lengthAdjust="spacing" textLength="87" x="738" y="1127.7188">TxMetaStore</text><path d="M766.5,1140.6719 C766.5,1130.6719 784.5,1130.6719 784.5,1130.6719 C784.5,1130.6719 802.5,1130.6719 802.5,1140.6719 L802.5,1166.6719 C802.5,1176.6719 784.5,1176.6719 784.5,1176.6719 C784.5,1176.6719 766.5,1176.6719 766.5,1166.6719 L766.5,1140.6719 " fill="#E2E2F0" style="stroke:#181818;stroke-width:1.5;"/><path d="M766.5,1140.6719 C766.5,1150.6719 784.5,1150.6719 784.5,1150.6719 C784.5,1150.6719 802.5,1150.6719 802.5,1140.6719 " fill="none" style="stroke:#181818;stroke-width:1.5;"/><text fill="#000000" font-family="sans-serif" font-size="14" lengthAdjust="spacing" textLength="100" x="841" y="64.5352">Substree Store</text><path d="M876,15 C876,5 894,5 894,5 C894,5 912,5 912,15 L912,41 C912,51 894,51 894,51 C894,51 876,51 876,41 L876,15 " fill="#E2E2F0" style="stroke:#181818;stroke-width:1.5;"/><path d="M876,15 C876,25 894,25 894,25 C894,25 912,25 912,15 " fill="none" style="stroke:#181818;stroke-width:1.5;"/><text fill="#000000" font-family="sans-serif" font-size="14" lengthAdjust="spacing" textLength="100" x="841" y="1127.7188">Substree Store</text><path d="M876,1140.6719 C876,1130.6719 894,1130.6719 894,1130.6719 C894,1130.6719 912,1130.6719 912,1140.6719 L912,1166.6719 C912,1176.6719 894,1176.6719 894,1176.6719 C894,1176.6719 876,1176.6719 876,1166.6719 L876,1140.6719 " fill="#E2E2F0" style="stroke:#181818;stroke-width:1.5;"/><path d="M876,1140.6719 C876,1150.6719 894,1150.6719 894,1150.6719 C894,1150.6719 912,1150.6719 912,1140.6719 " fill="none" style="stroke:#181818;stroke-width:1.5;"/><text fill="#000000" font-family="sans-serif" font-size="14" lengthAdjust="spacing" textLength="81" x="957" y="64.5352">File Storage</text><path d="M982.5,15 C982.5,5 1000.5,5 1000.5,5 C1000.5,5 1018.5,5 1018.5,15 L1018.5,41 C1018.5,51 1000.5,51 1000.5,51 C1000.5,51 982.5,51 982.5,41 L982.5,15 " fill="#E2E2F0" style="stroke:#181818;stroke-width:1.5;"/><path d="M982.5,15 C982.5,25 1000.5,25 1000.5,25 C1000.5,25 1018.5,25 1018.5,15 " fill="none" style="stroke:#181818;stroke-width:1.5;"/><text fill="#000000" font-family="sans-serif" font-size="14" lengthAdjust="spacing" textLength="81" x="957" y="1127.7188">File Storage</text><path d="M982.5,1140.6719 C982.5,1130.6719 1000.5,1130.6719 1000.5,1130.6719 C1000.5,1130.6719 1018.5,1130.6719 1018.5,1140.6719 L1018.5,1166.6719 C1018.5,1176.6719 1000.5,1176.6719 1000.5,1176.6719 C1000.5,1176.6719 982.5,1176.6719 982.5,1166.6719 L982.5,1140.6719 " fill="#E2E2F0" style="stroke:#181818;stroke-width:1.5;"/><path d="M982.5,1140.6719 C982.5,1150.6719 1000.5,1150.6719 1000.5,1150.6719 C1000.5,1150.6719 1018.5,1150.6719 1018.5,1140.6719 " fill="none" style="stroke:#181818;stroke-width:1.5;"/><rect fill="#FFFFFF" height="931.7637" style="stroke:#181818;stroke-width:1.0;" width="10" x="437.5" y="165.4199"/><rect fill="#FFFFFF" height="889.4531" style="stroke:#181818;stroke-width:1.0;" width="10" x="442.5" y="207.7305"/><rect fill="#FFFFFF" height="431.7266" style="stroke:#181818;stroke-width:1.0;" width="10" x="447.5" y="472.9043"/><rect fill="#FFFFFF" height="118.9316" style="stroke:#181818;stroke-width:1.0;" width="10" x="447.5" y="978.252"/><polygon fill="#181818" points="270.5,94.7988,280.5,98.7988,270.5,102.7988,274.5,98.7988" style="stroke:#181818;stroke-width:1.0;"/><line style="stroke:#181818;stroke-width:1.0;" x1="74.5" x2="276.5" y1="98.7988" y2="98.7988"/><text fill="#000000" font-family="sans-serif" font-size="13" lengthAdjust="spacing" textLength="184" x="81.5" y="94.0566">Emit Kafka Block Notification</text><polygon fill="#181818" points="430.5,124.1094,440.5,128.1094,430.5,132.1094,434.5,128.1094" style="stroke:#181818;stroke-width:1.0;"/><line style="stroke:#181818;stroke-width:1.0;" x1="282.5" x2="436.5" y1="128.1094" y2="128.1094"/><text fill="#000000" font-family="sans-serif" font-size="13" lengthAdjust="spacing" textLength="136" x="289.5" y="123.3672">Notify Block Received</text><line style="stroke:#181818;stroke-width:1.0;" x1="442.5" x2="489.5" y1="152.4199" y2="152.4199"/><line style="stroke:#181818;stroke-width:1.0;" x1="489.5" x2="489.5" y1="152.4199" y2="165.4199"/><line style="stroke:#181818;stroke-width:1.0;" x1="448.5" x2="489.5" y1="165.4199" y2="165.4199"/><polygon fill="#181818" points="458.5,161.4199,448.5,165.4199,458.5,169.4199,454.5,165.4199" style="stroke:#181818;stroke-width:1.0;"/><text fill="#000000" font-family="sans-serif" font-size="13" lengthAdjust="spacing" textLength="240" x="454.5" y="147.6777">blocksFinalHandler(ctx, _, blockBytes)</text><line style="stroke:#181818;stroke-width:1.0;" x1="447.5" x2="494.5" y1="194.7305" y2="194.7305"/><line style="stroke:#181818;stroke-width:1.0;" x1="494.5" x2="494.5" y1="194.7305" y2="207.7305"/><line style="stroke:#181818;stroke-width:1.0;" x1="453.5" x2="494.5" y1="207.7305" y2="207.7305"/><polygon fill="#181818" points="463.5,203.7305,453.5,207.7305,463.5,211.7305,459.5,207.7305" style="stroke:#181818;stroke-width:1.0;"/><text fill="#000000" font-family="sans-serif" font-size="13" lengthAdjust="spacing" textLength="219" x="459.5" y="189.9883">persistBlock(ctx, hash, blockBytes)</text><line style="stroke:#181818;stroke-width:1.0;" x1="452.5" x2="494.5" y1="242.041" y2="242.041"/><line style="stroke:#181818;stroke-width:1.0;" x1="494.5" x2="494.5" y1="242.041" y2="255.041"/><line style="stroke:#181818;stroke-width:1.0;" x1="453.5" x2="494.5" y1="255.041" y2="255.041"/><polygon fill="#181818" points="463.5,251.041,453.5,255.041,463.5,259.041,459.5,255.041" style="stroke:#181818;stroke-width:1.0;"/><text fill="#000000" font-family="sans-serif" font-size="13" lengthAdjust="spacing" textLength="164" x="459.5" y="237.2988">Create UTXODiff for block</text><line style="stroke:#181818;stroke-width:1.0;" x1="452.5" x2="494.5" y1="284.3516" y2="284.3516"/><line style="stroke:#181818;stroke-width:1.0;" x1="494.5" x2="494.5" y1="284.3516" y2="297.3516"/><line style="stroke:#181818;stroke-width:1.0;" x1="453.5" x2="494.5" y1="297.3516" y2="297.3516"/><polygon fill="#181818" points="463.5,293.3516,453.5,297.3516,463.5,301.3516,459.5,297.3516" style="stroke:#181818;stroke-width:1.0;"/><text fill="#000000" font-family="sans-serif" font-size="13" lengthAdjust="spacing" textLength="229" x="459.5" y="279.6094">Add coinbase utxos to the UTXODiff</text><line style="stroke:#181818;stroke-width:1.0;" x1="452.5" x2="494.5" y1="326.6621" y2="326.6621"/><line style="stroke:#181818;stroke-width:1.0;" x1="494.5" x2="494.5" y1="326.6621" y2="339.6621"/><line style="stroke:#181818;stroke-width:1.0;" x1="453.5" x2="494.5" y1="339.6621" y2="339.6621"/><polygon fill="#181818" points="463.5,335.6621,453.5,339.6621,463.5,343.6621,459.5,339.6621" style="stroke:#181818;stroke-width:1.0;"/><text fill="#000000" font-family="sans-serif" font-size="13" lengthAdjust="spacing" textLength="125" x="459.5" y="321.9199">Create file for block</text><line style="stroke:#181818;stroke-width:1.0;" x1="452.5" x2="494.5" y1="368.9727" y2="368.9727"/><line style="stroke:#181818;stroke-width:1.0;" x1="494.5" x2="494.5" y1="368.9727" y2="381.9727"/><line style="stroke:#181818;stroke-width:1.0;" x1="453.5" x2="494.5" y1="381.9727" y2="381.9727"/><polygon fill="#181818" points="463.5,377.9727,453.5,381.9727,463.5,385.9727,459.5,381.9727" style="stroke:#181818;stroke-width:1.0;"/><text fill="#000000" font-family="sans-serif" font-size="13" lengthAdjust="spacing" textLength="248" x="459.5" y="364.2305">Write block header to block file (.block)</text><polygon fill="#181818" points="988.5,407.2832,998.5,411.2832,988.5,415.2832,992.5,411.2832" style="stroke:#181818;stroke-width:1.0;"/><line style="stroke:#181818;stroke-width:1.0;" x1="452.5" x2="994.5" y1="411.2832" y2="411.2832"/><text fill="#000000" font-family="sans-serif" font-size="13" lengthAdjust="spacing" textLength="224" x="459.5" y="406.541">Persist block file (.block) to storage</text><path d="M330,426.2832 L404,426.2832 L404,433.5938 L394,443.5938 L330,443.5938 L330,426.2832 " fill="#EEEEEE" style="stroke:#000000;stroke-width:1.5;"/><rect fill="none" height="486.3477" style="stroke:#000000;stroke-width:1.5;" width="724" x="330" y="426.2832"/><text fill="#000000" font-family="sans-serif" font-size="13" font-weight="bold" lengthAdjust="spacing" textLength="29" x="345" y="439.8516">loop</text><text fill="#000000" font-family="sans-serif" font-size="11" font-weight="bold" lengthAdjust="spacing" textLength="170" x="419" y="438.918">[for each Subtree in the Block]</text><line style="stroke:#181818;stroke-width:1.0;" x1="452.5" x2="499.5" y1="459.9043" y2="459.9043"/><line style="stroke:#181818;stroke-width:1.0;" x1="499.5" x2="499.5" y1="459.9043" y2="472.9043"/><line style="stroke:#181818;stroke-width:1.0;" x1="458.5" x2="499.5" y1="472.9043" y2="472.9043"/><polygon fill="#181818" points="468.5,468.9043,458.5,472.9043,468.5,476.9043,464.5,472.9043" style="stroke:#181818;stroke-width:1.0;"/><text fill="#000000" font-family="sans-serif" font-size="13" lengthAdjust="spacing" textLength="211" x="464.5" y="455.1621">processSubtree(ctx, subtreeHash)</text><line style="stroke:#181818;stroke-width:1.0;" x1="457.5" x2="499.5" y1="507.2148" y2="507.2148"/><line style="stroke:#181818;stroke-width:1.0;" x1="499.5" x2="499.5" y1="507.2148" y2="520.2148"/><line style="stroke:#181818;stroke-width:1.0;" x1="458.5" x2="499.5" y1="520.2148" y2="520.2148"/><polygon fill="#181818" points="468.5,516.2148,458.5,520.2148,468.5,524.2148,464.5,520.2148" style="stroke:#181818;stroke-width:1.0;"/><text fill="#000000" font-family="sans-serif" font-size="13" lengthAdjust="spacing" textLength="137" x="464.5" y="502.4727">Create file for subtree</text><polygon fill="#181818" points="882,545.5254,892,549.5254,882,553.5254,886,549.5254" style="stroke:#181818;stroke-width:1.0;"/><line style="stroke:#181818;stroke-width:1.0;" x1="457.5" x2="888" y1="549.5254" y2="549.5254"/><text fill="#000000" font-family="sans-serif" font-size="13" lengthAdjust="spacing" textLength="193" x="464.5" y="544.7832">Get Subtree from Subtree Store</text><path d="M350,564.5254 L424,564.5254 L424,571.8359 L414,581.8359 L350,581.8359 L350,564.5254 " fill="#EEEEEE" style="stroke:#000000;stroke-width:1.5;"/><rect fill="none" height="60.6211" style="stroke:#000000;stroke-width:1.5;" width="491" x="350" y="564.5254"/><text fill="#000000" font-family="sans-serif" font-size="13" font-weight="bold" lengthAdjust="spacing" textLength="29" x="365" y="578.0938">loop</text><text fill="#000000" font-family="sans-serif" font-size="11" font-weight="bold" lengthAdjust="spacing" textLength="170" x="439" y="577.1602">[for each 1000s Tx in Subtree]</text><polygon fill="#181818" points="772.5,599.1465,782.5,603.1465,772.5,607.1465,776.5,603.1465" style="stroke:#181818;stroke-width:1.0;"/><line style="stroke:#181818;stroke-width:1.0;" x1="457.5" x2="778.5" y1="603.1465" y2="603.1465"/><text fill="#000000" font-family="sans-serif" font-size="13" lengthAdjust="spacing" textLength="179" x="464.5" y="598.4043">MetaBatchDecorate Tx batch</text><polygon fill="#181818" points="468.5,613.1465,458.5,617.1465,468.5,621.1465,464.5,617.1465" style="stroke:#181818;stroke-width:1.0;"/><line style="stroke:#181818;stroke-width:1.0;stroke-dasharray:2.0,2.0;" x1="462.5" x2="783.5" y1="617.1465" y2="617.1465"/><line style="stroke:#181818;stroke-width:1.0;" x1="457.5" x2="499.5" y1="653.457" y2="653.457"/><line style="stroke:#181818;stroke-width:1.0;" x1="499.5" x2="499.5" y1="653.457" y2="666.457"/><line style="stroke:#181818;stroke-width:1.0;" x1="458.5" x2="499.5" y1="666.457" y2="666.457"/><polygon fill="#181818" points="468.5,662.457,458.5,666.457,468.5,670.457,464.5,666.457" style="stroke:#181818;stroke-width:1.0;"/><text fill="#000000" font-family="sans-serif" font-size="13" lengthAdjust="spacing" textLength="308" x="464.5" y="648.7148">Write number of txs in the subtree to subtree file</text><path d="M340,681.457 L414,681.457 L414,688.7676 L404,698.7676 L340,698.7676 L340,681.457 " fill="#EEEEEE" style="stroke:#000000;stroke-width:1.5;"/><rect fill="none" height="152.5527" style="stroke:#000000;stroke-width:1.5;" width="511" x="340" y="681.457"/><text fill="#000000" font-family="sans-serif" font-size="13" font-weight="bold" lengthAdjust="spacing" textLength="29" x="355" y="695.0254">loop</text><text fill="#000000" font-family="sans-serif" font-size="11" font-weight="bold" lengthAdjust="spacing" textLength="162" x="429" y="694.0918">[for each Tx Meta in Subtree]</text><path d="M350,705.7676 L412,705.7676 L412,713.0781 L402,723.0781 L350,723.0781 L350,705.7676 " fill="#EEEEEE" style="stroke:#000000;stroke-width:1.5;"/><rect fill="none" height="107.2422" style="stroke:#000000;stroke-width:1.5;" width="491" x="350" y="705.7676"/><text fill="#000000" font-family="sans-serif" font-size="13" font-weight="bold" lengthAdjust="spacing" textLength="17" x="365" y="719.3359">alt</text><text fill="#000000" font-family="sans-serif" font-size="11" font-weight="bold" lengthAdjust="spacing" textLength="77" x="427" y="718.4023">[Coinbase Tx]</text><polygon fill="#181818" points="772.5,740.3887,782.5,744.3887,772.5,748.3887,776.5,744.3887" style="stroke:#181818;stroke-width:1.0;"/><line style="stroke:#181818;stroke-width:1.0;" x1="457.5" x2="778.5" y1="744.3887" y2="744.3887"/><text fill="#000000" font-family="sans-serif" font-size="13" lengthAdjust="spacing" textLength="199" x="464.5" y="739.6465">Write Coinbase Tx to subtree fil</text><line style="stroke:#000000;stroke-width:1.0;stroke-dasharray:2.0,2.0;" x1="350" x2="841" y1="753.3887" y2="753.3887"/><polygon fill="#181818" points="772.5,771.6992,782.5,775.6992,772.5,779.6992,776.5,775.6992" style="stroke:#181818;stroke-width:1.0;"/><line style="stroke:#181818;stroke-width:1.0;" x1="457.5" x2="778.5" y1="775.6992" y2="775.6992"/><text fill="#000000" font-family="sans-serif" font-size="13" lengthAdjust="spacing" textLength="178" x="464.5" y="770.957">Write Tx Meta to subtree file</text><polygon fill="#181818" points="772.5,801.0098,782.5,805.0098,772.5,809.0098,776.5,805.0098" style="stroke:#181818;stroke-width:1.0;"/><line style="stroke:#181818;stroke-width:1.0;" x1="457.5" x2="778.5" y1="805.0098" y2="805.0098"/><text fill="#000000" font-family="sans-serif" font-size="13" lengthAdjust="spacing" textLength="181" x="464.5" y="800.2676">Process Tx Meta in UTXODiff</text><polygon fill="#181818" points="468.5,822.0098,458.5,826.0098,468.5,830.0098,464.5,826.0098" style="stroke:#181818;stroke-width:1.0;"/><line style="stroke:#181818;stroke-width:1.0;stroke-dasharray:2.0,2.0;" x1="462.5" x2="783.5" y1="826.0098" y2="826.0098"/><line style="stroke:#181818;stroke-width:1.0;" x1="457.5" x2="499.5" y1="862.3203" y2="862.3203"/><line style="stroke:#181818;stroke-width:1.0;" x1="499.5" x2="499.5" y1="862.3203" y2="875.3203"/><line style="stroke:#181818;stroke-width:1.0;" x1="458.5" x2="499.5" y1="875.3203" y2="875.3203"/><polygon fill="#181818" points="468.5,871.3203,458.5,875.3203,468.5,879.3203,464.5,875.3203" style="stroke:#181818;stroke-width:1.0;"/><text fill="#000000" font-family="sans-serif" font-size="13" lengthAdjust="spacing" textLength="308" x="464.5" y="857.5781">Write number of txs in the subtree to subtree file</text><polygon fill="#181818" points="988.5,900.6309,998.5,904.6309,988.5,908.6309,992.5,904.6309" style="stroke:#181818;stroke-width:1.0;"/><line style="stroke:#181818;stroke-width:1.0;" x1="452.5" x2="994.5" y1="904.6309" y2="904.6309"/><text fill="#000000" font-family="sans-serif" font-size="13" lengthAdjust="spacing" textLength="248" x="459.5" y="899.8887">Persist subtree file (.subtree) to storage</text><polygon fill="#181818" points="988.5,936.9414,998.5,940.9414,988.5,944.9414,992.5,940.9414" style="stroke:#181818;stroke-width:1.0;"/><line style="stroke:#181818;stroke-width:1.0;" x1="452.5" x2="994.5" y1="940.9414" y2="940.9414"/><text fill="#000000" font-family="sans-serif" font-size="13" lengthAdjust="spacing" textLength="268" x="459.5" y="936.1992">Persist UTXODiff file  (.utxodiff) to storage</text><line style="stroke:#181818;stroke-width:1.0;" x1="452.5" x2="499.5" y1="965.252" y2="965.252"/><line style="stroke:#181818;stroke-width:1.0;" x1="499.5" x2="499.5" y1="965.252" y2="978.252"/><line style="stroke:#181818;stroke-width:1.0;" x1="458.5" x2="499.5" y1="978.252" y2="978.252"/><polygon fill="#181818" points="468.5,974.252,458.5,978.252,468.5,982.252,464.5,978.252" style="stroke:#181818;stroke-width:1.0;"/><text fill="#000000" font-family="sans-serif" font-size="13" lengthAdjust="spacing" textLength="204" x="464.5" y="960.5098">Compute UTXO Set for the block</text><line style="stroke:#181818;stroke-width:1.0;" x1="457.5" x2="499.5" y1="1012.5625" y2="1012.5625"/><line style="stroke:#181818;stroke-width:1.0;" x1="499.5" x2="499.5" y1="1012.5625" y2="1025.5625"/><line style="stroke:#181818;stroke-width:1.0;" x1="458.5" x2="499.5" y1="1025.5625" y2="1025.5625"/><polygon fill="#181818" points="468.5,1021.5625,458.5,1025.5625,468.5,1029.5625,464.5,1025.5625" style="stroke:#181818;stroke-width:1.0;"/><text fill="#000000" font-family="sans-serif" font-size="13" lengthAdjust="spacing" textLength="150" x="464.5" y="1007.8203">Load previous UTXO Set</text><line style="stroke:#181818;stroke-width:1.0;" x1="457.5" x2="499.5" y1="1054.873" y2="1054.873"/><line style="stroke:#181818;stroke-width:1.0;" x1="499.5" x2="499.5" y1="1054.873" y2="1067.873"/><line style="stroke:#181818;stroke-width:1.0;" x1="458.5" x2="499.5" y1="1067.873" y2="1067.873"/><polygon fill="#181818" points="468.5,1063.873,458.5,1067.873,468.5,1071.873,464.5,1067.873" style="stroke:#181818;stroke-width:1.0;"/><text fill="#000000" font-family="sans-serif" font-size="13" lengthAdjust="spacing" textLength="178" x="464.5" y="1050.1309">Apply UTXODiff to UTXO Set</text><polygon fill="#181818" points="988.5,1093.1836,998.5,1097.1836,988.5,1101.1836,992.5,1097.1836" style="stroke:#181818;stroke-width:1.0;"/><line style="stroke:#181818;stroke-width:1.0;" x1="442.5" x2="994.5" y1="1097.1836" y2="1097.1836"/><text fill="#000000" font-family="sans-serif" font-size="13" lengthAdjust="spacing" textLength="199" x="449.5" y="1092.4414">Write UTXO Set to file (.utxoset)</text><text fill="#888888" font-family="sans-serif" font-size="10" lengthAdjust="spacing" textLength="151" x="0" y="1187.3398">Last Modified On: 6-May-2024</text><!--SRC=[nLLBRzD04BxlhnZbr4WD2XNYu0CIQIcLQ6X5Wk269kinNjNnMhkRoFdtxCDsxDHEJOL4JjvvV3FVl5AWCeAB0dC3aqKc-HDFKUIm8hKNd2Q06evYLhJDls3oXDx2VtMLtWaUIMcX3QddW8sAnMXmWvfWiYwNP71bf0g6w-MgfLtjDjee8ZWQM96JUC6hB6z55gpmTx1pWkhDMAiWim-1PGIVjiA4xq04laeZ4i7H29cpeB3MNP9Hi3fKBj-8azXJpBfMVNuRzzQt8iVi3lCu8tN1JNa9low3Qd4mfASCkH5xD7HQt9S35E7JYmDqYZhzL-ZNYfpVz_NFXnkH99185P17-7wCO-1IvBvLErDA3KQ2IOzmZ8rF8N6j_flmFvImRjuQKiBOMjdmuUt1BjxunxG7gpL6KRq5VQuEKTVZbabP-0m9ULfFBDZXSvHz30RsDwAbIdBIka88JTNXSMTxE_KmGpqT5-Aqg1NyW7Tx-oBuJAPXboYvRHvXEnr4jnHlv_EvlGQbgyMg5QW_cBqQ486x90iqFBqXRkjhSxN-6oTeN9tXx1athwOyPYCh4SOatsqtLYyJCAMkUrOLnJUvvciBriFGvkOIxYE8cO7hUWlMPICVubvdrF8vIQ21e4nJ6-yyO9rZ7viN01x3GBPfDYlS95EN_B-sPW2vTv_RZdQZgsTtfnrSJ4ExvhcCZ7OyeIwSZUSkOcm5tO0ZLbTkYrrra-t_il5Jw6eI3kFhR_sznDZU7jeBkTCD_9X3NnJPuKZGqZdZt2bEw733n7fMpV1_5sIcRBZux8pkd5T6YQkPTFdSe-tCqhL1K0mFUGJlPqiypAxcL-_O7m00]--></g></svg>
