<?xml version="1.0" encoding="us-ascii" standalone="no"?><svg xmlns="http://www.w3.org/2000/svg" xmlns:xlink="http://www.w3.org/1999/xlink" contentStyleType="text/css" height="588px" preserveAspectRatio="none" style="width:995px;height:588px;background:#FFFFFF;" version="1.1" viewBox="0 0 995 588" width="995px" zoomAndPan="magnify"><defs/><g><rect fill="#FFFFFF" height="322.7949" style="stroke:#181818;stroke-width:1.0;" width="10" x="437.5" y="165.4199"/><rect fill="#FFFFFF" height="280.4844" style="stroke:#181818;stroke-width:1.0;" width="10" x="442.5" y="207.7305"/><rect fill="#FFFFFF" height="29.3105" style="stroke:#181818;stroke-width:1.0;" width="10" x="447.5" y="458.9043"/><rect fill="none" height="46.6211" style="stroke:#000000;stroke-width:1.5;" width="639" x="350" y="383.9727"/><line style="stroke:#181818;stroke-width:0.5;stroke-dasharray:5.0,5.0;" x1="74" x2="74" y1="67.4883" y2="506.2148"/><line style="stroke:#181818;stroke-width:0.5;stroke-dasharray:5.0,5.0;" x1="282.5" x2="282.5" y1="67.4883" y2="506.2148"/><line style="stroke:#181818;stroke-width:0.5;stroke-dasharray:5.0,5.0;" x1="442" x2="442" y1="67.4883" y2="506.2148"/><line style="stroke:#181818;stroke-width:0.5;stroke-dasharray:5.0,5.0;" x1="719" x2="719" y1="67.4883" y2="506.2148"/><line style="stroke:#181818;stroke-width:0.5;stroke-dasharray:5.0,5.0;" x1="829" x2="829" y1="67.4883" y2="506.2148"/><line style="stroke:#181818;stroke-width:0.5;stroke-dasharray:5.0,5.0;" x1="935" x2="935" y1="67.4883" y2="506.2148"/><rect fill="#E2E2F0" height="30.4883" rx="2.5" ry="2.5" style="stroke:#181818;stroke-width:0.5;" width="139" x="5" y="36"/><text fill="#000000" font-family="sans-serif" font-size="14" lengthAdjust="spacing" textLength="125" x="12" y="56.5352">Blockchain Service</text><rect fill="#E2E2F0" height="30.4883" rx="2.5" ry="2.5" style="stroke:#181818;stroke-width:0.5;" width="139" x="5" y="505.2148"/><text fill="#000000" font-family="sans-serif" font-size="14" lengthAdjust="spacing" textLength="125" x="12" y="525.75">Blockchain Service</text><rect fill="#E2E2F0" height="30.4883" rx="2.5" ry="2.5" style="stroke:#181818;stroke-width:0.5;" width="52" x="256.5" y="36"/><text fill="#000000" font-family="sans-serif" font-size="14" lengthAdjust="spacing" textLength="38" x="263.5" y="56.5352">Kafka</text><rect fill="#E2E2F0" height="30.4883" rx="2.5" ry="2.5" style="stroke:#181818;stroke-width:0.5;" width="52" x="256.5" y="505.2148"/><text fill="#000000" font-family="sans-serif" font-size="14" lengthAdjust="spacing" textLength="38" x="263.5" y="525.75">Kafka</text><rect fill="#E2E2F0" height="30.4883" rx="2.5" ry="2.5" style="stroke:#181818;stroke-width:0.5;" width="165" x="360" y="36"/><text fill="#000000" font-family="sans-serif" font-size="14" lengthAdjust="spacing" textLength="151" x="367" y="56.5352">Block Persister Service</text><rect fill="#E2E2F0" height="30.4883" rx="2.5" ry="2.5" style="stroke:#181818;stroke-width:0.5;" width="165" x="360" y="505.2148"/><text fill="#000000" font-family="sans-serif" font-size="14" lengthAdjust="spacing" textLength="151" x="367" y="525.75">Block Persister Service</text><text fill="#000000" font-family="sans-serif" font-size="14" lengthAdjust="spacing" textLength="87" x="673" y="64.5352">TxMetaStore</text><path d="M701.5,15 C701.5,5 719.5,5 719.5,5 C719.5,5 737.5,5 737.5,15 L737.5,41 C737.5,51 719.5,51 719.5,51 C719.5,51 701.5,51 701.5,41 L701.5,15 " fill="#E2E2F0" style="stroke:#181818;stroke-width:1.5;"/><path d="M701.5,15 C701.5,25 719.5,25 719.5,25 C719.5,25 737.5,25 737.5,15 " fill="none" style="stroke:#181818;stroke-width:1.5;"/><text fill="#000000" font-family="sans-serif" font-size="14" lengthAdjust="spacing" textLength="87" x="673" y="518.75">TxMetaStore</text><path d="M701.5,531.7031 C701.5,521.7031 719.5,521.7031 719.5,521.7031 C719.5,521.7031 737.5,521.7031 737.5,531.7031 L737.5,557.7031 C737.5,567.7031 719.5,567.7031 719.5,567.7031 C719.5,567.7031 701.5,567.7031 701.5,557.7031 L701.5,531.7031 " fill="#E2E2F0" style="stroke:#181818;stroke-width:1.5;"/><path d="M701.5,531.7031 C701.5,541.7031 719.5,541.7031 719.5,541.7031 C719.5,541.7031 737.5,541.7031 737.5,531.7031 " fill="none" style="stroke:#181818;stroke-width:1.5;"/><text fill="#000000" font-family="sans-serif" font-size="14" lengthAdjust="spacing" textLength="100" x="776" y="64.5352">Substree Store</text><path d="M811,15 C811,5 829,5 829,5 C829,5 847,5 847,15 L847,41 C847,51 829,51 829,51 C829,51 811,51 811,41 L811,15 " fill="#E2E2F0" style="stroke:#181818;stroke-width:1.5;"/><path d="M811,15 C811,25 829,25 829,25 C829,25 847,25 847,15 " fill="none" style="stroke:#181818;stroke-width:1.5;"/><text fill="#000000" font-family="sans-serif" font-size="14" lengthAdjust="spacing" textLength="100" x="776" y="518.75">Substree Store</text><path d="M811,531.7031 C811,521.7031 829,521.7031 829,521.7031 C829,521.7031 847,521.7031 847,531.7031 L847,557.7031 C847,567.7031 829,567.7031 829,567.7031 C829,567.7031 811,567.7031 811,557.7031 L811,531.7031 " fill="#E2E2F0" style="stroke:#181818;stroke-width:1.5;"/><path d="M811,531.7031 C811,541.7031 829,541.7031 829,541.7031 C829,541.7031 847,541.7031 847,531.7031 " fill="none" style="stroke:#181818;stroke-width:1.5;"/><text fill="#000000" font-family="sans-serif" font-size="14" lengthAdjust="spacing" textLength="81" x="892" y="64.5352">File Storage</text><path d="M917.5,15 C917.5,5 935.5,5 935.5,5 C935.5,5 953.5,5 953.5,15 L953.5,41 C953.5,51 935.5,51 935.5,51 C935.5,51 917.5,51 917.5,41 L917.5,15 " fill="#E2E2F0" style="stroke:#181818;stroke-width:1.5;"/><path d="M917.5,15 C917.5,25 935.5,25 935.5,25 C935.5,25 953.5,25 953.5,15 " fill="none" style="stroke:#181818;stroke-width:1.5;"/><text fill="#000000" font-family="sans-serif" font-size="14" lengthAdjust="spacing" textLength="81" x="892" y="518.75">File Storage</text><path d="M917.5,531.7031 C917.5,521.7031 935.5,521.7031 935.5,521.7031 C935.5,521.7031 953.5,521.7031 953.5,531.7031 L953.5,557.7031 C953.5,567.7031 935.5,567.7031 935.5,567.7031 C935.5,567.7031 917.5,567.7031 917.5,557.7031 L917.5,531.7031 " fill="#E2E2F0" style="stroke:#181818;stroke-width:1.5;"/><path d="M917.5,531.7031 C917.5,541.7031 935.5,541.7031 935.5,541.7031 C935.5,541.7031 953.5,541.7031 953.5,531.7031 " fill="none" style="stroke:#181818;stroke-width:1.5;"/><rect fill="#FFFFFF" height="322.7949" style="stroke:#181818;stroke-width:1.0;" width="10" x="437.5" y="165.4199"/><rect fill="#FFFFFF" height="280.4844" style="stroke:#181818;stroke-width:1.0;" width="10" x="442.5" y="207.7305"/><rect fill="#FFFFFF" height="29.3105" style="stroke:#181818;stroke-width:1.0;" width="10" x="447.5" y="458.9043"/><polygon fill="#181818" points="270.5,94.7988,280.5,98.7988,270.5,102.7988,274.5,98.7988" style="stroke:#181818;stroke-width:1.0;"/><line style="stroke:#181818;stroke-width:1.0;" x1="74.5" x2="276.5" y1="98.7988" y2="98.7988"/><text fill="#000000" font-family="sans-serif" font-size="13" lengthAdjust="spacing" textLength="184" x="81.5" y="94.0566">Emit Kafka Block Notification</text><polygon fill="#181818" points="430.5,124.1094,440.5,128.1094,430.5,132.1094,434.5,128.1094" style="stroke:#181818;stroke-width:1.0;"/><line style="stroke:#181818;stroke-width:1.0;" x1="282.5" x2="436.5" y1="128.1094" y2="128.1094"/><text fill="#000000" font-family="sans-serif" font-size="13" lengthAdjust="spacing" textLength="136" x="289.5" y="123.3672">Notify Block Received</text><line style="stroke:#181818;stroke-width:1.0;" x1="442.5" x2="489.5" y1="152.4199" y2="152.4199"/><line style="stroke:#181818;stroke-width:1.0;" x1="489.5" x2="489.5" y1="152.4199" y2="165.4199"/><line style="stroke:#181818;stroke-width:1.0;" x1="448.5" x2="489.5" y1="165.4199" y2="165.4199"/><polygon fill="#181818" points="458.5,161.4199,448.5,165.4199,458.5,169.4199,454.5,165.4199" style="stroke:#181818;stroke-width:1.0;"/><text fill="#000000" font-family="sans-serif" font-size="13" lengthAdjust="spacing" textLength="240" x="454.5" y="147.6777">blocksFinalHandler(ctx, _, blockBytes)</text><line style="stroke:#181818;stroke-width:1.0;" x1="447.5" x2="494.5" y1="194.7305" y2="194.7305"/><line style="stroke:#181818;stroke-width:1.0;" x1="494.5" x2="494.5" y1="194.7305" y2="207.7305"/><line style="stroke:#181818;stroke-width:1.0;" x1="453.5" x2="494.5" y1="207.7305" y2="207.7305"/><polygon fill="#181818" points="463.5,203.7305,453.5,207.7305,463.5,211.7305,459.5,207.7305" style="stroke:#181818;stroke-width:1.0;"/><text fill="#000000" font-family="sans-serif" font-size="13" lengthAdjust="spacing" textLength="219" x="459.5" y="189.9883">persistBlock(ctx, hash, blockBytes)</text><line style="stroke:#181818;stroke-width:1.0;" x1="452.5" x2="494.5" y1="242.041" y2="242.041"/><line style="stroke:#181818;stroke-width:1.0;" x1="494.5" x2="494.5" y1="242.041" y2="255.041"/><line style="stroke:#181818;stroke-width:1.0;" x1="453.5" x2="494.5" y1="255.041" y2="255.041"/><polygon fill="#181818" points="463.5,251.041,453.5,255.041,463.5,259.041,459.5,255.041" style="stroke:#181818;stroke-width:1.0;"/><text fill="#000000" font-family="sans-serif" font-size="13" lengthAdjust="spacing" textLength="164" x="459.5" y="237.2988">Create UTXODiff for block</text><line style="stroke:#181818;stroke-width:1.0;" x1="452.5" x2="494.5" y1="284.3516" y2="284.3516"/><line style="stroke:#181818;stroke-width:1.0;" x1="494.5" x2="494.5" y1="284.3516" y2="297.3516"/><line style="stroke:#181818;stroke-width:1.0;" x1="453.5" x2="494.5" y1="297.3516" y2="297.3516"/><polygon fill="#181818" points="463.5,293.3516,453.5,297.3516,463.5,301.3516,459.5,297.3516" style="stroke:#181818;stroke-width:1.0;"/><text fill="#000000" font-family="sans-serif" font-size="13" lengthAdjust="spacing" textLength="125" x="459.5" y="279.6094">Create file for block</text><line style="stroke:#181818;stroke-width:1.0;" x1="452.5" x2="494.5" y1="326.6621" y2="326.6621"/><line style="stroke:#181818;stroke-width:1.0;" x1="494.5" x2="494.5" y1="326.6621" y2="339.6621"/><line style="stroke:#181818;stroke-width:1.0;" x1="453.5" x2="494.5" y1="339.6621" y2="339.6621"/><polygon fill="#181818" points="463.5,335.6621,453.5,339.6621,463.5,343.6621,459.5,339.6621" style="stroke:#181818;stroke-width:1.0;"/><text fill="#000000" font-family="sans-serif" font-size="13" lengthAdjust="spacing" textLength="248" x="459.5" y="321.9199">Write block header to block file (.block)</text><polygon fill="#181818" points="923.5,364.9727,933.5,368.9727,923.5,372.9727,927.5,368.9727" style="stroke:#181818;stroke-width:1.0;"/><line style="stroke:#181818;stroke-width:1.0;" x1="452.5" x2="929.5" y1="368.9727" y2="368.9727"/><text fill="#000000" font-family="sans-serif" font-size="13" lengthAdjust="spacing" textLength="224" x="459.5" y="364.2305">Persist block file (.block) to storage</text><path d="M350,383.9727 L424,383.9727 L424,391.2832 L414,401.2832 L350,401.2832 L350,383.9727 " fill="#EEEEEE" style="stroke:#000000;stroke-width:1.5;"/><rect fill="none" height="46.6211" style="stroke:#000000;stroke-width:1.5;" width="639" x="350" y="383.9727"/><text fill="#000000" font-family="sans-serif" font-size="13" font-weight="bold" lengthAdjust="spacing" textLength="29" x="365" y="397.541">loop</text><text fill="#000000" font-family="sans-serif" font-size="11" font-weight="bold" lengthAdjust="spacing" textLength="170" x="439" y="396.6074">[for each Subtree in the Block]</text><polygon fill="#181818" points="923.5,418.5938,933.5,422.5938,923.5,426.5938,927.5,422.5938" style="stroke:#181818;stroke-width:1.0;"/><line style="stroke:#181818;stroke-width:1.0;" x1="452.5" x2="929.5" y1="422.5938" y2="422.5938"/><text fill="#000000" font-family="sans-serif" font-size="13" lengthAdjust="spacing" textLength="178" x="459.5" y="417.8516">Create subtree file (.subtree)</text><polygon fill="#181818" points="923.5,454.9043,933.5,458.9043,923.5,462.9043,927.5,458.9043" style="stroke:#181818;stroke-width:1.0;"/><line style="stroke:#181818;stroke-width:1.0;" x1="457.5" x2="929.5" y1="458.9043" y2="458.9043"/><text fill="#000000" font-family="sans-serif" font-size="13" lengthAdjust="spacing" textLength="198" x="464.5" y="454.1621">Create UTXODiff file  (.utxodiff)</text><polygon fill="#181818" points="923.5,484.2148,933.5,488.2148,923.5,492.2148,927.5,488.2148" style="stroke:#181818;stroke-width:1.0;"/><line style="stroke:#181818;stroke-width:1.0;" x1="442.5" x2="929.5" y1="488.2148" y2="488.2148"/><text fill="#000000" font-family="sans-serif" font-size="13" lengthAdjust="spacing" textLength="190" x="449.5" y="483.4727">Create UTXO Set file (.utxoset)</text><text fill="#888888" font-family="sans-serif" font-size="10" lengthAdjust="spacing" textLength="151" x="0" y="578.3711">Last Modified On: 6-May-2024</text><!--SRC=[hLDDJm8n4BtFhsWuiGaOGum73Xxy82QA6C7epGpTMRTXtMxQWS2_jn-BWFAbSK-TD- -zwKndApIifAgmPD6uBBISo1nLAOPaPafIGw0LAnYgTVeTPXCCZ73QJ0QHU2HZbMKoFms_Kf0YunWjYSPetYV68MiJYQF-S2qxd8uj6oAn8ZZ88m7u4xEdYiZ2zyZpG1q3h0saVH6xx8gR3yNn71iH3vfLfYIoqYN4X6DlDjcDh4KjUI99QaOfRBAswSO-jZrLOd6BPLgGQKgUjyHRAwOk5qms0PIiPiZqVRY72rJn6E1edQFD_ylzof3NFOzU1zSgoqIcJNG6E5wT-LTQAG_hNenoii0MEM7gMAphE9WrJqAGRF5Qsu3kSe6tIRsZNMvAeNKLRaWey-Mo2RStdDT30-6-0zNgTcqjhylLOG9KfW37MQpcxJsSoPJdEdL00hzup5tExc_cvUsyiILE8ALTnh0djqzLKERAQErlSu_k5Vg-1KMf69HTSTxkuwBTEUsSmIS0]--></g></svg>
