<?xml version="1.0" encoding="us-ascii" standalone="no"?><svg xmlns="http://www.w3.org/2000/svg" xmlns:xlink="http://www.w3.org/1999/xlink" contentStyleType="text/css" height="1070px" preserveAspectRatio="none" style="width:1056px;height:1070px;background:#FFFFFF;" version="1.1" viewBox="0 0 1056 1070" width="1056px" zoomAndPan="magnify"><defs/><g><rect fill="#FFFFFF" height="804.832" style="stroke:#181818;stroke-width:1.0;" width="10" x="437.5" y="165.4199"/><rect fill="#FFFFFF" height="762.5215" style="stroke:#181818;stroke-width:1.0;" width="10" x="442.5" y="207.7305"/><rect fill="#FFFFFF" height="431.7266" style="stroke:#181818;stroke-width:1.0;" width="10" x="447.5" y="472.9043"/><rect fill="none" height="486.3477" style="stroke:#000000;stroke-width:1.5;" width="720" x="330" y="426.2832"/><rect fill="none" height="60.6211" style="stroke:#000000;stroke-width:1.5;" width="487" x="350" y="564.5254"/><rect fill="none" height="152.5527" style="stroke:#000000;stroke-width:1.5;" width="507" x="340" y="681.457"/><rect fill="none" height="107.2422" style="stroke:#000000;stroke-width:1.5;" width="487" x="350" y="705.7676"/><line style="stroke:#181818;stroke-width:0.5;stroke-dasharray:5.0,5.0;" x1="74" x2="74" y1="67.4883" y2="988.252"/><line style="stroke:#181818;stroke-width:0.5;stroke-dasharray:5.0,5.0;" x1="282.5" x2="282.5" y1="67.4883" y2="988.252"/><line style="stroke:#181818;stroke-width:0.5;stroke-dasharray:5.0,5.0;" x1="442" x2="442" y1="67.4883" y2="988.252"/><line style="stroke:#181818;stroke-width:0.5;stroke-dasharray:5.0,5.0;" x1="784" x2="784" y1="67.4883" y2="988.252"/><line style="stroke:#181818;stroke-width:0.5;stroke-dasharray:5.0,5.0;" x1="890" x2="890" y1="67.4883" y2="988.252"/><line style="stroke:#181818;stroke-width:0.5;stroke-dasharray:5.0,5.0;" x1="996" x2="996" y1="67.4883" y2="988.252"/><rect fill="#E2E2F0" height="30.4883" rx="2.5" ry="2.5" style="stroke:#181818;stroke-width:0.5;" width="139" x="5" y="36"/><text fill="#000000" font-family="sans-serif" font-size="14" lengthAdjust="spacing" textLength="125" x="12" y="56.5352">Blockchain Service</text><rect fill="#E2E2F0" height="30.4883" rx="2.5" ry="2.5" style="stroke:#181818;stroke-width:0.5;" width="139" x="5" y="987.252"/><text fill="#000000" font-family="sans-serif" font-size="14" lengthAdjust="spacing" textLength="125" x="12" y="1007.7871">Blockchain Service</text><rect fill="#E2E2F0" height="30.4883" rx="2.5" ry="2.5" style="stroke:#181818;stroke-width:0.5;" width="52" x="256.5" y="36"/><text fill="#000000" font-family="sans-serif" font-size="14" lengthAdjust="spacing" textLength="38" x="263.5" y="56.5352">Kafka</text><rect fill="#E2E2F0" height="30.4883" rx="2.5" ry="2.5" style="stroke:#181818;stroke-width:0.5;" width="52" x="256.5" y="987.252"/><text fill="#000000" font-family="sans-serif" font-size="14" lengthAdjust="spacing" textLength="38" x="263.5" y="1007.7871">Kafka</text><rect fill="#E2E2F0" height="30.4883" rx="2.5" ry="2.5" style="stroke:#181818;stroke-width:0.5;" width="165" x="360" y="36"/><text fill="#000000" font-family="sans-serif" font-size="14" lengthAdjust="spacing" textLength="151" x="367" y="56.5352">Block Persister Service</text><rect fill="#E2E2F0" height="30.4883" rx="2.5" ry="2.5" style="stroke:#181818;stroke-width:0.5;" width="165" x="360" y="987.252"/><text fill="#000000" font-family="sans-serif" font-size="14" lengthAdjust="spacing" textLength="151" x="367" y="1007.7871">Block Persister Service</text><text fill="#000000" font-family="sans-serif" font-size="14" lengthAdjust="spacing" textLength="79" x="742" y="64.5352">UTXO Store</text><path d="M766.5,15 C766.5,5 784.5,5 784.5,5 C784.5,5 802.5,5 802.5,15 L802.5,41 C802.5,51 784.5,51 784.5,51 C784.5,51 766.5,51 766.5,41 L766.5,15 " fill="#E2E2F0" style="stroke:#181818;stroke-width:1.5;"/><path d="M766.5,15 C766.5,25 784.5,25 784.5,25 C784.5,25 802.5,25 802.5,15 " fill="none" style="stroke:#181818;stroke-width:1.5;"/><text fill="#000000" font-family="sans-serif" font-size="14" lengthAdjust="spacing" textLength="79" x="742" y="1000.7871">UTXO Store</text><path d="M766.5,1013.7402 C766.5,1003.7402 784.5,1003.7402 784.5,1003.7402 C784.5,1003.7402 802.5,1003.7402 802.5,1013.7402 L802.5,1039.7402 C802.5,1049.7402 784.5,1049.7402 784.5,1049.7402 C784.5,1049.7402 766.5,1049.7402 766.5,1039.7402 L766.5,1013.7402 " fill="#E2E2F0" style="stroke:#181818;stroke-width:1.5;"/><path d="M766.5,1013.7402 C766.5,1023.7402 784.5,1023.7402 784.5,1023.7402 C784.5,1023.7402 802.5,1023.7402 802.5,1013.7402 " fill="none" style="stroke:#181818;stroke-width:1.5;"/><text fill="#000000" font-family="sans-serif" font-size="14" lengthAdjust="spacing" textLength="100" x="837" y="64.5352">Substree Store</text><path d="M872,15 C872,5 890,5 890,5 C890,5 908,5 908,15 L908,41 C908,51 890,51 890,51 C890,51 872,51 872,41 L872,15 " fill="#E2E2F0" style="stroke:#181818;stroke-width:1.5;"/><path d="M872,15 C872,25 890,25 890,25 C890,25 908,25 908,15 " fill="none" style="stroke:#181818;stroke-width:1.5;"/><text fill="#000000" font-family="sans-serif" font-size="14" lengthAdjust="spacing" textLength="100" x="837" y="1000.7871">Substree Store</text><path d="M872,1013.7402 C872,1003.7402 890,1003.7402 890,1003.7402 C890,1003.7402 908,1003.7402 908,1013.7402 L908,1039.7402 C908,1049.7402 890,1049.7402 890,1049.7402 C890,1049.7402 872,1049.7402 872,1039.7402 L872,1013.7402 " fill="#E2E2F0" style="stroke:#181818;stroke-width:1.5;"/><path d="M872,1013.7402 C872,1023.7402 890,1023.7402 890,1023.7402 C890,1023.7402 908,1023.7402 908,1013.7402 " fill="none" style="stroke:#181818;stroke-width:1.5;"/><text fill="#000000" font-family="sans-serif" font-size="14" lengthAdjust="spacing" textLength="81" x="953" y="64.5352">File Storage</text><path d="M978.5,15 C978.5,5 996.5,5 996.5,5 C996.5,5 1014.5,5 1014.5,15 L1014.5,41 C1014.5,51 996.5,51 996.5,51 C996.5,51 978.5,51 978.5,41 L978.5,15 " fill="#E2E2F0" style="stroke:#181818;stroke-width:1.5;"/><path d="M978.5,15 C978.5,25 996.5,25 996.5,25 C996.5,25 1014.5,25 1014.5,15 " fill="none" style="stroke:#181818;stroke-width:1.5;"/><text fill="#000000" font-family="sans-serif" font-size="14" lengthAdjust="spacing" textLength="81" x="953" y="1000.7871">File Storage</text><path d="M978.5,1013.7402 C978.5,1003.7402 996.5,1003.7402 996.5,1003.7402 C996.5,1003.7402 1014.5,1003.7402 1014.5,1013.7402 L1014.5,1039.7402 C1014.5,1049.7402 996.5,1049.7402 996.5,1049.7402 C996.5,1049.7402 978.5,1049.7402 978.5,1039.7402 L978.5,1013.7402 " fill="#E2E2F0" style="stroke:#181818;stroke-width:1.5;"/><path d="M978.5,1013.7402 C978.5,1023.7402 996.5,1023.7402 996.5,1023.7402 C996.5,1023.7402 1014.5,1023.7402 1014.5,1013.7402 " fill="none" style="stroke:#181818;stroke-width:1.5;"/><rect fill="#FFFFFF" height="804.832" style="stroke:#181818;stroke-width:1.0;" width="10" x="437.5" y="165.4199"/><rect fill="#FFFFFF" height="762.5215" style="stroke:#181818;stroke-width:1.0;" width="10" x="442.5" y="207.7305"/><rect fill="#FFFFFF" height="431.7266" style="stroke:#181818;stroke-width:1.0;" width="10" x="447.5" y="472.9043"/><polygon fill="#181818" points="270.5,94.7988,280.5,98.7988,270.5,102.7988,274.5,98.7988" style="stroke:#181818;stroke-width:1.0;"/><line style="stroke:#181818;stroke-width:1.0;" x1="74.5" x2="276.5" y1="98.7988" y2="98.7988"/><text fill="#000000" font-family="sans-serif" font-size="13" lengthAdjust="spacing" textLength="184" x="81.5" y="94.0566">Emit Kafka Block Notification</text><polygon fill="#181818" points="430.5,124.1094,440.5,128.1094,430.5,132.1094,434.5,128.1094" style="stroke:#181818;stroke-width:1.0;"/><line style="stroke:#181818;stroke-width:1.0;" x1="282.5" x2="436.5" y1="128.1094" y2="128.1094"/><text fill="#000000" font-family="sans-serif" font-size="13" lengthAdjust="spacing" textLength="136" x="289.5" y="123.3672">Notify Block Received</text><line style="stroke:#181818;stroke-width:1.0;" x1="442.5" x2="489.5" y1="152.4199" y2="152.4199"/><line style="stroke:#181818;stroke-width:1.0;" x1="489.5" x2="489.5" y1="152.4199" y2="165.4199"/><line style="stroke:#181818;stroke-width:1.0;" x1="448.5" x2="489.5" y1="165.4199" y2="165.4199"/><polygon fill="#181818" points="458.5,161.4199,448.5,165.4199,458.5,169.4199,454.5,165.4199" style="stroke:#181818;stroke-width:1.0;"/><text fill="#000000" font-family="sans-serif" font-size="13" lengthAdjust="spacing" textLength="240" x="454.5" y="147.6777">blocksFinalHandler(ctx, _, blockBytes)</text><line style="stroke:#181818;stroke-width:1.0;" x1="447.5" x2="494.5" y1="194.7305" y2="194.7305"/><line style="stroke:#181818;stroke-width:1.0;" x1="494.5" x2="494.5" y1="194.7305" y2="207.7305"/><line style="stroke:#181818;stroke-width:1.0;" x1="453.5" x2="494.5" y1="207.7305" y2="207.7305"/><polygon fill="#181818" points="463.5,203.7305,453.5,207.7305,463.5,211.7305,459.5,207.7305" style="stroke:#181818;stroke-width:1.0;"/><text fill="#000000" font-family="sans-serif" font-size="13" lengthAdjust="spacing" textLength="219" x="459.5" y="189.9883">persistBlock(ctx, hash, blockBytes)</text><line style="stroke:#181818;stroke-width:1.0;" x1="452.5" x2="494.5" y1="242.041" y2="242.041"/><line style="stroke:#181818;stroke-width:1.0;" x1="494.5" x2="494.5" y1="242.041" y2="255.041"/><line style="stroke:#181818;stroke-width:1.0;" x1="453.5" x2="494.5" y1="255.041" y2="255.041"/><polygon fill="#181818" points="463.5,251.041,453.5,255.041,463.5,259.041,459.5,255.041" style="stroke:#181818;stroke-width:1.0;"/><text fill="#000000" font-family="sans-serif" font-size="13" lengthAdjust="spacing" textLength="164" x="459.5" y="237.2988">Create UTXODiff for block</text><line style="stroke:#181818;stroke-width:1.0;" x1="452.5" x2="494.5" y1="284.3516" y2="284.3516"/><line style="stroke:#181818;stroke-width:1.0;" x1="494.5" x2="494.5" y1="284.3516" y2="297.3516"/><line style="stroke:#181818;stroke-width:1.0;" x1="453.5" x2="494.5" y1="297.3516" y2="297.3516"/><polygon fill="#181818" points="463.5,293.3516,453.5,297.3516,463.5,301.3516,459.5,297.3516" style="stroke:#181818;stroke-width:1.0;"/><text fill="#000000" font-family="sans-serif" font-size="13" lengthAdjust="spacing" textLength="229" x="459.5" y="279.6094">Add coinbase utxos to the UTXODiff</text><line style="stroke:#181818;stroke-width:1.0;" x1="452.5" x2="494.5" y1="326.6621" y2="326.6621"/><line style="stroke:#181818;stroke-width:1.0;" x1="494.5" x2="494.5" y1="326.6621" y2="339.6621"/><line style="stroke:#181818;stroke-width:1.0;" x1="453.5" x2="494.5" y1="339.6621" y2="339.6621"/><polygon fill="#181818" points="463.5,335.6621,453.5,339.6621,463.5,343.6621,459.5,339.6621" style="stroke:#181818;stroke-width:1.0;"/><text fill="#000000" font-family="sans-serif" font-size="13" lengthAdjust="spacing" textLength="125" x="459.5" y="321.9199">Create file for block</text><line style="stroke:#181818;stroke-width:1.0;" x1="452.5" x2="494.5" y1="368.9727" y2="368.9727"/><line style="stroke:#181818;stroke-width:1.0;" x1="494.5" x2="494.5" y1="368.9727" y2="381.9727"/><line style="stroke:#181818;stroke-width:1.0;" x1="453.5" x2="494.5" y1="381.9727" y2="381.9727"/><polygon fill="#181818" points="463.5,377.9727,453.5,381.9727,463.5,385.9727,459.5,381.9727" style="stroke:#181818;stroke-width:1.0;"/><text fill="#000000" font-family="sans-serif" font-size="13" lengthAdjust="spacing" textLength="248" x="459.5" y="364.2305">Write block header to block file (.block)</text><polygon fill="#181818" points="984.5,407.2832,994.5,411.2832,984.5,415.2832,988.5,411.2832" style="stroke:#181818;stroke-width:1.0;"/><line style="stroke:#181818;stroke-width:1.0;" x1="452.5" x2="990.5" y1="411.2832" y2="411.2832"/><text fill="#000000" font-family="sans-serif" font-size="13" lengthAdjust="spacing" textLength="224" x="459.5" y="406.541">Persist block file (.block) to storage</text><path d="M330,426.2832 L404,426.2832 L404,433.5938 L394,443.5938 L330,443.5938 L330,426.2832 " fill="#EEEEEE" style="stroke:#000000;stroke-width:1.5;"/><rect fill="none" height="486.3477" style="stroke:#000000;stroke-width:1.5;" width="720" x="330" y="426.2832"/><text fill="#000000" font-family="sans-serif" font-size="13" font-weight="bold" lengthAdjust="spacing" textLength="29" x="345" y="439.8516">loop</text><text fill="#000000" font-family="sans-serif" font-size="11" font-weight="bold" lengthAdjust="spacing" textLength="170" x="419" y="438.918">[for each Subtree in the Block]</text><line style="stroke:#181818;stroke-width:1.0;" x1="452.5" x2="499.5" y1="459.9043" y2="459.9043"/><line style="stroke:#181818;stroke-width:1.0;" x1="499.5" x2="499.5" y1="459.9043" y2="472.9043"/><line style="stroke:#181818;stroke-width:1.0;" x1="458.5" x2="499.5" y1="472.9043" y2="472.9043"/><polygon fill="#181818" points="468.5,468.9043,458.5,472.9043,468.5,476.9043,464.5,472.9043" style="stroke:#181818;stroke-width:1.0;"/><text fill="#000000" font-family="sans-serif" font-size="13" lengthAdjust="spacing" textLength="211" x="464.5" y="455.1621">processSubtree(ctx, subtreeHash)</text><line style="stroke:#181818;stroke-width:1.0;" x1="457.5" x2="499.5" y1="507.2148" y2="507.2148"/><line style="stroke:#181818;stroke-width:1.0;" x1="499.5" x2="499.5" y1="507.2148" y2="520.2148"/><line style="stroke:#181818;stroke-width:1.0;" x1="458.5" x2="499.5" y1="520.2148" y2="520.2148"/><polygon fill="#181818" points="468.5,516.2148,458.5,520.2148,468.5,524.2148,464.5,520.2148" style="stroke:#181818;stroke-width:1.0;"/><text fill="#000000" font-family="sans-serif" font-size="13" lengthAdjust="spacing" textLength="137" x="464.5" y="502.4727">Create file for subtree</text><polygon fill="#181818" points="878,545.5254,888,549.5254,878,553.5254,882,549.5254" style="stroke:#181818;stroke-width:1.0;"/><line style="stroke:#181818;stroke-width:1.0;" x1="457.5" x2="884" y1="549.5254" y2="549.5254"/><text fill="#000000" font-family="sans-serif" font-size="13" lengthAdjust="spacing" textLength="193" x="464.5" y="544.7832">Get Subtree from Subtree Store</text><path d="M350,564.5254 L424,564.5254 L424,571.8359 L414,581.8359 L350,581.8359 L350,564.5254 " fill="#EEEEEE" style="stroke:#000000;stroke-width:1.5;"/><rect fill="none" height="60.6211" style="stroke:#000000;stroke-width:1.5;" width="487" x="350" y="564.5254"/><text fill="#000000" font-family="sans-serif" font-size="13" font-weight="bold" lengthAdjust="spacing" textLength="29" x="365" y="578.0938">loop</text><text fill="#000000" font-family="sans-serif" font-size="11" font-weight="bold" lengthAdjust="spacing" textLength="170" x="439" y="577.1602">[for each 1000s Tx in Subtree]</text><polygon fill="#181818" points="772.5,599.1465,782.5,603.1465,772.5,607.1465,776.5,603.1465" style="stroke:#181818;stroke-width:1.0;"/><line style="stroke:#181818;stroke-width:1.0;" x1="457.5" x2="778.5" y1="603.1465" y2="603.1465"/><text fill="#000000" font-family="sans-serif" font-size="13" lengthAdjust="spacing" textLength="179" x="464.5" y="598.4043">MetaBatchDecorate Tx batch</text><polygon fill="#181818" points="468.5,613.1465,458.5,617.1465,468.5,621.1465,464.5,617.1465" style="stroke:#181818;stroke-width:1.0;"/><line style="stroke:#181818;stroke-width:1.0;stroke-dasharray:2.0,2.0;" x1="462.5" x2="783.5" y1="617.1465" y2="617.1465"/><line style="stroke:#181818;stroke-width:1.0;" x1="457.5" x2="499.5" y1="653.457" y2="653.457"/><line style="stroke:#181818;stroke-width:1.0;" x1="499.5" x2="499.5" y1="653.457" y2="666.457"/><line style="stroke:#181818;stroke-width:1.0;" x1="458.5" x2="499.5" y1="666.457" y2="666.457"/><polygon fill="#181818" points="468.5,662.457,458.5,666.457,468.5,670.457,464.5,666.457" style="stroke:#181818;stroke-width:1.0;"/><text fill="#000000" font-family="sans-serif" font-size="13" lengthAdjust="spacing" textLength="308" x="464.5" y="648.7148">Write number of txs in the subtree to subtree file</text><path d="M340,681.457 L414,681.457 L414,688.7676 L404,698.7676 L340,698.7676 L340,681.457 " fill="#EEEEEE" style="stroke:#000000;stroke-width:1.5;"/><rect fill="none" height="152.5527" style="stroke:#000000;stroke-width:1.5;" width="507" x="340" y="681.457"/><text fill="#000000" font-family="sans-serif" font-size="13" font-weight="bold" lengthAdjust="spacing" textLength="29" x="355" y="695.0254">loop</text><text fill="#000000" font-family="sans-serif" font-size="11" font-weight="bold" lengthAdjust="spacing" textLength="180" x="429" y="694.0918">[for each UTXO Meta in Subtree]</text><path d="M350,705.7676 L412,705.7676 L412,713.0781 L402,723.0781 L350,723.0781 L350,705.7676 " fill="#EEEEEE" style="stroke:#000000;stroke-width:1.5;"/><rect fill="none" height="107.2422" style="stroke:#000000;stroke-width:1.5;" width="487" x="350" y="705.7676"/><text fill="#000000" font-family="sans-serif" font-size="13" font-weight="bold" lengthAdjust="spacing" textLength="17" x="365" y="719.3359">alt</text><text fill="#000000" font-family="sans-serif" font-size="11" font-weight="bold" lengthAdjust="spacing" textLength="77" x="427" y="718.4023">[Coinbase Tx]</text><polygon fill="#181818" points="772.5,740.3887,782.5,744.3887,772.5,748.3887,776.5,744.3887" style="stroke:#181818;stroke-width:1.0;"/><line style="stroke:#181818;stroke-width:1.0;" x1="457.5" x2="778.5" y1="744.3887" y2="744.3887"/><text fill="#000000" font-family="sans-serif" font-size="13" lengthAdjust="spacing" textLength="199" x="464.5" y="739.6465">Write Coinbase Tx to subtree fil</text><line style="stroke:#000000;stroke-width:1.0;stroke-dasharray:2.0,2.0;" x1="350" x2="837" y1="753.3887" y2="753.3887"/><polygon fill="#181818" points="772.5,771.6992,782.5,775.6992,772.5,779.6992,776.5,775.6992" style="stroke:#181818;stroke-width:1.0;"/><line style="stroke:#181818;stroke-width:1.0;" x1="457.5" x2="778.5" y1="775.6992" y2="775.6992"/><text fill="#000000" font-family="sans-serif" font-size="13" lengthAdjust="spacing" textLength="197" x="464.5" y="770.957">Write UTXO Meta to subtree file</text><polygon fill="#181818" points="772.5,801.0098,782.5,805.0098,772.5,809.0098,776.5,805.0098" style="stroke:#181818;stroke-width:1.0;"/><line style="stroke:#181818;stroke-width:1.0;" x1="457.5" x2="778.5" y1="805.0098" y2="805.0098"/><text fill="#000000" font-family="sans-serif" font-size="13" lengthAdjust="spacing" textLength="200" x="464.5" y="800.2676">Process UTXO Meta in UTXODiff</text><polygon fill="#181818" points="468.5,822.0098,458.5,826.0098,468.5,830.0098,464.5,826.0098" style="stroke:#181818;stroke-width:1.0;"/><line style="stroke:#181818;stroke-width:1.0;stroke-dasharray:2.0,2.0;" x1="462.5" x2="783.5" y1="826.0098" y2="826.0098"/><line style="stroke:#181818;stroke-width:1.0;" x1="457.5" x2="499.5" y1="862.3203" y2="862.3203"/><line style="stroke:#181818;stroke-width:1.0;" x1="499.5" x2="499.5" y1="862.3203" y2="875.3203"/><line style="stroke:#181818;stroke-width:1.0;" x1="458.5" x2="499.5" y1="875.3203" y2="875.3203"/><polygon fill="#181818" points="468.5,871.3203,458.5,875.3203,468.5,879.3203,464.5,875.3203" style="stroke:#181818;stroke-width:1.0;"/><text fill="#000000" font-family="sans-serif" font-size="13" lengthAdjust="spacing" textLength="308" x="464.5" y="857.5781">Write number of txs in the subtree to subtree file</text><polygon fill="#181818" points="984.5,900.6309,994.5,904.6309,984.5,908.6309,988.5,904.6309" style="stroke:#181818;stroke-width:1.0;"/><line style="stroke:#181818;stroke-width:1.0;" x1="452.5" x2="990.5" y1="904.6309" y2="904.6309"/><text fill="#000000" font-family="sans-serif" font-size="13" lengthAdjust="spacing" textLength="248" x="459.5" y="899.8887">Persist subtree file (.subtree) to storage</text><polygon fill="#181818" points="984.5,936.9414,994.5,940.9414,984.5,944.9414,988.5,940.9414" style="stroke:#181818;stroke-width:1.0;"/><line style="stroke:#181818;stroke-width:1.0;" x1="452.5" x2="990.5" y1="940.9414" y2="940.9414"/><text fill="#000000" font-family="sans-serif" font-size="13" lengthAdjust="spacing" textLength="440" x="459.5" y="936.1992">Compute and Persist UTXO Deletions file  (.utxo-deletions) to storage</text><polygon fill="#181818" points="984.5,966.252,994.5,970.252,984.5,974.252,988.5,970.252" style="stroke:#181818;stroke-width:1.0;"/><line style="stroke:#181818;stroke-width:1.0;" x1="442.5" x2="990.5" y1="970.252" y2="970.252"/><text fill="#000000" font-family="sans-serif" font-size="13" lengthAdjust="spacing" textLength="442" x="449.5" y="965.5098">Compute and Persist UTXO Additions file  (.utxo-additions) to storage</text><text fill="#888888" font-family="sans-serif" font-size="10" lengthAdjust="spacing" textLength="171" x="0" y="1060.4082">Last Modified On: 12-August-2024</text><!--SRC=[nLLRRzem57xthpZYgKXbecXFUPXKO5sbZRKQLDlRP9oJncg88zj1zD_ls4v2GfF1fadBKtmkt_dEpIwujbB8WkSMHlDCYHUHSfd36lLU2Xm1Dt0Kiw9j_fadBznR-B-kqZl18seZZKNz5h1HiPXRlkK6OVIq-V40QwjqiDkirYtbkjmQgn5R1YHo4YzeMTx9B5Znvs3d1DMPiLQMam-1UWGVTzA6_y0ElYeh4ocubIfdGK7MNUPHi7gjNBwXGBd7c7Mj-losxcpkPCwpUvx76UehOG_NyFCwgEQl5isOSM7bdbiyhTZv04NuzU80dNAJ_YlqXKRdvzgrb4a2YT81-GBVspW6eMJkMrNQWp9W5TZq2CVOvHGIr-e_2VzTItBprf0YZycAmeUp1xjwvm_Z7gpM64NrQFUvEaHJZrkcLE4P8XTfFR50m-TIzZ4Oq7T1IxKIQ4o549fgmk6UUZlsC4CzlIp4QL4h-07lzlP5y0bjarsYrQuvXErq4DrIt4odKzhnWwl5kXMeFnZT1H312YsVSolI9GggBt4b_wqJDAxESF8cDw_6F6ONLYACILxkjgHN2TY3gNjM5SKtkSwN2jQJeR_E7EM-57bcOL7lmURGo8UohpcrV4ueD12O6MpZ_HxmoB8lepCGZs4ekwasYzmGgWl_NniqWDoxrMr7sklgsDri1nVZqCRvNCv4MwXTKP8hFG5DP5_99MReNXuJ2103TrDEubhS9VAtKUWgbZrHU2tkHc5iEDbX3Ls0c5ZQ2UMeVU4KUwLYUbenXeSyWflPvBPyBesTpAQpz-mN]--></g></svg>
