<svg xmlns="http://www.w3.org/2000/svg" xmlns:xlink="http://www.w3.org/1999/xlink" contentStyleType="text/css" height="834px" preserveAspectRatio="none" style="width:522px;height:834px;background:#F0F8FF;" version="1.1" viewBox="0 0 522 834" width="522px" zoomAndPan="magnify"><defs/><g><rect fill="#F0F8FF" height="834" style="stroke:none;stroke-width:1.0;" width="522" x="0" y="0"/><rect fill="none" height="413.6367" style="stroke:#000000;stroke-width:1.5;" width="495.3354" x="10" y="309.6621"/><line style="stroke:#181818;stroke-width:0.5;stroke-dasharray:5.0,5.0;" x1="54" x2="54" y1="67.4883" y2="740.2988"/><line style="stroke:#181818;stroke-width:0.5;stroke-dasharray:5.0,5.0;" x1="243.8149" x2="243.8149" y1="67.4883" y2="740.2988"/><line style="stroke:#181818;stroke-width:0.5;stroke-dasharray:5.0,5.0;" x1="448.3281" x2="448.3281" y1="67.4883" y2="740.2988"/><rect fill="#DDDDDD" height="30.4883" rx="2.5" ry="2.5" style="stroke:#666666;stroke-width:0.5;" width="69.9043" x="20" y="36"/><text fill="#333333" font-family="sans-serif" font-size="14" lengthAdjust="spacing" textLength="55.9043" x="27" y="56.5352">MainNet</text><rect fill="#DDDDDD" height="30.4883" rx="2.5" ry="2.5" style="stroke:#666666;stroke-width:0.5;" width="69.9043" x="20" y="739.2988"/><text fill="#333333" font-family="sans-serif" font-size="14" lengthAdjust="spacing" textLength="55.9043" x="27" y="759.834">MainNet</text><rect fill="#DDDDDD" height="46.9766" rx="2.5" ry="2.5" style="stroke:#666666;stroke-width:0.5;" width="116.5049" x="185.8149" y="19.5117"/><text fill="#333333" font-family="sans-serif" font-size="14" lengthAdjust="spacing" textLength="74.9697" x="206.5825" y="40.0469">P2P Legacy</text><text fill="#333333" font-family="sans-serif" font-size="14" lengthAdjust="spacing" textLength="102.5049" x="192.8149" y="56.5352">Overlay Service</text><rect fill="#DDDDDD" height="46.9766" rx="2.5" ry="2.5" style="stroke:#666666;stroke-width:0.5;" width="116.5049" x="185.8149" y="739.2988"/><text fill="#333333" font-family="sans-serif" font-size="14" lengthAdjust="spacing" textLength="74.9697" x="206.5825" y="759.834">P2P Legacy</text><text fill="#333333" font-family="sans-serif" font-size="14" lengthAdjust="spacing" textLength="102.5049" x="192.8149" y="776.3223">Overlay Service</text><text fill="#333333" font-family="sans-serif" font-size="14" lengthAdjust="spacing" textLength="17.623" x="436.5166" y="64.5352">db</text><path d="M430.3281,15 C430.3281,5 448.3281,5 448.3281,5 C448.3281,5 466.3281,5 466.3281,15 L466.3281,41 C466.3281,51 448.3281,51 448.3281,51 C448.3281,51 430.3281,51 430.3281,41 L430.3281,15 " fill="#E2E2F0" style="stroke:#181818;stroke-width:1.5;"/><path d="M430.3281,15 C430.3281,25 448.3281,25 448.3281,25 C448.3281,25 466.3281,25 466.3281,15 " fill="none" style="stroke:#181818;stroke-width:1.5;"/><text fill="#333333" font-family="sans-serif" font-size="14" lengthAdjust="spacing" textLength="17.623" x="436.5166" y="752.834">db</text><path d="M430.3281,765.7871 C430.3281,755.7871 448.3281,755.7871 448.3281,755.7871 C448.3281,755.7871 466.3281,755.7871 466.3281,765.7871 L466.3281,791.7871 C466.3281,801.7871 448.3281,801.7871 448.3281,801.7871 C448.3281,801.7871 430.3281,801.7871 430.3281,791.7871 L430.3281,765.7871 " fill="#E2E2F0" style="stroke:#181818;stroke-width:1.5;"/><path d="M430.3281,765.7871 C430.3281,775.7871 448.3281,775.7871 448.3281,775.7871 C448.3281,775.7871 466.3281,775.7871 466.3281,765.7871 " fill="none" style="stroke:#181818;stroke-width:1.5;"/><rect fill="#EEEEEE" height="3" style="stroke:#EEEEEE;stroke-width:1.0;" width="515.3354" x="0" y="98.1436"/><line style="stroke:#000000;stroke-width:1.0;" x1="0" x2="515.3354" y1="98.1436" y2="98.1436"/><line style="stroke:#000000;stroke-width:1.0;" x1="0" x2="515.3354" y1="101.1436" y2="101.1436"/><rect fill="#EEEEEE" height="23.3105" style="stroke:#000000;stroke-width:2.0;" width="193.1372" x="161.0991" y="87.4883"/><text fill="#333333" font-family="sans-serif" font-size="13" font-weight="bold" lengthAdjust="spacing" textLength="174.8525" x="167.0991" y="104.0566">Connection Establishment</text><polygon fill="#666666" points="65.9521,138.1094,55.9521,142.1094,65.9521,146.1094,61.9521,142.1094" style="stroke:#666666;stroke-width:1.0;"/><line style="stroke:#666666;stroke-width:1.0;" x1="59.9521" x2="243.0674" y1="142.1094" y2="142.1094"/><text fill="#333333" font-family="sans-serif" font-size="13" lengthAdjust="spacing" textLength="49.5435" x="71.9521" y="137.3672">connect</text><rect fill="#EEEEEE" height="3" style="stroke:#EEEEEE;stroke-width:1.0;" width="515.3354" x="0" y="170.7646"/><line style="stroke:#000000;stroke-width:1.0;" x1="0" x2="515.3354" y1="170.7646" y2="170.7646"/><line style="stroke:#000000;stroke-width:1.0;" x1="0" x2="515.3354" y1="173.7646" y2="173.7646"/><rect fill="#EEEEEE" height="23.3105" style="stroke:#000000;stroke-width:2.0;" width="269.0234" x="123.156" y="160.1094"/><text fill="#333333" font-family="sans-serif" font-size="13" font-weight="bold" lengthAdjust="spacing" textLength="250.7388" x="129.156" y="176.6777">Block and Transaction Advertisement</text><polygon fill="#666666" points="232.0674,210.7305,242.0674,214.7305,232.0674,218.7305,236.0674,214.7305" style="stroke:#666666;stroke-width:1.0;"/><line style="stroke:#666666;stroke-width:1.0;" x1="54.9521" x2="238.0674" y1="214.7305" y2="214.7305"/><text fill="#333333" font-family="sans-serif" font-size="13" lengthAdjust="spacing" textLength="108.2466" x="61.9521" y="209.9883">OnInv(peer, msg)</text><path d="M249,227.7305 L249,267.7305 L466,267.7305 L466,237.7305 L456,227.7305 L249,227.7305 " fill="#FEFFDD" style="stroke:#181818;stroke-width:0.5;"/><path d="M456,227.7305 L456,237.7305 L466,237.7305 L456,227.7305 " fill="#FEFFDD" style="stroke:#181818;stroke-width:0.5;"/><text fill="#333333" font-family="sans-serif" font-size="13" lengthAdjust="spacing" textLength="196.6631" x="255" y="245.2988">msg contains inventory vectors</text><text fill="#333333" font-family="sans-serif" font-size="13" lengthAdjust="spacing" textLength="161.7319" x="255" y="260.6094">for transactions or blocks</text><polygon fill="#666666" points="436.3281,290.6621,446.3281,294.6621,436.3281,298.6621,440.3281,294.6621" style="stroke:#666666;stroke-width:1.0;"/><line style="stroke:#666666;stroke-width:1.0;" x1="244.0674" x2="442.3281" y1="294.6621" y2="294.6621"/><text fill="#333333" font-family="sans-serif" font-size="13" lengthAdjust="spacing" textLength="180.2607" x="251.0674" y="289.9199">have I seen this item before?</text><path d="M10,309.6621 L72.1387,309.6621 L72.1387,316.9727 L62.1387,326.9727 L10,326.9727 L10,309.6621 " fill="#EEEEEE" style="stroke:#000000;stroke-width:1.5;"/><rect fill="none" height="413.6367" style="stroke:#000000;stroke-width:1.5;" width="495.3354" x="10" y="309.6621"/><text fill="#333333" font-family="sans-serif" font-size="13" font-weight="bold" lengthAdjust="spacing" textLength="17.1387" x="25" y="323.2305">alt</text><text fill="#333333" font-family="sans-serif" font-size="11" font-weight="bold" lengthAdjust="spacing" textLength="89.1602" x="87.1387" y="322.2969">[is a new block]</text><polygon fill="#666666" points="65.9521,344.2832,55.9521,348.2832,65.9521,352.2832,61.9521,348.2832" style="stroke:#666666;stroke-width:1.0;"/><line style="stroke:#666666;stroke-width:1.0;" x1="59.9521" x2="243.0674" y1="348.2832" y2="348.2832"/><text fill="#333333" font-family="sans-serif" font-size="13" lengthAdjust="spacing" textLength="140.1626" x="71.9521" y="343.541">OnGetData(peer, msg)</text><path d="M249,361.2832 L249,386.2832 L458,386.2832 L458,371.2832 L448,361.2832 L249,361.2832 " fill="#FEFFDD" style="stroke:#181818;stroke-width:0.5;"/><path d="M448,361.2832 L448,371.2832 L458,371.2832 L448,361.2832 " fill="#FEFFDD" style="stroke:#181818;stroke-width:0.5;"/><text fill="#333333" font-family="sans-serif" font-size="13" lengthAdjust="spacing" textLength="188.9507" x="255" y="378.8516">Requesting the full block data</text><polygon fill="#666666" points="232.0674,408.9043,242.0674,412.9043,232.0674,416.9043,236.0674,412.9043" style="stroke:#666666;stroke-width:1.0;"/><line style="stroke:#666666;stroke-width:1.0;" x1="54.9521" x2="238.0674" y1="412.9043" y2="412.9043"/><text fill="#333333" font-family="sans-serif" font-size="13" lengthAdjust="spacing" textLength="165.1152" x="61.9521" y="408.1621">OnBlock(peer, msg, bytes)</text><line style="stroke:#666666;stroke-width:1.0;" x1="244.0674" x2="286.0674" y1="442.2148" y2="442.2148"/><line style="stroke:#666666;stroke-width:1.0;" x1="286.0674" x2="286.0674" y1="442.2148" y2="455.2148"/><line style="stroke:#666666;stroke-width:1.0;" x1="245.0674" x2="286.0674" y1="455.2148" y2="455.2148"/><polygon fill="#666666" points="255.0674,451.2148,245.0674,455.2148,255.0674,459.2148,251.0674,455.2148" style="stroke:#666666;stroke-width:1.0;"/><text fill="#333333" font-family="sans-serif" font-size="13" lengthAdjust="spacing" textLength="110.2271" x="251.0674" y="437.4727">Process the block</text><polygon fill="#666666" points="436.3281,480.5254,446.3281,484.5254,436.3281,488.5254,440.3281,484.5254" style="stroke:#666666;stroke-width:1.0;"/><line style="stroke:#666666;stroke-width:1.0;" x1="244.0674" x2="442.3281" y1="484.5254" y2="484.5254"/><text fill="#333333" font-family="sans-serif" font-size="13" lengthAdjust="spacing" textLength="116.4287" x="251.0674" y="479.7832">Store block details</text><line style="stroke:#000000;stroke-width:1.0;stroke-dasharray:2.0,2.0;" x1="10" x2="505.3354" y1="493.5254" y2="493.5254"/><text fill="#333333" font-family="sans-serif" font-size="11" font-weight="bold" lengthAdjust="spacing" textLength="122.4287" x="15" y="504.1602">[is a new transaction]</text><polygon fill="#666666" points="65.9521,524.791,55.9521,528.791,65.9521,532.791,61.9521,528.791" style="stroke:#666666;stroke-width:1.0;"/><line style="stroke:#666666;stroke-width:1.0;" x1="59.9521" x2="243.0674" y1="528.791" y2="528.791"/><text fill="#333333" font-family="sans-serif" font-size="13" lengthAdjust="spacing" textLength="140.1626" x="71.9521" y="524.0488">OnGetData(peer, msg)</text><path d="M249,541.791 L249,566.791 L495,566.791 L495,551.791 L485,541.791 L249,541.791 " fill="#FEFFDD" style="stroke:#181818;stroke-width:0.5;"/><path d="M485,541.791 L485,551.791 L495,551.791 L485,541.791 " fill="#FEFFDD" style="stroke:#181818;stroke-width:0.5;"/><text fill="#333333" font-family="sans-serif" font-size="13" lengthAdjust="spacing" textLength="225.3354" x="255" y="559.3594">Requesting the full transaction data</text><polygon fill="#666666" points="232.0674,589.4121,242.0674,593.4121,232.0674,597.4121,236.0674,593.4121" style="stroke:#666666;stroke-width:1.0;"/><line style="stroke:#666666;stroke-width:1.0;" x1="54.9521" x2="238.0674" y1="593.4121" y2="593.4121"/><text fill="#333333" font-family="sans-serif" font-size="13" lengthAdjust="spacing" textLength="147.8306" x="61.9521" y="588.6699">OnTx(peer, msg, bytes)</text><line style="stroke:#666666;stroke-width:1.0;" x1="244.0674" x2="286.0674" y1="622.7227" y2="622.7227"/><line style="stroke:#666666;stroke-width:1.0;" x1="286.0674" x2="286.0674" y1="622.7227" y2="635.7227"/><line style="stroke:#666666;stroke-width:1.0;" x1="245.0674" x2="286.0674" y1="635.7227" y2="635.7227"/><polygon fill="#666666" points="255.0674,631.7227,245.0674,635.7227,255.0674,639.7227,251.0674,635.7227" style="stroke:#666666;stroke-width:1.0;"/><text fill="#333333" font-family="sans-serif" font-size="13" lengthAdjust="spacing" textLength="146.6118" x="251.0674" y="617.9805">Process the transaction</text><polygon fill="#666666" points="436.3281,661.0332,446.3281,665.0332,436.3281,669.0332,440.3281,665.0332" style="stroke:#666666;stroke-width:1.0;"/><line style="stroke:#666666;stroke-width:1.0;" x1="244.0674" x2="442.3281" y1="665.0332" y2="665.0332"/><text fill="#333333" font-family="sans-serif" font-size="13" lengthAdjust="spacing" textLength="152.8135" x="251.0674" y="660.291">Store transaction details</text><line style="stroke:#000000;stroke-width:1.0;stroke-dasharray:2.0,2.0;" x1="10" x2="505.3354" y1="674.0332" y2="674.0332"/><text fill="#333333" font-family="sans-serif" font-size="11" font-weight="bold" lengthAdjust="spacing" textLength="59.501" x="15" y="684.668">[is known]</text><path d="M249,692.9883 L249,717.9883 L477,717.9883 L477,702.9883 L467,692.9883 L249,692.9883 " fill="#FEFFDD" style="stroke:#181818;stroke-width:0.5;"/><path d="M467,692.9883 L467,702.9883 L477,702.9883 L467,692.9883 " fill="#FEFFDD" style="stroke:#181818;stroke-width:0.5;"/><text fill="#333333" font-family="sans-serif" font-size="13" lengthAdjust="spacing" textLength="207.0605" x="255" y="710.5566">No action needed, item is known</text><text fill="#333333" font-family="sans-serif" font-size="10" lengthAdjust="spacing" textLength="274.0674" x="38.5474" y="812.4551">Detailed Exchange Overview for Transactions and Blocks</text><text fill="#333333" font-family="sans-serif" font-size="10" lengthAdjust="spacing" textLength="347.998" x="3.1641" y="824.2324">Last Modified On: 24-Feb-2025. &#169; 2024 Bitcoin SV. All rights reserved.</text><!--SRC=[jLJHJXin47ptLunILGK94A9LLKLAAo2aGY845TGdNdpdlSJAPKrjvo12_Q3-Hh-iQoU10wMjH5K_dCwtkpEpu_M5gUKRxVKCXIwdO-_cR8vTxJnU3VO77mO35Huo35LwNiU1uxXAUPjNAqLxxsvNmVTvAVK6VQei4mhd3Vc0IgAwha4rpOXZQDNBriO5xXLmbBEVOidNvohxUQdlgeLIYaBlwd-5aMUqfRtH75y6fLGReZFKbiyfTg03PlBE59ycN1nSu8p6kbnSywWXN-i5BiatjgHSLEUOCZhgGWU2APJgzN3i1AgCrZ5EWeHg6oR9MFHwQbc2tOzhncvo9wNdqgFQbLDeDhZoceDUeXmQ8Oysq1fbLPjWLe1TZFYKcwqR8h-3MHXlAtQHuEru4k6gLLutXV9v24A0vKOGdL-W4GNEXsjEmn0VkGDaNoHLGRN4cwABYMu8fmX4Z3YnWXP9nfO4WJufNKV8DmscsoM0d0smeVyHVwRO5m_RubFkvWQ-qBSvXMXvBAo4QYwJc_6Hpa7boit-P7CVINPGB2A5xMUwrZmNtfKKGYRPf3zPS2cUqPgTnDCwAAfb4XuwRrdv7_jliVpLXQkx5rdm-qOUZNWYuvaTKtQt_8UspXrMbKnaoEmin-cXajYa0QoY_Au4mAFJpmnaS79NJZIF2UcEDbPSJqDyrHxYTAFoySk4uqo7YA4pjh9IFU8kNejfjDKnPdSu7EukP7Msz_3p1mxs3zxXoCRIMSRbrpqSYjjPUu2d87HazZhg5m00]--></g></svg>
