<svg xmlns="http://www.w3.org/2000/svg" xmlns:xlink="http://www.w3.org/1999/xlink" contentStyleType="text/css" height="1114px" preserveAspectRatio="none" style="width:1347px;height:1114px;background:#F0F8FF;" version="1.1" viewBox="0 0 1347 1114" width="1347px" zoomAndPan="magnify"><defs/><g><rect fill="#F0F8FF" height="1114" style="stroke:none;stroke-width:1.0;" width="1347" x="0" y="0"/><rect fill="#FFFFFF" height="868.6738" style="stroke:#181818;stroke-width:1.0;" width="10" x="268.9907" y="142.1094"/><rect fill="#FFFFFF" height="797.0527" style="stroke:#181818;stroke-width:1.0;" width="10" x="459.397" y="213.7305"/><rect fill="#FFFFFF" height="53.6211" style="stroke:#181818;stroke-width:1.0;" width="10" x="848.2622" y="426.9043"/><rect fill="none" height="674.1211" style="stroke:#000000;stroke-width:1.5;" width="1320.0215" x="10" y="329.6621"/><rect fill="none" height="554.8789" style="stroke:#000000;stroke-width:1.5;" width="1216.4951" x="20" y="441.9043"/><rect fill="none" height="59.6211" style="stroke:#000000;stroke-width:1.5;" width="269.0464" x="400.5913" y="626.7676"/><line style="stroke:#181818;stroke-width:0.5;stroke-dasharray:5.0,5.0;" x1="64" x2="64" y1="67.4883" y2="1020.7832"/><line style="stroke:#181818;stroke-width:0.5;stroke-dasharray:5.0,5.0;" x1="273.7383" x2="273.7383" y1="67.4883" y2="1020.7832"/><line style="stroke:#181818;stroke-width:0.5;stroke-dasharray:5.0,5.0;" x1="463.5913" x2="463.5913" y1="67.4883" y2="1020.7832"/><line style="stroke:#181818;stroke-width:0.5;stroke-dasharray:5.0,5.0;" x1="696.1553" x2="696.1553" y1="67.4883" y2="1020.7832"/><line style="stroke:#181818;stroke-width:0.5;stroke-dasharray:5.0,5.0;" x1="852.752" x2="852.752" y1="67.4883" y2="1020.7832"/><line style="stroke:#181818;stroke-width:0.5;stroke-dasharray:5.0,5.0;" x1="1011.7725" x2="1011.7725" y1="67.4883" y2="1020.7832"/><line style="stroke:#181818;stroke-width:0.5;stroke-dasharray:5.0,5.0;" x1="1167.7988" x2="1167.7988" y1="67.4883" y2="1020.7832"/><line style="stroke:#181818;stroke-width:0.5;stroke-dasharray:5.0,5.0;" x1="1277.4951" x2="1277.4951" y1="67.4883" y2="1020.7832"/><rect fill="#DDDDDD" height="30.4883" rx="2.5" ry="2.5" style="stroke:#666666;stroke-width:0.5;" width="69.9043" x="30" y="36"/><text fill="#333333" font-family="sans-serif" font-size="14" lengthAdjust="spacing" textLength="55.9043" x="37" y="56.5352">MainNet</text><rect fill="#DDDDDD" height="30.4883" rx="2.5" ry="2.5" style="stroke:#666666;stroke-width:0.5;" width="69.9043" x="30" y="1019.7832"/><text fill="#333333" font-family="sans-serif" font-size="14" lengthAdjust="spacing" textLength="55.9043" x="37" y="1040.3184">MainNet</text><rect fill="#DDDDDD" height="46.9766" rx="2.5" ry="2.5" style="stroke:#666666;stroke-width:0.5;" width="116.5049" x="215.7383" y="19.5117"/><text fill="#333333" font-family="sans-serif" font-size="14" lengthAdjust="spacing" textLength="74.9697" x="236.5059" y="40.0469">P2P Legacy</text><text fill="#333333" font-family="sans-serif" font-size="14" lengthAdjust="spacing" textLength="102.5049" x="222.7383" y="56.5352">Overlay Service</text><rect fill="#DDDDDD" height="46.9766" rx="2.5" ry="2.5" style="stroke:#666666;stroke-width:0.5;" width="116.5049" x="215.7383" y="1019.7832"/><text fill="#333333" font-family="sans-serif" font-size="14" lengthAdjust="spacing" textLength="74.9697" x="236.5059" y="1040.3184">P2P Legacy</text><text fill="#333333" font-family="sans-serif" font-size="14" lengthAdjust="spacing" textLength="102.5049" x="222.7383" y="1056.8066">Overlay Service</text><rect fill="#DDDDDD" height="30.4883" rx="2.5" ry="2.5" style="stroke:#666666;stroke-width:0.5;" width="107.6113" x="410.5913" y="36"/><text fill="#333333" font-family="sans-serif" font-size="14" lengthAdjust="spacing" textLength="93.6113" x="417.5913" y="56.5352">Sync Manager</text><rect fill="#DDDDDD" height="30.4883" rx="2.5" ry="2.5" style="stroke:#666666;stroke-width:0.5;" width="107.6113" x="410.5913" y="1019.7832"/><text fill="#333333" font-family="sans-serif" font-size="14" lengthAdjust="spacing" textLength="93.6113" x="417.5913" y="1040.3184">Sync Manager</text><text fill="#333333" font-family="sans-serif" font-size="14" lengthAdjust="spacing" textLength="167.5967" x="610.1553" y="64.5352">Orphan Transaction Map</text><path d="M678.9536,15 C678.9536,5 696.9536,5 696.9536,5 C696.9536,5 714.9536,5 714.9536,15 L714.9536,41 C714.9536,51 696.9536,51 696.9536,51 C696.9536,51 678.9536,51 678.9536,41 L678.9536,15 " fill="#E2E2F0" style="stroke:#181818;stroke-width:1.5;"/><path d="M678.9536,15 C678.9536,25 696.9536,25 696.9536,25 C696.9536,25 714.9536,25 714.9536,15 " fill="none" style="stroke:#181818;stroke-width:1.5;"/><text fill="#333333" font-family="sans-serif" font-size="14" lengthAdjust="spacing" textLength="167.5967" x="610.1553" y="1033.3184">Orphan Transaction Map</text><path d="M678.9536,1046.2715 C678.9536,1036.2715 696.9536,1036.2715 696.9536,1036.2715 C696.9536,1036.2715 714.9536,1036.2715 714.9536,1046.2715 L714.9536,1072.2715 C714.9536,1082.2715 696.9536,1082.2715 696.9536,1082.2715 C696.9536,1082.2715 678.9536,1082.2715 678.9536,1072.2715 L678.9536,1046.2715 " fill="#E2E2F0" style="stroke:#181818;stroke-width:1.5;"/><path d="M678.9536,1046.2715 C678.9536,1056.2715 696.9536,1056.2715 696.9536,1056.2715 C696.9536,1056.2715 714.9536,1056.2715 714.9536,1046.2715 " fill="none" style="stroke:#181818;stroke-width:1.5;"/><rect fill="#DDDDDD" height="46.9766" rx="2.5" ry="2.5" style="stroke:#666666;stroke-width:0.5;" width="119.0205" x="793.752" y="19.5117"/><text fill="#333333" font-family="sans-serif" font-size="14" lengthAdjust="spacing" textLength="64.0117" x="821.2563" y="40.0469">Teranode</text><text fill="#333333" font-family="sans-serif" font-size="14" lengthAdjust="spacing" textLength="105.0205" x="800.752" y="56.5352">Validator Client</text><rect fill="#DDDDDD" height="46.9766" rx="2.5" ry="2.5" style="stroke:#666666;stroke-width:0.5;" width="119.0205" x="793.752" y="1019.7832"/><text fill="#333333" font-family="sans-serif" font-size="14" lengthAdjust="spacing" textLength="64.0117" x="821.2563" y="1040.3184">Teranode</text><text fill="#333333" font-family="sans-serif" font-size="14" lengthAdjust="spacing" textLength="105.0205" x="800.752" y="1056.8066">Validator Client</text><text fill="#333333" font-family="sans-serif" font-size="14" lengthAdjust="spacing" textLength="172.0264" x="922.7725" y="64.5352">Transaction Memory Pool</text><path d="M993.7856,15 C993.7856,5 1011.7856,5 1011.7856,5 C1011.7856,5 1029.7856,5 1029.7856,15 L1029.7856,41 C1029.7856,51 1011.7856,51 1011.7856,51 C1011.7856,51 993.7856,51 993.7856,41 L993.7856,15 " fill="#E2E2F0" style="stroke:#181818;stroke-width:1.5;"/><path d="M993.7856,15 C993.7856,25 1011.7856,25 1011.7856,25 C1011.7856,25 1029.7856,25 1029.7856,15 " fill="none" style="stroke:#181818;stroke-width:1.5;"/><text fill="#333333" font-family="sans-serif" font-size="14" lengthAdjust="spacing" textLength="172.0264" x="922.7725" y="1033.3184">Transaction Memory Pool</text><path d="M993.7856,1046.2715 C993.7856,1036.2715 1011.7856,1036.2715 1011.7856,1036.2715 C1011.7856,1036.2715 1029.7856,1036.2715 1029.7856,1046.2715 L1029.7856,1072.2715 C1029.7856,1082.2715 1011.7856,1082.2715 1011.7856,1082.2715 C1011.7856,1082.2715 993.7856,1082.2715 993.7856,1072.2715 L993.7856,1046.2715 " fill="#E2E2F0" style="stroke:#181818;stroke-width:1.5;"/><path d="M993.7856,1046.2715 C993.7856,1056.2715 1011.7856,1056.2715 1011.7856,1056.2715 C1011.7856,1056.2715 1029.7856,1056.2715 1029.7856,1046.2715 " fill="none" style="stroke:#181818;stroke-width:1.5;"/><text fill="#333333" font-family="sans-serif" font-size="14" lengthAdjust="spacing" textLength="109.6963" x="1110.7988" y="64.5352">Signature Cache</text><path d="M1150.647,15 C1150.647,5 1168.647,5 1168.647,5 C1168.647,5 1186.647,5 1186.647,15 L1186.647,41 C1186.647,51 1168.647,51 1168.647,51 C1168.647,51 1150.647,51 1150.647,41 L1150.647,15 " fill="#E2E2F0" style="stroke:#181818;stroke-width:1.5;"/><path d="M1150.647,15 C1150.647,25 1168.647,25 1168.647,25 C1168.647,25 1186.647,25 1186.647,15 " fill="none" style="stroke:#181818;stroke-width:1.5;"/><text fill="#333333" font-family="sans-serif" font-size="14" lengthAdjust="spacing" textLength="109.6963" x="1110.7988" y="1033.3184">Signature Cache</text><path d="M1150.647,1046.2715 C1150.647,1036.2715 1168.647,1036.2715 1168.647,1036.2715 C1168.647,1036.2715 1186.647,1036.2715 1186.647,1046.2715 L1186.647,1072.2715 C1186.647,1082.2715 1168.647,1082.2715 1168.647,1082.2715 C1168.647,1082.2715 1150.647,1082.2715 1150.647,1072.2715 L1150.647,1046.2715 " fill="#E2E2F0" style="stroke:#181818;stroke-width:1.5;"/><path d="M1150.647,1046.2715 C1150.647,1056.2715 1168.647,1056.2715 1168.647,1056.2715 C1168.647,1056.2715 1186.647,1056.2715 1186.647,1046.2715 " fill="none" style="stroke:#181818;stroke-width:1.5;"/><text fill="#333333" font-family="sans-serif" font-size="14" lengthAdjust="spacing" textLength="77.5264" x="1236.4951" y="64.5352">UTXO Store</text><path d="M1260.2583,15 C1260.2583,5 1278.2583,5 1278.2583,5 C1278.2583,5 1296.2583,5 1296.2583,15 L1296.2583,41 C1296.2583,51 1278.2583,51 1278.2583,51 C1278.2583,51 1260.2583,51 1260.2583,41 L1260.2583,15 " fill="#E2E2F0" style="stroke:#181818;stroke-width:1.5;"/><path d="M1260.2583,15 C1260.2583,25 1278.2583,25 1278.2583,25 C1278.2583,25 1296.2583,25 1296.2583,15 " fill="none" style="stroke:#181818;stroke-width:1.5;"/><text fill="#333333" font-family="sans-serif" font-size="14" lengthAdjust="spacing" textLength="77.5264" x="1236.4951" y="1033.3184">UTXO Store</text><path d="M1260.2583,1046.2715 C1260.2583,1036.2715 1278.2583,1036.2715 1278.2583,1036.2715 C1278.2583,1036.2715 1296.2583,1036.2715 1296.2583,1046.2715 L1296.2583,1072.2715 C1296.2583,1082.2715 1278.2583,1082.2715 1278.2583,1082.2715 C1278.2583,1082.2715 1260.2583,1082.2715 1260.2583,1072.2715 L1260.2583,1046.2715 " fill="#E2E2F0" style="stroke:#181818;stroke-width:1.5;"/><path d="M1260.2583,1046.2715 C1260.2583,1056.2715 1278.2583,1056.2715 1278.2583,1056.2715 C1278.2583,1056.2715 1296.2583,1056.2715 1296.2583,1046.2715 " fill="none" style="stroke:#181818;stroke-width:1.5;"/><rect fill="#FFFFFF" height="868.6738" style="stroke:#181818;stroke-width:1.0;" width="10" x="268.9907" y="142.1094"/><rect fill="#FFFFFF" height="797.0527" style="stroke:#181818;stroke-width:1.0;" width="10" x="459.397" y="213.7305"/><rect fill="#FFFFFF" height="53.6211" style="stroke:#181818;stroke-width:1.0;" width="10" x="848.2622" y="426.9043"/><rect fill="#EEEEEE" height="3" style="stroke:#EEEEEE;stroke-width:1.0;" width="1340.0215" x="0" y="98.1436"/><line style="stroke:#000000;stroke-width:1.0;" x1="0" x2="1340.0215" y1="98.1436" y2="98.1436"/><line style="stroke:#000000;stroke-width:1.0;" x1="0" x2="1340.0215" y1="101.1436" y2="101.1436"/><rect fill="#EEEEEE" height="23.3105" style="stroke:#000000;stroke-width:2.0;" width="182.873" x="578.5742" y="87.4883"/><text fill="#333333" font-family="sans-serif" font-size="13" font-weight="bold" lengthAdjust="spacing" textLength="164.5884" x="584.5742" y="104.0566">Transaction Propagation</text><polygon fill="#666666" points="256.9907,138.1094,266.9907,142.1094,256.9907,146.1094,260.9907,142.1094" style="stroke:#666666;stroke-width:1.0;"/><line style="stroke:#666666;stroke-width:1.0;" x1="64.9521" x2="262.9907" y1="142.1094" y2="142.1094"/><text fill="#333333" font-family="sans-serif" font-size="13" lengthAdjust="spacing" textLength="105.8979" x="71.9521" y="137.3672">OnTx(peer, msg)</text><line style="stroke:#666666;stroke-width:1.0;" x1="278.9907" x2="320.9907" y1="171.4199" y2="171.4199"/><line style="stroke:#666666;stroke-width:1.0;" x1="320.9907" x2="320.9907" y1="171.4199" y2="184.4199"/><line style="stroke:#666666;stroke-width:1.0;" x1="279.9907" x2="320.9907" y1="184.4199" y2="184.4199"/><polygon fill="#666666" points="289.9907,180.4199,279.9907,184.4199,289.9907,188.4199,285.9907,184.4199" style="stroke:#666666;stroke-width:1.0;"/><text fill="#333333" font-family="sans-serif" font-size="13" lengthAdjust="spacing" textLength="151.0806" x="285.9907" y="166.6777">Add to known inventory</text><polygon fill="#666666" points="447.397,209.7305,457.397,213.7305,447.397,217.7305,451.397,213.7305" style="stroke:#666666;stroke-width:1.0;"/><line style="stroke:#666666;stroke-width:1.0;" x1="278.9907" x2="453.397" y1="213.7305" y2="213.7305"/><text fill="#333333" font-family="sans-serif" font-size="13" lengthAdjust="spacing" textLength="154.1211" x="285.9907" y="208.9883">QueueTx(tx, peer, done)</text><line style="stroke:#666666;stroke-width:1.0;" x1="469.397" x2="511.397" y1="243.041" y2="243.041"/><line style="stroke:#666666;stroke-width:1.0;" x1="511.397" x2="511.397" y1="243.041" y2="256.041"/><line style="stroke:#666666;stroke-width:1.0;" x1="470.397" x2="511.397" y1="256.041" y2="256.041"/><polygon fill="#666666" points="480.397,252.041,470.397,256.041,480.397,260.041,476.397,256.041" style="stroke:#666666;stroke-width:1.0;"/><text fill="#333333" font-family="sans-serif" font-size="13" lengthAdjust="spacing" textLength="105.9106" x="476.397" y="238.2988">handleTxMsg(tx)</text><polygon fill="#666666" points="1156.647,281.3516,1166.647,285.3516,1156.647,289.3516,1160.647,285.3516" style="stroke:#666666;stroke-width:1.0;"/><line style="stroke:#666666;stroke-width:1.0;" x1="469.397" x2="1162.647" y1="285.3516" y2="285.3516"/><text fill="#333333" font-family="sans-serif" font-size="13" lengthAdjust="spacing" textLength="237.7769" x="476.397" y="280.6094">Check for cached signature validation</text><polygon fill="#666666" points="480.397,310.6621,470.397,314.6621,480.397,318.6621,476.397,314.6621" style="stroke:#666666;stroke-width:1.0;"/><line style="stroke:#666666;stroke-width:1.0;stroke-dasharray:2.0,2.0;" x1="474.397" x2="1167.647" y1="314.6621" y2="314.6621"/><text fill="#333333" font-family="sans-serif" font-size="13" lengthAdjust="spacing" textLength="165.166" x="486.397" y="309.9199">Signature validation result</text><path d="M10,329.6621 L72.1387,329.6621 L72.1387,336.9727 L62.1387,346.9727 L10,346.9727 L10,329.6621 " fill="#EEEEEE" style="stroke:#000000;stroke-width:1.5;"/><rect fill="none" height="674.1211" style="stroke:#000000;stroke-width:1.5;" width="1320.0215" x="10" y="329.6621"/><text fill="#333333" font-family="sans-serif" font-size="13" font-weight="bold" lengthAdjust="spacing" textLength="17.1387" x="25" y="343.2305">alt</text><text fill="#333333" font-family="sans-serif" font-size="11" font-weight="bold" lengthAdjust="spacing" textLength="134.3203" x="87.1387" y="342.2969">[Signature not in cache]</text><polygon fill="#666666" points="1266.2583,364.2832,1276.2583,368.2832,1266.2583,372.2832,1270.2583,368.2832" style="stroke:#666666;stroke-width:1.0;"/><line style="stroke:#666666;stroke-width:1.0;" x1="469.397" x2="1272.2583" y1="368.2832" y2="368.2832"/><text fill="#333333" font-family="sans-serif" font-size="13" lengthAdjust="spacing" textLength="162.6968" x="476.397" y="363.541">Retrieve UTXOs for inputs</text><polygon fill="#666666" points="480.397,393.5938,470.397,397.5938,480.397,401.5938,476.397,397.5938" style="stroke:#666666;stroke-width:1.0;"/><line style="stroke:#666666;stroke-width:1.0;stroke-dasharray:2.0,2.0;" x1="474.397" x2="1277.2583" y1="397.5938" y2="397.5938"/><text fill="#333333" font-family="sans-serif" font-size="13" lengthAdjust="spacing" textLength="66.9805" x="486.397" y="392.8516">UTXO data</text><polygon fill="#666666" points="836.2622,422.9043,846.2622,426.9043,836.2622,430.9043,840.2622,426.9043" style="stroke:#666666;stroke-width:1.0;"/><line style="stroke:#666666;stroke-width:1.0;" x1="469.397" x2="842.2622" y1="426.9043" y2="426.9043"/><text fill="#333333" font-family="sans-serif" font-size="13" lengthAdjust="spacing" textLength="131.8853" x="476.397" y="422.1621">ValidateTx(tx, utxos)</text><path d="M20,441.9043 L82.1387,441.9043 L82.1387,449.2148 L72.1387,459.2148 L20,459.2148 L20,441.9043 " fill="#EEEEEE" style="stroke:#000000;stroke-width:1.5;"/><rect fill="none" height="554.8789" style="stroke:#000000;stroke-width:1.5;" width="1216.4951" x="20" y="441.9043"/><text fill="#333333" font-family="sans-serif" font-size="13" font-weight="bold" lengthAdjust="spacing" textLength="17.1387" x="35" y="455.4727">alt</text><text fill="#333333" font-family="sans-serif" font-size="11" font-weight="bold" lengthAdjust="spacing" textLength="119.7432" x="97.1387" y="454.5391">[Transaction is valid]</text><polygon fill="#666666" points="480.397,476.5254,470.397,480.5254,480.397,484.5254,476.397,480.5254" style="stroke:#666666;stroke-width:1.0;"/><line style="stroke:#666666;stroke-width:1.0;stroke-dasharray:2.0,2.0;" x1="474.397" x2="852.2622" y1="480.5254" y2="480.5254"/><text fill="#333333" font-family="sans-serif" font-size="13" lengthAdjust="spacing" textLength="183.4409" x="486.397" y="475.7832">Valid transaction + metadata</text><polygon fill="#666666" points="1156.647,505.8359,1166.647,509.8359,1156.647,513.8359,1160.647,509.8359" style="stroke:#666666;stroke-width:1.0;"/><line style="stroke:#666666;stroke-width:1.0;" x1="469.397" x2="1162.647" y1="509.8359" y2="509.8359"/><text fill="#333333" font-family="sans-serif" font-size="13" lengthAdjust="spacing" textLength="207.0479" x="476.397" y="505.0938">Cache signature validation result</text><polygon fill="#666666" points="999.7856,535.1465,1009.7856,539.1465,999.7856,543.1465,1003.7856,539.1465" style="stroke:#666666;stroke-width:1.0;"/><line style="stroke:#666666;stroke-width:1.0;" x1="469.397" x2="1005.7856" y1="539.1465" y2="539.1465"/><text fill="#333333" font-family="sans-serif" font-size="13" lengthAdjust="spacing" textLength="180.5146" x="476.397" y="534.4043">Add transaction to mempool</text><polygon fill="#666666" points="480.397,549.1465,470.397,553.1465,480.397,557.1465,476.397,553.1465" style="stroke:#666666;stroke-width:1.0;"/><line style="stroke:#666666;stroke-width:1.0;stroke-dasharray:2.0,2.0;" x1="474.397" x2="1010.7856" y1="553.1465" y2="553.1465"/><polygon fill="#666666" points="684.9536,578.457,694.9536,582.457,684.9536,586.457,688.9536,582.457" style="stroke:#666666;stroke-width:1.0;"/><line style="stroke:#666666;stroke-width:1.0;" x1="469.397" x2="690.9536" y1="582.457" y2="582.457"/><text fill="#333333" font-family="sans-serif" font-size="13" lengthAdjust="spacing" textLength="187.6875" x="476.397" y="577.7148">Check for dependent orphans</text><polygon fill="#666666" points="480.397,607.7676,470.397,611.7676,480.397,615.7676,476.397,611.7676" style="stroke:#666666;stroke-width:1.0;"/><line style="stroke:#666666;stroke-width:1.0;stroke-dasharray:2.0,2.0;" x1="474.397" x2="695.9536" y1="611.7676" y2="611.7676"/><text fill="#333333" font-family="sans-serif" font-size="13" lengthAdjust="spacing" textLength="188.5762" x="486.397" y="607.0254">Dependent orphan txs (if any)</text><path d="M400.5913,626.7676 L475.0381,626.7676 L475.0381,634.0781 L465.0381,644.0781 L400.5913,644.0781 L400.5913,626.7676 " fill="#EEEEEE" style="stroke:#000000;stroke-width:1.5;"/><rect fill="none" height="59.6211" style="stroke:#000000;stroke-width:1.5;" width="269.0464" x="400.5913" y="626.7676"/><text fill="#333333" font-family="sans-serif" font-size="13" font-weight="bold" lengthAdjust="spacing" textLength="29.4468" x="415.5913" y="640.3359">loop</text><text fill="#333333" font-family="sans-serif" font-size="11" font-weight="bold" lengthAdjust="spacing" textLength="163.7002" x="490.0381" y="639.4023">[For each dependent orphan]</text><line style="stroke:#666666;stroke-width:1.0;" x1="469.397" x2="511.397" y1="665.3887" y2="665.3887"/><line style="stroke:#666666;stroke-width:1.0;" x1="511.397" x2="511.397" y1="665.3887" y2="678.3887"/><line style="stroke:#666666;stroke-width:1.0;" x1="470.397" x2="511.397" y1="678.3887" y2="678.3887"/><polygon fill="#666666" points="480.397,674.3887,470.397,678.3887,480.397,682.3887,476.397,678.3887" style="stroke:#666666;stroke-width:1.0;"/><text fill="#333333" font-family="sans-serif" font-size="13" lengthAdjust="spacing" textLength="171.2407" x="476.397" y="660.6465">Process orphan transaction</text><polygon fill="#666666" points="289.9907,710.6992,279.9907,714.6992,289.9907,718.6992,285.9907,714.6992" style="stroke:#666666;stroke-width:1.0;"/><line style="stroke:#666666;stroke-width:1.0;" x1="283.9907" x2="458.397" y1="714.6992" y2="714.6992"/><text fill="#333333" font-family="sans-serif" font-size="13" lengthAdjust="spacing" textLength="156.4063" x="295.9907" y="709.957">Announce to other peers</text><polygon fill="#666666" points="75.9521,740.0098,65.9521,744.0098,75.9521,748.0098,71.9521,744.0098" style="stroke:#666666;stroke-width:1.0;"/><line style="stroke:#666666;stroke-width:1.0;" x1="69.9521" x2="267.9907" y1="744.0098" y2="744.0098"/><text fill="#333333" font-family="sans-serif" font-size="13" lengthAdjust="spacing" textLength="180.0386" x="81.9521" y="739.2676">Relay transaction to network</text><line style="stroke:#000000;stroke-width:1.0;stroke-dasharray:2.0,2.0;" x1="20" x2="1236.4951" y1="753.0098" y2="753.0098"/><text fill="#333333" font-family="sans-serif" font-size="11" font-weight="bold" lengthAdjust="spacing" textLength="187.6714" x="25" y="763.6445">[Transaction has missing parent]</text><polygon fill="#666666" points="480.397,784.2754,470.397,788.2754,480.397,792.2754,476.397,788.2754" style="stroke:#666666;stroke-width:1.0;"/><line style="stroke:#666666;stroke-width:1.0;stroke-dasharray:2.0,2.0;" x1="474.397" x2="852.2622" y1="788.2754" y2="788.2754"/><text fill="#333333" font-family="sans-serif" font-size="13" lengthAdjust="spacing" textLength="132.3232" x="486.397" y="783.5332">Error: Missing parent</text><polygon fill="#666666" points="684.9536,816.5859,694.9536,820.5859,684.9536,824.5859,688.9536,820.5859" style="stroke:#666666;stroke-width:1.0;"/><line style="stroke:#666666;stroke-width:1.0;" x1="469.397" x2="690.9536" y1="820.5859" y2="820.5859"/><text fill="#333333" font-family="sans-serif" font-size="13" lengthAdjust="spacing" textLength="203.5566" x="476.397" y="815.8438">Store in orphan transaction map</text><path d="M701,801.2754 L701,826.2754 L906,826.2754 L906,811.2754 L896,801.2754 L701,801.2754 " fill="#EFEFEF" style="stroke:#999999;stroke-width:0.5;"/><path d="M896,801.2754 L896,811.2754 L906,811.2754 L896,801.2754 " fill="#EFEFEF" style="stroke:#999999;stroke-width:0.5;"/><text fill="#333333" font-family="sans-serif" font-size="13" lengthAdjust="spacing" textLength="184.082" x="707" y="818.8438">Keyed by missing parent txid</text><polygon fill="#666666" points="480.397,833.5859,470.397,837.5859,480.397,841.5859,476.397,837.5859" style="stroke:#666666;stroke-width:1.0;"/><line style="stroke:#666666;stroke-width:1.0;stroke-dasharray:2.0,2.0;" x1="474.397" x2="695.9536" y1="837.5859" y2="837.5859"/><line style="stroke:#000000;stroke-width:1.0;stroke-dasharray:2.0,2.0;" x1="20" x2="1236.4951" y1="846.5859" y2="846.5859"/><text fill="#333333" font-family="sans-serif" font-size="11" font-weight="bold" lengthAdjust="spacing" textLength="130.5444" x="25" y="857.2207">[Transaction is invalid]</text><polygon fill="#666666" points="480.397,877.8516,470.397,881.8516,480.397,885.8516,476.397,881.8516" style="stroke:#666666;stroke-width:1.0;"/><line style="stroke:#666666;stroke-width:1.0;stroke-dasharray:2.0,2.0;" x1="474.397" x2="852.2622" y1="881.8516" y2="881.8516"/><text fill="#333333" font-family="sans-serif" font-size="13" lengthAdjust="spacing" textLength="141.4575" x="486.397" y="877.1094">Error: Validation failed</text><line style="stroke:#666666;stroke-width:1.0;" x1="469.397" x2="511.397" y1="911.1621" y2="911.1621"/><line style="stroke:#666666;stroke-width:1.0;" x1="511.397" x2="511.397" y1="911.1621" y2="924.1621"/><line style="stroke:#666666;stroke-width:1.0;" x1="470.397" x2="511.397" y1="924.1621" y2="924.1621"/><polygon fill="#666666" points="480.397,920.1621,470.397,924.1621,480.397,928.1621,476.397,924.1621" style="stroke:#666666;stroke-width:1.0;"/><text fill="#333333" font-family="sans-serif" font-size="13" lengthAdjust="spacing" textLength="178.4199" x="476.397" y="906.4199">Add to rejected transactions</text><polygon fill="#666666" points="289.9907,949.4727,279.9907,953.4727,289.9907,957.4727,285.9907,953.4727" style="stroke:#666666;stroke-width:1.0;"/><line style="stroke:#666666;stroke-width:1.0;" x1="283.9907" x2="458.397" y1="953.4727" y2="953.4727"/><text fill="#333333" font-family="sans-serif" font-size="13" lengthAdjust="spacing" textLength="89.6987" x="295.9907" y="948.7305">Send rejection</text><polygon fill="#666666" points="75.9521,981.7832,65.9521,985.7832,75.9521,989.7832,71.9521,985.7832" style="stroke:#666666;stroke-width:1.0;"/><line style="stroke:#666666;stroke-width:1.0;" x1="69.9521" x2="267.9907" y1="985.7832" y2="985.7832"/><text fill="#333333" font-family="sans-serif" font-size="13" lengthAdjust="spacing" textLength="115.3496" x="81.9521" y="981.041">PushRejectMsg(tx)</text><path d="M283,966.4727 L283,991.4727 L502,991.4727 L502,976.4727 L492,966.4727 L283,966.4727 " fill="#EFEFEF" style="stroke:#999999;stroke-width:0.5;"/><path d="M492,966.4727 L492,976.4727 L502,976.4727 L492,966.4727 " fill="#EFEFEF" style="stroke:#999999;stroke-width:0.5;"/><text fill="#333333" font-family="sans-serif" font-size="13" lengthAdjust="spacing" textLength="198.0342" x="289" y="984.041">Send rejection message to peer</text><text fill="#333333" font-family="sans-serif" font-size="10" lengthAdjust="spacing" textLength="177.6758" x="85.1904" y="1092.9395">P2P Legacy - Transaction Processing</text><text fill="#333333" font-family="sans-serif" font-size="10" lengthAdjust="spacing" textLength="348.0566" x="3.1641" y="1104.7168">Last Modified On: 25-Apr-2025. &#169; 2025 Bitcoin SV. All rights reserved.</text><!--SRC=[fLPjRzCm4FxkNt4gGgo2JcW819E611lz0gM5ZeaF- -B5rzGqjIFRxHOXVX1_Wr_6sN4RfsbvJQMsYPzxpdVtt3bs8LN93L_23SyMkT4h9SvreGtS6puUFXyEcTqY1Cxugd13hLo4F0bN0k76wDku-2nSZ3s02vn9XN2ZZK1ZOKQhl2W02roYSZQnfrlfAlZA05u7T9kBdkxkyY9Sx1jBM3BQeT75_zBGjvEPBBbo_qkbjCCknujmxUDuC_GVpv5kOiIbUeyEk8Kb_LNeMikzoSa4tc7Ei-fQZTTe2bx15CrQPjZpHaLOQzjCAvKHiU8vcW2oz23UCy4Tl-4MeJSsvPmhk3HSMPuvgHKPbS50XwM9raMR-H89h0LUgojUIAAYmCuBIIKEPklDmyHBYnwNsbJWUGD-YSlI-sZGKvahxbO6uPndypf4A_Dmay0-NNuUmvGSrOYLkzFXZh6pirP04wDBdlFm_-oCiPXZ6BoCcODJ6AlBkwCIqJo2fStxp9kkEHKtvfP5P6hpIWXm6XPAtogGQaqPeCXIQ99pmdzOuGh9ZRjx1BKheHKclj8IiTIsGqM54GLnZMnETFqkEgQBeETpp1QXDpF_HFYrcDvOAieBsneCEhwcU_1WqDB8O8mNBW5GEr0YQaSaVu2TRMrhHBGVqHc9QmHVntfuK5UjQ6nummRPtL0elDS1s-TZgpz2He5kakv9RJyORNFUo3N4akf6HZ47WuQskw7W1bnY-f1axNZOepSMkCUVNzWNG5gxy6j_KO139B6hDYfDjaQAtRISjzi0Tw8wIDnCXPQs19Qe17L01DHLJC3Th5tic82xit0aPy1LrM_y5rgNC2GNbCDvnq-0x4jYonLDW0ojtJfgqX7iYV5Wl4stAqM3F4EVGEtcjEfxk8wpwVZDRF7wzcDw9_EqTAlDelQ61OsnL71pFmwbjLBb_f2YA7yhlJTqC9jJ67Mj_afphQhMVKTzt4qNnLS6-t3m6PdFtIcynOh6oasritUgP-oTmp8ua0ZgF9gdVzHxCG5NJMVCk2nG_4FVjNZZS3Vu1JE7hHQolzJ9bDGKpJRwsYUFoShEFmRKPeRlfhLDH8rgBJdpc_B2OrwqzLSIPUkGnps7sCnHkv8JaxvLm63tlFJTuYjvhU0Tj_I6eeMSIKh3M9t2VJzIZtf234QZqQ2YgzS_XX_VuUJnoLDuBLscIJpJgsDuHM-38HhhvnMziQ0uxh6V]--></g></svg>
