<svg xmlns="http://www.w3.org/2000/svg" xmlns:xlink="http://www.w3.org/1999/xlink" contentStyleType="text/css" height="624px" preserveAspectRatio="none" style="width:561px;height:624px;background:#F0F8FF;" version="1.1" viewBox="0 0 561 624" width="561px" zoomAndPan="magnify"><defs/><g><rect fill="#F0F8FF" height="624" style="stroke:none;stroke-width:1.0;" width="561" x="0" y="0"/><rect fill="none" height="75.9316" style="stroke:#000000;stroke-width:1.5;" width="394.7075" x="160.8149" y="449.2148"/><line style="stroke:#181818;stroke-width:0.5;stroke-dasharray:5.0,5.0;" x1="39" x2="39" y1="67.4883" y2="542.1465"/><line style="stroke:#181818;stroke-width:0.5;stroke-dasharray:5.0,5.0;" x1="228.8149" x2="228.8149" y1="67.4883" y2="542.1465"/><line style="stroke:#181818;stroke-width:0.5;stroke-dasharray:5.0,5.0;" x1="439.5107" x2="439.5107" y1="67.4883" y2="542.1465"/><line style="stroke:#181818;stroke-width:0.5;stroke-dasharray:5.0,5.0;" x1="506.5107" x2="506.5107" y1="67.4883" y2="542.1465"/><rect fill="#DDDDDD" height="30.4883" rx="2.5" ry="2.5" style="stroke:#666666;stroke-width:0.5;" width="69.9043" x="5" y="36"/><text fill="#333333" font-family="sans-serif" font-size="14" lengthAdjust="spacing" textLength="55.9043" x="12" y="56.5352">MainNet</text><rect fill="#DDDDDD" height="30.4883" rx="2.5" ry="2.5" style="stroke:#666666;stroke-width:0.5;" width="69.9043" x="5" y="541.1465"/><text fill="#333333" font-family="sans-serif" font-size="14" lengthAdjust="spacing" textLength="55.9043" x="12" y="561.6816">MainNet</text><rect fill="#DDDDDD" height="46.9766" rx="2.5" ry="2.5" style="stroke:#666666;stroke-width:0.5;" width="116.5049" x="170.8149" y="19.5117"/><text fill="#333333" font-family="sans-serif" font-size="14" lengthAdjust="spacing" textLength="74.9697" x="191.5825" y="40.0469">P2P Legacy</text><text fill="#333333" font-family="sans-serif" font-size="14" lengthAdjust="spacing" textLength="102.5049" x="177.8149" y="56.5352">Overlay Service</text><rect fill="#DDDDDD" height="46.9766" rx="2.5" ry="2.5" style="stroke:#666666;stroke-width:0.5;" width="116.5049" x="170.8149" y="541.1465"/><text fill="#333333" font-family="sans-serif" font-size="14" lengthAdjust="spacing" textLength="74.9697" x="191.5825" y="561.6816">P2P Legacy</text><text fill="#333333" font-family="sans-serif" font-size="14" lengthAdjust="spacing" textLength="102.5049" x="177.8149" y="578.1699">Overlay Service</text><text fill="#333333" font-family="sans-serif" font-size="14" lengthAdjust="spacing" textLength="17.623" x="427.6992" y="64.5352">db</text><path d="M421.5107,15 C421.5107,5 439.5107,5 439.5107,5 C439.5107,5 457.5107,5 457.5107,15 L457.5107,41 C457.5107,51 439.5107,51 439.5107,51 C439.5107,51 421.5107,51 421.5107,41 L421.5107,15 " fill="#E2E2F0" style="stroke:#181818;stroke-width:1.5;"/><path d="M421.5107,15 C421.5107,25 439.5107,25 439.5107,25 C439.5107,25 457.5107,25 457.5107,15 " fill="none" style="stroke:#181818;stroke-width:1.5;"/><text fill="#333333" font-family="sans-serif" font-size="14" lengthAdjust="spacing" textLength="17.623" x="427.6992" y="554.6816">db</text><path d="M421.5107,567.6348 C421.5107,557.6348 439.5107,557.6348 439.5107,557.6348 C439.5107,557.6348 457.5107,557.6348 457.5107,567.6348 L457.5107,593.6348 C457.5107,603.6348 439.5107,603.6348 439.5107,603.6348 C439.5107,603.6348 421.5107,603.6348 421.5107,593.6348 L421.5107,567.6348 " fill="#E2E2F0" style="stroke:#181818;stroke-width:1.5;"/><path d="M421.5107,567.6348 C421.5107,577.6348 439.5107,577.6348 439.5107,577.6348 C439.5107,577.6348 457.5107,577.6348 457.5107,567.6348 " fill="none" style="stroke:#181818;stroke-width:1.5;"/><rect fill="#DDDDDD" height="30.4883" rx="2.5" ry="2.5" style="stroke:#666666;stroke-width:0.5;" width="78.0117" x="467.5107" y="36"/><text fill="#333333" font-family="sans-serif" font-size="14" lengthAdjust="spacing" textLength="64.0117" x="474.5107" y="56.5352">Teranode</text><rect fill="#DDDDDD" height="30.4883" rx="2.5" ry="2.5" style="stroke:#666666;stroke-width:0.5;" width="78.0117" x="467.5107" y="541.1465"/><text fill="#333333" font-family="sans-serif" font-size="14" lengthAdjust="spacing" textLength="64.0117" x="474.5107" y="561.6816">Teranode</text><polygon fill="#666666" points="50.9521,94.7988,40.9521,98.7988,50.9521,102.7988,46.9521,98.7988" style="stroke:#666666;stroke-width:1.0;"/><line style="stroke:#666666;stroke-width:1.0;" x1="44.9521" x2="228.0674" y1="98.7988" y2="98.7988"/><text fill="#333333" font-family="sans-serif" font-size="13" lengthAdjust="spacing" textLength="49.5435" x="56.9521" y="94.0566">connect</text><polygon fill="#666666" points="217.0674,124.1094,227.0674,128.1094,217.0674,132.1094,221.0674,128.1094" style="stroke:#666666;stroke-width:1.0;"/><line style="stroke:#666666;stroke-width:1.0;" x1="39.9521" x2="223.0674" y1="128.1094" y2="128.1094"/><text fill="#333333" font-family="sans-serif" font-size="13" lengthAdjust="spacing" textLength="108.2466" x="46.9521" y="123.3672">OnInv(peer, msg)</text><polygon fill="#666666" points="427.5107,153.4199,437.5107,157.4199,427.5107,161.4199,431.5107,157.4199" style="stroke:#666666;stroke-width:1.0;"/><line style="stroke:#666666;stroke-width:1.0;" x1="229.0674" x2="433.5107" y1="157.4199" y2="157.4199"/><text fill="#333333" font-family="sans-serif" font-size="13" lengthAdjust="spacing" textLength="186.4434" x="236.0674" y="152.6777">have I seen this block before?</text><polygon fill="#666666" points="240.0674,182.7305,230.0674,186.7305,240.0674,190.7305,236.0674,186.7305" style="stroke:#666666;stroke-width:1.0;"/><line style="stroke:#666666;stroke-width:1.0;stroke-dasharray:2.0,2.0;" x1="234.0674" x2="438.5107" y1="186.7305" y2="186.7305"/><text fill="#333333" font-family="sans-serif" font-size="13" lengthAdjust="spacing" textLength="16.0532" x="246.0674" y="181.9883">no</text><polygon fill="#666666" points="50.9521,212.041,40.9521,216.041,50.9521,220.041,46.9521,216.041" style="stroke:#666666;stroke-width:1.0;"/><line style="stroke:#666666;stroke-width:1.0;" x1="44.9521" x2="228.0674" y1="216.041" y2="216.041"/><text fill="#333333" font-family="sans-serif" font-size="13" lengthAdjust="spacing" textLength="140.1626" x="56.9521" y="211.2988">OnGetData(peer, msg)</text><polygon fill="#666666" points="217.0674,241.3516,227.0674,245.3516,217.0674,249.3516,221.0674,245.3516" style="stroke:#666666;stroke-width:1.0;"/><line style="stroke:#666666;stroke-width:1.0;" x1="39.9521" x2="223.0674" y1="245.3516" y2="245.3516"/><text fill="#333333" font-family="sans-serif" font-size="13" lengthAdjust="spacing" textLength="165.1152" x="46.9521" y="240.6094">OnBlock(peer, msg, bytes)</text><line style="stroke:#666666;stroke-width:1.0;" x1="229.0674" x2="271.0674" y1="274.6621" y2="274.6621"/><line style="stroke:#666666;stroke-width:1.0;" x1="271.0674" x2="271.0674" y1="274.6621" y2="287.6621"/><line style="stroke:#666666;stroke-width:1.0;" x1="230.0674" x2="271.0674" y1="287.6621" y2="287.6621"/><polygon fill="#666666" points="240.0674,283.6621,230.0674,287.6621,240.0674,291.6621,236.0674,287.6621" style="stroke:#666666;stroke-width:1.0;"/><text fill="#333333" font-family="sans-serif" font-size="13" lengthAdjust="spacing" textLength="149.4429" x="236.0674" y="269.9199">build subtree and block</text><polygon fill="#666666" points="494.5166,312.9727,504.5166,316.9727,494.5166,320.9727,498.5166,316.9727" style="stroke:#666666;stroke-width:1.0;"/><line style="stroke:#666666;stroke-width:1.0;" x1="229.0674" x2="500.5166" y1="316.9727" y2="316.9727"/><text fill="#333333" font-family="sans-serif" font-size="13" lengthAdjust="spacing" textLength="199.9702" x="236.0674" y="312.2305">BlockFound(ctx, hash, base_url)</text><polygon fill="#666666" points="240.0674,342.2832,230.0674,346.2832,240.0674,350.2832,236.0674,346.2832" style="stroke:#666666;stroke-width:1.0;"/><line style="stroke:#666666;stroke-width:1.0;" x1="234.0674" x2="505.5166" y1="346.2832" y2="346.2832"/><text fill="#333333" font-family="sans-serif" font-size="13" lengthAdjust="spacing" textLength="182.8125" x="246.0674" y="341.541">http://{base_url}/block/hash</text><polygon fill="#666666" points="494.5166,371.5938,504.5166,375.5938,494.5166,379.5938,498.5166,375.5938" style="stroke:#666666;stroke-width:1.0;"/><line style="stroke:#666666;stroke-width:1.0;stroke-dasharray:2.0,2.0;" x1="229.0674" x2="500.5166" y1="375.5938" y2="375.5938"/><text fill="#333333" font-family="sans-serif" font-size="13" lengthAdjust="spacing" textLength="34.1821" x="236.0674" y="370.8516">block</text><polygon fill="#666666" points="240.0674,400.9043,230.0674,404.9043,240.0674,408.9043,236.0674,404.9043" style="stroke:#666666;stroke-width:1.0;"/><line style="stroke:#666666;stroke-width:1.0;" x1="234.0674" x2="505.5166" y1="404.9043" y2="404.9043"/><text fill="#333333" font-family="sans-serif" font-size="13" lengthAdjust="spacing" textLength="196.1743" x="246.0674" y="400.1621">http://{base_url}/subtree/hash</text><polygon fill="#666666" points="494.5166,430.2148,504.5166,434.2148,494.5166,438.2148,498.5166,434.2148" style="stroke:#666666;stroke-width:1.0;"/><line style="stroke:#666666;stroke-width:1.0;stroke-dasharray:2.0,2.0;" x1="229.0674" x2="500.5166" y1="434.2148" y2="434.2148"/><text fill="#333333" font-family="sans-serif" font-size="13" lengthAdjust="spacing" textLength="47.5439" x="236.0674" y="429.4727">subtree</text><path d="M160.8149,449.2148 L235.2617,449.2148 L235.2617,456.5254 L225.2617,466.5254 L160.8149,466.5254 L160.8149,449.2148 " fill="#EEEEEE" style="stroke:#000000;stroke-width:1.5;"/><rect fill="none" height="75.9316" style="stroke:#000000;stroke-width:1.5;" width="394.7075" x="160.8149" y="449.2148"/><text fill="#333333" font-family="sans-serif" font-size="13" font-weight="bold" lengthAdjust="spacing" textLength="29.4468" x="175.8149" y="462.7832">loop</text><text fill="#333333" font-family="sans-serif" font-size="11" font-weight="bold" lengthAdjust="spacing" textLength="59.5923" x="250.2617" y="461.8496">[each txid]</text><polygon fill="#666666" points="240.0674,483.8359,230.0674,487.8359,240.0674,491.8359,236.0674,487.8359" style="stroke:#666666;stroke-width:1.0;"/><line style="stroke:#666666;stroke-width:1.0;" x1="234.0674" x2="505.5166" y1="487.8359" y2="487.8359"/><text fill="#333333" font-family="sans-serif" font-size="13" lengthAdjust="spacing" textLength="156.2983" x="246.0674" y="483.0938">http://{base_url}/tx/txid</text><polygon fill="#666666" points="494.5166,513.1465,504.5166,517.1465,494.5166,521.1465,498.5166,517.1465" style="stroke:#666666;stroke-width:1.0;"/><line style="stroke:#666666;stroke-width:1.0;" x1="229.0674" x2="500.5166" y1="517.1465" y2="517.1465"/><text fill="#333333" font-family="sans-serif" font-size="13" lengthAdjust="spacing" textLength="78.584" x="236.0674" y="512.4043">tx(response)</text><text fill="#333333" font-family="sans-serif" font-size="10" lengthAdjust="spacing" textLength="347.998" x="0" y="614.3027">Last Modified On: 24-Feb-2025. &#169; 2024 Bitcoin SV. All rights reserved.</text><!--SRC=[fLFRYjim47tNLmmkfGdaigIb53-qD0qk2vjcOKkV2aMsnh688XbfdCOi-q7zZNvPnuwpQvTjMTfvC9Rcp3b7er7OQLjAB_UGocotzQwoweCppiEpv29vaoGYt2CKvh8ob3XB7UHb6ps8zDvzxvAlsn3Y1QmmrnOXTLwX3v1pLXe3Q72FbaAldfUQQhWL0CiMFUJYtTzThjeGTwB7ah53xyp_ql2NTAPBQUdVg3Zw76kfxISaa07s_6kH1kdeUd4DLxYLMVtLRWxeZQpX1lr1PnWrHQRD2IL9fZ8Wg7HO_nczj4wTmDGjX3YLmVJjMJLk6cGn8o6wdIRPmMBOs4jx69M8VWBxi1tt6LGQGo4F29SG42rGeGEancKxI97l5Ty9ZrHv2zOzghon7v5MV8A1m1zyB1lY1-04qfem30oT_c98AsqKX2ebZmZIgfEhFlJSaHXQtgIvib56nmcVA1HCpZtzLdd3_6TeNw4WAkFv_FOCkvkt2lEc-45ceDDPU1fRv_rlV1s4-sMSAm5bLW0TjU8f17YQ2XtdznMFjOQE8u-XT3RWMA1LZPES-Cawna1q9GFFiLCwrwZuXc9upkE8eqYfwNgzdjOSqNW6Ft_0ucBn2fQQCgSjt7oPmNj-ybvl2mh04ZpNg6QH-0K0]--></g></svg>
