<svg xmlns="http://www.w3.org/2000/svg" xmlns:xlink="http://www.w3.org/1999/xlink" contentStyleType="text/css" height="754px" preserveAspectRatio="none" style="width:1212px;height:754px;background:#F0F8FF;" version="1.1" viewBox="0 0 1212 754" width="1212px" zoomAndPan="magnify"><defs/><g><rect fill="#F0F8FF" height="754" style="stroke:none;stroke-width:1.0;" width="1212" x="0" y="0"/><rect fill="none" height="75.9316" style="stroke:#000000;stroke-width:1.5;" width="1045.939" x="160.8149" y="579.7676"/><line style="stroke:#181818;stroke-width:0.5;stroke-dasharray:5.0,5.0;" x1="39" x2="39" y1="67.4883" y2="672.6992"/><line style="stroke:#181818;stroke-width:0.5;stroke-dasharray:5.0,5.0;" x1="228.8149" x2="228.8149" y1="67.4883" y2="672.6992"/><line style="stroke:#181818;stroke-width:0.5;stroke-dasharray:5.0,5.0;" x1="439.5107" x2="439.5107" y1="67.4883" y2="672.6992"/><line style="stroke:#181818;stroke-width:0.5;stroke-dasharray:5.0,5.0;" x1="564.5107" x2="564.5107" y1="67.4883" y2="672.6992"/><line style="stroke:#181818;stroke-width:0.5;stroke-dasharray:5.0,5.0;" x1="763.7334" x2="763.7334" y1="67.4883" y2="672.6992"/><line style="stroke:#181818;stroke-width:0.5;stroke-dasharray:5.0,5.0;" x1="926.4541" x2="926.4541" y1="67.4883" y2="672.6992"/><line style="stroke:#181818;stroke-width:0.5;stroke-dasharray:5.0,5.0;" x1="1096.1924" x2="1096.1924" y1="67.4883" y2="672.6992"/><rect fill="#DDDDDD" height="30.4883" rx="2.5" ry="2.5" style="stroke:#666666;stroke-width:0.5;" width="69.9043" x="5" y="36"/><text fill="#333333" font-family="sans-serif" font-size="14" lengthAdjust="spacing" textLength="55.9043" x="12" y="56.5352">MainNet</text><rect fill="#DDDDDD" height="30.4883" rx="2.5" ry="2.5" style="stroke:#666666;stroke-width:0.5;" width="69.9043" x="5" y="671.6992"/><text fill="#333333" font-family="sans-serif" font-size="14" lengthAdjust="spacing" textLength="55.9043" x="12" y="692.2344">MainNet</text><rect fill="#DDDDDD" height="46.9766" rx="2.5" ry="2.5" style="stroke:#666666;stroke-width:0.5;" width="116.5049" x="170.8149" y="19.5117"/><text fill="#333333" font-family="sans-serif" font-size="14" lengthAdjust="spacing" textLength="74.9697" x="191.5825" y="40.0469">P2P Legacy</text><text fill="#333333" font-family="sans-serif" font-size="14" lengthAdjust="spacing" textLength="102.5049" x="177.8149" y="56.5352">Overlay Service</text><rect fill="#DDDDDD" height="46.9766" rx="2.5" ry="2.5" style="stroke:#666666;stroke-width:0.5;" width="116.5049" x="170.8149" y="671.6992"/><text fill="#333333" font-family="sans-serif" font-size="14" lengthAdjust="spacing" textLength="74.9697" x="191.5825" y="692.2344">P2P Legacy</text><text fill="#333333" font-family="sans-serif" font-size="14" lengthAdjust="spacing" textLength="102.5049" x="177.8149" y="708.7227">Overlay Service</text><text fill="#333333" font-family="sans-serif" font-size="14" lengthAdjust="spacing" textLength="17.623" x="427.6992" y="64.5352">db</text><path d="M421.5107,15 C421.5107,5 439.5107,5 439.5107,5 C439.5107,5 457.5107,5 457.5107,15 L457.5107,41 C457.5107,51 439.5107,51 439.5107,51 C439.5107,51 421.5107,51 421.5107,41 L421.5107,15 " fill="#E2E2F0" style="stroke:#181818;stroke-width:1.5;"/><path d="M421.5107,15 C421.5107,25 439.5107,25 439.5107,25 C439.5107,25 457.5107,25 457.5107,15 " fill="none" style="stroke:#181818;stroke-width:1.5;"/><text fill="#333333" font-family="sans-serif" font-size="14" lengthAdjust="spacing" textLength="17.623" x="427.6992" y="685.2344">db</text><path d="M421.5107,698.1875 C421.5107,688.1875 439.5107,688.1875 439.5107,688.1875 C439.5107,688.1875 457.5107,688.1875 457.5107,698.1875 L457.5107,724.1875 C457.5107,734.1875 439.5107,734.1875 439.5107,734.1875 C439.5107,734.1875 421.5107,734.1875 421.5107,724.1875 L421.5107,698.1875 " fill="#E2E2F0" style="stroke:#181818;stroke-width:1.5;"/><path d="M421.5107,698.1875 C421.5107,708.1875 439.5107,708.1875 439.5107,708.1875 C439.5107,708.1875 457.5107,708.1875 457.5107,698.1875 " fill="none" style="stroke:#181818;stroke-width:1.5;"/><rect fill="#DDDDDD" height="46.9766" rx="2.5" ry="2.5" style="stroke:#666666;stroke-width:0.5;" width="194.2227" x="467.5107" y="19.5117"/><text fill="#333333" font-family="sans-serif" font-size="14" lengthAdjust="spacing" textLength="37.9326" x="545.6558" y="40.0469">Kafka</text><text fill="#333333" font-family="sans-serif" font-size="14" lengthAdjust="spacing" textLength="180.2227" x="474.5107" y="56.5352">[kafka_blocksConfig topic]</text><rect fill="#DDDDDD" height="46.9766" rx="2.5" ry="2.5" style="stroke:#666666;stroke-width:0.5;" width="194.2227" x="467.5107" y="671.6992"/><text fill="#333333" font-family="sans-serif" font-size="14" lengthAdjust="spacing" textLength="37.9326" x="545.6558" y="692.2344">Kafka</text><text fill="#333333" font-family="sans-serif" font-size="14" lengthAdjust="spacing" textLength="180.2227" x="474.5107" y="708.7227">[kafka_blocksConfig topic]</text><rect fill="#DDDDDD" height="30.4883" rx="2.5" ry="2.5" style="stroke:#666666;stroke-width:0.5;" width="184.0098" x="671.7334" y="36"/><text fill="#333333" font-family="sans-serif" font-size="14" lengthAdjust="spacing" textLength="170.0098" x="678.7334" y="56.5352">Teranode Block Validator</text><rect fill="#DDDDDD" height="30.4883" rx="2.5" ry="2.5" style="stroke:#666666;stroke-width:0.5;" width="184.0098" x="671.7334" y="671.6992"/><text fill="#333333" font-family="sans-serif" font-size="14" lengthAdjust="spacing" textLength="170.0098" x="678.7334" y="692.2344">Teranode Block Validator</text><rect fill="#DDDDDD" height="46.9766" rx="2.5" ry="2.5" style="stroke:#666666;stroke-width:0.5;" width="119.7383" x="867.4541" y="19.5117"/><text fill="#333333" font-family="sans-serif" font-size="14" lengthAdjust="spacing" textLength="37.9326" x="908.3569" y="40.0469">Kafka</text><text fill="#333333" font-family="sans-serif" font-size="14" lengthAdjust="spacing" textLength="105.7383" x="874.4541" y="56.5352">[subtrees topic]</text><rect fill="#DDDDDD" height="46.9766" rx="2.5" ry="2.5" style="stroke:#666666;stroke-width:0.5;" width="119.7383" x="867.4541" y="671.6992"/><text fill="#333333" font-family="sans-serif" font-size="14" lengthAdjust="spacing" textLength="37.9326" x="908.3569" y="692.2344">Kafka</text><text fill="#333333" font-family="sans-serif" font-size="14" lengthAdjust="spacing" textLength="105.7383" x="874.4541" y="708.7227">[subtrees topic]</text><rect fill="#DDDDDD" height="30.4883" rx="2.5" ry="2.5" style="stroke:#666666;stroke-width:0.5;" width="199.5615" x="997.1924" y="36"/><text fill="#333333" font-family="sans-serif" font-size="14" lengthAdjust="spacing" textLength="185.5615" x="1004.1924" y="56.5352">Teranode Subtree Validator</text><rect fill="#DDDDDD" height="30.4883" rx="2.5" ry="2.5" style="stroke:#666666;stroke-width:0.5;" width="199.5615" x="997.1924" y="671.6992"/><text fill="#333333" font-family="sans-serif" font-size="14" lengthAdjust="spacing" textLength="185.5615" x="1004.1924" y="692.2344">Teranode Subtree Validator</text><polygon fill="#666666" points="50.9521,94.7988,40.9521,98.7988,50.9521,102.7988,46.9521,98.7988" style="stroke:#666666;stroke-width:1.0;"/><line style="stroke:#666666;stroke-width:1.0;" x1="44.9521" x2="228.0674" y1="98.7988" y2="98.7988"/><text fill="#333333" font-family="sans-serif" font-size="13" lengthAdjust="spacing" textLength="49.5435" x="56.9521" y="94.0566">connect</text><polygon fill="#666666" points="217.0674,124.1094,227.0674,128.1094,217.0674,132.1094,221.0674,128.1094" style="stroke:#666666;stroke-width:1.0;"/><line style="stroke:#666666;stroke-width:1.0;" x1="39.9521" x2="223.0674" y1="128.1094" y2="128.1094"/><text fill="#333333" font-family="sans-serif" font-size="13" lengthAdjust="spacing" textLength="108.2466" x="46.9521" y="123.3672">OnInv(peer, msg)</text><polygon fill="#666666" points="427.5107,153.4199,437.5107,157.4199,427.5107,161.4199,431.5107,157.4199" style="stroke:#666666;stroke-width:1.0;"/><line style="stroke:#666666;stroke-width:1.0;" x1="229.0674" x2="433.5107" y1="157.4199" y2="157.4199"/><text fill="#333333" font-family="sans-serif" font-size="13" lengthAdjust="spacing" textLength="186.4434" x="236.0674" y="152.6777">have I seen this block before?</text><polygon fill="#666666" points="240.0674,182.7305,230.0674,186.7305,240.0674,190.7305,236.0674,186.7305" style="stroke:#666666;stroke-width:1.0;"/><line style="stroke:#666666;stroke-width:1.0;stroke-dasharray:2.0,2.0;" x1="234.0674" x2="438.5107" y1="186.7305" y2="186.7305"/><text fill="#333333" font-family="sans-serif" font-size="13" lengthAdjust="spacing" textLength="16.0532" x="246.0674" y="181.9883">no</text><polygon fill="#666666" points="50.9521,212.041,40.9521,216.041,50.9521,220.041,46.9521,216.041" style="stroke:#666666;stroke-width:1.0;"/><line style="stroke:#666666;stroke-width:1.0;" x1="44.9521" x2="228.0674" y1="216.041" y2="216.041"/><text fill="#333333" font-family="sans-serif" font-size="13" lengthAdjust="spacing" textLength="140.1626" x="56.9521" y="211.2988">OnGetData(peer, msg)</text><polygon fill="#666666" points="217.0674,241.3516,227.0674,245.3516,217.0674,249.3516,221.0674,245.3516" style="stroke:#666666;stroke-width:1.0;"/><line style="stroke:#666666;stroke-width:1.0;" x1="39.9521" x2="223.0674" y1="245.3516" y2="245.3516"/><text fill="#333333" font-family="sans-serif" font-size="13" lengthAdjust="spacing" textLength="165.1152" x="46.9521" y="240.6094">OnBlock(peer, msg, bytes)</text><line style="stroke:#666666;stroke-width:1.0;" x1="229.0674" x2="271.0674" y1="274.6621" y2="274.6621"/><line style="stroke:#666666;stroke-width:1.0;" x1="271.0674" x2="271.0674" y1="274.6621" y2="287.6621"/><line style="stroke:#666666;stroke-width:1.0;" x1="230.0674" x2="271.0674" y1="287.6621" y2="287.6621"/><polygon fill="#666666" points="240.0674,283.6621,230.0674,287.6621,240.0674,291.6621,236.0674,287.6621" style="stroke:#666666;stroke-width:1.0;"/><text fill="#333333" font-family="sans-serif" font-size="13" lengthAdjust="spacing" textLength="149.4429" x="236.0674" y="269.9199">build subtree and block</text><polygon fill="#666666" points="552.6221,323.6279,562.6221,327.6279,552.6221,331.6279,556.6221,327.6279" style="stroke:#666666;stroke-width:1.0;"/><line style="stroke:#666666;stroke-width:1.0;" x1="229.0674" x2="558.6221" y1="327.6279" y2="327.6279"/><text fill="#333333" font-family="sans-serif" font-size="13" lengthAdjust="spacing" textLength="145.1455" x="236.0674" y="322.8857">Publish(hash, base_url)</text><path d="M569,300.6621 L569,340.6621 L798,340.6621 L798,310.6621 L788,300.6621 L569,300.6621 " fill="#FEFFDD" style="stroke:#181818;stroke-width:0.5;"/><path d="M788,300.6621 L788,310.6621 L798,310.6621 L788,300.6621 " fill="#FEFFDD" style="stroke:#181818;stroke-width:0.5;"/><text fill="#333333" font-family="sans-serif" font-size="13" lengthAdjust="spacing" textLength="203.8994" x="575" y="318.2305">Send block notification message</text><text fill="#333333" font-family="sans-serif" font-size="13" lengthAdjust="spacing" textLength="145.2915" x="575" y="333.541">with hash and base_url</text><polygon fill="#666666" points="751.7383,363.5938,761.7383,367.5938,751.7383,371.5938,755.7383,367.5938" style="stroke:#666666;stroke-width:1.0;"/><line style="stroke:#666666;stroke-width:1.0;" x1="564.6221" x2="757.7383" y1="367.5938" y2="367.5938"/><text fill="#333333" font-family="sans-serif" font-size="13" lengthAdjust="spacing" textLength="118.3965" x="571.6221" y="362.8516">Consume message</text><polygon fill="#666666" points="240.0674,392.9043,230.0674,396.9043,240.0674,400.9043,236.0674,396.9043" style="stroke:#666666;stroke-width:1.0;"/><line style="stroke:#666666;stroke-width:1.0;" x1="234.0674" x2="762.7383" y1="396.9043" y2="396.9043"/><text fill="#333333" font-family="sans-serif" font-size="13" lengthAdjust="spacing" textLength="182.8125" x="246.0674" y="392.1621">http://{base_url}/block/hash</text><polygon fill="#666666" points="751.7383,422.2148,761.7383,426.2148,751.7383,430.2148,755.7383,426.2148" style="stroke:#666666;stroke-width:1.0;"/><line style="stroke:#666666;stroke-width:1.0;stroke-dasharray:2.0,2.0;" x1="229.0674" x2="757.7383" y1="426.2148" y2="426.2148"/><text fill="#333333" font-family="sans-serif" font-size="13" lengthAdjust="spacing" textLength="34.1821" x="236.0674" y="421.4727">block</text><polygon fill="#666666" points="915.3232,462.1807,925.3232,466.1807,915.3232,470.1807,919.3232,466.1807" style="stroke:#666666;stroke-width:1.0;"/><line style="stroke:#666666;stroke-width:1.0;" x1="763.7383" x2="921.3232" y1="466.1807" y2="466.1807"/><text fill="#333333" font-family="sans-serif" font-size="13" lengthAdjust="spacing" textLength="139.585" x="770.7383" y="461.4385">Publish(hash, baseUrl)</text><path d="M932,439.2148 L932,479.2148 L1170,479.2148 L1170,449.2148 L1160,439.2148 L932,439.2148 " fill="#FEFFDD" style="stroke:#181818;stroke-width:0.5;"/><path d="M1160,439.2148 L1160,449.2148 L1170,449.2148 L1160,439.2148 " fill="#FEFFDD" style="stroke:#181818;stroke-width:0.5;"/><text fill="#333333" font-family="sans-serif" font-size="13" lengthAdjust="spacing" textLength="217.2612" x="938" y="456.7832">Send subtree notification message</text><text fill="#333333" font-family="sans-serif" font-size="13" lengthAdjust="spacing" textLength="145.2915" x="938" y="472.0938">with hash and base_url</text><polygon fill="#666666" points="1084.9731,502.1465,1094.9731,506.1465,1084.9731,510.1465,1088.9731,506.1465" style="stroke:#666666;stroke-width:1.0;"/><line style="stroke:#666666;stroke-width:1.0;" x1="927.3232" x2="1090.9731" y1="506.1465" y2="506.1465"/><text fill="#333333" font-family="sans-serif" font-size="13" lengthAdjust="spacing" textLength="118.3965" x="934.3232" y="501.4043">Consume message</text><polygon fill="#666666" points="240.0674,531.457,230.0674,535.457,240.0674,539.457,236.0674,535.457" style="stroke:#666666;stroke-width:1.0;"/><line style="stroke:#666666;stroke-width:1.0;" x1="234.0674" x2="1095.9731" y1="535.457" y2="535.457"/><text fill="#333333" font-family="sans-serif" font-size="13" lengthAdjust="spacing" textLength="196.1743" x="246.0674" y="530.7148">http://{base_url}/subtree/hash</text><polygon fill="#666666" points="1084.9731,560.7676,1094.9731,564.7676,1084.9731,568.7676,1088.9731,564.7676" style="stroke:#666666;stroke-width:1.0;"/><line style="stroke:#666666;stroke-width:1.0;stroke-dasharray:2.0,2.0;" x1="229.0674" x2="1090.9731" y1="564.7676" y2="564.7676"/><text fill="#333333" font-family="sans-serif" font-size="13" lengthAdjust="spacing" textLength="47.5439" x="236.0674" y="560.0254">subtree</text><path d="M160.8149,579.7676 L235.2617,579.7676 L235.2617,587.0781 L225.2617,597.0781 L160.8149,597.0781 L160.8149,579.7676 " fill="#EEEEEE" style="stroke:#000000;stroke-width:1.5;"/><rect fill="none" height="75.9316" style="stroke:#000000;stroke-width:1.5;" width="1045.939" x="160.8149" y="579.7676"/><text fill="#333333" font-family="sans-serif" font-size="13" font-weight="bold" lengthAdjust="spacing" textLength="29.4468" x="175.8149" y="593.3359">loop</text><text fill="#333333" font-family="sans-serif" font-size="11" font-weight="bold" lengthAdjust="spacing" textLength="59.5923" x="250.2617" y="592.4023">[each txid]</text><polygon fill="#666666" points="240.0674,614.3887,230.0674,618.3887,240.0674,622.3887,236.0674,618.3887" style="stroke:#666666;stroke-width:1.0;"/><line style="stroke:#666666;stroke-width:1.0;" x1="234.0674" x2="1095.9731" y1="618.3887" y2="618.3887"/><text fill="#333333" font-family="sans-serif" font-size="13" lengthAdjust="spacing" textLength="156.2983" x="246.0674" y="613.6465">http://{base_url}/tx/txid</text><polygon fill="#666666" points="1084.9731,643.6992,1094.9731,647.6992,1084.9731,651.6992,1088.9731,647.6992" style="stroke:#666666;stroke-width:1.0;"/><line style="stroke:#666666;stroke-width:1.0;" x1="229.0674" x2="1090.9731" y1="647.6992" y2="647.6992"/><text fill="#333333" font-family="sans-serif" font-size="13" lengthAdjust="spacing" textLength="78.584" x="236.0674" y="642.957">tx(response)</text><text fill="#333333" font-family="sans-serif" font-size="10" lengthAdjust="spacing" textLength="348.0566" x="0" y="744.8555">Last Modified On: 24-Apr-2025. &#169; 2025 Bitcoin SV. All rights reserved.</text><!--SRC=[fLLHRzCm47xthpWL8LffMwSX4Ce3Y6qgcbYtIOMzC3GvyQMnwjgLVUbMJVj1_0r-6PSqMPCs0m5-I5BVTzztz_daXfcs2-db76APpARUvLQTEECyl1WTZjwDHY8y8HIcCZSqSfOgoEjoDI3IUtTN1T-MIuXNS8gfjWYnymfzW9IZqXX0WtEq51hv_5FJ2Xu4m769RdFnxdQLf-KIZwB1ad25tfd_fU4dwKGlfAL_e-BLv1XBRI-GG0QOywT5QeLxLqTNS8vJcQnkxEKIlP4hcA1VwWHxHP8fOq99ah4C22fkvt-MwKpUs6-pudqR6vVCmecpgPu2kOLElfSiPVIu2BQplw2NrYc4CWRNqcXMShvCAicUjhfbGnwJHmmxOfDru1cvAhebM95j9CMwUzX_NviN5UTiCI4XgfqYMC4YkBHdTjbV8Fezc8VfeCcWuWWokKGuWu1eWJ9TzGWnydZY1-6HSc_1kaxbI_i9wPGFeYNmJ1sbeHlW7iGhmj0gQFqLGPnhe-hcGLgrhge9tPnV15TvR7J8-faC6TFoKDpctWo4TOJWzJJZKYTOit0pf5ETIDBEmXn3a5E46tkdAOE2OYrOiGYnKIfqsoCG0KzMoETOymZH1ZIxoeWMqN3uK5C_3aliiD3SjDQXKJM_ozoSgouRldQwKFlQvSCVRAYdbBMtHxF3Yct8xyseqBjsx2fLEpngnha5e4moe7kj-1u2-3jLkXy-PMwcQrUIxliUmu9Rn85W5uiAK-9BdDtrq3kNWMysfzXGL3pi4RpaHEptbDeVZyVxArwzmG7y_057XqTlu5XJuhI5oVK1VEG_WV9y0h04ttIe3dhY5m00]--></g></svg>
