<svg contentStyleType="text/css" height="432" preserveAspectRatio="none" viewBox="0 0 729 432" width="729" xmlns="http://www.w3.org/2000/svg" zoomAndPan="magnify"><path d="m0 0h729v432h-729z" fill="#f0f8ff"/><g stroke="#181818"><path d="m224.9487 112.7988h10v205.1738h-10z" fill="#fff"/><path d="m422.6104 142.1094h10v146.5527h-10z" fill="#fff"/><path d="m552.1572 171.4199h10v87.9316h-10z" fill="#fff"/><path d="m687.6074 200.7305h10v29.3105h-10z" fill="#fff"/><path d="m32 81.4883v254.4844" stroke-dasharray="5 5" stroke-width=".5"/><path d="m229.0044 81.4883v254.4844" stroke-dasharray="5 5" stroke-width=".5"/><path d="m426.8267 81.4883v254.4844" stroke-dasharray="5 5" stroke-width=".5"/><path d="m556.394 81.4883v254.4844" stroke-dasharray="5 5" stroke-width=".5"/><path d="m692.5625 81.4883v254.4844" stroke-dasharray="5 5" stroke-width=".5"/></g><text fill="#333" font-family="sans-serif" font-size="14" lengthAdjust="spacing" textLength="48.5283" x="5" y="78.5352">UI User</text><ellipse cx="32.2642" cy="13.5" fill="#e2e2f0" rx="8" ry="8" stroke="#181818" stroke-width=".5"/><path d="m32.2642 21.5v27m-13-19h26m-13 19-13 15m13-15 13 15" fill="none" stroke="#181818" stroke-width=".5"/><text fill="#333" font-family="sans-serif" font-size="14" lengthAdjust="spacing" textLength="48.5283" x="5" y="348.5078">UI User</text><ellipse cx="32.2642" cy="359.9609" fill="#e2e2f0" rx="8" ry="8" stroke="#181818" stroke-width=".5"/><path d="m32.2642 367.9609v27m-13-19h26m-13 19-13 15m13-15 13 15" fill="none" stroke="#181818" stroke-width=".5"/><rect fill="#ddd" height="30.4883" rx="2.5" stroke="#666" stroke-width=".5" width="105.8887" x="177.0044" y="50"/><text fill="#333" font-family="sans-serif" font-size="14" lengthAdjust="spacing" textLength="91.8887" x="184.0044" y="70.5352">UI Dashboard</text><rect fill="#ddd" height="30.4883" rx="2.5" stroke="#666" stroke-width=".5" width="105.8887" x="177.0044" y="334.9727"/><text fill="#333" font-family="sans-serif" font-size="14" lengthAdjust="spacing" textLength="91.8887" x="184.0044" y="355.5078">UI Dashboard</text><rect fill="#ddd" height="30.4883" rx="2.5" stroke="#666" stroke-width=".5" width="147.5674" x="353.8267" y="50"/><text fill="#333" font-family="sans-serif" font-size="14" lengthAdjust="spacing" textLength="133.5674" x="360.8267" y="70.5352">AssetService (HTTP)</text><rect fill="#ddd" height="30.4883" rx="2.5" stroke="#666" stroke-width=".5" width="147.5674" x="353.8267" y="334.9727"/><text fill="#333" font-family="sans-serif" font-size="14" lengthAdjust="spacing" textLength="133.5674" x="360.8267" y="355.5078">AssetService (HTTP)</text><rect fill="#ddd" height="30.4883" rx="2.5" stroke="#666" stroke-width=".5" width="91.5264" x="511.394" y="50"/><text fill="#333" font-family="sans-serif" font-size="14" lengthAdjust="spacing" textLength="77.5264" x="518.394" y="70.5352">UTXO Store</text><rect fill="#ddd" height="30.4883" rx="2.5" stroke="#666" stroke-width=".5" width="91.5264" x="511.394" y="334.9727"/><text fill="#333" font-family="sans-serif" font-size="14" lengthAdjust="spacing" textLength="77.5264" x="518.394" y="355.5078">UTXO Store</text><text fill="#333" font-family="sans-serif" font-size="14" lengthAdjust="spacing" textLength="66.0898" x="656.5625" y="78.5352">DataStore</text><path d="m674.6074 29c0-10 18-10 18-10s18 0 18 10v26c0 10-18 10-18 10s-18 0-18-10z" fill="#e2e2f0" stroke="#181818" stroke-width="1.5"/><path d="m674.6074 29c0 10 18 10 18 10s18 0 18-10" fill="none" stroke="#181818" stroke-width="1.5"/><text fill="#333" font-family="sans-serif" font-size="14" lengthAdjust="spacing" textLength="66.0898" x="656.5625" y="348.5078">DataStore</text><path d="m674.6074 361.4609c0-10 18-10 18-10s18 0 18 10v26c0 10-18 10-18 10s-18 0-18-10z" fill="#e2e2f0" stroke="#181818" stroke-width="1.5"/><path d="m674.6074 361.4609c0 10 18 10 18 10s18 0 18-10" fill="none" stroke="#181818" stroke-width="1.5"/><path d="m224.9487 112.7988h10v205.1738h-10z" fill="#fff" stroke="#181818"/><path d="m422.6104 142.1094h10v146.5527h-10z" fill="#fff" stroke="#181818"/><path d="m552.1572 171.4199h10v87.9316h-10z" fill="#fff" stroke="#181818"/><path d="m687.6074 200.7305h10v29.3105h-10z" fill="#fff" stroke="#181818"/><path d="m212.9487 108.7988 10 4-10 4 4-4z" fill="#666" stroke="#666"/><path d="m32.2642 112.7988h186.6845" stroke="#666"/><text fill="#333" font-family="sans-serif" font-size="13" lengthAdjust="spacing" textLength="173.6846" x="39.2642" y="108.0566">Request to View UTXO Data</text><path d="m410.6104 138.1094 10 4-10 4 4-4z" fill="#666" stroke="#666"/><path d="m234.9487 142.1094h181.6617" stroke="#666"/><text fill="#333" font-family="sans-serif" font-size="13" lengthAdjust="spacing" textLength="123.0938" x="241.9487" y="137.3672">Request UTXO Data</text><path d="m540.1572 167.4199 10 4-10 4 4-4z" fill="#666" stroke="#666"/><path d="m432.6104 171.4199h113.5468" stroke="#666"/><text fill="#333" font-family="sans-serif" font-size="13" lengthAdjust="spacing" textLength="29.9546" x="439.6104" y="166.6777">Get()</text><path d="m675.6074 196.7305 10 4-10 4 4-4z" fill="#666" stroke="#666"/><path d="m562.1572 200.7305h119.4502" stroke="#666"/><text fill="#333" font-family="sans-serif" font-size="13" lengthAdjust="spacing" textLength="106.4502" x="569.1572" y="195.9883">Fetch UTXO Data</text><path d="m573.1572 226.041-10 4 10 4-4-4z" fill="#666" stroke="#666"/><path d="m567.1572 230.041h124.4502" stroke="#666" stroke-dasharray="2 2"/><text fill="#333" font-family="sans-serif" font-size="13" lengthAdjust="spacing" textLength="68.5356" x="579.1572" y="225.2988">UTXO Data</text><path d="m443.6104 255.3516-10 4 10 4-4-4z" fill="#666" stroke="#666"/><path d="m437.6104 259.3516h118.5468" stroke="#666" stroke-dasharray="2 2"/><text fill="#333" font-family="sans-serif" font-size="13" lengthAdjust="spacing" textLength="68.5356" x="449.6104" y="254.6094">UTXO Data</text><path d="m245.9487 284.6621-10 4 10 4-4-4z" fill="#666" stroke="#666"/><path d="m239.9487 288.6621h186.6617" stroke="#666" stroke-dasharray="2 2"/><text fill="#333" font-family="sans-serif" font-size="13" lengthAdjust="spacing" textLength="163.6616" x="251.9487" y="283.9199">Response with UTXO Data</text><path d="m43.2642 313.9727-10 4 10 4-4-4z" fill="#666" stroke="#666"/><path d="m37.2642 317.9727h191.6845" stroke="#666" stroke-dasharray="2 2"/><text fill="#333" font-family="sans-serif" font-size="13" lengthAdjust="spacing" textLength="118.3521" x="49.2642" y="313.2305">UTXO Data Loaded</text><text fill="#333" font-family="sans-serif" font-size="10" lengthAdjust="spacing" textLength="155.4346" y="422.1289">Last Modified On: 24-Feb-2025</text></svg>
