<svg contentStyleType="text/css" height="719" preserveAspectRatio="none" viewBox="0 0 428 719" width="428" xmlns="http://www.w3.org/2000/svg" zoomAndPan="magnify"><path d="m0 0h428v719h-428z" fill="#f0f8ff"/><g stroke="#181818"><path d="m365.4961 111.1094h10v29.3105h-10z" fill="#fff"/><path d="m365.4961 213.041h10v29.3105h-10z" fill="#fff"/><path d="m365.4961 314.9727h10v29.3105h-10z" fill="#fff"/><path d="m365.4961 416.9043h10v29.3105h-10z" fill="#fff"/><path d="m365.4961 518.8359h10v29.3105h-10z" fill="#fff"/><path d="m365.4961 620.7676h10v29.3105h-10z" fill="#fff"/><path d="m101 36.4883v631.5898" stroke-dasharray="5 5" stroke-width=".5"/><path d="m369.7329 36.4883v631.5898" stroke-dasharray="5 5" stroke-width=".5"/></g><rect fill="#ddd" height="30.4883" rx="2.5" stroke="#666" stroke-width=".5" width="193.5117" x="5" y="5"/><text fill="#333" font-family="sans-serif" font-size="14" lengthAdjust="spacing" textLength="179.5117" x="12" y="25.5352">TX Validator (Validator.go)</text><rect fill="#ddd" height="30.4883" rx="2.5" stroke="#666" stroke-width=".5" width="193.5117" x="5" y="667.0781"/><text fill="#333" font-family="sans-serif" font-size="14" lengthAdjust="spacing" textLength="179.5117" x="12" y="687.6133">TX Validator (Validator.go)</text><rect fill="#ddd" height="30.4883" rx="2.5" stroke="#666" stroke-width=".5" width="91.5264" x="324.7329" y="5"/><text fill="#333" font-family="sans-serif" font-size="14" lengthAdjust="spacing" textLength="77.5264" x="331.7329" y="25.5352">UTXO Store</text><rect fill="#ddd" height="30.4883" rx="2.5" stroke="#666" stroke-width=".5" width="91.5264" x="324.7329" y="667.0781"/><text fill="#333" font-family="sans-serif" font-size="14" lengthAdjust="spacing" textLength="77.5264" x="331.7329" y="687.6133">UTXO Store</text><path d="m365.4961 111.1094h10v29.3105h-10z" fill="#fff" stroke="#181818"/><path d="m365.4961 213.041h10v29.3105h-10z" fill="#fff" stroke="#181818"/><path d="m365.4961 314.9727h10v29.3105h-10z" fill="#fff" stroke="#181818"/><path d="m365.4961 416.9043h10v29.3105h-10z" fill="#fff" stroke="#181818"/><path d="m365.4961 518.8359h10v29.3105h-10z" fill="#fff" stroke="#181818"/><path d="m365.4961 620.7676h10v29.3105h-10z" fill="#fff" stroke="#181818"/><path d="m0 67.1436h421.2593v3h-421.2593z" fill="#eee" stroke="#eee"/><path d="m0 67.1436h421.2593" stroke="#000"/><path d="m0 70.1436h421.2593" stroke="#000"/><path d="m139.1819 56.4883h142.8955v23.3105h-142.8955z" fill="#eee" stroke="#000" stroke-width="2"/><text fill="#333" font-family="sans-serif" font-size="13" font-weight="bold" lengthAdjust="spacing" textLength="124.6108" x="145.1819" y="73.0566">Fetch Block Height</text><path d="m353.4961 107.1094 10 4-10 4 4-4z" fill="#666" stroke="#666"/><path d="m101.7559 111.1094h257.7402" stroke="#666"/><text fill="#333" font-family="sans-serif" font-size="13" lengthAdjust="spacing" textLength="103.7334" x="108.7559" y="106.3672">getBlockHeight()</text><path d="m112.7559 136.4199-10 4 10 4-4-4z" fill="#666" stroke="#666"/><path d="m106.7559 140.4199h262.7402" stroke="#666" stroke-dasharray="2 2"/><text fill="#333" font-family="sans-serif" font-size="13" lengthAdjust="spacing" textLength="79.1807" x="118.7559" y="135.6777">Block Height</text><path d="m0 169.0752h421.2593v3h-421.2593z" fill="#eee" stroke="#eee"/><path d="m0 169.0752h421.2593" stroke="#000"/><path d="m0 172.0752h421.2593" stroke="#000"/><path d="m159.9832 158.4199h101.293v23.3105h-101.293z" fill="#eee" stroke="#000" stroke-width="2"/><text fill="#333" font-family="sans-serif" font-size="13" font-weight="bold" lengthAdjust="spacing" textLength="83.0083" x="165.9832" y="174.9883">Spend UTXO</text><path d="m353.4961 209.041 10 4-10 4 4-4z" fill="#666" stroke="#666"/><path d="m101.7559 213.041h257.7402" stroke="#666"/><text fill="#333" font-family="sans-serif" font-size="13" lengthAdjust="spacing" textLength="119.7803" x="108.7559" y="208.2988">Spend(ctx, spends)</text><path d="m112.7559 238.3516-10 4 10 4-4-4z" fill="#666" stroke="#666"/><path d="m106.7559 242.3516h262.7402" stroke="#666" stroke-dasharray="2 2"/><text fill="#333" font-family="sans-serif" font-size="13" lengthAdjust="spacing" textLength="142.562" x="118.7559" y="237.6094">Confirmation of Spend</text><path d="m0 271.0068h421.2593v3h-421.2593z" fill="#eee" stroke="#eee"/><path d="m0 271.0068h421.2593" stroke="#000"/><path d="m0 274.0068h421.2593" stroke="#000"/><path d="m150.9663 260.3516h119.3267v23.3105h-119.3267z" fill="#eee" stroke="#000" stroke-width="2"/><text fill="#333" font-family="sans-serif" font-size="13" font-weight="bold" lengthAdjust="spacing" textLength="101.042" x="156.9663" y="276.9199">Unspend UTXO</text><path d="m353.4961 310.9727 10 4-10 4 4-4z" fill="#666" stroke="#666"/><path d="m101.7559 314.9727h257.7402" stroke="#666"/><text fill="#333" font-family="sans-serif" font-size="13" lengthAdjust="spacing" textLength="162.9888" x="108.7559" y="310.2305">Unspend(ctx, spentUtxos)</text><path d="m112.7559 340.2832-10 4 10 4-4-4z" fill="#666" stroke="#666"/><path d="m106.7559 344.2832h262.7402" stroke="#666" stroke-dasharray="2 2"/><text fill="#333" font-family="sans-serif" font-size="13" lengthAdjust="spacing" textLength="159.2627" x="118.7559" y="339.541">Confirmation of Unspend</text><path d="m0 372.9385h421.2593v3h-421.2593z" fill="#eee" stroke="#eee"/><path d="m0 372.9385h421.2593" stroke="#000"/><path d="m0 375.9385h421.2593" stroke="#000"/><path d="m158.7295 362.2832h103.8003v23.3105h-103.8003z" fill="#eee" stroke="#000" stroke-width="2"/><text fill="#333" font-family="sans-serif" font-size="13" font-weight="bold" lengthAdjust="spacing" textLength="85.5156" x="164.7295" y="378.8516">Create UTXO</text><path d="m353.4961 412.9043 10 4-10 4 4-4z" fill="#666" stroke="#666"/><path d="m101.7559 416.9043h257.7402" stroke="#666"/><text fill="#333" font-family="sans-serif" font-size="13" lengthAdjust="spacing" textLength="89.8511" x="108.7559" y="412.1621">Create(ctx, tx)</text><path d="m112.7559 442.2148-10 4 10 4-4-4z" fill="#666" stroke="#666"/><path d="m106.7559 446.2148h262.7402" stroke="#666" stroke-dasharray="2 2"/><text fill="#333" font-family="sans-serif" font-size="13" lengthAdjust="spacing" textLength="196.8726" x="118.7559" y="441.4727">Confirmation of UTXO Creation</text><path d="m0 474.8701h421.2593v3h-421.2593z" fill="#eee" stroke="#eee"/><path d="m0 474.8701h421.2593" stroke="#000"/><path d="m0 477.8701h421.2593" stroke="#000"/><path d="m159.0596 464.2148h103.1401v23.3105h-103.1401z" fill="#eee" stroke="#000" stroke-width="2"/><text fill="#333" font-family="sans-serif" font-size="13" font-weight="bold" lengthAdjust="spacing" textLength="84.8555" x="165.0596" y="480.7832">Delete UTXO</text><path d="m353.4961 514.8359 10 4-10 4 4-4z" fill="#666" stroke="#666"/><path d="m101.7559 518.8359h257.7402" stroke="#666"/><text fill="#333" font-family="sans-serif" font-size="13" lengthAdjust="spacing" textLength="101.0229" x="108.7559" y="514.0938">Delete(ctx, txId)</text><path d="m112.7559 544.1465-10 4 10 4-4-4z" fill="#666" stroke="#666"/><path d="m106.7559 548.1465h262.7402" stroke="#666" stroke-dasharray="2 2"/><text fill="#333" font-family="sans-serif" font-size="13" lengthAdjust="spacing" textLength="191.731" x="118.7559" y="543.4043">Confirmation of Deleted UTXO</text><path d="m0 576.8018h421.2593v3h-421.2593z" fill="#eee" stroke="#eee"/><path d="m0 576.8018h421.2593" stroke="#000"/><path d="m0 579.8018h421.2593" stroke="#000"/><path d="m112.3345 566.1465h196.5903v23.3105h-196.5903z" fill="#eee" stroke="#000" stroke-width="2"/><text fill="#333" font-family="sans-serif" font-size="13" font-weight="bold" lengthAdjust="spacing" textLength="178.3057" x="118.3345" y="582.7148">Decorate previous outputs</text><path d="m353.4961 616.7676 10 4-10 4 4-4z" fill="#666" stroke="#666"/><path d="m101.7559 620.7676h257.7402" stroke="#666"/><text fill="#333" font-family="sans-serif" font-size="13" lengthAdjust="spacing" textLength="244.7402" x="108.7559" y="616.0254">PreviousOutputsDecorate(ctx, outputs)</text><path d="m112.7559 646.0781-10 4 10 4-4-4z" fill="#666" stroke="#666"/><path d="m106.7559 650.0781h262.7402" stroke="#666" stroke-dasharray="2 2"/><text fill="#333" font-family="sans-serif" font-size="13" lengthAdjust="spacing" textLength="117.1777" x="118.7559" y="645.3359">Decorated outputs</text><text fill="#333" font-family="sans-serif" font-size="10" lengthAdjust="spacing" textLength="155.4346" y="709.2344">Last Modified On: 24-Feb-2025</text></svg>
