<svg contentStyleType="text/css" height="894" preserveAspectRatio="none" viewBox="0 0 768 894" width="768" xmlns="http://www.w3.org/2000/svg" zoomAndPan="magnify"><path d="m0 0h768v894h-768z" fill="#f0f8ff"/><path d="m484.2681 142.1094h10v661.2109h-10z" fill="#fff" stroke="#181818"/><path d="m489.2681 275.3516h10v527.9688h-10z" fill="#fff" stroke="#181818"/><path d="m494.2681 467.2148h10v336.1055h-10z" fill="#fff" stroke="#181818"/><path d="m499.2681 600.457h10v202.8633h-10z" fill="#fff" stroke="#181818"/><path d="m504.2681 733.6992h10v68.6211h-10z" fill="#fff" stroke="#181818"/><path d="m10 157.1094h655.0313v46.6211h-655.0313z" fill="none" stroke="#000" stroke-width="1.5"/><path d="m10 290.3516h741.5508v105.2422h-741.5508z" fill="none" stroke="#000" stroke-width="1.5"/><path d="m10 482.2148h655.0313v46.6211h-655.0313z" fill="none" stroke="#000" stroke-width="1.5"/><path d="m10 615.457h655.0313v46.6211h-655.0313z" fill="none" stroke="#000" stroke-width="1.5"/><path d="m10 748.6992h655.0313v46.6211h-655.0313z" fill="none" stroke="#000" stroke-width="1.5"/><path d="m166 67.4883v744.832" stroke="#181818" stroke-dasharray="5 5" stroke-width=".5"/><path d="m488.5049 67.4883v744.832" stroke="#181818" stroke-dasharray="5 5" stroke-width=".5"/><path d="m703.0313 67.4883v744.832" stroke="#181818" stroke-dasharray="5 5" stroke-width=".5"/><rect fill="#ddd" height="30.4883" rx="2.5" stroke="#666" stroke-width=".5" width="53.5049" x="140" y="36"/><text fill="#333" font-family="sans-serif" font-size="14" lengthAdjust="spacing" textLength="39.5049" x="147" y="56.5352">Client</text><rect fill="#ddd" height="30.4883" rx="2.5" stroke="#666" stroke-width=".5" width="53.5049" x="140" y="811.3203"/><text fill="#333" font-family="sans-serif" font-size="14" lengthAdjust="spacing" textLength="39.5049" x="147" y="831.8555">Client</text><rect fill="#ddd" height="30.4883" rx="2.5" stroke="#666" stroke-width=".5" width="91.5264" x="443.5049" y="36"/><text fill="#333" font-family="sans-serif" font-size="14" lengthAdjust="spacing" textLength="77.5264" x="450.5049" y="56.5352">UTXO Store</text><rect fill="#ddd" height="30.4883" rx="2.5" stroke="#666" stroke-width=".5" width="91.5264" x="443.5049" y="811.3203"/><text fill="#333" font-family="sans-serif" font-size="14" lengthAdjust="spacing" textLength="77.5264" x="450.5049" y="831.8555">UTXO Store</text><text fill="#333" font-family="sans-serif" font-size="14" lengthAdjust="spacing" textLength="70.5195" x="665.0313" y="64.5352">Data Store</text><path d="m685.291 15c0-10 18-10 18-10s18 0 18 10v26c0 10-18 10-18 10s-18 0-18-10z" fill="#e2e2f0" stroke="#181818" stroke-width="1.5"/><path d="m685.291 15c0 10 18 10 18 10s18 0 18-10" fill="none" stroke="#181818" stroke-width="1.5"/><text fill="#333" font-family="sans-serif" font-size="14" lengthAdjust="spacing" textLength="70.5195" x="665.0313" y="824.8555">Data Store</text><g stroke="#181818"><path d="m685.291 837.8086c0-10 18-10 18-10s18 0 18 10v26c0 10-18 10-18 10s-18 0-18-10z" fill="#e2e2f0" stroke-width="1.5"/><path d="m685.291 837.8086c0 10 18 10 18 10s18 0 18-10" fill="none" stroke-width="1.5"/><path d="m484.2681 142.1094h10v661.2109h-10z" fill="#fff"/><path d="m489.2681 275.3516h10v527.9688h-10z" fill="#fff"/><path d="m494.2681 467.2148h10v336.1055h-10z" fill="#fff"/><path d="m499.2681 600.457h10v202.8633h-10z" fill="#fff"/><path d="m504.2681 733.6992h10v68.6211h-10z" fill="#fff"/></g><path d="m0 98.1436h761.5508v3h-761.5508z" fill="#eee" stroke="#eee"/><path d="m0 98.1436h761.5508" stroke="#000"/><path d="m0 101.1436h761.5508" stroke="#000"/><path d="m230.6199 87.4883h300.311v23.3105h-300.311z" fill="#eee" stroke="#000" stroke-width="2"/><text fill="#333" font-family="sans-serif" font-size="13" font-weight="bold" lengthAdjust="spacing" textLength="282.0264" x="236.6199" y="104.0566">Spend an unknown UTXO (no hash match)</text><path d="m472.2681 138.1094 10 4-10 4 4-4z" fill="#666" stroke="#666"/><path d="m166.7524 142.1094h311.5157" stroke="#666"/><text fill="#333" font-family="sans-serif" font-size="13" lengthAdjust="spacing" textLength="251.5132" x="173.7524" y="137.3672">Request to spend UTXO (Spend a UTXO)</text><path d="m10 157.1094h62.1387v7.3105l-10 10h-52.1387z" fill="#eee" stroke="#000" stroke-width="1.5"/><path d="m10 157.1094h655.0313v46.6211h-655.0313z" fill="none" stroke="#000" stroke-width="1.5"/><text fill="#333" font-family="sans-serif" font-size="13" font-weight="bold" lengthAdjust="spacing" textLength="17.1387" x="25" y="170.6777">alt</text><text fill="#333" font-family="sans-serif" font-size="11" font-weight="bold" lengthAdjust="spacing" textLength="112.5835" x="87.1387" y="169.7441">[Key does not exist]</text><path d="m177.7524 191.7305-10 4 10 4-4-4z" fill="#666" stroke="#666"/><path d="m171.7524 195.7305h311.5157" stroke="#666"/><text fill="#333" font-family="sans-serif" font-size="13" lengthAdjust="spacing" textLength="77.4541" x="183.7524" y="190.9883">NOT FOUND</text><path d="m0 231.3857h761.5508v3h-761.5508z" fill="#eee" stroke="#eee"/><path d="m0 231.3857h761.5508" stroke="#000"/><path d="m0 234.3857h761.5508" stroke="#000"/><path d="m305.5762 220.7305h150.3984v23.3105h-150.3984z" fill="#eee" stroke="#000" stroke-width="2"/><text fill="#333" font-family="sans-serif" font-size="13" font-weight="bold" lengthAdjust="spacing" textLength="132.1138" x="311.5762" y="237.2988">Spend known UTXO</text><path d="m477.2681 271.3516 10 4-10 4 4-4z" fill="#666" stroke="#666"/><path d="m166.7524 275.3516h316.5157" stroke="#666"/><text fill="#333" font-family="sans-serif" font-size="13" lengthAdjust="spacing" textLength="251.5132" x="173.7524" y="270.6094">Request to spend UTXO (Spend a UTXO)</text><path d="m10 290.3516h62.1387v7.3105l-10 10h-52.1387z" fill="#eee" stroke="#000" stroke-width="1.5"/><path d="m10 290.3516h741.5508v105.2422h-741.5508z" fill="none" stroke="#000" stroke-width="1.5"/><text fill="#333" font-family="sans-serif" font-size="13" font-weight="bold" lengthAdjust="spacing" textLength="17.1387" x="25" y="303.9199">alt</text><text fill="#333" font-family="sans-serif" font-size="11" font-weight="bold" lengthAdjust="spacing" textLength="208.3125" x="87.1387" y="302.9863">[Key exists and TX_ID Value is NULL]</text><path d="m691.291 324.9727 10 4-10 4 4-4z" fill="#666" stroke="#666"/><path d="m499.2681 328.9727h198.0229" stroke="#666"/><text fill="#333" font-family="sans-serif" font-size="13" lengthAdjust="spacing" textLength="98.4204" x="506.2681" y="324.2305">Set TX_ID Value</text><path d="m510.2681 354.2832-10 4 10 4-4-4z" fill="#666" stroke="#666"/><path d="m504.2681 358.2832h198.0229" stroke="#666" stroke-dasharray="2 2"/><text fill="#333" font-family="sans-serif" font-size="13" lengthAdjust="spacing" textLength="121.1196" x="516.2681" y="353.541">TX_ID Value Set OK</text><path d="m177.7524 383.5938-10 4 10 4-4-4z" fill="#666" stroke="#666"/><path d="m171.7524 387.5938h316.5157" stroke="#666"/><text fill="#333" font-family="sans-serif" font-size="13" lengthAdjust="spacing" textLength="18.5859" x="183.7524" y="382.8516">OK</text><path d="m0 423.249h761.5508v3h-761.5508z" fill="#eee" stroke="#eee"/><path d="m0 423.249h761.5508" stroke="#000"/><path d="m0 426.249h761.5508" stroke="#000"/><path d="m190.0869 412.5938h381.377v23.3105h-381.377z" fill="#eee" stroke="#000" stroke-width="2"/><text fill="#333" font-family="sans-serif" font-size="13" font-weight="bold" lengthAdjust="spacing" textLength="363.0923" x="196.0869" y="429.1621">Duplicate Spend UTXO (already spent by the same TX)</text><path d="m482.2681 463.2148 10 4-10 4 4-4z" fill="#666" stroke="#666"/><path d="m166.7524 467.2148h321.5157" stroke="#666"/><text fill="#333" font-family="sans-serif" font-size="13" lengthAdjust="spacing" textLength="251.5132" x="173.7524" y="462.4727">Request to spend UTXO (Spend a UTXO)</text><path d="m10 482.2148h62.1387v7.3106l-10 10h-52.1387z" fill="#eee" stroke="#000" stroke-width="1.5"/><path d="m10 482.2148h655.0313v46.6211h-655.0313z" fill="none" stroke="#000" stroke-width="1.5"/><text fill="#333" font-family="sans-serif" font-size="13" font-weight="bold" lengthAdjust="spacing" textLength="17.1387" x="25" y="495.7832">alt</text><text fill="#333" font-family="sans-serif" font-size="11" font-weight="bold" lengthAdjust="spacing" textLength="300.0132" x="87.1387" y="494.8496">[Key exists and TX_ID Value matches Spending TXID]</text><path d="m177.7524 516.8359-10 4 10 4-4-4z" fill="#666" stroke="#666"/><path d="m171.7524 520.8359h321.5157" stroke="#666"/><text fill="#333" font-family="sans-serif" font-size="13" lengthAdjust="spacing" textLength="80.6724" x="183.7524" y="516.0938">ALREADY OK</text><path d="m0 556.4912h761.5508v3h-761.5508z" fill="#eee" stroke="#eee"/><path d="m0 556.4912h761.5508" stroke="#000"/><path d="m0 559.4912h761.5508" stroke="#000"/><path d="m194.6414 545.8359h372.2681v23.3105h-372.2681z" fill="#eee" stroke="#000" stroke-width="2"/><text fill="#333" font-family="sans-serif" font-size="13" font-weight="bold" lengthAdjust="spacing" textLength="353.9834" x="200.6414" y="562.4043">Duplicate Spend UTXO (already spent by another TX)</text><path d="m487.2681 596.457 10 4-10 4 4-4z" fill="#666" stroke="#666"/><path d="m166.7524 600.457h326.5157" stroke="#666"/><text fill="#333" font-family="sans-serif" font-size="13" lengthAdjust="spacing" textLength="251.5132" x="173.7524" y="595.7148">Request to spend UTXO (Spend a UTXO)</text><path d="m10 615.457h62.1387v7.3106l-10 10h-52.1387z" fill="#eee" stroke="#000" stroke-width="1.5"/><path d="m10 615.457h655.0313v46.6211h-655.0313z" fill="none" stroke="#000" stroke-width="1.5"/><text fill="#333" font-family="sans-serif" font-size="13" font-weight="bold" lengthAdjust="spacing" textLength="17.1387" x="25" y="629.0254">alt</text><text fill="#333" font-family="sans-serif" font-size="11" font-weight="bold" lengthAdjust="spacing" textLength="340.2856" x="87.1387" y="628.0918">[Key exists and TX_ID Value does not match Spending TXID]</text><path d="m177.7524 650.0781-10 4 10 4-4-4z" fill="#666" stroke="#666"/><path d="m171.7524 654.0781h326.5157" stroke="#666"/><text fill="#333" font-family="sans-serif" font-size="13" lengthAdjust="spacing" textLength="229.5122" x="183.7524" y="649.3359">SPENT (with existing Spending TXID)</text><path d="m0 689.7334h761.5508v3h-761.5508z" fill="#eee" stroke="#eee"/><path d="m0 689.7334h761.5508" stroke="#000"/><path d="m0 692.7334h761.5508" stroke="#000"/><path d="m306.2681 679.0781h149.0146v23.3105h-149.0146z" fill="#eee" stroke="#000" stroke-width="2"/><text fill="#333" font-family="sans-serif" font-size="13" font-weight="bold" lengthAdjust="spacing" textLength="130.73" x="312.2681" y="695.6465">Spend frozen UTXO</text><path d="m492.2681 729.6992 10 4-10 4 4-4z" fill="#666" stroke="#666"/><path d="m166.7524 733.6992h331.5157" stroke="#666"/><text fill="#333" font-family="sans-serif" font-size="13" lengthAdjust="spacing" textLength="251.5132" x="173.7524" y="728.957">Request to spend UTXO (Spend a UTXO)</text><path d="m10 748.6992h62.1387v7.3106l-10 10h-52.1387z" fill="#eee" stroke="#000" stroke-width="1.5"/><path d="m10 748.6992h655.0313v46.6211h-655.0313z" fill="none" stroke="#000" stroke-width="1.5"/><text fill="#333" font-family="sans-serif" font-size="13" font-weight="bold" lengthAdjust="spacing" textLength="17.1387" x="25" y="762.2676">alt</text><text fill="#333" font-family="sans-serif" font-size="11" font-weight="bold" lengthAdjust="spacing" textLength="94.0371" x="87.1387" y="761.334">[UTXO is frozen]</text><path d="m177.7524 783.3203-10 4 10 4-4-4z" fill="#666" stroke="#666"/><path d="m171.7524 787.3203h331.5157" stroke="#666"/><text fill="#333" font-family="sans-serif" font-size="13" lengthAdjust="spacing" textLength="203.3979" x="183.7524" y="782.5781">FROZEN (UTXO cannot be spent)</text><text fill="#333" font-family="sans-serif" font-size="10" lengthAdjust="spacing" textLength="155.4346" y="884.4766">Last Modified On: 24-Feb-2025</text></svg>
