<svg contentStyleType="text/css" height="438" preserveAspectRatio="none" viewBox="0 0 717 438" width="717" xmlns="http://www.w3.org/2000/svg" zoomAndPan="magnify"><path d="m0 0h717v438h-717z" fill="#f0f8ff"/><ellipse cx="141.5918" cy="20" fill="#222" rx="10" ry="10" stroke="#222"/><rect fill="#f1f1f1" height="34.1328" rx="12.5" stroke="#181818" stroke-width=".5" width="231.793" x="25.6953" y="50"/><text fill="#333" font-family="sans-serif" font-size="12" lengthAdjust="spacing" textLength="211.793" x="35.6953" y="71.6016">Receive TXID, VOUT, Script, Satoshis</text><path d="m239.5811 108.5439v8.6553l-20 4 20 4v8.6553a0 0 0 0 0 0 0h145.1411a0 0 0 0 0 0 0v-15.3106l-10-10h-135.1411a0 0 0 0 0 0 0" fill="#feffdd" stroke="#181818" stroke-width=".5"/><path d="m374.7222 108.5439v10h10z" fill="#feffdd" stroke="#181818" stroke-width=".5"/><text fill="#333" font-family="sans-serif" font-size="13" lengthAdjust="spacing" textLength="124.1411" x="245.5811" y="126.1123">UTXO Hash Created</text><rect fill="#f1f1f1" height="34.1328" rx="12.5" stroke="#181818" stroke-width=".5" width="155.9785" x="63.6025" y="104.1328"/><text fill="#333" font-family="sans-serif" font-size="12" lengthAdjust="spacing" textLength="135.9785" x="73.6025" y="125.7344">Compute SHA256 Hash</text><rect fill="#f1f1f1" height="34.1328" rx="12.5" stroke="#181818" stroke-width=".5" width="261.1836" x="11" y="158.2656"/><text fill="#333" font-family="sans-serif" font-size="12" lengthAdjust="spacing" textLength="241.1836" x="21" y="179.8672">Store UTXO with Hash Key and Lock Time</text><ellipse cx="141.5918" cy="223.3984" fill="none" rx="11" ry="11" stroke="#222"/><ellipse cx="141.5918" cy="223.3984" fill="#222" rx="6" ry="6" stroke="#222"/><ellipse cx="141.5918" cy="254.3984" fill="#222" rx="10" ry="10" stroke="#222"/><rect fill="#f1f1f1" height="34.1328" rx="12.5" stroke="#181818" stroke-width=".5" width="55.7012" x="113.7412" y="284.3984"/><text fill="#333" font-family="sans-serif" font-size="12" lengthAdjust="spacing" textLength="35.7012" x="123.7412" y="306">Spend</text><path d="m260.1123 342.9424v8.6553l-20 4 20 4v8.6552a0 0 0 0 0 0 0h445.7534a0 0 0 0 0 0 0v-15.3105l-10-10h-435.7534a0 0 0 0 0 0 0" fill="#feffdd" stroke="#181818" stroke-width=".5"/><path d="m695.8657 342.9424v10h10z" fill="#feffdd" stroke="#181818" stroke-width=".5"/><text fill="#333" font-family="sans-serif" font-size="13" lengthAdjust="spacing" textLength="424.7534" x="266.1123" y="360.5107">UTXO is marked as spent by the specific TX that used it as an input</text><rect fill="#f1f1f1" height="34.1328" rx="12.5" stroke="#181818" stroke-width=".5" width="197.041" x="43.0713" y="338.5313"/><text fill="#333" font-family="sans-serif" font-size="12" lengthAdjust="spacing" textLength="177.041" x="53.0713" y="360.1328">Update UTXO with Spend TXID</text><ellipse cx="141.5918" cy="403.6641" fill="none" rx="11" ry="11" stroke="#222"/><ellipse cx="141.5918" cy="403.6641" fill="#222" rx="6" ry="6" stroke="#222"/><g stroke="#666"><path d="m141.5918 30v20"/><path d="m137.5918 40 4 10 4-10-4 4z" fill="#666"/><path d="m141.5918 84.1328v20"/><path d="m137.5918 94.1328 4 10 4-10-4 4z" fill="#666"/><path d="m141.5918 138.2656v20"/><path d="m137.5918 148.2656 4 10 4-10-4 4z" fill="#666"/><path d="m141.5918 192.3984v20"/><path d="m137.5918 202.3984 4 10 4-10-4 4z" fill="#666"/><path d="m141.5918 264.3984v20"/><path d="m137.5918 274.3984 4 10 4-10-4 4z" fill="#666"/><path d="m141.5918 318.5313v20"/><path d="m137.5918 328.5313 4 10 4-10-4 4z" fill="#666"/><path d="m141.5918 372.6641v20"/><path d="m137.5918 382.6641 4 10 4-10-4 4z" fill="#666"/></g><text fill="#333" font-family="sans-serif" font-size="10" lengthAdjust="spacing" textLength="155.4346" x="549.4312" y="423.332">Last Modified On: 24-Feb-2025</text></svg>
