<svg contentStyleType="text/css" height="593" preserveAspectRatio="none" viewBox="0 0 691 593" width="691" xmlns="http://www.w3.org/2000/svg" zoomAndPan="magnify"><path d="m0 0h691v593h-691z" fill="#f0f8ff"/><path d="m107.2979 106.7988h10v386.7266h-10z" fill="#fff" stroke="#181818"/><path d="m10 156.1094h675.0698v237.4844h-675.0698z" fill="none" stroke="#000" stroke-width="1.5"/><path d="m20 239.041h462.937v118.2422h-462.937z" fill="none" stroke="#000" stroke-width="1.5"/><g stroke-width=".5"><path d="m112 67.4883v444.0371" stroke="#181818" stroke-dasharray="5 5"/><path d="m310.27 67.4883v444.0371" stroke="#181818" stroke-dasharray="5 5"/><path d="m430.4106 67.4883v444.0371" stroke="#181818" stroke-dasharray="5 5"/><path d="m530.937 67.4883v444.0371" stroke="#181818" stroke-dasharray="5 5"/><path d="m631.8755 67.4883v444.0371" stroke="#181818" stroke-dasharray="5 5"/><rect fill="#ddd" height="30.4883" rx="2.5" stroke="#666" width="164.5957" x="30" y="36"/></g><text fill="#333" font-family="sans-serif" font-size="14" lengthAdjust="spacing" textLength="150.5957" x="37" y="56.5352">Block Persister Service</text><rect fill="#ddd" height="30.4883" rx="2.5" stroke="#666" stroke-width=".5" width="164.5957" x="30" y="510.5254"/><text fill="#333" font-family="sans-serif" font-size="14" lengthAdjust="spacing" textLength="150.5957" x="37" y="531.0605">Block Persister Service</text><rect fill="#ddd" height="30.4883" rx="2.5" stroke="#666" stroke-width=".5" width="138.1406" x="241.27" y="36"/><text fill="#333" font-family="sans-serif" font-size="14" lengthAdjust="spacing" textLength="124.1406" x="248.27" y="56.5352">Blockchain Service</text><rect fill="#ddd" height="30.4883" rx="2.5" stroke="#666" stroke-width=".5" width="138.1406" x="241.27" y="510.5254"/><text fill="#333" font-family="sans-serif" font-size="14" lengthAdjust="spacing" textLength="124.1406" x="248.27" y="531.0605">Blockchain Service</text><text fill="#333" font-family="sans-serif" font-size="14" lengthAdjust="spacing" textLength="77.5264" x="389.4106" y="64.5352">UTXO Store</text><path d="m413.1738 15c0-10 18-10 18-10s18 0 18 10v26c0 10-18 10-18 10s-18 0-18-10z" fill="#e2e2f0" stroke="#181818" stroke-width="1.5"/><path d="m413.1738 15c0 10 18 10 18 10s18 0 18-10" fill="none" stroke="#181818" stroke-width="1.5"/><text fill="#333" font-family="sans-serif" font-size="14" lengthAdjust="spacing" textLength="77.5264" x="389.4106" y="524.0605">UTXO Store</text><path d="m413.1738 537.0137c0-10 18-10 18-10s18 0 18 10v26c0 10-18 10-18 10s-18 0-18-10z" fill="#e2e2f0" stroke="#181818" stroke-width="1.5"/><path d="m413.1738 537.0137c0 10 18 10 18 10s18 0 18-10" fill="none" stroke="#181818" stroke-width="1.5"/><text fill="#333" font-family="sans-serif" font-size="14" lengthAdjust="spacing" textLength="90.9385" x="482.937" y="64.5352">Subtree Store</text><path d="m513.4063 15c0-10 18-10 18-10s18 0 18 10v26c0 10-18 10-18 10s-18 0-18-10z" fill="#e2e2f0" stroke="#181818" stroke-width="1.5"/><path d="m513.4063 15c0 10 18 10 18 10s18 0 18-10" fill="none" stroke="#181818" stroke-width="1.5"/><text fill="#333" font-family="sans-serif" font-size="14" lengthAdjust="spacing" textLength="90.9385" x="482.937" y="524.0605">Subtree Store</text><path d="m513.4063 537.0137c0-10 18-10 18-10s18 0 18 10v26c0 10-18 10-18 10s-18 0-18-10z" fill="#e2e2f0" stroke="#181818" stroke-width="1.5"/><path d="m513.4063 537.0137c0 10 18 10 18 10s18 0 18-10" fill="none" stroke="#181818" stroke-width="1.5"/><text fill="#333" font-family="sans-serif" font-size="14" lengthAdjust="spacing" textLength="79.1943" x="589.8755" y="64.5352">File Storage</text><path d="m614.4727 15c0-10 18-10 18-10s18 0 18 10v26c0 10-18 10-18 10s-18 0-18-10z" fill="#e2e2f0" stroke="#181818" stroke-width="1.5"/><path d="m614.4727 15c0 10 18 10 18 10s18 0 18-10" fill="none" stroke="#181818" stroke-width="1.5"/><text fill="#333" font-family="sans-serif" font-size="14" lengthAdjust="spacing" textLength="79.1943" x="589.8755" y="524.0605">File Storage</text><path d="m614.4727 537.0137c0-10 18-10 18-10s18 0 18 10v26c0 10-18 10-18 10s-18 0-18-10z" fill="#e2e2f0" stroke="#181818" stroke-width="1.5"/><path d="m614.4727 537.0137c0 10 18 10 18 10s18 0 18-10" fill="none" stroke="#181818" stroke-width="1.5"/><path d="m107.2979 106.7988h10v386.7266h-10z" fill="#fff" stroke="#181818"/><path d="m112.2979 93.7988h47" stroke="#666"/><path d="m159.2979 93.7988v13" stroke="#666"/><path d="m118.2979 106.7988h41" stroke="#666"/><path d="m128.2979 102.7988-10 4 10 4-4-4z" fill="#666" stroke="#666"/><text fill="#333" font-family="sans-serif" font-size="13" lengthAdjust="spacing" textLength="85.2363" x="124.2979" y="89.0566">Process Block</text><path d="m620.4727 137.1094 10 4-10 4 4-4z" fill="#666" stroke="#666"/><path d="m117.2979 141.1094h509.1748" stroke="#666"/><text fill="#333" font-family="sans-serif" font-size="13" lengthAdjust="spacing" textLength="155.1367" x="124.2979" y="136.3672">Create Block File (.block)</text><path d="m10 156.1094h74.4468v7.3105l-10 10h-64.4468z" fill="#eee" stroke="#000" stroke-width="1.5"/><path d="m10 156.1094h675.0698v237.4844h-675.0698z" fill="none" stroke="#000" stroke-width="1.5"/><text fill="#333" font-family="sans-serif" font-size="13" font-weight="bold" lengthAdjust="spacing" textLength="29.4468" x="25" y="169.6777">loop</text><text fill="#333" font-family="sans-serif" font-size="11" font-weight="bold" lengthAdjust="spacing" textLength="101.127" x="99.4468" y="168.7441">[for each Subtree]</text><path d="m519.4063 190.7305 10 4-10 4 4-4z" fill="#666" stroke="#666"/><path d="m117.2979 194.7305h408.1084" stroke="#666"/><text fill="#333" font-family="sans-serif" font-size="13" lengthAdjust="spacing" textLength="106.6025" x="124.2979" y="189.9883">Get Subtree Data</text><path d="m128.2979 220.041-10 4 10 4-4-4z" fill="#666" stroke="#666"/><path d="m122.2979 224.041h408.1084" stroke="#666" stroke-dasharray="2 2"/><text fill="#333" font-family="sans-serif" font-size="13" lengthAdjust="spacing" textLength="80.9897" x="134.2979" y="219.2988">Subtree Data</text><path d="m20 239.041h74.4468v7.3106l-10 10h-64.4468z" fill="#eee" stroke="#000" stroke-width="1.5"/><path d="m20 239.041h462.937v118.2422h-462.937z" fill="none" stroke="#000" stroke-width="1.5"/><text fill="#333" font-family="sans-serif" font-size="13" font-weight="bold" lengthAdjust="spacing" textLength="29.4468" x="35" y="252.6094">loop</text><text fill="#333" font-family="sans-serif" font-size="11" font-weight="bold" lengthAdjust="spacing" textLength="142.6938" x="109.4468" y="251.6758">[for Transaction Batches]</text><path d="m419.1738 273.6621 10 4-10 4 4-4z" fill="#666" stroke="#666"/><path d="m117.2979 277.6621h307.8759" stroke="#666"/><text fill="#333" font-family="sans-serif" font-size="13" lengthAdjust="spacing" textLength="161.5352" x="124.2979" y="272.9199">Get Transaction Metadata</text><path d="m128.2979 302.9727-10 4 10 4-4-4z" fill="#666" stroke="#666"/><path d="m122.2979 306.9727h307.8759" stroke="#666" stroke-dasharray="2 2"/><text fill="#333" font-family="sans-serif" font-size="13" lengthAdjust="spacing" textLength="97.4619" x="134.2979" y="302.2305">UTXO Metadata</text><path d="m117.2979 336.2832h42" stroke="#666"/><path d="m159.2979 336.2832v13" stroke="#666"/><path d="m118.2979 349.2832h41" stroke="#666"/><path d="m128.2979 345.2832-10 4 10 4-4-4z" fill="#666" stroke="#666"/><text fill="#333" font-family="sans-serif" font-size="13" lengthAdjust="spacing" textLength="164.0425" x="124.2979" y="331.541">Process Transaction Batch</text><path d="m620.4727 381.5938 10 4-10 4 4-4z" fill="#666" stroke="#666"/><path d="m117.2979 385.5938h509.1748" stroke="#666"/><text fill="#333" font-family="sans-serif" font-size="13" lengthAdjust="spacing" textLength="174.5098" x="124.2979" y="380.8516">Store Subtree File (.subtree)</text><path d="m117.2979 421.9043h42" stroke="#666"/><path d="m159.2979 421.9043v13" stroke="#666"/><path d="m118.2979 434.9043h41" stroke="#666"/><path d="m128.2979 430.9043-10 4 10 4-4-4z" fill="#666" stroke="#666"/><text fill="#333" font-family="sans-serif" font-size="13" lengthAdjust="spacing" textLength="155.6763" x="124.2979" y="417.1621">Calculate UTXO Changes</text><path d="m620.4727 460.2148 10 4-10 4 4-4z" fill="#666" stroke="#666"/><path d="m117.2979 464.2148h509.1748" stroke="#666"/><text fill="#333" font-family="sans-serif" font-size="13" lengthAdjust="spacing" textLength="248.187" x="124.2979" y="459.4727">Store UTXO Additions (.utxo-additions)</text><path d="m620.4727 489.5254 10 4-10 4 4-4z" fill="#666" stroke="#666"/><path d="m112.2979 493.5254h514.1748" stroke="#666"/><text fill="#333" font-family="sans-serif" font-size="13" lengthAdjust="spacing" textLength="246.2002" x="119.2979" y="488.7832">Store UTXO Deletions (.utxo-deletions)</text><text fill="#333" font-family="sans-serif" font-size="10" lengthAdjust="spacing" textLength="155.4346" y="583.6816">Last Modified On: 24-Feb-2025</text></svg>
