<svg contentStyleType="text/css" height="402" preserveAspectRatio="none" viewBox="0 0 551 402" width="551" xmlns="http://www.w3.org/2000/svg" zoomAndPan="magnify"><path d="m300.5 141.5625h10v172.4688h-10z" fill="#fff" stroke="#181818"/><path d="m443 194.8281h10v112.2031h-10z" fill="#fff" stroke="#181818"/><path d="m10 156.5625h524.5v150.4688h-524.5z" fill="none" stroke="#000" stroke-width="1.5"/><path d="m20 209.8281h504.5v90.2031h-504.5z" fill="none" stroke="#000" stroke-width="1.5"/><g stroke="#181818" stroke-width=".5"><g stroke-dasharray="5 5"><path d="m60 67.2969v256.7344"/><path d="m305.5 67.2969v256.7344"/><path d="m447.5 67.2969v256.7344"/></g><rect fill="#e2e2f0" height="30.2969" rx="2.5" width="61" x="30" y="36"/></g><text font-family="sans-serif" font-size="14" lengthAdjust="spacing" textLength="47" x="37" y="55.9951">Server</text><rect fill="#e2e2f0" height="30.2969" rx="2.5" stroke="#181818" stroke-width=".5" width="61" x="30" y="323.0313"/><text font-family="sans-serif" font-size="14" lengthAdjust="spacing" textLength="47" x="37" y="343.0264">Server</text><text font-family="sans-serif" font-size="14" lengthAdjust="spacing" textLength="126" x="239.5" y="63.9951">gRPC Subscribers</text><path d="m287.5 15c0-10 18-10 18-10s18 0 18 10v26c0 10-18 10-18 10s-18 0-18-10z" fill="#e2e2f0" stroke="#181818" stroke-width="1.5"/><path d="m287.5 15c0 10 18 10 18 10s18 0 18-10" fill="none" stroke="#181818" stroke-width="1.5"/><text font-family="sans-serif" font-size="14" lengthAdjust="spacing" textLength="126" x="239.5" y="336.0264">gRPC Subscribers</text><g stroke="#181818"><path d="m287.5 349.3281c0-10 18-10 18-10s18 0 18 10v26c0 10-18 10-18 10s-18 0-18-10z" fill="#e2e2f0" stroke-width="1.5"/><path d="m287.5 349.3281c0 10 18 10 18 10s18 0 18-10" fill="none" stroke-width="1.5"/><rect fill="#e2e2f0" height="30.2969" rx="2.5" stroke-width=".5" width="133" x="381.5" y="36"/></g><text font-family="sans-serif" font-size="14" lengthAdjust="spacing" textLength="119" x="388.5" y="55.9951">gRPC Subscriber</text><rect fill="#e2e2f0" height="30.2969" rx="2.5" stroke="#181818" stroke-width=".5" width="133" x="381.5" y="323.0313"/><text font-family="sans-serif" font-size="14" lengthAdjust="spacing" textLength="119" x="388.5" y="343.0264">gRPC Subscriber</text><path d="m300.5 141.5625h10v172.4688h-10z" fill="#fff" stroke="#181818"/><path d="m443 194.8281h10v112.2031h-10z" fill="#fff" stroke="#181818"/><path d="m0 97.8633h544.5v3h-544.5z" fill="#eee" stroke="#eee"/><path d="m0 97.8633h544.5" stroke="#000"/><path d="m0 100.8633h544.5" stroke="#000"/><path d="m178.75 87.2969h187v23.1328h-187z" fill="#eee" stroke="#000" stroke-width="2"/><text font-family="sans-serif" font-size="13" font-weight="bold" lengthAdjust="spacing" textLength="168" x="184.75" y="103.3638">Ping gRPC Subscribers</text><path d="m288.5 137.5625 10 4-10 4 4-4z" fill="#181818" stroke="#181818"/><path d="m60.5 141.5625h234" stroke="#181818"/><text font-family="sans-serif" font-size="13" lengthAdjust="spacing" textLength="191" x="67.5" y="136.4966">Iterate over gRPC Subscribers</text><path d="m10 156.5625h78v7.1328l-10 10h-68z" fill="#eee" stroke="#000" stroke-width="1.5"/><path d="m10 156.5625h524.5v150.4688h-524.5z" fill="none" stroke="#000" stroke-width="1.5"/><text font-family="sans-serif" font-size="13" font-weight="bold" lengthAdjust="spacing" textLength="33" x="25" y="169.6294">loop</text><text font-family="sans-serif" font-size="11" font-weight="bold" lengthAdjust="spacing" textLength="152" x="103" y="168.7729">[Each gRPC Subscriber]</text><path d="m431 190.8281 10 4-10 4 4-4z" fill="#181818" stroke="#181818"/><path d="m60.5 194.8281h376.5" stroke="#181818"/><text font-family="sans-serif" font-size="13" lengthAdjust="spacing" textLength="175" x="67.5" y="189.7622">Send Ping via gRPC Stream</text><path d="m20 209.8281h66v7.1328l-10 10h-56z" fill="#eee" stroke="#000" stroke-width="1.5"/><path d="m20 209.8281h504.5v90.2031h-504.5z" fill="none" stroke="#000" stroke-width="1.5"/><text font-family="sans-serif" font-size="13" font-weight="bold" lengthAdjust="spacing" textLength="21" x="35" y="222.895">alt</text><text font-family="sans-serif" font-size="11" font-weight="bold" lengthAdjust="spacing" textLength="162" x="101" y="222.0386">[If Subscriber Responds]</text><path d="m71.5 244.0938-10 4 10 4-4-4z" fill="#181818" stroke="#181818"/><path d="m65.5 248.0938h376.5" stroke="#181818" stroke-dasharray="2 2"/><text font-family="sans-serif" font-size="13" lengthAdjust="spacing" textLength="116" x="77.5" y="243.0278">Acknowledge Ping</text><path d="m20 257.0938h504.5" stroke="#000" stroke-dasharray="2 2"/><text font-family="sans-serif" font-size="11" font-weight="bold" lengthAdjust="spacing" textLength="221" x="25" y="267.3042">[If Subscriber Does Not Respond]</text><path d="m288.5 288.0313 10 4-10 4 4-4z" fill="#181818" stroke="#181818"/><path d="m60.5 292.0313h234" stroke="#181818"/><text font-family="sans-serif" font-size="13" lengthAdjust="spacing" textLength="216" x="67.5" y="286.9653">Remove Unresponsive Subscriber</text></svg>
