<svg contentStyleType="text/css" height="473" preserveAspectRatio="none" viewBox="0 0 557 473" width="557" xmlns="http://www.w3.org/2000/svg" zoomAndPan="magnify"><path d="m288.5 183.6953h10v172.4688h-10z" fill="#fff" stroke="#181818"/><path d="m443 236.9609h10v112.2031h-10z" fill="#fff" stroke="#181818"/><path d="m10 198.6953h530.5v150.4688h-530.5z" fill="none" stroke="#000" stroke-width="1.5"/><path d="m20 251.9609h510.5v90.2031h-510.5z" fill="none" stroke="#000" stroke-width="1.5"/><g stroke="#181818" stroke-width=".5"><g stroke-dasharray="5 5"><path d="m60 67.2969v328"/><path d="m293.5 67.2969v328"/><path d="m447.5 67.2969v328"/></g><rect fill="#e2e2f0" height="30.2969" rx="2.5" width="61" x="30" y="36"/></g><text font-family="sans-serif" font-size="14" lengthAdjust="spacing" textLength="47" x="37" y="55.9951">Server</text><rect fill="#e2e2f0" height="30.2969" rx="2.5" stroke="#181818" stroke-width=".5" width="61" x="30" y="394.2969"/><text font-family="sans-serif" font-size="14" lengthAdjust="spacing" textLength="47" x="37" y="414.292">Server</text><text font-family="sans-serif" font-size="14" lengthAdjust="spacing" textLength="138" x="221.5" y="63.9951">WebSocket Clients</text><path d="m275.5 15c0-10 18-10 18-10s18 0 18 10v26c0 10-18 10-18 10s-18 0-18-10z" fill="#e2e2f0" stroke="#181818" stroke-width="1.5"/><path d="m275.5 15c0 10 18 10 18 10s18 0 18-10" fill="none" stroke="#181818" stroke-width="1.5"/><text font-family="sans-serif" font-size="14" lengthAdjust="spacing" textLength="138" x="221.5" y="407.292">WebSocket Clients</text><path d="m275.5 420.5938c0-10 18-10 18-10s18 0 18 10v26c0 10-18 10-18 10s-18 0-18-10z" fill="#e2e2f0" stroke="#181818" stroke-width="1.5"/><path d="m275.5 420.5938c0 10 18 10 18 10s18 0 18-10" fill="none" stroke="#181818" stroke-width="1.5"/><rect fill="#e2e2f0" height="30.2969" rx="2.5" stroke="#181818" stroke-width=".5" width="145" x="375.5" y="36"/><text font-family="sans-serif" font-size="14" lengthAdjust="spacing" textLength="131" x="382.5" y="55.9951">WebSocket Client</text><rect fill="#e2e2f0" height="30.2969" rx="2.5" stroke="#181818" stroke-width=".5" width="145" x="375.5" y="394.2969"/><text font-family="sans-serif" font-size="14" lengthAdjust="spacing" textLength="131" x="382.5" y="414.292">WebSocket Client</text><path d="m288.5 183.6953h10v172.4688h-10z" fill="#fff" stroke="#181818"/><path d="m443 236.9609h10v112.2031h-10z" fill="#fff" stroke="#181818"/><path d="m0 97.8633h550.5v3h-550.5z" fill="#eee" stroke="#eee"/><path d="m0 97.8633h550.5" stroke="#000"/><path d="m0 100.8633h550.5" stroke="#000"/><path d="m176.25 87.2969h198v23.1328h-198z" fill="#eee" stroke="#000" stroke-width="2"/><text font-family="sans-serif" font-size="13" font-weight="bold" lengthAdjust="spacing" textLength="179" x="182.25" y="103.3638">Ping WebSocket Clients</text><g stroke="#181818"><path d="m60.5 141.5625h42"/><path d="m102.5 141.5625v13"/><path d="m61.5 154.5625h41"/><path d="m71.5 150.5625-10 4 10 4-4-4z" fill="#181818"/></g><text font-family="sans-serif" font-size="13" lengthAdjust="spacing" textLength="114" x="67.5" y="136.4966">Every 10 seconds</text><path d="m276.5 179.6953 10 4-10 4 4-4z" fill="#181818" stroke="#181818"/><path d="m60.5 183.6953h222" stroke="#181818"/><text font-family="sans-serif" font-size="13" lengthAdjust="spacing" textLength="198" x="67.5" y="178.6294">Iterate over WebSocket Clients</text><path d="m10 198.6953h78v7.1328l-10 10h-68z" fill="#eee" stroke="#000" stroke-width="1.5"/><path d="m10 198.6953h530.5v150.4688h-530.5z" fill="none" stroke="#000" stroke-width="1.5"/><text font-family="sans-serif" font-size="13" font-weight="bold" lengthAdjust="spacing" textLength="33" x="25" y="211.7622">loop</text><text font-family="sans-serif" font-size="11" font-weight="bold" lengthAdjust="spacing" textLength="162" x="103" y="210.9058">[Each WebSocket Client]</text><path d="m431 232.9609 10 4-10 4 4-4z" fill="#181818" stroke="#181818"/><path d="m60.5 236.9609h376.5" stroke="#181818"/><text font-family="sans-serif" font-size="13" lengthAdjust="spacing" textLength="63" x="67.5" y="231.895">Send Ping</text><path d="m20 251.9609h66v7.1329l-10 10h-56z" fill="#eee" stroke="#000" stroke-width="1.5"/><path d="m20 251.9609h510.5v90.2031h-510.5z" fill="none" stroke="#000" stroke-width="1.5"/><text font-family="sans-serif" font-size="13" font-weight="bold" lengthAdjust="spacing" textLength="21" x="35" y="265.0278">alt</text><text font-family="sans-serif" font-size="11" font-weight="bold" lengthAdjust="spacing" textLength="132" x="101" y="264.1714">[If Client Responds]</text><path d="m71.5 286.2266-10 4 10 4-4-4z" fill="#181818" stroke="#181818"/><path d="m65.5 290.2266h376.5" stroke="#181818" stroke-dasharray="2 2"/><text font-family="sans-serif" font-size="13" lengthAdjust="spacing" textLength="116" x="77.5" y="285.1606">Acknowledge Ping</text><path d="m20 299.2266h510.5" stroke="#000" stroke-dasharray="2 2"/><text font-family="sans-serif" font-size="11" font-weight="bold" lengthAdjust="spacing" textLength="191" x="25" y="309.437">[If Client Does Not Respond]</text><path d="m276.5 330.1641 10 4-10 4 4-4z" fill="#181818" stroke="#181818"/><path d="m60.5 334.1641h222" stroke="#181818"/><text font-family="sans-serif" font-size="13" lengthAdjust="spacing" textLength="186" x="67.5" y="329.0981">Mark Client for Disconnection</text><path d="m281.5 373.2969 10 4-10 4 4-4z" fill="#181818" stroke="#181818"/><path d="m60.5 377.2969h227" stroke="#181818"/><text font-family="sans-serif" font-size="13" lengthAdjust="spacing" textLength="209" x="67.5" y="372.231">Disconnect Unresponsive Clients</text></svg>
