<svg contentStyleType="text/css" height="348" preserveAspectRatio="none" viewBox="0 0 719 348" width="719" xmlns="http://www.w3.org/2000/svg" zoomAndPan="magnify"><path d="m36 198.041h552v81.9316h-552z" fill="none" stroke="#000" stroke-width="1.5"/><g stroke="#181818" stroke-width=".5"><path d="m220 36.4883v260.4844" stroke-dasharray="5 5"/><path d="m506 36.4883v260.4844" stroke-dasharray="5 5"/><rect fill="#e2e2f0" height="30.4883" rx="2.5" width="94" x="173" y="5"/></g><text font-family="sans-serif" font-size="14" lengthAdjust="spacing" textLength="80" x="180" y="25.5352">HTTP Client</text><rect fill="#e2e2f0" height="30.4883" rx="2.5" stroke="#181818" stroke-width=".5" width="94" x="173" y="295.9727"/><text font-family="sans-serif" font-size="14" lengthAdjust="spacing" textLength="80" x="180" y="316.5078">HTTP Client</text><rect fill="#e2e2f0" height="30.4883" rx="2.5" stroke="#181818" stroke-width=".5" width="144" x="434" y="5"/><text font-family="sans-serif" font-size="14" lengthAdjust="spacing" textLength="130" x="441" y="25.5352">HTTP Server (Echo)</text><rect fill="#e2e2f0" height="30.4883" rx="2.5" stroke="#181818" stroke-width=".5" width="144" x="434" y="295.9727"/><text font-family="sans-serif" font-size="14" lengthAdjust="spacing" textLength="130" x="441" y="316.5078">HTTP Server (Echo)</text><path d="m494 63.7988 10 4-10 4 4-4z" fill="#181818" stroke="#181818"/><path d="m220 67.7988h280" stroke="#181818"/><text font-family="sans-serif" font-size="13" lengthAdjust="spacing" textLength="110" x="227" y="63.0566">HTTP GET /nodes</text><path d="m511 80.7988v40h201v-30l-10-10z" fill="#feffdd" stroke="#181818" stroke-width=".5"/><path d="m702 80.7988v10h10z" fill="#feffdd" stroke="#181818" stroke-width=".5"/><text font-family="sans-serif" font-size="13" lengthAdjust="spacing" textLength="180" x="517" y="98.3672">Server processes the request</text><text font-family="sans-serif" font-size="13" lengthAdjust="spacing" textLength="147" x="517" y="113.6777">and gathers nodes data</text><path d="m231 143.7305-10 4 10 4-4-4z" fill="#181818" stroke="#181818"/><path d="m225 147.7305h280" stroke="#181818" stroke-dasharray="2 2"/><text font-family="sans-serif" font-size="13" lengthAdjust="spacing" textLength="238" x="237" y="142.9883">HTTP 200 OK with nodes data in JSON</text><path d="m5 160.7305v25h210v-15l-10-10z" fill="#feffdd" stroke="#181818" stroke-width=".5"/><path d="m205 160.7305v10h10z" fill="#feffdd" stroke="#181818" stroke-width=".5"/><text font-family="sans-serif" font-size="13" lengthAdjust="spacing" textLength="189" x="11" y="178.2988">Client processes the response</text><path d="m36 198.041h62v7.3106l-10 10h-52z" fill="#eee" stroke="#000" stroke-width="1.5"/><path d="m36 198.041h552v81.9316h-552z" fill="none" stroke="#000" stroke-width="1.5"/><text font-family="sans-serif" font-size="13" font-weight="bold" lengthAdjust="spacing" textLength="17" x="51" y="211.6094">alt</text><text font-family="sans-serif" font-size="11" font-weight="bold" lengthAdjust="spacing" textLength="112" x="113" y="210.6758">[If there is an error]</text><path d="m231 232.6621-10 4 10 4-4-4z" fill="#181818" stroke="#181818"/><path d="m225 236.6621h280" stroke="#181818" stroke-dasharray="2 2"/><text font-family="sans-serif" font-size="13" lengthAdjust="spacing" textLength="262" x="237" y="231.9199">HTTP Error (e.g., 500 Internal Server Error)</text><path d="m46 249.6621v25h169v-15l-10-10z" fill="#feffdd" stroke="#181818" stroke-width=".5"/><path d="m205 249.6621v10h10z" fill="#feffdd" stroke="#181818" stroke-width=".5"/><text font-family="sans-serif" font-size="13" lengthAdjust="spacing" textLength="148" x="52" y="267.2305">Client handles the error</text><text fill="#888" font-family="sans-serif" font-size="10" lengthAdjust="spacing" textLength="155" y="338.1289">Last Modified On: 23-Nov-2023</text></svg>
