<svg contentStyleType="text/css" height="1049" preserveAspectRatio="none" viewBox="0 0 1131 1049" width="1131" xmlns="http://www.w3.org/2000/svg" zoomAndPan="magnify"><g fill="#fff" stroke="#181818"><path d="m269.5 77.2969h10v324.4609h-10z"/><path d="m269.5 474.0234h10v102.5313h-10z"/><path d="m269.5 648.8203h10v160.6641h-10z"/><path d="m269.5 881.75h10v71.2656h-10z"/><path d="m550.5 198.8281h10v29.1328h-10z"/><path d="m657.5 314.3594h10v29.1328h-10z"/><path d="m790.5 372.625h10v29.1328h-10z"/><path d="m1053.5 518.2891h10v29.1328h-10z"/><path d="m1053.5 744.2188h10v29.1328h-10z"/></g><path d="m234 705.9531h880v75.3984h-880z" fill="none" stroke="#000" stroke-width="1.5"/><g stroke="#181818"><path d="m33 67.2969v903.7187" stroke-dasharray="5 5" stroke-width=".5"/><path d="m274 67.2969v903.7187" stroke-dasharray="5 5" stroke-width=".5"/><path d="m555 67.2969v903.7187" stroke-dasharray="5 5" stroke-width=".5"/><path d="m662 67.2969v903.7187" stroke-dasharray="5 5" stroke-width=".5"/><path d="m795 67.2969v903.7187" stroke-dasharray="5 5" stroke-width=".5"/><path d="m930 67.2969v903.7187" stroke-dasharray="5 5" stroke-width=".5"/><path d="m1058 67.2969v903.7187" stroke-dasharray="5 5" stroke-width=".5"/><rect fill="#e2e2f0" height="30.2969" rx="2.5" stroke-width=".5" width="57" x="5" y="36"/></g><text font-family="sans-serif" font-size="14" lengthAdjust="spacing" textLength="43" x="12" y="55.9951">Client</text><rect fill="#e2e2f0" height="30.2969" rx="2.5" stroke="#181818" stroke-width=".5" width="57" x="5" y="970.0156"/><text font-family="sans-serif" font-size="14" lengthAdjust="spacing" textLength="43" x="12" y="990.0107">Client</text><rect fill="#e2e2f0" height="30.2969" rx="2.5" stroke="#181818" stroke-width=".5" width="61" x="244" y="36"/><text font-family="sans-serif" font-size="14" lengthAdjust="spacing" textLength="47" x="251" y="55.9951">Server</text><rect fill="#e2e2f0" height="30.2969" rx="2.5" stroke="#181818" stroke-width=".5" width="61" x="244" y="970.0156"/><text font-family="sans-serif" font-size="14" lengthAdjust="spacing" textLength="47" x="251" y="990.0107">Server</text><text font-family="sans-serif" font-size="14" lengthAdjust="spacing" textLength="47" x="529" y="63.9951">Config</text><path d="m537.5 15c0-10 18-10 18-10s18 0 18 10v26c0 10-18 10-18 10s-18 0-18-10z" fill="#e2e2f0" stroke="#181818" stroke-width="1.5"/><path d="m537.5 15c0 10 18 10 18 10s18 0 18-10" fill="none" stroke="#181818" stroke-width="1.5"/><text font-family="sans-serif" font-size="14" lengthAdjust="spacing" textLength="47" x="529" y="983.0107">Config</text><path d="m537.5 996.3125c0-10 18-10 18-10s18 0 18 10v26c0 10-18 10-18 10s-18 0-18-10z" fill="#e2e2f0" stroke="#181818" stroke-width="1.5"/><path d="m537.5 996.3125c0 10 18 10 18 10s18 0 18-10" fill="none" stroke="#181818" stroke-width="1.5"/><rect fill="#e2e2f0" height="30.2969" rx="2.5" stroke="#181818" stroke-width=".5" width="141" x="592" y="36"/><text font-family="sans-serif" font-size="14" lengthAdjust="spacing" textLength="127" x="599" y="55.9951">Echo HTTP Server</text><rect fill="#e2e2f0" height="30.2969" rx="2.5" stroke="#181818" stroke-width=".5" width="141" x="592" y="970.0156"/><text font-family="sans-serif" font-size="14" lengthAdjust="spacing" textLength="127" x="599" y="990.0107">Echo HTTP Server</text><rect fill="#e2e2f0" height="30.2969" rx="2.5" stroke="#181818" stroke-width=".5" width="105" x="743" y="36"/><text font-family="sans-serif" font-size="14" lengthAdjust="spacing" textLength="91" x="750" y="55.9951">GRPC Server</text><rect fill="#e2e2f0" height="30.2969" rx="2.5" stroke="#181818" stroke-width=".5" width="105" x="743" y="970.0156"/><text font-family="sans-serif" font-size="14" lengthAdjust="spacing" textLength="91" x="750" y="990.0107">GRPC Server</text><rect fill="#e2e2f0" height="30.2969" rx="2.5" stroke="#181818" stroke-width=".5" width="145" x="858" y="36"/><text font-family="sans-serif" font-size="14" lengthAdjust="spacing" textLength="131" x="865" y="55.9951">WebSocket Client</text><rect fill="#e2e2f0" height="30.2969" rx="2.5" stroke="#181818" stroke-width=".5" width="145" x="858" y="970.0156"/><text font-family="sans-serif" font-size="14" lengthAdjust="spacing" textLength="131" x="865" y="990.0107">WebSocket Client</text><rect fill="#e2e2f0" height="30.2969" rx="2.5" stroke="#181818" stroke-width=".5" width="91" x="1013" y="36"/><text font-family="sans-serif" font-size="14" lengthAdjust="spacing" textLength="77" x="1020" y="55.9951">Subscriber</text><rect fill="#e2e2f0" height="30.2969" rx="2.5" stroke="#181818" stroke-width=".5" width="91" x="1013" y="970.0156"/><text font-family="sans-serif" font-size="14" lengthAdjust="spacing" textLength="77" x="1020" y="990.0107">Subscriber</text><g fill="#fff" stroke="#181818"><path d="m269.5 77.2969h10v324.4609h-10z"/><path d="m269.5 474.0234h10v102.5313h-10z"/><path d="m269.5 648.8203h10v160.6641h-10z"/><path d="m269.5 881.75h10v71.2656h-10z"/><path d="m550.5 198.8281h10v29.1328h-10z"/><path d="m657.5 314.3594h10v29.1328h-10z"/><path d="m790.5 372.625h10v29.1328h-10z"/><path d="m1053.5 518.2891h10v29.1328h-10z"/><path d="m1053.5 744.2188h10v29.1328h-10z"/></g><path d="m0 97.8633h1124v3h-1124z" fill="#eee" stroke="#eee"/><path d="m0 97.8633h1124" stroke="#000"/><path d="m0 100.8633h1124" stroke="#000"/><path d="m505 87.2969h114v23.1328h-114z" fill="#eee" stroke="#000" stroke-width="2"/><text font-family="sans-serif" font-size="13" font-weight="bold" lengthAdjust="spacing" textLength="95" x="511" y="103.3638">Initialization</text><path d="m279.5 141.5625h42" stroke="#181818"/><path d="m321.5 141.5625v13" stroke="#181818"/><path d="m280.5 154.5625h41" stroke="#181818"/><path d="m290.5 150.5625-10 4 10 4-4-4z" fill="#181818" stroke="#181818"/><text font-family="sans-serif" font-size="13" lengthAdjust="spacing" textLength="29" x="286.5" y="136.4966">Init()</text><path d="m538.5 194.8281 10 4-10 4 4-4z" fill="#181818" stroke="#181818"/><path d="m279.5 198.8281h265" stroke="#181818"/><text font-family="sans-serif" font-size="13" lengthAdjust="spacing" textLength="78" x="286.5" y="178.6294">Read Config</text><text font-family="sans-serif" font-size="13" lengthAdjust="spacing" textLength="252" x="286.5" y="193.7622">(grpcListenAddress, httpListenAddress)</text><path d="m290.5 223.9609-10 4 10 4-4-4z" fill="#181818" stroke="#181818"/><path d="m284.5 227.9609h270" stroke="#181818" stroke-dasharray="2 2"/><text font-family="sans-serif" font-size="13" lengthAdjust="spacing" textLength="76" x="296.5" y="222.895">Config Data</text><path d="m279.5 257.0938h42" stroke="#181818"/><path d="m321.5 257.0938v13" stroke="#181818"/><path d="m280.5 270.0938h41" stroke="#181818"/><path d="m290.5 266.0938-10 4 10 4-4-4z" fill="#181818" stroke="#181818"/><text font-family="sans-serif" font-size="13" lengthAdjust="spacing" textLength="161" x="286.5" y="252.0278">Setup Discovery Channel</text><path d="m645.5 310.3594 10 4-10 4 4-4z" fill="#181818" stroke="#181818"/><path d="m279.5 314.3594h372" stroke="#181818"/><text font-family="sans-serif" font-size="13" lengthAdjust="spacing" textLength="118" x="286.5" y="294.1606">Setup Echo Server</text><text font-family="sans-serif" font-size="13" lengthAdjust="spacing" textLength="155" x="286.5" y="309.2935">(HTTP/HTTPS Endpoints)</text><path d="m290.5 339.4922-10 4 10 4-4-4z" fill="#181818" stroke="#181818"/><path d="m284.5 343.4922h377" stroke="#181818" stroke-dasharray="2 2"/><text font-family="sans-serif" font-size="13" lengthAdjust="spacing" textLength="122" x="296.5" y="338.4263">Echo Server Ready</text><path d="m778.5 368.625 10 4-10 4 4-4z" fill="#181818" stroke="#181818"/><path d="m279.5 372.625h505" stroke="#181818"/><text font-family="sans-serif" font-size="13" lengthAdjust="spacing" textLength="123" x="286.5" y="367.5591">Setup GRPC Server</text><path d="m285.5 397.7578-10 4 10 4-4-4z" fill="#181818" stroke="#181818"/><path d="m279.5 401.7578h515" stroke="#181818" stroke-dasharray="2 2"/><text font-family="sans-serif" font-size="13" lengthAdjust="spacing" textLength="127" x="291.5" y="396.6919">GRPC Server Ready</text><path d="m0 430.3242h1124v3h-1124z" fill="#eee" stroke="#eee"/><path d="m0 430.3242h1124" stroke="#000"/><path d="m0 433.3242h1124" stroke="#000"/><path d="m475 419.7578h174v23.1328h-174z" fill="#eee" stroke="#000" stroke-width="2"/><text font-family="sans-serif" font-size="13" font-weight="bold" lengthAdjust="spacing" textLength="155" x="481" y="435.8247">Connection Handling</text><path d="m257.5 470.0234 10 4-10 4 4-4z" fill="#181818" stroke="#181818"/><path d="m33.5 474.0234h230" stroke="#181818"/><text font-family="sans-serif" font-size="13" lengthAdjust="spacing" textLength="87" x="40.5" y="468.9575">Connect(info)</text><path d="m1041.5 514.2891 10 4-10 4 4-4z" fill="#181818" stroke="#181818"/><path d="m279.5 518.2891h768" stroke="#181818"/><text font-family="sans-serif" font-size="13" lengthAdjust="spacing" textLength="128" x="286.5" y="498.0903">Add New Subscriber</text><text font-family="sans-serif" font-size="13" lengthAdjust="spacing" textLength="34" x="286.5" y="513.2231">(info)</text><path d="m290.5 543.4219-10 4 10 4-4-4z" fill="#181818" stroke="#181818"/><path d="m284.5 547.4219h773" stroke="#181818" stroke-dasharray="2 2"/><text font-family="sans-serif" font-size="13" lengthAdjust="spacing" textLength="112" x="296.5" y="542.356">Subscriber Added</text><path d="m44.5 572.5547-10 4 10 4-4-4z" fill="#181818" stroke="#181818"/><path d="m38.5 576.5547h235" stroke="#181818" stroke-dasharray="2 2"/><text font-family="sans-serif" font-size="13" lengthAdjust="spacing" textLength="69" x="50.5" y="571.4888">Connected</text><path d="m0 605.1211h1124v3h-1124z" fill="#eee" stroke="#eee"/><path d="m0 605.1211h1124" stroke="#000"/><path d="m0 608.1211h1124" stroke="#000"/><path d="m465 594.5547h194v23.1328h-194z" fill="#eee" stroke="#000" stroke-width="2"/><text font-family="sans-serif" font-size="13" font-weight="bold" lengthAdjust="spacing" textLength="175" x="471" y="610.6216">Broadcast Notification</text><path d="m257.5 644.8203 10 4-10 4 4-4z" fill="#181818" stroke="#181818"/><path d="m33.5 648.8203h230" stroke="#181818"/><text font-family="sans-serif" font-size="13" lengthAdjust="spacing" textLength="217" x="40.5" y="643.7544">BroadcastNotification(notification)</text><path d="m279.5 677.9531h42" stroke="#181818"/><path d="m321.5 677.9531v13" stroke="#181818"/><path d="m280.5 690.9531h41" stroke="#181818"/><path d="m290.5 686.9531-10 4 10 4-4-4z" fill="#181818" stroke="#181818"/><text font-family="sans-serif" font-size="13" lengthAdjust="spacing" textLength="117" x="286.5" y="672.8872">Check Subscribers</text><path d="m234 705.9531h78v7.1328l-10 10h-68z" fill="#eee" stroke="#000" stroke-width="1.5"/><path d="m234 705.9531h880v75.3984h-880z" fill="none" stroke="#000" stroke-width="1.5"/><text font-family="sans-serif" font-size="13" font-weight="bold" lengthAdjust="spacing" textLength="33" x="249" y="719.02">loop</text><text font-family="sans-serif" font-size="11" font-weight="bold" lengthAdjust="spacing" textLength="141" x="327" y="718.1636">[for each Subscriber]</text><path d="m1041.5 740.2188 10 4-10 4 4-4z" fill="#181818" stroke="#181818"/><path d="m279.5 744.2188h768" stroke="#181818"/><text font-family="sans-serif" font-size="13" lengthAdjust="spacing" textLength="108" x="286.5" y="739.1528">Send Notification</text><path d="m290.5 769.3516-10 4 10 4-4-4z" fill="#181818" stroke="#181818"/><path d="m284.5 773.3516h773" stroke="#181818" stroke-dasharray="2 2"/><text font-family="sans-serif" font-size="13" lengthAdjust="spacing" textLength="111" x="296.5" y="768.2856">Acknowledgment</text><path d="m44.5 805.4844-10 4 10 4-4-4z" fill="#181818" stroke="#181818"/><path d="m38.5 809.4844h235" stroke="#181818" stroke-dasharray="2 2"/><text font-family="sans-serif" font-size="13" lengthAdjust="spacing" textLength="112" x="50.5" y="804.4185">Notifications Sent</text><path d="m0 838.0508h1124v3h-1124z" fill="#eee" stroke="#eee"/><path d="m0 838.0508h1124" stroke="#000"/><path d="m0 841.0508h1124" stroke="#000"/><path d="m512.5 827.4844h99v23.1328h-99z" fill="#eee" stroke="#000" stroke-width="2"/><text font-family="sans-serif" font-size="13" font-weight="bold" lengthAdjust="spacing" textLength="80" x="518.5" y="843.5513">Get Nodes</text><path d="m257.5 877.75 10 4-10 4 4-4z" fill="#181818" stroke="#181818"/><path d="m33.5 881.75h230" stroke="#181818"/><text font-family="sans-serif" font-size="13" lengthAdjust="spacing" textLength="73" x="40.5" y="876.6841">GetNodes()</text><path d="m279.5 910.8828h42" stroke="#181818"/><path d="m321.5 910.8828v13" stroke="#181818"/><path d="m280.5 923.8828h41" stroke="#181818"/><path d="m290.5 919.8828-10 4 10 4-4-4z" fill="#181818" stroke="#181818"/><text font-family="sans-serif" font-size="13" lengthAdjust="spacing" textLength="165" x="286.5" y="905.8169">Collect Nodes Information</text><path d="m44.5 949.0156-10 4 10 4-4-4z" fill="#181818" stroke="#181818"/><path d="m38.5 953.0156h235" stroke="#181818" stroke-dasharray="2 2"/><text font-family="sans-serif" font-size="13" lengthAdjust="spacing" textLength="55" x="50.5" y="947.9497">NodeList</text></svg>
