<svg contentStyleType="text/css" height="330" preserveAspectRatio="none" viewBox="0 0 741 330" width="741" xmlns="http://www.w3.org/2000/svg" zoomAndPan="magnify"><path d="m38 196.9609h566.5v81.3984h-566.5z" fill="none" stroke="#000" stroke-width="1.5"/><g stroke="#181818" stroke-width=".5"><path d="m224 36.2969v259.0625" stroke-dasharray="5 5"/><path d="m518.5 36.2969v259.0625" stroke-dasharray="5 5"/><rect fill="#e2e2f0" height="30.2969" rx="2.5" width="98" x="175" y="5"/></g><text font-family="sans-serif" font-size="14" lengthAdjust="spacing" textLength="84" x="182" y="24.9951">HTTP Client</text><rect fill="#e2e2f0" height="30.2969" rx="2.5" stroke="#181818" stroke-width=".5" width="98" x="175" y="294.3594"/><text font-family="sans-serif" font-size="14" lengthAdjust="spacing" textLength="84" x="182" y="314.3545">HTTP Client</text><rect fill="#e2e2f0" height="30.2969" rx="2.5" stroke="#181818" stroke-width=".5" width="151" x="443.5" y="5"/><text font-family="sans-serif" font-size="14" lengthAdjust="spacing" textLength="137" x="450.5" y="24.9951">HTTP Server (Echo)</text><rect fill="#e2e2f0" height="30.2969" rx="2.5" stroke="#181818" stroke-width=".5" width="151" x="443.5" y="294.3594"/><text font-family="sans-serif" font-size="14" lengthAdjust="spacing" textLength="137" x="450.5" y="314.3545">HTTP Server (Echo)</text><path d="m507 63.4297 10 4-10 4 4-4z" fill="#181818" stroke="#181818"/><path d="m224 67.4297h289" stroke="#181818"/><text font-family="sans-serif" font-size="13" lengthAdjust="spacing" textLength="110" x="231" y="62.3638">HTTP GET /nodes</text><path d="m524 80.4297v40h210v-30l-10-10z" fill="#feffdd" stroke="#181818" stroke-width=".5"/><path d="m724 80.4297v10h10z" fill="#feffdd" stroke="#181818" stroke-width=".5"/><text font-family="sans-serif" font-size="13" lengthAdjust="spacing" textLength="189" x="530" y="97.4966">Server processes the request</text><text font-family="sans-serif" font-size="13" lengthAdjust="spacing" textLength="153" x="530" y="112.6294">and gathers nodes data</text><path d="m235 142.8281-10 4 10 4-4-4z" fill="#181818" stroke="#181818"/><path d="m229 146.8281h289" stroke="#181818" stroke-dasharray="2 2"/><text font-family="sans-serif" font-size="13" lengthAdjust="spacing" textLength="240" x="241" y="141.7622">HTTP 200 OK with nodes data in JSON</text><path d="m5 159.8281v25h214v-15l-10-10z" fill="#feffdd" stroke="#181818" stroke-width=".5"/><path d="m209 159.8281v10h10z" fill="#feffdd" stroke="#181818" stroke-width=".5"/><text font-family="sans-serif" font-size="13" lengthAdjust="spacing" textLength="193" x="11" y="176.895">Client processes the response</text><path d="m38 196.9609h66v7.1329l-10 10h-56z" fill="#eee" stroke="#000" stroke-width="1.5"/><path d="m38 196.9609h566.5v81.3984h-566.5z" fill="none" stroke="#000" stroke-width="1.5"/><text font-family="sans-serif" font-size="13" font-weight="bold" lengthAdjust="spacing" textLength="21" x="53" y="210.0278">alt</text><text font-family="sans-serif" font-size="11" font-weight="bold" lengthAdjust="spacing" textLength="136" x="119" y="209.1714">[If there is an error]</text><path d="m235 231.2266-10 4 10 4-4-4z" fill="#181818" stroke="#181818"/><path d="m229 235.2266h289" stroke="#181818" stroke-dasharray="2 2"/><text font-family="sans-serif" font-size="13" lengthAdjust="spacing" textLength="271" x="241" y="230.1606">HTTP Error (e.g., 500 Internal Server Error)</text><path d="m48 248.2266v25h171v-15l-10-10z" fill="#feffdd" stroke="#181818" stroke-width=".5"/><path d="m209 248.2266v10h10z" fill="#feffdd" stroke="#181818" stroke-width=".5"/><text font-family="sans-serif" font-size="13" lengthAdjust="spacing" textLength="150" x="54" y="265.2935">Client handles the error</text></svg>
