<svg contentStyleType="text/css" height="286" preserveAspectRatio="none" viewBox="0 0 439 286" width="439" xmlns="http://www.w3.org/2000/svg" zoomAndPan="magnify"><g stroke="#181818"><path d="m222.5 98.7988h10v87.9316h-10z" fill="#fff"/><path d="m390 128.1094h10v29.3105h-10z" fill="#fff"/><path d="m54 67.4883v137.2422" stroke-dasharray="5 5" stroke-width=".5"/><path d="m227 67.4883v137.2422" stroke-dasharray="5 5" stroke-width=".5"/><path d="m395 67.4883v137.2422" stroke-dasharray="5 5" stroke-width=".5"/><rect fill="#e2e2f0" height="30.4883" rx="2.5" stroke-width=".5" width="98" x="5" y="36"/></g><text font-family="sans-serif" font-size="14" lengthAdjust="spacing" textLength="84" x="12" y="56.5352">Peer (Client)</text><rect fill="#e2e2f0" height="30.4883" rx="2.5" stroke="#181818" stroke-width=".5" width="98" x="5" y="203.7305"/><text font-family="sans-serif" font-size="14" lengthAdjust="spacing" textLength="84" x="12" y="224.2656">Peer (Client)</text><rect fill="#e2e2f0" height="30.4883" rx="2.5" stroke="#181818" stroke-width=".5" width="229" x="113" y="36"/><text font-family="sans-serif" font-size="14" lengthAdjust="spacing" textLength="215" x="120" y="56.5352">gRPC Server (Bootstrap Service)</text><rect fill="#e2e2f0" height="30.4883" rx="2.5" stroke="#181818" stroke-width=".5" width="229" x="113" y="203.7305"/><text font-family="sans-serif" font-size="14" lengthAdjust="spacing" textLength="215" x="120" y="224.2656">gRPC Server (Bootstrap Service)</text><text font-family="sans-serif" font-size="14" lengthAdjust="spacing" textLength="80" x="352" y="64.5352">Subscribers</text><path d="m377 15c0-10 18-10 18-10s18 0 18 10v26c0 10-18 10-18 10s-18 0-18-10z" fill="#e2e2f0" stroke="#181818" stroke-width="1.5"/><path d="m377 15c0 10 18 10 18 10s18 0 18-10" fill="none" stroke="#181818" stroke-width="1.5"/><text font-family="sans-serif" font-size="14" lengthAdjust="spacing" textLength="80" x="352" y="217.2656">Subscribers</text><path d="m377 230.2188c0-10 18-10 18-10s18 0 18 10v26c0 10-18 10-18 10s-18 0-18-10z" fill="#e2e2f0" stroke="#181818" stroke-width="1.5"/><path d="m377 230.2188c0 10 18 10 18 10s18 0 18-10" fill="none" stroke="#181818" stroke-width="1.5"/><path d="m222.5 98.7988h10v87.9316h-10z" fill="#fff" stroke="#181818"/><path d="m390 128.1094h10v29.3105h-10z" fill="#fff" stroke="#181818"/><path d="m210.5 94.7988 10 4-10 4 4-4z" fill="#181818" stroke="#181818"/><path d="m54 98.7988h162.5" stroke="#181818"/><text font-family="sans-serif" font-size="13" lengthAdjust="spacing" textLength="69" x="61" y="94.0566">GetNodes()</text><path d="m378 124.1094 10 4-10 4 4-4z" fill="#181818" stroke="#181818"/><path d="m232.5 128.1094h151.5" stroke="#181818"/><text font-family="sans-serif" font-size="13" lengthAdjust="spacing" textLength="105" x="239.5" y="123.3672">Fetch Nodes List</text><path d="m243.5 153.4199-10 4 10 4-4-4z" fill="#181818" stroke="#181818"/><path d="m237.5 157.4199h156.5" stroke="#181818" stroke-dasharray="2 2"/><text font-family="sans-serif" font-size="13" lengthAdjust="spacing" textLength="67" x="249.5" y="152.6777">Nodes List</text><path d="m65 182.7305-10 4 10 4-4-4z" fill="#181818" stroke="#181818"/><path d="m59 186.7305h167.5" stroke="#181818" stroke-dasharray="2 2"/><text font-family="sans-serif" font-size="13" lengthAdjust="spacing" textLength="112" x="71" y="181.9883">Return Nodes List</text><text fill="#888" font-family="sans-serif" font-size="10" lengthAdjust="spacing" textLength="155" y="276.8867">Last Modified On: 23-Nov-2023</text></svg>
