<svg contentStyleType="text/css" height="475" preserveAspectRatio="none" viewBox="0 0 535 475" width="535" xmlns="http://www.w3.org/2000/svg" zoomAndPan="magnify"><path d="m285.5 184.4199h10v173.5078h-10z" fill="#fff" stroke="#181818"/><path d="m427 238.041h10v112.8867h-10z" fill="#fff" stroke="#181818"/><path d="m10 199.4199h508v151.5078h-508z" fill="none" stroke="#000" stroke-width="1.5"/><path d="m20 253.041h488v90.8867h-488z" fill="none" stroke="#000" stroke-width="1.5"/><g stroke="#181818"><path d="m58 67.4883v329.75" stroke-dasharray="5 5" stroke-width=".5"/><path d="m290 67.4883v329.75" stroke-dasharray="5 5" stroke-width=".5"/><path d="m432 67.4883v329.75" stroke-dasharray="5 5" stroke-width=".5"/><rect fill="#e2e2f0" height="30.4883" rx="2.5" stroke-width=".5" width="57" x="30" y="36"/></g><text font-family="sans-serif" font-size="14" lengthAdjust="spacing" textLength="43" x="37" y="56.5352">Server</text><rect fill="#e2e2f0" height="30.4883" rx="2.5" stroke="#181818" stroke-width=".5" width="57" x="30" y="396.2383"/><text font-family="sans-serif" font-size="14" lengthAdjust="spacing" textLength="43" x="37" y="416.7734">Server</text><text font-family="sans-serif" font-size="14" lengthAdjust="spacing" textLength="125" x="225" y="64.5352">WebSocket Clients</text><path d="m272.5 15c0-10 18-10 18-10s18 0 18 10v26c0 10-18 10-18 10s-18 0-18-10z" fill="#e2e2f0" stroke="#181818" stroke-width="1.5"/><path d="m272.5 15c0 10 18 10 18 10s18 0 18-10" fill="none" stroke="#181818" stroke-width="1.5"/><text font-family="sans-serif" font-size="14" lengthAdjust="spacing" textLength="125" x="225" y="409.7734">WebSocket Clients</text><path d="m272.5 422.7266c0-10 18-10 18-10s18 0 18 10v26c0 10-18 10-18 10s-18 0-18-10z" fill="#e2e2f0" stroke="#181818" stroke-width="1.5"/><path d="m272.5 422.7266c0 10 18 10 18 10s18 0 18-10" fill="none" stroke="#181818" stroke-width="1.5"/><rect fill="#e2e2f0" height="30.4883" rx="2.5" stroke="#181818" stroke-width=".5" width="132" x="366" y="36"/><text font-family="sans-serif" font-size="14" lengthAdjust="spacing" textLength="118" x="373" y="56.5352">WebSocket Client</text><rect fill="#e2e2f0" height="30.4883" rx="2.5" stroke="#181818" stroke-width=".5" width="132" x="366" y="396.2383"/><text font-family="sans-serif" font-size="14" lengthAdjust="spacing" textLength="118" x="373" y="416.7734">WebSocket Client</text><path d="m285.5 184.4199h10v173.5078h-10z" fill="#fff" stroke="#181818"/><path d="m427 238.041h10v112.8867h-10z" fill="#fff" stroke="#181818"/><path d="m0 98.1436h528v3h-528z" fill="#eee" stroke="#eee"/><path d="m0 98.1436h528" stroke="#000"/><path d="m0 101.1436h528" stroke="#000"/><path d="m177 87.4883h174v23.3105h-174z" fill="#eee" stroke="#000" stroke-width="2"/><text font-family="sans-serif" font-size="13" font-weight="bold" lengthAdjust="spacing" textLength="156" x="183" y="104.0566">Ping WebSocket Clients</text><path d="m58.5 142.1094h42" stroke="#181818"/><path d="m100.5 142.1094v13" stroke="#181818"/><path d="m59.5 155.1094h41" stroke="#181818"/><path d="m69.5 151.1094-10 4 10 4-4-4z" fill="#181818" stroke="#181818"/><text font-family="sans-serif" font-size="13" lengthAdjust="spacing" textLength="109" x="65.5" y="137.3672">Every 10 seconds</text><path d="m273.5 180.4199 10 4-10 4 4-4z" fill="#181818" stroke="#181818"/><path d="m58.5 184.4199h221" stroke="#181818"/><text font-family="sans-serif" font-size="13" lengthAdjust="spacing" textLength="191" x="65.5" y="179.6777">Iterate over WebSocket Clients</text><path d="m10 199.4199h74v7.3106l-10 10h-64z" fill="#eee" stroke="#000" stroke-width="1.5"/><path d="m10 199.4199h508v151.5078h-508z" fill="none" stroke="#000" stroke-width="1.5"/><text font-family="sans-serif" font-size="13" font-weight="bold" lengthAdjust="spacing" textLength="29" x="25" y="212.9883">loop</text><text font-family="sans-serif" font-size="11" font-weight="bold" lengthAdjust="spacing" textLength="134" x="99" y="212.0547">[Each WebSocket Client]</text><path d="m415 234.041 10 4-10 4 4-4z" fill="#181818" stroke="#181818"/><path d="m58.5 238.041h362.5" stroke="#181818"/><text font-family="sans-serif" font-size="13" lengthAdjust="spacing" textLength="61" x="65.5" y="233.2988">Send Ping</text><path d="m20 253.041h62v7.3106l-10 10h-52z" fill="#eee" stroke="#000" stroke-width="1.5"/><path d="m20 253.041h488v90.8867h-488z" fill="none" stroke="#000" stroke-width="1.5"/><text font-family="sans-serif" font-size="13" font-weight="bold" lengthAdjust="spacing" textLength="17" x="35" y="266.6094">alt</text><text font-family="sans-serif" font-size="11" font-weight="bold" lengthAdjust="spacing" textLength="112" x="97" y="265.6758">[If Client Responds]</text><path d="m69.5 287.6621-10 4 10 4-4-4z" fill="#181818" stroke="#181818"/><path d="m63.5 291.6621h362.5" stroke="#181818" stroke-dasharray="2 2"/><text font-family="sans-serif" font-size="13" lengthAdjust="spacing" textLength="115" x="75.5" y="286.9199">Acknowledge Ping</text><path d="m20 300.6621h488" stroke="#000" stroke-dasharray="2 2"/><text font-family="sans-serif" font-size="11" font-weight="bold" lengthAdjust="spacing" textLength="161" x="25" y="311.2969">[If Client Does Not Respond]</text><path d="m273.5 331.9277 10 4-10 4 4-4z" fill="#181818" stroke="#181818"/><path d="m58.5 335.9277h221" stroke="#181818"/><text font-family="sans-serif" font-size="13" lengthAdjust="spacing" textLength="189" x="65.5" y="331.1855">Mark Client for Disconnection</text><path d="m278.5 375.2383 10 4-10 4 4-4z" fill="#181818" stroke="#181818"/><path d="m58.5 379.2383h226" stroke="#181818"/><text font-family="sans-serif" font-size="13" lengthAdjust="spacing" textLength="208" x="65.5" y="374.4961">Disconnect Unresponsive Clients</text></svg>
