<svg contentStyleType="text/css" height="459" preserveAspectRatio="none" viewBox="0 0 870 459" width="870" xmlns="http://www.w3.org/2000/svg" zoomAndPan="magnify"><g stroke="#181818"><path d="m199 67.7988h10v322.416h-10z" fill="#fff"/><path d="m389 97.1094h10v29.3105h-10z" fill="#fff"/><path d="m536 155.7305h10v29.3105h-10z" fill="#fff"/><path d="m680.5 214.3516h10v29.3105h-10z" fill="#fff"/><path d="m808.5 272.9727h10v87.9316h-10z" fill="#fff"/><path d="m32 36.4883v371.7265" stroke-dasharray="5 5" stroke-width=".5"/><path d="m203.5 36.4883v371.7265" stroke-dasharray="5 5" stroke-width=".5"/><path d="m394 36.4883v371.7265" stroke-dasharray="5 5" stroke-width=".5"/><path d="m541 36.4883v371.7265" stroke-dasharray="5 5" stroke-width=".5"/><path d="m685 36.4883v371.7265" stroke-dasharray="5 5" stroke-width=".5"/><path d="m813 36.4883v371.7265" stroke-dasharray="5 5" stroke-width=".5"/><rect fill="#e2e2f0" height="30.4883" rx="2.5" stroke-width=".5" width="54" x="5" y="5"/></g><text font-family="sans-serif" font-size="14" lengthAdjust="spacing" textLength="40" x="12" y="25.5352">Caller</text><rect fill="#e2e2f0" height="30.4883" rx="2.5" stroke="#181818" stroke-width=".5" width="54" x="5" y="407.2148"/><text font-family="sans-serif" font-size="14" lengthAdjust="spacing" textLength="40" x="12" y="427.75">Caller</text><rect fill="#e2e2f0" height="30.4883" rx="2.5" stroke="#181818" stroke-width=".5" width="57" x="175.5" y="5"/><text font-family="sans-serif" font-size="14" lengthAdjust="spacing" textLength="43" x="182.5" y="25.5352">Server</text><rect fill="#e2e2f0" height="30.4883" rx="2.5" stroke="#181818" stroke-width=".5" width="57" x="175.5" y="407.2148"/><text font-family="sans-serif" font-size="14" lengthAdjust="spacing" textLength="43" x="182.5" y="427.75">Server</text><rect fill="#e2e2f0" height="30.4883" rx="2.5" stroke="#181818" stroke-width=".5" width="140" x="324" y="5"/><text font-family="sans-serif" font-size="14" lengthAdjust="spacing" textLength="126" x="331" y="25.5352">Discovery Channel</text><rect fill="#e2e2f0" height="30.4883" rx="2.5" stroke="#181818" stroke-width=".5" width="140" x="324" y="407.2148"/><text font-family="sans-serif" font-size="14" lengthAdjust="spacing" textLength="126" x="331" y="427.75">Discovery Channel</text><rect fill="#e2e2f0" height="30.4883" rx="2.5" stroke="#181818" stroke-width=".5" width="134" x="474" y="5"/><text font-family="sans-serif" font-size="14" lengthAdjust="spacing" textLength="120" x="481" y="25.5352">Echo HTTP Server</text><rect fill="#e2e2f0" height="30.4883" rx="2.5" stroke="#181818" stroke-width=".5" width="134" x="474" y="407.2148"/><text font-family="sans-serif" font-size="14" lengthAdjust="spacing" textLength="120" x="481" y="427.75">Echo HTTP Server</text><rect fill="#e2e2f0" height="30.4883" rx="2.5" stroke="#181818" stroke-width=".5" width="135" x="618" y="5"/><text font-family="sans-serif" font-size="14" lengthAdjust="spacing" textLength="121" x="625" y="25.5352">CORS Middleware</text><rect fill="#e2e2f0" height="30.4883" rx="2.5" stroke="#181818" stroke-width=".5" width="135" x="618" y="407.2148"/><text font-family="sans-serif" font-size="14" lengthAdjust="spacing" textLength="121" x="625" y="427.75">CORS Middleware</text><rect fill="#e2e2f0" height="30.4883" rx="2.5" stroke="#181818" stroke-width=".5" width="101" x="763" y="5"/><text font-family="sans-serif" font-size="14" lengthAdjust="spacing" textLength="87" x="770" y="25.5352">HTTP Routes</text><rect fill="#e2e2f0" height="30.4883" rx="2.5" stroke="#181818" stroke-width=".5" width="101" x="763" y="407.2148"/><text font-family="sans-serif" font-size="14" lengthAdjust="spacing" textLength="87" x="770" y="427.75">HTTP Routes</text><path d="m199 67.7988h10v322.416h-10z" fill="#fff" stroke="#181818"/><path d="m389 97.1094h10v29.3105h-10z" fill="#fff" stroke="#181818"/><path d="m536 155.7305h10v29.3105h-10z" fill="#fff" stroke="#181818"/><path d="m680.5 214.3516h10v29.3105h-10z" fill="#fff" stroke="#181818"/><path d="m808.5 272.9727h10v87.9316h-10z" fill="#fff" stroke="#181818"/><path d="m187 63.7988 10 4-10 4 4-4z" fill="#181818" stroke="#181818"/><path d="m32 67.7988h161" stroke="#181818"/><text font-family="sans-serif" font-size="13" lengthAdjust="spacing" textLength="29" x="39" y="63.0566">Init()</text><path d="m377 93.1094 10 4-10 4 4-4z" fill="#181818" stroke="#181818"/><path d="m209 97.1094h174" stroke="#181818"/><text font-family="sans-serif" font-size="13" lengthAdjust="spacing" textLength="161" x="216" y="92.3672">Create Discovery Channel</text><path d="m220 122.4199-10 4 10 4-4-4z" fill="#181818" stroke="#181818"/><path d="m214 126.4199h179" stroke="#181818" stroke-dasharray="2 2"/><text font-family="sans-serif" font-size="13" lengthAdjust="spacing" textLength="103" x="226" y="121.6777">Channel Created</text><path d="m524 151.7305 10 4-10 4 4-4z" fill="#181818" stroke="#181818"/><path d="m209 155.7305h321" stroke="#181818"/><text font-family="sans-serif" font-size="13" lengthAdjust="spacing" textLength="130" x="216" y="150.9883">Initialize Echo Server</text><path d="m220 181.041-10 4 10 4-4-4z" fill="#181818" stroke="#181818"/><path d="m214 185.041h326" stroke="#181818" stroke-dasharray="2 2"/><text font-family="sans-serif" font-size="13" lengthAdjust="spacing" textLength="104" x="226" y="180.2988">Server Initialized</text><path d="m668.5 210.3516 10 4-10 4 4-4z" fill="#181818" stroke="#181818"/><path d="m209 214.3516h465.5" stroke="#181818"/><text font-family="sans-serif" font-size="13" lengthAdjust="spacing" textLength="100" x="216" y="209.6094">Configure CORS</text><path d="m220 239.6621-10 4 10 4-4-4z" fill="#181818" stroke="#181818"/><path d="m214 243.6621h470.5" stroke="#181818" stroke-dasharray="2 2"/><text font-family="sans-serif" font-size="13" lengthAdjust="spacing" textLength="108" x="226" y="238.9199">CORS Configured</text><path d="m796.5 268.9727 10 4-10 4 4-4z" fill="#181818" stroke="#181818"/><path d="m209 272.9727h593.5" stroke="#181818"/><text font-family="sans-serif" font-size="13" lengthAdjust="spacing" textLength="187" x="216" y="268.2305">Define '/ws' WebSocket Route</text><path d="m220 298.2832-10 4 10 4-4-4z" fill="#181818" stroke="#181818"/><path d="m214 302.2832h593.5" stroke="#181818" stroke-dasharray="2 2"/><text font-family="sans-serif" font-size="13" lengthAdjust="spacing" textLength="89" x="226" y="297.541">Route Defined</text><path d="m796.5 327.5938 10 4-10 4 4-4z" fill="#181818" stroke="#181818"/><path d="m209 331.5938h593.5" stroke="#181818"/><text font-family="sans-serif" font-size="13" lengthAdjust="spacing" textLength="136" x="216" y="326.8516">Define '/nodes' Route</text><path d="m220 356.9043-10 4 10 4-4-4z" fill="#181818" stroke="#181818"/><path d="m214 360.9043h598.5" stroke="#181818" stroke-dasharray="2 2"/><text font-family="sans-serif" font-size="13" lengthAdjust="spacing" textLength="89" x="226" y="356.1621">Route Defined</text><path d="m43 386.2148-10 4 10 4-4-4z" fill="#181818" stroke="#181818"/><path d="m37 390.2148h166" stroke="#181818" stroke-dasharray="2 2"/><text font-family="sans-serif" font-size="13" lengthAdjust="spacing" textLength="143" x="49" y="385.4727">Initialization Complete</text><text fill="#888" font-family="sans-serif" font-size="10" lengthAdjust="spacing" textLength="155" y="449.3711">Last Modified On: 23-Nov-2023</text></svg>
