<svg contentStyleType="text/css" height="767" preserveAspectRatio="none" viewBox="0 0 656 767" width="656" xmlns="http://www.w3.org/2000/svg" zoomAndPan="magnify"><g stroke="#181818"><g fill="#fff"><path d="m112.5 67.4297h10v647.25h-10z"/><path d="m117.5 193.0938h10v55.2656h-10z"/><path d="m117.5 436.3203h10v63.2656h-10z"/><path d="m117.5 622.2813h10v63.2656h-10z"/><path d="m319.5 121.6953h10v19.1328h-10z"/><path d="m410 352.7578h10v31.2969h-10z"/><path d="m522.5 538.7188h10v31.2969h-10z"/><path d="m614.5 284.4922h10v29.1328h-10z"/></g><g stroke-width=".5"><path d="m32 36.2969v696.3828" stroke-dasharray="5 5"/><path d="m117 36.2969v696.3828" stroke-dasharray="5 5"/><path d="m324 107.5625v625.1172" stroke-dasharray="5 5"/><path d="m415 352.2734v380.4063" stroke-dasharray="5 5"/><path d="m527 538.2344v194.4453" stroke-dasharray="5 5"/><path d="m619 36.2969v696.3828" stroke-dasharray="5 5"/><rect fill="#e2e2f0" height="30.2969" rx="2.5" width="55" x="5" y="5"/></g></g><text font-family="sans-serif" font-size="14" lengthAdjust="spacing" textLength="41" x="12" y="24.9951">Caller</text><rect fill="#e2e2f0" height="30.2969" rx="2.5" stroke="#181818" stroke-width=".5" width="55" x="5" y="731.6797"/><text font-family="sans-serif" font-size="14" lengthAdjust="spacing" textLength="41" x="12" y="751.6748">Caller</text><rect fill="#e2e2f0" height="30.2969" rx="2.5" stroke="#181818" stroke-width=".5" width="61" x="87" y="5"/><text font-family="sans-serif" font-size="14" lengthAdjust="spacing" textLength="47" x="94" y="24.9951">Server</text><rect fill="#e2e2f0" height="30.2969" rx="2.5" stroke="#181818" stroke-width=".5" width="61" x="87" y="731.6797"/><text font-family="sans-serif" font-size="14" lengthAdjust="spacing" textLength="47" x="94" y="751.6748">Server</text><rect fill="#e2e2f0" height="30.2969" rx="2.5" stroke="#181818" stroke-width=".5" width="59" x="295" y="731.6797"/><text font-family="sans-serif" font-size="14" lengthAdjust="spacing" textLength="45" x="302" y="751.6748">Ticker</text><rect fill="#e2e2f0" height="30.2969" rx="2.5" stroke="#181818" stroke-width=".5" width="102" x="364" y="731.6797"/><text font-family="sans-serif" font-size="14" lengthAdjust="spacing" textLength="88" x="371" y="751.6748">HTTP Server</text><rect fill="#e2e2f0" height="30.2969" rx="2.5" stroke="#181818" stroke-width=".5" width="103" x="476" y="731.6797"/><text font-family="sans-serif" font-size="14" lengthAdjust="spacing" textLength="89" x="483" y="751.6748">gRPC Server</text><rect fill="#e2e2f0" height="30.2969" rx="2.5" stroke="#181818" stroke-width=".5" width="61" x="589" y="5"/><text font-family="sans-serif" font-size="14" lengthAdjust="spacing" textLength="47" x="596" y="24.9951">Config</text><rect fill="#e2e2f0" height="30.2969" rx="2.5" stroke="#181818" stroke-width=".5" width="61" x="589" y="731.6797"/><text font-family="sans-serif" font-size="14" lengthAdjust="spacing" textLength="47" x="596" y="751.6748">Config</text><g stroke="#181818"><g fill="#fff"><path d="m112.5 67.4297h10v647.25h-10z"/><path d="m117.5 193.0938h10v55.2656h-10z"/><path d="m117.5 436.3203h10v63.2656h-10z"/><path d="m117.5 622.2813h10v63.2656h-10z"/><path d="m319.5 121.6953h10v19.1328h-10z"/><path d="m410 352.7578h10v31.2969h-10z"/><path d="m522.5 538.7188h10v31.2969h-10z"/><path d="m614.5 284.4922h10v29.1328h-10z"/></g><path d="m100.5 63.4297 10 4-10 4 4-4z" fill="#181818"/><path d="m32.5 67.4297h74"/></g><text font-family="sans-serif" font-size="13" lengthAdjust="spacing" textLength="61" x="39.5" y="62.3638">Start(ctx)</text><path d="m283 107.6953 10 4-10 4 4-4z" fill="#181818" stroke="#181818"/><path d="m122.5 111.6953h166.5" stroke="#181818"/><text font-family="sans-serif" font-size="13" lengthAdjust="spacing" textLength="105" x="129.5" y="91.4966">Start New Ticker</text><text font-family="sans-serif" font-size="13" lengthAdjust="spacing" textLength="83" x="129.5" y="106.6294">(10 seconds)</text><rect fill="#e2e2f0" height="30.2969" rx="2.5" stroke="#181818" stroke-width=".5" width="59" x="295" y="78.3984"/><text font-family="sans-serif" font-size="14" lengthAdjust="spacing" textLength="45" x="302" y="98.3936">Ticker</text><path d="m133.5 136.8281-10 4 10 4-4-4z" fill="#181818" stroke="#181818"/><path d="m127.5 140.8281h196" stroke="#181818" stroke-dasharray="2 2"/><text font-family="sans-serif" font-size="13" lengthAdjust="spacing" textLength="89" x="139.5" y="135.7622">Ticker Started</text><g stroke="#181818"><path d="m122.5 180.0938h47"/><path d="m169.5 180.0938v13"/><path d="m128.5 193.0938h41"/><path d="m138.5 189.0938-10 4 10 4-4-4z" fill="#181818"/></g><text font-family="sans-serif" font-size="13" lengthAdjust="spacing" textLength="106" x="134.5" y="159.895">Start Go Routine</text><text font-family="sans-serif" font-size="13" lengthAdjust="spacing" textLength="70" x="134.5" y="175.0278">(for Ticker)</text><path d="m127.5 247.3594h42" stroke="#181818"/><path d="m169.5 247.3594v13" stroke="#181818"/><path d="m122.5 260.3594h47" stroke="#181818"/><path d="m132.5 256.3594-10 4 10 4-4-4z" fill="#181818" stroke="#181818"/><text font-family="sans-serif" font-size="13" lengthAdjust="spacing" textLength="178" x="134.5" y="227.1606">Broadcast Ping Notifications</text><text font-family="sans-serif" font-size="13" lengthAdjust="spacing" textLength="124" x="134.5" y="242.2935">(Every 10 seconds)</text><path d="m602.5 280.4922 10 4-10 4 4-4z" fill="#181818" stroke="#181818"/><path d="m122.5 284.4922h486" stroke="#181818"/><text font-family="sans-serif" font-size="13" lengthAdjust="spacing" textLength="158" x="129.5" y="279.4263">Get HTTP Listen Address</text><path d="m133.5 309.625-10 4 10 4-4-4z" fill="#181818" stroke="#181818"/><path d="m127.5 313.625h491" stroke="#181818" stroke-dasharray="2 2"/><text font-family="sans-serif" font-size="13" lengthAdjust="spacing" textLength="52" x="139.5" y="308.5591">Address</text><path d="m352 338.7578 10 4-10 4 4-4z" fill="#181818" stroke="#181818"/><path d="m122.5 342.7578h235.5" stroke="#181818"/><text font-family="sans-serif" font-size="13" lengthAdjust="spacing" textLength="134" x="129.5" y="337.6919">Initialize HTTP Server</text><rect fill="#e2e2f0" height="30.2969" rx="2.5" stroke="#181818" stroke-width=".5" width="102" x="364" y="321.625"/><text font-family="sans-serif" font-size="14" lengthAdjust="spacing" textLength="88" x="371" y="341.6201">HTTP Server</text><path d="m133.5 380.0547-10 4 10 4-4-4z" fill="#181818" stroke="#181818"/><path d="m127.5 384.0547h286.5" stroke="#181818" stroke-dasharray="2 2"/><text font-family="sans-serif" font-size="13" lengthAdjust="spacing" textLength="124" x="139.5" y="378.9888">HTTP Server Ready</text><path d="m122.5 423.3203h47" stroke="#181818"/><path d="m169.5 423.3203v13" stroke="#181818"/><path d="m128.5 436.3203h41" stroke="#181818"/><path d="m138.5 432.3203-10 4 10 4-4-4z" fill="#181818" stroke="#181818"/><text font-family="sans-serif" font-size="13" lengthAdjust="spacing" textLength="106" x="134.5" y="403.1216">Start Go Routine</text><text font-family="sans-serif" font-size="13" lengthAdjust="spacing" textLength="111" x="134.5" y="418.2544">(for HTTP Server)</text><path d="m403 466.4531 10 4-10 4 4-4z" fill="#181818" stroke="#181818"/><path d="m127.5 470.4531h281.5" stroke="#181818"/><text font-family="sans-serif" font-size="13" lengthAdjust="spacing" textLength="114" x="134.5" y="465.3872">Start HTTP Server</text><path d="m133.5 495.5859-10 4 10 4-4-4z" fill="#181818" stroke="#181818"/><path d="m127.5 499.5859h286.5" stroke="#181818" stroke-dasharray="2 2"/><text font-family="sans-serif" font-size="13" lengthAdjust="spacing" textLength="135" x="139.5" y="494.52">HTTP Server Running</text><path d="m464 524.7188 10 4-10 4 4-4z" fill="#181818" stroke="#181818"/><path d="m122.5 528.7188h347.5" stroke="#181818"/><text font-family="sans-serif" font-size="13" lengthAdjust="spacing" textLength="135" x="129.5" y="523.6528">Initialize gRPC Server</text><rect fill="#e2e2f0" height="30.2969" rx="2.5" stroke="#181818" stroke-width=".5" width="103" x="476" y="507.5859"/><text font-family="sans-serif" font-size="14" lengthAdjust="spacing" textLength="89" x="483" y="527.5811">gRPC Server</text><path d="m133.5 566.0156-10 4 10 4-4-4z" fill="#181818" stroke="#181818"/><path d="m127.5 570.0156h399" stroke="#181818" stroke-dasharray="2 2"/><text font-family="sans-serif" font-size="13" lengthAdjust="spacing" textLength="125" x="139.5" y="564.9497">gRPC Server Ready</text><path d="m122.5 609.2813h47" stroke="#181818"/><path d="m169.5 609.2813v13" stroke="#181818"/><path d="m128.5 622.2813h41" stroke="#181818"/><path d="m138.5 618.2813-10 4 10 4-4-4z" fill="#181818" stroke="#181818"/><text font-family="sans-serif" font-size="13" lengthAdjust="spacing" textLength="106" x="134.5" y="589.0825">Start Go Routine</text><text font-family="sans-serif" font-size="13" lengthAdjust="spacing" textLength="112" x="134.5" y="604.2153">(for gRPC Server)</text><path d="m515.5 652.4141 10 4-10 4 4-4z" fill="#181818" stroke="#181818"/><path d="m127.5 656.4141h394" stroke="#181818"/><text font-family="sans-serif" font-size="13" lengthAdjust="spacing" textLength="115" x="134.5" y="651.3481">Start gRPC Server</text><path d="m133.5 681.5469-10 4 10 4-4-4z" fill="#181818" stroke="#181818"/><path d="m127.5 685.5469h399" stroke="#181818" stroke-dasharray="2 2"/><text font-family="sans-serif" font-size="13" lengthAdjust="spacing" textLength="136" x="139.5" y="680.481">gRPC Server Running</text><path d="m43.5 710.6797-10 4 10 4-4-4z" fill="#181818" stroke="#181818"/><path d="m37.5 714.6797h79" stroke="#181818" stroke-dasharray="2 2"/><text font-family="sans-serif" font-size="13" lengthAdjust="spacing" textLength="47" x="49.5" y="709.6138">Started</text></svg>
