<svg contentStyleType="text/css" height="282" preserveAspectRatio="none" viewBox="0 0 467 282" width="467" xmlns="http://www.w3.org/2000/svg" zoomAndPan="magnify"><g stroke="#181818"><path d="m237.5 98.4297h10v87.3984h-10z" fill="#fff"/><path d="m416 127.5625h10v29.1328h-10z" fill="#fff"/><path d="m57 67.2969v136.5312" stroke-dasharray="5 5" stroke-width=".5"/><path d="m242 67.2969v136.5312" stroke-dasharray="5 5" stroke-width=".5"/><path d="m421 67.2969v136.5312" stroke-dasharray="5 5" stroke-width=".5"/><rect fill="#e2e2f0" height="30.2969" rx="2.5" stroke-width=".5" width="104" x="5" y="36"/></g><text font-family="sans-serif" font-size="14" lengthAdjust="spacing" textLength="90" x="12" y="55.9951">Peer (Client)</text><rect fill="#e2e2f0" height="30.2969" rx="2.5" stroke="#181818" stroke-width=".5" width="104" x="5" y="202.8281"/><text font-family="sans-serif" font-size="14" lengthAdjust="spacing" textLength="90" x="12" y="222.8232">Peer (Client)</text><rect fill="#e2e2f0" height="30.2969" rx="2.5" stroke="#181818" stroke-width=".5" width="247" x="119" y="36"/><text font-family="sans-serif" font-size="14" lengthAdjust="spacing" textLength="233" x="126" y="55.9951">gRPC Server (Bootstrap Service)</text><rect fill="#e2e2f0" height="30.2969" rx="2.5" stroke="#181818" stroke-width=".5" width="247" x="119" y="202.8281"/><text font-family="sans-serif" font-size="14" lengthAdjust="spacing" textLength="233" x="126" y="222.8232">gRPC Server (Bootstrap Service)</text><text font-family="sans-serif" font-size="14" lengthAdjust="spacing" textLength="84" x="376" y="63.9951">Subscribers</text><path d="m403 15c0-10 18-10 18-10s18 0 18 10v26c0 10-18 10-18 10s-18 0-18-10z" fill="#e2e2f0" stroke="#181818" stroke-width="1.5"/><path d="m403 15c0 10 18 10 18 10s18 0 18-10" fill="none" stroke="#181818" stroke-width="1.5"/><text font-family="sans-serif" font-size="14" lengthAdjust="spacing" textLength="84" x="376" y="215.8232">Subscribers</text><path d="m403 229.125c0-10 18-10 18-10s18 0 18 10v26c0 10-18 10-18 10s-18 0-18-10z" fill="#e2e2f0" stroke="#181818" stroke-width="1.5"/><path d="m403 229.125c0 10 18 10 18 10s18 0 18-10" fill="none" stroke="#181818" stroke-width="1.5"/><path d="m237.5 98.4297h10v87.3984h-10z" fill="#fff" stroke="#181818"/><path d="m416 127.5625h10v29.1328h-10z" fill="#fff" stroke="#181818"/><path d="m225.5 94.4297 10 4-10 4 4-4z" fill="#181818" stroke="#181818"/><path d="m57 98.4297h174.5" stroke="#181818"/><text font-family="sans-serif" font-size="13" lengthAdjust="spacing" textLength="73" x="64" y="93.3638">GetNodes()</text><path d="m404 123.5625 10 4-10 4 4-4z" fill="#181818" stroke="#181818"/><path d="m247.5 127.5625h162.5" stroke="#181818"/><text font-family="sans-serif" font-size="13" lengthAdjust="spacing" textLength="105" x="254.5" y="122.4966">Fetch Nodes List</text><path d="m258.5 152.6953-10 4 10 4-4-4z" fill="#181818" stroke="#181818"/><path d="m252.5 156.6953h167.5" stroke="#181818" stroke-dasharray="2 2"/><text font-family="sans-serif" font-size="13" lengthAdjust="spacing" textLength="66" x="264.5" y="151.6294">Nodes List</text><path d="m68 181.8281-10 4 10 4-4-4z" fill="#181818" stroke="#181818"/><path d="m62 185.8281h179.5" stroke="#181818" stroke-dasharray="2 2"/><text font-family="sans-serif" font-size="13" lengthAdjust="spacing" textLength="113" x="74" y="180.7622">Return Nodes List</text></svg>
