<svg contentStyleType="text/css" height="407" preserveAspectRatio="none" viewBox="0 0 532 407" width="532" xmlns="http://www.w3.org/2000/svg" zoomAndPan="magnify"><path d="m290.5 142.1094h10v173.5078h-10z" fill="#fff" stroke="#181818"/><path d="m427 195.7305h10v112.8867h-10z" fill="#fff" stroke="#181818"/><path d="m10 157.1094h505.5v151.5078h-505.5z" fill="none" stroke="#000" stroke-width="1.5"/><path d="m20 210.7305h485.5v90.8867h-485.5z" fill="none" stroke="#000" stroke-width="1.5"/><g stroke="#181818" stroke-width=".5"><g stroke-dasharray="5 5"><path d="m58 67.4883v258.1289"/><path d="m295.5 67.4883v258.1289"/><path d="m431.5 67.4883v258.1289"/></g><rect fill="#e2e2f0" height="30.4883" rx="2.5" width="57" x="30" y="36"/></g><text font-family="sans-serif" font-size="14" lengthAdjust="spacing" textLength="43" x="37" y="56.5352">Server</text><rect fill="#e2e2f0" height="30.4883" rx="2.5" stroke="#181818" stroke-width=".5" width="57" x="30" y="324.6172"/><text font-family="sans-serif" font-size="14" lengthAdjust="spacing" textLength="43" x="37" y="345.1523">Server</text><text font-family="sans-serif" font-size="14" lengthAdjust="spacing" textLength="120" x="232.5" y="64.5352">gRPC Subscribers</text><path d="m277.5 15c0-10 18-10 18-10s18 0 18 10v26c0 10-18 10-18 10s-18 0-18-10z" fill="#e2e2f0" stroke="#181818" stroke-width="1.5"/><path d="m277.5 15c0 10 18 10 18 10s18 0 18-10" fill="none" stroke="#181818" stroke-width="1.5"/><text font-family="sans-serif" font-size="14" lengthAdjust="spacing" textLength="120" x="232.5" y="338.1523">gRPC Subscribers</text><g stroke="#181818"><path d="m277.5 351.1055c0-10 18-10 18-10s18 0 18 10v26c0 10-18 10-18 10s-18 0-18-10z" fill="#e2e2f0" stroke-width="1.5"/><path d="m277.5 351.1055c0 10 18 10 18 10s18 0 18-10" fill="none" stroke-width="1.5"/><rect fill="#e2e2f0" height="30.4883" rx="2.5" stroke-width=".5" width="127" x="368.5" y="36"/></g><text font-family="sans-serif" font-size="14" lengthAdjust="spacing" textLength="113" x="375.5" y="56.5352">gRPC Subscriber</text><rect fill="#e2e2f0" height="30.4883" rx="2.5" stroke="#181818" stroke-width=".5" width="127" x="368.5" y="324.6172"/><text font-family="sans-serif" font-size="14" lengthAdjust="spacing" textLength="113" x="375.5" y="345.1523">gRPC Subscriber</text><path d="m290.5 142.1094h10v173.5078h-10z" fill="#fff" stroke="#181818"/><path d="m427 195.7305h10v112.8867h-10z" fill="#fff" stroke="#181818"/><path d="m0 98.1436h525.5v3h-525.5z" fill="#eee" stroke="#eee"/><path d="m0 98.1436h525.5" stroke="#000"/><path d="m0 101.1436h525.5" stroke="#000"/><path d="m177.75 87.4883h170v23.3105h-170z" fill="#eee" stroke="#000" stroke-width="2"/><text font-family="sans-serif" font-size="13" font-weight="bold" lengthAdjust="spacing" textLength="152" x="183.75" y="104.0566">Ping gRPC Subscribers</text><path d="m278.5 138.1094 10 4-10 4 4-4z" fill="#181818" stroke="#181818"/><path d="m58.5 142.1094h226" stroke="#181818"/><text font-family="sans-serif" font-size="13" lengthAdjust="spacing" textLength="184" x="65.5" y="137.3672">Iterate over gRPC Subscribers</text><path d="m10 157.1094h74v7.3105l-10 10h-64z" fill="#eee" stroke="#000" stroke-width="1.5"/><path d="m10 157.1094h505.5v151.5078h-505.5z" fill="none" stroke="#000" stroke-width="1.5"/><text font-family="sans-serif" font-size="13" font-weight="bold" lengthAdjust="spacing" textLength="29" x="25" y="170.6777">loop</text><text font-family="sans-serif" font-size="11" font-weight="bold" lengthAdjust="spacing" textLength="131" x="99" y="169.7441">[Each gRPC Subscriber]</text><path d="m415 191.7305 10 4-10 4 4-4z" fill="#181818" stroke="#181818"/><path d="m58.5 195.7305h362.5" stroke="#181818"/><text font-family="sans-serif" font-size="13" lengthAdjust="spacing" textLength="166" x="65.5" y="190.9883">Send Ping via gRPC Stream</text><path d="m20 210.7305h62v7.3105l-10 10h-52z" fill="#eee" stroke="#000" stroke-width="1.5"/><path d="m20 210.7305h485.5v90.8867h-485.5z" fill="none" stroke="#000" stroke-width="1.5"/><text font-family="sans-serif" font-size="13" font-weight="bold" lengthAdjust="spacing" textLength="17" x="35" y="224.2988">alt</text><text font-family="sans-serif" font-size="11" font-weight="bold" lengthAdjust="spacing" textLength="138" x="97" y="223.3652">[If Subscriber Responds]</text><path d="m69.5 245.3516-10 4 10 4-4-4z" fill="#181818" stroke="#181818"/><path d="m63.5 249.3516h362.5" stroke="#181818" stroke-dasharray="2 2"/><text font-family="sans-serif" font-size="13" lengthAdjust="spacing" textLength="115" x="75.5" y="244.6094">Acknowledge Ping</text><path d="m20 258.3516h485.5" stroke="#000" stroke-dasharray="2 2"/><text font-family="sans-serif" font-size="11" font-weight="bold" lengthAdjust="spacing" textLength="187" x="25" y="268.9863">[If Subscriber Does Not Respond]</text><path d="m278.5 289.6172 10 4-10 4 4-4z" fill="#181818" stroke="#181818"/><path d="m58.5 293.6172h226" stroke="#181818"/><text font-family="sans-serif" font-size="13" lengthAdjust="spacing" textLength="208" x="65.5" y="288.875">Remove Unresponsive Subscriber</text><text fill="#888" font-family="sans-serif" font-size="10" lengthAdjust="spacing" textLength="155" y="397.7734">Last Modified On: 23-Nov-2023</text></svg>
