<svg contentStyleType="text/css" height="1198" preserveAspectRatio="none" viewBox="0 0 1087 1198" width="1087" xmlns="http://www.w3.org/2000/svg" zoomAndPan="magnify"><path d="m263 142.1094h10v823.0742h-10z" fill="#fff" stroke="#181818"/><path d="m268 427.9043h10v58.6211h-10z" fill="#fff" stroke="#181818"/><path d="m268 673.3887h10v58.6211h-10z" fill="#fff" stroke="#181818"/><path d="m490 213.7305h10v722.1426h-10z" fill="#fff" stroke="#181818"/><path d="m698 243.041h10v864.3848h-10z" fill="#fff" stroke="#181818"/><path d="m703 619.7676h10v148.5527h-10z" fill="#fff" stroke="#181818"/><path d="m829 590.457h10v177.8633h-10z" fill="#fff" stroke="#181818"/><path d="m948 344.9727h10v29.3105h-10z" fill="#fff" stroke="#181818"/><path d="m1028 1062.1152h10v29.3105h-10z" fill="#fff" stroke="#181818"/><path d="m20 389.2832h513.5v105.2422h-513.5z" fill="none" stroke="#000" stroke-width="1.5"/><path d="m10 551.8359h900v224.4844h-900z" fill="none" stroke="#000" stroke-width="1.5"/><path d="m20 634.7676h513.5v105.2422h-513.5z" fill="none" stroke="#000" stroke-width="1.5"/><path d="m456.5 1023.4941h613.5v75.9316h-613.5z" fill="none" stroke="#000" stroke-width="1.5"/><path d="m57 67.4883v1048.9375" stroke="#181818" stroke-dasharray="5 5" stroke-width=".5"/><path d="m268 67.4883v1048.9375" stroke="#181818" stroke-dasharray="5 5" stroke-width=".5"/><path d="m494.5 67.4883v1048.9375" stroke="#181818" stroke-dasharray="5 5" stroke-width=".5"/><path d="m703 67.4883v1048.9375" stroke="#181818" stroke-dasharray="5 5" stroke-width=".5"/><path d="m834 67.4883v1048.9375" stroke="#181818" stroke-dasharray="5 5" stroke-width=".5"/><path d="m953 67.4883v1048.9375" stroke="#181818" stroke-dasharray="5 5" stroke-width=".5"/><path d="m1033 67.4883v1048.9375" stroke="#181818" stroke-dasharray="5 5" stroke-width=".5"/><rect fill="#e2e2f0" height="30.4883" rx="2.5" stroke="#181818" stroke-width=".5" width="54" x="30" y="36"/><text font-family="sans-serif" font-size="14" lengthAdjust="spacing" textLength="40" x="37" y="56.5352">Client</text><rect fill="#e2e2f0" height="30.4883" rx="2.5" stroke="#181818" stroke-width=".5" width="54" x="30" y="1115.4258"/><text font-family="sans-serif" font-size="14" lengthAdjust="spacing" textLength="40" x="37" y="1135.9609">Client</text><rect fill="#e2e2f0" height="30.4883" rx="2.5" stroke="#181818" stroke-width=".5" width="88" x="224" y="36"/><text font-family="sans-serif" font-size="14" lengthAdjust="spacing" textLength="74" x="231" y="56.5352">WebSocket</text><rect fill="#e2e2f0" height="30.4883" rx="2.5" stroke="#181818" stroke-width=".5" width="88" x="224" y="1115.4258"/><text font-family="sans-serif" font-size="14" lengthAdjust="spacing" textLength="74" x="231" y="1135.9609">WebSocket</text><rect fill="#e2e2f0" height="30.4883" rx="2.5" stroke="#181818" stroke-width=".5" width="57" x="466.5" y="36"/><text font-family="sans-serif" font-size="14" lengthAdjust="spacing" textLength="43" x="473.5" y="56.5352">Server</text><rect fill="#e2e2f0" height="30.4883" rx="2.5" stroke="#181818" stroke-width=".5" width="57" x="466.5" y="1115.4258"/><text font-family="sans-serif" font-size="14" lengthAdjust="spacing" textLength="43" x="473.5" y="1135.9609">Server</text><text font-family="sans-serif" font-size="14" lengthAdjust="spacing" textLength="104" x="648" y="64.5352">ClientChannels</text><path d="m685 15c0-10 18-10 18-10s18 0 18 10v26c0 10-18 10-18 10s-18 0-18-10z" fill="#e2e2f0" stroke="#181818" stroke-width="1.5"/><path d="m685 15c0 10 18 10 18 10s18 0 18-10" fill="none" stroke="#181818" stroke-width="1.5"/><text font-family="sans-serif" font-size="14" lengthAdjust="spacing" textLength="104" x="648" y="1128.9609">ClientChannels</text><path d="m685 1141.9141c0-10 18-10 18-10s18 0 18 10v26c0 10-18 10-18 10s-18 0-18-10z" fill="#e2e2f0" stroke="#181818" stroke-width="1.5"/><path d="m685 1141.9141c0 10 18 10 18 10s18 0 18-10" fill="none" stroke="#181818" stroke-width="1.5"/><text font-family="sans-serif" font-size="14" lengthAdjust="spacing" textLength="126" x="768" y="64.5352">Discovery Channel</text><path d="m816 15c0-10 18-10 18-10s18 0 18 10v26c0 10-18 10-18 10s-18 0-18-10z" fill="#e2e2f0" stroke="#181818" stroke-width="1.5"/><path d="m816 15c0 10 18 10 18 10s18 0 18-10" fill="none" stroke="#181818" stroke-width="1.5"/><text font-family="sans-serif" font-size="14" lengthAdjust="spacing" textLength="126" x="768" y="1128.9609">Discovery Channel</text><path d="m816 1141.9141c0-10 18-10 18-10s18 0 18 10v26c0 10-18 10-18 10s-18 0-18-10z" fill="#e2e2f0" stroke="#181818" stroke-width="1.5"/><path d="m816 1141.9141c0 10 18 10 18 10s18 0 18-10" fill="none" stroke="#181818" stroke-width="1.5"/><text font-family="sans-serif" font-size="14" lengthAdjust="spacing" textLength="80" x="910" y="64.5352">Subscribers</text><path d="m935 15c0-10 18-10 18-10s18 0 18 10v26c0 10-18 10-18 10s-18 0-18-10z" fill="#e2e2f0" stroke="#181818" stroke-width="1.5"/><path d="m935 15c0 10 18 10 18 10s18 0 18-10" fill="none" stroke="#181818" stroke-width="1.5"/><text font-family="sans-serif" font-size="14" lengthAdjust="spacing" textLength="80" x="910" y="1128.9609">Subscribers</text><path d="m935 1141.9141c0-10 18-10 18-10s18 0 18 10v26c0 10-18 10-18 10s-18 0-18-10z" fill="#e2e2f0" stroke="#181818" stroke-width="1.5"/><path d="m935 1141.9141c0 10 18 10 18 10s18 0 18-10" fill="none" stroke="#181818" stroke-width="1.5"/><text font-family="sans-serif" font-size="14" lengthAdjust="spacing" textLength="48" x="1006" y="64.5352">Logger</text><path d="m1015 15c0-10 18-10 18-10s18 0 18 10v26c0 10-18 10-18 10s-18 0-18-10z" fill="#e2e2f0" stroke="#181818" stroke-width="1.5"/><path d="m1015 15c0 10 18 10 18 10s18 0 18-10" fill="none" stroke="#181818" stroke-width="1.5"/><text font-family="sans-serif" font-size="14" lengthAdjust="spacing" textLength="48" x="1006" y="1128.9609">Logger</text><g stroke="#181818"><path d="m1015 1141.9141c0-10 18-10 18-10s18 0 18 10v26c0 10-18 10-18 10s-18 0-18-10z" fill="#e2e2f0" stroke-width="1.5"/><path d="m1015 1141.9141c0 10 18 10 18 10s18 0 18-10" fill="none" stroke-width="1.5"/><path d="m263 142.1094h10v823.0742h-10z" fill="#fff"/><path d="m268 427.9043h10v58.6211h-10z" fill="#fff"/><path d="m268 673.3887h10v58.6211h-10z" fill="#fff"/><path d="m490 213.7305h10v722.1426h-10z" fill="#fff"/><path d="m698 243.041h10v864.3848h-10z" fill="#fff"/><path d="m703 619.7676h10v148.5527h-10z" fill="#fff"/><path d="m829 590.457h10v177.8633h-10z" fill="#fff"/><path d="m948 344.9727h10v29.3105h-10z" fill="#fff"/><path d="m1028 1062.1152h10v29.3105h-10z" fill="#fff"/></g><path d="m0 98.1436h1080v3h-1080z" fill="#eee" stroke="#eee"/><path d="m0 98.1436h1080" stroke="#000"/><path d="m0 101.1436h1080" stroke="#000"/><path d="m422 87.4883h236v23.3105h-236z" fill="#eee" stroke="#000" stroke-width="2"/><text font-family="sans-serif" font-size="13" font-weight="bold" lengthAdjust="spacing" textLength="218" x="428" y="104.0566">WebSocket Connection Handling</text><path d="m251 138.1094 10 4-10 4 4-4z" fill="#181818" stroke="#181818"/><path d="m57 142.1094h200" stroke="#181818"/><text font-family="sans-serif" font-size="13" lengthAdjust="spacing" textLength="181" x="64" y="137.3672">HTTP Request for WebSocket</text><path d="m273 171.4199h42" stroke="#181818"/><path d="m315 171.4199v13" stroke="#181818"/><path d="m274 184.4199h41" stroke="#181818"/><path d="m284 180.4199-10 4 10 4-4-4z" fill="#181818" stroke="#181818"/><text font-family="sans-serif" font-size="13" lengthAdjust="spacing" textLength="141" x="280" y="166.6777">Upgrade to WebSocket</text><path d="m478 209.7305 10 4-10 4 4-4z" fill="#181818" stroke="#181818"/><path d="m273 213.7305h211" stroke="#181818"/><text font-family="sans-serif" font-size="13" lengthAdjust="spacing" textLength="120" x="280" y="208.9883">HandleWebSocket()</text><path d="m686 239.041 10 4-10 4 4-4z" fill="#181818" stroke="#181818"/><path d="m500 243.041h192" stroke="#181818"/><text font-family="sans-serif" font-size="13" lengthAdjust="spacing" textLength="146" x="507" y="238.2988">Add new client channel</text><path d="m511 268.3516-10 4 10 4-4-4z" fill="#181818" stroke="#181818"/><path d="m505 272.3516h192" stroke="#181818" stroke-dasharray="2 2"/><text font-family="sans-serif" font-size="13" lengthAdjust="spacing" textLength="132" x="517" y="267.6094">Client channel added</text><path d="m0 301.0068h1080v3h-1080z" fill="#eee" stroke="#eee"/><path d="m0 301.0068h1080" stroke="#000"/><path d="m0 304.0068h1080" stroke="#000"/><path d="m410.5 290.3516h259v23.3105h-259z" fill="#eee" stroke="#000" stroke-width="2"/><text font-family="sans-serif" font-size="13" font-weight="bold" lengthAdjust="spacing" textLength="241" x="416.5" y="306.9199">Sending List of Existing Subscribers</text><path d="m936 340.9727 10 4-10 4 4-4z" fill="#181818" stroke="#181818"/><path d="m500 344.9727h442" stroke="#181818"/><text font-family="sans-serif" font-size="13" lengthAdjust="spacing" textLength="125" x="507" y="340.2305">Get Subscribers List</text><path d="m511 370.2832-10 4 10 4-4-4z" fill="#181818" stroke="#181818"/><path d="m505 374.2832h447" stroke="#181818" stroke-dasharray="2 2"/><text font-family="sans-serif" font-size="13" lengthAdjust="spacing" textLength="106" x="517" y="369.541">Subscribers Data</text><path d="m20 389.2832h74v7.3106l-10 10h-64z" fill="#eee" stroke="#000" stroke-width="1.5"/><path d="m20 389.2832h513.5v105.2422h-513.5z" fill="none" stroke="#000" stroke-width="1.5"/><text font-family="sans-serif" font-size="13" font-weight="bold" lengthAdjust="spacing" textLength="29" x="35" y="402.8516">loop</text><text font-family="sans-serif" font-size="11" font-weight="bold" lengthAdjust="spacing" textLength="97" x="109" y="401.918">[Each Subscriber]</text><path d="m289 423.9043-10 4 10 4-4-4z" fill="#181818" stroke="#181818"/><path d="m283 427.9043h206" stroke="#181818"/><text font-family="sans-serif" font-size="13" lengthAdjust="spacing" textLength="129" x="295" y="423.1621">Send Subscriber Info</text><path d="m68 453.2148-10 4 10 4-4-4z" fill="#181818" stroke="#181818"/><path d="m62 457.2148h205" stroke="#181818"/><text font-family="sans-serif" font-size="13" lengthAdjust="spacing" textLength="129" x="74" y="452.4727">Send Subscriber Info</text><path d="m478 482.5254 10 4-10 4 4-4z" fill="#181818" stroke="#181818"/><path d="m273 486.5254h211" stroke="#181818" stroke-dasharray="2 2"/><text font-family="sans-serif" font-size="13" lengthAdjust="spacing" textLength="56" x="280" y="481.7832">Info Sent</text><path d="m0 522.1807h1080v3h-1080z" fill="#eee" stroke="#eee"/><path d="m0 522.1807h1080" stroke="#000"/><path d="m0 525.1807h1080" stroke="#000"/><path d="m418.5 511.5254h243v23.3105h-243z" fill="#eee" stroke="#000" stroke-width="2"/><text font-family="sans-serif" font-size="13" font-weight="bold" lengthAdjust="spacing" textLength="225" x="424.5" y="528.0938">Broadcasting Messages to Clients</text><path d="m10 551.8359h74v7.3106l-10 10h-64z" fill="#eee" stroke="#000" stroke-width="1.5"/><path d="m10 551.8359h900v224.4844h-900z" fill="none" stroke="#000" stroke-width="1.5"/><text font-family="sans-serif" font-size="13" font-weight="bold" lengthAdjust="spacing" textLength="29" x="25" y="565.4043">loop</text><text font-family="sans-serif" font-size="11" font-weight="bold" lengthAdjust="spacing" textLength="209" x="99" y="564.4707">[New Message on Discovery Channel]</text><path d="m511 586.457-10 4 10 4-4-4z" fill="#181818" stroke="#181818"/><path d="m505 590.457h323" stroke="#181818"/><text font-family="sans-serif" font-size="13" lengthAdjust="spacing" textLength="151" x="517" y="585.7148">New Discovery Message</text><path d="m691 615.7676 10 4-10 4 4-4z" fill="#181818" stroke="#181818"/><path d="m500 619.7676h197" stroke="#181818"/><text font-family="sans-serif" font-size="13" lengthAdjust="spacing" textLength="174" x="507" y="615.0254">Iterate over Client Channels</text><path d="m20 634.7676h74v7.3105l-10 10h-64z" fill="#eee" stroke="#000" stroke-width="1.5"/><path d="m20 634.7676h513.5v105.2422h-513.5z" fill="none" stroke="#000" stroke-width="1.5"/><text font-family="sans-serif" font-size="13" font-weight="bold" lengthAdjust="spacing" textLength="29" x="35" y="648.3359">loop</text><text font-family="sans-serif" font-size="11" font-weight="bold" lengthAdjust="spacing" textLength="120" x="109" y="647.4023">[Each Client Channel]</text><path d="m289 669.3887-10 4 10 4-4-4z" fill="#181818" stroke="#181818"/><path d="m283 673.3887h206" stroke="#181818"/><text font-family="sans-serif" font-size="13" lengthAdjust="spacing" textLength="182" x="295" y="668.6465">Send Message via WebSocket</text><path d="m68 698.6992-10 4 10 4-4-4z" fill="#181818" stroke="#181818"/><path d="m62 702.6992h205" stroke="#181818"/><text font-family="sans-serif" font-size="13" lengthAdjust="spacing" textLength="182" x="74" y="697.957">Send Message via WebSocket</text><path d="m478 728.0098 10 4-10 4 4-4z" fill="#181818" stroke="#181818"/><path d="m273 732.0098h211" stroke="#181818" stroke-dasharray="2 2"/><text font-family="sans-serif" font-size="13" lengthAdjust="spacing" textLength="85" x="280" y="727.2676">Message Sent</text><path d="m511 764.3203-10 4 10 4-4-4z" fill="#181818" stroke="#181818"/><path d="m505 768.3203h192" stroke="#181818" stroke-dasharray="2 2"/><text font-family="sans-serif" font-size="13" lengthAdjust="spacing" textLength="116" x="517" y="763.5781">All clients notified</text><path d="m0 803.9756h1080v3h-1080z" fill="#eee" stroke="#eee"/><path d="m0 803.9756h1080" stroke="#000"/><path d="m0 806.9756h1080" stroke="#000"/><path d="m462 793.3203h156v23.3105h-156z" fill="#eee" stroke="#000" stroke-width="2"/><text font-family="sans-serif" font-size="13" font-weight="bold" lengthAdjust="spacing" textLength="138" x="468" y="809.8887">Client Disconnection</text><path d="m478 843.9414 10 4-10 4 4-4z" fill="#181818" stroke="#181818"/><path d="m273 847.9414h211" stroke="#181818"/><text font-family="sans-serif" font-size="13" lengthAdjust="spacing" textLength="143" x="280" y="843.1992">WebSocket Disconnect</text><path d="m686 873.252 10 4-10 4 4-4z" fill="#181818" stroke="#181818"/><path d="m500 877.252h192" stroke="#181818"/><text font-family="sans-serif" font-size="13" lengthAdjust="spacing" textLength="141" x="507" y="872.5098">Remove client channel</text><path d="m511 902.5625-10 4 10 4-4-4z" fill="#181818" stroke="#181818"/><path d="m505 906.5625h192" stroke="#181818" stroke-dasharray="2 2"/><text font-family="sans-serif" font-size="13" lengthAdjust="spacing" textLength="148" x="517" y="901.8203">Client channel removed</text><path d="m284 931.873-10 4 10 4-4-4z" fill="#181818" stroke="#181818"/><path d="m278 935.873h216" stroke="#181818" stroke-dasharray="2 2"/><text font-family="sans-serif" font-size="13" lengthAdjust="spacing" textLength="193" x="290" y="931.1309">WebSocket Handling Complete</text><path d="m68 961.1836-10 4 10 4-4-4z" fill="#181818" stroke="#181818"/><path d="m62 965.1836h205" stroke="#181818" stroke-dasharray="2 2"/><text font-family="sans-serif" font-size="13" lengthAdjust="spacing" textLength="60" x="74" y="960.4414">Response</text><path d="m0 993.8389h1080v3h-1080z" fill="#eee" stroke="#eee"/><path d="m0 993.8389h1080" stroke="#000"/><path d="m0 996.8389h1080" stroke="#000"/><path d="m481 983.1836h118v23.3105h-118z" fill="#eee" stroke="#000" stroke-width="2"/><text font-family="sans-serif" font-size="13" font-weight="bold" lengthAdjust="spacing" textLength="100" x="487" y="999.752">Error Handling</text><path d="m456.5 1023.4941h62v7.3106l-10 10h-52z" fill="#eee" stroke="#000" stroke-width="1.5"/><path d="m456.5 1023.4941h613.5v75.9316h-613.5z" fill="none" stroke="#000" stroke-width="1.5"/><text font-family="sans-serif" font-size="13" font-weight="bold" lengthAdjust="spacing" textLength="17" x="471.5" y="1037.0625">alt</text><text font-family="sans-serif" font-size="11" font-weight="bold" lengthAdjust="spacing" textLength="159" x="533.5" y="1036.1289">[If Marshaling Error Occurs]</text><path d="m1016 1058.1152 10 4-10 4 4-4z" fill="#181818" stroke="#181818"/><path d="m495 1062.1152h527" stroke="#181818"/><text font-family="sans-serif" font-size="13" lengthAdjust="spacing" textLength="57" x="502" y="1057.373">Log Error</text><path d="m506 1087.4258-10 4 10 4-4-4z" fill="#181818" stroke="#181818"/><path d="m500 1091.4258h532" stroke="#181818" stroke-dasharray="2 2"/><text font-family="sans-serif" font-size="13" lengthAdjust="spacing" textLength="80" x="512" y="1086.6836">Error Logged</text><text fill="#888" font-family="sans-serif" font-size="10" lengthAdjust="spacing" textLength="155" y="1188.582">Last Modified On: 23-Nov-2023</text></svg>
