<svg xmlns="http://www.w3.org/2000/svg" xmlns:xlink="http://www.w3.org/1999/xlink" contentStyleType="text/css" height="384px" preserveAspectRatio="none" style="width:1026px;height:384px;background:#F0F8FF;" version="1.1" viewBox="0 0 1026 384" width="1026px" zoomAndPan="magnify"><defs/><g><rect fill="#F0F8FF" height="384" style="stroke:none;stroke-width:1.0;" width="1026" x="0" y="0"/><rect fill="#FFFFFF" height="205.1738" style="stroke:#181818;stroke-width:1.0;" width="10" x="272.8384" y="110.1094"/><rect fill="#FFFFFF" height="146.5527" style="stroke:#181818;stroke-width:1.0;" width="10" x="564.6504" y="139.4199"/><rect fill="#FFFFFF" height="87.9316" style="stroke:#181818;stroke-width:1.0;" width="10" x="816.3579" y="168.7305"/><rect fill="#FFFFFF" height="29.3105" style="stroke:#181818;stroke-width:1.0;" width="10" x="965.9424" y="198.041"/><line style="stroke:#181818;stroke-width:0.5;stroke-dasharray:5.0,5.0;" x1="43" x2="43" y1="36.4883" y2="333.2832"/><line style="stroke:#181818;stroke-width:0.5;stroke-dasharray:5.0,5.0;" x1="276.8862" x2="276.8862" y1="36.4883" y2="333.2832"/><line style="stroke:#181818;stroke-width:0.5;stroke-dasharray:5.0,5.0;" x1="568.9282" x2="568.9282" y1="36.4883" y2="333.2832"/><line style="stroke:#181818;stroke-width:0.5;stroke-dasharray:5.0,5.0;" x1="821.2305" x2="821.2305" y1="36.4883" y2="333.2832"/><line style="stroke:#181818;stroke-width:0.5;stroke-dasharray:5.0,5.0;" x1="970.3579" x2="970.3579" y1="36.4883" y2="333.2832"/><rect fill="#DDDDDD" height="30.4883" rx="2.5" ry="2.5" style="stroke:#666666;stroke-width:0.5;" width="77.6016" x="5" y="5"/><text fill="#333333" font-family="sans-serif" font-size="14" lengthAdjust="spacing" textLength="63.6016" x="12" y="25.5352">Server.go</text><rect fill="#DDDDDD" height="30.4883" rx="2.5" ry="2.5" style="stroke:#666666;stroke-width:0.5;" width="77.6016" x="5" y="332.2832"/><text fill="#333333" font-family="sans-serif" font-size="14" lengthAdjust="spacing" textLength="63.6016" x="12" y="352.8184">Server.go</text><rect fill="#DDDDDD" height="30.4883" rx="2.5" ry="2.5" style="stroke:#666666;stroke-width:0.5;" width="139.9043" x="207.8862" y="5"/><text fill="#333333" font-family="sans-serif" font-size="14" lengthAdjust="spacing" textLength="125.9043" x="214.8862" y="25.5352">BlockValidation.go</text><rect fill="#DDDDDD" height="30.4883" rx="2.5" ry="2.5" style="stroke:#666666;stroke-width:0.5;" width="139.9043" x="207.8862" y="332.2832"/><text fill="#333333" font-family="sans-serif" font-size="14" lengthAdjust="spacing" textLength="125.9043" x="214.8862" y="352.8184">BlockValidation.go</text><rect fill="#DDDDDD" height="30.4883" rx="2.5" ry="2.5" style="stroke:#666666;stroke-width:0.5;" width="161.4443" x="488.9282" y="5"/><text fill="#333333" font-family="sans-serif" font-size="14" lengthAdjust="spacing" textLength="147.4443" x="495.9282" y="25.5352">validateBlockSubtrees</text><rect fill="#DDDDDD" height="30.4883" rx="2.5" ry="2.5" style="stroke:#666666;stroke-width:0.5;" width="161.4443" x="488.9282" y="332.2832"/><text fill="#333333" font-family="sans-serif" font-size="14" lengthAdjust="spacing" textLength="147.4443" x="495.9282" y="352.8184">validateBlockSubtrees</text><rect fill="#DDDDDD" height="30.4883" rx="2.5" ry="2.5" style="stroke:#666666;stroke-width:0.5;" width="118.2549" x="762.2305" y="5"/><text fill="#333333" font-family="sans-serif" font-size="14" lengthAdjust="spacing" textLength="104.2549" x="769.2305" y="25.5352">validateSubtree</text><rect fill="#DDDDDD" height="30.4883" rx="2.5" ry="2.5" style="stroke:#666666;stroke-width:0.5;" width="118.2549" x="762.2305" y="332.2832"/><text fill="#333333" font-family="sans-serif" font-size="14" lengthAdjust="spacing" textLength="104.2549" x="769.2305" y="352.8184">validateSubtree</text><rect fill="#DDDDDD" height="30.4883" rx="2.5" ry="2.5" style="stroke:#666666;stroke-width:0.5;" width="99.1689" x="921.3579" y="5"/><text fill="#333333" font-family="sans-serif" font-size="14" lengthAdjust="spacing" textLength="85.1689" x="928.3579" y="25.5352">TxMetaStore</text><rect fill="#DDDDDD" height="30.4883" rx="2.5" ry="2.5" style="stroke:#666666;stroke-width:0.5;" width="99.1689" x="921.3579" y="332.2832"/><text fill="#333333" font-family="sans-serif" font-size="14" lengthAdjust="spacing" textLength="85.1689" x="928.3579" y="352.8184">TxMetaStore</text><rect fill="#FFFFFF" height="205.1738" style="stroke:#181818;stroke-width:1.0;" width="10" x="272.8384" y="110.1094"/><rect fill="#FFFFFF" height="146.5527" style="stroke:#181818;stroke-width:1.0;" width="10" x="564.6504" y="139.4199"/><rect fill="#FFFFFF" height="87.9316" style="stroke:#181818;stroke-width:1.0;" width="10" x="816.3579" y="168.7305"/><rect fill="#FFFFFF" height="29.3105" style="stroke:#181818;stroke-width:1.0;" width="10" x="965.9424" y="198.041"/><line style="stroke:#666666;stroke-width:1.0;" x1="43.8008" x2="85.8008" y1="67.7988" y2="67.7988"/><line style="stroke:#666666;stroke-width:1.0;" x1="85.8008" x2="85.8008" y1="67.7988" y2="80.7988"/><line style="stroke:#666666;stroke-width:1.0;" x1="44.8008" x2="85.8008" y1="80.7988" y2="80.7988"/><polygon fill="#666666" points="54.8008,76.7988,44.8008,80.7988,54.8008,84.7988,50.8008,80.7988" style="stroke:#666666;stroke-width:1.0;"/><text fill="#333333" font-family="sans-serif" font-size="13" lengthAdjust="spacing" textLength="209.5107" x="50.8008" y="63.0566">catchup() or processBlockFound()</text><polygon fill="#666666" points="260.8384,106.1094,270.8384,110.1094,260.8384,114.1094,264.8384,110.1094" style="stroke:#666666;stroke-width:1.0;"/><line style="stroke:#666666;stroke-width:1.0;" x1="43.8008" x2="266.8384" y1="110.1094" y2="110.1094"/><text fill="#333333" font-family="sans-serif" font-size="13" lengthAdjust="spacing" textLength="210.0376" x="50.8008" y="105.3672">ValidateBlock(ctx, block, baseUrl)</text><polygon fill="#666666" points="552.6504,135.4199,562.6504,139.4199,552.6504,143.4199,556.6504,139.4199" style="stroke:#666666;stroke-width:1.0;"/><line style="stroke:#666666;stroke-width:1.0;" x1="282.8384" x2="558.6504" y1="139.4199" y2="139.4199"/><text fill="#333333" font-family="sans-serif" font-size="13" lengthAdjust="spacing" textLength="262.812" x="289.8384" y="134.6777">validateBlockSubtrees(ctx, block, baseUrl)</text><polygon fill="#666666" points="804.3579,164.7305,814.3579,168.7305,804.3579,172.7305,808.3579,168.7305" style="stroke:#666666;stroke-width:1.0;"/><line style="stroke:#666666;stroke-width:1.0;" x1="574.6504" x2="810.3579" y1="168.7305" y2="168.7305"/><text fill="#333333" font-family="sans-serif" font-size="13" lengthAdjust="spacing" textLength="222.7075" x="581.6504" y="163.9883">validateSubtree(ctx, block, baseUrl)</text><polygon fill="#666666" points="953.9424,194.041,963.9424,198.041,953.9424,202.041,957.9424,198.041" style="stroke:#666666;stroke-width:1.0;"/><line style="stroke:#666666;stroke-width:1.0;" x1="826.3579" x2="959.9424" y1="198.041" y2="198.041"/><text fill="#333333" font-family="sans-serif" font-size="13" lengthAdjust="spacing" textLength="59.1475" x="833.3579" y="193.2988">getMeta()</text><polygon fill="#666666" points="837.3579,223.3516,827.3579,227.3516,837.3579,231.3516,833.3579,227.3516" style="stroke:#666666;stroke-width:1.0;"/><line style="stroke:#666666;stroke-width:1.0;stroke-dasharray:2.0,2.0;" x1="831.3579" x2="969.9424" y1="227.3516" y2="227.3516"/><text fill="#333333" font-family="sans-serif" font-size="13" lengthAdjust="spacing" textLength="115.5845" x="843.3579" y="222.6094">Subtree Meta Data</text><polygon fill="#666666" points="585.6504,252.6621,575.6504,256.6621,585.6504,260.6621,581.6504,256.6621" style="stroke:#666666;stroke-width:1.0;"/><line style="stroke:#666666;stroke-width:1.0;stroke-dasharray:2.0,2.0;" x1="579.6504" x2="820.3579" y1="256.6621" y2="256.6621"/><text fill="#333333" font-family="sans-serif" font-size="13" lengthAdjust="spacing" textLength="110.8745" x="591.6504" y="251.9199">Subtree Validated</text><polygon fill="#666666" points="293.8384,281.9727,283.8384,285.9727,293.8384,289.9727,289.8384,285.9727" style="stroke:#666666;stroke-width:1.0;"/><line style="stroke:#666666;stroke-width:1.0;stroke-dasharray:2.0,2.0;" x1="287.8384" x2="568.6504" y1="285.9727" y2="285.9727"/><text fill="#333333" font-family="sans-serif" font-size="13" lengthAdjust="spacing" textLength="117.5015" x="299.8384" y="281.2305">Subtrees Validated</text><polygon fill="#666666" points="54.8008,311.2832,44.8008,315.2832,54.8008,319.2832,50.8008,315.2832" style="stroke:#666666;stroke-width:1.0;"/><line style="stroke:#666666;stroke-width:1.0;stroke-dasharray:2.0,2.0;" x1="48.8008" x2="276.8384" y1="315.2832" y2="315.2832"/><text fill="#333333" font-family="sans-serif" font-size="13" lengthAdjust="spacing" textLength="96.4336" x="60.8008" y="310.541">Block Validated</text><text fill="#333333" font-family="sans-serif" font-size="10" lengthAdjust="spacing" textLength="155.4346" x="0" y="374.4395">Last Modified On: 24-Feb-2025</text><!--SRC=[fLHDJ-Cm4BtxLuoA4Ab4qKf82FMm1wXo8jf35-vJUrAikd5bJxkjLllVST84dDJ02dn8Cc_UlFdmA7wbgmqwNCC2vMhfxBPIzzPO1sVvZ_mspuL_PIWgSMiujnMtbElcH1HqplvfdJVD4U82PbJgYc1XdIBdeGnUD0R8q9egzb5yC3KVuAy0k6lOVQs03gkSDKVy4v6A31KwQxuh4vwifTvWnL-J4YAM6Ct9xSXTBUq8qCFHwZFkZ9Mh9pHQ8MjRTTG1t8_P7N5gIFFjWXsHRyAUKfvqSEljXRLOF-3tlY36ELjt94Us4CUMOFApRMuA4ba-RpVP6C9aDivAyhuf9wy7betZc46NqtxzcUJz9Ipgp_12Ju_EZ0LArhj0EHcH601rWkGyff0Su2VfqgCLIJXEtM9lILlWFzDrLo86G9qYkeafB8bhAuiqUZSL6J19rTS9rpIO8QDGb9OwAUNzINUKpgrYqNTx70mpjIcltW-L1vTriY7HtZQ-jDh9fXagEVpJB8SrVa3FK5YbIqqAVeNIpck1RAJKf2YAoI6SqLYy0000]--></g></svg>
