<svg xmlns="http://www.w3.org/2000/svg" xmlns:xlink="http://www.w3.org/1999/xlink" contentStyleType="text/css" height="543px" preserveAspectRatio="none" style="width:958px;height:543px;background:#F0F8FF;" version="1.1" viewBox="0 0 958 543" width="958px" zoomAndPan="magnify"><defs/><g><rect fill="#F0F8FF" height="543" style="stroke:none;stroke-width:1.0;" width="958" x="0" y="0"/><rect fill="#FFFFFF" height="185.8633" style="stroke:#181818;stroke-width:1.0;" width="10" x="483.1182" y="119.5977"/><rect fill="#FFFFFF" height="29.3105" style="stroke:#181818;stroke-width:1.0;" width="10" x="792.7642" y="173.2188"/><rect fill="#FFFFFF" height="29.3105" style="stroke:#181818;stroke-width:1.0;" width="10" x="792.7642" y="392.0371"/><rect fill="none" height="118.2422" style="stroke:#000000;stroke-width:1.5;" width="629.292" x="322.5752" y="134.5977"/><rect fill="none" height="191.8184" style="stroke:#000000;stroke-width:1.5;" width="941.8672" x="10" y="266.8398"/><line style="stroke:#181818;stroke-width:0.5;stroke-dasharray:5.0,5.0;" x1="171" x2="171" y1="52.9766" y2="475.6582"/><line style="stroke:#181818;stroke-width:0.5;stroke-dasharray:5.0,5.0;" x1="487.5752" x2="487.5752" y1="52.9766" y2="475.6582"/><line style="stroke:#181818;stroke-width:0.5;stroke-dasharray:5.0,5.0;" x1="797.6611" x2="797.6611" y1="52.9766" y2="475.6582"/><rect fill="#DDDDDD" height="46.9766" rx="2.5" ry="2.5" style="stroke:#666666;stroke-width:0.5;" width="122.5752" x="110" y="5"/><text fill="#333333" font-family="sans-serif" font-size="14" lengthAdjust="spacing" textLength="108.5752" x="117" y="25.5352">Block Validation</text><text fill="#333333" font-family="sans-serif" font-size="14" lengthAdjust="spacing" textLength="47.332" x="147.6216" y="42.0234">Service</text><rect fill="#DDDDDD" height="46.9766" rx="2.5" ry="2.5" style="stroke:#666666;stroke-width:0.5;" width="122.5752" x="110" y="474.6582"/><text fill="#333333" font-family="sans-serif" font-size="14" lengthAdjust="spacing" textLength="108.5752" x="117" y="495.1934">Block Validation</text><text fill="#333333" font-family="sans-serif" font-size="14" lengthAdjust="spacing" textLength="47.332" x="147.6216" y="511.6816">Service</text><rect fill="#DDDDDD" height="46.9766" rx="2.5" ry="2.5" style="stroke:#666666;stroke-width:0.5;" width="131.0859" x="422.5752" y="5"/><text fill="#333333" font-family="sans-serif" font-size="14" lengthAdjust="spacing" textLength="100.3789" x="437.9287" y="25.5352">TX Meta Cache</text><text fill="#333333" font-family="sans-serif" font-size="14" lengthAdjust="spacing" textLength="117.0859" x="429.5752" y="42.0234">(txmetacache.go)</text><rect fill="#DDDDDD" height="46.9766" rx="2.5" ry="2.5" style="stroke:#666666;stroke-width:0.5;" width="131.0859" x="422.5752" y="474.6582"/><text fill="#333333" font-family="sans-serif" font-size="14" lengthAdjust="spacing" textLength="100.3789" x="437.9287" y="495.1934">TX Meta Cache</text><text fill="#333333" font-family="sans-serif" font-size="14" lengthAdjust="spacing" textLength="117.0859" x="429.5752" y="511.6816">(txmetacache.go)</text><rect fill="#DDDDDD" height="30.4883" rx="2.5" ry="2.5" style="stroke:#666666;stroke-width:0.5;" width="108.2061" x="743.6611" y="21.4883"/><text fill="#333333" font-family="sans-serif" font-size="14" lengthAdjust="spacing" textLength="94.2061" x="750.6611" y="42.0234">TX Meta Store</text><rect fill="#DDDDDD" height="30.4883" rx="2.5" ry="2.5" style="stroke:#666666;stroke-width:0.5;" width="108.2061" x="743.6611" y="474.6582"/><text fill="#333333" font-family="sans-serif" font-size="14" lengthAdjust="spacing" textLength="94.2061" x="750.6611" y="495.1934">TX Meta Store</text><rect fill="#FFFFFF" height="185.8633" style="stroke:#181818;stroke-width:1.0;" width="10" x="483.1182" y="119.5977"/><rect fill="#FFFFFF" height="29.3105" style="stroke:#181818;stroke-width:1.0;" width="10" x="792.7642" y="173.2188"/><rect fill="#FFFFFF" height="29.3105" style="stroke:#181818;stroke-width:1.0;" width="10" x="792.7642" y="392.0371"/><path d="M493,67.9766 L493,92.9766 L685,92.9766 L685,77.9766 L675,67.9766 L493,67.9766 " fill="#FEFFDD" style="stroke:#181818;stroke-width:0.5;"/><path d="M675,67.9766 L675,77.9766 L685,77.9766 L675,67.9766 " fill="#FEFFDD" style="stroke:#181818;stroke-width:0.5;"/><text fill="#333333" font-family="sans-serif" font-size="13" lengthAdjust="spacing" textLength="171.8755" x="499" y="85.5449">Cache with 15 minutes TTL</text><polygon fill="#666666" points="471.1182,115.5977,481.1182,119.5977,471.1182,123.5977,475.1182,119.5977" style="stroke:#666666;stroke-width:1.0;"/><line style="stroke:#666666;stroke-width:1.0;" x1="171.2876" x2="477.1182" y1="119.5977" y2="119.5977"/><text fill="#333333" font-family="sans-serif" font-size="13" lengthAdjust="spacing" textLength="59.8965" x="178.2876" y="114.8555">Get(hash)</text><path d="M322.5752,134.5977 L384.7139,134.5977 L384.7139,141.9082 L374.7139,151.9082 L322.5752,151.9082 L322.5752,134.5977 " fill="#EEEEEE" style="stroke:#000000;stroke-width:1.5;"/><rect fill="none" height="118.2422" style="stroke:#000000;stroke-width:1.5;" width="629.292" x="322.5752" y="134.5977"/><text fill="#333333" font-family="sans-serif" font-size="13" font-weight="bold" lengthAdjust="spacing" textLength="17.1387" x="337.5752" y="148.166">alt</text><text fill="#333333" font-family="sans-serif" font-size="11" font-weight="bold" lengthAdjust="spacing" textLength="71.6074" x="399.7139" y="147.2324">[Cache Miss]</text><polygon fill="#666666" points="780.7642,169.2188,790.7642,173.2188,780.7642,177.2188,784.7642,173.2188" style="stroke:#666666;stroke-width:1.0;"/><line style="stroke:#666666;stroke-width:1.0;" x1="493.1182" x2="786.7642" y1="173.2188" y2="173.2188"/><text fill="#333333" font-family="sans-serif" font-size="13" lengthAdjust="spacing" textLength="59.8965" x="500.1182" y="168.4766">Get(hash)</text><polygon fill="#666666" points="504.1182,198.5293,494.1182,202.5293,504.1182,206.5293,500.1182,202.5293" style="stroke:#666666;stroke-width:1.0;"/><line style="stroke:#666666;stroke-width:1.0;stroke-dasharray:2.0,2.0;" x1="498.1182" x2="796.7642" y1="202.5293" y2="202.5293"/><text fill="#333333" font-family="sans-serif" font-size="13" lengthAdjust="spacing" textLength="84.0239" x="510.1182" y="197.7871">TX Meta Data</text><line style="stroke:#666666;stroke-width:1.0;" x1="493.1182" x2="535.1182" y1="231.8398" y2="231.8398"/><line style="stroke:#666666;stroke-width:1.0;" x1="535.1182" x2="535.1182" y1="231.8398" y2="244.8398"/><line style="stroke:#666666;stroke-width:1.0;" x1="494.1182" x2="535.1182" y1="244.8398" y2="244.8398"/><polygon fill="#666666" points="504.1182,240.8398,494.1182,244.8398,504.1182,248.8398,500.1182,244.8398" style="stroke:#666666;stroke-width:1.0;"/><text fill="#333333" font-family="sans-serif" font-size="13" lengthAdjust="spacing" textLength="126.2803" x="500.1182" y="227.0977">Cache TX Meta Data</text><path d="M10,266.8398 L72.1387,266.8398 L72.1387,274.1504 L62.1387,284.1504 L10,284.1504 L10,266.8398 " fill="#EEEEEE" style="stroke:#000000;stroke-width:1.5;"/><rect fill="none" height="191.8184" style="stroke:#000000;stroke-width:1.5;" width="941.8672" x="10" y="266.8398"/><text fill="#333333" font-family="sans-serif" font-size="13" font-weight="bold" lengthAdjust="spacing" textLength="17.1387" x="25" y="280.4082">alt</text><text fill="#333333" font-family="sans-serif" font-size="11" font-weight="bold" lengthAdjust="spacing" textLength="62.2241" x="87.1387" y="279.4746">[Cache Hit]</text><polygon fill="#666666" points="182.2876,301.4609,172.2876,305.4609,182.2876,309.4609,178.2876,305.4609" style="stroke:#666666;stroke-width:1.0;"/><line style="stroke:#666666;stroke-width:1.0;stroke-dasharray:2.0,2.0;" x1="176.2876" x2="487.1182" y1="305.4609" y2="305.4609"/><text fill="#333333" font-family="sans-serif" font-size="13" lengthAdjust="spacing" textLength="129.9175" x="188.2876" y="300.7188">Return TX Meta Data</text><line style="stroke:#000000;stroke-width:1.0;stroke-dasharray:2.0,2.0;" x1="10" x2="951.8672" y1="314.4609" y2="314.4609"/><text fill="#333333" font-family="sans-serif" font-size="11" font-weight="bold" lengthAdjust="spacing" textLength="130.5767" x="15" y="325.0957">[Cached Data is Mined]</text><line style="stroke:#666666;stroke-width:1.0;" x1="488.1182" x2="530.1182" y1="349.7266" y2="349.7266"/><line style="stroke:#666666;stroke-width:1.0;" x1="530.1182" x2="530.1182" y1="349.7266" y2="362.7266"/><line style="stroke:#666666;stroke-width:1.0;" x1="489.1182" x2="530.1182" y1="362.7266" y2="362.7266"/><polygon fill="#666666" points="499.1182,358.7266,489.1182,362.7266,499.1182,366.7266,495.1182,362.7266" style="stroke:#666666;stroke-width:1.0;"/><text fill="#333333" font-family="sans-serif" font-size="13" lengthAdjust="spacing" textLength="115.5908" x="495.1182" y="344.9844">setMinedInCache()</text><polygon fill="#666666" points="780.7642,388.0371,790.7642,392.0371,780.7642,396.0371,784.7642,392.0371" style="stroke:#666666;stroke-width:1.0;"/><line style="stroke:#666666;stroke-width:1.0;" x1="488.1182" x2="786.7642" y1="392.0371" y2="392.0371"/><text fill="#333333" font-family="sans-serif" font-size="13" lengthAdjust="spacing" textLength="59.8965" x="495.1182" y="387.2949">Get(hash)</text><polygon fill="#666666" points="499.1182,417.3477,489.1182,421.3477,499.1182,425.3477,495.1182,421.3477" style="stroke:#666666;stroke-width:1.0;"/><line style="stroke:#666666;stroke-width:1.0;stroke-dasharray:2.0,2.0;" x1="493.1182" x2="796.7642" y1="421.3477" y2="421.3477"/><text fill="#333333" font-family="sans-serif" font-size="13" lengthAdjust="spacing" textLength="84.0239" x="505.1182" y="416.6055">TX Meta Data</text><polygon fill="#666666" points="182.2876,446.6582,172.2876,450.6582,182.2876,454.6582,178.2876,450.6582" style="stroke:#666666;stroke-width:1.0;"/><line style="stroke:#666666;stroke-width:1.0;stroke-dasharray:2.0,2.0;" x1="176.2876" x2="487.1182" y1="450.6582" y2="450.6582"/><text fill="#333333" font-family="sans-serif" font-size="13" lengthAdjust="spacing" textLength="186.8687" x="188.2876" y="445.916">Return Updated TX Meta Data</text><text fill="#333333" font-family="sans-serif" font-size="10" lengthAdjust="spacing" textLength="155.4346" x="0" y="533.3027">Last Modified On: 24-Feb-2025</text><!--SRC=[pPHFJnin4CNl_XIZL5MJGogggWWuz03HjfLO5K6AE70PrhDPAuuTsHF-gEAxC-kanBk0IjjBVLXfF6z-VdwxsZWtRea15t25rNmM_Chf8szzW3V5Jh5N52e-AZJLkB9SUCSRoSUqCWc6u6yspTsqb7e74wgD8xZoGLE8K4iNhGMoj237CPkNql0T_5G0XqdTPSbkt-KaBNMlCaeb3eEt_ugH9vlABD7ntw5KJZlPqavGQ-DciB-ZL7x8uD3wQWxdQ8r6DjvTkZCArwQY0M24rDqskwFJ2oY94OwmQkZI3Vbs8MNLLkzdVfG0qzjMaXJF3v-n3vH9KwsKyqmGpAnXy7LEELWV1pU66_Zm2HR6hPXaUdgiLCykZ3ztHxyG3nkCpKXXnUOQvOpSe4BB6tnfOfIa8UzlSSbaZckLFUJw8bj4gc7Sj_GhXmao9hMcPq4lc-d4qi6Hq_cTlXf-IX5CBxK3E2LU1VSAQ-lOo4PQ7w6J5aoK_1pfttgEn4dupQMDuUY_YlnFilgnb0sv_wipQr-DfPhbroIVUe1ZZ0obrwOsWlakvBSjSJZGUboMvVXErc2a7W00]--></g></svg>
