<svg xmlns="http://www.w3.org/2000/svg" xmlns:xlink="http://www.w3.org/1999/xlink" contentStyleType="text/css" height="430px" preserveAspectRatio="none" style="width:608px;height:430px;background:#F0F8FF;" version="1.1" viewBox="0 0 608 430" width="608px" zoomAndPan="magnify"><defs/><g><rect fill="#F0F8FF" height="430" style="stroke:none;stroke-width:1.0;" width="608" x="0" y="0"/><line style="stroke:#181818;stroke-width:0.5;stroke-dasharray:5.0,5.0;" x1="84" x2="84" y1="81.4883" y2="334.6621"/><line style="stroke:#181818;stroke-width:0.5;stroke-dasharray:5.0,5.0;" x1="234.3301" x2="234.3301" y1="81.4883" y2="334.6621"/><line style="stroke:#181818;stroke-width:0.5;stroke-dasharray:5.0,5.0;" x1="396.269" x2="396.269" y1="81.4883" y2="334.6621"/><line style="stroke:#181818;stroke-width:0.5;stroke-dasharray:5.0,5.0;" x1="527.4751" x2="527.4751" y1="81.4883" y2="334.6621"/><text fill="#333333" font-family="sans-serif" font-size="14" lengthAdjust="spacing" textLength="153.3301" x="5" y="78.5352">Block Validator Service</text><ellipse cx="84.665" cy="13.5" fill="#E2E2F0" rx="8" ry="8" style="stroke:#181818;stroke-width:0.5;"/><path d="M84.665,21.5 L84.665,48.5 M71.665,29.5 L97.665,29.5 M84.665,48.5 L71.665,63.5 M84.665,48.5 L97.665,63.5 " fill="none" style="stroke:#181818;stroke-width:0.5;"/><text fill="#333333" font-family="sans-serif" font-size="14" lengthAdjust="spacing" textLength="153.3301" x="5" y="347.1973">Block Validator Service</text><ellipse cx="84.665" cy="358.6504" fill="#E2E2F0" rx="8" ry="8" style="stroke:#181818;stroke-width:0.5;"/><path d="M84.665,366.6504 L84.665,393.6504 M71.665,374.6504 L97.665,374.6504 M84.665,393.6504 L71.665,408.6504 M84.665,393.6504 L97.665,408.6504 " fill="none" style="stroke:#181818;stroke-width:0.5;"/><rect fill="#DDDDDD" height="46.9766" rx="2.5" ry="2.5" style="stroke:#666666;stroke-width:0.5;" width="121.8779" x="174.3301" y="33.5117"/><text fill="#333333" font-family="sans-serif" font-size="14" lengthAdjust="spacing" textLength="106.6338" x="181.9521" y="54.0469">TX Meta Service</text><text fill="#333333" font-family="sans-serif" font-size="14" lengthAdjust="spacing" textLength="107.8779" x="181.3301" y="70.5352">(gRPC Interface)</text><rect fill="#DDDDDD" height="46.9766" rx="2.5" ry="2.5" style="stroke:#666666;stroke-width:0.5;" width="121.8779" x="174.3301" y="333.6621"/><text fill="#333333" font-family="sans-serif" font-size="14" lengthAdjust="spacing" textLength="106.6338" x="181.9521" y="354.1973">TX Meta Service</text><text fill="#333333" font-family="sans-serif" font-size="14" lengthAdjust="spacing" textLength="107.8779" x="181.3301" y="370.6855">(gRPC Interface)</text><rect fill="#DDDDDD" height="30.4883" rx="2.5" ry="2.5" style="stroke:#666666;stroke-width:0.5;" width="108.2061" x="342.269" y="50"/><text fill="#333333" font-family="sans-serif" font-size="14" lengthAdjust="spacing" textLength="94.2061" x="349.269" y="70.5352">TX Meta Store</text><rect fill="#DDDDDD" height="30.4883" rx="2.5" ry="2.5" style="stroke:#666666;stroke-width:0.5;" width="108.2061" x="342.269" y="333.6621"/><text fill="#333333" font-family="sans-serif" font-size="14" lengthAdjust="spacing" textLength="94.2061" x="349.269" y="354.1973">TX Meta Store</text><text fill="#333333" font-family="sans-serif" font-size="14" lengthAdjust="spacing" textLength="129.8281" x="460.4751" y="78.5352">DB Implementation</text><path d="M510.3892,29 C510.3892,19 528.3892,19 528.3892,19 C528.3892,19 546.3892,19 546.3892,29 L546.3892,55 C546.3892,65 528.3892,65 528.3892,65 C528.3892,65 510.3892,65 510.3892,55 L510.3892,29 " fill="#E2E2F0" style="stroke:#181818;stroke-width:1.5;"/><path d="M510.3892,29 C510.3892,39 528.3892,39 528.3892,39 C528.3892,39 546.3892,39 546.3892,29 " fill="none" style="stroke:#181818;stroke-width:1.5;"/><text fill="#333333" font-family="sans-serif" font-size="14" lengthAdjust="spacing" textLength="129.8281" x="460.4751" y="347.1973">DB Implementation</text><path d="M510.3892,360.1504 C510.3892,350.1504 528.3892,350.1504 528.3892,350.1504 C528.3892,350.1504 546.3892,350.1504 546.3892,360.1504 L546.3892,386.1504 C546.3892,396.1504 528.3892,396.1504 528.3892,396.1504 C528.3892,396.1504 510.3892,396.1504 510.3892,386.1504 L510.3892,360.1504 " fill="#E2E2F0" style="stroke:#181818;stroke-width:1.5;"/><path d="M510.3892,360.1504 C510.3892,370.1504 528.3892,370.1504 528.3892,370.1504 C528.3892,370.1504 546.3892,370.1504 546.3892,360.1504 " fill="none" style="stroke:#181818;stroke-width:1.5;"/><rect fill="#EEEEEE" height="3" style="stroke:#EEEEEE;stroke-width:1.0;" width="601.3032" x="0" y="112.1436"/><line style="stroke:#000000;stroke-width:1.0;" x1="0" x2="601.3032" y1="112.1436" y2="112.1436"/><line style="stroke:#000000;stroke-width:1.0;" x1="0" x2="601.3032" y1="115.1436" y2="115.1436"/><rect fill="#EEEEEE" height="23.3105" style="stroke:#000000;stroke-width:2.0;" width="495.457" x="52.9231" y="101.4883"/><text fill="#333333" font-family="sans-serif" font-size="13" font-weight="bold" lengthAdjust="spacing" textLength="477.1724" x="58.9231" y="118.0566">Scenario 1: Block Validator -&gt; TX Meta Service -&gt; TX Meta Store -&gt; DB</text><polygon fill="#666666" points="223.269,152.1094,233.269,156.1094,223.269,160.1094,227.269,156.1094" style="stroke:#666666;stroke-width:1.0;"/><line style="stroke:#666666;stroke-width:1.0;" x1="84.665" x2="229.269" y1="156.1094" y2="156.1094"/><text fill="#333333" font-family="sans-serif" font-size="13" lengthAdjust="spacing" textLength="120.3008" x="91.665" y="151.3672">gRPC Call (Get/Set)</text><polygon fill="#666666" points="384.3721,181.4199,394.3721,185.4199,384.3721,189.4199,388.3721,185.4199" style="stroke:#666666;stroke-width:1.0;"/><line style="stroke:#666666;stroke-width:1.0;" x1="235.269" x2="390.3721" y1="185.4199" y2="185.4199"/><text fill="#333333" font-family="sans-serif" font-size="13" lengthAdjust="spacing" textLength="137.103" x="242.269" y="180.6777">Invoke Store Interface</text><polygon fill="#666666" points="516.3892,210.7305,526.3892,214.7305,516.3892,218.7305,520.3892,214.7305" style="stroke:#666666;stroke-width:1.0;"/><line style="stroke:#666666;stroke-width:1.0;" x1="396.3721" x2="522.3892" y1="214.7305" y2="214.7305"/><text fill="#333333" font-family="sans-serif" font-size="13" lengthAdjust="spacing" textLength="88.9941" x="403.3721" y="209.9883">Query/Update</text><rect fill="#EEEEEE" height="3" style="stroke:#EEEEEE;stroke-width:1.0;" width="601.3032" x="0" y="243.3857"/><line style="stroke:#000000;stroke-width:1.0;" x1="0" x2="601.3032" y1="243.3857" y2="243.3857"/><line style="stroke:#000000;stroke-width:1.0;" x1="0" x2="601.3032" y1="246.3857" y2="246.3857"/><rect fill="#EEEEEE" height="23.3105" style="stroke:#000000;stroke-width:2.0;" width="362.2769" x="119.5132" y="232.7305"/><text fill="#333333" font-family="sans-serif" font-size="13" font-weight="bold" lengthAdjust="spacing" textLength="343.9922" x="125.5132" y="249.2988">Scenario 2: Block Validator -&gt; TX Meta Store -&gt; DB</text><polygon fill="#666666" points="384.3721,283.3516,394.3721,287.3516,384.3721,291.3516,388.3721,287.3516" style="stroke:#666666;stroke-width:1.0;"/><line style="stroke:#666666;stroke-width:1.0;" x1="84.665" x2="390.3721" y1="287.3516" y2="287.3516"/><text fill="#333333" font-family="sans-serif" font-size="13" lengthAdjust="spacing" textLength="202.7251" x="91.665" y="282.6094">Direct Store Access (Get/Create)</text><polygon fill="#666666" points="516.3892,312.6621,526.3892,316.6621,516.3892,320.6621,520.3892,316.6621" style="stroke:#666666;stroke-width:1.0;"/><line style="stroke:#666666;stroke-width:1.0;" x1="396.3721" x2="522.3892" y1="316.6621" y2="316.6621"/><text fill="#333333" font-family="sans-serif" font-size="13" lengthAdjust="spacing" textLength="88.9941" x="403.3721" y="311.9199">Query/Update</text><text fill="#333333" font-family="sans-serif" font-size="10" lengthAdjust="spacing" textLength="155.4346" x="0" y="420.8184">Last Modified On: 24-Feb-2025</text><!--SRC=[fPBVQy8m4CVVyrSS7MFw8Eu7Z55mi5ewX9Nzg1CVzdAcLmd6H9BeaB7_VMdiH0KtsEwXaBllVUzpJUnCg0KQdCC4-Mngz5ALVIsrWPFiFBl9CcQtYf8gN4gNQUKQoLM87GaQez-RudK8niuWfKeeWeas9HaBbQ-Yb42IvgIStUdtH-7MyC40ag3Uz_BPGyeq1FjaEoxS4nej_slZlqvmiK3b_cR567BdKr4YDP_12AKeiKuKP5Q2KmHe8HaLR7TID1n3JWw_HM-gDNrvwiD0EJ8LScg7jk4uFzRd9z1MKn-OdueJj0HHci1WljZyU7H2go1C4yPwFIWuAJH2mqKCXyYTMpW0sqlLO-g4z-_rcDzfKyqBY27Wz-iRRzsJwnRasYoK6adeZVs2ApsZncgxBTigDkunF2_9hBkl2yz5-zYNFsCVPMm0Kc68kqPtnpbPko7k6_Apsh-XIAgSVzpQayC3MWUvBaKbg8H75SDfBMf5PTd9yxopzX6rsHS0]--></g></svg>
