<svg contentStyleType="text/css" height="384" preserveAspectRatio="none" viewBox="0 0 1026 384" width="1026" xmlns="http://www.w3.org/2000/svg" zoomAndPan="magnify"><path d="m0 0h1026v384h-1026z" fill="#f0f8ff"/><g stroke="#181818"><path d="m272.8384 110.1094h10v205.1738h-10z" fill="#fff"/><path d="m564.6504 139.4199h10v146.5527h-10z" fill="#fff"/><path d="m816.3579 168.7305h10v87.9316h-10z" fill="#fff"/><path d="m965.9424 198.041h10v29.3105h-10z" fill="#fff"/><path d="m43 36.4883v296.7949" stroke-dasharray="5 5" stroke-width=".5"/><path d="m276.8862 36.4883v296.7949" stroke-dasharray="5 5" stroke-width=".5"/><path d="m568.9282 36.4883v296.7949" stroke-dasharray="5 5" stroke-width=".5"/><path d="m821.2305 36.4883v296.7949" stroke-dasharray="5 5" stroke-width=".5"/><path d="m970.3579 36.4883v296.7949" stroke-dasharray="5 5" stroke-width=".5"/></g><rect fill="#ddd" height="30.4883" rx="2.5" stroke="#666" stroke-width=".5" width="77.6016" x="5" y="5"/><text fill="#333" font-family="sans-serif" font-size="14" lengthAdjust="spacing" textLength="63.6016" x="12" y="25.5352">Server.go</text><rect fill="#ddd" height="30.4883" rx="2.5" stroke="#666" stroke-width=".5" width="77.6016" x="5" y="332.2832"/><text fill="#333" font-family="sans-serif" font-size="14" lengthAdjust="spacing" textLength="63.6016" x="12" y="352.8184">Server.go</text><rect fill="#ddd" height="30.4883" rx="2.5" stroke="#666" stroke-width=".5" width="139.9043" x="207.8862" y="5"/><text fill="#333" font-family="sans-serif" font-size="14" lengthAdjust="spacing" textLength="125.9043" x="214.8862" y="25.5352">BlockValidation.go</text><rect fill="#ddd" height="30.4883" rx="2.5" stroke="#666" stroke-width=".5" width="139.9043" x="207.8862" y="332.2832"/><text fill="#333" font-family="sans-serif" font-size="14" lengthAdjust="spacing" textLength="125.9043" x="214.8862" y="352.8184">BlockValidation.go</text><rect fill="#ddd" height="30.4883" rx="2.5" stroke="#666" stroke-width=".5" width="161.4443" x="488.9282" y="5"/><text fill="#333" font-family="sans-serif" font-size="14" lengthAdjust="spacing" textLength="147.4443" x="495.9282" y="25.5352">validateBlockSubtrees</text><rect fill="#ddd" height="30.4883" rx="2.5" stroke="#666" stroke-width=".5" width="161.4443" x="488.9282" y="332.2832"/><text fill="#333" font-family="sans-serif" font-size="14" lengthAdjust="spacing" textLength="147.4443" x="495.9282" y="352.8184">validateBlockSubtrees</text><rect fill="#ddd" height="30.4883" rx="2.5" stroke="#666" stroke-width=".5" width="118.2549" x="762.2305" y="5"/><text fill="#333" font-family="sans-serif" font-size="14" lengthAdjust="spacing" textLength="104.2549" x="769.2305" y="25.5352">validateSubtree</text><rect fill="#ddd" height="30.4883" rx="2.5" stroke="#666" stroke-width=".5" width="118.2549" x="762.2305" y="332.2832"/><text fill="#333" font-family="sans-serif" font-size="14" lengthAdjust="spacing" textLength="104.2549" x="769.2305" y="352.8184">validateSubtree</text><rect fill="#ddd" height="30.4883" rx="2.5" stroke="#666" stroke-width=".5" width="99.1689" x="921.3579" y="5"/><text fill="#333" font-family="sans-serif" font-size="14" lengthAdjust="spacing" textLength="85.1689" x="928.3579" y="25.5352">TxMetaStore</text><rect fill="#ddd" height="30.4883" rx="2.5" stroke="#666" stroke-width=".5" width="99.1689" x="921.3579" y="332.2832"/><text fill="#333" font-family="sans-serif" font-size="14" lengthAdjust="spacing" textLength="85.1689" x="928.3579" y="352.8184">TxMetaStore</text><path d="m272.8384 110.1094h10v205.1738h-10z" fill="#fff" stroke="#181818"/><path d="m564.6504 139.4199h10v146.5527h-10z" fill="#fff" stroke="#181818"/><path d="m816.3579 168.7305h10v87.9316h-10z" fill="#fff" stroke="#181818"/><path d="m965.9424 198.041h10v29.3105h-10z" fill="#fff" stroke="#181818"/><path d="m43.8008 67.7988h42" stroke="#666"/><path d="m85.8008 67.7988v13" stroke="#666"/><path d="m44.8008 80.7988h41" stroke="#666"/><path d="m54.8008 76.7988-10 4 10 4-4-4z" fill="#666" stroke="#666"/><text fill="#333" font-family="sans-serif" font-size="13" lengthAdjust="spacing" textLength="209.5107" x="50.8008" y="63.0566">catchup() or processBlockFound()</text><path d="m260.8384 106.1094 10 4-10 4 4-4z" fill="#666" stroke="#666"/><path d="m43.8008 110.1094h223.0376" stroke="#666"/><text fill="#333" font-family="sans-serif" font-size="13" lengthAdjust="spacing" textLength="210.0376" x="50.8008" y="105.3672">ValidateBlock(ctx, block, baseUrl)</text><path d="m552.6504 135.4199 10 4-10 4 4-4z" fill="#666" stroke="#666"/><path d="m282.8384 139.4199h275.812" stroke="#666"/><text fill="#333" font-family="sans-serif" font-size="13" lengthAdjust="spacing" textLength="262.812" x="289.8384" y="134.6777">validateBlockSubtrees(ctx, block, baseUrl)</text><path d="m804.3579 164.7305 10 4-10 4 4-4z" fill="#666" stroke="#666"/><path d="m574.6504 168.7305h235.7075" stroke="#666"/><text fill="#333" font-family="sans-serif" font-size="13" lengthAdjust="spacing" textLength="222.7075" x="581.6504" y="163.9883">validateSubtree(ctx, block, baseUrl)</text><path d="m953.9424 194.041 10 4-10 4 4-4z" fill="#666" stroke="#666"/><path d="m826.3579 198.041h133.5845" stroke="#666"/><text fill="#333" font-family="sans-serif" font-size="13" lengthAdjust="spacing" textLength="59.1475" x="833.3579" y="193.2988">getMeta()</text><path d="m837.3579 223.3516-10 4 10 4-4-4z" fill="#666" stroke="#666"/><path d="m831.3579 227.3516h138.5845" stroke="#666" stroke-dasharray="2 2"/><text fill="#333" font-family="sans-serif" font-size="13" lengthAdjust="spacing" textLength="115.5845" x="843.3579" y="222.6094">Subtree Meta Data</text><path d="m585.6504 252.6621-10 4 10 4-4-4z" fill="#666" stroke="#666"/><path d="m579.6504 256.6621h240.7075" stroke="#666" stroke-dasharray="2 2"/><text fill="#333" font-family="sans-serif" font-size="13" lengthAdjust="spacing" textLength="110.8745" x="591.6504" y="251.9199">Subtree Validated</text><path d="m293.8384 281.9727-10 4 10 4-4-4z" fill="#666" stroke="#666"/><path d="m287.8384 285.9727h280.812" stroke="#666" stroke-dasharray="2 2"/><text fill="#333" font-family="sans-serif" font-size="13" lengthAdjust="spacing" textLength="117.5015" x="299.8384" y="281.2305">Subtrees Validated</text><path d="m54.8008 311.2832-10 4 10 4-4-4z" fill="#666" stroke="#666"/><path d="m48.8008 315.2832h228.0376" stroke="#666" stroke-dasharray="2 2"/><text fill="#333" font-family="sans-serif" font-size="13" lengthAdjust="spacing" textLength="96.4336" x="60.8008" y="310.541">Block Validated</text><text fill="#333" font-family="sans-serif" font-size="10" lengthAdjust="spacing" textLength="155.4346" y="374.4395">Last Modified On: 24-Feb-2025</text></svg>
