<svg contentStyleType="text/css" height="430" preserveAspectRatio="none" viewBox="0 0 608 430" width="608" xmlns="http://www.w3.org/2000/svg" zoomAndPan="magnify"><path d="m0 0h608v430h-608z" fill="#f0f8ff"/><g stroke="#181818"><path d="m84 81.4883v253.1738" stroke-dasharray="5 5" stroke-width=".5"/><path d="m234.3301 81.4883v253.1738" stroke-dasharray="5 5" stroke-width=".5"/><path d="m396.269 81.4883v253.1738" stroke-dasharray="5 5" stroke-width=".5"/><path d="m527.4751 81.4883v253.1738" stroke-dasharray="5 5" stroke-width=".5"/></g><text fill="#333" font-family="sans-serif" font-size="14" lengthAdjust="spacing" textLength="153.3301" x="5" y="78.5352">Block Validator Service</text><ellipse cx="84.665" cy="13.5" fill="#e2e2f0" rx="8" ry="8" stroke="#181818" stroke-width=".5"/><path d="m84.665 21.5v27m-13-19h26m-13 19-13 15m13-15 13 15" fill="none" stroke="#181818" stroke-width=".5"/><text fill="#333" font-family="sans-serif" font-size="14" lengthAdjust="spacing" textLength="153.3301" x="5" y="347.1973">Block Validator Service</text><ellipse cx="84.665" cy="358.6504" fill="#e2e2f0" rx="8" ry="8" stroke="#181818" stroke-width=".5"/><path d="m84.665 366.6504v27m-13-19h26m-13 19-13 15m13-15 13 15" fill="none" stroke="#181818" stroke-width=".5"/><rect fill="#ddd" height="46.9766" rx="2.5" stroke="#666" stroke-width=".5" width="121.8779" x="174.3301" y="33.5117"/><text fill="#333" font-family="sans-serif" font-size="14" lengthAdjust="spacing" textLength="106.6338" x="181.9521" y="54.0469">TX Meta Service</text><text fill="#333" font-family="sans-serif" font-size="14" lengthAdjust="spacing" textLength="107.8779" x="181.3301" y="70.5352">(gRPC Interface)</text><rect fill="#ddd" height="46.9766" rx="2.5" stroke="#666" stroke-width=".5" width="121.8779" x="174.3301" y="333.6621"/><text fill="#333" font-family="sans-serif" font-size="14" lengthAdjust="spacing" textLength="106.6338" x="181.9521" y="354.1973">TX Meta Service</text><text fill="#333" font-family="sans-serif" font-size="14" lengthAdjust="spacing" textLength="107.8779" x="181.3301" y="370.6855">(gRPC Interface)</text><rect fill="#ddd" height="30.4883" rx="2.5" stroke="#666" stroke-width=".5" width="108.2061" x="342.269" y="50"/><text fill="#333" font-family="sans-serif" font-size="14" lengthAdjust="spacing" textLength="94.2061" x="349.269" y="70.5352">TX Meta Store</text><rect fill="#ddd" height="30.4883" rx="2.5" stroke="#666" stroke-width=".5" width="108.2061" x="342.269" y="333.6621"/><text fill="#333" font-family="sans-serif" font-size="14" lengthAdjust="spacing" textLength="94.2061" x="349.269" y="354.1973">TX Meta Store</text><text fill="#333" font-family="sans-serif" font-size="14" lengthAdjust="spacing" textLength="129.8281" x="460.4751" y="78.5352">DB Implementation</text><path d="m510.3892 29c0-10 18-10 18-10s18 0 18 10v26c0 10-18 10-18 10s-18 0-18-10z" fill="#e2e2f0" stroke="#181818" stroke-width="1.5"/><path d="m510.3892 29c0 10 18 10 18 10s18 0 18-10" fill="none" stroke="#181818" stroke-width="1.5"/><text fill="#333" font-family="sans-serif" font-size="14" lengthAdjust="spacing" textLength="129.8281" x="460.4751" y="347.1973">DB Implementation</text><path d="m510.3892 360.1504c0-10 18-10 18-10s18 0 18 10v26c0 10-18 10-18 10s-18 0-18-10z" fill="#e2e2f0" stroke="#181818" stroke-width="1.5"/><path d="m510.3892 360.1504c0 10 18 10 18 10s18 0 18-10" fill="none" stroke="#181818" stroke-width="1.5"/><path d="m0 112.1436h601.3032v3h-601.3032z" fill="#eee" stroke="#eee"/><path d="m0 112.1436h601.3032" stroke="#000"/><path d="m0 115.1436h601.3032" stroke="#000"/><path d="m52.9231 101.4883h495.457v23.3105h-495.457z" fill="#eee" stroke="#000" stroke-width="2"/><text fill="#333" font-family="sans-serif" font-size="13" font-weight="bold" lengthAdjust="spacing" textLength="477.1724" x="58.9231" y="118.0566">Scenario 1: Block Validator -&gt; TX Meta Service -&gt; TX Meta Store -&gt; DB</text><path d="m223.269 152.1094 10 4-10 4 4-4z" fill="#666" stroke="#666"/><path d="m84.665 156.1094h144.604" stroke="#666"/><text fill="#333" font-family="sans-serif" font-size="13" lengthAdjust="spacing" textLength="120.3008" x="91.665" y="151.3672">gRPC Call (Get/Set)</text><path d="m384.3721 181.4199 10 4-10 4 4-4z" fill="#666" stroke="#666"/><path d="m235.269 185.4199h155.1031" stroke="#666"/><text fill="#333" font-family="sans-serif" font-size="13" lengthAdjust="spacing" textLength="137.103" x="242.269" y="180.6777">Invoke Store Interface</text><path d="m516.3892 210.7305 10 4-10 4 4-4z" fill="#666" stroke="#666"/><path d="m396.3721 214.7305h126.0171" stroke="#666"/><text fill="#333" font-family="sans-serif" font-size="13" lengthAdjust="spacing" textLength="88.9941" x="403.3721" y="209.9883">Query/Update</text><path d="m0 243.3857h601.3032v3h-601.3032z" fill="#eee" stroke="#eee"/><path d="m0 243.3857h601.3032" stroke="#000"/><path d="m0 246.3857h601.3032" stroke="#000"/><path d="m119.5132 232.7305h362.2769v23.3105h-362.2769z" fill="#eee" stroke="#000" stroke-width="2"/><text fill="#333" font-family="sans-serif" font-size="13" font-weight="bold" lengthAdjust="spacing" textLength="343.9922" x="125.5132" y="249.2988">Scenario 2: Block Validator -&gt; TX Meta Store -&gt; DB</text><path d="m384.3721 283.3516 10 4-10 4 4-4z" fill="#666" stroke="#666"/><path d="m84.665 287.3516h305.7071" stroke="#666"/><text fill="#333" font-family="sans-serif" font-size="13" lengthAdjust="spacing" textLength="202.7251" x="91.665" y="282.6094">Direct Store Access (Get/Create)</text><path d="m516.3892 312.6621 10 4-10 4 4-4z" fill="#666" stroke="#666"/><path d="m396.3721 316.6621h126.0171" stroke="#666"/><text fill="#333" font-family="sans-serif" font-size="13" lengthAdjust="spacing" textLength="88.9941" x="403.3721" y="311.9199">Query/Update</text><text fill="#333" font-family="sans-serif" font-size="10" lengthAdjust="spacing" textLength="155.4346" y="420.8184">Last Modified On: 24-Feb-2025</text></svg>
