<svg contentStyleType="text/css" height="430" preserveAspectRatio="none" viewBox="0 0 610 430" width="610" xmlns="http://www.w3.org/2000/svg" zoomAndPan="magnify"><g stroke="#181818" stroke-dasharray="5 5" stroke-width=".5"><path d="m85 81.4883v253.1738"/><path d="m237 81.4883v253.1738"/><path d="m397.5 81.4883v253.1738"/><path d="m530.5 81.4883v253.1738"/></g><text font-family="sans-serif" font-size="14" lengthAdjust="spacing" textLength="154" x="5" y="78.5352">Block Validator Service</text><ellipse cx="85" cy="13.5" fill="#e2e2f0" rx="8" ry="8" stroke="#181818" stroke-width=".5"/><path d="m85 21.5v27m-13-19h26m-13 19-13 15m13-15 13 15" fill="none" stroke="#181818" stroke-width=".5"/><text font-family="sans-serif" font-size="14" lengthAdjust="spacing" textLength="154" x="5" y="347.1973">Block Validator Service</text><g stroke="#181818" stroke-width=".5"><ellipse cx="85" cy="358.6504" fill="#e2e2f0" rx="8" ry="8"/><path d="m85 366.6504v27m-13-19h26m-13 19-13 15m13-15 13 15" fill="none"/><rect fill="#e2e2f0" height="46.9766" rx="2.5" width="124" x="175" y="33.5117"/></g><text font-family="sans-serif" font-size="14" lengthAdjust="spacing" textLength="107" x="183.5" y="54.0469">TX Meta Service</text><text font-family="sans-serif" font-size="14" lengthAdjust="spacing" textLength="110" x="182" y="70.5352">(gRPC Interface)</text><rect fill="#e2e2f0" height="46.9766" rx="2.5" stroke="#181818" stroke-width=".5" width="124" x="175" y="333.6621"/><text font-family="sans-serif" font-size="14" lengthAdjust="spacing" textLength="107" x="183.5" y="354.1973">TX Meta Service</text><text font-family="sans-serif" font-size="14" lengthAdjust="spacing" textLength="110" x="182" y="370.6855">(gRPC Interface)</text><rect fill="#e2e2f0" height="30.4883" rx="2.5" stroke="#181818" stroke-width=".5" width="109" x="343.5" y="50"/><text font-family="sans-serif" font-size="14" lengthAdjust="spacing" textLength="95" x="350.5" y="70.5352">TX Meta Store</text><rect fill="#e2e2f0" height="30.4883" rx="2.5" stroke="#181818" stroke-width=".5" width="109" x="343.5" y="333.6621"/><text font-family="sans-serif" font-size="14" lengthAdjust="spacing" textLength="95" x="350.5" y="354.1973">TX Meta Store</text><text font-family="sans-serif" font-size="14" lengthAdjust="spacing" textLength="130" x="462.5" y="78.5352">DB Implementation</text><path d="m512.5 29c0-10 18-10 18-10s18 0 18 10v26c0 10-18 10-18 10s-18 0-18-10z" fill="#e2e2f0" stroke="#181818" stroke-width="1.5"/><path d="m512.5 29c0 10 18 10 18 10s18 0 18-10" fill="none" stroke="#181818" stroke-width="1.5"/><text font-family="sans-serif" font-size="14" lengthAdjust="spacing" textLength="130" x="462.5" y="347.1973">DB Implementation</text><path d="m512.5 360.1504c0-10 18-10 18-10s18 0 18 10v26c0 10-18 10-18 10s-18 0-18-10z" fill="#e2e2f0" stroke="#181818" stroke-width="1.5"/><path d="m512.5 360.1504c0 10 18 10 18 10s18 0 18-10" fill="none" stroke="#181818" stroke-width="1.5"/><path d="m0 112.1436h603.5v3h-603.5z" fill="#eee" stroke="#eee"/><g stroke="#000"><path d="m0 112.1436h603.5"/><path d="m0 115.1436h603.5"/><path d="m56.25 101.4883h491v23.3105h-491z" fill="#eee" stroke-width="2"/></g><text font-family="sans-serif" font-size="13" font-weight="bold" lengthAdjust="spacing" textLength="473" x="62.25" y="118.0566">Scenario 1: Block Validator -&gt; TX Meta Service -&gt; TX Meta Store -&gt; DB</text><path d="m225 152.1094 10 4-10 4 4-4z" fill="#181818" stroke="#181818"/><path d="m85 156.1094h146" stroke="#181818"/><text font-family="sans-serif" font-size="13" lengthAdjust="spacing" textLength="119" x="92" y="151.3672">gRPC Call (Get/Set)</text><path d="m386 181.4199 10 4-10 4 4-4z" fill="#181818" stroke="#181818"/><path d="m237 185.4199h155" stroke="#181818"/><text font-family="sans-serif" font-size="13" lengthAdjust="spacing" textLength="137" x="244" y="180.6777">Invoke Store Interface</text><path d="m518.5 210.7305 10 4-10 4 4-4z" fill="#181818" stroke="#181818"/><path d="m398 214.7305h126.5" stroke="#181818"/><text font-family="sans-serif" font-size="13" lengthAdjust="spacing" textLength="88" x="405" y="209.9883">Query/Update</text><path d="m0 243.3857h603.5v3h-603.5z" fill="#eee" stroke="#eee"/><path d="m0 243.3857h603.5" stroke="#000"/><path d="m0 246.3857h603.5" stroke="#000"/><path d="m122.75 232.7305h358v23.3105h-358z" fill="#eee" stroke="#000" stroke-width="2"/><text font-family="sans-serif" font-size="13" font-weight="bold" lengthAdjust="spacing" textLength="340" x="128.75" y="249.2988">Scenario 2: Block Validator -&gt; TX Meta Store -&gt; DB</text><path d="m386 283.3516 10 4-10 4 4-4z" fill="#181818" stroke="#181818"/><path d="m85 287.3516h307" stroke="#181818"/><text font-family="sans-serif" font-size="13" lengthAdjust="spacing" textLength="202" x="92" y="282.6094">Direct Store Access (Get/Create)</text><path d="m518.5 312.6621 10 4-10 4 4-4z" fill="#181818" stroke="#181818"/><path d="m398 316.6621h126.5" stroke="#181818"/><text font-family="sans-serif" font-size="13" lengthAdjust="spacing" textLength="88" x="405" y="311.9199">Query/Update</text><text fill="#888" font-family="sans-serif" font-size="10" lengthAdjust="spacing" textLength="155" y="420.8184">Last Modified On: 28-Nov-2023</text></svg>
