<svg contentStyleType="text/css" height="982" preserveAspectRatio="none" viewBox="0 0 666 982" width="666" xmlns="http://www.w3.org/2000/svg" zoomAndPan="magnify"><path d="m0 0h666v982h-666z" fill="#f0f8ff"/><g stroke="#181818"><path d="m23 81.4883v804.4531" stroke-dasharray="5 5" stroke-width=".5"/><path d="m221.9985 81.4883v804.4531" stroke-dasharray="5 5" stroke-width=".5"/><path d="m413.8882 81.4883v804.4531" stroke-dasharray="5 5" stroke-width=".5"/><path d="m604.5498 81.4883v804.4531" stroke-dasharray="5 5" stroke-width=".5"/></g><text fill="#333" font-family="sans-serif" font-size="14" lengthAdjust="spacing" textLength="30.3652" x="5" y="78.5352">User</text><ellipse cx="23.1826" cy="13.5" fill="#e2e2f0" rx="8" ry="8" stroke="#181818" stroke-width=".5"/><path d="m23.1826 21.5v27m-13-19h26m-13 19-13 15m13-15 13 15" fill="none" stroke="#181818" stroke-width=".5"/><text fill="#333" font-family="sans-serif" font-size="14" lengthAdjust="spacing" textLength="30.3652" x="5" y="898.4766">User</text><ellipse cx="23.1826" cy="909.9297" fill="#e2e2f0" rx="8" ry="8" stroke="#181818" stroke-width=".5"/><path d="m23.1826 917.9297v27m-13-19h26m-13 19-13 15m13-15 13 15" fill="none" stroke="#181818" stroke-width=".5"/><rect fill="#ddd" height="30.4883" rx="2.5" stroke="#666" stroke-width=".5" width="105.8887" x="169.9985" y="50"/><text fill="#333" font-family="sans-serif" font-size="14" lengthAdjust="spacing" textLength="91.8887" x="176.9985" y="70.5352">UI Dashboard</text><rect fill="#ddd" height="30.4883" rx="2.5" stroke="#666" stroke-width=".5" width="105.8887" x="169.9985" y="884.9414"/><text fill="#333" font-family="sans-serif" font-size="14" lengthAdjust="spacing" textLength="91.8887" x="176.9985" y="905.4766">UI Dashboard</text><rect fill="#ddd" height="30.4883" rx="2.5" stroke="#666" stroke-width=".5" width="98.3008" x="364.8882" y="50"/><text fill="#333" font-family="sans-serif" font-size="14" lengthAdjust="spacing" textLength="84.3008" x="371.8882" y="70.5352">AssetService</text><rect fill="#ddd" height="30.4883" rx="2.5" stroke="#666" stroke-width=".5" width="98.3008" x="364.8882" y="884.9414"/><text fill="#333" font-family="sans-serif" font-size="14" lengthAdjust="spacing" textLength="84.3008" x="371.8882" y="905.4766">AssetService</text><rect fill="#ddd" height="30.4883" rx="2.5" stroke="#666" stroke-width=".5" width="99.1689" x="555.5498" y="50"/><text fill="#333" font-family="sans-serif" font-size="14" lengthAdjust="spacing" textLength="85.1689" x="562.5498" y="70.5352">TxMetaStore</text><rect fill="#ddd" height="30.4883" rx="2.5" stroke="#666" stroke-width=".5" width="99.1689" x="555.5498" y="884.9414"/><text fill="#333" font-family="sans-serif" font-size="14" lengthAdjust="spacing" textLength="85.1689" x="562.5498" y="905.4766">TxMetaStore</text><path d="m0 112.1436h659.7188v3h-659.7188z" fill="#eee" stroke="#eee"/><path d="m0 112.1436h659.7188" stroke="#000"/><path d="m0 115.1436h659.7188" stroke="#000"/><path d="m225.1372 101.4883h209.4443v23.3105h-209.4443z" fill="#eee" stroke="#000" stroke-width="2"/><text fill="#333" font-family="sans-serif" font-size="13" font-weight="bold" lengthAdjust="spacing" textLength="191.1597" x="231.1372" y="118.0566">Fetch Transaction Meta Data</text><path d="m210.9429 152.1094 10 4-10 4 4-4z" fill="#666" stroke="#666"/><path d="m23.1826 156.1094h193.7603" stroke="#666"/><text fill="#333" font-family="sans-serif" font-size="13" lengthAdjust="spacing" textLength="163.0776" x="30.1826" y="151.3672">Request Transaction Meta</text><path d="m402.0386 181.4199 10 4-10 4 4-4z" fill="#666" stroke="#666"/><path d="m222.9429 185.4199h185.0957" stroke="#666"/><text fill="#333" font-family="sans-serif" font-size="13" lengthAdjust="spacing" textLength="125.3979" x="229.9429" y="180.6777">/txmeta/:hash/json</text><path d="m414.0386 214.7305h42" stroke="#666"/><path d="m456.0386 214.7305v13" stroke="#666"/><path d="m415.0386 227.7305h41" stroke="#666"/><path d="m425.0386 223.7305-10 4 10 4-4-4z" fill="#666" stroke="#666"/><text fill="#333" font-family="sans-serif" font-size="13" lengthAdjust="spacing" textLength="134.3608" x="421.0386" y="209.9883">GetTransactionMeta()</text><path d="m593.1343 253.041 10 4-10 4 4-4z" fill="#666" stroke="#666"/><path d="m414.0386 257.041h185.0957" stroke="#666"/><text fill="#333" font-family="sans-serif" font-size="13" lengthAdjust="spacing" textLength="115.7749" x="421.0386" y="252.2988">Get(context, hash)</text><path d="m425.0386 282.3516-10 4 10 4-4-4z" fill="#666" stroke="#666"/><path d="m419.0386 286.3516h185.0957" stroke="#666"/><text fill="#333" font-family="sans-serif" font-size="13" lengthAdjust="spacing" textLength="154.4131" x="431.0386" y="281.6094">Return Transaction Meta</text><path d="m233.9429 311.6621-10 4 10 4-4-4z" fill="#666" stroke="#666"/><path d="m227.9429 315.6621h185.0957" stroke="#666"/><text fill="#333" font-family="sans-serif" font-size="13" lengthAdjust="spacing" textLength="154.4131" x="239.9429" y="310.9199">Return Transaction Meta</text><path d="m34.1826 340.9727-10 4 10 4-4-4z" fill="#666" stroke="#666"/><path d="m28.1826 344.9727h193.7603" stroke="#666"/><text fill="#333" font-family="sans-serif" font-size="13" lengthAdjust="spacing" textLength="158.666" x="40.1826" y="340.2305">Display Transaction Meta</text><path d="m0 373.6279h659.7188v3h-659.7188z" fill="#eee" stroke="#eee"/><path d="m0 373.6279h659.7188" stroke="#000"/><path d="m0 376.6279h659.7188" stroke="#000"/><path d="m261.0173 362.9727h137.6841v23.3105h-137.6841z" fill="#eee" stroke="#000" stroke-width="2"/><text fill="#333" font-family="sans-serif" font-size="13" font-weight="bold" lengthAdjust="spacing" textLength="119.3994" x="267.0173" y="379.541">Fetch Transaction</text><path d="m210.9429 413.5938 10 4-10 4 4-4z" fill="#666" stroke="#666"/><path d="m23.1826 417.5938h193.7603" stroke="#666"/><text fill="#333" font-family="sans-serif" font-size="13" lengthAdjust="spacing" textLength="175.7603" x="30.1826" y="412.8516">Request Transaction Details</text><path d="m402.0386 442.9043 10 4-10 4 4-4z" fill="#666" stroke="#666"/><path d="m222.9429 446.9043h185.0957" stroke="#666"/><text fill="#333" font-family="sans-serif" font-size="13" lengthAdjust="spacing" textLength="93.9771" x="229.9429" y="442.1621">/tx/:hash/json</text><path d="m414.0386 476.2148h42" stroke="#666"/><path d="m456.0386 476.2148v13" stroke="#666"/><path d="m415.0386 489.2148h41" stroke="#666"/><path d="m425.0386 485.2148-10 4 10 4-4-4z" fill="#666" stroke="#666"/><text fill="#333" font-family="sans-serif" font-size="13" lengthAdjust="spacing" textLength="103.8794" x="421.0386" y="471.4727">GetTransaction()</text><path d="m593.1343 514.5254 10 4-10 4 4-4z" fill="#666" stroke="#666"/><path d="m414.0386 518.5254h185.0957" stroke="#666"/><text fill="#333" font-family="sans-serif" font-size="13" lengthAdjust="spacing" textLength="87.6167" x="421.0386" y="513.7832">Get(ctx, hash)</text><path d="m425.0386 543.8359-10 4 10 4-4-4z" fill="#666" stroke="#666"/><path d="m419.0386 547.8359h185.0957" stroke="#666"/><text fill="#333" font-family="sans-serif" font-size="13" lengthAdjust="spacing" textLength="167.0957" x="431.0386" y="543.0938">Return Transaction Details</text><path d="m233.9429 573.1465-10 4 10 4-4-4z" fill="#666" stroke="#666"/><path d="m227.9429 577.1465h185.0957" stroke="#666"/><text fill="#333" font-family="sans-serif" font-size="13" lengthAdjust="spacing" textLength="167.0957" x="239.9429" y="572.4043">Return Transaction Details</text><path d="m34.1826 602.457-10 4 10 4-4-4z" fill="#666" stroke="#666"/><path d="m28.1826 606.457h193.7603" stroke="#666"/><text fill="#333" font-family="sans-serif" font-size="13" lengthAdjust="spacing" textLength="171.3486" x="40.1826" y="601.7148">Display Transaction Details</text><path d="m0 635.1123h659.7188v3h-659.7188z" fill="#eee" stroke="#eee"/><path d="m0 635.1123h659.7188" stroke="#000"/><path d="m0 638.1123h659.7188" stroke="#000"/><path d="m227.1462 624.457h205.4263v23.3105h-205.4263z" fill="#eee" stroke="#000" stroke-width="2"/><text fill="#333" font-family="sans-serif" font-size="13" font-weight="bold" lengthAdjust="spacing" textLength="187.1416" x="233.1462" y="641.0254">Fetch Transactions (Stream)</text><path d="m210.9429 675.0781 10 4-10 4 4-4z" fill="#666" stroke="#666"/><path d="m23.1826 679.0781h193.7603" stroke="#666"/><text fill="#333" font-family="sans-serif" font-size="13" lengthAdjust="spacing" textLength="161.4019" x="30.1826" y="674.3359">Request Transactions List</text><path d="m402.0386 704.3887 10 4-10 4 4-4z" fill="#666" stroke="#666"/><path d="m222.9429 708.3887h185.0957" stroke="#666"/><text fill="#333" font-family="sans-serif" font-size="13" lengthAdjust="spacing" textLength="26.2793" x="229.9429" y="703.6465">/txs</text><path d="m414.0386 737.6992h42" stroke="#666"/><path d="m456.0386 737.6992v13" stroke="#666"/><path d="m415.0386 750.6992h41" stroke="#666"/><path d="m425.0386 746.6992-10 4 10 4-4-4z" fill="#666" stroke="#666"/><text fill="#333" font-family="sans-serif" font-size="13" lengthAdjust="spacing" textLength="110.5063" x="421.0386" y="732.957">GetTransactions()</text><path d="m593.1343 776.0098 10 4-10 4 4-4z" fill="#666" stroke="#666"/><path d="m414.0386 780.0098h185.0957" stroke="#666"/><text fill="#333" font-family="sans-serif" font-size="13" lengthAdjust="spacing" textLength="87.6167" x="421.0386" y="775.2676">Get(ctx, hash)</text><path d="m425.0386 805.3203-10 4 10 4-4-4z" fill="#666" stroke="#666"/><path d="m419.0386 809.3203h185.0957" stroke="#666"/><text fill="#333" font-family="sans-serif" font-size="13" lengthAdjust="spacing" textLength="152.7373" x="431.0386" y="804.5781">Return Transactions List</text><path d="m233.9429 834.6309-10 4 10 4-4-4z" fill="#666" stroke="#666"/><path d="m227.9429 838.6309h185.0957" stroke="#666"/><text fill="#333" font-family="sans-serif" font-size="13" lengthAdjust="spacing" textLength="152.7373" x="239.9429" y="833.8887">Return Transactions List</text><path d="m34.1826 863.9414-10 4 10 4-4-4z" fill="#666" stroke="#666"/><path d="m28.1826 867.9414h193.7603" stroke="#666"/><text fill="#333" font-family="sans-serif" font-size="13" lengthAdjust="spacing" textLength="156.9902" x="40.1826" y="863.1992">Display Transactions List</text><text fill="#333" font-family="sans-serif" font-size="10" lengthAdjust="spacing" textLength="155.4346" y="972.0977">Last Modified On: 24-Feb-2025</text></svg>
