<svg contentStyleType="text/css" height="543" preserveAspectRatio="none" viewBox="0 0 958 543" width="958" xmlns="http://www.w3.org/2000/svg" zoomAndPan="magnify"><path d="m0 0h958v543h-958z" fill="#f0f8ff"/><path d="m483.1182 119.5977h10v185.8633h-10z" fill="#fff" stroke="#181818"/><path d="m792.7642 173.2188h10v29.3105h-10z" fill="#fff" stroke="#181818"/><path d="m792.7642 392.0371h10v29.3105h-10z" fill="#fff" stroke="#181818"/><path d="m322.5752 134.5977h629.292v118.2422h-629.292z" fill="none" stroke="#000" stroke-width="1.5"/><path d="m10 266.8398h941.8672v191.8184h-941.8672z" fill="none" stroke="#000" stroke-width="1.5"/><path d="m171 52.9766v422.6816" stroke="#181818" stroke-dasharray="5 5" stroke-width=".5"/><path d="m487.5752 52.9766v422.6816" stroke="#181818" stroke-dasharray="5 5" stroke-width=".5"/><path d="m797.6611 52.9766v422.6816" stroke="#181818" stroke-dasharray="5 5" stroke-width=".5"/><rect fill="#ddd" height="46.9766" rx="2.5" stroke="#666" stroke-width=".5" width="122.5752" x="110" y="5"/><text fill="#333" font-family="sans-serif" font-size="14" lengthAdjust="spacing" textLength="108.5752" x="117" y="25.5352">Block Validation</text><text fill="#333" font-family="sans-serif" font-size="14" lengthAdjust="spacing" textLength="47.332" x="147.6216" y="42.0234">Service</text><rect fill="#ddd" height="46.9766" rx="2.5" stroke="#666" stroke-width=".5" width="122.5752" x="110" y="474.6582"/><text fill="#333" font-family="sans-serif" font-size="14" lengthAdjust="spacing" textLength="108.5752" x="117" y="495.1934">Block Validation</text><text fill="#333" font-family="sans-serif" font-size="14" lengthAdjust="spacing" textLength="47.332" x="147.6216" y="511.6816">Service</text><rect fill="#ddd" height="46.9766" rx="2.5" stroke="#666" stroke-width=".5" width="131.0859" x="422.5752" y="5"/><text fill="#333" font-family="sans-serif" font-size="14" lengthAdjust="spacing" textLength="100.3789" x="437.9287" y="25.5352">TX Meta Cache</text><text fill="#333" font-family="sans-serif" font-size="14" lengthAdjust="spacing" textLength="117.0859" x="429.5752" y="42.0234">(txmetacache.go)</text><rect fill="#ddd" height="46.9766" rx="2.5" stroke="#666" stroke-width=".5" width="131.0859" x="422.5752" y="474.6582"/><text fill="#333" font-family="sans-serif" font-size="14" lengthAdjust="spacing" textLength="100.3789" x="437.9287" y="495.1934">TX Meta Cache</text><text fill="#333" font-family="sans-serif" font-size="14" lengthAdjust="spacing" textLength="117.0859" x="429.5752" y="511.6816">(txmetacache.go)</text><rect fill="#ddd" height="30.4883" rx="2.5" stroke="#666" stroke-width=".5" width="108.2061" x="743.6611" y="21.4883"/><text fill="#333" font-family="sans-serif" font-size="14" lengthAdjust="spacing" textLength="94.2061" x="750.6611" y="42.0234">TX Meta Store</text><rect fill="#ddd" height="30.4883" rx="2.5" stroke="#666" stroke-width=".5" width="108.2061" x="743.6611" y="474.6582"/><text fill="#333" font-family="sans-serif" font-size="14" lengthAdjust="spacing" textLength="94.2061" x="750.6611" y="495.1934">TX Meta Store</text><g stroke="#181818"><path d="m483.1182 119.5977h10v185.8633h-10z" fill="#fff"/><path d="m792.7642 173.2188h10v29.3105h-10z" fill="#fff"/><path d="m792.7642 392.0371h10v29.3105h-10z" fill="#fff"/><path d="m493 67.9766v25h192v-15l-10-10z" fill="#feffdd" stroke-width=".5"/><path d="m675 67.9766v10h10z" fill="#feffdd" stroke-width=".5"/></g><text fill="#333" font-family="sans-serif" font-size="13" lengthAdjust="spacing" textLength="171.8755" x="499" y="85.5449">Cache with 15 minutes TTL</text><path d="m471.1182 115.5977 10 4-10 4 4-4z" fill="#666" stroke="#666"/><path d="m171.2876 119.5977h305.8306" stroke="#666"/><text fill="#333" font-family="sans-serif" font-size="13" lengthAdjust="spacing" textLength="59.8965" x="178.2876" y="114.8555">Get(hash)</text><path d="m322.5752 134.5977h62.1387v7.3105l-10 10h-52.1387z" fill="#eee" stroke="#000" stroke-width="1.5"/><path d="m322.5752 134.5977h629.292v118.2422h-629.292z" fill="none" stroke="#000" stroke-width="1.5"/><text fill="#333" font-family="sans-serif" font-size="13" font-weight="bold" lengthAdjust="spacing" textLength="17.1387" x="337.5752" y="148.166">alt</text><text fill="#333" font-family="sans-serif" font-size="11" font-weight="bold" lengthAdjust="spacing" textLength="71.6074" x="399.7139" y="147.2324">[Cache Miss]</text><path d="m780.7642 169.2188 10 4-10 4 4-4z" fill="#666" stroke="#666"/><path d="m493.1182 173.2188h293.646" stroke="#666"/><text fill="#333" font-family="sans-serif" font-size="13" lengthAdjust="spacing" textLength="59.8965" x="500.1182" y="168.4766">Get(hash)</text><path d="m504.1182 198.5293-10 4 10 4-4-4z" fill="#666" stroke="#666"/><path d="m498.1182 202.5293h298.646" stroke="#666" stroke-dasharray="2 2"/><text fill="#333" font-family="sans-serif" font-size="13" lengthAdjust="spacing" textLength="84.0239" x="510.1182" y="197.7871">TX Meta Data</text><path d="m493.1182 231.8398h42" stroke="#666"/><path d="m535.1182 231.8398v13" stroke="#666"/><path d="m494.1182 244.8398h41" stroke="#666"/><path d="m504.1182 240.8398-10 4 10 4-4-4z" fill="#666" stroke="#666"/><text fill="#333" font-family="sans-serif" font-size="13" lengthAdjust="spacing" textLength="126.2803" x="500.1182" y="227.0977">Cache TX Meta Data</text><path d="m10 266.8398h62.1387v7.3106l-10 10h-52.1387z" fill="#eee" stroke="#000" stroke-width="1.5"/><path d="m10 266.8398h941.8672v191.8184h-941.8672z" fill="none" stroke="#000" stroke-width="1.5"/><text fill="#333" font-family="sans-serif" font-size="13" font-weight="bold" lengthAdjust="spacing" textLength="17.1387" x="25" y="280.4082">alt</text><text fill="#333" font-family="sans-serif" font-size="11" font-weight="bold" lengthAdjust="spacing" textLength="62.2241" x="87.1387" y="279.4746">[Cache Hit]</text><path d="m182.2876 301.4609-10 4 10 4-4-4z" fill="#666" stroke="#666"/><path d="m176.2876 305.4609h310.8306" stroke="#666" stroke-dasharray="2 2"/><text fill="#333" font-family="sans-serif" font-size="13" lengthAdjust="spacing" textLength="129.9175" x="188.2876" y="300.7188">Return TX Meta Data</text><path d="m10 314.4609h941.8672" stroke="#000" stroke-dasharray="2 2"/><text fill="#333" font-family="sans-serif" font-size="11" font-weight="bold" lengthAdjust="spacing" textLength="130.5767" x="15" y="325.0957">[Cached Data is Mined]</text><path d="m488.1182 349.7266h42" stroke="#666"/><path d="m530.1182 349.7266v13" stroke="#666"/><path d="m489.1182 362.7266h41" stroke="#666"/><path d="m499.1182 358.7266-10 4 10 4-4-4z" fill="#666" stroke="#666"/><text fill="#333" font-family="sans-serif" font-size="13" lengthAdjust="spacing" textLength="115.5908" x="495.1182" y="344.9844">setMinedInCache()</text><path d="m780.7642 388.0371 10 4-10 4 4-4z" fill="#666" stroke="#666"/><path d="m488.1182 392.0371h298.646" stroke="#666"/><text fill="#333" font-family="sans-serif" font-size="13" lengthAdjust="spacing" textLength="59.8965" x="495.1182" y="387.2949">Get(hash)</text><path d="m499.1182 417.3477-10 4 10 4-4-4z" fill="#666" stroke="#666"/><path d="m493.1182 421.3477h303.646" stroke="#666" stroke-dasharray="2 2"/><text fill="#333" font-family="sans-serif" font-size="13" lengthAdjust="spacing" textLength="84.0239" x="505.1182" y="416.6055">TX Meta Data</text><path d="m182.2876 446.6582-10 4 10 4-4-4z" fill="#666" stroke="#666"/><path d="m176.2876 450.6582h310.8306" stroke="#666" stroke-dasharray="2 2"/><text fill="#333" font-family="sans-serif" font-size="13" lengthAdjust="spacing" textLength="186.8687" x="188.2876" y="445.916">Return Updated TX Meta Data</text><text fill="#333" font-family="sans-serif" font-size="10" lengthAdjust="spacing" textLength="155.4346" y="533.3027">Last Modified On: 24-Feb-2025</text></svg>
