<svg xmlns="http://www.w3.org/2000/svg" xmlns:xlink="http://www.w3.org/1999/xlink" contentStyleType="text/css" height="374px" preserveAspectRatio="none" style="width:1109px;height:374px;background:#F0F8FF;" version="1.1" viewBox="0 0 1109 374" width="1109px" zoomAndPan="magnify"><defs/><g><rect fill="#F0F8FF" height="374" style="stroke:none;stroke-width:1.0;" width="1109" x="0" y="0"/><rect fill="#FFFFFF" height="196.1738" style="stroke:#181818;stroke-width:1.0;" width="10" x="147.5142" y="92.2871"/><rect fill="#FFFFFF" height="103.2422" style="stroke:#181818;stroke-width:1.0;" width="10" x="502.0552" y="185.2188"/><rect fill="#FFFFFF" height="29.3105" style="stroke:#181818;stroke-width:1.0;" width="10" x="1049.0176" y="126.5977"/><rect fill="#FFFFFF" height="29.3105" style="stroke:#181818;stroke-width:1.0;" width="10" x="1049.0176" y="229.8398"/><line style="stroke:#181818;stroke-width:0.5;stroke-dasharray:5.0,5.0;" x1="152" x2="152" y1="52.9766" y2="306.4609"/><line style="stroke:#181818;stroke-width:0.5;stroke-dasharray:5.0,5.0;" x1="507.0283" x2="507.0283" y1="52.9766" y2="306.4609"/><line style="stroke:#181818;stroke-width:0.5;stroke-dasharray:5.0,5.0;" x1="1053.4331" x2="1053.4331" y1="52.9766" y2="306.4609"/><rect fill="#DDDDDD" height="46.9766" rx="2.5" ry="2.5" style="stroke:#666666;stroke-width:0.5;" width="115.0283" x="95" y="5"/><text fill="#333333" font-family="sans-serif" font-size="14" lengthAdjust="spacing" textLength="101.0283" x="102" y="25.5352">BlockAssembly</text><text fill="#333333" font-family="sans-serif" font-size="14" lengthAdjust="spacing" textLength="72.707" x="116.1606" y="42.0234">(Server.go)</text><rect fill="#DDDDDD" height="46.9766" rx="2.5" ry="2.5" style="stroke:#666666;stroke-width:0.5;" width="115.0283" x="95" y="305.4609"/><text fill="#333333" font-family="sans-serif" font-size="14" lengthAdjust="spacing" textLength="101.0283" x="102" y="325.9961">BlockAssembly</text><text fill="#333333" font-family="sans-serif" font-size="14" lengthAdjust="spacing" textLength="72.707" x="116.1606" y="342.4844">(Server.go)</text><rect fill="#DDDDDD" height="46.9766" rx="2.5" ry="2.5" style="stroke:#666666;stroke-width:0.5;" width="214.0537" x="400.0283" y="5"/><text fill="#333333" font-family="sans-serif" font-size="14" lengthAdjust="spacing" textLength="148.5039" x="432.8032" y="25.5352">UpdateTxMinedStatus</text><text fill="#333333" font-family="sans-serif" font-size="14" lengthAdjust="spacing" textLength="200.0537" x="407.0283" y="42.0234">(model/update-tx-mined.go)</text><rect fill="#DDDDDD" height="46.9766" rx="2.5" ry="2.5" style="stroke:#666666;stroke-width:0.5;" width="214.0537" x="400.0283" y="305.4609"/><text fill="#333333" font-family="sans-serif" font-size="14" lengthAdjust="spacing" textLength="148.5039" x="432.8032" y="325.9961">UpdateTxMinedStatus</text><text fill="#333333" font-family="sans-serif" font-size="14" lengthAdjust="spacing" textLength="200.0537" x="407.0283" y="342.4844">(model/update-tx-mined.go)</text><rect fill="#DDDDDD" height="30.4883" rx="2.5" ry="2.5" style="stroke:#666666;stroke-width:0.5;" width="99.1689" x="1004.4331" y="21.4883"/><text fill="#333333" font-family="sans-serif" font-size="14" lengthAdjust="spacing" textLength="85.1689" x="1011.4331" y="42.0234">TxMetaStore</text><rect fill="#DDDDDD" height="30.4883" rx="2.5" ry="2.5" style="stroke:#666666;stroke-width:0.5;" width="99.1689" x="1004.4331" y="305.4609"/><text fill="#333333" font-family="sans-serif" font-size="14" lengthAdjust="spacing" textLength="85.1689" x="1011.4331" y="325.9961">TxMetaStore</text><rect fill="#FFFFFF" height="196.1738" style="stroke:#181818;stroke-width:1.0;" width="10" x="147.5142" y="92.2871"/><rect fill="#FFFFFF" height="103.2422" style="stroke:#181818;stroke-width:1.0;" width="10" x="502.0552" y="185.2188"/><rect fill="#FFFFFF" height="29.3105" style="stroke:#181818;stroke-width:1.0;" width="10" x="1049.0176" y="126.5977"/><rect fill="#FFFFFF" height="29.3105" style="stroke:#181818;stroke-width:1.0;" width="10" x="1049.0176" y="229.8398"/><line style="stroke:#666666;stroke-width:1.0;" x1="152.5142" x2="199.5142" y1="79.2871" y2="79.2871"/><line style="stroke:#666666;stroke-width:1.0;" x1="199.5142" x2="199.5142" y1="79.2871" y2="92.2871"/><line style="stroke:#666666;stroke-width:1.0;" x1="158.5142" x2="199.5142" y1="92.2871" y2="92.2871"/><polygon fill="#666666" points="168.5142,88.2871,158.5142,92.2871,168.5142,96.2871,164.5142,92.2871" style="stroke:#666666;stroke-width:1.0;"/><text fill="#333333" font-family="sans-serif" font-size="13" lengthAdjust="spacing" textLength="146.5293" x="164.5142" y="74.5449">submitMiningSolution()</text><polygon fill="#666666" points="1037.0176,122.5977,1047.0176,126.5977,1037.0176,130.5977,1041.0176,126.5977" style="stroke:#666666;stroke-width:1.0;"/><line style="stroke:#666666;stroke-width:1.0;" x1="157.5142" x2="1043.0176" y1="126.5977" y2="126.5977"/><text fill="#333333" font-family="sans-serif" font-size="13" lengthAdjust="spacing" textLength="334.0454" x="164.5142" y="121.8555">Store the Block Coinbase TX: Create(ctx, coinbaseTx)</text><polygon fill="#666666" points="168.5142,151.9082,158.5142,155.9082,168.5142,159.9082,164.5142,155.9082" style="stroke:#666666;stroke-width:1.0;"/><line style="stroke:#666666;stroke-width:1.0;stroke-dasharray:2.0,2.0;" x1="162.5142" x2="1053.0176" y1="155.9082" y2="155.9082"/><text fill="#333333" font-family="sans-serif" font-size="13" lengthAdjust="spacing" textLength="82.894" x="174.5142" y="151.166">Confirmation</text><polygon fill="#666666" points="490.0552,181.2188,500.0552,185.2188,490.0552,189.2188,494.0552,185.2188" style="stroke:#666666;stroke-width:1.0;"/><line style="stroke:#666666;stroke-width:1.0;" x1="157.5142" x2="496.0552" y1="185.2188" y2="185.2188"/><text fill="#333333" font-family="sans-serif" font-size="13" lengthAdjust="spacing" textLength="146.3516" x="164.5142" y="180.4766">UpdateTxMinedStatus()</text><polygon fill="#666666" points="1037.0176,225.8398,1047.0176,229.8398,1037.0176,233.8398,1041.0176,229.8398" style="stroke:#666666;stroke-width:1.0;"/><line style="stroke:#666666;stroke-width:1.0;" x1="512.0552" x2="1043.0176" y1="229.8398" y2="229.8398"/><text fill="#333333" font-family="sans-serif" font-size="13" lengthAdjust="spacing" textLength="513.8491" x="519.0552" y="209.7871">Update meta data for all Txs within the block (record the block that mined them):</text><text fill="#333333" font-family="sans-serif" font-size="13" lengthAdjust="spacing" textLength="242.6455" x="519.0552" y="225.0977">setMinedMulti(ctx, hashes, blockHash)</text><polygon fill="#666666" points="523.0552,255.1504,513.0552,259.1504,523.0552,263.1504,519.0552,259.1504" style="stroke:#666666;stroke-width:1.0;"/><line style="stroke:#666666;stroke-width:1.0;stroke-dasharray:2.0,2.0;" x1="517.0552" x2="1053.0176" y1="259.1504" y2="259.1504"/><text fill="#333333" font-family="sans-serif" font-size="13" lengthAdjust="spacing" textLength="95.5513" x="529.0552" y="254.4082">Status Updated</text><polygon fill="#666666" points="163.5142,284.4609,153.5142,288.4609,163.5142,292.4609,159.5142,288.4609" style="stroke:#666666;stroke-width:1.0;"/><line style="stroke:#666666;stroke-width:1.0;stroke-dasharray:2.0,2.0;" x1="157.5142" x2="506.0552" y1="288.4609" y2="288.4609"/><text fill="#333333" font-family="sans-serif" font-size="13" lengthAdjust="spacing" textLength="138.1123" x="169.5142" y="283.7188">Mined Status Updated</text><text fill="#333333" font-family="sans-serif" font-size="10" lengthAdjust="spacing" textLength="155.4346" x="0" y="364.1055">Last Modified On: 24-Feb-2025</text><!--SRC=[fLF1Yjim4BthAuQKKWVMxKAXj3uKkbbC3pLTI1Pws8jiZHCHMGhIU3UXzDyxKK8g9zwbj7EmfNapRsQUfB3MTYEzxA2MpNhfNM_Lp1dduLLvNNuiIn5E4GfRsHigdQLZoFjeIOZqtZqTmG_HX7W3jzXgYr0xhz07Q1cLnW0QxD1IIF9vgsa7FmN0JOmUSh7tlClRQEANI5WQxj0xyxyq_2NTw8sqz6zK8cMx-yDs9vNITWcVheL8YqnkZ6lMNqB0hZQx1vlDqJ-YVxjqqmd800Duc7c_KP9miQrOQ3KdINtW_CufDE_wYEMqpRizUg8RoHcICeGav-GyneHaByIW6SW_3xih8FHrfucvUTAvCprfPxEfa0tfHovxDimbNLAiWFW3MXtJOEQqhML0MFmeOEQH2RE6jbTyz0TWiKrAfNqdQyWlkvuvsshVoNstGk4enMMl8qeMOyvq_Z7rnOZpGej337Ji0Lx9qtjQR0CyQLff6vMgerAPnuRlRUAXbII8Ds7lxAO5FDY054jM_BxrGScL32iCLuUahxpvIq57jJYESi3KiyAEZdzvI15-WNDKsWG_kte6Ms8H7Q67Rp8GL4xfLdE9xxQ0rtkkRA9KNbLLlcERJCLl]--></g></svg>
