<svg contentStyleType="text/css" height="374" preserveAspectRatio="none" viewBox="0 0 1109 374" width="1109" xmlns="http://www.w3.org/2000/svg" zoomAndPan="magnify"><path d="m0 0h1109v374h-1109z" fill="#f0f8ff"/><g stroke="#181818"><path d="m147.5142 92.2871h10v196.1738h-10z" fill="#fff"/><path d="m502.0552 185.2188h10v103.2422h-10z" fill="#fff"/><path d="m1049.0176 126.5977h10v29.3105h-10z" fill="#fff"/><path d="m1049.0176 229.8398h10v29.3105h-10z" fill="#fff"/><path d="m152 52.9766v253.4843" stroke-dasharray="5 5" stroke-width=".5"/><path d="m507.0283 52.9766v253.4843" stroke-dasharray="5 5" stroke-width=".5"/><path d="m1053.4331 52.9766v253.4843" stroke-dasharray="5 5" stroke-width=".5"/></g><rect fill="#ddd" height="46.9766" rx="2.5" stroke="#666" stroke-width=".5" width="115.0283" x="95" y="5"/><text fill="#333" font-family="sans-serif" font-size="14" lengthAdjust="spacing" textLength="101.0283" x="102" y="25.5352">BlockAssembly</text><text fill="#333" font-family="sans-serif" font-size="14" lengthAdjust="spacing" textLength="72.707" x="116.1606" y="42.0234">(Server.go)</text><rect fill="#ddd" height="46.9766" rx="2.5" stroke="#666" stroke-width=".5" width="115.0283" x="95" y="305.4609"/><text fill="#333" font-family="sans-serif" font-size="14" lengthAdjust="spacing" textLength="101.0283" x="102" y="325.9961">BlockAssembly</text><text fill="#333" font-family="sans-serif" font-size="14" lengthAdjust="spacing" textLength="72.707" x="116.1606" y="342.4844">(Server.go)</text><rect fill="#ddd" height="46.9766" rx="2.5" stroke="#666" stroke-width=".5" width="214.0537" x="400.0283" y="5"/><text fill="#333" font-family="sans-serif" font-size="14" lengthAdjust="spacing" textLength="148.5039" x="432.8032" y="25.5352">UpdateTxMinedStatus</text><text fill="#333" font-family="sans-serif" font-size="14" lengthAdjust="spacing" textLength="200.0537" x="407.0283" y="42.0234">(model/update-tx-mined.go)</text><rect fill="#ddd" height="46.9766" rx="2.5" stroke="#666" stroke-width=".5" width="214.0537" x="400.0283" y="305.4609"/><text fill="#333" font-family="sans-serif" font-size="14" lengthAdjust="spacing" textLength="148.5039" x="432.8032" y="325.9961">UpdateTxMinedStatus</text><text fill="#333" font-family="sans-serif" font-size="14" lengthAdjust="spacing" textLength="200.0537" x="407.0283" y="342.4844">(model/update-tx-mined.go)</text><rect fill="#ddd" height="30.4883" rx="2.5" stroke="#666" stroke-width=".5" width="99.1689" x="1004.4331" y="21.4883"/><text fill="#333" font-family="sans-serif" font-size="14" lengthAdjust="spacing" textLength="85.1689" x="1011.4331" y="42.0234">TxMetaStore</text><rect fill="#ddd" height="30.4883" rx="2.5" stroke="#666" stroke-width=".5" width="99.1689" x="1004.4331" y="305.4609"/><text fill="#333" font-family="sans-serif" font-size="14" lengthAdjust="spacing" textLength="85.1689" x="1011.4331" y="325.9961">TxMetaStore</text><path d="m147.5142 92.2871h10v196.1738h-10z" fill="#fff" stroke="#181818"/><path d="m502.0552 185.2188h10v103.2422h-10z" fill="#fff" stroke="#181818"/><path d="m1049.0176 126.5977h10v29.3105h-10z" fill="#fff" stroke="#181818"/><path d="m1049.0176 229.8398h10v29.3105h-10z" fill="#fff" stroke="#181818"/><path d="m152.5142 79.2871h47" stroke="#666"/><path d="m199.5142 79.2871v13" stroke="#666"/><path d="m158.5142 92.2871h41" stroke="#666"/><path d="m168.5142 88.2871-10 4 10 4-4-4z" fill="#666" stroke="#666"/><text fill="#333" font-family="sans-serif" font-size="13" lengthAdjust="spacing" textLength="146.5293" x="164.5142" y="74.5449">submitMiningSolution()</text><path d="m1037.0176 122.5977 10 4-10 4 4-4z" fill="#666" stroke="#666"/><path d="m157.5142 126.5977h885.5034" stroke="#666"/><text fill="#333" font-family="sans-serif" font-size="13" lengthAdjust="spacing" textLength="334.0454" x="164.5142" y="121.8555">Store the Block Coinbase TX: Create(ctx, coinbaseTx)</text><path d="m168.5142 151.9082-10 4 10 4-4-4z" fill="#666" stroke="#666"/><path d="m162.5142 155.9082h890.5034" stroke="#666" stroke-dasharray="2 2"/><text fill="#333" font-family="sans-serif" font-size="13" lengthAdjust="spacing" textLength="82.894" x="174.5142" y="151.166">Confirmation</text><path d="m490.0552 181.2188 10 4-10 4 4-4z" fill="#666" stroke="#666"/><path d="m157.5142 185.2188h338.541" stroke="#666"/><text fill="#333" font-family="sans-serif" font-size="13" lengthAdjust="spacing" textLength="146.3516" x="164.5142" y="180.4766">UpdateTxMinedStatus()</text><path d="m1037.0176 225.8398 10 4-10 4 4-4z" fill="#666" stroke="#666"/><path d="m512.0552 229.8398h530.9624" stroke="#666"/><text fill="#333" font-family="sans-serif" font-size="13" lengthAdjust="spacing" textLength="513.8491" x="519.0552" y="209.7871">Update meta data for all Txs within the block (record the block that mined them):</text><text fill="#333" font-family="sans-serif" font-size="13" lengthAdjust="spacing" textLength="242.6455" x="519.0552" y="225.0977">setMinedMulti(ctx, hashes, blockHash)</text><path d="m523.0552 255.1504-10 4 10 4-4-4z" fill="#666" stroke="#666"/><path d="m517.0552 259.1504h535.9624" stroke="#666" stroke-dasharray="2 2"/><text fill="#333" font-family="sans-serif" font-size="13" lengthAdjust="spacing" textLength="95.5513" x="529.0552" y="254.4082">Status Updated</text><path d="m163.5142 284.4609-10 4 10 4-4-4z" fill="#666" stroke="#666"/><path d="m157.5142 288.4609h348.541" stroke="#666" stroke-dasharray="2 2"/><text fill="#333" font-family="sans-serif" font-size="13" lengthAdjust="spacing" textLength="138.1123" x="169.5142" y="283.7188">Mined Status Updated</text><text fill="#333" font-family="sans-serif" font-size="10" lengthAdjust="spacing" textLength="155.4346" y="364.1055">Last Modified On: 24-Feb-2025</text></svg>
