<?xml version="1.0" encoding="us-ascii" standalone="no"?><svg xmlns="http://www.w3.org/2000/svg" xmlns:xlink="http://www.w3.org/1999/xlink" contentStyleType="text/css" height="327px" preserveAspectRatio="none" style="width:479px;height:327px;background:#FFFFFF;" version="1.1" viewBox="0 0 479 327" width="479px" zoomAndPan="magnify"><defs/><g><rect fill="#FFFFFF" height="214.8184" style="stroke:#181818;stroke-width:1.0;" width="10" x="233" y="67.7988"/><rect fill="#FFFFFF" height="176.5078" style="stroke:#181818;stroke-width:1.0;" width="10" x="238" y="105.1094"/><rect fill="#FFFFFF" height="29.3105" style="stroke:#181818;stroke-width:1.0;" width="10" x="392" y="163.7305"/><rect fill="none" height="149.5078" style="stroke:#000000;stroke-width:1.5;" width="462.5" x="10" y="125.1094"/><line style="stroke:#181818;stroke-width:0.5;stroke-dasharray:5.0,5.0;" x1="47" x2="47" y1="36.4883" y2="291.6172"/><line style="stroke:#181818;stroke-width:0.5;stroke-dasharray:5.0,5.0;" x1="238" x2="238" y1="36.4883" y2="291.6172"/><line style="stroke:#181818;stroke-width:0.5;stroke-dasharray:5.0,5.0;" x1="396.5" x2="396.5" y1="36.4883" y2="291.6172"/><rect fill="#E2E2F0" height="30.4883" rx="2.5" ry="2.5" style="stroke:#181818;stroke-width:0.5;" width="54" x="20" y="5"/><text fill="#000000" font-family="sans-serif" font-size="14" lengthAdjust="spacing" textLength="40" x="27" y="25.5352">Client</text><rect fill="#E2E2F0" height="30.4883" rx="2.5" ry="2.5" style="stroke:#181818;stroke-width:0.5;" width="54" x="20" y="290.6172"/><text fill="#000000" font-family="sans-serif" font-size="14" lengthAdjust="spacing" textLength="40" x="27" y="311.1523">Client</text><rect fill="#E2E2F0" height="30.4883" rx="2.5" ry="2.5" style="stroke:#181818;stroke-width:0.5;" width="88" x="194" y="5"/><text fill="#000000" font-family="sans-serif" font-size="14" lengthAdjust="spacing" textLength="74" x="201" y="25.5352">RPC Server</text><rect fill="#E2E2F0" height="30.4883" rx="2.5" ry="2.5" style="stroke:#181818;stroke-width:0.5;" width="88" x="194" y="290.6172"/><text fill="#000000" font-family="sans-serif" font-size="14" lengthAdjust="spacing" textLength="74" x="201" y="311.1523">RPC Server</text><rect fill="#E2E2F0" height="30.4883" rx="2.5" ry="2.5" style="stroke:#181818;stroke-width:0.5;" width="131" x="331.5" y="5"/><text fill="#000000" font-family="sans-serif" font-size="14" lengthAdjust="spacing" textLength="117" x="338.5" y="25.5352">Blockchain Client</text><rect fill="#E2E2F0" height="30.4883" rx="2.5" ry="2.5" style="stroke:#181818;stroke-width:0.5;" width="131" x="331.5" y="290.6172"/><text fill="#000000" font-family="sans-serif" font-size="14" lengthAdjust="spacing" textLength="117" x="338.5" y="311.1523">Blockchain Client</text><rect fill="#FFFFFF" height="214.8184" style="stroke:#181818;stroke-width:1.0;" width="10" x="233" y="67.7988"/><rect fill="#FFFFFF" height="176.5078" style="stroke:#181818;stroke-width:1.0;" width="10" x="238" y="105.1094"/><rect fill="#FFFFFF" height="29.3105" style="stroke:#181818;stroke-width:1.0;" width="10" x="392" y="163.7305"/><polygon fill="#181818" points="221,63.7988,231,67.7988,221,71.7988,225,67.7988" style="stroke:#181818;stroke-width:1.0;"/><line style="stroke:#181818;stroke-width:1.0;" x1="47" x2="227" y1="67.7988" y2="67.7988"/><text fill="#000000" font-family="sans-serif" font-size="13" lengthAdjust="spacing" textLength="151" x="54" y="63.0566">Request: GetBlock(hash)</text><line style="stroke:#181818;stroke-width:1.0;" x1="243" x2="290" y1="92.1094" y2="92.1094"/><line style="stroke:#181818;stroke-width:1.0;" x1="290" x2="290" y1="92.1094" y2="105.1094"/><line style="stroke:#181818;stroke-width:1.0;" x1="249" x2="290" y1="105.1094" y2="105.1094"/><polygon fill="#181818" points="259,101.1094,249,105.1094,259,109.1094,255,105.1094" style="stroke:#181818;stroke-width:1.0;"/><text fill="#000000" font-family="sans-serif" font-size="13" lengthAdjust="spacing" textLength="135" x="255" y="87.3672">handleGetBlock(hash)</text><path d="M10,125.1094 L72,125.1094 L72,132.4199 L62,142.4199 L10,142.4199 L10,125.1094 " fill="#EEEEEE" style="stroke:#000000;stroke-width:1.5;"/><rect fill="none" height="149.5078" style="stroke:#000000;stroke-width:1.5;" width="462.5" x="10" y="125.1094"/><text fill="#000000" font-family="sans-serif" font-size="13" font-weight="bold" lengthAdjust="spacing" textLength="17" x="25" y="138.6777">alt</text><text fill="#000000" font-family="sans-serif" font-size="11" font-weight="bold" lengthAdjust="spacing" textLength="66" x="87" y="137.7441">[valid hash]</text><polygon fill="#181818" points="380,159.7305,390,163.7305,380,167.7305,384,163.7305" style="stroke:#181818;stroke-width:1.0;"/><line style="stroke:#181818;stroke-width:1.0;" x1="248" x2="386" y1="163.7305" y2="163.7305"/><text fill="#000000" font-family="sans-serif" font-size="13" lengthAdjust="spacing" textLength="93" x="255" y="158.9883">GetBlock(hash)</text><polygon fill="#181818" points="259,189.041,249,193.041,259,197.041,255,193.041" style="stroke:#181818;stroke-width:1.0;"/><line style="stroke:#181818;stroke-width:1.0;stroke-dasharray:2.0,2.0;" x1="253" x2="396" y1="193.041" y2="193.041"/><text fill="#000000" font-family="sans-serif" font-size="13" lengthAdjust="spacing" textLength="65" x="265" y="188.2988">Block data</text><polygon fill="#181818" points="58,218.3516,48,222.3516,58,226.3516,54,222.3516" style="stroke:#181818;stroke-width:1.0;"/><line style="stroke:#181818;stroke-width:1.0;" x1="52" x2="237" y1="222.3516" y2="222.3516"/><text fill="#000000" font-family="sans-serif" font-size="13" lengthAdjust="spacing" textLength="162" x="64" y="217.6094">Response with Block Data</text><line style="stroke:#000000;stroke-width:1.0;stroke-dasharray:2.0,2.0;" x1="10" x2="472.5" y1="231.3516" y2="231.3516"/><text fill="#000000" font-family="sans-serif" font-size="11" font-weight="bold" lengthAdjust="spacing" textLength="122" x="15" y="241.9863">[invalid or not found]</text><polygon fill="#181818" points="58,262.6172,48,266.6172,58,270.6172,54,266.6172" style="stroke:#181818;stroke-width:1.0;"/><line style="stroke:#181818;stroke-width:1.0;" x1="52" x2="237" y1="266.6172" y2="266.6172"/><text fill="#000000" font-family="sans-serif" font-size="13" lengthAdjust="spacing" textLength="138" x="64" y="261.875">Error: Block not found</text><!--SRC=[VOz13i8W44Ntd6BIbIwyW0iNLkFMr1DCoXY812fCw_K5MbkCZIGi-FF-dq-7ddMhExGCjT5aMNI5L3NN6cxa1_8LO83u_9uVZMiVhK9j9tl65bM8KORT8PbX3mqzUmgyXmjnvZOAWzeAR5aFo9HtYCJE5eLM6lhBes4Oq6W9QIeWdYcYQFYpCs5pJb4wwOLlDpV98aXap8oaDNUvVVfz-dRed0q4ByrgoZcb739Hr7OixpnOnt1tlPMhCMVldV_qM52ALnHjekqD]--></g></svg>
