<?xml version="1.0" encoding="us-ascii" standalone="no"?><svg xmlns="http://www.w3.org/2000/svg" xmlns:xlink="http://www.w3.org/1999/xlink" contentStyleType="text/css" height="461px" preserveAspectRatio="none" style="width:827px;height:461px;background:#FFFFFF;" version="1.1" viewBox="0 0 827 461" width="827px" zoomAndPan="magnify"><defs/><g><rect fill="#FFFFFF" height="112.2422" style="stroke:#181818;stroke-width:1.0;" width="10" x="316" y="67.7988"/><rect fill="#FFFFFF" height="29.3105" style="stroke:#181818;stroke-width:1.0;" width="10" x="563" y="97.1094"/><rect fill="#FFFFFF" height="29.3105" style="stroke:#181818;stroke-width:1.0;" width="10" x="724" y="266.6172"/><rect fill="none" height="267.3945" style="stroke:#000000;stroke-width:1.5;" width="810.5" x="10" y="141.4199"/><rect fill="none" height="90.8867" style="stroke:#000000;stroke-width:1.5;" width="355" x="20" y="310.9277"/><line style="stroke:#181818;stroke-width:0.5;stroke-dasharray:5.0,5.0;" x1="57" x2="57" y1="36.4883" y2="425.8145"/><line style="stroke:#181818;stroke-width:0.5;stroke-dasharray:5.0,5.0;" x1="321" x2="321" y1="36.4883" y2="425.8145"/><line style="stroke:#181818;stroke-width:0.5;stroke-dasharray:5.0,5.0;" x1="567.5" x2="567.5" y1="36.4883" y2="425.8145"/><line style="stroke:#181818;stroke-width:0.5;stroke-dasharray:5.0,5.0;" x1="728.5" x2="728.5" y1="36.4883" y2="425.8145"/><rect fill="#E2E2F0" height="30.4883" rx="2.5" ry="2.5" style="stroke:#181818;stroke-width:0.5;" width="54" x="30" y="5"/><text fill="#000000" font-family="sans-serif" font-size="14" lengthAdjust="spacing" textLength="40" x="37" y="25.5352">Client</text><rect fill="#E2E2F0" height="30.4883" rx="2.5" ry="2.5" style="stroke:#181818;stroke-width:0.5;" width="54" x="30" y="424.8145"/><text fill="#000000" font-family="sans-serif" font-size="14" lengthAdjust="spacing" textLength="40" x="37" y="445.3496">Client</text><rect fill="#E2E2F0" height="30.4883" rx="2.5" ry="2.5" style="stroke:#181818;stroke-width:0.5;" width="88" x="277" y="5"/><text fill="#000000" font-family="sans-serif" font-size="14" lengthAdjust="spacing" textLength="74" x="284" y="25.5352">RPC Server</text><rect fill="#E2E2F0" height="30.4883" rx="2.5" ry="2.5" style="stroke:#181818;stroke-width:0.5;" width="88" x="277" y="424.8145"/><text fill="#000000" font-family="sans-serif" font-size="14" lengthAdjust="spacing" textLength="74" x="284" y="445.3496">RPC Server</text><rect fill="#E2E2F0" height="30.4883" rx="2.5" ry="2.5" style="stroke:#181818;stroke-width:0.5;" width="139" x="498.5" y="5"/><text fill="#000000" font-family="sans-serif" font-size="14" lengthAdjust="spacing" textLength="125" x="505.5" y="25.5352">JSON Unmarshaler</text><rect fill="#E2E2F0" height="30.4883" rx="2.5" ry="2.5" style="stroke:#181818;stroke-width:0.5;" width="139" x="498.5" y="424.8145"/><text fill="#000000" font-family="sans-serif" font-size="14" lengthAdjust="spacing" textLength="125" x="505.5" y="445.3496">JSON Unmarshaler</text><rect fill="#E2E2F0" height="30.4883" rx="2.5" ry="2.5" style="stroke:#181818;stroke-width:0.5;" width="163" x="647.5" y="5"/><text fill="#000000" font-family="sans-serif" font-size="14" lengthAdjust="spacing" textLength="149" x="654.5" y="25.5352">Block Assembly Client</text><rect fill="#E2E2F0" height="30.4883" rx="2.5" ry="2.5" style="stroke:#181818;stroke-width:0.5;" width="163" x="647.5" y="424.8145"/><text fill="#000000" font-family="sans-serif" font-size="14" lengthAdjust="spacing" textLength="149" x="654.5" y="445.3496">Block Assembly Client</text><rect fill="#FFFFFF" height="112.2422" style="stroke:#181818;stroke-width:1.0;" width="10" x="316" y="67.7988"/><rect fill="#FFFFFF" height="29.3105" style="stroke:#181818;stroke-width:1.0;" width="10" x="563" y="97.1094"/><rect fill="#FFFFFF" height="29.3105" style="stroke:#181818;stroke-width:1.0;" width="10" x="724" y="266.6172"/><polygon fill="#181818" points="304,63.7988,314,67.7988,304,71.7988,308,67.7988" style="stroke:#181818;stroke-width:1.0;"/><line style="stroke:#181818;stroke-width:1.0;" x1="57" x2="310" y1="67.7988" y2="67.7988"/><text fill="#000000" font-family="sans-serif" font-size="13" lengthAdjust="spacing" textLength="240" x="64" y="63.0566">SubmitMiningSolutionCmd(JsonString)</text><polygon fill="#181818" points="551,93.1094,561,97.1094,551,101.1094,555,97.1094" style="stroke:#181818;stroke-width:1.0;"/><line style="stroke:#181818;stroke-width:1.0;" x1="326" x2="557" y1="97.1094" y2="97.1094"/><text fill="#000000" font-family="sans-serif" font-size="13" lengthAdjust="spacing" textLength="218" x="333" y="92.3672">Unmarshal JSON to MiningSolution</text><polygon fill="#181818" points="337,122.4199,327,126.4199,337,130.4199,333,126.4199" style="stroke:#181818;stroke-width:1.0;"/><line style="stroke:#181818;stroke-width:1.0;stroke-dasharray:2.0,2.0;" x1="331" x2="567" y1="126.4199" y2="126.4199"/><text fill="#000000" font-family="sans-serif" font-size="13" lengthAdjust="spacing" textLength="188" x="343" y="121.6777">return MiningSolution or error</text><path d="M10,141.4199 L72,141.4199 L72,148.7305 L62,158.7305 L10,158.7305 L10,141.4199 " fill="#EEEEEE" style="stroke:#000000;stroke-width:1.5;"/><rect fill="none" height="267.3945" style="stroke:#000000;stroke-width:1.5;" width="810.5" x="10" y="141.4199"/><text fill="#000000" font-family="sans-serif" font-size="13" font-weight="bold" lengthAdjust="spacing" textLength="17" x="25" y="154.9883">alt</text><text fill="#000000" font-family="sans-serif" font-size="11" font-weight="bold" lengthAdjust="spacing" textLength="161" x="87" y="154.0547">[If JSON Unmarshaling Fails]</text><polygon fill="#181818" points="68,176.041,58,180.041,68,184.041,64,180.041" style="stroke:#181818;stroke-width:1.0;"/><line style="stroke:#181818;stroke-width:1.0;" x1="62" x2="320" y1="180.041" y2="180.041"/><text fill="#000000" font-family="sans-serif" font-size="13" lengthAdjust="spacing" textLength="165" x="74" y="175.2988">Return unmarshaling error</text><line style="stroke:#000000;stroke-width:1.0;stroke-dasharray:2.0,2.0;" x1="10" x2="820.5" y1="189.041" y2="189.041"/><text fill="#000000" font-family="sans-serif" font-size="11" font-weight="bold" lengthAdjust="spacing" textLength="185" x="15" y="199.6758">[If JSON Unmarshaling Succeeds]</text><line style="stroke:#181818;stroke-width:1.0;" x1="321" x2="363" y1="224.3066" y2="224.3066"/><line style="stroke:#181818;stroke-width:1.0;" x1="363" x2="363" y1="224.3066" y2="237.3066"/><line style="stroke:#181818;stroke-width:1.0;" x1="322" x2="363" y1="237.3066" y2="237.3066"/><polygon fill="#181818" points="332,233.3066,322,237.3066,332,241.3066,328,237.3066" style="stroke:#181818;stroke-width:1.0;"/><text fill="#000000" font-family="sans-serif" font-size="13" lengthAdjust="spacing" textLength="144" x="328" y="219.5645">Log debug information</text><polygon fill="#181818" points="712,262.6172,722,266.6172,712,270.6172,716,266.6172" style="stroke:#181818;stroke-width:1.0;"/><line style="stroke:#181818;stroke-width:1.0;" x1="321" x2="718" y1="266.6172" y2="266.6172"/><text fill="#000000" font-family="sans-serif" font-size="13" lengthAdjust="spacing" textLength="255" x="328" y="261.875">SubmitMiningSolution(context, solution)</text><polygon fill="#181818" points="332,291.9277,322,295.9277,332,299.9277,328,295.9277" style="stroke:#181818;stroke-width:1.0;"/><line style="stroke:#181818;stroke-width:1.0;stroke-dasharray:2.0,2.0;" x1="326" x2="728" y1="295.9277" y2="295.9277"/><text fill="#000000" font-family="sans-serif" font-size="13" lengthAdjust="spacing" textLength="129" x="338" y="291.1855">return result or error</text><path d="M20,310.9277 L82,310.9277 L82,318.2383 L72,328.2383 L20,328.2383 L20,310.9277 " fill="#EEEEEE" style="stroke:#000000;stroke-width:1.5;"/><rect fill="none" height="90.8867" style="stroke:#000000;stroke-width:1.5;" width="355" x="20" y="310.9277"/><text fill="#000000" font-family="sans-serif" font-size="13" font-weight="bold" lengthAdjust="spacing" textLength="17" x="35" y="324.4961">alt</text><text fill="#000000" font-family="sans-serif" font-size="11" font-weight="bold" lengthAdjust="spacing" textLength="116" x="97" y="323.5625">[If Submission Fails]</text><polygon fill="#181818" points="68,345.5488,58,349.5488,68,353.5488,64,349.5488" style="stroke:#181818;stroke-width:1.0;"/><line style="stroke:#181818;stroke-width:1.0;" x1="62" x2="320" y1="349.5488" y2="349.5488"/><text fill="#000000" font-family="sans-serif" font-size="13" lengthAdjust="spacing" textLength="152" x="74" y="344.8066">Return submission error</text><line style="stroke:#000000;stroke-width:1.0;stroke-dasharray:2.0,2.0;" x1="20" x2="375" y1="358.5488" y2="358.5488"/><text fill="#000000" font-family="sans-serif" font-size="11" font-weight="bold" lengthAdjust="spacing" textLength="140" x="25" y="369.1836">[If Submission Succeeds]</text><polygon fill="#181818" points="68,389.8145,58,393.8145,68,397.8145,64,393.8145" style="stroke:#181818;stroke-width:1.0;"/><line style="stroke:#181818;stroke-width:1.0;" x1="62" x2="320" y1="393.8145" y2="393.8145"/><text fill="#000000" font-family="sans-serif" font-size="13" lengthAdjust="spacing" textLength="123" x="74" y="389.0723">Return nil (success)</text><!--SRC=[VLBBQiCm4BphAvQS4cX-88T26oWqz4LCFq2nDwc8B1djAhH_NqbsR2bDOz11kwEPsLbtqh6gLISDmrehD2owh3JRVgoXGdT2DmD94AvbVrEzly6dQQMZBwa7L7OlqO_QraTu8C9sfty6mVGaTSuD8VeEBE-Z8goWyhjMyQiooXmggpqhQzPjCz-GDHMxK5q8MRCwISPaKeZuCBpFl0IUyGR9E5ieEIUIV8QSOpbwSiZUcGi2i0xGEUj4WrUvXDGCptieWmiCy2IL9W7X6wmF8QnWsolv7DsBH7Gc52T7JNXTeF9rZTWK6lqeB_OGQ7R-0ChihMjboYB75VlvPo7psXh6Rxu36YgBH37QAvSSMoNjdsmTaWznZPbUZ7lnqoIjFjraZoWkP8hrHhGquIUbA-76qZdWJAD8zeQCKHhc5C54YviQfX7nY5y0]--></g></svg>
