<svg xmlns="http://www.w3.org/2000/svg" xmlns:xlink="http://www.w3.org/1999/xlink" contentStyleType="text/css" height="474px" preserveAspectRatio="none" style="width:560px;height:474px;background:#FFFFFF;" version="1.1" viewBox="0 0 560 474" width="560px" zoomAndPan="magnify"><defs/><g><rect fill="#FFFFFF" height="345.9238" style="stroke:#181818;stroke-width:1.0;" width="10" x="231.623" y="67.7988"/><rect fill="#FFFFFF" height="29.3105" style="stroke:#181818;stroke-width:1.0;" width="10" x="467.9355" y="97.1094"/><rect fill="none" height="265.3027" style="stroke:#000000;stroke-width:1.5;" width="516.3052" x="10" y="141.4199"/><line style="stroke:#181818;stroke-width:0.5;stroke-dasharray:5.0,5.0;" x1="46" x2="46" y1="36.4883" y2="423.7227"/><line style="stroke:#181818;stroke-width:0.5;stroke-dasharray:5.0,5.0;" x1="236.3481" x2="236.3481" y1="36.4883" y2="423.7227"/><line style="stroke:#181818;stroke-width:0.5;stroke-dasharray:5.0,5.0;" x1="472.2393" x2="472.2393" y1="36.4883" y2="423.7227"/><rect fill="#E2E2F0" height="30.4883" rx="2.5" ry="2.5" style="stroke:#181818;stroke-width:0.5;" width="53.5049" x="20" y="5"/><text fill="#000000" font-family="sans-serif" font-size="14" lengthAdjust="spacing" textLength="39.5049" x="27" y="25.5352">Client</text><rect fill="#E2E2F0" height="30.4883" rx="2.5" ry="2.5" style="stroke:#181818;stroke-width:0.5;" width="53.5049" x="20" y="422.7227"/><text fill="#000000" font-family="sans-serif" font-size="14" lengthAdjust="spacing" textLength="39.5049" x="27" y="443.2578">Client</text><rect fill="#E2E2F0" height="30.4883" rx="2.5" ry="2.5" style="stroke:#181818;stroke-width:0.5;" width="86.5498" x="193.3481" y="5"/><text fill="#000000" font-family="sans-serif" font-size="14" lengthAdjust="spacing" textLength="72.5498" x="200.3481" y="25.5352">RPC Server</text><rect fill="#E2E2F0" height="30.4883" rx="2.5" ry="2.5" style="stroke:#181818;stroke-width:0.5;" width="86.5498" x="193.3481" y="422.7227"/><text fill="#000000" font-family="sans-serif" font-size="14" lengthAdjust="spacing" textLength="72.5498" x="200.3481" y="443.2578">RPC Server</text><rect fill="#E2E2F0" height="30.4883" rx="2.5" ry="2.5" style="stroke:#181818;stroke-width:0.5;" width="163.3926" x="391.2393" y="5"/><text fill="#000000" font-family="sans-serif" font-size="14" lengthAdjust="spacing" textLength="149.3926" x="398.2393" y="25.5352">Block Assembly Client</text><rect fill="#E2E2F0" height="30.4883" rx="2.5" ry="2.5" style="stroke:#181818;stroke-width:0.5;" width="163.3926" x="391.2393" y="422.7227"/><text fill="#000000" font-family="sans-serif" font-size="14" lengthAdjust="spacing" textLength="149.3926" x="398.2393" y="443.2578">Block Assembly Client</text><rect fill="#FFFFFF" height="345.9238" style="stroke:#181818;stroke-width:1.0;" width="10" x="231.623" y="67.7988"/><rect fill="#FFFFFF" height="29.3105" style="stroke:#181818;stroke-width:1.0;" width="10" x="467.9355" y="97.1094"/><polygon fill="#181818" points="219.623,63.7988,229.623,67.7988,219.623,71.7988,223.623,67.7988" style="stroke:#181818;stroke-width:1.0;"/><line style="stroke:#181818;stroke-width:1.0;" x1="46.7524" x2="225.623" y1="67.7988" y2="67.7988"/><text fill="#000000" font-family="sans-serif" font-size="13" lengthAdjust="spacing" textLength="165.8706" x="53.7524" y="63.0566">GetMiningCandidateCmd()</text><polygon fill="#181818" points="455.9355,93.1094,465.9355,97.1094,455.9355,101.1094,459.9355,97.1094" style="stroke:#181818;stroke-width:1.0;"/><line style="stroke:#181818;stroke-width:1.0;" x1="241.623" x2="461.9355" y1="97.1094" y2="97.1094"/><text fill="#000000" font-family="sans-serif" font-size="13" lengthAdjust="spacing" textLength="184.209" x="248.623" y="92.3672">GetMiningCandidate(context)</text><polygon fill="#181818" points="252.623,122.4199,242.623,126.4199,252.623,130.4199,248.623,126.4199" style="stroke:#181818;stroke-width:1.0;"/><line style="stroke:#181818;stroke-width:1.0;stroke-dasharray:2.0,2.0;" x1="246.623" x2="471.9355" y1="126.4199" y2="126.4199"/><text fill="#000000" font-family="sans-serif" font-size="13" lengthAdjust="spacing" textLength="202.3125" x="258.623" y="121.6777">return MiningCandidate or error</text><path d="M10,141.4199 L72.1387,141.4199 L72.1387,148.7305 L62.1387,158.7305 L10,158.7305 L10,141.4199 " fill="#EEEEEE" style="stroke:#000000;stroke-width:1.5;"/><rect fill="none" height="265.3027" style="stroke:#000000;stroke-width:1.5;" width="516.3052" x="10" y="141.4199"/><text fill="#000000" font-family="sans-serif" font-size="13" font-weight="bold" lengthAdjust="spacing" textLength="17.1387" x="25" y="154.9883">alt</text><text fill="#000000" font-family="sans-serif" font-size="11" font-weight="bold" lengthAdjust="spacing" textLength="99.854" x="87.1387" y="154.0547">[If Retrieval Fails]</text><polygon fill="#181818" points="57.7524,176.041,47.7524,180.041,57.7524,184.041,53.7524,180.041" style="stroke:#181818;stroke-width:1.0;"/><line style="stroke:#181818;stroke-width:1.0;" x1="51.7524" x2="230.623" y1="180.041" y2="180.041"/><text fill="#000000" font-family="sans-serif" font-size="13" lengthAdjust="spacing" textLength="77.0796" x="63.7524" y="175.2988">Return error</text><line style="stroke:#000000;stroke-width:1.0;stroke-dasharray:2.0,2.0;" x1="10" x2="526.3052" y1="189.041" y2="189.041"/><text fill="#000000" font-family="sans-serif" font-size="11" font-weight="bold" lengthAdjust="spacing" textLength="125.313" x="15" y="199.6758">[If Retrieval Succeeds]</text><polygon fill="#181818" points="57.7524,307.5146,47.7524,311.5146,57.7524,315.5146,53.7524,311.5146" style="stroke:#181818;stroke-width:1.0;"/><line style="stroke:#181818;stroke-width:1.0;" x1="51.7524" x2="230.623" y1="311.5146" y2="311.5146"/><text fill="#000000" font-family="sans-serif" font-size="13" lengthAdjust="spacing" textLength="152.4961" x="63.7524" y="306.7725">Return MiningCandidate</text><path d="M246,207.9961 L246,400.9961 L515,400.9961 L515,217.9961 L505,207.9961 L246,207.9961 " fill="#FEFFDD" style="stroke:#181818;stroke-width:0.5;"/><path d="M505,207.9961 L505,217.9961 L515,217.9961 L505,207.9961 " fill="#FEFFDD" style="stroke:#181818;stroke-width:0.5;"/><text fill="#000000" font-family="sans-serif" font-size="13" lengthAdjust="spacing" textLength="102.7686" x="252" y="225.5645">Response fields:</text><text fill="#000000" font-family="sans-serif" font-size="13" lengthAdjust="spacing" textLength="248.6821" x="252" y="240.875">- id: Hex-encoded mining candidate ID</text><text fill="#000000" font-family="sans-serif" font-size="13" lengthAdjust="spacing" textLength="202.541" x="252" y="256.1855">- prevhash: Previous block hash</text><text fill="#000000" font-family="sans-serif" font-size="13" lengthAdjust="spacing" textLength="205.4355" x="252" y="271.4961">- coinbaseValue: Coinbase value</text><text fill="#000000" font-family="sans-serif" font-size="13" lengthAdjust="spacing" textLength="148.9097" x="252" y="286.8066">- version: Block version</text><text fill="#000000" font-family="sans-serif" font-size="13" lengthAdjust="spacing" textLength="205.2134" x="252" y="302.1172">- nBits: Encoded difficulty target</text><text fill="#000000" font-family="sans-serif" font-size="13" lengthAdjust="spacing" textLength="166.8354" x="252" y="317.4277">- time: Current timestamp</text><text fill="#000000" font-family="sans-serif" font-size="13" lengthAdjust="spacing" textLength="137.6616" x="252" y="332.7383">- height: Block height</text><text fill="#000000" font-family="sans-serif" font-size="13" lengthAdjust="spacing" textLength="181.1494" x="252" y="348.0488">- num_tx: Transaction count</text><text fill="#000000" font-family="sans-serif" font-size="13" lengthAdjust="spacing" textLength="214.373" x="252" y="363.3594">- sizeWithoutCoinbase: Block size</text><text fill="#000000" font-family="sans-serif" font-size="13" lengthAdjust="spacing" textLength="225.0625" x="252" y="378.6699">- merkleProof: Merkle proof hashes</text><text fill="#000000" font-family="sans-serif" font-size="13" lengthAdjust="spacing" textLength="206.2163" x="252" y="393.9805">- coinbase: Optional coinbase tx</text><text fill="#888888" font-family="sans-serif" font-size="10" lengthAdjust="spacing" textLength="156.3916" x="0" y="464.8789">Last Modified On: 19-Dec-2024</text><!--SRC=[VL9DRzim3BthLn011hG7_m4T1gpULu4P3TfXEmwAHCT4PScGQ2FPhv-ao4KSRDD9Z-_naI8rgS2aQLAEeRM4ZiLq5TezxrjumR1Ws86AaE2MVx1UlyA7674ys7ErADB2h8GG5mQQzza397n1xiYHExRA6JAAiHtDtRrGccb9g9GIMPjIDbv_JRxJtZ6U-CfWsy3Meddh8o3FmS6D7VW0688Fmk0_38Mo38yzF2C7maLP-Ap8HW7frBRhcsNMv28NHxGHjualizQ8vh-vDmqMgVEfgq37WI-P62VladbFQ4sK9TW06GbVyTIWqzwWWR4uWNvxw-F7gfm2BeEAWuHzkf6V8npAVdEmQhGdTr0HVoWxeuIsGbWohfhqMo9v9oyJMs4btGDnbF2fTcEexqdFbi_0AXoHgunfpFPp27aC6KLMurJP0VEhrm8NjFhFuoy-IVWUb8jvTzwbfcUtyf5-uq_YmS-yDh_wPAggHWol5lV1-rv2Lq0QJq9b5XXlfY7XQSgLqZBN4F2fYD2PiYYHBkBwEvKFRh5dw7tY0tnJaQ7pQIAK1lEKvlUkVEsTCKtNTSqvdTsz-0C0]--></g></svg>
