<?xml version="1.0" encoding="us-ascii" standalone="no"?><svg xmlns="http://www.w3.org/2000/svg" xmlns:xlink="http://www.w3.org/1999/xlink" contentStyleType="text/css" height="192px" preserveAspectRatio="none" style="width:353px;height:192px;background:#FFFFFF;" version="1.1" viewBox="0 0 353 192" width="353px" zoomAndPan="magnify"><defs/><g><rect fill="#FFFFFF" height="80.6211" style="stroke:#181818;stroke-width:1.0;" width="10" x="227" y="67.7988"/><rect fill="#FFFFFF" height="34.3105" style="stroke:#181818;stroke-width:1.0;" width="10" x="232" y="105.1094"/><line style="stroke:#181818;stroke-width:0.5;stroke-dasharray:5.0,5.0;" x1="32" x2="32" y1="36.4883" y2="157.4199"/><line style="stroke:#181818;stroke-width:0.5;stroke-dasharray:5.0,5.0;" x1="232" x2="232" y1="36.4883" y2="157.4199"/><rect fill="#E2E2F0" height="30.4883" rx="2.5" ry="2.5" style="stroke:#181818;stroke-width:0.5;" width="54" x="5" y="5"/><text fill="#000000" font-family="sans-serif" font-size="14" lengthAdjust="spacing" textLength="40" x="12" y="25.5352">Client</text><rect fill="#E2E2F0" height="30.4883" rx="2.5" ry="2.5" style="stroke:#181818;stroke-width:0.5;" width="54" x="5" y="156.4199"/><text fill="#000000" font-family="sans-serif" font-size="14" lengthAdjust="spacing" textLength="40" x="12" y="176.9551">Client</text><rect fill="#E2E2F0" height="30.4883" rx="2.5" ry="2.5" style="stroke:#181818;stroke-width:0.5;" width="88" x="188" y="5"/><text fill="#000000" font-family="sans-serif" font-size="14" lengthAdjust="spacing" textLength="74" x="195" y="25.5352">RPC Server</text><rect fill="#E2E2F0" height="30.4883" rx="2.5" ry="2.5" style="stroke:#181818;stroke-width:0.5;" width="88" x="188" y="156.4199"/><text fill="#000000" font-family="sans-serif" font-size="14" lengthAdjust="spacing" textLength="74" x="195" y="176.9551">RPC Server</text><rect fill="#FFFFFF" height="80.6211" style="stroke:#181818;stroke-width:1.0;" width="10" x="227" y="67.7988"/><rect fill="#FFFFFF" height="34.3105" style="stroke:#181818;stroke-width:1.0;" width="10" x="232" y="105.1094"/><polygon fill="#181818" points="215,63.7988,225,67.7988,215,71.7988,219,67.7988" style="stroke:#181818;stroke-width:1.0;"/><line style="stroke:#181818;stroke-width:1.0;" x1="32" x2="221" y1="67.7988" y2="67.7988"/><text fill="#000000" font-family="sans-serif" font-size="13" lengthAdjust="spacing" textLength="113" x="39" y="63.0566">Request: Version()</text><line style="stroke:#181818;stroke-width:1.0;" x1="237" x2="284" y1="92.1094" y2="92.1094"/><line style="stroke:#181818;stroke-width:1.0;" x1="284" x2="284" y1="92.1094" y2="105.1094"/><line style="stroke:#181818;stroke-width:1.0;" x1="243" x2="284" y1="105.1094" y2="105.1094"/><polygon fill="#181818" points="253,101.1094,243,105.1094,253,109.1094,249,105.1094" style="stroke:#181818;stroke-width:1.0;"/><text fill="#000000" font-family="sans-serif" font-size="13" lengthAdjust="spacing" textLength="97" x="249" y="87.3672">handleVersion()</text><polygon fill="#181818" points="43,135.4199,33,139.4199,43,143.4199,39,139.4199" style="stroke:#181818;stroke-width:1.0;"/><line style="stroke:#181818;stroke-width:1.0;" x1="37" x2="226" y1="139.4199" y2="139.4199"/><text fill="#000000" font-family="sans-serif" font-size="13" lengthAdjust="spacing" textLength="171" x="49" y="134.6777">Response with Version Info</text><!--SRC=[XOqn3i9030Hxly9A1GKVI46JYWu5YTvA5iLIv3lE9dmVJW445UMkPdQpbD11irXmDoiiA7zLJN_i-8Ioe3Gipiz8j7AyszV8BVUutk3HyXd5DTbcIpA4BX9OXOfzw4bidF47VLtKRS_977pNcDu7VB1BeX4_wWC0]--></g></svg>
