<svg contentStyleType="text/css" height="335" preserveAspectRatio="none" viewBox="0 0 847 335" width="847" xmlns="http://www.w3.org/2000/svg" zoomAndPan="magnify"><rect fill="#f1f1f1" height="71.5547" rx="2.5" stroke="#181818" stroke-width=".5" width="133.0283" x="7" y="7"/><ellipse cx="22" cy="23" fill="#add1b2" rx="11" ry="11" stroke="#181818"/><path d="m24.9731 28.6431q-.581.2988-1.2202.4482-.6391.1494-1.3447.1494-2.5068 0-3.8267-1.6518-1.3198-1.6519-1.3198-4.773 0-3.1294 1.3198-4.7812 1.3199-1.6519 3.8267-1.6519.7056 0 1.353.1494.6475.1494 1.2119.4483v2.7226q-.6308-.581-1.2243-.8508-.5935-.2698-1.2244-.2698-1.3447 0-2.0295 1.0667-.6848 1.0666-.6848 3.1667 0 2.0918.6848 3.1585.6848 1.0666 2.0295 1.0666.6309 0 1.2244-.2698.5935-.2697 1.2243-.8508z"/><text font-family="sans-serif" font-size="14" lengthAdjust="spacing" textLength="101.0283" x="36" y="28.291">BlockAssembly</text><path d="m8 39h131.0283" stroke="#181818" stroke-width=".5"/><text fill="#808080" font-family="sans-serif" font-size="10" font-style="italic" lengthAdjust="spacing" textLength="106.7627" x="13" y="52.668">This will push subtree</text><text fill="#808080" font-family="sans-serif" font-size="10" font-style="italic" lengthAdjust="spacing" textLength="116.7725" x="13" y="64.4453">to the shared filesystem</text><path d="m8 70.5547h131.0283" stroke="#181818" stroke-width=".5"/><rect fill="#f1f1f1" height="48" rx="2.5" stroke="#181818" stroke-width=".5" width="136.1455" x="175.44" y="18.77"/><ellipse cx="190.44" cy="34.77" fill="#add1b2" rx="11" ry="11" stroke="#181818"/><path d="m193.4131 40.4131q-.581.2988-1.2202.4482-.6391.1494-1.3447.1494-2.5068 0-3.8267-1.6518-1.3198-1.6519-1.3198-4.773 0-3.1294 1.3198-4.7812 1.3199-1.6519 3.8267-1.6519.7056 0 1.353.1494.6475.1494 1.2119.4483v2.7226q-.6308-.581-1.2243-.8508-.5935-.2698-1.2244-.2698-1.3447 0-2.0295 1.0667-.6848 1.0666-.6848 3.1667 0 2.0918.6848 3.1585.6848 1.0666 2.0295 1.0666.6309 0 1.2244-.2698.5935-.2697 1.2243-.8508z"/><text font-family="sans-serif" font-size="14" lengthAdjust="spacing" textLength="104.1455" x="204.44" y="40.061">BlockValidation</text><g stroke="#181818"><path d="m176.44 50.77h134.1455" stroke-width=".5"/><path d="m176.44 58.77h134.1455" stroke-width=".5"/><rect fill="#f1f1f1" height="71.5547" rx="2.5" stroke-width=".5" width="156.9336" x="684.05" y="7"/><ellipse cx="699.05" cy="23" fill="#add1b2" rx="11" ry="11"/></g><path d="m702.0231 28.6431q-.581.2988-1.2202.4482-.6391.1494-1.3447.1494-2.5068 0-3.8267-1.6518-1.3198-1.6519-1.3198-4.773 0-3.1294 1.3198-4.7812 1.3199-1.6519 3.8267-1.6519.7056 0 1.353.1494.6475.1494 1.2119.4483v2.7226q-.6308-.581-1.2243-.8508-.5935-.2698-1.2244-.2698-1.3447 0-2.0295 1.0667-.6848 1.0666-.6848 3.1667 0 2.0918.6848 3.1585.6848 1.0666 2.0295 1.0666.6309 0 1.2244-.2698.5935-.2697 1.2243-.8508z"/><text font-family="sans-serif" font-size="14" lengthAdjust="spacing" textLength="124.9336" x="713.05" y="28.291">SubtreetValidation</text><path d="m685.05 39h154.9336" stroke="#181818" stroke-width=".5"/><text fill="#808080" font-family="sans-serif" font-size="10" font-style="italic" lengthAdjust="spacing" textLength="111.8604" x="690.05" y="52.668">This will push subtrees</text><text fill="#808080" font-family="sans-serif" font-size="10" font-style="italic" lengthAdjust="spacing" textLength="116.7725" x="690.05" y="64.4453">to the shared filesystem</text><path d="m685.05 70.5547h154.9336" stroke="#181818" stroke-width=".5"/><rect fill="#f1f1f1" height="48" rx="2.5" stroke="#181818" stroke-width=".5" width="116.3008" x="346.36" y="18.77"/><ellipse cx="361.36" cy="34.77" fill="#add1b2" rx="11" ry="11" stroke="#181818"/><path d="m364.3331 40.4131q-.581.2988-1.2202.4482-.6391.1494-1.3447.1494-2.5068 0-3.8267-1.6518-1.3198-1.6519-1.3198-4.773 0-3.1294 1.3198-4.7812 1.3199-1.6519 3.8267-1.6519.7056 0 1.353.1494.6475.1494 1.2119.4483v2.7226q-.6308-.581-1.2243-.8508-.5935-.2698-1.2244-.2698-1.3447 0-2.0295 1.0667-.6848 1.0666-.6848 3.1667 0 2.0918.6848 3.1585.6848 1.0666 2.0295 1.0666.6309 0 1.2244-.2698.5935-.2697 1.2243-.8508z"/><text font-family="sans-serif" font-size="14" lengthAdjust="spacing" textLength="84.3008" x="375.36" y="40.061">AssetService</text><path d="m347.36 50.77h114.3008" stroke="#181818" stroke-width=".5"/><path d="m347.36 58.77h114.3008" stroke="#181818" stroke-width=".5"/><rect fill="#f1f1f1" height="48" rx="2.5" stroke="#181818" stroke-width=".5" width="89.1006" x="278.96" y="155.55"/><ellipse cx="293.96" cy="171.55" fill="#add1b2" rx="11" ry="11" stroke="#181818"/><path d="m296.9331 177.1931q-.581.2988-1.2202.4482-.6391.1494-1.3447.1494-2.5068 0-3.8267-1.6518-1.3198-1.6519-1.3198-4.773 0-3.1294 1.3198-4.7812 1.3199-1.6519 3.8267-1.6519.7056 0 1.353.1494.6475.1494 1.2119.4483v2.7226q-.6308-.581-1.2243-.8508-.5935-.2698-1.2244-.2698-1.3447 0-2.0295 1.0667-.6848 1.0666-.6848 3.1667 0 2.0918.6848 3.1585.6848 1.0666 2.0295 1.0666.6309 0 1.2244-.2698.5935-.2697 1.2243-.8508z"/><text font-family="sans-serif" font-size="14" lengthAdjust="spacing" textLength="57.1006" x="307.96" y="176.841">LustreFS</text><path d="m279.96 187.55h87.1006" stroke="#181818" stroke-width=".5"/><path d="m279.96 195.55h87.1006" stroke="#181818" stroke-width=".5"/><rect fill="#f1f1f1" height="48" rx="2.5" stroke="#181818" stroke-width=".5" width="48.3926" x="299.32" y="280.55"/><ellipse cx="314.32" cy="296.55" fill="#add1b2" rx="11" ry="11" stroke="#181818"/><path d="m317.2931 302.1931q-.581.2988-1.2202.4482-.6391.1494-1.3447.1494-2.5068 0-3.8267-1.6518-1.3198-1.6519-1.3198-4.773 0-3.1294 1.3198-4.7812 1.3199-1.6519 3.8267-1.6519.7056 0 1.353.1494.6475.1494 1.2119.4483v2.7226q-.6308-.581-1.2243-.8508-.5935-.2698-1.2244-.2698-1.3447 0-2.0295 1.0667-.6848 1.0666-.6848 3.1667 0 2.0918.6848 3.1585.6848 1.0666 2.0295 1.0666.6309 0 1.2244-.2698.5935-.2697 1.2243-.8508z"/><text font-family="sans-serif" font-size="14" lengthAdjust="spacing" textLength="16.3926" x="328.32" y="301.841">S3</text><path d="m300.32 312.55h46.3926" stroke="#181818" stroke-width=".5"/><path d="m300.32 320.55h46.3926" stroke="#181818" stroke-width=".5"/><rect fill="#f1f1f1" height="48" rx="2.5" stroke="#181818" stroke-width=".5" width="151.6973" x="497.67" y="18.77"/><ellipse cx="512.67" cy="34.77" fill="#add1b2" rx="11" ry="11" stroke="#181818"/><path d="m515.6431 40.4131q-.581.2988-1.2202.4482-.6391.1494-1.3447.1494-2.5068 0-3.8267-1.6518-1.3198-1.6519-1.3198-4.773 0-3.1294 1.3198-4.7812 1.3199-1.6519 3.8267-1.6519.7056 0 1.353.1494.6475.1494 1.2119.4483v2.7226q-.6308-.581-1.2243-.8508-.5935-.2698-1.2244-.2698-1.3447 0-2.0295 1.0667-.6848 1.0666-.6848 3.1667 0 2.0918.6848 3.1585.6848 1.0666 2.0295 1.0666.6309 0 1.2244-.2698.5935-.2697 1.2243-.8508z"/><text font-family="sans-serif" font-size="14" lengthAdjust="spacing" textLength="119.6973" x="526.67" y="40.061">SubtreeValidation</text><path d="m498.67 50.77h149.6973" stroke="#181818" stroke-width=".5"/><path d="m498.67 58.77h149.6973" stroke="#181818" stroke-width=".5"/><path d="m100.77 78.78c14.2 16.2 32.76 34.53 52.74 46.77 38.9 23.81 89.41 37.77 125.24 45.34" fill="none" stroke="#181818"/><path d="m162.9506 119.5034-6.6823-6.7674-2.7016 5.2201z" stroke="#000"/><text font-family="sans-serif" font-size="13" lengthAdjust="spacing" textLength="81.6563" x="167.51" y="122.1184">subtrees TTL</text><path d="m246.2 67.01c2.8 17.17 8.39 40.58 19.31 58.54 6.74 11.07 16.46 21.22 26.03 29.61" fill="none" stroke="#181818"/><path d="m268.223 112.759 1.5237 9.3877 5.227-2.6885z" stroke="#000"/><text font-family="sans-serif" font-size="13" lengthAdjust="spacing" textLength="81.6563" x="279.51" y="122.1184">subtrees TTL</text><path d="m551.61 66.98c-18.13 18.07-45.34 42.67-73.1 58.57-34.67 19.86-77.97 33.88-109.99 42.5" fill="none" stroke="#181818"/><path d="m502.0327 119.6217 9.339-1.7984-2.8407-5.1459z" stroke="#000"/><text font-family="sans-serif" font-size="13" lengthAdjust="spacing" textLength="81.6563" x="515.41" y="122.1184">subtrees TTL</text><path d="m395.08 67.06c-7.19 16.77-17.83 39.67-29.57 58.49-6.33 10.16-14.29 20.64-21.56 29.57" fill="none" stroke="#181818"/><path d="m381.7206 112.8813-7.0833 6.3464 5.0831 2.9515z" stroke="#000"/><text font-family="sans-serif" font-size="13" lengthAdjust="spacing" textLength="81.6563" x="388.21" y="122.1184">subtrees TTL</text><path d="m323.51 203.97v76.24" fill="none" stroke="#181818"/><path d="m328.51 247.2053 2.9389-9.0451h-5.8778z" stroke="#000"/><text font-family="sans-serif" font-size="13" lengthAdjust="spacing" textLength="121.7544" x="337.51" y="247.1184">subtrees (non-TTL)</text></svg>
