<svg xmlns="http://www.w3.org/2000/svg" xmlns:xlink="http://www.w3.org/1999/xlink" contentStyleType="text/css" height="335px" preserveAspectRatio="none" style="width:847px;height:335px;background:#F0F8FF;" version="1.1" viewBox="0 0 847 335" width="847px" zoomAndPan="magnify"><defs/><g><rect fill="#F0F8FF" height="335" style="stroke:none;stroke-width:1.0;" width="847" x="0" y="0"/><!--class BlockAssembly--><g id="elem_BlockAssembly"><rect codeLine="25" fill="#F1F1F1" height="71.5547" id="BlockAssembly" rx="2.5" ry="2.5" style="stroke:#181818;stroke-width:0.5;" width="133.0283" x="7" y="7"/><ellipse cx="22" cy="23" fill="#ADD1B2" rx="11" ry="11" style="stroke:#181818;stroke-width:1.0;"/><path d="M24.4731,29.1431 Q23.8921,29.4419 23.2529,29.5913 Q22.6138,29.7407 21.9082,29.7407 Q19.4014,29.7407 18.0815,28.0889 Q16.7617,26.437 16.7617,23.3159 Q16.7617,20.1865 18.0815,18.5347 Q19.4014,16.8828 21.9082,16.8828 Q22.6138,16.8828 23.2612,17.0322 Q23.9087,17.1816 24.4731,17.4805 L24.4731,20.2031 Q23.8423,19.6221 23.2488,19.3523 Q22.6553,19.0825 22.0244,19.0825 Q20.6797,19.0825 19.9949,20.1492 Q19.3101,21.2158 19.3101,23.3159 Q19.3101,25.4077 19.9949,26.4744 Q20.6797,27.541 22.0244,27.541 Q22.6553,27.541 23.2488,27.2712 Q23.8423,27.0015 24.4731,26.4204 Z " fill="#333333"/><text fill="#333333" font-family="sans-serif" font-size="14" lengthAdjust="spacing" textLength="101.0283" x="36" y="28.291">BlockAssembly</text><line style="stroke:#181818;stroke-width:0.5;" x1="8" x2="139.0283" y1="39" y2="39"/><text fill="#808080" font-family="sans-serif" font-size="10" font-style="italic" lengthAdjust="spacing" textLength="106.7627" x="13" y="52.668">This will push subtree</text><text fill="#808080" font-family="sans-serif" font-size="10" font-style="italic" lengthAdjust="spacing" textLength="116.7725" x="13" y="64.4453">to the shared filesystem</text><line style="stroke:#181818;stroke-width:0.5;" x1="8" x2="139.0283" y1="70.5547" y2="70.5547"/></g><!--class BlockValidation--><g id="elem_BlockValidation"><rect codeLine="30" fill="#F1F1F1" height="48" id="BlockValidation" rx="2.5" ry="2.5" style="stroke:#181818;stroke-width:0.5;" width="136.1455" x="175.44" y="18.77"/><ellipse cx="190.44" cy="34.77" fill="#ADD1B2" rx="11" ry="11" style="stroke:#181818;stroke-width:1.0;"/><path d="M192.9131,40.9131 Q192.3321,41.2119 191.6929,41.3613 Q191.0538,41.5107 190.3482,41.5107 Q187.8414,41.5107 186.5215,39.8589 Q185.2017,38.207 185.2017,35.0859 Q185.2017,31.9565 186.5215,30.3047 Q187.8414,28.6528 190.3482,28.6528 Q191.0538,28.6528 191.7012,28.8022 Q192.3487,28.9516 192.9131,29.2505 L192.9131,31.9731 Q192.2823,31.3921 191.6888,31.1223 Q191.0953,30.8525 190.4644,30.8525 Q189.1197,30.8525 188.4349,31.9192 Q187.7501,32.9858 187.7501,35.0859 Q187.7501,37.1777 188.4349,38.2444 Q189.1197,39.311 190.4644,39.311 Q191.0953,39.311 191.6888,39.0412 Q192.2823,38.7715 192.9131,38.1904 Z " fill="#333333"/><text fill="#333333" font-family="sans-serif" font-size="14" lengthAdjust="spacing" textLength="104.1455" x="204.44" y="40.061">BlockValidation</text><line style="stroke:#181818;stroke-width:0.5;" x1="176.44" x2="310.5855" y1="50.77" y2="50.77"/><line style="stroke:#181818;stroke-width:0.5;" x1="176.44" x2="310.5855" y1="58.77" y2="58.77"/></g><!--class SubtreetValidation--><g id="elem_SubtreetValidation"><rect codeLine="33" fill="#F1F1F1" height="71.5547" id="SubtreetValidation" rx="2.5" ry="2.5" style="stroke:#181818;stroke-width:0.5;" width="156.9336" x="684.05" y="7"/><ellipse cx="699.05" cy="23" fill="#ADD1B2" rx="11" ry="11" style="stroke:#181818;stroke-width:1.0;"/><path d="M701.5231,29.1431 Q700.9421,29.4419 700.3029,29.5913 Q699.6638,29.7407 698.9582,29.7407 Q696.4514,29.7407 695.1315,28.0889 Q693.8117,26.437 693.8117,23.3159 Q693.8117,20.1865 695.1315,18.5347 Q696.4514,16.8828 698.9582,16.8828 Q699.6638,16.8828 700.3112,17.0322 Q700.9587,17.1816 701.5231,17.4805 L701.5231,20.2031 Q700.8923,19.6221 700.2988,19.3523 Q699.7053,19.0825 699.0744,19.0825 Q697.7297,19.0825 697.0449,20.1492 Q696.3601,21.2158 696.3601,23.3159 Q696.3601,25.4077 697.0449,26.4744 Q697.7297,27.541 699.0744,27.541 Q699.7053,27.541 700.2988,27.2712 Q700.8923,27.0015 701.5231,26.4204 Z " fill="#333333"/><text fill="#333333" font-family="sans-serif" font-size="14" lengthAdjust="spacing" textLength="124.9336" x="713.05" y="28.291">SubtreetValidation</text><line style="stroke:#181818;stroke-width:0.5;" x1="685.05" x2="839.9836" y1="39" y2="39"/><text fill="#808080" font-family="sans-serif" font-size="10" font-style="italic" lengthAdjust="spacing" textLength="111.8604" x="690.05" y="52.668">This will push subtrees</text><text fill="#808080" font-family="sans-serif" font-size="10" font-style="italic" lengthAdjust="spacing" textLength="116.7725" x="690.05" y="64.4453">to the shared filesystem</text><line style="stroke:#181818;stroke-width:0.5;" x1="685.05" x2="839.9836" y1="70.5547" y2="70.5547"/></g><!--class AssetService--><g id="elem_AssetService"><rect codeLine="38" fill="#F1F1F1" height="48" id="AssetService" rx="2.5" ry="2.5" style="stroke:#181818;stroke-width:0.5;" width="116.3008" x="346.36" y="18.77"/><ellipse cx="361.36" cy="34.77" fill="#ADD1B2" rx="11" ry="11" style="stroke:#181818;stroke-width:1.0;"/><path d="M363.8331,40.9131 Q363.2521,41.2119 362.6129,41.3613 Q361.9738,41.5107 361.2682,41.5107 Q358.7614,41.5107 357.4415,39.8589 Q356.1217,38.207 356.1217,35.0859 Q356.1217,31.9565 357.4415,30.3047 Q358.7614,28.6528 361.2682,28.6528 Q361.9738,28.6528 362.6212,28.8022 Q363.2687,28.9516 363.8331,29.2505 L363.8331,31.9731 Q363.2023,31.3921 362.6088,31.1223 Q362.0153,30.8525 361.3844,30.8525 Q360.0397,30.8525 359.3549,31.9192 Q358.6701,32.9858 358.6701,35.0859 Q358.6701,37.1777 359.3549,38.2444 Q360.0397,39.311 361.3844,39.311 Q362.0153,39.311 362.6088,39.0412 Q363.2023,38.7715 363.8331,38.1904 Z " fill="#333333"/><text fill="#333333" font-family="sans-serif" font-size="14" lengthAdjust="spacing" textLength="84.3008" x="375.36" y="40.061">AssetService</text><line style="stroke:#181818;stroke-width:0.5;" x1="347.36" x2="461.6608" y1="50.77" y2="50.77"/><line style="stroke:#181818;stroke-width:0.5;" x1="347.36" x2="461.6608" y1="58.77" y2="58.77"/></g><!--class LustreFS--><g id="elem_LustreFS"><rect codeLine="41" fill="#F1F1F1" height="48" id="LustreFS" rx="2.5" ry="2.5" style="stroke:#181818;stroke-width:0.5;" width="89.1006" x="278.96" y="155.55"/><ellipse cx="293.96" cy="171.55" fill="#ADD1B2" rx="11" ry="11" style="stroke:#181818;stroke-width:1.0;"/><path d="M296.4331,177.6931 Q295.8521,177.9919 295.2129,178.1413 Q294.5738,178.2907 293.8682,178.2907 Q291.3614,178.2907 290.0415,176.6389 Q288.7217,174.987 288.7217,171.8659 Q288.7217,168.7365 290.0415,167.0847 Q291.3614,165.4328 293.8682,165.4328 Q294.5738,165.4328 295.2212,165.5822 Q295.8687,165.7316 296.4331,166.0305 L296.4331,168.7531 Q295.8023,168.1721 295.2088,167.9023 Q294.6153,167.6325 293.9844,167.6325 Q292.6397,167.6325 291.9549,168.6992 Q291.2701,169.7658 291.2701,171.8659 Q291.2701,173.9577 291.9549,175.0244 Q292.6397,176.091 293.9844,176.091 Q294.6153,176.091 295.2088,175.8212 Q295.8023,175.5515 296.4331,174.9704 Z " fill="#333333"/><text fill="#333333" font-family="sans-serif" font-size="14" lengthAdjust="spacing" textLength="57.1006" x="307.96" y="176.841">LustreFS</text><line style="stroke:#181818;stroke-width:0.5;" x1="279.96" x2="367.0606" y1="187.55" y2="187.55"/><line style="stroke:#181818;stroke-width:0.5;" x1="279.96" x2="367.0606" y1="195.55" y2="195.55"/></g><!--class S3--><g id="elem_S3"><rect codeLine="44" fill="#F1F1F1" height="48" id="S3" rx="2.5" ry="2.5" style="stroke:#181818;stroke-width:0.5;" width="48.3926" x="299.32" y="280.55"/><ellipse cx="314.32" cy="296.55" fill="#ADD1B2" rx="11" ry="11" style="stroke:#181818;stroke-width:1.0;"/><path d="M316.7931,302.6931 Q316.2121,302.9919 315.5729,303.1413 Q314.9338,303.2907 314.2282,303.2907 Q311.7214,303.2907 310.4015,301.6389 Q309.0817,299.987 309.0817,296.8659 Q309.0817,293.7365 310.4015,292.0847 Q311.7214,290.4328 314.2282,290.4328 Q314.9338,290.4328 315.5812,290.5822 Q316.2287,290.7316 316.7931,291.0305 L316.7931,293.7531 Q316.1623,293.1721 315.5688,292.9023 Q314.9753,292.6325 314.3444,292.6325 Q312.9997,292.6325 312.3149,293.6992 Q311.6301,294.7658 311.6301,296.8659 Q311.6301,298.9577 312.3149,300.0244 Q312.9997,301.091 314.3444,301.091 Q314.9753,301.091 315.5688,300.8212 Q316.1623,300.5515 316.7931,299.9704 Z " fill="#333333"/><text fill="#333333" font-family="sans-serif" font-size="14" lengthAdjust="spacing" textLength="16.3926" x="328.32" y="301.841">S3</text><line style="stroke:#181818;stroke-width:0.5;" x1="300.32" x2="346.7126" y1="312.55" y2="312.55"/><line style="stroke:#181818;stroke-width:0.5;" x1="300.32" x2="346.7126" y1="320.55" y2="320.55"/></g><!--class SubtreeValidation--><g id="elem_SubtreeValidation"><rect fill="#F1F1F1" height="48" id="SubtreeValidation" rx="2.5" ry="2.5" style="stroke:#181818;stroke-width:0.5;" width="151.6973" x="497.67" y="18.77"/><ellipse cx="512.67" cy="34.77" fill="#ADD1B2" rx="11" ry="11" style="stroke:#181818;stroke-width:1.0;"/><path d="M515.1431,40.9131 Q514.5621,41.2119 513.9229,41.3613 Q513.2838,41.5107 512.5782,41.5107 Q510.0714,41.5107 508.7515,39.8589 Q507.4317,38.207 507.4317,35.0859 Q507.4317,31.9565 508.7515,30.3047 Q510.0714,28.6528 512.5782,28.6528 Q513.2838,28.6528 513.9312,28.8022 Q514.5787,28.9516 515.1431,29.2505 L515.1431,31.9731 Q514.5123,31.3921 513.9188,31.1223 Q513.3253,30.8525 512.6944,30.8525 Q511.3497,30.8525 510.6649,31.9192 Q509.9801,32.9858 509.9801,35.0859 Q509.9801,37.1777 510.6649,38.2444 Q511.3497,39.311 512.6944,39.311 Q513.3253,39.311 513.9188,39.0412 Q514.5123,38.7715 515.1431,38.1904 Z " fill="#333333"/><text fill="#333333" font-family="sans-serif" font-size="14" lengthAdjust="spacing" textLength="119.6973" x="526.67" y="40.061">SubtreeValidation</text><line style="stroke:#181818;stroke-width:0.5;" x1="498.67" x2="648.3673" y1="50.77" y2="50.77"/><line style="stroke:#181818;stroke-width:0.5;" x1="498.67" x2="648.3673" y1="58.77" y2="58.77"/></g><!--link BlockAssembly to LustreFS--><g id="link_BlockAssembly_LustreFS"><path codeLine="46" d="M96.47,78.99 C108.68,95.25 125,113.56 143.51,125.55 C184.94,152.37 240.38,166.01 278.73,172.67 " fill="none" id="BlockAssembly-LustreFS" style="stroke:#666666;stroke-width:1.0;"/><polygon fill="#333333" points="152.957,119.491,146.2558,112.7422,143.5688,117.97,152.957,119.491" style="stroke:#333333;stroke-width:1.0;"/><text fill="#333333" font-family="sans-serif" font-size="13" lengthAdjust="spacing" textLength="86.5439" x="157.51" y="122.1184">subtrees DAH</text></g><!--link BlockValidation to LustreFS--><g id="link_BlockValidation_LustreFS"><path codeLine="47" d="M244.31,67.1 C245.83,84.31 249.89,107.74 260.51,125.55 C267.25,136.84 277.29,146.86 287.37,155.07 " fill="none" id="BlockValidation-LustreFS" style="stroke:#666666;stroke-width:1.0;"/><polygon fill="#333333" points="263.3118,112.7144,264.6487,122.1305,269.9281,119.5464,263.3118,112.7144" style="stroke:#333333;stroke-width:1.0;"/><text fill="#333333" font-family="sans-serif" font-size="13" lengthAdjust="spacing" textLength="86.5439" x="274.51" y="122.1184">subtrees DAH</text></g><!--link SubtreeValidation to LustreFS--><g id="link_SubtreeValidation_LustreFS"><path codeLine="48" d="M553.03,67.11 C536.01,85.25 510.31,109.9 483.51,125.55 C447.38,146.66 401.69,160.72 368.4,169.02 " fill="none" id="SubtreeValidation-LustreFS" style="stroke:#666666;stroke-width:1.0;"/><polygon fill="#333333" points="508.7826,119.6215,518.1216,117.8235,515.2812,112.6775,508.7826,119.6215" style="stroke:#333333;stroke-width:1.0;"/><text fill="#333333" font-family="sans-serif" font-size="13" lengthAdjust="spacing" textLength="86.5439" x="522.16" y="122.1184">subtrees DAH</text></g><!--link AssetService to LustreFS--><g id="link_AssetService_LustreFS"><path codeLine="49" d="M395.08,67.06 C387.89,83.83 377.25,106.73 365.51,125.55 C359.18,135.71 351.22,146.19 343.95,155.12 " fill="none" id="AssetService-LustreFS" style="stroke:#666666;stroke-width:1.0;"/><polygon fill="#333333" points="381.7206,112.8813,374.6373,119.2277,379.7204,122.1792,381.7206,112.8813" style="stroke:#333333;stroke-width:1.0;"/><text fill="#333333" font-family="sans-serif" font-size="13" lengthAdjust="spacing" textLength="86.5439" x="388.21" y="122.1184">subtrees DAH</text></g><!--link LustreFS to S3--><g id="link_LustreFS_S3"><path codeLine="50" d="M323.51,203.97 C323.51,225.86 323.51,258.35 323.51,280.21 " fill="none" id="LustreFS-S3" style="stroke:#666666;stroke-width:1.0;"/><polygon fill="#333333" points="328.51,247.2053,331.4489,238.1602,325.5711,238.1602,328.51,247.2053" style="stroke:#333333;stroke-width:1.0;"/><text fill="#333333" font-family="sans-serif" font-size="13" lengthAdjust="spacing" textLength="135.04" x="337.51" y="247.1184">subtrees (permanent)</text></g><!--SRC=[jPDDIyD048Rl-oj6FAY7qaf1f8I5VaKFnOCLxvjaqYpTx8QTZQKM_xkRjBH9XE87pY6GUPzzzvq9eRNKXR0YXqZ4wvKrfKwcHXaBb-4Wl0z3HaSYmLIKoeL6kmCohAk126lDvY3UrSNO5SmmbHeXCZP1Iv1wLIW5g317xQXnthzAjuKT0vZKTDlBTxifPtMn3zPmYNr2QzHVRVpJoLWMGhlVMJ5saUn7VvvFNyPF3uivn4eGCNPgJ9I9rsCYp2Erdpo8AwFHokAM1v879DznT3lWBvaas4Y_kQAa3AYCd4KC-fNEWxud-_L9ViR36N0P0cN2OWAfL4XRSfXNSJkPNeMIYN3IQ9-g9I_tDxiM0V3JvFGVqQjDkYNQDnbZD_UY97zlkFmopn1slj7-4htUYHyT8yDi_0YSTHTq1WxOOLtVmpbhJN3M-AXuoi_GqAyBjBdG_dUw0Vu9]--></g></svg>
