<svg xmlns="http://www.w3.org/2000/svg" xmlns:xlink="http://www.w3.org/1999/xlink" contentStyleType="text/css" height="539px" preserveAspectRatio="none" style="width:564px;height:539px;background:#F0F8FF;" version="1.1" viewBox="0 0 564 539" width="564px" zoomAndPan="magnify"><title>Seeder Service Initialization</title><defs/><g><rect fill="#F0F8FF" height="539" style="stroke:none;stroke-width:1.0;" width="564" x="0" y="0"/><text fill="#333333" font-family="sans-serif" font-size="14" font-weight="bold" lengthAdjust="spacing" textLength="199.3701" x="181.3528" y="28.5352">Seeder Service Initialization</text><rect fill="#FFFFFF" height="365.416" style="stroke:#181818;stroke-width:1.0;" width="10" x="166.5776" y="105.2871"/><rect fill="none" height="59.6211" style="stroke:#000000;stroke-width:1.5;" width="183.1206" x="131.8379" y="309.1504"/><rect fill="none" height="59.6211" style="stroke:#000000;stroke-width:1.5;" width="174.9727" x="131.8379" y="382.7715"/><line style="stroke:#181818;stroke-width:0.5;stroke-dasharray:5.0,5.0;" x1="28" x2="28" y1="73.9766" y2="488.7031"/><line style="stroke:#181818;stroke-width:0.5;stroke-dasharray:5.0,5.0;" x1="170.8379" x2="170.8379" y1="73.9766" y2="488.7031"/><line style="stroke:#181818;stroke-width:0.5;stroke-dasharray:5.0,5.0;" x1="365.3491" x2="365.3491" y1="73.9766" y2="488.7031"/><line style="stroke:#181818;stroke-width:0.5;stroke-dasharray:5.0,5.0;" x1="435.6558" x2="435.6558" y1="73.9766" y2="488.7031"/><line style="stroke:#181818;stroke-width:0.5;stroke-dasharray:5.0,5.0;" x1="510.0718" x2="510.0718" y1="73.9766" y2="488.7031"/><rect fill="#DDDDDD" height="30.4883" rx="2.5" ry="2.5" style="stroke:#666666;stroke-width:0.5;" width="46.5254" x="5" y="42.4883"/><text fill="#333333" font-family="sans-serif" font-size="14" lengthAdjust="spacing" textLength="32.5254" x="12" y="63.0234">Main</text><rect fill="#DDDDDD" height="30.4883" rx="2.5" ry="2.5" style="stroke:#666666;stroke-width:0.5;" width="46.5254" x="5" y="487.7031"/><text fill="#333333" font-family="sans-serif" font-size="14" lengthAdjust="spacing" textLength="32.5254" x="12" y="508.2383">Main</text><rect fill="#DDDDDD" height="30.4883" rx="2.5" ry="2.5" style="stroke:#666666;stroke-width:0.5;" width="59.4795" x="141.8379" y="42.4883"/><text fill="#333333" font-family="sans-serif" font-size="14" lengthAdjust="spacing" textLength="45.4795" x="148.8379" y="63.0234">Seeder</text><rect fill="#DDDDDD" height="30.4883" rx="2.5" ry="2.5" style="stroke:#666666;stroke-width:0.5;" width="59.4795" x="141.8379" y="487.7031"/><text fill="#333333" font-family="sans-serif" font-size="14" lengthAdjust="spacing" textLength="45.4795" x="148.8379" y="508.2383">Seeder</text><rect fill="#DDDDDD" height="30.4883" rx="2.5" ry="2.5" style="stroke:#666666;stroke-width:0.5;" width="88.3066" x="321.3491" y="42.4883"/><text fill="#333333" font-family="sans-serif" font-size="14" lengthAdjust="spacing" textLength="74.3066" x="328.3491" y="63.0234">Flag Parser</text><rect fill="#DDDDDD" height="30.4883" rx="2.5" ry="2.5" style="stroke:#666666;stroke-width:0.5;" width="88.3066" x="321.3491" y="487.7031"/><text fill="#333333" font-family="sans-serif" font-size="14" lengthAdjust="spacing" textLength="74.3066" x="328.3491" y="508.2383">Flag Parser</text><rect fill="#DDDDDD" height="30.4883" rx="2.5" ry="2.5" style="stroke:#666666;stroke-width:0.5;" width="32.416" x="419.6558" y="42.4883"/><text fill="#333333" font-family="sans-serif" font-size="14" lengthAdjust="spacing" textLength="18.416" x="426.6558" y="63.0234">OS</text><rect fill="#DDDDDD" height="30.4883" rx="2.5" ry="2.5" style="stroke:#666666;stroke-width:0.5;" width="32.416" x="419.6558" y="487.7031"/><text fill="#333333" font-family="sans-serif" font-size="14" lengthAdjust="spacing" textLength="18.416" x="426.6558" y="508.2383">OS</text><rect fill="#DDDDDD" height="30.4883" rx="2.5" ry="2.5" style="stroke:#666666;stroke-width:0.5;" width="96.0039" x="462.0718" y="42.4883"/><text fill="#333333" font-family="sans-serif" font-size="14" lengthAdjust="spacing" textLength="82.0039" x="469.0718" y="63.0234">HTTP Server</text><rect fill="#DDDDDD" height="30.4883" rx="2.5" ry="2.5" style="stroke:#666666;stroke-width:0.5;" width="96.0039" x="462.0718" y="487.7031"/><text fill="#333333" font-family="sans-serif" font-size="14" lengthAdjust="spacing" textLength="82.0039" x="469.0718" y="508.2383">HTTP Server</text><rect fill="#FFFFFF" height="365.416" style="stroke:#181818;stroke-width:1.0;" width="10" x="166.5776" y="105.2871"/><polygon fill="#666666" points="154.5776,101.2871,164.5776,105.2871,154.5776,109.2871,158.5776,105.2871" style="stroke:#666666;stroke-width:1.0;"/><line style="stroke:#666666;stroke-width:1.0;" x1="28.2627" x2="160.5776" y1="105.2871" y2="105.2871"/><text fill="#333333" font-family="sans-serif" font-size="13" lengthAdjust="spacing" textLength="37.6797" x="35.2627" y="100.5449">Start()</text><polygon fill="#666666" points="353.5024,130.5977,363.5024,134.5977,353.5024,138.5977,357.5024,134.5977" style="stroke:#666666;stroke-width:1.0;"/><line style="stroke:#666666;stroke-width:1.0;" x1="176.5776" x2="359.5024" y1="134.5977" y2="134.5977"/><text fill="#333333" font-family="sans-serif" font-size="13" lengthAdjust="spacing" textLength="164.9248" x="183.5776" y="129.8555">Parse command-line flags</text><polygon fill="#666666" points="187.5776,159.9082,177.5776,163.9082,187.5776,167.9082,183.5776,163.9082" style="stroke:#666666;stroke-width:1.0;"/><line style="stroke:#666666;stroke-width:1.0;stroke-dasharray:2.0,2.0;" x1="181.5776" x2="364.5024" y1="163.9082" y2="163.9082"/><text fill="#333333" font-family="sans-serif" font-size="13" lengthAdjust="spacing" textLength="76.2988" x="193.5776" y="159.166">Parsed flags</text><polygon fill="#666666" points="423.8638,189.2188,433.8638,193.2188,423.8638,197.2188,427.8638,193.2188" style="stroke:#666666;stroke-width:1.0;"/><line style="stroke:#666666;stroke-width:1.0;" x1="176.5776" x2="429.8638" y1="193.2188" y2="193.2188"/><text fill="#333333" font-family="sans-serif" font-size="13" lengthAdjust="spacing" textLength="126.001" x="183.5776" y="188.4766">Check file existence</text><polygon fill="#666666" points="187.5776,218.5293,177.5776,222.5293,187.5776,226.5293,183.5776,222.5293" style="stroke:#666666;stroke-width:1.0;"/><line style="stroke:#666666;stroke-width:1.0;stroke-dasharray:2.0,2.0;" x1="181.5776" x2="434.8638" y1="222.5293" y2="222.5293"/><text fill="#333333" font-family="sans-serif" font-size="13" lengthAdjust="spacing" textLength="64.0669" x="193.5776" y="217.7871">File status</text><line style="stroke:#666666;stroke-width:1.0;" x1="176.5776" x2="218.5776" y1="251.8398" y2="251.8398"/><line style="stroke:#666666;stroke-width:1.0;" x1="218.5776" x2="218.5776" y1="251.8398" y2="264.8398"/><line style="stroke:#666666;stroke-width:1.0;" x1="177.5776" x2="218.5776" y1="264.8398" y2="264.8398"/><polygon fill="#666666" points="187.5776,260.8398,177.5776,264.8398,187.5776,268.8398,183.5776,264.8398" style="stroke:#666666;stroke-width:1.0;"/><text fill="#333333" font-family="sans-serif" font-size="13" lengthAdjust="spacing" textLength="140.3784" x="183.5776" y="247.0977">Set up signal handling</text><polygon fill="#666666" points="498.0737,290.1504,508.0737,294.1504,498.0737,298.1504,502.0737,294.1504" style="stroke:#666666;stroke-width:1.0;"/><line style="stroke:#666666;stroke-width:1.0;" x1="176.5776" x2="504.0737" y1="294.1504" y2="294.1504"/><text fill="#333333" font-family="sans-serif" font-size="13" lengthAdjust="spacing" textLength="122.2749" x="183.5776" y="289.4082">Start profiler server</text><path d="M131.8379,309.1504 L193.9766,309.1504 L193.9766,316.4609 L183.9766,326.4609 L131.8379,326.4609 L131.8379,309.1504 " fill="#EEEEEE" style="stroke:#000000;stroke-width:1.5;"/><rect fill="none" height="59.6211" style="stroke:#000000;stroke-width:1.5;" width="183.1206" x="131.8379" y="309.1504"/><text fill="#333333" font-family="sans-serif" font-size="13" font-weight="bold" lengthAdjust="spacing" textLength="17.1387" x="146.8379" y="322.7188">alt</text><text fill="#333333" font-family="sans-serif" font-size="11" font-weight="bold" lengthAdjust="spacing" textLength="100.9819" x="208.9766" y="321.7852">[not skipHeaders]</text><line style="stroke:#666666;stroke-width:1.0;" x1="176.5776" x2="218.5776" y1="347.7715" y2="347.7715"/><line style="stroke:#666666;stroke-width:1.0;" x1="218.5776" x2="218.5776" y1="347.7715" y2="360.7715"/><line style="stroke:#666666;stroke-width:1.0;" x1="177.5776" x2="218.5776" y1="360.7715" y2="360.7715"/><polygon fill="#666666" points="187.5776,356.7715,177.5776,360.7715,187.5776,364.7715,183.5776,360.7715" style="stroke:#666666;stroke-width:1.0;"/><text fill="#333333" font-family="sans-serif" font-size="13" lengthAdjust="spacing" textLength="108.4434" x="183.5776" y="343.0293">processHeaders()</text><path d="M131.8379,382.7715 L193.9766,382.7715 L193.9766,390.082 L183.9766,400.082 L131.8379,400.082 L131.8379,382.7715 " fill="#EEEEEE" style="stroke:#000000;stroke-width:1.5;"/><rect fill="none" height="59.6211" style="stroke:#000000;stroke-width:1.5;" width="174.9727" x="131.8379" y="382.7715"/><text fill="#333333" font-family="sans-serif" font-size="13" font-weight="bold" lengthAdjust="spacing" textLength="17.1387" x="146.8379" y="396.3398">alt</text><text fill="#333333" font-family="sans-serif" font-size="11" font-weight="bold" lengthAdjust="spacing" textLength="92.834" x="208.9766" y="395.4063">[not skipUTXOs]</text><line style="stroke:#666666;stroke-width:1.0;" x1="176.5776" x2="218.5776" y1="421.3926" y2="421.3926"/><line style="stroke:#666666;stroke-width:1.0;" x1="218.5776" x2="218.5776" y1="421.3926" y2="434.3926"/><line style="stroke:#666666;stroke-width:1.0;" x1="177.5776" x2="218.5776" y1="434.3926" y2="434.3926"/><polygon fill="#666666" points="187.5776,430.3926,177.5776,434.3926,187.5776,438.3926,183.5776,434.3926" style="stroke:#666666;stroke-width:1.0;"/><text fill="#333333" font-family="sans-serif" font-size="13" lengthAdjust="spacing" textLength="99.1885" x="183.5776" y="416.6504">processUTXOs()</text><polygon fill="#666666" points="39.2627,466.7031,29.2627,470.7031,39.2627,474.7031,35.2627,470.7031" style="stroke:#666666;stroke-width:1.0;"/><line style="stroke:#666666;stroke-width:1.0;stroke-dasharray:2.0,2.0;" x1="33.2627" x2="170.5776" y1="470.7031" y2="470.7031"/><text fill="#333333" font-family="sans-serif" font-size="13" lengthAdjust="spacing" textLength="114.3149" x="45.2627" y="465.9609">Service completed</text><text fill="#333333" font-family="sans-serif" font-size="10" lengthAdjust="spacing" textLength="155.4346" x="0" y="529.8594">Last Modified On: 24-Feb-2025</text><!--SRC=[fLDDQzmm4BtFhnYsb2O7Gw5GoXvwQ899eSO1Rw7NYJNUYDLAHffDcvR-zuwqtesT70hj76oFtdlpfN7QMJzIf3tUKR_Rnd3mvYgu4F5L_RR-KDUGpWp30nsSrC7BH7bNR4QX6CFt2NnV3E0DNlDWFUDTY8PZma5HSWxPyPwzf9bUNIkF-0iGFnNsCfQUFg_okXZyXbcKNYkCmVrl67sAxUr8Nluj581sunWxPXNgApxOdl6pjsB9sPyaDdY0UPvLGzQla1BcZoLq35F0u-SIhXrjyPPYcZZPFxfBNjiLkEsMnpURpMqfSP9d7o1NWTN7AU4QEr7DnILGB_Q1vDGRmDIZKf_ohe_bw7tiz-HDvV8M30edU29XDGjVZip4cSLikpLUtNE_my7gGFc7JSA-PsYxXRxEQ1AImq9-hfu53oCck_Nay5vhqfAsCs9kUceInnXoieYf30M0dA0FWheXumrJtcMzVyINULJQSqeJISV5tYprNpVVsh-e2-MaFR6KbgzaVLucdUteMDY0uHUNudWG_Ts2gFGB9S4c63jOdN2h8LuRvLwiZAcQfgaUrLQNy0S0]--></g></svg>
