<svg xmlns="http://www.w3.org/2000/svg" xmlns:xlink="http://www.w3.org/1999/xlink" contentStyleType="text/css" height="801px" preserveAspectRatio="none" style="width:788px;height:801px;background:#F0F8FF;" version="1.1" viewBox="0 0 788 801" width="788px" zoomAndPan="magnify"><title>Seeder UTXO Processing</title><defs/><g><rect fill="#F0F8FF" height="801" style="stroke:none;stroke-width:1.0;" width="788" x="0" y="0"/><text fill="#333333" font-family="sans-serif" font-size="14" font-weight="bold" lengthAdjust="spacing" textLength="176.668" x="306.9885" y="28.5352">Seeder UTXO Processing</text><rect fill="#FFFFFF" height="640.8555" style="stroke:#181818;stroke-width:1.0;" width="10" x="54.7397" y="83.9766"/><rect fill="none" height="355.3711" style="stroke:#000000;stroke-width:1.5;" width="771.645" x="10" y="292.8398"/><rect fill="none" height="147.5527" style="stroke:#000000;stroke-width:1.5;" width="654.5483" x="20" y="317.1504"/><rect fill="none" height="147.5527" style="stroke:#000000;stroke-width:1.5;" width="480.9253" x="290.7197" y="493.6582"/><line style="stroke:#181818;stroke-width:0.5;stroke-dasharray:5.0,5.0;" x1="59" x2="59" y1="73.9766" y2="749.832"/><line style="stroke:#181818;stroke-width:0.5;stroke-dasharray:5.0,5.0;" x1="271.3203" x2="271.3203" y1="73.9766" y2="749.832"/><line style="stroke:#181818;stroke-width:0.5;stroke-dasharray:5.0,5.0;" x1="334.7197" x2="334.7197" y1="73.9766" y2="749.832"/><line style="stroke:#181818;stroke-width:0.5;stroke-dasharray:5.0,5.0;" x1="502.707" x2="502.707" y1="73.9766" y2="749.832"/><line style="stroke:#181818;stroke-width:0.5;stroke-dasharray:5.0,5.0;" x1="609.0044" x2="609.0044" y1="73.9766" y2="749.832"/><line style="stroke:#181818;stroke-width:0.5;stroke-dasharray:5.0,5.0;" x1="717.5483" x2="717.5483" y1="73.9766" y2="749.832"/><rect fill="#DDDDDD" height="30.4883" rx="2.5" ry="2.5" style="stroke:#666666;stroke-width:0.5;" width="59.4795" x="30" y="42.4883"/><text fill="#333333" font-family="sans-serif" font-size="14" lengthAdjust="spacing" textLength="45.4795" x="37" y="63.0234">Seeder</text><rect fill="#DDDDDD" height="30.4883" rx="2.5" ry="2.5" style="stroke:#666666;stroke-width:0.5;" width="59.4795" x="30" y="748.832"/><text fill="#333333" font-family="sans-serif" font-size="14" lengthAdjust="spacing" textLength="45.4795" x="37" y="769.3672">Seeder</text><rect fill="#DDDDDD" height="30.4883" rx="2.5" ry="2.5" style="stroke:#666666;stroke-width:0.5;" width="37.3994" x="253.3203" y="42.4883"/><text fill="#333333" font-family="sans-serif" font-size="14" lengthAdjust="spacing" textLength="23.3994" x="260.3203" y="63.0234">File</text><rect fill="#DDDDDD" height="30.4883" rx="2.5" ry="2.5" style="stroke:#666666;stroke-width:0.5;" width="37.3994" x="253.3203" y="748.832"/><text fill="#333333" font-family="sans-serif" font-size="14" lengthAdjust="spacing" textLength="23.3994" x="260.3203" y="769.3672">File</text><rect fill="#DDDDDD" height="30.4883" rx="2.5" ry="2.5" style="stroke:#666666;stroke-width:0.5;" width="69.3301" x="300.7197" y="42.4883"/><text fill="#333333" font-family="sans-serif" font-size="14" lengthAdjust="spacing" textLength="55.3301" x="307.7197" y="63.0234">Channel</text><rect fill="#DDDDDD" height="30.4883" rx="2.5" ry="2.5" style="stroke:#666666;stroke-width:0.5;" width="69.3301" x="300.7197" y="748.832"/><text fill="#333333" font-family="sans-serif" font-size="14" lengthAdjust="spacing" textLength="55.3301" x="307.7197" y="769.3672">Channel</text><rect fill="#DDDDDD" height="30.4883" rx="2.5" ry="2.5" style="stroke:#666666;stroke-width:0.5;" width="62.0156" x="471.707" y="42.4883"/><text fill="#333333" font-family="sans-serif" font-size="14" lengthAdjust="spacing" textLength="48.0156" x="478.707" y="63.0234">Worker</text><rect fill="#DDDDDD" height="30.4883" rx="2.5" ry="2.5" style="stroke:#666666;stroke-width:0.5;" width="62.0156" x="471.707" y="748.832"/><text fill="#333333" font-family="sans-serif" font-size="14" lengthAdjust="spacing" textLength="48.0156" x="478.707" y="769.3672">Worker</text><rect fill="#DDDDDD" height="30.4883" rx="2.5" ry="2.5" style="stroke:#666666;stroke-width:0.5;" width="110.5439" x="554.0044" y="42.4883"/><text fill="#333333" font-family="sans-serif" font-size="14" lengthAdjust="spacing" textLength="96.5439" x="561.0044" y="63.0234">UTXOPersister</text><rect fill="#DDDDDD" height="30.4883" rx="2.5" ry="2.5" style="stroke:#666666;stroke-width:0.5;" width="110.5439" x="554.0044" y="748.832"/><text fill="#333333" font-family="sans-serif" font-size="14" lengthAdjust="spacing" textLength="96.5439" x="561.0044" y="769.3672">UTXOPersister</text><rect fill="#DDDDDD" height="30.4883" rx="2.5" ry="2.5" style="stroke:#666666;stroke-width:0.5;" width="87.0967" x="674.5483" y="42.4883"/><text fill="#333333" font-family="sans-serif" font-size="14" lengthAdjust="spacing" textLength="73.0967" x="681.5483" y="63.0234">UTXOStore</text><rect fill="#DDDDDD" height="30.4883" rx="2.5" ry="2.5" style="stroke:#666666;stroke-width:0.5;" width="87.0967" x="674.5483" y="748.832"/><text fill="#333333" font-family="sans-serif" font-size="14" lengthAdjust="spacing" textLength="73.0967" x="681.5483" y="769.3672">UTXOStore</text><rect fill="#FFFFFF" height="640.8555" style="stroke:#181818;stroke-width:1.0;" width="10" x="54.7397" y="83.9766"/><polygon fill="#666666" points="706.0967,101.2871,716.0967,105.2871,706.0967,109.2871,710.0967,105.2871" style="stroke:#666666;stroke-width:1.0;"/><line style="stroke:#666666;stroke-width:1.0;" x1="64.7397" x2="712.0967" y1="105.2871" y2="105.2871"/><text fill="#333333" font-family="sans-serif" font-size="13" lengthAdjust="spacing" textLength="53.5806" x="71.7397" y="100.5449">Initialize</text><polygon fill="#666666" points="260.02,130.5977,270.02,134.5977,260.02,138.5977,264.02,134.5977" style="stroke:#666666;stroke-width:1.0;"/><line style="stroke:#666666;stroke-width:1.0;" x1="64.7397" x2="266.02" y1="134.5977" y2="134.5977"/><text fill="#333333" font-family="sans-serif" font-size="13" lengthAdjust="spacing" textLength="96.8208" x="71.7397" y="129.8555">Open UTXO file</text><polygon fill="#666666" points="597.2764,159.9082,607.2764,163.9082,597.2764,167.9082,601.2764,163.9082" style="stroke:#666666;stroke-width:1.0;"/><line style="stroke:#666666;stroke-width:1.0;" x1="64.7397" x2="603.2764" y1="163.9082" y2="163.9082"/><text fill="#333333" font-family="sans-serif" font-size="13" lengthAdjust="spacing" textLength="205.042" x="71.7397" y="159.166">GetUTXOSetHeaderFromReader()</text><polygon fill="#666666" points="75.7397,189.2188,65.7397,193.2188,75.7397,197.2188,71.7397,193.2188" style="stroke:#666666;stroke-width:1.0;"/><line style="stroke:#666666;stroke-width:1.0;stroke-dasharray:2.0,2.0;" x1="69.7397" x2="608.2764" y1="193.2188" y2="193.2188"/><text fill="#333333" font-family="sans-serif" font-size="13" lengthAdjust="spacing" textLength="90.0288" x="81.7397" y="188.4766">Magic number</text><line style="stroke:#666666;stroke-width:1.0;" x1="64.7397" x2="106.7397" y1="222.5293" y2="222.5293"/><line style="stroke:#666666;stroke-width:1.0;" x1="106.7397" x2="106.7397" y1="222.5293" y2="235.5293"/><line style="stroke:#666666;stroke-width:1.0;" x1="65.7397" x2="106.7397" y1="235.5293" y2="235.5293"/><polygon fill="#666666" points="75.7397,231.5293,65.7397,235.5293,75.7397,239.5293,71.7397,235.5293" style="stroke:#666666;stroke-width:1.0;"/><text fill="#333333" font-family="sans-serif" font-size="13" lengthAdjust="spacing" textLength="133.5737" x="71.7397" y="217.7871">Create UTXO channel</text><line style="stroke:#666666;stroke-width:1.0;" x1="64.7397" x2="106.7397" y1="264.8398" y2="264.8398"/><line style="stroke:#666666;stroke-width:1.0;" x1="106.7397" x2="106.7397" y1="264.8398" y2="277.8398"/><line style="stroke:#666666;stroke-width:1.0;" x1="65.7397" x2="106.7397" y1="277.8398" y2="277.8398"/><polygon fill="#666666" points="75.7397,273.8398,65.7397,277.8398,75.7397,281.8398,71.7397,277.8398" style="stroke:#666666;stroke-width:1.0;"/><text fill="#333333" font-family="sans-serif" font-size="13" lengthAdjust="spacing" textLength="148.9541" x="71.7397" y="260.0977">Start worker goroutines</text><path d="M10,292.8398 L77.166,292.8398 L77.166,300.1504 L67.166,310.1504 L10,310.1504 L10,292.8398 " fill="#EEEEEE" style="stroke:#000000;stroke-width:1.5;"/><rect fill="none" height="355.3711" style="stroke:#000000;stroke-width:1.5;" width="771.645" x="10" y="292.8398"/><text fill="#333333" font-family="sans-serif" font-size="13" font-weight="bold" lengthAdjust="spacing" textLength="22.166" x="25" y="306.4082">par</text><text fill="#333333" font-family="sans-serif" font-size="11" font-weight="bold" lengthAdjust="spacing" textLength="47.3892" x="92.166" y="305.4746">[Reader]</text><path d="M20,317.1504 L94.4468,317.1504 L94.4468,324.4609 L84.4468,334.4609 L20,334.4609 L20,317.1504 " fill="#EEEEEE" style="stroke:#000000;stroke-width:1.5;"/><rect fill="none" height="147.5527" style="stroke:#000000;stroke-width:1.5;" width="654.5483" x="20" y="317.1504"/><text fill="#333333" font-family="sans-serif" font-size="13" font-weight="bold" lengthAdjust="spacing" textLength="29.4468" x="35" y="330.7188">loop</text><text fill="#333333" font-family="sans-serif" font-size="11" font-weight="bold" lengthAdjust="spacing" textLength="59.8179" x="109.4468" y="329.7852">[until EOF]</text><polygon fill="#666666" points="597.2764,351.7715,607.2764,355.7715,597.2764,359.7715,601.2764,355.7715" style="stroke:#666666;stroke-width:1.0;"/><line style="stroke:#666666;stroke-width:1.0;" x1="64.7397" x2="603.2764" y1="355.7715" y2="355.7715"/><text fill="#333333" font-family="sans-serif" font-size="13" lengthAdjust="spacing" textLength="199.126" x="71.7397" y="351.0293">NewUTXOWrapperFromReader()</text><polygon fill="#666666" points="75.7397,381.082,65.7397,385.082,75.7397,389.082,71.7397,385.082" style="stroke:#666666;stroke-width:1.0;"/><line style="stroke:#666666;stroke-width:1.0;stroke-dasharray:2.0,2.0;" x1="69.7397" x2="608.2764" y1="385.082" y2="385.082"/><text fill="#333333" font-family="sans-serif" font-size="13" lengthAdjust="spacing" textLength="92.1235" x="81.7397" y="380.3398">UTXO Wrapper</text><polygon fill="#666666" points="323.3848,410.3926,333.3848,414.3926,323.3848,418.3926,327.3848,414.3926" style="stroke:#666666;stroke-width:1.0;"/><line style="stroke:#666666;stroke-width:1.0;" x1="64.7397" x2="329.3848" y1="414.3926" y2="414.3926"/><text fill="#333333" font-family="sans-serif" font-size="13" lengthAdjust="spacing" textLength="126.731" x="71.7397" y="409.6504">Send UTXO Wrapper</text><line style="stroke:#666666;stroke-width:1.0;" x1="64.7397" x2="106.7397" y1="443.7031" y2="443.7031"/><line style="stroke:#666666;stroke-width:1.0;" x1="106.7397" x2="106.7397" y1="443.7031" y2="456.7031"/><line style="stroke:#666666;stroke-width:1.0;" x1="65.7397" x2="106.7397" y1="456.7031" y2="456.7031"/><polygon fill="#666666" points="75.7397,452.7031,65.7397,456.7031,75.7397,460.7031,71.7397,456.7031" style="stroke:#666666;stroke-width:1.0;"/><text fill="#333333" font-family="sans-serif" font-size="13" lengthAdjust="spacing" textLength="151.6138" x="71.7397" y="438.9609">Update processing stats</text><line style="stroke:#000000;stroke-width:1.0;stroke-dasharray:2.0,2.0;" x1="10" x2="781.645" y1="472.7031" y2="472.7031"/><text fill="#333333" font-family="sans-serif" font-size="11" font-weight="bold" lengthAdjust="spacing" textLength="54.7476" x="15" y="483.3379">[Workers]</text><path d="M290.7197,493.6582 L365.1665,493.6582 L365.1665,500.9688 L355.1665,510.9688 L290.7197,510.9688 L290.7197,493.6582 " fill="#EEEEEE" style="stroke:#000000;stroke-width:1.5;"/><rect fill="none" height="147.5527" style="stroke:#000000;stroke-width:1.5;" width="480.9253" x="290.7197" y="493.6582"/><text fill="#333333" font-family="sans-serif" font-size="13" font-weight="bold" lengthAdjust="spacing" textLength="29.4468" x="305.7197" y="507.2266">loop</text><text fill="#333333" font-family="sans-serif" font-size="11" font-weight="bold" lengthAdjust="spacing" textLength="97.9043" x="380.1665" y="506.293">[for each worker]</text><polygon fill="#666666" points="346.3848,528.2793,336.3848,532.2793,346.3848,536.2793,342.3848,532.2793" style="stroke:#666666;stroke-width:1.0;"/><line style="stroke:#666666;stroke-width:1.0;" x1="340.3848" x2="501.7148" y1="532.2793" y2="532.2793"/><text fill="#333333" font-family="sans-serif" font-size="13" lengthAdjust="spacing" textLength="143.3301" x="352.3848" y="527.5371">Receive UTXO Wrapper</text><line style="stroke:#666666;stroke-width:1.0;" x1="502.7148" x2="544.7148" y1="561.5898" y2="561.5898"/><line style="stroke:#666666;stroke-width:1.0;" x1="544.7148" x2="544.7148" y1="561.5898" y2="574.5898"/><line style="stroke:#666666;stroke-width:1.0;" x1="503.7148" x2="544.7148" y1="574.5898" y2="574.5898"/><polygon fill="#666666" points="513.7148,570.5898,503.7148,574.5898,513.7148,578.5898,509.7148,574.5898" style="stroke:#666666;stroke-width:1.0;"/><text fill="#333333" font-family="sans-serif" font-size="13" lengthAdjust="spacing" textLength="92.5615" x="509.7148" y="556.8477">processUTXO()</text><polygon fill="#666666" points="706.0967,599.9004,716.0967,603.9004,706.0967,607.9004,710.0967,603.9004" style="stroke:#666666;stroke-width:1.0;"/><line style="stroke:#666666;stroke-width:1.0;" x1="502.7148" x2="712.0967" y1="603.9004" y2="603.9004"/><text fill="#333333" font-family="sans-serif" font-size="13" lengthAdjust="spacing" textLength="49.2959" x="509.7148" y="599.1582">Create()</text><polygon fill="#666666" points="513.7148,629.2109,503.7148,633.2109,513.7148,637.2109,509.7148,633.2109" style="stroke:#666666;stroke-width:1.0;"/><line style="stroke:#666666;stroke-width:1.0;stroke-dasharray:2.0,2.0;" x1="507.7148" x2="717.0967" y1="633.2109" y2="633.2109"/><text fill="#333333" font-family="sans-serif" font-size="13" lengthAdjust="spacing" textLength="79.7964" x="519.7148" y="628.4688">UTXO stored</text><line style="stroke:#666666;stroke-width:1.0;" x1="64.7397" x2="106.7397" y1="676.5215" y2="676.5215"/><line style="stroke:#666666;stroke-width:1.0;" x1="106.7397" x2="106.7397" y1="676.5215" y2="689.5215"/><line style="stroke:#666666;stroke-width:1.0;" x1="65.7397" x2="106.7397" y1="689.5215" y2="689.5215"/><polygon fill="#666666" points="75.7397,685.5215,65.7397,689.5215,75.7397,693.5215,71.7397,689.5215" style="stroke:#666666;stroke-width:1.0;"/><text fill="#333333" font-family="sans-serif" font-size="13" lengthAdjust="spacing" textLength="178.2803" x="71.7397" y="671.7793">Wait for all workers to finish</text><line style="stroke:#666666;stroke-width:1.0;" x1="64.7397" x2="106.7397" y1="723.832" y2="723.832"/><line style="stroke:#666666;stroke-width:1.0;" x1="106.7397" x2="106.7397" y1="723.832" y2="736.832"/><line style="stroke:#666666;stroke-width:1.0;" x1="59.7397" x2="106.7397" y1="736.832" y2="736.832"/><polygon fill="#666666" points="69.7397,732.832,59.7397,736.832,69.7397,740.832,65.7397,736.832" style="stroke:#666666;stroke-width:1.0;"/><text fill="#333333" font-family="sans-serif" font-size="13" lengthAdjust="spacing" textLength="158.082" x="71.7397" y="719.0898">Log processing summary</text><text fill="#333333" font-family="sans-serif" font-size="10" lengthAdjust="spacing" textLength="155.4346" x="0" y="790.9883">Last Modified On: 24-Feb-2025</text><!--SRC=[fLHDYzim4BthLmmffRk7GA5GYWyzD5ktXNMpR7P9hnDhx8Z8af7a3MdfVwyaAuwzoL9e1GaZpPkdDn-otGdLei46DbZkQgCxnHTQQWElyhVvXpndTa1mgh2JBjVA9SYxk4OGD4Rla_DzN8ozWHkgX2BOQCF9MAYy5wK4ajIGSdOKxxV27U0N0_WKqLCkV_fSvKrSx3SRiPHUeT7oVsdylnEbQ56vVwDYp6SZ2LP4FX0U7tuiuSxeagmLgcPiVC6i1yq0RS9FtRcG59t1cBeMMrIAPFGcUmfOQxDBrBqvTGTTTxunmhg4UdmOzkVGbTE64Ypj6CFIYITqnrmPIpdFFvvG6NnJmWcKuYUD_26X39OjgRv2LKXm73veoU0BkKX7xYkX1-H6D_VHkhfc8oJCVMJFaK61jIX1TSrcAkpeNnWAokFbPQhVEMhbV25W7-i7jVOTTtweRUmYz1hyD018hLle_1nB-BpCur5OBoJqdVRXthN1jdsMpZ7ofRIYtXHuuPeq2LuuAVutyC3Pyb2ATXXIi0xz2mreJyDGMfrco9wo3G-QiDocwWpyFN0YvfvA4azqMSy9trlPKKX0Zofomercg-_Yf6x95wjsP8mNst3CXwp2xqB7roZSyB7gKxFWj1zG9UpsGi2jhYUbwve6pO4nJcVFGr8Lk7LewYrQ1uNceXB4OQaoU1swS3NZV5uKnVpWr-oQiJy0]--></g></svg>
