<svg viewBox="0 0 24 24" fill="none" xmlns="http://www.w3.org/2000/svg"><path fill-rule="evenodd" clip-rule="evenodd" d="M21.0429 4.14516C21.5306 3.69792 21.5821 2.92358 21.1581 2.41564C20.7341 1.90769 19.9951 1.85848 19.5075 2.30572L2.40229 17.9949C1.91469 18.4422 1.86312 19.2165 2.28712 19.7244C2.71112 20.2324 3.45012 20.2816 3.93772 19.8344L21.0429 4.14516ZM21.3425 14.6595C21.8301 14.2122 21.8816 13.4379 21.4576 12.93C21.0336 12.422 20.2946 12.3728 19.807 12.82L12.1373 19.8548C11.6497 20.3021 11.5981 21.0764 12.0221 21.5844C12.4461 22.0923 13.1851 22.1415 13.6727 21.6943L21.3425 14.6595Z" fill="currentColor"/></svg>
