<?xml version="1.0" encoding="us-ascii" standalone="no"?><svg xmlns="http://www.w3.org/2000/svg" xmlns:xlink="http://www.w3.org/1999/xlink" contentStyleType="text/css" height="386px" preserveAspectRatio="none" style="width:573px;height:386px;background:#FFFFFF;" version="1.1" viewBox="0 0 573 386" width="573px" zoomAndPan="magnify"><defs/><g><text fill="#000000" font-family="sans-serif" font-size="14" font-weight="bold" lengthAdjust="spacing" textLength="370" x="100.75" y="28.5352">UTXO Persister - Service Initialization and Starting</text><rect fill="#FFFFFF" height="128.2422" style="stroke:#181818;stroke-width:1.0;" width="10" x="81.5" y="113.2871"/><rect fill="#FFFFFF" height="56.3105" style="stroke:#181818;stroke-width:1.0;" width="10" x="81.5" y="285.8398"/><line style="stroke:#181818;stroke-width:0.5;stroke-dasharray:5.0,5.0;" x1="86" x2="86" y1="73.9766" y2="351.1504"/><line style="stroke:#181818;stroke-width:0.5;stroke-dasharray:5.0,5.0;" x1="244.5" x2="244.5" y1="73.9766" y2="351.1504"/><line style="stroke:#181818;stroke-width:0.5;stroke-dasharray:5.0,5.0;" x1="364.5" x2="364.5" y1="73.9766" y2="351.1504"/><line style="stroke:#181818;stroke-width:0.5;stroke-dasharray:5.0,5.0;" x1="503.5" x2="503.5" y1="73.9766" y2="351.1504"/><rect fill="#E2E2F0" height="30.4883" rx="2.5" ry="2.5" style="stroke:#181818;stroke-width:0.5;" width="163" x="5" y="42.4883"/><text fill="#000000" font-family="sans-serif" font-size="14" lengthAdjust="spacing" textLength="149" x="12" y="63.0234">UTXO Persister Server</text><rect fill="#E2E2F0" height="30.4883" rx="2.5" ry="2.5" style="stroke:#181818;stroke-width:0.5;" width="163" x="5" y="350.1504"/><text fill="#000000" font-family="sans-serif" font-size="14" lengthAdjust="spacing" textLength="149" x="12" y="370.6855">UTXO Persister Server</text><rect fill="#E2E2F0" height="30.4883" rx="2.5" ry="2.5" style="stroke:#181818;stroke-width:0.5;" width="90" x="199.5" y="42.4883"/><text fill="#000000" font-family="sans-serif" font-size="14" lengthAdjust="spacing" textLength="76" x="206.5" y="63.0234">Block Store</text><rect fill="#E2E2F0" height="30.4883" rx="2.5" ry="2.5" style="stroke:#181818;stroke-width:0.5;" width="90" x="199.5" y="350.1504"/><text fill="#000000" font-family="sans-serif" font-size="14" lengthAdjust="spacing" textLength="76" x="206.5" y="370.6855">Block Store</text><rect fill="#E2E2F0" height="30.4883" rx="2.5" ry="2.5" style="stroke:#181818;stroke-width:0.5;" width="131" x="299.5" y="42.4883"/><text fill="#000000" font-family="sans-serif" font-size="14" lengthAdjust="spacing" textLength="117" x="306.5" y="63.0234">Blockchain Client</text><rect fill="#E2E2F0" height="30.4883" rx="2.5" ry="2.5" style="stroke:#181818;stroke-width:0.5;" width="131" x="299.5" y="350.1504"/><text fill="#000000" font-family="sans-serif" font-size="14" lengthAdjust="spacing" textLength="117" x="306.5" y="370.6855">Blockchain Client</text><rect fill="#E2E2F0" height="30.4883" rx="2.5" ry="2.5" style="stroke:#181818;stroke-width:0.5;" width="127" x="440.5" y="42.4883"/><text fill="#000000" font-family="sans-serif" font-size="14" lengthAdjust="spacing" textLength="113" x="447.5" y="63.0234">Blockchain Store</text><rect fill="#E2E2F0" height="30.4883" rx="2.5" ry="2.5" style="stroke:#181818;stroke-width:0.5;" width="127" x="440.5" y="350.1504"/><text fill="#000000" font-family="sans-serif" font-size="14" lengthAdjust="spacing" textLength="113" x="447.5" y="370.6855">Blockchain Store</text><rect fill="#FFFFFF" height="128.2422" style="stroke:#181818;stroke-width:1.0;" width="10" x="81.5" y="113.2871"/><rect fill="#FFFFFF" height="56.3105" style="stroke:#181818;stroke-width:1.0;" width="10" x="81.5" y="285.8398"/><line style="stroke:#181818;stroke-width:1.0;" x1="86.5" x2="133.5" y1="100.2871" y2="100.2871"/><line style="stroke:#181818;stroke-width:1.0;" x1="133.5" x2="133.5" y1="100.2871" y2="113.2871"/><line style="stroke:#181818;stroke-width:1.0;" x1="92.5" x2="133.5" y1="113.2871" y2="113.2871"/><polygon fill="#181818" points="102.5,109.2871,92.5,113.2871,102.5,117.2871,98.5,113.2871" style="stroke:#181818;stroke-width:1.0;"/><text fill="#000000" font-family="sans-serif" font-size="13" lengthAdjust="spacing" textLength="29" x="98.5" y="95.5449">Init()</text><polygon fill="#181818" points="232.5,143.5977,242.5,147.5977,232.5,151.5977,236.5,147.5977" style="stroke:#181818;stroke-width:1.0;"/><line style="stroke:#181818;stroke-width:1.0;" x1="91.5" x2="238.5" y1="147.5977" y2="147.5977"/><text fill="#000000" font-family="sans-serif" font-size="13" lengthAdjust="spacing" textLength="54" x="98.5" y="142.8555">Initialize</text><polygon fill="#181818" points="353,172.9082,363,176.9082,353,180.9082,357,176.9082" style="stroke:#181818;stroke-width:1.0;"/><line style="stroke:#181818;stroke-width:1.0;" x1="91.5" x2="359" y1="176.9082" y2="176.9082"/><text fill="#000000" font-family="sans-serif" font-size="13" lengthAdjust="spacing" textLength="166" x="98.5" y="172.166">Initialize (if indirect mode)</text><polygon fill="#181818" points="492,202.2188,502,206.2188,492,210.2188,496,206.2188" style="stroke:#181818;stroke-width:1.0;"/><line style="stroke:#181818;stroke-width:1.0;" x1="91.5" x2="498" y1="206.2188" y2="206.2188"/><text fill="#000000" font-family="sans-serif" font-size="13" lengthAdjust="spacing" textLength="154" x="98.5" y="201.4766">Initialize (if direct mode)</text><line style="stroke:#181818;stroke-width:1.0;" x1="91.5" x2="133.5" y1="240.5293" y2="240.5293"/><line style="stroke:#181818;stroke-width:1.0;" x1="133.5" x2="133.5" y1="240.5293" y2="253.5293"/><line style="stroke:#181818;stroke-width:1.0;" x1="86.5" x2="133.5" y1="253.5293" y2="253.5293"/><polygon fill="#181818" points="96.5,249.5293,86.5,253.5293,96.5,257.5293,92.5,253.5293" style="stroke:#181818;stroke-width:1.0;"/><text fill="#000000" font-family="sans-serif" font-size="13" lengthAdjust="spacing" textLength="103" x="98.5" y="235.7871">readLastHeight()</text><line style="stroke:#181818;stroke-width:1.0;" x1="86.5" x2="133.5" y1="272.8398" y2="272.8398"/><line style="stroke:#181818;stroke-width:1.0;" x1="133.5" x2="133.5" y1="272.8398" y2="285.8398"/><line style="stroke:#181818;stroke-width:1.0;" x1="92.5" x2="133.5" y1="285.8398" y2="285.8398"/><polygon fill="#181818" points="102.5,281.8398,92.5,285.8398,102.5,289.8398,98.5,285.8398" style="stroke:#181818;stroke-width:1.0;"/><text fill="#000000" font-family="sans-serif" font-size="13" lengthAdjust="spacing" textLength="37" x="98.5" y="268.0977">Start()</text><line style="stroke:#181818;stroke-width:1.0;stroke-dasharray:2.0,2.0;" x1="91.5" x2="133.5" y1="320.1504" y2="320.1504"/><line style="stroke:#181818;stroke-width:1.0;stroke-dasharray:2.0,2.0;" x1="133.5" x2="133.5" y1="320.1504" y2="333.1504"/><line style="stroke:#181818;stroke-width:1.0;stroke-dasharray:2.0,2.0;" x1="92.5" x2="133.5" y1="333.1504" y2="333.1504"/><polygon fill="#181818" points="102.5,329.1504,92.5,333.1504,102.5,337.1504,98.5,333.1504" style="stroke:#181818;stroke-width:1.0;"/><text fill="#000000" font-family="sans-serif" font-size="13" lengthAdjust="spacing" textLength="134" x="98.5" y="315.4082">Start processing loop</text><!--SRC=[VP8zZW8n38NxdCAYWe8BK6m13IiXWSGYqLg90OkGZ1oBWjF3U8Q_OTWkjhvdlvT4MIF1vc-xX1L9uQ8aC8OroPazmMzYPOnyGUMS05E0jQ8efxrpLNtmN65I67H6r0D81e2bFRxJqvZzyJOg2nbZjPKzd3yW9vX5fgHFshfDywkciy2QpHRNk8BnJ-iF9XPsE7BebS-eT3V-WZvjjhZT3NM95sjl70nv1vm22tc5KmuqwfL-RZ3b5zt3ln261HQT4-yFTH8Nw9ym3vszQ4_mE_h1GYNPKoctNm0nv-eA]--></g></svg>
