<?xml version="1.0" encoding="us-ascii" standalone="no"?><svg xmlns="http://www.w3.org/2000/svg" xmlns:xlink="http://www.w3.org/1999/xlink" contentStyleType="text/css" height="742px" preserveAspectRatio="none" style="width:1026px;height:742px;background:#FFFFFF;" version="1.1" viewBox="0 0 1026 742" width="1026px" zoomAndPan="magnify"><defs/><g><text fill="#000000" font-family="sans-serif" font-size="14" font-weight="bold" lengthAdjust="spacing" textLength="386" x="319" y="28.5352">UTXO Persister - Block and Dependencies Processing</text><rect fill="#FFFFFF" height="597.9004" style="stroke:#181818;stroke-width:1.0;" width="10" x="96.5" y="83.9766"/><rect fill="#FFFFFF" height="130.2422" style="stroke:#181818;stroke-width:1.0;" width="10" x="341.5" y="237.5293"/><rect fill="#FFFFFF" height="207.1738" style="stroke:#181818;stroke-width:1.0;" width="10" x="341.5" y="397.082"/><rect fill="none" height="46.6211" style="stroke:#000000;stroke-width:1.5;" width="773" x="10" y="162.5977"/><rect fill="none" height="46.6211" style="stroke:#000000;stroke-width:1.5;" width="575" x="298" y="500.0137"/><line style="stroke:#181818;stroke-width:0.5;stroke-dasharray:5.0,5.0;" x1="101" x2="101" y1="73.9766" y2="706.877"/><line style="stroke:#181818;stroke-width:0.5;stroke-dasharray:5.0,5.0;" x1="346" x2="346" y1="73.9766" y2="706.877"/><line style="stroke:#181818;stroke-width:0.5;stroke-dasharray:5.0,5.0;" x1="570" x2="570" y1="73.9766" y2="706.877"/><line style="stroke:#181818;stroke-width:0.5;stroke-dasharray:5.0,5.0;" x1="709" x2="709" y1="73.9766" y2="706.877"/><line style="stroke:#181818;stroke-width:0.5;stroke-dasharray:5.0,5.0;" x1="823" x2="823" y1="73.9766" y2="706.877"/><line style="stroke:#181818;stroke-width:0.5;stroke-dasharray:5.0,5.0;" x1="975" x2="975" y1="73.9766" y2="706.877"/><rect fill="#E2E2F0" height="30.4883" rx="2.5" ry="2.5" style="stroke:#181818;stroke-width:0.5;" width="163" x="20" y="42.4883"/><text fill="#000000" font-family="sans-serif" font-size="14" lengthAdjust="spacing" textLength="149" x="27" y="63.0234">UTXO Persister Server</text><rect fill="#E2E2F0" height="30.4883" rx="2.5" ry="2.5" style="stroke:#181818;stroke-width:0.5;" width="163" x="20" y="705.877"/><text fill="#000000" font-family="sans-serif" font-size="14" lengthAdjust="spacing" textLength="149" x="27" y="726.4121">UTXO Persister Server</text><rect fill="#E2E2F0" height="30.4883" rx="2.5" ry="2.5" style="stroke:#181818;stroke-width:0.5;" width="77" x="308" y="42.4883"/><text fill="#000000" font-family="sans-serif" font-size="14" lengthAdjust="spacing" textLength="63" x="315" y="63.0234">UTXODiff</text><rect fill="#E2E2F0" height="30.4883" rx="2.5" ry="2.5" style="stroke:#181818;stroke-width:0.5;" width="77" x="308" y="705.877"/><text fill="#000000" font-family="sans-serif" font-size="14" lengthAdjust="spacing" textLength="63" x="315" y="726.4121">UTXODiff</text><rect fill="#E2E2F0" height="30.4883" rx="2.5" ry="2.5" style="stroke:#181818;stroke-width:0.5;" width="131" x="505" y="42.4883"/><text fill="#000000" font-family="sans-serif" font-size="14" lengthAdjust="spacing" textLength="117" x="512" y="63.0234">Blockchain Client</text><rect fill="#E2E2F0" height="30.4883" rx="2.5" ry="2.5" style="stroke:#181818;stroke-width:0.5;" width="131" x="505" y="705.877"/><text fill="#000000" font-family="sans-serif" font-size="14" lengthAdjust="spacing" textLength="117" x="512" y="726.4121">Blockchain Client</text><rect fill="#E2E2F0" height="30.4883" rx="2.5" ry="2.5" style="stroke:#181818;stroke-width:0.5;" width="127" x="646" y="42.4883"/><text fill="#000000" font-family="sans-serif" font-size="14" lengthAdjust="spacing" textLength="113" x="653" y="63.0234">Blockchain Store</text><rect fill="#E2E2F0" height="30.4883" rx="2.5" ry="2.5" style="stroke:#181818;stroke-width:0.5;" width="127" x="646" y="705.877"/><text fill="#000000" font-family="sans-serif" font-size="14" lengthAdjust="spacing" textLength="113" x="653" y="726.4121">Blockchain Store</text><rect fill="#E2E2F0" height="30.4883" rx="2.5" ry="2.5" style="stroke:#181818;stroke-width:0.5;" width="80" x="783" y="42.4883"/><text fill="#000000" font-family="sans-serif" font-size="14" lengthAdjust="spacing" textLength="66" x="790" y="63.0234">FileStorer</text><rect fill="#E2E2F0" height="30.4883" rx="2.5" ry="2.5" style="stroke:#181818;stroke-width:0.5;" width="80" x="783" y="705.877"/><text fill="#000000" font-family="sans-serif" font-size="14" lengthAdjust="spacing" textLength="66" x="790" y="726.4121">FileStorer</text><rect fill="#E2E2F0" height="30.4883" rx="2.5" ry="2.5" style="stroke:#181818;stroke-width:0.5;" width="90" x="930" y="42.4883"/><text fill="#000000" font-family="sans-serif" font-size="14" lengthAdjust="spacing" textLength="76" x="937" y="63.0234">Block Store</text><rect fill="#E2E2F0" height="30.4883" rx="2.5" ry="2.5" style="stroke:#181818;stroke-width:0.5;" width="90" x="930" y="705.877"/><text fill="#000000" font-family="sans-serif" font-size="14" lengthAdjust="spacing" textLength="76" x="937" y="726.4121">Block Store</text><rect fill="#FFFFFF" height="597.9004" style="stroke:#181818;stroke-width:1.0;" width="10" x="96.5" y="83.9766"/><rect fill="#FFFFFF" height="130.2422" style="stroke:#181818;stroke-width:1.0;" width="10" x="341.5" y="237.5293"/><rect fill="#FFFFFF" height="207.1738" style="stroke:#181818;stroke-width:1.0;" width="10" x="341.5" y="397.082"/><line style="stroke:#181818;stroke-width:1.0;" x1="106.5" x2="148.5" y1="105.2871" y2="105.2871"/><line style="stroke:#181818;stroke-width:1.0;" x1="148.5" x2="148.5" y1="105.2871" y2="118.2871"/><line style="stroke:#181818;stroke-width:1.0;" x1="107.5" x2="148.5" y1="118.2871" y2="118.2871"/><polygon fill="#181818" points="117.5,114.2871,107.5,118.2871,117.5,122.2871,113.5,118.2871" style="stroke:#181818;stroke-width:1.0;"/><text fill="#000000" font-family="sans-serif" font-size="13" lengthAdjust="spacing" textLength="50" x="113.5" y="100.5449">trigger()</text><polygon fill="#181818" points="558.5,143.5977,568.5,147.5977,558.5,151.5977,562.5,147.5977" style="stroke:#181818;stroke-width:1.0;"/><line style="stroke:#181818;stroke-width:1.0;" x1="106.5" x2="564.5" y1="147.5977" y2="147.5977"/><text fill="#000000" font-family="sans-serif" font-size="13" lengthAdjust="spacing" textLength="188" x="113.5" y="142.8555">GetBlockHeadersFromHeight()</text><path d="M10,162.5977 L72,162.5977 L72,169.9082 L62,179.9082 L10,179.9082 L10,162.5977 " fill="#EEEEEE" style="stroke:#000000;stroke-width:1.5;"/><rect fill="none" height="46.6211" style="stroke:#000000;stroke-width:1.5;" width="773" x="10" y="162.5977"/><text fill="#000000" font-family="sans-serif" font-size="13" font-weight="bold" lengthAdjust="spacing" textLength="17" x="25" y="176.166">alt</text><text fill="#000000" font-family="sans-serif" font-size="11" font-weight="bold" lengthAdjust="spacing" textLength="75" x="87" y="175.2324">[direct mode]</text><polygon fill="#181818" points="697.5,197.2188,707.5,201.2188,697.5,205.2188,701.5,201.2188" style="stroke:#181818;stroke-width:1.0;"/><line style="stroke:#181818;stroke-width:1.0;" x1="106.5" x2="703.5" y1="201.2188" y2="201.2188"/><text fill="#000000" font-family="sans-serif" font-size="13" lengthAdjust="spacing" textLength="188" x="113.5" y="196.4766">GetBlockHeadersFromHeight()</text><polygon fill="#181818" points="329.5,233.5293,339.5,237.5293,329.5,241.5293,333.5,237.5293" style="stroke:#181818;stroke-width:1.0;"/><line style="stroke:#181818;stroke-width:1.0;" x1="106.5" x2="335.5" y1="237.5293" y2="237.5293"/><text fill="#000000" font-family="sans-serif" font-size="13" lengthAdjust="spacing" textLength="88" x="113.5" y="232.7871">GetUTXODiff()</text><polygon fill="#181818" points="963,262.8398,973,266.8398,963,270.8398,967,266.8398" style="stroke:#181818;stroke-width:1.0;"/><line style="stroke:#181818;stroke-width:1.0;" x1="351.5" x2="969" y1="266.8398" y2="266.8398"/><text fill="#000000" font-family="sans-serif" font-size="13" lengthAdjust="spacing" textLength="212" x="358.5" y="262.0977">Get UTXO additions and deletions</text><polygon fill="#181818" points="362.5,292.1504,352.5,296.1504,362.5,300.1504,358.5,296.1504" style="stroke:#181818;stroke-width:1.0;"/><line style="stroke:#181818;stroke-width:1.0;stroke-dasharray:2.0,2.0;" x1="356.5" x2="974" y1="296.1504" y2="296.1504"/><text fill="#000000" font-family="sans-serif" font-size="13" lengthAdjust="spacing" textLength="187" x="368.5" y="291.4082">UTXO additions and deletions</text><line style="stroke:#181818;stroke-width:1.0;" x1="351.5" x2="393.5" y1="325.4609" y2="325.4609"/><line style="stroke:#181818;stroke-width:1.0;" x1="393.5" x2="393.5" y1="325.4609" y2="338.4609"/><line style="stroke:#181818;stroke-width:1.0;" x1="352.5" x2="393.5" y1="338.4609" y2="338.4609"/><polygon fill="#181818" points="362.5,334.4609,352.5,338.4609,362.5,342.4609,358.5,338.4609" style="stroke:#181818;stroke-width:1.0;"/><text fill="#000000" font-family="sans-serif" font-size="13" lengthAdjust="spacing" textLength="200" x="358.5" y="320.7188">Process additions and deletions</text><polygon fill="#181818" points="117.5,363.7715,107.5,367.7715,117.5,371.7715,113.5,367.7715" style="stroke:#181818;stroke-width:1.0;"/><line style="stroke:#181818;stroke-width:1.0;stroke-dasharray:2.0,2.0;" x1="111.5" x2="345.5" y1="367.7715" y2="367.7715"/><text fill="#000000" font-family="sans-serif" font-size="13" lengthAdjust="spacing" textLength="104" x="123.5" y="363.0293">Return UTXODiff</text><polygon fill="#181818" points="329.5,393.082,339.5,397.082,329.5,401.082,333.5,397.082" style="stroke:#181818;stroke-width:1.0;"/><line style="stroke:#181818;stroke-width:1.0;" x1="106.5" x2="335.5" y1="397.082" y2="397.082"/><text fill="#000000" font-family="sans-serif" font-size="13" lengthAdjust="spacing" textLength="102" x="113.5" y="392.3398">CreateUTXOSet()</text><polygon fill="#181818" points="963,422.3926,973,426.3926,963,430.3926,967,426.3926" style="stroke:#181818;stroke-width:1.0;"/><line style="stroke:#181818;stroke-width:1.0;" x1="351.5" x2="969" y1="426.3926" y2="426.3926"/><text fill="#000000" font-family="sans-serif" font-size="13" lengthAdjust="spacing" textLength="190" x="358.5" y="421.6504">Get previous block's UTXO set</text><polygon fill="#181818" points="362.5,451.7031,352.5,455.7031,362.5,459.7031,358.5,455.7031" style="stroke:#181818;stroke-width:1.0;"/><line style="stroke:#181818;stroke-width:1.0;stroke-dasharray:2.0,2.0;" x1="356.5" x2="974" y1="455.7031" y2="455.7031"/><text fill="#000000" font-family="sans-serif" font-size="13" lengthAdjust="spacing" textLength="164" x="368.5" y="450.9609">Previous block's UTXO set</text><polygon fill="#181818" points="811,481.0137,821,485.0137,811,489.0137,815,485.0137" style="stroke:#181818;stroke-width:1.0;"/><line style="stroke:#181818;stroke-width:1.0;" x1="351.5" x2="817" y1="485.0137" y2="485.0137"/><text fill="#000000" font-family="sans-serif" font-size="13" lengthAdjust="spacing" textLength="155" x="358.5" y="480.2715">Create new UTXO set file</text><path d="M298,500.0137 L372,500.0137 L372,507.3242 L362,517.3242 L298,517.3242 L298,500.0137 " fill="#EEEEEE" style="stroke:#000000;stroke-width:1.5;"/><rect fill="none" height="46.6211" style="stroke:#000000;stroke-width:1.5;" width="575" x="298" y="500.0137"/><text fill="#000000" font-family="sans-serif" font-size="13" font-weight="bold" lengthAdjust="spacing" textLength="29" x="313" y="513.582">loop</text><text fill="#000000" font-family="sans-serif" font-size="11" font-weight="bold" lengthAdjust="spacing" textLength="90" x="387" y="512.6484">[for each UTXO]</text><polygon fill="#181818" points="811,534.6348,821,538.6348,811,542.6348,815,538.6348" style="stroke:#181818;stroke-width:1.0;"/><line style="stroke:#181818;stroke-width:1.0;" x1="351.5" x2="817" y1="538.6348" y2="538.6348"/><text fill="#000000" font-family="sans-serif" font-size="13" lengthAdjust="spacing" textLength="94" x="358.5" y="533.8926">Write UTXO Set</text><polygon fill="#181818" points="811,570.9453,821,574.9453,811,578.9453,815,574.9453" style="stroke:#181818;stroke-width:1.0;"/><line style="stroke:#181818;stroke-width:1.0;" x1="351.5" x2="817" y1="574.9453" y2="574.9453"/><text fill="#000000" font-family="sans-serif" font-size="13" lengthAdjust="spacing" textLength="43" x="358.5" y="570.2031">Close()</text><polygon fill="#181818" points="963,600.2559,973,604.2559,963,608.2559,967,604.2559" style="stroke:#181818;stroke-width:1.0;"/><line style="stroke:#181818;stroke-width:1.0;" x1="823" x2="969" y1="604.2559" y2="604.2559"/><text fill="#000000" font-family="sans-serif" font-size="13" lengthAdjust="spacing" textLength="128" x="830" y="599.5137">Persist UTXO Set file</text><line style="stroke:#181818;stroke-width:1.0;" x1="106.5" x2="148.5" y1="633.5664" y2="633.5664"/><line style="stroke:#181818;stroke-width:1.0;" x1="148.5" x2="148.5" y1="633.5664" y2="646.5664"/><line style="stroke:#181818;stroke-width:1.0;" x1="107.5" x2="148.5" y1="646.5664" y2="646.5664"/><polygon fill="#181818" points="117.5,642.5664,107.5,646.5664,117.5,650.5664,113.5,646.5664" style="stroke:#181818;stroke-width:1.0;"/><text fill="#000000" font-family="sans-serif" font-size="13" lengthAdjust="spacing" textLength="221" x="113.5" y="628.8242">Record last processed block height</text><line style="stroke:#181818;stroke-width:1.0;" x1="106.5" x2="148.5" y1="680.877" y2="680.877"/><line style="stroke:#181818;stroke-width:1.0;" x1="148.5" x2="148.5" y1="680.877" y2="693.877"/><line style="stroke:#181818;stroke-width:1.0;" x1="101.5" x2="148.5" y1="693.877" y2="693.877"/><polygon fill="#181818" points="111.5,689.877,101.5,693.877,111.5,697.877,107.5,693.877" style="stroke:#181818;stroke-width:1.0;"/><text fill="#000000" font-family="sans-serif" font-size="13" lengthAdjust="spacing" textLength="189" x="113.5" y="676.1348">Trigger next block processing</text><!--SRC=[bLJ9KiCm3BtdApIz08V-00SEj5EuqQ5bu6fYfTNWsXbPBNm-hft5JJV89P7ydfOdnK9Y4DwM7oymH_Ra1Hd6y6XS-GNAQfXYZLQZBGazpDcLw3tPLL7KYeLAgfKL60q2B91to2DGllayHa-fgYAWDGuXiO1ohSZ2n11QYTZUcvndEGjnZ0DAz1qoPcGmkbEjlNaYy31c2bUeKcYd1Dj6qml63uq3xa6OLYlasxliSDX9W3sXHEypAXsKdB7RF2EjrXA8oWXeOYm5DavZ0U4v5ImMTILM66TMI2j_8hNMFcNRM3UW3jgcpBAb5L9Qav2pFgwEHeFHAZBq-33dHLgUCECqM_W7MZw5LvGjsxuRZSSTdjPbmXXGUyS2vV_Ar8mxSbiFd_kJcxJnu54ko38_oybJzVlQLGaMlpimL05G6ETgg1n3Q7WTp-Bwd0tqpjJq5iIJk2xdanhdCKYIEOSIDBT25p0LTKNzR6gbOmr6-RsGSUweaogmZXjzYhLCVrmGuqSQSDrVNLdknFW5]--></g></svg>
