<svg contentStyleType="text/css" height="673" preserveAspectRatio="none" viewBox="0 0 1691 673" width="1691" xmlns="http://www.w3.org/2000/svg" zoomAndPan="magnify"><path d="m751 228.0938h467v46.2656h-467z" fill="none" stroke="#000" stroke-width="1.5"/><g stroke="#181818" stroke-width=".5"><g stroke-dasharray="5 5"><path d="m27 36.2969v601.5234"/><path d="m172.5 36.2969v601.5234"/><path d="m336.5 36.2969v601.5234"/><path d="m481.5 36.2969v601.5234"/><path d="m667 36.2969v601.5234"/><path d="m824 36.2969v601.5234"/><path d="m956 36.2969v601.5234"/><path d="m1116 36.2969v601.5234"/><path d="m1311 36.2969v601.5234"/><path d="m1491 36.2969v601.5234"/><path d="m1639 36.2969v601.5234"/></g><rect fill="#e2e2f0" height="30.2969" rx="2.5" width="45" x="5" y="5"/></g><text font-family="sans-serif" font-size="14" lengthAdjust="spacing" textLength="31" x="12" y="24.9951">User</text><rect fill="#e2e2f0" height="30.2969" rx="2.5" stroke="#181818" stroke-width=".5" width="45" x="5" y="636.8203"/><text font-family="sans-serif" font-size="14" lengthAdjust="spacing" textLength="31" x="12" y="656.8154">User</text><rect fill="#e2e2f0" height="30.2969" rx="2.5" stroke="#181818" stroke-width=".5" width="152" x="96.5" y="5"/><text font-family="sans-serif" font-size="14" lengthAdjust="spacing" textLength="138" x="103.5" y="24.9951">Submission Service</text><rect fill="#e2e2f0" height="30.2969" rx="2.5" stroke="#181818" stroke-width=".5" width="152" x="96.5" y="636.8203"/><text font-family="sans-serif" font-size="14" lengthAdjust="spacing" textLength="138" x="103.5" y="656.8154">Submission Service</text><rect fill="#e2e2f0" height="30.2969" rx="2.5" stroke="#181818" stroke-width=".5" width="104" x="284.5" y="5"/><text font-family="sans-serif" font-size="14" lengthAdjust="spacing" textLength="90" x="291.5" y="24.9951">Other Nodes</text><rect fill="#e2e2f0" height="30.2969" rx="2.5" stroke="#181818" stroke-width=".5" width="104" x="284.5" y="636.8203"/><text font-family="sans-serif" font-size="14" lengthAdjust="spacing" textLength="90" x="291.5" y="656.8154">Other Nodes</text><rect fill="#e2e2f0" height="30.2969" rx="2.5" stroke="#181818" stroke-width=".5" width="166" x="398.5" y="5"/><text font-family="sans-serif" font-size="14" lengthAdjust="spacing" textLength="152" x="405.5" y="24.9951">TX Validation Service</text><rect fill="#e2e2f0" height="30.2969" rx="2.5" stroke="#181818" stroke-width=".5" width="166" x="398.5" y="636.8203"/><text font-family="sans-serif" font-size="14" lengthAdjust="spacing" textLength="152" x="405.5" y="656.8154">TX Validation Service</text><rect fill="#e2e2f0" height="30.2969" rx="2.5" stroke="#181818" stroke-width=".5" width="167" x="584" y="5"/><text font-family="sans-serif" font-size="14" lengthAdjust="spacing" textLength="153" x="591" y="24.9951">UTXO Lookup Service</text><rect fill="#e2e2f0" height="30.2969" rx="2.5" stroke="#181818" stroke-width=".5" width="167" x="584" y="636.8203"/><text font-family="sans-serif" font-size="14" lengthAdjust="spacing" textLength="153" x="591" y="656.8154">UTXO Lookup Service</text><rect fill="#e2e2f0" height="30.2969" rx="2.5" stroke="#181818" stroke-width=".5" width="127" x="761" y="5"/><text font-family="sans-serif" font-size="14" lengthAdjust="spacing" textLength="113" x="768" y="24.9951">TX Status Store</text><rect fill="#e2e2f0" height="30.2969" rx="2.5" stroke="#181818" stroke-width=".5" width="127" x="761" y="636.8203"/><text font-family="sans-serif" font-size="14" lengthAdjust="spacing" textLength="113" x="768" y="656.8154">TX Status Store</text><rect fill="#e2e2f0" height="30.2969" rx="2.5" stroke="#181818" stroke-width=".5" width="116" x="898" y="5"/><text font-family="sans-serif" font-size="14" lengthAdjust="spacing" textLength="102" x="905" y="24.9951">Subtree Store</text><rect fill="#e2e2f0" height="30.2969" rx="2.5" stroke="#181818" stroke-width=".5" width="116" x="898" y="636.8203"/><text font-family="sans-serif" font-size="14" lengthAdjust="spacing" textLength="102" x="905" y="656.8154">Subtree Store</text><rect fill="#e2e2f0" height="30.2969" rx="2.5" stroke="#181818" stroke-width=".5" width="184" x="1024" y="5"/><text font-family="sans-serif" font-size="14" lengthAdjust="spacing" textLength="170" x="1031" y="24.9951">Block Assembly Service</text><rect fill="#e2e2f0" height="30.2969" rx="2.5" stroke="#181818" stroke-width=".5" width="184" x="1024" y="636.8203"/><text font-family="sans-serif" font-size="14" lengthAdjust="spacing" textLength="170" x="1031" y="656.8154">Block Assembly Service</text><rect fill="#e2e2f0" height="30.2969" rx="2.5" stroke="#181818" stroke-width=".5" width="187" x="1218" y="5"/><text font-family="sans-serif" font-size="14" lengthAdjust="spacing" textLength="173" x="1225" y="24.9951">Block Validation Service</text><rect fill="#e2e2f0" height="30.2969" rx="2.5" stroke="#181818" stroke-width=".5" width="187" x="1218" y="636.8203"/><text font-family="sans-serif" font-size="14" lengthAdjust="spacing" textLength="173" x="1225" y="656.8154">Block Validation Service</text><rect fill="#e2e2f0" height="30.2969" rx="2.5" stroke="#181818" stroke-width=".5" width="152" x="1415" y="5"/><text font-family="sans-serif" font-size="14" lengthAdjust="spacing" textLength="138" x="1422" y="24.9951">Node Miner Service</text><rect fill="#e2e2f0" height="30.2969" rx="2.5" stroke="#181818" stroke-width=".5" width="152" x="1415" y="636.8203"/><text font-family="sans-serif" font-size="14" lengthAdjust="spacing" textLength="138" x="1422" y="656.8154">Node Miner Service</text><rect fill="#e2e2f0" height="30.2969" rx="2.5" stroke="#181818" stroke-width=".5" width="92" x="1593" y="5"/><text font-family="sans-serif" font-size="14" lengthAdjust="spacing" textLength="78" x="1600" y="24.9951">Blockchain</text><rect fill="#e2e2f0" height="30.2969" rx="2.5" stroke="#181818" stroke-width=".5" width="92" x="1593" y="636.8203"/><text font-family="sans-serif" font-size="14" lengthAdjust="spacing" textLength="78" x="1600" y="656.8154">Blockchain</text><path d="m160.5 63.4297 10 4-10 4 4-4z" fill="#181818" stroke="#181818"/><path d="m27.5 67.4297h139" stroke="#181818"/><text font-family="sans-serif" font-size="13" lengthAdjust="spacing" textLength="121" x="34.5" y="62.3638">Submit transaction</text><path d="m324.5 92.5625 10 4-10 4 4-4z" fill="#181818" stroke="#181818"/><path d="m172.5 96.5625h158" stroke="#181818"/><text font-family="sans-serif" font-size="13" lengthAdjust="spacing" textLength="140" x="179.5" y="91.4966">Broadcast transaction</text><path d="m469.5 121.6953 10 4-10 4 4-4z" fill="#181818" stroke="#181818"/><path d="m172.5 125.6953h303" stroke="#181818"/><text font-family="sans-serif" font-size="13" lengthAdjust="spacing" textLength="128" x="179.5" y="120.6294">Validate transaction</text><path d="m655.5 150.8281 10 4-10 4 4-4z" fill="#181818" stroke="#181818"/><path d="m481.5 154.8281h180" stroke="#181818"/><text font-family="sans-serif" font-size="13" lengthAdjust="spacing" textLength="162" x="488.5" y="149.7622">Verify inputs are unspent</text><path d="m492.5 179.9609-10 4 10 4-4-4z" fill="#181818" stroke="#181818"/><path d="m486.5 183.9609h180" stroke="#181818"/><text font-family="sans-serif" font-size="13" lengthAdjust="spacing" textLength="98" x="498.5" y="178.895">Inputs are valid</text><path d="m812.5 209.0938 10 4-10 4 4-4z" fill="#181818" stroke="#181818"/><path d="m481.5 213.0938h337" stroke="#181818"/><text font-family="sans-serif" font-size="13" lengthAdjust="spacing" textLength="166" x="488.5" y="208.0278">Update transaction status</text><path d="m751 228.0938h78v7.1328l-10 10h-68z" fill="#eee" stroke="#000" stroke-width="1.5"/><path d="m751 228.0938h467v46.2656h-467z" fill="none" stroke="#000" stroke-width="1.5"/><text font-family="sans-serif" font-size="13" font-weight="bold" lengthAdjust="spacing" textLength="33" x="766" y="241.1606">loop</text><text font-family="sans-serif" font-size="11" font-weight="bold" lengthAdjust="spacing" textLength="180" x="844" y="240.3042">[For each 1M transactions]</text><path d="m1104 262.3594 10 4-10 4 4-4z" fill="#181818" stroke="#181818"/><path d="m824.5 266.3594h285.5" stroke="#181818"/><text font-family="sans-serif" font-size="13" lengthAdjust="spacing" textLength="221" x="831.5" y="261.2935">Organize transactions into subtree</text><path d="m347.5 298.4922-10 4 10 4-4-4z" fill="#181818" stroke="#181818"/><path d="m341.5 302.4922h773.5" stroke="#181818"/><text font-family="sans-serif" font-size="13" lengthAdjust="spacing" textLength="117" x="353.5" y="297.4263">Broadcast subtree</text><path d="m1299.5 327.625 10 4-10 4 4-4z" fill="#181818" stroke="#181818"/><path d="m336.5 331.625h969" stroke="#181818"/><text font-family="sans-serif" font-size="13" lengthAdjust="spacing" textLength="105" x="343.5" y="326.5591">Validate subtree</text><path d="m678.5 356.7578-10 4 10 4-4-4z" fill="#181818" stroke="#181818"/><path d="m672.5 360.7578h638" stroke="#181818"/><text font-family="sans-serif" font-size="13" lengthAdjust="spacing" textLength="122" x="684.5" y="355.6919">Check transactions</text><path d="m1299.5 385.8906 10 4-10 4 4-4z" fill="#181818" stroke="#181818"/><path d="m667.5 389.8906h638" stroke="#181818"/><text font-family="sans-serif" font-size="13" lengthAdjust="spacing" textLength="141" x="674.5" y="384.8247">Transactions are valid</text><path d="m967 415.0234-10 4 10 4-4-4z" fill="#181818" stroke="#181818"/><path d="m961 419.0234h349.5" stroke="#181818"/><text font-family="sans-serif" font-size="13" lengthAdjust="spacing" textLength="143" x="973" y="413.9575">Update subtree status</text><path d="m1479 444.1563 10 4-10 4 4-4z" fill="#181818" stroke="#181818"/><path d="m1116 448.1563h369" stroke="#181818"/><text font-family="sans-serif" font-size="13" lengthAdjust="spacing" textLength="246" x="1123" y="443.0903">Compile block template from subtrees</text><g stroke="#181818"><path d="m1491 477.2891h42"/><path d="m1533 477.2891v13"/><path d="m1492 490.2891h41"/><path d="m1502 486.2891-10 4 10 4-4-4z" fill="#181818"/></g><text font-family="sans-serif" font-size="13" lengthAdjust="spacing" textLength="134" x="1498" y="472.2231">Find hashing solution</text><path d="m347.5 515.4219-10 4 10 4-4-4z" fill="#181818" stroke="#181818"/><path d="m341.5 519.4219h1148.5" stroke="#181818"/><text font-family="sans-serif" font-size="13" lengthAdjust="spacing" textLength="132" x="353.5" y="514.356">Broadcast new block</text><path d="m1299.5 544.5547 10 4-10 4 4-4z" fill="#181818" stroke="#181818"/><path d="m336.5 548.5547h969" stroke="#181818"/><text font-family="sans-serif" font-size="13" lengthAdjust="spacing" textLength="120" x="343.5" y="543.4888">Validate new block</text><g stroke="#181818"><path d="m1311.5 577.6875h42"/><path d="m1353.5 577.6875v13"/><path d="m1312.5 590.6875h41"/><path d="m1322.5 586.6875-10 4 10 4-4-4z" fill="#181818"/></g><text font-family="sans-serif" font-size="13" lengthAdjust="spacing" textLength="89" x="1318.5" y="572.6216">Validate block</text><path d="m1627 615.8203 10 4-10 4 4-4z" fill="#181818" stroke="#181818"/><path d="m1311.5 619.8203h321.5" stroke="#181818"/><text font-family="sans-serif" font-size="13" lengthAdjust="spacing" textLength="174" x="1318.5" y="614.7544">Append block to blockchain</text></svg>
