<svg contentStyleType="text/css" height="409" preserveAspectRatio="none" viewBox="0 0 986 409" width="986" xmlns="http://www.w3.org/2000/svg" zoomAndPan="magnify"><g stroke="#181818"><g fill="#fff"><path d="m53.5 75.7988h10v273.4844h-10z"/><path d="m58.5 118.1094h10v34.3105h-10z"/><path d="m58.5 282.6621h10v50.6211h-10z"/><path d="m260.5 253.3516h10v29.3105h-10z"/><path d="m689.5 181.7305h10v71.6211h-10z"/></g><path d="m58 36.4883v321.7949" stroke-dasharray="5 5" stroke-width=".5"/><path d="m265.5 36.4883v321.7949" stroke-dasharray="5 5" stroke-width=".5"/><path d="m428.5 36.4883v321.7949" stroke-dasharray="5 5" stroke-width=".5"/><path d="m694 36.4883v321.7949" stroke-dasharray="5 5" stroke-width=".5"/><rect fill="#e2e2f0" height="30.4883" rx="2.5" stroke-width=".5" width="107" x="5" y="5"/></g><text font-family="sans-serif" font-size="14" lengthAdjust="spacing" textLength="93" x="12" y="25.5352">Node (Peer 1)</text><rect fill="#e2e2f0" height="30.4883" rx="2.5" stroke="#181818" stroke-width=".5" width="107" x="5" y="357.2832"/><text font-family="sans-serif" font-size="14" lengthAdjust="spacing" textLength="93" x="12" y="377.8184">Node (Peer 1)</text><path d="m220.5 10h90c5 0 5 13.2441 5 13.2441s0 13.2442-5 13.2442h-90c-5 0-5-13.2442-5-13.2442s0-13.2441 5-13.2441" fill="#e2e2f0" stroke="#181818" stroke-width=".5"/><path d="m310.5 10c-5 0-5 13.2441-5 13.2441 0 13.2442 5 13.2442 5 13.2442" fill="none" stroke="#181818" stroke-width=".5"/><text font-family="sans-serif" font-size="14" lengthAdjust="spacing" textLength="80" x="220.5" y="28.5352">LibP2P Host</text><path d="m220.5 357.2832h90c5 0 5 13.2441 5 13.2441s0 13.2442-5 13.2442h-90c-5 0-5-13.2442-5-13.2442s0-13.2441 5-13.2441" fill="#e2e2f0" stroke="#181818" stroke-width=".5"/><path d="m310.5 357.2832c-5 0-5 13.2441-5 13.2441 0 13.2442 5 13.2442 5 13.2442" fill="none" stroke="#181818" stroke-width=".5"/><text font-family="sans-serif" font-size="14" lengthAdjust="spacing" textLength="80" x="220.5" y="375.8184">LibP2P Host</text><path d="m371.5 10h114c5 0 5 13.2441 5 13.2441s0 13.2442-5 13.2442h-114c-5 0-5-13.2442-5-13.2442s0-13.2441 5-13.2441" fill="#e2e2f0" stroke="#181818" stroke-width=".5"/><path d="m485.5 10c-5 0-5 13.2441-5 13.2441 0 13.2442 5 13.2442 5 13.2442" fill="none" stroke="#181818" stroke-width=".5"/><text font-family="sans-serif" font-size="14" lengthAdjust="spacing" textLength="104" x="371.5" y="28.5352">PubSub System</text><path d="m371.5 357.2832h114c5 0 5 13.2441 5 13.2441s0 13.2442-5 13.2442h-114c-5 0-5-13.2442-5-13.2442s0-13.2441 5-13.2441" fill="#e2e2f0" stroke="#181818" stroke-width=".5"/><path d="m485.5 357.2832c-5 0-5 13.2441-5 13.2441 0 13.2442 5 13.2442 5 13.2442" fill="none" stroke="#181818" stroke-width=".5"/><text font-family="sans-serif" font-size="14" lengthAdjust="spacing" textLength="104" x="371.5" y="375.8184">PubSub System</text><rect fill="#e2e2f0" height="30.4883" rx="2.5" stroke="#181818" stroke-width=".5" width="57" x="666" y="5"/><text font-family="sans-serif" font-size="14" lengthAdjust="spacing" textLength="43" x="673" y="25.5352">Peer 2</text><rect fill="#e2e2f0" height="30.4883" rx="2.5" stroke="#181818" stroke-width=".5" width="57" x="666" y="357.2832"/><text font-family="sans-serif" font-size="14" lengthAdjust="spacing" textLength="43" x="673" y="377.8184">Peer 2</text><g stroke="#181818"><path d="m53.5 75.7988h10v273.4844h-10z" fill="#fff"/><path d="m58.5 118.1094h10v34.3105h-10z" fill="#fff"/><path d="m58.5 282.6621h10v50.6211h-10z" fill="#fff"/><path d="m260.5 253.3516h10v29.3105h-10z" fill="#fff"/><path d="m689.5 181.7305h10v71.6211h-10z" fill="#fff"/><path d="m58.5 62.7988h47"/><path d="m105.5 62.7988v13"/><path d="m64.5 75.7988h41"/><path d="m74.5 71.7988-10 4 10 4-4-4z" fill="#181818"/></g><text font-family="sans-serif" font-size="13" lengthAdjust="spacing" textLength="37" x="70.5" y="58.0566">Start()</text><path d="m63.5 105.1094h47" stroke="#181818"/><path d="m110.5 105.1094v13" stroke="#181818"/><path d="m69.5 118.1094h41" stroke="#181818"/><path d="m79.5 114.1094-10 4 10 4-4-4z" fill="#181818" stroke="#181818"/><text font-family="sans-serif" font-size="13" lengthAdjust="spacing" textLength="183" x="75.5" y="100.3672">s.sendBestBlockMessage(ctx)</text><path d="m416.5 148.4199 10 4-10 4 4-4z" fill="#181818" stroke="#181818"/><path d="m63.5 152.4199h359" stroke="#181818"/><text font-family="sans-serif" font-size="13" lengthAdjust="spacing" textLength="336" x="70.5" y="147.6777">s.topics[bestBlockTopicName].Publish(ctx, msgBytes)</text><path d="m677.5 177.7305 10 4-10 4 4-4z" fill="#181818" stroke="#181818"/><path d="m428.5 181.7305h255" stroke="#181818"/><text font-family="sans-serif" font-size="13" lengthAdjust="spacing" textLength="176" x="435.5" y="176.9883">s.handleBestBlockTopic(ctx)</text><path d="m699.5 211.041h42" stroke="#181818"/><path d="m741.5 211.041v13" stroke="#181818"/><path d="m700.5 224.041h41" stroke="#181818"/><path d="m710.5 220.041-10 4 10 4-4-4z" fill="#181818" stroke="#181818"/><text font-family="sans-serif" font-size="13" lengthAdjust="spacing" textLength="273" x="706.5" y="206.2988">s.P2PNode.SendToPeer(ctx, peer, msgBytes)</text><path d="m281.5 249.3516-10 4 10 4-4-4z" fill="#181818" stroke="#181818"/><path d="m275.5 253.3516h418" stroke="#181818"/><text font-family="sans-serif" font-size="13" lengthAdjust="spacing" textLength="400" x="287.5" y="248.6094">s.host.NewStream(ctx, peer.ID, protocol.ID(s.bitcoinProtocolId))</text><path d="m79.5 278.6621-10 4 10 4-4-4z" fill="#181818" stroke="#181818"/><path d="m73.5 282.6621h191" stroke="#181818"/><text font-family="sans-serif" font-size="13" lengthAdjust="spacing" textLength="154" x="85.5" y="277.9199">s.streamHandler(stream)</text><path d="m68.5 332.2832h42" stroke="#181818"/><path d="m110.5 332.2832v13" stroke="#181818"/><path d="m63.5 345.2832h47" stroke="#181818"/><path d="m73.5 341.2832-10 4 10 4-4-4z" fill="#181818" stroke="#181818"/><text font-family="sans-serif" font-size="13" lengthAdjust="spacing" textLength="162" x="75.5" y="312.2305">Log the received message</text><text font-family="sans-serif" font-size="13" lengthAdjust="spacing" textLength="67" x="75.5" y="327.541">(no action)</text><text fill="#888" font-family="sans-serif" font-size="10" lengthAdjust="spacing" textLength="161" y="399.4395">Last Modified On: 6-March-2024</text></svg>
