<?xml version="1.0" encoding="us-ascii" standalone="no"?><svg xmlns="http://www.w3.org/2000/svg" xmlns:xlink="http://www.w3.org/1999/xlink" contentStyleType="text/css" height="842px" preserveAspectRatio="none" style="width:1428px;height:842px;background:#FFFFFF;" version="1.1" viewBox="0 0 1428 842" width="1428px" zoomAndPan="magnify"><defs/><g><rect fill="#FFFFFF" height="643.9688" style="stroke:#181818;stroke-width:1.0;" width="10" x="43" y="106.7988"/><rect fill="#FFFFFF" height="170.2422" style="stroke:#181818;stroke-width:1.0;" width="10" x="48" y="234.7305"/><rect fill="#FFFFFF" height="285.4844" style="stroke:#181818;stroke-width:1.0;" width="10" x="48" y="449.2832"/><line style="stroke:#181818;stroke-width:0.5;stroke-dasharray:5.0,5.0;" x1="48" x2="48" y1="67.4883" y2="759.7676"/><line style="stroke:#181818;stroke-width:0.5;stroke-dasharray:5.0,5.0;" x1="326.5" x2="326.5" y1="67.4883" y2="759.7676"/><line style="stroke:#181818;stroke-width:0.5;stroke-dasharray:5.0,5.0;" x1="435.5" x2="435.5" y1="67.4883" y2="759.7676"/><line style="stroke:#181818;stroke-width:0.5;stroke-dasharray:5.0,5.0;" x1="586.5" x2="586.5" y1="67.4883" y2="759.7676"/><line style="stroke:#181818;stroke-width:0.5;stroke-dasharray:5.0,5.0;" x1="732.5" x2="732.5" y1="67.4883" y2="759.7676"/><line style="stroke:#181818;stroke-width:0.5;stroke-dasharray:5.0,5.0;" x1="870.5" x2="870.5" y1="67.4883" y2="759.7676"/><line style="stroke:#181818;stroke-width:0.5;stroke-dasharray:5.0,5.0;" x1="1014.5" x2="1014.5" y1="67.4883" y2="759.7676"/><line style="stroke:#181818;stroke-width:0.5;stroke-dasharray:5.0,5.0;" x1="1174.5" x2="1174.5" y1="67.4883" y2="759.7676"/><line style="stroke:#181818;stroke-width:0.5;stroke-dasharray:5.0,5.0;" x1="1347.5" x2="1347.5" y1="67.4883" y2="759.7676"/><rect fill="#E2E2F0" height="30.4883" rx="2.5" ry="2.5" style="stroke:#181818;stroke-width:0.5;" width="86" x="5" y="36"/><text fill="#000000" font-family="sans-serif" font-size="14" lengthAdjust="spacing" textLength="72" x="12" y="56.5352">P2P Server</text><rect fill="#E2E2F0" height="30.4883" rx="2.5" ry="2.5" style="stroke:#181818;stroke-width:0.5;" width="86" x="5" y="758.7676"/><text fill="#000000" font-family="sans-serif" font-size="14" lengthAdjust="spacing" textLength="72" x="12" y="779.3027">P2P Server</text><rect fill="#E2E2F0" height="30.4883" rx="2.5" ry="2.5" style="stroke:#181818;stroke-width:0.5;" width="75" x="289.5" y="36"/><text fill="#000000" font-family="sans-serif" font-size="14" lengthAdjust="spacing" textLength="61" x="296.5" y="56.5352">P2PNode</text><rect fill="#E2E2F0" height="30.4883" rx="2.5" ry="2.5" style="stroke:#181818;stroke-width:0.5;" width="75" x="289.5" y="758.7676"/><text fill="#000000" font-family="sans-serif" font-size="14" lengthAdjust="spacing" textLength="61" x="296.5" y="779.3027">P2PNode</text><text fill="#000000" font-family="sans-serif" font-size="14" lengthAdjust="spacing" textLength="117" x="374.5" y="64.5352">Blockchain Client</text><path d="M418,15 C418,5 436,5 436,5 C436,5 454,5 454,15 L454,41 C454,51 436,51 436,51 C436,51 418,51 418,41 L418,15 " fill="#E2E2F0" style="stroke:#181818;stroke-width:1.5;"/><path d="M418,15 C418,25 436,25 436,25 C436,25 454,25 454,15 " fill="none" style="stroke:#181818;stroke-width:1.5;"/><text fill="#000000" font-family="sans-serif" font-size="14" lengthAdjust="spacing" textLength="117" x="374.5" y="772.3027">Blockchain Client</text><path d="M418,785.2559 C418,775.2559 436,775.2559 436,775.2559 C436,775.2559 454,775.2559 454,785.2559 L454,811.2559 C454,821.2559 436,821.2559 436,821.2559 C436,821.2559 418,821.2559 418,811.2559 L418,785.2559 " fill="#E2E2F0" style="stroke:#181818;stroke-width:1.5;"/><path d="M418,785.2559 C418,795.2559 436,795.2559 436,795.2559 C436,795.2559 454,795.2559 454,785.2559 " fill="none" style="stroke:#181818;stroke-width:1.5;"/><text fill="#000000" font-family="sans-serif" font-size="14" lengthAdjust="spacing" textLength="153" x="507.5" y="64.5352">Block Validation Client</text><path d="M569,15 C569,5 587,5 587,5 C587,5 605,5 605,15 L605,41 C605,51 587,51 587,51 C587,51 569,51 569,41 L569,15 " fill="#E2E2F0" style="stroke:#181818;stroke-width:1.5;"/><path d="M569,15 C569,25 587,25 587,25 C587,25 605,25 605,15 " fill="none" style="stroke:#181818;stroke-width:1.5;"/><text fill="#000000" font-family="sans-serif" font-size="14" lengthAdjust="spacing" textLength="153" x="507.5" y="772.3027">Block Validation Client</text><path d="M569,785.2559 C569,775.2559 587,775.2559 587,775.2559 C587,775.2559 605,775.2559 605,785.2559 L605,811.2559 C605,821.2559 587,821.2559 587,821.2559 C587,821.2559 569,821.2559 569,811.2559 L569,785.2559 " fill="#E2E2F0" style="stroke:#181818;stroke-width:1.5;"/><path d="M569,785.2559 C569,795.2559 587,795.2559 587,795.2559 C587,795.2559 605,795.2559 605,785.2559 " fill="none" style="stroke:#181818;stroke-width:1.5;"/><text fill="#000000" font-family="sans-serif" font-size="14" lengthAdjust="spacing" textLength="106" x="676.5" y="64.5352">Validator Client</text><path d="M714.5,15 C714.5,5 732.5,5 732.5,5 C732.5,5 750.5,5 750.5,15 L750.5,41 C750.5,51 732.5,51 732.5,51 C732.5,51 714.5,51 714.5,41 L714.5,15 " fill="#E2E2F0" style="stroke:#181818;stroke-width:1.5;"/><path d="M714.5,15 C714.5,25 732.5,25 732.5,25 C732.5,25 750.5,25 750.5,15 " fill="none" style="stroke:#181818;stroke-width:1.5;"/><text fill="#000000" font-family="sans-serif" font-size="14" lengthAdjust="spacing" textLength="106" x="676.5" y="772.3027">Validator Client</text><path d="M714.5,785.2559 C714.5,775.2559 732.5,775.2559 732.5,775.2559 C732.5,775.2559 750.5,775.2559 750.5,785.2559 L750.5,811.2559 C750.5,821.2559 732.5,821.2559 732.5,821.2559 C732.5,821.2559 714.5,821.2559 714.5,811.2559 L714.5,785.2559 " fill="#E2E2F0" style="stroke:#181818;stroke-width:1.5;"/><path d="M714.5,785.2559 C714.5,795.2559 732.5,795.2559 732.5,795.2559 C732.5,795.2559 750.5,795.2559 750.5,785.2559 " fill="none" style="stroke:#181818;stroke-width:1.5;"/><rect fill="#E2E2F0" height="30.4883" rx="2.5" ry="2.5" style="stroke:#181818;stroke-width:0.5;" width="144" x="798.5" y="36"/><text fill="#000000" font-family="sans-serif" font-size="14" lengthAdjust="spacing" textLength="130" x="805.5" y="56.5352">Echo (HTTP Server)</text><rect fill="#E2E2F0" height="30.4883" rx="2.5" ry="2.5" style="stroke:#181818;stroke-width:0.5;" width="144" x="798.5" y="758.7676"/><text fill="#000000" font-family="sans-serif" font-size="14" lengthAdjust="spacing" textLength="130" x="805.5" y="779.3027">Echo (HTTP Server)</text><path d="M957.5,41 L1071.5,41 C1076.5,41 1076.5,54.2441 1076.5,54.2441 C1076.5,54.2441 1076.5,67.4883 1071.5,67.4883 L957.5,67.4883 C952.5,67.4883 952.5,54.2441 952.5,54.2441 C952.5,54.2441 952.5,41 957.5,41 " fill="#E2E2F0" style="stroke:#181818;stroke-width:0.5;"/><path d="M1071.5,41 C1066.5,41 1066.5,54.2441 1066.5,54.2441 C1066.5,67.4883 1071.5,67.4883 1071.5,67.4883 " fill="none" style="stroke:#181818;stroke-width:0.5;"/><text fill="#000000" font-family="sans-serif" font-size="14" lengthAdjust="spacing" textLength="104" x="957.5" y="59.5352">PubSub System</text><path d="M957.5,758.7676 L1071.5,758.7676 C1076.5,758.7676 1076.5,772.0117 1076.5,772.0117 C1076.5,772.0117 1076.5,785.2559 1071.5,785.2559 L957.5,785.2559 C952.5,785.2559 952.5,772.0117 952.5,772.0117 C952.5,772.0117 952.5,758.7676 957.5,758.7676 " fill="#E2E2F0" style="stroke:#181818;stroke-width:0.5;"/><path d="M1071.5,758.7676 C1066.5,758.7676 1066.5,772.0117 1066.5,772.0117 C1066.5,785.2559 1071.5,785.2559 1071.5,785.2559 " fill="none" style="stroke:#181818;stroke-width:0.5;"/><text fill="#000000" font-family="sans-serif" font-size="14" lengthAdjust="spacing" textLength="104" x="957.5" y="777.3027">PubSub System</text><path d="M1091.5,41 L1258.5,41 C1263.5,41 1263.5,54.2441 1263.5,54.2441 C1263.5,54.2441 1263.5,67.4883 1258.5,67.4883 L1091.5,67.4883 C1086.5,67.4883 1086.5,54.2441 1086.5,54.2441 C1086.5,54.2441 1086.5,41 1091.5,41 " fill="#E2E2F0" style="stroke:#181818;stroke-width:0.5;"/><path d="M1258.5,41 C1253.5,41 1253.5,54.2441 1253.5,54.2441 C1253.5,67.4883 1258.5,67.4883 1258.5,67.4883 " fill="none" style="stroke:#181818;stroke-width:0.5;"/><text fill="#000000" font-family="sans-serif" font-size="14" lengthAdjust="spacing" textLength="157" x="1091.5" y="59.5352">Connect to Static Peers</text><path d="M1091.5,758.7676 L1258.5,758.7676 C1263.5,758.7676 1263.5,772.0117 1263.5,772.0117 C1263.5,772.0117 1263.5,785.2559 1258.5,785.2559 L1091.5,785.2559 C1086.5,785.2559 1086.5,772.0117 1086.5,772.0117 C1086.5,772.0117 1086.5,758.7676 1091.5,758.7676 " fill="#E2E2F0" style="stroke:#181818;stroke-width:0.5;"/><path d="M1258.5,758.7676 C1253.5,758.7676 1253.5,772.0117 1253.5,772.0117 C1253.5,785.2559 1258.5,785.2559 1258.5,785.2559 " fill="none" style="stroke:#181818;stroke-width:0.5;"/><text fill="#000000" font-family="sans-serif" font-size="14" lengthAdjust="spacing" textLength="157" x="1091.5" y="777.3027">Connect to Static Peers</text><path d="M1278.5,41 L1416.5,41 C1421.5,41 1421.5,54.2441 1421.5,54.2441 C1421.5,54.2441 1421.5,67.4883 1416.5,67.4883 L1278.5,67.4883 C1273.5,67.4883 1273.5,54.2441 1273.5,54.2441 C1273.5,54.2441 1273.5,41 1278.5,41 " fill="#E2E2F0" style="stroke:#181818;stroke-width:0.5;"/><path d="M1416.5,41 C1411.5,41 1411.5,54.2441 1411.5,54.2441 C1411.5,67.4883 1416.5,67.4883 1416.5,67.4883 " fill="none" style="stroke:#181818;stroke-width:0.5;"/><text fill="#000000" font-family="sans-serif" font-size="14" lengthAdjust="spacing" textLength="128" x="1278.5" y="59.5352">Set Topic Handlers</text><path d="M1278.5,758.7676 L1416.5,758.7676 C1421.5,758.7676 1421.5,772.0117 1421.5,772.0117 C1421.5,772.0117 1421.5,785.2559 1416.5,785.2559 L1278.5,785.2559 C1273.5,785.2559 1273.5,772.0117 1273.5,772.0117 C1273.5,772.0117 1273.5,758.7676 1278.5,758.7676 " fill="#E2E2F0" style="stroke:#181818;stroke-width:0.5;"/><path d="M1416.5,758.7676 C1411.5,758.7676 1411.5,772.0117 1411.5,772.0117 C1411.5,785.2559 1416.5,785.2559 1416.5,785.2559 " fill="none" style="stroke:#181818;stroke-width:0.5;"/><text fill="#000000" font-family="sans-serif" font-size="14" lengthAdjust="spacing" textLength="128" x="1278.5" y="777.3027">Set Topic Handlers</text><rect fill="#FFFFFF" height="643.9688" style="stroke:#181818;stroke-width:1.0;" width="10" x="43" y="106.7988"/><rect fill="#FFFFFF" height="170.2422" style="stroke:#181818;stroke-width:1.0;" width="10" x="48" y="234.7305"/><rect fill="#FFFFFF" height="285.4844" style="stroke:#181818;stroke-width:1.0;" width="10" x="48" y="449.2832"/><line style="stroke:#181818;stroke-width:1.0;" x1="48" x2="95" y1="93.7988" y2="93.7988"/><line style="stroke:#181818;stroke-width:1.0;" x1="95" x2="95" y1="93.7988" y2="106.7988"/><line style="stroke:#181818;stroke-width:1.0;" x1="54" x2="95" y1="106.7988" y2="106.7988"/><polygon fill="#181818" points="64,102.7988,54,106.7988,64,110.7988,60,106.7988" style="stroke:#181818;stroke-width:1.0;"/><text fill="#000000" font-family="sans-serif" font-size="13" lengthAdjust="spacing" textLength="65" x="60" y="89.0566">NewServer</text><polygon fill="#181818" points="315,137.1094,325,141.1094,315,145.1094,319,141.1094" style="stroke:#181818;stroke-width:1.0;"/><line style="stroke:#181818;stroke-width:1.0;" x1="53" x2="321" y1="141.1094" y2="141.1094"/><text fill="#000000" font-family="sans-serif" font-size="13" lengthAdjust="spacing" textLength="106" x="60" y="136.3672">Creates P2PNode</text><polygon fill="#181818" points="64,151.1094,54,155.1094,64,159.1094,60,155.1094" style="stroke:#181818;stroke-width:1.0;"/><line style="stroke:#181818;stroke-width:1.0;stroke-dasharray:2.0,2.0;" x1="58" x2="326" y1="155.1094" y2="155.1094"/><line style="stroke:#181818;stroke-width:1.0;" x1="53" x2="95" y1="184.4199" y2="184.4199"/><line style="stroke:#181818;stroke-width:1.0;" x1="95" x2="95" y1="184.4199" y2="197.4199"/><line style="stroke:#181818;stroke-width:1.0;" x1="54" x2="95" y1="197.4199" y2="197.4199"/><polygon fill="#181818" points="64,193.4199,54,197.4199,64,201.4199,60,197.4199" style="stroke:#181818;stroke-width:1.0;"/><text fill="#000000" font-family="sans-serif" font-size="13" lengthAdjust="spacing" textLength="232" x="60" y="179.6777">Sets up topics &amp; notification channel</text><line style="stroke:#181818;stroke-width:1.0;" x1="53" x2="100" y1="221.7305" y2="221.7305"/><line style="stroke:#181818;stroke-width:1.0;" x1="100" x2="100" y1="221.7305" y2="234.7305"/><line style="stroke:#181818;stroke-width:1.0;" x1="59" x2="100" y1="234.7305" y2="234.7305"/><polygon fill="#181818" points="69,230.7305,59,234.7305,69,238.7305,65,234.7305" style="stroke:#181818;stroke-width:1.0;"/><text fill="#000000" font-family="sans-serif" font-size="13" lengthAdjust="spacing" textLength="56" x="65" y="216.9883">Calls Init</text><polygon fill="#181818" points="424,265.041,434,269.041,424,273.041,428,269.041" style="stroke:#181818;stroke-width:1.0;"/><line style="stroke:#181818;stroke-width:1.0;" x1="58" x2="430" y1="269.041" y2="269.041"/><text fill="#000000" font-family="sans-serif" font-size="13" lengthAdjust="spacing" textLength="153" x="65" y="264.2988">Create Blockchain Client</text><polygon fill="#181818" points="69,279.041,59,283.041,69,287.041,65,283.041" style="stroke:#181818;stroke-width:1.0;"/><line style="stroke:#181818;stroke-width:1.0;stroke-dasharray:2.0,2.0;" x1="63" x2="435" y1="283.041" y2="283.041"/><polygon fill="#181818" points="575,308.3516,585,312.3516,575,316.3516,579,312.3516" style="stroke:#181818;stroke-width:1.0;"/><line style="stroke:#181818;stroke-width:1.0;" x1="58" x2="581" y1="312.3516" y2="312.3516"/><text fill="#000000" font-family="sans-serif" font-size="13" lengthAdjust="spacing" textLength="182" x="65" y="307.6094">Create BlockValidation Client</text><polygon fill="#181818" points="69,322.3516,59,326.3516,69,330.3516,65,326.3516" style="stroke:#181818;stroke-width:1.0;"/><line style="stroke:#181818;stroke-width:1.0;stroke-dasharray:2.0,2.0;" x1="63" x2="586" y1="326.3516" y2="326.3516"/><polygon fill="#181818" points="720.5,351.6621,730.5,355.6621,720.5,359.6621,724.5,355.6621" style="stroke:#181818;stroke-width:1.0;"/><line style="stroke:#181818;stroke-width:1.0;" x1="58" x2="726.5" y1="355.6621" y2="355.6621"/><text fill="#000000" font-family="sans-serif" font-size="13" lengthAdjust="spacing" textLength="141" x="65" y="350.9199">Create Validator Client</text><polygon fill="#181818" points="69,365.6621,59,369.6621,69,373.6621,65,369.6621" style="stroke:#181818;stroke-width:1.0;"/><line style="stroke:#181818;stroke-width:1.0;stroke-dasharray:2.0,2.0;" x1="63" x2="731.5" y1="369.6621" y2="369.6621"/><line style="stroke:#181818;stroke-width:1.0;" x1="58" x2="100" y1="403.9727" y2="403.9727"/><line style="stroke:#181818;stroke-width:1.0;" x1="100" x2="100" y1="403.9727" y2="416.9727"/><line style="stroke:#181818;stroke-width:1.0;" x1="53" x2="100" y1="416.9727" y2="416.9727"/><polygon fill="#181818" points="63,412.9727,53,416.9727,63,420.9727,59,416.9727" style="stroke:#181818;stroke-width:1.0;"/><text fill="#000000" font-family="sans-serif" font-size="13" lengthAdjust="spacing" textLength="196" x="65" y="399.2305">Sets HTTP Address from config</text><line style="stroke:#181818;stroke-width:1.0;" x1="53" x2="100" y1="436.2832" y2="436.2832"/><line style="stroke:#181818;stroke-width:1.0;" x1="100" x2="100" y1="436.2832" y2="449.2832"/><line style="stroke:#181818;stroke-width:1.0;" x1="59" x2="100" y1="449.2832" y2="449.2832"/><polygon fill="#181818" points="69,445.2832,59,449.2832,69,453.2832,65,449.2832" style="stroke:#181818;stroke-width:1.0;"/><text fill="#000000" font-family="sans-serif" font-size="13" lengthAdjust="spacing" textLength="64" x="65" y="431.541">Calls Start</text><polygon fill="#181818" points="858.5,479.5938,868.5,483.5938,858.5,487.5938,862.5,483.5938" style="stroke:#181818;stroke-width:1.0;"/><line style="stroke:#181818;stroke-width:1.0;" x1="58" x2="864.5" y1="483.5938" y2="483.5938"/><text fill="#000000" font-family="sans-serif" font-size="13" lengthAdjust="spacing" textLength="245" x="65" y="478.8516">Setup Echo Server (Middleware, Routes)</text><polygon fill="#181818" points="69,493.5938,59,497.5938,69,501.5938,65,497.5938" style="stroke:#181818;stroke-width:1.0;"/><line style="stroke:#181818;stroke-width:1.0;stroke-dasharray:2.0,2.0;" x1="63" x2="869.5" y1="497.5938" y2="497.5938"/><line style="stroke:#181818;stroke-width:1.0;" x1="58" x2="100" y1="526.9043" y2="526.9043"/><line style="stroke:#181818;stroke-width:1.0;" x1="100" x2="100" y1="526.9043" y2="539.9043"/><line style="stroke:#181818;stroke-width:1.0;" x1="59" x2="100" y1="539.9043" y2="539.9043"/><polygon fill="#181818" points="69,535.9043,59,539.9043,69,543.9043,65,539.9043" style="stroke:#181818;stroke-width:1.0;"/><text fill="#000000" font-family="sans-serif" font-size="13" lengthAdjust="spacing" textLength="220" x="65" y="522.1621">Start P2PNode (Join PubSub Topics)</text><polygon fill="#181818" points="1163,565.2148,1173,569.2148,1163,573.2148,1167,569.2148" style="stroke:#181818;stroke-width:1.0;"/><line style="stroke:#181818;stroke-width:1.0;" x1="58" x2="1169" y1="569.2148" y2="569.2148"/><text fill="#000000" font-family="sans-serif" font-size="13" lengthAdjust="spacing" textLength="145" x="65" y="564.4727">Connect to Static Peers</text><polygon fill="#181818" points="69,579.2148,59,583.2148,69,587.2148,65,583.2148" style="stroke:#181818;stroke-width:1.0;"/><line style="stroke:#181818;stroke-width:1.0;stroke-dasharray:2.0,2.0;" x1="63" x2="1174" y1="583.2148" y2="583.2148"/><polygon fill="#181818" points="1335.5,608.5254,1345.5,612.5254,1335.5,616.5254,1339.5,612.5254" style="stroke:#181818;stroke-width:1.0;"/><line style="stroke:#181818;stroke-width:1.0;" x1="58" x2="1341.5" y1="612.5254" y2="612.5254"/><text fill="#000000" font-family="sans-serif" font-size="13" lengthAdjust="spacing" textLength="191" x="65" y="607.7832">Set Topic Handlers (Subscribe)</text><polygon fill="#181818" points="69,622.5254,59,626.5254,69,630.5254,65,626.5254" style="stroke:#181818;stroke-width:1.0;"/><line style="stroke:#181818;stroke-width:1.0;stroke-dasharray:2.0,2.0;" x1="63" x2="1346.5" y1="626.5254" y2="626.5254"/><line style="stroke:#181818;stroke-width:1.0;" x1="58" x2="100" y1="671.1465" y2="671.1465"/><line style="stroke:#181818;stroke-width:1.0;" x1="100" x2="100" y1="671.1465" y2="684.1465"/><line style="stroke:#181818;stroke-width:1.0;" x1="59" x2="100" y1="684.1465" y2="684.1465"/><polygon fill="#181818" points="69,680.1465,59,684.1465,69,688.1465,65,684.1465" style="stroke:#181818;stroke-width:1.0;"/><text fill="#000000" font-family="sans-serif" font-size="13" lengthAdjust="spacing" textLength="246" x="65" y="651.0938">Start blockchain and validator listeners</text><text fill="#000000" font-family="sans-serif" font-size="13" lengthAdjust="spacing" textLength="77" x="69" y="666.4043">(Goroutines)</text><line style="stroke:#181818;stroke-width:1.0;" x1="58" x2="100" y1="733.7676" y2="733.7676"/><line style="stroke:#181818;stroke-width:1.0;" x1="100" x2="100" y1="733.7676" y2="746.7676"/><line style="stroke:#181818;stroke-width:1.0;" x1="53" x2="100" y1="746.7676" y2="746.7676"/><polygon fill="#181818" points="63,742.7676,53,746.7676,63,750.7676,59,746.7676" style="stroke:#181818;stroke-width:1.0;"/><text fill="#000000" font-family="sans-serif" font-size="13" lengthAdjust="spacing" textLength="115" x="65" y="713.7148">Starts HTTP server</text><text fill="#000000" font-family="sans-serif" font-size="13" lengthAdjust="spacing" textLength="70" x="69" y="729.0254">(Goroutine)</text><text fill="#888888" font-family="sans-serif" font-size="10" lengthAdjust="spacing" textLength="150" x="0" y="831.9238">Last Modified On: 6-Mar-2024</text><!--SRC=[bLJ1ZjCm4BtxAqOze5IY4geGXnwGe4AxY-XIaOhJNXnxickjrmwsqnL_pyH9ciHf2vpQZD-RlETvaugxe8Igk0cmsA_taACxebi0zq2FxHEh4jIzbTX3clzCyi0BxX4MdxKLp-A9AmDRhT24Y1kgRJ4bm4-k5TMKdTE6enctEx9kJ3eLE_X4_1VnP26xFHnwfyl8QGgTrryrrjHwNnTvNK3-smTyQRt6Id- -jSQW210iv87K2TWZEX-HRI4-z_0S0nniHR1RRgJkaR7KLnWxtJYiFWxNlu5xVEtKSH7KaGSS3MV6QYQoWQr3mWqZwdvXDMxDBh-J57keAp984Zsy0ME3AfLeXqIp9F_wCdtBjVPmPrGuftd2IiFHQuTPbbWAJTpCswRXcVQUfOwT9LrxIvAsK_yqcYm1fdEuEeQOrqzIElGUIcTVG5XJgaScyLy2CPq9fTFzVIZ3HaGD58IuEXqWsob9cNtb3j_23rjJq9Pie5oxiB6tHaaVKCY-MXfqjtTnCQZdX3hQAp9pVW7P27HDncJpeiLaFo4Z7LuuLU2IJT3_vQuOCanqE9vYeHLzMKpJxi50TcCTtQ8oc7fE6tPXy2rWGbrUY8F6Ca1fRI32D-u3xAoaJKO9tyq6FgnstAtMxzRl_m00]--></g></svg>
