<svg contentStyleType="text/css" height="938" preserveAspectRatio="none" viewBox="0 0 974 938" width="974" xmlns="http://www.w3.org/2000/svg" zoomAndPan="magnify"><g fill="#fff" stroke="#181818"><path d="m278 160.8203h10v58.6211h-10z"/><path d="m278 321.084h10v234.1289h-10z"/><path d="m278 655.8555h10v58.6211h-10z"/><path d="m278 758.7422h10v58.6211h-10z"/><path d="m610 190.1309h10v29.3105h-10z"/><path d="m730 685.166h10v29.3105h-10z"/><path d="m730 788.0527h10v29.3105h-10z"/></g><path d="m10 282.4629h947.5v272.75h-947.5z" fill="none" stroke="#000" stroke-width="1.5"/><path d="m20 336.084h502v212.1289h-502z" fill="none" stroke="#000" stroke-width="1.5"/><path d="m30 389.7051h482v46.6211h-482z" fill="none" stroke="#000" stroke-width="1.5"/><path d="m30 494.5918h482v46.6211h-482z" fill="none" stroke="#000" stroke-width="1.5"/><path d="m30 617.2344h927.5v208.1289h-927.5z" fill="none" stroke="#000" stroke-width="1.5"/><g stroke="#181818"><path d="m63 81.4883v760.875" stroke-dasharray="5 5" stroke-width=".5"/><path d="m282.5 81.4883v760.875" stroke-dasharray="5 5" stroke-width=".5"/><path d="m445 81.4883v760.875" stroke-dasharray="5 5" stroke-width=".5"/><path d="m614.5 81.4883v760.875" stroke-dasharray="5 5" stroke-width=".5"/><path d="m734.5 81.4883v760.875" stroke-dasharray="5 5" stroke-width=".5"/><path d="m874.5 81.4883v760.875" stroke-dasharray="5 5" stroke-width=".5"/></g><text font-family="sans-serif" font-size="14" lengthAdjust="spacing" textLength="40" x="40" y="78.5352">Client</text><ellipse cx="63" cy="13.5" fill="#e2e2f0" rx="8" ry="8" stroke="#181818" stroke-width=".5"/><path d="m63 21.5v27m-13-19h26m-13 19-13 15m13-15 13 15" fill="none" stroke="#181818" stroke-width=".5"/><text font-family="sans-serif" font-size="14" lengthAdjust="spacing" textLength="40" x="40" y="854.8984">Client</text><ellipse cx="63" cy="866.3516" fill="#e2e2f0" rx="8" ry="8" stroke="#181818" stroke-width=".5"/><path d="m63 874.3516v27m-13-19h26m-13 19-13 15m13-15 13 15" fill="none" stroke="#181818" stroke-width=".5"/><text font-family="sans-serif" font-size="14" lengthAdjust="spacing" textLength="43" x="258.5" y="78.5352">Server</text><ellipse cx="283" cy="49" fill="#e2e2f0" rx="12" ry="12" stroke="#181818" stroke-width=".5"/><path d="m279 37 6-5-2 5 2 5z" fill="#181818" stroke="#181818"/><text font-family="sans-serif" font-size="14" lengthAdjust="spacing" textLength="43" x="258.5" y="854.8984">Server</text><ellipse cx="283" cy="873.8516" fill="#e2e2f0" rx="12" ry="12" stroke="#181818" stroke-width=".5"/><path d="m279 861.8516 6-5-2 5 2 5z" fill="#181818" stroke="#181818"/><text font-family="sans-serif" font-size="14" lengthAdjust="spacing" textLength="108" x="388" y="78.5352">Client Channels</text><path d="m427 29c0-10 18-10 18-10s18 0 18 10v26c0 10-18 10-18 10s-18 0-18-10z" fill="#e2e2f0" stroke="#181818" stroke-width="1.5"/><path d="m427 29c0 10 18 10 18 10s18 0 18-10" fill="none" stroke="#181818" stroke-width="1.5"/><text font-family="sans-serif" font-size="14" lengthAdjust="spacing" textLength="108" x="388" y="854.8984">Client Channels</text><path d="m427 867.8516c0-10 18-10 18-10s18 0 18 10v26c0 10-18 10-18 10s-18 0-18-10z" fill="#e2e2f0" stroke="#181818" stroke-width="1.5"/><path d="m427 867.8516c0 10 18 10 18 10s18 0 18-10" fill="none" stroke="#181818" stroke-width="1.5"/><path d="m566.5 55h97c5 0 5 13.2441 5 13.2441s0 13.2442-5 13.2442h-97c-5 0-5-13.2442-5-13.2442s0-13.2441 5-13.2441" fill="#e2e2f0" stroke="#181818" stroke-width=".5"/><path d="m663.5 55c-5 0-5 13.2441-5 13.2441 0 13.2442 5 13.2442 5 13.2442" fill="none" stroke="#181818" stroke-width=".5"/><text font-family="sans-serif" font-size="14" lengthAdjust="spacing" textLength="87" x="566.5" y="73.5352">newClientCh</text><path d="m566.5 841.3633h97c5 0 5 13.2441 5 13.2441s0 13.2442-5 13.2442h-97c-5 0-5-13.2442-5-13.2442s0-13.2441 5-13.2441" fill="#e2e2f0" stroke="#181818" stroke-width=".5"/><path d="m663.5 841.3633c-5 0-5 13.2441-5 13.2441 0 13.2442 5 13.2442 5 13.2442" fill="none" stroke="#181818" stroke-width=".5"/><text font-family="sans-serif" font-size="14" lengthAdjust="spacing" textLength="87" x="566.5" y="859.8984">newClientCh</text><path d="m683.5 55h103c5 0 5 13.2441 5 13.2441s0 13.2442-5 13.2442h-103c-5 0-5-13.2442-5-13.2442s0-13.2441 5-13.2441" fill="#e2e2f0" stroke="#181818" stroke-width=".5"/><path d="m786.5 55c-5 0-5 13.2441-5 13.2441 0 13.2442 5 13.2442 5 13.2442" fill="none" stroke="#181818" stroke-width=".5"/><text font-family="sans-serif" font-size="14" lengthAdjust="spacing" textLength="93" x="683.5" y="73.5352">deadClientCh</text><path d="m683.5 841.3633h103c5 0 5 13.2441 5 13.2441s0 13.2442-5 13.2442h-103c-5 0-5-13.2442-5-13.2442s0-13.2441 5-13.2441" fill="#e2e2f0" stroke="#181818" stroke-width=".5"/><path d="m786.5 841.3633c-5 0-5 13.2441-5 13.2441 0 13.2442 5 13.2442 5 13.2442" fill="none" stroke="#181818" stroke-width=".5"/><text font-family="sans-serif" font-size="14" lengthAdjust="spacing" textLength="93" x="683.5" y="859.8984">deadClientCh</text><text font-family="sans-serif" font-size="14" lengthAdjust="spacing" textLength="140" x="801.5" y="78.5352">Notification Channel</text><ellipse cx="874.5" cy="49" fill="#e2e2f0" rx="12" ry="12" stroke="#181818" stroke-width=".5"/><path d="m870.5 37 6-5-2 5 2 5z" fill="#181818" stroke="#181818"/><text font-family="sans-serif" font-size="14" lengthAdjust="spacing" textLength="140" x="801.5" y="854.8984">Notification Channel</text><g stroke="#181818"><ellipse cx="874.5" cy="873.8516" fill="#e2e2f0" rx="12" ry="12" stroke-width=".5"/><path d="m870.5 861.8516 6-5-2 5 2 5z" fill="#181818"/><g fill="#fff"><path d="m278 160.8203h10v58.6211h-10z"/><path d="m278 321.084h10v234.1289h-10z"/><path d="m278 655.8555h10v58.6211h-10z"/><path d="m278 758.7422h10v58.6211h-10z"/><path d="m610 190.1309h10v29.3105h-10z"/><path d="m730 685.166h10v29.3105h-10z"/><path d="m730 788.0527h10v29.3105h-10z"/></g></g><path d="m0 114.499h967.5v3h-967.5z" fill="#eee" stroke="#eee"/><path d="m0 114.499h967.5" stroke="#000"/><path d="m0 117.499h967.5" stroke="#000"/><path d="m428.75 101.4883h110v28.0215h-110z" fill="#eee" stroke="#000" stroke-width="2"/><text font-family="sans-serif" font-size="17" font-weight="bold" lengthAdjust="spacing" textLength="96" x="434.75" y="121.9238">New Client</text><path d="m266 156.8203 10 4-10 4 4-4z" fill="#181818" stroke="#181818"/><path d="m63 160.8203h209" stroke="#181818"/><text font-family="sans-serif" font-size="13" lengthAdjust="spacing" textLength="196" x="70" y="156.0781">Request WebSocket connection</text><path d="m598 186.1309 10 4-10 4 4-4z" fill="#181818" stroke="#181818"/><path d="m288 190.1309h316" stroke="#181818"/><text font-family="sans-serif" font-size="13" lengthAdjust="spacing" textLength="93" x="295" y="185.3887">Add new client</text><path d="m456 215.4414-10 4 10 4-4-4z" fill="#181818" stroke="#181818"/><path d="m450 219.4414h164" stroke="#181818"/><text font-family="sans-serif" font-size="13" lengthAdjust="spacing" textLength="141" x="462" y="214.6992">Add to client channels</text><path d="m0 250.4521h967.5v3h-967.5z" fill="#eee" stroke="#eee"/><path d="m0 250.4521h967.5" stroke="#000"/><path d="m0 253.4521h967.5" stroke="#000"/><path d="m402.75 237.4414h162v28.0215h-162z" fill="#eee" stroke="#000" stroke-width="2"/><text font-family="sans-serif" font-size="17" font-weight="bold" lengthAdjust="spacing" textLength="148" x="408.75" y="257.877">New Notification</text><path d="m10 282.4629h74v7.3105l-10 10h-64z" fill="#eee" stroke="#000" stroke-width="1.5"/><path d="m10 282.4629h947.5v272.75h-947.5z" fill="none" stroke="#000" stroke-width="1.5"/><text font-family="sans-serif" font-size="13" font-weight="bold" lengthAdjust="spacing" textLength="29" x="25" y="296.0313">loop</text><text font-family="sans-serif" font-size="11" font-weight="bold" lengthAdjust="spacing" textLength="158" x="99" y="295.0977">[WebSocket communication]</text><path d="m299 317.084-10 4 10 4-4-4z" fill="#181818" stroke="#181818"/><path d="m293 321.084h580.5" stroke="#181818"/><text font-family="sans-serif" font-size="13" lengthAdjust="spacing" textLength="150" x="305" y="316.3418">Receive WebSocket data</text><path d="m20 336.084h62v7.3105l-10 10h-52z" fill="#eee" stroke="#000" stroke-width="1.5"/><path d="m20 336.084h502v212.1289h-502z" fill="none" stroke="#000" stroke-width="1.5"/><text font-family="sans-serif" font-size="13" font-weight="bold" lengthAdjust="spacing" textLength="17" x="35" y="349.6523">alt</text><text font-family="sans-serif" font-size="11" font-weight="bold" lengthAdjust="spacing" textLength="152" x="97" y="348.7188">[Data is a new notification]</text><path d="m433 370.7051 10 4-10 4 4-4z" fill="#181818" stroke="#181818"/><path d="m288 374.7051h151" stroke="#181818"/><text font-family="sans-serif" font-size="13" lengthAdjust="spacing" textLength="133" x="295" y="369.9629">Dispatch notification</text><path d="m30 389.7051h74v7.3105l-10 10h-64z" fill="#eee" stroke="#000" stroke-width="1.5"/><path d="m30 389.7051h482v46.6211h-482z" fill="none" stroke="#000" stroke-width="1.5"/><text font-family="sans-serif" font-size="13" font-weight="bold" lengthAdjust="spacing" textLength="29" x="45" y="403.2734">loop</text><text font-family="sans-serif" font-size="11" font-weight="bold" lengthAdjust="spacing" textLength="116" x="119" y="402.3398">[Each client channel]</text><path d="m74 424.3262-10 4 10 4-4-4z" fill="#181818" stroke="#181818"/><path d="m68 428.3262h376" stroke="#181818" stroke-dasharray="2 2"/><text font-family="sans-serif" font-size="13" lengthAdjust="spacing" textLength="107" x="80" y="423.584">Send notification</text><path d="m20 444.3262h502" stroke="#000" stroke-dasharray="2 2"/><text font-family="sans-serif" font-size="11" font-weight="bold" lengthAdjust="spacing" textLength="86" x="25" y="454.9609">[Data is a ping]</text><path d="m433 475.5918 10 4-10 4 4-4z" fill="#181818" stroke="#181818"/><path d="m288 479.5918h151" stroke="#181818"/><text font-family="sans-serif" font-size="13" lengthAdjust="spacing" textLength="88" x="295" y="474.8496">Dispatch ping</text><path d="m30 494.5918h74v7.3105l-10 10h-64z" fill="#eee" stroke="#000" stroke-width="1.5"/><path d="m30 494.5918h482v46.6211h-482z" fill="none" stroke="#000" stroke-width="1.5"/><text font-family="sans-serif" font-size="13" font-weight="bold" lengthAdjust="spacing" textLength="29" x="45" y="508.1602">loop</text><text font-family="sans-serif" font-size="11" font-weight="bold" lengthAdjust="spacing" textLength="116" x="119" y="507.2266">[Each client channel]</text><path d="m74 529.2129-10 4 10 4-4-4z" fill="#181818" stroke="#181818"/><path d="m68 533.2129h376" stroke="#181818" stroke-dasharray="2 2"/><text font-family="sans-serif" font-size="13" lengthAdjust="spacing" textLength="62" x="80" y="528.4707">Send ping</text><path d="m0 585.2236h967.5v3h-967.5z" fill="#eee" stroke="#eee"/><path d="m0 585.2236h967.5" stroke="#000"/><path d="m0 588.2236h967.5" stroke="#000"/><path d="m454.25 572.2129h59v28.0215h-59z" fill="#eee" stroke="#000" stroke-width="2"/><text font-family="sans-serif" font-size="17" font-weight="bold" lengthAdjust="spacing" textLength="45" x="460.25" y="592.6484">Error</text><path d="m30 617.2344h62v7.3105l-10 10h-52z" fill="#eee" stroke="#000" stroke-width="1.5"/><path d="m30 617.2344h927.5v208.1289h-927.5z" fill="none" stroke="#000" stroke-width="1.5"/><text font-family="sans-serif" font-size="13" font-weight="bold" lengthAdjust="spacing" textLength="17" x="45" y="630.8027">alt</text><text font-family="sans-serif" font-size="11" font-weight="bold" lengthAdjust="spacing" textLength="100" x="107" y="629.8691">[WebSocket Error]</text><path d="m299 651.8555-10 4 10 4-4-4z" fill="#181818" stroke="#181818"/><path d="m293 655.8555h580.5" stroke="#181818"/><text font-family="sans-serif" font-size="13" lengthAdjust="spacing" textLength="75" x="305" y="651.1133">Report error</text><path d="m718 681.166 10 4-10 4 4-4z" fill="#181818" stroke="#181818"/><path d="m288 685.166h436" stroke="#181818"/><text font-family="sans-serif" font-size="13" lengthAdjust="spacing" textLength="122" x="295" y="680.4238">Add to dead clients</text><path d="m456 710.4766-10 4 10 4-4-4z" fill="#181818" stroke="#181818"/><path d="m450 714.4766h284" stroke="#181818"/><text font-family="sans-serif" font-size="13" lengthAdjust="spacing" textLength="182" x="462" y="709.7344">Remove from client channels</text><path d="m30 723.4766h927.5" stroke="#000" stroke-dasharray="2 2"/><text font-family="sans-serif" font-size="11" font-weight="bold" lengthAdjust="spacing" textLength="113" x="35" y="734.1113">[Client Disconnects]</text><path d="m266 754.7422 10 4-10 4 4-4z" fill="#181818" stroke="#181818"/><path d="m63 758.7422h209" stroke="#181818"/><text font-family="sans-serif" font-size="13" lengthAdjust="spacing" textLength="109" x="70" y="754">Close connection</text><path d="m718 784.0527 10 4-10 4 4-4z" fill="#181818" stroke="#181818"/><path d="m288 788.0527h436" stroke="#181818"/><text font-family="sans-serif" font-size="13" lengthAdjust="spacing" textLength="122" x="295" y="783.3105">Add to dead clients</text><path d="m456 813.3633-10 4 10 4-4-4z" fill="#181818" stroke="#181818"/><path d="m450 817.3633h284" stroke="#181818"/><text font-family="sans-serif" font-size="13" lengthAdjust="spacing" textLength="182" x="462" y="812.6211">Remove from client channels</text><text fill="#888" font-family="sans-serif" font-size="10" lengthAdjust="spacing" textLength="149" y="928.5195">Last Modified On: 8-Dec-2023</text></svg>
