<?xml version="1.0" encoding="us-ascii" standalone="no"?><svg xmlns="http://www.w3.org/2000/svg" xmlns:xlink="http://www.w3.org/1999/xlink" contentStyleType="text/css" height="923px" preserveAspectRatio="none" style="width:974px;height:923px;background:#FFFFFF;" version="1.1" viewBox="0 0 974 923" width="974px" zoomAndPan="magnify"><defs/><g><rect fill="#FFFFFF" height="58.6211" style="stroke:#181818;stroke-width:1.0;" width="10" x="278" y="160.8203"/><rect fill="#FFFFFF" height="234.1289" style="stroke:#181818;stroke-width:1.0;" width="10" x="278" y="321.084"/><rect fill="#FFFFFF" height="58.6211" style="stroke:#181818;stroke-width:1.0;" width="10" x="278" y="655.8555"/><rect fill="#FFFFFF" height="58.6211" style="stroke:#181818;stroke-width:1.0;" width="10" x="278" y="758.7422"/><rect fill="#FFFFFF" height="29.3105" style="stroke:#181818;stroke-width:1.0;" width="10" x="610" y="190.1309"/><rect fill="#FFFFFF" height="29.3105" style="stroke:#181818;stroke-width:1.0;" width="10" x="730" y="685.166"/><rect fill="#FFFFFF" height="29.3105" style="stroke:#181818;stroke-width:1.0;" width="10" x="730" y="788.0527"/><rect fill="none" height="272.75" style="stroke:#000000;stroke-width:1.5;" width="947.5" x="10" y="282.4629"/><rect fill="none" height="212.1289" style="stroke:#000000;stroke-width:1.5;" width="502" x="20" y="336.084"/><rect fill="none" height="46.6211" style="stroke:#000000;stroke-width:1.5;" width="482" x="30" y="389.7051"/><rect fill="none" height="46.6211" style="stroke:#000000;stroke-width:1.5;" width="482" x="30" y="494.5918"/><rect fill="none" height="208.1289" style="stroke:#000000;stroke-width:1.5;" width="927.5" x="30" y="617.2344"/><line style="stroke:#181818;stroke-width:0.5;stroke-dasharray:5.0,5.0;" x1="63" x2="63" y1="81.4883" y2="842.3633"/><line style="stroke:#181818;stroke-width:0.5;stroke-dasharray:5.0,5.0;" x1="282.5" x2="282.5" y1="81.4883" y2="842.3633"/><line style="stroke:#181818;stroke-width:0.5;stroke-dasharray:5.0,5.0;" x1="445" x2="445" y1="81.4883" y2="842.3633"/><line style="stroke:#181818;stroke-width:0.5;stroke-dasharray:5.0,5.0;" x1="614.5" x2="614.5" y1="81.4883" y2="842.3633"/><line style="stroke:#181818;stroke-width:0.5;stroke-dasharray:5.0,5.0;" x1="734.5" x2="734.5" y1="81.4883" y2="842.3633"/><line style="stroke:#181818;stroke-width:0.5;stroke-dasharray:5.0,5.0;" x1="874.5" x2="874.5" y1="81.4883" y2="842.3633"/><text fill="#000000" font-family="sans-serif" font-size="14" lengthAdjust="spacing" textLength="40" x="40" y="78.5352">Client</text><ellipse cx="63" cy="13.5" fill="#E2E2F0" rx="8" ry="8" style="stroke:#181818;stroke-width:0.5;"/><path d="M63,21.5 L63,48.5 M50,29.5 L76,29.5 M63,48.5 L50,63.5 M63,48.5 L76,63.5 " fill="none" style="stroke:#181818;stroke-width:0.5;"/><text fill="#000000" font-family="sans-serif" font-size="14" lengthAdjust="spacing" textLength="40" x="40" y="854.8984">Client</text><ellipse cx="63" cy="866.3516" fill="#E2E2F0" rx="8" ry="8" style="stroke:#181818;stroke-width:0.5;"/><path d="M63,874.3516 L63,901.3516 M50,882.3516 L76,882.3516 M63,901.3516 L50,916.3516 M63,901.3516 L76,916.3516 " fill="none" style="stroke:#181818;stroke-width:0.5;"/><text fill="#000000" font-family="sans-serif" font-size="14" lengthAdjust="spacing" textLength="43" x="258.5" y="78.5352">Server</text><ellipse cx="283" cy="49" fill="#E2E2F0" rx="12" ry="12" style="stroke:#181818;stroke-width:0.5;"/><polygon fill="#181818" points="279,37,285,32,283,37,285,42,279,37" style="stroke:#181818;stroke-width:1.0;"/><text fill="#000000" font-family="sans-serif" font-size="14" lengthAdjust="spacing" textLength="43" x="258.5" y="854.8984">Server</text><ellipse cx="283" cy="873.8516" fill="#E2E2F0" rx="12" ry="12" style="stroke:#181818;stroke-width:0.5;"/><polygon fill="#181818" points="279,861.8516,285,856.8516,283,861.8516,285,866.8516,279,861.8516" style="stroke:#181818;stroke-width:1.0;"/><text fill="#000000" font-family="sans-serif" font-size="14" lengthAdjust="spacing" textLength="108" x="388" y="78.5352">Client Channels</text><path d="M427,29 C427,19 445,19 445,19 C445,19 463,19 463,29 L463,55 C463,65 445,65 445,65 C445,65 427,65 427,55 L427,29 " fill="#E2E2F0" style="stroke:#181818;stroke-width:1.5;"/><path d="M427,29 C427,39 445,39 445,39 C445,39 463,39 463,29 " fill="none" style="stroke:#181818;stroke-width:1.5;"/><text fill="#000000" font-family="sans-serif" font-size="14" lengthAdjust="spacing" textLength="108" x="388" y="854.8984">Client Channels</text><path d="M427,867.8516 C427,857.8516 445,857.8516 445,857.8516 C445,857.8516 463,857.8516 463,867.8516 L463,893.8516 C463,903.8516 445,903.8516 445,903.8516 C445,903.8516 427,903.8516 427,893.8516 L427,867.8516 " fill="#E2E2F0" style="stroke:#181818;stroke-width:1.5;"/><path d="M427,867.8516 C427,877.8516 445,877.8516 445,877.8516 C445,877.8516 463,877.8516 463,867.8516 " fill="none" style="stroke:#181818;stroke-width:1.5;"/><path d="M566.5,55 L663.5,55 C668.5,55 668.5,68.2441 668.5,68.2441 C668.5,68.2441 668.5,81.4883 663.5,81.4883 L566.5,81.4883 C561.5,81.4883 561.5,68.2441 561.5,68.2441 C561.5,68.2441 561.5,55 566.5,55 " fill="#E2E2F0" style="stroke:#181818;stroke-width:0.5;"/><path d="M663.5,55 C658.5,55 658.5,68.2441 658.5,68.2441 C658.5,81.4883 663.5,81.4883 663.5,81.4883 " fill="none" style="stroke:#181818;stroke-width:0.5;"/><text fill="#000000" font-family="sans-serif" font-size="14" lengthAdjust="spacing" textLength="87" x="566.5" y="73.5352">newClientCh</text><path d="M566.5,841.3633 L663.5,841.3633 C668.5,841.3633 668.5,854.6074 668.5,854.6074 C668.5,854.6074 668.5,867.8516 663.5,867.8516 L566.5,867.8516 C561.5,867.8516 561.5,854.6074 561.5,854.6074 C561.5,854.6074 561.5,841.3633 566.5,841.3633 " fill="#E2E2F0" style="stroke:#181818;stroke-width:0.5;"/><path d="M663.5,841.3633 C658.5,841.3633 658.5,854.6074 658.5,854.6074 C658.5,867.8516 663.5,867.8516 663.5,867.8516 " fill="none" style="stroke:#181818;stroke-width:0.5;"/><text fill="#000000" font-family="sans-serif" font-size="14" lengthAdjust="spacing" textLength="87" x="566.5" y="859.8984">newClientCh</text><path d="M683.5,55 L786.5,55 C791.5,55 791.5,68.2441 791.5,68.2441 C791.5,68.2441 791.5,81.4883 786.5,81.4883 L683.5,81.4883 C678.5,81.4883 678.5,68.2441 678.5,68.2441 C678.5,68.2441 678.5,55 683.5,55 " fill="#E2E2F0" style="stroke:#181818;stroke-width:0.5;"/><path d="M786.5,55 C781.5,55 781.5,68.2441 781.5,68.2441 C781.5,81.4883 786.5,81.4883 786.5,81.4883 " fill="none" style="stroke:#181818;stroke-width:0.5;"/><text fill="#000000" font-family="sans-serif" font-size="14" lengthAdjust="spacing" textLength="93" x="683.5" y="73.5352">deadClientCh</text><path d="M683.5,841.3633 L786.5,841.3633 C791.5,841.3633 791.5,854.6074 791.5,854.6074 C791.5,854.6074 791.5,867.8516 786.5,867.8516 L683.5,867.8516 C678.5,867.8516 678.5,854.6074 678.5,854.6074 C678.5,854.6074 678.5,841.3633 683.5,841.3633 " fill="#E2E2F0" style="stroke:#181818;stroke-width:0.5;"/><path d="M786.5,841.3633 C781.5,841.3633 781.5,854.6074 781.5,854.6074 C781.5,867.8516 786.5,867.8516 786.5,867.8516 " fill="none" style="stroke:#181818;stroke-width:0.5;"/><text fill="#000000" font-family="sans-serif" font-size="14" lengthAdjust="spacing" textLength="93" x="683.5" y="859.8984">deadClientCh</text><text fill="#000000" font-family="sans-serif" font-size="14" lengthAdjust="spacing" textLength="140" x="801.5" y="78.5352">Notification Channel</text><ellipse cx="874.5" cy="49" fill="#E2E2F0" rx="12" ry="12" style="stroke:#181818;stroke-width:0.5;"/><polygon fill="#181818" points="870.5,37,876.5,32,874.5,37,876.5,42,870.5,37" style="stroke:#181818;stroke-width:1.0;"/><text fill="#000000" font-family="sans-serif" font-size="14" lengthAdjust="spacing" textLength="140" x="801.5" y="854.8984">Notification Channel</text><ellipse cx="874.5" cy="873.8516" fill="#E2E2F0" rx="12" ry="12" style="stroke:#181818;stroke-width:0.5;"/><polygon fill="#181818" points="870.5,861.8516,876.5,856.8516,874.5,861.8516,876.5,866.8516,870.5,861.8516" style="stroke:#181818;stroke-width:1.0;"/><rect fill="#FFFFFF" height="58.6211" style="stroke:#181818;stroke-width:1.0;" width="10" x="278" y="160.8203"/><rect fill="#FFFFFF" height="234.1289" style="stroke:#181818;stroke-width:1.0;" width="10" x="278" y="321.084"/><rect fill="#FFFFFF" height="58.6211" style="stroke:#181818;stroke-width:1.0;" width="10" x="278" y="655.8555"/><rect fill="#FFFFFF" height="58.6211" style="stroke:#181818;stroke-width:1.0;" width="10" x="278" y="758.7422"/><rect fill="#FFFFFF" height="29.3105" style="stroke:#181818;stroke-width:1.0;" width="10" x="610" y="190.1309"/><rect fill="#FFFFFF" height="29.3105" style="stroke:#181818;stroke-width:1.0;" width="10" x="730" y="685.166"/><rect fill="#FFFFFF" height="29.3105" style="stroke:#181818;stroke-width:1.0;" width="10" x="730" y="788.0527"/><rect fill="#EEEEEE" height="3" style="stroke:#EEEEEE;stroke-width:1.0;" width="967.5" x="0" y="114.499"/><line style="stroke:#000000;stroke-width:1.0;" x1="0" x2="967.5" y1="114.499" y2="114.499"/><line style="stroke:#000000;stroke-width:1.0;" x1="0" x2="967.5" y1="117.499" y2="117.499"/><rect fill="#EEEEEE" height="28.0215" style="stroke:#000000;stroke-width:2.0;" width="110" x="428.75" y="101.4883"/><text fill="#000000" font-family="sans-serif" font-size="17" font-weight="bold" lengthAdjust="spacing" textLength="96" x="434.75" y="121.9238">New Client</text><polygon fill="#181818" points="266,156.8203,276,160.8203,266,164.8203,270,160.8203" style="stroke:#181818;stroke-width:1.0;"/><line style="stroke:#181818;stroke-width:1.0;" x1="63" x2="272" y1="160.8203" y2="160.8203"/><text fill="#000000" font-family="sans-serif" font-size="13" lengthAdjust="spacing" textLength="196" x="70" y="156.0781">Request WebSocket connection</text><polygon fill="#181818" points="598,186.1309,608,190.1309,598,194.1309,602,190.1309" style="stroke:#181818;stroke-width:1.0;"/><line style="stroke:#181818;stroke-width:1.0;" x1="288" x2="604" y1="190.1309" y2="190.1309"/><text fill="#000000" font-family="sans-serif" font-size="13" lengthAdjust="spacing" textLength="93" x="295" y="185.3887">Add new client</text><polygon fill="#181818" points="456,215.4414,446,219.4414,456,223.4414,452,219.4414" style="stroke:#181818;stroke-width:1.0;"/><line style="stroke:#181818;stroke-width:1.0;" x1="450" x2="614" y1="219.4414" y2="219.4414"/><text fill="#000000" font-family="sans-serif" font-size="13" lengthAdjust="spacing" textLength="141" x="462" y="214.6992">Add to client channels</text><rect fill="#EEEEEE" height="3" style="stroke:#EEEEEE;stroke-width:1.0;" width="967.5" x="0" y="250.4521"/><line style="stroke:#000000;stroke-width:1.0;" x1="0" x2="967.5" y1="250.4521" y2="250.4521"/><line style="stroke:#000000;stroke-width:1.0;" x1="0" x2="967.5" y1="253.4521" y2="253.4521"/><rect fill="#EEEEEE" height="28.0215" style="stroke:#000000;stroke-width:2.0;" width="162" x="402.75" y="237.4414"/><text fill="#000000" font-family="sans-serif" font-size="17" font-weight="bold" lengthAdjust="spacing" textLength="148" x="408.75" y="257.877">New Notification</text><path d="M10,282.4629 L84,282.4629 L84,289.7734 L74,299.7734 L10,299.7734 L10,282.4629 " fill="#EEEEEE" style="stroke:#000000;stroke-width:1.5;"/><rect fill="none" height="272.75" style="stroke:#000000;stroke-width:1.5;" width="947.5" x="10" y="282.4629"/><text fill="#000000" font-family="sans-serif" font-size="13" font-weight="bold" lengthAdjust="spacing" textLength="29" x="25" y="296.0313">loop</text><text fill="#000000" font-family="sans-serif" font-size="11" font-weight="bold" lengthAdjust="spacing" textLength="158" x="99" y="295.0977">[WebSocket communication]</text><polygon fill="#181818" points="299,317.084,289,321.084,299,325.084,295,321.084" style="stroke:#181818;stroke-width:1.0;"/><line style="stroke:#181818;stroke-width:1.0;" x1="293" x2="873.5" y1="321.084" y2="321.084"/><text fill="#000000" font-family="sans-serif" font-size="13" lengthAdjust="spacing" textLength="150" x="305" y="316.3418">Receive WebSocket data</text><path d="M20,336.084 L82,336.084 L82,343.3945 L72,353.3945 L20,353.3945 L20,336.084 " fill="#EEEEEE" style="stroke:#000000;stroke-width:1.5;"/><rect fill="none" height="212.1289" style="stroke:#000000;stroke-width:1.5;" width="502" x="20" y="336.084"/><text fill="#000000" font-family="sans-serif" font-size="13" font-weight="bold" lengthAdjust="spacing" textLength="17" x="35" y="349.6523">alt</text><text fill="#000000" font-family="sans-serif" font-size="11" font-weight="bold" lengthAdjust="spacing" textLength="152" x="97" y="348.7188">[Data is a new notification]</text><polygon fill="#181818" points="433,370.7051,443,374.7051,433,378.7051,437,374.7051" style="stroke:#181818;stroke-width:1.0;"/><line style="stroke:#181818;stroke-width:1.0;" x1="288" x2="439" y1="374.7051" y2="374.7051"/><text fill="#000000" font-family="sans-serif" font-size="13" lengthAdjust="spacing" textLength="133" x="295" y="369.9629">Dispatch notification</text><path d="M30,389.7051 L104,389.7051 L104,397.0156 L94,407.0156 L30,407.0156 L30,389.7051 " fill="#EEEEEE" style="stroke:#000000;stroke-width:1.5;"/><rect fill="none" height="46.6211" style="stroke:#000000;stroke-width:1.5;" width="482" x="30" y="389.7051"/><text fill="#000000" font-family="sans-serif" font-size="13" font-weight="bold" lengthAdjust="spacing" textLength="29" x="45" y="403.2734">loop</text><text fill="#000000" font-family="sans-serif" font-size="11" font-weight="bold" lengthAdjust="spacing" textLength="116" x="119" y="402.3398">[Each client channel]</text><polygon fill="#181818" points="74,424.3262,64,428.3262,74,432.3262,70,428.3262" style="stroke:#181818;stroke-width:1.0;"/><line style="stroke:#181818;stroke-width:1.0;stroke-dasharray:2.0,2.0;" x1="68" x2="444" y1="428.3262" y2="428.3262"/><text fill="#000000" font-family="sans-serif" font-size="13" lengthAdjust="spacing" textLength="107" x="80" y="423.584">Send notification</text><line style="stroke:#000000;stroke-width:1.0;stroke-dasharray:2.0,2.0;" x1="20" x2="522" y1="444.3262" y2="444.3262"/><text fill="#000000" font-family="sans-serif" font-size="11" font-weight="bold" lengthAdjust="spacing" textLength="86" x="25" y="454.9609">[Data is a ping]</text><polygon fill="#181818" points="433,475.5918,443,479.5918,433,483.5918,437,479.5918" style="stroke:#181818;stroke-width:1.0;"/><line style="stroke:#181818;stroke-width:1.0;" x1="288" x2="439" y1="479.5918" y2="479.5918"/><text fill="#000000" font-family="sans-serif" font-size="13" lengthAdjust="spacing" textLength="88" x="295" y="474.8496">Dispatch ping</text><path d="M30,494.5918 L104,494.5918 L104,501.9023 L94,511.9023 L30,511.9023 L30,494.5918 " fill="#EEEEEE" style="stroke:#000000;stroke-width:1.5;"/><rect fill="none" height="46.6211" style="stroke:#000000;stroke-width:1.5;" width="482" x="30" y="494.5918"/><text fill="#000000" font-family="sans-serif" font-size="13" font-weight="bold" lengthAdjust="spacing" textLength="29" x="45" y="508.1602">loop</text><text fill="#000000" font-family="sans-serif" font-size="11" font-weight="bold" lengthAdjust="spacing" textLength="116" x="119" y="507.2266">[Each client channel]</text><polygon fill="#181818" points="74,529.2129,64,533.2129,74,537.2129,70,533.2129" style="stroke:#181818;stroke-width:1.0;"/><line style="stroke:#181818;stroke-width:1.0;stroke-dasharray:2.0,2.0;" x1="68" x2="444" y1="533.2129" y2="533.2129"/><text fill="#000000" font-family="sans-serif" font-size="13" lengthAdjust="spacing" textLength="62" x="80" y="528.4707">Send ping</text><rect fill="#EEEEEE" height="3" style="stroke:#EEEEEE;stroke-width:1.0;" width="967.5" x="0" y="585.2236"/><line style="stroke:#000000;stroke-width:1.0;" x1="0" x2="967.5" y1="585.2236" y2="585.2236"/><line style="stroke:#000000;stroke-width:1.0;" x1="0" x2="967.5" y1="588.2236" y2="588.2236"/><rect fill="#EEEEEE" height="28.0215" style="stroke:#000000;stroke-width:2.0;" width="59" x="454.25" y="572.2129"/><text fill="#000000" font-family="sans-serif" font-size="17" font-weight="bold" lengthAdjust="spacing" textLength="45" x="460.25" y="592.6484">Error</text><path d="M30,617.2344 L92,617.2344 L92,624.5449 L82,634.5449 L30,634.5449 L30,617.2344 " fill="#EEEEEE" style="stroke:#000000;stroke-width:1.5;"/><rect fill="none" height="208.1289" style="stroke:#000000;stroke-width:1.5;" width="927.5" x="30" y="617.2344"/><text fill="#000000" font-family="sans-serif" font-size="13" font-weight="bold" lengthAdjust="spacing" textLength="17" x="45" y="630.8027">alt</text><text fill="#000000" font-family="sans-serif" font-size="11" font-weight="bold" lengthAdjust="spacing" textLength="100" x="107" y="629.8691">[WebSocket Error]</text><polygon fill="#181818" points="299,651.8555,289,655.8555,299,659.8555,295,655.8555" style="stroke:#181818;stroke-width:1.0;"/><line style="stroke:#181818;stroke-width:1.0;" x1="293" x2="873.5" y1="655.8555" y2="655.8555"/><text fill="#000000" font-family="sans-serif" font-size="13" lengthAdjust="spacing" textLength="75" x="305" y="651.1133">Report error</text><polygon fill="#181818" points="718,681.166,728,685.166,718,689.166,722,685.166" style="stroke:#181818;stroke-width:1.0;"/><line style="stroke:#181818;stroke-width:1.0;" x1="288" x2="724" y1="685.166" y2="685.166"/><text fill="#000000" font-family="sans-serif" font-size="13" lengthAdjust="spacing" textLength="122" x="295" y="680.4238">Add to dead clients</text><polygon fill="#181818" points="456,710.4766,446,714.4766,456,718.4766,452,714.4766" style="stroke:#181818;stroke-width:1.0;"/><line style="stroke:#181818;stroke-width:1.0;" x1="450" x2="734" y1="714.4766" y2="714.4766"/><text fill="#000000" font-family="sans-serif" font-size="13" lengthAdjust="spacing" textLength="182" x="462" y="709.7344">Remove from client channels</text><line style="stroke:#000000;stroke-width:1.0;stroke-dasharray:2.0,2.0;" x1="30" x2="957.5" y1="723.4766" y2="723.4766"/><text fill="#000000" font-family="sans-serif" font-size="11" font-weight="bold" lengthAdjust="spacing" textLength="113" x="35" y="734.1113">[Client Disconnects]</text><polygon fill="#181818" points="266,754.7422,276,758.7422,266,762.7422,270,758.7422" style="stroke:#181818;stroke-width:1.0;"/><line style="stroke:#181818;stroke-width:1.0;" x1="63" x2="272" y1="758.7422" y2="758.7422"/><text fill="#000000" font-family="sans-serif" font-size="13" lengthAdjust="spacing" textLength="109" x="70" y="754">Close connection</text><polygon fill="#181818" points="718,784.0527,728,788.0527,718,792.0527,722,788.0527" style="stroke:#181818;stroke-width:1.0;"/><line style="stroke:#181818;stroke-width:1.0;" x1="288" x2="724" y1="788.0527" y2="788.0527"/><text fill="#000000" font-family="sans-serif" font-size="13" lengthAdjust="spacing" textLength="122" x="295" y="783.3105">Add to dead clients</text><polygon fill="#181818" points="456,813.3633,446,817.3633,456,821.3633,452,817.3633" style="stroke:#181818;stroke-width:1.0;"/><line style="stroke:#181818;stroke-width:1.0;" x1="450" x2="734" y1="817.3633" y2="817.3633"/><text fill="#000000" font-family="sans-serif" font-size="13" lengthAdjust="spacing" textLength="182" x="462" y="812.6211">Remove from client channels</text><!--SRC=[tLGzSyCW3Dtv5Rhi-GEvS-zwJjOCoT2POANXQeCB9Ftx5Lysn1vorwqinjBJGtf2SE6qWRQNg1mJMZcZUzYSqJpGR81RY5lMSSSlt29i8XRQ6rSAUnj0-OTzt_5E68K_4TRUWlyu_sT8XxohCFl2C6Tor4vUfU1EQfMFYPI58zaPQvh6dvNgWQPXB6stRwcI7PoGKh0EFl1ork8B7T1f2eLdOfm-3-umryrOt7Y2eeeTl7STK9aWedHJN5bgiVVnMQKOx7IA1P7L8qtMQ0fppYeNMib3vVPQZrLXmt1NoS-0refijJO2vGCB2j_u4FcSGx3r3lO406c11pbKmHyWViqIpXBifHsv4xVrY537WPExrcW2-9N9OEkP0sv7PwbkdPCSOKyHM6GzIlNvMgOLyeyPLbnJPkcxRBZtXAOVZA5vfKvxwUSk1VDh3HwrSO0JVgsjimhbK4xNrezkgjhM7DKCUqzfg5KzuQ3febsD7XPpyAJ1WdL57z_JDEhKhpJGaMdv0hIz9dWnzVz827zHodTavPdy1G00]--></g></svg>
