<?xml version="1.0" encoding="us-ascii" standalone="no"?><svg xmlns="http://www.w3.org/2000/svg" xmlns:xlink="http://www.w3.org/1999/xlink" contentStyleType="text/css" height="409px" preserveAspectRatio="none" style="width:986px;height:409px;background:#FFFFFF;" version="1.1" viewBox="0 0 986 409" width="986px" zoomAndPan="magnify"><defs/><g><rect fill="#FFFFFF" height="273.4844" style="stroke:#181818;stroke-width:1.0;" width="10" x="53.5" y="75.7988"/><rect fill="#FFFFFF" height="34.3105" style="stroke:#181818;stroke-width:1.0;" width="10" x="58.5" y="118.1094"/><rect fill="#FFFFFF" height="50.6211" style="stroke:#181818;stroke-width:1.0;" width="10" x="58.5" y="282.6621"/><rect fill="#FFFFFF" height="29.3105" style="stroke:#181818;stroke-width:1.0;" width="10" x="260.5" y="253.3516"/><rect fill="#FFFFFF" height="71.6211" style="stroke:#181818;stroke-width:1.0;" width="10" x="689.5" y="181.7305"/><line style="stroke:#181818;stroke-width:0.5;stroke-dasharray:5.0,5.0;" x1="58" x2="58" y1="36.4883" y2="358.2832"/><line style="stroke:#181818;stroke-width:0.5;stroke-dasharray:5.0,5.0;" x1="265.5" x2="265.5" y1="36.4883" y2="358.2832"/><line style="stroke:#181818;stroke-width:0.5;stroke-dasharray:5.0,5.0;" x1="428.5" x2="428.5" y1="36.4883" y2="358.2832"/><line style="stroke:#181818;stroke-width:0.5;stroke-dasharray:5.0,5.0;" x1="694" x2="694" y1="36.4883" y2="358.2832"/><rect fill="#E2E2F0" height="30.4883" rx="2.5" ry="2.5" style="stroke:#181818;stroke-width:0.5;" width="107" x="5" y="5"/><text fill="#000000" font-family="sans-serif" font-size="14" lengthAdjust="spacing" textLength="93" x="12" y="25.5352">Node (Peer 1)</text><rect fill="#E2E2F0" height="30.4883" rx="2.5" ry="2.5" style="stroke:#181818;stroke-width:0.5;" width="107" x="5" y="357.2832"/><text fill="#000000" font-family="sans-serif" font-size="14" lengthAdjust="spacing" textLength="93" x="12" y="377.8184">Node (Peer 1)</text><path d="M220.5,10 L310.5,10 C315.5,10 315.5,23.2441 315.5,23.2441 C315.5,23.2441 315.5,36.4883 310.5,36.4883 L220.5,36.4883 C215.5,36.4883 215.5,23.2441 215.5,23.2441 C215.5,23.2441 215.5,10 220.5,10 " fill="#E2E2F0" style="stroke:#181818;stroke-width:0.5;"/><path d="M310.5,10 C305.5,10 305.5,23.2441 305.5,23.2441 C305.5,36.4883 310.5,36.4883 310.5,36.4883 " fill="none" style="stroke:#181818;stroke-width:0.5;"/><text fill="#000000" font-family="sans-serif" font-size="14" lengthAdjust="spacing" textLength="80" x="220.5" y="28.5352">LibP2P Host</text><path d="M220.5,357.2832 L310.5,357.2832 C315.5,357.2832 315.5,370.5273 315.5,370.5273 C315.5,370.5273 315.5,383.7715 310.5,383.7715 L220.5,383.7715 C215.5,383.7715 215.5,370.5273 215.5,370.5273 C215.5,370.5273 215.5,357.2832 220.5,357.2832 " fill="#E2E2F0" style="stroke:#181818;stroke-width:0.5;"/><path d="M310.5,357.2832 C305.5,357.2832 305.5,370.5273 305.5,370.5273 C305.5,383.7715 310.5,383.7715 310.5,383.7715 " fill="none" style="stroke:#181818;stroke-width:0.5;"/><text fill="#000000" font-family="sans-serif" font-size="14" lengthAdjust="spacing" textLength="80" x="220.5" y="375.8184">LibP2P Host</text><path d="M371.5,10 L485.5,10 C490.5,10 490.5,23.2441 490.5,23.2441 C490.5,23.2441 490.5,36.4883 485.5,36.4883 L371.5,36.4883 C366.5,36.4883 366.5,23.2441 366.5,23.2441 C366.5,23.2441 366.5,10 371.5,10 " fill="#E2E2F0" style="stroke:#181818;stroke-width:0.5;"/><path d="M485.5,10 C480.5,10 480.5,23.2441 480.5,23.2441 C480.5,36.4883 485.5,36.4883 485.5,36.4883 " fill="none" style="stroke:#181818;stroke-width:0.5;"/><text fill="#000000" font-family="sans-serif" font-size="14" lengthAdjust="spacing" textLength="104" x="371.5" y="28.5352">PubSub System</text><path d="M371.5,357.2832 L485.5,357.2832 C490.5,357.2832 490.5,370.5273 490.5,370.5273 C490.5,370.5273 490.5,383.7715 485.5,383.7715 L371.5,383.7715 C366.5,383.7715 366.5,370.5273 366.5,370.5273 C366.5,370.5273 366.5,357.2832 371.5,357.2832 " fill="#E2E2F0" style="stroke:#181818;stroke-width:0.5;"/><path d="M485.5,357.2832 C480.5,357.2832 480.5,370.5273 480.5,370.5273 C480.5,383.7715 485.5,383.7715 485.5,383.7715 " fill="none" style="stroke:#181818;stroke-width:0.5;"/><text fill="#000000" font-family="sans-serif" font-size="14" lengthAdjust="spacing" textLength="104" x="371.5" y="375.8184">PubSub System</text><rect fill="#E2E2F0" height="30.4883" rx="2.5" ry="2.5" style="stroke:#181818;stroke-width:0.5;" width="57" x="666" y="5"/><text fill="#000000" font-family="sans-serif" font-size="14" lengthAdjust="spacing" textLength="43" x="673" y="25.5352">Peer 2</text><rect fill="#E2E2F0" height="30.4883" rx="2.5" ry="2.5" style="stroke:#181818;stroke-width:0.5;" width="57" x="666" y="357.2832"/><text fill="#000000" font-family="sans-serif" font-size="14" lengthAdjust="spacing" textLength="43" x="673" y="377.8184">Peer 2</text><rect fill="#FFFFFF" height="273.4844" style="stroke:#181818;stroke-width:1.0;" width="10" x="53.5" y="75.7988"/><rect fill="#FFFFFF" height="34.3105" style="stroke:#181818;stroke-width:1.0;" width="10" x="58.5" y="118.1094"/><rect fill="#FFFFFF" height="50.6211" style="stroke:#181818;stroke-width:1.0;" width="10" x="58.5" y="282.6621"/><rect fill="#FFFFFF" height="29.3105" style="stroke:#181818;stroke-width:1.0;" width="10" x="260.5" y="253.3516"/><rect fill="#FFFFFF" height="71.6211" style="stroke:#181818;stroke-width:1.0;" width="10" x="689.5" y="181.7305"/><line style="stroke:#181818;stroke-width:1.0;" x1="58.5" x2="105.5" y1="62.7988" y2="62.7988"/><line style="stroke:#181818;stroke-width:1.0;" x1="105.5" x2="105.5" y1="62.7988" y2="75.7988"/><line style="stroke:#181818;stroke-width:1.0;" x1="64.5" x2="105.5" y1="75.7988" y2="75.7988"/><polygon fill="#181818" points="74.5,71.7988,64.5,75.7988,74.5,79.7988,70.5,75.7988" style="stroke:#181818;stroke-width:1.0;"/><text fill="#000000" font-family="sans-serif" font-size="13" lengthAdjust="spacing" textLength="37" x="70.5" y="58.0566">Start()</text><line style="stroke:#181818;stroke-width:1.0;" x1="63.5" x2="110.5" y1="105.1094" y2="105.1094"/><line style="stroke:#181818;stroke-width:1.0;" x1="110.5" x2="110.5" y1="105.1094" y2="118.1094"/><line style="stroke:#181818;stroke-width:1.0;" x1="69.5" x2="110.5" y1="118.1094" y2="118.1094"/><polygon fill="#181818" points="79.5,114.1094,69.5,118.1094,79.5,122.1094,75.5,118.1094" style="stroke:#181818;stroke-width:1.0;"/><text fill="#000000" font-family="sans-serif" font-size="13" lengthAdjust="spacing" textLength="183" x="75.5" y="100.3672">s.sendBestBlockMessage(ctx)</text><polygon fill="#181818" points="416.5,148.4199,426.5,152.4199,416.5,156.4199,420.5,152.4199" style="stroke:#181818;stroke-width:1.0;"/><line style="stroke:#181818;stroke-width:1.0;" x1="63.5" x2="422.5" y1="152.4199" y2="152.4199"/><text fill="#000000" font-family="sans-serif" font-size="13" lengthAdjust="spacing" textLength="336" x="70.5" y="147.6777">s.topics[bestBlockTopicName].Publish(ctx, msgBytes)</text><polygon fill="#181818" points="677.5,177.7305,687.5,181.7305,677.5,185.7305,681.5,181.7305" style="stroke:#181818;stroke-width:1.0;"/><line style="stroke:#181818;stroke-width:1.0;" x1="428.5" x2="683.5" y1="181.7305" y2="181.7305"/><text fill="#000000" font-family="sans-serif" font-size="13" lengthAdjust="spacing" textLength="176" x="435.5" y="176.9883">s.handleBestBlockTopic(ctx)</text><line style="stroke:#181818;stroke-width:1.0;" x1="699.5" x2="741.5" y1="211.041" y2="211.041"/><line style="stroke:#181818;stroke-width:1.0;" x1="741.5" x2="741.5" y1="211.041" y2="224.041"/><line style="stroke:#181818;stroke-width:1.0;" x1="700.5" x2="741.5" y1="224.041" y2="224.041"/><polygon fill="#181818" points="710.5,220.041,700.5,224.041,710.5,228.041,706.5,224.041" style="stroke:#181818;stroke-width:1.0;"/><text fill="#000000" font-family="sans-serif" font-size="13" lengthAdjust="spacing" textLength="273" x="706.5" y="206.2988">s.P2PNode.SendToPeer(ctx, peer, msgBytes)</text><polygon fill="#181818" points="281.5,249.3516,271.5,253.3516,281.5,257.3516,277.5,253.3516" style="stroke:#181818;stroke-width:1.0;"/><line style="stroke:#181818;stroke-width:1.0;" x1="275.5" x2="693.5" y1="253.3516" y2="253.3516"/><text fill="#000000" font-family="sans-serif" font-size="13" lengthAdjust="spacing" textLength="400" x="287.5" y="248.6094">s.host.NewStream(ctx, peer.ID, protocol.ID(s.bitcoinProtocolId))</text><polygon fill="#181818" points="79.5,278.6621,69.5,282.6621,79.5,286.6621,75.5,282.6621" style="stroke:#181818;stroke-width:1.0;"/><line style="stroke:#181818;stroke-width:1.0;" x1="73.5" x2="264.5" y1="282.6621" y2="282.6621"/><text fill="#000000" font-family="sans-serif" font-size="13" lengthAdjust="spacing" textLength="154" x="85.5" y="277.9199">s.streamHandler(stream)</text><line style="stroke:#181818;stroke-width:1.0;" x1="68.5" x2="110.5" y1="332.2832" y2="332.2832"/><line style="stroke:#181818;stroke-width:1.0;" x1="110.5" x2="110.5" y1="332.2832" y2="345.2832"/><line style="stroke:#181818;stroke-width:1.0;" x1="63.5" x2="110.5" y1="345.2832" y2="345.2832"/><polygon fill="#181818" points="73.5,341.2832,63.5,345.2832,73.5,349.2832,69.5,345.2832" style="stroke:#181818;stroke-width:1.0;"/><text fill="#000000" font-family="sans-serif" font-size="13" lengthAdjust="spacing" textLength="162" x="75.5" y="312.2305">Log the received message</text><text fill="#000000" font-family="sans-serif" font-size="13" lengthAdjust="spacing" textLength="67" x="75.5" y="327.541">(no action)</text><text fill="#888888" font-family="sans-serif" font-size="10" lengthAdjust="spacing" textLength="161" x="0" y="399.4395">Last Modified On: 6-March-2024</text><!--SRC=[XL8zRuCm4DtzAqwPG6fGWweE6JgW3ecKf4XaQpiOSmbMmQRuI9j_NsD3Mg9MdRYlz-wT7mrlIGhPS4Kms-a28KWHMrY4C-06-ig2lNVO8SmsCa_Z55RQa6lwVEocNPvrEMHdGrYxlg-mvkSAHnxxjWrZnjmAc3_uNKl8oCu78UE2v8aJ3XgknqnaK1K96aegBTwsQ0m_OY3eys-e5zHZIJTIcETyXE_xVCThV8tiK2LDsJFTG6sEoPdGXAp0ArOs76nv_IazRybLKM4oeRtID9pDtDUf6i7sCNlgABE7xNLVzY8Q6_sKSa5w0znUwqcqmu-CMkJrDonQFzgWrQI5hcmIc2YN9BHKwL1S5-7ak47U9HzCPeFv4mFSifKxkGryDk4QiVzOkT57e1AXHO7oX0NKtanuKO7IqAEr-is12Wy41wt9_bCRRWYskf07QHcUr1BkvrlUYd8UtyPtx0i0]--></g></svg>
