<?xml version="1.0" encoding="us-ascii" standalone="no"?><svg xmlns="http://www.w3.org/2000/svg" xmlns:xlink="http://www.w3.org/1999/xlink" contentStyleType="text/css" height="378px" preserveAspectRatio="none" style="width:1188px;height:378px;background:#FFFFFF;" version="1.1" viewBox="0 0 1188 378" width="1188px" zoomAndPan="magnify"><defs/><g><rect fill="#FFFFFF" height="258.1738" style="stroke:#181818;stroke-width:1.0;" width="10" x="53.5" y="75.7988"/><rect fill="#FFFFFF" height="34.3105" style="stroke:#181818;stroke-width:1.0;" width="10" x="58.5" y="118.1094"/><rect fill="#FFFFFF" height="29.3105" style="stroke:#181818;stroke-width:1.0;" width="10" x="483.5" y="253.3516"/><rect fill="#FFFFFF" height="71.6211" style="stroke:#181818;stroke-width:1.0;" width="10" x="912.5" y="181.7305"/><line style="stroke:#181818;stroke-width:0.5;stroke-dasharray:5.0,5.0;" x1="58" x2="58" y1="36.4883" y2="342.9727"/><line style="stroke:#181818;stroke-width:0.5;stroke-dasharray:5.0,5.0;" x1="488.5" x2="488.5" y1="36.4883" y2="342.9727"/><line style="stroke:#181818;stroke-width:0.5;stroke-dasharray:5.0,5.0;" x1="610.5" x2="610.5" y1="36.4883" y2="342.9727"/><line style="stroke:#181818;stroke-width:0.5;stroke-dasharray:5.0,5.0;" x1="917" x2="917" y1="36.4883" y2="342.9727"/><rect fill="#E2E2F0" height="30.4883" rx="2.5" ry="2.5" style="stroke:#181818;stroke-width:0.5;" width="107" x="5" y="5"/><text fill="#000000" font-family="sans-serif" font-size="14" lengthAdjust="spacing" textLength="93" x="12" y="25.5352">Node (Peer 1)</text><rect fill="#E2E2F0" height="30.4883" rx="2.5" ry="2.5" style="stroke:#181818;stroke-width:0.5;" width="107" x="5" y="341.9727"/><text fill="#000000" font-family="sans-serif" font-size="14" lengthAdjust="spacing" textLength="93" x="12" y="362.5078">Node (Peer 1)</text><path d="M443.5,10 L533.5,10 C538.5,10 538.5,23.2441 538.5,23.2441 C538.5,23.2441 538.5,36.4883 533.5,36.4883 L443.5,36.4883 C438.5,36.4883 438.5,23.2441 438.5,23.2441 C438.5,23.2441 438.5,10 443.5,10 " fill="#E2E2F0" style="stroke:#181818;stroke-width:0.5;"/><path d="M533.5,10 C528.5,10 528.5,23.2441 528.5,23.2441 C528.5,36.4883 533.5,36.4883 533.5,36.4883 " fill="none" style="stroke:#181818;stroke-width:0.5;"/><text fill="#000000" font-family="sans-serif" font-size="14" lengthAdjust="spacing" textLength="80" x="443.5" y="28.5352">LibP2P Host</text><path d="M443.5,341.9727 L533.5,341.9727 C538.5,341.9727 538.5,355.2168 538.5,355.2168 C538.5,355.2168 538.5,368.4609 533.5,368.4609 L443.5,368.4609 C438.5,368.4609 438.5,355.2168 438.5,355.2168 C438.5,355.2168 438.5,341.9727 443.5,341.9727 " fill="#E2E2F0" style="stroke:#181818;stroke-width:0.5;"/><path d="M533.5,341.9727 C528.5,341.9727 528.5,355.2168 528.5,355.2168 C528.5,368.4609 533.5,368.4609 533.5,368.4609 " fill="none" style="stroke:#181818;stroke-width:0.5;"/><text fill="#000000" font-family="sans-serif" font-size="14" lengthAdjust="spacing" textLength="80" x="443.5" y="360.5078">LibP2P Host</text><path d="M553.5,10 L667.5,10 C672.5,10 672.5,23.2441 672.5,23.2441 C672.5,23.2441 672.5,36.4883 667.5,36.4883 L553.5,36.4883 C548.5,36.4883 548.5,23.2441 548.5,23.2441 C548.5,23.2441 548.5,10 553.5,10 " fill="#E2E2F0" style="stroke:#181818;stroke-width:0.5;"/><path d="M667.5,10 C662.5,10 662.5,23.2441 662.5,23.2441 C662.5,36.4883 667.5,36.4883 667.5,36.4883 " fill="none" style="stroke:#181818;stroke-width:0.5;"/><text fill="#000000" font-family="sans-serif" font-size="14" lengthAdjust="spacing" textLength="104" x="553.5" y="28.5352">PubSub System</text><path d="M553.5,341.9727 L667.5,341.9727 C672.5,341.9727 672.5,355.2168 672.5,355.2168 C672.5,355.2168 672.5,368.4609 667.5,368.4609 L553.5,368.4609 C548.5,368.4609 548.5,355.2168 548.5,355.2168 C548.5,355.2168 548.5,341.9727 553.5,341.9727 " fill="#E2E2F0" style="stroke:#181818;stroke-width:0.5;"/><path d="M667.5,341.9727 C662.5,341.9727 662.5,355.2168 662.5,355.2168 C662.5,368.4609 667.5,368.4609 667.5,368.4609 " fill="none" style="stroke:#181818;stroke-width:0.5;"/><text fill="#000000" font-family="sans-serif" font-size="14" lengthAdjust="spacing" textLength="104" x="553.5" y="360.5078">PubSub System</text><rect fill="#E2E2F0" height="30.4883" rx="2.5" ry="2.5" style="stroke:#181818;stroke-width:0.5;" width="57" x="889" y="5"/><text fill="#000000" font-family="sans-serif" font-size="14" lengthAdjust="spacing" textLength="43" x="896" y="25.5352">Peer 2</text><rect fill="#E2E2F0" height="30.4883" rx="2.5" ry="2.5" style="stroke:#181818;stroke-width:0.5;" width="57" x="889" y="341.9727"/><text fill="#000000" font-family="sans-serif" font-size="14" lengthAdjust="spacing" textLength="43" x="896" y="362.5078">Peer 2</text><rect fill="#FFFFFF" height="258.1738" style="stroke:#181818;stroke-width:1.0;" width="10" x="53.5" y="75.7988"/><rect fill="#FFFFFF" height="34.3105" style="stroke:#181818;stroke-width:1.0;" width="10" x="58.5" y="118.1094"/><rect fill="#FFFFFF" height="29.3105" style="stroke:#181818;stroke-width:1.0;" width="10" x="483.5" y="253.3516"/><rect fill="#FFFFFF" height="71.6211" style="stroke:#181818;stroke-width:1.0;" width="10" x="912.5" y="181.7305"/><line style="stroke:#181818;stroke-width:1.0;" x1="58.5" x2="105.5" y1="62.7988" y2="62.7988"/><line style="stroke:#181818;stroke-width:1.0;" x1="105.5" x2="105.5" y1="62.7988" y2="75.7988"/><line style="stroke:#181818;stroke-width:1.0;" x1="64.5" x2="105.5" y1="75.7988" y2="75.7988"/><polygon fill="#181818" points="74.5,71.7988,64.5,75.7988,74.5,79.7988,70.5,75.7988" style="stroke:#181818;stroke-width:1.0;"/><text fill="#000000" font-family="sans-serif" font-size="13" lengthAdjust="spacing" textLength="37" x="70.5" y="58.0566">Start()</text><line style="stroke:#181818;stroke-width:1.0;" x1="63.5" x2="110.5" y1="105.1094" y2="105.1094"/><line style="stroke:#181818;stroke-width:1.0;" x1="110.5" x2="110.5" y1="105.1094" y2="118.1094"/><line style="stroke:#181818;stroke-width:1.0;" x1="69.5" x2="110.5" y1="118.1094" y2="118.1094"/><polygon fill="#181818" points="79.5,114.1094,69.5,118.1094,79.5,122.1094,75.5,118.1094" style="stroke:#181818;stroke-width:1.0;"/><text fill="#000000" font-family="sans-serif" font-size="13" lengthAdjust="spacing" textLength="183" x="75.5" y="100.3672">s.sendBestBlockMessage(ctx)</text><polygon fill="#181818" points="598.5,148.4199,608.5,152.4199,598.5,156.4199,602.5,152.4199" style="stroke:#181818;stroke-width:1.0;"/><line style="stroke:#181818;stroke-width:1.0;" x1="63.5" x2="604.5" y1="152.4199" y2="152.4199"/><text fill="#000000" font-family="sans-serif" font-size="13" lengthAdjust="spacing" textLength="336" x="70.5" y="147.6777">s.topics[bestBlockTopicName].Publish(ctx, msgBytes)</text><polygon fill="#181818" points="900.5,177.7305,910.5,181.7305,900.5,185.7305,904.5,181.7305" style="stroke:#181818;stroke-width:1.0;"/><line style="stroke:#181818;stroke-width:1.0;" x1="610.5" x2="906.5" y1="181.7305" y2="181.7305"/><text fill="#000000" font-family="sans-serif" font-size="13" lengthAdjust="spacing" textLength="176" x="617.5" y="176.9883">s.handleBestBlockTopic(ctx)</text><line style="stroke:#181818;stroke-width:1.0;" x1="922.5" x2="964.5" y1="211.041" y2="211.041"/><line style="stroke:#181818;stroke-width:1.0;" x1="964.5" x2="964.5" y1="211.041" y2="224.041"/><line style="stroke:#181818;stroke-width:1.0;" x1="923.5" x2="964.5" y1="224.041" y2="224.041"/><polygon fill="#181818" points="933.5,220.041,923.5,224.041,933.5,228.041,929.5,224.041" style="stroke:#181818;stroke-width:1.0;"/><text fill="#000000" font-family="sans-serif" font-size="13" lengthAdjust="spacing" textLength="252" x="929.5" y="206.2988">s.sendPeerMessage(ctx, peer, msgBytes)</text><polygon fill="#181818" points="504.5,249.3516,494.5,253.3516,504.5,257.3516,500.5,253.3516" style="stroke:#181818;stroke-width:1.0;"/><line style="stroke:#181818;stroke-width:1.0;" x1="498.5" x2="916.5" y1="253.3516" y2="253.3516"/><text fill="#000000" font-family="sans-serif" font-size="13" lengthAdjust="spacing" textLength="400" x="510.5" y="248.6094">s.host.NewStream(ctx, peer.ID, protocol.ID(s.bitcoinProtocolId))</text><polygon fill="#181818" points="74.5,278.6621,64.5,282.6621,74.5,286.6621,70.5,282.6621" style="stroke:#181818;stroke-width:1.0;"/><line style="stroke:#181818;stroke-width:1.0;" x1="68.5" x2="487.5" y1="282.6621" y2="282.6621"/><text fill="#000000" font-family="sans-serif" font-size="13" lengthAdjust="spacing" textLength="254" x="80.5" y="277.9199">s.handleBlockchainMessage(ctx, stream)</text><line style="stroke:#181818;stroke-width:1.0;" x1="63.5" x2="105.5" y1="311.9727" y2="311.9727"/><line style="stroke:#181818;stroke-width:1.0;" x1="105.5" x2="105.5" y1="311.9727" y2="324.9727"/><line style="stroke:#181818;stroke-width:1.0;" x1="64.5" x2="105.5" y1="324.9727" y2="324.9727"/><polygon fill="#181818" points="74.5,320.9727,64.5,324.9727,74.5,328.9727,70.5,324.9727" style="stroke:#181818;stroke-width:1.0;"/><text fill="#000000" font-family="sans-serif" font-size="13" lengthAdjust="spacing" textLength="406" x="70.5" y="307.2305">s.logger.Debugf("Received block topic message: %s", string(buf))</text><!--SRC=[TL7BJiCm4BpxArQHa1898hN77ZX4FL09geXmGnniPvjQ9778EeN-FNwrJOiuULypE-CT-6YKL0Fl3IHRNIEa9U88Yom1Jk0g2_OruOIGF2jHBajuqcHyC-IdRZc9QX9G7SbWv_kXmeRv2a- -36qRBXdpA-3XCUnQGMNiV9enBeqwS8DHm-qOvOHzNI2PejNoymM9U8EfD3__GuCWXpLwK9BUnGd-vl8jx_0ZjqEjehrZkeUEck9ea39MumqhYuOjRx3YUFUyhriihcYz9hY8YhwPVxsi4zevSidCp3qCjZ0NSeQ5x_TRxKNoBNvNPaJUNM3vPcs3KHijTMkJb7AXZDIgBsDnKsTNrgAsSnvFpEBfvzyVhJgRSizLVoMQl98hwaZrzuwjRXghTOrYQdPfyeeIrG5h48uQ_AMW2-GhkAF4iwk-ISMqi-hPBm00]--></g></svg>
