<?xml version="1.0" encoding="us-ascii" standalone="no"?><svg xmlns="http://www.w3.org/2000/svg" xmlns:xlink="http://www.w3.org/1999/xlink" contentStyleType="text/css" height="628px" preserveAspectRatio="none" style="width:688px;height:628px;background:#FFFFFF;" version="1.1" viewBox="0 0 688 628" width="688px" zoomAndPan="magnify"><defs/><g><rect fill="#FFFFFF" height="29.3105" style="stroke:#181818;stroke-width:1.0;" width="10" x="219" y="98.7988"/><rect fill="#FFFFFF" height="97.9316" style="stroke:#181818;stroke-width:1.0;" width="10" x="396" y="157.4199"/><rect fill="#FFFFFF" height="29.3105" style="stroke:#181818;stroke-width:1.0;" width="10" x="396" y="300.9727"/><rect fill="none" height="46.6211" style="stroke:#000000;stroke-width:1.5;" width="652.5" x="30" y="201.7305"/><rect fill="none" height="270.75" style="stroke:#000000;stroke-width:1.5;" width="638.5" x="10" y="262.3516"/><rect fill="none" height="180.8184" style="stroke:#000000;stroke-width:1.5;" width="618.5" x="20" y="345.2832"/><rect fill="none" height="90.8867" style="stroke:#000000;stroke-width:1.5;" width="598.5" x="30" y="428.2148"/><line style="stroke:#181818;stroke-width:0.5;stroke-dasharray:5.0,5.0;" x1="65" x2="65" y1="67.4883" y2="550.1016"/><line style="stroke:#181818;stroke-width:0.5;stroke-dasharray:5.0,5.0;" x1="223.5" x2="223.5" y1="67.4883" y2="550.1016"/><line style="stroke:#181818;stroke-width:0.5;stroke-dasharray:5.0,5.0;" x1="400.5" x2="400.5" y1="67.4883" y2="550.1016"/><line style="stroke:#181818;stroke-width:0.5;stroke-dasharray:5.0,5.0;" x1="549.5" x2="549.5" y1="67.4883" y2="550.1016"/><line style="stroke:#181818;stroke-width:0.5;stroke-dasharray:5.0,5.0;" x1="599.5" x2="599.5" y1="67.4883" y2="550.1016"/><line style="stroke:#181818;stroke-width:0.5;stroke-dasharray:5.0,5.0;" x1="650.5" x2="650.5" y1="67.4883" y2="550.1016"/><rect fill="#E2E2F0" height="30.4883" rx="2.5" ry="2.5" style="stroke:#181818;stroke-width:0.5;" width="50" x="40" y="36"/><text fill="#000000" font-family="sans-serif" font-size="14" lengthAdjust="spacing" textLength="36" x="47" y="56.5352">Node</text><rect fill="#E2E2F0" height="30.4883" rx="2.5" ry="2.5" style="stroke:#181818;stroke-width:0.5;" width="50" x="40" y="549.1016"/><text fill="#000000" font-family="sans-serif" font-size="14" lengthAdjust="spacing" textLength="36" x="47" y="569.6367">Node</text><text fill="#000000" font-family="sans-serif" font-size="14" lengthAdjust="spacing" textLength="199" x="121.5" y="64.5352">DHT (Distributed Hash Table)</text><ellipse cx="224" cy="35" fill="#E2E2F0" rx="12" ry="12" style="stroke:#181818;stroke-width:0.5;"/><polygon fill="#181818" points="220,23,226,18,224,23,226,28,220,23" style="stroke:#181818;stroke-width:1.0;"/><text fill="#000000" font-family="sans-serif" font-size="14" lengthAdjust="spacing" textLength="199" x="121.5" y="562.6367">DHT (Distributed Hash Table)</text><ellipse cx="224" cy="581.5898" fill="#E2E2F0" rx="12" ry="12" style="stroke:#181818;stroke-width:0.5;"/><polygon fill="#181818" points="220,569.5898,226,564.5898,224,569.5898,226,574.5898,220,569.5898" style="stroke:#181818;stroke-width:1.0;"/><text fill="#000000" font-family="sans-serif" font-size="14" lengthAdjust="spacing" textLength="123" x="336.5" y="64.5352">Routing Discovery</text><ellipse cx="401" cy="35" fill="#E2E2F0" rx="12" ry="12" style="stroke:#181818;stroke-width:0.5;"/><polygon fill="#181818" points="397,23,403,18,401,23,403,28,397,23" style="stroke:#181818;stroke-width:1.0;"/><text fill="#000000" font-family="sans-serif" font-size="14" lengthAdjust="spacing" textLength="123" x="336.5" y="562.6367">Routing Discovery</text><ellipse cx="401" cy="581.5898" fill="#E2E2F0" rx="12" ry="12" style="stroke:#181818;stroke-width:0.5;"/><polygon fill="#181818" points="397,569.5898,403,564.5898,401,569.5898,403,574.5898,397,569.5898" style="stroke:#181818;stroke-width:1.0;"/><text fill="#000000" font-family="sans-serif" font-size="14" lengthAdjust="spacing" textLength="37" x="528.5" y="64.5352">Peers</text><path d="M532,15 C532,5 550,5 550,5 C550,5 568,5 568,15 L568,41 C568,51 550,51 550,51 C550,51 532,51 532,41 L532,15 " fill="#E2E2F0" style="stroke:#181818;stroke-width:1.5;"/><path d="M532,15 C532,25 550,25 550,25 C550,25 568,25 568,15 " fill="none" style="stroke:#181818;stroke-width:1.5;"/><text fill="#000000" font-family="sans-serif" font-size="14" lengthAdjust="spacing" textLength="37" x="528.5" y="562.6367">Peers</text><path d="M532,575.5898 C532,565.5898 550,565.5898 550,565.5898 C550,565.5898 568,565.5898 568,575.5898 L568,601.5898 C568,611.5898 550,611.5898 550,611.5898 C550,611.5898 532,611.5898 532,601.5898 L532,575.5898 " fill="#E2E2F0" style="stroke:#181818;stroke-width:1.5;"/><path d="M532,575.5898 C532,585.5898 550,585.5898 550,585.5898 C550,585.5898 568,585.5898 568,575.5898 " fill="none" style="stroke:#181818;stroke-width:1.5;"/><text fill="#000000" font-family="sans-serif" font-size="14" lengthAdjust="spacing" textLength="31" x="581.5" y="64.5352">Host</text><ellipse cx="600" cy="35" fill="#E2E2F0" rx="12" ry="12" style="stroke:#181818;stroke-width:0.5;"/><polygon fill="#181818" points="596,23,602,18,600,23,602,28,596,23" style="stroke:#181818;stroke-width:1.0;"/><text fill="#000000" font-family="sans-serif" font-size="14" lengthAdjust="spacing" textLength="31" x="581.5" y="562.6367">Host</text><ellipse cx="600" cy="581.5898" fill="#E2E2F0" rx="12" ry="12" style="stroke:#181818;stroke-width:0.5;"/><polygon fill="#181818" points="596,569.5898,602,564.5898,600,569.5898,602,574.5898,596,569.5898" style="stroke:#181818;stroke-width:1.0;"/><text fill="#000000" font-family="sans-serif" font-size="14" lengthAdjust="spacing" textLength="38" x="628.5" y="64.5352">Topic</text><ellipse cx="650.5" cy="35" fill="#E2E2F0" rx="12" ry="12" style="stroke:#181818;stroke-width:0.5;"/><line style="stroke:#181818;stroke-width:0.5;" x1="638.5" x2="662.5" y1="49" y2="49"/><text fill="#000000" font-family="sans-serif" font-size="14" lengthAdjust="spacing" textLength="38" x="628.5" y="562.6367">Topic</text><ellipse cx="650.5" cy="581.5898" fill="#E2E2F0" rx="12" ry="12" style="stroke:#181818;stroke-width:0.5;"/><line style="stroke:#181818;stroke-width:0.5;" x1="638.5" x2="662.5" y1="595.5898" y2="595.5898"/><rect fill="#FFFFFF" height="29.3105" style="stroke:#181818;stroke-width:1.0;" width="10" x="219" y="98.7988"/><rect fill="#FFFFFF" height="97.9316" style="stroke:#181818;stroke-width:1.0;" width="10" x="396" y="157.4199"/><rect fill="#FFFFFF" height="29.3105" style="stroke:#181818;stroke-width:1.0;" width="10" x="396" y="300.9727"/><polygon fill="#181818" points="207,94.7988,217,98.7988,207,102.7988,211,98.7988" style="stroke:#181818;stroke-width:1.0;"/><line style="stroke:#181818;stroke-width:1.0;" x1="65" x2="213" y1="98.7988" y2="98.7988"/><text fill="#000000" font-family="sans-serif" font-size="13" lengthAdjust="spacing" textLength="115" x="72" y="94.0566">InitDHT(ctx, Host)</text><polygon fill="#181818" points="76,124.1094,66,128.1094,76,132.1094,72,128.1094" style="stroke:#181818;stroke-width:1.0;"/><line style="stroke:#181818;stroke-width:1.0;stroke-dasharray:2.0,2.0;" x1="70" x2="223" y1="128.1094" y2="128.1094"/><text fill="#000000" font-family="sans-serif" font-size="13" lengthAdjust="spacing" textLength="130" x="82" y="123.3672">Return DHT instance</text><polygon fill="#181818" points="384,153.4199,394,157.4199,384,161.4199,388,157.4199" style="stroke:#181818;stroke-width:1.0;"/><line style="stroke:#181818;stroke-width:1.0;" x1="65" x2="390" y1="157.4199" y2="157.4199"/><text fill="#000000" font-family="sans-serif" font-size="13" lengthAdjust="spacing" textLength="174" x="72" y="152.6777">NewRoutingDiscovery(DHT)</text><polygon fill="#181818" points="384,182.7305,394,186.7305,384,190.7305,388,186.7305" style="stroke:#181818;stroke-width:1.0;"/><line style="stroke:#181818;stroke-width:1.0;" x1="65" x2="390" y1="186.7305" y2="186.7305"/><text fill="#000000" font-family="sans-serif" font-size="13" lengthAdjust="spacing" textLength="102" x="72" y="181.9883">Advertise topics</text><path d="M30,201.7305 L104,201.7305 L104,209.041 L94,219.041 L30,219.041 L30,201.7305 " fill="#EEEEEE" style="stroke:#000000;stroke-width:1.5;"/><rect fill="none" height="46.6211" style="stroke:#000000;stroke-width:1.5;" width="652.5" x="30" y="201.7305"/><text fill="#000000" font-family="sans-serif" font-size="13" font-weight="bold" lengthAdjust="spacing" textLength="29" x="45" y="215.2988">loop</text><text fill="#000000" font-family="sans-serif" font-size="11" font-weight="bold" lengthAdjust="spacing" textLength="120" x="119" y="214.3652">[for each Topic in tn]</text><polygon fill="#181818" points="638.5,236.3516,648.5,240.3516,638.5,244.3516,642.5,240.3516" style="stroke:#181818;stroke-width:1.0;"/><line style="stroke:#181818;stroke-width:1.0;" x1="65" x2="644.5" y1="240.3516" y2="240.3516"/><text fill="#000000" font-family="sans-serif" font-size="13" lengthAdjust="spacing" textLength="249" x="72" y="235.6094">Advertise(ctx, RoutingDiscovery, Topic)</text><path d="M10,262.3516 L84,262.3516 L84,269.6621 L74,279.6621 L10,279.6621 L10,262.3516 " fill="#EEEEEE" style="stroke:#000000;stroke-width:1.5;"/><rect fill="none" height="270.75" style="stroke:#000000;stroke-width:1.5;" width="638.5" x="10" y="262.3516"/><text fill="#000000" font-family="sans-serif" font-size="13" font-weight="bold" lengthAdjust="spacing" textLength="29" x="25" y="275.9199">loop</text><text fill="#000000" font-family="sans-serif" font-size="11" font-weight="bold" lengthAdjust="spacing" textLength="92" x="99" y="274.9863">[Peer Discovery]</text><polygon fill="#181818" points="384,296.9727,394,300.9727,384,304.9727,388,300.9727" style="stroke:#181818;stroke-width:1.0;"/><line style="stroke:#181818;stroke-width:1.0;" x1="65" x2="390" y1="300.9727" y2="300.9727"/><text fill="#000000" font-family="sans-serif" font-size="13" lengthAdjust="spacing" textLength="131" x="72" y="296.2305">FindPeers(ctx, Topic)</text><polygon fill="#181818" points="538,326.2832,548,330.2832,538,334.2832,542,330.2832" style="stroke:#181818;stroke-width:1.0;"/><line style="stroke:#181818;stroke-width:1.0;" x1="401" x2="544" y1="330.2832" y2="330.2832"/><text fill="#000000" font-family="sans-serif" font-size="13" lengthAdjust="spacing" textLength="120" x="408" y="325.541">Get peers for Topic</text><path d="M20,345.2832 L94,345.2832 L94,352.5938 L84,362.5938 L20,362.5938 L20,345.2832 " fill="#EEEEEE" style="stroke:#000000;stroke-width:1.5;"/><rect fill="none" height="180.8184" style="stroke:#000000;stroke-width:1.5;" width="618.5" x="20" y="345.2832"/><text fill="#000000" font-family="sans-serif" font-size="13" font-weight="bold" lengthAdjust="spacing" textLength="29" x="35" y="358.8516">loop</text><text fill="#000000" font-family="sans-serif" font-size="11" font-weight="bold" lengthAdjust="spacing" textLength="131" x="109" y="357.918">[for each Peer in Peers]</text><polygon fill="#181818" points="76,379.9043,66,383.9043,76,387.9043,72,383.9043" style="stroke:#181818;stroke-width:1.0;"/><line style="stroke:#181818;stroke-width:1.0;stroke-dasharray:2.0,2.0;" x1="70" x2="549" y1="383.9043" y2="383.9043"/><text fill="#000000" font-family="sans-serif" font-size="13" lengthAdjust="spacing" textLength="26" x="82" y="379.1621">Peer</text><polygon fill="#181818" points="588,409.2148,598,413.2148,588,417.2148,592,413.2148" style="stroke:#181818;stroke-width:1.0;"/><line style="stroke:#181818;stroke-width:1.0;" x1="65" x2="594" y1="413.2148" y2="413.2148"/><text fill="#000000" font-family="sans-serif" font-size="13" lengthAdjust="spacing" textLength="114" x="72" y="408.4727">Connect(ctx, Peer)</text><path d="M30,428.2148 L92,428.2148 L92,435.5254 L82,445.5254 L30,445.5254 L30,428.2148 " fill="#EEEEEE" style="stroke:#000000;stroke-width:1.5;"/><rect fill="none" height="90.8867" style="stroke:#000000;stroke-width:1.5;" width="598.5" x="30" y="428.2148"/><text fill="#000000" font-family="sans-serif" font-size="13" font-weight="bold" lengthAdjust="spacing" textLength="17" x="45" y="441.7832">alt</text><text fill="#000000" font-family="sans-serif" font-size="11" font-weight="bold" lengthAdjust="spacing" textLength="132" x="107" y="440.8496">[successful connection]</text><polygon fill="#181818" points="76,462.8359,66,466.8359,76,470.8359,72,466.8359" style="stroke:#181818;stroke-width:1.0;"/><line style="stroke:#181818;stroke-width:1.0;" x1="70" x2="599" y1="466.8359" y2="466.8359"/><text fill="#000000" font-family="sans-serif" font-size="13" lengthAdjust="spacing" textLength="67" x="82" y="462.0938">Connected</text><line style="stroke:#000000;stroke-width:1.0;stroke-dasharray:2.0,2.0;" x1="30" x2="628.5" y1="475.8359" y2="475.8359"/><text fill="#000000" font-family="sans-serif" font-size="11" font-weight="bold" lengthAdjust="spacing" textLength="105" x="35" y="486.4707">[connection failed]</text><polygon fill="#181818" points="76,507.1016,66,511.1016,76,515.1016,72,511.1016" style="stroke:#181818;stroke-width:1.0;"/><line style="stroke:#181818;stroke-width:1.0;" x1="70" x2="599" y1="511.1016" y2="511.1016"/><text fill="#000000" font-family="sans-serif" font-size="13" lengthAdjust="spacing" textLength="113" x="82" y="506.3594">Connection Failed</text><!--SRC=[VLBRQiCm37ttLuWyDT3zG1u6OwNhNiee_G7NLbT3i4EiTElVpvBJt4fd296beoCToOrkoHdNQ4zGx8F50dG4DfG9djfGGx7P7M6rSP5QT-e8BUnqlC1Hdsei1Pu08_eGEdB-6rA22LTiRmBflODJMKtwf2D2yONOHW69DJBjGYJniw7GawCR5CVGE2DkiPJYPk7bbRkeuDCxIiRAqEzQyagb3Rch9fGsMSjB0dDI1GUahlKS0ESZQMzGMPmb3FHB1HNiyMVfNAMKISK7rS_9tcpwaqi38POLLHr20-VGGkhdahMc9e6yWdJkHEAVP6VXI_frnfLfY7OgyA6_N9NtCEvlLk-nyQtpLXQNI_U5EETv6OukdSmkF1Ly8473fkZFQ-QK_phd-7naeY9DBBygw8_S9a-0xqFmhf8VJWNlmNiqb7KnhXo0kYQ8dJ4OuxchmMIa2tv0y64Q62hrT6W73DPftMCkdBMh9-6d58pTph6ysFkVlpy0]--></g></svg>
