<?xml version="1.0" encoding="us-ascii" standalone="no"?><svg xmlns="http://www.w3.org/2000/svg" xmlns:xlink="http://www.w3.org/1999/xlink" contentStyleType="text/css" height="906px" preserveAspectRatio="none" style="width:1350px;height:906px;background:#FFFFFF;" version="1.1" viewBox="0 0 1350 906" width="1350px" zoomAndPan="magnify"><defs/><g><rect fill="#FFFFFF" height="100.9316" style="stroke:#181818;stroke-width:1.0;" width="10" x="758.5" y="218.752"/><rect fill="#FFFFFF" height="71.6211" style="stroke:#181818;stroke-width:1.0;" width="10" x="758.5" y="499.9473"/><rect fill="#FFFFFF" height="100.9316" style="stroke:#181818;stroke-width:1.0;" width="10" x="758.5" y="751.832"/><rect fill="none" height="46.6211" style="stroke:#000000;stroke-width:1.5;" width="563.5" x="10" y="143.8203"/><rect fill="none" height="46.6211" style="stroke:#000000;stroke-width:1.5;" width="563.5" x="10" y="425.0156"/><rect fill="none" height="46.6211" style="stroke:#000000;stroke-width:1.5;" width="563.5" x="10" y="676.9004"/><line style="stroke:#181818;stroke-width:0.5;stroke-dasharray:5.0,5.0;" x1="51" x2="51" y1="36.4883" y2="870.7637"/><line style="stroke:#181818;stroke-width:0.5;stroke-dasharray:5.0,5.0;" x1="501.5" x2="501.5" y1="36.4883" y2="870.7637"/><line style="stroke:#181818;stroke-width:0.5;stroke-dasharray:5.0,5.0;" x1="763" x2="763" y1="36.4883" y2="870.7637"/><line style="stroke:#181818;stroke-width:0.5;stroke-dasharray:5.0,5.0;" x1="1071.5" x2="1071.5" y1="36.4883" y2="870.7637"/><line style="stroke:#181818;stroke-width:0.5;stroke-dasharray:5.0,5.0;" x1="1280.5" x2="1280.5" y1="36.4883" y2="870.7637"/><rect fill="#E2E2F0" height="30.4883" rx="2.5" ry="2.5" style="stroke:#181818;stroke-width:0.5;" width="63" x="20" y="5"/><text fill="#000000" font-family="sans-serif" font-size="14" lengthAdjust="spacing" textLength="49" x="27" y="25.5352">Node 1</text><rect fill="#E2E2F0" height="30.4883" rx="2.5" ry="2.5" style="stroke:#181818;stroke-width:0.5;" width="63" x="20" y="869.7637"/><text fill="#000000" font-family="sans-serif" font-size="14" lengthAdjust="spacing" textLength="49" x="27" y="890.2988">Node 1</text><path d="M444.5,10 L558.5,10 C563.5,10 563.5,23.2441 563.5,23.2441 C563.5,23.2441 563.5,36.4883 558.5,36.4883 L444.5,36.4883 C439.5,36.4883 439.5,23.2441 439.5,23.2441 C439.5,23.2441 439.5,10 444.5,10 " fill="#E2E2F0" style="stroke:#181818;stroke-width:0.5;"/><path d="M558.5,10 C553.5,10 553.5,23.2441 553.5,23.2441 C553.5,36.4883 558.5,36.4883 558.5,36.4883 " fill="none" style="stroke:#181818;stroke-width:0.5;"/><text fill="#000000" font-family="sans-serif" font-size="14" lengthAdjust="spacing" textLength="104" x="444.5" y="28.5352">PubSub System</text><path d="M444.5,869.7637 L558.5,869.7637 C563.5,869.7637 563.5,883.0078 563.5,883.0078 C563.5,883.0078 563.5,896.252 558.5,896.252 L444.5,896.252 C439.5,896.252 439.5,883.0078 439.5,883.0078 C439.5,883.0078 439.5,869.7637 444.5,869.7637 " fill="#E2E2F0" style="stroke:#181818;stroke-width:0.5;"/><path d="M558.5,869.7637 C553.5,869.7637 553.5,883.0078 553.5,883.0078 C553.5,896.252 558.5,896.252 558.5,896.252 " fill="none" style="stroke:#181818;stroke-width:0.5;"/><text fill="#000000" font-family="sans-serif" font-size="14" lengthAdjust="spacing" textLength="104" x="444.5" y="888.2988">PubSub System</text><rect fill="#E2E2F0" height="30.4883" rx="2.5" ry="2.5" style="stroke:#181818;stroke-width:0.5;" width="63" x="732" y="5"/><text fill="#000000" font-family="sans-serif" font-size="14" lengthAdjust="spacing" textLength="49" x="739" y="25.5352">Node 2</text><rect fill="#E2E2F0" height="30.4883" rx="2.5" ry="2.5" style="stroke:#181818;stroke-width:0.5;" width="63" x="732" y="869.7637"/><text fill="#000000" font-family="sans-serif" font-size="14" lengthAdjust="spacing" textLength="49" x="739" y="890.2988">Node 2</text><path d="M996.5,10 L1146.5,10 C1151.5,10 1151.5,23.2441 1151.5,23.2441 C1151.5,23.2441 1151.5,36.4883 1146.5,36.4883 L996.5,36.4883 C991.5,36.4883 991.5,23.2441 991.5,23.2441 C991.5,23.2441 991.5,10 996.5,10 " fill="#E2E2F0" style="stroke:#181818;stroke-width:0.5;"/><path d="M1146.5,10 C1141.5,10 1141.5,23.2441 1141.5,23.2441 C1141.5,36.4883 1146.5,36.4883 1146.5,36.4883 " fill="none" style="stroke:#181818;stroke-width:0.5;"/><text fill="#000000" font-family="sans-serif" font-size="14" lengthAdjust="spacing" textLength="140" x="996.5" y="28.5352">Notification Channel</text><path d="M996.5,869.7637 L1146.5,869.7637 C1151.5,869.7637 1151.5,883.0078 1151.5,883.0078 C1151.5,883.0078 1151.5,896.252 1146.5,896.252 L996.5,896.252 C991.5,896.252 991.5,883.0078 991.5,883.0078 C991.5,883.0078 991.5,869.7637 996.5,869.7637 " fill="#E2E2F0" style="stroke:#181818;stroke-width:0.5;"/><path d="M1146.5,869.7637 C1141.5,869.7637 1141.5,883.0078 1141.5,883.0078 C1141.5,896.252 1146.5,896.252 1146.5,896.252 " fill="none" style="stroke:#181818;stroke-width:0.5;"/><text fill="#000000" font-family="sans-serif" font-size="14" lengthAdjust="spacing" textLength="140" x="996.5" y="888.2988">Notification Channel</text><rect fill="#E2E2F0" height="30.4883" rx="2.5" ry="2.5" style="stroke:#181818;stroke-width:0.5;" width="116" x="1222.5" y="5"/><text fill="#000000" font-family="sans-serif" font-size="14" lengthAdjust="spacing" textLength="102" x="1229.5" y="25.5352">Block Validator</text><rect fill="#E2E2F0" height="30.4883" rx="2.5" ry="2.5" style="stroke:#181818;stroke-width:0.5;" width="116" x="1222.5" y="869.7637"/><text fill="#000000" font-family="sans-serif" font-size="14" lengthAdjust="spacing" textLength="102" x="1229.5" y="890.2988">Block Validator</text><rect fill="#FFFFFF" height="100.9316" style="stroke:#181818;stroke-width:1.0;" width="10" x="758.5" y="218.752"/><rect fill="#FFFFFF" height="71.6211" style="stroke:#181818;stroke-width:1.0;" width="10" x="758.5" y="499.9473"/><rect fill="#FFFFFF" height="100.9316" style="stroke:#181818;stroke-width:1.0;" width="10" x="758.5" y="751.832"/><rect fill="#EEEEEE" height="3" style="stroke:#EEEEEE;stroke-width:1.0;" width="1343.5" x="0" y="69.499"/><line style="stroke:#000000;stroke-width:1.0;" x1="0" x2="1343.5" y1="69.499" y2="69.499"/><line style="stroke:#000000;stroke-width:1.0;" x1="0" x2="1343.5" y1="72.499" y2="72.499"/><rect fill="#EEEEEE" height="28.0215" style="stroke:#000000;stroke-width:2.0;" width="236" x="553.75" y="56.4883"/><text fill="#000000" font-family="sans-serif" font-size="17" font-weight="bold" lengthAdjust="spacing" textLength="222" x="559.75" y="76.9238">New Block Notification =</text><line style="stroke:#181818;stroke-width:1.0;" x1="51.5" x2="93.5" y1="115.8203" y2="115.8203"/><line style="stroke:#181818;stroke-width:1.0;" x1="93.5" x2="93.5" y1="115.8203" y2="128.8203"/><line style="stroke:#181818;stroke-width:1.0;" x1="52.5" x2="93.5" y1="128.8203" y2="128.8203"/><polygon fill="#181818" points="62.5,124.8203,52.5,128.8203,62.5,132.8203,58.5,128.8203" style="stroke:#181818;stroke-width:1.0;"/><text fill="#000000" font-family="sans-serif" font-size="13" lengthAdjust="spacing" textLength="226" x="58.5" y="111.0781">blockchainSubscriptionListener(ctx)</text><path d="M10,143.8203 L72,143.8203 L72,151.1309 L62,161.1309 L10,161.1309 L10,143.8203 " fill="#EEEEEE" style="stroke:#000000;stroke-width:1.5;"/><rect fill="none" height="46.6211" style="stroke:#000000;stroke-width:1.5;" width="563.5" x="10" y="143.8203"/><text fill="#000000" font-family="sans-serif" font-size="13" font-weight="bold" lengthAdjust="spacing" textLength="17" x="25" y="157.3887">alt</text><text fill="#000000" font-family="sans-serif" font-size="11" font-weight="bold" lengthAdjust="spacing" textLength="297" x="87" y="156.4551">[notification.Type == model.NotificationType_Block]</text><polygon fill="#181818" points="489.5,178.4414,499.5,182.4414,489.5,186.4414,493.5,182.4414" style="stroke:#181818;stroke-width:1.0;"/><line style="stroke:#181818;stroke-width:1.0;" x1="51.5" x2="495.5" y1="182.4414" y2="182.4414"/><text fill="#000000" font-family="sans-serif" font-size="13" lengthAdjust="spacing" textLength="372" x="58.5" y="177.6992">s.topics[blockTopicName].Publish(ctx, blockMessageBytes)</text><polygon fill="#181818" points="746.5,214.752,756.5,218.752,746.5,222.752,750.5,218.752" style="stroke:#181818;stroke-width:1.0;"/><line style="stroke:#181818;stroke-width:1.0;" x1="501.5" x2="752.5" y1="218.752" y2="218.752"/><text fill="#000000" font-family="sans-serif" font-size="13" lengthAdjust="spacing" textLength="211" x="508.5" y="214.0098">s.subscriptions[blockTopicName]</text><line style="stroke:#181818;stroke-width:1.0;" x1="768.5" x2="810.5" y1="248.0625" y2="248.0625"/><line style="stroke:#181818;stroke-width:1.0;" x1="810.5" x2="810.5" y1="248.0625" y2="261.0625"/><line style="stroke:#181818;stroke-width:1.0;" x1="769.5" x2="810.5" y1="261.0625" y2="261.0625"/><polygon fill="#181818" points="779.5,257.0625,769.5,261.0625,779.5,265.0625,775.5,261.0625" style="stroke:#181818;stroke-width:1.0;"/><text fill="#000000" font-family="sans-serif" font-size="13" lengthAdjust="spacing" textLength="139" x="775.5" y="243.3203">handleBlockTopic(ctx)</text><polygon fill="#181818" points="1268.5,286.373,1278.5,290.373,1268.5,294.373,1272.5,290.373" style="stroke:#181818;stroke-width:1.0;"/><line style="stroke:#181818;stroke-width:1.0;" x1="768.5" x2="1274.5" y1="290.373" y2="290.373"/><text fill="#000000" font-family="sans-serif" font-size="13" lengthAdjust="spacing" textLength="452" x="775.5" y="285.6309">blockValidationClient.BlockFound(ctx, hash, blockMessage.DataHubUrl)</text><polygon fill="#181818" points="1059.5,315.6836,1069.5,319.6836,1059.5,323.6836,1063.5,319.6836" style="stroke:#181818;stroke-width:1.0;"/><line style="stroke:#181818;stroke-width:1.0;" x1="763.5" x2="1065.5" y1="319.6836" y2="319.6836"/><text fill="#000000" font-family="sans-serif" font-size="13" lengthAdjust="spacing" textLength="252" x="770.5" y="314.9414">notify blockMessage to s.notificationCh</text><rect fill="#EEEEEE" height="3" style="stroke:#EEEEEE;stroke-width:1.0;" width="1343.5" x="0" y="350.6943"/><line style="stroke:#000000;stroke-width:1.0;" x1="0" x2="1343.5" y1="350.6943" y2="350.6943"/><line style="stroke:#000000;stroke-width:1.0;" x1="0" x2="1343.5" y1="353.6943" y2="353.6943"/><rect fill="#EEEEEE" height="28.0215" style="stroke:#000000;stroke-width:2.0;" width="295" x="524.25" y="337.6836"/><text fill="#000000" font-family="sans-serif" font-size="17" font-weight="bold" lengthAdjust="spacing" textLength="281" x="530.25" y="358.1191">New Mined Block Notification =</text><line style="stroke:#181818;stroke-width:1.0;" x1="51.5" x2="93.5" y1="397.0156" y2="397.0156"/><line style="stroke:#181818;stroke-width:1.0;" x1="93.5" x2="93.5" y1="397.0156" y2="410.0156"/><line style="stroke:#181818;stroke-width:1.0;" x1="52.5" x2="93.5" y1="410.0156" y2="410.0156"/><polygon fill="#181818" points="62.5,406.0156,52.5,410.0156,62.5,414.0156,58.5,410.0156" style="stroke:#181818;stroke-width:1.0;"/><text fill="#000000" font-family="sans-serif" font-size="13" lengthAdjust="spacing" textLength="226" x="58.5" y="392.2734">blockchainSubscriptionListener(ctx)</text><path d="M10,425.0156 L72,425.0156 L72,432.3262 L62,442.3262 L10,442.3262 L10,425.0156 " fill="#EEEEEE" style="stroke:#000000;stroke-width:1.5;"/><rect fill="none" height="46.6211" style="stroke:#000000;stroke-width:1.5;" width="563.5" x="10" y="425.0156"/><text fill="#000000" font-family="sans-serif" font-size="13" font-weight="bold" lengthAdjust="spacing" textLength="17" x="25" y="438.584">alt</text><text fill="#000000" font-family="sans-serif" font-size="11" font-weight="bold" lengthAdjust="spacing" textLength="321" x="87" y="437.6504">[notification.Type == model.NotificationType_MiningOn]</text><polygon fill="#181818" points="489.5,459.6367,499.5,463.6367,489.5,467.6367,493.5,463.6367" style="stroke:#181818;stroke-width:1.0;"/><line style="stroke:#181818;stroke-width:1.0;" x1="51.5" x2="495.5" y1="463.6367" y2="463.6367"/><text fill="#000000" font-family="sans-serif" font-size="13" lengthAdjust="spacing" textLength="426" x="58.5" y="458.8945">s.topics[miningOnTopicName].Publish(ctx, miningOnMessageBytes)</text><polygon fill="#181818" points="746.5,495.9473,756.5,499.9473,746.5,503.9473,750.5,499.9473" style="stroke:#181818;stroke-width:1.0;"/><line style="stroke:#181818;stroke-width:1.0;" x1="501.5" x2="752.5" y1="499.9473" y2="499.9473"/><text fill="#000000" font-family="sans-serif" font-size="13" lengthAdjust="spacing" textLength="238" x="508.5" y="495.2051">s.subscriptions[miningOnTopicName]</text><line style="stroke:#181818;stroke-width:1.0;" x1="768.5" x2="810.5" y1="529.2578" y2="529.2578"/><line style="stroke:#181818;stroke-width:1.0;" x1="810.5" x2="810.5" y1="529.2578" y2="542.2578"/><line style="stroke:#181818;stroke-width:1.0;" x1="769.5" x2="810.5" y1="542.2578" y2="542.2578"/><polygon fill="#181818" points="779.5,538.2578,769.5,542.2578,779.5,546.2578,775.5,542.2578" style="stroke:#181818;stroke-width:1.0;"/><text fill="#000000" font-family="sans-serif" font-size="13" lengthAdjust="spacing" textLength="166" x="775.5" y="524.5156">handleMiningOnTopic(ctx)</text><polygon fill="#181818" points="1059.5,567.5684,1069.5,571.5684,1059.5,575.5684,1063.5,571.5684" style="stroke:#181818;stroke-width:1.0;"/><line style="stroke:#181818;stroke-width:1.0;" x1="763.5" x2="1065.5" y1="571.5684" y2="571.5684"/><text fill="#000000" font-family="sans-serif" font-size="13" lengthAdjust="spacing" textLength="279" x="770.5" y="566.8262">notify miningOnMessage to s.notificationCh</text><rect fill="#EEEEEE" height="3" style="stroke:#EEEEEE;stroke-width:1.0;" width="1343.5" x="0" y="602.5791"/><line style="stroke:#000000;stroke-width:1.0;" x1="0" x2="1343.5" y1="602.5791" y2="602.5791"/><line style="stroke:#000000;stroke-width:1.0;" x1="0" x2="1343.5" y1="605.5791" y2="605.5791"/><rect fill="#EEEEEE" height="28.0215" style="stroke:#000000;stroke-width:2.0;" width="255" x="544.25" y="589.5684"/><text fill="#000000" font-family="sans-serif" font-size="17" font-weight="bold" lengthAdjust="spacing" textLength="241" x="550.25" y="610.0039">New Subtree Notification =</text><line style="stroke:#181818;stroke-width:1.0;" x1="51.5" x2="93.5" y1="648.9004" y2="648.9004"/><line style="stroke:#181818;stroke-width:1.0;" x1="93.5" x2="93.5" y1="648.9004" y2="661.9004"/><line style="stroke:#181818;stroke-width:1.0;" x1="52.5" x2="93.5" y1="661.9004" y2="661.9004"/><polygon fill="#181818" points="62.5,657.9004,52.5,661.9004,62.5,665.9004,58.5,661.9004" style="stroke:#181818;stroke-width:1.0;"/><text fill="#000000" font-family="sans-serif" font-size="13" lengthAdjust="spacing" textLength="226" x="58.5" y="644.1582">blockchainSubscriptionListener(ctx)</text><path d="M10,676.9004 L72,676.9004 L72,684.2109 L62,694.2109 L10,694.2109 L10,676.9004 " fill="#EEEEEE" style="stroke:#000000;stroke-width:1.5;"/><rect fill="none" height="46.6211" style="stroke:#000000;stroke-width:1.5;" width="563.5" x="10" y="676.9004"/><text fill="#000000" font-family="sans-serif" font-size="13" font-weight="bold" lengthAdjust="spacing" textLength="17" x="25" y="690.4688">alt</text><text fill="#000000" font-family="sans-serif" font-size="11" font-weight="bold" lengthAdjust="spacing" textLength="307" x="87" y="689.5352">[notification.Type == model.NotificationType_Subtree]</text><polygon fill="#181818" points="489.5,711.5215,499.5,715.5215,489.5,719.5215,493.5,715.5215" style="stroke:#181818;stroke-width:1.0;"/><line style="stroke:#181818;stroke-width:1.0;" x1="51.5" x2="495.5" y1="715.5215" y2="715.5215"/><text fill="#000000" font-family="sans-serif" font-size="13" lengthAdjust="spacing" textLength="396" x="58.5" y="710.7793">s.topics[subtreeTopicName].Publish(ctx, subtreeMessageBytes)</text><polygon fill="#181818" points="746.5,747.832,756.5,751.832,746.5,755.832,750.5,751.832" style="stroke:#181818;stroke-width:1.0;"/><line style="stroke:#181818;stroke-width:1.0;" x1="501.5" x2="752.5" y1="751.832" y2="751.832"/><text fill="#000000" font-family="sans-serif" font-size="13" lengthAdjust="spacing" textLength="223" x="508.5" y="747.0898">s.subscriptions[subtreeTopicName]</text><line style="stroke:#181818;stroke-width:1.0;" x1="768.5" x2="810.5" y1="781.1426" y2="781.1426"/><line style="stroke:#181818;stroke-width:1.0;" x1="810.5" x2="810.5" y1="781.1426" y2="794.1426"/><line style="stroke:#181818;stroke-width:1.0;" x1="769.5" x2="810.5" y1="794.1426" y2="794.1426"/><polygon fill="#181818" points="779.5,790.1426,769.5,794.1426,779.5,798.1426,775.5,794.1426" style="stroke:#181818;stroke-width:1.0;"/><text fill="#000000" font-family="sans-serif" font-size="13" lengthAdjust="spacing" textLength="152" x="775.5" y="776.4004">handleSubtreeTopic(ctx)</text><polygon fill="#181818" points="1268.5,819.4531,1278.5,823.4531,1268.5,827.4531,1272.5,823.4531" style="stroke:#181818;stroke-width:1.0;"/><line style="stroke:#181818;stroke-width:1.0;" x1="768.5" x2="1274.5" y1="823.4531" y2="823.4531"/><text fill="#000000" font-family="sans-serif" font-size="13" lengthAdjust="spacing" textLength="488" x="775.5" y="818.7109">s.blockValidationClient.SubtreeFound(ctx, hash, subtreeMessage.DataHubUrl)</text><polygon fill="#181818" points="1059.5,848.7637,1069.5,852.7637,1059.5,856.7637,1063.5,852.7637" style="stroke:#181818;stroke-width:1.0;"/><line style="stroke:#181818;stroke-width:1.0;" x1="763.5" x2="1065.5" y1="852.7637" y2="852.7637"/><text fill="#000000" font-family="sans-serif" font-size="13" lengthAdjust="spacing" textLength="264" x="770.5" y="848.0215">notify subtreeMessage to s.notificationCh</text><!--SRC=[nLEnJiCm4Dtz5LOdAa6aTgnKXe8G0mr8BIm88ISv6Wl73h43vEznR3UAavQcNTgXYkxUkxjtxvoJGj6OveGhF0f50dWomaJY-dE2laee0O-UocXLHdXLIGMPITi8odliQSEURjcXKFI3naHHmV5DIZW7Pb2ybN1nl-A2YVWJln164w94OKWcva8rZr7W2g7vV8v3-B5fxBNKAMJauAjhgsk6eneMfuHoBKF61Srhw0FL0ZaK5x7w7IF2b3TYiAvoqDLmfckmeDsZphoRrWZhNzFDhcc6PQ14JcFvQlgkw- -GPF0MQ02ZCgqRNjgXbY0bsS2YKY3727Y2a5k_ctvQbvEjgNjL4OaL_IOAd0_clqNNgquOB1gIbTkWTcxOhQmR3WpuJfGyiHfI8bDVIN1B5Bale-U2jPhiy7vcWvN7nafekJuQ9T1HsDY_f1oISnw17e3opIC_S0UPW-qxXMt-b6lernvs4CishtCJ_zdLcVL8nxGMLG2SnotN_81PqgBsUUNIfrZLgppCgLMBDkpnoc3tytMLUW_OrtJy4_RvmqxY3m00]--></g></svg>
