<svg contentStyleType="text/css" height="906" preserveAspectRatio="none" viewBox="0 0 1350 906" width="1350" xmlns="http://www.w3.org/2000/svg" zoomAndPan="magnify"><path d="m758.5 218.752h10v100.9316h-10z" fill="#fff" stroke="#181818"/><path d="m758.5 499.9473h10v71.6211h-10z" fill="#fff" stroke="#181818"/><path d="m758.5 751.832h10v100.9316h-10z" fill="#fff" stroke="#181818"/><path d="m10 143.8203h563.5v46.6211h-563.5z" fill="none" stroke="#000" stroke-width="1.5"/><path d="m10 425.0156h563.5v46.6211h-563.5z" fill="none" stroke="#000" stroke-width="1.5"/><path d="m10 676.9004h563.5v46.6211h-563.5z" fill="none" stroke="#000" stroke-width="1.5"/><g stroke="#181818"><path d="m51 36.4883v834.2754" stroke-dasharray="5 5" stroke-width=".5"/><path d="m501.5 36.4883v834.2754" stroke-dasharray="5 5" stroke-width=".5"/><path d="m763 36.4883v834.2754" stroke-dasharray="5 5" stroke-width=".5"/><path d="m1071.5 36.4883v834.2754" stroke-dasharray="5 5" stroke-width=".5"/><path d="m1280.5 36.4883v834.2754" stroke-dasharray="5 5" stroke-width=".5"/><rect fill="#e2e2f0" height="30.4883" rx="2.5" stroke-width=".5" width="63" x="20" y="5"/></g><text font-family="sans-serif" font-size="14" lengthAdjust="spacing" textLength="49" x="27" y="25.5352">Node 1</text><rect fill="#e2e2f0" height="30.4883" rx="2.5" stroke="#181818" stroke-width=".5" width="63" x="20" y="869.7637"/><text font-family="sans-serif" font-size="14" lengthAdjust="spacing" textLength="49" x="27" y="890.2988">Node 1</text><path d="m444.5 10h114c5 0 5 13.2441 5 13.2441s0 13.2442-5 13.2442h-114c-5 0-5-13.2442-5-13.2442s0-13.2441 5-13.2441" fill="#e2e2f0" stroke="#181818" stroke-width=".5"/><path d="m558.5 10c-5 0-5 13.2441-5 13.2441 0 13.2442 5 13.2442 5 13.2442" fill="none" stroke="#181818" stroke-width=".5"/><text font-family="sans-serif" font-size="14" lengthAdjust="spacing" textLength="104" x="444.5" y="28.5352">PubSub System</text><path d="m444.5 869.7637h114c5 0 5 13.2441 5 13.2441s0 13.2442-5 13.2442h-114c-5 0-5-13.2442-5-13.2442s0-13.2441 5-13.2441" fill="#e2e2f0" stroke="#181818" stroke-width=".5"/><path d="m558.5 869.7637c-5 0-5 13.2441-5 13.2441 0 13.2442 5 13.2442 5 13.2442" fill="none" stroke="#181818" stroke-width=".5"/><text font-family="sans-serif" font-size="14" lengthAdjust="spacing" textLength="104" x="444.5" y="888.2988">PubSub System</text><rect fill="#e2e2f0" height="30.4883" rx="2.5" stroke="#181818" stroke-width=".5" width="63" x="732" y="5"/><text font-family="sans-serif" font-size="14" lengthAdjust="spacing" textLength="49" x="739" y="25.5352">Node 2</text><rect fill="#e2e2f0" height="30.4883" rx="2.5" stroke="#181818" stroke-width=".5" width="63" x="732" y="869.7637"/><text font-family="sans-serif" font-size="14" lengthAdjust="spacing" textLength="49" x="739" y="890.2988">Node 2</text><path d="m996.5 10h150c5 0 5 13.2441 5 13.2441s0 13.2442-5 13.2442h-150c-5 0-5-13.2442-5-13.2442s0-13.2441 5-13.2441" fill="#e2e2f0" stroke="#181818" stroke-width=".5"/><path d="m1146.5 10c-5 0-5 13.2441-5 13.2441 0 13.2442 5 13.2442 5 13.2442" fill="none" stroke="#181818" stroke-width=".5"/><text font-family="sans-serif" font-size="14" lengthAdjust="spacing" textLength="140" x="996.5" y="28.5352">Notification Channel</text><path d="m996.5 869.7637h150c5 0 5 13.2441 5 13.2441s0 13.2442-5 13.2442h-150c-5 0-5-13.2442-5-13.2442s0-13.2441 5-13.2441" fill="#e2e2f0" stroke="#181818" stroke-width=".5"/><path d="m1146.5 869.7637c-5 0-5 13.2441-5 13.2441 0 13.2442 5 13.2442 5 13.2442" fill="none" stroke="#181818" stroke-width=".5"/><text font-family="sans-serif" font-size="14" lengthAdjust="spacing" textLength="140" x="996.5" y="888.2988">Notification Channel</text><rect fill="#e2e2f0" height="30.4883" rx="2.5" stroke="#181818" stroke-width=".5" width="116" x="1222.5" y="5"/><text font-family="sans-serif" font-size="14" lengthAdjust="spacing" textLength="102" x="1229.5" y="25.5352">Block Validator</text><rect fill="#e2e2f0" height="30.4883" rx="2.5" stroke="#181818" stroke-width=".5" width="116" x="1222.5" y="869.7637"/><text font-family="sans-serif" font-size="14" lengthAdjust="spacing" textLength="102" x="1229.5" y="890.2988">Block Validator</text><path d="m758.5 218.752h10v100.9316h-10z" fill="#fff" stroke="#181818"/><path d="m758.5 499.9473h10v71.6211h-10z" fill="#fff" stroke="#181818"/><path d="m758.5 751.832h10v100.9316h-10z" fill="#fff" stroke="#181818"/><path d="m0 69.499h1343.5v3h-1343.5z" fill="#eee" stroke="#eee"/><path d="m0 69.499h1343.5" stroke="#000"/><path d="m0 72.499h1343.5" stroke="#000"/><path d="m553.75 56.4883h236v28.0215h-236z" fill="#eee" stroke="#000" stroke-width="2"/><text font-family="sans-serif" font-size="17" font-weight="bold" lengthAdjust="spacing" textLength="222" x="559.75" y="76.9238">New Block Notification =</text><path d="m51.5 115.8203h42" stroke="#181818"/><path d="m93.5 115.8203v13" stroke="#181818"/><path d="m52.5 128.8203h41" stroke="#181818"/><path d="m62.5 124.8203-10 4 10 4-4-4z" fill="#181818" stroke="#181818"/><text font-family="sans-serif" font-size="13" lengthAdjust="spacing" textLength="226" x="58.5" y="111.0781">blockchainSubscriptionListener(ctx)</text><path d="m10 143.8203h62v7.3106l-10 10h-52z" fill="#eee" stroke="#000" stroke-width="1.5"/><path d="m10 143.8203h563.5v46.6211h-563.5z" fill="none" stroke="#000" stroke-width="1.5"/><text font-family="sans-serif" font-size="13" font-weight="bold" lengthAdjust="spacing" textLength="17" x="25" y="157.3887">alt</text><text font-family="sans-serif" font-size="11" font-weight="bold" lengthAdjust="spacing" textLength="297" x="87" y="156.4551">[notification.Type == model.NotificationType_Block]</text><path d="m489.5 178.4414 10 4-10 4 4-4z" fill="#181818" stroke="#181818"/><path d="m51.5 182.4414h444" stroke="#181818"/><text font-family="sans-serif" font-size="13" lengthAdjust="spacing" textLength="372" x="58.5" y="177.6992">s.topics[blockTopicName].Publish(ctx, blockMessageBytes)</text><path d="m746.5 214.752 10 4-10 4 4-4z" fill="#181818" stroke="#181818"/><path d="m501.5 218.752h251" stroke="#181818"/><text font-family="sans-serif" font-size="13" lengthAdjust="spacing" textLength="211" x="508.5" y="214.0098">s.subscriptions[blockTopicName]</text><path d="m768.5 248.0625h42" stroke="#181818"/><path d="m810.5 248.0625v13" stroke="#181818"/><path d="m769.5 261.0625h41" stroke="#181818"/><path d="m779.5 257.0625-10 4 10 4-4-4z" fill="#181818" stroke="#181818"/><text font-family="sans-serif" font-size="13" lengthAdjust="spacing" textLength="139" x="775.5" y="243.3203">handleBlockTopic(ctx)</text><path d="m1268.5 286.373 10 4-10 4 4-4z" fill="#181818" stroke="#181818"/><path d="m768.5 290.373h506" stroke="#181818"/><text font-family="sans-serif" font-size="13" lengthAdjust="spacing" textLength="452" x="775.5" y="285.6309">blockValidationClient.BlockFound(ctx, hash, blockMessage.DataHubUrl)</text><path d="m1059.5 315.6836 10 4-10 4 4-4z" fill="#181818" stroke="#181818"/><path d="m763.5 319.6836h302" stroke="#181818"/><text font-family="sans-serif" font-size="13" lengthAdjust="spacing" textLength="252" x="770.5" y="314.9414">notify blockMessage to s.notificationCh</text><path d="m0 350.6943h1343.5v3h-1343.5z" fill="#eee" stroke="#eee"/><path d="m0 350.6943h1343.5" stroke="#000"/><path d="m0 353.6943h1343.5" stroke="#000"/><path d="m524.25 337.6836h295v28.0215h-295z" fill="#eee" stroke="#000" stroke-width="2"/><text font-family="sans-serif" font-size="17" font-weight="bold" lengthAdjust="spacing" textLength="281" x="530.25" y="358.1191">New Mined Block Notification =</text><path d="m51.5 397.0156h42" stroke="#181818"/><path d="m93.5 397.0156v13" stroke="#181818"/><path d="m52.5 410.0156h41" stroke="#181818"/><path d="m62.5 406.0156-10 4 10 4-4-4z" fill="#181818" stroke="#181818"/><text font-family="sans-serif" font-size="13" lengthAdjust="spacing" textLength="226" x="58.5" y="392.2734">blockchainSubscriptionListener(ctx)</text><path d="m10 425.0156h62v7.3106l-10 10h-52z" fill="#eee" stroke="#000" stroke-width="1.5"/><path d="m10 425.0156h563.5v46.6211h-563.5z" fill="none" stroke="#000" stroke-width="1.5"/><text font-family="sans-serif" font-size="13" font-weight="bold" lengthAdjust="spacing" textLength="17" x="25" y="438.584">alt</text><text font-family="sans-serif" font-size="11" font-weight="bold" lengthAdjust="spacing" textLength="321" x="87" y="437.6504">[notification.Type == model.NotificationType_MiningOn]</text><path d="m489.5 459.6367 10 4-10 4 4-4z" fill="#181818" stroke="#181818"/><path d="m51.5 463.6367h444" stroke="#181818"/><text font-family="sans-serif" font-size="13" lengthAdjust="spacing" textLength="426" x="58.5" y="458.8945">s.topics[miningOnTopicName].Publish(ctx, miningOnMessageBytes)</text><path d="m746.5 495.9473 10 4-10 4 4-4z" fill="#181818" stroke="#181818"/><path d="m501.5 499.9473h251" stroke="#181818"/><text font-family="sans-serif" font-size="13" lengthAdjust="spacing" textLength="238" x="508.5" y="495.2051">s.subscriptions[miningOnTopicName]</text><path d="m768.5 529.2578h42" stroke="#181818"/><path d="m810.5 529.2578v13" stroke="#181818"/><path d="m769.5 542.2578h41" stroke="#181818"/><path d="m779.5 538.2578-10 4 10 4-4-4z" fill="#181818" stroke="#181818"/><text font-family="sans-serif" font-size="13" lengthAdjust="spacing" textLength="166" x="775.5" y="524.5156">handleMiningOnTopic(ctx)</text><path d="m1059.5 567.5684 10 4-10 4 4-4z" fill="#181818" stroke="#181818"/><path d="m763.5 571.5684h302" stroke="#181818"/><text font-family="sans-serif" font-size="13" lengthAdjust="spacing" textLength="279" x="770.5" y="566.8262">notify miningOnMessage to s.notificationCh</text><path d="m0 602.5791h1343.5v3h-1343.5z" fill="#eee" stroke="#eee"/><path d="m0 602.5791h1343.5" stroke="#000"/><path d="m0 605.5791h1343.5" stroke="#000"/><path d="m544.25 589.5684h255v28.0215h-255z" fill="#eee" stroke="#000" stroke-width="2"/><text font-family="sans-serif" font-size="17" font-weight="bold" lengthAdjust="spacing" textLength="241" x="550.25" y="610.0039">New Subtree Notification =</text><path d="m51.5 648.9004h42" stroke="#181818"/><path d="m93.5 648.9004v13" stroke="#181818"/><path d="m52.5 661.9004h41" stroke="#181818"/><path d="m62.5 657.9004-10 4 10 4-4-4z" fill="#181818" stroke="#181818"/><text font-family="sans-serif" font-size="13" lengthAdjust="spacing" textLength="226" x="58.5" y="644.1582">blockchainSubscriptionListener(ctx)</text><path d="m10 676.9004h62v7.3105l-10 10h-52z" fill="#eee" stroke="#000" stroke-width="1.5"/><path d="m10 676.9004h563.5v46.6211h-563.5z" fill="none" stroke="#000" stroke-width="1.5"/><text font-family="sans-serif" font-size="13" font-weight="bold" lengthAdjust="spacing" textLength="17" x="25" y="690.4688">alt</text><text font-family="sans-serif" font-size="11" font-weight="bold" lengthAdjust="spacing" textLength="307" x="87" y="689.5352">[notification.Type == model.NotificationType_Subtree]</text><path d="m489.5 711.5215 10 4-10 4 4-4z" fill="#181818" stroke="#181818"/><path d="m51.5 715.5215h444" stroke="#181818"/><text font-family="sans-serif" font-size="13" lengthAdjust="spacing" textLength="396" x="58.5" y="710.7793">s.topics[subtreeTopicName].Publish(ctx, subtreeMessageBytes)</text><path d="m746.5 747.832 10 4-10 4 4-4z" fill="#181818" stroke="#181818"/><path d="m501.5 751.832h251" stroke="#181818"/><text font-family="sans-serif" font-size="13" lengthAdjust="spacing" textLength="223" x="508.5" y="747.0898">s.subscriptions[subtreeTopicName]</text><path d="m768.5 781.1426h42" stroke="#181818"/><path d="m810.5 781.1426v13" stroke="#181818"/><path d="m769.5 794.1426h41" stroke="#181818"/><path d="m779.5 790.1426-10 4 10 4-4-4z" fill="#181818" stroke="#181818"/><text font-family="sans-serif" font-size="13" lengthAdjust="spacing" textLength="152" x="775.5" y="776.4004">handleSubtreeTopic(ctx)</text><path d="m1268.5 819.4531 10 4-10 4 4-4z" fill="#181818" stroke="#181818"/><path d="m768.5 823.4531h506" stroke="#181818"/><text font-family="sans-serif" font-size="13" lengthAdjust="spacing" textLength="488" x="775.5" y="818.7109">s.blockValidationClient.SubtreeFound(ctx, hash, subtreeMessage.DataHubUrl)</text><path d="m1059.5 848.7637 10 4-10 4 4-4z" fill="#181818" stroke="#181818"/><path d="m763.5 852.7637h302" stroke="#181818"/><text font-family="sans-serif" font-size="13" lengthAdjust="spacing" textLength="264" x="770.5" y="848.0215">notify subtreeMessage to s.notificationCh</text></svg>
