<svg contentStyleType="text/css" height="631" preserveAspectRatio="none" viewBox="0 0 1385 631" width="1385" xmlns="http://www.w3.org/2000/svg" zoomAndPan="magnify"><g stroke="#181818"><path d="m147 112.7988h10v64.6211h-10z" fill="#fff"/><path d="m383 213.7305h10v123.2422h-10z" fill="#fff"/><path d="m518 373.2832h10v152.5527h-10z" fill="#fff"/><g stroke-dasharray="5 5" stroke-width=".5"><path d="m28 81.4883v469.3476"/><path d="m151.5 81.4883v469.3476"/><path d="m387.5 81.4883v469.3476"/><path d="m522.5 81.4883v469.3476"/><path d="m671 81.4883v469.3476"/><path d="m792 81.4883v469.3476"/><path d="m943 81.4883v469.3476"/><path d="m1089 81.4883v469.3476"/><path d="m1199 81.4883v469.3476"/><path d="m1316 81.4883v469.3476"/></g></g><text font-family="sans-serif" font-size="14" lengthAdjust="spacing" textLength="40" x="5" y="78.5352">Caller</text><ellipse cx="28" cy="13.5" fill="#e2e2f0" rx="8" ry="8" stroke="#181818" stroke-width=".5"/><path d="m28 21.5v27m-13-19h26m-13 19-13 15m13-15 13 15" fill="none" stroke="#181818" stroke-width=".5"/><text font-family="sans-serif" font-size="14" lengthAdjust="spacing" textLength="40" x="5" y="563.3711">Caller</text><ellipse cx="28" cy="574.8242" fill="#e2e2f0" rx="8" ry="8" stroke="#181818" stroke-width=".5"/><path d="m28 582.8242v27m-13-19h26m-13 19-13 15m13-15 13 15" fill="none" stroke="#181818" stroke-width=".5"/><rect fill="#e2e2f0" height="30.4883" rx="2.5" stroke="#181818" stroke-width=".5" width="141" x="81.5" y="50"/><text font-family="sans-serif" font-size="14" lengthAdjust="spacing" textLength="127" x="88.5" y="70.5352">NewServer(logger)</text><rect fill="#e2e2f0" height="30.4883" rx="2.5" stroke="#181818" stroke-width=".5" width="141" x="81.5" y="549.8359"/><text font-family="sans-serif" font-size="14" lengthAdjust="spacing" textLength="127" x="88.5" y="570.3711">NewServer(logger)</text><rect fill="#e2e2f0" height="30.4883" rx="2.5" stroke="#181818" stroke-width=".5" width="67" x="354.5" y="50"/><text font-family="sans-serif" font-size="14" lengthAdjust="spacing" textLength="53" x="361.5" y="70.5352">Init(ctx)</text><rect fill="#e2e2f0" height="30.4883" rx="2.5" stroke="#181818" stroke-width=".5" width="67" x="354.5" y="549.8359"/><text font-family="sans-serif" font-size="14" lengthAdjust="spacing" textLength="53" x="361.5" y="570.3711">Init(ctx)</text><rect fill="#e2e2f0" height="30.4883" rx="2.5" stroke="#181818" stroke-width=".5" width="77" x="484.5" y="50"/><text font-family="sans-serif" font-size="14" lengthAdjust="spacing" textLength="63" x="491.5" y="70.5352">Start(ctx)</text><rect fill="#e2e2f0" height="30.4883" rx="2.5" stroke="#181818" stroke-width=".5" width="77" x="484.5" y="549.8359"/><text font-family="sans-serif" font-size="14" lengthAdjust="spacing" textLength="63" x="491.5" y="570.3711">Start(ctx)</text><path d="m626 55h90c5 0 5 13.2441 5 13.2441s0 13.2442-5 13.2442h-90c-5 0-5-13.2442-5-13.2442s0-13.2441 5-13.2441" fill="#e2e2f0" stroke="#181818" stroke-width=".5"/><path d="m716 55c-5 0-5 13.2441-5 13.2441 0 13.2442 5 13.2442 5 13.2442" fill="none" stroke="#181818" stroke-width=".5"/><text font-family="sans-serif" font-size="14" lengthAdjust="spacing" textLength="80" x="626" y="73.5352">LibP2P Host</text><path d="m626 549.8359h90c5 0 5 13.2442 5 13.2442s0 13.2441-5 13.2441h-90c-5 0-5-13.2441-5-13.2441s0-13.2442 5-13.2442" fill="#e2e2f0" stroke="#181818" stroke-width=".5"/><path d="m716 549.8359c-5 0-5 13.2442-5 13.2442 0 13.2441 5 13.2441 5 13.2441" fill="none" stroke="#181818" stroke-width=".5"/><text font-family="sans-serif" font-size="14" lengthAdjust="spacing" textLength="80" x="626" y="568.3711">LibP2P Host</text><text font-family="sans-serif" font-size="14" lengthAdjust="spacing" textLength="117" x="731" y="78.5352">Blockchain Client</text><path d="m774.5 29c0-10 18-10 18-10s18 0 18 10v26c0 10-18 10-18 10s-18 0-18-10z" fill="#e2e2f0" stroke="#181818" stroke-width="1.5"/><path d="m774.5 29c0 10 18 10 18 10s18 0 18-10" fill="none" stroke="#181818" stroke-width="1.5"/><text font-family="sans-serif" font-size="14" lengthAdjust="spacing" textLength="117" x="731" y="563.3711">Blockchain Client</text><path d="m774.5 576.3242c0-10 18-10 18-10s18 0 18 10v26c0 10-18 10-18 10s-18 0-18-10z" fill="#e2e2f0" stroke="#181818" stroke-width="1.5"/><path d="m774.5 576.3242c0 10 18 10 18 10s18 0 18-10" fill="none" stroke="#181818" stroke-width="1.5"/><text font-family="sans-serif" font-size="14" lengthAdjust="spacing" textLength="153" x="864" y="78.5352">Block Validation Client</text><path d="m925.5 29c0-10 18-10 18-10s18 0 18 10v26c0 10-18 10-18 10s-18 0-18-10z" fill="#e2e2f0" stroke="#181818" stroke-width="1.5"/><path d="m925.5 29c0 10 18 10 18 10s18 0 18-10" fill="none" stroke="#181818" stroke-width="1.5"/><text font-family="sans-serif" font-size="14" lengthAdjust="spacing" textLength="153" x="864" y="563.3711">Block Validation Client</text><path d="m925.5 576.3242c0-10 18-10 18-10s18 0 18 10v26c0 10-18 10-18 10s-18 0-18-10z" fill="#e2e2f0" stroke="#181818" stroke-width="1.5"/><path d="m925.5 576.3242c0 10 18 10 18 10s18 0 18-10" fill="none" stroke="#181818" stroke-width="1.5"/><text font-family="sans-serif" font-size="14" lengthAdjust="spacing" textLength="106" x="1033" y="78.5352">Validator Client</text><path d="m1071 29c0-10 18-10 18-10s18 0 18 10v26c0 10-18 10-18 10s-18 0-18-10z" fill="#e2e2f0" stroke="#181818" stroke-width="1.5"/><path d="m1071 29c0 10 18 10 18 10s18 0 18-10" fill="none" stroke="#181818" stroke-width="1.5"/><text font-family="sans-serif" font-size="14" lengthAdjust="spacing" textLength="106" x="1033" y="563.3711">Validator Client</text><path d="m1071 576.3242c0-10 18-10 18-10s18 0 18 10v26c0 10-18 10-18 10s-18 0-18-10z" fill="#e2e2f0" stroke="#181818" stroke-width="1.5"/><path d="m1071 576.3242c0 10 18 10 18 10s18 0 18-10" fill="none" stroke="#181818" stroke-width="1.5"/><text font-family="sans-serif" font-size="14" lengthAdjust="spacing" textLength="83" x="1155" y="78.5352">HTTP Server</text><path d="m1181.5 29c0-10 18-10 18-10s18 0 18 10v26c0 10-18 10-18 10s-18 0-18-10z" fill="#e2e2f0" stroke="#181818" stroke-width="1.5"/><path d="m1181.5 29c0 10 18 10 18 10s18 0 18-10" fill="none" stroke="#181818" stroke-width="1.5"/><text font-family="sans-serif" font-size="14" lengthAdjust="spacing" textLength="83" x="1155" y="563.3711">HTTP Server</text><path d="m1181.5 576.3242c0-10 18-10 18-10s18 0 18 10v26c0 10-18 10-18 10s-18 0-18-10z" fill="#e2e2f0" stroke="#181818" stroke-width="1.5"/><path d="m1181.5 576.3242c0 10 18 10 18 10s18 0 18-10" fill="none" stroke="#181818" stroke-width="1.5"/><path d="m1259 55h114c5 0 5 13.2441 5 13.2441s0 13.2442-5 13.2442h-114c-5 0-5-13.2442-5-13.2442s0-13.2441 5-13.2441" fill="#e2e2f0" stroke="#181818" stroke-width=".5"/><path d="m1373 55c-5 0-5 13.2441-5 13.2441 0 13.2442 5 13.2442 5 13.2442" fill="none" stroke="#181818" stroke-width=".5"/><text font-family="sans-serif" font-size="14" lengthAdjust="spacing" textLength="104" x="1259" y="73.5352">PubSub System</text><path d="m1259 549.8359h114c5 0 5 13.2442 5 13.2442s0 13.2441-5 13.2441h-114c-5 0-5-13.2441-5-13.2441s0-13.2442 5-13.2442" fill="#e2e2f0" stroke="#181818" stroke-width=".5"/><path d="m1373 549.8359c-5 0-5 13.2442-5 13.2442 0 13.2441 5 13.2441 5 13.2441" fill="none" stroke="#181818" stroke-width=".5"/><text font-family="sans-serif" font-size="14" lengthAdjust="spacing" textLength="104" x="1259" y="568.3711">PubSub System</text><g stroke="#181818"><path d="m147 112.7988h10v64.6211h-10z" fill="#fff"/><path d="m383 213.7305h10v123.2422h-10z" fill="#fff"/><path d="m518 373.2832h10v152.5527h-10z" fill="#fff"/><path d="m135 108.7988 10 4-10 4 4-4z" fill="#181818"/><path d="m28 112.7988h113"/></g><text font-family="sans-serif" font-size="13" lengthAdjust="spacing" textLength="100" x="35" y="108.0566">Calls NewServer</text><path d="m659 138.1094 10 4-10 4 4-4z" fill="#181818" stroke="#181818"/><path d="m157 142.1094h508" stroke="#181818"/><text font-family="sans-serif" font-size="13" lengthAdjust="spacing" textLength="74" x="164" y="137.3672">Create Host</text><path d="m157 176.4199h42" stroke="#181818"/><path d="m199 176.4199v13" stroke="#181818"/><path d="m152 189.4199h47" stroke="#181818"/><path d="m162 185.4199-10 4 10 4-4-4z" fill="#181818" stroke="#181818"/><text font-family="sans-serif" font-size="13" lengthAdjust="spacing" textLength="212" x="164" y="171.6777">Set Topics &amp; Notification Channel</text><path d="m371 209.7305 10 4-10 4 4-4z" fill="#181818" stroke="#181818"/><path d="m28 213.7305h349" stroke="#181818"/><text font-family="sans-serif" font-size="13" lengthAdjust="spacing" textLength="56" x="35" y="208.9883">Calls Init</text><path d="m780.5 239.041 10 4-10 4 4-4z" fill="#181818" stroke="#181818"/><path d="m393 243.041h393.5" stroke="#181818"/><text font-family="sans-serif" font-size="13" lengthAdjust="spacing" textLength="81" x="400" y="238.2988">Create Client</text><path d="m931.5 268.3516 10 4-10 4 4-4z" fill="#181818" stroke="#181818"/><path d="m393 272.3516h544.5" stroke="#181818"/><text font-family="sans-serif" font-size="13" lengthAdjust="spacing" textLength="81" x="400" y="267.6094">Create Client</text><path d="m1077 297.6621 10 4-10 4 4-4z" fill="#181818" stroke="#181818"/><path d="m393 301.6621h690" stroke="#181818"/><text font-family="sans-serif" font-size="13" lengthAdjust="spacing" textLength="81" x="400" y="296.9199">Create Client</text><path d="m393 335.9727h42" stroke="#181818"/><path d="m435 335.9727v13" stroke="#181818"/><path d="m388 348.9727h47" stroke="#181818"/><path d="m398 344.9727-10 4 10 4-4-4z" fill="#181818" stroke="#181818"/><text font-family="sans-serif" font-size="13" lengthAdjust="spacing" textLength="111" x="400" y="331.2305">Set HTTP Address</text><path d="m506 369.2832 10 4-10 4 4-4z" fill="#181818" stroke="#181818"/><path d="m28 373.2832h484" stroke="#181818"/><text font-family="sans-serif" font-size="13" lengthAdjust="spacing" textLength="64" x="35" y="368.541">Calls Start</text><path d="m1187.5 398.5938 10 4-10 4 4-4z" fill="#181818" stroke="#181818"/><path d="m528 402.5938h665.5" stroke="#181818"/><text font-family="sans-serif" font-size="13" lengthAdjust="spacing" textLength="111" x="535" y="397.8516">Setup Echo Server</text><path d="m1304 427.9043 10 4-10 4 4-4z" fill="#181818" stroke="#181818"/><path d="m528 431.9043h782" stroke="#181818"/><text font-family="sans-serif" font-size="13" lengthAdjust="spacing" textLength="104" x="535" y="427.1621">Initialize PubSub</text><path d="m1304 457.2148 10 4-10 4 4-4z" fill="#181818" stroke="#181818"/><path d="m528 461.2148h782" stroke="#181818"/><text font-family="sans-serif" font-size="13" lengthAdjust="spacing" textLength="165" x="535" y="456.4727">Join &amp; Subscribe to Topics</text><path d="m659 486.5254 10 4-10 4 4-4z" fill="#181818" stroke="#181818"/><path d="m528 490.5254h137" stroke="#181818"/><text font-family="sans-serif" font-size="13" lengthAdjust="spacing" textLength="119" x="535" y="485.7832">Set Stream Handler</text><path d="m528 524.8359h42" stroke="#181818"/><path d="m570 524.8359v13" stroke="#181818"/><path d="m523 537.8359h47" stroke="#181818"/><path d="m533 533.8359-10 4 10 4-4-4z" fill="#181818" stroke="#181818"/><text font-family="sans-serif" font-size="13" lengthAdjust="spacing" textLength="102" x="535" y="520.0938">Start Goroutines</text></svg>
