<svg contentStyleType="text/css" height="795" preserveAspectRatio="none" viewBox="0 0 1164 795" width="1164" xmlns="http://www.w3.org/2000/svg" zoomAndPan="magnify"><g stroke="#181818"><g fill="#fff"><path d="m319 128.1094h10v175.8633h-10z"/><path d="m319 376.5938h10v130.2422h-10z"/><path d="m319 579.457h10v130.2422h-10z"/></g><g stroke-width=".5"><g stroke-dasharray="5 5"><path d="m52 53.4883v674.2109"/><path d="m323.5 53.4883v674.2109"/><path d="m611 53.4883v674.2109"/><path d="m680 53.4883v674.2109"/><path d="m782 53.4883v674.2109"/><path d="m919 53.4883v674.2109"/><path d="m1024 53.4883v674.2109"/><path d="m1109 53.4883v674.2109"/></g><rect fill="#e2e2f0" height="30.4883" rx="2.5" width="94" x="5" y="22"/></g></g><text font-family="sans-serif" font-size="14" lengthAdjust="spacing" textLength="80" x="12" y="42.5352">Client Code</text><rect fill="#e2e2f0" height="30.4883" rx="2.5" stroke="#181818" stroke-width=".5" width="94" x="5" y="726.6992"/><text font-family="sans-serif" font-size="14" lengthAdjust="spacing" textLength="80" x="12" y="747.2344">Client Code</text><rect fill="#e2e2f0" height="30.4883" rx="2.5" stroke="#181818" stroke-width=".5" width="115" x="266.5" y="22"/><text font-family="sans-serif" font-size="14" lengthAdjust="spacing" textLength="101" x="273.5" y="42.5352">BlockAssembly</text><rect fill="#e2e2f0" height="30.4883" rx="2.5" stroke="#181818" stroke-width=".5" width="115" x="266.5" y="726.6992"/><text font-family="sans-serif" font-size="14" lengthAdjust="spacing" textLength="101" x="273.5" y="747.2344">BlockAssembly</text><rect fill="#e2e2f0" height="30.4883" rx="2.5" stroke="#181818" stroke-width=".5" width="62" x="580" y="22"/><text font-family="sans-serif" font-size="14" lengthAdjust="spacing" textLength="48" x="587" y="42.5352">Logger</text><rect fill="#e2e2f0" height="30.4883" rx="2.5" stroke="#181818" stroke-width=".5" width="62" x="580" y="726.6992"/><text font-family="sans-serif" font-size="14" lengthAdjust="spacing" textLength="48" x="587" y="747.2344">Logger</text><rect fill="#e2e2f0" height="30.4883" rx="2.5" stroke="#181818" stroke-width=".5" width="57" x="652" y="22"/><text font-family="sans-serif" font-size="14" lengthAdjust="spacing" textLength="43" x="659" y="42.5352">Stores</text><rect fill="#e2e2f0" height="30.4883" rx="2.5" stroke="#181818" stroke-width=".5" width="57" x="652" y="726.6992"/><text font-family="sans-serif" font-size="14" lengthAdjust="spacing" textLength="43" x="659" y="747.2344">Stores</text><rect fill="#e2e2f0" height="30.4883" rx="2.5" stroke="#181818" stroke-width=".5" width="127" x="719" y="22"/><text font-family="sans-serif" font-size="14" lengthAdjust="spacing" textLength="113" x="726" y="42.5352">BlockchainClient</text><rect fill="#e2e2f0" height="30.4883" rx="2.5" stroke="#181818" stroke-width=".5" width="127" x="719" y="726.6992"/><text font-family="sans-serif" font-size="14" lengthAdjust="spacing" textLength="113" x="726" y="747.2344">BlockchainClient</text><text font-family="sans-serif" font-size="14" lengthAdjust="spacing" textLength="120" x="856" y="50.5352">SubtreeProcessor</text><ellipse cx="919" cy="21" fill="#e2e2f0" rx="12" ry="12" stroke="#181818" stroke-width=".5"/><path d="m907 35h24" stroke="#181818" stroke-width=".5"/><text font-family="sans-serif" font-size="14" lengthAdjust="spacing" textLength="120" x="856" y="740.2344">SubtreeProcessor</text><ellipse cx="919" cy="759.1875" fill="#e2e2f0" rx="12" ry="12" stroke="#181818" stroke-width=".5"/><path d="m907 773.1875h24" stroke="#181818" stroke-width=".5"/><text font-family="sans-serif" font-size="14" lengthAdjust="spacing" textLength="58" x="992" y="50.5352">JobStore</text><ellipse cx="1024" cy="21" fill="#e2e2f0" rx="12" ry="12" stroke="#181818" stroke-width=".5"/><path d="m1012 35h24" stroke="#181818" stroke-width=".5"/><text font-family="sans-serif" font-size="14" lengthAdjust="spacing" textLength="58" x="992" y="740.2344">JobStore</text><ellipse cx="1024" cy="759.1875" fill="#e2e2f0" rx="12" ry="12" stroke="#181818" stroke-width=".5"/><path d="m1012 773.1875h24" stroke="#181818" stroke-width=".5"/><text font-family="sans-serif" font-size="14" lengthAdjust="spacing" textLength="80" x="1066" y="50.5352">GRPCServer</text><ellipse cx="1109" cy="21" fill="#e2e2f0" rx="12" ry="12" stroke="#181818" stroke-width=".5"/><path d="m1097 35h24" stroke="#181818" stroke-width=".5"/><text font-family="sans-serif" font-size="14" lengthAdjust="spacing" textLength="80" x="1066" y="740.2344">GRPCServer</text><g stroke="#181818"><ellipse cx="1109" cy="759.1875" fill="#e2e2f0" rx="12" ry="12" stroke-width=".5"/><path d="m1097 773.1875h24" stroke-width=".5"/><g fill="#fff"><path d="m319 128.1094h10v175.8633h-10z"/><path d="m319 376.5938h10v130.2422h-10z"/><path d="m319 579.457h10v130.2422h-10z"/></g></g><path d="m0 84.1436h1157v3h-1157z" fill="#eee" stroke="#eee"/><path d="m0 84.1436h1157" stroke="#000"/><path d="m0 87.1436h1157" stroke="#000"/><path d="m555 73.4883h47v23.3105h-47z" fill="#eee" stroke="#000" stroke-width="2"/><text font-family="sans-serif" font-size="13" font-weight="bold" lengthAdjust="spacing" textLength="29" x="561" y="90.0566">New</text><path d="m307 124.1094 10 4-10 4 4-4z" fill="#181818" stroke="#181818"/><path d="m52 128.1094h261" stroke="#181818"/><text font-family="sans-serif" font-size="13" lengthAdjust="spacing" textLength="248" x="59" y="123.3672">New(logger, stores, blockchainClient...)</text><path d="m599 153.4199 10 4-10 4 4-4z" fill="#181818" stroke="#181818"/><path d="m329 157.4199h276" stroke="#181818"/><text font-family="sans-serif" font-size="13" lengthAdjust="spacing" textLength="98" x="336" y="152.6777">Initialize logger</text><path d="m668.5 182.7305 10 4-10 4 4-4z" fill="#181818" stroke="#181818"/><path d="m329 186.7305h345.5" stroke="#181818"/><text font-family="sans-serif" font-size="13" lengthAdjust="spacing" textLength="254" x="336" y="181.9883">Initialize stores (txStore, utxoStore, etc.)</text><path d="m770.5 212.041 10 4-10 4 4-4z" fill="#181818" stroke="#181818"/><path d="m329 216.041h447.5" stroke="#181818"/><text font-family="sans-serif" font-size="13" lengthAdjust="spacing" textLength="166" x="336" y="211.2988">Initialize blockchain client</text><path d="m907 241.3516 10 4-10 4 4-4z" fill="#181818" stroke="#181818"/><path d="m329 245.3516h584" stroke="#181818"/><text font-family="sans-serif" font-size="13" lengthAdjust="spacing" textLength="171" x="336" y="240.6094">Initialize subtree processor</text><path d="m1012 270.6621 10 4-10 4 4-4z" fill="#181818" stroke="#181818"/><path d="m329 274.6621h689" stroke="#181818"/><text font-family="sans-serif" font-size="13" lengthAdjust="spacing" textLength="114" x="336" y="269.9199">Initialize job store</text><path d="m63 299.9727-10 4 10 4-4-4z" fill="#181818" stroke="#181818"/><path d="m57 303.9727h266" stroke="#181818" stroke-dasharray="2 2"/><text font-family="sans-serif" font-size="13" lengthAdjust="spacing" textLength="98" x="69" y="299.2305">Return instance</text><path d="m0 332.6279h1157v3h-1157z" fill="#eee" stroke="#eee"/><path d="m0 332.6279h1157" stroke="#000"/><path d="m0 335.6279h1157" stroke="#000"/><path d="m558.5 321.9727h40v23.3105h-40z" fill="#eee" stroke="#000" stroke-width="2"/><text font-family="sans-serif" font-size="13" font-weight="bold" lengthAdjust="spacing" textLength="22" x="564.5" y="338.541">Init</text><path d="m307 372.5938 10 4-10 4 4-4z" fill="#181818" stroke="#181818"/><path d="m52 376.5938h261" stroke="#181818"/><text font-family="sans-serif" font-size="13" lengthAdjust="spacing" textLength="49" x="59" y="371.8516">Init(ctx)</text><g stroke="#181818"><path d="m329 405.9043h42"/><path d="m371 405.9043v13"/><path d="m330 418.9043h41"/><path d="m340 414.9043-10 4 10 4-4-4z" fill="#181818"/></g><text font-family="sans-serif" font-size="13" lengthAdjust="spacing" textLength="147" x="336" y="401.1621">Setup internal channels</text><path d="m907 444.2148 10 4-10 4 4-4z" fill="#181818" stroke="#181818"/><path d="m329 448.2148h584" stroke="#181818"/><text font-family="sans-serif" font-size="13" lengthAdjust="spacing" textLength="146" x="336" y="443.4727">Start subtree processor</text><path d="m1012 473.5254 10 4-10 4 4-4z" fill="#181818" stroke="#181818"/><path d="m329 477.5254h689" stroke="#181818"/><text font-family="sans-serif" font-size="13" lengthAdjust="spacing" textLength="89" x="336" y="472.7832">Start job store</text><path d="m63 502.8359-10 4 10 4-4-4z" fill="#181818" stroke="#181818"/><path d="m57 506.8359h266" stroke="#181818" stroke-dasharray="2 2"/><text font-family="sans-serif" font-size="13" lengthAdjust="spacing" textLength="141" x="69" y="502.0938">Initialization complete</text><path d="m0 535.4912h1157v3h-1157z" fill="#eee" stroke="#eee"/><path d="m0 535.4912h1157" stroke="#000"/><path d="m0 538.4912h1157" stroke="#000"/><path d="m554 524.8359h49v23.3105h-49z" fill="#eee" stroke="#000" stroke-width="2"/><text font-family="sans-serif" font-size="13" font-weight="bold" lengthAdjust="spacing" textLength="31" x="560" y="541.4043">Start</text><path d="m307 575.457 10 4-10 4 4-4z" fill="#181818" stroke="#181818"/><path d="m52 579.457h261" stroke="#181818"/><text font-family="sans-serif" font-size="13" lengthAdjust="spacing" textLength="57" x="59" y="574.7148">Start(ctx)</text><path d="m1097 604.7676 10 4-10 4 4-4z" fill="#181818" stroke="#181818"/><path d="m329 608.7676h774" stroke="#181818"/><text font-family="sans-serif" font-size="13" lengthAdjust="spacing" textLength="107" x="336" y="604.0254">Start gRPC server</text><path d="m340 634.0781-10 4 10 4-4-4z" fill="#181818" stroke="#181818"/><path d="m334 638.0781h774" stroke="#181818"/><text font-family="sans-serif" font-size="13" lengthAdjust="spacing" textLength="201" x="346" y="633.3359">Register block assembly service</text><path d="m329 667.3887h42" stroke="#181818"/><path d="m371 667.3887v13" stroke="#181818"/><path d="m330 680.3887h41" stroke="#181818"/><path d="m340 676.3887-10 4 10 4-4-4z" fill="#181818" stroke="#181818"/><text font-family="sans-serif" font-size="13" lengthAdjust="spacing" textLength="263" x="336" y="662.6465">Start internal listeners (Kafka, gRPC, fRPC)</text><path d="m63 705.6992-10 4 10 4-4-4z" fill="#181818" stroke="#181818"/><path d="m57 709.6992h266" stroke="#181818" stroke-dasharray="2 2"/><text font-family="sans-serif" font-size="13" lengthAdjust="spacing" textLength="91" x="69" y="704.957">Start complete</text><text fill="#888" font-family="sans-serif" font-size="10" lengthAdjust="spacing" textLength="152" y="785.8555">Last Modified On: 10-Jan-2024</text></svg>
