<?xml version="1.0" encoding="us-ascii" standalone="no"?><svg xmlns="http://www.w3.org/2000/svg" xmlns:xlink="http://www.w3.org/1999/xlink" contentStyleType="text/css" height="1119px" preserveAspectRatio="none" style="width:2204px;height:1119px;background:#FFFFFF;" version="1.1" viewBox="0 0 2204 1119" width="2204px" zoomAndPan="magnify"><defs/><g><rect fill="#FFFFFF" height="882.0059" style="stroke:#181818;stroke-width:1.0;" width="10" x="281.5" y="141.1094"/><rect fill="#FFFFFF" height="823.3848" style="stroke:#181818;stroke-width:1.0;" width="10" x="537.5" y="170.4199"/><rect fill="#FFFFFF" height="29.3105" style="stroke:#181818;stroke-width:1.0;" width="10" x="966" y="258.3516"/><rect fill="#FFFFFF" height="29.3105" style="stroke:#181818;stroke-width:1.0;" width="10" x="1029" y="359.2832"/><rect fill="#FFFFFF" height="58.6211" style="stroke:#181818;stroke-width:1.0;" width="10" x="1084" y="750.3203"/><rect fill="#FFFFFF" height="29.3105" style="stroke:#181818;stroke-width:1.0;" width="10" x="1263.5" y="417.9043"/><rect fill="#FFFFFF" height="29.3105" style="stroke:#181818;stroke-width:1.0;" width="10" x="1539" y="476.5254"/><rect fill="#FFFFFF" height="102.9316" style="stroke:#181818;stroke-width:1.0;" width="10" x="1680.5" y="593.7676"/><rect fill="#FFFFFF" height="29.3105" style="stroke:#181818;stroke-width:1.0;" width="10" x="2117.5" y="535.1465"/><rect fill="#FFFFFF" height="29.3105" style="stroke:#181818;stroke-width:1.0;" width="10" x="2117.5" y="928.1836"/><rect fill="none" height="59.6211" style="stroke:#000000;stroke-width:1.5;" width="496.5" x="1626" y="608.7676"/><rect fill="none" height="105.2422" style="stroke:#000000;stroke-width:1.5;" width="1186.5" x="449.5" y="711.6992"/><rect fill="none" height="75.9316" style="stroke:#000000;stroke-width:1.5;" width="1748.5" x="449.5" y="889.5625"/><line style="stroke:#181818;stroke-width:0.5;stroke-dasharray:5.0,5.0;" x1="35" x2="35" y1="67.4883" y2="1041.1152"/><line style="stroke:#181818;stroke-width:0.5;stroke-dasharray:5.0,5.0;" x1="286" x2="286" y1="67.4883" y2="1041.1152"/><line style="stroke:#181818;stroke-width:0.5;stroke-dasharray:5.0,5.0;" x1="542.5" x2="542.5" y1="67.4883" y2="1041.1152"/><line style="stroke:#181818;stroke-width:0.5;stroke-dasharray:5.0,5.0;" x1="854" x2="854" y1="67.4883" y2="1041.1152"/><line style="stroke:#181818;stroke-width:0.5;stroke-dasharray:5.0,5.0;" x1="971" x2="971" y1="67.4883" y2="1041.1152"/><line style="stroke:#181818;stroke-width:0.5;stroke-dasharray:5.0,5.0;" x1="1034" x2="1034" y1="67.4883" y2="1041.1152"/><line style="stroke:#181818;stroke-width:0.5;stroke-dasharray:5.0,5.0;" x1="1089" x2="1089" y1="67.4883" y2="1041.1152"/><line style="stroke:#181818;stroke-width:0.5;stroke-dasharray:5.0,5.0;" x1="1268" x2="1268" y1="67.4883" y2="1041.1152"/><line style="stroke:#181818;stroke-width:0.5;stroke-dasharray:5.0,5.0;" x1="1544" x2="1544" y1="67.4883" y2="1041.1152"/><line style="stroke:#181818;stroke-width:0.5;stroke-dasharray:5.0,5.0;" x1="1685" x2="1685" y1="67.4883" y2="1041.1152"/><line style="stroke:#181818;stroke-width:0.5;stroke-dasharray:5.0,5.0;" x1="2122" x2="2122" y1="67.4883" y2="1041.1152"/><rect fill="#E2E2F0" height="30.4883" rx="2.5" ry="2.5" style="stroke:#181818;stroke-width:0.5;" width="61" x="5" y="36"/><text fill="#000000" font-family="sans-serif" font-size="14" lengthAdjust="spacing" textLength="47" x="12" y="56.5352">Mining</text><rect fill="#E2E2F0" height="30.4883" rx="2.5" ry="2.5" style="stroke:#181818;stroke-width:0.5;" width="61" x="5" y="1040.1152"/><text fill="#000000" font-family="sans-serif" font-size="14" lengthAdjust="spacing" textLength="47" x="12" y="1060.6504">Mining</text><rect fill="#E2E2F0" height="30.4883" rx="2.5" ry="2.5" style="stroke:#181818;stroke-width:0.5;" width="163" x="205" y="36"/><text fill="#000000" font-family="sans-serif" font-size="14" lengthAdjust="spacing" textLength="149" x="212" y="56.5352">Block Assembly Client</text><rect fill="#E2E2F0" height="30.4883" rx="2.5" ry="2.5" style="stroke:#181818;stroke-width:0.5;" width="163" x="205" y="1040.1152"/><text fill="#000000" font-family="sans-serif" font-size="14" lengthAdjust="spacing" textLength="149" x="212" y="1060.6504">Block Assembly Client</text><rect fill="#E2E2F0" height="30.4883" rx="2.5" ry="2.5" style="stroke:#181818;stroke-width:0.5;" width="166" x="459.5" y="36"/><text fill="#000000" font-family="sans-serif" font-size="14" lengthAdjust="spacing" textLength="152" x="466.5" y="56.5352">Block Assembly Server</text><rect fill="#E2E2F0" height="30.4883" rx="2.5" ry="2.5" style="stroke:#181818;stroke-width:0.5;" width="166" x="459.5" y="1040.1152"/><text fill="#000000" font-family="sans-serif" font-size="14" lengthAdjust="spacing" textLength="152" x="466.5" y="1060.6504">Block Assembly Server</text><rect fill="#E2E2F0" height="30.4883" rx="2.5" ry="2.5" style="stroke:#181818;stroke-width:0.5;" width="149" x="780" y="36"/><text fill="#000000" font-family="sans-serif" font-size="14" lengthAdjust="spacing" textLength="135" x="787" y="56.5352">blockSubmissionCh</text><rect fill="#E2E2F0" height="30.4883" rx="2.5" ry="2.5" style="stroke:#181818;stroke-width:0.5;" width="149" x="780" y="1040.1152"/><text fill="#000000" font-family="sans-serif" font-size="14" lengthAdjust="spacing" textLength="135" x="787" y="1060.6504">blockSubmissionCh</text><text fill="#000000" font-family="sans-serif" font-size="14" lengthAdjust="spacing" textLength="58" x="939" y="64.5352">JobStore</text><path d="M953,15 C953,5 971,5 971,5 C971,5 989,5 989,15 L989,41 C989,51 971,51 971,51 C971,51 953,51 953,41 L953,15 " fill="#E2E2F0" style="stroke:#181818;stroke-width:1.5;"/><path d="M953,15 C953,25 971,25 971,25 C971,25 989,25 989,15 " fill="none" style="stroke:#181818;stroke-width:1.5;"/><text fill="#000000" font-family="sans-serif" font-size="14" lengthAdjust="spacing" textLength="58" x="939" y="1053.6504">JobStore</text><path d="M953,1066.6035 C953,1056.6035 971,1056.6035 971,1056.6035 C971,1056.6035 989,1056.6035 989,1066.6035 L989,1092.6035 C989,1102.6035 971,1102.6035 971,1102.6035 C971,1102.6035 953,1102.6035 953,1092.6035 L953,1066.6035 " fill="#E2E2F0" style="stroke:#181818;stroke-width:1.5;"/><path d="M953,1066.6035 C953,1076.6035 971,1076.6035 971,1076.6035 C971,1076.6035 989,1076.6035 989,1066.6035 " fill="none" style="stroke:#181818;stroke-width:1.5;"/><text fill="#000000" font-family="sans-serif" font-size="14" lengthAdjust="spacing" textLength="36" x="1013" y="64.5352">Block</text><ellipse cx="1034" cy="35" fill="#E2E2F0" rx="12" ry="12" style="stroke:#181818;stroke-width:0.5;"/><line style="stroke:#181818;stroke-width:0.5;" x1="1022" x2="1046" y1="49" y2="49"/><text fill="#000000" font-family="sans-serif" font-size="14" lengthAdjust="spacing" textLength="36" x="1013" y="1053.6504">Block</text><ellipse cx="1034" cy="1072.6035" fill="#E2E2F0" rx="12" ry="12" style="stroke:#181818;stroke-width:0.5;"/><line style="stroke:#181818;stroke-width:0.5;" x1="1022" x2="1046" y1="1086.6035" y2="1086.6035"/><text fill="#000000" font-family="sans-serif" font-size="14" lengthAdjust="spacing" textLength="42" x="1065" y="64.5352">Model</text><ellipse cx="1089" cy="35" fill="#E2E2F0" rx="12" ry="12" style="stroke:#181818;stroke-width:0.5;"/><line style="stroke:#181818;stroke-width:0.5;" x1="1077" x2="1101" y1="49" y2="49"/><text fill="#000000" font-family="sans-serif" font-size="14" lengthAdjust="spacing" textLength="42" x="1065" y="1053.6504">Model</text><ellipse cx="1089" cy="1072.6035" fill="#E2E2F0" rx="12" ry="12" style="stroke:#181818;stroke-width:0.5;"/><line style="stroke:#181818;stroke-width:0.5;" x1="1077" x2="1101" y1="1086.6035" y2="1086.6035"/><text fill="#000000" font-family="sans-serif" font-size="14" lengthAdjust="spacing" textLength="121" x="1205" y="64.5352">Transaction Store</text><path d="M1250.5,15 C1250.5,5 1268.5,5 1268.5,5 C1268.5,5 1286.5,5 1286.5,15 L1286.5,41 C1286.5,51 1268.5,51 1268.5,51 C1268.5,51 1250.5,51 1250.5,41 L1250.5,15 " fill="#E2E2F0" style="stroke:#181818;stroke-width:1.5;"/><path d="M1250.5,15 C1250.5,25 1268.5,25 1268.5,25 C1268.5,25 1286.5,25 1286.5,15 " fill="none" style="stroke:#181818;stroke-width:1.5;"/><text fill="#000000" font-family="sans-serif" font-size="14" lengthAdjust="spacing" textLength="121" x="1205" y="1053.6504">Transaction Store</text><path d="M1250.5,1066.6035 C1250.5,1056.6035 1268.5,1056.6035 1268.5,1056.6035 C1268.5,1056.6035 1286.5,1056.6035 1286.5,1066.6035 L1286.5,1092.6035 C1286.5,1102.6035 1268.5,1102.6035 1268.5,1102.6035 C1268.5,1102.6035 1250.5,1102.6035 1250.5,1092.6035 L1250.5,1066.6035 " fill="#E2E2F0" style="stroke:#181818;stroke-width:1.5;"/><path d="M1250.5,1066.6035 C1250.5,1076.6035 1268.5,1076.6035 1268.5,1076.6035 C1268.5,1076.6035 1286.5,1076.6035 1286.5,1066.6035 " fill="none" style="stroke:#181818;stroke-width:1.5;"/><text fill="#000000" font-family="sans-serif" font-size="14" lengthAdjust="spacing" textLength="158" x="1462" y="64.5352">Transaction Meta Store</text><path d="M1526,15 C1526,5 1544,5 1544,5 C1544,5 1562,5 1562,15 L1562,41 C1562,51 1544,51 1544,51 C1544,51 1526,51 1526,41 L1526,15 " fill="#E2E2F0" style="stroke:#181818;stroke-width:1.5;"/><path d="M1526,15 C1526,25 1544,25 1544,25 C1544,25 1562,25 1562,15 " fill="none" style="stroke:#181818;stroke-width:1.5;"/><text fill="#000000" font-family="sans-serif" font-size="14" lengthAdjust="spacing" textLength="158" x="1462" y="1053.6504">Transaction Meta Store</text><path d="M1526,1066.6035 C1526,1056.6035 1544,1056.6035 1544,1056.6035 C1544,1056.6035 1562,1056.6035 1562,1066.6035 L1562,1092.6035 C1562,1102.6035 1544,1102.6035 1544,1102.6035 C1544,1102.6035 1526,1102.6035 1526,1092.6035 L1526,1066.6035 " fill="#E2E2F0" style="stroke:#181818;stroke-width:1.5;"/><path d="M1526,1066.6035 C1526,1076.6035 1544,1076.6035 1544,1076.6035 C1544,1076.6035 1562,1076.6035 1562,1066.6035 " fill="none" style="stroke:#181818;stroke-width:1.5;"/><text fill="#000000" font-family="sans-serif" font-size="14" lengthAdjust="spacing" textLength="93" x="1636" y="64.5352">Subtree Store</text><path d="M1667.5,15 C1667.5,5 1685.5,5 1685.5,5 C1685.5,5 1703.5,5 1703.5,15 L1703.5,41 C1703.5,51 1685.5,51 1685.5,51 C1685.5,51 1667.5,51 1667.5,41 L1667.5,15 " fill="#E2E2F0" style="stroke:#181818;stroke-width:1.5;"/><path d="M1667.5,15 C1667.5,25 1685.5,25 1685.5,25 C1685.5,25 1703.5,25 1703.5,15 " fill="none" style="stroke:#181818;stroke-width:1.5;"/><text fill="#000000" font-family="sans-serif" font-size="14" lengthAdjust="spacing" textLength="93" x="1636" y="1053.6504">Subtree Store</text><path d="M1667.5,1066.6035 C1667.5,1056.6035 1685.5,1056.6035 1685.5,1056.6035 C1685.5,1056.6035 1703.5,1056.6035 1703.5,1066.6035 L1703.5,1092.6035 C1703.5,1102.6035 1685.5,1102.6035 1685.5,1102.6035 C1685.5,1102.6035 1667.5,1102.6035 1667.5,1092.6035 L1667.5,1066.6035 " fill="#E2E2F0" style="stroke:#181818;stroke-width:1.5;"/><path d="M1667.5,1066.6035 C1667.5,1076.6035 1685.5,1076.6035 1685.5,1076.6035 C1685.5,1076.6035 1703.5,1076.6035 1703.5,1066.6035 " fill="none" style="stroke:#181818;stroke-width:1.5;"/><rect fill="#E2E2F0" height="30.4883" rx="2.5" ry="2.5" style="stroke:#181818;stroke-width:0.5;" width="131" x="2057" y="36"/><text fill="#000000" font-family="sans-serif" font-size="14" lengthAdjust="spacing" textLength="117" x="2064" y="56.5352">Blockchain Client</text><rect fill="#E2E2F0" height="30.4883" rx="2.5" ry="2.5" style="stroke:#181818;stroke-width:0.5;" width="131" x="2057" y="1040.1152"/><text fill="#000000" font-family="sans-serif" font-size="14" lengthAdjust="spacing" textLength="117" x="2064" y="1060.6504">Blockchain Client</text><rect fill="#FFFFFF" height="882.0059" style="stroke:#181818;stroke-width:1.0;" width="10" x="281.5" y="141.1094"/><rect fill="#FFFFFF" height="823.3848" style="stroke:#181818;stroke-width:1.0;" width="10" x="537.5" y="170.4199"/><rect fill="#FFFFFF" height="29.3105" style="stroke:#181818;stroke-width:1.0;" width="10" x="966" y="258.3516"/><rect fill="#FFFFFF" height="29.3105" style="stroke:#181818;stroke-width:1.0;" width="10" x="1029" y="359.2832"/><rect fill="#FFFFFF" height="58.6211" style="stroke:#181818;stroke-width:1.0;" width="10" x="1084" y="750.3203"/><rect fill="#FFFFFF" height="29.3105" style="stroke:#181818;stroke-width:1.0;" width="10" x="1263.5" y="417.9043"/><rect fill="#FFFFFF" height="29.3105" style="stroke:#181818;stroke-width:1.0;" width="10" x="1539" y="476.5254"/><rect fill="#FFFFFF" height="102.9316" style="stroke:#181818;stroke-width:1.0;" width="10" x="1680.5" y="593.7676"/><rect fill="#FFFFFF" height="29.3105" style="stroke:#181818;stroke-width:1.0;" width="10" x="2117.5" y="535.1465"/><rect fill="#FFFFFF" height="29.3105" style="stroke:#181818;stroke-width:1.0;" width="10" x="2117.5" y="928.1836"/><line style="stroke:#181818;stroke-width:1.0;" x1="35.5" x2="77.5" y1="98.7988" y2="98.7988"/><line style="stroke:#181818;stroke-width:1.0;" x1="77.5" x2="77.5" y1="98.7988" y2="111.7988"/><line style="stroke:#181818;stroke-width:1.0;" x1="36.5" x2="77.5" y1="111.7988" y2="111.7988"/><polygon fill="#181818" points="46.5,107.7988,36.5,111.7988,46.5,115.7988,42.5,111.7988" style="stroke:#181818;stroke-width:1.0;"/><text fill="#000000" font-family="sans-serif" font-size="13" lengthAdjust="spacing" textLength="169" x="42.5" y="94.0566">Solve the mining challenge</text><polygon fill="#181818" points="269.5,137.1094,279.5,141.1094,269.5,145.1094,273.5,141.1094" style="stroke:#181818;stroke-width:1.0;"/><line style="stroke:#181818;stroke-width:1.0;" x1="35.5" x2="275.5" y1="141.1094" y2="141.1094"/><text fill="#000000" font-family="sans-serif" font-size="13" lengthAdjust="spacing" textLength="227" x="42.5" y="136.3672">SubmitMiningSolution(ctx, solution)</text><polygon fill="#181818" points="525.5,166.4199,535.5,170.4199,525.5,174.4199,529.5,170.4199" style="stroke:#181818;stroke-width:1.0;"/><line style="stroke:#181818;stroke-width:1.0;" x1="291.5" x2="531.5" y1="170.4199" y2="170.4199"/><text fill="#000000" font-family="sans-serif" font-size="13" lengthAdjust="spacing" textLength="227" x="298.5" y="165.6777">SubmitMiningSolution(ctx, solution)</text><polygon fill="#181818" points="842.5,195.7305,852.5,199.7305,842.5,203.7305,846.5,199.7305" style="stroke:#181818;stroke-width:1.0;"/><line style="stroke:#181818;stroke-width:1.0;" x1="547.5" x2="848.5" y1="199.7305" y2="199.7305"/><text fill="#000000" font-family="sans-serif" font-size="13" lengthAdjust="spacing" textLength="141" x="554.5" y="194.9883">Add block submission</text><polygon fill="#181818" points="558.5,225.041,548.5,229.041,558.5,233.041,554.5,229.041" style="stroke:#181818;stroke-width:1.0;"/><line style="stroke:#181818;stroke-width:1.0;" x1="552.5" x2="853.5" y1="229.041" y2="229.041"/><text fill="#000000" font-family="sans-serif" font-size="13" lengthAdjust="spacing" textLength="283" x="564.5" y="224.2988">submitMiningSolution(ctx, blockSubmission)</text><polygon fill="#181818" points="954,254.3516,964,258.3516,954,262.3516,958,258.3516" style="stroke:#181818;stroke-width:1.0;"/><line style="stroke:#181818;stroke-width:1.0;" x1="547.5" x2="960" y1="258.3516" y2="258.3516"/><text fill="#000000" font-family="sans-serif" font-size="13" lengthAdjust="spacing" textLength="145" x="554.5" y="253.6094">jobItem = Get(*storeId)</text><polygon fill="#181818" points="558.5,283.6621,548.5,287.6621,558.5,291.6621,554.5,287.6621" style="stroke:#181818;stroke-width:1.0;"/><line style="stroke:#181818;stroke-width:1.0;stroke-dasharray:2.0,2.0;" x1="552.5" x2="970" y1="287.6621" y2="287.6621"/><text fill="#000000" font-family="sans-serif" font-size="13" lengthAdjust="spacing" textLength="90" x="564.5" y="282.9199">return jobItem</text><line style="stroke:#181818;stroke-width:1.0;" x1="547.5" x2="589.5" y1="316.9727" y2="316.9727"/><line style="stroke:#181818;stroke-width:1.0;" x1="589.5" x2="589.5" y1="316.9727" y2="329.9727"/><line style="stroke:#181818;stroke-width:1.0;" x1="548.5" x2="589.5" y1="329.9727" y2="329.9727"/><polygon fill="#181818" points="558.5,325.9727,548.5,329.9727,558.5,333.9727,554.5,329.9727" style="stroke:#181818;stroke-width:1.0;"/><text fill="#000000" font-family="sans-serif" font-size="13" lengthAdjust="spacing" textLength="229" x="554.5" y="312.2305">Create new block with proof of work</text><polygon fill="#181818" points="1017,355.2832,1027,359.2832,1017,363.2832,1021,359.2832" style="stroke:#181818;stroke-width:1.0;"/><line style="stroke:#181818;stroke-width:1.0;" x1="547.5" x2="1023" y1="359.2832" y2="359.2832"/><text fill="#000000" font-family="sans-serif" font-size="13" lengthAdjust="spacing" textLength="183" x="554.5" y="354.541">block.Valid(cntxt, nil, nil, nil)</text><polygon fill="#181818" points="558.5,384.5938,548.5,388.5938,558.5,392.5938,554.5,388.5938" style="stroke:#181818;stroke-width:1.0;"/><line style="stroke:#181818;stroke-width:1.0;stroke-dasharray:2.0,2.0;" x1="552.5" x2="1033" y1="388.5938" y2="388.5938"/><text fill="#000000" font-family="sans-serif" font-size="13" lengthAdjust="spacing" textLength="103" x="564.5" y="383.8516">Validation result</text><polygon fill="#181818" points="1251.5,413.9043,1261.5,417.9043,1251.5,421.9043,1255.5,417.9043" style="stroke:#181818;stroke-width:1.0;"/><line style="stroke:#181818;stroke-width:1.0;" x1="547.5" x2="1257.5" y1="417.9043" y2="417.9043"/><text fill="#000000" font-family="sans-serif" font-size="13" lengthAdjust="spacing" textLength="697" x="554.5" y="413.1621">Set(context.Background(), block.CoinbaseTx.TxIDChainHash().CloneBytes(), block.CoinbaseTx.ExtendedBytes())</text><polygon fill="#181818" points="558.5,443.2148,548.5,447.2148,558.5,451.2148,554.5,447.2148" style="stroke:#181818;stroke-width:1.0;"/><line style="stroke:#181818;stroke-width:1.0;stroke-dasharray:2.0,2.0;" x1="552.5" x2="1267.5" y1="447.2148" y2="447.2148"/><text fill="#000000" font-family="sans-serif" font-size="13" lengthAdjust="spacing" textLength="180" x="564.5" y="442.4727">Coinbase Transaction stored</text><polygon fill="#181818" points="1527,472.5254,1537,476.5254,1527,480.5254,1531,476.5254" style="stroke:#181818;stroke-width:1.0;"/><line style="stroke:#181818;stroke-width:1.0;" x1="547.5" x2="1533" y1="476.5254" y2="476.5254"/><text fill="#000000" font-family="sans-serif" font-size="13" lengthAdjust="spacing" textLength="202" x="554.5" y="471.7832">Create(cntxt, block.CoinbaseTx)</text><polygon fill="#181818" points="558.5,501.8359,548.5,505.8359,558.5,509.8359,554.5,505.8359" style="stroke:#181818;stroke-width:1.0;"/><line style="stroke:#181818;stroke-width:1.0;stroke-dasharray:2.0,2.0;" x1="552.5" x2="1543" y1="505.8359" y2="505.8359"/><text fill="#000000" font-family="sans-serif" font-size="13" lengthAdjust="spacing" textLength="163" x="564.5" y="501.0938">Coinbase Metadata stored</text><polygon fill="#181818" points="2105.5,531.1465,2115.5,535.1465,2105.5,539.1465,2109.5,535.1465" style="stroke:#181818;stroke-width:1.0;"/><line style="stroke:#181818;stroke-width:1.0;" x1="547.5" x2="2111.5" y1="535.1465" y2="535.1465"/><text fill="#000000" font-family="sans-serif" font-size="13" lengthAdjust="spacing" textLength="161" x="554.5" y="530.4043">AddBlock(cntxt, block, "")</text><polygon fill="#181818" points="558.5,560.457,548.5,564.457,558.5,568.457,554.5,564.457" style="stroke:#181818;stroke-width:1.0;"/><line style="stroke:#181818;stroke-width:1.0;stroke-dasharray:2.0,2.0;" x1="552.5" x2="2121.5" y1="564.457" y2="564.457"/><text fill="#000000" font-family="sans-serif" font-size="13" lengthAdjust="spacing" textLength="223" x="564.5" y="559.7148">Block added to the local Blockchain</text><polygon fill="#181818" points="1668.5,589.7676,1678.5,593.7676,1668.5,597.7676,1672.5,593.7676" style="stroke:#181818;stroke-width:1.0;"/><line style="stroke:#181818;stroke-width:1.0;" x1="547.5" x2="1674.5" y1="593.7676" y2="593.7676"/><text fill="#000000" font-family="sans-serif" font-size="13" lengthAdjust="spacing" textLength="204" x="554.5" y="589.0254">removeSubtreesTTL(gCtx, block)</text><path d="M1626,608.7676 L1700,608.7676 L1700,616.0781 L1690,626.0781 L1626,626.0781 L1626,608.7676 " fill="#EEEEEE" style="stroke:#000000;stroke-width:1.5;"/><rect fill="none" height="59.6211" style="stroke:#000000;stroke-width:1.5;" width="496.5" x="1626" y="608.7676"/><text fill="#000000" font-family="sans-serif" font-size="13" font-weight="bold" lengthAdjust="spacing" textLength="29" x="1641" y="622.3359">loop</text><text fill="#000000" font-family="sans-serif" font-size="11" font-weight="bold" lengthAdjust="spacing" textLength="99" x="1715" y="621.4023">[for each subtree]</text><line style="stroke:#181818;stroke-width:1.0;" x1="1690.5" x2="1732.5" y1="647.3887" y2="647.3887"/><line style="stroke:#181818;stroke-width:1.0;" x1="1732.5" x2="1732.5" y1="647.3887" y2="660.3887"/><line style="stroke:#181818;stroke-width:1.0;" x1="1691.5" x2="1732.5" y1="660.3887" y2="660.3887"/><polygon fill="#181818" points="1701.5,656.3887,1691.5,660.3887,1701.5,664.3887,1697.5,660.3887" style="stroke:#181818;stroke-width:1.0;"/><text fill="#000000" font-family="sans-serif" font-size="13" lengthAdjust="spacing" textLength="413" x="1697.5" y="642.6465">SetTTL(setCtx, subtreeHashBytes, 0) # 0 means delete the subtree</text><polygon fill="#181818" points="558.5,692.6992,548.5,696.6992,558.5,700.6992,554.5,696.6992" style="stroke:#181818;stroke-width:1.0;"/><line style="stroke:#181818;stroke-width:1.0;stroke-dasharray:2.0,2.0;" x1="552.5" x2="1684.5" y1="696.6992" y2="696.6992"/><text fill="#000000" font-family="sans-serif" font-size="13" lengthAdjust="spacing" textLength="136" x="564.5" y="691.957">Subtrees TTL updated</text><path d="M449.5,711.6992 L511.5,711.6992 L511.5,719.0098 L501.5,729.0098 L449.5,729.0098 L449.5,711.6992 " fill="#EEEEEE" style="stroke:#000000;stroke-width:1.5;"/><rect fill="none" height="105.2422" style="stroke:#000000;stroke-width:1.5;" width="1186.5" x="449.5" y="711.6992"/><text fill="#000000" font-family="sans-serif" font-size="13" font-weight="bold" lengthAdjust="spacing" textLength="17" x="464.5" y="725.2676">alt</text><text fill="#000000" font-family="sans-serif" font-size="11" font-weight="bold" lengthAdjust="spacing" textLength="168" x="526.5" y="724.334">[if localSetMined mode is off]</text><polygon fill="#181818" points="1072,746.3203,1082,750.3203,1072,754.3203,1076,750.3203" style="stroke:#181818;stroke-width:1.0;"/><line style="stroke:#181818;stroke-width:1.0;" x1="547.5" x2="1078" y1="750.3203" y2="750.3203"/><text fill="#000000" font-family="sans-serif" font-size="13" lengthAdjust="spacing" textLength="491" x="554.5" y="745.5781">UpdateTxMinedStatus(gCtx, logger, txMetaStore, subtreesInJob, block.Header)</text><polygon fill="#181818" points="1532,775.6309,1542,779.6309,1532,783.6309,1536,779.6309" style="stroke:#181818;stroke-width:1.0;"/><line style="stroke:#181818;stroke-width:1.0;" x1="1094" x2="1538" y1="779.6309" y2="779.6309"/><text fill="#000000" font-family="sans-serif" font-size="13" lengthAdjust="spacing" textLength="236" x="1101" y="774.8887">SetMinedMulti(gCtx, hashes, blockID)</text><polygon fill="#181818" points="1532,804.9414,1542,808.9414,1532,812.9414,1536,808.9414" style="stroke:#181818;stroke-width:1.0;"/><line style="stroke:#181818;stroke-width:1.0;stroke-dasharray:2.0,2.0;" x1="1089" x2="1538" y1="808.9414" y2="808.9414"/><text fill="#000000" font-family="sans-serif" font-size="13" lengthAdjust="spacing" textLength="344" x="1096" y="804.1992">TX Status updated as mined (for all Txs in all Subtrees)</text><polygon fill="#181818" points="959,841.252,969,845.252,959,849.252,963,845.252" style="stroke:#181818;stroke-width:1.0;"/><line style="stroke:#181818;stroke-width:1.0;" x1="547.5" x2="965" y1="845.252" y2="845.252"/><text fill="#000000" font-family="sans-serif" font-size="13" lengthAdjust="spacing" textLength="65" x="554.5" y="840.5098">DeleteAll()</text><polygon fill="#181818" points="558.5,870.5625,548.5,874.5625,558.5,878.5625,554.5,874.5625" style="stroke:#181818;stroke-width:1.0;"/><line style="stroke:#181818;stroke-width:1.0;stroke-dasharray:2.0,2.0;" x1="552.5" x2="970" y1="874.5625" y2="874.5625"/><text fill="#000000" font-family="sans-serif" font-size="13" lengthAdjust="spacing" textLength="98" x="564.5" y="869.8203">All jobs deleted</text><path d="M449.5,889.5625 L511.5,889.5625 L511.5,896.873 L501.5,906.873 L449.5,906.873 L449.5,889.5625 " fill="#EEEEEE" style="stroke:#000000;stroke-width:1.5;"/><rect fill="none" height="75.9316" style="stroke:#000000;stroke-width:1.5;" width="1748.5" x="449.5" y="889.5625"/><text fill="#000000" font-family="sans-serif" font-size="13" font-weight="bold" lengthAdjust="spacing" textLength="17" x="464.5" y="903.1309">alt</text><text fill="#000000" font-family="sans-serif" font-size="11" font-weight="bold" lengthAdjust="spacing" textLength="93" x="526.5" y="902.1973">[If Error Occurs]</text><polygon fill="#181818" points="2105.5,924.1836,2115.5,928.1836,2105.5,932.1836,2109.5,928.1836" style="stroke:#181818;stroke-width:1.0;"/><line style="stroke:#181818;stroke-width:1.0;" x1="547.5" x2="2111.5" y1="928.1836" y2="928.1836"/><text fill="#000000" font-family="sans-serif" font-size="13" lengthAdjust="spacing" textLength="279" x="554.5" y="923.4414">InvalidateBlock(setCtx, block.Header.Hash())</text><polygon fill="#181818" points="558.5,953.4941,548.5,957.4941,558.5,961.4941,554.5,957.4941" style="stroke:#181818;stroke-width:1.0;"/><line style="stroke:#181818;stroke-width:1.0;stroke-dasharray:2.0,2.0;" x1="552.5" x2="2121.5" y1="957.4941" y2="957.4941"/><text fill="#000000" font-family="sans-serif" font-size="13" lengthAdjust="spacing" textLength="107" x="564.5" y="952.752">Block invalidated</text><polygon fill="#181818" points="302.5,989.8047,292.5,993.8047,302.5,997.8047,298.5,993.8047" style="stroke:#181818;stroke-width:1.0;"/><line style="stroke:#181818;stroke-width:1.0;stroke-dasharray:2.0,2.0;" x1="296.5" x2="541.5" y1="993.8047" y2="993.8047"/><text fill="#000000" font-family="sans-serif" font-size="13" lengthAdjust="spacing" textLength="81" x="308.5" y="989.0625">Return result</text><polygon fill="#181818" points="46.5,1019.1152,36.5,1023.1152,46.5,1027.1152,42.5,1023.1152" style="stroke:#181818;stroke-width:1.0;"/><line style="stroke:#181818;stroke-width:1.0;stroke-dasharray:2.0,2.0;" x1="40.5" x2="285.5" y1="1023.1152" y2="1023.1152"/><text fill="#000000" font-family="sans-serif" font-size="13" lengthAdjust="spacing" textLength="81" x="52.5" y="1018.373">Return result</text><!--SRC=[bLRVRzem47xFNt5YBs5YgC-LDgcbrSgqQj9WqrvDSe1NnqQsG-b_lxCT1pk1QKCLCkVx-NrtvnwOjhpY1oOjJ9wvv78t0MQ0ZgYBGtfxBrJr0dV6OBCHRx0G7ANrok7uL-qLwYDghnsEkVR6QQ_QJSEDuKekza4p4HGrisp33CBaYzgihDBeTUAFWZBWzgqBxA_ygPS_gnf5gCsT4dzhpQHXbQKuS7QyFWM_b_MUqR9CsGc61fI_rOY9NYS9YcEygZtZCaNsBEqmBZmnyE5JO0XkOQN44S7k4HfF7v2w42Xtc2W7QwVj8BM1QB9iNJ5bPKypCDslQU5AF3ABaTUYioO_WRl_zTCnNdJMpa_2B7cxgslmBG2cloWodJIskHfxq4RJD6Hi57BmMssM5Xlu29_Hbk-D4o_h9E6-gNgZ3sa26cshPNHJr3WsJ6kDPWkDJaVYQrViAxTxE6Ybja1_hqg_96PXW6w3wlmd4xmkAsbFTWQIY_DNadPe-62O9UojcMzSZQOLDiqvM2MHkyvtB1CybP8MJtP-pwgNdLQjhCjfX_HyeRXqhRu-pTUdvSF2DUeJC_joEby89V7-pQAvgFvuiYXhh3kDf8WuTp6Bh93e0T9PzFpLQKdHHrPKFw4z5H7FONPPDkV1JbrSpihTk_6_cDBPqP3bPC33C7XfbjqC9fCXq-bU6Fd94WmjmMe27Apoou8aJ2H-HXsHRPriSliDvaUXKKViX6Qz_bhk5lqafYiWNNn2gGDibGOAkNVZxAuAe4_cVHoD-j65C6XzaCxITPplendSJE4Tt423r1r0MnvjM8qn1lLSaSSOB3LV1b0GQ0_4PCvXLaJ1X0M-3K1IOcxNrj3GsmBSq3nlGq4zSFxLeI0_l5zg1wU_iiosfiDCgDqEzGpikLNw6irIqcw9hVg4h4OzzH7wxCApvaGXLDxq7ZmVyvdcdtSXzmITmysxNJvCK_FHqAn_GSWtOkDUgCQNNJeswTaX2mFqXBbZH3CuJM0CYJegYYiB-i4pToT4ERsoWkdExTz8SXteM6xXKMjAvLjLjTeC6BWmQqjv3AiHmyZ5pafXdeUDDa1xD2Fkzb-caFSXwo4m8vyUerX0-en_3o_GU9btJsqIFlwVSDKawFu1]--></g></svg>
