<svg xmlns="http://www.w3.org/2000/svg" xmlns:xlink="http://www.w3.org/1999/xlink" contentStyleType="text/css" height="885px" preserveAspectRatio="none" style="width:1515px;height:885px;background:#FFFFFF;" version="1.1" viewBox="0 0 1515 885" width="1515px" zoomAndPan="magnify"><defs/><g><rect fill="#FFFFFF" height="188.8633" style="stroke:#181818;stroke-width:1.0;" width="10" x="318.3047" y="128.1094"/><rect fill="#FFFFFF" height="130.2422" style="stroke:#181818;stroke-width:1.0;" width="10" x="318.3047" y="389.5938"/><rect fill="#FFFFFF" height="207.1738" style="stroke:#181818;stroke-width:1.0;" width="10" x="318.3047" y="592.457"/><rect fill="none" height="46.6211" style="stroke:#000000;stroke-width:1.5;" width="665.7085" x="255.7905" y="607.457"/><line style="stroke:#181818;stroke-width:0.5;stroke-dasharray:5.0,5.0;" x1="51" x2="51" y1="53.4883" y2="817.6309"/><line style="stroke:#181818;stroke-width:0.5;stroke-dasharray:5.0,5.0;" x1="322.7905" x2="322.7905" y1="53.4883" y2="817.6309"/><line style="stroke:#181818;stroke-width:0.5;stroke-dasharray:5.0,5.0;" x1="678.5225" x2="678.5225" y1="53.4883" y2="817.6309"/><line style="stroke:#181818;stroke-width:0.5;stroke-dasharray:5.0,5.0;" x1="747.5742" x2="747.5742" y1="53.4883" y2="817.6309"/><line style="stroke:#181818;stroke-width:0.5;stroke-dasharray:5.0,5.0;" x1="847.6152" x2="847.6152" y1="53.4883" y2="817.6309"/><line style="stroke:#181818;stroke-width:0.5;stroke-dasharray:5.0,5.0;" x1="977.499" x2="977.499" y1="53.4883" y2="817.6309"/><line style="stroke:#181818;stroke-width:0.5;stroke-dasharray:5.0,5.0;" x1="1105.7412" x2="1105.7412" y1="53.4883" y2="817.6309"/><line style="stroke:#181818;stroke-width:0.5;stroke-dasharray:5.0,5.0;" x1="1237.9844" x2="1237.9844" y1="53.4883" y2="817.6309"/><line style="stroke:#181818;stroke-width:0.5;stroke-dasharray:5.0,5.0;" x1="1355.3154" x2="1355.3154" y1="53.4883" y2="817.6309"/><line style="stroke:#181818;stroke-width:0.5;stroke-dasharray:5.0,5.0;" x1="1456.5527" x2="1456.5527" y1="53.4883" y2="817.6309"/><rect fill="#E2E2F0" height="30.4883" rx="2.5" ry="2.5" style="stroke:#181818;stroke-width:0.5;" width="92.832" x="5" y="22"/><text fill="#000000" font-family="sans-serif" font-size="14" lengthAdjust="spacing" textLength="78.832" x="12" y="42.5352">Client Code</text><rect fill="#E2E2F0" height="30.4883" rx="2.5" ry="2.5" style="stroke:#181818;stroke-width:0.5;" width="92.832" x="5" y="816.6309"/><text fill="#000000" font-family="sans-serif" font-size="14" lengthAdjust="spacing" textLength="78.832" x="12" y="837.166">Client Code</text><rect fill="#E2E2F0" height="30.4883" rx="2.5" ry="2.5" style="stroke:#181818;stroke-width:0.5;" width="115.0283" x="265.7905" y="22"/><text fill="#000000" font-family="sans-serif" font-size="14" lengthAdjust="spacing" textLength="101.0283" x="272.7905" y="42.5352">BlockAssembly</text><rect fill="#E2E2F0" height="30.4883" rx="2.5" ry="2.5" style="stroke:#181818;stroke-width:0.5;" width="115.0283" x="265.7905" y="816.6309"/><text fill="#000000" font-family="sans-serif" font-size="14" lengthAdjust="spacing" textLength="101.0283" x="272.7905" y="837.166">BlockAssembly</text><rect fill="#E2E2F0" height="30.4883" rx="2.5" ry="2.5" style="stroke:#181818;stroke-width:0.5;" width="61.0518" x="648.5225" y="22"/><text fill="#000000" font-family="sans-serif" font-size="14" lengthAdjust="spacing" textLength="47.0518" x="655.5225" y="42.5352">Logger</text><rect fill="#E2E2F0" height="30.4883" rx="2.5" ry="2.5" style="stroke:#181818;stroke-width:0.5;" width="61.0518" x="648.5225" y="816.6309"/><text fill="#000000" font-family="sans-serif" font-size="14" lengthAdjust="spacing" textLength="47.0518" x="655.5225" y="837.166">Logger</text><rect fill="#E2E2F0" height="30.4883" rx="2.5" ry="2.5" style="stroke:#181818;stroke-width:0.5;" width="56.041" x="719.5742" y="22"/><text fill="#000000" font-family="sans-serif" font-size="14" lengthAdjust="spacing" textLength="42.041" x="726.5742" y="42.5352">Stores</text><rect fill="#E2E2F0" height="30.4883" rx="2.5" ry="2.5" style="stroke:#181818;stroke-width:0.5;" width="56.041" x="719.5742" y="816.6309"/><text fill="#000000" font-family="sans-serif" font-size="14" lengthAdjust="spacing" textLength="42.041" x="726.5742" y="837.166">Stores</text><rect fill="#E2E2F0" height="30.4883" rx="2.5" ry="2.5" style="stroke:#181818;stroke-width:0.5;" width="125.8838" x="785.6152" y="22"/><text fill="#000000" font-family="sans-serif" font-size="14" lengthAdjust="spacing" textLength="111.8838" x="792.6152" y="42.5352">BlockchainClient</text><rect fill="#E2E2F0" height="30.4883" rx="2.5" ry="2.5" style="stroke:#181818;stroke-width:0.5;" width="125.8838" x="785.6152" y="816.6309"/><text fill="#000000" font-family="sans-serif" font-size="14" lengthAdjust="spacing" textLength="111.8838" x="792.6152" y="837.166">BlockchainClient</text><text fill="#000000" font-family="sans-serif" font-size="14" lengthAdjust="spacing" textLength="107.2422" x="921.499" y="50.5352">BlockAssembler</text><ellipse cx="978.1201" cy="21" fill="#E2E2F0" rx="12" ry="12" style="stroke:#181818;stroke-width:0.5;"/><line style="stroke:#181818;stroke-width:0.5;" x1="966.1201" x2="990.1201" y1="35" y2="35"/><text fill="#000000" font-family="sans-serif" font-size="14" lengthAdjust="spacing" textLength="107.2422" x="921.499" y="830.166">BlockAssembler</text><ellipse cx="978.1201" cy="849.1191" fill="#E2E2F0" rx="12" ry="12" style="stroke:#181818;stroke-width:0.5;"/><line style="stroke:#181818;stroke-width:0.5;" x1="966.1201" x2="990.1201" y1="863.1191" y2="863.1191"/><text fill="#000000" font-family="sans-serif" font-size="14" lengthAdjust="spacing" textLength="117.2432" x="1044.7412" y="50.5352">SubtreeProcessor</text><ellipse cx="1106.3628" cy="21" fill="#E2E2F0" rx="12" ry="12" style="stroke:#181818;stroke-width:0.5;"/><line style="stroke:#181818;stroke-width:0.5;" x1="1094.3628" x2="1118.3628" y1="35" y2="35"/><text fill="#000000" font-family="sans-serif" font-size="14" lengthAdjust="spacing" textLength="117.2432" x="1044.7412" y="830.166">SubtreeProcessor</text><ellipse cx="1106.3628" cy="849.1191" fill="#E2E2F0" rx="12" ry="12" style="stroke:#181818;stroke-width:0.5;"/><line style="stroke:#181818;stroke-width:0.5;" x1="1094.3628" x2="1118.3628" y1="863.1191" y2="863.1191"/><rect fill="#E2E2F0" height="30.4883" rx="2.5" ry="2.5" style="stroke:#181818;stroke-width:0.5;" width="121.3311" x="1177.9844" y="22"/><text fill="#000000" font-family="sans-serif" font-size="14" lengthAdjust="spacing" textLength="107.3311" x="1184.9844" y="42.5352">KafkaConsumer</text><rect fill="#E2E2F0" height="30.4883" rx="2.5" ry="2.5" style="stroke:#181818;stroke-width:0.5;" width="121.3311" x="1177.9844" y="816.6309"/><text fill="#000000" font-family="sans-serif" font-size="14" lengthAdjust="spacing" textLength="107.3311" x="1184.9844" y="837.166">KafkaConsumer</text><rect fill="#E2E2F0" height="30.4883" rx="2.5" ry="2.5" style="stroke:#181818;stroke-width:0.5;" width="92.2373" x="1309.3154" y="22"/><text fill="#000000" font-family="sans-serif" font-size="14" lengthAdjust="spacing" textLength="78.2373" x="1316.3154" y="42.5352">GRPCServer</text><rect fill="#E2E2F0" height="30.4883" rx="2.5" ry="2.5" style="stroke:#181818;stroke-width:0.5;" width="92.2373" x="1309.3154" y="816.6309"/><text fill="#000000" font-family="sans-serif" font-size="14" lengthAdjust="spacing" textLength="78.2373" x="1316.3154" y="837.166">GRPCServer</text><rect fill="#E2E2F0" height="30.4883" rx="2.5" ry="2.5" style="stroke:#181818;stroke-width:0.5;" width="91.5742" x="1411.5527" y="22"/><text fill="#000000" font-family="sans-serif" font-size="14" lengthAdjust="spacing" textLength="77.5742" x="1418.5527" y="42.5352">HTTPServer</text><rect fill="#E2E2F0" height="30.4883" rx="2.5" ry="2.5" style="stroke:#181818;stroke-width:0.5;" width="91.5742" x="1411.5527" y="816.6309"/><text fill="#000000" font-family="sans-serif" font-size="14" lengthAdjust="spacing" textLength="77.5742" x="1418.5527" y="837.166">HTTPServer</text><rect fill="#FFFFFF" height="188.8633" style="stroke:#181818;stroke-width:1.0;" width="10" x="318.3047" y="128.1094"/><rect fill="#FFFFFF" height="130.2422" style="stroke:#181818;stroke-width:1.0;" width="10" x="318.3047" y="389.5938"/><rect fill="#FFFFFF" height="207.1738" style="stroke:#181818;stroke-width:1.0;" width="10" x="318.3047" y="592.457"/><rect fill="#EEEEEE" height="3" style="stroke:#EEEEEE;stroke-width:1.0;" width="1508.127" x="0" y="84.1436"/><line style="stroke:#000000;stroke-width:1.0;" x1="0" x2="1508.127" y1="84.1436" y2="84.1436"/><line style="stroke:#000000;stroke-width:1.0;" x1="0" x2="1508.127" y1="87.1436" y2="87.1436"/><rect fill="#EEEEEE" height="23.3105" style="stroke:#000000;stroke-width:2.0;" width="47.1094" x="730.5088" y="73.4883"/><text fill="#000000" font-family="sans-serif" font-size="13" font-weight="bold" lengthAdjust="spacing" textLength="28.8247" x="736.5088" y="90.0566">New</text><polygon fill="#181818" points="306.3047,124.1094,316.3047,128.1094,306.3047,132.1094,310.3047,128.1094" style="stroke:#181818;stroke-width:1.0;"/><line style="stroke:#181818;stroke-width:1.0;" x1="51.416" x2="312.3047" y1="128.1094" y2="128.1094"/><text fill="#000000" font-family="sans-serif" font-size="13" lengthAdjust="spacing" textLength="247.8887" x="58.416" y="123.3672">New(logger, stores, blockchainClient...)</text><polygon fill="#181818" points="667.0483,153.4199,677.0483,157.4199,667.0483,161.4199,671.0483,157.4199" style="stroke:#181818;stroke-width:1.0;"/><line style="stroke:#181818;stroke-width:1.0;" x1="328.3047" x2="673.0483" y1="157.4199" y2="157.4199"/><text fill="#000000" font-family="sans-serif" font-size="13" lengthAdjust="spacing" textLength="98.2109" x="335.3047" y="152.6777">Initialize logger</text><polygon fill="#181818" points="735.5947,182.7305,745.5947,186.7305,735.5947,190.7305,739.5947,186.7305" style="stroke:#181818;stroke-width:1.0;"/><line style="stroke:#181818;stroke-width:1.0;" x1="328.3047" x2="741.5947" y1="186.7305" y2="186.7305"/><text fill="#000000" font-family="sans-serif" font-size="13" lengthAdjust="spacing" textLength="311.8794" x="335.3047" y="181.9883">Initialize stores (txStore, utxoStore, subtreeStore)</text><polygon fill="#181818" points="836.5571,212.041,846.5571,216.041,836.5571,220.041,840.5571,216.041" style="stroke:#181818;stroke-width:1.0;"/><line style="stroke:#181818;stroke-width:1.0;" x1="328.3047" x2="842.5571" y1="216.041" y2="216.041"/><text fill="#000000" font-family="sans-serif" font-size="13" lengthAdjust="spacing" textLength="164.0679" x="335.3047" y="211.2988">Initialize blockchain client</text><polygon fill="#181818" points="966.1201,241.3516,976.1201,245.3516,966.1201,249.3516,970.1201,245.3516" style="stroke:#181818;stroke-width:1.0;"/><line style="stroke:#181818;stroke-width:1.0;" x1="328.3047" x2="972.1201" y1="245.3516" y2="245.3516"/><text fill="#000000" font-family="sans-serif" font-size="13" lengthAdjust="spacing" textLength="473.6685" x="335.3047" y="240.6094">NewBlockAssembler(ctx, logger, utxoStore, subtreeStore, blockchainClient)</text><line style="stroke:#181818;stroke-width:1.0;" x1="328.3047" x2="370.3047" y1="274.6621" y2="274.6621"/><line style="stroke:#181818;stroke-width:1.0;" x1="370.3047" x2="370.3047" y1="274.6621" y2="287.6621"/><line style="stroke:#181818;stroke-width:1.0;" x1="329.3047" x2="370.3047" y1="287.6621" y2="287.6621"/><polygon fill="#181818" points="339.3047,283.6621,329.3047,287.6621,339.3047,291.6621,335.3047,287.6621" style="stroke:#181818;stroke-width:1.0;"/><text fill="#000000" font-family="sans-serif" font-size="13" lengthAdjust="spacing" textLength="295.7373" x="335.3047" y="269.9199">Initialize channels (blockSubmissionChan, etc.)</text><polygon fill="#181818" points="62.416,312.9727,52.416,316.9727,62.416,320.9727,58.416,316.9727" style="stroke:#181818;stroke-width:1.0;"/><line style="stroke:#181818;stroke-width:1.0;stroke-dasharray:2.0,2.0;" x1="56.416" x2="322.3047" y1="316.9727" y2="316.9727"/><text fill="#000000" font-family="sans-serif" font-size="13" lengthAdjust="spacing" textLength="98.3569" x="68.416" y="312.2305">Return instance</text><rect fill="#EEEEEE" height="3" style="stroke:#EEEEEE;stroke-width:1.0;" width="1508.127" x="0" y="345.6279"/><line style="stroke:#000000;stroke-width:1.0;" x1="0" x2="1508.127" y1="345.6279" y2="345.6279"/><line style="stroke:#000000;stroke-width:1.0;" x1="0" x2="1508.127" y1="348.6279" y2="348.6279"/><rect fill="#EEEEEE" height="23.3105" style="stroke:#000000;stroke-width:2.0;" width="40.6284" x="733.7493" y="334.9727"/><text fill="#000000" font-family="sans-serif" font-size="13" font-weight="bold" lengthAdjust="spacing" textLength="22.3438" x="739.7493" y="351.541">Init</text><polygon fill="#181818" points="306.3047,385.5938,316.3047,389.5938,306.3047,393.5938,310.3047,389.5938" style="stroke:#181818;stroke-width:1.0;"/><line style="stroke:#181818;stroke-width:1.0;" x1="51.416" x2="312.3047" y1="389.5938" y2="389.5938"/><text fill="#000000" font-family="sans-serif" font-size="13" lengthAdjust="spacing" textLength="48.3818" x="58.416" y="384.8516">Init(ctx)</text><polygon fill="#181818" points="966.1201,414.9043,976.1201,418.9043,966.1201,422.9043,970.1201,418.9043" style="stroke:#181818;stroke-width:1.0;"/><line style="stroke:#181818;stroke-width:1.0;" x1="328.3047" x2="972.1201" y1="418.9043" y2="418.9043"/><text fill="#000000" font-family="sans-serif" font-size="13" lengthAdjust="spacing" textLength="127.1563" x="335.3047" y="414.1621">Init block assembler</text><polygon fill="#181818" points="1226.6499,444.2148,1236.6499,448.2148,1226.6499,452.2148,1230.6499,448.2148" style="stroke:#181818;stroke-width:1.0;"/><line style="stroke:#181818;stroke-width:1.0;" x1="328.3047" x2="1232.6499" y1="448.2148" y2="448.2148"/><text fill="#000000" font-family="sans-serif" font-size="13" lengthAdjust="spacing" textLength="240.9253" x="335.3047" y="443.4727">Setup Kafka consumers (if configured)</text><line style="stroke:#181818;stroke-width:1.0;" x1="328.3047" x2="370.3047" y1="477.5254" y2="477.5254"/><line style="stroke:#181818;stroke-width:1.0;" x1="370.3047" x2="370.3047" y1="477.5254" y2="490.5254"/><line style="stroke:#181818;stroke-width:1.0;" x1="329.3047" x2="370.3047" y1="490.5254" y2="490.5254"/><polygon fill="#181818" points="339.3047,486.5254,329.3047,490.5254,339.3047,494.5254,335.3047,490.5254" style="stroke:#181818;stroke-width:1.0;"/><text fill="#000000" font-family="sans-serif" font-size="13" lengthAdjust="spacing" textLength="321.7437" x="335.3047" y="472.7832">Start background goroutines (processing channels)</text><polygon fill="#181818" points="62.416,515.8359,52.416,519.8359,62.416,523.8359,58.416,519.8359" style="stroke:#181818;stroke-width:1.0;"/><line style="stroke:#181818;stroke-width:1.0;stroke-dasharray:2.0,2.0;" x1="56.416" x2="322.3047" y1="519.8359" y2="519.8359"/><text fill="#000000" font-family="sans-serif" font-size="13" lengthAdjust="spacing" textLength="140.3721" x="68.416" y="515.0938">Initialization complete</text><rect fill="#EEEEEE" height="3" style="stroke:#EEEEEE;stroke-width:1.0;" width="1508.127" x="0" y="548.4912"/><line style="stroke:#000000;stroke-width:1.0;" x1="0" x2="1508.127" y1="548.4912" y2="548.4912"/><line style="stroke:#000000;stroke-width:1.0;" x1="0" x2="1508.127" y1="551.4912" y2="551.4912"/><rect fill="#EEEEEE" height="23.3105" style="stroke:#000000;stroke-width:2.0;" width="49.8008" x="729.1631" y="537.8359"/><text fill="#000000" font-family="sans-serif" font-size="13" font-weight="bold" lengthAdjust="spacing" textLength="31.5161" x="735.1631" y="554.4043">Start</text><polygon fill="#181818" points="306.3047,588.457,316.3047,592.457,306.3047,596.457,310.3047,592.457" style="stroke:#181818;stroke-width:1.0;"/><line style="stroke:#181818;stroke-width:1.0;" x1="51.416" x2="312.3047" y1="592.457" y2="592.457"/><text fill="#000000" font-family="sans-serif" font-size="13" lengthAdjust="spacing" textLength="57.1733" x="58.416" y="587.7148">Start(ctx)</text><path d="M255.7905,607.457 L317.9292,607.457 L317.9292,614.7676 L307.9292,624.7676 L255.7905,624.7676 L255.7905,607.457 " fill="#EEEEEE" style="stroke:#000000;stroke-width:1.5;"/><rect fill="none" height="46.6211" style="stroke:#000000;stroke-width:1.5;" width="665.7085" x="255.7905" y="607.457"/><text fill="#000000" font-family="sans-serif" font-size="13" font-weight="bold" lengthAdjust="spacing" textLength="17.1387" x="270.7905" y="621.0254">alt</text><text fill="#000000" font-family="sans-serif" font-size="11" font-weight="bold" lengthAdjust="spacing" textLength="173.7012" x="332.9292" y="620.0918">[FSM state restoration needed]</text><polygon fill="#181818" points="836.5571,642.0781,846.5571,646.0781,836.5571,650.0781,840.5571,646.0781" style="stroke:#181818;stroke-width:1.0;"/><line style="stroke:#181818;stroke-width:1.0;" x1="328.3047" x2="842.5571" y1="646.0781" y2="646.0781"/><text fill="#000000" font-family="sans-serif" font-size="13" lengthAdjust="spacing" textLength="225.3481" x="335.3047" y="641.3359">Restore and wait for RUNNING state</text><polygon fill="#181818" points="1226.6499,678.3887,1236.6499,682.3887,1226.6499,686.3887,1230.6499,682.3887" style="stroke:#181818;stroke-width:1.0;"/><line style="stroke:#181818;stroke-width:1.0;" x1="328.3047" x2="1232.6499" y1="682.3887" y2="682.3887"/><text fill="#000000" font-family="sans-serif" font-size="13" lengthAdjust="spacing" textLength="141.4067" x="335.3047" y="677.6465">Start Kafka consumers</text><polygon fill="#181818" points="1445.3398,707.6992,1455.3398,711.6992,1445.3398,715.6992,1449.3398,711.6992" style="stroke:#181818;stroke-width:1.0;"/><line style="stroke:#181818;stroke-width:1.0;" x1="328.3047" x2="1451.3398" y1="711.6992" y2="711.6992"/><text fill="#000000" font-family="sans-serif" font-size="13" lengthAdjust="spacing" textLength="202.4966" x="335.3047" y="706.957">Start HTTP server (if configured)</text><polygon fill="#181818" points="1343.4341,737.0098,1353.4341,741.0098,1343.4341,745.0098,1347.4341,741.0098" style="stroke:#181818;stroke-width:1.0;"/><line style="stroke:#181818;stroke-width:1.0;" x1="328.3047" x2="1349.4341" y1="741.0098" y2="741.0098"/><text fill="#000000" font-family="sans-serif" font-size="13" lengthAdjust="spacing" textLength="108.437" x="335.3047" y="736.2676">Start gRPC server</text><polygon fill="#181818" points="339.3047,766.3203,329.3047,770.3203,339.3047,774.3203,335.3047,770.3203" style="stroke:#181818;stroke-width:1.0;"/><line style="stroke:#181818;stroke-width:1.0;" x1="333.3047" x2="1354.4341" y1="770.3203" y2="770.3203"/><text fill="#000000" font-family="sans-serif" font-size="13" lengthAdjust="spacing" textLength="200.021" x="345.3047" y="765.5781">Register block assembly service</text><polygon fill="#181818" points="62.416,795.6309,52.416,799.6309,62.416,803.6309,58.416,799.6309" style="stroke:#181818;stroke-width:1.0;"/><line style="stroke:#181818;stroke-width:1.0;stroke-dasharray:2.0,2.0;" x1="56.416" x2="322.3047" y1="799.6309" y2="799.6309"/><text fill="#000000" font-family="sans-serif" font-size="13" lengthAdjust="spacing" textLength="91.4063" x="68.416" y="794.8887">Start complete</text><text fill="#888888" font-family="sans-serif" font-size="10" lengthAdjust="spacing" textLength="154.8389" x="0" y="875.7871">Last Modified On: 14-Nov-2024</text><!--SRC=[TLFRZk8m37tlLrX8Au44V00IAq6bdHtDmA1szWD2udOZIb8rwGpirwzpcGxXqfV6zh6TS-oqhBEIovOf2wEyaKZ_N0iS0JCGxAoznAmRpGyhO_2uRyuUjLwbY5TTrzZvK3YcuTBg3eqFX-ET-lmlaofq3oq6PqOkQS_fFMAtDPb3lEptjaFSTPgZCJeWBfnfrnTM7LYkbUcFiPZtfA2dOfUNs7r4X3DJmE_tzzq5m9bPjbp25ZzXkSoYlBEVT5DOEE-uyG9DmNWbfh2_OZ-VpoSPurP-C8jEQSga_A0hrNXMqahMo7y8eLG416LJGEW1OtloqIdqzgJZqGHXl3M9DRv5J-jytn5uM9289_a3hNGsOsvFK_XY-g3fBVNX6gkqFK6KmeQ8-0mQwL4Q8xNAAJ05j7mUKYatAhw00ctVAP3AMAOuPW8lHNKpSXtk3Ccv7O5xKuY4VQQ_2mqzSeu8lqG4AQbz6oqUjum8oCfPbQpx3aN2jxIqLx1d_51tkbS2Qar_AvKRO1jsMgfw4EEMyQ0OiwGDzJcs3Tfxp4ElM-hUVykTDHP-bHjQ9-UWZQBnXHuAKQ38WBux6rHu908ZDf-C9Ajq1yMVxVPv-nIAqTiLryBvkrq95p7kUGqGRnZ_zXxewfxh0A-T4U2P3toHBh2MnbAHPA1dZvMqEDSoXtAFr6smSZorA_ZAZ8MD5hAIAE1DBU278Dnu9CHiizdCplID9jb_]--></g></svg>
