<?xml version="1.0" encoding="us-ascii" standalone="no"?><svg xmlns="http://www.w3.org/2000/svg" xmlns:xlink="http://www.w3.org/1999/xlink" contentStyleType="text/css" height="498px" preserveAspectRatio="none" style="width:822px;height:498px;background:#FFFFFF;" version="1.1" viewBox="0 0 822 498" width="822px" zoomAndPan="magnify"><defs/><g><line style="stroke:#181818;stroke-width:0.5;stroke-dasharray:5.0,5.0;" x1="28" x2="28" y1="81.4883" y2="417.2832"/><line style="stroke:#181818;stroke-width:0.5;stroke-dasharray:5.0,5.0;" x1="209" x2="209" y1="81.4883" y2="417.2832"/><line style="stroke:#181818;stroke-width:0.5;stroke-dasharray:5.0,5.0;" x1="583" x2="583" y1="81.4883" y2="417.2832"/><line style="stroke:#181818;stroke-width:0.5;stroke-dasharray:5.0,5.0;" x1="756" x2="756" y1="81.4883" y2="417.2832"/><text fill="#000000" font-family="sans-serif" font-size="14" lengthAdjust="spacing" textLength="40" x="5" y="78.5352">Client</text><ellipse cx="28" cy="13.5" fill="#E2E2F0" rx="8" ry="8" style="stroke:#181818;stroke-width:0.5;"/><path d="M28,21.5 L28,48.5 M15,29.5 L41,29.5 M28,48.5 L15,63.5 M28,48.5 L41,63.5 " fill="none" style="stroke:#181818;stroke-width:0.5;"/><text fill="#000000" font-family="sans-serif" font-size="14" lengthAdjust="spacing" textLength="40" x="5" y="429.8184">Client</text><ellipse cx="28" cy="441.2715" fill="#E2E2F0" rx="8" ry="8" style="stroke:#181818;stroke-width:0.5;"/><path d="M28,449.2715 L28,476.2715 M15,457.2715 L41,457.2715 M28,476.2715 L15,491.2715 M28,476.2715 L41,491.2715 " fill="none" style="stroke:#181818;stroke-width:0.5;"/><text fill="#000000" font-family="sans-serif" font-size="14" lengthAdjust="spacing" textLength="112" x="150" y="78.5352">Block Assembler</text><ellipse cx="209" cy="49" fill="#E2E2F0" rx="12" ry="12" style="stroke:#181818;stroke-width:0.5;"/><line style="stroke:#181818;stroke-width:0.5;" x1="197" x2="221" y1="63" y2="63"/><text fill="#000000" font-family="sans-serif" font-size="14" lengthAdjust="spacing" textLength="112" x="150" y="429.8184">Block Assembler</text><ellipse cx="209" cy="448.7715" fill="#E2E2F0" rx="12" ry="12" style="stroke:#181818;stroke-width:0.5;"/><line style="stroke:#181818;stroke-width:0.5;" x1="197" x2="221" y1="462.7715" y2="462.7715"/><text fill="#000000" font-family="sans-serif" font-size="14" lengthAdjust="spacing" textLength="190" x="485" y="78.5352">Blockchain BlockchainClient</text><ellipse cx="583" cy="49" fill="#E2E2F0" rx="12" ry="12" style="stroke:#181818;stroke-width:0.5;"/><line style="stroke:#181818;stroke-width:0.5;" x1="571" x2="595" y1="63" y2="63"/><text fill="#000000" font-family="sans-serif" font-size="14" lengthAdjust="spacing" textLength="190" x="485" y="429.8184">Blockchain BlockchainClient</text><ellipse cx="583" cy="448.7715" fill="#E2E2F0" rx="12" ry="12" style="stroke:#181818;stroke-width:0.5;"/><line style="stroke:#181818;stroke-width:0.5;" x1="571" x2="595" y1="462.7715" y2="462.7715"/><text fill="#000000" font-family="sans-serif" font-size="14" lengthAdjust="spacing" textLength="124" x="691" y="78.5352">Subtree Processor</text><ellipse cx="756" cy="49" fill="#E2E2F0" rx="12" ry="12" style="stroke:#181818;stroke-width:0.5;"/><line style="stroke:#181818;stroke-width:0.5;" x1="744" x2="768" y1="63" y2="63"/><text fill="#000000" font-family="sans-serif" font-size="14" lengthAdjust="spacing" textLength="124" x="691" y="429.8184">Subtree Processor</text><ellipse cx="756" cy="448.7715" fill="#E2E2F0" rx="12" ry="12" style="stroke:#181818;stroke-width:0.5;"/><line style="stroke:#181818;stroke-width:0.5;" x1="744" x2="768" y1="462.7715" y2="462.7715"/><polygon fill="#181818" points="197,108.7988,207,112.7988,197,116.7988,201,112.7988" style="stroke:#181818;stroke-width:1.0;"/><line style="stroke:#181818;stroke-width:1.0;" x1="28" x2="203" y1="112.7988" y2="112.7988"/><text fill="#000000" font-family="sans-serif" font-size="13" lengthAdjust="spacing" textLength="157" x="35" y="108.0566">Call ResetBlockAssembly</text><polygon fill="#181818" points="571,138.1094,581,142.1094,571,146.1094,575,142.1094" style="stroke:#181818;stroke-width:1.0;"/><line style="stroke:#181818;stroke-width:1.0;" x1="209" x2="577" y1="142.1094" y2="142.1094"/><text fill="#000000" font-family="sans-serif" font-size="13" lengthAdjust="spacing" textLength="133" x="216" y="137.3672">GetBestBlockHeader()</text><polygon fill="#181818" points="220,167.4199,210,171.4199,220,175.4199,216,171.4199" style="stroke:#181818;stroke-width:1.0;"/><line style="stroke:#181818;stroke-width:1.0;" x1="214" x2="582" y1="171.4199" y2="171.4199"/><text fill="#000000" font-family="sans-serif" font-size="13" lengthAdjust="spacing" textLength="214" x="226" y="166.6777">Return bestBlockHeader, meta, err</text><line style="stroke:#181818;stroke-width:1.0;" x1="209" x2="251" y1="200.7305" y2="200.7305"/><line style="stroke:#181818;stroke-width:1.0;" x1="251" x2="251" y1="200.7305" y2="213.7305"/><line style="stroke:#181818;stroke-width:1.0;" x1="210" x2="251" y1="213.7305" y2="213.7305"/><polygon fill="#181818" points="220,209.7305,210,213.7305,220,217.7305,216,213.7305" style="stroke:#181818;stroke-width:1.0;"/><text fill="#000000" font-family="sans-serif" font-size="13" lengthAdjust="spacing" textLength="360" x="216" y="195.9883">Calculate reorg blocks(moveDownBlocks, moveUpBlocks)</text><polygon fill="#181818" points="744,239.041,754,243.041,744,247.041,748,243.041" style="stroke:#181818;stroke-width:1.0;"/><line style="stroke:#181818;stroke-width:1.0;" x1="209" x2="750" y1="243.041" y2="243.041"/><text fill="#000000" font-family="sans-serif" font-size="13" lengthAdjust="spacing" textLength="191" x="216" y="238.2988">Reset subtree with new blocks</text><polygon fill="#181818" points="220,268.3516,210,272.3516,220,276.3516,216,272.3516" style="stroke:#181818;stroke-width:1.0;"/><line style="stroke:#181818;stroke-width:1.0;" x1="214" x2="755" y1="272.3516" y2="272.3516"/><text fill="#000000" font-family="sans-serif" font-size="13" lengthAdjust="spacing" textLength="221" x="226" y="267.6094">Return response (with errors if any)</text><line style="stroke:#181818;stroke-width:1.0;" x1="209" x2="251" y1="301.6621" y2="301.6621"/><line style="stroke:#181818;stroke-width:1.0;" x1="251" x2="251" y1="301.6621" y2="314.6621"/><line style="stroke:#181818;stroke-width:1.0;" x1="210" x2="251" y1="314.6621" y2="314.6621"/><polygon fill="#181818" points="220,310.6621,210,314.6621,220,318.6621,216,314.6621" style="stroke:#181818;stroke-width:1.0;"/><text fill="#000000" font-family="sans-serif" font-size="13" lengthAdjust="spacing" textLength="276" x="216" y="296.9199">Update internal state with new block header</text><line style="stroke:#181818;stroke-width:1.0;" x1="209" x2="251" y1="343.9727" y2="343.9727"/><line style="stroke:#181818;stroke-width:1.0;" x1="251" x2="251" y1="343.9727" y2="356.9727"/><line style="stroke:#181818;stroke-width:1.0;" x1="210" x2="251" y1="356.9727" y2="356.9727"/><polygon fill="#181818" points="220,352.9727,210,356.9727,220,360.9727,216,356.9727" style="stroke:#181818;stroke-width:1.0;"/><text fill="#000000" font-family="sans-serif" font-size="13" lengthAdjust="spacing" textLength="127" x="216" y="339.2305">Update block height</text><line style="stroke:#181818;stroke-width:1.0;" x1="209" x2="251" y1="386.2832" y2="386.2832"/><line style="stroke:#181818;stroke-width:1.0;" x1="251" x2="251" y1="386.2832" y2="399.2832"/><line style="stroke:#181818;stroke-width:1.0;" x1="210" x2="251" y1="399.2832" y2="399.2832"/><polygon fill="#181818" points="220,395.2832,210,399.2832,220,403.2832,216,399.2832" style="stroke:#181818;stroke-width:1.0;"/><text fill="#000000" font-family="sans-serif" font-size="13" lengthAdjust="spacing" textLength="106" x="216" y="381.541">Set current chain</text><!--SRC=[XL9BReCm4Dtx5AEiG4elq4MbDfNQPPGe1p3ED5WrDfePYhXzZQ5OqDy6ySpxp1kZZGI2WxFeHQdui3B0xia5ymwFpDXK3ca7cZDQiqojhOVyEbabnVPm4PwxIWWHZXGCCeSfO45AgKa0Tmyv5kxXe9s34p9Aifu_3KfbKbHiOwFm9IgG9zKhwYjIKQfll4tQ2QKZ3zLQk8S6HUy1YJQvcqbDvxGW40QwGJKQSD643tmElKz-7AqYlhGJAjTkopRI9B4oyBortaeD7llPL6NcpmK8kGsU4OgaZ8C7Oh1leFrG_j7Xqbx70jOBajSEM4QuJeSwBULVao-olTNnD_kTVeuzJKSqNaUw6gK-0G00]--></g></svg>
