<?xml version="1.0" encoding="us-ascii" standalone="no"?><svg xmlns="http://www.w3.org/2000/svg" xmlns:xlink="http://www.w3.org/1999/xlink" contentStyleType="text/css" height="597px" preserveAspectRatio="none" style="width:834px;height:597px;background:#FFFFFF;" version="1.1" viewBox="0 0 834 597" width="834px" zoomAndPan="magnify"><defs/><g><rect fill="#FFFFFF" height="127.2422" style="stroke:#181818;stroke-width:1.0;" width="10" x="337.5" y="371.2832"/><rect fill="#FFFFFF" height="187.5527" style="stroke:#181818;stroke-width:1.0;" width="10" x="480" y="131.1094"/><rect fill="#FFFFFF" height="97.9316" style="stroke:#181818;stroke-width:1.0;" width="10" x="480" y="400.5938"/><rect fill="#FFFFFF" height="68.6211" style="stroke:#181818;stroke-width:1.0;" width="10" x="737" y="250.041"/><rect fill="#FFFFFF" height="68.6211" style="stroke:#181818;stroke-width:1.0;" width="10" x="737" y="429.9043"/><rect fill="none" height="234.1738" style="stroke:#000000;stroke-width:1.5;" width="430" x="398" y="84.4883"/><rect fill="none" height="46.6211" style="stroke:#000000;stroke-width:1.5;" width="410" x="408" y="265.041"/><rect fill="none" height="165.8633" style="stroke:#000000;stroke-width:1.5;" width="818" x="10" y="332.6621"/><rect fill="none" height="46.6211" style="stroke:#000000;stroke-width:1.5;" width="410" x="408" y="444.9043"/><line style="stroke:#181818;stroke-width:0.5;stroke-dasharray:5.0,5.0;" x1="79" x2="79" y1="67.4883" y2="515.5254"/><line style="stroke:#181818;stroke-width:0.5;stroke-dasharray:5.0,5.0;" x1="342" x2="342" y1="67.4883" y2="515.5254"/><line style="stroke:#181818;stroke-width:0.5;stroke-dasharray:5.0,5.0;" x1="485" x2="485" y1="67.4883" y2="515.5254"/><line style="stroke:#181818;stroke-width:0.5;stroke-dasharray:5.0,5.0;" x1="742" x2="742" y1="67.4883" y2="515.5254"/><rect fill="#E2E2F0" height="30.4883" rx="2.5" ry="2.5" style="stroke:#181818;stroke-width:0.5;" width="119" x="20" y="36"/><text fill="#000000" font-family="sans-serif" font-size="14" lengthAdjust="spacing" textLength="105" x="27" y="56.5352">Block Assembly</text><rect fill="#E2E2F0" height="30.4883" rx="2.5" ry="2.5" style="stroke:#181818;stroke-width:0.5;" width="119" x="20" y="514.5254"/><text fill="#000000" font-family="sans-serif" font-size="14" lengthAdjust="spacing" textLength="105" x="27" y="535.0605">Block Assembly</text><rect fill="#E2E2F0" height="30.4883" rx="2.5" ry="2.5" style="stroke:#181818;stroke-width:0.5;" width="131" x="277" y="36"/><text fill="#000000" font-family="sans-serif" font-size="14" lengthAdjust="spacing" textLength="117" x="284" y="56.5352">Blockchain Client</text><rect fill="#E2E2F0" height="30.4883" rx="2.5" ry="2.5" style="stroke:#181818;stroke-width:0.5;" width="131" x="277" y="514.5254"/><text fill="#000000" font-family="sans-serif" font-size="14" lengthAdjust="spacing" textLength="117" x="284" y="535.0605">Blockchain Client</text><rect fill="#E2E2F0" height="30.4883" rx="2.5" ry="2.5" style="stroke:#181818;stroke-width:0.5;" width="134" x="418" y="36"/><text fill="#000000" font-family="sans-serif" font-size="14" lengthAdjust="spacing" textLength="120" x="425" y="56.5352">Blockchain Server</text><rect fill="#E2E2F0" height="30.4883" rx="2.5" ry="2.5" style="stroke:#181818;stroke-width:0.5;" width="134" x="418" y="514.5254"/><text fill="#000000" font-family="sans-serif" font-size="14" lengthAdjust="spacing" textLength="120" x="425" y="535.0605">Blockchain Server</text><text fill="#000000" font-family="sans-serif" font-size="14" lengthAdjust="spacing" textLength="126" x="676" y="64.5352">Subscription Store</text><path d="M724,15 C724,5 742,5 742,5 C742,5 760,5 760,15 L760,41 C760,51 742,51 742,51 C742,51 724,51 724,41 L724,15 " fill="#E2E2F0" style="stroke:#181818;stroke-width:1.5;"/><path d="M724,15 C724,25 742,25 742,25 C742,25 760,25 760,15 " fill="none" style="stroke:#181818;stroke-width:1.5;"/><text fill="#000000" font-family="sans-serif" font-size="14" lengthAdjust="spacing" textLength="126" x="676" y="528.0605">Subscription Store</text><path d="M724,541.0137 C724,531.0137 742,531.0137 742,531.0137 C742,531.0137 760,531.0137 760,541.0137 L760,567.0137 C760,577.0137 742,577.0137 742,577.0137 C742,577.0137 724,577.0137 724,567.0137 L724,541.0137 " fill="#E2E2F0" style="stroke:#181818;stroke-width:1.5;"/><path d="M724,541.0137 C724,551.0137 742,551.0137 742,551.0137 C742,551.0137 760,551.0137 760,541.0137 " fill="none" style="stroke:#181818;stroke-width:1.5;"/><rect fill="#FFFFFF" height="127.2422" style="stroke:#181818;stroke-width:1.0;" width="10" x="337.5" y="371.2832"/><rect fill="#FFFFFF" height="187.5527" style="stroke:#181818;stroke-width:1.0;" width="10" x="480" y="131.1094"/><rect fill="#FFFFFF" height="97.9316" style="stroke:#181818;stroke-width:1.0;" width="10" x="480" y="400.5938"/><rect fill="#FFFFFF" height="68.6211" style="stroke:#181818;stroke-width:1.0;" width="10" x="737" y="250.041"/><rect fill="#FFFFFF" height="68.6211" style="stroke:#181818;stroke-width:1.0;" width="10" x="737" y="429.9043"/><path d="M398,84.4883 L460,84.4883 L460,91.7988 L450,101.7988 L398,101.7988 L398,84.4883 " fill="#EEEEEE" style="stroke:#000000;stroke-width:1.5;"/><rect fill="none" height="234.1738" style="stroke:#000000;stroke-width:1.5;" width="430" x="398" y="84.4883"/><text fill="#000000" font-family="sans-serif" font-size="13" font-weight="bold" lengthAdjust="spacing" textLength="17" x="413" y="98.0566">alt</text><text fill="#000000" font-family="sans-serif" font-size="11" font-weight="bold" lengthAdjust="spacing" textLength="210" x="475" y="97.123">[Notification from Blockchain Server]</text><line style="stroke:#181818;stroke-width:1.0;" x1="485" x2="532" y1="118.1094" y2="118.1094"/><line style="stroke:#181818;stroke-width:1.0;" x1="532" x2="532" y1="118.1094" y2="131.1094"/><line style="stroke:#181818;stroke-width:1.0;" x1="491" x2="532" y1="131.1094" y2="131.1094"/><polygon fill="#181818" points="501,127.1094,491,131.1094,501,135.1094,497,131.1094" style="stroke:#181818;stroke-width:1.0;"/><text fill="#000000" font-family="sans-serif" font-size="13" lengthAdjust="spacing" textLength="67" x="497" y="113.3672">AddBlock()</text><line style="stroke:#181818;stroke-width:1.0;" x1="490" x2="532" y1="165.4199" y2="165.4199"/><line style="stroke:#181818;stroke-width:1.0;" x1="532" x2="532" y1="165.4199" y2="178.4199"/><line style="stroke:#181818;stroke-width:1.0;" x1="491" x2="532" y1="178.4199" y2="178.4199"/><polygon fill="#181818" points="501,174.4199,491,178.4199,501,182.4199,497,178.4199" style="stroke:#181818;stroke-width:1.0;"/><text fill="#000000" font-family="sans-serif" font-size="13" lengthAdjust="spacing" textLength="233" x="497" y="160.6777">Create Notification (MiningOn/Block)</text><line style="stroke:#181818;stroke-width:1.0;" x1="490" x2="532" y1="207.7305" y2="207.7305"/><line style="stroke:#181818;stroke-width:1.0;" x1="532" x2="532" y1="207.7305" y2="220.7305"/><line style="stroke:#181818;stroke-width:1.0;" x1="491" x2="532" y1="220.7305" y2="220.7305"/><polygon fill="#181818" points="501,216.7305,491,220.7305,501,224.7305,497,220.7305" style="stroke:#181818;stroke-width:1.0;"/><text fill="#000000" font-family="sans-serif" font-size="13" lengthAdjust="spacing" textLength="113" x="497" y="202.9883">SendNotification()</text><polygon fill="#181818" points="725,246.041,735,250.041,725,254.041,729,250.041" style="stroke:#181818;stroke-width:1.0;"/><line style="stroke:#181818;stroke-width:1.0;" x1="490" x2="731" y1="250.041" y2="250.041"/><text fill="#000000" font-family="sans-serif" font-size="13" lengthAdjust="spacing" textLength="116" x="497" y="245.2988">Notify Subscribers</text><path d="M408,265.041 L482,265.041 L482,272.3516 L472,282.3516 L408,282.3516 L408,265.041 " fill="#EEEEEE" style="stroke:#000000;stroke-width:1.5;"/><rect fill="none" height="46.6211" style="stroke:#000000;stroke-width:1.5;" width="410" x="408" y="265.041"/><text fill="#000000" font-family="sans-serif" font-size="13" font-weight="bold" lengthAdjust="spacing" textLength="29" x="423" y="278.6094">loop</text><text fill="#000000" font-family="sans-serif" font-size="11" font-weight="bold" lengthAdjust="spacing" textLength="97" x="497" y="277.6758">[Each Subscriber]</text><polygon fill="#181818" points="501,299.6621,491,303.6621,501,307.6621,497,303.6621" style="stroke:#181818;stroke-width:1.0;"/><line style="stroke:#181818;stroke-width:1.0;stroke-dasharray:2.0,2.0;" x1="495" x2="736" y1="303.6621" y2="303.6621"/><text fill="#000000" font-family="sans-serif" font-size="13" lengthAdjust="spacing" textLength="109" x="507" y="298.9199">Send Notification</text><path d="M10,332.6621 L72,332.6621 L72,339.9727 L62,349.9727 L10,349.9727 L10,332.6621 " fill="#EEEEEE" style="stroke:#000000;stroke-width:1.5;"/><rect fill="none" height="165.8633" style="stroke:#000000;stroke-width:1.5;" width="818" x="10" y="332.6621"/><text fill="#000000" font-family="sans-serif" font-size="13" font-weight="bold" lengthAdjust="spacing" textLength="17" x="25" y="346.2305">alt</text><text fill="#000000" font-family="sans-serif" font-size="11" font-weight="bold" lengthAdjust="spacing" textLength="349" x="87" y="345.2969">[Notification from Block Assembly through Blockchain Client]</text><polygon fill="#181818" points="325.5,367.2832,335.5,371.2832,325.5,375.2832,329.5,371.2832" style="stroke:#181818;stroke-width:1.0;"/><line style="stroke:#181818;stroke-width:1.0;" x1="79.5" x2="331.5" y1="371.2832" y2="371.2832"/><text fill="#000000" font-family="sans-serif" font-size="13" lengthAdjust="spacing" textLength="239" x="86.5" y="366.541">Request to Send Notification (Subtree)</text><polygon fill="#181818" points="468,396.5938,478,400.5938,468,404.5938,472,400.5938" style="stroke:#181818;stroke-width:1.0;"/><line style="stroke:#181818;stroke-width:1.0;" x1="347.5" x2="474" y1="400.5938" y2="400.5938"/><text fill="#000000" font-family="sans-serif" font-size="13" lengthAdjust="spacing" textLength="113" x="354.5" y="395.8516">SendNotification()</text><polygon fill="#181818" points="725,425.9043,735,429.9043,725,433.9043,729,429.9043" style="stroke:#181818;stroke-width:1.0;"/><line style="stroke:#181818;stroke-width:1.0;" x1="490" x2="731" y1="429.9043" y2="429.9043"/><text fill="#000000" font-family="sans-serif" font-size="13" lengthAdjust="spacing" textLength="116" x="497" y="425.1621">Notify Subscribers</text><path d="M408,444.9043 L482,444.9043 L482,452.2148 L472,462.2148 L408,462.2148 L408,444.9043 " fill="#EEEEEE" style="stroke:#000000;stroke-width:1.5;"/><rect fill="none" height="46.6211" style="stroke:#000000;stroke-width:1.5;" width="410" x="408" y="444.9043"/><text fill="#000000" font-family="sans-serif" font-size="13" font-weight="bold" lengthAdjust="spacing" textLength="29" x="423" y="458.4727">loop</text><text fill="#000000" font-family="sans-serif" font-size="11" font-weight="bold" lengthAdjust="spacing" textLength="97" x="497" y="457.5391">[Each Subscriber]</text><polygon fill="#181818" points="501,479.5254,491,483.5254,501,487.5254,497,483.5254" style="stroke:#181818;stroke-width:1.0;"/><line style="stroke:#181818;stroke-width:1.0;stroke-dasharray:2.0,2.0;" x1="495" x2="736" y1="483.5254" y2="483.5254"/><text fill="#000000" font-family="sans-serif" font-size="13" lengthAdjust="spacing" textLength="109" x="507" y="478.7832">Send Notification</text><text fill="#888888" font-family="sans-serif" font-size="10" lengthAdjust="spacing" textLength="152" x="0" y="587.6816">Last Modified On: 24-Jan-2024</text><!--SRC=[rPA_JiCm4CPtFyMfKpf4eAfJ1gI2M12b4ds2YtrfB58xsDTAVNiSErHfqW8hMVBbyhlFzySjEjPIjsWOPe-DbH-myfxsPNEQ0VhpXsWdeAnH6tXgD1cER98toIsv8xb89YaKCfRe2MRRG-cbqorh6q2sZXBNAI6mONYph2ijCHALitkOM0i1uKaQyeTU5R1IAhBPF08eMH-HwJlhUjAJeuwvE3PRQwFDRcFkej_yHkgMZ1hcPHEmQwj8tYVeUo_9-L5ziVikr5ZRmZFAUW377z6tmo0V5N1HUMH3CBuLNJbX6Eo7sV4_ZVvyDu1hPm-x6YRN8bgViL1X2XVmJfy7yWnifyL25ffaHpHQry0ooJ_C_9TT_uSzZABz5E9o6geOAcivjFEAOPnhgy9Pf61Z2bWiynSq-U9-iHHV]--></g></svg>
