<svg contentStyleType="text/css" height="444" preserveAspectRatio="none" viewBox="0 0 502 444" width="502" xmlns="http://www.w3.org/2000/svg" zoomAndPan="magnify"><path d="m222.5 67.7988h10v117.5527h-10z" fill="#fff" stroke="#181818"/><path d="m222.5 214.6621h10v175.8633h-10z" fill="#fff" stroke="#181818"/><path d="m148 302.5938h348.5v59.6211h-348.5z" fill="none" stroke="#000" stroke-width="1.5"/><path d="m28 36.4883v372.0371" stroke="#181818" stroke-dasharray="5 5" stroke-width=".5"/><path d="m227 36.4883v372.0371" stroke="#181818" stroke-dasharray="5 5" stroke-width=".5"/><rect fill="#e2e2f0" height="30.4883" rx="2.5" stroke="#181818" stroke-width=".5" width="47" x="5" y="5"/><text font-family="sans-serif" font-size="14" lengthAdjust="spacing" textLength="33" x="12" y="25.5352">Main</text><rect fill="#e2e2f0" height="30.4883" rx="2.5" stroke="#181818" stroke-width=".5" width="47" x="5" y="407.5254"/><text font-family="sans-serif" font-size="14" lengthAdjust="spacing" textLength="33" x="12" y="428.0605">Main</text><rect fill="#e2e2f0" height="30.4883" rx="2.5" stroke="#181818" stroke-width=".5" width="139" x="158" y="5"/><text font-family="sans-serif" font-size="14" lengthAdjust="spacing" textLength="125" x="165" y="25.5352">Blockchain Service</text><rect fill="#e2e2f0" height="30.4883" rx="2.5" stroke="#181818" stroke-width=".5" width="139" x="158" y="407.5254"/><text font-family="sans-serif" font-size="14" lengthAdjust="spacing" textLength="125" x="165" y="428.0605">Blockchain Service</text><g stroke="#181818"><path d="m222.5 67.7988h10v117.5527h-10z" fill="#fff"/><path d="m222.5 214.6621h10v175.8633h-10z" fill="#fff"/><path d="m210.5 63.7988 10 4-10 4 4-4z" fill="#181818"/><path d="m28.5 67.7988h188"/></g><text font-family="sans-serif" font-size="13" lengthAdjust="spacing" textLength="75" x="35.5" y="63.0566">New(logger)</text><path d="m232.5 143.041h42" stroke="#181818"/><path d="m274.5 143.041v13" stroke="#181818"/><path d="m233.5 156.041h41" stroke="#181818"/><path d="m243.5 152.041-10 4 10 4-4-4z" fill="#181818" stroke="#181818"/><text font-family="sans-serif" font-size="13" lengthAdjust="spacing" textLength="102" x="239.5" y="92.3672">Initialize Service</text><text font-family="sans-serif" font-size="13" lengthAdjust="spacing" textLength="160" x="239.5" y="107.6777">- Set up blockchain store</text><text font-family="sans-serif" font-size="13" lengthAdjust="spacing" textLength="126" x="239.5" y="122.9883">- Initialize channels</text><text font-family="sans-serif" font-size="13" lengthAdjust="spacing" textLength="227" x="239.5" y="138.2988">- Prepare context and subscriptions</text><path d="m39.5 181.3516-10 4 10 4-4-4z" fill="#181818" stroke="#181818"/><path d="m33.5 185.3516h193" stroke="#181818" stroke-dasharray="2 2"/><text font-family="sans-serif" font-size="13" lengthAdjust="spacing" textLength="170" x="45.5" y="180.6094">Return Blockchain instance</text><path d="m210.5 210.6621 10 4-10 4 4-4z" fill="#181818" stroke="#181818"/><path d="m28.5 214.6621h188" stroke="#181818"/><text font-family="sans-serif" font-size="13" lengthAdjust="spacing" textLength="57" x="35.5" y="209.9199">Start(ctx)</text><path d="m232.5 274.5938h42" stroke="#181818"/><path d="m274.5 274.5938v13" stroke="#181818"/><path d="m233.5 287.5938h41" stroke="#181818"/><path d="m243.5 283.5938-10 4 10 4-4-4z" fill="#181818" stroke="#181818"/><text font-family="sans-serif" font-size="13" lengthAdjust="spacing" textLength="142" x="239.5" y="239.2305">Start server operations</text><text font-family="sans-serif" font-size="13" lengthAdjust="spacing" textLength="121" x="239.5" y="254.541">- Channel listeners</text><text font-family="sans-serif" font-size="13" lengthAdjust="spacing" textLength="87" x="239.5" y="269.8516">- GRPC Server</text><path d="m148 302.5938h74v7.3105l-10 10h-64z" fill="#eee" stroke="#000" stroke-width="1.5"/><path d="m148 302.5938h348.5v59.6211h-348.5z" fill="none" stroke="#000" stroke-width="1.5"/><text font-family="sans-serif" font-size="13" font-weight="bold" lengthAdjust="spacing" textLength="29" x="163" y="316.1621">loop</text><text font-family="sans-serif" font-size="11" font-weight="bold" lengthAdjust="spacing" textLength="237" x="237" y="315.2285">[Notifications and Subscriptions handling]</text><path d="m232.5 341.2148h42" stroke="#181818"/><path d="m274.5 341.2148v13" stroke="#181818"/><path d="m233.5 354.2148h41" stroke="#181818"/><path d="m243.5 350.2148-10 4 10 4-4-4z" fill="#181818" stroke="#181818"/><text font-family="sans-serif" font-size="13" lengthAdjust="spacing" textLength="245" x="239.5" y="336.4727">Handle notifications and subscriptions</text><path d="m39.5 386.5254-10 4 10 4-4-4z" fill="#181818" stroke="#181818"/><path d="m33.5 390.5254h193" stroke="#181818" stroke-dasharray="2 2"/><text font-family="sans-serif" font-size="13" lengthAdjust="spacing" textLength="86" x="45.5" y="385.7832">Server started</text></svg>
