<svg contentStyleType="text/css" height="651" preserveAspectRatio="none" viewBox="0 0 616 651" width="616" xmlns="http://www.w3.org/2000/svg" zoomAndPan="magnify"><g stroke="#181818"><g fill="#fff"><path d="m236 142.1094h10v87.9316h-10z"/><path d="m236 302.6621h10v87.9316h-10z"/><path d="m236 463.2148h10v87.9316h-10z"/><path d="m576 171.4199h10v29.3105h-10z"/><path d="m576 331.9727h10v29.3105h-10z"/><path d="m576 492.5254h10v29.3105h-10z"/></g><path d="m32 67.4883v501.6582" stroke-dasharray="5 5" stroke-width=".5"/><path d="m240.5 67.4883v501.6582" stroke-dasharray="5 5" stroke-width=".5"/><path d="m581 67.4883v501.6582" stroke-dasharray="5 5" stroke-width=".5"/><rect fill="#e2e2f0" height="30.4883" rx="2.5" stroke-width=".5" width="54" x="5" y="36"/></g><text font-family="sans-serif" font-size="14" lengthAdjust="spacing" textLength="40" x="12" y="56.5352">Client</text><rect fill="#e2e2f0" height="30.4883" rx="2.5" stroke="#181818" stroke-width=".5" width="54" x="5" y="568.1465"/><text font-family="sans-serif" font-size="14" lengthAdjust="spacing" textLength="40" x="12" y="588.6816">Client</text><rect fill="#e2e2f0" height="30.4883" rx="2.5" stroke="#181818" stroke-width=".5" width="139" x="171.5" y="36"/><text font-family="sans-serif" font-size="14" lengthAdjust="spacing" textLength="125" x="178.5" y="56.5352">Blockchain Service</text><rect fill="#e2e2f0" height="30.4883" rx="2.5" stroke="#181818" stroke-width=".5" width="139" x="171.5" y="568.1465"/><text font-family="sans-serif" font-size="14" lengthAdjust="spacing" textLength="125" x="178.5" y="588.6816">Blockchain Service</text><text font-family="sans-serif" font-size="14" lengthAdjust="spacing" textLength="36" x="560" y="64.5352">Store</text><path d="m563 15c0-10 18-10 18-10s18 0 18 10v26c0 10-18 10-18 10s-18 0-18-10z" fill="#e2e2f0" stroke="#181818" stroke-width="1.5"/><path d="m563 15c0 10 18 10 18 10s18 0 18-10" fill="none" stroke="#181818" stroke-width="1.5"/><text font-family="sans-serif" font-size="14" lengthAdjust="spacing" textLength="36" x="560" y="581.6816">Store</text><g stroke="#181818"><path d="m563 594.6348c0-10 18-10 18-10s18 0 18 10v26c0 10-18 10-18 10s-18 0-18-10z" fill="#e2e2f0" stroke-width="1.5"/><path d="m563 594.6348c0 10 18 10 18 10s18 0 18-10" fill="none" stroke-width="1.5"/><path d="m236 142.1094h10v87.9316h-10z" fill="#fff"/><path d="m236 302.6621h10v87.9316h-10z" fill="#fff"/><path d="m236 463.2148h10v87.9316h-10z" fill="#fff"/><path d="m576 171.4199h10v29.3105h-10z" fill="#fff"/><path d="m576 331.9727h10v29.3105h-10z" fill="#fff"/><path d="m576 492.5254h10v29.3105h-10z" fill="#fff"/></g><path d="m0 98.1436h607v3h-607z" fill="#eee" stroke="#eee"/><path d="m0 98.1436h607" stroke="#000"/><path d="m0 101.1436h607" stroke="#000"/><path d="m241 87.4883h125v23.3105h-125z" fill="#eee" stroke="#000" stroke-width="2"/><text font-family="sans-serif" font-size="13" font-weight="bold" lengthAdjust="spacing" textLength="107" x="247" y="104.0566">GetBlockHeader</text><path d="m224 138.1094 10 4-10 4 4-4z" fill="#181818" stroke="#181818"/><path d="m32 142.1094h198" stroke="#181818"/><text font-family="sans-serif" font-size="13" lengthAdjust="spacing" textLength="154" x="39" y="137.3672">GetBlockHeader(request)</text><path d="m564 167.4199 10 4-10 4 4-4z" fill="#181818" stroke="#181818"/><path d="m246 171.4199h324" stroke="#181818"/><text font-family="sans-serif" font-size="13" lengthAdjust="spacing" textLength="137" x="253" y="166.6777">GetBlockHeader(hash)</text><path d="m257 196.7305-10 4 10 4-4-4z" fill="#181818" stroke="#181818"/><path d="m251 200.7305h329" stroke="#181818" stroke-dasharray="2 2"/><text font-family="sans-serif" font-size="13" lengthAdjust="spacing" textLength="118" x="263" y="195.9883">blockHeader, meta</text><path d="m43 226.041-10 4 10 4-4-4z" fill="#181818" stroke="#181818"/><path d="m37 230.041h203" stroke="#181818" stroke-dasharray="2 2"/><text font-family="sans-serif" font-size="13" lengthAdjust="spacing" textLength="159" x="49" y="225.2988">GetBlockHeaderResponse</text><path d="m0 258.6963h607v3h-607z" fill="#eee" stroke="#eee"/><path d="m0 258.6963h607" stroke="#000"/><path d="m0 261.6963h607" stroke="#000"/><path d="m237.5 248.041h132v23.3105h-132z" fill="#eee" stroke="#000" stroke-width="2"/><text font-family="sans-serif" font-size="13" font-weight="bold" lengthAdjust="spacing" textLength="114" x="243.5" y="264.6094">GetBlockHeaders</text><path d="m224 298.6621 10 4-10 4 4-4z" fill="#181818" stroke="#181818"/><path d="m32 302.6621h198" stroke="#181818"/><text font-family="sans-serif" font-size="13" lengthAdjust="spacing" textLength="161" x="39" y="297.9199">GetBlockHeaders(request)</text><path d="m564 327.9727 10 4-10 4 4-4z" fill="#181818" stroke="#181818"/><path d="m246 331.9727h324" stroke="#181818"/><text font-family="sans-serif" font-size="13" lengthAdjust="spacing" textLength="297" x="253" y="327.2305">GetBlockHeaders(startHash, numberOfHeaders)</text><path d="m257 357.2832-10 4 10 4-4-4z" fill="#181818" stroke="#181818"/><path d="m251 361.2832h329" stroke="#181818" stroke-dasharray="2 2"/><text font-family="sans-serif" font-size="13" lengthAdjust="spacing" textLength="141" x="263" y="356.541">blockHeaders, heights</text><path d="m43 386.5938-10 4 10 4-4-4z" fill="#181818" stroke="#181818"/><path d="m37 390.5938h203" stroke="#181818" stroke-dasharray="2 2"/><text font-family="sans-serif" font-size="13" lengthAdjust="spacing" textLength="166" x="49" y="385.8516">GetBlockHeadersResponse</text><path d="m0 419.249h607v3h-607z" fill="#eee" stroke="#eee"/><path d="m0 419.249h607" stroke="#000"/><path d="m0 422.249h607" stroke="#000"/><path d="m230.5 408.5938h146v23.3105h-146z" fill="#eee" stroke="#000" stroke-width="2"/><text font-family="sans-serif" font-size="13" font-weight="bold" lengthAdjust="spacing" textLength="128" x="236.5" y="425.1621">GetBlockHeaderIDs</text><path d="m224 459.2148 10 4-10 4 4-4z" fill="#181818" stroke="#181818"/><path d="m32 463.2148h198" stroke="#181818"/><text font-family="sans-serif" font-size="13" lengthAdjust="spacing" textLength="175" x="39" y="458.4727">GetBlockHeaderIDs(request)</text><path d="m564 488.5254 10 4-10 4 4-4z" fill="#181818" stroke="#181818"/><path d="m246 492.5254h324" stroke="#181818"/><text font-family="sans-serif" font-size="13" lengthAdjust="spacing" textLength="311" x="253" y="487.7832">GetBlockHeaderIDs(startHash, numberOfHeaders)</text><path d="m257 517.8359-10 4 10 4-4-4z" fill="#181818" stroke="#181818"/><path d="m251 521.8359h329" stroke="#181818" stroke-dasharray="2 2"/><text font-family="sans-serif" font-size="13" lengthAdjust="spacing" textLength="19" x="263" y="517.0938">ids</text><path d="m43 547.1465-10 4 10 4-4-4z" fill="#181818" stroke="#181818"/><path d="m37 551.1465h203" stroke="#181818" stroke-dasharray="2 2"/><text font-family="sans-serif" font-size="13" lengthAdjust="spacing" textLength="180" x="49" y="546.4043">GetBlockHeaderIDsResponse</text><text fill="#888" font-family="sans-serif" font-size="10" lengthAdjust="spacing" textLength="152" y="641.3027">Last Modified On: 24-Jan-2024</text></svg>
