<svg contentStyleType="text/css" height="594" preserveAspectRatio="none" viewBox="0 0 834 594" width="834" xmlns="http://www.w3.org/2000/svg" zoomAndPan="magnify"><path d="m337.5 371.2832h10v127.2422h-10z" fill="#fff" stroke="#181818"/><path d="m480 131.1094h10v187.5527h-10z" fill="#fff" stroke="#181818"/><path d="m480 400.5938h10v97.9316h-10z" fill="#fff" stroke="#181818"/><path d="m737 250.041h10v68.6211h-10z" fill="#fff" stroke="#181818"/><path d="m737 429.9043h10v68.6211h-10z" fill="#fff" stroke="#181818"/><path d="m398 84.4883h430v234.1738h-430z" fill="none" stroke="#000" stroke-width="1.5"/><path d="m408 265.041h410v46.6211h-410z" fill="none" stroke="#000" stroke-width="1.5"/><path d="m10 332.6621h818v165.8633h-818z" fill="none" stroke="#000" stroke-width="1.5"/><path d="m408 444.9043h410v46.6211h-410z" fill="none" stroke="#000" stroke-width="1.5"/><path d="m79 67.4883v448.0371" stroke="#181818" stroke-dasharray="5 5" stroke-width=".5"/><path d="m342 67.4883v448.0371" stroke="#181818" stroke-dasharray="5 5" stroke-width=".5"/><path d="m485 67.4883v448.0371" stroke="#181818" stroke-dasharray="5 5" stroke-width=".5"/><path d="m742 67.4883v448.0371" stroke="#181818" stroke-dasharray="5 5" stroke-width=".5"/><rect fill="#e2e2f0" height="30.4883" rx="2.5" stroke="#181818" stroke-width=".5" width="119" x="20" y="36"/><text font-family="sans-serif" font-size="14" lengthAdjust="spacing" textLength="105" x="27" y="56.5352">Block Assembly</text><rect fill="#e2e2f0" height="30.4883" rx="2.5" stroke="#181818" stroke-width=".5" width="119" x="20" y="514.5254"/><text font-family="sans-serif" font-size="14" lengthAdjust="spacing" textLength="105" x="27" y="535.0605">Block Assembly</text><rect fill="#e2e2f0" height="30.4883" rx="2.5" stroke="#181818" stroke-width=".5" width="131" x="277" y="36"/><text font-family="sans-serif" font-size="14" lengthAdjust="spacing" textLength="117" x="284" y="56.5352">Blockchain Client</text><rect fill="#e2e2f0" height="30.4883" rx="2.5" stroke="#181818" stroke-width=".5" width="131" x="277" y="514.5254"/><text font-family="sans-serif" font-size="14" lengthAdjust="spacing" textLength="117" x="284" y="535.0605">Blockchain Client</text><rect fill="#e2e2f0" height="30.4883" rx="2.5" stroke="#181818" stroke-width=".5" width="134" x="418" y="36"/><text font-family="sans-serif" font-size="14" lengthAdjust="spacing" textLength="120" x="425" y="56.5352">Blockchain Server</text><rect fill="#e2e2f0" height="30.4883" rx="2.5" stroke="#181818" stroke-width=".5" width="134" x="418" y="514.5254"/><text font-family="sans-serif" font-size="14" lengthAdjust="spacing" textLength="120" x="425" y="535.0605">Blockchain Server</text><text font-family="sans-serif" font-size="14" lengthAdjust="spacing" textLength="126" x="676" y="64.5352">Subscription Store</text><path d="m724 15c0-10 18-10 18-10s18 0 18 10v26c0 10-18 10-18 10s-18 0-18-10z" fill="#e2e2f0" stroke="#181818" stroke-width="1.5"/><path d="m724 15c0 10 18 10 18 10s18 0 18-10" fill="none" stroke="#181818" stroke-width="1.5"/><text font-family="sans-serif" font-size="14" lengthAdjust="spacing" textLength="126" x="676" y="528.0605">Subscription Store</text><g stroke="#181818"><path d="m724 541.0137c0-10 18-10 18-10s18 0 18 10v26c0 10-18 10-18 10s-18 0-18-10z" fill="#e2e2f0" stroke-width="1.5"/><path d="m724 541.0137c0 10 18 10 18 10s18 0 18-10" fill="none" stroke-width="1.5"/><path d="m337.5 371.2832h10v127.2422h-10z" fill="#fff"/><path d="m480 131.1094h10v187.5527h-10z" fill="#fff"/><path d="m480 400.5938h10v97.9316h-10z" fill="#fff"/><path d="m737 250.041h10v68.6211h-10z" fill="#fff"/><path d="m737 429.9043h10v68.6211h-10z" fill="#fff"/></g><path d="m398 84.4883h62v7.3105l-10 10h-52z" fill="#eee" stroke="#000" stroke-width="1.5"/><path d="m398 84.4883h430v234.1738h-430z" fill="none" stroke="#000" stroke-width="1.5"/><text font-family="sans-serif" font-size="13" font-weight="bold" lengthAdjust="spacing" textLength="17" x="413" y="98.0566">alt</text><text font-family="sans-serif" font-size="11" font-weight="bold" lengthAdjust="spacing" textLength="210" x="475" y="97.123">[Notification from Blockchain Server]</text><path d="m485 118.1094h47" stroke="#181818"/><path d="m532 118.1094v13" stroke="#181818"/><path d="m491 131.1094h41" stroke="#181818"/><path d="m501 127.1094-10 4 10 4-4-4z" fill="#181818" stroke="#181818"/><text font-family="sans-serif" font-size="13" lengthAdjust="spacing" textLength="67" x="497" y="113.3672">AddBlock()</text><path d="m490 165.4199h42" stroke="#181818"/><path d="m532 165.4199v13" stroke="#181818"/><path d="m491 178.4199h41" stroke="#181818"/><path d="m501 174.4199-10 4 10 4-4-4z" fill="#181818" stroke="#181818"/><text font-family="sans-serif" font-size="13" lengthAdjust="spacing" textLength="233" x="497" y="160.6777">Create Notification (MiningOn/Block)</text><path d="m490 207.7305h42" stroke="#181818"/><path d="m532 207.7305v13" stroke="#181818"/><path d="m491 220.7305h41" stroke="#181818"/><path d="m501 216.7305-10 4 10 4-4-4z" fill="#181818" stroke="#181818"/><text font-family="sans-serif" font-size="13" lengthAdjust="spacing" textLength="113" x="497" y="202.9883">SendNotification()</text><path d="m725 246.041 10 4-10 4 4-4z" fill="#181818" stroke="#181818"/><path d="m490 250.041h241" stroke="#181818"/><text font-family="sans-serif" font-size="13" lengthAdjust="spacing" textLength="116" x="497" y="245.2988">Notify Subscribers</text><path d="m408 265.041h74v7.3106l-10 10h-64z" fill="#eee" stroke="#000" stroke-width="1.5"/><path d="m408 265.041h410v46.6211h-410z" fill="none" stroke="#000" stroke-width="1.5"/><text font-family="sans-serif" font-size="13" font-weight="bold" lengthAdjust="spacing" textLength="29" x="423" y="278.6094">loop</text><text font-family="sans-serif" font-size="11" font-weight="bold" lengthAdjust="spacing" textLength="97" x="497" y="277.6758">[Each Subscriber]</text><path d="m501 299.6621-10 4 10 4-4-4z" fill="#181818" stroke="#181818"/><path d="m495 303.6621h241" stroke="#181818" stroke-dasharray="2 2"/><text font-family="sans-serif" font-size="13" lengthAdjust="spacing" textLength="109" x="507" y="298.9199">Send Notification</text><path d="m10 332.6621h62v7.3106l-10 10h-52z" fill="#eee" stroke="#000" stroke-width="1.5"/><path d="m10 332.6621h818v165.8633h-818z" fill="none" stroke="#000" stroke-width="1.5"/><text font-family="sans-serif" font-size="13" font-weight="bold" lengthAdjust="spacing" textLength="17" x="25" y="346.2305">alt</text><text font-family="sans-serif" font-size="11" font-weight="bold" lengthAdjust="spacing" textLength="349" x="87" y="345.2969">[Notification from Block Assembly through Blockchain Client]</text><path d="m325.5 367.2832 10 4-10 4 4-4z" fill="#181818" stroke="#181818"/><path d="m79.5 371.2832h252" stroke="#181818"/><text font-family="sans-serif" font-size="13" lengthAdjust="spacing" textLength="239" x="86.5" y="366.541">Request to Send Notification (Subtree)</text><path d="m468 396.5938 10 4-10 4 4-4z" fill="#181818" stroke="#181818"/><path d="m347.5 400.5938h126.5" stroke="#181818"/><text font-family="sans-serif" font-size="13" lengthAdjust="spacing" textLength="113" x="354.5" y="395.8516">SendNotification()</text><path d="m725 425.9043 10 4-10 4 4-4z" fill="#181818" stroke="#181818"/><path d="m490 429.9043h241" stroke="#181818"/><text font-family="sans-serif" font-size="13" lengthAdjust="spacing" textLength="116" x="497" y="425.1621">Notify Subscribers</text><path d="m408 444.9043h74v7.3105l-10 10h-64z" fill="#eee" stroke="#000" stroke-width="1.5"/><path d="m408 444.9043h410v46.6211h-410z" fill="none" stroke="#000" stroke-width="1.5"/><text font-family="sans-serif" font-size="13" font-weight="bold" lengthAdjust="spacing" textLength="29" x="423" y="458.4727">loop</text><text font-family="sans-serif" font-size="11" font-weight="bold" lengthAdjust="spacing" textLength="97" x="497" y="457.5391">[Each Subscriber]</text><path d="m501 479.5254-10 4 10 4-4-4z" fill="#181818" stroke="#181818"/><path d="m495 483.5254h241" stroke="#181818" stroke-dasharray="2 2"/><text font-family="sans-serif" font-size="13" lengthAdjust="spacing" textLength="109" x="507" y="478.7832">Send Notification</text></svg>
