<svg contentStyleType="text/css" height="553" preserveAspectRatio="none" viewBox="0 0 644 553" width="644" xmlns="http://www.w3.org/2000/svg" zoomAndPan="magnify"><path d="m313 98.7988h10v112.2422h-10z" fill="#fff" stroke="#181818"/><path d="m503 255.3066h10v29.3105h-10z" fill="#fff" stroke="#181818"/><path d="m578 128.1094h10v29.3105h-10z" fill="#fff" stroke="#181818"/><path d="m10 172.4199h627v285.7051h-627z" fill="none" stroke="#000" stroke-width="1.5"/><path d="m20 299.6172h607v151.5078h-607z" fill="none" stroke="#000" stroke-width="1.5"/><path d="m238.5 368.1934h378.5v46.6211h-378.5z" fill="none" stroke="#000" stroke-width="1.5"/><path d="m77 67.4883v407.6367" stroke="#181818" stroke-dasharray="5 5" stroke-width=".5"/><path d="m317.5 67.4883v407.6367" stroke="#181818" stroke-dasharray="5 5" stroke-width=".5"/><path d="m508 67.4883v407.6367" stroke="#181818" stroke-dasharray="5 5" stroke-width=".5"/><path d="m583 67.4883v407.6367" stroke="#181818" stroke-dasharray="5 5" stroke-width=".5"/><rect fill="#e2e2f0" height="30.4883" rx="2.5" stroke="#181818" stroke-width=".5" width="94" x="30" y="36"/><text font-family="sans-serif" font-size="14" lengthAdjust="spacing" textLength="80" x="37" y="56.5352">Client Code</text><rect fill="#e2e2f0" height="30.4883" rx="2.5" stroke="#181818" stroke-width=".5" width="94" x="30" y="474.125"/><text font-family="sans-serif" font-size="14" lengthAdjust="spacing" textLength="80" x="37" y="494.6602">Client Code</text><rect fill="#e2e2f0" height="30.4883" rx="2.5" stroke="#181818" stroke-width=".5" width="139" x="248.5" y="36"/><text font-family="sans-serif" font-size="14" lengthAdjust="spacing" textLength="125" x="255.5" y="56.5352">Blockchain Service</text><rect fill="#e2e2f0" height="30.4883" rx="2.5" stroke="#181818" stroke-width=".5" width="139" x="248.5" y="474.125"/><text font-family="sans-serif" font-size="14" lengthAdjust="spacing" textLength="125" x="255.5" y="494.6602">Blockchain Service</text><text font-family="sans-serif" font-size="14" lengthAdjust="spacing" textLength="76" x="467" y="64.5352">Block Store</text><path d="m490 15c0-10 18-10 18-10s18 0 18 10v26c0 10-18 10-18 10s-18 0-18-10z" fill="#e2e2f0" stroke="#181818" stroke-width="1.5"/><path d="m490 15c0 10 18 10 18 10s18 0 18-10" fill="none" stroke="#181818" stroke-width="1.5"/><text font-family="sans-serif" font-size="14" lengthAdjust="spacing" textLength="76" x="467" y="487.6602">Block Store</text><path d="m490 500.6133c0-10 18-10 18-10s18 0 18 10v26c0 10-18 10-18 10s-18 0-18-10z" fill="#e2e2f0" stroke="#181818" stroke-width="1.5"/><path d="m490 500.6133c0 10 18 10 18 10s18 0 18-10" fill="none" stroke="#181818" stroke-width="1.5"/><text font-family="sans-serif" font-size="14" lengthAdjust="spacing" textLength="42" x="559" y="64.5352">Model</text><ellipse cx="583" cy="35" fill="#e2e2f0" rx="12" ry="12" stroke="#181818" stroke-width=".5"/><path d="m571 49h24" stroke="#181818" stroke-width=".5"/><text font-family="sans-serif" font-size="14" lengthAdjust="spacing" textLength="42" x="559" y="487.6602">Model</text><g stroke="#181818"><ellipse cx="583" cy="506.6133" fill="#e2e2f0" rx="12" ry="12" stroke-width=".5"/><path d="m571 520.6133h24" stroke-width=".5"/><path d="m313 98.7988h10v112.2422h-10z" fill="#fff"/><path d="m503 255.3066h10v29.3105h-10z" fill="#fff"/><path d="m578 128.1094h10v29.3105h-10z" fill="#fff"/><path d="m301 94.7988 10 4-10 4 4-4z" fill="#181818"/><path d="m77 98.7988h230"/></g><text font-family="sans-serif" font-size="13" lengthAdjust="spacing" textLength="138" x="84" y="94.0566">GetBlock(ctx, request)</text><path d="m566 124.1094 10 4-10 4 4-4z" fill="#181818" stroke="#181818"/><path d="m323 128.1094h249" stroke="#181818"/><text font-family="sans-serif" font-size="13" lengthAdjust="spacing" textLength="150" x="330" y="123.3672">NewHash(request.Hash)</text><path d="m334 153.4199-10 4 10 4-4-4z" fill="#181818" stroke="#181818"/><path d="m328 157.4199h254" stroke="#181818" stroke-dasharray="2 2"/><text font-family="sans-serif" font-size="13" lengthAdjust="spacing" textLength="112" x="340" y="152.6777">blockHash / Error</text><path d="m10 172.4199h62v7.3106l-10 10h-52z" fill="#eee" stroke="#000" stroke-width="1.5"/><path d="m10 172.4199h627v285.7051h-627z" fill="none" stroke="#000" stroke-width="1.5"/><text font-family="sans-serif" font-size="13" font-weight="bold" lengthAdjust="spacing" textLength="17" x="25" y="185.9883">alt</text><text font-family="sans-serif" font-size="11" font-weight="bold" lengthAdjust="spacing" textLength="120" x="87" y="185.0547">[If Error in NewHash]</text><path d="m88 207.041-10 4 10 4-4-4z" fill="#181818" stroke="#181818"/><path d="m82 211.041h235" stroke="#181818" stroke-dasharray="2 2"/><text font-family="sans-serif" font-size="13" lengthAdjust="spacing" textLength="75" x="94" y="206.2988">Return Error</text><path d="m10 220.041h627" stroke="#000" stroke-dasharray="2 2"/><text font-family="sans-serif" font-size="11" font-weight="bold" lengthAdjust="spacing" textLength="163" x="15" y="230.6758">[If Successful Hash Creation]</text><path d="m491 251.3066 10 4-10 4 4-4z" fill="#181818" stroke="#181818"/><path d="m318 255.3066h179" stroke="#181818"/><text font-family="sans-serif" font-size="13" lengthAdjust="spacing" textLength="166" x="325" y="250.5645">GetBlock(ctx1, blockHash)</text><path d="m329 280.6172-10 4 10 4-4-4z" fill="#181818" stroke="#181818"/><path d="m323 284.6172h184" stroke="#181818" stroke-dasharray="2 2"/><text font-family="sans-serif" font-size="13" lengthAdjust="spacing" textLength="128" x="335" y="279.875">block, height / Error</text><path d="m20 299.6172h62v7.3105l-10 10h-52z" fill="#eee" stroke="#000" stroke-width="1.5"/><path d="m20 299.6172h607v151.5078h-607z" fill="none" stroke="#000" stroke-width="1.5"/><text font-family="sans-serif" font-size="13" font-weight="bold" lengthAdjust="spacing" textLength="17" x="35" y="313.1855">alt</text><text font-family="sans-serif" font-size="11" font-weight="bold" lengthAdjust="spacing" textLength="118" x="97" y="312.252">[If Error in GetBlock]</text><path d="m88 334.2383-10 4 10 4-4-4z" fill="#181818" stroke="#181818"/><path d="m82 338.2383h235" stroke="#181818" stroke-dasharray="2 2"/><text font-family="sans-serif" font-size="13" lengthAdjust="spacing" textLength="75" x="94" y="333.4961">Return Error</text><path d="m20 347.2383h607" stroke="#000" stroke-dasharray="2 2"/><text font-family="sans-serif" font-size="11" font-weight="bold" lengthAdjust="spacing" textLength="133" x="25" y="357.873">[If Successful GetBlock]</text><path d="m238.5 368.1934h74v7.3105l-10 10h-64z" fill="#eee" stroke="#000" stroke-width="1.5"/><path d="m238.5 368.1934h378.5v46.6211h-378.5z" fill="none" stroke="#000" stroke-width="1.5"/><text font-family="sans-serif" font-size="13" font-weight="bold" lengthAdjust="spacing" textLength="29" x="253.5" y="381.7617">loop</text><text font-family="sans-serif" font-size="11" font-weight="bold" lengthAdjust="spacing" textLength="183" x="327.5" y="380.8281">[For Each Subtree Hash in block]</text><path d="m571 402.8145 10 4-10 4 4-4z" fill="#181818" stroke="#181818"/><path d="m318 406.8145h259" stroke="#181818"/><text font-family="sans-serif" font-size="13" lengthAdjust="spacing" textLength="186" x="325" y="402.0723">Convert SubtreeHash to Bytes</text><path d="m88 439.125-10 4 10 4-4-4z" fill="#181818" stroke="#181818"/><path d="m82 443.125h235" stroke="#181818" stroke-dasharray="2 2"/><text font-family="sans-serif" font-size="13" lengthAdjust="spacing" textLength="217" x="94" y="438.3828">Create &amp; Return GetBlockResponse</text></svg>
