<svg contentStyleType="text/css" height="699" preserveAspectRatio="none" viewBox="0 0 841 699" width="841" xmlns="http://www.w3.org/2000/svg" zoomAndPan="magnify"><path d="m197 464.1699h10v135.2422h-10z" fill="#fff" stroke="#181818"/><path d="m435 128.1094h10v277.4395h-10z" fill="#fff" stroke="#181818"/><path d="m769 157.4199h10v29.3105h-10z" fill="#fff" stroke="#181818"/><path d="m30 334.9727h108v63.5762h-108z" fill="none" stroke="#000" stroke-width="1.5"/><path d="m40 374.2383h89v17.3105h-89z" fill="none" stroke="#000" stroke-width="1.5"/><g stroke="#181818"><path d="m57 67.4883v549.9238" stroke-dasharray="5 5" stroke-width=".5"/><path d="m201.5 67.4883v549.9238" stroke-dasharray="5 5" stroke-width=".5"/><path d="m440 67.4883v549.9238" stroke-dasharray="5 5" stroke-width=".5"/><path d="m774 67.4883v549.9238" stroke-dasharray="5 5" stroke-width=".5"/><rect fill="#e2e2f0" height="30.4883" rx="2.5" stroke-width=".5" width="54" x="30" y="36"/></g><text font-family="sans-serif" font-size="14" lengthAdjust="spacing" textLength="40" x="37" y="56.5352">Client</text><rect fill="#e2e2f0" height="30.4883" rx="2.5" stroke="#181818" stroke-width=".5" width="54" x="30" y="616.4121"/><text font-family="sans-serif" font-size="14" lengthAdjust="spacing" textLength="40" x="37" y="636.9473">Client</text><rect fill="#e2e2f0" height="30.4883" rx="2.5" stroke="#181818" stroke-width=".5" width="131" x="136.5" y="36"/><text font-family="sans-serif" font-size="14" lengthAdjust="spacing" textLength="117" x="143.5" y="56.5352">Blockchain Client</text><rect fill="#e2e2f0" height="30.4883" rx="2.5" stroke="#181818" stroke-width=".5" width="131" x="136.5" y="616.4121"/><text font-family="sans-serif" font-size="14" lengthAdjust="spacing" textLength="117" x="143.5" y="636.9473">Blockchain Client</text><rect fill="#e2e2f0" height="30.4883" rx="2.5" stroke="#181818" stroke-width=".5" width="134" x="373" y="36"/><text font-family="sans-serif" font-size="14" lengthAdjust="spacing" textLength="120" x="380" y="56.5352">Blockchain Server</text><rect fill="#e2e2f0" height="30.4883" rx="2.5" stroke="#181818" stroke-width=".5" width="134" x="373" y="616.4121"/><text font-family="sans-serif" font-size="14" lengthAdjust="spacing" textLength="120" x="380" y="636.9473">Blockchain Server</text><text font-family="sans-serif" font-size="14" lengthAdjust="spacing" textLength="126" x="708" y="64.5352">Subscription Store</text><path d="m756 15c0-10 18-10 18-10s18 0 18 10v26c0 10-18 10-18 10s-18 0-18-10z" fill="#e2e2f0" stroke="#181818" stroke-width="1.5"/><path d="m756 15c0 10 18 10 18 10s18 0 18-10" fill="none" stroke="#181818" stroke-width="1.5"/><text font-family="sans-serif" font-size="14" lengthAdjust="spacing" textLength="126" x="708" y="629.9473">Subscription Store</text><g stroke="#181818"><path d="m756 642.9004c0-10 18-10 18-10s18 0 18 10v26c0 10-18 10-18 10s-18 0-18-10z" fill="#e2e2f0" stroke-width="1.5"/><path d="m756 642.9004c0 10 18 10 18 10s18 0 18-10" fill="none" stroke-width="1.5"/><g fill="#fff"><path d="m197 464.1699h10v135.2422h-10z"/><path d="m435 128.1094h10v277.4395h-10z"/><path d="m769 157.4199h10v29.3105h-10z"/></g><path d="m190 94.7988 10 4-10 4 4-4z" fill="#181818"/><path d="m57 98.7988h139"/></g><text font-family="sans-serif" font-size="13" lengthAdjust="spacing" textLength="111" x="64" y="94.0566">Subscribe(source)</text><path d="m423 124.1094 10 4-10 4 4-4z" fill="#181818" stroke="#181818"/><path d="m202 128.1094h227" stroke="#181818"/><text font-family="sans-serif" font-size="13" lengthAdjust="spacing" textLength="111" x="209" y="123.3672">Subscribe(source)</text><path d="m757 153.4199 10 4-10 4 4-4z" fill="#181818" stroke="#181818"/><path d="m445 157.4199h318" stroke="#181818"/><text font-family="sans-serif" font-size="13" lengthAdjust="spacing" textLength="23" x="452" y="152.6777">add</text><path d="m456 182.7305-10 4 10 4-4-4z" fill="#181818" stroke="#181818"/><path d="m450 186.7305h323" stroke="#181818" stroke-dasharray="2 2"/><text font-family="sans-serif" font-size="13" lengthAdjust="spacing" textLength="84" x="462" y="181.9883">Acknowledge</text><path d="m445 240.3516h42" stroke="#181818"/><path d="m487 240.3516v13" stroke="#181818"/><path d="m446 253.3516h41" stroke="#181818"/><path d="m456 249.3516-10 4 10 4-4-4z" fill="#181818" stroke="#181818"/><text font-family="sans-serif" font-size="13" lengthAdjust="spacing" textLength="310" x="452" y="235.6094">Wait for Client disconnection or Subscription end</text><path d="m445 306.9727h42" stroke="#181818"/><path d="m487 306.9727v13" stroke="#181818"/><path d="m446 319.9727h41" stroke="#181818"/><path d="m456 315.9727-10 4 10 4-4-4z" fill="#181818" stroke="#181818"/><text font-family="sans-serif" font-size="13" lengthAdjust="spacing" textLength="162" x="452" y="302.2305">Log "Client disconnected"</text><path d="m30 334.9727h84v7.3105l-10 10h-74z" fill="#eee" stroke="#000" stroke-width="1.5"/><path d="m30 334.9727h108v63.5762h-108z" fill="none" stroke="#000" stroke-width="1.5"/><text font-family="sans-serif" font-size="13" font-weight="bold" lengthAdjust="spacing" textLength="39" x="45" y="348.541">break</text><path d="m30 353.2832h108" stroke="#000" stroke-dasharray="2 2"/><text font-family="sans-serif" font-size="11" font-weight="bold" lengthAdjust="spacing" textLength="103" x="35" y="363.918">[Subscription End]</text><path d="m40 374.2383h84v7.3105l-10 10h-74z" fill="#eee" stroke="#000" stroke-width="1.5"/><path d="m40 374.2383h89v17.3105h-89z" fill="none" stroke="#000" stroke-width="1.5"/><text font-family="sans-serif" font-size="13" font-weight="bold" lengthAdjust="spacing" textLength="39" x="55" y="387.8066">break</text><path d="m213 422.8594-10 4 10 4-4-4z" fill="#181818" stroke="#181818"/><path d="m207 426.8594h232" stroke="#181818" stroke-dasharray="2 2"/><text font-family="sans-serif" font-size="13" lengthAdjust="spacing" textLength="214" x="219" y="422.1172">Subscription Established or Ended</text><path d="m202 451.1699h47" stroke="#181818"/><path d="m249 451.1699v13" stroke="#181818"/><path d="m208 464.1699h41" stroke="#181818"/><path d="m218 460.1699-10 4 10 4-4-4z" fill="#181818" stroke="#181818"/><text font-family="sans-serif" font-size="13" lengthAdjust="spacing" textLength="131" x="214" y="446.4277">Manage Subscription</text><path d="m428 494.4805 10 4-10 4 4-4z" fill="#181818" stroke="#181818"/><path d="m207 498.4805h227" stroke="#181818"/><text font-family="sans-serif" font-size="13" lengthAdjust="spacing" textLength="170" x="214" y="493.7383">Stream Recv (Notifications)</text><path d="m218 523.791-10 4 10 4-4-4z" fill="#181818" stroke="#181818"/><path d="m212 527.791h227" stroke="#181818" stroke-dasharray="2 2"/><text font-family="sans-serif" font-size="13" lengthAdjust="spacing" textLength="116" x="224" y="523.0488">Send Notifications</text><path d="m207 557.1016h42" stroke="#181818" stroke-dasharray="2 2"/><path d="m249 557.1016v13" stroke="#181818" stroke-dasharray="2 2"/><path d="m208 570.1016h41" stroke="#181818" stroke-dasharray="2 2"/><path d="m218 566.1016-10 4 10 4-4-4z" fill="#181818" stroke="#181818"/><text font-family="sans-serif" font-size="13" lengthAdjust="spacing" textLength="134" x="214" y="552.3594">Process Notifications</text><path d="m68 595.4121-10 4 10 4-4-4z" fill="#181818" stroke="#181818"/><path d="m62 599.4121h139" stroke="#181818" stroke-dasharray="2 2"/><text font-family="sans-serif" font-size="13" lengthAdjust="spacing" textLength="116" x="74" y="594.6699">Send Notifications</text><text fill="#888" font-family="sans-serif" font-size="10" lengthAdjust="spacing" textLength="152" y="689.5684">Last Modified On: 24-Jan-2024</text></svg>
