<svg contentStyleType="text/css" height="358" preserveAspectRatio="none" viewBox="0 0 827 358" width="827" xmlns="http://www.w3.org/2000/svg" zoomAndPan="magnify"><path d="m326 98.7988h10v112.2422h-10z" fill="#fff" stroke="#181818"/><path d="m780 128.1094h10v29.3105h-10z" fill="#fff" stroke="#181818"/><path d="m10 172.4199h400.5v90.8867h-400.5z" fill="none" stroke="#000" stroke-width="1.5"/><path d="m47 67.4883v212.8183" stroke="#181818" stroke-dasharray="5 5" stroke-width=".5"/><path d="m330.5 67.4883v212.8183" stroke="#181818" stroke-dasharray="5 5" stroke-width=".5"/><path d="m785 67.4883v212.8183" stroke="#181818" stroke-dasharray="5 5" stroke-width=".5"/><rect fill="#e2e2f0" height="30.4883" rx="2.5" stroke="#181818" stroke-width=".5" width="54" x="20" y="36"/><text font-family="sans-serif" font-size="14" lengthAdjust="spacing" textLength="40" x="27" y="56.5352">Client</text><rect fill="#e2e2f0" height="30.4883" rx="2.5" stroke="#181818" stroke-width=".5" width="54" x="20" y="279.3066"/><text font-family="sans-serif" font-size="14" lengthAdjust="spacing" textLength="40" x="27" y="299.8418">Client</text><rect fill="#e2e2f0" height="30.4883" rx="2.5" stroke="#181818" stroke-width=".5" width="139" x="261.5" y="36"/><text font-family="sans-serif" font-size="14" lengthAdjust="spacing" textLength="125" x="268.5" y="56.5352">Blockchain Service</text><rect fill="#e2e2f0" height="30.4883" rx="2.5" stroke="#181818" stroke-width=".5" width="139" x="261.5" y="279.3066"/><text font-family="sans-serif" font-size="14" lengthAdjust="spacing" textLength="125" x="268.5" y="299.8418">Blockchain Service</text><text font-family="sans-serif" font-size="14" lengthAdjust="spacing" textLength="76" x="744" y="64.5352">Block Store</text><path d="m767 15c0-10 18-10 18-10s18 0 18 10v26c0 10-18 10-18 10s-18 0-18-10z" fill="#e2e2f0" stroke="#181818" stroke-width="1.5"/><path d="m767 15c0 10 18 10 18 10s18 0 18-10" fill="none" stroke="#181818" stroke-width="1.5"/><text font-family="sans-serif" font-size="14" lengthAdjust="spacing" textLength="76" x="744" y="292.8418">Block Store</text><g stroke="#181818"><path d="m767 305.7949c0-10 18-10 18-10s18 0 18 10v26c0 10-18 10-18 10s-18 0-18-10z" fill="#e2e2f0" stroke-width="1.5"/><path d="m767 305.7949c0 10 18 10 18 10s18 0 18-10" fill="none" stroke-width="1.5"/><path d="m326 98.7988h10v112.2422h-10z" fill="#fff"/><path d="m780 128.1094h10v29.3105h-10z" fill="#fff"/><path d="m314 94.7988 10 4-10 4 4-4z" fill="#181818"/><path d="m47 98.7988h273"/></g><text font-family="sans-serif" font-size="13" lengthAdjust="spacing" textLength="181" x="54" y="94.0566">GetLastNBlocks(ctx, request)</text><path d="m768 124.1094 10 4-10 4 4-4z" fill="#181818" stroke="#181818"/><path d="m336 128.1094h438" stroke="#181818"/><text font-family="sans-serif" font-size="13" lengthAdjust="spacing" textLength="425" x="343" y="123.3672">GetLastNBlocks(ctx, numberOfBlocks, includeOrphans, fromHeight)</text><path d="m347 153.4199-10 4 10 4-4-4z" fill="#181818" stroke="#181818"/><path d="m341 157.4199h443" stroke="#181818" stroke-dasharray="2 2"/><text font-family="sans-serif" font-size="13" lengthAdjust="spacing" textLength="105" x="353" y="152.6777">blockInfo / Error</text><path d="m10 172.4199h62v7.3106l-10 10h-52z" fill="#eee" stroke="#000" stroke-width="1.5"/><path d="m10 172.4199h400.5v90.8867h-400.5z" fill="none" stroke="#000" stroke-width="1.5"/><text font-family="sans-serif" font-size="13" font-weight="bold" lengthAdjust="spacing" textLength="17" x="25" y="185.9883">alt</text><text font-family="sans-serif" font-size="11" font-weight="bold" lengthAdjust="spacing" textLength="154" x="87" y="185.0547">[If Error in GetLastNBlocks]</text><path d="m58 207.041-10 4 10 4-4-4z" fill="#181818" stroke="#181818"/><path d="m52 211.041h278" stroke="#181818" stroke-dasharray="2 2"/><text font-family="sans-serif" font-size="13" lengthAdjust="spacing" textLength="75" x="64" y="206.2988">Return Error</text><path d="m10 220.041h400.5" stroke="#000" stroke-dasharray="2 2"/><text font-family="sans-serif" font-size="11" font-weight="bold" lengthAdjust="spacing" textLength="80" x="15" y="230.6758">[If Successful]</text><path d="m58 251.3066-10 4 10 4-4-4z" fill="#181818" stroke="#181818"/><path d="m52 255.3066h278" stroke="#181818" stroke-dasharray="2 2"/><text font-family="sans-serif" font-size="13" lengthAdjust="spacing" textLength="260" x="64" y="250.5645">Create &amp; Return GetLastNBlocksResponse</text></svg>
