<?xml version="1.0" encoding="us-ascii" standalone="no"?><svg xmlns="http://www.w3.org/2000/svg" xmlns:xlink="http://www.w3.org/1999/xlink" contentStyleType="text/css" height="1020px" preserveAspectRatio="none" style="width:1635px;height:1020px;background:#FFFFFF;" version="1.1" viewBox="0 0 1635 1020" width="1635px" zoomAndPan="magnify"><defs/><g><rect fill="#FFFFFF" height="830.3848" style="stroke:#181818;stroke-width:1.0;" width="10" x="223.5" y="98.7988"/><rect fill="#FFFFFF" height="801.0742" style="stroke:#181818;stroke-width:1.0;" width="10" x="479.5" y="128.1094"/><rect fill="#FFFFFF" height="153.5527" style="stroke:#181818;stroke-width:1.0;" width="10" x="484.5" y="559.457"/><rect fill="#FFFFFF" height="29.3105" style="stroke:#181818;stroke-width:1.0;" width="10" x="796.5" y="157.4199"/><rect fill="#FFFFFF" height="29.3105" style="stroke:#181818;stroke-width:1.0;" width="10" x="917" y="216.041"/><rect fill="#FFFFFF" height="29.3105" style="stroke:#181818;stroke-width:1.0;" width="10" x="917" y="742.3203"/><rect fill="#FFFFFF" height="29.3105" style="stroke:#181818;stroke-width:1.0;" width="10" x="1039" y="316.9727"/><rect fill="#FFFFFF" height="29.3105" style="stroke:#181818;stroke-width:1.0;" width="10" x="1205.5" y="375.5938"/><rect fill="#FFFFFF" height="29.3105" style="stroke:#181818;stroke-width:1.0;" width="10" x="1321.5" y="434.2148"/><rect fill="#FFFFFF" height="29.3105" style="stroke:#181818;stroke-width:1.0;" width="10" x="1423.5" y="618.0781"/><rect fill="#FFFFFF" height="29.3105" style="stroke:#181818;stroke-width:1.0;" width="10" x="1548.5" y="492.8359"/><rect fill="#FFFFFF" height="29.3105" style="stroke:#181818;stroke-width:1.0;" width="10" x="1548.5" y="683.6992"/><rect fill="#FFFFFF" height="29.3105" style="stroke:#181818;stroke-width:1.0;" width="10" x="1548.5" y="825.252"/><rect fill="none" height="75.9316" style="stroke:#000000;stroke-width:1.5;" width="1096.5" x="391.5" y="579.457"/><rect fill="none" height="75.9316" style="stroke:#000000;stroke-width:1.5;" width="1237.5" x="391.5" y="786.6309"/><line style="stroke:#181818;stroke-width:0.5;stroke-dasharray:5.0,5.0;" x1="35" x2="35" y1="67.4883" y2="938.1836"/><line style="stroke:#181818;stroke-width:0.5;stroke-dasharray:5.0,5.0;" x1="228" x2="228" y1="67.4883" y2="938.1836"/><line style="stroke:#181818;stroke-width:0.5;stroke-dasharray:5.0,5.0;" x1="484.5" x2="484.5" y1="67.4883" y2="938.1836"/><line style="stroke:#181818;stroke-width:0.5;stroke-dasharray:5.0,5.0;" x1="801" x2="801" y1="67.4883" y2="938.1836"/><line style="stroke:#181818;stroke-width:0.5;stroke-dasharray:5.0,5.0;" x1="922" x2="922" y1="67.4883" y2="938.1836"/><line style="stroke:#181818;stroke-width:0.5;stroke-dasharray:5.0,5.0;" x1="989" x2="989" y1="67.4883" y2="938.1836"/><line style="stroke:#181818;stroke-width:0.5;stroke-dasharray:5.0,5.0;" x1="1044" x2="1044" y1="67.4883" y2="938.1836"/><line style="stroke:#181818;stroke-width:0.5;stroke-dasharray:5.0,5.0;" x1="1210" x2="1210" y1="67.4883" y2="938.1836"/><line style="stroke:#181818;stroke-width:0.5;stroke-dasharray:5.0,5.0;" x1="1326" x2="1326" y1="67.4883" y2="938.1836"/><line style="stroke:#181818;stroke-width:0.5;stroke-dasharray:5.0,5.0;" x1="1428" x2="1428" y1="67.4883" y2="938.1836"/><line style="stroke:#181818;stroke-width:0.5;stroke-dasharray:5.0,5.0;" x1="1553" x2="1553" y1="67.4883" y2="938.1836"/><rect fill="#E2E2F0" height="30.4883" rx="2.5" ry="2.5" style="stroke:#181818;stroke-width:0.5;" width="61" x="5" y="36"/><text fill="#000000" font-family="sans-serif" font-size="14" lengthAdjust="spacing" textLength="47" x="12" y="56.5352">Mining</text><rect fill="#E2E2F0" height="30.4883" rx="2.5" ry="2.5" style="stroke:#181818;stroke-width:0.5;" width="61" x="5" y="937.1836"/><text fill="#000000" font-family="sans-serif" font-size="14" lengthAdjust="spacing" textLength="47" x="12" y="957.7188">Mining</text><rect fill="#E2E2F0" height="30.4883" rx="2.5" ry="2.5" style="stroke:#181818;stroke-width:0.5;" width="163" x="147" y="36"/><text fill="#000000" font-family="sans-serif" font-size="14" lengthAdjust="spacing" textLength="149" x="154" y="56.5352">Block Assembly Client</text><rect fill="#E2E2F0" height="30.4883" rx="2.5" ry="2.5" style="stroke:#181818;stroke-width:0.5;" width="163" x="147" y="937.1836"/><text fill="#000000" font-family="sans-serif" font-size="14" lengthAdjust="spacing" textLength="149" x="154" y="957.7188">Block Assembly Client</text><rect fill="#E2E2F0" height="30.4883" rx="2.5" ry="2.5" style="stroke:#181818;stroke-width:0.5;" width="166" x="401.5" y="36"/><text fill="#000000" font-family="sans-serif" font-size="14" lengthAdjust="spacing" textLength="152" x="408.5" y="56.5352">Block Assembly Server</text><rect fill="#E2E2F0" height="30.4883" rx="2.5" ry="2.5" style="stroke:#181818;stroke-width:0.5;" width="166" x="401.5" y="937.1836"/><text fill="#000000" font-family="sans-serif" font-size="14" lengthAdjust="spacing" textLength="152" x="408.5" y="957.7188">Block Assembly Server</text><rect fill="#E2E2F0" height="30.4883" rx="2.5" ry="2.5" style="stroke:#181818;stroke-width:0.5;" width="149" x="727" y="36"/><text fill="#000000" font-family="sans-serif" font-size="14" lengthAdjust="spacing" textLength="135" x="734" y="56.5352">blockSubmissionCh</text><rect fill="#E2E2F0" height="30.4883" rx="2.5" ry="2.5" style="stroke:#181818;stroke-width:0.5;" width="149" x="727" y="937.1836"/><text fill="#000000" font-family="sans-serif" font-size="14" lengthAdjust="spacing" textLength="135" x="734" y="957.7188">blockSubmissionCh</text><rect fill="#E2E2F0" height="30.4883" rx="2.5" ry="2.5" style="stroke:#181818;stroke-width:0.5;" width="72" x="886" y="36"/><text fill="#000000" font-family="sans-serif" font-size="14" lengthAdjust="spacing" textLength="58" x="893" y="56.5352">JobStore</text><rect fill="#E2E2F0" height="30.4883" rx="2.5" ry="2.5" style="stroke:#181818;stroke-width:0.5;" width="72" x="886" y="937.1836"/><text fill="#000000" font-family="sans-serif" font-size="14" lengthAdjust="spacing" textLength="58" x="893" y="957.7188">JobStore</text><text fill="#000000" font-family="sans-serif" font-size="14" lengthAdjust="spacing" textLength="36" x="968" y="64.5352">Block</text><ellipse cx="989" cy="35" fill="#E2E2F0" rx="12" ry="12" style="stroke:#181818;stroke-width:0.5;"/><line style="stroke:#181818;stroke-width:0.5;" x1="977" x2="1001" y1="49" y2="49"/><text fill="#000000" font-family="sans-serif" font-size="14" lengthAdjust="spacing" textLength="36" x="968" y="950.7188">Block</text><ellipse cx="989" cy="969.6719" fill="#E2E2F0" rx="12" ry="12" style="stroke:#181818;stroke-width:0.5;"/><line style="stroke:#181818;stroke-width:0.5;" x1="977" x2="1001" y1="983.6719" y2="983.6719"/><text fill="#000000" font-family="sans-serif" font-size="14" lengthAdjust="spacing" textLength="42" x="1020" y="64.5352">Model</text><ellipse cx="1044" cy="35" fill="#E2E2F0" rx="12" ry="12" style="stroke:#181818;stroke-width:0.5;"/><line style="stroke:#181818;stroke-width:0.5;" x1="1032" x2="1056" y1="49" y2="49"/><text fill="#000000" font-family="sans-serif" font-size="14" lengthAdjust="spacing" textLength="42" x="1020" y="950.7188">Model</text><ellipse cx="1044" cy="969.6719" fill="#E2E2F0" rx="12" ry="12" style="stroke:#181818;stroke-width:0.5;"/><line style="stroke:#181818;stroke-width:0.5;" x1="1032" x2="1056" y1="983.6719" y2="983.6719"/><text fill="#000000" font-family="sans-serif" font-size="14" lengthAdjust="spacing" textLength="121" x="1147" y="64.5352">Transaction Store</text><path d="M1192.5,15 C1192.5,5 1210.5,5 1210.5,5 C1210.5,5 1228.5,5 1228.5,15 L1228.5,41 C1228.5,51 1210.5,51 1210.5,51 C1210.5,51 1192.5,51 1192.5,41 L1192.5,15 " fill="#E2E2F0" style="stroke:#181818;stroke-width:1.5;"/><path d="M1192.5,15 C1192.5,25 1210.5,25 1210.5,25 C1210.5,25 1228.5,25 1228.5,15 " fill="none" style="stroke:#181818;stroke-width:1.5;"/><text fill="#000000" font-family="sans-serif" font-size="14" lengthAdjust="spacing" textLength="121" x="1147" y="950.7188">Transaction Store</text><path d="M1192.5,963.6719 C1192.5,953.6719 1210.5,953.6719 1210.5,953.6719 C1210.5,953.6719 1228.5,953.6719 1228.5,963.6719 L1228.5,989.6719 C1228.5,999.6719 1210.5,999.6719 1210.5,999.6719 C1210.5,999.6719 1192.5,999.6719 1192.5,989.6719 L1192.5,963.6719 " fill="#E2E2F0" style="stroke:#181818;stroke-width:1.5;"/><path d="M1192.5,963.6719 C1192.5,973.6719 1210.5,973.6719 1210.5,973.6719 C1210.5,973.6719 1228.5,973.6719 1228.5,963.6719 " fill="none" style="stroke:#181818;stroke-width:1.5;"/><text fill="#000000" font-family="sans-serif" font-size="14" lengthAdjust="spacing" textLength="79" x="1284" y="64.5352">UTXO Store</text><path d="M1308.5,15 C1308.5,5 1326.5,5 1326.5,5 C1326.5,5 1344.5,5 1344.5,15 L1344.5,41 C1344.5,51 1326.5,51 1326.5,51 C1326.5,51 1308.5,51 1308.5,41 L1308.5,15 " fill="#E2E2F0" style="stroke:#181818;stroke-width:1.5;"/><path d="M1308.5,15 C1308.5,25 1326.5,25 1326.5,25 C1326.5,25 1344.5,25 1344.5,15 " fill="none" style="stroke:#181818;stroke-width:1.5;"/><text fill="#000000" font-family="sans-serif" font-size="14" lengthAdjust="spacing" textLength="79" x="1284" y="950.7188">UTXO Store</text><path d="M1308.5,963.6719 C1308.5,953.6719 1326.5,953.6719 1326.5,953.6719 C1326.5,953.6719 1344.5,953.6719 1344.5,963.6719 L1344.5,989.6719 C1344.5,999.6719 1326.5,999.6719 1326.5,999.6719 C1326.5,999.6719 1308.5,999.6719 1308.5,989.6719 L1308.5,963.6719 " fill="#E2E2F0" style="stroke:#181818;stroke-width:1.5;"/><path d="M1308.5,963.6719 C1308.5,973.6719 1326.5,973.6719 1326.5,973.6719 C1326.5,973.6719 1344.5,973.6719 1344.5,963.6719 " fill="none" style="stroke:#181818;stroke-width:1.5;"/><text fill="#000000" font-family="sans-serif" font-size="14" lengthAdjust="spacing" textLength="93" x="1379" y="64.5352">Subtree Store</text><path d="M1410.5,15 C1410.5,5 1428.5,5 1428.5,5 C1428.5,5 1446.5,5 1446.5,15 L1446.5,41 C1446.5,51 1428.5,51 1428.5,51 C1428.5,51 1410.5,51 1410.5,41 L1410.5,15 " fill="#E2E2F0" style="stroke:#181818;stroke-width:1.5;"/><path d="M1410.5,15 C1410.5,25 1428.5,25 1428.5,25 C1428.5,25 1446.5,25 1446.5,15 " fill="none" style="stroke:#181818;stroke-width:1.5;"/><text fill="#000000" font-family="sans-serif" font-size="14" lengthAdjust="spacing" textLength="93" x="1379" y="950.7188">Subtree Store</text><path d="M1410.5,963.6719 C1410.5,953.6719 1428.5,953.6719 1428.5,953.6719 C1428.5,953.6719 1446.5,953.6719 1446.5,963.6719 L1446.5,989.6719 C1446.5,999.6719 1428.5,999.6719 1428.5,999.6719 C1428.5,999.6719 1410.5,999.6719 1410.5,989.6719 L1410.5,963.6719 " fill="#E2E2F0" style="stroke:#181818;stroke-width:1.5;"/><path d="M1410.5,963.6719 C1410.5,973.6719 1428.5,973.6719 1428.5,973.6719 C1428.5,973.6719 1446.5,973.6719 1446.5,963.6719 " fill="none" style="stroke:#181818;stroke-width:1.5;"/><rect fill="#E2E2F0" height="30.4883" rx="2.5" ry="2.5" style="stroke:#181818;stroke-width:0.5;" width="131" x="1488" y="36"/><text fill="#000000" font-family="sans-serif" font-size="14" lengthAdjust="spacing" textLength="117" x="1495" y="56.5352">Blockchain Client</text><rect fill="#E2E2F0" height="30.4883" rx="2.5" ry="2.5" style="stroke:#181818;stroke-width:0.5;" width="131" x="1488" y="937.1836"/><text fill="#000000" font-family="sans-serif" font-size="14" lengthAdjust="spacing" textLength="117" x="1495" y="957.7188">Blockchain Client</text><rect fill="#FFFFFF" height="830.3848" style="stroke:#181818;stroke-width:1.0;" width="10" x="223.5" y="98.7988"/><rect fill="#FFFFFF" height="801.0742" style="stroke:#181818;stroke-width:1.0;" width="10" x="479.5" y="128.1094"/><rect fill="#FFFFFF" height="153.5527" style="stroke:#181818;stroke-width:1.0;" width="10" x="484.5" y="559.457"/><rect fill="#FFFFFF" height="29.3105" style="stroke:#181818;stroke-width:1.0;" width="10" x="796.5" y="157.4199"/><rect fill="#FFFFFF" height="29.3105" style="stroke:#181818;stroke-width:1.0;" width="10" x="917" y="216.041"/><rect fill="#FFFFFF" height="29.3105" style="stroke:#181818;stroke-width:1.0;" width="10" x="917" y="742.3203"/><rect fill="#FFFFFF" height="29.3105" style="stroke:#181818;stroke-width:1.0;" width="10" x="1039" y="316.9727"/><rect fill="#FFFFFF" height="29.3105" style="stroke:#181818;stroke-width:1.0;" width="10" x="1205.5" y="375.5938"/><rect fill="#FFFFFF" height="29.3105" style="stroke:#181818;stroke-width:1.0;" width="10" x="1321.5" y="434.2148"/><rect fill="#FFFFFF" height="29.3105" style="stroke:#181818;stroke-width:1.0;" width="10" x="1423.5" y="618.0781"/><rect fill="#FFFFFF" height="29.3105" style="stroke:#181818;stroke-width:1.0;" width="10" x="1548.5" y="492.8359"/><rect fill="#FFFFFF" height="29.3105" style="stroke:#181818;stroke-width:1.0;" width="10" x="1548.5" y="683.6992"/><rect fill="#FFFFFF" height="29.3105" style="stroke:#181818;stroke-width:1.0;" width="10" x="1548.5" y="825.252"/><polygon fill="#181818" points="211.5,94.7988,221.5,98.7988,211.5,102.7988,215.5,98.7988" style="stroke:#181818;stroke-width:1.0;"/><line style="stroke:#181818;stroke-width:1.0;" x1="35.5" x2="217.5" y1="98.7988" y2="98.7988"/><text fill="#000000" font-family="sans-serif" font-size="13" lengthAdjust="spacing" textLength="169" x="42.5" y="94.0566">Solve the mining challenge</text><polygon fill="#181818" points="467.5,124.1094,477.5,128.1094,467.5,132.1094,471.5,128.1094" style="stroke:#181818;stroke-width:1.0;"/><line style="stroke:#181818;stroke-width:1.0;" x1="233.5" x2="473.5" y1="128.1094" y2="128.1094"/><text fill="#000000" font-family="sans-serif" font-size="13" lengthAdjust="spacing" textLength="227" x="240.5" y="123.3672">SubmitMiningSolution(ctx, solution)</text><polygon fill="#181818" points="784.5,153.4199,794.5,157.4199,784.5,161.4199,788.5,157.4199" style="stroke:#181818;stroke-width:1.0;"/><line style="stroke:#181818;stroke-width:1.0;" x1="489.5" x2="790.5" y1="157.4199" y2="157.4199"/><text fill="#000000" font-family="sans-serif" font-size="13" lengthAdjust="spacing" textLength="141" x="496.5" y="152.6777">Add block submission</text><polygon fill="#181818" points="500.5,182.7305,490.5,186.7305,500.5,190.7305,496.5,186.7305" style="stroke:#181818;stroke-width:1.0;"/><line style="stroke:#181818;stroke-width:1.0;" x1="494.5" x2="800.5" y1="186.7305" y2="186.7305"/><text fill="#000000" font-family="sans-serif" font-size="13" lengthAdjust="spacing" textLength="283" x="506.5" y="181.9883">submitMiningSolution(ctx, blockSubmission)</text><polygon fill="#181818" points="905,212.041,915,216.041,905,220.041,909,216.041" style="stroke:#181818;stroke-width:1.0;"/><line style="stroke:#181818;stroke-width:1.0;" x1="489.5" x2="911" y1="216.041" y2="216.041"/><text fill="#000000" font-family="sans-serif" font-size="13" lengthAdjust="spacing" textLength="145" x="496.5" y="211.2988">jobItem = Get(*storeId)</text><polygon fill="#181818" points="500.5,241.3516,490.5,245.3516,500.5,249.3516,496.5,245.3516" style="stroke:#181818;stroke-width:1.0;"/><line style="stroke:#181818;stroke-width:1.0;stroke-dasharray:2.0,2.0;" x1="494.5" x2="921" y1="245.3516" y2="245.3516"/><text fill="#000000" font-family="sans-serif" font-size="13" lengthAdjust="spacing" textLength="90" x="506.5" y="240.6094">return jobItem</text><line style="stroke:#181818;stroke-width:1.0;" x1="489.5" x2="531.5" y1="274.6621" y2="274.6621"/><line style="stroke:#181818;stroke-width:1.0;" x1="531.5" x2="531.5" y1="274.6621" y2="287.6621"/><line style="stroke:#181818;stroke-width:1.0;" x1="490.5" x2="531.5" y1="287.6621" y2="287.6621"/><polygon fill="#181818" points="500.5,283.6621,490.5,287.6621,500.5,291.6621,496.5,287.6621" style="stroke:#181818;stroke-width:1.0;"/><text fill="#000000" font-family="sans-serif" font-size="13" lengthAdjust="spacing" textLength="229" x="496.5" y="269.9199">Create new block with proof of work</text><polygon fill="#181818" points="1027,312.9727,1037,316.9727,1027,320.9727,1031,316.9727" style="stroke:#181818;stroke-width:1.0;"/><line style="stroke:#181818;stroke-width:1.0;" x1="489.5" x2="1033" y1="316.9727" y2="316.9727"/><text fill="#000000" font-family="sans-serif" font-size="13" lengthAdjust="spacing" textLength="183" x="496.5" y="312.2305">block.Valid(cntxt, nil, nil, nil)</text><polygon fill="#181818" points="500.5,342.2832,490.5,346.2832,500.5,350.2832,496.5,346.2832" style="stroke:#181818;stroke-width:1.0;"/><line style="stroke:#181818;stroke-width:1.0;stroke-dasharray:2.0,2.0;" x1="494.5" x2="1043" y1="346.2832" y2="346.2832"/><text fill="#000000" font-family="sans-serif" font-size="13" lengthAdjust="spacing" textLength="103" x="506.5" y="341.541">Validation result</text><polygon fill="#181818" points="1193.5,371.5938,1203.5,375.5938,1193.5,379.5938,1197.5,375.5938" style="stroke:#181818;stroke-width:1.0;"/><line style="stroke:#181818;stroke-width:1.0;" x1="489.5" x2="1199.5" y1="375.5938" y2="375.5938"/><text fill="#000000" font-family="sans-serif" font-size="13" lengthAdjust="spacing" textLength="697" x="496.5" y="370.8516">Set(context.Background(), block.CoinbaseTx.TxIDChainHash().CloneBytes(), block.CoinbaseTx.ExtendedBytes())</text><polygon fill="#181818" points="500.5,400.9043,490.5,404.9043,500.5,408.9043,496.5,404.9043" style="stroke:#181818;stroke-width:1.0;"/><line style="stroke:#181818;stroke-width:1.0;stroke-dasharray:2.0,2.0;" x1="494.5" x2="1209.5" y1="404.9043" y2="404.9043"/><text fill="#000000" font-family="sans-serif" font-size="13" lengthAdjust="spacing" textLength="180" x="506.5" y="400.1621">Coinbase Transaction stored</text><polygon fill="#181818" points="1309.5,430.2148,1319.5,434.2148,1309.5,438.2148,1313.5,434.2148" style="stroke:#181818;stroke-width:1.0;"/><line style="stroke:#181818;stroke-width:1.0;" x1="489.5" x2="1315.5" y1="434.2148" y2="434.2148"/><text fill="#000000" font-family="sans-serif" font-size="13" lengthAdjust="spacing" textLength="202" x="496.5" y="429.4727">Create(cntxt, block.CoinbaseTx)</text><polygon fill="#181818" points="500.5,459.5254,490.5,463.5254,500.5,467.5254,496.5,463.5254" style="stroke:#181818;stroke-width:1.0;"/><line style="stroke:#181818;stroke-width:1.0;stroke-dasharray:2.0,2.0;" x1="494.5" x2="1325.5" y1="463.5254" y2="463.5254"/><text fill="#000000" font-family="sans-serif" font-size="13" lengthAdjust="spacing" textLength="163" x="506.5" y="458.7832">Coinbase Metadata stored</text><polygon fill="#181818" points="1536.5,488.8359,1546.5,492.8359,1536.5,496.8359,1540.5,492.8359" style="stroke:#181818;stroke-width:1.0;"/><line style="stroke:#181818;stroke-width:1.0;" x1="489.5" x2="1542.5" y1="492.8359" y2="492.8359"/><text fill="#000000" font-family="sans-serif" font-size="13" lengthAdjust="spacing" textLength="161" x="496.5" y="488.0938">AddBlock(cntxt, block, "")</text><polygon fill="#181818" points="500.5,518.1465,490.5,522.1465,500.5,526.1465,496.5,522.1465" style="stroke:#181818;stroke-width:1.0;"/><line style="stroke:#181818;stroke-width:1.0;" x1="494.5" x2="1552.5" y1="522.1465" y2="522.1465"/><text fill="#000000" font-family="sans-serif" font-size="13" lengthAdjust="spacing" textLength="223" x="506.5" y="517.4043">Block added to the local Blockchain</text><line style="stroke:#181818;stroke-width:1.0;" x1="489.5" x2="536.5" y1="546.457" y2="546.457"/><line style="stroke:#181818;stroke-width:1.0;" x1="536.5" x2="536.5" y1="546.457" y2="559.457"/><line style="stroke:#181818;stroke-width:1.0;" x1="495.5" x2="536.5" y1="559.457" y2="559.457"/><polygon fill="#181818" points="505.5,555.457,495.5,559.457,505.5,563.457,501.5,559.457" style="stroke:#181818;stroke-width:1.0;"/><text fill="#000000" font-family="sans-serif" font-size="13" lengthAdjust="spacing" textLength="204" x="501.5" y="541.7148">removeSubtreesTTL(gCtx, block)</text><path d="M391.5,579.457 L453.5,579.457 L453.5,586.7676 L443.5,596.7676 L391.5,596.7676 L391.5,579.457 " fill="#EEEEEE" style="stroke:#000000;stroke-width:1.5;"/><rect fill="none" height="75.9316" style="stroke:#000000;stroke-width:1.5;" width="1096.5" x="391.5" y="579.457"/><text fill="#000000" font-family="sans-serif" font-size="13" font-weight="bold" lengthAdjust="spacing" textLength="17" x="406.5" y="593.0254">alt</text><a href="for" target="_top" title="for" xlink:actuate="onRequest" xlink:href="for" xlink:show="new" xlink:title="for" xlink:type="simple"><text fill="#0000FF" font-family="sans-serif" font-size="11" font-weight="bold" lengthAdjust="spacing" text-decoration="underline" textLength="70" x="468.5" y="592.0918">each subtree</text></a><polygon fill="#181818" points="1411.5,614.0781,1421.5,618.0781,1411.5,622.0781,1415.5,618.0781" style="stroke:#181818;stroke-width:1.0;"/><line style="stroke:#181818;stroke-width:1.0;" x1="494.5" x2="1417.5" y1="618.0781" y2="618.0781"/><text fill="#000000" font-family="sans-serif" font-size="13" lengthAdjust="spacing" textLength="413" x="501.5" y="613.3359">SetTTL(setCtx, subtreeHashBytes, 0) # 0 means delete the subtree</text><polygon fill="#181818" points="505.5,643.3887,495.5,647.3887,505.5,651.3887,501.5,647.3887" style="stroke:#181818;stroke-width:1.0;"/><line style="stroke:#181818;stroke-width:1.0;stroke-dasharray:2.0,2.0;" x1="499.5" x2="1427.5" y1="647.3887" y2="647.3887"/><text fill="#000000" font-family="sans-serif" font-size="13" lengthAdjust="spacing" textLength="129" x="511.5" y="642.6465">Subtree TTL updated</text><polygon fill="#181818" points="1536.5,679.6992,1546.5,683.6992,1536.5,687.6992,1540.5,683.6992" style="stroke:#181818;stroke-width:1.0;"/><line style="stroke:#181818;stroke-width:1.0;" x1="494.5" x2="1542.5" y1="683.6992" y2="683.6992"/><text fill="#000000" font-family="sans-serif" font-size="13" lengthAdjust="spacing" textLength="229" x="501.5" y="678.957">SetBlockSubtreesSet(ctx, blockHash)</text><polygon fill="#181818" points="500.5,709.0098,490.5,713.0098,500.5,717.0098,496.5,713.0098" style="stroke:#181818;stroke-width:1.0;"/><line style="stroke:#181818;stroke-width:1.0;stroke-dasharray:2.0,2.0;" x1="494.5" x2="1552.5" y1="713.0098" y2="713.0098"/><text fill="#000000" font-family="sans-serif" font-size="13" lengthAdjust="spacing" textLength="194" x="506.5" y="708.2676">Block Subtrees marked as "set"</text><polygon fill="#181818" points="905,738.3203,915,742.3203,905,746.3203,909,742.3203" style="stroke:#181818;stroke-width:1.0;"/><line style="stroke:#181818;stroke-width:1.0;" x1="489.5" x2="911" y1="742.3203" y2="742.3203"/><text fill="#000000" font-family="sans-serif" font-size="13" lengthAdjust="spacing" textLength="65" x="496.5" y="737.5781">DeleteAll()</text><polygon fill="#181818" points="500.5,767.6309,490.5,771.6309,500.5,775.6309,496.5,771.6309" style="stroke:#181818;stroke-width:1.0;"/><line style="stroke:#181818;stroke-width:1.0;" x1="494.5" x2="921" y1="771.6309" y2="771.6309"/><text fill="#000000" font-family="sans-serif" font-size="13" lengthAdjust="spacing" textLength="98" x="506.5" y="766.8887">All jobs deleted</text><path d="M391.5,786.6309 L453.5,786.6309 L453.5,793.9414 L443.5,803.9414 L391.5,803.9414 L391.5,786.6309 " fill="#EEEEEE" style="stroke:#000000;stroke-width:1.5;"/><rect fill="none" height="75.9316" style="stroke:#000000;stroke-width:1.5;" width="1237.5" x="391.5" y="786.6309"/><text fill="#000000" font-family="sans-serif" font-size="13" font-weight="bold" lengthAdjust="spacing" textLength="17" x="406.5" y="800.1992">alt</text><a href="If" target="_top" title="If" xlink:actuate="onRequest" xlink:href="If" xlink:show="new" xlink:title="If" xlink:type="simple"><text fill="#0000FF" font-family="sans-serif" font-size="11" font-weight="bold" lengthAdjust="spacing" text-decoration="underline" textLength="72" x="468.5" y="799.2656">Error Occurs</text></a><polygon fill="#181818" points="1536.5,821.252,1546.5,825.252,1536.5,829.252,1540.5,825.252" style="stroke:#181818;stroke-width:1.0;"/><line style="stroke:#181818;stroke-width:1.0;" x1="489.5" x2="1542.5" y1="825.252" y2="825.252"/><text fill="#000000" font-family="sans-serif" font-size="13" lengthAdjust="spacing" textLength="279" x="496.5" y="820.5098">InvalidateBlock(setCtx, block.Header.Hash())</text><polygon fill="#181818" points="500.5,850.5625,490.5,854.5625,500.5,858.5625,496.5,854.5625" style="stroke:#181818;stroke-width:1.0;"/><line style="stroke:#181818;stroke-width:1.0;stroke-dasharray:2.0,2.0;" x1="494.5" x2="1552.5" y1="854.5625" y2="854.5625"/><text fill="#000000" font-family="sans-serif" font-size="13" lengthAdjust="spacing" textLength="107" x="506.5" y="849.8203">Block invalidated</text><polygon fill="#181818" points="244.5,886.873,234.5,890.873,244.5,894.873,240.5,890.873" style="stroke:#181818;stroke-width:1.0;"/><line style="stroke:#181818;stroke-width:1.0;stroke-dasharray:2.0,2.0;" x1="238.5" x2="478.5" y1="890.873" y2="890.873"/><text fill="#000000" font-family="sans-serif" font-size="13" lengthAdjust="spacing" textLength="81" x="250.5" y="886.1309">Return result</text><polygon fill="#181818" points="46.5,916.1836,36.5,920.1836,46.5,924.1836,42.5,920.1836" style="stroke:#181818;stroke-width:1.0;"/><line style="stroke:#181818;stroke-width:1.0;stroke-dasharray:2.0,2.0;" x1="40.5" x2="222.5" y1="920.1836" y2="920.1836"/><text fill="#000000" font-family="sans-serif" font-size="13" lengthAdjust="spacing" textLength="81" x="52.5" y="915.4414">Return result</text><text fill="#888888" font-family="sans-serif" font-size="10" lengthAdjust="spacing" textLength="148" x="0" y="1010.3398">Last Modified On: 2-July-2024</text><!--SRC=[bLPRRzem57xFhpXYBp01ggez8MrIeTLArQhIogP9qnvCSe0COoFReV3lvslYEC2q2fNuvDpFTpwp9qALURadJ47lfMGbM_U0I72FsJv-FQKytyATbBXRqXFCQ8bCMMtxnfslchoXEA1eJDovRRAqBwhbhfIov6osiUgneAt_n9TlYWkqQk6GwKnATV89D05h-GilaBfApLDM44MMH2Bq5e8mINAbGq7ZU75qVXkzxukVhv62EQOgEcab42CjBt6AtKxb6rAoJcEjr7StSuE1qPUuwHDuu_I0e3O8EwUWZIX5jiRCr78W2bjJog93xSoDO-AQhLmaxRWolUZdwZW4wK-3nAiVP1OTZDTuQXEuAmgmqmLPoni_hGbdyQcJdxoONmAUGLRWXG19fW4u4_Z3btE5E_WCNr7rFqeZdHTHmJN6mWECqWG5gagmu2fEeZPE4sZPpmGQPORllc7lfTh0Nd2-0lrvvsARsbiOJvpw-0UXPT7FcJgg8R2IDl-YEXpmC_lLBS6w87OB1CgAghWARvgau7T4uqStBkTCuL6DfoJVhWMlMD4V-FcCPxnaPaCMn_7YEB-V6Nm_4hdf3yOpoXbEJmhbMVM7eq9MOE4rech2WlhlRa712yGBRgTRnAK5FsbnzNw7wOJsfZb6EJMSK3zToUi55J7SSIQfnj5Ps4G4ORVC2blv3Q7NItSsffLKq46a8t9IwDw3ufPej8JGo5MSS9Uthi5Tu8uVq7EZN2oU- -jPlSsNg8PG1RzMN82EkZ6KO8n_Pw3_kYnKawu5fuaWKTaOtj30pu9g23S3-00ti4CD4z0uH-M8rMlQ236fD8HktiI2xh33ZQ0pW6glfwtdRApQDDLur63F_Zbpi4LDFVNP7jeDh5jeYlk_wRVpXZ3_u1vsH6mr4lGDrTEDx5qVVVeoJF0o1z_RhjzHsh_EkqbtjO7Xt32ruZpnMk3CL_0WX4RFQvvNGfx5JNUtvkpWQ17TYWKGEGvuH5AW63ic6xHnqkbA7UzAtqFRopfi1oqTlnOnhKBIdmhVtENaMRtrEy3S8_PMJRKoYYi5AywLzlXCf39NGBagDGPUsGHkHqyLFOrkRsu_PNy1]--></g></svg>
