<?xml version="1.0" encoding="us-ascii" standalone="no"?><svg xmlns="http://www.w3.org/2000/svg" xmlns:xlink="http://www.w3.org/1999/xlink" contentStyleType="text/css" height="362px" preserveAspectRatio="none" style="width:577px;height:362px;background:#FFFFFF;" version="1.1" viewBox="0 0 577 362" width="577px" zoomAndPan="magnify"><defs/><g><rect fill="#FFFFFF" height="112.2422" style="stroke:#181818;stroke-width:1.0;" width="10" x="347" y="98.7988"/><rect fill="#FFFFFF" height="29.3105" style="stroke:#181818;stroke-width:1.0;" width="10" x="537" y="128.1094"/><rect fill="none" height="90.8867" style="stroke:#000000;stroke-width:1.5;" width="421.5" x="10" y="172.4199"/><line style="stroke:#181818;stroke-width:0.5;stroke-dasharray:5.0,5.0;" x1="67" x2="67" y1="67.4883" y2="280.3066"/><line style="stroke:#181818;stroke-width:0.5;stroke-dasharray:5.0,5.0;" x1="351.5" x2="351.5" y1="67.4883" y2="280.3066"/><line style="stroke:#181818;stroke-width:0.5;stroke-dasharray:5.0,5.0;" x1="542" x2="542" y1="67.4883" y2="280.3066"/><rect fill="#E2E2F0" height="30.4883" rx="2.5" ry="2.5" style="stroke:#181818;stroke-width:0.5;" width="94" x="20" y="36"/><text fill="#000000" font-family="sans-serif" font-size="14" lengthAdjust="spacing" textLength="80" x="27" y="56.5352">Client Code</text><rect fill="#E2E2F0" height="30.4883" rx="2.5" ry="2.5" style="stroke:#181818;stroke-width:0.5;" width="94" x="20" y="279.3066"/><text fill="#000000" font-family="sans-serif" font-size="14" lengthAdjust="spacing" textLength="80" x="27" y="299.8418">Client Code</text><rect fill="#E2E2F0" height="30.4883" rx="2.5" ry="2.5" style="stroke:#181818;stroke-width:0.5;" width="139" x="282.5" y="36"/><text fill="#000000" font-family="sans-serif" font-size="14" lengthAdjust="spacing" textLength="125" x="289.5" y="56.5352">Blockchain Service</text><rect fill="#E2E2F0" height="30.4883" rx="2.5" ry="2.5" style="stroke:#181818;stroke-width:0.5;" width="139" x="282.5" y="279.3066"/><text fill="#000000" font-family="sans-serif" font-size="14" lengthAdjust="spacing" textLength="125" x="289.5" y="299.8418">Blockchain Service</text><text fill="#000000" font-family="sans-serif" font-size="14" lengthAdjust="spacing" textLength="36" x="521" y="64.5352">Store</text><path d="M524,15 C524,5 542,5 542,5 C542,5 560,5 560,15 L560,41 C560,51 542,51 542,51 C542,51 524,51 524,41 L524,15 " fill="#E2E2F0" style="stroke:#181818;stroke-width:1.5;"/><path d="M524,15 C524,25 542,25 542,25 C542,25 560,25 560,15 " fill="none" style="stroke:#181818;stroke-width:1.5;"/><text fill="#000000" font-family="sans-serif" font-size="14" lengthAdjust="spacing" textLength="36" x="521" y="292.8418">Store</text><path d="M524,305.7949 C524,295.7949 542,295.7949 542,295.7949 C542,295.7949 560,295.7949 560,305.7949 L560,331.7949 C560,341.7949 542,341.7949 542,341.7949 C542,341.7949 524,341.7949 524,331.7949 L524,305.7949 " fill="#E2E2F0" style="stroke:#181818;stroke-width:1.5;"/><path d="M524,305.7949 C524,315.7949 542,315.7949 542,315.7949 C542,315.7949 560,315.7949 560,305.7949 " fill="none" style="stroke:#181818;stroke-width:1.5;"/><rect fill="#FFFFFF" height="112.2422" style="stroke:#181818;stroke-width:1.0;" width="10" x="347" y="98.7988"/><rect fill="#FFFFFF" height="29.3105" style="stroke:#181818;stroke-width:1.0;" width="10" x="537" y="128.1094"/><polygon fill="#181818" points="335,94.7988,345,98.7988,335,102.7988,339,98.7988" style="stroke:#181818;stroke-width:1.0;"/><line style="stroke:#181818;stroke-width:1.0;" x1="67" x2="341" y1="98.7988" y2="98.7988"/><text fill="#000000" font-family="sans-serif" font-size="13" lengthAdjust="spacing" textLength="200" x="74" y="94.0566">GetBestBlockHeader(ctx, empty)</text><polygon fill="#181818" points="525,124.1094,535,128.1094,525,132.1094,529,128.1094" style="stroke:#181818;stroke-width:1.0;"/><line style="stroke:#181818;stroke-width:1.0;" x1="357" x2="531" y1="128.1094" y2="128.1094"/><text fill="#000000" font-family="sans-serif" font-size="13" lengthAdjust="spacing" textLength="161" x="364" y="123.3672">GetBestBlockHeader(ctx1)</text><polygon fill="#181818" points="368,153.4199,358,157.4199,368,161.4199,364,157.4199" style="stroke:#181818;stroke-width:1.0;"/><line style="stroke:#181818;stroke-width:1.0;stroke-dasharray:2.0,2.0;" x1="362" x2="541" y1="157.4199" y2="157.4199"/><text fill="#000000" font-family="sans-serif" font-size="13" lengthAdjust="spacing" textLength="138" x="374" y="152.6777">chainTip, meta / Error</text><path d="M10,172.4199 L72,172.4199 L72,179.7305 L62,189.7305 L10,189.7305 L10,172.4199 " fill="#EEEEEE" style="stroke:#000000;stroke-width:1.5;"/><rect fill="none" height="90.8867" style="stroke:#000000;stroke-width:1.5;" width="421.5" x="10" y="172.4199"/><text fill="#000000" font-family="sans-serif" font-size="13" font-weight="bold" lengthAdjust="spacing" textLength="17" x="25" y="185.9883">alt</text><text fill="#000000" font-family="sans-serif" font-size="11" font-weight="bold" lengthAdjust="spacing" textLength="180" x="87" y="185.0547">[If Error in GetBestBlockHeader]</text><polygon fill="#181818" points="78,207.041,68,211.041,78,215.041,74,211.041" style="stroke:#181818;stroke-width:1.0;"/><line style="stroke:#181818;stroke-width:1.0;stroke-dasharray:2.0,2.0;" x1="72" x2="351" y1="211.041" y2="211.041"/><text fill="#000000" font-family="sans-serif" font-size="13" lengthAdjust="spacing" textLength="75" x="84" y="206.2988">Return Error</text><line style="stroke:#000000;stroke-width:1.0;stroke-dasharray:2.0,2.0;" x1="10" x2="431.5" y1="220.041" y2="220.041"/><text fill="#000000" font-family="sans-serif" font-size="11" font-weight="bold" lengthAdjust="spacing" textLength="80" x="15" y="230.6758">[If Successful]</text><polygon fill="#181818" points="78,251.3066,68,255.3066,78,259.3066,74,255.3066" style="stroke:#181818;stroke-width:1.0;"/><line style="stroke:#181818;stroke-width:1.0;stroke-dasharray:2.0,2.0;" x1="72" x2="351" y1="255.3066" y2="255.3066"/><text fill="#000000" font-family="sans-serif" font-size="13" lengthAdjust="spacing" textLength="261" x="84" y="250.5645">Create &amp; Return GetBlockHeaderResponse</text><text fill="#888888" font-family="sans-serif" font-size="10" lengthAdjust="spacing" textLength="152" x="0" y="352.4629">Last Modified On: 23-Jan-2024</text><!--SRC=[TP3FIiGm4CRlynH33wAmHQsUUl2mHVo38cnzWJ6POh2RX6IwwDkRjjcrg9j3CY7V_BxvuYc8KSQJ5IoQtd0w6wUvG8euty4lDUlUgG_rJiPYos5dr2pDDMWIUgF8MBJYGduRAu1CBs_suXhlMDOSPMBUCsaEfqe-LyXRBrzdG4hCZeGFTCZ511cfnn2No-R9VjgnNBfFALwDN-6MXV0SRqDm0JJ_QWNg1H-w-HbJyB-UW6aTXaicSzWQDon3i9ayYfRqd8hxz5-9tmvASOpTq1_5DO77pfCzTvpaPueDH-ziJ4Ih0VvnWfuxmSuvuO1F50MVdJQTOOqljiRggdmaMrONrJLy0m00]--></g></svg>
