<svg contentStyleType="text/css" height="360" preserveAspectRatio="none" viewBox="0 0 693 360" width="693" xmlns="http://www.w3.org/2000/svg" zoomAndPan="magnify"><path d="m452.5 165.4199h10v87.9316h-10z" fill="#fff" stroke="#181818"/><path d="m651.5 194.7305h10v29.3105h-10z" fill="#fff" stroke="#181818"/><path d="m10 126.7988h677.5v134.5527h-677.5z" fill="none" stroke="#000" stroke-width="1.5"/><path d="m79 67.4883v210.8633" stroke="#181818" stroke-dasharray="5 5" stroke-width=".5"/><path d="m457 67.4883v210.8633" stroke="#181818" stroke-dasharray="5 5" stroke-width=".5"/><path d="m656.5 67.4883v210.8633" stroke="#181818" stroke-dasharray="5 5" stroke-width=".5"/><rect fill="#e2e2f0" height="30.4883" rx="2.5" stroke="#181818" stroke-width=".5" width="119" x="20" y="36"/><text font-family="sans-serif" font-size="14" lengthAdjust="spacing" textLength="105" x="27" y="56.5352">Block Assembly</text><rect fill="#e2e2f0" height="30.4883" rx="2.5" stroke="#181818" stroke-width=".5" width="119" x="20" y="277.3516"/><text font-family="sans-serif" font-size="14" lengthAdjust="spacing" textLength="105" x="27" y="297.8867">Block Assembly</text><rect fill="#e2e2f0" height="30.4883" rx="2.5" stroke="#181818" stroke-width=".5" width="139" x="388" y="36"/><text font-family="sans-serif" font-size="14" lengthAdjust="spacing" textLength="125" x="395" y="56.5352">Blockchain Service</text><rect fill="#e2e2f0" height="30.4883" rx="2.5" stroke="#181818" stroke-width=".5" width="139" x="388" y="277.3516"/><text font-family="sans-serif" font-size="14" lengthAdjust="spacing" textLength="125" x="395" y="297.8867">Blockchain Service</text><text font-family="sans-serif" font-size="14" lengthAdjust="spacing" textLength="36" x="635.5" y="64.5352">Store</text><path d="m638.5 15c0-10 18-10 18-10s18 0 18 10v26c0 10-18 10-18 10s-18 0-18-10z" fill="#e2e2f0" stroke="#181818" stroke-width="1.5"/><path d="m638.5 15c0 10 18 10 18 10s18 0 18-10" fill="none" stroke="#181818" stroke-width="1.5"/><text font-family="sans-serif" font-size="14" lengthAdjust="spacing" textLength="36" x="635.5" y="290.8867">Store</text><g stroke="#181818"><path d="m638.5 303.8398c0-10 18-10 18-10s18 0 18 10v26c0 10-18 10-18 10s-18 0-18-10z" fill="#e2e2f0" stroke-width="1.5"/><path d="m638.5 303.8398c0 10 18 10 18 10s18 0 18-10" fill="none" stroke-width="1.5"/><path d="m452.5 165.4199h10v87.9316h-10z" fill="#fff"/><path d="m651.5 194.7305h10v29.3105h-10z" fill="#fff"/><path d="m79.5 98.7988h42"/><path d="m121.5 98.7988v13"/><path d="m80.5 111.7988h41"/><path d="m90.5 107.7988-10 4 10 4-4-4z" fill="#181818"/></g><text font-family="sans-serif" font-size="13" lengthAdjust="spacing" textLength="364" x="86.5" y="94.0566">submitMiningSolution(ctx, submitMiningSolutionRequest)</text><path d="m10 126.7988h62v7.3106l-10 10h-52z" fill="#eee" stroke="#000" stroke-width="1.5"/><path d="m10 126.7988h677.5v134.5527h-677.5z" fill="none" stroke="#000" stroke-width="1.5"/><text font-family="sans-serif" font-size="13" font-weight="bold" lengthAdjust="spacing" textLength="17" x="25" y="140.3672">alt</text><text font-family="sans-serif" font-size="11" font-weight="bold" lengthAdjust="spacing" textLength="193" x="87" y="139.4336">[Failed to submit mining solution]</text><path d="m440.5 161.4199 10 4-10 4 4-4z" fill="#181818" stroke="#181818"/><path d="m79.5 165.4199h367" stroke="#181818"/><text font-family="sans-serif" font-size="13" lengthAdjust="spacing" textLength="150" x="86.5" y="160.6777">InvalidateBlock(request)</text><path d="m639.5 190.7305 10 4-10 4 4-4z" fill="#181818" stroke="#181818"/><path d="m462.5 194.7305h183" stroke="#181818"/><text font-family="sans-serif" font-size="13" lengthAdjust="spacing" textLength="170" x="469.5" y="189.9883">InvalidateBlock(blockHash)</text><path d="m473.5 220.041-10 4 10 4-4-4z" fill="#181818" stroke="#181818"/><path d="m467.5 224.041h188" stroke="#181818" stroke-dasharray="2 2"/><text font-family="sans-serif" font-size="13" lengthAdjust="spacing" textLength="39" x="479.5" y="219.2988">Result</text><path d="m90.5 249.3516-10 4 10 4-4-4z" fill="#181818" stroke="#181818"/><path d="m84.5 253.3516h372" stroke="#181818" stroke-dasharray="2 2"/><text font-family="sans-serif" font-size="13" lengthAdjust="spacing" textLength="162" x="96.5" y="248.6094">Response (Empty or Error)</text><text fill="#888" font-family="sans-serif" font-size="10" lengthAdjust="spacing" textLength="152" y="350.5078">Last Modified On: 24-Jan-2024</text></svg>
