<svg contentStyleType="text/css" height="543" preserveAspectRatio="none" viewBox="0 0 962 543" width="962" xmlns="http://www.w3.org/2000/svg" zoomAndPan="magnify"><path d="m484.5 119.5977h10v185.8633h-10z" fill="#fff" stroke="#181818"/><path d="m795.5 173.2188h10v29.3105h-10z" fill="#fff" stroke="#181818"/><path d="m795.5 392.0371h10v29.3105h-10z" fill="#fff" stroke="#181818"/><path d="m323 134.5977h632v118.2422h-632z" fill="none" stroke="#000" stroke-width="1.5"/><path d="m10 266.8398h945v191.8184h-945z" fill="none" stroke="#000" stroke-width="1.5"/><path d="m171 52.9766v422.6816" stroke="#181818" stroke-dasharray="5 5" stroke-width=".5"/><path d="m489 52.9766v422.6816" stroke="#181818" stroke-dasharray="5 5" stroke-width=".5"/><path d="m800 52.9766v422.6816" stroke="#181818" stroke-dasharray="5 5" stroke-width=".5"/><rect fill="#e2e2f0" height="46.9766" rx="2.5" stroke="#181818" stroke-width=".5" width="123" x="110" y="5"/><text font-family="sans-serif" font-size="14" lengthAdjust="spacing" textLength="109" x="117" y="25.5352">Block Validation</text><text font-family="sans-serif" font-size="14" lengthAdjust="spacing" textLength="48" x="147.5" y="42.0234">Service</text><rect fill="#e2e2f0" height="46.9766" rx="2.5" stroke="#181818" stroke-width=".5" width="123" x="110" y="474.6582"/><text font-family="sans-serif" font-size="14" lengthAdjust="spacing" textLength="109" x="117" y="495.1934">Block Validation</text><text font-family="sans-serif" font-size="14" lengthAdjust="spacing" textLength="48" x="147.5" y="511.6816">Service</text><rect fill="#e2e2f0" height="46.9766" rx="2.5" stroke="#181818" stroke-width=".5" width="133" x="423" y="5"/><text font-family="sans-serif" font-size="14" lengthAdjust="spacing" textLength="101" x="439" y="25.5352">TX Meta Cache</text><text font-family="sans-serif" font-size="14" lengthAdjust="spacing" textLength="119" x="430" y="42.0234">(txmetacache.go)</text><rect fill="#e2e2f0" height="46.9766" rx="2.5" stroke="#181818" stroke-width=".5" width="133" x="423" y="474.6582"/><text font-family="sans-serif" font-size="14" lengthAdjust="spacing" textLength="101" x="439" y="495.1934">TX Meta Cache</text><text font-family="sans-serif" font-size="14" lengthAdjust="spacing" textLength="119" x="430" y="511.6816">(txmetacache.go)</text><rect fill="#e2e2f0" height="30.4883" rx="2.5" stroke="#181818" stroke-width=".5" width="109" x="746" y="21.4883"/><text font-family="sans-serif" font-size="14" lengthAdjust="spacing" textLength="95" x="753" y="42.0234">TX Meta Store</text><rect fill="#e2e2f0" height="30.4883" rx="2.5" stroke="#181818" stroke-width=".5" width="109" x="746" y="474.6582"/><text font-family="sans-serif" font-size="14" lengthAdjust="spacing" textLength="95" x="753" y="495.1934">TX Meta Store</text><g stroke="#181818"><path d="m484.5 119.5977h10v185.8633h-10z" fill="#fff"/><path d="m795.5 173.2188h10v29.3105h-10z" fill="#fff"/><path d="m795.5 392.0371h10v29.3105h-10z" fill="#fff"/><path d="m494 67.9766v25h192v-15l-10-10z" fill="#feffdd" stroke-width=".5"/><path d="m676 67.9766v10h10z" fill="#feffdd" stroke-width=".5"/></g><text font-family="sans-serif" font-size="13" lengthAdjust="spacing" textLength="171" x="500" y="85.5449">Cache with 15 minutes TTL</text><path d="m472.5 115.5977 10 4-10 4 4-4z" fill="#181818" stroke="#181818"/><path d="m171.5 119.5977h307" stroke="#181818"/><text font-family="sans-serif" font-size="13" lengthAdjust="spacing" textLength="59" x="178.5" y="114.8555">Get(hash)</text><path d="m323 134.5977h62v7.3105l-10 10h-52z" fill="#eee" stroke="#000" stroke-width="1.5"/><path d="m323 134.5977h632v118.2422h-632z" fill="none" stroke="#000" stroke-width="1.5"/><text font-family="sans-serif" font-size="13" font-weight="bold" lengthAdjust="spacing" textLength="17" x="338" y="148.166">alt</text><text font-family="sans-serif" font-size="11" font-weight="bold" lengthAdjust="spacing" textLength="71" x="400" y="147.2324">[Cache Miss]</text><path d="m783.5 169.2188 10 4-10 4 4-4z" fill="#181818" stroke="#181818"/><path d="m494.5 173.2188h295" stroke="#181818"/><text font-family="sans-serif" font-size="13" lengthAdjust="spacing" textLength="59" x="501.5" y="168.4766">Get(hash)</text><path d="m505.5 198.5293-10 4 10 4-4-4z" fill="#181818" stroke="#181818"/><path d="m499.5 202.5293h300" stroke="#181818" stroke-dasharray="2 2"/><text font-family="sans-serif" font-size="13" lengthAdjust="spacing" textLength="83" x="511.5" y="197.7871">TX Meta Data</text><path d="m494.5 231.8398h42" stroke="#181818"/><path d="m536.5 231.8398v13" stroke="#181818"/><path d="m495.5 244.8398h41" stroke="#181818"/><path d="m505.5 240.8398-10 4 10 4-4-4z" fill="#181818" stroke="#181818"/><text font-family="sans-serif" font-size="13" lengthAdjust="spacing" textLength="125" x="501.5" y="227.0977">Cache TX Meta Data</text><path d="m10 266.8398h62v7.3106l-10 10h-52z" fill="#eee" stroke="#000" stroke-width="1.5"/><path d="m10 266.8398h945v191.8184h-945z" fill="none" stroke="#000" stroke-width="1.5"/><text font-family="sans-serif" font-size="13" font-weight="bold" lengthAdjust="spacing" textLength="17" x="25" y="280.4082">alt</text><text font-family="sans-serif" font-size="11" font-weight="bold" lengthAdjust="spacing" textLength="62" x="87" y="279.4746">[Cache Hit]</text><path d="m182.5 301.4609-10 4 10 4-4-4z" fill="#181818" stroke="#181818"/><path d="m176.5 305.4609h312" stroke="#181818" stroke-dasharray="2 2"/><text font-family="sans-serif" font-size="13" lengthAdjust="spacing" textLength="128" x="188.5" y="300.7188">Return TX Meta Data</text><path d="m10 314.4609h945" stroke="#000" stroke-dasharray="2 2"/><text font-family="sans-serif" font-size="11" font-weight="bold" lengthAdjust="spacing" textLength="129" x="15" y="325.0957">[Cached Data is Mined]</text><path d="m489.5 349.7266h42" stroke="#181818"/><path d="m531.5 349.7266v13" stroke="#181818"/><path d="m490.5 362.7266h41" stroke="#181818"/><path d="m500.5 358.7266-10 4 10 4-4-4z" fill="#181818" stroke="#181818"/><text font-family="sans-serif" font-size="13" lengthAdjust="spacing" textLength="115" x="496.5" y="344.9844">setMinedInCache()</text><path d="m783.5 388.0371 10 4-10 4 4-4z" fill="#181818" stroke="#181818"/><path d="m489.5 392.0371h300" stroke="#181818"/><text font-family="sans-serif" font-size="13" lengthAdjust="spacing" textLength="59" x="496.5" y="387.2949">Get(hash)</text><path d="m500.5 417.3477-10 4 10 4-4-4z" fill="#181818" stroke="#181818"/><path d="m494.5 421.3477h305" stroke="#181818" stroke-dasharray="2 2"/><text font-family="sans-serif" font-size="13" lengthAdjust="spacing" textLength="83" x="506.5" y="416.6055">TX Meta Data</text><path d="m182.5 446.6582-10 4 10 4-4-4z" fill="#181818" stroke="#181818"/><path d="m176.5 450.6582h312" stroke="#181818" stroke-dasharray="2 2"/><text font-family="sans-serif" font-size="13" lengthAdjust="spacing" textLength="184" x="188.5" y="445.916">Return Updated TX Meta Data</text><text fill="#888" font-family="sans-serif" font-size="10" lengthAdjust="spacing" textLength="155" y="533.3027">Last Modified On: 28-Nov-2023</text></svg>
