<svg contentStyleType="text/css" height="384" preserveAspectRatio="none" viewBox="0 0 1026 384" width="1026" xmlns="http://www.w3.org/2000/svg" zoomAndPan="magnify"><g stroke="#181818"><path d="m273.5 110.1094h10v205.1738h-10z" fill="#fff"/><path d="m565.5 139.4199h10v146.5527h-10z" fill="#fff"/><path d="m816.5 168.7305h10v87.9316h-10z" fill="#fff"/><path d="m964.5 198.041h10v29.3105h-10z" fill="#fff"/><path d="m44 36.4883v296.7949" stroke-dasharray="5 5" stroke-width=".5"/><path d="m278 36.4883v296.7949" stroke-dasharray="5 5" stroke-width=".5"/><path d="m570 36.4883v296.7949" stroke-dasharray="5 5" stroke-width=".5"/><path d="m821.5 36.4883v296.7949" stroke-dasharray="5 5" stroke-width=".5"/><path d="m969 36.4883v296.7949" stroke-dasharray="5 5" stroke-width=".5"/><rect fill="#e2e2f0" height="30.4883" rx="2.5" stroke-width=".5" width="79" x="5" y="5"/></g><text font-family="sans-serif" font-size="14" lengthAdjust="spacing" textLength="65" x="12" y="25.5352">Server.go</text><rect fill="#e2e2f0" height="30.4883" rx="2.5" stroke="#181818" stroke-width=".5" width="79" x="5" y="332.2832"/><text font-family="sans-serif" font-size="14" lengthAdjust="spacing" textLength="65" x="12" y="352.8184">Server.go</text><rect fill="#e2e2f0" height="30.4883" rx="2.5" stroke="#181818" stroke-width=".5" width="141" x="208" y="5"/><text font-family="sans-serif" font-size="14" lengthAdjust="spacing" textLength="127" x="215" y="25.5352">BlockValidation.go</text><rect fill="#e2e2f0" height="30.4883" rx="2.5" stroke="#181818" stroke-width=".5" width="141" x="208" y="332.2832"/><text font-family="sans-serif" font-size="14" lengthAdjust="spacing" textLength="127" x="215" y="352.8184">BlockValidation.go</text><rect fill="#e2e2f0" height="30.4883" rx="2.5" stroke="#181818" stroke-width=".5" width="163" x="489" y="5"/><text font-family="sans-serif" font-size="14" lengthAdjust="spacing" textLength="149" x="496" y="25.5352">validateBlockSubtrees</text><rect fill="#e2e2f0" height="30.4883" rx="2.5" stroke="#181818" stroke-width=".5" width="163" x="489" y="332.2832"/><text font-family="sans-serif" font-size="14" lengthAdjust="spacing" textLength="149" x="496" y="352.8184">validateBlockSubtrees</text><rect fill="#e2e2f0" height="30.4883" rx="2.5" stroke="#181818" stroke-width=".5" width="120" x="761.5" y="5"/><text font-family="sans-serif" font-size="14" lengthAdjust="spacing" textLength="106" x="768.5" y="25.5352">validateSubtree</text><rect fill="#e2e2f0" height="30.4883" rx="2.5" stroke="#181818" stroke-width=".5" width="120" x="761.5" y="332.2832"/><text font-family="sans-serif" font-size="14" lengthAdjust="spacing" textLength="106" x="768.5" y="352.8184">validateSubtree</text><rect fill="#e2e2f0" height="30.4883" rx="2.5" stroke="#181818" stroke-width=".5" width="101" x="919" y="5"/><text font-family="sans-serif" font-size="14" lengthAdjust="spacing" textLength="87" x="926" y="25.5352">TxMetaStore</text><rect fill="#e2e2f0" height="30.4883" rx="2.5" stroke="#181818" stroke-width=".5" width="101" x="919" y="332.2832"/><text font-family="sans-serif" font-size="14" lengthAdjust="spacing" textLength="87" x="926" y="352.8184">TxMetaStore</text><path d="m273.5 110.1094h10v205.1738h-10z" fill="#fff" stroke="#181818"/><path d="m565.5 139.4199h10v146.5527h-10z" fill="#fff" stroke="#181818"/><path d="m816.5 168.7305h10v87.9316h-10z" fill="#fff" stroke="#181818"/><path d="m964.5 198.041h10v29.3105h-10z" fill="#fff" stroke="#181818"/><path d="m44.5 67.7988h42" stroke="#181818"/><path d="m86.5 67.7988v13" stroke="#181818"/><path d="m45.5 80.7988h41" stroke="#181818"/><path d="m55.5 76.7988-10 4 10 4-4-4z" fill="#181818" stroke="#181818"/><text font-family="sans-serif" font-size="13" lengthAdjust="spacing" textLength="209" x="51.5" y="63.0566">catchup() or processBlockFound()</text><path d="m261.5 106.1094 10 4-10 4 4-4z" fill="#181818" stroke="#181818"/><path d="m44.5 110.1094h223" stroke="#181818"/><text font-family="sans-serif" font-size="13" lengthAdjust="spacing" textLength="210" x="51.5" y="105.3672">ValidateBlock(ctx, block, baseUrl)</text><path d="m553.5 135.4199 10 4-10 4 4-4z" fill="#181818" stroke="#181818"/><path d="m283.5 139.4199h276" stroke="#181818"/><text font-family="sans-serif" font-size="13" lengthAdjust="spacing" textLength="263" x="290.5" y="134.6777">validateBlockSubtrees(ctx, block, baseUrl)</text><path d="m804.5 164.7305 10 4-10 4 4-4z" fill="#181818" stroke="#181818"/><path d="m575.5 168.7305h235" stroke="#181818"/><text font-family="sans-serif" font-size="13" lengthAdjust="spacing" textLength="222" x="582.5" y="163.9883">validateSubtree(ctx, block, baseUrl)</text><path d="m952.5 194.041 10 4-10 4 4-4z" fill="#181818" stroke="#181818"/><path d="m826.5 198.041h132" stroke="#181818"/><text font-family="sans-serif" font-size="13" lengthAdjust="spacing" textLength="58" x="833.5" y="193.2988">getMeta()</text><path d="m837.5 223.3516-10 4 10 4-4-4z" fill="#181818" stroke="#181818"/><path d="m831.5 227.3516h137" stroke="#181818" stroke-dasharray="2 2"/><text font-family="sans-serif" font-size="13" lengthAdjust="spacing" textLength="114" x="843.5" y="222.6094">Subtree Meta Data</text><path d="m586.5 252.6621-10 4 10 4-4-4z" fill="#181818" stroke="#181818"/><path d="m580.5 256.6621h240" stroke="#181818" stroke-dasharray="2 2"/><text font-family="sans-serif" font-size="13" lengthAdjust="spacing" textLength="109" x="592.5" y="251.9199">Subtree Validated</text><path d="m294.5 281.9727-10 4 10 4-4-4z" fill="#181818" stroke="#181818"/><path d="m288.5 285.9727h281" stroke="#181818" stroke-dasharray="2 2"/><text font-family="sans-serif" font-size="13" lengthAdjust="spacing" textLength="116" x="300.5" y="281.2305">Subtrees Validated</text><path d="m55.5 311.2832-10 4 10 4-4-4z" fill="#181818" stroke="#181818"/><path d="m49.5 315.2832h228" stroke="#181818" stroke-dasharray="2 2"/><text font-family="sans-serif" font-size="13" lengthAdjust="spacing" textLength="96" x="61.5" y="310.541">Block Validated</text><text fill="#888" font-family="sans-serif" font-size="10" lengthAdjust="spacing" textLength="155" y="374.4395">Last Modified On: 28-Nov-2023</text></svg>
