<svg contentStyleType="text/css" height="356" preserveAspectRatio="none" viewBox="0 0 1132 356" width="1132" xmlns="http://www.w3.org/2000/svg" zoomAndPan="magnify"><g stroke="#181818"><g fill="#fff"><path d="m151.5 91.7266h10v194.9297h-10z"/><path d="m513 184.125h10v102.5313h-10z"/><path d="m1068 125.8594h10v29.1328h-10z"/><path d="m1068 228.3906h10v29.1328h-10z"/></g><g stroke-width=".5"><path d="m156 52.5938v252.0625" stroke-dasharray="5 5"/><path d="m518 52.5938v252.0625" stroke-dasharray="5 5"/><path d="m1072.5 52.5938v252.0625" stroke-dasharray="5 5"/><rect fill="#e2e2f0" height="46.5938" rx="2.5" width="123" x="95" y="5"/></g></g><text font-family="sans-serif" font-size="14" lengthAdjust="spacing" textLength="109" x="102" y="24.9951">BlockAssembly</text><text font-family="sans-serif" font-size="14" lengthAdjust="spacing" textLength="80" x="116.5" y="41.292">(Server.go)</text><rect fill="#e2e2f0" height="46.5938" rx="2.5" stroke="#181818" stroke-width=".5" width="123" x="95" y="303.6563"/><text font-family="sans-serif" font-size="14" lengthAdjust="spacing" textLength="109" x="102" y="323.6514">BlockAssembly</text><text font-family="sans-serif" font-size="14" lengthAdjust="spacing" textLength="80" x="116.5" y="339.9482">(Server.go)</text><rect fill="#e2e2f0" height="46.5938" rx="2.5" stroke="#181818" stroke-width=".5" width="220" x="408" y="5"/><text font-family="sans-serif" font-size="14" lengthAdjust="spacing" textLength="158" x="439" y="24.9951">UpdateTxMinedStatus</text><text font-family="sans-serif" font-size="14" lengthAdjust="spacing" textLength="206" x="415" y="41.292">(model/update-tx-mined.go)</text><rect fill="#e2e2f0" height="46.5938" rx="2.5" stroke="#181818" stroke-width=".5" width="220" x="408" y="303.6563"/><text font-family="sans-serif" font-size="14" lengthAdjust="spacing" textLength="158" x="439" y="323.6514">UpdateTxMinedStatus</text><text font-family="sans-serif" font-size="14" lengthAdjust="spacing" textLength="206" x="415" y="339.9482">(model/update-tx-mined.go)</text><rect fill="#e2e2f0" height="30.2969" rx="2.5" stroke="#181818" stroke-width=".5" width="107" x="1019.5" y="21.2969"/><text font-family="sans-serif" font-size="14" lengthAdjust="spacing" textLength="93" x="1026.5" y="41.292">TxMetaStore</text><rect fill="#e2e2f0" height="30.2969" rx="2.5" stroke="#181818" stroke-width=".5" width="107" x="1019.5" y="303.6563"/><text font-family="sans-serif" font-size="14" lengthAdjust="spacing" textLength="93" x="1026.5" y="323.6514">TxMetaStore</text><g stroke="#181818"><g fill="#fff"><path d="m151.5 91.7266h10v194.9297h-10z"/><path d="m513 184.125h10v102.5313h-10z"/><path d="m1068 125.8594h10v29.1328h-10z"/><path d="m1068 228.3906h10v29.1328h-10z"/></g><path d="m156.5 78.7266h47"/><path d="m203.5 78.7266v13"/><path d="m162.5 91.7266h41"/><path d="m172.5 87.7266-10 4 10 4-4-4z" fill="#181818"/></g><text font-family="sans-serif" font-size="13" lengthAdjust="spacing" textLength="145" x="168.5" y="73.6606">submitMiningSolution()</text><path d="m1056 121.8594 10 4-10 4 4-4z" fill="#181818" stroke="#181818"/><path d="m161.5 125.8594h900.5" stroke="#181818"/><text font-family="sans-serif" font-size="13" lengthAdjust="spacing" textLength="343" x="168.5" y="120.7935">Store the Block Coinbase TX: Create(ctx, coinbaseTx)</text><path d="m172.5 150.9922-10 4 10 4-4-4z" fill="#181818" stroke="#181818"/><path d="m166.5 154.9922h905.5" stroke="#181818" stroke-dasharray="2 2"/><text font-family="sans-serif" font-size="13" lengthAdjust="spacing" textLength="83" x="178.5" y="149.9263">Confirmation</text><path d="m501 180.125 10 4-10 4 4-4z" fill="#181818" stroke="#181818"/><path d="m161.5 184.125h345.5" stroke="#181818"/><text font-family="sans-serif" font-size="13" lengthAdjust="spacing" textLength="150" x="168.5" y="179.0591">UpdateTxMinedStatus()</text><path d="m1056 224.3906 10 4-10 4 4-4z" fill="#181818" stroke="#181818"/><path d="m523 228.3906h539" stroke="#181818"/><text font-family="sans-serif" font-size="13" lengthAdjust="spacing" textLength="522" x="530" y="208.1919">Update meta data for all Txs within the block (record the block that mined them):</text><text font-family="sans-serif" font-size="13" lengthAdjust="spacing" textLength="243" x="530" y="223.3247">setMinedMulti(ctx, hashes, blockHash)</text><path d="m534 253.5234-10 4 10 4-4-4z" fill="#181818" stroke="#181818"/><path d="m528 257.5234h544" stroke="#181818" stroke-dasharray="2 2"/><text font-family="sans-serif" font-size="13" lengthAdjust="spacing" textLength="99" x="540" y="252.4575">Status Updated</text><path d="m167.5 282.6563-10 4 10 4-4-4z" fill="#181818" stroke="#181818"/><path d="m161.5 286.6563h355.5" stroke="#181818" stroke-dasharray="2 2"/><text font-family="sans-serif" font-size="13" lengthAdjust="spacing" textLength="140" x="173.5" y="281.5903">Mined Status Updated</text></svg>
