<svg contentStyleType="text/css" height="366" preserveAspectRatio="none" viewBox="0 0 1050 366" width="1050" xmlns="http://www.w3.org/2000/svg" zoomAndPan="magnify"><g stroke="#181818"><g fill="#fff"><path d="m278 109.5625h10v203.9297h-10z"/><path d="m575 138.6953h10v145.6641h-10z"/><path d="m832 167.8281h10v87.3984h-10z"/><path d="m986 196.9609h10v29.1328h-10z"/></g><g stroke-width=".5"><g stroke-dasharray="5 5"><path d="m47 36.2969v295.1953"/><path d="m282.5 36.2969v295.1953"/><path d="m580 36.2969v295.1953"/><path d="m836.5 36.2969v295.1953"/><path d="m990.5 36.2969v295.1953"/></g><rect fill="#e2e2f0" height="30.2969" rx="2.5" width="84" x="5" y="5"/></g></g><text font-family="sans-serif" font-size="14" lengthAdjust="spacing" textLength="70" x="12" y="24.9951">Server.go</text><rect fill="#e2e2f0" height="30.2969" rx="2.5" stroke="#181818" stroke-width=".5" width="84" x="5" y="330.4922"/><text font-family="sans-serif" font-size="14" lengthAdjust="spacing" textLength="70" x="12" y="350.4873">Server.go</text><rect fill="#e2e2f0" height="30.2969" rx="2.5" stroke="#181818" stroke-width=".5" width="149" x="208.5" y="5"/><text font-family="sans-serif" font-size="14" lengthAdjust="spacing" textLength="135" x="215.5" y="24.9951">BlockValidation.go</text><rect fill="#e2e2f0" height="30.2969" rx="2.5" stroke="#181818" stroke-width=".5" width="149" x="208.5" y="330.4922"/><text font-family="sans-serif" font-size="14" lengthAdjust="spacing" textLength="135" x="215.5" y="350.4873">BlockValidation.go</text><rect fill="#e2e2f0" height="30.2969" rx="2.5" stroke="#181818" stroke-width=".5" width="176" x="492" y="5"/><text font-family="sans-serif" font-size="14" lengthAdjust="spacing" textLength="162" x="499" y="24.9951">validateBlockSubtrees</text><rect fill="#e2e2f0" height="30.2969" rx="2.5" stroke="#181818" stroke-width=".5" width="176" x="492" y="330.4922"/><text font-family="sans-serif" font-size="14" lengthAdjust="spacing" textLength="162" x="499" y="350.4873">validateBlockSubtrees</text><rect fill="#e2e2f0" height="30.2969" rx="2.5" stroke="#181818" stroke-width=".5" width="129" x="772.5" y="5"/><text font-family="sans-serif" font-size="14" lengthAdjust="spacing" textLength="115" x="779.5" y="24.9951">validateSubtree</text><rect fill="#e2e2f0" height="30.2969" rx="2.5" stroke="#181818" stroke-width=".5" width="129" x="772.5" y="330.4922"/><text font-family="sans-serif" font-size="14" lengthAdjust="spacing" textLength="115" x="779.5" y="350.4873">validateSubtree</text><rect fill="#e2e2f0" height="30.2969" rx="2.5" stroke="#181818" stroke-width=".5" width="107" x="937.5" y="5"/><text font-family="sans-serif" font-size="14" lengthAdjust="spacing" textLength="93" x="944.5" y="24.9951">TxMetaStore</text><rect fill="#e2e2f0" height="30.2969" rx="2.5" stroke="#181818" stroke-width=".5" width="107" x="937.5" y="330.4922"/><text font-family="sans-serif" font-size="14" lengthAdjust="spacing" textLength="93" x="944.5" y="350.4873">TxMetaStore</text><g stroke="#181818"><g fill="#fff"><path d="m278 109.5625h10v203.9297h-10z"/><path d="m575 138.6953h10v145.6641h-10z"/><path d="m832 167.8281h10v87.3984h-10z"/><path d="m986 196.9609h10v29.1328h-10z"/></g><path d="m47 67.4297h42"/><path d="m89 67.4297v13"/><path d="m48 80.4297h41"/><path d="m58 76.4297-10 4 10 4-4-4z" fill="#181818"/></g><text font-family="sans-serif" font-size="13" lengthAdjust="spacing" textLength="214" x="54" y="62.3638">catchup() or processBlockFound()</text><path d="m266 105.5625 10 4-10 4 4-4z" fill="#181818" stroke="#181818"/><path d="m47 109.5625h225" stroke="#181818"/><text font-family="sans-serif" font-size="13" lengthAdjust="spacing" textLength="212" x="54" y="104.4966">ValidateBlock(ctx, block, baseUrl)</text><path d="m563 134.6953 10 4-10 4 4-4z" fill="#181818" stroke="#181818"/><path d="m288 138.6953h281" stroke="#181818"/><text font-family="sans-serif" font-size="13" lengthAdjust="spacing" textLength="268" x="295" y="133.6294">validateBlockSubtrees(ctx, block, baseUrl)</text><path d="m820 163.8281 10 4-10 4 4-4z" fill="#181818" stroke="#181818"/><path d="m585 167.8281h241" stroke="#181818"/><text font-family="sans-serif" font-size="13" lengthAdjust="spacing" textLength="228" x="592" y="162.7622">validateSubtree(ctx, block, baseUrl)</text><path d="m974 192.9609 10 4-10 4 4-4z" fill="#181818" stroke="#181818"/><path d="m842 196.9609h138" stroke="#181818"/><text font-family="sans-serif" font-size="13" lengthAdjust="spacing" textLength="62" x="849" y="191.895">getMeta()</text><path d="m853 222.0938-10 4 10 4-4-4z" fill="#181818" stroke="#181818"/><path d="m847 226.0938h143" stroke="#181818" stroke-dasharray="2 2"/><text font-family="sans-serif" font-size="13" lengthAdjust="spacing" textLength="120" x="859" y="221.0278">Subtree Meta Data</text><path d="m596 251.2266-10 4 10 4-4-4z" fill="#181818" stroke="#181818"/><path d="m590 255.2266h246" stroke="#181818" stroke-dasharray="2 2"/><text font-family="sans-serif" font-size="13" lengthAdjust="spacing" textLength="114" x="602" y="250.1606">Subtree Validated</text><path d="m299 280.3594-10 4 10 4-4-4z" fill="#181818" stroke="#181818"/><path d="m293 284.3594h286" stroke="#181818" stroke-dasharray="2 2"/><text font-family="sans-serif" font-size="13" lengthAdjust="spacing" textLength="121" x="305" y="279.2935">Subtrees Validated</text><path d="m58 309.4922-10 4 10 4-4-4z" fill="#181818" stroke="#181818"/><path d="m52 313.4922h230" stroke="#181818" stroke-dasharray="2 2"/><text font-family="sans-serif" font-size="13" lengthAdjust="spacing" textLength="97" x="64" y="308.4263">Block Validated</text></svg>
