<svg contentStyleType="text/css" height="524" preserveAspectRatio="none" viewBox="0 0 986 524" width="986" xmlns="http://www.w3.org/2000/svg" zoomAndPan="magnify"><path d="m496 118.8594h10v184.7969h-10z" fill="#fff" stroke="#181818"/><path d="m815.5 172.125h10v29.1328h-10z" fill="#fff" stroke="#181818"/><path d="m815.5 389.7266h10v29.1328h-10z" fill="#fff" stroke="#181818"/><path d="m330 133.8594h649v117.5313h-649z" fill="none" stroke="#000" stroke-width="1.5"/><path d="m10 265.3906h969v190.6016h-969z" fill="none" stroke="#000" stroke-width="1.5"/><g stroke="#181818" stroke-width=".5"><g stroke-dasharray="5 5"><path d="m175 52.5938v420.3984"/><path d="m501 52.5938v420.3984"/><path d="m820 52.5938v420.3984"/></g><rect fill="#e2e2f0" height="46.5938" rx="2.5" width="130" x="110" y="5"/></g><text font-family="sans-serif" font-size="14" lengthAdjust="spacing" textLength="116" x="117" y="24.9951">Block Validation</text><text font-family="sans-serif" font-size="14" lengthAdjust="spacing" textLength="53" x="148.5" y="41.292">Service</text><rect fill="#e2e2f0" height="46.5938" rx="2.5" stroke="#181818" stroke-width=".5" width="130" x="110" y="471.9922"/><text font-family="sans-serif" font-size="14" lengthAdjust="spacing" textLength="116" x="117" y="491.9873">Block Validation</text><text font-family="sans-serif" font-size="14" lengthAdjust="spacing" textLength="53" x="148.5" y="508.2842">Service</text><rect fill="#e2e2f0" height="46.5938" rx="2.5" stroke="#181818" stroke-width=".5" width="142" x="430" y="5"/><text font-family="sans-serif" font-size="14" lengthAdjust="spacing" textLength="107" x="447.5" y="24.9951">TX Meta Cache</text><text font-family="sans-serif" font-size="14" lengthAdjust="spacing" textLength="128" x="437" y="41.292">(txmetacache.go)</text><rect fill="#e2e2f0" height="46.5938" rx="2.5" stroke="#181818" stroke-width=".5" width="142" x="430" y="471.9922"/><text font-family="sans-serif" font-size="14" lengthAdjust="spacing" textLength="107" x="447.5" y="491.9873">TX Meta Cache</text><text font-family="sans-serif" font-size="14" lengthAdjust="spacing" textLength="128" x="437" y="508.2842">(txmetacache.go)</text><rect fill="#e2e2f0" height="30.2969" rx="2.5" stroke="#181818" stroke-width=".5" width="117" x="762" y="21.2969"/><text font-family="sans-serif" font-size="14" lengthAdjust="spacing" textLength="103" x="769" y="41.292">TX Meta Store</text><rect fill="#e2e2f0" height="30.2969" rx="2.5" stroke="#181818" stroke-width=".5" width="117" x="762" y="471.9922"/><text font-family="sans-serif" font-size="14" lengthAdjust="spacing" textLength="103" x="769" y="491.9873">TX Meta Store</text><g stroke="#181818"><g fill="#fff"><path d="m496 118.8594h10v184.7969h-10z"/><path d="m815.5 172.125h10v29.1328h-10z"/><path d="m815.5 389.7266h10v29.1328h-10z"/></g><g fill="#feffdd" stroke-width=".5"><path d="m506 67.5938v25h195v-15l-10-10z"/><path d="m691 67.5938v10h10z"/></g></g><text font-family="sans-serif" font-size="13" lengthAdjust="spacing" textLength="174" x="512" y="84.6606">Cache with 15 minutes TTL</text><path d="m484 114.8594 10 4-10 4 4-4z" fill="#181818" stroke="#181818"/><path d="m175 118.8594h315" stroke="#181818"/><text font-family="sans-serif" font-size="13" lengthAdjust="spacing" textLength="64" x="182" y="113.7935">Get(hash)</text><path d="m330 133.8594h66v7.1328l-10 10h-56z" fill="#eee" stroke="#000" stroke-width="1.5"/><path d="m330 133.8594h649v117.5313h-649z" fill="none" stroke="#000" stroke-width="1.5"/><text font-family="sans-serif" font-size="13" font-weight="bold" lengthAdjust="spacing" textLength="21" x="345" y="146.9263">alt</text><text font-family="sans-serif" font-size="11" font-weight="bold" lengthAdjust="spacing" textLength="83" x="411" y="146.0698">[Cache Miss]</text><path d="m803.5 168.125 10 4-10 4 4-4z" fill="#181818" stroke="#181818"/><path d="m506 172.125h303.5" stroke="#181818"/><text font-family="sans-serif" font-size="13" lengthAdjust="spacing" textLength="64" x="513" y="167.0591">Get(hash)</text><path d="m517 197.2578-10 4 10 4-4-4z" fill="#181818" stroke="#181818"/><path d="m511 201.2578h308.5" stroke="#181818" stroke-dasharray="2 2"/><text font-family="sans-serif" font-size="13" lengthAdjust="spacing" textLength="87" x="523" y="196.1919">TX Meta Data</text><g stroke="#181818"><path d="m506 230.3906h42"/><path d="m548 230.3906v13"/><path d="m507 243.3906h41"/><path d="m517 239.3906-10 4 10 4-4-4z" fill="#181818"/></g><text font-family="sans-serif" font-size="13" lengthAdjust="spacing" textLength="131" x="513" y="225.3247">Cache TX Meta Data</text><path d="m10 265.3906h66v7.1328l-10 10h-56z" fill="#eee" stroke="#000" stroke-width="1.5"/><path d="m10 265.3906h969v190.6016h-969z" fill="none" stroke="#000" stroke-width="1.5"/><text font-family="sans-serif" font-size="13" font-weight="bold" lengthAdjust="spacing" textLength="21" x="25" y="278.4575">alt</text><text font-family="sans-serif" font-size="11" font-weight="bold" lengthAdjust="spacing" textLength="74" x="91" y="277.6011">[Cache Hit]</text><path d="m186 299.6563-10 4 10 4-4-4z" fill="#181818" stroke="#181818"/><path d="m180 303.6563h320" stroke="#181818" stroke-dasharray="2 2"/><text font-family="sans-serif" font-size="13" lengthAdjust="spacing" textLength="134" x="192" y="298.5903">Return TX Meta Data</text><path d="m10 312.6563h969" stroke="#000" stroke-dasharray="2 2"/><text font-family="sans-serif" font-size="11" font-weight="bold" lengthAdjust="spacing" textLength="152" x="15" y="322.8667">[Cached Data is Mined]</text><path d="m501 347.5938h42" stroke="#181818"/><path d="m543 347.5938v13" stroke="#181818"/><path d="m502 360.5938h41" stroke="#181818"/><path d="m512 356.5938-10 4 10 4-4-4z" fill="#181818" stroke="#181818"/><text font-family="sans-serif" font-size="13" lengthAdjust="spacing" textLength="118" x="508" y="342.5278">setMinedInCache()</text><path d="m803.5 385.7266 10 4-10 4 4-4z" fill="#181818" stroke="#181818"/><path d="m501 389.7266h308.5" stroke="#181818"/><text font-family="sans-serif" font-size="13" lengthAdjust="spacing" textLength="64" x="508" y="384.6606">Get(hash)</text><path d="m512 414.8594-10 4 10 4-4-4z" fill="#181818" stroke="#181818"/><path d="m506 418.8594h313.5" stroke="#181818" stroke-dasharray="2 2"/><text font-family="sans-serif" font-size="13" lengthAdjust="spacing" textLength="87" x="518" y="413.7935">TX Meta Data</text><path d="m186 443.9922-10 4 10 4-4-4z" fill="#181818" stroke="#181818"/><path d="m180 447.9922h320" stroke="#181818" stroke-dasharray="2 2"/><text font-family="sans-serif" font-size="13" lengthAdjust="spacing" textLength="192" x="192" y="442.9263">Return Updated TX Meta Data</text></svg>
