<svg contentStyleType="text/css" height="374" preserveAspectRatio="none" viewBox="0 0 1109 374" width="1109" xmlns="http://www.w3.org/2000/svg" zoomAndPan="magnify"><g stroke="#181818"><g fill="#fff"><path d="m147.5 92.2871h10v196.1738h-10z"/><path d="m503.5 185.2188h10v103.2422h-10z"/><path d="m1047.5 126.5977h10v29.3105h-10z"/><path d="m1047.5 229.8398h10v29.3105h-10z"/></g><g stroke-width=".5"><path d="m152 52.9766v253.4843" stroke-dasharray="5 5"/><path d="m508 52.9766v253.4843" stroke-dasharray="5 5"/><path d="m1052 52.9766v253.4843" stroke-dasharray="5 5"/><rect fill="#e2e2f0" height="46.9766" rx="2.5" width="115" x="95" y="5"/></g></g><text font-family="sans-serif" font-size="14" lengthAdjust="spacing" textLength="101" x="102" y="25.5352">BlockAssembly</text><text font-family="sans-serif" font-size="14" lengthAdjust="spacing" textLength="75" x="115" y="42.0234">(Server.go)</text><rect fill="#e2e2f0" height="46.9766" rx="2.5" stroke="#181818" stroke-width=".5" width="115" x="95" y="305.4609"/><text font-family="sans-serif" font-size="14" lengthAdjust="spacing" textLength="101" x="102" y="325.9961">BlockAssembly</text><text font-family="sans-serif" font-size="14" lengthAdjust="spacing" textLength="75" x="115" y="342.4844">(Server.go)</text><rect fill="#e2e2f0" height="46.9766" rx="2.5" stroke="#181818" stroke-width=".5" width="217" x="400" y="5"/><text font-family="sans-serif" font-size="14" lengthAdjust="spacing" textLength="151" x="433" y="25.5352">UpdateTxMinedStatus</text><text font-family="sans-serif" font-size="14" lengthAdjust="spacing" textLength="203" x="407" y="42.0234">(model/update-tx-mined.go)</text><rect fill="#e2e2f0" height="46.9766" rx="2.5" stroke="#181818" stroke-width=".5" width="217" x="400" y="305.4609"/><text font-family="sans-serif" font-size="14" lengthAdjust="spacing" textLength="151" x="433" y="325.9961">UpdateTxMinedStatus</text><text font-family="sans-serif" font-size="14" lengthAdjust="spacing" textLength="203" x="407" y="342.4844">(model/update-tx-mined.go)</text><rect fill="#e2e2f0" height="30.4883" rx="2.5" stroke="#181818" stroke-width=".5" width="101" x="1002" y="21.4883"/><text font-family="sans-serif" font-size="14" lengthAdjust="spacing" textLength="87" x="1009" y="42.0234">TxMetaStore</text><rect fill="#e2e2f0" height="30.4883" rx="2.5" stroke="#181818" stroke-width=".5" width="101" x="1002" y="305.4609"/><text font-family="sans-serif" font-size="14" lengthAdjust="spacing" textLength="87" x="1009" y="325.9961">TxMetaStore</text><g stroke="#181818"><g fill="#fff"><path d="m147.5 92.2871h10v196.1738h-10z"/><path d="m503.5 185.2188h10v103.2422h-10z"/><path d="m1047.5 126.5977h10v29.3105h-10z"/><path d="m1047.5 229.8398h10v29.3105h-10z"/></g><path d="m152.5 79.2871h47"/><path d="m199.5 79.2871v13"/><path d="m158.5 92.2871h41"/><path d="m168.5 88.2871-10 4 10 4-4-4z" fill="#181818"/></g><text font-family="sans-serif" font-size="13" lengthAdjust="spacing" textLength="147" x="164.5" y="74.5449">submitMiningSolution()</text><path d="m1035.5 122.5977 10 4-10 4 4-4z" fill="#181818" stroke="#181818"/><path d="m157.5 126.5977h884" stroke="#181818"/><text font-family="sans-serif" font-size="13" lengthAdjust="spacing" textLength="332" x="164.5" y="121.8555">Store the Block Coinbase TX: Create(ctx, coinbaseTx)</text><path d="m168.5 151.9082-10 4 10 4-4-4z" fill="#181818" stroke="#181818"/><path d="m162.5 155.9082h889" stroke="#181818" stroke-dasharray="2 2"/><text font-family="sans-serif" font-size="13" lengthAdjust="spacing" textLength="83" x="174.5" y="151.166">Confirmation</text><path d="m491.5 181.2188 10 4-10 4 4-4z" fill="#181818" stroke="#181818"/><path d="m157.5 185.2188h340" stroke="#181818"/><text font-family="sans-serif" font-size="13" lengthAdjust="spacing" textLength="145" x="164.5" y="180.4766">UpdateTxMinedStatus()</text><path d="m1035.5 225.8398 10 4-10 4 4-4z" fill="#181818" stroke="#181818"/><path d="m513.5 229.8398h528" stroke="#181818"/><text font-family="sans-serif" font-size="13" lengthAdjust="spacing" textLength="511" x="520.5" y="209.7871">Update meta data for all Txs within the block (record the block that mined them):</text><text font-family="sans-serif" font-size="13" lengthAdjust="spacing" textLength="244" x="520.5" y="225.0977">setMinedMulti(ctx, hashes, blockHash)</text><path d="m524.5 255.1504-10 4 10 4-4-4z" fill="#181818" stroke="#181818"/><path d="m518.5 259.1504h533" stroke="#181818" stroke-dasharray="2 2"/><text font-family="sans-serif" font-size="13" lengthAdjust="spacing" textLength="95" x="530.5" y="254.4082">Status Updated</text><path d="m163.5 284.4609-10 4 10 4-4-4z" fill="#181818" stroke="#181818"/><path d="m157.5 288.4609h350" stroke="#181818" stroke-dasharray="2 2"/><g font-family="sans-serif"><text font-size="13" lengthAdjust="spacing" textLength="137" x="169.5" y="283.7188">Mined Status Updated</text><text fill="#888" font-size="10" lengthAdjust="spacing" textLength="155" y="364.1055">Last Modified On: 28-Nov-2023</text></g></svg>
