<svg contentStyleType="text/css" height="414" preserveAspectRatio="none" viewBox="0 0 646 414" width="646" xmlns="http://www.w3.org/2000/svg" zoomAndPan="magnify"><g stroke="#181818" stroke-dasharray="5 5" stroke-width=".5"><path d="m91 81.2969v251.9297"/><path d="m253 81.2969v251.9297"/><path d="m417.5 81.2969v251.9297"/><path d="m560.5 81.2969v251.9297"/></g><text font-family="sans-serif" font-size="14" lengthAdjust="spacing" textLength="166" x="5" y="77.9951">Block Validator Service</text><ellipse cx="91" cy="13.5" fill="#e2e2f0" rx="8" ry="8" stroke="#181818" stroke-width=".5"/><path d="m91 21.5v27m-13-19h26m-13 19-13 15m13-15 13 15" fill="none" stroke="#181818" stroke-width=".5"/><text font-family="sans-serif" font-size="14" lengthAdjust="spacing" textLength="166" x="5" y="345.2217">Block Validator Service</text><g stroke="#181818" stroke-width=".5"><ellipse cx="91" cy="357.0234" fill="#e2e2f0" rx="8" ry="8"/><path d="m91 365.0234v27m-13-19h26m-13 19-13 15m13-15 13 15" fill="none"/><rect fill="#e2e2f0" height="46.5938" rx="2.5" width="132" x="187" y="33.7031"/></g><text font-family="sans-serif" font-size="14" lengthAdjust="spacing" textLength="116" x="195" y="53.6982">TX Meta Service</text><text font-family="sans-serif" font-size="14" lengthAdjust="spacing" textLength="118" x="194" y="69.9951">(gRPC Interface)</text><rect fill="#e2e2f0" height="46.5938" rx="2.5" stroke="#181818" stroke-width=".5" width="132" x="187" y="332.2266"/><text font-family="sans-serif" font-size="14" lengthAdjust="spacing" textLength="116" x="195" y="352.2217">TX Meta Service</text><text font-family="sans-serif" font-size="14" lengthAdjust="spacing" textLength="118" x="194" y="368.5186">(gRPC Interface)</text><rect fill="#e2e2f0" height="30.2969" rx="2.5" stroke="#181818" stroke-width=".5" width="117" x="359.5" y="50"/><text font-family="sans-serif" font-size="14" lengthAdjust="spacing" textLength="103" x="366.5" y="69.9951">TX Meta Store</text><rect fill="#e2e2f0" height="30.2969" rx="2.5" stroke="#181818" stroke-width=".5" width="117" x="359.5" y="332.2266"/><text font-family="sans-serif" font-size="14" lengthAdjust="spacing" textLength="103" x="366.5" y="352.2217">TX Meta Store</text><text font-family="sans-serif" font-size="14" lengthAdjust="spacing" textLength="142" x="486.5" y="77.9951">DB Implementation</text><path d="m542.5 29c0-10 18-10 18-10s18 0 18 10v26c0 10-18 10-18 10s-18 0-18-10z" fill="#e2e2f0" stroke="#181818" stroke-width="1.5"/><path d="m542.5 29c0 10 18 10 18 10s18 0 18-10" fill="none" stroke="#181818" stroke-width="1.5"/><text font-family="sans-serif" font-size="14" lengthAdjust="spacing" textLength="142" x="486.5" y="345.2217">DB Implementation</text><path d="m542.5 358.5234c0-10 18-10 18-10s18 0 18 10v26c0 10-18 10-18 10s-18 0-18-10z" fill="#e2e2f0" stroke="#181818" stroke-width="1.5"/><path d="m542.5 358.5234c0 10 18 10 18 10s18 0 18-10" fill="none" stroke="#181818" stroke-width="1.5"/><path d="m0 111.8633h639.5v3h-639.5z" fill="#eee" stroke="#eee"/><path d="m0 111.8633h639.5" stroke="#000"/><path d="m0 114.8633h639.5" stroke="#000"/><path d="m39.75 101.2969h560v23.1328h-560z" fill="#eee" stroke="#000" stroke-width="2"/><text font-family="sans-serif" font-size="13" font-weight="bold" lengthAdjust="spacing" textLength="541" x="45.75" y="117.3638">Scenario 1: Block Validator -&gt; TX Meta Service -&gt; TX Meta Store -&gt; DB</text><path d="m241 151.5625 10 4-10 4 4-4z" fill="#181818" stroke="#181818"/><path d="m91 155.5625h156" stroke="#181818"/><text font-family="sans-serif" font-size="13" lengthAdjust="spacing" textLength="123" x="98" y="150.4966">gRPC Call (Get/Set)</text><path d="m406 180.6953 10 4-10 4 4-4z" fill="#181818" stroke="#181818"/><path d="m253 184.6953h159" stroke="#181818"/><text font-family="sans-serif" font-size="13" lengthAdjust="spacing" textLength="141" x="260" y="179.6294">Invoke Store Interface</text><path d="m548.5 209.8281 10 4-10 4 4-4z" fill="#181818" stroke="#181818"/><path d="m418 213.8281h136.5" stroke="#181818"/><text font-family="sans-serif" font-size="13" lengthAdjust="spacing" textLength="89" x="425" y="208.7622">Query/Update</text><path d="m0 242.3945h639.5v3h-639.5z" fill="#eee" stroke="#eee"/><path d="m0 242.3945h639.5" stroke="#000"/><path d="m0 245.3945h639.5" stroke="#000"/><path d="m114.75 231.8281h410v23.1328h-410z" fill="#eee" stroke="#000" stroke-width="2"/><text font-family="sans-serif" font-size="13" font-weight="bold" lengthAdjust="spacing" textLength="391" x="120.75" y="247.895">Scenario 2: Block Validator -&gt; TX Meta Store -&gt; DB</text><path d="m406 282.0938 10 4-10 4 4-4z" fill="#181818" stroke="#181818"/><path d="m91 286.0938h321" stroke="#181818"/><text font-family="sans-serif" font-size="13" lengthAdjust="spacing" textLength="209" x="98" y="281.0278">Direct Store Access (Get/Create)</text><path d="m548.5 311.2266 10 4-10 4 4-4z" fill="#181818" stroke="#181818"/><path d="m418 315.2266h136.5" stroke="#181818"/><text font-family="sans-serif" font-size="13" lengthAdjust="spacing" textLength="89" x="425" y="310.1606">Query/Update</text></svg>
