<?xml version="1.0" encoding="us-ascii" standalone="no"?><svg xmlns="http://www.w3.org/2000/svg" xmlns:xlink="http://www.w3.org/1999/xlink" contentStyleType="text/css" height="414px" preserveAspectRatio="none" style="width:646px;height:414px;background:#FFFFFF;" version="1.1" viewBox="0 0 646 414" width="646px" zoomAndPan="magnify"><defs/><g><line style="stroke:#181818;stroke-width:0.5;stroke-dasharray:5.0,5.0;" x1="91" x2="91" y1="81.2969" y2="333.2266"/><line style="stroke:#181818;stroke-width:0.5;stroke-dasharray:5.0,5.0;" x1="253" x2="253" y1="81.2969" y2="333.2266"/><line style="stroke:#181818;stroke-width:0.5;stroke-dasharray:5.0,5.0;" x1="417.5" x2="417.5" y1="81.2969" y2="333.2266"/><line style="stroke:#181818;stroke-width:0.5;stroke-dasharray:5.0,5.0;" x1="560.5" x2="560.5" y1="81.2969" y2="333.2266"/><text fill="#000000" font-family="sans-serif" font-size="14" lengthAdjust="spacing" textLength="166" x="5" y="77.9951">Block Validator Service</text><ellipse cx="91" cy="13.5" fill="#E2E2F0" rx="8" ry="8" style="stroke:#181818;stroke-width:0.5;"/><path d="M91,21.5 L91,48.5 M78,29.5 L104,29.5 M91,48.5 L78,63.5 M91,48.5 L104,63.5 " fill="none" style="stroke:#181818;stroke-width:0.5;"/><text fill="#000000" font-family="sans-serif" font-size="14" lengthAdjust="spacing" textLength="166" x="5" y="345.2217">Block Validator Service</text><ellipse cx="91" cy="357.0234" fill="#E2E2F0" rx="8" ry="8" style="stroke:#181818;stroke-width:0.5;"/><path d="M91,365.0234 L91,392.0234 M78,373.0234 L104,373.0234 M91,392.0234 L78,407.0234 M91,392.0234 L104,407.0234 " fill="none" style="stroke:#181818;stroke-width:0.5;"/><rect fill="#E2E2F0" height="46.5938" rx="2.5" ry="2.5" style="stroke:#181818;stroke-width:0.5;" width="132" x="187" y="33.7031"/><text fill="#000000" font-family="sans-serif" font-size="14" lengthAdjust="spacing" textLength="116" x="195" y="53.6982">TX Meta Service</text><text fill="#000000" font-family="sans-serif" font-size="14" lengthAdjust="spacing" textLength="118" x="194" y="69.9951">(gRPC Interface)</text><rect fill="#E2E2F0" height="46.5938" rx="2.5" ry="2.5" style="stroke:#181818;stroke-width:0.5;" width="132" x="187" y="332.2266"/><text fill="#000000" font-family="sans-serif" font-size="14" lengthAdjust="spacing" textLength="116" x="195" y="352.2217">TX Meta Service</text><text fill="#000000" font-family="sans-serif" font-size="14" lengthAdjust="spacing" textLength="118" x="194" y="368.5186">(gRPC Interface)</text><rect fill="#E2E2F0" height="30.2969" rx="2.5" ry="2.5" style="stroke:#181818;stroke-width:0.5;" width="117" x="359.5" y="50"/><text fill="#000000" font-family="sans-serif" font-size="14" lengthAdjust="spacing" textLength="103" x="366.5" y="69.9951">TX Meta Store</text><rect fill="#E2E2F0" height="30.2969" rx="2.5" ry="2.5" style="stroke:#181818;stroke-width:0.5;" width="117" x="359.5" y="332.2266"/><text fill="#000000" font-family="sans-serif" font-size="14" lengthAdjust="spacing" textLength="103" x="366.5" y="352.2217">TX Meta Store</text><text fill="#000000" font-family="sans-serif" font-size="14" lengthAdjust="spacing" textLength="142" x="486.5" y="77.9951">DB Implementation</text><path d="M542.5,29 C542.5,19 560.5,19 560.5,19 C560.5,19 578.5,19 578.5,29 L578.5,55 C578.5,65 560.5,65 560.5,65 C560.5,65 542.5,65 542.5,55 L542.5,29 " fill="#E2E2F0" style="stroke:#181818;stroke-width:1.5;"/><path d="M542.5,29 C542.5,39 560.5,39 560.5,39 C560.5,39 578.5,39 578.5,29 " fill="none" style="stroke:#181818;stroke-width:1.5;"/><text fill="#000000" font-family="sans-serif" font-size="14" lengthAdjust="spacing" textLength="142" x="486.5" y="345.2217">DB Implementation</text><path d="M542.5,358.5234 C542.5,348.5234 560.5,348.5234 560.5,348.5234 C560.5,348.5234 578.5,348.5234 578.5,358.5234 L578.5,384.5234 C578.5,394.5234 560.5,394.5234 560.5,394.5234 C560.5,394.5234 542.5,394.5234 542.5,384.5234 L542.5,358.5234 " fill="#E2E2F0" style="stroke:#181818;stroke-width:1.5;"/><path d="M542.5,358.5234 C542.5,368.5234 560.5,368.5234 560.5,368.5234 C560.5,368.5234 578.5,368.5234 578.5,358.5234 " fill="none" style="stroke:#181818;stroke-width:1.5;"/><rect fill="#EEEEEE" height="3" style="stroke:#EEEEEE;stroke-width:1.0;" width="639.5" x="0" y="111.8633"/><line style="stroke:#000000;stroke-width:1.0;" x1="0" x2="639.5" y1="111.8633" y2="111.8633"/><line style="stroke:#000000;stroke-width:1.0;" x1="0" x2="639.5" y1="114.8633" y2="114.8633"/><rect fill="#EEEEEE" height="23.1328" style="stroke:#000000;stroke-width:2.0;" width="560" x="39.75" y="101.2969"/><text fill="#000000" font-family="sans-serif" font-size="13" font-weight="bold" lengthAdjust="spacing" textLength="541" x="45.75" y="117.3638">Scenario 1: Block Validator -&gt; TX Meta Service -&gt; TX Meta Store -&gt; DB</text><polygon fill="#181818" points="241,151.5625,251,155.5625,241,159.5625,245,155.5625" style="stroke:#181818;stroke-width:1.0;"/><line style="stroke:#181818;stroke-width:1.0;" x1="91" x2="247" y1="155.5625" y2="155.5625"/><text fill="#000000" font-family="sans-serif" font-size="13" lengthAdjust="spacing" textLength="123" x="98" y="150.4966">gRPC Call (Get/Set)</text><polygon fill="#181818" points="406,180.6953,416,184.6953,406,188.6953,410,184.6953" style="stroke:#181818;stroke-width:1.0;"/><line style="stroke:#181818;stroke-width:1.0;" x1="253" x2="412" y1="184.6953" y2="184.6953"/><text fill="#000000" font-family="sans-serif" font-size="13" lengthAdjust="spacing" textLength="141" x="260" y="179.6294">Invoke Store Interface</text><polygon fill="#181818" points="548.5,209.8281,558.5,213.8281,548.5,217.8281,552.5,213.8281" style="stroke:#181818;stroke-width:1.0;"/><line style="stroke:#181818;stroke-width:1.0;" x1="418" x2="554.5" y1="213.8281" y2="213.8281"/><text fill="#000000" font-family="sans-serif" font-size="13" lengthAdjust="spacing" textLength="89" x="425" y="208.7622">Query/Update</text><rect fill="#EEEEEE" height="3" style="stroke:#EEEEEE;stroke-width:1.0;" width="639.5" x="0" y="242.3945"/><line style="stroke:#000000;stroke-width:1.0;" x1="0" x2="639.5" y1="242.3945" y2="242.3945"/><line style="stroke:#000000;stroke-width:1.0;" x1="0" x2="639.5" y1="245.3945" y2="245.3945"/><rect fill="#EEEEEE" height="23.1328" style="stroke:#000000;stroke-width:2.0;" width="410" x="114.75" y="231.8281"/><text fill="#000000" font-family="sans-serif" font-size="13" font-weight="bold" lengthAdjust="spacing" textLength="391" x="120.75" y="247.895">Scenario 2: Block Validator -&gt; TX Meta Store -&gt; DB</text><polygon fill="#181818" points="406,282.0938,416,286.0938,406,290.0938,410,286.0938" style="stroke:#181818;stroke-width:1.0;"/><line style="stroke:#181818;stroke-width:1.0;" x1="91" x2="412" y1="286.0938" y2="286.0938"/><text fill="#000000" font-family="sans-serif" font-size="13" lengthAdjust="spacing" textLength="209" x="98" y="281.0278">Direct Store Access (Get/Create)</text><polygon fill="#181818" points="548.5,311.2266,558.5,315.2266,548.5,319.2266,552.5,315.2266" style="stroke:#181818;stroke-width:1.0;"/><line style="stroke:#181818;stroke-width:1.0;" x1="418" x2="554.5" y1="315.2266" y2="315.2266"/><text fill="#000000" font-family="sans-serif" font-size="13" lengthAdjust="spacing" textLength="89" x="425" y="310.1606">Query/Update</text><!--SRC=[VOz1QyCm38Nl_XKYf-OmodOCPB0aC7e8h7LNUjX5KxLXwjh1qGhxztESBD12UzJJqtkVaCG7o2hhwGWxjEQ0Ww0vd0rn1jX3jTEgmo26J8TE8DlkeMN1VzE7MtnltcfOEU7mXSHvEjlksrjtiO5dpp2es8gVs3DaJGMhKsVvn4vGZ7V9s5HAbILeOeV1U7Wiu1hvuHckm2waeMOGOdvPglZJk6qr593mQxGM5gyiIysIgxIQBEcsY0-U_P6dgFbRDJl6z0BMFnn-b-zTvE9BxAVxs3SP9u3612QPV2z4tFSZSHquTkNtKVu0]--></g></svg>
