<svg contentStyleType="text/css" height="982" preserveAspectRatio="none" viewBox="0 0 668 982" width="668" xmlns="http://www.w3.org/2000/svg" zoomAndPan="magnify"><g stroke="#181818"><path d="m23 81.4883v804.4531" stroke-dasharray="5 5" stroke-width=".5"/><path d="m223 81.4883v804.4531" stroke-dasharray="5 5" stroke-width=".5"/><path d="m414 81.4883v804.4531" stroke-dasharray="5 5" stroke-width=".5"/><path d="m605 81.4883v804.4531" stroke-dasharray="5 5" stroke-width=".5"/></g><text font-family="sans-serif" font-size="14" lengthAdjust="spacing" textLength="31" x="5" y="78.5352">User</text><ellipse cx="23.5" cy="13.5" fill="#e2e2f0" rx="8" ry="8" stroke="#181818" stroke-width=".5"/><path d="m23.5 21.5v27m-13-19h26m-13 19-13 15m13-15 13 15" fill="none" stroke="#181818" stroke-width=".5"/><text font-family="sans-serif" font-size="14" lengthAdjust="spacing" textLength="31" x="5" y="898.4766">User</text><ellipse cx="23.5" cy="909.9297" fill="#e2e2f0" rx="8" ry="8" stroke="#181818" stroke-width=".5"/><path d="m23.5 917.9297v27m-13-19h26m-13 19-13 15m13-15 13 15" fill="none" stroke="#181818" stroke-width=".5"/><rect fill="#e2e2f0" height="30.4883" rx="2.5" stroke="#181818" stroke-width=".5" width="107" x="170" y="50"/><text font-family="sans-serif" font-size="14" lengthAdjust="spacing" textLength="93" x="177" y="70.5352">UI Dashboard</text><rect fill="#e2e2f0" height="30.4883" rx="2.5" stroke="#181818" stroke-width=".5" width="107" x="170" y="884.9414"/><text font-family="sans-serif" font-size="14" lengthAdjust="spacing" textLength="93" x="177" y="905.4766">UI Dashboard</text><rect fill="#e2e2f0" height="30.4883" rx="2.5" stroke="#181818" stroke-width=".5" width="99" x="365" y="50"/><text font-family="sans-serif" font-size="14" lengthAdjust="spacing" textLength="85" x="372" y="70.5352">AssetService</text><rect fill="#e2e2f0" height="30.4883" rx="2.5" stroke="#181818" stroke-width=".5" width="99" x="365" y="884.9414"/><text font-family="sans-serif" font-size="14" lengthAdjust="spacing" textLength="85" x="372" y="905.4766">AssetService</text><rect fill="#e2e2f0" height="30.4883" rx="2.5" stroke="#181818" stroke-width=".5" width="101" x="555" y="50"/><text font-family="sans-serif" font-size="14" lengthAdjust="spacing" textLength="87" x="562" y="70.5352">TxMetaStore</text><rect fill="#e2e2f0" height="30.4883" rx="2.5" stroke="#181818" stroke-width=".5" width="101" x="555" y="884.9414"/><text font-family="sans-serif" font-size="14" lengthAdjust="spacing" textLength="87" x="562" y="905.4766">TxMetaStore</text><path d="m0 112.1436h661v3h-661z" fill="#eee" stroke="#eee"/><path d="m0 112.1436h661" stroke="#000"/><path d="m0 115.1436h661" stroke="#000"/><path d="m225.5 101.4883h210v23.3105h-210z" fill="#eee" stroke="#000" stroke-width="2"/><text font-family="sans-serif" font-size="13" font-weight="bold" lengthAdjust="spacing" textLength="192" x="231.5" y="118.0566">Fetch Transaction Meta Data</text><path d="m211.5 152.1094 10 4-10 4 4-4z" fill="#181818" stroke="#181818"/><path d="m23.5 156.1094h194" stroke="#181818"/><text font-family="sans-serif" font-size="13" lengthAdjust="spacing" textLength="162" x="30.5" y="151.3672">Request Transaction Meta</text><path d="m402.5 181.4199 10 4-10 4 4-4z" fill="#181818" stroke="#181818"/><path d="m223.5 185.4199h185" stroke="#181818"/><text font-family="sans-serif" font-size="13" lengthAdjust="spacing" textLength="126" x="230.5" y="180.6777">/txmeta/:hash/json</text><path d="m414.5 214.7305h42" stroke="#181818"/><path d="m456.5 214.7305v13" stroke="#181818"/><path d="m415.5 227.7305h41" stroke="#181818"/><path d="m425.5 223.7305-10 4 10 4-4-4z" fill="#181818" stroke="#181818"/><text font-family="sans-serif" font-size="13" lengthAdjust="spacing" textLength="133" x="421.5" y="209.9883">GetTransactionMeta()</text><path d="m593.5 253.041 10 4-10 4 4-4z" fill="#181818" stroke="#181818"/><path d="m414.5 257.041h185" stroke="#181818"/><text font-family="sans-serif" font-size="13" lengthAdjust="spacing" textLength="115" x="421.5" y="252.2988">Get(context, hash)</text><path d="m425.5 282.3516-10 4 10 4-4-4z" fill="#181818" stroke="#181818"/><path d="m419.5 286.3516h185" stroke="#181818"/><text font-family="sans-serif" font-size="13" lengthAdjust="spacing" textLength="153" x="431.5" y="281.6094">Return Transaction Meta</text><path d="m234.5 311.6621-10 4 10 4-4-4z" fill="#181818" stroke="#181818"/><path d="m228.5 315.6621h185" stroke="#181818"/><text font-family="sans-serif" font-size="13" lengthAdjust="spacing" textLength="153" x="240.5" y="310.9199">Return Transaction Meta</text><path d="m34.5 340.9727-10 4 10 4-4-4z" fill="#181818" stroke="#181818"/><path d="m28.5 344.9727h194" stroke="#181818"/><text font-family="sans-serif" font-size="13" lengthAdjust="spacing" textLength="159" x="40.5" y="340.2305">Display Transaction Meta</text><path d="m0 373.6279h661v3h-661z" fill="#eee" stroke="#eee"/><path d="m0 373.6279h661" stroke="#000"/><path d="m0 376.6279h661" stroke="#000"/><path d="m261.5 362.9727h138v23.3105h-138z" fill="#eee" stroke="#000" stroke-width="2"/><text font-family="sans-serif" font-size="13" font-weight="bold" lengthAdjust="spacing" textLength="120" x="267.5" y="379.541">Fetch Transaction</text><path d="m211.5 413.5938 10 4-10 4 4-4z" fill="#181818" stroke="#181818"/><path d="m23.5 417.5938h194" stroke="#181818"/><text font-family="sans-serif" font-size="13" lengthAdjust="spacing" textLength="176" x="30.5" y="412.8516">Request Transaction Details</text><path d="m402.5 442.9043 10 4-10 4 4-4z" fill="#181818" stroke="#181818"/><path d="m223.5 446.9043h185" stroke="#181818"/><text font-family="sans-serif" font-size="13" lengthAdjust="spacing" textLength="95" x="230.5" y="442.1621">/tx/:hash/json</text><path d="m414.5 476.2148h42" stroke="#181818"/><path d="m456.5 476.2148v13" stroke="#181818"/><path d="m415.5 489.2148h41" stroke="#181818"/><path d="m425.5 485.2148-10 4 10 4-4-4z" fill="#181818" stroke="#181818"/><text font-family="sans-serif" font-size="13" lengthAdjust="spacing" textLength="103" x="421.5" y="471.4727">GetTransaction()</text><path d="m593.5 514.5254 10 4-10 4 4-4z" fill="#181818" stroke="#181818"/><path d="m414.5 518.5254h185" stroke="#181818"/><text font-family="sans-serif" font-size="13" lengthAdjust="spacing" textLength="87" x="421.5" y="513.7832">Get(ctx, hash)</text><path d="m425.5 543.8359-10 4 10 4-4-4z" fill="#181818" stroke="#181818"/><path d="m419.5 547.8359h185" stroke="#181818"/><text font-family="sans-serif" font-size="13" lengthAdjust="spacing" textLength="167" x="431.5" y="543.0938">Return Transaction Details</text><path d="m234.5 573.1465-10 4 10 4-4-4z" fill="#181818" stroke="#181818"/><path d="m228.5 577.1465h185" stroke="#181818"/><text font-family="sans-serif" font-size="13" lengthAdjust="spacing" textLength="167" x="240.5" y="572.4043">Return Transaction Details</text><path d="m34.5 602.457-10 4 10 4-4-4z" fill="#181818" stroke="#181818"/><path d="m28.5 606.457h194" stroke="#181818"/><text font-family="sans-serif" font-size="13" lengthAdjust="spacing" textLength="173" x="40.5" y="601.7148">Display Transaction Details</text><path d="m0 635.1123h661v3h-661z" fill="#eee" stroke="#eee"/><path d="m0 635.1123h661" stroke="#000"/><path d="m0 638.1123h661" stroke="#000"/><path d="m227.5 624.457h206v23.3105h-206z" fill="#eee" stroke="#000" stroke-width="2"/><text font-family="sans-serif" font-size="13" font-weight="bold" lengthAdjust="spacing" textLength="188" x="233.5" y="641.0254">Fetch Transactions (Stream)</text><path d="m211.5 675.0781 10 4-10 4 4-4z" fill="#181818" stroke="#181818"/><path d="m23.5 679.0781h194" stroke="#181818"/><text font-family="sans-serif" font-size="13" lengthAdjust="spacing" textLength="162" x="30.5" y="674.3359">Request Transactions List</text><path d="m402.5 704.3887 10 4-10 4 4-4z" fill="#181818" stroke="#181818"/><path d="m223.5 708.3887h185" stroke="#181818"/><text font-family="sans-serif" font-size="13" lengthAdjust="spacing" textLength="27" x="230.5" y="703.6465">/txs</text><path d="m414.5 737.6992h42" stroke="#181818"/><path d="m456.5 737.6992v13" stroke="#181818"/><path d="m415.5 750.6992h41" stroke="#181818"/><path d="m425.5 746.6992-10 4 10 4-4-4z" fill="#181818" stroke="#181818"/><text font-family="sans-serif" font-size="13" lengthAdjust="spacing" textLength="110" x="421.5" y="732.957">GetTransactions()</text><path d="m593.5 776.0098 10 4-10 4 4-4z" fill="#181818" stroke="#181818"/><path d="m414.5 780.0098h185" stroke="#181818"/><text font-family="sans-serif" font-size="13" lengthAdjust="spacing" textLength="87" x="421.5" y="775.2676">Get(ctx, hash)</text><path d="m425.5 805.3203-10 4 10 4-4-4z" fill="#181818" stroke="#181818"/><path d="m419.5 809.3203h185" stroke="#181818"/><text font-family="sans-serif" font-size="13" lengthAdjust="spacing" textLength="153" x="431.5" y="804.5781">Return Transactions List</text><path d="m234.5 834.6309-10 4 10 4-4-4z" fill="#181818" stroke="#181818"/><path d="m228.5 838.6309h185" stroke="#181818"/><text font-family="sans-serif" font-size="13" lengthAdjust="spacing" textLength="153" x="240.5" y="833.8887">Return Transactions List</text><path d="m34.5 863.9414-10 4 10 4-4-4z" fill="#181818" stroke="#181818"/><path d="m28.5 867.9414h194" stroke="#181818"/><text font-family="sans-serif" font-size="13" lengthAdjust="spacing" textLength="159" x="40.5" y="863.1992">Display Transactions List</text><text fill="#888" font-family="sans-serif" font-size="10" lengthAdjust="spacing" textLength="155" y="972.0977">Last Modified On: 28-Nov-2023</text></svg>
