<?xml version="1.0" encoding="us-ascii" standalone="no"?><svg xmlns="http://www.w3.org/2000/svg" xmlns:xlink="http://www.w3.org/1999/xlink" contentStyleType="text/css" height="772px" preserveAspectRatio="none" style="width:860px;height:772px;background:#FFFFFF;" version="1.1" viewBox="0 0 860 772" width="860px" zoomAndPan="magnify"><defs/><g><rect fill="#FFFFFF" height="615.8789" style="stroke:#181818;stroke-width:1.0;" width="10" x="206" y="111.1094"/><rect fill="#FFFFFF" height="231.1738" style="stroke:#181818;stroke-width:1.0;" width="10" x="419" y="381.2383"/><rect fill="#FFFFFF" height="130.2422" style="stroke:#181818;stroke-width:1.0;" width="10" x="574" y="410.5488"/><rect fill="#FFFFFF" height="29.3105" style="stroke:#181818;stroke-width:1.0;" width="10" x="772" y="482.1699"/><rect fill="none" height="116.8867" style="stroke:#000000;stroke-width:1.5;" width="200" x="145" y="126.1094"/><rect fill="none" height="377.3711" style="stroke:#000000;stroke-width:1.5;" width="698" x="145" y="342.6172"/><line style="stroke:#181818;stroke-width:0.5;stroke-dasharray:5.0,5.0;" x1="55" x2="55" y1="36.4883" y2="736.9883"/><line style="stroke:#181818;stroke-width:0.5;stroke-dasharray:5.0,5.0;" x1="211" x2="211" y1="36.4883" y2="736.9883"/><line style="stroke:#181818;stroke-width:0.5;stroke-dasharray:5.0,5.0;" x1="423.5" x2="423.5" y1="36.4883" y2="736.9883"/><line style="stroke:#181818;stroke-width:0.5;stroke-dasharray:5.0,5.0;" x1="579" x2="579" y1="36.4883" y2="736.9883"/><line style="stroke:#181818;stroke-width:0.5;stroke-dasharray:5.0,5.0;" x1="777" x2="777" y1="36.4883" y2="736.9883"/><rect fill="#E2E2F0" height="30.4883" rx="2.5" ry="2.5" style="stroke:#181818;stroke-width:0.5;" width="100" x="5" y="5"/><text fill="#000000" font-family="sans-serif" font-size="14" lengthAdjust="spacing" textLength="86" x="12" y="25.5352">P2P Network</text><rect fill="#E2E2F0" height="30.4883" rx="2.5" ry="2.5" style="stroke:#181818;stroke-width:0.5;" width="100" x="5" y="735.9883"/><text fill="#000000" font-family="sans-serif" font-size="14" lengthAdjust="spacing" textLength="86" x="12" y="756.5234">P2P Network</text><rect fill="#E2E2F0" height="30.4883" rx="2.5" ry="2.5" style="stroke:#181818;stroke-width:0.5;" width="112" x="155" y="5"/><text fill="#000000" font-family="sans-serif" font-size="14" lengthAdjust="spacing" textLength="98" x="162" y="25.5352">Legacy Service</text><rect fill="#E2E2F0" height="30.4883" rx="2.5" ry="2.5" style="stroke:#181818;stroke-width:0.5;" width="112" x="155" y="735.9883"/><text fill="#000000" font-family="sans-serif" font-size="14" lengthAdjust="spacing" textLength="98" x="162" y="756.5234">Legacy Service</text><rect fill="#E2E2F0" height="30.4883" rx="2.5" ry="2.5" style="stroke:#181818;stroke-width:0.5;" width="139" x="354.5" y="5"/><text fill="#000000" font-family="sans-serif" font-size="14" lengthAdjust="spacing" textLength="125" x="361.5" y="25.5352">Blockchain Service</text><rect fill="#E2E2F0" height="30.4883" rx="2.5" ry="2.5" style="stroke:#181818;stroke-width:0.5;" width="139" x="354.5" y="735.9883"/><text fill="#000000" font-family="sans-serif" font-size="14" lengthAdjust="spacing" textLength="125" x="361.5" y="756.5234">Blockchain Service</text><rect fill="#E2E2F0" height="30.4883" rx="2.5" ry="2.5" style="stroke:#181818;stroke-width:0.5;" width="42" x="558" y="5"/><text fill="#000000" font-family="sans-serif" font-size="14" lengthAdjust="spacing" textLength="28" x="565" y="25.5352">FSM</text><rect fill="#E2E2F0" height="30.4883" rx="2.5" ry="2.5" style="stroke:#181818;stroke-width:0.5;" width="42" x="558" y="735.9883"/><text fill="#000000" font-family="sans-serif" font-size="14" lengthAdjust="spacing" textLength="28" x="565" y="756.5234">FSM</text><rect fill="#E2E2F0" height="30.4883" rx="2.5" ry="2.5" style="stroke:#181818;stroke-width:0.5;" width="112" x="721" y="5"/><text fill="#000000" font-family="sans-serif" font-size="14" lengthAdjust="spacing" textLength="98" x="728" y="25.5352">Other Services</text><rect fill="#E2E2F0" height="30.4883" rx="2.5" ry="2.5" style="stroke:#181818;stroke-width:0.5;" width="112" x="721" y="735.9883"/><text fill="#000000" font-family="sans-serif" font-size="14" lengthAdjust="spacing" textLength="98" x="728" y="756.5234">Other Services</text><rect fill="#FFFFFF" height="615.8789" style="stroke:#181818;stroke-width:1.0;" width="10" x="206" y="111.1094"/><rect fill="#FFFFFF" height="231.1738" style="stroke:#181818;stroke-width:1.0;" width="10" x="419" y="381.2383"/><rect fill="#FFFFFF" height="130.2422" style="stroke:#181818;stroke-width:1.0;" width="10" x="574" y="410.5488"/><rect fill="#FFFFFF" height="29.3105" style="stroke:#181818;stroke-width:1.0;" width="10" x="772" y="482.1699"/><rect fill="#EEEEEE" height="3" style="stroke:#EEEEEE;stroke-width:1.0;" width="853" x="0" y="67.1436"/><line style="stroke:#000000;stroke-width:1.0;" x1="0" x2="853" y1="67.1436" y2="67.1436"/><line style="stroke:#000000;stroke-width:1.0;" x1="0" x2="853" y1="70.1436" y2="70.1436"/><rect fill="#EEEEEE" height="23.3105" style="stroke:#000000;stroke-width:2.0;" width="143" x="355" y="56.4883"/><text fill="#000000" font-family="sans-serif" font-size="13" font-weight="bold" lengthAdjust="spacing" textLength="125" x="361" y="73.0566">Message Handling</text><polygon fill="#181818" points="194,107.1094,204,111.1094,194,115.1094,198,111.1094" style="stroke:#181818;stroke-width:1.0;"/><line style="stroke:#181818;stroke-width:1.0;" x1="55" x2="200" y1="111.1094" y2="111.1094"/><text fill="#000000" font-family="sans-serif" font-size="13" lengthAdjust="spacing" textLength="132" x="62" y="106.3672">Block or Inv Message</text><path d="M145,126.1094 L207,126.1094 L207,133.4199 L197,143.4199 L145,143.4199 L145,126.1094 " fill="#EEEEEE" style="stroke:#000000;stroke-width:1.5;"/><rect fill="none" height="116.8867" style="stroke:#000000;stroke-width:1.5;" width="200" x="145" y="126.1094"/><text fill="#000000" font-family="sans-serif" font-size="13" font-weight="bold" lengthAdjust="spacing" textLength="17" x="160" y="139.6777">alt</text><text fill="#000000" font-family="sans-serif" font-size="11" font-weight="bold" lengthAdjust="spacing" textLength="90" x="222" y="138.7441">[Block Message]</text><line style="stroke:#181818;stroke-width:1.0;" x1="216" x2="258" y1="164.7305" y2="164.7305"/><line style="stroke:#181818;stroke-width:1.0;" x1="258" x2="258" y1="164.7305" y2="177.7305"/><line style="stroke:#181818;stroke-width:1.0;" x1="217" x2="258" y1="177.7305" y2="177.7305"/><polygon fill="#181818" points="227,173.7305,217,177.7305,227,181.7305,223,177.7305" style="stroke:#181818;stroke-width:1.0;"/><text fill="#000000" font-family="sans-serif" font-size="13" lengthAdjust="spacing" textLength="110" x="223" y="159.9883">handleBlockMsg()</text><line style="stroke:#000000;stroke-width:1.0;stroke-dasharray:2.0,2.0;" x1="145" x2="345" y1="186.7305" y2="186.7305"/><text fill="#000000" font-family="sans-serif" font-size="11" font-weight="bold" lengthAdjust="spacing" textLength="77" x="150" y="197.3652">[Inv Message]</text><line style="stroke:#181818;stroke-width:1.0;" x1="216" x2="258" y1="221.9961" y2="221.9961"/><line style="stroke:#181818;stroke-width:1.0;" x1="258" x2="258" y1="221.9961" y2="234.9961"/><line style="stroke:#181818;stroke-width:1.0;" x1="217" x2="258" y1="234.9961" y2="234.9961"/><polygon fill="#181818" points="227,230.9961,217,234.9961,227,238.9961,223,234.9961" style="stroke:#181818;stroke-width:1.0;"/><text fill="#000000" font-family="sans-serif" font-size="13" lengthAdjust="spacing" textLength="95" x="223" y="217.2539">handleInvMsg()</text><line style="stroke:#181818;stroke-width:1.0;" x1="216" x2="258" y1="271.3066" y2="271.3066"/><line style="stroke:#181818;stroke-width:1.0;" x1="258" x2="258" y1="271.3066" y2="284.3066"/><line style="stroke:#181818;stroke-width:1.0;" x1="217" x2="258" y1="284.3066" y2="284.3066"/><polygon fill="#181818" points="227,280.3066,217,284.3066,227,288.3066,223,284.3066" style="stroke:#181818;stroke-width:1.0;"/><text fill="#000000" font-family="sans-serif" font-size="13" lengthAdjust="spacing" textLength="189" x="223" y="266.5645">Check if blockchain is current</text><rect fill="#EEEEEE" height="3" style="stroke:#EEEEEE;stroke-width:1.0;" width="853" x="0" y="312.9619"/><line style="stroke:#000000;stroke-width:1.0;" x1="0" x2="853" y1="312.9619" y2="312.9619"/><line style="stroke:#000000;stroke-width:1.0;" x1="0" x2="853" y1="315.9619" y2="315.9619"/><rect fill="#EEEEEE" height="23.3105" style="stroke:#000000;stroke-width:2.0;" width="203" x="325" y="302.3066"/><text fill="#000000" font-family="sans-serif" font-size="13" font-weight="bold" lengthAdjust="spacing" textLength="185" x="331" y="318.875">Transition to Running State</text><path d="M145,342.6172 L207,342.6172 L207,349.9277 L197,359.9277 L145,359.9277 L145,342.6172 " fill="#EEEEEE" style="stroke:#000000;stroke-width:1.5;"/><rect fill="none" height="377.3711" style="stroke:#000000;stroke-width:1.5;" width="698" x="145" y="342.6172"/><text fill="#000000" font-family="sans-serif" font-size="13" font-weight="bold" lengthAdjust="spacing" textLength="17" x="160" y="356.1855">alt</text><text fill="#000000" font-family="sans-serif" font-size="11" font-weight="bold" lengthAdjust="spacing" textLength="127" x="222" y="355.252">[Blockchain is current]</text><polygon fill="#181818" points="407,377.2383,417,381.2383,407,385.2383,411,381.2383" style="stroke:#181818;stroke-width:1.0;"/><line style="stroke:#181818;stroke-width:1.0;" x1="216" x2="413" y1="381.2383" y2="381.2383"/><text fill="#000000" font-family="sans-serif" font-size="13" lengthAdjust="spacing" textLength="68" x="223" y="376.4961">Run (gRPC)</text><polygon fill="#181818" points="562,406.5488,572,410.5488,562,414.5488,566,410.5488" style="stroke:#181818;stroke-width:1.0;"/><line style="stroke:#181818;stroke-width:1.0;" x1="429" x2="568" y1="410.5488" y2="410.5488"/><text fill="#000000" font-family="sans-serif" font-size="13" lengthAdjust="spacing" textLength="62" x="436" y="405.8066">Run Event</text><line style="stroke:#181818;stroke-width:1.0;" x1="584" x2="626" y1="439.8594" y2="439.8594"/><line style="stroke:#181818;stroke-width:1.0;" x1="626" x2="626" y1="439.8594" y2="452.8594"/><line style="stroke:#181818;stroke-width:1.0;" x1="585" x2="626" y1="452.8594" y2="452.8594"/><polygon fill="#181818" points="595,448.8594,585,452.8594,595,456.8594,591,452.8594" style="stroke:#181818;stroke-width:1.0;"/><text fill="#000000" font-family="sans-serif" font-size="13" lengthAdjust="spacing" textLength="137" x="591" y="435.1172">Transition to Running</text><polygon fill="#181818" points="760,478.1699,770,482.1699,760,486.1699,764,482.1699" style="stroke:#181818;stroke-width:1.0;"/><line style="stroke:#181818;stroke-width:1.0;" x1="584" x2="766" y1="482.1699" y2="482.1699"/><text fill="#000000" font-family="sans-serif" font-size="13" lengthAdjust="spacing" textLength="169" x="591" y="477.4277">Send FSMState Notification</text><polygon fill="#181818" points="595,507.4805,585,511.4805,595,515.4805,591,511.4805" style="stroke:#181818;stroke-width:1.0;"/><line style="stroke:#181818;stroke-width:1.0;stroke-dasharray:2.0,2.0;" x1="589" x2="776" y1="511.4805" y2="511.4805"/><text fill="#000000" font-family="sans-serif" font-size="13" lengthAdjust="spacing" textLength="106" x="601" y="506.7383">Notification Sent</text><polygon fill="#181818" points="440,536.791,430,540.791,440,544.791,436,540.791" style="stroke:#181818;stroke-width:1.0;"/><line style="stroke:#181818;stroke-width:1.0;stroke-dasharray:2.0,2.0;" x1="434" x2="578" y1="540.791" y2="540.791"/><text fill="#000000" font-family="sans-serif" font-size="13" lengthAdjust="spacing" textLength="87" x="446" y="536.0488">State Updated</text><line style="stroke:#181818;stroke-width:1.0;" x1="429" x2="471" y1="570.1016" y2="570.1016"/><line style="stroke:#181818;stroke-width:1.0;" x1="471" x2="471" y1="570.1016" y2="583.1016"/><line style="stroke:#181818;stroke-width:1.0;" x1="430" x2="471" y1="583.1016" y2="583.1016"/><polygon fill="#181818" points="440,579.1016,430,583.1016,440,587.1016,436,583.1016" style="stroke:#181818;stroke-width:1.0;"/><text fill="#000000" font-family="sans-serif" font-size="13" lengthAdjust="spacing" textLength="131" x="436" y="565.3594">Update internal state</text><polygon fill="#181818" points="227,608.4121,217,612.4121,227,616.4121,223,612.4121" style="stroke:#181818;stroke-width:1.0;"/><line style="stroke:#181818;stroke-width:1.0;stroke-dasharray:2.0,2.0;" x1="221" x2="423" y1="612.4121" y2="612.4121"/><text fill="#000000" font-family="sans-serif" font-size="13" lengthAdjust="spacing" textLength="88" x="233" y="607.6699">Run Response</text><line style="stroke:#181818;stroke-width:1.0;" x1="216" x2="258" y1="641.7227" y2="641.7227"/><line style="stroke:#181818;stroke-width:1.0;" x1="258" x2="258" y1="641.7227" y2="654.7227"/><line style="stroke:#181818;stroke-width:1.0;" x1="217" x2="258" y1="654.7227" y2="654.7227"/><polygon fill="#181818" points="227,650.7227,217,654.7227,227,658.7227,223,654.7227" style="stroke:#181818;stroke-width:1.0;"/><text fill="#000000" font-family="sans-serif" font-size="13" lengthAdjust="spacing" textLength="108" x="223" y="636.9805">Handle Response</text><line style="stroke:#000000;stroke-width:1.0;stroke-dasharray:2.0,2.0;" x1="145" x2="843" y1="663.7227" y2="663.7227"/><text fill="#000000" font-family="sans-serif" font-size="11" font-weight="bold" lengthAdjust="spacing" textLength="135" x="150" y="674.3574">[Blockchain not current]</text><line style="stroke:#181818;stroke-width:1.0;" x1="216" x2="258" y1="698.9883" y2="698.9883"/><line style="stroke:#181818;stroke-width:1.0;" x1="258" x2="258" y1="698.9883" y2="711.9883"/><line style="stroke:#181818;stroke-width:1.0;" x1="217" x2="258" y1="711.9883" y2="711.9883"/><polygon fill="#181818" points="227,707.9883,217,711.9883,227,715.9883,223,711.9883" style="stroke:#181818;stroke-width:1.0;"/><text fill="#000000" font-family="sans-serif" font-size="13" lengthAdjust="spacing" textLength="110" x="223" y="694.2461">Continue syncing</text><!--SRC=[bLFBRi8m4BpxAxQSuD1BZvLIgKNq8G55G3_0TPR48beZsr3nzxMTfqaeAfU8zSpix7fyb-9E4i9wDjq-Bz_cCn05DuQn0zTM2ddWP66qUbZ14ksFqliHS0FkVmoOOyR56JQeJr9Wm9IbgXAZNmebzYBdaY96MnvalMuM0UQ-yS6dpL7NIYPWGgbMOKa22pI6PmZldD92KWP9mlnKzq-nKNWiRO3Iy46dciUuiFB4BLwCnNXXAqAD1FUB9GTwvDu61kB2PEC9my9WrF0VCevMYL3As4tID4TdL-xWkxq6QK0SjKQoOLjRpSb8AnM1LR0-4lcLRQnVW5jSCtIFFEYwTw_EXDE4SRPUJIU1qwotdu5mtfTmkYu8bTBiL3TlX7nAGiMZ6l3WO5rODpWElt4hzKVbw4jbvKuAxlbnjoXl_YJIkM_wTnMyU6awnM6XrjYLBPQslWwf-wINKiq61fSt95SAWIIBcdW1nijVanX8bh-ADPg38eENRgvSxCsqXWUBhMnuA9tmaR9_fwyNVqLMqX71d4dusm-lfkCqVk6_]--></g></svg>
