<svg xmlns="http://www.w3.org/2000/svg" xmlns:xlink="http://www.w3.org/1999/xlink" contentStyleType="text/css" height="926px" preserveAspectRatio="none" style="width:1127px;height:926px;background:#FFFFFF;" version="1.1" viewBox="0 0 1127 926" width="1127px" zoomAndPan="magnify"><defs/><g><rect fill="#FFFFFF" height="29.3105" style="stroke:#181818;stroke-width:1.0;" width="10" x="549.1748" y="98.7988"/><rect fill="#FFFFFF" height="29.3105" style="stroke:#181818;stroke-width:1.0;" width="10" x="549.1748" y="224.041"/><rect fill="#FFFFFF" height="29.3105" style="stroke:#181818;stroke-width:1.0;" width="10" x="549.1748" y="313.9727"/><rect fill="#FFFFFF" height="319.7949" style="stroke:#181818;stroke-width:1.0;" width="10" x="687.7383" y="379.5938"/><rect fill="none" height="75.9316" style="stroke:#000000;stroke-width:1.5;" width="617.1167" x="10" y="185.4199"/><rect fill="none" height="75.9316" style="stroke:#000000;stroke-width:1.5;" width="617.1167" x="10" y="275.3516"/><rect fill="none" height="88.9316" style="stroke:#000000;stroke-width:1.5;" width="467.3589" x="617.1167" y="394.5938"/><rect fill="none" height="88.9316" style="stroke:#000000;stroke-width:1.5;" width="467.3589" x="617.1167" y="497.5254"/><line style="stroke:#181818;stroke-width:0.5;stroke-dasharray:5.0,5.0;" x1="80" x2="80" y1="67.4883" y2="844.3203"/><line style="stroke:#181818;stroke-width:0.5;stroke-dasharray:5.0,5.0;" x1="553.2329" x2="553.2329" y1="67.4883" y2="844.3203"/><line style="stroke:#181818;stroke-width:0.5;stroke-dasharray:5.0,5.0;" x1="692.1167" x2="692.1167" y1="67.4883" y2="844.3203"/><line style="stroke:#181818;stroke-width:0.5;stroke-dasharray:5.0,5.0;" x1="938.8701" x2="938.8701" y1="67.4883" y2="844.3203"/><line style="stroke:#181818;stroke-width:0.5;stroke-dasharray:5.0,5.0;" x1="1034.3789" x2="1034.3789" y1="67.4883" y2="844.3203"/><line style="stroke:#181818;stroke-width:0.5;stroke-dasharray:5.0,5.0;" x1="1105.4756" x2="1105.4756" y1="67.4883" y2="844.3203"/><rect fill="#E2E2F0" height="30.4883" rx="2.5" ry="2.5" style="stroke:#181818;stroke-width:0.5;" width="121.2422" x="20" y="36"/><text fill="#000000" font-family="sans-serif" font-size="14" lengthAdjust="spacing" textLength="107.2422" x="27" y="56.5352">BlockAssembler</text><rect fill="#E2E2F0" height="30.4883" rx="2.5" ry="2.5" style="stroke:#181818;stroke-width:0.5;" width="121.2422" x="20" y="843.3203"/><text fill="#000000" font-family="sans-serif" font-size="14" lengthAdjust="spacing" textLength="107.2422" x="27" y="863.8555">BlockAssembler</text><rect fill="#E2E2F0" height="30.4883" rx="2.5" ry="2.5" style="stroke:#181818;stroke-width:0.5;" width="125.8838" x="491.2329" y="36"/><text fill="#000000" font-family="sans-serif" font-size="14" lengthAdjust="spacing" textLength="111.8838" x="498.2329" y="56.5352">BlockchainClient</text><rect fill="#E2E2F0" height="30.4883" rx="2.5" ry="2.5" style="stroke:#181818;stroke-width:0.5;" width="125.8838" x="491.2329" y="843.3203"/><text fill="#000000" font-family="sans-serif" font-size="14" lengthAdjust="spacing" textLength="111.8838" x="498.2329" y="863.8555">BlockchainClient</text><rect fill="#E2E2F0" height="30.4883" rx="2.5" ry="2.5" style="stroke:#181818;stroke-width:0.5;" width="131.2432" x="627.1167" y="36"/><text fill="#000000" font-family="sans-serif" font-size="14" lengthAdjust="spacing" textLength="117.2432" x="634.1167" y="56.5352">SubtreeProcessor</text><rect fill="#E2E2F0" height="30.4883" rx="2.5" ry="2.5" style="stroke:#181818;stroke-width:0.5;" width="131.2432" x="627.1167" y="843.3203"/><text fill="#000000" font-family="sans-serif" font-size="14" lengthAdjust="spacing" textLength="117.2432" x="634.1167" y="863.8555">SubtreeProcessor</text><text fill="#000000" font-family="sans-serif" font-size="14" lengthAdjust="spacing" textLength="86.5088" x="892.8701" y="64.5352">SubtreeStore</text><path d="M921.1245,15 C921.1245,5 939.1245,5 939.1245,5 C939.1245,5 957.1245,5 957.1245,15 L957.1245,41 C957.1245,51 939.1245,51 939.1245,51 C939.1245,51 921.1245,51 921.1245,41 L921.1245,15 " fill="#E2E2F0" style="stroke:#181818;stroke-width:1.5;"/><path d="M921.1245,15 C921.1245,25 939.1245,25 939.1245,25 C939.1245,25 957.1245,25 957.1245,15 " fill="none" style="stroke:#181818;stroke-width:1.5;"/><text fill="#000000" font-family="sans-serif" font-size="14" lengthAdjust="spacing" textLength="86.5088" x="892.8701" y="856.8555">SubtreeStore</text><path d="M921.1245,869.8086 C921.1245,859.8086 939.1245,859.8086 939.1245,859.8086 C939.1245,859.8086 957.1245,859.8086 957.1245,869.8086 L957.1245,895.8086 C957.1245,905.8086 939.1245,905.8086 939.1245,905.8086 C939.1245,905.8086 921.1245,905.8086 921.1245,895.8086 L921.1245,869.8086 " fill="#E2E2F0" style="stroke:#181818;stroke-width:1.5;"/><path d="M921.1245,869.8086 C921.1245,879.8086 939.1245,879.8086 939.1245,879.8086 C939.1245,879.8086 957.1245,879.8086 957.1245,869.8086 " fill="none" style="stroke:#181818;stroke-width:1.5;"/><text fill="#000000" font-family="sans-serif" font-size="14" lengthAdjust="spacing" textLength="73.0967" x="995.3789" y="64.5352">UTXOStore</text><path d="M1016.9272,15 C1016.9272,5 1034.9272,5 1034.9272,5 C1034.9272,5 1052.9272,5 1052.9272,15 L1052.9272,41 C1052.9272,51 1034.9272,51 1034.9272,51 C1034.9272,51 1016.9272,51 1016.9272,41 L1016.9272,15 " fill="#E2E2F0" style="stroke:#181818;stroke-width:1.5;"/><path d="M1016.9272,15 C1016.9272,25 1034.9272,25 1034.9272,25 C1034.9272,25 1052.9272,25 1052.9272,15 " fill="none" style="stroke:#181818;stroke-width:1.5;"/><text fill="#000000" font-family="sans-serif" font-size="14" lengthAdjust="spacing" textLength="73.0967" x="995.3789" y="856.8555">UTXOStore</text><path d="M1016.9272,869.8086 C1016.9272,859.8086 1034.9272,859.8086 1034.9272,859.8086 C1034.9272,859.8086 1052.9272,859.8086 1052.9272,869.8086 L1052.9272,895.8086 C1052.9272,905.8086 1034.9272,905.8086 1034.9272,905.8086 C1034.9272,905.8086 1016.9272,905.8086 1016.9272,895.8086 L1016.9272,869.8086 " fill="#E2E2F0" style="stroke:#181818;stroke-width:1.5;"/><path d="M1016.9272,869.8086 C1016.9272,879.8086 1034.9272,879.8086 1034.9272,879.8086 C1034.9272,879.8086 1052.9272,879.8086 1052.9272,869.8086 " fill="none" style="stroke:#181818;stroke-width:1.5;"/><text fill="#000000" font-family="sans-serif" font-size="14" lengthAdjust="spacing" textLength="36.0527" x="1084.4756" y="64.5352">Block</text><ellipse cx="1105.502" cy="35" fill="#E2E2F0" rx="12" ry="12" style="stroke:#181818;stroke-width:0.5;"/><line style="stroke:#181818;stroke-width:0.5;" x1="1093.502" x2="1117.502" y1="49" y2="49"/><text fill="#000000" font-family="sans-serif" font-size="14" lengthAdjust="spacing" textLength="36.0527" x="1084.4756" y="856.8555">Block</text><ellipse cx="1105.502" cy="875.8086" fill="#E2E2F0" rx="12" ry="12" style="stroke:#181818;stroke-width:0.5;"/><line style="stroke:#181818;stroke-width:0.5;" x1="1093.502" x2="1117.502" y1="889.8086" y2="889.8086"/><rect fill="#FFFFFF" height="29.3105" style="stroke:#181818;stroke-width:1.0;" width="10" x="549.1748" y="98.7988"/><rect fill="#FFFFFF" height="29.3105" style="stroke:#181818;stroke-width:1.0;" width="10" x="549.1748" y="224.041"/><rect fill="#FFFFFF" height="29.3105" style="stroke:#181818;stroke-width:1.0;" width="10" x="549.1748" y="313.9727"/><rect fill="#FFFFFF" height="319.7949" style="stroke:#181818;stroke-width:1.0;" width="10" x="687.7383" y="379.5938"/><polygon fill="#181818" points="537.1748,94.7988,547.1748,98.7988,537.1748,102.7988,541.1748,98.7988" style="stroke:#181818;stroke-width:1.0;"/><line style="stroke:#181818;stroke-width:1.0;" x1="80.6211" x2="543.1748" y1="98.7988" y2="98.7988"/><text fill="#000000" font-family="sans-serif" font-size="13" lengthAdjust="spacing" textLength="449.5537" x="87.6211" y="94.0566">GetBlockHeaders(ctx, header.Hash(), uint64(b.maxBlockReorgCatchup))</text><polygon fill="#181818" points="91.6211,124.1094,81.6211,128.1094,91.6211,132.1094,87.6211,128.1094" style="stroke:#181818;stroke-width:1.0;"/><line style="stroke:#181818;stroke-width:1.0;stroke-dasharray:2.0,2.0;" x1="85.6211" x2="553.1748" y1="128.1094" y2="128.1094"/><text fill="#000000" font-family="sans-serif" font-size="13" lengthAdjust="spacing" textLength="102.229" x="97.6211" y="123.3672">newChain, _, err</text><line style="stroke:#181818;stroke-width:1.0;" x1="80.6211" x2="122.6211" y1="157.4199" y2="157.4199"/><line style="stroke:#181818;stroke-width:1.0;" x1="122.6211" x2="122.6211" y1="157.4199" y2="170.4199"/><line style="stroke:#181818;stroke-width:1.0;" x1="81.6211" x2="122.6211" y1="170.4199" y2="170.4199"/><polygon fill="#181818" points="91.6211,166.4199,81.6211,170.4199,91.6211,174.4199,87.6211,170.4199" style="stroke:#181818;stroke-width:1.0;"/><text fill="#000000" font-family="sans-serif" font-size="13" lengthAdjust="spacing" textLength="384.2998" x="87.6211" y="152.6777">Calculate moveUpBlockHeaders and moveDownBlockHeaders</text><path d="M10,185.4199 L84.4468,185.4199 L84.4468,192.7305 L74.4468,202.7305 L10,202.7305 L10,185.4199 " fill="#EEEEEE" style="stroke:#000000;stroke-width:1.5;"/><rect fill="none" height="75.9316" style="stroke:#000000;stroke-width:1.5;" width="617.1167" x="10" y="185.4199"/><text fill="#000000" font-family="sans-serif" font-size="13" font-weight="bold" lengthAdjust="spacing" textLength="29.4468" x="25" y="198.9883">loop</text><text fill="#000000" font-family="sans-serif" font-size="11" font-weight="bold" lengthAdjust="spacing" textLength="271.3745" x="99.4468" y="198.0547">[For Each BlockHeader in moveUpBlockHeaders]</text><polygon fill="#181818" points="537.1748,220.041,547.1748,224.041,537.1748,228.041,541.1748,224.041" style="stroke:#181818;stroke-width:1.0;"/><line style="stroke:#181818;stroke-width:1.0;" x1="80.6211" x2="543.1748" y1="224.041" y2="224.041"/><text fill="#000000" font-family="sans-serif" font-size="13" lengthAdjust="spacing" textLength="214.0493" x="87.6211" y="219.2988">GetBlock(ctx, blockHeader.Hash())</text><polygon fill="#181818" points="91.6211,249.3516,81.6211,253.3516,91.6211,257.3516,87.6211,253.3516" style="stroke:#181818;stroke-width:1.0;"/><line style="stroke:#181818;stroke-width:1.0;stroke-dasharray:2.0,2.0;" x1="85.6211" x2="553.1748" y1="253.3516" y2="253.3516"/><text fill="#000000" font-family="sans-serif" font-size="13" lengthAdjust="spacing" textLength="34.1821" x="97.6211" y="248.6094">block</text><path d="M10,275.3516 L84.4468,275.3516 L84.4468,282.6621 L74.4468,292.6621 L10,292.6621 L10,275.3516 " fill="#EEEEEE" style="stroke:#000000;stroke-width:1.5;"/><rect fill="none" height="75.9316" style="stroke:#000000;stroke-width:1.5;" width="617.1167" x="10" y="275.3516"/><text fill="#000000" font-family="sans-serif" font-size="13" font-weight="bold" lengthAdjust="spacing" textLength="29.4468" x="25" y="288.9199">loop</text><text fill="#000000" font-family="sans-serif" font-size="11" font-weight="bold" lengthAdjust="spacing" textLength="288.4492" x="99.4468" y="287.9863">[For Each BlockHeader in moveDownBlockHeaders]</text><polygon fill="#181818" points="537.1748,309.9727,547.1748,313.9727,537.1748,317.9727,541.1748,313.9727" style="stroke:#181818;stroke-width:1.0;"/><line style="stroke:#181818;stroke-width:1.0;" x1="80.6211" x2="543.1748" y1="313.9727" y2="313.9727"/><text fill="#000000" font-family="sans-serif" font-size="13" lengthAdjust="spacing" textLength="214.0493" x="87.6211" y="309.2305">GetBlock(ctx, blockHeader.Hash())</text><polygon fill="#181818" points="91.6211,339.2832,81.6211,343.2832,91.6211,347.2832,87.6211,343.2832" style="stroke:#181818;stroke-width:1.0;"/><line style="stroke:#181818;stroke-width:1.0;stroke-dasharray:2.0,2.0;" x1="85.6211" x2="553.1748" y1="343.2832" y2="343.2832"/><text fill="#000000" font-family="sans-serif" font-size="13" lengthAdjust="spacing" textLength="34.1821" x="97.6211" y="338.541">block</text><polygon fill="#181818" points="675.7383,375.5938,685.7383,379.5938,675.7383,383.5938,679.7383,379.5938" style="stroke:#181818;stroke-width:1.0;"/><line style="stroke:#181818;stroke-width:1.0;" x1="80.6211" x2="681.7383" y1="379.5938" y2="379.5938"/><text fill="#000000" font-family="sans-serif" font-size="13" lengthAdjust="spacing" textLength="254.9473" x="87.6211" y="374.8516">Reorg(moveDownBlocks, moveUpBlocks)</text><path d="M617.1167,394.5938 L691.5635,394.5938 L691.5635,401.9043 L681.5635,411.9043 L617.1167,411.9043 L617.1167,394.5938 " fill="#EEEEEE" style="stroke:#000000;stroke-width:1.5;"/><rect fill="none" height="88.9316" style="stroke:#000000;stroke-width:1.5;" width="467.3589" x="617.1167" y="394.5938"/><text fill="#000000" font-family="sans-serif" font-size="13" font-weight="bold" lengthAdjust="spacing" textLength="29.4468" x="632.1167" y="408.1621">loop</text><text fill="#000000" font-family="sans-serif" font-size="11" font-weight="bold" lengthAdjust="spacing" textLength="207.9902" x="706.5635" y="407.2285">[For Each Block in moveDownBlocks]</text><line style="stroke:#181818;stroke-width:1.0;" x1="697.7383" x2="739.7383" y1="433.2148" y2="433.2148"/><line style="stroke:#181818;stroke-width:1.0;" x1="739.7383" x2="739.7383" y1="433.2148" y2="446.2148"/><line style="stroke:#181818;stroke-width:1.0;" x1="698.7383" x2="739.7383" y1="446.2148" y2="446.2148"/><polygon fill="#181818" points="708.7383,442.2148,698.7383,446.2148,708.7383,450.2148,704.7383,446.2148" style="stroke:#181818;stroke-width:1.0;"/><text fill="#000000" font-family="sans-serif" font-size="13" lengthAdjust="spacing" textLength="173.7354" x="704.7383" y="428.4727">moveDownBlock(ctx, block)</text><polygon fill="#181818" points="1022.9272,471.5254,1032.9272,475.5254,1022.9272,479.5254,1026.9272,475.5254" style="stroke:#181818;stroke-width:1.0;"/><line style="stroke:#181818;stroke-width:1.0;" x1="697.7383" x2="1028.9272" y1="475.5254" y2="475.5254"/><text fill="#000000" font-family="sans-serif" font-size="13" lengthAdjust="spacing" textLength="139.4771" x="704.7383" y="470.7832">Delete coinbase UTXO</text><path d="M617.1167,497.5254 L691.5635,497.5254 L691.5635,504.8359 L681.5635,514.8359 L617.1167,514.8359 L617.1167,497.5254 " fill="#EEEEEE" style="stroke:#000000;stroke-width:1.5;"/><rect fill="none" height="88.9316" style="stroke:#000000;stroke-width:1.5;" width="467.3589" x="617.1167" y="497.5254"/><text fill="#000000" font-family="sans-serif" font-size="13" font-weight="bold" lengthAdjust="spacing" textLength="29.4468" x="632.1167" y="511.0938">loop</text><text fill="#000000" font-family="sans-serif" font-size="11" font-weight="bold" lengthAdjust="spacing" textLength="190.9155" x="706.5635" y="510.1602">[For Each Block in moveUpBlocks]</text><line style="stroke:#181818;stroke-width:1.0;" x1="697.7383" x2="739.7383" y1="536.1465" y2="536.1465"/><line style="stroke:#181818;stroke-width:1.0;" x1="739.7383" x2="739.7383" y1="536.1465" y2="549.1465"/><line style="stroke:#181818;stroke-width:1.0;" x1="698.7383" x2="739.7383" y1="549.1465" y2="549.1465"/><polygon fill="#181818" points="708.7383,545.1465,698.7383,549.1465,708.7383,553.1465,704.7383,549.1465" style="stroke:#181818;stroke-width:1.0;"/><text fill="#000000" font-family="sans-serif" font-size="13" lengthAdjust="spacing" textLength="188.8364" x="704.7383" y="531.4043">moveUpBlock(ctx, block, true)</text><polygon fill="#181818" points="1022.9272,574.457,1032.9272,578.457,1022.9272,582.457,1026.9272,578.457" style="stroke:#181818;stroke-width:1.0;"/><line style="stroke:#181818;stroke-width:1.0;" x1="697.7383" x2="1028.9272" y1="578.457" y2="578.457"/><text fill="#000000" font-family="sans-serif" font-size="13" lengthAdjust="spacing" textLength="153.6641" x="704.7383" y="573.7148">Process coinbase UTXOs</text><line style="stroke:#181818;stroke-width:1.0;" x1="697.7383" x2="739.7383" y1="614.7676" y2="614.7676"/><line style="stroke:#181818;stroke-width:1.0;" x1="739.7383" x2="739.7383" y1="614.7676" y2="627.7676"/><line style="stroke:#181818;stroke-width:1.0;" x1="698.7383" x2="739.7383" y1="627.7676" y2="627.7676"/><polygon fill="#181818" points="708.7383,623.7676,698.7383,627.7676,708.7383,631.7676,704.7383,627.7676" style="stroke:#181818;stroke-width:1.0;"/><text fill="#000000" font-family="sans-serif" font-size="13" lengthAdjust="spacing" textLength="212.3862" x="704.7383" y="610.0254">Announce all subtrees to network</text><line style="stroke:#181818;stroke-width:1.0;" x1="697.7383" x2="739.7383" y1="657.0781" y2="657.0781"/><line style="stroke:#181818;stroke-width:1.0;" x1="739.7383" x2="739.7383" y1="657.0781" y2="670.0781"/><line style="stroke:#181818;stroke-width:1.0;" x1="698.7383" x2="739.7383" y1="670.0781" y2="670.0781"/><polygon fill="#181818" points="708.7383,666.0781,698.7383,670.0781,708.7383,674.0781,704.7383,670.0781" style="stroke:#181818;stroke-width:1.0;"/><text fill="#000000" font-family="sans-serif" font-size="13" lengthAdjust="spacing" textLength="81.3579" x="704.7383" y="652.3359">setTxCount()</text><polygon fill="#181818" points="91.6211,695.3887,81.6211,699.3887,91.6211,703.3887,87.6211,699.3887" style="stroke:#181818;stroke-width:1.0;"/><line style="stroke:#181818;stroke-width:1.0;stroke-dasharray:2.0,2.0;" x1="85.6211" x2="691.7383" y1="699.3887" y2="699.3887"/><text fill="#000000" font-family="sans-serif" font-size="13" lengthAdjust="spacing" textLength="108.7227" x="97.6211" y="694.6465">reorg completion</text><line style="stroke:#181818;stroke-width:1.0;" x1="80.6211" x2="122.6211" y1="728.6992" y2="728.6992"/><line style="stroke:#181818;stroke-width:1.0;" x1="122.6211" x2="122.6211" y1="728.6992" y2="741.6992"/><line style="stroke:#181818;stroke-width:1.0;" x1="81.6211" x2="122.6211" y1="741.6992" y2="741.6992"/><polygon fill="#181818" points="91.6211,737.6992,81.6211,741.6992,91.6211,745.6992,87.6211,741.6992" style="stroke:#181818;stroke-width:1.0;"/><text fill="#000000" font-family="sans-serif" font-size="13" lengthAdjust="spacing" textLength="359.7979" x="87.6211" y="723.957">Update internal state (bestBlockHeader, bestBlockHeight)</text><line style="stroke:#181818;stroke-width:1.0;" x1="80.6211" x2="122.6211" y1="771.0098" y2="771.0098"/><line style="stroke:#181818;stroke-width:1.0;" x1="122.6211" x2="122.6211" y1="771.0098" y2="784.0098"/><line style="stroke:#181818;stroke-width:1.0;" x1="81.6211" x2="122.6211" y1="784.0098" y2="784.0098"/><polygon fill="#181818" points="91.6211,780.0098,81.6211,784.0098,91.6211,788.0098,87.6211,784.0098" style="stroke:#181818;stroke-width:1.0;"/><text fill="#000000" font-family="sans-serif" font-size="13" lengthAdjust="spacing" textLength="78.2031" x="87.6211" y="766.2676">SetState(ctx)</text><line style="stroke:#181818;stroke-width:1.0;" x1="80.6211" x2="122.6211" y1="813.3203" y2="813.3203"/><line style="stroke:#181818;stroke-width:1.0;" x1="122.6211" x2="122.6211" y1="813.3203" y2="826.3203"/><line style="stroke:#181818;stroke-width:1.0;" x1="81.6211" x2="122.6211" y1="826.3203" y2="826.3203"/><polygon fill="#181818" points="91.6211,822.3203,81.6211,826.3203,91.6211,830.3203,87.6211,826.3203" style="stroke:#181818;stroke-width:1.0;"/><text fill="#000000" font-family="sans-serif" font-size="13" lengthAdjust="spacing" textLength="130.6221" x="87.6211" y="808.5781">setCurrentChain(ctx)</text><text fill="#888888" font-family="sans-serif" font-size="10" lengthAdjust="spacing" textLength="154.8389" x="0" y="916.4766">Last Modified On: 14-Nov-2024</text><!--SRC=[lLInRjim5Dpv5Gy60aY0dAdeaA60hQJ9K2D1PGFT2efwZeZGf40-nSxVbwGKcwfje5CraRpZkpkIJnst98Nik2QOBPKHRmldS5Shj3FW3fOBrfrHHCkbBfL4JGEfd9AglYQB-6ADGEVCKAbQlx264w-vmoEb8cDnWECmOMpMlvvFy776lAYaZz7981z63t6PiUK2vj-y8xY3HwG8FI5lqBfCqA60DavkdxXhixo0Nchw-YMhRtVy4Ca_qTZNafDe-oxF6HSatpbXoEYBpaFjXQ-jSL-6KoZWTm5eBMimfNxQ2DIIAz6h0EpCEswwr1DmtSJbUxFNAS2OCgQ3xyR20nSj91X8VQ4I0_zT23-aha_CCNeUDwIUOu4aOjmJLwVPK3V_uEuiqF_rDoZvD-U9yKgpYIbNf4VeadiEp_HIkhDSGwAWS1IQu4cmFAKUNxBVS8yAlQOmKiT77x2hv_lNlL_H7z54lG2oFLxrC7Rfr8GRN4ogBxGslHO8N2bmG_yw8EDxWVR6latP3cbzAFq6olAnqEV5sN0VNc_N-VJIwBHtul4dpRFfch3iknIjvbwNmZIhqQMzxPEU5kHhItbQeqAgmhPm9XF0UonxQ_qV9VRoW3E5MuAjCLuHVd17i3ADt4fiu5dVmKtmaysQPhvQhUOV_flbx0y0]--></g></svg>
