<svg xmlns="http://www.w3.org/2000/svg" xmlns:xlink="http://www.w3.org/1999/xlink" contentStyleType="text/css" height="589px" preserveAspectRatio="none" style="width:1176px;height:589px;background:#F0F8FF;" version="1.1" viewBox="0 0 1176 589" width="1176px" zoomAndPan="magnify"><defs/><g><rect fill="#F0F8FF" height="589" style="stroke:none;stroke-width:1.0;" width="1176" x="0" y="0"/><rect fill="#FFFFFF" height="390.7266" style="stroke:#181818;stroke-width:1.0;" width="10" x="210.374" y="98.7988"/><rect fill="#FFFFFF" height="332.1055" style="stroke:#181818;stroke-width:1.0;" width="10" x="399.5869" y="128.1094"/><rect fill="#FFFFFF" height="214.8633" style="stroke:#181818;stroke-width:1.0;" width="10" x="585.8989" y="157.4199"/><rect fill="#FFFFFF" height="29.3105" style="stroke:#181818;stroke-width:1.0;" width="10" x="894.8623" y="186.7305"/><line style="stroke:#181818;stroke-width:0.5;stroke-dasharray:5.0,5.0;" x1="31" x2="31" y1="67.4883" y2="507.5254"/><line style="stroke:#181818;stroke-width:0.5;stroke-dasharray:5.0,5.0;" x1="215.1074" x2="215.1074" y1="67.4883" y2="507.5254"/><line style="stroke:#181818;stroke-width:0.5;stroke-dasharray:5.0,5.0;" x1="404.1514" x2="404.1514" y1="67.4883" y2="507.5254"/><line style="stroke:#181818;stroke-width:0.5;stroke-dasharray:5.0,5.0;" x1="590.2778" x2="590.2778" y1="67.4883" y2="507.5254"/><line style="stroke:#181818;stroke-width:0.5;stroke-dasharray:5.0,5.0;" x1="899.2407" x2="899.2407" y1="67.4883" y2="507.5254"/><line style="stroke:#181818;stroke-width:0.5;stroke-dasharray:5.0,5.0;" x1="1002.4839" x2="1002.4839" y1="67.4883" y2="507.5254"/><line style="stroke:#181818;stroke-width:0.5;stroke-dasharray:5.0,5.0;" x1="1106.1538" x2="1106.1538" y1="67.4883" y2="507.5254"/><rect fill="#DDDDDD" height="30.4883" rx="2.5" ry="2.5" style="stroke:#666666;stroke-width:0.5;" width="52.3223" x="5" y="36"/><text fill="#333333" font-family="sans-serif" font-size="14" lengthAdjust="spacing" textLength="38.3223" x="12" y="56.5352">Miner</text><rect fill="#DDDDDD" height="30.4883" rx="2.5" ry="2.5" style="stroke:#666666;stroke-width:0.5;" width="52.3223" x="5" y="506.5254"/><text fill="#333333" font-family="sans-serif" font-size="14" lengthAdjust="spacing" textLength="38.3223" x="12" y="527.0605">Miner</text><rect fill="#DDDDDD" height="30.4883" rx="2.5" ry="2.5" style="stroke:#666666;stroke-width:0.5;" width="154.5332" x="138.1074" y="36"/><text fill="#333333" font-family="sans-serif" font-size="14" lengthAdjust="spacing" textLength="140.5332" x="145.1074" y="56.5352">BlockAssemblyClient</text><rect fill="#DDDDDD" height="30.4883" rx="2.5" ry="2.5" style="stroke:#666666;stroke-width:0.5;" width="154.5332" x="138.1074" y="506.5254"/><text fill="#333333" font-family="sans-serif" font-size="14" lengthAdjust="spacing" textLength="140.5332" x="145.1074" y="527.0605">BlockAssemblyClient</text><rect fill="#DDDDDD" height="30.4883" rx="2.5" ry="2.5" style="stroke:#666666;stroke-width:0.5;" width="156.8711" x="326.1514" y="36"/><text fill="#333333" font-family="sans-serif" font-size="14" lengthAdjust="spacing" textLength="142.8711" x="333.1514" y="56.5352">BlockAssemblyServer</text><rect fill="#DDDDDD" height="30.4883" rx="2.5" ry="2.5" style="stroke:#666666;stroke-width:0.5;" width="156.8711" x="326.1514" y="506.5254"/><text fill="#333333" font-family="sans-serif" font-size="14" lengthAdjust="spacing" textLength="142.8711" x="333.1514" y="527.0605">BlockAssemblyServer</text><text fill="#333333" font-family="sans-serif" font-size="14" lengthAdjust="spacing" textLength="107.2422" x="534.2778" y="64.5352">BlockAssembler</text><ellipse cx="590.8989" cy="35" fill="#DDDDDD" rx="12" ry="12" style="stroke:#666666;stroke-width:0.5;"/><line style="stroke:#666666;stroke-width:0.5;" x1="578.8989" x2="602.8989" y1="49" y2="49"/><text fill="#333333" font-family="sans-serif" font-size="14" lengthAdjust="spacing" textLength="107.2422" x="534.2778" y="520.0605">BlockAssembler</text><ellipse cx="590.8989" cy="539.0137" fill="#DDDDDD" rx="12" ry="12" style="stroke:#666666;stroke-width:0.5;"/><line style="stroke:#666666;stroke-width:0.5;" x1="578.8989" x2="602.8989" y1="553.0137" y2="553.0137"/><text fill="#333333" font-family="sans-serif" font-size="14" lengthAdjust="spacing" textLength="117.2432" x="838.2407" y="64.5352">SubtreeProcessor</text><ellipse cx="899.8623" cy="35" fill="#DDDDDD" rx="12" ry="12" style="stroke:#666666;stroke-width:0.5;"/><line style="stroke:#666666;stroke-width:0.5;" x1="887.8623" x2="911.8623" y1="49" y2="49"/><text fill="#333333" font-family="sans-serif" font-size="14" lengthAdjust="spacing" textLength="117.2432" x="838.2407" y="520.0605">SubtreeProcessor</text><ellipse cx="899.8623" cy="539.0137" fill="#DDDDDD" rx="12" ry="12" style="stroke:#666666;stroke-width:0.5;"/><line style="stroke:#666666;stroke-width:0.5;" x1="887.8623" x2="911.8623" y1="553.0137" y2="553.0137"/><text fill="#333333" font-family="sans-serif" font-size="14" lengthAdjust="spacing" textLength="56.6699" x="971.4839" y="64.5352">JobStore</text><path d="M984.8188,15 C984.8188,5 1002.8188,5 1002.8188,5 C1002.8188,5 1020.8188,5 1020.8188,15 L1020.8188,41 C1020.8188,51 1002.8188,51 1002.8188,51 C1002.8188,51 984.8188,51 984.8188,41 L984.8188,15 " fill="#E2E2F0" style="stroke:#181818;stroke-width:1.5;"/><path d="M984.8188,15 C984.8188,25 1002.8188,25 1002.8188,25 C1002.8188,25 1020.8188,25 1020.8188,15 " fill="none" style="stroke:#181818;stroke-width:1.5;"/><text fill="#333333" font-family="sans-serif" font-size="14" lengthAdjust="spacing" textLength="56.6699" x="971.4839" y="520.0605">JobStore</text><path d="M984.8188,533.0137 C984.8188,523.0137 1002.8188,523.0137 1002.8188,523.0137 C1002.8188,523.0137 1020.8188,523.0137 1020.8188,533.0137 L1020.8188,559.0137 C1020.8188,569.0137 1002.8188,569.0137 1002.8188,569.0137 C1002.8188,569.0137 984.8188,569.0137 984.8188,559.0137 L984.8188,533.0137 " fill="#E2E2F0" style="stroke:#181818;stroke-width:1.5;"/><path d="M984.8188,533.0137 C984.8188,543.0137 1002.8188,543.0137 1002.8188,543.0137 C1002.8188,543.0137 1020.8188,543.0137 1020.8188,533.0137 " fill="none" style="stroke:#181818;stroke-width:1.5;"/><rect fill="#DDDDDD" height="30.4883" rx="2.5" ry="2.5" style="stroke:#666666;stroke-width:0.5;" width="125.8838" x="1044.1538" y="36"/><text fill="#333333" font-family="sans-serif" font-size="14" lengthAdjust="spacing" textLength="111.8838" x="1051.1538" y="56.5352">BlockchainClient</text><rect fill="#DDDDDD" height="30.4883" rx="2.5" ry="2.5" style="stroke:#666666;stroke-width:0.5;" width="125.8838" x="1044.1538" y="506.5254"/><text fill="#333333" font-family="sans-serif" font-size="14" lengthAdjust="spacing" textLength="111.8838" x="1051.1538" y="527.0605">BlockchainClient</text><rect fill="#FFFFFF" height="390.7266" style="stroke:#181818;stroke-width:1.0;" width="10" x="210.374" y="98.7988"/><rect fill="#FFFFFF" height="332.1055" style="stroke:#181818;stroke-width:1.0;" width="10" x="399.5869" y="128.1094"/><rect fill="#FFFFFF" height="214.8633" style="stroke:#181818;stroke-width:1.0;" width="10" x="585.8989" y="157.4199"/><rect fill="#FFFFFF" height="29.3105" style="stroke:#181818;stroke-width:1.0;" width="10" x="894.8623" y="186.7305"/><polygon fill="#666666" points="198.374,94.7988,208.374,98.7988,198.374,102.7988,202.374,98.7988" style="stroke:#666666;stroke-width:1.0;"/><line style="stroke:#666666;stroke-width:1.0;" x1="31.1611" x2="204.374" y1="98.7988" y2="98.7988"/><text fill="#333333" font-family="sans-serif" font-size="13" lengthAdjust="spacing" textLength="156.0508" x="38.1611" y="94.0566">GetMiningCandidate(ctx)</text><polygon fill="#666666" points="387.5869,124.1094,397.5869,128.1094,387.5869,132.1094,391.5869,128.1094" style="stroke:#666666;stroke-width:1.0;"/><line style="stroke:#666666;stroke-width:1.0;" x1="220.374" x2="393.5869" y1="128.1094" y2="128.1094"/><text fill="#333333" font-family="sans-serif" font-size="13" lengthAdjust="spacing" textLength="156.0508" x="227.374" y="123.3672">GetMiningCandidate(ctx)</text><polygon fill="#666666" points="573.8989,153.4199,583.8989,157.4199,573.8989,161.4199,577.8989,157.4199" style="stroke:#666666;stroke-width:1.0;"/><line style="stroke:#666666;stroke-width:1.0;" x1="409.5869" x2="579.8989" y1="157.4199" y2="157.4199"/><text fill="#333333" font-family="sans-serif" font-size="13" lengthAdjust="spacing" textLength="156.0508" x="416.5869" y="152.6777">GetMiningCandidate(ctx)</text><polygon fill="#666666" points="882.8623,182.7305,892.8623,186.7305,882.8623,190.7305,886.8623,186.7305" style="stroke:#666666;stroke-width:1.0;"/><line style="stroke:#666666;stroke-width:1.0;" x1="595.8989" x2="888.8623" y1="186.7305" y2="186.7305"/><text fill="#333333" font-family="sans-serif" font-size="13" lengthAdjust="spacing" textLength="279.9634" x="602.8989" y="181.9883">GetCompletedSubtreesForMiningCandidate()</text><polygon fill="#666666" points="606.8989,212.041,596.8989,216.041,606.8989,220.041,602.8989,216.041" style="stroke:#666666;stroke-width:1.0;"/><line style="stroke:#666666;stroke-width:1.0;stroke-dasharray:2.0,2.0;" x1="600.8989" x2="898.8623" y1="216.041" y2="216.041"/><text fill="#333333" font-family="sans-serif" font-size="13" lengthAdjust="spacing" textLength="97.1636" x="612.8989" y="211.2988">return subtrees</text><line style="stroke:#666666;stroke-width:1.0;" x1="595.8989" x2="637.8989" y1="245.3516" y2="245.3516"/><line style="stroke:#666666;stroke-width:1.0;" x1="637.8989" x2="637.8989" y1="245.3516" y2="258.3516"/><line style="stroke:#666666;stroke-width:1.0;" x1="596.8989" x2="637.8989" y1="258.3516" y2="258.3516"/><polygon fill="#666666" points="606.8989,254.3516,596.8989,258.3516,606.8989,262.3516,602.8989,258.3516" style="stroke:#666666;stroke-width:1.0;"/><text fill="#333333" font-family="sans-serif" font-size="13" lengthAdjust="spacing" textLength="152.2612" x="602.8989" y="240.6094">Calculate coinbaseValue</text><line style="stroke:#666666;stroke-width:1.0;" x1="595.8989" x2="637.8989" y1="287.6621" y2="287.6621"/><line style="stroke:#666666;stroke-width:1.0;" x1="637.8989" x2="637.8989" y1="287.6621" y2="300.6621"/><line style="stroke:#666666;stroke-width:1.0;" x1="596.8989" x2="637.8989" y1="300.6621" y2="300.6621"/><polygon fill="#666666" points="606.8989,296.6621,596.8989,300.6621,606.8989,304.6621,602.8989,300.6621" style="stroke:#666666;stroke-width:1.0;"/><text fill="#333333" font-family="sans-serif" font-size="13" lengthAdjust="spacing" textLength="91.3809" x="602.8989" y="282.9199">getNextNbits()</text><path d="M715.3809,274.8516 L715.3809,299.8516 L909.3809,299.8516 L909.3809,284.8516 L899.3809,274.8516 L715.3809,274.8516 " fill="#FEFFDD" style="stroke:#181818;stroke-width:0.5;"/><path d="M899.3809,274.8516 L899.3809,284.8516 L909.3809,284.8516 L899.3809,274.8516 " fill="#FEFFDD" style="stroke:#181818;stroke-width:0.5;"/><text fill="#333333" font-family="sans-serif" font-size="13" lengthAdjust="spacing" textLength="173.3672" x="721.3809" y="292.4199">Check difficulty adjustment</text><line style="stroke:#666666;stroke-width:1.0;" x1="595.8989" x2="637.8989" y1="329.9727" y2="329.9727"/><line style="stroke:#666666;stroke-width:1.0;" x1="637.8989" x2="637.8989" y1="329.9727" y2="342.9727"/><line style="stroke:#666666;stroke-width:1.0;" x1="596.8989" x2="637.8989" y1="342.9727" y2="342.9727"/><polygon fill="#666666" points="606.8989,338.9727,596.8989,342.9727,606.8989,346.9727,602.8989,342.9727" style="stroke:#666666;stroke-width:1.0;"/><text fill="#333333" font-family="sans-serif" font-size="13" lengthAdjust="spacing" textLength="208.6729" x="602.8989" y="325.2305">Compute candidate merkle proof</text><polygon fill="#666666" points="420.5869,368.2832,410.5869,372.2832,420.5869,376.2832,416.5869,372.2832" style="stroke:#666666;stroke-width:1.0;"/><line style="stroke:#666666;stroke-width:1.0;stroke-dasharray:2.0,2.0;" x1="414.5869" x2="589.8989" y1="372.2832" y2="372.2832"/><text fill="#333333" font-family="sans-serif" font-size="13" lengthAdjust="spacing" textLength="152.312" x="426.5869" y="367.541">return mining candidate</text><polygon fill="#666666" points="990.8188,397.5938,1000.8188,401.5938,990.8188,405.5938,994.8188,401.5938" style="stroke:#666666;stroke-width:1.0;"/><line style="stroke:#666666;stroke-width:1.0;" x1="409.5869" x2="996.8188" y1="401.5938" y2="401.5938"/><text fill="#333333" font-family="sans-serif" font-size="13" lengthAdjust="spacing" textLength="269.3882" x="416.5869" y="396.8516">Set(*id, &amp;subtreeprocessor.Job{...}, jobTTL)</text><polygon fill="#666666" points="1095.0957,426.9043,1105.0957,430.9043,1095.0957,434.9043,1099.0957,430.9043" style="stroke:#666666;stroke-width:1.0;"/><line style="stroke:#666666;stroke-width:1.0;" x1="409.5869" x2="1101.0957" y1="430.9043" y2="430.9043"/><text fill="#333333" font-family="sans-serif" font-size="13" lengthAdjust="spacing" textLength="533.2793" x="416.5869" y="426.1621">SendNotification(ctx, &amp;blockchain.Notification{Type: NotificationType_MiningOn, ...})</text><polygon fill="#666666" points="231.374,456.2148,221.374,460.2148,231.374,464.2148,227.374,460.2148" style="stroke:#666666;stroke-width:1.0;"/><line style="stroke:#666666;stroke-width:1.0;stroke-dasharray:2.0,2.0;" x1="225.374" x2="403.5869" y1="460.2148" y2="460.2148"/><text fill="#333333" font-family="sans-serif" font-size="13" lengthAdjust="spacing" textLength="155.2129" x="237.374" y="455.4727">Return mining candidate</text><polygon fill="#666666" points="42.1611,485.5254,32.1611,489.5254,42.1611,493.5254,38.1611,489.5254" style="stroke:#666666;stroke-width:1.0;"/><line style="stroke:#666666;stroke-width:1.0;stroke-dasharray:2.0,2.0;" x1="36.1611" x2="214.374" y1="489.5254" y2="489.5254"/><text fill="#333333" font-family="sans-serif" font-size="13" lengthAdjust="spacing" textLength="155.2129" x="48.1611" y="484.7832">Return mining candidate</text><text fill="#333333" font-family="sans-serif" font-size="10" lengthAdjust="spacing" textLength="155.4346" x="0" y="579.6816">Last Modified On: 24-Feb-2025</text><!--SRC=[fLHHQzim47xNhpWojZKZ2OF167aOh2aUZ2OTJTZhaArpeaQMWYHt3QN_VMTPZfNGRc7JGx1Et_VfxhjJt5Rg7RUyWfmNsxKrjHOpeuo5Lzdxx5EMCNT022nvhNncj8-G3s4b46wj-HKFFuR5s5kumb9gXDnOWTP1IQTSAK255Mhl4ZvjfT_38mEu3EXZBOgUPdaL5djYYKf16LgZ_bU6Vhqiv8vh_szIZAKIWpcPO0V07OIluyDBPOhj5-UmojL-fYGv4Q3jvn-mIxJtKRRzPD748rX477O7qBBElKNyRas1pfaer0UPu9xdt24ClfbywOt50EaspsHMRBZKIGcdGSP2_J3-7Ak3ANn5Jq6frpEkXQGxyQBm3qF62o_lQTVvm2A3k6srvt2ZBomoY7lmuHnwRnhhUKq2lKkjpCnKEuKUHJnncR6dqcbQYSkfrlWaGOk-jXfS56K2dvKuJYuLc75LrAh15qRgffa_kAhnPS8Q_G8V_2ANtb76sX3LolN6azO6Yoq8MPQID6c2kBYhdQz2SrxEW9ofc_ix7w12krK8EsjCcVBIniR2gs1XpqqDI7hJTxURJP9Oehzu9yK8taJxTjsWJmZrE9bCdaPmP_BLwdgOA9oER53IOc6yfBgvbqOtGqAo-G4vIKyVL_iTJY4DDP6VxJZSw14qLm_xhDF7SFltkhkHxfu3qTj7THQxUqmAIqz_nzHU2zVSUPWRwgn40JTw2g_3m0w46C_dy_6Urc38VWC0]--></g></svg>
