<svg xmlns="http://www.w3.org/2000/svg" xmlns:xlink="http://www.w3.org/1999/xlink" contentStyleType="text/css" height="850px" preserveAspectRatio="none" style="width:893px;height:850px;background:#FFFFFF;" version="1.1" viewBox="0 0 893 850" width="893px" zoomAndPan="magnify"><defs/><g><rect fill="#FFFFFF" height="29.3105" style="stroke:#181818;stroke-width:1.0;" width="10" x="307.3789" y="114.1094"/><rect fill="#FFFFFF" height="586.2344" style="stroke:#181818;stroke-width:1.0;" width="10" x="450.3721" y="172.7305"/><rect fill="#FFFFFF" height="455.3027" style="stroke:#181818;stroke-width:1.0;" width="10" x="455.3721" y="252.3516"/><rect fill="#FFFFFF" height="29.3105" style="stroke:#181818;stroke-width:1.0;" width="10" x="745.54" y="369.5938"/><rect fill="#FFFFFF" height="29.3105" style="stroke:#181818;stroke-width:1.0;" width="10" x="845.7725" y="286.6621"/><rect fill="none" height="248.4395" style="stroke:#000000;stroke-width:1.5;" width="431.4736" x="377.5356" y="330.9727"/><line style="stroke:#181818;stroke-width:0.5;stroke-dasharray:5.0,5.0;" x1="67" x2="67" y1="67.4883" y2="767.9648"/><line style="stroke:#181818;stroke-width:0.5;stroke-dasharray:5.0,5.0;" x1="312.2222" x2="312.2222" y1="67.4883" y2="767.9648"/><line style="stroke:#181818;stroke-width:0.5;stroke-dasharray:5.0,5.0;" x1="454.5356" x2="454.5356" y1="67.4883" y2="767.9648"/><line style="stroke:#181818;stroke-width:0.5;stroke-dasharray:5.0,5.0;" x1="750.0708" x2="750.0708" y1="67.4883" y2="767.9648"/><line style="stroke:#181818;stroke-width:0.5;stroke-dasharray:5.0,5.0;" x1="850.0093" x2="850.0093" y1="67.4883" y2="767.9648"/><rect fill="#E2E2F0" height="30.4883" rx="2.5" ry="2.5" style="stroke:#181818;stroke-width:0.5;" width="125.6719" x="5" y="36"/><text fill="#000000" font-family="sans-serif" font-size="14" lengthAdjust="spacing" textLength="111.6719" x="12" y="56.5352">Block Assembler</text><rect fill="#E2E2F0" height="30.4883" rx="2.5" ry="2.5" style="stroke:#181818;stroke-width:0.5;" width="125.6719" x="5" y="766.9648"/><text fill="#000000" font-family="sans-serif" font-size="14" lengthAdjust="spacing" textLength="111.6719" x="12" y="787.5">Block Assembler</text><rect fill="#E2E2F0" height="30.4883" rx="2.5" ry="2.5" style="stroke:#181818;stroke-width:0.5;" width="130.3135" x="247.2222" y="36"/><text fill="#000000" font-family="sans-serif" font-size="14" lengthAdjust="spacing" textLength="116.3135" x="254.2222" y="56.5352">Blockchain Client</text><rect fill="#E2E2F0" height="30.4883" rx="2.5" ry="2.5" style="stroke:#181818;stroke-width:0.5;" width="130.3135" x="247.2222" y="766.9648"/><text fill="#000000" font-family="sans-serif" font-size="14" lengthAdjust="spacing" textLength="116.3135" x="254.2222" y="787.5">Blockchain Client</text><rect fill="#E2E2F0" height="30.4883" rx="2.5" ry="2.5" style="stroke:#181818;stroke-width:0.5;" width="135.6729" x="387.5356" y="36"/><text fill="#000000" font-family="sans-serif" font-size="14" lengthAdjust="spacing" textLength="121.6729" x="394.5356" y="56.5352">Subtree Processor</text><rect fill="#E2E2F0" height="30.4883" rx="2.5" ry="2.5" style="stroke:#181818;stroke-width:0.5;" width="135.6729" x="387.5356" y="766.9648"/><text fill="#000000" font-family="sans-serif" font-size="14" lengthAdjust="spacing" textLength="121.6729" x="394.5356" y="787.5">Subtree Processor</text><text fill="#000000" font-family="sans-serif" font-size="14" lengthAdjust="spacing" textLength="90.9385" x="702.0708" y="64.5352">Subtree Store</text><path d="M732.54,15 C732.54,5 750.54,5 750.54,5 C750.54,5 768.54,5 768.54,15 L768.54,41 C768.54,51 750.54,51 750.54,51 C750.54,51 732.54,51 732.54,41 L732.54,15 " fill="#E2E2F0" style="stroke:#181818;stroke-width:1.5;"/><path d="M732.54,15 C732.54,25 750.54,25 750.54,25 C750.54,25 768.54,25 768.54,15 " fill="none" style="stroke:#181818;stroke-width:1.5;"/><text fill="#000000" font-family="sans-serif" font-size="14" lengthAdjust="spacing" textLength="90.9385" x="702.0708" y="780.5">Subtree Store</text><path d="M732.54,793.4531 C732.54,783.4531 750.54,783.4531 750.54,783.4531 C750.54,783.4531 768.54,783.4531 768.54,793.4531 L768.54,819.4531 C768.54,829.4531 750.54,829.4531 750.54,829.4531 C750.54,829.4531 732.54,829.4531 732.54,819.4531 L732.54,793.4531 " fill="#E2E2F0" style="stroke:#181818;stroke-width:1.5;"/><path d="M732.54,793.4531 C732.54,803.4531 750.54,803.4531 750.54,803.4531 C750.54,803.4531 768.54,803.4531 768.54,793.4531 " fill="none" style="stroke:#181818;stroke-width:1.5;"/><text fill="#000000" font-family="sans-serif" font-size="14" lengthAdjust="spacing" textLength="77.5264" x="809.0093" y="64.5352">UTXO Store</text><path d="M832.7725,15 C832.7725,5 850.7725,5 850.7725,5 C850.7725,5 868.7725,5 868.7725,15 L868.7725,41 C868.7725,51 850.7725,51 850.7725,51 C850.7725,51 832.7725,51 832.7725,41 L832.7725,15 " fill="#E2E2F0" style="stroke:#181818;stroke-width:1.5;"/><path d="M832.7725,15 C832.7725,25 850.7725,25 850.7725,25 C850.7725,25 868.7725,25 868.7725,15 " fill="none" style="stroke:#181818;stroke-width:1.5;"/><text fill="#000000" font-family="sans-serif" font-size="14" lengthAdjust="spacing" textLength="77.5264" x="809.0093" y="780.5">UTXO Store</text><path d="M832.7725,793.4531 C832.7725,783.4531 850.7725,783.4531 850.7725,783.4531 C850.7725,783.4531 868.7725,783.4531 868.7725,793.4531 L868.7725,819.4531 C868.7725,829.4531 850.7725,829.4531 850.7725,829.4531 C850.7725,829.4531 832.7725,829.4531 832.7725,819.4531 L832.7725,793.4531 " fill="#E2E2F0" style="stroke:#181818;stroke-width:1.5;"/><path d="M832.7725,793.4531 C832.7725,803.4531 850.7725,803.4531 850.7725,803.4531 C850.7725,803.4531 868.7725,803.4531 868.7725,793.4531 " fill="none" style="stroke:#181818;stroke-width:1.5;"/><rect fill="#FFFFFF" height="29.3105" style="stroke:#181818;stroke-width:1.0;" width="10" x="307.3789" y="114.1094"/><rect fill="#FFFFFF" height="586.2344" style="stroke:#181818;stroke-width:1.0;" width="10" x="450.3721" y="172.7305"/><rect fill="#FFFFFF" height="455.3027" style="stroke:#181818;stroke-width:1.0;" width="10" x="455.3721" y="252.3516"/><rect fill="#FFFFFF" height="29.3105" style="stroke:#181818;stroke-width:1.0;" width="10" x="745.54" y="369.5938"/><rect fill="#FFFFFF" height="29.3105" style="stroke:#181818;stroke-width:1.0;" width="10" x="845.7725" y="286.6621"/><polygon fill="#181818" points="295.3789,110.1094,305.3789,114.1094,295.3789,118.1094,299.3789,114.1094" style="stroke:#181818;stroke-width:1.0;"/><line style="stroke:#181818;stroke-width:1.0;" x1="67.8359" x2="301.3789" y1="114.1094" y2="114.1094"/><text fill="#000000" font-family="sans-serif" font-size="13" lengthAdjust="spacing" textLength="82.8115" x="74.8359" y="94.0566">GetBlock(ctx,</text><text fill="#000000" font-family="sans-serif" font-size="13" lengthAdjust="spacing" textLength="220.543" x="74.8359" y="109.3672">bestBlockchainBlockHeader.Hash())</text><polygon fill="#181818" points="78.8359,139.4199,68.8359,143.4199,78.8359,147.4199,74.8359,143.4199" style="stroke:#181818;stroke-width:1.0;"/><line style="stroke:#181818;stroke-width:1.0;stroke-dasharray:2.0,2.0;" x1="72.8359" x2="311.3789" y1="143.4199" y2="143.4199"/><text fill="#000000" font-family="sans-serif" font-size="13" lengthAdjust="spacing" textLength="67.1074" x="84.8359" y="138.6777">block / err</text><polygon fill="#181818" points="438.3721,168.7305,448.3721,172.7305,438.3721,176.7305,442.3721,172.7305" style="stroke:#181818;stroke-width:1.0;"/><line style="stroke:#181818;stroke-width:1.0;" x1="67.8359" x2="444.3721" y1="172.7305" y2="172.7305"/><text fill="#000000" font-family="sans-serif" font-size="13" lengthAdjust="spacing" textLength="126.458" x="74.8359" y="167.9883">MoveForwardBlock(block)</text><line style="stroke:#181818;stroke-width:1.0;" x1="460.3721" x2="502.3721" y1="202.041" y2="202.041"/><line style="stroke:#181818;stroke-width:1.0;" x1="502.3721" x2="502.3721" y1="202.041" y2="215.041"/><line style="stroke:#181818;stroke-width:1.0;" x1="461.3721" x2="502.3721" y1="215.041" y2="215.041"/><polygon fill="#181818" points="471.3721,211.041,461.3721,215.041,471.3721,219.041,467.3721,215.041" style="stroke:#181818;stroke-width:1.0;"/><text fill="#000000" font-family="sans-serif" font-size="13" lengthAdjust="spacing" textLength="261.168" x="467.3721" y="197.2988">moveForwardBlockChan &lt;- moveBlockRequest</text><line style="stroke:#181818;stroke-width:1.0;" x1="460.3721" x2="507.3721" y1="239.3516" y2="239.3516"/><line style="stroke:#181818;stroke-width:1.0;" x1="507.3721" x2="507.3721" y1="239.3516" y2="252.3516"/><line style="stroke:#181818;stroke-width:1.0;" x1="466.3721" x2="507.3721" y1="252.3516" y2="252.3516"/><polygon fill="#181818" points="476.3721,248.3516,466.3721,252.3516,476.3721,256.3516,472.3721,252.3516" style="stroke:#181818;stroke-width:1.0;"/><text fill="#000000" font-family="sans-serif" font-size="13" lengthAdjust="spacing" textLength="169.7744" x="472.3721" y="234.6094">Process moveBlockRequest</text><polygon fill="#181818" points="833.7725,282.6621,843.7725,286.6621,833.7725,290.6621,837.7725,286.6621" style="stroke:#181818;stroke-width:1.0;"/><line style="stroke:#181818;stroke-width:1.0;" x1="465.3721" x2="839.7725" y1="286.6621" y2="286.6621"/><text fill="#000000" font-family="sans-serif" font-size="13" lengthAdjust="spacing" textLength="147.0879" x="472.3721" y="281.9199">Process coinbase utxos</text><polygon fill="#181818" points="476.3721,311.9727,466.3721,315.9727,476.3721,319.9727,472.3721,315.9727" style="stroke:#181818;stroke-width:1.0;"/><line style="stroke:#181818;stroke-width:1.0;stroke-dasharray:2.0,2.0;" x1="470.3721" x2="849.7725" y1="315.9727" y2="315.9727"/><text fill="#000000" font-family="sans-serif" font-size="13" lengthAdjust="spacing" textLength="172.4214" x="482.3721" y="311.2305">Coinbase UTXOs processed</text><path d="M377.5356,330.9727 L439.6743,330.9727 L439.6743,338.2832 L429.6743,348.2832 L377.5356,348.2832 L377.5356,330.9727 " fill="#EEEEEE" style="stroke:#000000;stroke-width:1.5;"/><rect fill="none" height="248.4395" style="stroke:#000000;stroke-width:1.5;" width="431.4736" x="377.5356" y="330.9727"/><text fill="#000000" font-family="sans-serif" font-size="13" font-weight="bold" lengthAdjust="spacing" textLength="17.1387" x="392.5356" y="344.541">alt</text><text fill="#000000" font-family="sans-serif" font-size="11" font-weight="bold" lengthAdjust="spacing" textLength="210.6489" x="454.6743" y="343.6074">[if block is not from our own mining]</text><polygon fill="#181818" points="733.54,365.5938,743.54,369.5938,733.54,373.5938,737.54,369.5938" style="stroke:#181818;stroke-width:1.0;"/><line style="stroke:#181818;stroke-width:1.0;" x1="465.3721" x2="739.54" y1="369.5938" y2="369.5938"/><text fill="#000000" font-family="sans-serif" font-size="13" lengthAdjust="spacing" textLength="150.2681" x="472.3721" y="364.8516">Get subtrees from store</text><polygon fill="#181818" points="476.3721,394.9043,466.3721,398.9043,476.3721,402.9043,472.3721,398.9043" style="stroke:#181818;stroke-width:1.0;"/><line style="stroke:#181818;stroke-width:1.0;stroke-dasharray:2.0,2.0;" x1="470.3721" x2="749.54" y1="398.9043" y2="398.9043"/><text fill="#000000" font-family="sans-serif" font-size="13" lengthAdjust="spacing" textLength="54.5454" x="482.3721" y="394.1621">Subtrees</text><line style="stroke:#181818;stroke-width:1.0;" x1="465.3721" x2="507.3721" y1="443.5254" y2="443.5254"/><line style="stroke:#181818;stroke-width:1.0;" x1="507.3721" x2="507.3721" y1="443.5254" y2="456.5254"/><line style="stroke:#181818;stroke-width:1.0;" x1="466.3721" x2="507.3721" y1="456.5254" y2="456.5254"/><polygon fill="#181818" points="476.3721,452.5254,466.3721,456.5254,476.3721,460.5254,472.3721,456.5254" style="stroke:#181818;stroke-width:1.0;"/><text fill="#000000" font-family="sans-serif" font-size="13" lengthAdjust="spacing" textLength="147.1323" x="472.3721" y="423.4727">Create transaction map</text><text fill="#000000" font-family="sans-serif" font-size="13" lengthAdjust="spacing" textLength="126.8008" x="476.4854" y="438.7832">from block subtrees</text><line style="stroke:#181818;stroke-width:1.0;" x1="465.3721" x2="507.3721" y1="485.8359" y2="485.8359"/><line style="stroke:#181818;stroke-width:1.0;" x1="507.3721" x2="507.3721" y1="485.8359" y2="498.8359"/><line style="stroke:#181818;stroke-width:1.0;" x1="466.3721" x2="507.3721" y1="498.8359" y2="498.8359"/><polygon fill="#181818" points="476.3721,494.8359,466.3721,498.8359,476.3721,502.8359,472.3721,498.8359" style="stroke:#181818;stroke-width:1.0;"/><text fill="#000000" font-family="sans-serif" font-size="13" lengthAdjust="spacing" textLength="181.0796" x="472.3721" y="481.0938">Process remainder tx hashes</text><line style="stroke:#000000;stroke-width:1.0;stroke-dasharray:2.0,2.0;" x1="377.5356" x2="809.0093" y1="507.8359" y2="507.8359"/><text fill="#000000" font-family="sans-serif" font-size="11" font-weight="bold" lengthAdjust="spacing" textLength="188.3159" x="382.5356" y="518.4707">[if block is from our own mining]</text><line style="stroke:#181818;stroke-width:1.0;" x1="465.3721" x2="507.3721" y1="558.4121" y2="558.4121"/><line style="stroke:#181818;stroke-width:1.0;" x1="507.3721" x2="507.3721" y1="558.4121" y2="571.4121"/><line style="stroke:#181818;stroke-width:1.0;" x1="466.3721" x2="507.3721" y1="571.4121" y2="571.4121"/><polygon fill="#181818" points="476.3721,567.4121,466.3721,571.4121,476.3721,575.4121,472.3721,571.4121" style="stroke:#181818;stroke-width:1.0;"/><text fill="#000000" font-family="sans-serif" font-size="13" lengthAdjust="spacing" textLength="209.9678" x="472.3721" y="538.3594">Process existing chainedSubtrees</text><text fill="#000000" font-family="sans-serif" font-size="13" lengthAdjust="spacing" textLength="120.999" x="472.3721" y="553.6699">and currentSubtree</text><line style="stroke:#181818;stroke-width:1.0;" x1="465.3721" x2="507.3721" y1="623.0332" y2="623.0332"/><line style="stroke:#181818;stroke-width:1.0;" x1="507.3721" x2="507.3721" y1="623.0332" y2="636.0332"/><line style="stroke:#181818;stroke-width:1.0;" x1="466.3721" x2="507.3721" y1="636.0332" y2="636.0332"/><polygon fill="#181818" points="476.3721,632.0332,466.3721,636.0332,476.3721,640.0332,472.3721,636.0332" style="stroke:#181818;stroke-width:1.0;"/><text fill="#000000" font-family="sans-serif" font-size="13" lengthAdjust="spacing" textLength="145.9644" x="472.3721" y="602.9805">Update current subtree</text><text fill="#000000" font-family="sans-serif" font-size="13" lengthAdjust="spacing" textLength="163.7314" x="472.3721" y="618.291">with pending transactions</text><line style="stroke:#181818;stroke-width:1.0;" x1="465.3721" x2="507.3721" y1="665.3438" y2="665.3438"/><line style="stroke:#181818;stroke-width:1.0;" x1="507.3721" x2="507.3721" y1="665.3438" y2="678.3438"/><line style="stroke:#181818;stroke-width:1.0;" x1="466.3721" x2="507.3721" y1="678.3438" y2="678.3438"/><polygon fill="#181818" points="476.3721,674.3438,466.3721,678.3438,476.3721,682.3438,472.3721,678.3438" style="stroke:#181818;stroke-width:1.0;"/><text fill="#000000" font-family="sans-serif" font-size="13" lengthAdjust="spacing" textLength="81.3579" x="472.3721" y="660.6016">setTxCount()</text><polygon fill="#181818" points="78.8359,703.6543,68.8359,707.6543,78.8359,711.6543,74.8359,707.6543" style="stroke:#181818;stroke-width:1.0;"/><line style="stroke:#181818;stroke-width:1.0;stroke-dasharray:2.0,2.0;" x1="72.8359" x2="449.3721" y1="707.6543" y2="707.6543"/><text fill="#000000" font-family="sans-serif" font-size="13" lengthAdjust="spacing" textLength="48.5088" x="84.8359" y="702.9121">err / nil</text><line style="stroke:#181818;stroke-width:1.0;" x1="67.8359" x2="109.8359" y1="736.9648" y2="736.9648"/><line style="stroke:#181818;stroke-width:1.0;" x1="109.8359" x2="109.8359" y1="736.9648" y2="749.9648"/><line style="stroke:#181818;stroke-width:1.0;" x1="68.8359" x2="109.8359" y1="749.9648" y2="749.9648"/><polygon fill="#181818" points="78.8359,745.9648,68.8359,749.9648,78.8359,753.9648,74.8359,749.9648" style="stroke:#181818;stroke-width:1.0;"/><text fill="#000000" font-family="sans-serif" font-size="13" lengthAdjust="spacing" textLength="132.2915" x="74.8359" y="732.2227">UpdateBestBlock(ctx)</text><text fill="#888888" font-family="sans-serif" font-size="10" lengthAdjust="spacing" textLength="154.8389" x="0" y="840.1211">Last Modified On: 14-Nov-2024</text><!--SRC=[XLF1Rjim3BtxAuW00n9Wxkx1CC3nOJqqQ34dm0wzA1Op2tCaJwHRx-z7oNQij0NcGw28Zu-FJsIdF9lQTCeoh7Qjgtz3GOINKuj-1OfWLsJTEqpTA6EXR0rQ7b7bBQhgJ-mHuScx6edSo5KTdZAjM9qKuOAfs7aSu_6OG8w7duz9FFmT8TckWFoRbDt2T-IeQLtpy1cUxGc95v7nT8zAex-xLzIiDvjCrMnU56DGlIiX3qJ55awn-o-0tcSQKz1KJUHlOUzUyDYD5MD6mXVwo-Jd2huiuB9H5hxcyIfU_C0_lKYzmKzslGTzME9gnv9OEsEZTJqFZfQqnRdhAVOTgvPpKeWHT2CNwjI5n7hLCfZpP9SXi8xXxDq5NE_1lLgu66lihmpacvkRPCfR0OtFJcCEHSu0NLgihdVL6wNJo50C9kgcb9kIiJEF8SnUMGfW9-9Kzsp7scC7b79-z1WUBp98Ca300pGoGuB5LknAJVYV0IaX3ePO010d5FNSbGoliXhgtdlPg-asGwjlX-hOwT3K19lrI_AhuGOwmGVkf6UwIIVamr2wtl9wCn5F2o23B-DlJPi-VDpPP1kAw-uLivJTl75X1OMpnRDCX7CibZqeOjaPRSu6DJpQBNmAAUkLrlb-ly__ohVQPFy0]--></g></svg>
