<svg xmlns="http://www.w3.org/2000/svg" xmlns:xlink="http://www.w3.org/1999/xlink" contentStyleType="text/css" height="926px" preserveAspectRatio="none" style="width:1137px;height:926px;background:#F0F8FF;" version="1.1" viewBox="0 0 1137 926" width="1137px" zoomAndPan="magnify"><defs/><g><rect fill="#F0F8FF" height="926" style="stroke:none;stroke-width:1.0;" width="1137" x="0" y="0"/><rect fill="#FFFFFF" height="29.3105" style="stroke:#181818;stroke-width:1.0;" width="10" x="549.1748" y="98.7988"/><rect fill="#FFFFFF" height="29.3105" style="stroke:#181818;stroke-width:1.0;" width="10" x="549.1748" y="224.041"/><rect fill="#FFFFFF" height="29.3105" style="stroke:#181818;stroke-width:1.0;" width="10" x="549.1748" y="313.9727"/><rect fill="#FFFFFF" height="319.7949" style="stroke:#181818;stroke-width:1.0;" width="10" x="687.7383" y="379.5938"/><rect fill="none" height="75.9316" style="stroke:#000000;stroke-width:1.5;" width="617.1167" x="10" y="185.4199"/><rect fill="none" height="75.9316" style="stroke:#000000;stroke-width:1.5;" width="617.1167" x="10" y="275.3516"/><rect fill="none" height="88.9316" style="stroke:#000000;stroke-width:1.5;" width="477.5913" x="617.1167" y="394.5938"/><rect fill="none" height="88.9316" style="stroke:#000000;stroke-width:1.5;" width="477.5913" x="617.1167" y="497.5254"/><line style="stroke:#181818;stroke-width:0.5;stroke-dasharray:5.0,5.0;" x1="80" x2="80" y1="67.4883" y2="844.3203"/><line style="stroke:#181818;stroke-width:0.5;stroke-dasharray:5.0,5.0;" x1="553.2329" x2="553.2329" y1="67.4883" y2="844.3203"/><line style="stroke:#181818;stroke-width:0.5;stroke-dasharray:5.0,5.0;" x1="692.1167" x2="692.1167" y1="67.4883" y2="844.3203"/><line style="stroke:#181818;stroke-width:0.5;stroke-dasharray:5.0,5.0;" x1="949.1025" x2="949.1025" y1="67.4883" y2="844.3203"/><line style="stroke:#181818;stroke-width:0.5;stroke-dasharray:5.0,5.0;" x1="1044.6113" x2="1044.6113" y1="67.4883" y2="844.3203"/><line style="stroke:#181818;stroke-width:0.5;stroke-dasharray:5.0,5.0;" x1="1115.708" x2="1115.708" y1="67.4883" y2="844.3203"/><rect fill="#DDDDDD" height="30.4883" rx="2.5" ry="2.5" style="stroke:#666666;stroke-width:0.5;" width="121.2422" x="20" y="36"/><text fill="#333333" font-family="sans-serif" font-size="14" lengthAdjust="spacing" textLength="107.2422" x="27" y="56.5352">BlockAssembler</text><rect fill="#DDDDDD" height="30.4883" rx="2.5" ry="2.5" style="stroke:#666666;stroke-width:0.5;" width="121.2422" x="20" y="843.3203"/><text fill="#333333" font-family="sans-serif" font-size="14" lengthAdjust="spacing" textLength="107.2422" x="27" y="863.8555">BlockAssembler</text><rect fill="#DDDDDD" height="30.4883" rx="2.5" ry="2.5" style="stroke:#666666;stroke-width:0.5;" width="125.8838" x="491.2329" y="36"/><text fill="#333333" font-family="sans-serif" font-size="14" lengthAdjust="spacing" textLength="111.8838" x="498.2329" y="56.5352">BlockchainClient</text><rect fill="#DDDDDD" height="30.4883" rx="2.5" ry="2.5" style="stroke:#666666;stroke-width:0.5;" width="125.8838" x="491.2329" y="843.3203"/><text fill="#333333" font-family="sans-serif" font-size="14" lengthAdjust="spacing" textLength="111.8838" x="498.2329" y="863.8555">BlockchainClient</text><rect fill="#DDDDDD" height="30.4883" rx="2.5" ry="2.5" style="stroke:#666666;stroke-width:0.5;" width="131.2432" x="627.1167" y="36"/><text fill="#333333" font-family="sans-serif" font-size="14" lengthAdjust="spacing" textLength="117.2432" x="634.1167" y="56.5352">SubtreeProcessor</text><rect fill="#DDDDDD" height="30.4883" rx="2.5" ry="2.5" style="stroke:#666666;stroke-width:0.5;" width="131.2432" x="627.1167" y="843.3203"/><text fill="#333333" font-family="sans-serif" font-size="14" lengthAdjust="spacing" textLength="117.2432" x="634.1167" y="863.8555">SubtreeProcessor</text><text fill="#333333" font-family="sans-serif" font-size="14" lengthAdjust="spacing" textLength="86.5088" x="903.1025" y="64.5352">SubtreeStore</text><path d="M931.3569,15 C931.3569,5 949.3569,5 949.3569,5 C949.3569,5 967.3569,5 967.3569,15 L967.3569,41 C967.3569,51 949.3569,51 949.3569,51 C949.3569,51 931.3569,51 931.3569,41 L931.3569,15 " fill="#E2E2F0" style="stroke:#181818;stroke-width:1.5;"/><path d="M931.3569,15 C931.3569,25 949.3569,25 949.3569,25 C949.3569,25 967.3569,25 967.3569,15 " fill="none" style="stroke:#181818;stroke-width:1.5;"/><text fill="#333333" font-family="sans-serif" font-size="14" lengthAdjust="spacing" textLength="86.5088" x="903.1025" y="856.8555">SubtreeStore</text><path d="M931.3569,869.8086 C931.3569,859.8086 949.3569,859.8086 949.3569,859.8086 C949.3569,859.8086 967.3569,859.8086 967.3569,869.8086 L967.3569,895.8086 C967.3569,905.8086 949.3569,905.8086 949.3569,905.8086 C949.3569,905.8086 931.3569,905.8086 931.3569,895.8086 L931.3569,869.8086 " fill="#E2E2F0" style="stroke:#181818;stroke-width:1.5;"/><path d="M931.3569,869.8086 C931.3569,879.8086 949.3569,879.8086 949.3569,879.8086 C949.3569,879.8086 967.3569,879.8086 967.3569,869.8086 " fill="none" style="stroke:#181818;stroke-width:1.5;"/><text fill="#333333" font-family="sans-serif" font-size="14" lengthAdjust="spacing" textLength="73.0967" x="1005.6113" y="64.5352">UTXOStore</text><path d="M1027.1597,15 C1027.1597,5 1045.1597,5 1045.1597,5 C1045.1597,5 1063.1597,5 1063.1597,15 L1063.1597,41 C1063.1597,51 1045.1597,51 1045.1597,51 C1045.1597,51 1027.1597,51 1027.1597,41 L1027.1597,15 " fill="#E2E2F0" style="stroke:#181818;stroke-width:1.5;"/><path d="M1027.1597,15 C1027.1597,25 1045.1597,25 1045.1597,25 C1045.1597,25 1063.1597,25 1063.1597,15 " fill="none" style="stroke:#181818;stroke-width:1.5;"/><text fill="#333333" font-family="sans-serif" font-size="14" lengthAdjust="spacing" textLength="73.0967" x="1005.6113" y="856.8555">UTXOStore</text><path d="M1027.1597,869.8086 C1027.1597,859.8086 1045.1597,859.8086 1045.1597,859.8086 C1045.1597,859.8086 1063.1597,859.8086 1063.1597,869.8086 L1063.1597,895.8086 C1063.1597,905.8086 1045.1597,905.8086 1045.1597,905.8086 C1045.1597,905.8086 1027.1597,905.8086 1027.1597,895.8086 L1027.1597,869.8086 " fill="#E2E2F0" style="stroke:#181818;stroke-width:1.5;"/><path d="M1027.1597,869.8086 C1027.1597,879.8086 1045.1597,879.8086 1045.1597,879.8086 C1045.1597,879.8086 1063.1597,879.8086 1063.1597,869.8086 " fill="none" style="stroke:#181818;stroke-width:1.5;"/><text fill="#333333" font-family="sans-serif" font-size="14" lengthAdjust="spacing" textLength="36.0527" x="1094.708" y="64.5352">Block</text><ellipse cx="1115.7344" cy="35" fill="#DDDDDD" rx="12" ry="12" style="stroke:#666666;stroke-width:0.5;"/><line style="stroke:#666666;stroke-width:0.5;" x1="1103.7344" x2="1127.7344" y1="49" y2="49"/><text fill="#333333" font-family="sans-serif" font-size="14" lengthAdjust="spacing" textLength="36.0527" x="1094.708" y="856.8555">Block</text><ellipse cx="1115.7344" cy="875.8086" fill="#DDDDDD" rx="12" ry="12" style="stroke:#666666;stroke-width:0.5;"/><line style="stroke:#666666;stroke-width:0.5;" x1="1103.7344" x2="1127.7344" y1="889.8086" y2="889.8086"/><rect fill="#FFFFFF" height="29.3105" style="stroke:#181818;stroke-width:1.0;" width="10" x="549.1748" y="98.7988"/><rect fill="#FFFFFF" height="29.3105" style="stroke:#181818;stroke-width:1.0;" width="10" x="549.1748" y="224.041"/><rect fill="#FFFFFF" height="29.3105" style="stroke:#181818;stroke-width:1.0;" width="10" x="549.1748" y="313.9727"/><rect fill="#FFFFFF" height="319.7949" style="stroke:#181818;stroke-width:1.0;" width="10" x="687.7383" y="379.5938"/><polygon fill="#666666" points="537.1748,94.7988,547.1748,98.7988,537.1748,102.7988,541.1748,98.7988" style="stroke:#666666;stroke-width:1.0;"/><line style="stroke:#666666;stroke-width:1.0;" x1="80.6211" x2="543.1748" y1="98.7988" y2="98.7988"/><text fill="#333333" font-family="sans-serif" font-size="13" lengthAdjust="spacing" textLength="449.5537" x="87.6211" y="94.0566">GetBlockHeaders(ctx, header.Hash(), uint64(b.maxBlockReorgCatchup))</text><polygon fill="#666666" points="91.6211,124.1094,81.6211,128.1094,91.6211,132.1094,87.6211,128.1094" style="stroke:#666666;stroke-width:1.0;"/><line style="stroke:#666666;stroke-width:1.0;stroke-dasharray:2.0,2.0;" x1="85.6211" x2="553.1748" y1="128.1094" y2="128.1094"/><text fill="#333333" font-family="sans-serif" font-size="13" lengthAdjust="spacing" textLength="102.229" x="97.6211" y="123.3672">newChain, _, err</text><line style="stroke:#666666;stroke-width:1.0;" x1="80.6211" x2="122.6211" y1="157.4199" y2="157.4199"/><line style="stroke:#666666;stroke-width:1.0;" x1="122.6211" x2="122.6211" y1="157.4199" y2="170.4199"/><line style="stroke:#666666;stroke-width:1.0;" x1="81.6211" x2="122.6211" y1="170.4199" y2="170.4199"/><polygon fill="#666666" points="91.6211,166.4199,81.6211,170.4199,91.6211,174.4199,87.6211,170.4199" style="stroke:#666666;stroke-width:1.0;"/><text fill="#333333" font-family="sans-serif" font-size="13" lengthAdjust="spacing" textLength="411.1885" x="87.6211" y="152.6777">Calculate moveForwardBlockHeaders and moveBackBlockHeaders</text><path d="M10,185.4199 L84.4468,185.4199 L84.4468,192.7305 L74.4468,202.7305 L10,202.7305 L10,185.4199 " fill="#EEEEEE" style="stroke:#000000;stroke-width:1.5;"/><rect fill="none" height="75.9316" style="stroke:#000000;stroke-width:1.5;" width="617.1167" x="10" y="185.4199"/><text fill="#333333" font-family="sans-serif" font-size="13" font-weight="bold" lengthAdjust="spacing" textLength="29.4468" x="25" y="198.9883">loop</text><text fill="#333333" font-family="sans-serif" font-size="11" font-weight="bold" lengthAdjust="spacing" textLength="302.5752" x="99.4468" y="198.0547">[For Each BlockHeader in moveForwardBlockHeaders]</text><polygon fill="#666666" points="537.1748,220.041,547.1748,224.041,537.1748,228.041,541.1748,224.041" style="stroke:#666666;stroke-width:1.0;"/><line style="stroke:#666666;stroke-width:1.0;" x1="80.6211" x2="543.1748" y1="224.041" y2="224.041"/><text fill="#333333" font-family="sans-serif" font-size="13" lengthAdjust="spacing" textLength="214.0493" x="87.6211" y="219.2988">GetBlock(ctx, blockHeader.Hash())</text><polygon fill="#666666" points="91.6211,249.3516,81.6211,253.3516,91.6211,257.3516,87.6211,253.3516" style="stroke:#666666;stroke-width:1.0;"/><line style="stroke:#666666;stroke-width:1.0;stroke-dasharray:2.0,2.0;" x1="85.6211" x2="553.1748" y1="253.3516" y2="253.3516"/><text fill="#333333" font-family="sans-serif" font-size="13" lengthAdjust="spacing" textLength="34.1821" x="97.6211" y="248.6094">block</text><path d="M10,275.3516 L84.4468,275.3516 L84.4468,282.6621 L74.4468,292.6621 L10,292.6621 L10,275.3516 " fill="#EEEEEE" style="stroke:#000000;stroke-width:1.5;"/><rect fill="none" height="75.9316" style="stroke:#000000;stroke-width:1.5;" width="617.1167" x="10" y="275.3516"/><text fill="#333333" font-family="sans-serif" font-size="13" font-weight="bold" lengthAdjust="spacing" textLength="29.4468" x="25" y="288.9199">loop</text><text fill="#333333" font-family="sans-serif" font-size="11" font-weight="bold" lengthAdjust="spacing" textLength="282.1973" x="99.4468" y="287.9863">[For Each BlockHeader in moveBackBlockHeaders]</text><polygon fill="#666666" points="537.1748,309.9727,547.1748,313.9727,537.1748,317.9727,541.1748,313.9727" style="stroke:#666666;stroke-width:1.0;"/><line style="stroke:#666666;stroke-width:1.0;" x1="80.6211" x2="543.1748" y1="313.9727" y2="313.9727"/><text fill="#333333" font-family="sans-serif" font-size="13" lengthAdjust="spacing" textLength="214.0493" x="87.6211" y="309.2305">GetBlock(ctx, blockHeader.Hash())</text><polygon fill="#666666" points="91.6211,339.2832,81.6211,343.2832,91.6211,347.2832,87.6211,343.2832" style="stroke:#666666;stroke-width:1.0;"/><line style="stroke:#666666;stroke-width:1.0;stroke-dasharray:2.0,2.0;" x1="85.6211" x2="553.1748" y1="343.2832" y2="343.2832"/><text fill="#333333" font-family="sans-serif" font-size="13" lengthAdjust="spacing" textLength="34.1821" x="97.6211" y="338.541">block</text><polygon fill="#666666" points="675.7383,375.5938,685.7383,379.5938,675.7383,383.5938,679.7383,379.5938" style="stroke:#666666;stroke-width:1.0;"/><line style="stroke:#666666;stroke-width:1.0;" x1="80.6211" x2="681.7383" y1="379.5938" y2="379.5938"/><text fill="#333333" font-family="sans-serif" font-size="13" lengthAdjust="spacing" textLength="281.8359" x="87.6211" y="374.8516">Reorg(moveBackBlocks, moveForwardBlocks)</text><path d="M617.1167,394.5938 L691.5635,394.5938 L691.5635,401.9043 L681.5635,411.9043 L617.1167,411.9043 L617.1167,394.5938 " fill="#EEEEEE" style="stroke:#000000;stroke-width:1.5;"/><rect fill="none" height="88.9316" style="stroke:#000000;stroke-width:1.5;" width="477.5913" x="617.1167" y="394.5938"/><text fill="#333333" font-family="sans-serif" font-size="13" font-weight="bold" lengthAdjust="spacing" textLength="29.4468" x="632.1167" y="408.1621">loop</text><text fill="#333333" font-family="sans-serif" font-size="11" font-weight="bold" lengthAdjust="spacing" textLength="201.7383" x="706.5635" y="407.2285">[For Each Block in moveBackBlocks]</text><line style="stroke:#666666;stroke-width:1.0;" x1="697.7383" x2="739.7383" y1="433.2148" y2="433.2148"/><line style="stroke:#666666;stroke-width:1.0;" x1="739.7383" x2="739.7383" y1="433.2148" y2="446.2148"/><line style="stroke:#666666;stroke-width:1.0;" x1="698.7383" x2="739.7383" y1="446.2148" y2="446.2148"/><polygon fill="#666666" points="708.7383,442.2148,698.7383,446.2148,708.7383,450.2148,704.7383,446.2148" style="stroke:#666666;stroke-width:1.0;"/><text fill="#333333" font-family="sans-serif" font-size="13" lengthAdjust="spacing" textLength="166.8418" x="704.7383" y="428.4727">moveBackBlock(ctx, block)</text><polygon fill="#666666" points="1033.1597,471.5254,1043.1597,475.5254,1033.1597,479.5254,1037.1597,475.5254" style="stroke:#666666;stroke-width:1.0;"/><line style="stroke:#666666;stroke-width:1.0;" x1="697.7383" x2="1039.1597" y1="475.5254" y2="475.5254"/><text fill="#333333" font-family="sans-serif" font-size="13" lengthAdjust="spacing" textLength="139.4771" x="704.7383" y="470.7832">Delete coinbase UTXO</text><path d="M617.1167,497.5254 L691.5635,497.5254 L691.5635,504.8359 L681.5635,514.8359 L617.1167,514.8359 L617.1167,497.5254 " fill="#EEEEEE" style="stroke:#000000;stroke-width:1.5;"/><rect fill="none" height="88.9316" style="stroke:#000000;stroke-width:1.5;" width="477.5913" x="617.1167" y="497.5254"/><text fill="#333333" font-family="sans-serif" font-size="13" font-weight="bold" lengthAdjust="spacing" textLength="29.4468" x="632.1167" y="511.0938">loop</text><text fill="#333333" font-family="sans-serif" font-size="11" font-weight="bold" lengthAdjust="spacing" textLength="222.1162" x="706.5635" y="510.1602">[For Each Block in moveForwardBlocks]</text><line style="stroke:#666666;stroke-width:1.0;" x1="697.7383" x2="739.7383" y1="536.1465" y2="536.1465"/><line style="stroke:#666666;stroke-width:1.0;" x1="739.7383" x2="739.7383" y1="536.1465" y2="549.1465"/><line style="stroke:#666666;stroke-width:1.0;" x1="698.7383" x2="739.7383" y1="549.1465" y2="549.1465"/><polygon fill="#666666" points="708.7383,545.1465,698.7383,549.1465,708.7383,553.1465,704.7383,549.1465" style="stroke:#666666;stroke-width:1.0;"/><text fill="#333333" font-family="sans-serif" font-size="13" lengthAdjust="spacing" textLength="222.6187" x="704.7383" y="531.4043">moveForwardBlock(ctx, block, true)</text><polygon fill="#666666" points="1033.1597,574.457,1043.1597,578.457,1033.1597,582.457,1037.1597,578.457" style="stroke:#666666;stroke-width:1.0;"/><line style="stroke:#666666;stroke-width:1.0;" x1="697.7383" x2="1039.1597" y1="578.457" y2="578.457"/><text fill="#333333" font-family="sans-serif" font-size="13" lengthAdjust="spacing" textLength="153.6641" x="704.7383" y="573.7148">Process coinbase UTXOs</text><line style="stroke:#666666;stroke-width:1.0;" x1="697.7383" x2="739.7383" y1="614.7676" y2="614.7676"/><line style="stroke:#666666;stroke-width:1.0;" x1="739.7383" x2="739.7383" y1="614.7676" y2="627.7676"/><line style="stroke:#666666;stroke-width:1.0;" x1="698.7383" x2="739.7383" y1="627.7676" y2="627.7676"/><polygon fill="#666666" points="708.7383,623.7676,698.7383,627.7676,708.7383,631.7676,704.7383,627.7676" style="stroke:#666666;stroke-width:1.0;"/><text fill="#333333" font-family="sans-serif" font-size="13" lengthAdjust="spacing" textLength="212.3862" x="704.7383" y="610.0254">Announce all subtrees to network</text><line style="stroke:#666666;stroke-width:1.0;" x1="697.7383" x2="739.7383" y1="657.0781" y2="657.0781"/><line style="stroke:#666666;stroke-width:1.0;" x1="739.7383" x2="739.7383" y1="657.0781" y2="670.0781"/><line style="stroke:#666666;stroke-width:1.0;" x1="698.7383" x2="739.7383" y1="670.0781" y2="670.0781"/><polygon fill="#666666" points="708.7383,666.0781,698.7383,670.0781,708.7383,674.0781,704.7383,670.0781" style="stroke:#666666;stroke-width:1.0;"/><text fill="#333333" font-family="sans-serif" font-size="13" lengthAdjust="spacing" textLength="81.3579" x="704.7383" y="652.3359">setTxCount()</text><polygon fill="#666666" points="91.6211,695.3887,81.6211,699.3887,91.6211,703.3887,87.6211,699.3887" style="stroke:#666666;stroke-width:1.0;"/><line style="stroke:#666666;stroke-width:1.0;stroke-dasharray:2.0,2.0;" x1="85.6211" x2="691.7383" y1="699.3887" y2="699.3887"/><text fill="#333333" font-family="sans-serif" font-size="13" lengthAdjust="spacing" textLength="108.7227" x="97.6211" y="694.6465">reorg completion</text><line style="stroke:#666666;stroke-width:1.0;" x1="80.6211" x2="122.6211" y1="728.6992" y2="728.6992"/><line style="stroke:#666666;stroke-width:1.0;" x1="122.6211" x2="122.6211" y1="728.6992" y2="741.6992"/><line style="stroke:#666666;stroke-width:1.0;" x1="81.6211" x2="122.6211" y1="741.6992" y2="741.6992"/><polygon fill="#666666" points="91.6211,737.6992,81.6211,741.6992,91.6211,745.6992,87.6211,741.6992" style="stroke:#666666;stroke-width:1.0;"/><text fill="#333333" font-family="sans-serif" font-size="13" lengthAdjust="spacing" textLength="359.7979" x="87.6211" y="723.957">Update internal state (bestBlockHeader, bestBlockHeight)</text><line style="stroke:#666666;stroke-width:1.0;" x1="80.6211" x2="122.6211" y1="771.0098" y2="771.0098"/><line style="stroke:#666666;stroke-width:1.0;" x1="122.6211" x2="122.6211" y1="771.0098" y2="784.0098"/><line style="stroke:#666666;stroke-width:1.0;" x1="81.6211" x2="122.6211" y1="784.0098" y2="784.0098"/><polygon fill="#666666" points="91.6211,780.0098,81.6211,784.0098,91.6211,788.0098,87.6211,784.0098" style="stroke:#666666;stroke-width:1.0;"/><text fill="#333333" font-family="sans-serif" font-size="13" lengthAdjust="spacing" textLength="78.2031" x="87.6211" y="766.2676">SetState(ctx)</text><line style="stroke:#666666;stroke-width:1.0;" x1="80.6211" x2="122.6211" y1="813.3203" y2="813.3203"/><line style="stroke:#666666;stroke-width:1.0;" x1="122.6211" x2="122.6211" y1="813.3203" y2="826.3203"/><line style="stroke:#666666;stroke-width:1.0;" x1="81.6211" x2="122.6211" y1="826.3203" y2="826.3203"/><polygon fill="#666666" points="91.6211,822.3203,81.6211,826.3203,91.6211,830.3203,87.6211,826.3203" style="stroke:#666666;stroke-width:1.0;"/><text fill="#333333" font-family="sans-serif" font-size="13" lengthAdjust="spacing" textLength="130.6221" x="87.6211" y="808.5781">setCurrentChain(ctx)</text><text fill="#333333" font-family="sans-serif" font-size="10" lengthAdjust="spacing" textLength="155.4346" x="0" y="916.4766">Last Modified On: 24-Feb-2025</text><!--SRC=[lLN1QXin4BthAmQNqbsmGw4bX1mAzYPk3ZK9jGEz5QqqZeLboKZQEA7qtplIRcnjOqDfeJgObURDcpSp6jclbTbonpTGSx5-SBOnihBQEdWpVJ-zc4wPtoCaBdcZmzIQq44-f9L1k7DsrndFqsBi7LpXKXc4sZg9piEIh5nhG8qRDC5d_hHLuHb-C819GlUvwFHtbLTfiPyiOn6aq5dzhpJq6vHGMsx2tr4nbbCC9jgAzTXxtDGQtG2uXydu24Iik3ALLbIC5bJrGVEc3Wxnpbc1tjkMQRwuOv87NdEFUyWyM8UjENrcYFl5jzk3URzZNGTQ9Mtu-7MTZXcRZ67qYHJ19Np6a4mto6DR2n6UXh1AcxCRxbT5EOH6cN3-iQZFDlmfWR-YTGyL3sBLRCkISH7K8myOSoJIKUGU4xV1NHMhC8JlGq3dcCGS-Y8ZGYkkHQEZOMCVSMhTZZkP2mDkPBB5JkK6nhIrMo0NkEPY1PaDb3b5Hoq7E5A6Dl_wWEoAK2Q7N7qYo99DFkcqdoKQ-GSINsNrV_MraUZs4J0rj-Y9yiDNTVHPs-EjFPRYg-JQj6AOVRIUFSkkpA7xYqqEL_JWK4nXbKap46qdYtpi1fmGaKCo7KC8hi6JQhhnxSlnhPvUYB4nzBe8J6-cRmVRGx0q965dtRgFzXWMJnKvXABiY5xww69xADvcItLGrkH3bHgHJTNzLiPZ6bzqXbFS4BT5ZJuVUihqSA0ULg7CEUOOvj4jrgHd88rLunmzDMd8MplJk0pqts0f8dpXFi3CIhLKAE7MNCBRgASOI3cQpMQZPrg3alq2]--></g></svg>
