<svg xmlns="http://www.w3.org/2000/svg" xmlns:xlink="http://www.w3.org/1999/xlink" contentStyleType="text/css" height="922px" preserveAspectRatio="none" style="width:1793px;height:922px;background:#F0F8FF;" version="1.1" viewBox="0 0 1793 922" width="1793px" zoomAndPan="magnify"><defs/><g><rect fill="#F0F8FF" height="922" style="stroke:none;stroke-width:1.0;" width="1793" x="0" y="0"/><rect fill="#FFFFFF" height="100.9316" style="stroke:#181818;stroke-width:1.0;" width="10" x="710.2295" y="218.752"/><rect fill="#FFFFFF" height="71.6211" style="stroke:#181818;stroke-width:1.0;" width="10" x="710.2295" y="499.9473"/><rect fill="#FFFFFF" height="100.9316" style="stroke:#181818;stroke-width:1.0;" width="10" x="710.2295" y="751.832"/><rect fill="none" height="46.6211" style="stroke:#000000;stroke-width:1.5;" width="562.3359" x="10" y="143.8203"/><rect fill="none" height="46.6211" style="stroke:#000000;stroke-width:1.5;" width="562.3359" x="10" y="425.0156"/><rect fill="none" height="46.6211" style="stroke:#000000;stroke-width:1.5;" width="562.3359" x="10" y="676.9004"/><line style="stroke:#181818;stroke-width:0.5;stroke-dasharray:5.0,5.0;" x1="51" x2="51" y1="36.4883" y2="870.7637"/><line style="stroke:#181818;stroke-width:0.5;stroke-dasharray:5.0,5.0;" x1="500.5303" x2="500.5303" y1="36.4883" y2="870.7637"/><line style="stroke:#181818;stroke-width:0.5;stroke-dasharray:5.0,5.0;" x1="714.8115" x2="714.8115" y1="36.4883" y2="870.7637"/><line style="stroke:#181818;stroke-width:0.5;stroke-dasharray:5.0,5.0;" x1="1021.1431" x2="1021.1431" y1="36.4883" y2="870.7637"/><line style="stroke:#181818;stroke-width:0.5;stroke-dasharray:5.0,5.0;" x1="1262.6348" x2="1262.6348" y1="36.4883" y2="870.7637"/><line style="stroke:#181818;stroke-width:0.5;stroke-dasharray:5.0,5.0;" x1="1581.5767" x2="1581.5767" y1="36.4883" y2="870.7637"/><line style="stroke:#181818;stroke-width:0.5;stroke-dasharray:5.0,5.0;" x1="1715.145" x2="1715.145" y1="36.4883" y2="870.7637"/><rect fill="#DDDDDD" height="30.4883" rx="2.5" ry="2.5" style="stroke:#666666;stroke-width:0.5;" width="62.8359" x="20" y="5"/><text fill="#333333" font-family="sans-serif" font-size="14" lengthAdjust="spacing" textLength="48.8359" x="27" y="25.5352">Node 1</text><rect fill="#DDDDDD" height="30.4883" rx="2.5" ry="2.5" style="stroke:#666666;stroke-width:0.5;" width="62.8359" x="20" y="869.7637"/><text fill="#333333" font-family="sans-serif" font-size="14" lengthAdjust="spacing" textLength="48.8359" x="27" y="890.2988">Node 1</text><path d="M444.5303,10 L557.3359,10 C562.3359,10 562.3359,23.2441 562.3359,23.2441 C562.3359,23.2441 562.3359,36.4883 557.3359,36.4883 L444.5303,36.4883 C439.5303,36.4883 439.5303,23.2441 439.5303,23.2441 C439.5303,23.2441 439.5303,10 444.5303,10 " fill="#E2E2F0" style="stroke:#181818;stroke-width:0.5;"/><path d="M557.3359,10 C552.3359,10 552.3359,23.2441 552.3359,23.2441 C552.3359,36.4883 557.3359,36.4883 557.3359,36.4883 " fill="none" style="stroke:#181818;stroke-width:0.5;"/><text fill="#333333" font-family="sans-serif" font-size="14" lengthAdjust="spacing" textLength="102.8057" x="444.5303" y="28.5352">PubSub System</text><path d="M444.5303,869.7637 L557.3359,869.7637 C562.3359,869.7637 562.3359,883.0078 562.3359,883.0078 C562.3359,883.0078 562.3359,896.252 557.3359,896.252 L444.5303,896.252 C439.5303,896.252 439.5303,883.0078 439.5303,883.0078 C439.5303,883.0078 439.5303,869.7637 444.5303,869.7637 " fill="#E2E2F0" style="stroke:#181818;stroke-width:0.5;"/><path d="M557.3359,869.7637 C552.3359,869.7637 552.3359,883.0078 552.3359,883.0078 C552.3359,896.252 557.3359,896.252 557.3359,896.252 " fill="none" style="stroke:#181818;stroke-width:0.5;"/><text fill="#333333" font-family="sans-serif" font-size="14" lengthAdjust="spacing" textLength="102.8057" x="444.5303" y="888.2988">PubSub System</text><rect fill="#DDDDDD" height="30.4883" rx="2.5" ry="2.5" style="stroke:#666666;stroke-width:0.5;" width="62.8359" x="683.8115" y="5"/><text fill="#333333" font-family="sans-serif" font-size="14" lengthAdjust="spacing" textLength="48.8359" x="690.8115" y="25.5352">Node 2</text><rect fill="#DDDDDD" height="30.4883" rx="2.5" ry="2.5" style="stroke:#666666;stroke-width:0.5;" width="62.8359" x="683.8115" y="869.7637"/><text fill="#333333" font-family="sans-serif" font-size="14" lengthAdjust="spacing" textLength="48.8359" x="690.8115" y="890.2988">Node 2</text><path d="M947.1431,10 L1095.7964,10 C1100.7964,10 1100.7964,23.2441 1100.7964,23.2441 C1100.7964,23.2441 1100.7964,36.4883 1095.7964,36.4883 L947.1431,36.4883 C942.1431,36.4883 942.1431,23.2441 942.1431,23.2441 C942.1431,23.2441 942.1431,10 947.1431,10 " fill="#E2E2F0" style="stroke:#181818;stroke-width:0.5;"/><path d="M1095.7964,10 C1090.7964,10 1090.7964,23.2441 1090.7964,23.2441 C1090.7964,36.4883 1095.7964,36.4883 1095.7964,36.4883 " fill="none" style="stroke:#181818;stroke-width:0.5;"/><text fill="#333333" font-family="sans-serif" font-size="14" lengthAdjust="spacing" textLength="138.6533" x="947.1431" y="28.5352">Notification Channel</text><path d="M947.1431,869.7637 L1095.7964,869.7637 C1100.7964,869.7637 1100.7964,883.0078 1100.7964,883.0078 C1100.7964,883.0078 1100.7964,896.252 1095.7964,896.252 L947.1431,896.252 C942.1431,896.252 942.1431,883.0078 942.1431,883.0078 C942.1431,883.0078 942.1431,869.7637 947.1431,869.7637 " fill="#E2E2F0" style="stroke:#181818;stroke-width:0.5;"/><path d="M1095.7964,869.7637 C1090.7964,869.7637 1090.7964,883.0078 1090.7964,883.0078 C1090.7964,896.252 1095.7964,896.252 1095.7964,896.252 " fill="none" style="stroke:#181818;stroke-width:0.5;"/><text fill="#333333" font-family="sans-serif" font-size="14" lengthAdjust="spacing" textLength="138.6533" x="947.1431" y="888.2988">Notification Channel</text><path d="M1239.6348,10 L1287.5674,10 C1292.5674,10 1292.5674,23.2441 1292.5674,23.2441 C1292.5674,23.2441 1292.5674,36.4883 1287.5674,36.4883 L1239.6348,36.4883 C1234.6348,36.4883 1234.6348,23.2441 1234.6348,23.2441 C1234.6348,23.2441 1234.6348,10 1239.6348,10 " fill="#E2E2F0" style="stroke:#181818;stroke-width:0.5;"/><path d="M1287.5674,10 C1282.5674,10 1282.5674,23.2441 1282.5674,23.2441 C1282.5674,36.4883 1287.5674,36.4883 1287.5674,36.4883 " fill="none" style="stroke:#181818;stroke-width:0.5;"/><text fill="#333333" font-family="sans-serif" font-size="14" lengthAdjust="spacing" textLength="37.9326" x="1239.6348" y="28.5352">Kafka</text><path d="M1239.6348,869.7637 L1287.5674,869.7637 C1292.5674,869.7637 1292.5674,883.0078 1292.5674,883.0078 C1292.5674,883.0078 1292.5674,896.252 1287.5674,896.252 L1239.6348,896.252 C1234.6348,896.252 1234.6348,883.0078 1234.6348,883.0078 C1234.6348,883.0078 1234.6348,869.7637 1239.6348,869.7637 " fill="#E2E2F0" style="stroke:#181818;stroke-width:0.5;"/><path d="M1287.5674,869.7637 C1282.5674,869.7637 1282.5674,883.0078 1282.5674,883.0078 C1282.5674,896.252 1287.5674,896.252 1287.5674,896.252 " fill="none" style="stroke:#181818;stroke-width:0.5;"/><text fill="#333333" font-family="sans-serif" font-size="14" lengthAdjust="spacing" textLength="37.9326" x="1239.6348" y="888.2988">Kafka</text><rect fill="#DDDDDD" height="30.4883" rx="2.5" ry="2.5" style="stroke:#666666;stroke-width:0.5;" width="115.5684" x="1524.5767" y="5"/><text fill="#333333" font-family="sans-serif" font-size="14" lengthAdjust="spacing" textLength="101.5684" x="1531.5767" y="25.5352">Block Validator</text><rect fill="#DDDDDD" height="30.4883" rx="2.5" ry="2.5" style="stroke:#666666;stroke-width:0.5;" width="115.5684" x="1524.5767" y="869.7637"/><text fill="#333333" font-family="sans-serif" font-size="14" lengthAdjust="spacing" textLength="101.5684" x="1531.5767" y="890.2988">Block Validator</text><rect fill="#DDDDDD" height="30.4883" rx="2.5" ry="2.5" style="stroke:#666666;stroke-width:0.5;" width="131.1201" x="1650.145" y="5"/><text fill="#333333" font-family="sans-serif" font-size="14" lengthAdjust="spacing" textLength="117.1201" x="1657.145" y="25.5352">Subtree Validator</text><rect fill="#DDDDDD" height="30.4883" rx="2.5" ry="2.5" style="stroke:#666666;stroke-width:0.5;" width="131.1201" x="1650.145" y="869.7637"/><text fill="#333333" font-family="sans-serif" font-size="14" lengthAdjust="spacing" textLength="117.1201" x="1657.145" y="890.2988">Subtree Validator</text><rect fill="#FFFFFF" height="100.9316" style="stroke:#181818;stroke-width:1.0;" width="10" x="710.2295" y="218.752"/><rect fill="#FFFFFF" height="71.6211" style="stroke:#181818;stroke-width:1.0;" width="10" x="710.2295" y="499.9473"/><rect fill="#FFFFFF" height="100.9316" style="stroke:#181818;stroke-width:1.0;" width="10" x="710.2295" y="751.832"/><rect fill="#EEEEEE" height="3" style="stroke:#EEEEEE;stroke-width:1.0;" width="1786.2651" x="0" y="69.499"/><line style="stroke:#000000;stroke-width:1.0;" x1="0" x2="1786.2651" y1="69.499" y2="69.499"/><line style="stroke:#000000;stroke-width:1.0;" x1="0" x2="1786.2651" y1="72.499" y2="72.499"/><rect fill="#EEEEEE" height="28.0215" style="stroke:#000000;stroke-width:2.0;" width="231.3228" x="777.4712" y="56.4883"/><text fill="#333333" font-family="sans-serif" font-size="17" font-weight="bold" lengthAdjust="spacing" textLength="217.3228" x="783.4712" y="76.9238">New Block Notification =</text><line style="stroke:#666666;stroke-width:1.0;" x1="51.418" x2="93.418" y1="115.8203" y2="115.8203"/><line style="stroke:#666666;stroke-width:1.0;" x1="93.418" x2="93.418" y1="115.8203" y2="128.8203"/><line style="stroke:#666666;stroke-width:1.0;" x1="52.418" x2="93.418" y1="128.8203" y2="128.8203"/><polygon fill="#666666" points="62.418,124.8203,52.418,128.8203,62.418,132.8203,58.418,128.8203" style="stroke:#666666;stroke-width:1.0;"/><text fill="#333333" font-family="sans-serif" font-size="13" lengthAdjust="spacing" textLength="224.3833" x="58.418" y="111.0781">blockchainSubscriptionListener(ctx)</text><path d="M10,143.8203 L72.1387,143.8203 L72.1387,151.1309 L62.1387,161.1309 L10,161.1309 L10,143.8203 " fill="#EEEEEE" style="stroke:#000000;stroke-width:1.5;"/><rect fill="none" height="46.6211" style="stroke:#000000;stroke-width:1.5;" width="562.3359" x="10" y="143.8203"/><text fill="#333333" font-family="sans-serif" font-size="13" font-weight="bold" lengthAdjust="spacing" textLength="17.1387" x="25" y="157.3887">alt</text><text fill="#333333" font-family="sans-serif" font-size="11" font-weight="bold" lengthAdjust="spacing" textLength="295.9473" x="87.1387" y="156.4551">[notification.Type == model.NotificationType_Block]</text><polygon fill="#666666" points="488.9331,178.4414,498.9331,182.4414,488.9331,186.4414,492.9331,182.4414" style="stroke:#666666;stroke-width:1.0;"/><line style="stroke:#666666;stroke-width:1.0;" x1="51.418" x2="494.9331" y1="182.4414" y2="182.4414"/><text fill="#333333" font-family="sans-serif" font-size="13" lengthAdjust="spacing" textLength="369.7573" x="58.418" y="177.6992">s.topics[blockTopicName].Publish(ctx, blockMessageBytes)</text><polygon fill="#666666" points="698.2295,214.752,708.2295,218.752,698.2295,222.752,702.2295,218.752" style="stroke:#666666;stroke-width:1.0;"/><line style="stroke:#666666;stroke-width:1.0;" x1="500.9331" x2="704.2295" y1="218.752" y2="218.752"/><text fill="#333333" font-family="sans-serif" font-size="13" lengthAdjust="spacing" textLength="162.4175" x="507.9331" y="214.0098">s.topics[blockTopicName]</text><line style="stroke:#666666;stroke-width:1.0;" x1="720.2295" x2="762.2295" y1="248.0625" y2="248.0625"/><line style="stroke:#666666;stroke-width:1.0;" x1="762.2295" x2="762.2295" y1="248.0625" y2="261.0625"/><line style="stroke:#666666;stroke-width:1.0;" x1="721.2295" x2="762.2295" y1="261.0625" y2="261.0625"/><polygon fill="#666666" points="731.2295,257.0625,721.2295,261.0625,731.2295,265.0625,727.2295,261.0625" style="stroke:#666666;stroke-width:1.0;"/><text fill="#333333" font-family="sans-serif" font-size="13" lengthAdjust="spacing" textLength="138.728" x="727.2295" y="243.3203">handleBlockTopic(ctx)</text><polygon fill="#666666" points="1251.6011,286.373,1261.6011,290.373,1251.6011,294.373,1255.6011,290.373" style="stroke:#666666;stroke-width:1.0;"/><line style="stroke:#666666;stroke-width:1.0;stroke-dasharray:2.0,2.0;" x1="720.2295" x2="1257.6011" y1="290.373" y2="290.373"/><text fill="#333333" font-family="sans-serif" font-size="13" lengthAdjust="spacing" textLength="483.3994" x="727.2295" y="285.6309">Send block over kafka_blocksConfig topic  (hash, blockMessage.DataHubUrl)</text><polygon fill="#666666" points="1570.3608,315.6836,1580.3608,319.6836,1570.3608,323.6836,1574.3608,319.6836" style="stroke:#666666;stroke-width:1.0;"/><line style="stroke:#666666;stroke-width:1.0;" x1="1263.6011" x2="1576.3608" y1="319.6836" y2="319.6836"/><text fill="#333333" font-family="sans-serif" font-size="13" lengthAdjust="spacing" textLength="294.7598" x="1270.6011" y="314.9414">Consume block from kafka_blocksConfig topic</text><rect fill="#EEEEEE" height="3" style="stroke:#EEEEEE;stroke-width:1.0;" width="1786.2651" x="0" y="350.6943"/><line style="stroke:#000000;stroke-width:1.0;" x1="0" x2="1786.2651" y1="350.6943" y2="350.6943"/><line style="stroke:#000000;stroke-width:1.0;" x1="0" x2="1786.2651" y1="353.6943" y2="353.6943"/><rect fill="#EEEEEE" height="28.0215" style="stroke:#000000;stroke-width:2.0;" width="290.2749" x="747.9951" y="337.6836"/><text fill="#333333" font-family="sans-serif" font-size="17" font-weight="bold" lengthAdjust="spacing" textLength="276.2749" x="753.9951" y="358.1191">New Mined Block Notification =</text><line style="stroke:#666666;stroke-width:1.0;" x1="51.418" x2="93.418" y1="397.0156" y2="397.0156"/><line style="stroke:#666666;stroke-width:1.0;" x1="93.418" x2="93.418" y1="397.0156" y2="410.0156"/><line style="stroke:#666666;stroke-width:1.0;" x1="52.418" x2="93.418" y1="410.0156" y2="410.0156"/><polygon fill="#666666" points="62.418,406.0156,52.418,410.0156,62.418,414.0156,58.418,410.0156" style="stroke:#666666;stroke-width:1.0;"/><text fill="#333333" font-family="sans-serif" font-size="13" lengthAdjust="spacing" textLength="224.3833" x="58.418" y="392.2734">blockchainSubscriptionListener(ctx)</text><path d="M10,425.0156 L72.1387,425.0156 L72.1387,432.3262 L62.1387,442.3262 L10,442.3262 L10,425.0156 " fill="#EEEEEE" style="stroke:#000000;stroke-width:1.5;"/><rect fill="none" height="46.6211" style="stroke:#000000;stroke-width:1.5;" width="562.3359" x="10" y="425.0156"/><text fill="#333333" font-family="sans-serif" font-size="13" font-weight="bold" lengthAdjust="spacing" textLength="17.1387" x="25" y="438.584">alt</text><text fill="#333333" font-family="sans-serif" font-size="11" font-weight="bold" lengthAdjust="spacing" textLength="320.7241" x="87.1387" y="437.6504">[notification.Type == model.NotificationType_MiningOn]</text><polygon fill="#666666" points="488.9331,459.6367,498.9331,463.6367,488.9331,467.6367,492.9331,463.6367" style="stroke:#666666;stroke-width:1.0;"/><line style="stroke:#666666;stroke-width:1.0;" x1="51.418" x2="494.9331" y1="463.6367" y2="463.6367"/><text fill="#333333" font-family="sans-serif" font-size="13" lengthAdjust="spacing" textLength="425.5151" x="58.418" y="458.8945">s.topics[miningOnTopicName].Publish(ctx, miningOnMessageBytes)</text><polygon fill="#666666" points="698.2295,495.9473,708.2295,499.9473,698.2295,503.9473,702.2295,499.9473" style="stroke:#666666;stroke-width:1.0;"/><line style="stroke:#666666;stroke-width:1.0;" x1="500.9331" x2="704.2295" y1="499.9473" y2="499.9473"/><text fill="#333333" font-family="sans-serif" font-size="13" lengthAdjust="spacing" textLength="190.2964" x="507.9331" y="495.2051">s.topics[miningOnTopicName]</text><line style="stroke:#666666;stroke-width:1.0;" x1="720.2295" x2="762.2295" y1="529.2578" y2="529.2578"/><line style="stroke:#666666;stroke-width:1.0;" x1="762.2295" x2="762.2295" y1="529.2578" y2="542.2578"/><line style="stroke:#666666;stroke-width:1.0;" x1="721.2295" x2="762.2295" y1="542.2578" y2="542.2578"/><polygon fill="#666666" points="731.2295,538.2578,721.2295,542.2578,731.2295,546.2578,727.2295,542.2578" style="stroke:#666666;stroke-width:1.0;"/><text fill="#333333" font-family="sans-serif" font-size="13" lengthAdjust="spacing" textLength="166.3721" x="727.2295" y="524.5156">handleMiningOnTopic(ctx)</text><polygon fill="#666666" points="1009.4697,567.5684,1019.4697,571.5684,1009.4697,575.5684,1013.4697,571.5684" style="stroke:#666666;stroke-width:1.0;"/><line style="stroke:#666666;stroke-width:1.0;" x1="715.2295" x2="1015.4697" y1="571.5684" y2="571.5684"/><text fill="#333333" font-family="sans-serif" font-size="13" lengthAdjust="spacing" textLength="277.2402" x="722.2295" y="566.8262">notify miningOnMessage to s.notificationCh</text><rect fill="#EEEEEE" height="3" style="stroke:#EEEEEE;stroke-width:1.0;" width="1786.2651" x="0" y="602.5791"/><line style="stroke:#000000;stroke-width:1.0;" x1="0" x2="1786.2651" y1="602.5791" y2="602.5791"/><line style="stroke:#000000;stroke-width:1.0;" x1="0" x2="1786.2651" y1="605.5791" y2="605.5791"/><rect fill="#EEEEEE" height="28.0215" style="stroke:#000000;stroke-width:2.0;" width="251.1035" x="767.5808" y="589.5684"/><text fill="#333333" font-family="sans-serif" font-size="17" font-weight="bold" lengthAdjust="spacing" textLength="237.1035" x="773.5808" y="610.0039">New Subtree Notification =</text><line style="stroke:#666666;stroke-width:1.0;" x1="51.418" x2="93.418" y1="648.9004" y2="648.9004"/><line style="stroke:#666666;stroke-width:1.0;" x1="93.418" x2="93.418" y1="648.9004" y2="661.9004"/><line style="stroke:#666666;stroke-width:1.0;" x1="52.418" x2="93.418" y1="661.9004" y2="661.9004"/><polygon fill="#666666" points="62.418,657.9004,52.418,661.9004,62.418,665.9004,58.418,661.9004" style="stroke:#666666;stroke-width:1.0;"/><text fill="#333333" font-family="sans-serif" font-size="13" lengthAdjust="spacing" textLength="224.3833" x="58.418" y="644.1582">blockchainSubscriptionListener(ctx)</text><path d="M10,676.9004 L72.1387,676.9004 L72.1387,684.2109 L62.1387,694.2109 L10,694.2109 L10,676.9004 " fill="#EEEEEE" style="stroke:#000000;stroke-width:1.5;"/><rect fill="none" height="46.6211" style="stroke:#000000;stroke-width:1.5;" width="562.3359" x="10" y="676.9004"/><text fill="#333333" font-family="sans-serif" font-size="13" font-weight="bold" lengthAdjust="spacing" textLength="17.1387" x="25" y="690.4688">alt</text><text fill="#333333" font-family="sans-serif" font-size="11" font-weight="bold" lengthAdjust="spacing" textLength="308.7466" x="87.1387" y="689.5352">[notification.Type == model.NotificationType_Subtree]</text><polygon fill="#666666" points="488.9331,711.5215,498.9331,715.5215,488.9331,719.5215,492.9331,715.5215" style="stroke:#666666;stroke-width:1.0;"/><line style="stroke:#666666;stroke-width:1.0;" x1="51.418" x2="494.9331" y1="715.5215" y2="715.5215"/><text fill="#333333" font-family="sans-serif" font-size="13" lengthAdjust="spacing" textLength="396.481" x="58.418" y="710.7793">s.topics[subtreeTopicName].Publish(ctx, subtreeMessageBytes)</text><polygon fill="#666666" points="698.2295,747.832,708.2295,751.832,698.2295,755.832,702.2295,751.832" style="stroke:#666666;stroke-width:1.0;"/><line style="stroke:#666666;stroke-width:1.0;" x1="500.9331" x2="704.2295" y1="751.832" y2="751.832"/><text fill="#333333" font-family="sans-serif" font-size="13" lengthAdjust="spacing" textLength="175.7793" x="507.9331" y="747.0898">s.topics[subtreeTopicName]</text><line style="stroke:#666666;stroke-width:1.0;" x1="720.2295" x2="762.2295" y1="781.1426" y2="781.1426"/><line style="stroke:#666666;stroke-width:1.0;" x1="762.2295" x2="762.2295" y1="781.1426" y2="794.1426"/><line style="stroke:#666666;stroke-width:1.0;" x1="721.2295" x2="762.2295" y1="794.1426" y2="794.1426"/><polygon fill="#666666" points="731.2295,790.1426,721.2295,794.1426,731.2295,798.1426,727.2295,794.1426" style="stroke:#666666;stroke-width:1.0;"/><text fill="#333333" font-family="sans-serif" font-size="13" lengthAdjust="spacing" textLength="153.1689" x="727.2295" y="776.4004">handleSubtreeTopic(ctx)</text><polygon fill="#666666" points="1251.6011,819.4531,1261.6011,823.4531,1251.6011,827.4531,1255.6011,823.4531" style="stroke:#666666;stroke-width:1.0;"/><line style="stroke:#666666;stroke-width:1.0;" x1="720.2295" x2="1257.6011" y1="823.4531" y2="823.4531"/><text fill="#333333" font-family="sans-serif" font-size="13" lengthAdjust="spacing" textLength="519.3716" x="727.2295" y="818.7109">Send subtree over kafka_subtreesConfig topic (hash, subtreeMessage.DataHubUrl)</text><polygon fill="#666666" points="1009.4697,848.7637,1019.4697,852.7637,1009.4697,856.7637,1013.4697,852.7637" style="stroke:#666666;stroke-width:1.0;"/><line style="stroke:#666666;stroke-width:1.0;" x1="715.2295" x2="1015.4697" y1="852.7637" y2="852.7637"/><text fill="#333333" font-family="sans-serif" font-size="13" lengthAdjust="spacing" textLength="262.7231" x="722.2295" y="848.0215">notify subtreeMessage to s.notificationCh</text><text fill="#333333" font-family="sans-serif" font-size="10" lengthAdjust="spacing" textLength="157.5488" x="0" y="911.9199">Last Modified On: 04-Aug-2025</text><!--SRC=[nLNVQzim47xNNt5aZ3MmX3M3CGpfGnB2O7KwIBUNCOfidnCHMSeakLqO_TztbfLWvyUQRW_LWt7klk-xapwTOrT2hRdX1IGyNIsCBbKsrb8RU3LzD_qudJAxGsIOyrAwgLOkGDxxrO1mO_H3I7xmYx4tCC5SA8H4cmoDXPooN4f0YGKgPnjy-YdS1dupW957jxKekj_bn2_so1egANLejFnV6NewaOerL-xVf6WrDJepdI5STe1Rg5ulsSyIIuJEbpAPbmdCDzPXuTDrv0Xxi6CFjkoPTY8NANT2AnWlkL8eFKer4Y6-vNpc-Ofxa7zh5nf9dQxW6vSYuquR3_En4Ahaf22hsZHgs1d4FMA87b3PS3Y46JxKoj3Q1AMOFo3eNTKd5K5ImT8b5ueKRMh4ke9U2peoXUOYTR-wZ4lNsdJ_ThD6KeE2D6I_MQFAtFdIP270hbfzy17OljDhaThllkvjzJxZ1Vxe4q0AkwmAlgsRYj5Qli3Hng7jCbGPOy7GqFtWj1pZgHFtt66mr3yRF78japZQaUfz1XJ1l7iHpAbgtGpeUpImgi9tFc37MkLY0Ru-mCMIssMxyVw4E_wfJBuQsMLUi6hWgE4Ha9ej2mp5SgEBayLOXdkxstaUq-SWUqddgG6X5ZVg2VEB03lb_pR_h2jmA7hUBOYRlDP5k3eswb4TtEmtIUPGBst2NwpQJlMBs1IAF-6IhL6dJ0hfPtbq87cUHVC6RS-XvgG6zUQiXb1xMiEmjZVG6jUpBa2RVwR_4dD7_zJQKOlNt3g8TKOC6jiR5S5h-YhWHIVBUd4SzpQqEbts1m00]--></g></svg>
