<svg contentStyleType="text/css" height="948" preserveAspectRatio="none" viewBox="0 0 1021 948" width="1021" xmlns="http://www.w3.org/2000/svg" zoomAndPan="magnify"><path d="m0 0h1021v948h-1021z" fill="#f0f8ff"/><ellipse cx="494.845" cy="20" fill="#222" rx="10" ry="10" stroke="#222"/><rect fill="#f1f1f1" height="34.1328" rx="12.5" stroke="#181818" stroke-width=".5" width="175.9238" x="406.8831" y="50"/><text fill="#333" font-family="sans-serif" font-size="12" lengthAdjust="spacing" textLength="155.9238" x="416.8831" y="71.6016">Create clientChannels map</text><rect fill="#f1f1f1" height="34.1328" rx="12.5" stroke="#181818" stroke-width=".5" width="183.5527" x="403.0686" y="104.1328"/><text fill="#333" font-family="sans-serif" font-size="12" lengthAdjust="spacing" textLength="163.5527" x="413.0686" y="125.7344">Create newClientCh channel</text><rect fill="#f1f1f1" height="34.1328" rx="12.5" stroke="#181818" stroke-width=".5" width="188.5918" x="400.5491" y="158.2656"/><text fill="#333" font-family="sans-serif" font-size="12" lengthAdjust="spacing" textLength="168.5918" x="410.5491" y="179.8672">Create deadClientCh channel</text><rect fill="#f1f1f1" height="34.1328" rx="12.5" stroke="#181818" stroke-width=".5" width="110.5801" x="439.5549" y="212.3984"/><text fill="#333" font-family="sans-serif" font-size="12" lengthAdjust="spacing" textLength="90.5801" x="449.5549" y="234">Start pingTimer</text><rect fill="#555" height="6" rx="2.5" stroke="#555" width="985.6899" x="11" y="266.5313"/><rect fill="#f1f1f1" height="34.1328" rx="12.5" stroke="#181818" stroke-width=".5" width="116.5273" x="424.5813" y="292.5313"/><text fill="#333" font-family="sans-serif" font-size="12" lengthAdjust="spacing" textLength="96.5273" x="434.5813" y="314.1328">Listen for events</text><rect fill="#555" height="6" rx="2.5" stroke="#555" width="935.6899" x="23" y="390.6641"/><rect fill="#f1f1f1" height="34.1328" rx="12.5" stroke="#181818" stroke-width=".5" width="135.9453" x="35" y="491.1855"/><text fill="#333" font-family="sans-serif" font-size="12" lengthAdjust="spacing" textLength="115.9453" x="45" y="512.7871">New client connects</text><rect fill="#f1f1f1" height="34.1328" rx="12.5" stroke="#181818" stroke-width=".5" width="126.6465" x="266.9282" y="491.1855"/><text fill="#333" font-family="sans-serif" font-size="12" lengthAdjust="spacing" textLength="106.6465" x="276.9282" y="512.7871">Client disconnects</text><rect fill="#f1f1f1" height="34.1328" rx="12.5" stroke="#181818" stroke-width=".5" width="110.6152" x="575.4177" y="416.6641"/><text fill="#333" font-family="sans-serif" font-size="12" lengthAdjust="spacing" textLength="90.6152" x="585.4177" y="438.2656">Ping timer ticks</text><rect fill="#f1f1f1" height="34.1328" rx="12.5" stroke="#181818" stroke-width=".5" width="149.9961" x="555.7273" y="519.2744"/><text fill="#333" font-family="sans-serif" font-size="12" lengthAdjust="spacing" textLength="129.9961" x="565.7273" y="540.876">Marshal ping message</text><path d="m555.4038 470.7969h150.6431l12 12-12 12h-150.6431l-12-12z" fill="#f1f1f1" stroke="#181818" stroke-width=".5"/><text fill="#333" font-family="sans-serif" font-size="11" lengthAdjust="spacing" textLength="17.4829" x="634.7253" y="505.4316">yes</text><text fill="#333" font-family="sans-serif" font-size="11" lengthAdjust="spacing" textLength="150.6431" x="555.4038" y="486.9541">Are there connected clients?</text><text fill="#333" font-family="sans-serif" font-size="11" lengthAdjust="spacing" textLength="13.5835" x="718.0469" y="480.4766">no</text><path d="m630.7253 577.1826 12 12-12 12-12-12z" fill="#f1f1f1" stroke="#181818" stroke-width=".5"/><text fill="#333" font-family="sans-serif" font-size="11" lengthAdjust="spacing" textLength="121.4888" x="636.7253" y="574.8623">Send ping to all clients</text><rect fill="#f1f1f1" height="34.1328" rx="12.5" stroke="#181818" stroke-width=".5" width="139.7656" x="775.4856" y="416.6641"/><text fill="#333" font-family="sans-serif" font-size="12" lengthAdjust="spacing" textLength="119.7656" x="785.4856" y="438.2656">Notification received</text><rect fill="#f1f1f1" height="34.1328" rx="12.5" stroke="#181818" stroke-width=".5" width="135.5352" x="777.6008" y="519.2744"/><text fill="#333" font-family="sans-serif" font-size="12" lengthAdjust="spacing" textLength="115.5352" x="787.6008" y="540.876">Marshal notification</text><path d="m770.0469 470.7969h150.643l12 12-12 12h-150.643l-12-12z" fill="#f1f1f1" stroke="#181818" stroke-width=".5"/><text fill="#333" font-family="sans-serif" font-size="11" lengthAdjust="spacing" textLength="17.4829" x="849.3684" y="505.4316">yes</text><text fill="#333" font-family="sans-serif" font-size="11" lengthAdjust="spacing" textLength="150.6431" x="770.0469" y="486.9541">Are there connected clients?</text><text fill="#333" font-family="sans-serif" font-size="11" lengthAdjust="spacing" textLength="13.5835" x="932.6899" y="480.4766">no</text><path d="m845.3684 577.1826 12 12-12 12-12-12z" fill="#f1f1f1" stroke="#181818" stroke-width=".5"/><text fill="#333" font-family="sans-serif" font-size="11" lengthAdjust="spacing" textLength="158.3882" x="851.3684" y="574.8623">Send notification to all clients</text><rect fill="#555" height="6" rx="2.5" stroke="#555" width="935.6899" x="23" y="621.1826"/><path d="m482.845 346.6641 12 12-12 12-12-12z" fill="#f1f1f1" stroke="#181818" stroke-width=".5"/><path d="m437.6096 647.1826h90.4707l12 12-12 12h-90.4707l-12-12z" fill="#f1f1f1" stroke="#181818" stroke-width=".5"/><text fill="#333" font-family="sans-serif" font-size="11" lengthAdjust="spacing" textLength="90.4707" x="437.6096" y="663.3398">Server is running</text><rect fill="#555" height="6" rx="2.5" stroke="#555" width="985.6899" x="11" y="691.1826"/><rect fill="#f1f1f1" height="34.1328" rx="12.5" stroke="#181818" stroke-width=".5" width="174.752" x="407.469" y="717.1826"/><text fill="#333" font-family="sans-serif" font-size="12" lengthAdjust="spacing" textLength="154.752" x="417.469" y="738.7842">Handle WebSocket request</text><rect fill="#f1f1f1" height="34.1328" rx="12.5" stroke="#181818" stroke-width=".5" width="172.6836" x="408.5032" y="792.5908"/><text fill="#333" font-family="sans-serif" font-size="12" lengthAdjust="spacing" textLength="152.6836" x="418.5032" y="814.1924">Send data over WebSocket</text><path d="m445.4846 846.7236h98.7207l12 12-12 12h-98.7207l-12-12z" fill="#f1f1f1" stroke="#181818" stroke-width=".5"/><text fill="#333" font-family="sans-serif" font-size="11" lengthAdjust="spacing" textLength="13.5835" x="498.845" y="881.3584">no</text><text fill="#333" font-family="sans-serif" font-size="11" lengthAdjust="spacing" textLength="98.7207" x="445.4846" y="862.8809">Error sending data</text><text fill="#333" font-family="sans-serif" font-size="11" lengthAdjust="spacing" textLength="155.7725" x="556.2053" y="856.4033">Add channel to deadClientCh</text><ellipse cx="733.9778" cy="858.7236" fill="none" rx="11" ry="11" stroke="#222"/><ellipse cx="733.9778" cy="858.7236" fill="#222" rx="6" ry="6" stroke="#222"/><ellipse cx="494.845" cy="913.8584" fill="none" rx="11" ry="11" stroke="#222"/><ellipse cx="494.845" cy="913.8584" fill="#222" rx="6" ry="6" stroke="#222"/><g stroke="#666"><path d="m494.845 30v20"/><path d="m490.845 40 4 10 4-10-4 4z" fill="#666"/><path d="m494.845 84.1328v20"/><path d="m490.845 94.1328 4 10 4-10-4 4z" fill="#666"/><path d="m494.845 138.2656v20"/><path d="m490.845 148.2656 4 10 4-10-4 4z" fill="#666"/><path d="m494.845 192.3984v20"/><path d="m490.845 202.3984 4 10 4-10-4 4z" fill="#666"/><path d="m630.7253 494.7969v24.4775"/><path d="m626.7253 509.2744 4 10 4-10-4 4z" fill="#666"/><path d="m718.0469 482.7969h12"/><path d="m726.0469 532.8184 4 10 4-10-4 4z" fill="#666"/><path d="m730.0469 482.7969v106.3857"/><path d="m730.0469 589.1826h-87.3216"/><path d="m652.7253 585.1826-10 4 10 4-4-4z" fill="#666"/><path d="m630.7253 553.4072v23.7754"/><path d="m626.7253 567.1826 4 10 4-10-4 4z" fill="#666"/><path d="m630.7253 450.7969v20"/><path d="m626.7253 460.7969 4 10 4-10-4 4z" fill="#666"/><path d="m845.3684 494.7969v24.4775"/><path d="m841.3684 509.2744 4 10 4-10-4 4z" fill="#666"/><path d="m932.6899 482.7969h12"/><path d="m940.6899 532.8184 4 10 4-10-4 4z" fill="#666"/><path d="m944.6899 482.7969v106.3857"/><path d="m944.6899 589.1826h-87.3215"/><path d="m867.3684 585.1826-10 4 10 4-4-4z" fill="#666"/><path d="m845.3684 553.4072v23.7754"/><path d="m841.3684 567.1826 4 10 4-10-4 4z" fill="#666"/><path d="m845.3684 450.7969v20"/><path d="m841.3684 460.7969 4 10 4-10-4 4z" fill="#666"/><path d="m102.9727 396.6641v94.5214"/><path d="m98.9727 481.1855 4 10 4-10-4 4z" fill="#666"/><path d="m330.2515 396.6641v94.5214"/><path d="m326.2515 481.1855 4 10 4-10-4 4z" fill="#666"/><path d="m630.7253 396.6641v20"/><path d="m626.7253 406.6641 4 10 4-10-4 4z" fill="#666"/><path d="m845.3684 396.6641v20"/><path d="m841.3684 406.6641 4 10 4-10-4 4z" fill="#666"/><path d="m102.9727 525.3184v95.8642"/><path d="m98.9727 611.1826 4 10 4-10-4 4z" fill="#666"/></g><text fill="#333" font-family="sans-serif" font-size="11" lengthAdjust="spacing" textLength="149.9556" x="106.9727" y="577.0566">Add client to clientChannels</text><path d="m330.2515 525.3184v95.8642" stroke="#666"/><path d="m326.2515 611.1826 4 10 4-10-4 4z" fill="#666" stroke="#666"/><text fill="#333" font-family="sans-serif" font-size="11" lengthAdjust="spacing" textLength="185.1523" x="334.2515" y="577.0566">Remove client from clientChannels</text><path d="m630.7253 601.1826v20" stroke="#666"/><path d="m626.7253 611.1826 4 10 4-10-4 4z" fill="#666" stroke="#666"/><path d="m845.3684 601.1826v20" stroke="#666"/><path d="m841.3684 611.1826 4 10 4-10-4 4z" fill="#666" stroke="#666"/><path d="m482.845 370.6641v20" stroke="#666"/><path d="m478.845 380.6641 4 10 4-10-4 4z" fill="#666" stroke="#666"/><path d="m540.0803 659.1826h430.6096" stroke="#666"/><path d="m966.6899 524.7295 4-10 4 10-4-4z" fill="#666" stroke="#666"/><path d="m970.6899 358.6641v300.5185" stroke="#666"/><path d="m970.6899 358.6641h-475.8449" stroke="#666"/><path d="m504.845 354.6641-10 4 10 4-4-4z" fill="#666" stroke="#666"/><path d="m482.845 627.1826v20" stroke="#666"/><path d="m478.845 637.1826 4 10 4-10-4 4z" fill="#666" stroke="#666"/><path d="m482.845 326.6641v20" stroke="#666"/><path d="m478.845 336.6641 4 10 4-10-4 4z" fill="#666" stroke="#666"/><path d="m482.845 272.5313v20" stroke="#666"/><path d="m478.845 282.5313 4 10 4-10-4 4z" fill="#666" stroke="#666"/><path d="m482.845 671.1826v20" stroke="#666"/><path d="m478.845 681.1826 4 10 4-10-4 4z" fill="#666" stroke="#666"/><path d="m494.845 246.5313v20" stroke="#666"/><path d="m490.845 256.5313 4 10 4-10-4 4z" fill="#666" stroke="#666"/><path d="m494.845 697.1826v20" stroke="#666"/><path d="m490.845 707.1826 4 10 4-10-4 4z" fill="#666" stroke="#666"/><path d="m494.845 751.3154v41.2754" stroke="#666"/><path d="m490.845 782.5908 4 10 4-10-4 4z" fill="#666" stroke="#666"/><text fill="#333" font-family="sans-serif" font-size="11" lengthAdjust="spacing" textLength="151.8677" x="498.845" y="772.7705">Upgrade HTTP to WebSocket</text><path d="m494.845 870.7236v32.1348" stroke="#666"/><path d="m490.845 892.8584 4 10 4-10-4 4z" fill="#666" stroke="#666"/><path d="m556.2053 858.7236h166.7725" stroke="#666"/><path d="m712.9778 854.7236 10 4-10 4 4-4z" fill="#666" stroke="#666"/><path d="m494.845 826.7236v20" stroke="#666"/><path d="m490.845 836.7236 4 10 4-10-4 4z" fill="#666" stroke="#666"/><text fill="#333" font-family="sans-serif" font-size="10" lengthAdjust="spacing" textLength="155.4346" x="10" y="933.5264">Last Modified On: 24-Feb-2025</text></svg>
