<svg xmlns="http://www.w3.org/2000/svg" xmlns:xlink="http://www.w3.org/1999/xlink" contentStyleType="text/css" height="1738px" preserveAspectRatio="none" style="width:2215px;height:1738px;background:#F0F8FF;" version="1.1" viewBox="0 0 2215 1738" width="2215px" zoomAndPan="magnify"><title>P2P Private Key Persistence</title><defs/><g><rect fill="#F0F8FF" height="1738" style="stroke:none;stroke-width:1.0;" width="2215" x="0" y="0"/><text fill="#333333" font-family="sans-serif" font-size="14" font-weight="bold" lengthAdjust="spacing" textLength="198.7344" x="1004.2075" y="28.5352">P2P Private Key Persistence</text><rect fill="#ADD8E6" height="1674.2168" style="stroke:#181818;stroke-width:0.5;" width="442.3271" x="903.3896" y="43.4883"/><text fill="#333333" font-family="sans-serif" font-size="13" font-weight="bold" lengthAdjust="spacing" textLength="114.5562" x="1067.2751" y="56.0566">Key Management</text><rect fill="#FFFFFF" height="1435.6191" style="stroke:#181818;stroke-width:1.0;" width="10" x="350.2148" y="193.5977"/><rect fill="#FFFFFF" height="637.2109" style="stroke:#181818;stroke-width:1.0;" width="10" x="355.2148" y="992.0059"/><rect fill="#FFFFFF" height="377.0371" style="stroke:#181818;stroke-width:1.0;" width="10" x="360.2148" y="1236.1797"/><rect fill="#FFFFFF" height="1406.3086" style="stroke:#181818;stroke-width:1.0;" width="10" x="550.8125" y="222.9082"/><rect fill="#FFFFFF" height="607.9004" style="stroke:#181818;stroke-width:1.0;" width="10" x="555.8125" y="1021.3164"/><rect fill="#FFFFFF" height="347.7266" style="stroke:#181818;stroke-width:1.0;" width="10" x="560.8125" y="1265.4902"/><rect fill="#FFFFFF" height="617.5449" style="stroke:#181818;stroke-width:1.0;" width="10" x="963.8687" y="309.8398"/><rect fill="#FFFFFF" height="210.1738" style="stroke:#181818;stroke-width:1.0;" width="10" x="963.8687" y="1352.4219"/><rect fill="#FFFFFF" height="231.1738" style="stroke:#181818;stroke-width:1.0;" width="10" x="1260.5166" y="638.9004"/><rect fill="#FFFFFF" height="87.9316" style="stroke:#181818;stroke-width:1.0;" width="10" x="1647.5063" y="339.1504"/><rect fill="#FFFFFF" height="87.9316" style="stroke:#181818;stroke-width:1.0;" width="10" x="1647.5063" y="752.832"/><rect fill="#FFFFFF" height="109.2422" style="stroke:#181818;stroke-width:1.0;" width="10" x="1647.5063" y="1381.7324"/><rect fill="#FFFFFF" height="29.3105" style="stroke:#181818;stroke-width:1.0;" width="10" x="1935.8579" y="368.4609"/><rect fill="#FFFFFF" height="29.3105" style="stroke:#181818;stroke-width:1.0;" width="10" x="1935.8579" y="782.1426"/><rect fill="#FFFFFF" height="39.9658" style="stroke:#181818;stroke-width:1.0;" width="10" x="1935.8579" y="1421.6982"/><rect fill="none" height="478.3027" style="stroke:#000000;stroke-width:1.5;" width="1517.2837" x="492.4307" y="442.082"/><line style="stroke:#181818;stroke-width:0.5;stroke-dasharray:5.0,5.0;" x1="58" x2="58" y1="118.9766" y2="1638.2168"/><line style="stroke:#181818;stroke-width:0.5;stroke-dasharray:5.0,5.0;" x1="355.1694" x2="355.1694" y1="118.9766" y2="1638.2168"/><line style="stroke:#181818;stroke-width:0.5;stroke-dasharray:5.0,5.0;" x1="555.4307" x2="555.4307" y1="118.9766" y2="1638.2168"/><line style="stroke:#181818;stroke-width:0.5;stroke-dasharray:5.0,5.0;" x1="968.3896" x2="968.3896" y1="118.9766" y2="1638.2168"/><line style="stroke:#181818;stroke-width:0.5;stroke-dasharray:5.0,5.0;" x1="1265.3164" x2="1265.3164" y1="118.9766" y2="1638.2168"/><line style="stroke:#181818;stroke-width:0.5;stroke-dasharray:5.0,5.0;" x1="1652.436" x2="1652.436" y1="118.9766" y2="1638.2168"/><line style="stroke:#181818;stroke-width:0.5;stroke-dasharray:5.0,5.0;" x1="1940.0015" x2="1940.0015" y1="118.9766" y2="1638.2168"/><text fill="#333333" font-family="sans-serif" font-size="14" lengthAdjust="spacing" textLength="100.4951" x="5" y="116.0234">Node Operator</text><ellipse cx="58.2476" cy="50.9883" fill="#E2E2F0" rx="8" ry="8" style="stroke:#181818;stroke-width:0.5;"/><path d="M58.2476,58.9883 L58.2476,85.9883 M45.2476,66.9883 L71.2476,66.9883 M58.2476,85.9883 L45.2476,100.9883 M58.2476,85.9883 L71.2476,100.9883 " fill="none" style="stroke:#181818;stroke-width:0.5;"/><text fill="#333333" font-family="sans-serif" font-size="14" lengthAdjust="spacing" textLength="100.4951" x="5" y="1650.752">Node Operator</text><ellipse cx="58.2476" cy="1662.2051" fill="#E2E2F0" rx="8" ry="8" style="stroke:#181818;stroke-width:0.5;"/><path d="M58.2476,1670.2051 L58.2476,1697.2051 M45.2476,1678.2051 L71.2476,1678.2051 M58.2476,1697.2051 L45.2476,1712.2051 M58.2476,1697.2051 L71.2476,1712.2051 " fill="none" style="stroke:#181818;stroke-width:0.5;"/><rect fill="#E2E2F0" height="30.4883" rx="2.5" ry="2.5" style="stroke:#181818;stroke-width:0.5;" width="90.0908" x="310.1694" y="87.4883"/><text fill="#333333" font-family="sans-serif" font-size="14" lengthAdjust="spacing" textLength="76.0908" x="317.1694" y="108.0234">P2P Service</text><rect fill="#E2E2F0" height="30.4883" rx="2.5" ry="2.5" style="stroke:#181818;stroke-width:0.5;" width="90.0908" x="310.1694" y="1637.2168"/><text fill="#333333" font-family="sans-serif" font-size="14" lengthAdjust="spacing" textLength="76.0908" x="317.1694" y="1657.752">P2P Service</text><rect fill="#E2E2F0" height="30.4883" rx="2.5" ry="2.5" style="stroke:#181818;stroke-width:0.5;" width="106.7637" x="502.4307" y="87.4883"/><text fill="#333333" font-family="sans-serif" font-size="14" lengthAdjust="spacing" textLength="92.7637" x="509.4307" y="108.0234">NewP2PClient</text><rect fill="#E2E2F0" height="30.4883" rx="2.5" ry="2.5" style="stroke:#181818;stroke-width:0.5;" width="106.7637" x="502.4307" y="1637.2168"/><text fill="#333333" font-family="sans-serif" font-size="14" lengthAdjust="spacing" textLength="92.7637" x="509.4307" y="1657.752">NewP2PClient</text><rect fill="#E2E2F0" height="30.4883" rx="2.5" ry="2.5" style="stroke:#181818;stroke-width:0.5;" width="122.958" x="907.3896" y="87.4883"/><text fill="#333333" font-family="sans-serif" font-size="14" lengthAdjust="spacing" textLength="108.958" x="914.3896" y="108.0234">readPrivateKey()</text><rect fill="#E2E2F0" height="30.4883" rx="2.5" ry="2.5" style="stroke:#181818;stroke-width:0.5;" width="122.958" x="907.3896" y="1637.2168"/><text fill="#333333" font-family="sans-serif" font-size="14" lengthAdjust="spacing" textLength="108.958" x="914.3896" y="1657.752">readPrivateKey()</text><rect fill="#E2E2F0" height="30.4883" rx="2.5" ry="2.5" style="stroke:#181818;stroke-width:0.5;" width="152.4004" x="1189.3164" y="87.4883"/><text fill="#333333" font-family="sans-serif" font-size="14" lengthAdjust="spacing" textLength="138.4004" x="1196.3164" y="108.0234">generatePrivateKey()</text><rect fill="#E2E2F0" height="30.4883" rx="2.5" ry="2.5" style="stroke:#181818;stroke-width:0.5;" width="152.4004" x="1189.3164" y="1637.2168"/><text fill="#333333" font-family="sans-serif" font-size="14" lengthAdjust="spacing" textLength="138.4004" x="1196.3164" y="1657.752">generatePrivateKey()</text><rect fill="#E2E2F0" height="30.4883" rx="2.5" ry="2.5" style="stroke:#181818;stroke-width:0.5;" width="138.1406" x="1583.436" y="87.4883"/><text fill="#333333" font-family="sans-serif" font-size="14" lengthAdjust="spacing" textLength="124.1406" x="1590.436" y="108.0234">Blockchain Service</text><rect fill="#E2E2F0" height="30.4883" rx="2.5" ry="2.5" style="stroke:#181818;stroke-width:0.5;" width="138.1406" x="1583.436" y="1637.2168"/><text fill="#333333" font-family="sans-serif" font-size="14" lengthAdjust="spacing" textLength="124.1406" x="1590.436" y="1657.752">Blockchain Service</text><text fill="#333333" font-family="sans-serif" font-size="14" lengthAdjust="spacing" textLength="111.7129" x="1882.0015" y="116.0234">Blockchain Store</text><path d="M1922.8579,66.4883 C1922.8579,56.4883 1940.8579,56.4883 1940.8579,56.4883 C1940.8579,56.4883 1958.8579,56.4883 1958.8579,66.4883 L1958.8579,92.4883 C1958.8579,102.4883 1940.8579,102.4883 1940.8579,102.4883 C1940.8579,102.4883 1922.8579,102.4883 1922.8579,92.4883 L1922.8579,66.4883 " fill="#E2E2F0" style="stroke:#181818;stroke-width:1.5;"/><path d="M1922.8579,66.4883 C1922.8579,76.4883 1940.8579,76.4883 1940.8579,76.4883 C1940.8579,76.4883 1958.8579,76.4883 1958.8579,66.4883 " fill="none" style="stroke:#181818;stroke-width:1.5;"/><text fill="#333333" font-family="sans-serif" font-size="14" lengthAdjust="spacing" textLength="111.7129" x="1882.0015" y="1650.752">Blockchain Store</text><path d="M1922.8579,1663.7051 C1922.8579,1653.7051 1940.8579,1653.7051 1940.8579,1653.7051 C1940.8579,1653.7051 1958.8579,1653.7051 1958.8579,1663.7051 L1958.8579,1689.7051 C1958.8579,1699.7051 1940.8579,1699.7051 1940.8579,1699.7051 C1940.8579,1699.7051 1922.8579,1699.7051 1922.8579,1689.7051 L1922.8579,1663.7051 " fill="#E2E2F0" style="stroke:#181818;stroke-width:1.5;"/><path d="M1922.8579,1663.7051 C1922.8579,1673.7051 1940.8579,1673.7051 1940.8579,1673.7051 C1940.8579,1673.7051 1958.8579,1673.7051 1958.8579,1663.7051 " fill="none" style="stroke:#181818;stroke-width:1.5;"/><rect fill="#FFFFFF" height="1435.6191" style="stroke:#181818;stroke-width:1.0;" width="10" x="350.2148" y="193.5977"/><rect fill="#FFFFFF" height="637.2109" style="stroke:#181818;stroke-width:1.0;" width="10" x="355.2148" y="992.0059"/><rect fill="#FFFFFF" height="377.0371" style="stroke:#181818;stroke-width:1.0;" width="10" x="360.2148" y="1236.1797"/><rect fill="#FFFFFF" height="1406.3086" style="stroke:#181818;stroke-width:1.0;" width="10" x="550.8125" y="222.9082"/><rect fill="#FFFFFF" height="607.9004" style="stroke:#181818;stroke-width:1.0;" width="10" x="555.8125" y="1021.3164"/><rect fill="#FFFFFF" height="347.7266" style="stroke:#181818;stroke-width:1.0;" width="10" x="560.8125" y="1265.4902"/><rect fill="#FFFFFF" height="617.5449" style="stroke:#181818;stroke-width:1.0;" width="10" x="963.8687" y="309.8398"/><rect fill="#FFFFFF" height="210.1738" style="stroke:#181818;stroke-width:1.0;" width="10" x="963.8687" y="1352.4219"/><rect fill="#FFFFFF" height="231.1738" style="stroke:#181818;stroke-width:1.0;" width="10" x="1260.5166" y="638.9004"/><rect fill="#FFFFFF" height="87.9316" style="stroke:#181818;stroke-width:1.0;" width="10" x="1647.5063" y="339.1504"/><rect fill="#FFFFFF" height="87.9316" style="stroke:#181818;stroke-width:1.0;" width="10" x="1647.5063" y="752.832"/><rect fill="#FFFFFF" height="109.2422" style="stroke:#181818;stroke-width:1.0;" width="10" x="1647.5063" y="1381.7324"/><rect fill="#FFFFFF" height="29.3105" style="stroke:#181818;stroke-width:1.0;" width="10" x="1935.8579" y="368.4609"/><rect fill="#FFFFFF" height="29.3105" style="stroke:#181818;stroke-width:1.0;" width="10" x="1935.8579" y="782.1426"/><rect fill="#FFFFFF" height="39.9658" style="stroke:#181818;stroke-width:1.0;" width="10" x="1935.8579" y="1421.6982"/><rect fill="#EEEEEE" height="3" style="stroke:#EEEEEE;stroke-width:1.0;" width="2208.1494" x="0" y="149.6318"/><line style="stroke:#000000;stroke-width:1.0;" x1="0" x2="2208.1494" y1="149.6318" y2="149.6318"/><line style="stroke:#000000;stroke-width:1.0;" x1="0" x2="2208.1494" y1="152.6318" y2="152.6318"/><rect fill="#EEEEEE" height="23.3105" style="stroke:#000000;stroke-width:2.0;" width="347.3916" x="930.3789" y="138.9766"/><text fill="#333333" font-family="sans-serif" font-size="13" font-weight="bold" lengthAdjust="spacing" textLength="329.1069" x="936.3789" y="155.5449">Node Startup (Configuration without Private Key)</text><polygon fill="#666666" points="338.2148,189.5977,348.2148,193.5977,338.2148,197.5977,342.2148,193.5977" style="stroke:#666666;stroke-width:1.0;"/><line style="stroke:#666666;stroke-width:1.0;" x1="58.2476" x2="344.2148" y1="193.5977" y2="193.5977"/><text fill="#333333" font-family="sans-serif" font-size="13" font-weight="bold" lengthAdjust="spacing" textLength="8.5757" x="65.2476" y="188.8555">1</text><text fill="#333333" font-family="sans-serif" font-size="13" lengthAdjust="spacing" textLength="103.6191" x="77.8232" y="188.8555">Start P2P service</text><polygon fill="#666666" points="538.8125,218.9082,548.8125,222.9082,538.8125,226.9082,542.8125,222.9082" style="stroke:#666666;stroke-width:1.0;"/><line style="stroke:#666666;stroke-width:1.0;" x1="360.2148" x2="544.8125" y1="222.9082" y2="222.9082"/><text fill="#333333" font-family="sans-serif" font-size="13" font-weight="bold" lengthAdjust="spacing" textLength="8.5757" x="367.2148" y="218.166">2</text><text fill="#333333" font-family="sans-serif" font-size="13" lengthAdjust="spacing" textLength="135.4463" x="379.7905" y="218.166">Create new P2P client</text><line style="stroke:#666666;stroke-width:1.0;" x1="560.8125" x2="602.8125" y1="267.5293" y2="267.5293"/><line style="stroke:#666666;stroke-width:1.0;" x1="602.8125" x2="602.8125" y1="267.5293" y2="280.5293"/><line style="stroke:#666666;stroke-width:1.0;" x1="561.8125" x2="602.8125" y1="280.5293" y2="280.5293"/><polygon fill="#666666" points="571.8125,276.5293,561.8125,280.5293,571.8125,284.5293,567.8125,280.5293" style="stroke:#666666;stroke-width:1.0;"/><text fill="#333333" font-family="sans-serif" font-size="13" font-weight="bold" lengthAdjust="spacing" textLength="8.5757" x="567.8125" y="255.1318">3</text><text fill="#333333" font-family="sans-serif" font-size="13" lengthAdjust="spacing" textLength="124.3442" x="580.3882" y="247.4766">Check if private key</text><text fill="#333333" font-family="sans-serif" font-size="13" lengthAdjust="spacing" textLength="130.3364" x="580.3882" y="262.7871">is specified in config</text><path d="M731.9121,247.0635 L731.9121,272.0635 L898.9121,272.0635 L898.9121,257.0635 L888.9121,247.0635 L731.9121,247.0635 " fill="#FEFFDD" style="stroke:#181818;stroke-width:0.5;"/><path d="M888.9121,247.0635 L888.9121,257.0635 L898.9121,257.0635 L888.9121,247.0635 " fill="#FEFFDD" style="stroke:#181818;stroke-width:0.5;"/><text fill="#333333" font-family="sans-serif" font-size="13" lengthAdjust="spacing" textLength="146.8721" x="737.9121" y="264.6318">config.PrivateKey == ""</text><polygon fill="#666666" points="951.8687,305.8398,961.8687,309.8398,951.8687,313.8398,955.8687,309.8398" style="stroke:#666666;stroke-width:1.0;"/><line style="stroke:#666666;stroke-width:1.0;" x1="560.8125" x2="957.8687" y1="309.8398" y2="309.8398"/><text fill="#333333" font-family="sans-serif" font-size="13" font-weight="bold" lengthAdjust="spacing" textLength="8.5757" x="567.8125" y="305.0977">4</text><text fill="#333333" font-family="sans-serif" font-size="13" lengthAdjust="spacing" textLength="180.3687" x="580.3882" y="305.0977">Attempt to read existing key</text><polygon fill="#666666" points="1635.5063,335.1504,1645.5063,339.1504,1635.5063,343.1504,1639.5063,339.1504" style="stroke:#666666;stroke-width:1.0;"/><line style="stroke:#666666;stroke-width:1.0;" x1="973.8687" x2="1641.5063" y1="339.1504" y2="339.1504"/><text fill="#333333" font-family="sans-serif" font-size="13" font-weight="bold" lengthAdjust="spacing" textLength="8.5757" x="980.8687" y="334.4082">5</text><text fill="#333333" font-family="sans-serif" font-size="13" lengthAdjust="spacing" textLength="274.0156" x="993.4443" y="334.4082">blockchainClient.GetState("p2p.privateKey")</text><polygon fill="#666666" points="1923.8579,364.4609,1933.8579,368.4609,1923.8579,372.4609,1927.8579,368.4609" style="stroke:#666666;stroke-width:1.0;"/><line style="stroke:#666666;stroke-width:1.0;" x1="1657.5063" x2="1929.8579" y1="368.4609" y2="368.4609"/><text fill="#333333" font-family="sans-serif" font-size="13" font-weight="bold" lengthAdjust="spacing" textLength="8.5757" x="1664.5063" y="363.7188">6</text><text fill="#333333" font-family="sans-serif" font-size="13" lengthAdjust="spacing" textLength="72.4077" x="1677.082" y="363.7188">Query state</text><polygon fill="#666666" points="1668.5063,393.7715,1658.5063,397.7715,1668.5063,401.7715,1664.5063,397.7715" style="stroke:#666666;stroke-width:1.0;"/><line style="stroke:#666666;stroke-width:1.0;stroke-dasharray:2.0,2.0;" x1="1662.5063" x2="1939.8579" y1="397.7715" y2="397.7715"/><text fill="#333333" font-family="sans-serif" font-size="13" font-weight="bold" lengthAdjust="spacing" textLength="8.5757" x="1674.5063" y="393.0293">7</text><text fill="#333333" font-family="sans-serif" font-size="13" lengthAdjust="spacing" textLength="241.7759" x="1687.082" y="393.0293">Return stored key bytes (or not found)</text><polygon fill="#666666" points="984.8687,423.082,974.8687,427.082,984.8687,431.082,980.8687,427.082" style="stroke:#666666;stroke-width:1.0;"/><line style="stroke:#666666;stroke-width:1.0;stroke-dasharray:2.0,2.0;" x1="978.8687" x2="1651.5063" y1="427.082" y2="427.082"/><text fill="#333333" font-family="sans-serif" font-size="13" font-weight="bold" lengthAdjust="spacing" textLength="8.5757" x="990.8687" y="422.3398">8</text><text fill="#333333" font-family="sans-serif" font-size="13" lengthAdjust="spacing" textLength="158.063" x="1003.4443" y="422.3398">Return key bytes or error</text><path d="M492.4307,442.082 L554.5693,442.082 L554.5693,449.3926 L544.5693,459.3926 L492.4307,459.3926 L492.4307,442.082 " fill="#EEEEEE" style="stroke:#000000;stroke-width:1.5;"/><rect fill="none" height="478.3027" style="stroke:#000000;stroke-width:1.5;" width="1517.2837" x="492.4307" y="442.082"/><text fill="#333333" font-family="sans-serif" font-size="13" font-weight="bold" lengthAdjust="spacing" textLength="17.1387" x="507.4307" y="455.6504">alt</text><text fill="#333333" font-family="sans-serif" font-size="11" font-weight="bold" lengthAdjust="spacing" textLength="177.6489" x="569.5693" y="454.7168">[Key found in blockchain store]</text><line style="stroke:#666666;stroke-width:1.0;" x1="973.8687" x2="1015.8687" y1="480.7031" y2="480.7031"/><line style="stroke:#666666;stroke-width:1.0;" x1="1015.8687" x2="1015.8687" y1="480.7031" y2="493.7031"/><line style="stroke:#666666;stroke-width:1.0;" x1="974.8687" x2="1015.8687" y1="493.7031" y2="493.7031"/><polygon fill="#666666" points="984.8687,489.7031,974.8687,493.7031,984.8687,497.7031,980.8687,493.7031" style="stroke:#666666;stroke-width:1.0;"/><text fill="#333333" font-family="sans-serif" font-size="13" font-weight="bold" lengthAdjust="spacing" textLength="8.5757" x="980.8687" y="475.9609">9</text><text fill="#333333" font-family="sans-serif" font-size="13" lengthAdjust="spacing" textLength="241.4966" x="993.4443" y="475.9609">crypto.UnmarshalPrivateKey(privBytes)</text><polygon fill="#666666" points="571.8125,519.0137,561.8125,523.0137,571.8125,527.0137,567.8125,523.0137" style="stroke:#666666;stroke-width:1.0;"/><line style="stroke:#666666;stroke-width:1.0;stroke-dasharray:2.0,2.0;" x1="565.8125" x2="962.8687" y1="523.0137" y2="523.0137"/><text fill="#333333" font-family="sans-serif" font-size="13" font-weight="bold" lengthAdjust="spacing" textLength="17.1514" x="577.8125" y="518.2715">10</text><text fill="#333333" font-family="sans-serif" font-size="13" lengthAdjust="spacing" textLength="200.8525" x="598.9639" y="518.2715">Return unmarshaled private key</text><line style="stroke:#666666;stroke-width:1.0;" x1="560.8125" x2="602.8125" y1="552.3242" y2="552.3242"/><line style="stroke:#666666;stroke-width:1.0;" x1="602.8125" x2="602.8125" y1="552.3242" y2="565.3242"/><line style="stroke:#666666;stroke-width:1.0;" x1="561.8125" x2="602.8125" y1="565.3242" y2="565.3242"/><polygon fill="#666666" points="571.8125,561.3242,561.8125,565.3242,571.8125,569.3242,567.8125,565.3242" style="stroke:#666666;stroke-width:1.0;"/><text fill="#333333" font-family="sans-serif" font-size="13" font-weight="bold" lengthAdjust="spacing" textLength="17.1514" x="567.8125" y="547.582">11</text><text fill="#333333" font-family="sans-serif" font-size="13" lengthAdjust="spacing" textLength="215.4268" x="588.9639" y="547.582">Use existing key for client identity</text><line style="stroke:#000000;stroke-width:1.0;stroke-dasharray:2.0,2.0;" x1="492.4307" x2="2009.7144" y1="574.3242" y2="574.3242"/><text fill="#333333" font-family="sans-serif" font-size="11" font-weight="bold" lengthAdjust="spacing" textLength="88.1021" x="497.4307" y="584.959">[Key not found]</text><polygon fill="#666666" points="571.8125,605.5898,561.8125,609.5898,571.8125,613.5898,567.8125,609.5898" style="stroke:#666666;stroke-width:1.0;"/><line style="stroke:#666666;stroke-width:1.0;stroke-dasharray:2.0,2.0;" x1="565.8125" x2="962.8687" y1="609.5898" y2="609.5898"/><text fill="#333333" font-family="sans-serif" font-size="13" font-weight="bold" lengthAdjust="spacing" textLength="17.1514" x="577.8125" y="604.8477">12</text><text fill="#333333" font-family="sans-serif" font-size="13" lengthAdjust="spacing" textLength="151.7598" x="598.9639" y="604.8477">Return error (not found)</text><polygon fill="#666666" points="1248.5166,634.9004,1258.5166,638.9004,1248.5166,642.9004,1252.5166,638.9004" style="stroke:#666666;stroke-width:1.0;"/><line style="stroke:#666666;stroke-width:1.0;" x1="560.8125" x2="1254.5166" y1="638.9004" y2="638.9004"/><text fill="#333333" font-family="sans-serif" font-size="13" font-weight="bold" lengthAdjust="spacing" textLength="17.1514" x="567.8125" y="634.1582">13</text><text fill="#333333" font-family="sans-serif" font-size="13" lengthAdjust="spacing" textLength="159.123" x="588.9639" y="634.1582">Generate new private key</text><line style="stroke:#666666;stroke-width:1.0;" x1="1270.5166" x2="1312.5166" y1="668.2109" y2="668.2109"/><line style="stroke:#666666;stroke-width:1.0;" x1="1312.5166" x2="1312.5166" y1="668.2109" y2="681.2109"/><line style="stroke:#666666;stroke-width:1.0;" x1="1271.5166" x2="1312.5166" y1="681.2109" y2="681.2109"/><polygon fill="#666666" points="1281.5166,677.2109,1271.5166,681.2109,1281.5166,685.2109,1277.5166,681.2109" style="stroke:#666666;stroke-width:1.0;"/><text fill="#333333" font-family="sans-serif" font-size="13" font-weight="bold" lengthAdjust="spacing" textLength="17.1514" x="1277.5166" y="663.4688">14</text><text fill="#333333" font-family="sans-serif" font-size="13" lengthAdjust="spacing" textLength="187.77" x="1298.668" y="663.4688">crypto.GenerateEd25519Key()</text><line style="stroke:#666666;stroke-width:1.0;" x1="1270.5166" x2="1312.5166" y1="710.5215" y2="710.5215"/><line style="stroke:#666666;stroke-width:1.0;" x1="1312.5166" x2="1312.5166" y1="710.5215" y2="723.5215"/><line style="stroke:#666666;stroke-width:1.0;" x1="1271.5166" x2="1312.5166" y1="723.5215" y2="723.5215"/><polygon fill="#666666" points="1281.5166,719.5215,1271.5166,723.5215,1281.5166,727.5215,1277.5166,723.5215" style="stroke:#666666;stroke-width:1.0;"/><text fill="#333333" font-family="sans-serif" font-size="13" font-weight="bold" lengthAdjust="spacing" textLength="17.1514" x="1277.5166" y="705.7793">15</text><text fill="#333333" font-family="sans-serif" font-size="13" lengthAdjust="spacing" textLength="166.4927" x="1298.668" y="705.7793">crypto.MarshalPrivateKey()</text><polygon fill="#666666" points="1635.5063,748.832,1645.5063,752.832,1635.5063,756.832,1639.5063,752.832" style="stroke:#666666;stroke-width:1.0;"/><line style="stroke:#666666;stroke-width:1.0;" x1="1270.5166" x2="1641.5063" y1="752.832" y2="752.832"/><text fill="#333333" font-family="sans-serif" font-size="13" font-weight="bold" lengthAdjust="spacing" textLength="17.1514" x="1277.5166" y="748.0898">16</text><text fill="#333333" font-family="sans-serif" font-size="13" lengthAdjust="spacing" textLength="336.8384" x="1298.668" y="748.0898">blockchainClient.SetState("p2p.privateKey", privBytes)</text><polygon fill="#666666" points="1923.8579,778.1426,1933.8579,782.1426,1923.8579,786.1426,1927.8579,782.1426" style="stroke:#666666;stroke-width:1.0;"/><line style="stroke:#666666;stroke-width:1.0;" x1="1657.5063" x2="1929.8579" y1="782.1426" y2="782.1426"/><text fill="#333333" font-family="sans-serif" font-size="13" font-weight="bold" lengthAdjust="spacing" textLength="17.1514" x="1664.5063" y="777.4004">17</text><text fill="#333333" font-family="sans-serif" font-size="13" lengthAdjust="spacing" textLength="95.9766" x="1685.6577" y="777.4004">Store key bytes</text><polygon fill="#666666" points="1668.5063,807.4531,1658.5063,811.4531,1668.5063,815.4531,1664.5063,811.4531" style="stroke:#666666;stroke-width:1.0;"/><line style="stroke:#666666;stroke-width:1.0;stroke-dasharray:2.0,2.0;" x1="1662.5063" x2="1939.8579" y1="811.4531" y2="811.4531"/><text fill="#333333" font-family="sans-serif" font-size="13" font-weight="bold" lengthAdjust="spacing" textLength="17.1514" x="1674.5063" y="806.7109">18</text><text fill="#333333" font-family="sans-serif" font-size="13" lengthAdjust="spacing" textLength="102.4766" x="1695.6577" y="806.7109">Confirm storage</text><polygon fill="#666666" points="1281.5166,836.7637,1271.5166,840.7637,1281.5166,844.7637,1277.5166,840.7637" style="stroke:#666666;stroke-width:1.0;"/><line style="stroke:#666666;stroke-width:1.0;stroke-dasharray:2.0,2.0;" x1="1275.5166" x2="1651.5063" y1="840.7637" y2="840.7637"/><text fill="#333333" font-family="sans-serif" font-size="13" font-weight="bold" lengthAdjust="spacing" textLength="17.1514" x="1287.5166" y="836.0215">19</text><text fill="#333333" font-family="sans-serif" font-size="13" lengthAdjust="spacing" textLength="94.4023" x="1308.668" y="836.0215">Return success</text><polygon fill="#666666" points="571.8125,866.0742,561.8125,870.0742,571.8125,874.0742,567.8125,870.0742" style="stroke:#666666;stroke-width:1.0;"/><line style="stroke:#666666;stroke-width:1.0;stroke-dasharray:2.0,2.0;" x1="565.8125" x2="1264.5166" y1="870.0742" y2="870.0742"/><text fill="#333333" font-family="sans-serif" font-size="13" font-weight="bold" lengthAdjust="spacing" textLength="17.1514" x="577.8125" y="865.332">20</text><text fill="#333333" font-family="sans-serif" font-size="13" lengthAdjust="spacing" textLength="144.3521" x="598.9639" y="865.332">Return new private key</text><line style="stroke:#666666;stroke-width:1.0;" x1="560.8125" x2="602.8125" y1="899.3848" y2="899.3848"/><line style="stroke:#666666;stroke-width:1.0;" x1="602.8125" x2="602.8125" y1="899.3848" y2="912.3848"/><line style="stroke:#666666;stroke-width:1.0;" x1="561.8125" x2="602.8125" y1="912.3848" y2="912.3848"/><polygon fill="#666666" points="571.8125,908.3848,561.8125,912.3848,571.8125,916.3848,567.8125,912.3848" style="stroke:#666666;stroke-width:1.0;"/><text fill="#333333" font-family="sans-serif" font-size="13" font-weight="bold" lengthAdjust="spacing" textLength="17.1514" x="567.8125" y="894.6426">21</text><text fill="#333333" font-family="sans-serif" font-size="13" lengthAdjust="spacing" textLength="190.3599" x="588.9639" y="894.6426">Use new key for client identity</text><rect fill="#EEEEEE" height="3" style="stroke:#EEEEEE;stroke-width:1.0;" width="2208.1494" x="0" y="948.04"/><line style="stroke:#000000;stroke-width:1.0;" x1="0" x2="2208.1494" y1="948.04" y2="948.04"/><line style="stroke:#000000;stroke-width:1.0;" x1="0" x2="2208.1494" y1="951.04" y2="951.04"/><rect fill="#EEEEEE" height="23.3105" style="stroke:#000000;stroke-width:2.0;" width="325.2827" x="941.4333" y="937.3848"/><text fill="#333333" font-family="sans-serif" font-size="13" font-weight="bold" lengthAdjust="spacing" textLength="306.998" x="947.4333" y="953.9531">Node Startup (Configuration with Private Key)</text><polygon fill="#666666" points="343.2148,988.0059,353.2148,992.0059,343.2148,996.0059,347.2148,992.0059" style="stroke:#666666;stroke-width:1.0;"/><line style="stroke:#666666;stroke-width:1.0;" x1="58.2476" x2="349.2148" y1="992.0059" y2="992.0059"/><text fill="#333333" font-family="sans-serif" font-size="13" font-weight="bold" lengthAdjust="spacing" textLength="17.1514" x="65.2476" y="987.2637">22</text><text fill="#333333" font-family="sans-serif" font-size="13" lengthAdjust="spacing" textLength="246.8159" x="86.3989" y="987.2637">Start P2P service with config.PrivateKey</text><polygon fill="#666666" points="543.8125,1017.3164,553.8125,1021.3164,543.8125,1025.3164,547.8125,1021.3164" style="stroke:#666666;stroke-width:1.0;"/><line style="stroke:#666666;stroke-width:1.0;" x1="365.2148" x2="549.8125" y1="1021.3164" y2="1021.3164"/><text fill="#333333" font-family="sans-serif" font-size="13" font-weight="bold" lengthAdjust="spacing" textLength="17.1514" x="372.2148" y="1016.5742">23</text><text fill="#333333" font-family="sans-serif" font-size="13" lengthAdjust="spacing" textLength="135.4463" x="393.3662" y="1016.5742">Create new P2P client</text><line style="stroke:#666666;stroke-width:1.0;" x1="565.8125" x2="607.8125" y1="1065.9375" y2="1065.9375"/><line style="stroke:#666666;stroke-width:1.0;" x1="607.8125" x2="607.8125" y1="1065.9375" y2="1078.9375"/><line style="stroke:#666666;stroke-width:1.0;" x1="566.8125" x2="607.8125" y1="1078.9375" y2="1078.9375"/><polygon fill="#666666" points="576.8125,1074.9375,566.8125,1078.9375,576.8125,1082.9375,572.8125,1078.9375" style="stroke:#666666;stroke-width:1.0;"/><text fill="#333333" font-family="sans-serif" font-size="13" font-weight="bold" lengthAdjust="spacing" textLength="17.1514" x="572.8125" y="1053.54">24</text><text fill="#333333" font-family="sans-serif" font-size="13" lengthAdjust="spacing" textLength="124.3442" x="593.9639" y="1045.8848">Check if private key</text><text fill="#333333" font-family="sans-serif" font-size="13" lengthAdjust="spacing" textLength="130.3364" x="593.9639" y="1061.1953">is specified in config</text><path d="M750.4878,1045.4717 L750.4878,1070.4717 L911.4878,1070.4717 L911.4878,1055.4717 L901.4878,1045.4717 L750.4878,1045.4717 " fill="#FEFFDD" style="stroke:#181818;stroke-width:0.5;"/><path d="M901.4878,1045.4717 L901.4878,1055.4717 L911.4878,1055.4717 L901.4878,1045.4717 " fill="#FEFFDD" style="stroke:#181818;stroke-width:0.5;"/><text fill="#333333" font-family="sans-serif" font-size="13" lengthAdjust="spacing" textLength="140.6514" x="756.4878" y="1063.04">config.PrivateKey != ""</text><line style="stroke:#666666;stroke-width:1.0;" x1="565.8125" x2="607.8125" y1="1108.248" y2="1108.248"/><line style="stroke:#666666;stroke-width:1.0;" x1="607.8125" x2="607.8125" y1="1108.248" y2="1121.248"/><line style="stroke:#666666;stroke-width:1.0;" x1="566.8125" x2="607.8125" y1="1121.248" y2="1121.248"/><polygon fill="#666666" points="576.8125,1117.248,566.8125,1121.248,576.8125,1125.248,572.8125,1121.248" style="stroke:#666666;stroke-width:1.0;"/><text fill="#333333" font-family="sans-serif" font-size="13" font-weight="bold" lengthAdjust="spacing" textLength="17.1514" x="572.8125" y="1103.5059">25</text><text fill="#333333" font-family="sans-serif" font-size="13" lengthAdjust="spacing" textLength="308.1089" x="593.9639" y="1103.5059">decodeHexEd25519PrivateKey(config.PrivateKey)</text><line style="stroke:#666666;stroke-width:1.0;" x1="565.8125" x2="607.8125" y1="1150.5586" y2="1150.5586"/><line style="stroke:#666666;stroke-width:1.0;" x1="607.8125" x2="607.8125" y1="1150.5586" y2="1163.5586"/><line style="stroke:#666666;stroke-width:1.0;" x1="566.8125" x2="607.8125" y1="1163.5586" y2="1163.5586"/><polygon fill="#666666" points="576.8125,1159.5586,566.8125,1163.5586,576.8125,1167.5586,572.8125,1163.5586" style="stroke:#666666;stroke-width:1.0;"/><text fill="#333333" font-family="sans-serif" font-size="13" font-weight="bold" lengthAdjust="spacing" textLength="17.1514" x="572.8125" y="1145.8164">26</text><text fill="#333333" font-family="sans-serif" font-size="13" lengthAdjust="spacing" textLength="218.7085" x="593.9639" y="1145.8164">Use decoded key for client identity</text><rect fill="#EEEEEE" height="3" style="stroke:#EEEEEE;stroke-width:1.0;" width="2208.1494" x="0" y="1192.2139"/><line style="stroke:#000000;stroke-width:1.0;" x1="0" x2="2208.1494" y1="1192.2139" y2="1192.2139"/><line style="stroke:#000000;stroke-width:1.0;" x1="0" x2="2208.1494" y1="1195.2139" y2="1195.2139"/><rect fill="#EEEEEE" height="23.3105" style="stroke:#000000;stroke-width:2.0;" width="356.7354" x="925.707" y="1181.5586"/><text fill="#333333" font-family="sans-serif" font-size="13" font-weight="bold" lengthAdjust="spacing" textLength="338.4507" x="931.707" y="1198.127">Node Restart (Container Destroyed and Recreated)</text><polygon fill="#666666" points="348.2148,1232.1797,358.2148,1236.1797,348.2148,1240.1797,352.2148,1236.1797" style="stroke:#666666;stroke-width:1.0;"/><line style="stroke:#666666;stroke-width:1.0;" x1="58.2476" x2="354.2148" y1="1236.1797" y2="1236.1797"/><text fill="#333333" font-family="sans-serif" font-size="13" font-weight="bold" lengthAdjust="spacing" textLength="17.1514" x="65.2476" y="1231.4375">27</text><text fill="#333333" font-family="sans-serif" font-size="13" lengthAdjust="spacing" textLength="212.2529" x="86.3989" y="1231.4375">Start P2P service in new container</text><polygon fill="#666666" points="548.8125,1261.4902,558.8125,1265.4902,548.8125,1269.4902,552.8125,1265.4902" style="stroke:#666666;stroke-width:1.0;"/><line style="stroke:#666666;stroke-width:1.0;" x1="370.2148" x2="554.8125" y1="1265.4902" y2="1265.4902"/><text fill="#333333" font-family="sans-serif" font-size="13" font-weight="bold" lengthAdjust="spacing" textLength="17.1514" x="377.2148" y="1260.748">28</text><text fill="#333333" font-family="sans-serif" font-size="13" lengthAdjust="spacing" textLength="135.4463" x="398.3662" y="1260.748">Create new P2P client</text><line style="stroke:#666666;stroke-width:1.0;" x1="570.8125" x2="612.8125" y1="1310.1113" y2="1310.1113"/><line style="stroke:#666666;stroke-width:1.0;" x1="612.8125" x2="612.8125" y1="1310.1113" y2="1323.1113"/><line style="stroke:#666666;stroke-width:1.0;" x1="571.8125" x2="612.8125" y1="1323.1113" y2="1323.1113"/><polygon fill="#666666" points="581.8125,1319.1113,571.8125,1323.1113,581.8125,1327.1113,577.8125,1323.1113" style="stroke:#666666;stroke-width:1.0;"/><text fill="#333333" font-family="sans-serif" font-size="13" font-weight="bold" lengthAdjust="spacing" textLength="17.1514" x="577.8125" y="1297.7139">29</text><text fill="#333333" font-family="sans-serif" font-size="13" lengthAdjust="spacing" textLength="124.3442" x="598.9639" y="1290.0586">Check if private key</text><text fill="#333333" font-family="sans-serif" font-size="13" lengthAdjust="spacing" textLength="130.3364" x="598.9639" y="1305.3691">is specified in config</text><path d="M760.4878,1289.6455 L760.4878,1314.6455 L927.4878,1314.6455 L927.4878,1299.6455 L917.4878,1289.6455 L760.4878,1289.6455 " fill="#FEFFDD" style="stroke:#181818;stroke-width:0.5;"/><path d="M917.4878,1289.6455 L917.4878,1299.6455 L927.4878,1299.6455 L917.4878,1289.6455 " fill="#FEFFDD" style="stroke:#181818;stroke-width:0.5;"/><text fill="#333333" font-family="sans-serif" font-size="13" lengthAdjust="spacing" textLength="146.8721" x="766.4878" y="1307.2139">config.PrivateKey == ""</text><polygon fill="#666666" points="951.8687,1348.4219,961.8687,1352.4219,951.8687,1356.4219,955.8687,1352.4219" style="stroke:#666666;stroke-width:1.0;"/><line style="stroke:#666666;stroke-width:1.0;" x1="570.8125" x2="957.8687" y1="1352.4219" y2="1352.4219"/><text fill="#333333" font-family="sans-serif" font-size="13" font-weight="bold" lengthAdjust="spacing" textLength="17.1514" x="577.8125" y="1347.6797">30</text><text fill="#333333" font-family="sans-serif" font-size="13" lengthAdjust="spacing" textLength="180.3687" x="598.9639" y="1347.6797">Attempt to read existing key</text><polygon fill="#666666" points="1635.5063,1377.7324,1645.5063,1381.7324,1635.5063,1385.7324,1639.5063,1381.7324" style="stroke:#666666;stroke-width:1.0;"/><line style="stroke:#666666;stroke-width:1.0;" x1="973.8687" x2="1641.5063" y1="1381.7324" y2="1381.7324"/><text fill="#333333" font-family="sans-serif" font-size="13" font-weight="bold" lengthAdjust="spacing" textLength="17.1514" x="980.8687" y="1376.9902">31</text><text fill="#333333" font-family="sans-serif" font-size="13" lengthAdjust="spacing" textLength="274.0156" x="1002.02" y="1376.9902">blockchainClient.GetState("p2p.privateKey")</text><polygon fill="#666666" points="1923.8579,1417.6982,1933.8579,1421.6982,1923.8579,1425.6982,1927.8579,1421.6982" style="stroke:#666666;stroke-width:1.0;"/><line style="stroke:#666666;stroke-width:1.0;" x1="1657.5063" x2="1929.8579" y1="1421.6982" y2="1421.6982"/><text fill="#333333" font-family="sans-serif" font-size="13" font-weight="bold" lengthAdjust="spacing" textLength="17.1514" x="1664.5063" y="1416.9561">32</text><text fill="#333333" font-family="sans-serif" font-size="13" lengthAdjust="spacing" textLength="72.4077" x="1685.6577" y="1416.9561">Query state</text><path d="M1950,1394.7324 L1950,1434.7324 L2207,1434.7324 L2207,1404.7324 L2197,1394.7324 L1950,1394.7324 " fill="#FEFFDD" style="stroke:#181818;stroke-width:0.5;"/><path d="M2197,1394.7324 L2197,1404.7324 L2207,1404.7324 L2197,1394.7324 " fill="#FEFFDD" style="stroke:#181818;stroke-width:0.5;"/><text fill="#333333" font-family="sans-serif" font-size="13" lengthAdjust="spacing" textLength="199.9956" x="1956" y="1412.3008">Key persists in blockchain store</text><text fill="#333333" font-family="sans-serif" font-size="13" lengthAdjust="spacing" textLength="236.2915" x="1956" y="1427.6113">even though container was destroyed</text><polygon fill="#666666" points="1668.5063,1457.6641,1658.5063,1461.6641,1668.5063,1465.6641,1664.5063,1461.6641" style="stroke:#666666;stroke-width:1.0;"/><line style="stroke:#666666;stroke-width:1.0;stroke-dasharray:2.0,2.0;" x1="1662.5063" x2="1939.8579" y1="1461.6641" y2="1461.6641"/><text fill="#333333" font-family="sans-serif" font-size="13" font-weight="bold" lengthAdjust="spacing" textLength="17.1514" x="1674.5063" y="1456.9219">33</text><text fill="#333333" font-family="sans-serif" font-size="13" lengthAdjust="spacing" textLength="218.2515" x="1695.6577" y="1456.9219">Return previously stored key bytes</text><polygon fill="#666666" points="984.8687,1486.9746,974.8687,1490.9746,984.8687,1494.9746,980.8687,1490.9746" style="stroke:#666666;stroke-width:1.0;"/><line style="stroke:#666666;stroke-width:1.0;stroke-dasharray:2.0,2.0;" x1="978.8687" x2="1651.5063" y1="1490.9746" y2="1490.9746"/><text fill="#333333" font-family="sans-serif" font-size="13" font-weight="bold" lengthAdjust="spacing" textLength="17.1514" x="990.8687" y="1486.2324">34</text><text fill="#333333" font-family="sans-serif" font-size="13" lengthAdjust="spacing" textLength="105.3457" x="1012.02" y="1486.2324">Return key bytes</text><line style="stroke:#666666;stroke-width:1.0;" x1="973.8687" x2="1015.8687" y1="1520.2852" y2="1520.2852"/><line style="stroke:#666666;stroke-width:1.0;" x1="1015.8687" x2="1015.8687" y1="1520.2852" y2="1533.2852"/><line style="stroke:#666666;stroke-width:1.0;" x1="974.8687" x2="1015.8687" y1="1533.2852" y2="1533.2852"/><polygon fill="#666666" points="984.8687,1529.2852,974.8687,1533.2852,984.8687,1537.2852,980.8687,1533.2852" style="stroke:#666666;stroke-width:1.0;"/><text fill="#333333" font-family="sans-serif" font-size="13" font-weight="bold" lengthAdjust="spacing" textLength="17.1514" x="980.8687" y="1515.543">35</text><text fill="#333333" font-family="sans-serif" font-size="13" lengthAdjust="spacing" textLength="241.4966" x="1002.02" y="1515.543">crypto.UnmarshalPrivateKey(privBytes)</text><polygon fill="#666666" points="581.8125,1558.5957,571.8125,1562.5957,581.8125,1566.5957,577.8125,1562.5957" style="stroke:#666666;stroke-width:1.0;"/><line style="stroke:#666666;stroke-width:1.0;stroke-dasharray:2.0,2.0;" x1="575.8125" x2="967.8687" y1="1562.5957" y2="1562.5957"/><text fill="#333333" font-family="sans-serif" font-size="13" font-weight="bold" lengthAdjust="spacing" textLength="17.1514" x="587.8125" y="1557.8535">36</text><text fill="#333333" font-family="sans-serif" font-size="13" lengthAdjust="spacing" textLength="200.8525" x="608.9639" y="1557.8535">Return unmarshaled private key</text><line style="stroke:#666666;stroke-width:1.0;" x1="570.8125" x2="612.8125" y1="1612.2168" y2="1612.2168"/><line style="stroke:#666666;stroke-width:1.0;" x1="612.8125" x2="612.8125" y1="1612.2168" y2="1625.2168"/><line style="stroke:#666666;stroke-width:1.0;" x1="565.8125" x2="612.8125" y1="1625.2168" y2="1625.2168"/><polygon fill="#666666" points="575.8125,1621.2168,565.8125,1625.2168,575.8125,1629.2168,571.8125,1625.2168" style="stroke:#666666;stroke-width:1.0;"/><text fill="#333333" font-family="sans-serif" font-size="13" font-weight="bold" lengthAdjust="spacing" textLength="17.1514" x="577.8125" y="1599.8193">37</text><text fill="#333333" font-family="sans-serif" font-size="13" lengthAdjust="spacing" textLength="245.6416" x="598.9639" y="1592.1641">Use existing key from blockchain store</text><text fill="#333333" font-family="sans-serif" font-size="13" lengthAdjust="spacing" textLength="337.9048" x="598.9639" y="1607.4746">preserving client identity despite container recreation</text><text fill="#333333" font-family="sans-serif" font-size="10" lengthAdjust="spacing" textLength="154.8389" x="0" y="1728.373">Last Modified On: 15-Oct-2025</text><!--SRC=[xLPBRnit4BxpLqmL5920s4XTf6W4E43iL2dGA75jv9OBHOuaGYjomULQrh_lyB5QxiEkuG953zs3n2NdnU-RnrOxfKjk-HvMNEmsrjHQNfl2M7YrUBFuTR5WrKb2ufhNXLiOxPB8p-79HBYrvf0EVmaFOqwv0k7cuWPkhBhd3k4FFC8DsafL3hL0nhXmf37vOYJ2rn8jfzS9y0fCUc5atYcXIguTJBojExJtIc2GAY_Ahi0NF93CTQ5Gko2XyU25LkO19jxxack-mNquVlLPRRRkggYH0JqTGnQvJ56JsdGMZFdD7Hw7qXlKFbmSQD21Lq0jWKBendfL6B4JMwvqvqwhqpQJtF4Lhx0hIwX4oSgl2CFQ6LtlLsWPkxo4WEMT8qzr2TDhezTgKrDmocWuABSrjSlvcC7b9MCDt73steCwZmO2TrMCpLCLbJoUZ7wyR8Ht3jS43HtHQz0HWO1M9R70udz7SOjY1seDPGg9uFgk5LskHA7M2YNGdKMu1TE61AmdRPwspbl4wHumcUG-4brp-E0Sxai7peGzm0TAGAKttbaRPCCkImjleYLZdgrZVfr_GaSmEPnEoE5vUOfaCckDPcooTkrD1_Rcy6UDzaWl9DngHMR3BvprmhX5LriTHQI_0QoE3YkO4di44Anz9S-On9wrZliSdMImjKI6aChPvZRoU_32XKeEdZmzcUNeonT8XkB9bR37qfdpRthFRRNbHLOl7huhxtxMrSvo9GLQDzfq_InhWjemmRvH-UHyKzGsvISeIR_AKNqMLMnE9m3_BeW044mpm7l-O-NFuLDg3Q4s-k6Uu4rz8cp6TMuZmTQO-arUl7txqxlGPPxMM0vWdlLzF9dXTuzb-6leyJMQAFvWDEb33siphckXJQ7n0WWjpUx3AVNo83dCzhxl39ocWceXiAhw-lqBD50DSs2CqSnGpkbuNde3ZwOavM1UWAVkz8mM_vB-7XK7NVM_t_P_wBVzneT4GJZzZW-fNh8g65YPiN66eWtvA4idDcwn2eXwDXpb3bhuI5lM74cRKvkyHH70aiycHCKC4ut1_oVmlpw1y-lw2vRnsxKQ6thVDTwZ1l-1jTcshC61ljHaamfFp_JIuhqoTLKS1-Fz7yppnyRuomVq2uRpM2Txph2sPZ-2D04LgeIaUXNfeIuLUMa9iB7og3bs6cggY6md54Y1Qp_IYNWBdtdbO6bah8AlHDIFCcIRb6VBvVBiI0-bsby0]--></g></svg>
