<svg xmlns="http://www.w3.org/2000/svg" xmlns:xlink="http://www.w3.org/1999/xlink" contentStyleType="text/css" height="540px" preserveAspectRatio="none" style="width:972px;height:540px;background:#F0F8FF;" version="1.1" viewBox="0 0 972 540" width="972px" zoomAndPan="magnify"><defs/><g><rect fill="#F0F8FF" height="540" style="stroke:none;stroke-width:1.0;" width="972" x="0" y="0"/><rect fill="#FFFFFF" height="29.3105" style="stroke:#181818;stroke-width:1.0;" width="10" x="510.9004" y="83.1094"/><rect fill="#FFFFFF" height="29.3105" style="stroke:#181818;stroke-width:1.0;" width="10" x="625.0015" y="157.041"/><rect fill="#FFFFFF" height="29.3105" style="stroke:#181818;stroke-width:1.0;" width="10" x="625.0015" y="348.2148"/><rect fill="#FFFFFF" height="29.3105" style="stroke:#181818;stroke-width:1.0;" width="10" x="737.3901" y="230.9727"/><rect fill="#FFFFFF" height="29.3105" style="stroke:#181818;stroke-width:1.0;" width="10" x="737.3901" y="406.8359"/><rect fill="#FFFFFF" height="29.3105" style="stroke:#181818;stroke-width:1.0;" width="10" x="881.9009" y="289.5938"/><line style="stroke:#181818;stroke-width:0.5;stroke-dasharray:5.0,5.0;" x1="59" x2="59" y1="36.4883" y2="489.457"/><line style="stroke:#181818;stroke-width:0.5;stroke-dasharray:5.0,5.0;" x1="514.9707" x2="514.9707" y1="36.4883" y2="489.457"/><line style="stroke:#181818;stroke-width:0.5;stroke-dasharray:5.0,5.0;" x1="629.8301" x2="629.8301" y1="36.4883" y2="489.457"/><line style="stroke:#181818;stroke-width:0.5;stroke-dasharray:5.0,5.0;" x1="742.1729" x2="742.1729" y1="36.4883" y2="489.457"/><line style="stroke:#181818;stroke-width:0.5;stroke-dasharray:5.0,5.0;" x1="886.6074" x2="886.6074" y1="36.4883" y2="489.457"/><rect fill="#DDDDDD" height="30.4883" rx="2.5" ry="2.5" style="stroke:#666666;stroke-width:0.5;" width="109.5801" x="5" y="5"/><text fill="#333333" font-family="sans-serif" font-size="14" lengthAdjust="spacing" textLength="95.5801" x="12" y="25.5352">Main Function</text><rect fill="#DDDDDD" height="30.4883" rx="2.5" ry="2.5" style="stroke:#666666;stroke-width:0.5;" width="109.5801" x="5" y="488.457"/><text fill="#333333" font-family="sans-serif" font-size="14" lengthAdjust="spacing" textLength="95.5801" x="12" y="508.9922">Main Function</text><rect fill="#DDDDDD" height="30.4883" rx="2.5" ry="2.5" style="stroke:#666666;stroke-width:0.5;" width="113.8594" x="458.9707" y="5"/><text fill="#333333" font-family="sans-serif" font-size="14" lengthAdjust="spacing" textLength="99.8594" x="465.9707" y="25.5352">GoCore Config</text><rect fill="#DDDDDD" height="30.4883" rx="2.5" ry="2.5" style="stroke:#666666;stroke-width:0.5;" width="113.8594" x="458.9707" y="488.457"/><text fill="#333333" font-family="sans-serif" font-size="14" lengthAdjust="spacing" textLength="99.8594" x="465.9707" y="508.9922">GoCore Config</text><rect fill="#DDDDDD" height="30.4883" rx="2.5" ry="2.5" style="stroke:#666666;stroke-width:0.5;" width="94.3428" x="582.8301" y="5"/><text fill="#333333" font-family="sans-serif" font-size="14" lengthAdjust="spacing" textLength="80.3428" x="589.8301" y="25.5352">LibP2P Host</text><rect fill="#DDDDDD" height="30.4883" rx="2.5" ry="2.5" style="stroke:#666666;stroke-width:0.5;" width="94.3428" x="582.8301" y="488.457"/><text fill="#333333" font-family="sans-serif" font-size="14" lengthAdjust="spacing" textLength="80.3428" x="589.8301" y="508.9922">LibP2P Host</text><rect fill="#DDDDDD" height="30.4883" rx="2.5" ry="2.5" style="stroke:#666666;stroke-width:0.5;" width="110.4346" x="687.1729" y="5"/><text fill="#333333" font-family="sans-serif" font-size="14" lengthAdjust="spacing" textLength="96.4346" x="694.1729" y="25.5352">Kademlia DHT</text><rect fill="#DDDDDD" height="30.4883" rx="2.5" ry="2.5" style="stroke:#666666;stroke-width:0.5;" width="110.4346" x="687.1729" y="488.457"/><text fill="#333333" font-family="sans-serif" font-size="14" lengthAdjust="spacing" textLength="96.4346" x="694.1729" y="508.9922">Kademlia DHT</text><rect fill="#DDDDDD" height="30.4883" rx="2.5" ry="2.5" style="stroke:#666666;stroke-width:0.5;" width="158.5869" x="807.6074" y="5"/><text fill="#333333" font-family="sans-serif" font-size="14" lengthAdjust="spacing" textLength="144.5869" x="814.6074" y="25.5352">Private Network (PSK)</text><rect fill="#DDDDDD" height="30.4883" rx="2.5" ry="2.5" style="stroke:#666666;stroke-width:0.5;" width="158.5869" x="807.6074" y="488.457"/><text fill="#333333" font-family="sans-serif" font-size="14" lengthAdjust="spacing" textLength="144.5869" x="814.6074" y="508.9922">Private Network (PSK)</text><rect fill="#FFFFFF" height="29.3105" style="stroke:#181818;stroke-width:1.0;" width="10" x="510.9004" y="83.1094"/><rect fill="#FFFFFF" height="29.3105" style="stroke:#181818;stroke-width:1.0;" width="10" x="625.0015" y="157.041"/><rect fill="#FFFFFF" height="29.3105" style="stroke:#181818;stroke-width:1.0;" width="10" x="625.0015" y="348.2148"/><rect fill="#FFFFFF" height="29.3105" style="stroke:#181818;stroke-width:1.0;" width="10" x="737.3901" y="230.9727"/><rect fill="#FFFFFF" height="29.3105" style="stroke:#181818;stroke-width:1.0;" width="10" x="737.3901" y="406.8359"/><rect fill="#FFFFFF" height="29.3105" style="stroke:#181818;stroke-width:1.0;" width="10" x="881.9009" y="289.5938"/><polygon fill="#666666" points="498.9004,79.1094,508.9004,83.1094,498.9004,87.1094,502.9004,83.1094" style="stroke:#666666;stroke-width:1.0;"/><line style="stroke:#666666;stroke-width:1.0;" x1="59.79" x2="504.9004" y1="83.1094" y2="83.1094"/><text fill="#333333" font-family="sans-serif" font-size="13" lengthAdjust="spacing" textLength="164.4741" x="66.79" y="63.0566">Get configuration settings</text><text fill="#333333" font-family="sans-serif" font-size="13" lengthAdjust="spacing" textLength="432.1104" x="66.79" y="78.3672">(p2p_dht_protocol_id, p2p_shared_key, p2p_bootstrap_privkey, etc.)</text><polygon fill="#666666" points="70.79,108.4199,60.79,112.4199,70.79,116.4199,66.79,112.4199" style="stroke:#666666;stroke-width:1.0;"/><line style="stroke:#666666;stroke-width:1.0;stroke-dasharray:2.0,2.0;" x1="64.79" x2="514.9004" y1="112.4199" y2="112.4199"/><text fill="#333333" font-family="sans-serif" font-size="13" lengthAdjust="spacing" textLength="174.2051" x="76.79" y="107.6777">Return configuration values</text><polygon fill="#666666" points="613.0015,153.041,623.0015,157.041,613.0015,161.041,617.0015,157.041" style="stroke:#666666;stroke-width:1.0;"/><line style="stroke:#666666;stroke-width:1.0;" x1="59.79" x2="619.0015" y1="157.041" y2="157.041"/><text fill="#333333" font-family="sans-serif" font-size="13" lengthAdjust="spacing" textLength="146.3325" x="66.79" y="136.9883">Create new libp2p host</text><text fill="#333333" font-family="sans-serif" font-size="13" lengthAdjust="spacing" textLength="167.0513" x="66.79" y="152.2988">using configuration values</text><polygon fill="#666666" points="70.79,182.3516,60.79,186.3516,70.79,190.3516,66.79,186.3516" style="stroke:#666666;stroke-width:1.0;"/><line style="stroke:#666666;stroke-width:1.0;stroke-dasharray:2.0,2.0;" x1="64.79" x2="629.0015" y1="186.3516" y2="186.3516"/><text fill="#333333" font-family="sans-serif" font-size="13" lengthAdjust="spacing" textLength="85.6045" x="76.79" y="181.6094">Host instance</text><polygon fill="#666666" points="725.3901,226.9727,735.3901,230.9727,725.3901,234.9727,729.3901,230.9727" style="stroke:#666666;stroke-width:1.0;"/><line style="stroke:#666666;stroke-width:1.0;" x1="59.79" x2="731.3901" y1="230.9727" y2="230.9727"/><text fill="#333333" font-family="sans-serif" font-size="13" lengthAdjust="spacing" textLength="129.0161" x="66.79" y="210.9199">Setup Kademlia DHT</text><text fill="#333333" font-family="sans-serif" font-size="13" lengthAdjust="spacing" textLength="132.7739" x="66.79" y="226.2305">with DHT protocol ID</text><polygon fill="#666666" points="70.79,256.2832,60.79,260.2832,70.79,264.2832,66.79,260.2832" style="stroke:#666666;stroke-width:1.0;"/><line style="stroke:#666666;stroke-width:1.0;stroke-dasharray:2.0,2.0;" x1="64.79" x2="741.3901" y1="260.2832" y2="260.2832"/><text fill="#333333" font-family="sans-serif" font-size="13" lengthAdjust="spacing" textLength="114.499" x="76.79" y="255.541">Kademlia instance</text><polygon fill="#666666" points="869.9009,285.5938,879.9009,289.5938,869.9009,293.5938,873.9009,289.5938" style="stroke:#666666;stroke-width:1.0;"/><line style="stroke:#666666;stroke-width:1.0;" x1="59.79" x2="875.9009" y1="289.5938" y2="289.5938"/><text fill="#333333" font-family="sans-serif" font-size="13" lengthAdjust="spacing" textLength="154.3433" x="66.79" y="284.8516">Secure network with PSK</text><polygon fill="#666666" points="70.79,314.9043,60.79,318.9043,70.79,322.9043,66.79,318.9043" style="stroke:#666666;stroke-width:1.0;"/><line style="stroke:#666666;stroke-width:1.0;stroke-dasharray:2.0,2.0;" x1="64.79" x2="885.9009" y1="318.9043" y2="318.9043"/><text fill="#333333" font-family="sans-serif" font-size="13" lengthAdjust="spacing" textLength="104.9204" x="76.79" y="314.1621">Secured network</text><polygon fill="#666666" points="613.0015,344.2148,623.0015,348.2148,613.0015,352.2148,617.0015,348.2148" style="stroke:#666666;stroke-width:1.0;"/><line style="stroke:#666666;stroke-width:1.0;" x1="59.79" x2="619.0015" y1="348.2148" y2="348.2148"/><text fill="#333333" font-family="sans-serif" font-size="13" lengthAdjust="spacing" textLength="217.0645" x="66.79" y="343.4727">Start host with secure connections</text><polygon fill="#666666" points="70.79,373.5254,60.79,377.5254,70.79,381.5254,66.79,377.5254" style="stroke:#666666;stroke-width:1.0;"/><line style="stroke:#666666;stroke-width:1.0;stroke-dasharray:2.0,2.0;" x1="64.79" x2="629.0015" y1="377.5254" y2="377.5254"/><text fill="#333333" font-family="sans-serif" font-size="13" lengthAdjust="spacing" textLength="82.5957" x="76.79" y="372.7832">Host running</text><polygon fill="#666666" points="725.3901,402.8359,735.3901,406.8359,725.3901,410.8359,729.3901,406.8359" style="stroke:#666666;stroke-width:1.0;"/><line style="stroke:#666666;stroke-width:1.0;" x1="59.79" x2="731.3901" y1="406.8359" y2="406.8359"/><text fill="#333333" font-family="sans-serif" font-size="13" lengthAdjust="spacing" textLength="269.915" x="66.79" y="402.0938">Integrate DHT with Host for peer discovery</text><polygon fill="#666666" points="70.79,432.1465,60.79,436.1465,70.79,440.1465,66.79,436.1465" style="stroke:#666666;stroke-width:1.0;"/><line style="stroke:#666666;stroke-width:1.0;stroke-dasharray:2.0,2.0;" x1="64.79" x2="741.3901" y1="436.1465" y2="436.1465"/><text fill="#333333" font-family="sans-serif" font-size="13" lengthAdjust="spacing" textLength="96.4463" x="76.79" y="431.4043">DHT integrated</text><path d="M64,449.1465 L64,474.1465 L377,474.1465 L377,459.1465 L367,449.1465 L64,449.1465 " fill="#FEFFDD" style="stroke:#181818;stroke-width:0.5;"/><path d="M367,449.1465 L367,459.1465 L377,459.1465 L367,449.1465 " fill="#FEFFDD" style="stroke:#181818;stroke-width:0.5;"/><text fill="#333333" font-family="sans-serif" font-size="13" lengthAdjust="spacing" textLength="292.4746" x="70" y="466.7148">Host now running and waiting for connections</text><text fill="#333333" font-family="sans-serif" font-size="10" lengthAdjust="spacing" textLength="155.4346" x="0" y="530.6133">Last Modified On: 24-Feb-2025</text><!--SRC=[fLHTgnen47tFhnWifGgrb5ienOS-LF7UoxssKlieIDpCQd2TB4dMHKh_UoVPJyK7QVEmcqpEd3avarrtq9HBAu-mbSbXPqr1QceoO-7D_EFyotmkN8jGcCeYytD3lePyYgC7aTQQijxy78SGxs26gIQ4hR4AhOEKTsMM0MPuHFAkbyzBxS_mMm1yY-XBBevUgvp58Vw87al22gt9_fU6drudEfVa_urAY3x5O24rmRoWn6j30v0EGkGIysYcnY9C3QLw5p7Lz1BrghVBXoKy6USZfbfVObwamcEc9SoUVaLG4xY4BQq-IO_m7Nrfx066ozNBAEBh7TuG8aeVVwt5JE0HVN2PvuMLuJZWq7jDExUcOVwGRzJURt9hl4bCjj7gFOIWsqkBQdF0SxNU6kETjp9dg3x5CFhamqX8jYYggWzVlM3C2eAI2Vn4NrYwad2IMO5EABnER-LNFarWQZ5i4vQGwIrBWJrRkQR2yH5kixQSjTTr2pf9eHcWoNb92VP5r0cjYAOF4rZnANBeDsfDfVRxC8F6FNYUTSNR7hP9dO0sT4j4czZAwDeRX2I53NvKTo1gu7lGrUtTXMxQgrqHg8QXN_dMDMhwiF9y5QFtLKrNwU064CQlv5xVRK74hRlFzcVokBC14toEXID9-2_bY1QKTeaveJtVPtnWqGsdkkqw6LvQlTjxC6bVEPcoKG-I59HIX-yeYkdx839CWqJciV0gENDXb4urc_w3kTughZSSA3LUB1RZCu_1IFm5]--></g></svg>
