<?xml version="1.0" encoding="us-ascii" standalone="no"?><svg xmlns="http://www.w3.org/2000/svg" xmlns:xlink="http://www.w3.org/1999/xlink" contentStyleType="text/css" height="638px" preserveAspectRatio="none" style="width:812px;height:638px;background:#FFFFFF;" version="1.1" viewBox="0 0 812 638" width="812px" zoomAndPan="magnify"><defs/><g><line style="stroke:#181818;stroke-width:0.5;stroke-dasharray:5.0,5.0;" x1="69" x2="69" y1="67.4883" y2="556.457"/><line style="stroke:#181818;stroke-width:0.5;stroke-dasharray:5.0,5.0;" x1="264" x2="264" y1="67.4883" y2="556.457"/><line style="stroke:#181818;stroke-width:0.5;stroke-dasharray:5.0,5.0;" x1="410" x2="410" y1="67.4883" y2="556.457"/><line style="stroke:#181818;stroke-width:0.5;stroke-dasharray:5.0,5.0;" x1="529" x2="529" y1="67.4883" y2="556.457"/><line style="stroke:#181818;stroke-width:0.5;stroke-dasharray:5.0,5.0;" x1="652" x2="652" y1="67.4883" y2="556.457"/><line style="stroke:#181818;stroke-width:0.5;stroke-dasharray:5.0,5.0;" x1="768" x2="768" y1="67.4883" y2="556.457"/><rect fill="#E2E2F0" height="30.4883" rx="2.5" ry="2.5" style="stroke:#181818;stroke-width:0.5;" width="129" x="5" y="36"/><text fill="#000000" font-family="sans-serif" font-size="14" lengthAdjust="spacing" textLength="115" x="12" y="56.5352">Main Application</text><rect fill="#E2E2F0" height="30.4883" rx="2.5" ry="2.5" style="stroke:#181818;stroke-width:0.5;" width="129" x="5" y="555.457"/><text fill="#000000" font-family="sans-serif" font-size="14" lengthAdjust="spacing" textLength="115" x="12" y="575.9922">Main Application</text><text fill="#000000" font-family="sans-serif" font-size="14" lengthAdjust="spacing" textLength="147" x="188" y="64.5352">Configuration Loader</text><ellipse cx="264.5" cy="35" fill="#E2E2F0" rx="12" ry="12" style="stroke:#181818;stroke-width:0.5;"/><line style="stroke:#181818;stroke-width:0.5;" x1="252.5" x2="276.5" y1="49" y2="49"/><text fill="#000000" font-family="sans-serif" font-size="14" lengthAdjust="spacing" textLength="147" x="188" y="568.9922">Configuration Loader</text><ellipse cx="264.5" cy="587.9453" fill="#E2E2F0" rx="12" ry="12" style="stroke:#181818;stroke-width:0.5;"/><line style="stroke:#181818;stroke-width:0.5;" x1="252.5" x2="276.5" y1="601.9453" y2="601.9453"/><text fill="#000000" font-family="sans-serif" font-size="14" lengthAdjust="spacing" textLength="113" x="351" y="64.5352">Blockchain Store</text><path d="M392.5,15 C392.5,5 410.5,5 410.5,5 C410.5,5 428.5,5 428.5,15 L428.5,41 C428.5,51 410.5,51 410.5,51 C410.5,51 392.5,51 392.5,41 L392.5,15 " fill="#E2E2F0" style="stroke:#181818;stroke-width:1.5;"/><path d="M392.5,15 C392.5,25 410.5,25 410.5,25 C410.5,25 428.5,25 428.5,15 " fill="none" style="stroke:#181818;stroke-width:1.5;"/><text fill="#000000" font-family="sans-serif" font-size="14" lengthAdjust="spacing" textLength="113" x="351" y="568.9922">Blockchain Store</text><path d="M392.5,581.9453 C392.5,571.9453 410.5,571.9453 410.5,571.9453 C410.5,571.9453 428.5,571.9453 428.5,581.9453 L428.5,607.9453 C428.5,617.9453 410.5,617.9453 410.5,617.9453 C410.5,617.9453 392.5,617.9453 392.5,607.9453 L392.5,581.9453 " fill="#E2E2F0" style="stroke:#181818;stroke-width:1.5;"/><path d="M392.5,581.9453 C392.5,591.9453 410.5,591.9453 410.5,591.9453 C410.5,591.9453 428.5,591.9453 428.5,581.9453 " fill="none" style="stroke:#181818;stroke-width:1.5;"/><text fill="#000000" font-family="sans-serif" font-size="14" lengthAdjust="spacing" textLength="93" x="480" y="64.5352">Subtree Store</text><path d="M511.5,15 C511.5,5 529.5,5 529.5,5 C529.5,5 547.5,5 547.5,15 L547.5,41 C547.5,51 529.5,51 529.5,51 C529.5,51 511.5,51 511.5,41 L511.5,15 " fill="#E2E2F0" style="stroke:#181818;stroke-width:1.5;"/><path d="M511.5,15 C511.5,25 529.5,25 529.5,25 C529.5,25 547.5,25 547.5,15 " fill="none" style="stroke:#181818;stroke-width:1.5;"/><text fill="#000000" font-family="sans-serif" font-size="14" lengthAdjust="spacing" textLength="93" x="480" y="568.9922">Subtree Store</text><path d="M511.5,581.9453 C511.5,571.9453 529.5,571.9453 529.5,571.9453 C529.5,571.9453 547.5,571.9453 547.5,581.9453 L547.5,607.9453 C547.5,617.9453 529.5,617.9453 529.5,617.9453 C529.5,617.9453 511.5,617.9453 511.5,607.9453 L511.5,581.9453 " fill="#E2E2F0" style="stroke:#181818;stroke-width:1.5;"/><path d="M511.5,581.9453 C511.5,591.9453 529.5,591.9453 529.5,591.9453 C529.5,591.9453 547.5,591.9453 547.5,581.9453 " fill="none" style="stroke:#181818;stroke-width:1.5;"/><text fill="#000000" font-family="sans-serif" font-size="14" lengthAdjust="spacing" textLength="121" x="589" y="64.5352">Transaction Store</text><path d="M634.5,15 C634.5,5 652.5,5 652.5,5 C652.5,5 670.5,5 670.5,15 L670.5,41 C670.5,51 652.5,51 652.5,51 C652.5,51 634.5,51 634.5,41 L634.5,15 " fill="#E2E2F0" style="stroke:#181818;stroke-width:1.5;"/><path d="M634.5,15 C634.5,25 652.5,25 652.5,25 C652.5,25 670.5,25 670.5,15 " fill="none" style="stroke:#181818;stroke-width:1.5;"/><text fill="#000000" font-family="sans-serif" font-size="14" lengthAdjust="spacing" textLength="121" x="589" y="568.9922">Transaction Store</text><path d="M634.5,581.9453 C634.5,571.9453 652.5,571.9453 652.5,571.9453 C652.5,571.9453 670.5,571.9453 670.5,581.9453 L670.5,607.9453 C670.5,617.9453 652.5,617.9453 652.5,617.9453 C652.5,617.9453 634.5,617.9453 634.5,607.9453 L634.5,581.9453 " fill="#E2E2F0" style="stroke:#181818;stroke-width:1.5;"/><path d="M634.5,581.9453 C634.5,591.9453 652.5,591.9453 652.5,591.9453 C652.5,591.9453 670.5,591.9453 670.5,581.9453 " fill="none" style="stroke:#181818;stroke-width:1.5;"/><text fill="#000000" font-family="sans-serif" font-size="14" lengthAdjust="spacing" textLength="79" x="726" y="64.5352">UTXO Store</text><path d="M750.5,15 C750.5,5 768.5,5 768.5,5 C768.5,5 786.5,5 786.5,15 L786.5,41 C786.5,51 768.5,51 768.5,51 C768.5,51 750.5,51 750.5,41 L750.5,15 " fill="#E2E2F0" style="stroke:#181818;stroke-width:1.5;"/><path d="M750.5,15 C750.5,25 768.5,25 768.5,25 C768.5,25 786.5,25 786.5,15 " fill="none" style="stroke:#181818;stroke-width:1.5;"/><text fill="#000000" font-family="sans-serif" font-size="14" lengthAdjust="spacing" textLength="79" x="726" y="568.9922">UTXO Store</text><path d="M750.5,581.9453 C750.5,571.9453 768.5,571.9453 768.5,571.9453 C768.5,571.9453 786.5,571.9453 786.5,581.9453 L786.5,607.9453 C786.5,617.9453 768.5,617.9453 768.5,617.9453 C768.5,617.9453 750.5,617.9453 750.5,607.9453 L750.5,581.9453 " fill="#E2E2F0" style="stroke:#181818;stroke-width:1.5;"/><path d="M750.5,581.9453 C750.5,591.9453 768.5,591.9453 768.5,591.9453 C768.5,591.9453 786.5,591.9453 786.5,581.9453 " fill="none" style="stroke:#181818;stroke-width:1.5;"/><polygon fill="#181818" points="252.5,94.7988,262.5,98.7988,252.5,102.7988,256.5,98.7988" style="stroke:#181818;stroke-width:1.0;"/><line style="stroke:#181818;stroke-width:1.0;" x1="69.5" x2="258.5" y1="98.7988" y2="98.7988"/><text fill="#000000" font-family="sans-serif" font-size="13" lengthAdjust="spacing" textLength="171" x="76.5" y="94.0566">GetURL("blockchain_store")</text><polygon fill="#181818" points="80.5,124.1094,70.5,128.1094,80.5,132.1094,76.5,128.1094" style="stroke:#181818;stroke-width:1.0;"/><line style="stroke:#181818;stroke-width:1.0;stroke-dasharray:2.0,2.0;" x1="74.5" x2="263.5" y1="128.1094" y2="128.1094"/><text fill="#000000" font-family="sans-serif" font-size="13" lengthAdjust="spacing" textLength="170" x="86.5" y="123.3672">Return blockchainStoreURL</text><polygon fill="#181818" points="398.5,153.4199,408.5,157.4199,398.5,161.4199,402.5,157.4199" style="stroke:#181818;stroke-width:1.0;"/><line style="stroke:#181818;stroke-width:1.0;" x1="69.5" x2="404.5" y1="157.4199" y2="157.4199"/><text fill="#000000" font-family="sans-serif" font-size="13" lengthAdjust="spacing" textLength="214" x="76.5" y="152.6777">Initialize with blockchainStoreURL</text><polygon fill="#181818" points="80.5,182.7305,70.5,186.7305,80.5,190.7305,76.5,186.7305" style="stroke:#181818;stroke-width:1.0;"/><line style="stroke:#181818;stroke-width:1.0;stroke-dasharray:2.0,2.0;" x1="74.5" x2="409.5" y1="186.7305" y2="186.7305"/><text fill="#000000" font-family="sans-serif" font-size="13" lengthAdjust="spacing" textLength="62" x="86.5" y="181.9883">Initialized</text><polygon fill="#181818" points="252.5,212.041,262.5,216.041,252.5,220.041,256.5,216.041" style="stroke:#181818;stroke-width:1.0;"/><line style="stroke:#181818;stroke-width:1.0;" x1="69.5" x2="258.5" y1="216.041" y2="216.041"/><text fill="#000000" font-family="sans-serif" font-size="13" lengthAdjust="spacing" textLength="142" x="76.5" y="211.2988">GetURL("subtreestore")</text><polygon fill="#181818" points="80.5,241.3516,70.5,245.3516,80.5,249.3516,76.5,245.3516" style="stroke:#181818;stroke-width:1.0;"/><line style="stroke:#181818;stroke-width:1.0;stroke-dasharray:2.0,2.0;" x1="74.5" x2="263.5" y1="245.3516" y2="245.3516"/><text fill="#000000" font-family="sans-serif" font-size="13" lengthAdjust="spacing" textLength="142" x="86.5" y="240.6094">Return subtreeStoreUrl</text><polygon fill="#181818" points="517.5,270.6621,527.5,274.6621,517.5,278.6621,521.5,274.6621" style="stroke:#181818;stroke-width:1.0;"/><line style="stroke:#181818;stroke-width:1.0;" x1="69.5" x2="523.5" y1="274.6621" y2="274.6621"/><text fill="#000000" font-family="sans-serif" font-size="13" lengthAdjust="spacing" textLength="186" x="76.5" y="269.9199">Initialize with subtreeStoreUrl</text><polygon fill="#181818" points="80.5,299.9727,70.5,303.9727,80.5,307.9727,76.5,303.9727" style="stroke:#181818;stroke-width:1.0;"/><line style="stroke:#181818;stroke-width:1.0;stroke-dasharray:2.0,2.0;" x1="74.5" x2="528.5" y1="303.9727" y2="303.9727"/><text fill="#000000" font-family="sans-serif" font-size="13" lengthAdjust="spacing" textLength="62" x="86.5" y="299.2305">Initialized</text><polygon fill="#181818" points="252.5,329.2832,262.5,333.2832,252.5,337.2832,256.5,333.2832" style="stroke:#181818;stroke-width:1.0;"/><line style="stroke:#181818;stroke-width:1.0;" x1="69.5" x2="258.5" y1="333.2832" y2="333.2832"/><text fill="#000000" font-family="sans-serif" font-size="13" lengthAdjust="spacing" textLength="108" x="76.5" y="328.541">GetURL("txstore")</text><polygon fill="#181818" points="80.5,358.5938,70.5,362.5938,80.5,366.5938,76.5,362.5938" style="stroke:#181818;stroke-width:1.0;"/><line style="stroke:#181818;stroke-width:1.0;stroke-dasharray:2.0,2.0;" x1="74.5" x2="263.5" y1="362.5938" y2="362.5938"/><text fill="#000000" font-family="sans-serif" font-size="13" lengthAdjust="spacing" textLength="108" x="86.5" y="357.8516">Return txStoreUrl</text><polygon fill="#181818" points="640.5,387.9043,650.5,391.9043,640.5,395.9043,644.5,391.9043" style="stroke:#181818;stroke-width:1.0;"/><line style="stroke:#181818;stroke-width:1.0;" x1="69.5" x2="646.5" y1="391.9043" y2="391.9043"/><text fill="#000000" font-family="sans-serif" font-size="13" lengthAdjust="spacing" textLength="152" x="76.5" y="387.1621">Initialize with txStoreUrl</text><polygon fill="#181818" points="80.5,417.2148,70.5,421.2148,80.5,425.2148,76.5,421.2148" style="stroke:#181818;stroke-width:1.0;"/><line style="stroke:#181818;stroke-width:1.0;stroke-dasharray:2.0,2.0;" x1="74.5" x2="651.5" y1="421.2148" y2="421.2148"/><text fill="#000000" font-family="sans-serif" font-size="13" lengthAdjust="spacing" textLength="62" x="86.5" y="416.4727">Initialized</text><polygon fill="#181818" points="252.5,446.5254,262.5,450.5254,252.5,454.5254,256.5,450.5254" style="stroke:#181818;stroke-width:1.0;"/><line style="stroke:#181818;stroke-width:1.0;" x1="69.5" x2="258.5" y1="450.5254" y2="450.5254"/><text fill="#000000" font-family="sans-serif" font-size="13" lengthAdjust="spacing" textLength="124" x="76.5" y="445.7832">GetURL("utxostore")</text><polygon fill="#181818" points="80.5,475.8359,70.5,479.8359,80.5,483.8359,76.5,479.8359" style="stroke:#181818;stroke-width:1.0;"/><line style="stroke:#181818;stroke-width:1.0;stroke-dasharray:2.0,2.0;" x1="74.5" x2="263.5" y1="479.8359" y2="479.8359"/><text fill="#000000" font-family="sans-serif" font-size="13" lengthAdjust="spacing" textLength="130" x="86.5" y="475.0938">Return utxoStoreURL</text><polygon fill="#181818" points="756.5,505.1465,766.5,509.1465,756.5,513.1465,760.5,509.1465" style="stroke:#181818;stroke-width:1.0;"/><line style="stroke:#181818;stroke-width:1.0;" x1="69.5" x2="762.5" y1="509.1465" y2="509.1465"/><text fill="#000000" font-family="sans-serif" font-size="13" lengthAdjust="spacing" textLength="174" x="76.5" y="504.4043">Initialize with utxoStoreURL</text><polygon fill="#181818" points="80.5,534.457,70.5,538.457,80.5,542.457,76.5,538.457" style="stroke:#181818;stroke-width:1.0;"/><line style="stroke:#181818;stroke-width:1.0;stroke-dasharray:2.0,2.0;" x1="74.5" x2="767.5" y1="538.457" y2="538.457"/><text fill="#000000" font-family="sans-serif" font-size="13" lengthAdjust="spacing" textLength="62" x="86.5" y="533.7148">Initialized</text><text fill="#888888" font-family="sans-serif" font-size="10" lengthAdjust="spacing" textLength="349" x="3" y="628.6133">Last Modified On: 18-June-2024. &#169; 2024 Bitcoin SV. All rights reserved.</text><!--SRC=[dPF1IiD048RlUOfXJtf8qU91UX1Q1L5Q2cqZtcIRJDh1i1js9nfz8r_39pFPb6JRA9RUajdld_bsiycbOOefbuf1p2Gf6ETvHh5aqag0j50N0rHC_07YLgkKDeLnop3LCa7Zg6QXAGI9PBcM5a5CCXs_njkwxvArGSTsnRk9nowBDHj43znLNC43LqOgAsEdqC6hyf2BLizp3wXV6oHm6mrlzgn7S8ySBQPdOjtwlLYNFWzy4C8gMNSOmGAvC0gwWEjVDMad-7iTmOCY9fdH9y8xyVQte1_m9dN9v3zzsvpQSUhME-B8P6rh_-ZxteSfdpvDcilZVBdigUu-VD_IOtVCQMu5b_eukvhiNO7stlKDz_YM-yiomvGXrPghqGAcqZBCT48fOGBp2hwy3XyBXU7mOdWrWEylg1zWGXph-lzx6i0uoy3GPiiM35eqRvWCHF03]--></g></svg>
