<svg xmlns="http://www.w3.org/2000/svg" xmlns:xlink="http://www.w3.org/1999/xlink" contentStyleType="text/css" height="638px" preserveAspectRatio="none" style="width:802px;height:638px;background:#F0F8FF;" version="1.1" viewBox="0 0 802 638" width="802px" zoomAndPan="magnify"><defs/><g><rect fill="#F0F8FF" height="638" style="stroke:none;stroke-width:1.0;" width="802" x="0" y="0"/><line style="stroke:#181818;stroke-width:0.5;stroke-dasharray:5.0,5.0;" x1="68" x2="68" y1="67.4883" y2="556.457"/><line style="stroke:#181818;stroke-width:0.5;stroke-dasharray:5.0,5.0;" x1="263.188" x2="263.188" y1="67.4883" y2="556.457"/><line style="stroke:#181818;stroke-width:0.5;stroke-dasharray:5.0,5.0;" x1="406.3716" x2="406.3716" y1="67.4883" y2="556.457"/><line style="stroke:#181818;stroke-width:0.5;stroke-dasharray:5.0,5.0;" x1="524.0845" x2="524.0845" y1="67.4883" y2="556.457"/><line style="stroke:#181818;stroke-width:0.5;stroke-dasharray:5.0,5.0;" x1="645.0229" x2="645.0229" y1="67.4883" y2="556.457"/><line style="stroke:#181818;stroke-width:0.5;stroke-dasharray:5.0,5.0;" x1="758.9683" x2="758.9683" y1="67.4883" y2="556.457"/><rect fill="#DDDDDD" height="30.4883" rx="2.5" ry="2.5" style="stroke:#666666;stroke-width:0.5;" width="127.8047" x="5" y="36"/><text fill="#333333" font-family="sans-serif" font-size="14" lengthAdjust="spacing" textLength="113.8047" x="12" y="56.5352">Main Application</text><rect fill="#DDDDDD" height="30.4883" rx="2.5" ry="2.5" style="stroke:#666666;stroke-width:0.5;" width="127.8047" x="5" y="555.457"/><text fill="#333333" font-family="sans-serif" font-size="14" lengthAdjust="spacing" textLength="113.8047" x="12" y="575.9922">Main Application</text><text fill="#333333" font-family="sans-serif" font-size="14" lengthAdjust="spacing" textLength="144.1836" x="188.188" y="64.5352">Configuration Loader</text><ellipse cx="263.2798" cy="35" fill="#DDDDDD" rx="12" ry="12" style="stroke:#666666;stroke-width:0.5;"/><line style="stroke:#666666;stroke-width:0.5;" x1="251.2798" x2="275.2798" y1="49" y2="49"/><text fill="#333333" font-family="sans-serif" font-size="14" lengthAdjust="spacing" textLength="144.1836" x="188.188" y="568.9922">Configuration Loader</text><ellipse cx="263.2798" cy="587.9453" fill="#DDDDDD" rx="12" ry="12" style="stroke:#666666;stroke-width:0.5;"/><line style="stroke:#666666;stroke-width:0.5;" x1="251.2798" x2="275.2798" y1="601.9453" y2="601.9453"/><text fill="#333333" font-family="sans-serif" font-size="14" lengthAdjust="spacing" textLength="111.7129" x="348.3716" y="64.5352">Blockchain Store</text><path d="M389.228,15 C389.228,5 407.228,5 407.228,5 C407.228,5 425.228,5 425.228,15 L425.228,41 C425.228,51 407.228,51 407.228,51 C407.228,51 389.228,51 389.228,41 L389.228,15 " fill="#E2E2F0" style="stroke:#181818;stroke-width:1.5;"/><path d="M389.228,15 C389.228,25 407.228,25 407.228,25 C407.228,25 425.228,25 425.228,15 " fill="none" style="stroke:#181818;stroke-width:1.5;"/><text fill="#333333" font-family="sans-serif" font-size="14" lengthAdjust="spacing" textLength="111.7129" x="348.3716" y="568.9922">Blockchain Store</text><path d="M389.228,581.9453 C389.228,571.9453 407.228,571.9453 407.228,571.9453 C407.228,571.9453 425.228,571.9453 425.228,581.9453 L425.228,607.9453 C425.228,617.9453 407.228,617.9453 407.228,617.9453 C407.228,617.9453 389.228,617.9453 389.228,607.9453 L389.228,581.9453 " fill="#E2E2F0" style="stroke:#181818;stroke-width:1.5;"/><path d="M389.228,581.9453 C389.228,591.9453 407.228,591.9453 407.228,591.9453 C407.228,591.9453 425.228,591.9453 425.228,581.9453 " fill="none" style="stroke:#181818;stroke-width:1.5;"/><text fill="#333333" font-family="sans-serif" font-size="14" lengthAdjust="spacing" textLength="90.9385" x="476.0845" y="64.5352">Subtree Store</text><path d="M506.5537,15 C506.5537,5 524.5537,5 524.5537,5 C524.5537,5 542.5537,5 542.5537,15 L542.5537,41 C542.5537,51 524.5537,51 524.5537,51 C524.5537,51 506.5537,51 506.5537,41 L506.5537,15 " fill="#E2E2F0" style="stroke:#181818;stroke-width:1.5;"/><path d="M506.5537,15 C506.5537,25 524.5537,25 524.5537,25 C524.5537,25 542.5537,25 542.5537,15 " fill="none" style="stroke:#181818;stroke-width:1.5;"/><text fill="#333333" font-family="sans-serif" font-size="14" lengthAdjust="spacing" textLength="90.9385" x="476.0845" y="568.9922">Subtree Store</text><path d="M506.5537,581.9453 C506.5537,571.9453 524.5537,571.9453 524.5537,571.9453 C524.5537,571.9453 542.5537,571.9453 542.5537,581.9453 L542.5537,607.9453 C542.5537,617.9453 524.5537,617.9453 524.5537,617.9453 C524.5537,617.9453 506.5537,617.9453 506.5537,607.9453 L506.5537,581.9453 " fill="#E2E2F0" style="stroke:#181818;stroke-width:1.5;"/><path d="M506.5537,581.9453 C506.5537,591.9453 524.5537,591.9453 524.5537,591.9453 C524.5537,591.9453 542.5537,591.9453 542.5537,581.9453 " fill="none" style="stroke:#181818;stroke-width:1.5;"/><text fill="#333333" font-family="sans-serif" font-size="14" lengthAdjust="spacing" textLength="118.9453" x="583.0229" y="64.5352">Transaction Store</text><path d="M627.4956,15 C627.4956,5 645.4956,5 645.4956,5 C645.4956,5 663.4956,5 663.4956,15 L663.4956,41 C663.4956,51 645.4956,51 645.4956,51 C645.4956,51 627.4956,51 627.4956,41 L627.4956,15 " fill="#E2E2F0" style="stroke:#181818;stroke-width:1.5;"/><path d="M627.4956,15 C627.4956,25 645.4956,25 645.4956,25 C645.4956,25 663.4956,25 663.4956,15 " fill="none" style="stroke:#181818;stroke-width:1.5;"/><text fill="#333333" font-family="sans-serif" font-size="14" lengthAdjust="spacing" textLength="118.9453" x="583.0229" y="568.9922">Transaction Store</text><path d="M627.4956,581.9453 C627.4956,571.9453 645.4956,571.9453 645.4956,571.9453 C645.4956,571.9453 663.4956,571.9453 663.4956,581.9453 L663.4956,607.9453 C663.4956,617.9453 645.4956,617.9453 645.4956,617.9453 C645.4956,617.9453 627.4956,617.9453 627.4956,607.9453 L627.4956,581.9453 " fill="#E2E2F0" style="stroke:#181818;stroke-width:1.5;"/><path d="M627.4956,581.9453 C627.4956,591.9453 645.4956,591.9453 645.4956,591.9453 C645.4956,591.9453 663.4956,591.9453 663.4956,581.9453 " fill="none" style="stroke:#181818;stroke-width:1.5;"/><text fill="#333333" font-family="sans-serif" font-size="14" lengthAdjust="spacing" textLength="77.5264" x="717.9683" y="64.5352">UTXO Store</text><path d="M741.7314,15 C741.7314,5 759.7314,5 759.7314,5 C759.7314,5 777.7314,5 777.7314,15 L777.7314,41 C777.7314,51 759.7314,51 759.7314,51 C759.7314,51 741.7314,51 741.7314,41 L741.7314,15 " fill="#E2E2F0" style="stroke:#181818;stroke-width:1.5;"/><path d="M741.7314,15 C741.7314,25 759.7314,25 759.7314,25 C759.7314,25 777.7314,25 777.7314,15 " fill="none" style="stroke:#181818;stroke-width:1.5;"/><text fill="#333333" font-family="sans-serif" font-size="14" lengthAdjust="spacing" textLength="77.5264" x="717.9683" y="568.9922">UTXO Store</text><path d="M741.7314,581.9453 C741.7314,571.9453 759.7314,571.9453 759.7314,571.9453 C759.7314,571.9453 777.7314,571.9453 777.7314,581.9453 L777.7314,607.9453 C777.7314,617.9453 759.7314,617.9453 759.7314,617.9453 C759.7314,617.9453 741.7314,617.9453 741.7314,607.9453 L741.7314,581.9453 " fill="#E2E2F0" style="stroke:#181818;stroke-width:1.5;"/><path d="M741.7314,581.9453 C741.7314,591.9453 759.7314,591.9453 759.7314,591.9453 C759.7314,591.9453 777.7314,591.9453 777.7314,581.9453 " fill="none" style="stroke:#181818;stroke-width:1.5;"/><polygon fill="#666666" points="251.2798,94.7988,261.2798,98.7988,251.2798,102.7988,255.2798,98.7988" style="stroke:#666666;stroke-width:1.0;"/><line style="stroke:#666666;stroke-width:1.0;" x1="68.9023" x2="257.2798" y1="98.7988" y2="98.7988"/><text fill="#333333" font-family="sans-serif" font-size="13" lengthAdjust="spacing" textLength="170.2759" x="75.9023" y="94.0566">GetURL("blockchain_store")</text><polygon fill="#666666" points="79.9023,124.1094,69.9023,128.1094,79.9023,132.1094,75.9023,128.1094" style="stroke:#666666;stroke-width:1.0;"/><line style="stroke:#666666;stroke-width:1.0;stroke-dasharray:2.0,2.0;" x1="73.9023" x2="262.2798" y1="128.1094" y2="128.1094"/><text fill="#333333" font-family="sans-serif" font-size="13" lengthAdjust="spacing" textLength="170.3774" x="85.9023" y="123.3672">Return blockchainStoreURL</text><polygon fill="#666666" points="395.228,153.4199,405.228,157.4199,395.228,161.4199,399.228,157.4199" style="stroke:#666666;stroke-width:1.0;"/><line style="stroke:#666666;stroke-width:1.0;" x1="68.9023" x2="401.228" y1="157.4199" y2="157.4199"/><text fill="#333333" font-family="sans-serif" font-size="13" lengthAdjust="spacing" textLength="212.9956" x="75.9023" y="152.6777">Initialize with blockchainStoreURL</text><polygon fill="#666666" points="79.9023,182.7305,69.9023,186.7305,79.9023,190.7305,75.9023,186.7305" style="stroke:#666666;stroke-width:1.0;"/><line style="stroke:#666666;stroke-width:1.0;stroke-dasharray:2.0,2.0;" x1="73.9023" x2="406.228" y1="186.7305" y2="186.7305"/><text fill="#333333" font-family="sans-serif" font-size="13" lengthAdjust="spacing" textLength="61.7627" x="85.9023" y="181.9883">Initialized</text><polygon fill="#666666" points="251.2798,212.041,261.2798,216.041,251.2798,220.041,255.2798,216.041" style="stroke:#666666;stroke-width:1.0;"/><line style="stroke:#666666;stroke-width:1.0;" x1="68.9023" x2="257.2798" y1="216.041" y2="216.041"/><text fill="#333333" font-family="sans-serif" font-size="13" lengthAdjust="spacing" textLength="143.4063" x="75.9023" y="211.2988">GetURL("subtreestore")</text><polygon fill="#666666" points="79.9023,241.3516,69.9023,245.3516,79.9023,249.3516,75.9023,245.3516" style="stroke:#666666;stroke-width:1.0;"/><line style="stroke:#666666;stroke-width:1.0;stroke-dasharray:2.0,2.0;" x1="73.9023" x2="262.2798" y1="245.3516" y2="245.3516"/><text fill="#333333" font-family="sans-serif" font-size="13" lengthAdjust="spacing" textLength="143.9331" x="85.9023" y="240.6094">Return subtreeStoreUrl</text><polygon fill="#666666" points="512.5537,270.6621,522.5537,274.6621,512.5537,278.6621,516.5537,274.6621" style="stroke:#666666;stroke-width:1.0;"/><line style="stroke:#666666;stroke-width:1.0;" x1="68.9023" x2="518.5537" y1="274.6621" y2="274.6621"/><text fill="#333333" font-family="sans-serif" font-size="13" lengthAdjust="spacing" textLength="186.5513" x="75.9023" y="269.9199">Initialize with subtreeStoreUrl</text><polygon fill="#666666" points="79.9023,299.9727,69.9023,303.9727,79.9023,307.9727,75.9023,303.9727" style="stroke:#666666;stroke-width:1.0;"/><line style="stroke:#666666;stroke-width:1.0;stroke-dasharray:2.0,2.0;" x1="73.9023" x2="523.5537" y1="303.9727" y2="303.9727"/><text fill="#333333" font-family="sans-serif" font-size="13" lengthAdjust="spacing" textLength="61.7627" x="85.9023" y="299.2305">Initialized</text><polygon fill="#666666" points="251.2798,329.2832,261.2798,333.2832,251.2798,337.2832,255.2798,333.2832" style="stroke:#666666;stroke-width:1.0;"/><line style="stroke:#666666;stroke-width:1.0;" x1="68.9023" x2="257.2798" y1="333.2832" y2="333.2832"/><text fill="#333333" font-family="sans-serif" font-size="13" lengthAdjust="spacing" textLength="108.6973" x="75.9023" y="328.541">GetURL("txstore")</text><polygon fill="#666666" points="79.9023,358.5938,69.9023,362.5938,79.9023,366.5938,75.9023,362.5938" style="stroke:#666666;stroke-width:1.0;"/><line style="stroke:#666666;stroke-width:1.0;stroke-dasharray:2.0,2.0;" x1="73.9023" x2="262.2798" y1="362.5938" y2="362.5938"/><text fill="#333333" font-family="sans-serif" font-size="13" lengthAdjust="spacing" textLength="109.2241" x="85.9023" y="357.8516">Return txStoreUrl</text><polygon fill="#666666" points="633.4956,387.9043,643.4956,391.9043,633.4956,395.9043,637.4956,391.9043" style="stroke:#666666;stroke-width:1.0;"/><line style="stroke:#666666;stroke-width:1.0;" x1="68.9023" x2="639.4956" y1="391.9043" y2="391.9043"/><text fill="#333333" font-family="sans-serif" font-size="13" lengthAdjust="spacing" textLength="151.8423" x="75.9023" y="387.1621">Initialize with txStoreUrl</text><polygon fill="#666666" points="79.9023,417.2148,69.9023,421.2148,79.9023,425.2148,75.9023,421.2148" style="stroke:#666666;stroke-width:1.0;"/><line style="stroke:#666666;stroke-width:1.0;stroke-dasharray:2.0,2.0;" x1="73.9023" x2="644.4956" y1="421.2148" y2="421.2148"/><text fill="#333333" font-family="sans-serif" font-size="13" lengthAdjust="spacing" textLength="61.7627" x="85.9023" y="416.4727">Initialized</text><polygon fill="#666666" points="251.2798,446.5254,261.2798,450.5254,251.2798,454.5254,255.2798,450.5254" style="stroke:#666666;stroke-width:1.0;"/><line style="stroke:#666666;stroke-width:1.0;" x1="68.9023" x2="257.2798" y1="450.5254" y2="450.5254"/><text fill="#333333" font-family="sans-serif" font-size="13" lengthAdjust="spacing" textLength="124.7505" x="75.9023" y="445.7832">GetURL("utxostore")</text><polygon fill="#666666" points="79.9023,475.8359,69.9023,479.8359,79.9023,483.8359,75.9023,479.8359" style="stroke:#666666;stroke-width:1.0;"/><line style="stroke:#666666;stroke-width:1.0;stroke-dasharray:2.0,2.0;" x1="73.9023" x2="262.2798" y1="479.8359" y2="479.8359"/><text fill="#333333" font-family="sans-serif" font-size="13" lengthAdjust="spacing" textLength="131.3521" x="85.9023" y="475.0938">Return utxoStoreURL</text><polygon fill="#666666" points="747.7314,505.1465,757.7314,509.1465,747.7314,513.1465,751.7314,509.1465" style="stroke:#666666;stroke-width:1.0;"/><line style="stroke:#666666;stroke-width:1.0;" x1="68.9023" x2="753.7314" y1="509.1465" y2="509.1465"/><text fill="#333333" font-family="sans-serif" font-size="13" lengthAdjust="spacing" textLength="173.9702" x="75.9023" y="504.4043">Initialize with utxoStoreURL</text><polygon fill="#666666" points="79.9023,534.457,69.9023,538.457,79.9023,542.457,75.9023,538.457" style="stroke:#666666;stroke-width:1.0;"/><line style="stroke:#666666;stroke-width:1.0;stroke-dasharray:2.0,2.0;" x1="73.9023" x2="758.7314" y1="538.457" y2="538.457"/><text fill="#333333" font-family="sans-serif" font-size="13" lengthAdjust="spacing" textLength="61.7627" x="85.9023" y="533.7148">Initialized</text><text fill="#333333" font-family="sans-serif" font-size="10" lengthAdjust="spacing" textLength="155.4346" x="0" y="628.6133">Last Modified On: 24-Feb-2025</text><!--SRC=[fPH1Q-Cm48Nl-XM3ozBs42WiB4iEXQR1fH1JQ1FehOojSIkYIa4QqtIN_lVAYd6KkCk6T0u6ZxxtvaaMzajbLkZm5Kgibi_EDaPUMsqTdEGN-Uyy5xud9DNOQCwjuGxv6Ij1q3dxrYt-YYN4AKofLeQWj4wIyr27LTGQIDCh6VQ9FhmgVeU_0c0IwLslqDrFEOqbFaJYKeM4pkhlseGdgqgjqF1nLg5IZwn0PU1gjTAgGbRMP80UsgRezfrTMrEhvyR5PPXP30CZjLdOD8H4nX8zGJRHjbfMBwtl0rj7aTqsfvE4VMXATaG9s7LY8m7d3et7AaROmlFrFhUOFzubGFkwGKJSwEXo9_KOReWNzxEphEppFVceFXSf2AEWR1t6S4_SE0DRGVGF9ls4TAzZk3MA5MhrX-1DySjNmbIGJDegvV_Y-ysf7HRT9qUySBgtJez-c7jVbTB7XURrONbvFOZQVVXXoeJjcEEoDRosXwLhoS4LwE_TCE4EttF_Igcfvl1piXn6pz0p55QgMf64ku3-21UVpZ8fHqLHZDv3XRYV]--></g></svg>
