<svg contentStyleType="text/css" height="491" preserveAspectRatio="none" viewBox="0 0 534 491" width="534" xmlns="http://www.w3.org/2000/svg" zoomAndPan="magnify"><path d="m10 113.2871h507.5v309.7051h-507.5z" fill="none" stroke="#000" stroke-width="1.5"/><path d="m20 222.2188h487.5v193.7734h-487.5z" fill="none" stroke="#000" stroke-width="1.5"/><path d="m61 52.9766v387.0156" stroke="#181818" stroke-dasharray="5 5" stroke-width=".5"/><path d="m448.5 52.9766v387.0156" stroke="#181818" stroke-dasharray="5 5" stroke-width=".5"/><rect fill="#e2e2f0" height="30.4883" rx="2.5" stroke="#181818" stroke-width=".5" width="63" x="30" y="21.4883"/><text font-family="sans-serif" font-size="14" lengthAdjust="spacing" textLength="49" x="37" y="42.0234">Worker</text><rect fill="#e2e2f0" height="30.4883" rx="2.5" stroke="#181818" stroke-width=".5" width="63" x="30" y="438.9922"/><text font-family="sans-serif" font-size="14" lengthAdjust="spacing" textLength="49" x="37" y="459.5273">Worker</text><rect fill="#e2e2f0" height="46.9766" rx="2.5" stroke="#181818" stroke-width=".5" width="98" x="399.5" y="5"/><text font-family="sans-serif" font-size="14" lengthAdjust="spacing" textLength="84" x="406.5" y="25.5352">Propagation</text><text font-family="sans-serif" font-size="14" lengthAdjust="spacing" textLength="48" x="424.5" y="42.0234">Service</text><rect fill="#e2e2f0" height="46.9766" rx="2.5" stroke="#181818" stroke-width=".5" width="98" x="399.5" y="438.9922"/><text font-family="sans-serif" font-size="14" lengthAdjust="spacing" textLength="84" x="406.5" y="459.5273">Propagation</text><text font-family="sans-serif" font-size="14" lengthAdjust="spacing" textLength="48" x="424.5" y="476.0156">Service</text><path d="m0 83.6318h527.5v3h-527.5z" fill="#eee" stroke="#eee"/><path d="m0 83.6318h527.5" stroke="#000"/><path d="m0 86.6318h527.5" stroke="#000"/><path d="m212.25 72.9766h103v23.3105h-103z" fill="#eee" stroke="#000" stroke-width="2"/><text font-family="sans-serif" font-size="13" font-weight="bold" lengthAdjust="spacing" textLength="85" x="218.25" y="89.5449">Worker Loop</text><path d="m10 113.2871h74v7.3106l-10 10h-64z" fill="#eee" stroke="#000" stroke-width="1.5"/><path d="m10 113.2871h507.5v309.7051h-507.5z" fill="none" stroke="#000" stroke-width="1.5"/><text font-family="sans-serif" font-size="13" font-weight="bold" lengthAdjust="spacing" textLength="29" x="25" y="126.8555">loop</text><text font-family="sans-serif" font-size="11" font-weight="bold" lengthAdjust="spacing" textLength="104" x="99" y="125.9219">[Each Transaction]</text><g stroke="#181818"><path d="m61.5 151.9082h42"/><path d="m103.5 151.9082v13"/><path d="m62.5 164.9082h41"/><path d="m72.5 160.9082-10 4 10 4-4-4z" fill="#181818"/></g><text font-family="sans-serif" font-size="13" lengthAdjust="spacing" textLength="159" x="68.5" y="147.166">Generate new transaction</text><path d="m61.5 194.2188h42" stroke="#181818"/><path d="m103.5 194.2188v13" stroke="#181818"/><path d="m62.5 207.2188h41" stroke="#181818"/><path d="m72.5 203.2188-10 4 10 4-4-4z" fill="#181818" stroke="#181818"/><text font-family="sans-serif" font-size="13" lengthAdjust="spacing" textLength="102" x="68.5" y="189.4766">Sign transaction</text><path d="m20 222.2188h62v7.3105l-10 10h-52z" fill="#eee" stroke="#000" stroke-width="1.5"/><path d="m20 222.2188h487.5v193.7734h-487.5z" fill="none" stroke="#000" stroke-width="1.5"/><text font-family="sans-serif" font-size="13" font-weight="bold" lengthAdjust="spacing" textLength="17" x="35" y="235.7871">alt</text><text font-family="sans-serif" font-size="11" font-weight="bold" lengthAdjust="spacing" textLength="169" x="97" y="234.8535">[Broadcast Protocol is Stream]</text><path d="m436.5 256.8398 10 4-10 4 4-4z" fill="#181818" stroke="#181818"/><path d="m61.5 260.8398h381" stroke="#181818"/><text font-family="sans-serif" font-size="13" lengthAdjust="spacing" textLength="246" x="68.5" y="256.0977">ProcessTransaction(tx.ExtendedBytes())</text><path d="m20 269.8398h487.5" stroke="#000" stroke-dasharray="2 2"/><text font-family="sans-serif" font-size="11" font-weight="bold" lengthAdjust="spacing" textLength="163" x="25" y="280.4746">[Broadcast Protocol is HTTP]</text><path d="m436.5 301.1055 10 4-10 4 4-4z" fill="#181818" stroke="#181818"/><path d="m61.5 305.1055h381" stroke="#181818"/><text font-family="sans-serif" font-size="13" lengthAdjust="spacing" textLength="363" x="68.5" y="300.3633">sendToPropagationServer(ctx, logger, tx.ExtendedBytes());</text><path d="m72.5 330.416-10 4 10 4-4-4z" fill="#181818" stroke="#181818"/><path d="m66.5 334.416h381" stroke="#181818" stroke-dasharray="2 2"/><text font-family="sans-serif" font-size="13" lengthAdjust="spacing" textLength="94" x="78.5" y="329.6738">HTTP response</text><path d="m20 343.416h487.5" stroke="#000" stroke-dasharray="2 2"/><text font-family="sans-serif" font-size="11" font-weight="bold" lengthAdjust="spacing" textLength="161" x="25" y="354.0508">[Broadcast Protocol is gRPC]</text><path d="m436.5 374.6816 10 4-10 4 4-4z" fill="#181818" stroke="#181818"/><path d="m61.5 378.6816h381" stroke="#181818"/><text font-family="sans-serif" font-size="13" lengthAdjust="spacing" textLength="363" x="68.5" y="373.9395">sendToPropagationServer(ctx, logger, tx.ExtendedBytes());</text><path d="m72.5 403.9922-10 4 10 4-4-4z" fill="#181818" stroke="#181818"/><path d="m66.5 407.9922h381" stroke="#181818" stroke-dasharray="2 2"/><text font-family="sans-serif" font-size="13" lengthAdjust="spacing" textLength="93" x="78.5" y="403.25">gRPC response</text></svg>
