<svg contentStyleType="text/css" height="903" preserveAspectRatio="none" viewBox="0 0 556 903" width="556" xmlns="http://www.w3.org/2000/svg" zoomAndPan="magnify"><g fill="none"><path d="m30 230.5293h306v59.6211h-306z" stroke="#000" stroke-width="1.5"/><path d="m10 347.4609h529.5v354.0605h-529.5z" stroke="#000" stroke-width="1.5"/><path d="m20 414.082h509.5v206.8184h-509.5z" stroke="#000" stroke-width="1.5"/><path d="m30 497.0137h306v59.6211h-306z" stroke="#000" stroke-width="1.5"/><path d="m30 634.9004h213v59.6211h-213z" stroke="#000" stroke-width="1.5"/><path d="m30 758.832h272.5v59.6211h-272.5z" stroke="#000" stroke-width="1.5"/></g><path d="m71 52.9766v782.4765" stroke="#181818" stroke-dasharray="5 5" stroke-width=".5"/><path d="m372.5 52.9766v782.4765" stroke="#181818" stroke-dasharray="5 5" stroke-width=".5"/><path d="m470.5 52.9766v782.4765" stroke="#181818" stroke-dasharray="5 5" stroke-width=".5"/><rect fill="#e2e2f0" height="30.4883" rx="2.5" stroke="#181818" stroke-width=".5" width="63" x="40" y="21.4883"/><text font-family="sans-serif" font-size="14" lengthAdjust="spacing" textLength="49" x="47" y="42.0234">Worker</text><rect fill="#e2e2f0" height="30.4883" rx="2.5" stroke="#181818" stroke-width=".5" width="63" x="40" y="834.4531"/><text font-family="sans-serif" font-size="14" lengthAdjust="spacing" textLength="49" x="47" y="854.9883">Worker</text><rect fill="#e2e2f0" height="46.9766" rx="2.5" stroke="#181818" stroke-width=".5" width="78" x="333.5" y="5"/><text font-family="sans-serif" font-size="14" lengthAdjust="spacing" textLength="64" x="340.5" y="25.5352">Coinbase</text><text font-family="sans-serif" font-size="14" lengthAdjust="spacing" textLength="48" x="348.5" y="42.0234">Service</text><rect fill="#e2e2f0" height="46.9766" rx="2.5" stroke="#181818" stroke-width=".5" width="78" x="333.5" y="834.4531"/><text font-family="sans-serif" font-size="14" lengthAdjust="spacing" textLength="64" x="340.5" y="854.9883">Coinbase</text><text font-family="sans-serif" font-size="14" lengthAdjust="spacing" textLength="48" x="348.5" y="871.4766">Service</text><rect fill="#e2e2f0" height="46.9766" rx="2.5" stroke="#181818" stroke-width=".5" width="98" x="421.5" y="5"/><text font-family="sans-serif" font-size="14" lengthAdjust="spacing" textLength="84" x="428.5" y="25.5352">Propagation</text><text font-family="sans-serif" font-size="14" lengthAdjust="spacing" textLength="48" x="446.5" y="42.0234">Service</text><rect fill="#e2e2f0" height="46.9766" rx="2.5" stroke="#181818" stroke-width=".5" width="98" x="421.5" y="834.4531"/><text font-family="sans-serif" font-size="14" lengthAdjust="spacing" textLength="84" x="428.5" y="854.9883">Propagation</text><text font-family="sans-serif" font-size="14" lengthAdjust="spacing" textLength="48" x="446.5" y="871.4766">Service</text><path d="m0 83.6318h549.5v3h-549.5z" fill="#eee" stroke="#eee"/><path d="m0 83.6318h549.5" stroke="#000"/><path d="m0 86.6318h549.5" stroke="#000"/><path d="m179.75 72.9766h190v23.3105h-190z" fill="#eee" stroke="#000" stroke-width="2"/><text font-family="sans-serif" font-size="13" font-weight="bold" lengthAdjust="spacing" textLength="172" x="185.75" y="89.5449">Worker Initialization (Init)</text><path d="m360.5 123.5977 10 4-10 4 4-4z" fill="#181818" stroke="#181818"/><path d="m71.5 127.5977h295" stroke="#181818"/><text font-family="sans-serif" font-size="13" lengthAdjust="spacing" textLength="130" x="78.5" y="122.8555">Request initial funds</text><path d="m82.5 152.9082-10 4 10 4-4-4z" fill="#181818" stroke="#181818"/><path d="m76.5 156.9082h295" stroke="#181818"/><text font-family="sans-serif" font-size="13" lengthAdjust="spacing" textLength="277" x="88.5" y="152.166">Provide TX out of existing spendable UTXOs</text><path d="m458.5 182.2188 10 4-10 4 4-4z" fill="#181818" stroke="#181818"/><path d="m71.5 186.2188h393" stroke="#181818"/><text font-family="sans-serif" font-size="13" lengthAdjust="spacing" textLength="219" x="78.5" y="181.4766">Send TX to the propagation service</text><path d="m82.5 211.5293-10 4 10 4-4-4z" fill="#181818" stroke="#181818"/><path d="m76.5 215.5293h393" stroke="#181818" stroke-dasharray="2 2"/><text font-family="sans-serif" font-size="13" lengthAdjust="spacing" textLength="56" x="88.5" y="210.7871">OK, error</text><path d="m30 230.5293h74v7.3105l-10 10h-64z" fill="#eee" stroke="#000" stroke-width="1.5"/><path d="m30 230.5293h306v59.6211h-306z" fill="none" stroke="#000" stroke-width="1.5"/><text font-family="sans-serif" font-size="13" font-weight="bold" lengthAdjust="spacing" textLength="29" x="45" y="244.0977">loop</text><text font-family="sans-serif" font-size="11" font-weight="bold" lengthAdjust="spacing" textLength="212" x="119" y="243.1641">[For each UTXO output in the sent Tx]</text><path d="m71.5 269.1504h42" stroke="#181818"/><path d="m113.5 269.1504v13" stroke="#181818"/><path d="m72.5 282.1504h41" stroke="#181818"/><path d="m82.5 278.1504-10 4 10 4-4-4z" fill="#181818" stroke="#181818"/><text font-family="sans-serif" font-size="13" lengthAdjust="spacing" textLength="238" x="78.5" y="264.4082">Add UTXO to queue for Tx processing</text><path d="m0 317.8057h549.5v3h-549.5z" fill="#eee" stroke="#eee"/><path d="m0 317.8057h549.5" stroke="#000"/><path d="m0 320.8057h549.5" stroke="#000"/><path d="m187.25 307.1504h175v23.3105h-175z" fill="#eee" stroke="#000" stroke-width="2"/><text font-family="sans-serif" font-size="13" font-weight="bold" lengthAdjust="spacing" textLength="157" x="193.25" y="323.7188">Transaction Processing</text><path d="m10 347.4609h74v7.3106l-10 10h-64z" fill="#eee" stroke="#000" stroke-width="1.5"/><path d="m10 347.4609h529.5v354.0605h-529.5z" fill="none" stroke="#000" stroke-width="1.5"/><text font-family="sans-serif" font-size="13" font-weight="bold" lengthAdjust="spacing" textLength="29" x="25" y="361.0293">loop</text><text font-family="sans-serif" font-size="11" font-weight="bold" lengthAdjust="spacing" textLength="170" x="99" y="360.0957">[Transaction Processing Loop]</text><path d="m71.5 386.082h42" stroke="#181818"/><path d="m113.5 386.082v13" stroke="#181818"/><path d="m72.5 399.082h41" stroke="#181818"/><path d="m82.5 395.082-10 4 10 4-4-4z" fill="#181818" stroke="#181818"/><text font-family="sans-serif" font-size="13" lengthAdjust="spacing" textLength="232" x="78.5" y="381.3398">Generate new transaction from UTXO</text><path d="m20 414.082h62v7.3106l-10 10h-52z" fill="#eee" stroke="#000" stroke-width="1.5"/><path d="m20 414.082h509.5v206.8184h-509.5z" fill="none" stroke="#000" stroke-width="1.5"/><text font-family="sans-serif" font-size="13" font-weight="bold" lengthAdjust="spacing" textLength="17" x="35" y="427.6504">alt</text><text font-family="sans-serif" font-size="11" font-weight="bold" lengthAdjust="spacing" textLength="201" x="97" y="426.7168">[Successful Transaction Generation]</text><path d="m458.5 448.7031 10 4-10 4 4-4z" fill="#181818" stroke="#181818"/><path d="m71.5 452.7031h393" stroke="#181818"/><text font-family="sans-serif" font-size="13" lengthAdjust="spacing" textLength="105" x="78.5" y="447.9609">Send transaction</text><path d="m82.5 478.0137-10 4 10 4-4-4z" fill="#181818" stroke="#181818"/><path d="m76.5 482.0137h393" stroke="#181818" stroke-dasharray="2 2"/><text font-family="sans-serif" font-size="13" lengthAdjust="spacing" textLength="56" x="88.5" y="477.2715">OK, error</text><path d="m30 497.0137h74v7.3105l-10 10h-64z" fill="#eee" stroke="#000" stroke-width="1.5"/><path d="m30 497.0137h306v59.6211h-306z" fill="none" stroke="#000" stroke-width="1.5"/><text font-family="sans-serif" font-size="13" font-weight="bold" lengthAdjust="spacing" textLength="29" x="45" y="510.582">loop</text><text font-family="sans-serif" font-size="11" font-weight="bold" lengthAdjust="spacing" textLength="212" x="119" y="509.6484">[For each UTXO output in the sent Tx]</text><path d="m71.5 535.6348h42" stroke="#181818"/><path d="m113.5 535.6348v13" stroke="#181818"/><path d="m72.5 548.6348h41" stroke="#181818"/><path d="m82.5 544.6348-10 4 10 4-4-4z" fill="#181818" stroke="#181818"/><text font-family="sans-serif" font-size="13" lengthAdjust="spacing" textLength="238" x="78.5" y="530.8926">Add UTXO to queue for Tx processing</text><path d="m20 564.6348h509.5" stroke="#000" stroke-dasharray="2 2"/><text font-family="sans-serif" font-size="11" font-weight="bold" lengthAdjust="spacing" textLength="186" x="25" y="575.2695">[Error in Transaction Generation]</text><path d="m71.5 599.9004h42" stroke="#181818"/><path d="m113.5 599.9004v13" stroke="#181818"/><path d="m72.5 612.9004h41" stroke="#181818"/><path d="m82.5 608.9004-10 4 10 4-4-4z" fill="#181818" stroke="#181818"/><text font-family="sans-serif" font-size="13" lengthAdjust="spacing" textLength="57" x="78.5" y="595.1582">Log error</text><path d="m30 634.9004h62v7.3105l-10 10h-52z" fill="#eee" stroke="#000" stroke-width="1.5"/><path d="m30 634.9004h213v59.6211h-213z" fill="none" stroke="#000" stroke-width="1.5"/><text font-family="sans-serif" font-size="13" font-weight="bold" lengthAdjust="spacing" textLength="17" x="45" y="648.4688">alt</text><text font-family="sans-serif" font-size="11" font-weight="bold" lengthAdjust="spacing" textLength="131" x="107" y="647.5352">[Rate Limiting Enabled]</text><path d="m71.5 673.5215h42" stroke="#181818"/><path d="m113.5 673.5215v13" stroke="#181818"/><path d="m72.5 686.5215h41" stroke="#181818"/><path d="m82.5 682.5215-10 4 10 4-4-4z" fill="#181818" stroke="#181818"/><text font-family="sans-serif" font-size="13" lengthAdjust="spacing" textLength="149" x="78.5" y="668.7793">Wait based on rate limit</text><path d="m0 729.1768h549.5v3h-549.5z" fill="#eee" stroke="#eee"/><path d="m0 729.1768h549.5" stroke="#000"/><path d="m0 732.1768h549.5" stroke="#000"/><path d="m232.25 718.5215h85v23.3105h-85z" fill="#eee" stroke="#000" stroke-width="2"/><text font-family="sans-serif" font-size="13" font-weight="bold" lengthAdjust="spacing" textLength="67" x="238.25" y="735.0898">Shutdown</text><path d="m30 758.832h62v7.3106l-10 10h-52z" fill="#eee" stroke="#000" stroke-width="1.5"/><path d="m30 758.832h272.5v59.6211h-272.5z" fill="none" stroke="#000" stroke-width="1.5"/><text font-family="sans-serif" font-size="13" font-weight="bold" lengthAdjust="spacing" textLength="17" x="45" y="772.4004">alt</text><text font-family="sans-serif" font-size="11" font-weight="bold" lengthAdjust="spacing" textLength="172" x="107" y="771.4668">[Graceful Shutdown Triggered]</text><path d="m71.5 797.4531h42" stroke="#181818"/><path d="m113.5 797.4531v13" stroke="#181818"/><path d="m72.5 810.4531h41" stroke="#181818"/><path d="m82.5 806.4531-10 4 10 4-4-4z" fill="#181818" stroke="#181818"/><text font-family="sans-serif" font-size="13" lengthAdjust="spacing" textLength="212" x="78.5" y="792.7109">Stop processing new transactions</text><text fill="#888" font-family="sans-serif" font-size="10" lengthAdjust="spacing" textLength="345" x="3" y="893.0977">Last Modified On: 3-April-2024. © 2024 Bitcoin SV. All rights reserved.</text></svg>
