<svg xmlns="http://www.w3.org/2000/svg" xmlns:xlink="http://www.w3.org/1999/xlink" contentStyleType="text/css" height="867px" preserveAspectRatio="none" style="width:809px;height:867px;background:#F0F8FF;" version="1.1" viewBox="0 0 809 867" width="809px" zoomAndPan="magnify"><defs/><g><rect fill="#F0F8FF" height="867" style="stroke:none;stroke-width:1.0;" width="809" x="0" y="0"/><rect fill="#FFFFFF" height="638.2109" style="stroke:#181818;stroke-width:1.0;" width="10" x="78.9023" y="136.1094"/><rect fill="none" height="75.9316" style="stroke:#000000;stroke-width:1.5;" width="742.9087" x="10" y="415.5938"/><line style="stroke:#181818;stroke-width:0.5;stroke-dasharray:5.0,5.0;" x1="83" x2="83" y1="53.4883" y2="799.3203"/><line style="stroke:#181818;stroke-width:0.5;stroke-dasharray:5.0,5.0;" x1="319.8325" x2="319.8325" y1="53.4883" y2="799.3203"/><line style="stroke:#181818;stroke-width:0.5;stroke-dasharray:5.0,5.0;" x1="413.1401" x2="413.1401" y1="53.4883" y2="799.3203"/><line style="stroke:#181818;stroke-width:0.5;stroke-dasharray:5.0,5.0;" x1="637.6128" x2="637.6128" y1="53.4883" y2="799.3203"/><line style="stroke:#181818;stroke-width:0.5;stroke-dasharray:5.0,5.0;" x1="774.9087" x2="774.9087" y1="53.4883" y2="799.3203"/><rect fill="#DDDDDD" height="46.9766" rx="2.5" ry="2.5" style="stroke:#666666;stroke-width:0.5;" width="127.8047" x="20" y="5.5117"/><text fill="#333333" font-family="sans-serif" font-size="14" lengthAdjust="spacing" textLength="113.8047" x="27" y="26.0469">Main Application</text><text fill="#333333" font-family="sans-serif" font-size="14" lengthAdjust="spacing" textLength="69.4189" x="49.1929" y="42.5352">(txblaster)</text><rect fill="#DDDDDD" height="46.9766" rx="2.5" ry="2.5" style="stroke:#666666;stroke-width:0.5;" width="127.8047" x="20" y="798.3203"/><text fill="#333333" font-family="sans-serif" font-size="14" lengthAdjust="spacing" textLength="113.8047" x="27" y="818.8555">Main Application</text><text fill="#333333" font-family="sans-serif" font-size="14" lengthAdjust="spacing" textLength="69.4189" x="49.1929" y="835.3438">(txblaster)</text><text fill="#333333" font-family="sans-serif" font-size="14" lengthAdjust="spacing" textLength="98.3076" x="267.8325" y="50.5352">Signal Handler</text><ellipse cx="319.9863" cy="21" fill="#DDDDDD" rx="12" ry="12" style="stroke:#666666;stroke-width:0.5;"/><line style="stroke:#666666;stroke-width:0.5;" x1="307.9863" x2="331.9863" y1="35" y2="35"/><text fill="#333333" font-family="sans-serif" font-size="14" lengthAdjust="spacing" textLength="98.3076" x="267.8325" y="811.8555">Signal Handler</text><ellipse cx="319.9863" cy="830.8086" fill="#DDDDDD" rx="12" ry="12" style="stroke:#666666;stroke-width:0.5;"/><line style="stroke:#666666;stroke-width:0.5;" x1="307.9863" x2="331.9863" y1="844.8086" y2="844.8086"/><rect fill="#DDDDDD" height="30.4883" rx="2.5" ry="2.5" style="stroke:#666666;stroke-width:0.5;" width="62.0156" x="382.1401" y="22"/><text fill="#333333" font-family="sans-serif" font-size="14" lengthAdjust="spacing" textLength="48.0156" x="389.1401" y="42.5352">Worker</text><rect fill="#DDDDDD" height="30.4883" rx="2.5" ry="2.5" style="stroke:#666666;stroke-width:0.5;" width="62.0156" x="382.1401" y="798.3203"/><text fill="#333333" font-family="sans-serif" font-size="14" lengthAdjust="spacing" textLength="48.0156" x="389.1401" y="818.8555">Worker</text><rect fill="#DDDDDD" height="46.9766" rx="2.5" ry="2.5" style="stroke:#666666;stroke-width:0.5;" width="209.2959" x="533.6128" y="5.5117"/><text fill="#333333" font-family="sans-serif" font-size="14" lengthAdjust="spacing" textLength="97.2275" x="589.647" y="26.0469">Other Services</text><text fill="#333333" font-family="sans-serif" font-size="14" lengthAdjust="spacing" textLength="195.2959" x="540.6128" y="42.5352">(Coinbase, P2P, Propagation)</text><rect fill="#DDDDDD" height="46.9766" rx="2.5" ry="2.5" style="stroke:#666666;stroke-width:0.5;" width="209.2959" x="533.6128" y="798.3203"/><text fill="#333333" font-family="sans-serif" font-size="14" lengthAdjust="spacing" textLength="97.2275" x="589.647" y="818.8555">Other Services</text><text fill="#333333" font-family="sans-serif" font-size="14" lengthAdjust="spacing" textLength="195.2959" x="540.6128" y="835.3438">(Coinbase, P2P, Propagation)</text><rect fill="#DDDDDD" height="30.4883" rx="2.5" ry="2.5" style="stroke:#666666;stroke-width:0.5;" width="44.3652" x="752.9087" y="22"/><text fill="#333333" font-family="sans-serif" font-size="14" lengthAdjust="spacing" textLength="30.3652" x="759.9087" y="42.5352">User</text><rect fill="#DDDDDD" height="30.4883" rx="2.5" ry="2.5" style="stroke:#666666;stroke-width:0.5;" width="44.3652" x="752.9087" y="798.3203"/><text fill="#333333" font-family="sans-serif" font-size="14" lengthAdjust="spacing" textLength="30.3652" x="759.9087" y="818.8555">User</text><rect fill="#FFFFFF" height="638.2109" style="stroke:#181818;stroke-width:1.0;" width="10" x="78.9023" y="136.1094"/><rect fill="#EEEEEE" height="3" style="stroke:#EEEEEE;stroke-width:1.0;" width="802.2739" x="0" y="84.1436"/><line style="stroke:#000000;stroke-width:1.0;" x1="0" x2="802.2739" y1="84.1436" y2="84.1436"/><line style="stroke:#000000;stroke-width:1.0;" x1="0" x2="802.2739" y1="87.1436" y2="87.1436"/><rect fill="#EEEEEE" height="23.3105" style="stroke:#000000;stroke-width:2.0;" width="102.6133" x="349.8303" y="73.4883"/><text fill="#333333" font-family="sans-serif" font-size="13" font-weight="bold" lengthAdjust="spacing" textLength="84.3286" x="355.8303" y="90.0566">Initialization</text><line style="stroke:#666666;stroke-width:1.0;" x1="83.9023" x2="130.9023" y1="123.1094" y2="123.1094"/><line style="stroke:#666666;stroke-width:1.0;" x1="130.9023" x2="130.9023" y1="123.1094" y2="136.1094"/><line style="stroke:#666666;stroke-width:1.0;" x1="89.9023" x2="130.9023" y1="136.1094" y2="136.1094"/><polygon fill="#666666" points="99.9023,132.1094,89.9023,136.1094,99.9023,140.1094,95.9023,136.1094" style="stroke:#666666;stroke-width:1.0;"/><text fill="#333333" font-family="sans-serif" font-size="13" lengthAdjust="spacing" textLength="81.3135" x="95.9023" y="118.3672">Init and Start</text><line style="stroke:#666666;stroke-width:1.0;" x1="88.9023" x2="130.9023" y1="170.4199" y2="170.4199"/><line style="stroke:#666666;stroke-width:1.0;" x1="130.9023" x2="130.9023" y1="170.4199" y2="183.4199"/><line style="stroke:#666666;stroke-width:1.0;" x1="89.9023" x2="130.9023" y1="183.4199" y2="183.4199"/><polygon fill="#666666" points="99.9023,179.4199,89.9023,183.4199,99.9023,187.4199,95.9023,183.4199" style="stroke:#666666;stroke-width:1.0;"/><text fill="#333333" font-family="sans-serif" font-size="13" lengthAdjust="spacing" textLength="202.084" x="95.9023" y="165.6777">Parse command-line arguments</text><line style="stroke:#666666;stroke-width:1.0;" x1="88.9023" x2="130.9023" y1="212.7305" y2="212.7305"/><line style="stroke:#666666;stroke-width:1.0;" x1="130.9023" x2="130.9023" y1="212.7305" y2="225.7305"/><line style="stroke:#666666;stroke-width:1.0;" x1="89.9023" x2="130.9023" y1="225.7305" y2="225.7305"/><polygon fill="#666666" points="99.9023,221.7305,89.9023,225.7305,99.9023,229.7305,95.9023,225.7305" style="stroke:#666666;stroke-width:1.0;"/><text fill="#333333" font-family="sans-serif" font-size="13" lengthAdjust="spacing" textLength="125.6138" x="95.9023" y="207.9883">Load configurations</text><polygon fill="#666666" points="626.2607,251.041,636.2607,255.041,626.2607,259.041,630.2607,255.041" style="stroke:#666666;stroke-width:1.0;"/><line style="stroke:#666666;stroke-width:1.0;" x1="88.9023" x2="632.2607" y1="255.041" y2="255.041"/><text fill="#333333" font-family="sans-serif" font-size="13" lengthAdjust="spacing" textLength="137.1982" x="95.9023" y="250.2988">Setup P2P networking</text><polygon fill="#666666" points="307.9863,295.6621,317.9863,299.6621,307.9863,303.6621,311.9863,299.6621" style="stroke:#666666;stroke-width:1.0;"/><line style="stroke:#666666;stroke-width:1.0;" x1="88.9023" x2="313.9863" y1="299.6621" y2="299.6621"/><text fill="#333333" font-family="sans-serif" font-size="13" lengthAdjust="spacing" textLength="158.4629" x="95.9023" y="279.6094">Setup signal handling for</text><text fill="#333333" font-family="sans-serif" font-size="13" lengthAdjust="spacing" textLength="117.1016" x="95.9023" y="294.9199">graceful shutdown</text><rect fill="#EEEEEE" height="3" style="stroke:#EEEEEE;stroke-width:1.0;" width="802.2739" x="0" y="328.3174"/><line style="stroke:#000000;stroke-width:1.0;" x1="0" x2="802.2739" y1="328.3174" y2="328.3174"/><line style="stroke:#000000;stroke-width:1.0;" x1="0" x2="802.2739" y1="331.3174" y2="331.3174"/><rect fill="#EEEEEE" height="23.3105" style="stroke:#000000;stroke-width:2.0;" width="172.6279" x="314.823" y="317.6621"/><text fill="#333333" font-family="sans-serif" font-size="13" font-weight="bold" lengthAdjust="spacing" textLength="154.3433" x="320.823" y="334.2305">Worker Setup and Start</text><line style="stroke:#666666;stroke-width:1.0;" x1="88.9023" x2="130.9023" y1="387.5938" y2="387.5938"/><line style="stroke:#666666;stroke-width:1.0;" x1="130.9023" x2="130.9023" y1="387.5938" y2="400.5938"/><line style="stroke:#666666;stroke-width:1.0;" x1="89.9023" x2="130.9023" y1="400.5938" y2="400.5938"/><polygon fill="#666666" points="99.9023,396.5938,89.9023,400.5938,99.9023,404.5938,95.9023,400.5938" style="stroke:#666666;stroke-width:1.0;"/><text fill="#333333" font-family="sans-serif" font-size="13" lengthAdjust="spacing" textLength="169.4951" x="95.9023" y="367.541">Initialize workers based on</text><text fill="#333333" font-family="sans-serif" font-size="13" lengthAdjust="spacing" textLength="190.4868" x="95.9023" y="382.8516">configurations and arguments</text><path d="M10,415.5938 L84.4468,415.5938 L84.4468,422.9043 L74.4468,432.9043 L10,432.9043 L10,415.5938 " fill="#EEEEEE" style="stroke:#000000;stroke-width:1.5;"/><rect fill="none" height="75.9316" style="stroke:#000000;stroke-width:1.5;" width="742.9087" x="10" y="415.5938"/><text fill="#333333" font-family="sans-serif" font-size="13" font-weight="bold" lengthAdjust="spacing" textLength="29.4468" x="25" y="429.1621">loop</text><text fill="#333333" font-family="sans-serif" font-size="11" font-weight="bold" lengthAdjust="spacing" textLength="99.6606" x="99.4468" y="428.2285">[For each worker]</text><polygon fill="#666666" points="401.1479,450.2148,411.1479,454.2148,401.1479,458.2148,405.1479,454.2148" style="stroke:#666666;stroke-width:1.0;"/><line style="stroke:#666666;stroke-width:1.0;" x1="88.9023" x2="407.1479" y1="454.2148" y2="454.2148"/><text fill="#333333" font-family="sans-serif" font-size="13" lengthAdjust="spacing" textLength="142.3271" x="95.9023" y="449.4727">Start worker goroutine</text><polygon fill="#666666" points="626.2607,479.5254,636.2607,483.5254,626.2607,487.5254,630.2607,483.5254" style="stroke:#666666;stroke-width:1.0;"/><line style="stroke:#666666;stroke-width:1.0;" x1="413.1479" x2="632.2607" y1="483.5254" y2="483.5254"/><text fill="#333333" font-family="sans-serif" font-size="13" lengthAdjust="spacing" textLength="201.1128" x="420.1479" y="478.7832">Connect &amp; subscribe to services</text><rect fill="#EEEEEE" height="3" style="stroke:#EEEEEE;stroke-width:1.0;" width="802.2739" x="0" y="519.1807"/><line style="stroke:#000000;stroke-width:1.0;" x1="0" x2="802.2739" y1="519.1807" y2="519.1807"/><line style="stroke:#000000;stroke-width:1.0;" x1="0" x2="802.2739" y1="522.1807" y2="522.1807"/><rect fill="#EEEEEE" height="23.3105" style="stroke:#000000;stroke-width:2.0;" width="74.2075" x="364.0332" y="508.5254"/><text fill="#333333" font-family="sans-serif" font-size="13" font-weight="bold" lengthAdjust="spacing" textLength="55.9229" x="370.0332" y="525.0938">Running</text><polygon fill="#666666" points="401.1479,559.1465,411.1479,563.1465,401.1479,567.1465,405.1479,563.1465" style="stroke:#666666;stroke-width:1.0;"/><line style="stroke:#666666;stroke-width:1.0;" x1="88.9023" x2="407.1479" y1="563.1465" y2="563.1465"/><text fill="#333333" font-family="sans-serif" font-size="13" lengthAdjust="spacing" textLength="246.6191" x="95.9023" y="558.4043">Manage workers (monitor, restart, etc.)</text><rect fill="#EEEEEE" height="3" style="stroke:#EEEEEE;stroke-width:1.0;" width="802.2739" x="0" y="591.8018"/><line style="stroke:#000000;stroke-width:1.0;" x1="0" x2="802.2739" y1="591.8018" y2="591.8018"/><line style="stroke:#000000;stroke-width:1.0;" x1="0" x2="802.2739" y1="594.8018" y2="594.8018"/><rect fill="#EEEEEE" height="23.3105" style="stroke:#000000;stroke-width:2.0;" width="129.6479" x="336.313" y="581.1465"/><text fill="#333333" font-family="sans-serif" font-size="13" font-weight="bold" lengthAdjust="spacing" textLength="111.3633" x="342.313" y="597.7148">Shutdown Signal</text><polygon fill="#666666" points="330.9863,631.7676,320.9863,635.7676,330.9863,639.7676,326.9863,635.7676" style="stroke:#666666;stroke-width:1.0;"/><line style="stroke:#666666;stroke-width:1.0;" x1="324.9863" x2="774.0913" y1="635.7676" y2="635.7676"/><text fill="#333333" font-family="sans-serif" font-size="13" lengthAdjust="spacing" textLength="137.96" x="336.9863" y="631.0254">Send SIGINT/SIGTERM</text><polygon fill="#666666" points="99.9023,661.0781,89.9023,665.0781,99.9023,669.0781,95.9023,665.0781" style="stroke:#666666;stroke-width:1.0;"/><line style="stroke:#666666;stroke-width:1.0;" x1="93.9023" x2="318.9863" y1="665.0781" y2="665.0781"/><text fill="#333333" font-family="sans-serif" font-size="13" lengthAdjust="spacing" textLength="103.7715" x="105.9023" y="660.3359">Notify shutdown</text><polygon fill="#666666" points="401.1479,690.3887,411.1479,694.3887,401.1479,698.3887,405.1479,694.3887" style="stroke:#666666;stroke-width:1.0;"/><line style="stroke:#666666;stroke-width:1.0;" x1="88.9023" x2="407.1479" y1="694.3887" y2="694.3887"/><text fill="#333333" font-family="sans-serif" font-size="13" lengthAdjust="spacing" textLength="240.8174" x="95.9023" y="689.6465">Signal workers to shutdown gracefully</text><polygon fill="#666666" points="626.2607,719.6992,636.2607,723.6992,626.2607,727.6992,630.2607,723.6992" style="stroke:#666666;stroke-width:1.0;"/><line style="stroke:#666666;stroke-width:1.0;" x1="413.1479" x2="632.2607" y1="723.6992" y2="723.6992"/><text fill="#333333" font-family="sans-serif" font-size="13" lengthAdjust="spacing" textLength="136.1128" x="420.1479" y="718.957">Disconnect &amp; cleanup</text><line style="stroke:#666666;stroke-width:1.0;" x1="88.9023" x2="130.9023" y1="773.3203" y2="773.3203"/><line style="stroke:#666666;stroke-width:1.0;" x1="130.9023" x2="130.9023" y1="773.3203" y2="786.3203"/><line style="stroke:#666666;stroke-width:1.0;" x1="83.9023" x2="130.9023" y1="786.3203" y2="786.3203"/><polygon fill="#666666" points="93.9023,782.3203,83.9023,786.3203,93.9023,790.3203,89.9023,786.3203" style="stroke:#666666;stroke-width:1.0;"/><text fill="#333333" font-family="sans-serif" font-size="13" lengthAdjust="spacing" textLength="116.6953" x="95.9023" y="753.2676">Cleanup resources</text><text fill="#333333" font-family="sans-serif" font-size="13" lengthAdjust="spacing" textLength="51.3779" x="95.9023" y="768.5781">and exit</text><text fill="#333333" font-family="sans-serif" font-size="10" lengthAdjust="spacing" textLength="155.4346" x="0" y="857.4766">Last Modified On: 24-Feb-2025</text><!--SRC=[fLJ1RXCn4BtxAqP1G2irW412g5AG86sWKhUjcY8klKpisOrLnrxPtgOfujyPUpTfjWqzW0yRPVpUp9itinjkjAtHum9cA6ygxnghniuu3oycxoQV9XCHDWX59JOcJfoD7UH3FbiGzDujkykF-GZn6ewer9PWvhmY7w3aMpG6oD22R0nRVFwhumf-2O2l6TtFnT77Ae_o4R_5LXR92hqp_vk6dr5BNQED_vPAYEqKWmArXIzrRRJ4g9szjdlnRcOmHFBx0y002S40qTamcEhAee7lQ9KXdo5jg8lqylzq_kPHQ70Uv-HXIlvMImfSSEoqdM6W0xXuVy4FxsgiiffMmV4TY-42QueGen6SM1qr6dsVWJ0QYKue33-lDSDXXW4BWsba3G9brBSOQTFLJj85-a0yiSM2cKEJzWHzrRIBiPDnwb2b4PUwQdnMr0C-xe0PKufDdHe6It79DcbRRLDwdcxmeJL_di9CI6jxRIkFaih6G9WtKRcbpGQrrdUyZGFF6fNz95XcPe0q4mLf9_gTvMmFXXZdQfZmbX7AUKVc7GJOgjE9EUn4j22e7EzeP7iplCFijclih2KPuHM4PXQarpE2w22iLuAiobrVDjOcO_fjRieNQB5ww71luRXjvm_0KqZA3e2YVBEVKqqxDxjHf9G_GYlmwN2IloVVJiwktlBFrV5b8VgOdjTdBkfozJ2kdKQrHTTAKwzhFUjvcvLurhCZ7UJ6Dca8RVENXH-tbya5r_ZyLgOPqvsEGYXwyjO8GsNavNDS4qxvOm65KxhKl2xdzX1UAWRl3PGQ5aKnNF4Px8i_]--></g></svg>
