<?xml version="1.0" encoding="us-ascii" standalone="no"?><svg xmlns="http://www.w3.org/2000/svg" xmlns:xlink="http://www.w3.org/1999/xlink" contentStyleType="text/css" height="838px" preserveAspectRatio="none" style="width:809px;height:838px;background:#FFFFFF;" version="1.1" viewBox="0 0 809 838" width="809px" zoomAndPan="magnify"><defs/><g><rect fill="none" height="75.9316" style="stroke:#000000;stroke-width:1.5;" width="726.5" x="66" y="402.5938"/><line style="stroke:#181818;stroke-width:0.5;stroke-dasharray:5.0,5.0;" x1="27" x2="27" y1="53.4883" y2="786.3203"/><line style="stroke:#181818;stroke-width:0.5;stroke-dasharray:5.0,5.0;" x1="140" x2="140" y1="53.4883" y2="786.3203"/><line style="stroke:#181818;stroke-width:0.5;stroke-dasharray:5.0,5.0;" x1="355.5" x2="355.5" y1="53.4883" y2="786.3203"/><line style="stroke:#181818;stroke-width:0.5;stroke-dasharray:5.0,5.0;" x1="449.5" x2="449.5" y1="53.4883" y2="786.3203"/><line style="stroke:#181818;stroke-width:0.5;stroke-dasharray:5.0,5.0;" x1="675.5" x2="675.5" y1="53.4883" y2="786.3203"/><rect fill="#E2E2F0" height="30.4883" rx="2.5" ry="2.5" style="stroke:#181818;stroke-width:0.5;" width="45" x="5" y="22"/><text fill="#000000" font-family="sans-serif" font-size="14" lengthAdjust="spacing" textLength="31" x="12" y="42.5352">User</text><rect fill="#E2E2F0" height="30.4883" rx="2.5" ry="2.5" style="stroke:#181818;stroke-width:0.5;" width="45" x="5" y="785.3203"/><text fill="#000000" font-family="sans-serif" font-size="14" lengthAdjust="spacing" textLength="31" x="12" y="805.8555">User</text><rect fill="#E2E2F0" height="46.9766" rx="2.5" ry="2.5" style="stroke:#181818;stroke-width:0.5;" width="129" x="76" y="5.5117"/><text fill="#000000" font-family="sans-serif" font-size="14" lengthAdjust="spacing" textLength="115" x="83" y="26.0469">Main Application</text><text fill="#000000" font-family="sans-serif" font-size="14" lengthAdjust="spacing" textLength="71" x="105" y="42.5352">(txblaster)</text><rect fill="#E2E2F0" height="46.9766" rx="2.5" ry="2.5" style="stroke:#181818;stroke-width:0.5;" width="129" x="76" y="785.3203"/><text fill="#000000" font-family="sans-serif" font-size="14" lengthAdjust="spacing" textLength="115" x="83" y="805.8555">Main Application</text><text fill="#000000" font-family="sans-serif" font-size="14" lengthAdjust="spacing" textLength="71" x="105" y="822.3438">(txblaster)</text><text fill="#000000" font-family="sans-serif" font-size="14" lengthAdjust="spacing" textLength="100" x="302.5" y="50.5352">Signal Handler</text><ellipse cx="355.5" cy="21" fill="#E2E2F0" rx="12" ry="12" style="stroke:#181818;stroke-width:0.5;"/><line style="stroke:#181818;stroke-width:0.5;" x1="343.5" x2="367.5" y1="35" y2="35"/><text fill="#000000" font-family="sans-serif" font-size="14" lengthAdjust="spacing" textLength="100" x="302.5" y="798.8555">Signal Handler</text><ellipse cx="355.5" cy="817.8086" fill="#E2E2F0" rx="12" ry="12" style="stroke:#181818;stroke-width:0.5;"/><line style="stroke:#181818;stroke-width:0.5;" x1="343.5" x2="367.5" y1="831.8086" y2="831.8086"/><rect fill="#E2E2F0" height="30.4883" rx="2.5" ry="2.5" style="stroke:#181818;stroke-width:0.5;" width="63" x="418.5" y="22"/><text fill="#000000" font-family="sans-serif" font-size="14" lengthAdjust="spacing" textLength="49" x="425.5" y="42.5352">Worker</text><rect fill="#E2E2F0" height="30.4883" rx="2.5" ry="2.5" style="stroke:#181818;stroke-width:0.5;" width="63" x="418.5" y="785.3203"/><text fill="#000000" font-family="sans-serif" font-size="14" lengthAdjust="spacing" textLength="49" x="425.5" y="805.8555">Worker</text><rect fill="#E2E2F0" height="46.9766" rx="2.5" ry="2.5" style="stroke:#181818;stroke-width:0.5;" width="213" x="569.5" y="5.5117"/><text fill="#000000" font-family="sans-serif" font-size="14" lengthAdjust="spacing" textLength="98" x="627" y="26.0469">Other Services</text><text fill="#000000" font-family="sans-serif" font-size="14" lengthAdjust="spacing" textLength="199" x="576.5" y="42.5352">(Coinbase, P2P, Propagation)</text><rect fill="#E2E2F0" height="46.9766" rx="2.5" ry="2.5" style="stroke:#181818;stroke-width:0.5;" width="213" x="569.5" y="785.3203"/><text fill="#000000" font-family="sans-serif" font-size="14" lengthAdjust="spacing" textLength="98" x="627" y="805.8555">Other Services</text><text fill="#000000" font-family="sans-serif" font-size="14" lengthAdjust="spacing" textLength="199" x="576.5" y="822.3438">(Coinbase, P2P, Propagation)</text><rect fill="#EEEEEE" height="3" style="stroke:#EEEEEE;stroke-width:1.0;" width="802.5" x="0" y="84.1436"/><line style="stroke:#000000;stroke-width:1.0;" x1="0" x2="802.5" y1="84.1436" y2="84.1436"/><line style="stroke:#000000;stroke-width:1.0;" x1="0" x2="802.5" y1="87.1436" y2="87.1436"/><rect fill="#EEEEEE" height="23.3105" style="stroke:#000000;stroke-width:2.0;" width="102" x="350.25" y="73.4883"/><text fill="#000000" font-family="sans-serif" font-size="13" font-weight="bold" lengthAdjust="spacing" textLength="84" x="356.25" y="90.0566">Initialization</text><polygon fill="#181818" points="128.5,124.1094,138.5,128.1094,128.5,132.1094,132.5,128.1094" style="stroke:#181818;stroke-width:1.0;"/><line style="stroke:#181818;stroke-width:1.0;" x1="27.5" x2="134.5" y1="128.1094" y2="128.1094"/><text fill="#000000" font-family="sans-serif" font-size="13" lengthAdjust="spacing" textLength="89" x="34.5" y="123.3672">Start txblaster</text><line style="stroke:#181818;stroke-width:1.0;" x1="140.5" x2="182.5" y1="157.4199" y2="157.4199"/><line style="stroke:#181818;stroke-width:1.0;" x1="182.5" x2="182.5" y1="157.4199" y2="170.4199"/><line style="stroke:#181818;stroke-width:1.0;" x1="141.5" x2="182.5" y1="170.4199" y2="170.4199"/><polygon fill="#181818" points="151.5,166.4199,141.5,170.4199,151.5,174.4199,147.5,170.4199" style="stroke:#181818;stroke-width:1.0;"/><text fill="#000000" font-family="sans-serif" font-size="13" lengthAdjust="spacing" textLength="201" x="147.5" y="152.6777">Parse command-line arguments</text><line style="stroke:#181818;stroke-width:1.0;" x1="140.5" x2="182.5" y1="199.7305" y2="199.7305"/><line style="stroke:#181818;stroke-width:1.0;" x1="182.5" x2="182.5" y1="199.7305" y2="212.7305"/><line style="stroke:#181818;stroke-width:1.0;" x1="141.5" x2="182.5" y1="212.7305" y2="212.7305"/><polygon fill="#181818" points="151.5,208.7305,141.5,212.7305,151.5,216.7305,147.5,212.7305" style="stroke:#181818;stroke-width:1.0;"/><text fill="#000000" font-family="sans-serif" font-size="13" lengthAdjust="spacing" textLength="126" x="147.5" y="194.9883">Load configurations</text><polygon fill="#181818" points="664,238.041,674,242.041,664,246.041,668,242.041" style="stroke:#181818;stroke-width:1.0;"/><line style="stroke:#181818;stroke-width:1.0;" x1="140.5" x2="670" y1="242.041" y2="242.041"/><text fill="#000000" font-family="sans-serif" font-size="13" lengthAdjust="spacing" textLength="136" x="147.5" y="237.2988">Setup P2P networking</text><polygon fill="#181818" points="343.5,282.6621,353.5,286.6621,343.5,290.6621,347.5,286.6621" style="stroke:#181818;stroke-width:1.0;"/><line style="stroke:#181818;stroke-width:1.0;" x1="140.5" x2="349.5" y1="286.6621" y2="286.6621"/><text fill="#000000" font-family="sans-serif" font-size="13" lengthAdjust="spacing" textLength="158" x="147.5" y="266.6094">Setup signal handling for</text><text fill="#000000" font-family="sans-serif" font-size="13" lengthAdjust="spacing" textLength="117" x="147.5" y="281.9199">graceful shutdown</text><rect fill="#EEEEEE" height="3" style="stroke:#EEEEEE;stroke-width:1.0;" width="802.5" x="0" y="315.3174"/><line style="stroke:#000000;stroke-width:1.0;" x1="0" x2="802.5" y1="315.3174" y2="315.3174"/><line style="stroke:#000000;stroke-width:1.0;" x1="0" x2="802.5" y1="318.3174" y2="318.3174"/><rect fill="#EEEEEE" height="23.3105" style="stroke:#000000;stroke-width:2.0;" width="173" x="314.75" y="304.6621"/><text fill="#000000" font-family="sans-serif" font-size="13" font-weight="bold" lengthAdjust="spacing" textLength="155" x="320.75" y="321.2305">Worker Setup and Start</text><line style="stroke:#181818;stroke-width:1.0;" x1="140.5" x2="182.5" y1="374.5938" y2="374.5938"/><line style="stroke:#181818;stroke-width:1.0;" x1="182.5" x2="182.5" y1="374.5938" y2="387.5938"/><line style="stroke:#181818;stroke-width:1.0;" x1="141.5" x2="182.5" y1="387.5938" y2="387.5938"/><polygon fill="#181818" points="151.5,383.5938,141.5,387.5938,151.5,391.5938,147.5,387.5938" style="stroke:#181818;stroke-width:1.0;"/><text fill="#000000" font-family="sans-serif" font-size="13" lengthAdjust="spacing" textLength="169" x="147.5" y="354.541">Initialize workers based on</text><text fill="#000000" font-family="sans-serif" font-size="13" lengthAdjust="spacing" textLength="190" x="147.5" y="369.8516">configurations and arguments</text><path d="M66,402.5938 L140,402.5938 L140,409.9043 L130,419.9043 L66,419.9043 L66,402.5938 " fill="#EEEEEE" style="stroke:#000000;stroke-width:1.5;"/><rect fill="none" height="75.9316" style="stroke:#000000;stroke-width:1.5;" width="726.5" x="66" y="402.5938"/><text fill="#000000" font-family="sans-serif" font-size="13" font-weight="bold" lengthAdjust="spacing" textLength="29" x="81" y="416.1621">loop</text><text fill="#000000" font-family="sans-serif" font-size="11" font-weight="bold" lengthAdjust="spacing" textLength="98" x="155" y="415.2285">[For each worker]</text><polygon fill="#181818" points="438,437.2148,448,441.2148,438,445.2148,442,441.2148" style="stroke:#181818;stroke-width:1.0;"/><line style="stroke:#181818;stroke-width:1.0;" x1="140.5" x2="444" y1="441.2148" y2="441.2148"/><text fill="#000000" font-family="sans-serif" font-size="13" lengthAdjust="spacing" textLength="141" x="147.5" y="436.4727">Start worker goroutine</text><polygon fill="#181818" points="664,466.5254,674,470.5254,664,474.5254,668,470.5254" style="stroke:#181818;stroke-width:1.0;"/><line style="stroke:#181818;stroke-width:1.0;" x1="450" x2="670" y1="470.5254" y2="470.5254"/><text fill="#000000" font-family="sans-serif" font-size="13" lengthAdjust="spacing" textLength="202" x="457" y="465.7832">Connect &amp; subscribe to services</text><rect fill="#EEEEEE" height="3" style="stroke:#EEEEEE;stroke-width:1.0;" width="802.5" x="0" y="506.1807"/><line style="stroke:#000000;stroke-width:1.0;" x1="0" x2="802.5" y1="506.1807" y2="506.1807"/><line style="stroke:#000000;stroke-width:1.0;" x1="0" x2="802.5" y1="509.1807" y2="509.1807"/><rect fill="#EEEEEE" height="23.3105" style="stroke:#000000;stroke-width:2.0;" width="76" x="363.25" y="495.5254"/><text fill="#000000" font-family="sans-serif" font-size="13" font-weight="bold" lengthAdjust="spacing" textLength="58" x="369.25" y="512.0938">Running</text><polygon fill="#181818" points="438,546.1465,448,550.1465,438,554.1465,442,550.1465" style="stroke:#181818;stroke-width:1.0;"/><line style="stroke:#181818;stroke-width:1.0;" x1="140.5" x2="444" y1="550.1465" y2="550.1465"/><text fill="#000000" font-family="sans-serif" font-size="13" lengthAdjust="spacing" textLength="244" x="147.5" y="545.4043">Manage workers (monitor, restart, etc.)</text><rect fill="#EEEEEE" height="3" style="stroke:#EEEEEE;stroke-width:1.0;" width="802.5" x="0" y="578.8018"/><line style="stroke:#000000;stroke-width:1.0;" x1="0" x2="802.5" y1="578.8018" y2="578.8018"/><line style="stroke:#000000;stroke-width:1.0;" x1="0" x2="802.5" y1="581.8018" y2="581.8018"/><rect fill="#EEEEEE" height="23.3105" style="stroke:#000000;stroke-width:2.0;" width="130" x="336.25" y="568.1465"/><text fill="#000000" font-family="sans-serif" font-size="13" font-weight="bold" lengthAdjust="spacing" textLength="112" x="342.25" y="584.7148">Shutdown Signal</text><polygon fill="#181818" points="343.5,618.7676,353.5,622.7676,343.5,626.7676,347.5,622.7676" style="stroke:#181818;stroke-width:1.0;"/><line style="stroke:#181818;stroke-width:1.0;" x1="27.5" x2="349.5" y1="622.7676" y2="622.7676"/><text fill="#000000" font-family="sans-serif" font-size="13" lengthAdjust="spacing" textLength="137" x="34.5" y="618.0254">Send SIGINT/SIGTERM</text><polygon fill="#181818" points="151.5,648.0781,141.5,652.0781,151.5,656.0781,147.5,652.0781" style="stroke:#181818;stroke-width:1.0;"/><line style="stroke:#181818;stroke-width:1.0;" x1="145.5" x2="354.5" y1="652.0781" y2="652.0781"/><text fill="#000000" font-family="sans-serif" font-size="13" lengthAdjust="spacing" textLength="105" x="157.5" y="647.3359">Notify shutdown</text><polygon fill="#181818" points="438,677.3887,448,681.3887,438,685.3887,442,681.3887" style="stroke:#181818;stroke-width:1.0;"/><line style="stroke:#181818;stroke-width:1.0;" x1="140.5" x2="444" y1="681.3887" y2="681.3887"/><text fill="#000000" font-family="sans-serif" font-size="13" lengthAdjust="spacing" textLength="241" x="147.5" y="676.6465">Signal workers to shutdown gracefully</text><polygon fill="#181818" points="664,706.6992,674,710.6992,664,714.6992,668,710.6992" style="stroke:#181818;stroke-width:1.0;"/><line style="stroke:#181818;stroke-width:1.0;" x1="450" x2="670" y1="710.6992" y2="710.6992"/><text fill="#000000" font-family="sans-serif" font-size="13" lengthAdjust="spacing" textLength="137" x="457" y="705.957">Disconnect &amp; cleanup</text><line style="stroke:#181818;stroke-width:1.0;" x1="140.5" x2="182.5" y1="755.3203" y2="755.3203"/><line style="stroke:#181818;stroke-width:1.0;" x1="182.5" x2="182.5" y1="755.3203" y2="768.3203"/><line style="stroke:#181818;stroke-width:1.0;" x1="141.5" x2="182.5" y1="768.3203" y2="768.3203"/><polygon fill="#181818" points="151.5,764.3203,141.5,768.3203,151.5,772.3203,147.5,768.3203" style="stroke:#181818;stroke-width:1.0;"/><text fill="#000000" font-family="sans-serif" font-size="13" lengthAdjust="spacing" textLength="116" x="147.5" y="735.2676">Cleanup resources</text><text fill="#000000" font-family="sans-serif" font-size="13" lengthAdjust="spacing" textLength="51" x="147.5" y="750.5781">and exit</text><!--SRC=[VPDFRnCn4CNl_XIZ750hfI1nH0eI2WKYaH8rHRtqCl5EDXREU3MsISAdn_R-IRP4x65NijzutlkDjq49Hfi6ES1FJwAQYuN94Wt3fwQnHcCmZb_u9Xmt5dqWkPq0UiYA9534mOGJJDQcPhJm3Rco94NIBdKhe_EVdVnwtV97s970ckItqUHJmxapl45FKrYzNwMNk0RhugPrS7zCPbA3laIfsGmMR891Q_uK8SncAeU3ku-zOVW0wv3wmf17zJiZqGh54sYttoV_TzOm0KeTzocllrxntM6L2dXhwYYb_KZuscusGY4sEHqmXKDYOhY-B1a17FI-9RtBowa0javUk1RKj8qM_2w6oXsuq6WvTtL9tqLFLAuc6E0H74gbXpo02l8562Shfvs1MESQ-E842FMkArQGdei-dPcUVok2secB8U4jyavp7TVSCPCEy0Pyt7WjPaCG7FX-_iHLIVqOcJEOSSoX_H8PwtF2cxrBiPrCGSXdPrEWeD_UbgFM7Srk59VtwT_XPBwBhuk7ftVfytJ_k5HZpOZrWmjcUpgFwogejcdlD6Vj_VJpjYVrNsQVZTS3Dcq9EJRNXpzlDpC55wNyWdd6T3H1_GK0]--></g></svg>
