<svg contentStyleType="text/css" height="755" preserveAspectRatio="none" viewBox="0 0 923 755" width="923" xmlns="http://www.w3.org/2000/svg" zoomAndPan="magnify"><g stroke="#181818"><path d="m69 67.4883v606.2109" stroke-dasharray="5 5" stroke-width=".5"/><path d="m264 67.4883v606.2109" stroke-dasharray="5 5" stroke-width=".5"/><path d="m410 67.4883v606.2109" stroke-dasharray="5 5" stroke-width=".5"/><path d="m529 67.4883v606.2109" stroke-dasharray="5 5" stroke-width=".5"/><path d="m652 67.4883v606.2109" stroke-dasharray="5 5" stroke-width=".5"/><path d="m768 67.4883v606.2109" stroke-dasharray="5 5" stroke-width=".5"/><path d="m871 67.4883v606.2109" stroke-dasharray="5 5" stroke-width=".5"/><rect fill="#e2e2f0" height="30.4883" rx="2.5" stroke-width=".5" width="129" x="5" y="36"/></g><text font-family="sans-serif" font-size="14" lengthAdjust="spacing" textLength="115" x="12" y="56.5352">Main Application</text><rect fill="#e2e2f0" height="30.4883" rx="2.5" stroke="#181818" stroke-width=".5" width="129" x="5" y="672.6992"/><text font-family="sans-serif" font-size="14" lengthAdjust="spacing" textLength="115" x="12" y="693.2344">Main Application</text><text font-family="sans-serif" font-size="14" lengthAdjust="spacing" textLength="147" x="188" y="64.5352">Configuration Loader</text><ellipse cx="264.5" cy="35" fill="#e2e2f0" rx="12" ry="12" stroke="#181818" stroke-width=".5"/><path d="m252.5 49h24" stroke="#181818" stroke-width=".5"/><text font-family="sans-serif" font-size="14" lengthAdjust="spacing" textLength="147" x="188" y="686.2344">Configuration Loader</text><ellipse cx="264.5" cy="705.1875" fill="#e2e2f0" rx="12" ry="12" stroke="#181818" stroke-width=".5"/><path d="m252.5 719.1875h24" stroke="#181818" stroke-width=".5"/><text font-family="sans-serif" font-size="14" lengthAdjust="spacing" textLength="113" x="351" y="64.5352">Blockchain Store</text><path d="m392.5 15c0-10 18-10 18-10s18 0 18 10v26c0 10-18 10-18 10s-18 0-18-10z" fill="#e2e2f0" stroke="#181818" stroke-width="1.5"/><path d="m392.5 15c0 10 18 10 18 10s18 0 18-10" fill="none" stroke="#181818" stroke-width="1.5"/><text font-family="sans-serif" font-size="14" lengthAdjust="spacing" textLength="113" x="351" y="686.2344">Blockchain Store</text><path d="m392.5 699.1875c0-10 18-10 18-10s18 0 18 10v26c0 10-18 10-18 10s-18 0-18-10z" fill="#e2e2f0" stroke="#181818" stroke-width="1.5"/><path d="m392.5 699.1875c0 10 18 10 18 10s18 0 18-10" fill="none" stroke="#181818" stroke-width="1.5"/><text font-family="sans-serif" font-size="14" lengthAdjust="spacing" textLength="93" x="480" y="64.5352">Subtree Store</text><path d="m511.5 15c0-10 18-10 18-10s18 0 18 10v26c0 10-18 10-18 10s-18 0-18-10z" fill="#e2e2f0" stroke="#181818" stroke-width="1.5"/><path d="m511.5 15c0 10 18 10 18 10s18 0 18-10" fill="none" stroke="#181818" stroke-width="1.5"/><text font-family="sans-serif" font-size="14" lengthAdjust="spacing" textLength="93" x="480" y="686.2344">Subtree Store</text><path d="m511.5 699.1875c0-10 18-10 18-10s18 0 18 10v26c0 10-18 10-18 10s-18 0-18-10z" fill="#e2e2f0" stroke="#181818" stroke-width="1.5"/><path d="m511.5 699.1875c0 10 18 10 18 10s18 0 18-10" fill="none" stroke="#181818" stroke-width="1.5"/><text font-family="sans-serif" font-size="14" lengthAdjust="spacing" textLength="121" x="589" y="64.5352">Transaction Store</text><path d="m634.5 15c0-10 18-10 18-10s18 0 18 10v26c0 10-18 10-18 10s-18 0-18-10z" fill="#e2e2f0" stroke="#181818" stroke-width="1.5"/><path d="m634.5 15c0 10 18 10 18 10s18 0 18-10" fill="none" stroke="#181818" stroke-width="1.5"/><text font-family="sans-serif" font-size="14" lengthAdjust="spacing" textLength="121" x="589" y="686.2344">Transaction Store</text><path d="m634.5 699.1875c0-10 18-10 18-10s18 0 18 10v26c0 10-18 10-18 10s-18 0-18-10z" fill="#e2e2f0" stroke="#181818" stroke-width="1.5"/><path d="m634.5 699.1875c0 10 18 10 18 10s18 0 18-10" fill="none" stroke="#181818" stroke-width="1.5"/><text font-family="sans-serif" font-size="14" lengthAdjust="spacing" textLength="79" x="726" y="64.5352">UTXO Store</text><path d="m750.5 15c0-10 18-10 18-10s18 0 18 10v26c0 10-18 10-18 10s-18 0-18-10z" fill="#e2e2f0" stroke="#181818" stroke-width="1.5"/><path d="m750.5 15c0 10 18 10 18 10s18 0 18-10" fill="none" stroke="#181818" stroke-width="1.5"/><text font-family="sans-serif" font-size="14" lengthAdjust="spacing" textLength="79" x="726" y="686.2344">UTXO Store</text><path d="m750.5 699.1875c0-10 18-10 18-10s18 0 18 10v26c0 10-18 10-18 10s-18 0-18-10z" fill="#e2e2f0" stroke="#181818" stroke-width="1.5"/><path d="m750.5 699.1875c0 10 18 10 18 10s18 0 18-10" fill="none" stroke="#181818" stroke-width="1.5"/><text font-family="sans-serif" font-size="14" lengthAdjust="spacing" textLength="95" x="821" y="64.5352">TX Meta Store</text><path d="m853.5 15c0-10 18-10 18-10s18 0 18 10v26c0 10-18 10-18 10s-18 0-18-10z" fill="#e2e2f0" stroke="#181818" stroke-width="1.5"/><path d="m853.5 15c0 10 18 10 18 10s18 0 18-10" fill="none" stroke="#181818" stroke-width="1.5"/><text font-family="sans-serif" font-size="14" lengthAdjust="spacing" textLength="95" x="821" y="686.2344">TX Meta Store</text><path d="m853.5 699.1875c0-10 18-10 18-10s18 0 18 10v26c0 10-18 10-18 10s-18 0-18-10z" fill="#e2e2f0" stroke="#181818" stroke-width="1.5"/><path d="m853.5 699.1875c0 10 18 10 18 10s18 0 18-10" fill="none" stroke="#181818" stroke-width="1.5"/><path d="m252.5 94.7988 10 4-10 4 4-4z" fill="#181818" stroke="#181818"/><path d="m69.5 98.7988h189" stroke="#181818"/><text font-family="sans-serif" font-size="13" lengthAdjust="spacing" textLength="171" x="76.5" y="94.0566">GetURL("blockchain_store")</text><path d="m80.5 124.1094-10 4 10 4-4-4z" fill="#181818" stroke="#181818"/><path d="m74.5 128.1094h189" stroke="#181818" stroke-dasharray="2 2"/><text font-family="sans-serif" font-size="13" lengthAdjust="spacing" textLength="170" x="86.5" y="123.3672">Return blockchainStoreURL</text><path d="m398.5 153.4199 10 4-10 4 4-4z" fill="#181818" stroke="#181818"/><path d="m69.5 157.4199h335" stroke="#181818"/><text font-family="sans-serif" font-size="13" lengthAdjust="spacing" textLength="214" x="76.5" y="152.6777">Initialize with blockchainStoreURL</text><path d="m80.5 182.7305-10 4 10 4-4-4z" fill="#181818" stroke="#181818"/><path d="m74.5 186.7305h335" stroke="#181818" stroke-dasharray="2 2"/><text font-family="sans-serif" font-size="13" lengthAdjust="spacing" textLength="62" x="86.5" y="181.9883">Initialized</text><path d="m252.5 212.041 10 4-10 4 4-4z" fill="#181818" stroke="#181818"/><path d="m69.5 216.041h189" stroke="#181818"/><text font-family="sans-serif" font-size="13" lengthAdjust="spacing" textLength="142" x="76.5" y="211.2988">GetURL("subtreestore")</text><path d="m80.5 241.3516-10 4 10 4-4-4z" fill="#181818" stroke="#181818"/><path d="m74.5 245.3516h189" stroke="#181818" stroke-dasharray="2 2"/><text font-family="sans-serif" font-size="13" lengthAdjust="spacing" textLength="142" x="86.5" y="240.6094">Return subtreeStoreUrl</text><path d="m517.5 270.6621 10 4-10 4 4-4z" fill="#181818" stroke="#181818"/><path d="m69.5 274.6621h454" stroke="#181818"/><text font-family="sans-serif" font-size="13" lengthAdjust="spacing" textLength="186" x="76.5" y="269.9199">Initialize with subtreeStoreUrl</text><path d="m80.5 299.9727-10 4 10 4-4-4z" fill="#181818" stroke="#181818"/><path d="m74.5 303.9727h454" stroke="#181818" stroke-dasharray="2 2"/><text font-family="sans-serif" font-size="13" lengthAdjust="spacing" textLength="62" x="86.5" y="299.2305">Initialized</text><path d="m252.5 329.2832 10 4-10 4 4-4z" fill="#181818" stroke="#181818"/><path d="m69.5 333.2832h189" stroke="#181818"/><text font-family="sans-serif" font-size="13" lengthAdjust="spacing" textLength="108" x="76.5" y="328.541">GetURL("txstore")</text><path d="m80.5 358.5938-10 4 10 4-4-4z" fill="#181818" stroke="#181818"/><path d="m74.5 362.5938h189" stroke="#181818" stroke-dasharray="2 2"/><text font-family="sans-serif" font-size="13" lengthAdjust="spacing" textLength="108" x="86.5" y="357.8516">Return txStoreUrl</text><path d="m640.5 387.9043 10 4-10 4 4-4z" fill="#181818" stroke="#181818"/><path d="m69.5 391.9043h577" stroke="#181818"/><text font-family="sans-serif" font-size="13" lengthAdjust="spacing" textLength="152" x="76.5" y="387.1621">Initialize with txStoreUrl</text><path d="m80.5 417.2148-10 4 10 4-4-4z" fill="#181818" stroke="#181818"/><path d="m74.5 421.2148h577" stroke="#181818" stroke-dasharray="2 2"/><text font-family="sans-serif" font-size="13" lengthAdjust="spacing" textLength="62" x="86.5" y="416.4727">Initialized</text><path d="m252.5 446.5254 10 4-10 4 4-4z" fill="#181818" stroke="#181818"/><path d="m69.5 450.5254h189" stroke="#181818"/><text font-family="sans-serif" font-size="13" lengthAdjust="spacing" textLength="124" x="76.5" y="445.7832">GetURL("utxostore")</text><path d="m80.5 475.8359-10 4 10 4-4-4z" fill="#181818" stroke="#181818"/><path d="m74.5 479.8359h189" stroke="#181818" stroke-dasharray="2 2"/><text font-family="sans-serif" font-size="13" lengthAdjust="spacing" textLength="130" x="86.5" y="475.0938">Return utxoStoreURL</text><path d="m756.5 505.1465 10 4-10 4 4-4z" fill="#181818" stroke="#181818"/><path d="m69.5 509.1465h693" stroke="#181818"/><text font-family="sans-serif" font-size="13" lengthAdjust="spacing" textLength="174" x="76.5" y="504.4043">Initialize with utxoStoreURL</text><path d="m80.5 534.457-10 4 10 4-4-4z" fill="#181818" stroke="#181818"/><path d="m74.5 538.457h693" stroke="#181818" stroke-dasharray="2 2"/><text font-family="sans-serif" font-size="13" lengthAdjust="spacing" textLength="62" x="86.5" y="533.7148">Initialized</text><path d="m252.5 563.7676 10 4-10 4 4-4z" fill="#181818" stroke="#181818"/><path d="m69.5 567.7676h189" stroke="#181818"/><text font-family="sans-serif" font-size="13" lengthAdjust="spacing" textLength="146" x="76.5" y="563.0254">GetURL("txmeta_store")</text><path d="m80.5 593.0781-10 4 10 4-4-4z" fill="#181818" stroke="#181818"/><path d="m74.5 597.0781h189" stroke="#181818" stroke-dasharray="2 2"/><text font-family="sans-serif" font-size="13" lengthAdjust="spacing" textLength="144" x="86.5" y="592.3359">Return txMetaStoreURL</text><path d="m859.5 622.3887 10 4-10 4 4-4z" fill="#181818" stroke="#181818"/><path d="m69.5 626.3887h796" stroke="#181818"/><text font-family="sans-serif" font-size="13" lengthAdjust="spacing" textLength="188" x="76.5" y="621.6465">Initialize with txMetaStoreURL</text><path d="m80.5 651.6992-10 4 10 4-4-4z" fill="#181818" stroke="#181818"/><path d="m74.5 655.6992h796" stroke="#181818" stroke-dasharray="2 2"/><text font-family="sans-serif" font-size="13" lengthAdjust="spacing" textLength="62" x="86.5" y="650.957">Initialized</text><text fill="#888" font-family="sans-serif" font-size="10" lengthAdjust="spacing" textLength="351" x="3" y="745.8555">Last Modified On: 15-April-2024. © 2024 Bitcoin SV. All rights reserved.</text></svg>
