<?xml version="1.0" encoding="us-ascii" standalone="no"?><svg xmlns="http://www.w3.org/2000/svg" xmlns:xlink="http://www.w3.org/1999/xlink" contentStyleType="text/css" height="783px" preserveAspectRatio="none" style="width:623px;height:783px;background:#FFFFFF;" version="1.1" viewBox="0 0 623 783" width="623px" zoomAndPan="magnify"><defs/><g><rect fill="none" height="439.3027" style="stroke:#000000;stroke-width:1.5;" width="596" x="10" y="245.041"/><rect fill="none" height="365.6816" style="stroke:#000000;stroke-width:1.5;" width="576" x="20" y="311.6621"/><line style="stroke:#181818;stroke-width:0.5;stroke-dasharray:5.0,5.0;" x1="61" x2="61" y1="67.4883" y2="701.3438"/><line style="stroke:#181818;stroke-width:0.5;stroke-dasharray:5.0,5.0;" x1="258" x2="258" y1="67.4883" y2="701.3438"/><line style="stroke:#181818;stroke-width:0.5;stroke-dasharray:5.0,5.0;" x1="416" x2="416" y1="67.4883" y2="701.3438"/><line style="stroke:#181818;stroke-width:0.5;stroke-dasharray:5.0,5.0;" x1="543" x2="543" y1="67.4883" y2="701.3438"/><rect fill="#E2E2F0" height="30.4883" rx="2.5" ry="2.5" style="stroke:#181818;stroke-width:0.5;" width="63" x="30" y="36"/><text fill="#000000" font-family="sans-serif" font-size="14" lengthAdjust="spacing" textLength="49" x="37" y="56.5352">Worker</text><rect fill="#E2E2F0" height="30.4883" rx="2.5" ry="2.5" style="stroke:#181818;stroke-width:0.5;" width="63" x="30" y="700.3438"/><text fill="#000000" font-family="sans-serif" font-size="14" lengthAdjust="spacing" textLength="49" x="37" y="720.8789">Worker</text><rect fill="#E2E2F0" height="30.4883" rx="2.5" ry="2.5" style="stroke:#181818;stroke-width:0.5;" width="147" x="185" y="36"/><text fill="#000000" font-family="sans-serif" font-size="14" lengthAdjust="spacing" textLength="133" x="192" y="56.5352">UTXO Store Factory</text><rect fill="#E2E2F0" height="30.4883" rx="2.5" ry="2.5" style="stroke:#181818;stroke-width:0.5;" width="147" x="185" y="700.3438"/><text fill="#000000" font-family="sans-serif" font-size="14" lengthAdjust="spacing" textLength="133" x="192" y="720.8789">UTXO Store Factory</text><rect fill="#E2E2F0" height="30.4883" rx="2.5" ry="2.5" style="stroke:#181818;stroke-width:0.5;" width="149" x="342" y="36"/><text fill="#000000" font-family="sans-serif" font-size="14" lengthAdjust="spacing" textLength="135" x="349" y="56.5352">Prometheus Metrics</text><rect fill="#E2E2F0" height="30.4883" rx="2.5" ry="2.5" style="stroke:#181818;stroke-width:0.5;" width="149" x="342" y="700.3438"/><text fill="#000000" font-family="sans-serif" font-size="14" lengthAdjust="spacing" textLength="135" x="349" y="720.8789">Prometheus Metrics</text><text fill="#000000" font-family="sans-serif" font-size="14" lengthAdjust="spacing" textLength="79" x="501" y="64.5352">UTXO Store</text><path d="M525.5,15 C525.5,5 543.5,5 543.5,5 C543.5,5 561.5,5 561.5,15 L561.5,41 C561.5,51 543.5,51 543.5,51 C543.5,51 525.5,51 525.5,41 L525.5,15 " fill="#E2E2F0" style="stroke:#181818;stroke-width:1.5;"/><path d="M525.5,15 C525.5,25 543.5,25 543.5,25 C543.5,25 561.5,25 561.5,15 " fill="none" style="stroke:#181818;stroke-width:1.5;"/><text fill="#000000" font-family="sans-serif" font-size="14" lengthAdjust="spacing" textLength="79" x="501" y="713.8789">UTXO Store</text><path d="M525.5,726.832 C525.5,716.832 543.5,716.832 543.5,716.832 C543.5,716.832 561.5,716.832 561.5,726.832 L561.5,752.832 C561.5,762.832 543.5,762.832 543.5,762.832 C543.5,762.832 525.5,762.832 525.5,752.832 L525.5,726.832 " fill="#E2E2F0" style="stroke:#181818;stroke-width:1.5;"/><path d="M525.5,726.832 C525.5,736.832 543.5,736.832 543.5,736.832 C543.5,736.832 561.5,736.832 561.5,726.832 " fill="none" style="stroke:#181818;stroke-width:1.5;"/><rect fill="#EEEEEE" height="3" style="stroke:#EEEEEE;stroke-width:1.0;" width="616" x="0" y="98.1436"/><line style="stroke:#000000;stroke-width:1.0;" x1="0" x2="616" y1="98.1436" y2="98.1436"/><line style="stroke:#000000;stroke-width:1.0;" x1="0" x2="616" y1="101.1436" y2="101.1436"/><rect fill="#EEEEEE" height="23.3105" style="stroke:#000000;stroke-width:2.0;" width="154" x="231" y="87.4883"/><text fill="#000000" font-family="sans-serif" font-size="13" font-weight="bold" lengthAdjust="spacing" textLength="136" x="237" y="104.0566">Worker Initialization</text><polygon fill="#181818" points="246.5,153.4199,256.5,157.4199,246.5,161.4199,250.5,157.4199" style="stroke:#181818;stroke-width:1.0;"/><line style="stroke:#181818;stroke-width:1.0;" x1="61.5" x2="252.5" y1="157.4199" y2="157.4199"/><text fill="#000000" font-family="sans-serif" font-size="13" lengthAdjust="spacing" textLength="83" x="68.5" y="137.3672">Call storeFn()</text><text fill="#000000" font-family="sans-serif" font-size="13" lengthAdjust="spacing" textLength="146" x="68.5" y="152.6777">to initialize UTXO Store</text><polygon fill="#181818" points="72.5,182.7305,62.5,186.7305,72.5,190.7305,68.5,186.7305" style="stroke:#181818;stroke-width:1.0;"/><line style="stroke:#181818;stroke-width:1.0;stroke-dasharray:2.0,2.0;" x1="66.5" x2="257.5" y1="186.7305" y2="186.7305"/><text fill="#000000" font-family="sans-serif" font-size="13" lengthAdjust="spacing" textLength="173" x="78.5" y="181.9883">Return UTXO Store instance</text><rect fill="#EEEEEE" height="3" style="stroke:#EEEEEE;stroke-width:1.0;" width="616" x="0" y="215.3857"/><line style="stroke:#000000;stroke-width:1.0;" x1="0" x2="616" y1="215.3857" y2="215.3857"/><line style="stroke:#000000;stroke-width:1.0;" x1="0" x2="616" y1="218.3857" y2="218.3857"/><rect fill="#EEEEEE" height="23.3105" style="stroke:#000000;stroke-width:2.0;" width="136" x="240" y="204.7305"/><text fill="#000000" font-family="sans-serif" font-size="13" font-weight="bold" lengthAdjust="spacing" textLength="118" x="246" y="221.2988">UTXO Generation</text><path d="M10,245.041 L84,245.041 L84,252.3516 L74,262.3516 L10,262.3516 L10,245.041 " fill="#EEEEEE" style="stroke:#000000;stroke-width:1.5;"/><rect fill="none" height="439.3027" style="stroke:#000000;stroke-width:1.5;" width="596" x="10" y="245.041"/><text fill="#000000" font-family="sans-serif" font-size="13" font-weight="bold" lengthAdjust="spacing" textLength="29" x="25" y="258.6094">loop</text><text fill="#000000" font-family="sans-serif" font-size="11" font-weight="bold" lengthAdjust="spacing" textLength="173" x="99" y="257.6758">[Continuous UTXO Processing]</text><line style="stroke:#181818;stroke-width:1.0;" x1="61.5" x2="103.5" y1="283.6621" y2="283.6621"/><line style="stroke:#181818;stroke-width:1.0;" x1="103.5" x2="103.5" y1="283.6621" y2="296.6621"/><line style="stroke:#181818;stroke-width:1.0;" x1="62.5" x2="103.5" y1="296.6621" y2="296.6621"/><polygon fill="#181818" points="72.5,292.6621,62.5,296.6621,72.5,300.6621,68.5,296.6621" style="stroke:#181818;stroke-width:1.0;"/><text fill="#000000" font-family="sans-serif" font-size="13" lengthAdjust="spacing" textLength="123" x="68.5" y="278.9199">Generate new UTXO</text><path d="M20,311.6621 L82,311.6621 L82,318.9727 L72,328.9727 L20,328.9727 L20,311.6621 " fill="#EEEEEE" style="stroke:#000000;stroke-width:1.5;"/><rect fill="none" height="365.6816" style="stroke:#000000;stroke-width:1.5;" width="576" x="20" y="311.6621"/><text fill="#000000" font-family="sans-serif" font-size="13" font-weight="bold" lengthAdjust="spacing" textLength="17" x="35" y="325.2305">alt</text><text fill="#000000" font-family="sans-serif" font-size="11" font-weight="bold" lengthAdjust="spacing" textLength="167" x="97" y="324.2969">[Successful UTXO Generation]</text><polygon fill="#181818" points="531.5,346.2832,541.5,350.2832,531.5,354.2832,535.5,350.2832" style="stroke:#181818;stroke-width:1.0;"/><line style="stroke:#181818;stroke-width:1.0;" x1="61.5" x2="537.5" y1="350.2832" y2="350.2832"/><text fill="#000000" font-family="sans-serif" font-size="13" lengthAdjust="spacing" textLength="100" x="68.5" y="345.541">Store new UTXO</text><polygon fill="#181818" points="72.5,375.5938,62.5,379.5938,72.5,383.5938,68.5,379.5938" style="stroke:#181818;stroke-width:1.0;"/><line style="stroke:#181818;stroke-width:1.0;stroke-dasharray:2.0,2.0;" x1="66.5" x2="542.5" y1="379.5938" y2="379.5938"/><text fill="#000000" font-family="sans-serif" font-size="13" lengthAdjust="spacing" textLength="120" x="78.5" y="374.8516">Acknowledge Store</text><polygon fill="#181818" points="404.5,420.2148,414.5,424.2148,404.5,428.2148,408.5,424.2148" style="stroke:#181818;stroke-width:1.0;"/><line style="stroke:#181818;stroke-width:1.0;" x1="61.5" x2="410.5" y1="424.2148" y2="424.2148"/><text fill="#000000" font-family="sans-serif" font-size="13" lengthAdjust="spacing" textLength="119" x="68.5" y="404.1621">Observe store time</text><text fill="#000000" font-family="sans-serif" font-size="13" lengthAdjust="spacing" textLength="219" x="68.5" y="419.4727">(prometheusUtxoStoreBlasterStore)</text><line style="stroke:#181818;stroke-width:1.0;" x1="61.5" x2="103.5" y1="453.5254" y2="453.5254"/><line style="stroke:#181818;stroke-width:1.0;" x1="103.5" x2="103.5" y1="453.5254" y2="466.5254"/><line style="stroke:#181818;stroke-width:1.0;" x1="62.5" x2="103.5" y1="466.5254" y2="466.5254"/><polygon fill="#181818" points="72.5,462.5254,62.5,466.5254,72.5,470.5254,68.5,466.5254" style="stroke:#181818;stroke-width:1.0;"/><text fill="#000000" font-family="sans-serif" font-size="13" lengthAdjust="spacing" textLength="164" x="68.5" y="448.7832">Sleep for storeSpendDelay</text><polygon fill="#181818" points="531.5,491.8359,541.5,495.8359,531.5,499.8359,535.5,495.8359" style="stroke:#181818;stroke-width:1.0;"/><line style="stroke:#181818;stroke-width:1.0;" x1="61.5" x2="537.5" y1="495.8359" y2="495.8359"/><text fill="#000000" font-family="sans-serif" font-size="13" lengthAdjust="spacing" textLength="127" x="68.5" y="491.0938">Mark UTXO as spent</text><polygon fill="#181818" points="72.5,521.1465,62.5,525.1465,72.5,529.1465,68.5,525.1465" style="stroke:#181818;stroke-width:1.0;"/><line style="stroke:#181818;stroke-width:1.0;stroke-dasharray:2.0,2.0;" x1="66.5" x2="542.5" y1="525.1465" y2="525.1465"/><text fill="#000000" font-family="sans-serif" font-size="13" lengthAdjust="spacing" textLength="126" x="78.5" y="520.4043">Acknowledge Spend</text><polygon fill="#181818" points="404.5,565.7676,414.5,569.7676,404.5,573.7676,408.5,569.7676" style="stroke:#181818;stroke-width:1.0;"/><line style="stroke:#181818;stroke-width:1.0;" x1="61.5" x2="410.5" y1="569.7676" y2="569.7676"/><text fill="#000000" font-family="sans-serif" font-size="13" lengthAdjust="spacing" textLength="125" x="68.5" y="549.7148">Observe spend time</text><text fill="#000000" font-family="sans-serif" font-size="13" lengthAdjust="spacing" textLength="225" x="68.5" y="565.0254">(prometheusUtxoStoreBlasterSpend)</text><line style="stroke:#181818;stroke-width:1.0;" x1="61.5" x2="103.5" y1="599.0781" y2="599.0781"/><line style="stroke:#181818;stroke-width:1.0;" x1="103.5" x2="103.5" y1="599.0781" y2="612.0781"/><line style="stroke:#181818;stroke-width:1.0;" x1="62.5" x2="103.5" y1="612.0781" y2="612.0781"/><polygon fill="#181818" points="72.5,608.0781,62.5,612.0781,72.5,616.0781,68.5,612.0781" style="stroke:#181818;stroke-width:1.0;"/><text fill="#000000" font-family="sans-serif" font-size="13" lengthAdjust="spacing" textLength="115" x="68.5" y="594.3359">Increment counter</text><line style="stroke:#000000;stroke-width:1.0;stroke-dasharray:2.0,2.0;" x1="20" x2="596" y1="621.0781" y2="621.0781"/><text fill="#000000" font-family="sans-serif" font-size="11" font-weight="bold" lengthAdjust="spacing" textLength="216" x="25" y="631.7129">[UTXO Generation or Operation Failed]</text><line style="stroke:#181818;stroke-width:1.0;" x1="61.5" x2="103.5" y1="656.3438" y2="656.3438"/><line style="stroke:#181818;stroke-width:1.0;" x1="103.5" x2="103.5" y1="656.3438" y2="669.3438"/><line style="stroke:#181818;stroke-width:1.0;" x1="62.5" x2="103.5" y1="669.3438" y2="669.3438"/><polygon fill="#181818" points="72.5,665.3438,62.5,669.3438,72.5,673.3438,68.5,669.3438" style="stroke:#181818;stroke-width:1.0;"/><text fill="#000000" font-family="sans-serif" font-size="13" lengthAdjust="spacing" textLength="57" x="68.5" y="651.6016">Log error</text><text fill="#888888" font-family="sans-serif" font-size="10" lengthAdjust="spacing" textLength="349" x="3" y="773.5">Last Modified On: 13-June-2024. &#169; 2024 Bitcoin SV. All rights reserved.</text><!--SRC=[bLD1Rjim4Bpp5GkVaeEDDkr9W0iaALoaYE6YQj8USc6ejKEOtXN8LTFqH_r6NrQIeXox2On4WA2bE3CxivHQxSKQsseI67rdlqO_0XsWBrMxkttrxSS2Qc6FCDCcFXyojDJxs2-UDoXts0MOetXhGiQMMZLQzAqEk2kQ0McPLqfDfyK5N90LgvtzhSKomNIgoiRumz2zWdFj78H4dT7HyGq9Wnru28zjL670EB9xdGg-edIUTb2H6qIJwNtazv-Gq6yTEEOMpfd4KiTTRnnYQeCXM5efYDUZow5FqK0WlC-KZDDEeEvCeYuxzt-t3DcNsqwfAcxtvDArHUp5F3Lhudk7pGhBC9vgboEgO74RqF_4VgOWTeCtTDHkp_LAVd7ME7Cw2FfS7wjd58VkjKDiOSc-bwnRfEOZElsW3aUSQx_kXn8_a11PyfgOgSkBOYRW2s8csC6O5sGyRg9BCDnHf6Gike1FlgCuYaKxB6RQHii7X2zv1UWz5y4OAztAuLBYL3bsWX5SHfSmvyOkBJQme0hUlXj_xWZ79szEta_Wxnz81PnPCMm9wki9dCO_nzlLdGJmcAVHJ4Rg7m00]--></g></svg>
