<svg contentStyleType="text/css" height="590" preserveAspectRatio="none" viewBox="0 0 1167 590" width="1167" xmlns="http://www.w3.org/2000/svg" zoomAndPan="magnify"><g stroke="#181818"><path d="m196 98.7988h10v391.7266h-10z" fill="#fff"/><path d="m332 128.1094h10v371.416h-10z" fill="#fff"/><path d="m337 301.6621h10v29.3105h-10z" fill="#fff"/><path d="m337 461.2148h10v29.3105h-10z" fill="#fff"/><path d="m470.5 157.4199h10v14h-10z" fill="#fff"/><path d="m596.5 200.7305h10v289.7949h-10z" fill="#fff"/><path d="m70 67.4883v441.0371" stroke-dasharray="5 5" stroke-width=".5"/><path d="m200.5 67.4883v441.0371" stroke-dasharray="5 5" stroke-width=".5"/><path d="m337 67.4883v441.0371" stroke-dasharray="5 5" stroke-width=".5"/><path d="m475 67.4883v441.0371" stroke-dasharray="5 5" stroke-width=".5"/><path d="m601 67.4883v441.0371" stroke-dasharray="5 5" stroke-width=".5"/><path d="m846.5 67.4883v441.0371" stroke-dasharray="5 5" stroke-width=".5"/><path d="m1030.5 67.4883v441.0371" stroke-dasharray="5 5" stroke-width=".5"/><rect fill="#e2e2f0" height="30.4883" rx="2.5" stroke-width=".5" width="130" x="5" y="36"/></g><text font-family="sans-serif" font-size="14" lengthAdjust="spacing" textLength="116" x="12" y="56.5352">Coinbase Service</text><rect fill="#e2e2f0" height="30.4883" rx="2.5" stroke="#181818" stroke-width=".5" width="130" x="5" y="507.5254"/><text font-family="sans-serif" font-size="14" lengthAdjust="spacing" textLength="116" x="12" y="528.0605">Coinbase Service</text><rect fill="#e2e2f0" height="30.4883" rx="2.5" stroke="#181818" stroke-width=".5" width="95" x="153.5" y="36"/><text font-family="sans-serif" font-size="14" lengthAdjust="spacing" textLength="81" x="160.5" y="56.5352">Asset Client</text><rect fill="#e2e2f0" height="30.4883" rx="2.5" stroke="#181818" stroke-width=".5" width="95" x="153.5" y="507.5254"/><text font-family="sans-serif" font-size="14" lengthAdjust="spacing" textLength="81" x="160.5" y="528.0605">Asset Client</text><rect fill="#e2e2f0" height="46.9766" rx="2.5" stroke="#181818" stroke-width=".5" width="156" x="259" y="19.5117"/><text font-family="sans-serif" font-size="14" lengthAdjust="spacing" textLength="142" x="266" y="40.0469">Asset Server Handler</text><text font-family="sans-serif" font-size="14" lengthAdjust="spacing" textLength="105" x="284.5" y="56.5352">(asset/grpc.go)</text><rect fill="#e2e2f0" height="46.9766" rx="2.5" stroke="#181818" stroke-width=".5" width="156" x="259" y="507.5254"/><text font-family="sans-serif" font-size="14" lengthAdjust="spacing" textLength="142" x="266" y="528.0605">Asset Server Handler</text><text font-family="sans-serif" font-size="14" lengthAdjust="spacing" textLength="105" x="284.5" y="544.5488">(asset/grpc.go)</text><text font-family="sans-serif" font-size="14" lengthAdjust="spacing" textLength="95" x="425" y="64.5352">Subscriber DB</text><path d="m457.5 15c0-10 18-10 18-10s18 0 18 10v26c0 10-18 10-18 10s-18 0-18-10z" fill="#e2e2f0" stroke="#181818" stroke-width="1.5"/><path d="m457.5 15c0 10 18 10 18 10s18 0 18-10" fill="none" stroke="#181818" stroke-width="1.5"/><text font-family="sans-serif" font-size="14" lengthAdjust="spacing" textLength="95" x="425" y="521.0605">Subscriber DB</text><path d="m457.5 534.0137c0-10 18-10 18-10s18 0 18 10v26c0 10-18 10-18 10s-18 0-18-10z" fill="#e2e2f0" stroke="#181818" stroke-width="1.5"/><path d="m457.5 534.0137c0 10 18 10 18 10s18 0 18-10" fill="none" stroke="#181818" stroke-width="1.5"/><rect fill="#e2e2f0" height="30.4883" rx="2.5" stroke="#181818" stroke-width=".5" width="131" x="536" y="36"/><text font-family="sans-serif" font-size="14" lengthAdjust="spacing" textLength="117" x="543" y="56.5352">Blockchain Client</text><rect fill="#e2e2f0" height="30.4883" rx="2.5" stroke="#181818" stroke-width=".5" width="131" x="536" y="507.5254"/><text font-family="sans-serif" font-size="14" lengthAdjust="spacing" textLength="117" x="543" y="528.0605">Blockchain Client</text><rect fill="#e2e2f0" height="30.4883" rx="2.5" stroke="#181818" stroke-width=".5" width="134" x="779.5" y="36"/><text font-family="sans-serif" font-size="14" lengthAdjust="spacing" textLength="120" x="786.5" y="56.5352">Blockchain Server</text><rect fill="#e2e2f0" height="30.4883" rx="2.5" stroke="#181818" stroke-width=".5" width="134" x="779.5" y="507.5254"/><text font-family="sans-serif" font-size="14" lengthAdjust="spacing" textLength="120" x="786.5" y="528.0605">Blockchain Server</text><rect fill="#e2e2f0" height="30.4883" rx="2.5" stroke="#181818" stroke-width=".5" width="166" x="947.5" y="36"/><text font-family="sans-serif" font-size="14" lengthAdjust="spacing" textLength="152" x="954.5" y="56.5352">Block Assembly Server</text><rect fill="#e2e2f0" height="30.4883" rx="2.5" stroke="#181818" stroke-width=".5" width="166" x="947.5" y="507.5254"/><text font-family="sans-serif" font-size="14" lengthAdjust="spacing" textLength="152" x="954.5" y="528.0605">Block Assembly Server</text><path d="m196 98.7988h10v391.7266h-10z" fill="#fff" stroke="#181818"/><path d="m332 128.1094h10v371.416h-10z" fill="#fff" stroke="#181818"/><path d="m337 301.6621h10v29.3105h-10z" fill="#fff" stroke="#181818"/><path d="m337 461.2148h10v29.3105h-10z" fill="#fff" stroke="#181818"/><path d="m470.5 157.4199h10v14h-10z" fill="#fff" stroke="#181818"/><path d="m596.5 200.7305h10v289.7949h-10z" fill="#fff" stroke="#181818"/><path d="m184 94.7988 10 4-10 4 4-4z" fill="#181818" stroke="#181818"/><path d="m70 98.7988h120" stroke="#181818"/><text font-family="sans-serif" font-size="13" lengthAdjust="spacing" textLength="107" x="77" y="94.0566">Subscribe(ctx, "")</text><path d="m320 124.1094 10 4-10 4 4-4z" fill="#181818" stroke="#181818"/><path d="m206 128.1094h120" stroke="#181818"/><text font-family="sans-serif" font-size="13" lengthAdjust="spacing" textLength="107" x="213" y="123.3672">Subscribe(ctx, "")</text><path d="m458.5 153.4199 10 4-10 4 4-4z" fill="#181818" stroke="#181818"/><path d="m342 157.4199h122.5" stroke="#181818"/><text font-family="sans-serif" font-size="13" lengthAdjust="spacing" textLength="105" x="349" y="152.6777">Track subscriber</text><path d="m353 167.4199-10 4 10 4-4-4z" fill="#181818" stroke="#181818"/><path d="m347 171.4199h127.5" stroke="#181818" stroke-dasharray="2 2"/><path d="m584.5 196.7305 10 4-10 4 4-4z" fill="#181818" stroke="#181818"/><path d="m342 200.7305h248.5" stroke="#181818"/><text font-family="sans-serif" font-size="13" lengthAdjust="spacing" textLength="69" x="349" y="195.9883">Subscribe()</text><path d="m846.5 230.041h42" stroke="#181818"/><path d="m888.5 230.041v13" stroke="#181818"/><path d="m847.5 243.041h41" stroke="#181818"/><path d="m857.5 239.041-10 4 10 4-4-4z" fill="#181818" stroke="#181818"/><text font-family="sans-serif" font-size="13" lengthAdjust="spacing" textLength="67" x="853.5" y="225.2988">AddBlock()</text><path d="m617.5 268.3516-10 4 10 4-4-4z" fill="#181818" stroke="#181818"/><path d="m611.5 272.3516h234" stroke="#181818"/><text font-family="sans-serif" font-size="13" lengthAdjust="spacing" textLength="216" x="623.5" y="267.6094">Send Notification Block, MiningOn</text><path d="m358 297.6621-10 4 10 4-4-4z" fill="#181818" stroke="#181818"/><path d="m352 301.6621h243.5" stroke="#181818"/><text font-family="sans-serif" font-size="13" lengthAdjust="spacing" textLength="216" x="364" y="296.9199">Send Notification Block, MiningOn</text><path d="m81 326.9727-10 4 10 4-4-4z" fill="#181818" stroke="#181818"/><path d="m75 330.9727h256" stroke="#181818" stroke-dasharray="2 2"/><text font-family="sans-serif" font-size="13" lengthAdjust="spacing" textLength="182" x="87" y="326.2305">Notification Block, MiningOn</text><path d="m1030.5 360.2832h42" stroke="#181818"/><path d="m1072.5 360.2832v13" stroke="#181818"/><path d="m1031.5 373.2832h41" stroke="#181818"/><path d="m1041.5 369.2832-10 4 10 4-4-4z" fill="#181818" stroke="#181818"/><text font-family="sans-serif" font-size="13" lengthAdjust="spacing" textLength="123" x="1037.5" y="355.541">init() - New Subtree</text><path d="m857.5 398.5938-10 4 10 4-4-4z" fill="#181818" stroke="#181818"/><path d="m851.5 402.5938h178" stroke="#181818"/><text font-family="sans-serif" font-size="13" lengthAdjust="spacing" textLength="160" x="863.5" y="397.8516">Send Notification Subtree</text><path d="m617.5 427.9043-10 4 10 4-4-4z" fill="#181818" stroke="#181818"/><path d="m611.5 431.9043h234" stroke="#181818"/><text font-family="sans-serif" font-size="13" lengthAdjust="spacing" textLength="160" x="623.5" y="427.1621">Send Notification Subtree</text><path d="m358 457.2148-10 4 10 4-4-4z" fill="#181818" stroke="#181818"/><path d="m352 461.2148h243.5" stroke="#181818"/><text font-family="sans-serif" font-size="13" lengthAdjust="spacing" textLength="160" x="364" y="456.4727">Send Notification Subtree</text><path d="m81 486.5254-10 4 10 4-4-4z" fill="#181818" stroke="#181818"/><path d="m75 490.5254h256" stroke="#181818" stroke-dasharray="2 2"/><text font-family="sans-serif" font-size="13" lengthAdjust="spacing" textLength="126" x="87" y="485.7832">Notification Subtree</text><text fill="#888" font-family="sans-serif" font-size="10" lengthAdjust="spacing" textLength="149" y="580.6816">Last Modified On: 4-Dec-2023</text></svg>
