<?xml version="1.0" encoding="us-ascii" standalone="no"?><svg xmlns="http://www.w3.org/2000/svg" xmlns:xlink="http://www.w3.org/1999/xlink" contentStyleType="text/css" height="333px" preserveAspectRatio="none" style="width:581px;height:333px;background:#FFFFFF;" version="1.1" viewBox="0 0 581 333" width="581px" zoomAndPan="magnify"><defs/><g><rect fill="#FFFFFF" height="163.5078" style="stroke:#181818;stroke-width:1.0;" width="10" x="292" y="84.2871"/><rect fill="#FFFFFF" height="112.8867" style="stroke:#181818;stroke-width:1.0;" width="10" x="513" y="113.5977"/><rect fill="none" height="90.8867" style="stroke:#000000;stroke-width:1.5;" width="381.5" x="193" y="128.5977"/><line style="stroke:#181818;stroke-width:0.5;stroke-dasharray:5.0,5.0;" x1="52" x2="52" y1="52.9766" y2="265.7949"/><line style="stroke:#181818;stroke-width:0.5;stroke-dasharray:5.0,5.0;" x1="297" x2="297" y1="52.9766" y2="265.7949"/><line style="stroke:#181818;stroke-width:0.5;stroke-dasharray:5.0,5.0;" x1="517.5" x2="517.5" y1="52.9766" y2="265.7949"/><rect fill="#E2E2F0" height="30.4883" rx="2.5" ry="2.5" style="stroke:#181818;stroke-width:0.5;" width="94" x="5" y="21.4883"/><text fill="#000000" font-family="sans-serif" font-size="14" lengthAdjust="spacing" textLength="80" x="12" y="42.0234">HTTP Client</text><rect fill="#E2E2F0" height="30.4883" rx="2.5" ry="2.5" style="stroke:#181818;stroke-width:0.5;" width="94" x="5" y="264.7949"/><text fill="#000000" font-family="sans-serif" font-size="14" lengthAdjust="spacing" textLength="80" x="12" y="285.3301">HTTP Client</text><rect fill="#E2E2F0" height="46.9766" rx="2.5" ry="2.5" style="stroke:#181818;stroke-width:0.5;" width="188" x="203" y="5"/><text fill="#000000" font-family="sans-serif" font-size="14" lengthAdjust="spacing" textLength="83" x="255.5" y="25.5352">HTTP Server</text><text fill="#000000" font-family="sans-serif" font-size="14" lengthAdjust="spacing" textLength="174" x="210" y="42.0234">(asset/http_impl/http.go)</text><rect fill="#E2E2F0" height="46.9766" rx="2.5" ry="2.5" style="stroke:#181818;stroke-width:0.5;" width="188" x="203" y="264.7949"/><text fill="#000000" font-family="sans-serif" font-size="14" lengthAdjust="spacing" textLength="83" x="255.5" y="285.3301">HTTP Server</text><text fill="#000000" font-family="sans-serif" font-size="14" lengthAdjust="spacing" textLength="174" x="210" y="301.8184">(asset/http_impl/http.go)</text><rect fill="#E2E2F0" height="30.4883" rx="2.5" ry="2.5" style="stroke:#181818;stroke-width:0.5;" width="93" x="471.5" y="21.4883"/><text fill="#000000" font-family="sans-serif" font-size="14" lengthAdjust="spacing" textLength="79" x="478.5" y="42.0234">UTXO Store</text><rect fill="#E2E2F0" height="30.4883" rx="2.5" ry="2.5" style="stroke:#181818;stroke-width:0.5;" width="93" x="471.5" y="264.7949"/><text fill="#000000" font-family="sans-serif" font-size="14" lengthAdjust="spacing" textLength="79" x="478.5" y="285.3301">UTXO Store</text><rect fill="#FFFFFF" height="163.5078" style="stroke:#181818;stroke-width:1.0;" width="10" x="292" y="84.2871"/><rect fill="#FFFFFF" height="112.8867" style="stroke:#181818;stroke-width:1.0;" width="10" x="513" y="113.5977"/><polygon fill="#181818" points="280,80.2871,290,84.2871,280,88.2871,284,84.2871" style="stroke:#181818;stroke-width:1.0;"/><line style="stroke:#181818;stroke-width:1.0;" x1="52" x2="286" y1="84.2871" y2="84.2871"/><text fill="#000000" font-family="sans-serif" font-size="13" lengthAdjust="spacing" textLength="154" x="59" y="79.5449">GET /txmeta/:hash/json</text><polygon fill="#181818" points="501,109.5977,511,113.5977,501,117.5977,505,113.5977" style="stroke:#181818;stroke-width:1.0;"/><line style="stroke:#181818;stroke-width:1.0;" x1="302" x2="507" y1="113.5977" y2="113.5977"/><text fill="#000000" font-family="sans-serif" font-size="13" lengthAdjust="spacing" textLength="87" x="309" y="108.8555">Get(ctx, hash)</text><path d="M193,128.5977 L255,128.5977 L255,135.9082 L245,145.9082 L193,145.9082 L193,128.5977 " fill="#EEEEEE" style="stroke:#000000;stroke-width:1.5;"/><rect fill="none" height="90.8867" style="stroke:#000000;stroke-width:1.5;" width="381.5" x="193" y="128.5977"/><text fill="#000000" font-family="sans-serif" font-size="13" font-weight="bold" lengthAdjust="spacing" textLength="17" x="208" y="142.166">alt</text><text fill="#000000" font-family="sans-serif" font-size="11" font-weight="bold" lengthAdjust="spacing" textLength="149" x="270" y="141.2324">[UTXO Store has metadata]</text><polygon fill="#181818" points="313,163.2188,303,167.2188,313,171.2188,309,167.2188" style="stroke:#181818;stroke-width:1.0;"/><line style="stroke:#181818;stroke-width:1.0;stroke-dasharray:2.0,2.0;" x1="307" x2="512" y1="167.2188" y2="167.2188"/><text fill="#000000" font-family="sans-serif" font-size="13" lengthAdjust="spacing" textLength="187" x="319" y="162.4766">Transaction metadata in JSON</text><line style="stroke:#000000;stroke-width:1.0;stroke-dasharray:2.0,2.0;" x1="193" x2="574.5" y1="176.2188" y2="176.2188"/><text fill="#000000" font-family="sans-serif" font-size="11" font-weight="bold" lengthAdjust="spacing" textLength="208" x="198" y="186.8535">[UTXO Store does not have metadata]</text><polygon fill="#181818" points="313,207.4844,303,211.4844,313,215.4844,309,211.4844" style="stroke:#181818;stroke-width:1.0;"/><line style="stroke:#181818;stroke-width:1.0;stroke-dasharray:2.0,2.0;" x1="307" x2="512" y1="211.4844" y2="211.4844"/><text fill="#000000" font-family="sans-serif" font-size="13" lengthAdjust="spacing" textLength="95" x="319" y="206.7422">Data not found</text><polygon fill="#181818" points="63,243.7949,53,247.7949,63,251.7949,59,247.7949" style="stroke:#181818;stroke-width:1.0;"/><line style="stroke:#181818;stroke-width:1.0;stroke-dasharray:2.0,2.0;" x1="57" x2="296" y1="247.7949" y2="247.7949"/><text fill="#000000" font-family="sans-serif" font-size="13" lengthAdjust="spacing" textLength="216" x="69" y="243.0527">Response (JSON metadata or error)</text><text fill="#888888" font-family="sans-serif" font-size="10" lengthAdjust="spacing" textLength="158" x="0" y="323.4395">Last Modified On: 12-June-2024</text><!--SRC=[ZP11IyGm48Nl-HN3dbgmLekd7hoeA8kwOYjuM92XcTf8Dmd9RDcVRz9TjbtrO22GWVU-zp8M7Qj6MTGCYuUwVe6RNf7c1Q0_F8NzfQd83UJMEa7lYVEEsNweZUt7r_cdIKTxbEwLfuYt-dq55Hj7eooEuoJ4FX2owvaNIhY_go7dtOOOyx93t-LVtcY13Qi1cUP1OcOCc2CxKeYJXdTd40dfv9xoiMUOoaKTn4o9Z0B2cMZPpugrG-qZqkYZ1vI6PRLw5jHxceEb8G_QS4WOwDyHjn4PNQtPQYaeN4b__E9a1G5oM6e9h-IjqQ5A4bjDDOq3SiwuTCwRxxIdDgOQ3iH7z0nFHgfMaOILBk6oo9PRJLbnKLo9Rm00]--></g></svg>
