<svg contentStyleType="text/css" height="904" preserveAspectRatio="none" viewBox="0 0 1516 904" width="1516" xmlns="http://www.w3.org/2000/svg" zoomAndPan="magnify"><g stroke="#181818"><g fill="#fff"><path d="m543.5 168.9922h10v145.6641h-10z"/><path d="m543.5 429.0547h10v145.6641h-10z"/><path d="m543.5 689.1172h10v145.6641h-10z"/><path d="m985.5 198.125h10v87.3984h-10z"/><path d="m985.5 458.1875h10v87.3984h-10z"/><path d="m985.5 718.25h10v87.3984h-10z"/><path d="m1429.5 227.2578h10v29.1328h-10z"/><path d="m1429.5 487.3203h10v29.1328h-10z"/><path d="m1429.5 747.3828h10v29.1328h-10z"/></g><path d="m73 52.5938v800.1875" stroke-dasharray="5 5" stroke-width=".5"/><path d="m548 52.5938v800.1875" stroke-dasharray="5 5" stroke-width=".5"/><path d="m990 52.5938v800.1875" stroke-dasharray="5 5" stroke-width=".5"/><path d="m1434 52.5938v800.1875" stroke-dasharray="5 5" stroke-width=".5"/><rect fill="#e2e2f0" height="30.2969" rx="2.5" stroke-width=".5" width="137" x="5" y="21.2969"/></g><text font-family="sans-serif" font-size="14" lengthAdjust="spacing" textLength="123" x="12" y="41.292">Coinbase Service</text><rect fill="#e2e2f0" height="30.2969" rx="2.5" stroke="#181818" stroke-width=".5" width="137" x="5" y="851.7813"/><text font-family="sans-serif" font-size="14" lengthAdjust="spacing" textLength="123" x="12" y="871.7764">Coinbase Service</text><rect fill="#e2e2f0" height="46.5938" rx="2.5" stroke="#181818" stroke-width=".5" width="133" x="482" y="5"/><text font-family="sans-serif" font-size="14" lengthAdjust="spacing" textLength="87" x="505" y="24.9951">Asset Client</text><text font-family="sans-serif" font-size="14" lengthAdjust="spacing" textLength="119" x="489" y="41.292">(asset/Client.go)</text><rect fill="#e2e2f0" height="46.5938" rx="2.5" stroke="#181818" stroke-width=".5" width="133" x="482" y="851.7813"/><text font-family="sans-serif" font-size="14" lengthAdjust="spacing" textLength="87" x="505" y="871.7764">Asset Client</text><text font-family="sans-serif" font-size="14" lengthAdjust="spacing" textLength="119" x="489" y="888.0732">(asset/Client.go)</text><rect fill="#e2e2f0" height="46.5938" rx="2.5" stroke="#181818" stroke-width=".5" width="137" x="922" y="5"/><text font-family="sans-serif" font-size="14" lengthAdjust="spacing" textLength="91" x="945" y="24.9951">Asset Server</text><text font-family="sans-serif" font-size="14" lengthAdjust="spacing" textLength="123" x="929" y="41.292">(asset/Server.go)</text><rect fill="#e2e2f0" height="46.5938" rx="2.5" stroke="#181818" stroke-width=".5" width="137" x="922" y="851.7813"/><text font-family="sans-serif" font-size="14" lengthAdjust="spacing" textLength="91" x="945" y="871.7764">Asset Server</text><text font-family="sans-serif" font-size="14" lengthAdjust="spacing" textLength="123" x="929" y="888.0732">(asset/Server.go)</text><rect fill="#e2e2f0" height="30.2969" rx="2.5" stroke="#181818" stroke-width=".5" width="139" x="1365" y="21.2969"/><text font-family="sans-serif" font-size="14" lengthAdjust="spacing" textLength="125" x="1372" y="41.292">Blockchain Client</text><rect fill="#e2e2f0" height="30.2969" rx="2.5" stroke="#181818" stroke-width=".5" width="139" x="1365" y="851.7813"/><text font-family="sans-serif" font-size="14" lengthAdjust="spacing" textLength="125" x="1372" y="871.7764">Blockchain Client</text><g stroke="#181818"><path d="m543.5 168.9922h10v145.6641h-10z" fill="#fff"/><path d="m543.5 429.0547h10v145.6641h-10z" fill="#fff"/><path d="m543.5 689.1172h10v145.6641h-10z" fill="#fff"/><path d="m985.5 198.125h10v87.3984h-10z" fill="#fff"/><path d="m985.5 458.1875h10v87.3984h-10z" fill="#fff"/><path d="m985.5 718.25h10v87.3984h-10z" fill="#fff"/><path d="m1429.5 227.2578h10v29.1328h-10z" fill="#fff"/><path d="m1429.5 487.3203h10v29.1328h-10z" fill="#fff"/><path d="m1429.5 747.3828h10v29.1328h-10z" fill="#fff"/></g><path d="m0 83.1602h1509v3h-1509z" fill="#eee" stroke="#eee"/><path d="m0 83.1602h1509" stroke="#000"/><path d="m0 86.1602h1509" stroke="#000"/><path d="m673 72.5938h163v23.1328h-163z" fill="#eee" stroke="#000" stroke-width="2"/><text font-family="sans-serif" font-size="13" font-weight="bold" lengthAdjust="spacing" textLength="144" x="679" y="88.6606">Get Block Scenario</text><path d="m73.5 126.8594h42" stroke="#181818"/><path d="m115.5 126.8594v13" stroke="#181818"/><path d="m74.5 139.8594h41" stroke="#181818"/><path d="m84.5 135.8594-10 4 10 4-4-4z" fill="#181818" stroke="#181818"/><text font-family="sans-serif" font-size="13" lengthAdjust="spacing" textLength="175" x="80.5" y="121.7935">catchup() or processBlock()</text><path d="m531.5 164.9922 10 4-10 4 4-4z" fill="#181818" stroke="#181818"/><path d="m73.5 168.9922h464" stroke="#181818"/><text font-family="sans-serif" font-size="13" lengthAdjust="spacing" textLength="195" x="80.5" y="163.9263">gRPC getBlock(ctx, blockHash)</text><path d="m973.5 194.125 10 4-10 4 4-4z" fill="#181818" stroke="#181818"/><path d="m553.5 198.125h426" stroke="#181818"/><text font-family="sans-serif" font-size="13" lengthAdjust="spacing" textLength="157" x="560.5" y="193.0591">getBlock(ctx, blockHash)</text><path d="m1417.5 223.2578 10 4-10 4 4-4z" fill="#181818" stroke="#181818"/><path d="m995.5 227.2578h428" stroke="#181818"/><text font-family="sans-serif" font-size="13" lengthAdjust="spacing" textLength="159" x="1002.5" y="222.1919">GetBlock(ctx, blockHash)</text><path d="m1006.5 252.3906-10 4 10 4-4-4z" fill="#181818" stroke="#181818"/><path d="m1000.5 256.3906h433" stroke="#181818" stroke-dasharray="2 2"/><text font-family="sans-serif" font-size="13" lengthAdjust="spacing" textLength="64" x="1012.5" y="251.3247">blockData</text><path d="m564.5 281.5234-10 4 10 4-4-4z" fill="#181818" stroke="#181818"/><path d="m558.5 285.5234h431" stroke="#181818" stroke-dasharray="2 2"/><text font-family="sans-serif" font-size="13" lengthAdjust="spacing" textLength="64" x="570.5" y="280.4575">blockData</text><path d="m84.5 310.6563-10 4 10 4-4-4z" fill="#181818" stroke="#181818"/><path d="m78.5 314.6563h469" stroke="#181818" stroke-dasharray="2 2"/><text font-family="sans-serif" font-size="13" lengthAdjust="spacing" textLength="64" x="90.5" y="309.5903">blockData</text><path d="m0 343.2227h1509v3h-1509z" fill="#eee" stroke="#eee"/><path d="m0 343.2227h1509" stroke="#000"/><path d="m0 346.2227h1509" stroke="#000"/><path d="m623.5 332.6563h262v23.1328h-262z" fill="#eee" stroke="#000" stroke-width="2"/><text font-family="sans-serif" font-size="13" font-weight="bold" lengthAdjust="spacing" textLength="243" x="629.5" y="348.7231">Get Best Block Header Scenario</text><path d="m73.5 386.9219h42" stroke="#181818"/><path d="m115.5 386.9219v13" stroke="#181818"/><path d="m74.5 399.9219h41" stroke="#181818"/><path d="m84.5 395.9219-10 4 10 4-4-4z" fill="#181818" stroke="#181818"/><text font-family="sans-serif" font-size="13" lengthAdjust="spacing" textLength="126" x="80.5" y="381.856">init() or storeBlock()</text><path d="m531.5 425.0547 10 4-10 4 4-4z" fill="#181818" stroke="#181818"/><path d="m73.5 429.0547h464" stroke="#181818"/><text font-family="sans-serif" font-size="13" lengthAdjust="spacing" textLength="196" x="80.5" y="423.9888">gRPC getBestBlockHeader(ctx)</text><path d="m973.5 454.1875 10 4-10 4 4-4z" fill="#181818" stroke="#181818"/><path d="m553.5 458.1875h426" stroke="#181818"/><text font-family="sans-serif" font-size="13" lengthAdjust="spacing" textLength="158" x="560.5" y="453.1216">getBestBlockHeader(ctx)</text><path d="m1417.5 483.3203 10 4-10 4 4-4z" fill="#181818" stroke="#181818"/><path d="m995.5 487.3203h428" stroke="#181818"/><text font-family="sans-serif" font-size="13" lengthAdjust="spacing" textLength="160" x="1002.5" y="482.2544">GetBestBlockHeader(ctx)</text><path d="m1006.5 512.4531-10 4 10 4-4-4z" fill="#181818" stroke="#181818"/><path d="m1000.5 516.4531h433" stroke="#181818" stroke-dasharray="2 2"/><text font-family="sans-serif" font-size="13" lengthAdjust="spacing" textLength="138" x="1012.5" y="511.3872">bestBlockHeaderData</text><path d="m564.5 541.5859-10 4 10 4-4-4z" fill="#181818" stroke="#181818"/><path d="m558.5 545.5859h431" stroke="#181818" stroke-dasharray="2 2"/><text font-family="sans-serif" font-size="13" lengthAdjust="spacing" textLength="138" x="570.5" y="540.52">bestBlockHeaderData</text><path d="m84.5 570.7188-10 4 10 4-4-4z" fill="#181818" stroke="#181818"/><path d="m78.5 574.7188h469" stroke="#181818" stroke-dasharray="2 2"/><text font-family="sans-serif" font-size="13" lengthAdjust="spacing" textLength="138" x="90.5" y="569.6528">bestBlockHeaderData</text><path d="m0 603.2852h1509v3h-1509z" fill="#eee" stroke="#eee"/><path d="m0 603.2852h1509" stroke="#000"/><path d="m0 606.2852h1509" stroke="#000"/><path d="m639.5 592.7188h230v23.1328h-230z" fill="#eee" stroke="#000" stroke-width="2"/><text font-family="sans-serif" font-size="13" font-weight="bold" lengthAdjust="spacing" textLength="211" x="645.5" y="608.7856">Get Block Headers Scenario</text><path d="m73.5 646.9844h42" stroke="#181818"/><path d="m115.5 646.9844v13" stroke="#181818"/><path d="m74.5 659.9844h41" stroke="#181818"/><path d="m84.5 655.9844-10 4 10 4-4-4z" fill="#181818" stroke="#181818"/><text font-family="sans-serif" font-size="13" lengthAdjust="spacing" textLength="61" x="80.5" y="641.9185">catchup()</text><path d="m531.5 685.1172 10 4-10 4 4-4z" fill="#181818" stroke="#181818"/><path d="m73.5 689.1172h464" stroke="#181818"/><text font-family="sans-serif" font-size="13" lengthAdjust="spacing" textLength="451" x="80.5" y="684.0513">gRPC getBlockHeaders(ctx, fromBlockHeaderHash, numberOfHeaders)</text><path d="m973.5 714.25 10 4-10 4 4-4z" fill="#181818" stroke="#181818"/><path d="m553.5 718.25h426" stroke="#181818"/><text font-family="sans-serif" font-size="13" lengthAdjust="spacing" textLength="413" x="560.5" y="713.1841">getBlockHeaders(ctx, fromBlockHeaderHash, numberOfHeaders)</text><path d="m1417.5 743.3828 10 4-10 4 4-4z" fill="#181818" stroke="#181818"/><path d="m995.5 747.3828h428" stroke="#181818"/><text font-family="sans-serif" font-size="13" lengthAdjust="spacing" textLength="415" x="1002.5" y="742.3169">GetBlockHeaders(ctx, fromBlockHeaderHash, numberOfHeaders)</text><path d="m1006.5 772.5156-10 4 10 4-4-4z" fill="#181818" stroke="#181818"/><path d="m1000.5 776.5156h433" stroke="#181818" stroke-dasharray="2 2"/><text font-family="sans-serif" font-size="13" lengthAdjust="spacing" textLength="117" x="1012.5" y="771.4497">blockHeadersData</text><path d="m564.5 801.6484-10 4 10 4-4-4z" fill="#181818" stroke="#181818"/><path d="m558.5 805.6484h431" stroke="#181818" stroke-dasharray="2 2"/><text font-family="sans-serif" font-size="13" lengthAdjust="spacing" textLength="117" x="570.5" y="800.5825">blockHeadersData</text><path d="m84.5 830.7813-10 4 10 4-4-4z" fill="#181818" stroke="#181818"/><path d="m78.5 834.7813h469" stroke="#181818" stroke-dasharray="2 2"/><text font-family="sans-serif" font-size="13" lengthAdjust="spacing" textLength="117" x="90.5" y="829.7153">blockHeadersData</text></svg>
