<svg contentStyleType="text/css" height="333" preserveAspectRatio="none" viewBox="0 0 610 333" width="610" xmlns="http://www.w3.org/2000/svg" zoomAndPan="magnify"><path d="m381 84.2871h10v163.5078h-10z" fill="#fff" stroke="#181818"/><path d="m536.5 113.5977h10v112.8867h-10z" fill="#fff" stroke="#181818"/><path d="m282 128.5977h321v90.8867h-321z" fill="none" stroke="#000" stroke-width="1.5"/><g stroke="#181818"><path d="m52 52.9766v212.8183" stroke-dasharray="5 5" stroke-width=".5"/><path d="m386 52.9766v212.8183" stroke-dasharray="5 5" stroke-width=".5"/><path d="m541 52.9766v212.8183" stroke-dasharray="5 5" stroke-width=".5"/><rect fill="#e2e2f0" height="30.4883" rx="2.5" stroke-width=".5" width="94" x="5" y="21.4883"/></g><text font-family="sans-serif" font-size="14" lengthAdjust="spacing" textLength="80" x="12" y="42.0234">HTTP Client</text><rect fill="#e2e2f0" height="30.4883" rx="2.5" stroke="#181818" stroke-width=".5" width="94" x="5" y="264.7949"/><text font-family="sans-serif" font-size="14" lengthAdjust="spacing" textLength="80" x="12" y="285.3301">HTTP Client</text><rect fill="#e2e2f0" height="46.9766" rx="2.5" stroke="#181818" stroke-width=".5" width="188" x="292" y="5"/><text font-family="sans-serif" font-size="14" lengthAdjust="spacing" textLength="83" x="344.5" y="25.5352">HTTP Server</text><text font-family="sans-serif" font-size="14" lengthAdjust="spacing" textLength="174" x="299" y="42.0234">(asset/http_impl/http.go)</text><rect fill="#e2e2f0" height="46.9766" rx="2.5" stroke="#181818" stroke-width=".5" width="188" x="292" y="264.7949"/><text font-family="sans-serif" font-size="14" lengthAdjust="spacing" textLength="83" x="344.5" y="285.3301">HTTP Server</text><text font-family="sans-serif" font-size="14" lengthAdjust="spacing" textLength="174" x="299" y="301.8184">(asset/http_impl/http.go)</text><rect fill="#e2e2f0" height="30.4883" rx="2.5" stroke="#181818" stroke-width=".5" width="103" x="490" y="21.4883"/><text font-family="sans-serif" font-size="14" lengthAdjust="spacing" textLength="89" x="497" y="42.0234">SubtreeStore</text><rect fill="#e2e2f0" height="30.4883" rx="2.5" stroke="#181818" stroke-width=".5" width="103" x="490" y="264.7949"/><text font-family="sans-serif" font-size="14" lengthAdjust="spacing" textLength="89" x="497" y="285.3301">SubtreeStore</text><path d="m381 84.2871h10v163.5078h-10z" fill="#fff" stroke="#181818"/><path d="m536.5 113.5977h10v112.8867h-10z" fill="#fff" stroke="#181818"/><path d="m369 80.2871 10 4-10 4 4-4z" fill="#181818" stroke="#181818"/><path d="m52 84.2871h323" stroke="#181818"/><text font-family="sans-serif" font-size="13" lengthAdjust="spacing" textLength="310" x="59" y="79.5449">GET /subtree/:hash (BINARY_STREAM, HEX, JSON)</text><path d="m524.5 109.5977 10 4-10 4 4-4z" fill="#181818" stroke="#181818"/><path d="m391 113.5977h139.5" stroke="#181818"/><text font-family="sans-serif" font-size="13" lengthAdjust="spacing" textLength="87" x="398" y="108.8555">Get(ctx, hash)</text><path d="m282 128.5977h62v7.3105l-10 10h-52z" fill="#eee" stroke="#000" stroke-width="1.5"/><path d="m282 128.5977h321v90.8867h-321z" fill="none" stroke="#000" stroke-width="1.5"/><text font-family="sans-serif" font-size="13" font-weight="bold" lengthAdjust="spacing" textLength="17" x="297" y="142.166">alt</text><text font-family="sans-serif" font-size="11" font-weight="bold" lengthAdjust="spacing" textLength="127" x="359" y="141.2324">[SubtreeStore has data]</text><path d="m402 163.2188-10 4 10 4-4-4z" fill="#181818" stroke="#181818"/><path d="m396 167.2188h139.5" stroke="#181818" stroke-dasharray="2 2"/><text font-family="sans-serif" font-size="13" lengthAdjust="spacing" textLength="78" x="408" y="162.4766">Subtree data</text><path d="m282 176.2188h321" stroke="#000" stroke-dasharray="2 2"/><text font-family="sans-serif" font-size="11" font-weight="bold" lengthAdjust="spacing" textLength="186" x="287" y="186.8535">[SubtreeStore does not have data]</text><path d="m402 207.4844-10 4 10 4-4-4z" fill="#181818" stroke="#181818"/><path d="m396 211.4844h139.5" stroke="#181818" stroke-dasharray="2 2"/><text font-family="sans-serif" font-size="13" lengthAdjust="spacing" textLength="95" x="408" y="206.7422">Data not found</text><path d="m63 243.7949-10 4 10 4-4-4z" fill="#181818" stroke="#181818"/><path d="m57 247.7949h328" stroke="#181818" stroke-dasharray="2 2"/><text font-family="sans-serif" font-size="13" lengthAdjust="spacing" textLength="265" x="69" y="243.0527">Subtree data (BINARY_STREAM, HEX, JSON)</text><text fill="#888" font-family="sans-serif" font-size="10" lengthAdjust="spacing" textLength="149" y="323.4395">Last Modified On: 4-Dec-2023</text></svg>
