<svg contentStyleType="text/css" height="315" preserveAspectRatio="none" viewBox="0 0 632 315" width="632" xmlns="http://www.w3.org/2000/svg" zoomAndPan="magnify"><path d="m388 83.7266h10v162.4688h-10z" fill="#fff" stroke="#181818"/><path d="m554 112.8594h10v112.2031h-10z" fill="#fff" stroke="#181818"/><path d="m283 127.8594h342v90.2031h-342z" fill="none" stroke="#000" stroke-width="1.5"/><g stroke="#181818" stroke-width=".5"><g stroke-dasharray="5 5"><path d="m54 52.5938v211.6015"/><path d="m393 52.5938v211.6015"/><path d="m559 52.5938v211.6015"/></g><rect fill="#e2e2f0" height="30.2969" rx="2.5" width="98" x="5" y="21.2969"/></g><text font-family="sans-serif" font-size="14" lengthAdjust="spacing" textLength="84" x="12" y="41.292">HTTP Client</text><rect fill="#e2e2f0" height="30.2969" rx="2.5" stroke="#181818" stroke-width=".5" width="98" x="5" y="263.1953"/><text font-family="sans-serif" font-size="14" lengthAdjust="spacing" textLength="84" x="12" y="283.1904">HTTP Client</text><rect fill="#e2e2f0" height="46.5938" rx="2.5" stroke="#181818" stroke-width=".5" width="200" x="293" y="5"/><text font-family="sans-serif" font-size="14" lengthAdjust="spacing" textLength="88" x="349" y="24.9951">HTTP Server</text><text font-family="sans-serif" font-size="14" lengthAdjust="spacing" textLength="186" x="300" y="41.292">(asset/http_impl/http.go)</text><rect fill="#e2e2f0" height="46.5938" rx="2.5" stroke="#181818" stroke-width=".5" width="200" x="293" y="263.1953"/><text font-family="sans-serif" font-size="14" lengthAdjust="spacing" textLength="88" x="349" y="283.1904">HTTP Server</text><text font-family="sans-serif" font-size="14" lengthAdjust="spacing" textLength="186" x="300" y="299.4873">(asset/http_impl/http.go)</text><rect fill="#e2e2f0" height="30.2969" rx="2.5" stroke="#181818" stroke-width=".5" width="112" x="503" y="21.2969"/><text font-family="sans-serif" font-size="14" lengthAdjust="spacing" textLength="98" x="510" y="41.292">SubtreeStore</text><rect fill="#e2e2f0" height="30.2969" rx="2.5" stroke="#181818" stroke-width=".5" width="112" x="503" y="263.1953"/><text font-family="sans-serif" font-size="14" lengthAdjust="spacing" textLength="98" x="510" y="283.1904">SubtreeStore</text><g stroke="#181818"><path d="m388 83.7266h10v162.4688h-10z" fill="#fff"/><path d="m554 112.8594h10v112.2031h-10z" fill="#fff"/><path d="m376 79.7266 10 4-10 4 4-4z" fill="#181818"/><path d="m54 83.7266h328"/></g><text font-family="sans-serif" font-size="13" lengthAdjust="spacing" textLength="315" x="61" y="78.6606">GET /subtree/:hash (BINARY_STREAM, HEX, JSON)</text><path d="m542 108.8594 10 4-10 4 4-4z" fill="#181818" stroke="#181818"/><path d="m398 112.8594h150" stroke="#181818"/><text font-family="sans-serif" font-size="13" lengthAdjust="spacing" textLength="92" x="405" y="107.7935">Get(ctx, hash)</text><path d="m283 127.8594h66v7.1328l-10 10h-56z" fill="#eee" stroke="#000" stroke-width="1.5"/><path d="m283 127.8594h342v90.2031h-342z" fill="none" stroke="#000" stroke-width="1.5"/><text font-family="sans-serif" font-size="13" font-weight="bold" lengthAdjust="spacing" textLength="21" x="298" y="140.9263">alt</text><text font-family="sans-serif" font-size="11" font-weight="bold" lengthAdjust="spacing" textLength="163" x="364" y="140.0698">[SubtreeStore has data]</text><path d="m409 162.125-10 4 10 4-4-4z" fill="#181818" stroke="#181818"/><path d="m403 166.125h150" stroke="#181818" stroke-dasharray="2 2"/><text font-family="sans-serif" font-size="13" lengthAdjust="spacing" textLength="83" x="415" y="161.0591">Subtree data</text><path d="m283 175.125h342" stroke="#000" stroke-dasharray="2 2"/><text font-family="sans-serif" font-size="11" font-weight="bold" lengthAdjust="spacing" textLength="235" x="288" y="185.3354">[SubtreeStore does not have data]</text><path d="m409 206.0625-10 4 10 4-4-4z" fill="#181818" stroke="#181818"/><path d="m403 210.0625h150" stroke="#181818" stroke-dasharray="2 2"/><text font-family="sans-serif" font-size="13" lengthAdjust="spacing" textLength="97" x="415" y="204.9966">Data not found</text><path d="m65 242.1953-10 4 10 4-4-4z" fill="#181818" stroke="#181818"/><path d="m59 246.1953h333" stroke="#181818" stroke-dasharray="2 2"/><text font-family="sans-serif" font-size="13" lengthAdjust="spacing" textLength="275" x="71" y="241.1294">Subtree data (BINARY_STREAM, HEX, JSON)</text></svg>
