<svg contentStyleType="text/css" height="333" preserveAspectRatio="none" viewBox="0 0 585 333" width="585" xmlns="http://www.w3.org/2000/svg" zoomAndPan="magnify"><path d="m292 84.2871h10v163.5078h-10z" fill="#fff" stroke="#181818"/><path d="m513 113.5977h10v112.8867h-10z" fill="#fff" stroke="#181818"/><path d="m193 128.5977h385.5v90.8867h-385.5z" fill="none" stroke="#000" stroke-width="1.5"/><g stroke="#181818"><path d="m52 52.9766v212.8183" stroke-dasharray="5 5" stroke-width=".5"/><path d="m297 52.9766v212.8183" stroke-dasharray="5 5" stroke-width=".5"/><path d="m517.5 52.9766v212.8183" stroke-dasharray="5 5" stroke-width=".5"/><rect fill="#e2e2f0" height="30.4883" rx="2.5" stroke-width=".5" width="94" x="5" y="21.4883"/></g><text font-family="sans-serif" font-size="14" lengthAdjust="spacing" textLength="80" x="12" y="42.0234">HTTP Client</text><rect fill="#e2e2f0" height="30.4883" rx="2.5" stroke="#181818" stroke-width=".5" width="94" x="5" y="264.7949"/><text font-family="sans-serif" font-size="14" lengthAdjust="spacing" textLength="80" x="12" y="285.3301">HTTP Client</text><rect fill="#e2e2f0" height="46.9766" rx="2.5" stroke="#181818" stroke-width=".5" width="188" x="203" y="5"/><text font-family="sans-serif" font-size="14" lengthAdjust="spacing" textLength="83" x="255.5" y="25.5352">HTTP Server</text><text font-family="sans-serif" font-size="14" lengthAdjust="spacing" textLength="174" x="210" y="42.0234">(asset/http_impl/http.go)</text><rect fill="#e2e2f0" height="46.9766" rx="2.5" stroke="#181818" stroke-width=".5" width="188" x="203" y="264.7949"/><text font-family="sans-serif" font-size="14" lengthAdjust="spacing" textLength="83" x="255.5" y="285.3301">HTTP Server</text><text font-family="sans-serif" font-size="14" lengthAdjust="spacing" textLength="174" x="210" y="301.8184">(asset/http_impl/http.go)</text><rect fill="#e2e2f0" height="30.4883" rx="2.5" stroke="#181818" stroke-width=".5" width="101" x="467.5" y="21.4883"/><text font-family="sans-serif" font-size="14" lengthAdjust="spacing" textLength="87" x="474.5" y="42.0234">TxMetaStore</text><rect fill="#e2e2f0" height="30.4883" rx="2.5" stroke="#181818" stroke-width=".5" width="101" x="467.5" y="264.7949"/><text font-family="sans-serif" font-size="14" lengthAdjust="spacing" textLength="87" x="474.5" y="285.3301">TxMetaStore</text><path d="m292 84.2871h10v163.5078h-10z" fill="#fff" stroke="#181818"/><path d="m513 113.5977h10v112.8867h-10z" fill="#fff" stroke="#181818"/><path d="m280 80.2871 10 4-10 4 4-4z" fill="#181818" stroke="#181818"/><path d="m52 84.2871h234" stroke="#181818"/><text font-family="sans-serif" font-size="13" lengthAdjust="spacing" textLength="154" x="59" y="79.5449">GET /txmeta/:hash/json</text><path d="m501 109.5977 10 4-10 4 4-4z" fill="#181818" stroke="#181818"/><path d="m302 113.5977h205" stroke="#181818"/><text font-family="sans-serif" font-size="13" lengthAdjust="spacing" textLength="87" x="309" y="108.8555">Get(ctx, hash)</text><path d="m193 128.5977h62v7.3105l-10 10h-52z" fill="#eee" stroke="#000" stroke-width="1.5"/><path d="m193 128.5977h385.5v90.8867h-385.5z" fill="none" stroke="#000" stroke-width="1.5"/><text font-family="sans-serif" font-size="13" font-weight="bold" lengthAdjust="spacing" textLength="17" x="208" y="142.166">alt</text><text font-family="sans-serif" font-size="11" font-weight="bold" lengthAdjust="spacing" textLength="153" x="270" y="141.2324">[TxMetaStore has metadata]</text><path d="m313 163.2188-10 4 10 4-4-4z" fill="#181818" stroke="#181818"/><path d="m307 167.2188h205" stroke="#181818" stroke-dasharray="2 2"/><text font-family="sans-serif" font-size="13" lengthAdjust="spacing" textLength="187" x="319" y="162.4766">Transaction metadata in JSON</text><path d="m193 176.2188h385.5" stroke="#000" stroke-dasharray="2 2"/><text font-family="sans-serif" font-size="11" font-weight="bold" lengthAdjust="spacing" textLength="212" x="198" y="186.8535">[TxMetaStore does not have metadata]</text><path d="m313 207.4844-10 4 10 4-4-4z" fill="#181818" stroke="#181818"/><path d="m307 211.4844h205" stroke="#181818" stroke-dasharray="2 2"/><text font-family="sans-serif" font-size="13" lengthAdjust="spacing" textLength="95" x="319" y="206.7422">Data not found</text><path d="m63 243.7949-10 4 10 4-4-4z" fill="#181818" stroke="#181818"/><path d="m57 247.7949h239" stroke="#181818" stroke-dasharray="2 2"/><text font-family="sans-serif" font-size="13" lengthAdjust="spacing" textLength="216" x="69" y="243.0527">Response (JSON metadata or error)</text><text fill="#888" font-family="sans-serif" font-size="10" lengthAdjust="spacing" textLength="149" y="323.4395">Last Modified On: 4-Dec-2023</text></svg>
