<svg contentStyleType="text/css" height="473" preserveAspectRatio="none" viewBox="0 0 816 473" width="816" xmlns="http://www.w3.org/2000/svg" zoomAndPan="magnify"><g stroke="#181818"><g fill="#fff"><path d="m405 83.7266h10v87.3984h-10z"/><path d="m405 200.2578h10v87.3984h-10z"/><path d="m405 316.7891h10v87.3984h-10z"/><path d="m738 112.8594h10v29.1328h-10z"/><path d="m738 229.3906h10v29.1328h-10z"/><path d="m738 345.9219h10v29.1328h-10z"/></g><g stroke-width=".5"><g stroke-dasharray="5 5"><path d="m54 52.5938v369.5937"/><path d="m410 52.5938v369.5937"/><path d="m742.5 52.5938v369.5937"/></g><rect fill="#e2e2f0" height="30.2969" rx="2.5" width="98" x="5" y="21.2969"/></g></g><text font-family="sans-serif" font-size="14" lengthAdjust="spacing" textLength="84" x="12" y="41.292">HTTP Client</text><rect fill="#e2e2f0" height="30.2969" rx="2.5" stroke="#181818" stroke-width=".5" width="98" x="5" y="421.1875"/><text font-family="sans-serif" font-size="14" lengthAdjust="spacing" textLength="84" x="12" y="441.1826">HTTP Client</text><rect fill="#e2e2f0" height="46.5938" rx="2.5" stroke="#181818" stroke-width=".5" width="200" x="310" y="5"/><text font-family="sans-serif" font-size="14" lengthAdjust="spacing" textLength="88" x="366" y="24.9951">HTTP Server</text><text font-family="sans-serif" font-size="14" lengthAdjust="spacing" textLength="186" x="317" y="41.292">(asset/http_impl/http.go)</text><rect fill="#e2e2f0" height="46.5938" rx="2.5" stroke="#181818" stroke-width=".5" width="200" x="310" y="421.1875"/><text font-family="sans-serif" font-size="14" lengthAdjust="spacing" textLength="88" x="366" y="441.1826">HTTP Server</text><text font-family="sans-serif" font-size="14" lengthAdjust="spacing" textLength="186" x="317" y="457.4795">(asset/http_impl/http.go)</text><rect fill="#e2e2f0" height="30.2969" rx="2.5" stroke="#181818" stroke-width=".5" width="135" x="675.5" y="21.2969"/><text font-family="sans-serif" font-size="14" lengthAdjust="spacing" textLength="121" x="682.5" y="41.292">BlockchainClient</text><rect fill="#e2e2f0" height="30.2969" rx="2.5" stroke="#181818" stroke-width=".5" width="135" x="675.5" y="421.1875"/><text font-family="sans-serif" font-size="14" lengthAdjust="spacing" textLength="121" x="682.5" y="441.1826">BlockchainClient</text><g stroke="#181818"><g fill="#fff"><path d="m405 83.7266h10v87.3984h-10z"/><path d="m405 200.2578h10v87.3984h-10z"/><path d="m405 316.7891h10v87.3984h-10z"/><path d="m738 112.8594h10v29.1328h-10z"/><path d="m738 229.3906h10v29.1328h-10z"/><path d="m738 345.9219h10v29.1328h-10z"/></g><path d="m393 79.7266 10 4-10 4 4-4z" fill="#181818"/><path d="m54 83.7266h345"/></g><text font-family="sans-serif" font-size="13" lengthAdjust="spacing" textLength="318" x="61" y="78.6606">GET /headers/:hash (BINARY_STREAM, HEX, JSON)</text><path d="m726 108.8594 10 4-10 4 4-4z" fill="#181818" stroke="#181818"/><path d="m415 112.8594h317" stroke="#181818"/><text font-family="sans-serif" font-size="13" lengthAdjust="spacing" textLength="304" x="422" y="107.7935">GetBlockHeaders(ctx, hash, numberOfHeaders)</text><path d="m426 137.9922-10 4 10 4-4-4z" fill="#181818" stroke="#181818"/><path d="m420 141.9922h322" stroke="#181818" stroke-dasharray="2 2"/><text font-family="sans-serif" font-size="13" lengthAdjust="spacing" textLength="122" x="432" y="136.9263">Block headers data</text><path d="m65 167.125-10 4 10 4-4-4z" fill="#181818" stroke="#181818"/><path d="m59 171.125h350" stroke="#181818" stroke-dasharray="2 2"/><text font-family="sans-serif" font-size="13" lengthAdjust="spacing" textLength="199" x="71" y="166.0591">Response (Block headers data)</text><path d="m393 196.2578 10 4-10 4 4-4z" fill="#181818" stroke="#181818"/><path d="m54 200.2578h345" stroke="#181818"/><text font-family="sans-serif" font-size="13" lengthAdjust="spacing" textLength="311" x="61" y="195.1919">GET /header/:hash (BINARY_STREAM, HEX, JSON)</text><path d="m726 225.3906 10 4-10 4 4-4z" fill="#181818" stroke="#181818"/><path d="m415 229.3906h317" stroke="#181818"/><text font-family="sans-serif" font-size="13" lengthAdjust="spacing" textLength="171" x="422" y="224.3247">GetBlockHeader(ctx, hash)</text><path d="m426 254.5234-10 4 10 4-4-4z" fill="#181818" stroke="#181818"/><path d="m420 258.5234h322" stroke="#181818" stroke-dasharray="2 2"/><text font-family="sans-serif" font-size="13" lengthAdjust="spacing" textLength="168" x="432" y="253.4575">Specific block header data</text><path d="m65 283.6563-10 4 10 4-4-4z" fill="#181818" stroke="#181818"/><path d="m59 287.6563h350" stroke="#181818" stroke-dasharray="2 2"/><text font-family="sans-serif" font-size="13" lengthAdjust="spacing" textLength="245" x="71" y="282.5903">Response (Specific block header data)</text><path d="m393 312.7891 10 4-10 4 4-4z" fill="#181818" stroke="#181818"/><path d="m54 316.7891h345" stroke="#181818"/><text font-family="sans-serif" font-size="13" lengthAdjust="spacing" textLength="332" x="61" y="311.7231">GET /bestblockheader (BINARY_STREAM, HEX, JSON)</text><path d="m726 341.9219 10 4-10 4 4-4z" fill="#181818" stroke="#181818"/><path d="m415 345.9219h317" stroke="#181818"/><text font-family="sans-serif" font-size="13" lengthAdjust="spacing" textLength="160" x="422" y="340.856">GetBestBlockHeader(ctx)</text><path d="m426 371.0547-10 4 10 4-4-4z" fill="#181818" stroke="#181818"/><path d="m420 375.0547h322" stroke="#181818" stroke-dasharray="2 2"/><text font-family="sans-serif" font-size="13" lengthAdjust="spacing" textLength="147" x="432" y="369.9888">Best block header data</text><path d="m65 400.1875-10 4 10 4-4-4z" fill="#181818" stroke="#181818"/><path d="m59 404.1875h350" stroke="#181818" stroke-dasharray="2 2"/><text font-family="sans-serif" font-size="13" lengthAdjust="spacing" textLength="224" x="71" y="399.1216">Response (Best block header data)</text></svg>
