<svg contentStyleType="text/css" height="465" preserveAspectRatio="none" viewBox="0 0 816 465" width="816" xmlns="http://www.w3.org/2000/svg" zoomAndPan="magnify"><g fill="#fff"><path d="m363 84.2871h10v87.9316h-10z" stroke="#181818"/><path d="m363 201.5293h10v177.8633h-10z" stroke="#181818"/><path d="m653 113.5977h10v29.3105h-10z" stroke="#181818"/><path d="m653 313.7715h10v29.3105h-10z" stroke="#181818"/><path d="m755 230.8398h10v29.3105h-10z" stroke="#181818"/></g><path d="m264 275.1504h445.5v75.9316h-445.5z" fill="none" stroke="#000" stroke-width="1.5"/><path d="m52 52.9766v344.416" stroke="#181818" stroke-dasharray="5 5" stroke-width=".5"/><path d="m368 52.9766v344.416" stroke="#181818" stroke-dasharray="5 5" stroke-width=".5"/><path d="m657.5 52.9766v344.416" stroke="#181818" stroke-dasharray="5 5" stroke-width=".5"/><path d="m759.5 52.9766v344.416" stroke="#181818" stroke-dasharray="5 5" stroke-width=".5"/><rect fill="#e2e2f0" height="30.4883" rx="2.5" stroke="#181818" stroke-width=".5" width="94" x="5" y="21.4883"/><text font-family="sans-serif" font-size="14" lengthAdjust="spacing" textLength="80" x="12" y="42.0234">HTTP Client</text><rect fill="#e2e2f0" height="30.4883" rx="2.5" stroke="#181818" stroke-width=".5" width="94" x="5" y="396.3926"/><text font-family="sans-serif" font-size="14" lengthAdjust="spacing" textLength="80" x="12" y="416.9277">HTTP Client</text><rect fill="#e2e2f0" height="46.9766" rx="2.5" stroke="#181818" stroke-width=".5" width="188" x="274" y="5"/><text font-family="sans-serif" font-size="14" lengthAdjust="spacing" textLength="83" x="326.5" y="25.5352">HTTP Server</text><text font-family="sans-serif" font-size="14" lengthAdjust="spacing" textLength="174" x="281" y="42.0234">(asset/http_impl/http.go)</text><rect fill="#e2e2f0" height="46.9766" rx="2.5" stroke="#181818" stroke-width=".5" width="188" x="274" y="396.3926"/><text font-family="sans-serif" font-size="14" lengthAdjust="spacing" textLength="83" x="326.5" y="416.9277">HTTP Server</text><text font-family="sans-serif" font-size="14" lengthAdjust="spacing" textLength="174" x="281" y="433.416">(asset/http_impl/http.go)</text><rect fill="#e2e2f0" height="30.4883" rx="2.5" stroke="#181818" stroke-width=".5" width="83" x="616.5" y="21.4883"/><text font-family="sans-serif" font-size="14" lengthAdjust="spacing" textLength="69" x="623.5" y="42.0234">UtxoStore</text><rect fill="#e2e2f0" height="30.4883" rx="2.5" stroke="#181818" stroke-width=".5" width="83" x="616.5" y="396.3926"/><text font-family="sans-serif" font-size="14" lengthAdjust="spacing" textLength="69" x="623.5" y="416.9277">UtxoStore</text><rect fill="#e2e2f0" height="30.4883" rx="2.5" stroke="#181818" stroke-width=".5" width="101" x="709.5" y="21.4883"/><text font-family="sans-serif" font-size="14" lengthAdjust="spacing" textLength="87" x="716.5" y="42.0234">TxMetaStore</text><rect fill="#e2e2f0" height="30.4883" rx="2.5" stroke="#181818" stroke-width=".5" width="101" x="709.5" y="396.3926"/><text font-family="sans-serif" font-size="14" lengthAdjust="spacing" textLength="87" x="716.5" y="416.9277">TxMetaStore</text><g stroke="#181818"><g fill="#fff"><path d="m363 84.2871h10v87.9316h-10z"/><path d="m363 201.5293h10v177.8633h-10z"/><path d="m653 113.5977h10v29.3105h-10z"/><path d="m653 313.7715h10v29.3105h-10z"/><path d="m755 230.8398h10v29.3105h-10z"/></g><path d="m351 80.2871 10 4-10 4 4-4z" fill="#181818"/><path d="m52 84.2871h305"/></g><text font-family="sans-serif" font-size="13" lengthAdjust="spacing" textLength="292" x="59" y="79.5449">GET /utxo/:hash (BINARY_STREAM, HEX, JSON)</text><path d="m641 109.5977 10 4-10 4 4-4z" fill="#181818" stroke="#181818"/><path d="m373 113.5977h274" stroke="#181818"/><text font-family="sans-serif" font-size="13" lengthAdjust="spacing" textLength="215" x="380" y="108.8555">Get(ctx, &amp;utxo.Spend{Hash: hash})</text><path d="m384 138.9082-10 4 10 4-4-4z" fill="#181818" stroke="#181818"/><path d="m378 142.9082h279" stroke="#181818" stroke-dasharray="2 2"/><text font-family="sans-serif" font-size="13" lengthAdjust="spacing" textLength="66" x="390" y="138.166">UTXO data</text><path d="m63 168.2188-10 4 10 4-4-4z" fill="#181818" stroke="#181818"/><path d="m57 172.2188h310" stroke="#181818" stroke-dasharray="2 2"/><text font-family="sans-serif" font-size="13" lengthAdjust="spacing" textLength="138" x="69" y="167.4766">Response (UTXO data)</text><path d="m351 197.5293 10 4-10 4 4-4z" fill="#181818" stroke="#181818"/><path d="m52 201.5293h305" stroke="#181818"/><text font-family="sans-serif" font-size="13" lengthAdjust="spacing" textLength="146" x="59" y="196.7871">GET /utxos/:hash/json</text><path d="m743 226.8398 10 4-10 4 4-4z" fill="#181818" stroke="#181818"/><path d="m373 230.8398h376" stroke="#181818"/><text font-family="sans-serif" font-size="13" lengthAdjust="spacing" textLength="87" x="380" y="226.0977">Get(ctx, hash)</text><path d="m384 256.1504-10 4 10 4-4-4z" fill="#181818" stroke="#181818"/><path d="m378 260.1504h381" stroke="#181818" stroke-dasharray="2 2"/><text font-family="sans-serif" font-size="13" lengthAdjust="spacing" textLength="83" x="390" y="255.4082">Tx Meta Data</text><path d="m264 275.1504h74v7.3105l-10 10h-64z" fill="#eee" stroke="#000" stroke-width="1.5"/><path d="m264 275.1504h445.5v75.9316h-445.5z" fill="none" stroke="#000" stroke-width="1.5"/><text font-family="sans-serif" font-size="13" font-weight="bold" lengthAdjust="spacing" textLength="29" x="279" y="288.7188">loop</text><text font-family="sans-serif" font-size="11" font-weight="bold" lengthAdjust="spacing" textLength="114" x="353" y="287.7852">[For each TX output]</text><path d="m641 309.7715 10 4-10 4 4-4z" fill="#181818" stroke="#181818"/><path d="m373 313.7715h274" stroke="#181818"/><text font-family="sans-serif" font-size="13" lengthAdjust="spacing" textLength="261" x="380" y="309.0293">Get(ctx, &amp;utxo.Spend{Hash: output hash})</text><path d="m384 339.082-10 4 10 4-4-4z" fill="#181818" stroke="#181818"/><path d="m378 343.082h279" stroke="#181818" stroke-dasharray="2 2"/><text font-family="sans-serif" font-size="13" lengthAdjust="spacing" textLength="66" x="390" y="338.3398">UTXO data</text><path d="m63 375.3926-10 4 10 4-4-4z" fill="#181818" stroke="#181818"/><path d="m57 379.3926h310" stroke="#181818" stroke-dasharray="2 2"/><text font-family="sans-serif" font-size="13" lengthAdjust="spacing" textLength="158" x="69" y="374.6504">Response (List of UTXOs)</text><text fill="#888" font-family="sans-serif" font-size="10" lengthAdjust="spacing" textLength="149" y="455.0371">Last Modified On: 4-Dec-2023</text></svg>
