<svg xmlns="http://www.w3.org/2000/svg" xmlns:xlink="http://www.w3.org/1999/xlink" contentStyleType="text/css" height="316px" preserveAspectRatio="none" style="width:730px;height:316px;background:#FFFFFF;" version="1.1" viewBox="0 0 730 316" width="730px" zoomAndPan="magnify"><defs/><g><rect fill="#FFFFFF" height="146.5527" style="stroke:#181818;stroke-width:1.0;" width="10" x="287.064" y="84.2871"/><rect fill="#FFFFFF" height="87.9316" style="stroke:#181818;stroke-width:1.0;" width="10" x="471.6577" y="113.5977"/><rect fill="#FFFFFF" height="29.3105" style="stroke:#181818;stroke-width:1.0;" width="10" x="656.2515" y="142.9082"/><line style="stroke:#181818;stroke-width:0.5;stroke-dasharray:5.0,5.0;" x1="51" x2="51" y1="52.9766" y2="248.8398"/><line style="stroke:#181818;stroke-width:0.5;stroke-dasharray:5.0,5.0;" x1="291.3091" x2="291.3091" y1="52.9766" y2="248.8398"/><line style="stroke:#181818;stroke-width:0.5;stroke-dasharray:5.0,5.0;" x1="476.5947" x2="476.5947" y1="52.9766" y2="248.8398"/><line style="stroke:#181818;stroke-width:0.5;stroke-dasharray:5.0,5.0;" x1="660.3096" x2="660.3096" y1="52.9766" y2="248.8398"/><rect fill="#E2E2F0" height="30.4883" rx="2.5" ry="2.5" style="stroke:#181818;stroke-width:0.5;" width="93.666" x="5" y="21.4883"/><text fill="#000000" font-family="sans-serif" font-size="14" lengthAdjust="spacing" textLength="79.666" x="12" y="42.0234">HTTP Client</text><rect fill="#E2E2F0" height="30.4883" rx="2.5" ry="2.5" style="stroke:#181818;stroke-width:0.5;" width="93.666" x="5" y="247.8398"/><text fill="#000000" font-family="sans-serif" font-size="14" lengthAdjust="spacing" textLength="79.666" x="12" y="268.375">HTTP Client</text><rect fill="#E2E2F0" height="46.9766" rx="2.5" ry="2.5" style="stroke:#181818;stroke-width:0.5;" width="187.5098" x="198.3091" y="5"/><text fill="#000000" font-family="sans-serif" font-size="14" lengthAdjust="spacing" textLength="82.0039" x="251.062" y="25.5352">HTTP Server</text><text fill="#000000" font-family="sans-serif" font-size="14" lengthAdjust="spacing" textLength="173.5098" x="205.3091" y="42.0234">(asset/http_impl/http.go)</text><rect fill="#E2E2F0" height="46.9766" rx="2.5" ry="2.5" style="stroke:#181818;stroke-width:0.5;" width="187.5098" x="198.3091" y="247.8398"/><text fill="#000000" font-family="sans-serif" font-size="14" lengthAdjust="spacing" textLength="82.0039" x="251.062" y="268.375">HTTP Server</text><text fill="#000000" font-family="sans-serif" font-size="14" lengthAdjust="spacing" textLength="173.5098" x="205.3091" y="284.8633">(asset/http_impl/http.go)</text><rect fill="#E2E2F0" height="30.4883" rx="2.5" ry="2.5" style="stroke:#181818;stroke-width:0.5;" width="86.126" x="433.5947" y="21.4883"/><text fill="#000000" font-family="sans-serif" font-size="14" lengthAdjust="spacing" textLength="72.126" x="440.5947" y="42.0234">Repository</text><rect fill="#E2E2F0" height="30.4883" rx="2.5" ry="2.5" style="stroke:#181818;stroke-width:0.5;" width="86.126" x="433.5947" y="247.8398"/><text fill="#000000" font-family="sans-serif" font-size="14" lengthAdjust="spacing" textLength="72.126" x="440.5947" y="268.375">Repository</text><rect fill="#E2E2F0" height="30.4883" rx="2.5" ry="2.5" style="stroke:#181818;stroke-width:0.5;" width="125.8838" x="598.3096" y="21.4883"/><text fill="#000000" font-family="sans-serif" font-size="14" lengthAdjust="spacing" textLength="111.8838" x="605.3096" y="42.0234">BlockchainClient</text><rect fill="#E2E2F0" height="30.4883" rx="2.5" ry="2.5" style="stroke:#181818;stroke-width:0.5;" width="125.8838" x="598.3096" y="247.8398"/><text fill="#000000" font-family="sans-serif" font-size="14" lengthAdjust="spacing" textLength="111.8838" x="605.3096" y="268.375">BlockchainClient</text><rect fill="#FFFFFF" height="146.5527" style="stroke:#181818;stroke-width:1.0;" width="10" x="287.064" y="84.2871"/><rect fill="#FFFFFF" height="87.9316" style="stroke:#181818;stroke-width:1.0;" width="10" x="471.6577" y="113.5977"/><rect fill="#FFFFFF" height="29.3105" style="stroke:#181818;stroke-width:1.0;" width="10" x="656.2515" y="142.9082"/><polygon fill="#181818" points="275.064,80.2871,285.064,84.2871,275.064,88.2871,279.064,84.2871" style="stroke:#181818;stroke-width:1.0;"/><line style="stroke:#181818;stroke-width:1.0;" x1="51.833" x2="281.064" y1="84.2871" y2="84.2871"/><text fill="#000000" font-family="sans-serif" font-size="13" lengthAdjust="spacing" textLength="149.7729" x="58.833" y="79.5449">GET /block/:hash/forks</text><polygon fill="#181818" points="459.6577,109.5977,469.6577,113.5977,459.6577,117.5977,463.6577,113.5977" style="stroke:#181818;stroke-width:1.0;"/><line style="stroke:#181818;stroke-width:1.0;" x1="297.064" x2="465.6577" y1="113.5977" y2="113.5977"/><text fill="#000000" font-family="sans-serif" font-size="13" lengthAdjust="spacing" textLength="155.5938" x="304.064" y="108.8555">GetBlockForks(ctx, hash)</text><polygon fill="#181818" points="644.2515,138.9082,654.2515,142.9082,644.2515,146.9082,648.2515,142.9082" style="stroke:#181818;stroke-width:1.0;"/><line style="stroke:#181818;stroke-width:1.0;" x1="481.6577" x2="650.2515" y1="142.9082" y2="142.9082"/><text fill="#000000" font-family="sans-serif" font-size="13" lengthAdjust="spacing" textLength="155.5938" x="488.6577" y="138.166">GetBlockForks(ctx, hash)</text><polygon fill="#181818" points="492.6577,168.2188,482.6577,172.2188,492.6577,176.2188,488.6577,172.2188" style="stroke:#181818;stroke-width:1.0;"/><line style="stroke:#181818;stroke-width:1.0;stroke-dasharray:2.0,2.0;" x1="486.6577" x2="660.2515" y1="172.2188" y2="172.2188"/><text fill="#000000" font-family="sans-serif" font-size="13" lengthAdjust="spacing" textLength="137.8013" x="498.6577" y="167.4766">[]model.BlockForkInfo</text><polygon fill="#181818" points="308.064,197.5293,298.064,201.5293,308.064,205.5293,304.064,201.5293" style="stroke:#181818;stroke-width:1.0;"/><line style="stroke:#181818;stroke-width:1.0;stroke-dasharray:2.0,2.0;" x1="302.064" x2="475.6577" y1="201.5293" y2="201.5293"/><text fill="#000000" font-family="sans-serif" font-size="13" lengthAdjust="spacing" textLength="137.8013" x="314.064" y="196.7871">[]model.BlockForkInfo</text><polygon fill="#181818" points="62.833,226.8398,52.833,230.8398,62.833,234.8398,58.833,230.8398" style="stroke:#181818;stroke-width:1.0;"/><line style="stroke:#181818;stroke-width:1.0;stroke-dasharray:2.0,2.0;" x1="56.833" x2="291.064" y1="230.8398" y2="230.8398"/><text fill="#000000" font-family="sans-serif" font-size="13" lengthAdjust="spacing" textLength="211.231" x="68.833" y="226.0977">JSON Response (Block Forks data)</text><text fill="#888888" font-family="sans-serif" font-size="10" lengthAdjust="spacing" textLength="154.8389" x="0" y="306.4844">Last Modified On: 29-Oct-2024</text><!--SRC=[ZP3BJiCm44Nt_efH9AH48iq-2nQ9U1GHYcXsW9299utLrBRYKKN_7jkfg0iByCgMxZbpnuPF93jfk298xjhs2UfHeg84k3rUcVcLMUEqn-bLfTnQf68WCkzoPyPmMsnq5d0VdPFdYcSqsahIqo74_FCyK8swstO3boegKzMCpK_8ho8tb71xtKBnuQ6Y7BWTYbvFMyjuHtBF2UCY4USiVhJdaSB86u-b7NrUWjTa9qFe6DAEgkf_CQwmI-QdCIzlEormN7npIzLh9Z0cvXa_5_oJ3FtYtPpX-5abtAzNZovXZLOM8GqI2Br1SE9PB8g-YetO4_HQanC-S4lGQ25xYG9MgeGBnsAQ294tJPCVt4aozWK0]--></g></svg>
