<svg contentStyleType="text/css" height="315" preserveAspectRatio="none" viewBox="0 0 606 315" width="606" xmlns="http://www.w3.org/2000/svg" zoomAndPan="magnify"><path d="m305 83.7266h10v162.4688h-10z" fill="#fff" stroke="#181818"/><path d="m531 112.8594h10v112.2031h-10z" fill="#fff" stroke="#181818"/><path d="m200 127.8594h399.5v90.2031h-399.5z" fill="none" stroke="#000" stroke-width="1.5"/><g stroke="#181818" stroke-width=".5"><g stroke-dasharray="5 5"><path d="m54 52.5938v211.6015"/><path d="m310 52.5938v211.6015"/><path d="m535.5 52.5938v211.6015"/></g><rect fill="#e2e2f0" height="30.2969" rx="2.5" width="98" x="5" y="21.2969"/></g><text font-family="sans-serif" font-size="14" lengthAdjust="spacing" textLength="84" x="12" y="41.292">HTTP Client</text><rect fill="#e2e2f0" height="30.2969" rx="2.5" stroke="#181818" stroke-width=".5" width="98" x="5" y="263.1953"/><text font-family="sans-serif" font-size="14" lengthAdjust="spacing" textLength="84" x="12" y="283.1904">HTTP Client</text><rect fill="#e2e2f0" height="46.5938" rx="2.5" stroke="#181818" stroke-width=".5" width="200" x="210" y="5"/><text font-family="sans-serif" font-size="14" lengthAdjust="spacing" textLength="88" x="266" y="24.9951">HTTP Server</text><text font-family="sans-serif" font-size="14" lengthAdjust="spacing" textLength="186" x="217" y="41.292">(asset/http_impl/http.go)</text><rect fill="#e2e2f0" height="46.5938" rx="2.5" stroke="#181818" stroke-width=".5" width="200" x="210" y="263.1953"/><text font-family="sans-serif" font-size="14" lengthAdjust="spacing" textLength="88" x="266" y="283.1904">HTTP Server</text><text font-family="sans-serif" font-size="14" lengthAdjust="spacing" textLength="186" x="217" y="299.4873">(asset/http_impl/http.go)</text><rect fill="#e2e2f0" height="30.2969" rx="2.5" stroke="#181818" stroke-width=".5" width="107" x="482.5" y="21.2969"/><text font-family="sans-serif" font-size="14" lengthAdjust="spacing" textLength="93" x="489.5" y="41.292">TxMetaStore</text><rect fill="#e2e2f0" height="30.2969" rx="2.5" stroke="#181818" stroke-width=".5" width="107" x="482.5" y="263.1953"/><text font-family="sans-serif" font-size="14" lengthAdjust="spacing" textLength="93" x="489.5" y="283.1904">TxMetaStore</text><g stroke="#181818"><path d="m305 83.7266h10v162.4688h-10z" fill="#fff"/><path d="m531 112.8594h10v112.2031h-10z" fill="#fff"/><path d="m293 79.7266 10 4-10 4 4-4z" fill="#181818"/><path d="m54 83.7266h245"/></g><text font-family="sans-serif" font-size="13" lengthAdjust="spacing" textLength="151" x="61" y="78.6606">GET /txmeta/:hash/json</text><path d="m519 108.8594 10 4-10 4 4-4z" fill="#181818" stroke="#181818"/><path d="m315 112.8594h210" stroke="#181818"/><text font-family="sans-serif" font-size="13" lengthAdjust="spacing" textLength="92" x="322" y="107.7935">Get(ctx, hash)</text><path d="m200 127.8594h66v7.1328l-10 10h-56z" fill="#eee" stroke="#000" stroke-width="1.5"/><path d="m200 127.8594h399.5v90.2031h-399.5z" fill="none" stroke="#000" stroke-width="1.5"/><text font-family="sans-serif" font-size="13" font-weight="bold" lengthAdjust="spacing" textLength="21" x="215" y="140.9263">alt</text><text font-family="sans-serif" font-size="11" font-weight="bold" lengthAdjust="spacing" textLength="195" x="281" y="140.0698">[TxMetaStore has metadata]</text><path d="m326 162.125-10 4 10 4-4-4z" fill="#181818" stroke="#181818"/><path d="m320 166.125h210" stroke="#181818" stroke-dasharray="2 2"/><text font-family="sans-serif" font-size="13" lengthAdjust="spacing" textLength="192" x="332" y="161.0591">Transaction metadata in JSON</text><path d="m200 175.125h399.5" stroke="#000" stroke-dasharray="2 2"/><text font-family="sans-serif" font-size="11" font-weight="bold" lengthAdjust="spacing" textLength="267" x="205" y="185.3354">[TxMetaStore does not have metadata]</text><path d="m326 206.0625-10 4 10 4-4-4z" fill="#181818" stroke="#181818"/><path d="m320 210.0625h210" stroke="#181818" stroke-dasharray="2 2"/><text font-family="sans-serif" font-size="13" lengthAdjust="spacing" textLength="97" x="332" y="204.9966">Data not found</text><path d="m65 242.1953-10 4 10 4-4-4z" fill="#181818" stroke="#181818"/><path d="m59 246.1953h250" stroke="#181818" stroke-dasharray="2 2"/><text font-family="sans-serif" font-size="13" lengthAdjust="spacing" textLength="227" x="71" y="241.1294">Response (JSON metadata or error)</text></svg>
