<svg contentStyleType="text/css" height="724" preserveAspectRatio="none" viewBox="0 0 503 724" width="503" xmlns="http://www.w3.org/2000/svg" zoomAndPan="magnify"><path d="m248 142.1094h10v29.3105h-10z" fill="#fff" stroke="#181818"/><path d="m248 252.041h10v132.2422h-10z" fill="#fff" stroke="#181818"/><path d="m248 456.9043h10v73.6211h-10z" fill="#fff" stroke="#181818"/><path d="m248 595.1465h10v29.3105h-10z" fill="#fff" stroke="#181818"/><path d="m10 330.6621h320.5v46.6211h-320.5z" fill="none" stroke="#000" stroke-width="1.5"/><path d="m10 476.9043h320.5v46.6211h-320.5z" fill="none" stroke="#000" stroke-width="1.5"/><path d="m86 67.4883v574.9687" stroke="#181818" stroke-dasharray="5 5" stroke-width=".5"/><path d="m252.5 67.4883v574.9687" stroke="#181818" stroke-dasharray="5 5" stroke-width=".5"/><path d="m434 67.4883v574.9687" stroke="#181818" stroke-dasharray="5 5" stroke-width=".5"/><rect fill="#e2e2f0" height="30.4883" rx="2.5" stroke="#181818" stroke-width=".5" width="132" x="20" y="36"/><text font-family="sans-serif" font-size="14" lengthAdjust="spacing" textLength="118" x="27" y="56.5352">WebSocket Client</text><rect fill="#e2e2f0" height="30.4883" rx="2.5" stroke="#181818" stroke-width=".5" width="132" x="20" y="641.457"/><text font-family="sans-serif" font-size="14" lengthAdjust="spacing" textLength="118" x="27" y="661.9922">WebSocket Client</text><rect fill="#e2e2f0" height="30.4883" rx="2.5" stroke="#181818" stroke-width=".5" width="135" x="185.5" y="36"/><text font-family="sans-serif" font-size="14" lengthAdjust="spacing" textLength="121" x="192.5" y="56.5352">WebSocket Server</text><rect fill="#e2e2f0" height="30.4883" rx="2.5" stroke="#181818" stroke-width=".5" width="135" x="185.5" y="641.457"/><text font-family="sans-serif" font-size="14" lengthAdjust="spacing" textLength="121" x="192.5" y="661.9922">WebSocket Server</text><text font-family="sans-serif" font-size="14" lengthAdjust="spacing" textLength="108" x="377" y="64.5352">Client Channels</text><path d="m416 15c0-10 18-10 18-10s18 0 18 10v26c0 10-18 10-18 10s-18 0-18-10z" fill="#e2e2f0" stroke="#181818" stroke-width="1.5"/><path d="m416 15c0 10 18 10 18 10s18 0 18-10" fill="none" stroke="#181818" stroke-width="1.5"/><text font-family="sans-serif" font-size="14" lengthAdjust="spacing" textLength="108" x="377" y="654.9922">Client Channels</text><g stroke="#181818"><path d="m416 667.9453c0-10 18-10 18-10s18 0 18 10v26c0 10-18 10-18 10s-18 0-18-10z" fill="#e2e2f0" stroke-width="1.5"/><path d="m416 667.9453c0 10 18 10 18 10s18 0 18-10" fill="none" stroke-width="1.5"/><path d="m248 142.1094h10v29.3105h-10z" fill="#fff"/><path d="m248 252.041h10v132.2422h-10z" fill="#fff"/><path d="m248 456.9043h10v73.6211h-10z" fill="#fff"/><path d="m248 595.1465h10v29.3105h-10z" fill="#fff"/></g><path d="m0 98.1436h496v3h-496z" fill="#eee" stroke="#eee"/><path d="m0 98.1436h496" stroke="#000"/><path d="m0 101.1436h496" stroke="#000"/><path d="m146.5 87.4883h203v23.3105h-203z" fill="#eee" stroke="#000" stroke-width="2"/><text font-family="sans-serif" font-size="13" font-weight="bold" lengthAdjust="spacing" textLength="185" x="152.5" y="104.0566">New WebSocket Connection</text><path d="m236 138.1094 10 4-10 4 4-4z" fill="#181818" stroke="#181818"/><path d="m86 142.1094h156" stroke="#181818"/><text font-family="sans-serif" font-size="13" lengthAdjust="spacing" textLength="141" x="93" y="137.3672">Connect to WebSocket</text><path d="m422 167.4199 10 4-10 4 4-4z" fill="#181818" stroke="#181818"/><path d="m253 171.4199h175" stroke="#181818"/><text font-family="sans-serif" font-size="13" lengthAdjust="spacing" textLength="146" x="260" y="166.6777">Add new client channel</text><path d="m0 200.0752h496v3h-496z" fill="#eee" stroke="#eee"/><path d="m0 200.0752h496" stroke="#000"/><path d="m0 203.0752h496" stroke="#000"/><path d="m154.5 189.4199h187v23.3105h-187z" fill="#eee" stroke="#000" stroke-width="2"/><text font-family="sans-serif" font-size="13" font-weight="bold" lengthAdjust="spacing" textLength="169" x="160.5" y="205.9883">Notification Broadcasting</text><path d="m253 239.041h47" stroke="#181818"/><path d="m300 239.041v13" stroke="#181818"/><path d="m259 252.041h41" stroke="#181818"/><path d="m269 248.041-10 4 10 4-4-4z" fill="#181818" stroke="#181818"/><text font-family="sans-serif" font-size="13" lengthAdjust="spacing" textLength="124" x="265" y="234.2988">Receive notification</text><path d="m422 282.3516 10 4-10 4 4-4z" fill="#181818" stroke="#181818"/><path d="m258 286.3516h170" stroke="#181818"/><text font-family="sans-serif" font-size="13" lengthAdjust="spacing" textLength="143" x="265" y="281.6094">Get all Client Channels</text><path d="m269 311.6621-10 4 10 4-4-4z" fill="#181818" stroke="#181818"/><path d="m263 315.6621h170" stroke="#181818"/><text font-family="sans-serif" font-size="13" lengthAdjust="spacing" textLength="152" x="275" y="310.9199">Send all Client Channels</text><path d="m10 330.6621h74v7.3106l-10 10h-64z" fill="#eee" stroke="#000" stroke-width="1.5"/><path d="m10 330.6621h320.5v46.6211h-320.5z" fill="none" stroke="#000" stroke-width="1.5"/><text font-family="sans-serif" font-size="13" font-weight="bold" lengthAdjust="spacing" textLength="29" x="25" y="344.2305">loop</text><text font-family="sans-serif" font-size="11" font-weight="bold" lengthAdjust="spacing" textLength="163" x="99" y="343.2969">[For Each Client in Channels]</text><path d="m97 365.2832-10 4 10 4-4-4z" fill="#181818" stroke="#181818"/><path d="m91 369.2832h156" stroke="#181818"/><text font-family="sans-serif" font-size="13" lengthAdjust="spacing" textLength="109" x="103" y="364.541">Send Notification</text><path d="m0 404.9385h496v3h-496z" fill="#eee" stroke="#eee"/><path d="m0 404.9385h496" stroke="#000"/><path d="m0 407.9385h496" stroke="#000"/><path d="m195 394.2832h106v23.3105h-106z" fill="#eee" stroke="#000" stroke-width="2"/><text font-family="sans-serif" font-size="13" font-weight="bold" lengthAdjust="spacing" textLength="88" x="201" y="410.8516">Periodic Ping</text><path d="m253 443.9043h47" stroke="#181818"/><path d="m300 443.9043v13" stroke="#181818"/><path d="m259 456.9043h41" stroke="#181818"/><path d="m269 452.9043-10 4 10 4-4-4z" fill="#181818" stroke="#181818"/><text font-family="sans-serif" font-size="13" lengthAdjust="spacing" textLength="117" x="265" y="439.1621">Send periodic ping</text><path d="m10 476.9043h74v7.3105l-10 10h-64z" fill="#eee" stroke="#000" stroke-width="1.5"/><path d="m10 476.9043h320.5v46.6211h-320.5z" fill="none" stroke="#000" stroke-width="1.5"/><text font-family="sans-serif" font-size="13" font-weight="bold" lengthAdjust="spacing" textLength="29" x="25" y="490.4727">loop</text><text font-family="sans-serif" font-size="11" font-weight="bold" lengthAdjust="spacing" textLength="163" x="99" y="489.5391">[For Each Client in Channels]</text><path d="m97 511.5254-10 4 10 4-4-4z" fill="#181818" stroke="#181818"/><path d="m91 515.5254h156" stroke="#181818"/><text font-family="sans-serif" font-size="13" lengthAdjust="spacing" textLength="61" x="103" y="510.7832">Send Ping</text><path d="m0 551.1807h496v3h-496z" fill="#eee" stroke="#eee"/><path d="m0 551.1807h496" stroke="#000"/><path d="m0 554.1807h496" stroke="#000"/><path d="m170 540.5254h156v23.3105h-156z" fill="#eee" stroke="#000" stroke-width="2"/><text font-family="sans-serif" font-size="13" font-weight="bold" lengthAdjust="spacing" textLength="138" x="176" y="557.0938">Client Disconnection</text><path d="m236 591.1465 10 4-10 4 4-4z" fill="#181818" stroke="#181818"/><path d="m86 595.1465h156" stroke="#181818"/><text font-family="sans-serif" font-size="13" lengthAdjust="spacing" textLength="143" x="93" y="590.4043">Disconnect WebSocket</text><path d="m422 620.457 10 4-10 4 4-4z" fill="#181818" stroke="#181818"/><path d="m253 624.457h175" stroke="#181818"/><text font-family="sans-serif" font-size="13" lengthAdjust="spacing" textLength="141" x="260" y="619.7148">Remove client channel</text><text fill="#888" font-family="sans-serif" font-size="10" lengthAdjust="spacing" textLength="149" y="714.6133">Last Modified On: 4-Dec-2023</text></svg>
