<svg contentStyleType="text/css" height="584" preserveAspectRatio="none" viewBox="0 0 1193 584" width="1193" xmlns="http://www.w3.org/2000/svg" zoomAndPan="magnify"><g stroke="#181818"><g fill="#fff"><path d="m202.5 98.4297h10v389.5938h-10z"/><path d="m345 127.5625h10v369.4609h-10z"/><path d="m350 300.2266h10v29.1328h-10z"/><path d="m350 458.8906h10v29.1328h-10z"/><path d="m491 156.6953h10v14h-10z"/><path d="m624.5 199.8281h10v288.1953h-10z"/></g><g stroke-width=".5"><g stroke-dasharray="5 5"><path d="m73 67.2969v438.7265"/><path d="m207 67.2969v438.7265"/><path d="m350 67.2969v438.7265"/><path d="m496 67.2969v438.7265"/><path d="m629 67.2969v438.7265"/><path d="m869 67.2969v438.7265"/><path d="m1055.5 67.2969v438.7265"/></g><rect fill="#e2e2f0" height="30.2969" rx="2.5" width="137" x="5" y="36"/></g></g><text font-family="sans-serif" font-size="14" lengthAdjust="spacing" textLength="123" x="12" y="55.9951">Coinbase Service</text><rect fill="#e2e2f0" height="30.2969" rx="2.5" stroke="#181818" stroke-width=".5" width="137" x="5" y="505.0234"/><text font-family="sans-serif" font-size="14" lengthAdjust="spacing" textLength="123" x="12" y="525.0186">Coinbase Service</text><rect fill="#e2e2f0" height="30.2969" rx="2.5" stroke="#181818" stroke-width=".5" width="101" x="157" y="36"/><text font-family="sans-serif" font-size="14" lengthAdjust="spacing" textLength="87" x="164" y="55.9951">Asset Client</text><rect fill="#e2e2f0" height="30.2969" rx="2.5" stroke="#181818" stroke-width=".5" width="101" x="157" y="505.0234"/><text font-family="sans-serif" font-size="14" lengthAdjust="spacing" textLength="87" x="164" y="525.0186">Asset Client</text><rect fill="#e2e2f0" height="46.5938" rx="2.5" stroke="#181818" stroke-width=".5" width="164" x="268" y="19.7031"/><text font-family="sans-serif" font-size="14" lengthAdjust="spacing" textLength="150" x="275" y="39.6982">Asset Server Handler</text><text font-family="sans-serif" font-size="14" lengthAdjust="spacing" textLength="109" x="295.5" y="55.9951">(asset/grpc.go)</text><rect fill="#e2e2f0" height="46.5938" rx="2.5" stroke="#181818" stroke-width=".5" width="164" x="268" y="505.0234"/><text font-family="sans-serif" font-size="14" lengthAdjust="spacing" textLength="150" x="275" y="525.0186">Asset Server Handler</text><text font-family="sans-serif" font-size="14" lengthAdjust="spacing" textLength="109" x="295.5" y="541.3154">(asset/grpc.go)</text><text font-family="sans-serif" font-size="14" lengthAdjust="spacing" textLength="102" x="442" y="63.9951">Subscriber DB</text><path d="m478 15c0-10 18-10 18-10s18 0 18 10v26c0 10-18 10-18 10s-18 0-18-10z" fill="#e2e2f0" stroke="#181818" stroke-width="1.5"/><path d="m478 15c0 10 18 10 18 10s18 0 18-10" fill="none" stroke="#181818" stroke-width="1.5"/><text font-family="sans-serif" font-size="14" lengthAdjust="spacing" textLength="102" x="442" y="518.0186">Subscriber DB</text><g stroke="#181818"><path d="m478 531.3203c0-10 18-10 18-10s18 0 18 10v26c0 10-18 10-18 10s-18 0-18-10z" fill="#e2e2f0" stroke-width="1.5"/><path d="m478 531.3203c0 10 18 10 18 10s18 0 18-10" fill="none" stroke-width="1.5"/><rect fill="#e2e2f0" height="30.2969" rx="2.5" stroke-width=".5" width="139" x="560" y="36"/></g><text font-family="sans-serif" font-size="14" lengthAdjust="spacing" textLength="125" x="567" y="55.9951">Blockchain Client</text><rect fill="#e2e2f0" height="30.2969" rx="2.5" stroke="#181818" stroke-width=".5" width="139" x="560" y="505.0234"/><text font-family="sans-serif" font-size="14" lengthAdjust="spacing" textLength="125" x="567" y="525.0186">Blockchain Client</text><rect fill="#e2e2f0" height="30.2969" rx="2.5" stroke="#181818" stroke-width=".5" width="143" x="798" y="36"/><text font-family="sans-serif" font-size="14" lengthAdjust="spacing" textLength="129" x="805" y="55.9951">Blockchain Server</text><rect fill="#e2e2f0" height="30.2969" rx="2.5" stroke="#181818" stroke-width=".5" width="143" x="798" y="505.0234"/><text font-family="sans-serif" font-size="14" lengthAdjust="spacing" textLength="129" x="805" y="525.0186">Blockchain Server</text><rect fill="#e2e2f0" height="30.2969" rx="2.5" stroke="#181818" stroke-width=".5" width="178" x="966.5" y="36"/><text font-family="sans-serif" font-size="14" lengthAdjust="spacing" textLength="164" x="973.5" y="55.9951">Block Assembly Server</text><rect fill="#e2e2f0" height="30.2969" rx="2.5" stroke="#181818" stroke-width=".5" width="178" x="966.5" y="505.0234"/><text font-family="sans-serif" font-size="14" lengthAdjust="spacing" textLength="164" x="973.5" y="525.0186">Block Assembly Server</text><g stroke="#181818"><g fill="#fff"><path d="m202.5 98.4297h10v389.5938h-10z"/><path d="m345 127.5625h10v369.4609h-10z"/><path d="m350 300.2266h10v29.1328h-10z"/><path d="m350 458.8906h10v29.1328h-10z"/><path d="m491 156.6953h10v14h-10z"/><path d="m624.5 199.8281h10v288.1953h-10z"/></g><path d="m190.5 94.4297 10 4-10 4 4-4z" fill="#181818"/><path d="m73.5 98.4297h123"/></g><text font-family="sans-serif" font-size="13" lengthAdjust="spacing" textLength="110" x="80.5" y="93.3638">Subscribe(ctx, "")</text><path d="m333 123.5625 10 4-10 4 4-4z" fill="#181818" stroke="#181818"/><path d="m212.5 127.5625h126.5" stroke="#181818"/><text font-family="sans-serif" font-size="13" lengthAdjust="spacing" textLength="110" x="219.5" y="122.4966">Subscribe(ctx, "")</text><path d="m479 152.6953 10 4-10 4 4-4z" fill="#181818" stroke="#181818"/><path d="m355 156.6953h130" stroke="#181818"/><text font-family="sans-serif" font-size="13" lengthAdjust="spacing" textLength="105" x="362" y="151.6294">Track subscriber</text><g stroke="#181818"><path d="m366 166.6953-10 4 10 4-4-4z" fill="#181818"/><path d="m360 170.6953h135" stroke-dasharray="2 2"/><path d="m612.5 195.8281 10 4-10 4 4-4z" fill="#181818"/><path d="m355 199.8281h263.5"/></g><text font-family="sans-serif" font-size="13" lengthAdjust="spacing" textLength="72" x="362" y="194.7622">Subscribe()</text><g stroke="#181818"><path d="m869.5 228.9609h42"/><path d="m911.5 228.9609v13"/><path d="m870.5 241.9609h41"/><path d="m880.5 237.9609-10 4 10 4-4-4z" fill="#181818"/></g><text font-family="sans-serif" font-size="13" lengthAdjust="spacing" textLength="68" x="876.5" y="223.895">AddBlock()</text><path d="m645.5 267.0938-10 4 10 4-4-4z" fill="#181818" stroke="#181818"/><path d="m639.5 271.0938h229" stroke="#181818"/><text font-family="sans-serif" font-size="13" lengthAdjust="spacing" textLength="211" x="651.5" y="266.0278">Send Notification Block, MiningOn</text><path d="m371 296.2266-10 4 10 4-4-4z" fill="#181818" stroke="#181818"/><path d="m365 300.2266h258.5" stroke="#181818"/><text font-family="sans-serif" font-size="13" lengthAdjust="spacing" textLength="211" x="377" y="295.1606">Send Notification Block, MiningOn</text><path d="m84.5 325.3594-10 4 10 4-4-4z" fill="#181818" stroke="#181818"/><path d="m78.5 329.3594h265.5" stroke="#181818" stroke-dasharray="2 2"/><text font-family="sans-serif" font-size="13" lengthAdjust="spacing" textLength="175" x="90.5" y="324.2935">Notification Block, MiningOn</text><g stroke="#181818"><path d="m1055.5 358.4922h42"/><path d="m1097.5 358.4922v13"/><path d="m1056.5 371.4922h41"/><path d="m1066.5 367.4922-10 4 10 4-4-4z" fill="#181818"/></g><text font-family="sans-serif" font-size="13" lengthAdjust="spacing" textLength="124" x="1062.5" y="353.4263">init() - New Subtree</text><path d="m880.5 396.625-10 4 10 4-4-4z" fill="#181818" stroke="#181818"/><path d="m874.5 400.625h180" stroke="#181818"/><text font-family="sans-serif" font-size="13" lengthAdjust="spacing" textLength="162" x="886.5" y="395.5591">Send Notification Subtree</text><path d="m645.5 425.7578-10 4 10 4-4-4z" fill="#181818" stroke="#181818"/><path d="m639.5 429.7578h229" stroke="#181818"/><text font-family="sans-serif" font-size="13" lengthAdjust="spacing" textLength="162" x="651.5" y="424.6919">Send Notification Subtree</text><path d="m371 454.8906-10 4 10 4-4-4z" fill="#181818" stroke="#181818"/><path d="m365 458.8906h258.5" stroke="#181818"/><text font-family="sans-serif" font-size="13" lengthAdjust="spacing" textLength="162" x="377" y="453.8247">Send Notification Subtree</text><path d="m84.5 484.0234-10 4 10 4-4-4z" fill="#181818" stroke="#181818"/><path d="m78.5 488.0234h265.5" stroke="#181818" stroke-dasharray="2 2"/><text font-family="sans-serif" font-size="13" lengthAdjust="spacing" textLength="126" x="90.5" y="482.9575">Notification Subtree</text></svg>
