<svg xmlns="http://www.w3.org/2000/svg" xmlns:xlink="http://www.w3.org/1999/xlink" contentStyleType="text/css" height="316px" preserveAspectRatio="none" style="width:854px;height:316px;background:#FFFFFF;" version="1.1" viewBox="0 0 854 316" width="854px" zoomAndPan="magnify"><defs/><g><rect fill="#FFFFFF" height="146.5527" style="stroke:#181818;stroke-width:1.0;" width="10" x="292.2627" y="84.2871"/><rect fill="#FFFFFF" height="87.9316" style="stroke:#181818;stroke-width:1.0;" width="10" x="520.1855" y="113.5977"/><rect fill="#FFFFFF" height="29.3105" style="stroke:#181818;stroke-width:1.0;" width="10" x="780.9639" y="142.9082"/><line style="stroke:#181818;stroke-width:0.5;stroke-dasharray:5.0,5.0;" x1="51" x2="51" y1="52.9766" y2="248.8398"/><line style="stroke:#181818;stroke-width:0.5;stroke-dasharray:5.0,5.0;" x1="296.5078" x2="296.5078" y1="52.9766" y2="248.8398"/><line style="stroke:#181818;stroke-width:0.5;stroke-dasharray:5.0,5.0;" x1="525.1226" x2="525.1226" y1="52.9766" y2="248.8398"/><line style="stroke:#181818;stroke-width:0.5;stroke-dasharray:5.0,5.0;" x1="785.022" x2="785.022" y1="52.9766" y2="248.8398"/><rect fill="#E2E2F0" height="30.4883" rx="2.5" ry="2.5" style="stroke:#181818;stroke-width:0.5;" width="93.666" x="5" y="21.4883"/><text fill="#000000" font-family="sans-serif" font-size="14" lengthAdjust="spacing" textLength="79.666" x="12" y="42.0234">HTTP Client</text><rect fill="#E2E2F0" height="30.4883" rx="2.5" ry="2.5" style="stroke:#181818;stroke-width:0.5;" width="93.666" x="5" y="247.8398"/><text fill="#000000" font-family="sans-serif" font-size="14" lengthAdjust="spacing" textLength="79.666" x="12" y="268.375">HTTP Client</text><rect fill="#E2E2F0" height="46.9766" rx="2.5" ry="2.5" style="stroke:#181818;stroke-width:0.5;" width="187.5098" x="203.5078" y="5"/><text fill="#000000" font-family="sans-serif" font-size="14" lengthAdjust="spacing" textLength="82.0039" x="256.2607" y="25.5352">HTTP Server</text><text fill="#000000" font-family="sans-serif" font-size="14" lengthAdjust="spacing" textLength="173.5098" x="210.5078" y="42.0234">(asset/http_impl/http.go)</text><rect fill="#E2E2F0" height="46.9766" rx="2.5" ry="2.5" style="stroke:#181818;stroke-width:0.5;" width="187.5098" x="203.5078" y="247.8398"/><text fill="#000000" font-family="sans-serif" font-size="14" lengthAdjust="spacing" textLength="82.0039" x="256.2607" y="268.375">HTTP Server</text><text fill="#000000" font-family="sans-serif" font-size="14" lengthAdjust="spacing" textLength="173.5098" x="210.5078" y="284.8633">(asset/http_impl/http.go)</text><rect fill="#E2E2F0" height="30.4883" rx="2.5" ry="2.5" style="stroke:#181818;stroke-width:0.5;" width="86.126" x="482.1226" y="21.4883"/><text fill="#000000" font-family="sans-serif" font-size="14" lengthAdjust="spacing" textLength="72.126" x="489.1226" y="42.0234">Repository</text><rect fill="#E2E2F0" height="30.4883" rx="2.5" ry="2.5" style="stroke:#181818;stroke-width:0.5;" width="86.126" x="482.1226" y="247.8398"/><text fill="#000000" font-family="sans-serif" font-size="14" lengthAdjust="spacing" textLength="72.126" x="489.1226" y="268.375">Repository</text><rect fill="#E2E2F0" height="30.4883" rx="2.5" ry="2.5" style="stroke:#181818;stroke-width:0.5;" width="125.8838" x="723.022" y="21.4883"/><text fill="#000000" font-family="sans-serif" font-size="14" lengthAdjust="spacing" textLength="111.8838" x="730.022" y="42.0234">BlockchainClient</text><rect fill="#E2E2F0" height="30.4883" rx="2.5" ry="2.5" style="stroke:#181818;stroke-width:0.5;" width="125.8838" x="723.022" y="247.8398"/><text fill="#000000" font-family="sans-serif" font-size="14" lengthAdjust="spacing" textLength="111.8838" x="730.022" y="268.375">BlockchainClient</text><rect fill="#FFFFFF" height="146.5527" style="stroke:#181818;stroke-width:1.0;" width="10" x="292.2627" y="84.2871"/><rect fill="#FFFFFF" height="87.9316" style="stroke:#181818;stroke-width:1.0;" width="10" x="520.1855" y="113.5977"/><rect fill="#FFFFFF" height="29.3105" style="stroke:#181818;stroke-width:1.0;" width="10" x="780.9639" y="142.9082"/><polygon fill="#181818" points="280.2627,80.2871,290.2627,84.2871,280.2627,88.2871,284.2627,84.2871" style="stroke:#181818;stroke-width:1.0;"/><line style="stroke:#181818;stroke-width:1.0;" x1="51.833" x2="286.2627" y1="84.2871" y2="84.2871"/><text fill="#000000" font-family="sans-serif" font-size="13" lengthAdjust="spacing" textLength="185.6309" x="58.833" y="79.5449">GET /blockgraphdata/:period</text><polygon fill="#181818" points="508.1855,109.5977,518.1855,113.5977,508.1855,117.5977,512.1855,113.5977" style="stroke:#181818;stroke-width:1.0;"/><line style="stroke:#181818;stroke-width:1.0;" x1="302.2627" x2="514.1855" y1="113.5977" y2="113.5977"/><text fill="#000000" font-family="sans-serif" font-size="13" lengthAdjust="spacing" textLength="198.9229" x="309.2627" y="108.8555">GetBlockGraphData(ctx, period)</text><polygon fill="#181818" points="768.9639,138.9082,778.9639,142.9082,768.9639,146.9082,772.9639,142.9082" style="stroke:#181818;stroke-width:1.0;"/><line style="stroke:#181818;stroke-width:1.0;" x1="530.1855" x2="774.9639" y1="142.9082" y2="142.9082"/><text fill="#000000" font-family="sans-serif" font-size="13" lengthAdjust="spacing" textLength="231.7783" x="537.1855" y="138.166">GetBlockGraphData(ctx, periodMillis)</text><polygon fill="#181818" points="541.1855,168.2188,531.1855,172.2188,541.1855,176.2188,537.1855,172.2188" style="stroke:#181818;stroke-width:1.0;"/><line style="stroke:#181818;stroke-width:1.0;stroke-dasharray:2.0,2.0;" x1="535.1855" x2="784.9639" y1="172.2188" y2="172.2188"/><ellipse cx="552.6855" cy="162.7188" fill="#000000" rx="2.5" ry="2.5" style="stroke:#000000;stroke-width:0.0;"/><text fill="#000000" font-family="sans-serif" font-size="13" lengthAdjust="spacing" textLength="144.3394" x="559.1855" y="167.4766">model.BlockDataPoints</text><polygon fill="#181818" points="313.2627,197.5293,303.2627,201.5293,313.2627,205.5293,309.2627,201.5293" style="stroke:#181818;stroke-width:1.0;"/><line style="stroke:#181818;stroke-width:1.0;stroke-dasharray:2.0,2.0;" x1="307.2627" x2="524.1855" y1="201.5293" y2="201.5293"/><ellipse cx="324.7627" cy="192.0293" fill="#000000" rx="2.5" ry="2.5" style="stroke:#000000;stroke-width:0.0;"/><text fill="#000000" font-family="sans-serif" font-size="13" lengthAdjust="spacing" textLength="144.3394" x="331.2627" y="196.7871">model.BlockDataPoints</text><polygon fill="#181818" points="62.833,226.8398,52.833,230.8398,62.833,234.8398,58.833,230.8398" style="stroke:#181818;stroke-width:1.0;"/><line style="stroke:#181818;stroke-width:1.0;stroke-dasharray:2.0,2.0;" x1="56.833" x2="296.2627" y1="230.8398" y2="230.8398"/><text fill="#000000" font-family="sans-serif" font-size="13" lengthAdjust="spacing" textLength="216.4297" x="68.833" y="226.0977">JSON Response (Block Graph Data)</text><text fill="#888888" font-family="sans-serif" font-size="10" lengthAdjust="spacing" textLength="154.8389" x="0" y="306.4844">Last Modified On: 29-Oct-2024</text><!--SRC=[XP1DQm8n48Rl-HN3Gc6tTFM-XnwqnLAwLUeU2oLkHXqQax0PfFxx9bd1s1xCQGBlyyo7amDJJquQXkAbwrOmruI62v3-N0htBxF6uOZ3focbzyZJFRFxeeFJgPhiR9Nm61sJrueFTDOJs-6KOl5x7PXfst_tUqac6sOs5sByGlsOkQ61nNC7qqs4TeDqUoLPJXk70rabPCzqb8pvD1aSLB5_b22dlekeU0gAikUV1nWrrSMJnarCO6VpMsHBMfFF-B17eEfBu_k3LQWdIH7fbIN3NYZCaR7XtyLlesdQVD-WE5-nWTVryZqalBF68vH90saBYBOg5sNd4ngt35jhEGZVf6TehQ8jeOAbQU0kt1_BGgcwRTlw55vHYLy0]--></g></svg>
