<svg contentStyleType="text/css" height="446" preserveAspectRatio="none" viewBox="0 0 848 446" width="848" xmlns="http://www.w3.org/2000/svg" zoomAndPan="magnify"><g fill="#fff" stroke="#181818"><path d="m368 83.7266h10v87.3984h-10z"/><path d="m368 200.2578h10v176.7969h-10z"/><path d="m677 112.8594h10v29.1328h-10z"/><path d="m677 311.7891h10v29.1328h-10z"/><path d="m784 229.3906h10v29.1328h-10z"/></g><path d="m263 273.5234h472.5v75.3984h-472.5z" fill="none" stroke="#000" stroke-width="1.5"/><g stroke="#181818" stroke-width=".5"><g stroke-dasharray="5 5"><path d="m54 52.5938v342.4609"/><path d="m373 52.5938v342.4609"/><path d="m681.5 52.5938v342.4609"/><path d="m788.5 52.5938v342.4609"/></g><rect fill="#e2e2f0" height="30.2969" rx="2.5" width="98" x="5" y="21.2969"/></g><text font-family="sans-serif" font-size="14" lengthAdjust="spacing" textLength="84" x="12" y="41.292">HTTP Client</text><rect fill="#e2e2f0" height="30.2969" rx="2.5" stroke="#181818" stroke-width=".5" width="98" x="5" y="394.0547"/><text font-family="sans-serif" font-size="14" lengthAdjust="spacing" textLength="84" x="12" y="414.0498">HTTP Client</text><rect fill="#e2e2f0" height="46.5938" rx="2.5" stroke="#181818" stroke-width=".5" width="200" x="273" y="5"/><text font-family="sans-serif" font-size="14" lengthAdjust="spacing" textLength="88" x="329" y="24.9951">HTTP Server</text><text font-family="sans-serif" font-size="14" lengthAdjust="spacing" textLength="186" x="280" y="41.292">(asset/http_impl/http.go)</text><rect fill="#e2e2f0" height="46.5938" rx="2.5" stroke="#181818" stroke-width=".5" width="200" x="273" y="394.0547"/><text font-family="sans-serif" font-size="14" lengthAdjust="spacing" textLength="88" x="329" y="414.0498">HTTP Server</text><text font-family="sans-serif" font-size="14" lengthAdjust="spacing" textLength="186" x="280" y="430.3467">(asset/http_impl/http.go)</text><rect fill="#e2e2f0" height="30.2969" rx="2.5" stroke="#181818" stroke-width=".5" width="87" x="638.5" y="21.2969"/><text font-family="sans-serif" font-size="14" lengthAdjust="spacing" textLength="73" x="645.5" y="41.292">UtxoStore</text><rect fill="#e2e2f0" height="30.2969" rx="2.5" stroke="#181818" stroke-width=".5" width="87" x="638.5" y="394.0547"/><text font-family="sans-serif" font-size="14" lengthAdjust="spacing" textLength="73" x="645.5" y="414.0498">UtxoStore</text><rect fill="#e2e2f0" height="30.2969" rx="2.5" stroke="#181818" stroke-width=".5" width="107" x="735.5" y="21.2969"/><text font-family="sans-serif" font-size="14" lengthAdjust="spacing" textLength="93" x="742.5" y="41.292">TxMetaStore</text><rect fill="#e2e2f0" height="30.2969" rx="2.5" stroke="#181818" stroke-width=".5" width="107" x="735.5" y="394.0547"/><text font-family="sans-serif" font-size="14" lengthAdjust="spacing" textLength="93" x="742.5" y="414.0498">TxMetaStore</text><g stroke="#181818"><g fill="#fff"><path d="m368 83.7266h10v87.3984h-10z"/><path d="m368 200.2578h10v176.7969h-10z"/><path d="m677 112.8594h10v29.1328h-10z"/><path d="m677 311.7891h10v29.1328h-10z"/><path d="m784 229.3906h10v29.1328h-10z"/></g><path d="m356 79.7266 10 4-10 4 4-4z" fill="#181818"/><path d="m54 83.7266h308"/></g><text font-family="sans-serif" font-size="13" lengthAdjust="spacing" textLength="295" x="61" y="78.6606">GET /utxo/:hash (BINARY_STREAM, HEX, JSON)</text><path d="m665 108.8594 10 4-10 4 4-4z" fill="#181818" stroke="#181818"/><path d="m378 112.8594h293" stroke="#181818"/><text font-family="sans-serif" font-size="13" lengthAdjust="spacing" textLength="234" x="385" y="107.7935">Get(ctx, &amp;utxo.Spend{Hash: hash})</text><path d="m389 137.9922-10 4 10 4-4-4z" fill="#181818" stroke="#181818"/><path d="m383 141.9922h298" stroke="#181818" stroke-dasharray="2 2"/><text font-family="sans-serif" font-size="13" lengthAdjust="spacing" textLength="69" x="395" y="136.9263">UTXO data</text><path d="m65 167.125-10 4 10 4-4-4z" fill="#181818" stroke="#181818"/><path d="m59 171.125h313" stroke="#181818" stroke-dasharray="2 2"/><text font-family="sans-serif" font-size="13" lengthAdjust="spacing" textLength="146" x="71" y="166.0591">Response (UTXO data)</text><path d="m356 196.2578 10 4-10 4 4-4z" fill="#181818" stroke="#181818"/><path d="m54 200.2578h308" stroke="#181818"/><text font-family="sans-serif" font-size="13" lengthAdjust="spacing" textLength="140" x="61" y="195.1919">GET /utxos/:hash/json</text><path d="m772 225.3906 10 4-10 4 4-4z" fill="#181818" stroke="#181818"/><path d="m378 229.3906h400" stroke="#181818"/><text font-family="sans-serif" font-size="13" lengthAdjust="spacing" textLength="92" x="385" y="224.3247">Get(ctx, hash)</text><path d="m389 254.5234-10 4 10 4-4-4z" fill="#181818" stroke="#181818"/><path d="m383 258.5234h405" stroke="#181818" stroke-dasharray="2 2"/><text font-family="sans-serif" font-size="13" lengthAdjust="spacing" textLength="86" x="395" y="253.4575">Tx Meta Data</text><path d="m263 273.5234h78v7.1329l-10 10h-68z" fill="#eee" stroke="#000" stroke-width="1.5"/><path d="m263 273.5234h472.5v75.3984h-472.5z" fill="none" stroke="#000" stroke-width="1.5"/><text font-family="sans-serif" font-size="13" font-weight="bold" lengthAdjust="spacing" textLength="33" x="278" y="286.5903">loop</text><text font-family="sans-serif" font-size="11" font-weight="bold" lengthAdjust="spacing" textLength="139" x="356" y="285.7339">[For each TX output]</text><path d="m665 307.7891 10 4-10 4 4-4z" fill="#181818" stroke="#181818"/><path d="m378 311.7891h293" stroke="#181818"/><text font-family="sans-serif" font-size="13" lengthAdjust="spacing" textLength="280" x="385" y="306.7231">Get(ctx, &amp;utxo.Spend{Hash: output hash})</text><path d="m389 336.9219-10 4 10 4-4-4z" fill="#181818" stroke="#181818"/><path d="m383 340.9219h298" stroke="#181818" stroke-dasharray="2 2"/><text font-family="sans-serif" font-size="13" lengthAdjust="spacing" textLength="69" x="395" y="335.856">UTXO data</text><path d="m65 373.0547-10 4 10 4-4-4z" fill="#181818" stroke="#181818"/><path d="m59 377.0547h313" stroke="#181818" stroke-dasharray="2 2"/><text font-family="sans-serif" font-size="13" lengthAdjust="spacing" textLength="163" x="71" y="371.9888">Response (List of UTXOs)</text></svg>
