<svg contentStyleType="text/css" height="675" preserveAspectRatio="none" viewBox="0 0 671 675" width="671" xmlns="http://www.w3.org/2000/svg" zoomAndPan="magnify"><path d="m347 84.2871h10v206.8184h-10z" fill="#fff" stroke="#181818"/><path d="m347 320.416h10v269.4395h-10z" fill="#fff" stroke="#181818"/><path d="m501.5 113.5977h10v485.2578h-10z" fill="#fff" stroke="#181818"/><path d="m506.5 398.3477h10v200.5078h-10z" fill="#fff" stroke="#181818"/><path d="m596 225.4844h10v29.3105h-10z" fill="#fff" stroke="#181818"/><path d="m596 510.2344h10v29.3105h-10z" fill="#fff" stroke="#181818"/><path d="m248 128.5977h397v134.1973h-397z" fill="none" stroke="#000" stroke-width="1.5"/><path d="m228 335.416h437v226.1289h-437z" fill="none" stroke="#000" stroke-width="1.5"/><path d="m238 359.7266h417v194.8184h-417z" fill="none" stroke="#000" stroke-width="1.5"/><path d="m248 413.3477h397v134.1973h-397z" fill="none" stroke="#000" stroke-width="1.5"/><path d="m52 52.9766v554.8789" stroke="#181818" stroke-dasharray="5 5" stroke-width=".5"/><path d="m352 52.9766v554.8789" stroke="#181818" stroke-dasharray="5 5" stroke-width=".5"/><path d="m506 52.9766v554.8789" stroke="#181818" stroke-dasharray="5 5" stroke-width=".5"/><path d="m601 52.9766v554.8789" stroke="#181818" stroke-dasharray="5 5" stroke-width=".5"/><rect fill="#e2e2f0" height="30.4883" rx="2.5" stroke="#181818" stroke-width=".5" width="94" x="5" y="21.4883"/><text font-family="sans-serif" font-size="14" lengthAdjust="spacing" textLength="80" x="12" y="42.0234">HTTP Client</text><rect fill="#e2e2f0" height="30.4883" rx="2.5" stroke="#181818" stroke-width=".5" width="94" x="5" y="606.8555"/><text font-family="sans-serif" font-size="14" lengthAdjust="spacing" textLength="80" x="12" y="627.3906">HTTP Client</text><rect fill="#e2e2f0" height="46.9766" rx="2.5" stroke="#181818" stroke-width=".5" width="188" x="258" y="5"/><text font-family="sans-serif" font-size="14" lengthAdjust="spacing" textLength="83" x="310.5" y="25.5352">HTTP Server</text><text font-family="sans-serif" font-size="14" lengthAdjust="spacing" textLength="174" x="265" y="42.0234">(asset/http_impl/http.go)</text><rect fill="#e2e2f0" height="46.9766" rx="2.5" stroke="#181818" stroke-width=".5" width="188" x="258" y="606.8555"/><text font-family="sans-serif" font-size="14" lengthAdjust="spacing" textLength="83" x="310.5" y="627.3906">HTTP Server</text><text font-family="sans-serif" font-size="14" lengthAdjust="spacing" textLength="174" x="265" y="643.8789">(asset/http_impl/http.go)</text><rect fill="#e2e2f0" height="30.4883" rx="2.5" stroke="#181818" stroke-width=".5" width="101" x="456" y="21.4883"/><text font-family="sans-serif" font-size="14" lengthAdjust="spacing" textLength="87" x="463" y="42.0234">TxMetaStore</text><rect fill="#e2e2f0" height="30.4883" rx="2.5" stroke="#181818" stroke-width=".5" width="101" x="456" y="606.8555"/><text font-family="sans-serif" font-size="14" lengthAdjust="spacing" textLength="87" x="463" y="627.3906">TxMetaStore</text><rect fill="#e2e2f0" height="30.4883" rx="2.5" stroke="#181818" stroke-width=".5" width="68" x="567" y="21.4883"/><text font-family="sans-serif" font-size="14" lengthAdjust="spacing" textLength="54" x="574" y="42.0234">TxStore</text><rect fill="#e2e2f0" height="30.4883" rx="2.5" stroke="#181818" stroke-width=".5" width="68" x="567" y="606.8555"/><text font-family="sans-serif" font-size="14" lengthAdjust="spacing" textLength="54" x="574" y="627.3906">TxStore</text><g stroke="#181818"><path d="m347 84.2871h10v206.8184h-10z" fill="#fff"/><path d="m347 320.416h10v269.4395h-10z" fill="#fff"/><path d="m501.5 113.5977h10v485.2578h-10z" fill="#fff"/><path d="m506.5 398.3477h10v200.5078h-10z" fill="#fff"/><path d="m596 225.4844h10v29.3105h-10z" fill="#fff"/><path d="m596 510.2344h10v29.3105h-10z" fill="#fff"/><path d="m335 80.2871 10 4-10 4 4-4z" fill="#181818"/><path d="m52 84.2871h289"/></g><text font-family="sans-serif" font-size="13" lengthAdjust="spacing" textLength="276" x="59" y="79.5449">GET /tx/:hash (BINARY_STREAM, HEX, JSON)</text><path d="m489.5 109.5977 10 4-10 4 4-4z" fill="#181818" stroke="#181818"/><path d="m357 113.5977h138.5" stroke="#181818"/><text font-family="sans-serif" font-size="13" lengthAdjust="spacing" textLength="87" x="364" y="108.8555">Get(ctx, hash)</text><path d="m248 128.5977h62v7.3105l-10 10h-52z" fill="#eee" stroke="#000" stroke-width="1.5"/><path d="m248 128.5977h397v134.1973h-397z" fill="none" stroke="#000" stroke-width="1.5"/><text font-family="sans-serif" font-size="13" font-weight="bold" lengthAdjust="spacing" textLength="17" x="263" y="142.166">alt</text><text font-family="sans-serif" font-size="11" font-weight="bold" lengthAdjust="spacing" textLength="112" x="325" y="141.2324">[MetaStore has data]</text><path d="m368 163.2188-10 4 10 4-4-4z" fill="#181818" stroke="#181818"/><path d="m362 167.2188h138.5" stroke="#181818" stroke-dasharray="2 2"/><text font-family="sans-serif" font-size="13" lengthAdjust="spacing" textLength="100" x="374" y="162.4766">transactionData</text><path d="m248 176.2188h397" stroke="#000" stroke-dasharray="2 2"/><text font-family="sans-serif" font-size="11" font-weight="bold" lengthAdjust="spacing" textLength="171" x="253" y="186.8535">[MetaStore does not have data]</text><path d="m368 192.1738-10 4 10 4-4-4z" fill="#181818" stroke="#181818"/><path d="m362 196.1738h138.5" stroke="#181818" stroke-dasharray="2 2"/><path d="m584 221.4844 10 4-10 4 4-4z" fill="#181818" stroke="#181818"/><path d="m357 225.4844h233" stroke="#181818"/><text font-family="sans-serif" font-size="13" lengthAdjust="spacing" textLength="87" x="364" y="220.7422">Get(ctx, hash)</text><path d="m368 250.7949-10 4 10 4-4-4z" fill="#181818" stroke="#181818"/><path d="m362 254.7949h238" stroke="#181818" stroke-dasharray="2 2"/><text font-family="sans-serif" font-size="13" lengthAdjust="spacing" textLength="100" x="374" y="250.0527">transactionData</text><path d="m63 287.1055-10 4 10 4-4-4z" fill="#181818" stroke="#181818"/><path d="m57 291.1055h294" stroke="#181818" stroke-dasharray="2 2"/><text font-family="sans-serif" font-size="13" lengthAdjust="spacing" textLength="100" x="69" y="286.3633">transactionData</text><path d="m335 316.416 10 4-10 4 4-4z" fill="#181818" stroke="#181818"/><path d="m52 320.416h289" stroke="#181818"/><text font-family="sans-serif" font-size="13" lengthAdjust="spacing" textLength="163" x="59" y="315.6738">POST /txs (List of hashes)</text><path d="m228 335.416h62v7.3106l-10 10h-52z" fill="#eee" stroke="#000" stroke-width="1.5"/><path d="m228 335.416h437v226.1289h-437z" fill="none" stroke="#000" stroke-width="1.5"/><text font-family="sans-serif" font-size="13" font-weight="bold" lengthAdjust="spacing" textLength="17" x="243" y="348.9844">alt</text><text font-family="sans-serif" font-size="11" font-weight="bold" lengthAdjust="spacing" textLength="127" x="305" y="348.0508">[For Each Hash in List]</text><path d="m238 359.7266h74v7.3105l-10 10h-64z" fill="#eee" stroke="#000" stroke-width="1.5"/><path d="m238 359.7266h417v194.8184h-417z" fill="none" stroke="#000" stroke-width="1.5"/><text font-family="sans-serif" font-size="13" font-weight="bold" lengthAdjust="spacing" textLength="29" x="253" y="373.2949">loop</text><path d="m494.5 394.3477 10 4-10 4 4-4z" fill="#181818" stroke="#181818"/><path d="m357 398.3477h143.5" stroke="#181818"/><text font-family="sans-serif" font-size="13" lengthAdjust="spacing" textLength="87" x="364" y="393.6055">Get(ctx, hash)</text><path d="m248 413.3477h62v7.3105l-10 10h-52z" fill="#eee" stroke="#000" stroke-width="1.5"/><path d="m248 413.3477h397v134.1973h-397z" fill="none" stroke="#000" stroke-width="1.5"/><text font-family="sans-serif" font-size="13" font-weight="bold" lengthAdjust="spacing" textLength="17" x="263" y="426.916">alt</text><text font-family="sans-serif" font-size="11" font-weight="bold" lengthAdjust="spacing" textLength="112" x="325" y="425.9824">[MetaStore has data]</text><path d="m368 447.9688-10 4 10 4-4-4z" fill="#181818" stroke="#181818"/><path d="m362 451.9688h143.5" stroke="#181818" stroke-dasharray="2 2"/><text font-family="sans-serif" font-size="13" lengthAdjust="spacing" textLength="100" x="374" y="447.2266">transactionData</text><path d="m248 460.9688h397" stroke="#000" stroke-dasharray="2 2"/><text font-family="sans-serif" font-size="11" font-weight="bold" lengthAdjust="spacing" textLength="171" x="253" y="471.6035">[MetaStore does not have data]</text><path d="m368 476.9238-10 4 10 4-4-4z" fill="#181818" stroke="#181818"/><path d="m362 480.9238h143.5" stroke="#181818" stroke-dasharray="2 2"/><path d="m584 506.2344 10 4-10 4 4-4z" fill="#181818" stroke="#181818"/><path d="m357 510.2344h233" stroke="#181818"/><text font-family="sans-serif" font-size="13" lengthAdjust="spacing" textLength="87" x="364" y="505.4922">Get(ctx, hash)</text><path d="m368 535.5449-10 4 10 4-4-4z" fill="#181818" stroke="#181818"/><path d="m362 539.5449h238" stroke="#181818" stroke-dasharray="2 2"/><text font-family="sans-serif" font-size="13" lengthAdjust="spacing" textLength="100" x="374" y="534.8027">transactionData</text><path d="m63 585.8555-10 4 10 4-4-4z" fill="#181818" stroke="#181818"/><path d="m57 589.8555h294" stroke="#181818" stroke-dasharray="2 2"/><text font-family="sans-serif" font-size="13" lengthAdjust="spacing" textLength="121" x="69" y="585.1133">All transactionData</text><text fill="#888" font-family="sans-serif" font-size="10" lengthAdjust="spacing" textLength="149" y="665.5">Last Modified On: 4-Dec-2023</text></svg>
