<svg contentStyleType="text/css" height="925" preserveAspectRatio="none" viewBox="0 0 1475 925" width="1475" xmlns="http://www.w3.org/2000/svg" zoomAndPan="magnify"><g stroke="#181818"><g fill="#fff"><path d="m528 169.9082h10v146.5527h-10z"/><path d="m528 431.3926h10v146.5527h-10z"/><path d="m528 692.877h10v146.5527h-10z"/><path d="m960 199.2188h10v87.9316h-10z"/><path d="m960 460.7031h10v87.9316h-10z"/><path d="m960 722.1875h10v87.9316h-10z"/><path d="m1393 228.5293h10v29.3105h-10z"/><path d="m1393 490.0137h10v29.3105h-10z"/><path d="m1393 751.498h10v29.3105h-10z"/></g><path d="m70 52.9766v804.4531" stroke-dasharray="5 5" stroke-width=".5"/><path d="m533 52.9766v804.4531" stroke-dasharray="5 5" stroke-width=".5"/><path d="m964.5 52.9766v804.4531" stroke-dasharray="5 5" stroke-width=".5"/><path d="m1397.5 52.9766v804.4531" stroke-dasharray="5 5" stroke-width=".5"/><rect fill="#e2e2f0" height="30.4883" rx="2.5" stroke-width=".5" width="130" x="5" y="21.4883"/></g><text font-family="sans-serif" font-size="14" lengthAdjust="spacing" textLength="116" x="12" y="42.0234">Coinbase Service</text><rect fill="#e2e2f0" height="30.4883" rx="2.5" stroke="#181818" stroke-width=".5" width="130" x="5" y="856.4297"/><text font-family="sans-serif" font-size="14" lengthAdjust="spacing" textLength="116" x="12" y="876.9648">Coinbase Service</text><rect fill="#e2e2f0" height="46.9766" rx="2.5" stroke="#181818" stroke-width=".5" width="128" x="469" y="5"/><text font-family="sans-serif" font-size="14" lengthAdjust="spacing" textLength="81" x="492.5" y="25.5352">Asset Client</text><text font-family="sans-serif" font-size="14" lengthAdjust="spacing" textLength="114" x="476" y="42.0234">(asset/Client.go)</text><rect fill="#e2e2f0" height="46.9766" rx="2.5" stroke="#181818" stroke-width=".5" width="128" x="469" y="856.4297"/><text font-family="sans-serif" font-size="14" lengthAdjust="spacing" textLength="81" x="492.5" y="876.9648">Asset Client</text><text font-family="sans-serif" font-size="14" lengthAdjust="spacing" textLength="114" x="476" y="893.4531">(asset/Client.go)</text><rect fill="#e2e2f0" height="46.9766" rx="2.5" stroke="#181818" stroke-width=".5" width="131" x="899.5" y="5"/><text font-family="sans-serif" font-size="14" lengthAdjust="spacing" textLength="84" x="923" y="25.5352">Asset Server</text><text font-family="sans-serif" font-size="14" lengthAdjust="spacing" textLength="117" x="906.5" y="42.0234">(asset/Server.go)</text><rect fill="#e2e2f0" height="46.9766" rx="2.5" stroke="#181818" stroke-width=".5" width="131" x="899.5" y="856.4297"/><text font-family="sans-serif" font-size="14" lengthAdjust="spacing" textLength="84" x="923" y="876.9648">Asset Server</text><text font-family="sans-serif" font-size="14" lengthAdjust="spacing" textLength="117" x="906.5" y="893.4531">(asset/Server.go)</text><rect fill="#e2e2f0" height="30.4883" rx="2.5" stroke="#181818" stroke-width=".5" width="131" x="1332.5" y="21.4883"/><text font-family="sans-serif" font-size="14" lengthAdjust="spacing" textLength="117" x="1339.5" y="42.0234">Blockchain Client</text><rect fill="#e2e2f0" height="30.4883" rx="2.5" stroke="#181818" stroke-width=".5" width="131" x="1332.5" y="856.4297"/><text font-family="sans-serif" font-size="14" lengthAdjust="spacing" textLength="117" x="1339.5" y="876.9648">Blockchain Client</text><g stroke="#181818"><path d="m528 169.9082h10v146.5527h-10z" fill="#fff"/><path d="m528 431.3926h10v146.5527h-10z" fill="#fff"/><path d="m528 692.877h10v146.5527h-10z" fill="#fff"/><path d="m960 199.2188h10v87.9316h-10z" fill="#fff"/><path d="m960 460.7031h10v87.9316h-10z" fill="#fff"/><path d="m960 722.1875h10v87.9316h-10z" fill="#fff"/><path d="m1393 228.5293h10v29.3105h-10z" fill="#fff"/><path d="m1393 490.0137h10v29.3105h-10z" fill="#fff"/><path d="m1393 751.498h10v29.3105h-10z" fill="#fff"/></g><path d="m0 83.6318h1468.5v3h-1468.5z" fill="#eee" stroke="#eee"/><path d="m0 83.6318h1468.5" stroke="#000"/><path d="m0 86.6318h1468.5" stroke="#000"/><path d="m663.75 72.9766h141v23.3105h-141z" fill="#eee" stroke="#000" stroke-width="2"/><text font-family="sans-serif" font-size="13" font-weight="bold" lengthAdjust="spacing" textLength="123" x="669.75" y="89.5449">Get Block Scenario</text><path d="m70 127.5977h42" stroke="#181818"/><path d="m112 127.5977v13" stroke="#181818"/><path d="m71 140.5977h41" stroke="#181818"/><path d="m81 136.5977-10 4 10 4-4-4z" fill="#181818" stroke="#181818"/><text font-family="sans-serif" font-size="13" lengthAdjust="spacing" textLength="170" x="77" y="122.8555">catchup() or processBlock()</text><path d="m516 165.9082 10 4-10 4 4-4z" fill="#181818" stroke="#181818"/><path d="m70 169.9082h452" stroke="#181818"/><text font-family="sans-serif" font-size="13" lengthAdjust="spacing" textLength="193" x="77" y="165.166">gRPC getBlock(ctx, blockHash)</text><path d="m948 195.2188 10 4-10 4 4-4z" fill="#181818" stroke="#181818"/><path d="m538 199.2188h416" stroke="#181818"/><text font-family="sans-serif" font-size="13" lengthAdjust="spacing" textLength="157" x="545" y="194.4766">getBlock(ctx, blockHash)</text><path d="m1381 224.5293 10 4-10 4 4-4z" fill="#181818" stroke="#181818"/><path d="m970 228.5293h417" stroke="#181818"/><text font-family="sans-serif" font-size="13" lengthAdjust="spacing" textLength="158" x="977" y="223.7871">GetBlock(ctx, blockHash)</text><path d="m981 253.8398-10 4 10 4-4-4z" fill="#181818" stroke="#181818"/><path d="m975 257.8398h422" stroke="#181818" stroke-dasharray="2 2"/><text font-family="sans-serif" font-size="13" lengthAdjust="spacing" textLength="64" x="987" y="253.0977">blockData</text><path d="m549 283.1504-10 4 10 4-4-4z" fill="#181818" stroke="#181818"/><path d="m543 287.1504h421" stroke="#181818" stroke-dasharray="2 2"/><text font-family="sans-serif" font-size="13" lengthAdjust="spacing" textLength="64" x="555" y="282.4082">blockData</text><path d="m81 312.4609-10 4 10 4-4-4z" fill="#181818" stroke="#181818"/><path d="m75 316.4609h457" stroke="#181818" stroke-dasharray="2 2"/><text font-family="sans-serif" font-size="13" lengthAdjust="spacing" textLength="64" x="87" y="311.7188">blockData</text><path d="m0 345.1162h1468.5v3h-1468.5z" fill="#eee" stroke="#eee"/><path d="m0 345.1162h1468.5" stroke="#000"/><path d="m0 348.1162h1468.5" stroke="#000"/><path d="m621.25 334.4609h226v23.3105h-226z" fill="#eee" stroke="#000" stroke-width="2"/><text font-family="sans-serif" font-size="13" font-weight="bold" lengthAdjust="spacing" textLength="208" x="627.25" y="351.0293">Get Best Block Header Scenario</text><path d="m70 389.082h42" stroke="#181818"/><path d="m112 389.082v13" stroke="#181818"/><path d="m71 402.082h41" stroke="#181818"/><path d="m81 398.082-10 4 10 4-4-4z" fill="#181818" stroke="#181818"/><text font-family="sans-serif" font-size="13" lengthAdjust="spacing" textLength="124" x="77" y="384.3398">init() or storeBlock()</text><path d="m516 427.3926 10 4-10 4 4-4z" fill="#181818" stroke="#181818"/><path d="m70 431.3926h452" stroke="#181818"/><text font-family="sans-serif" font-size="13" lengthAdjust="spacing" textLength="188" x="77" y="426.6504">gRPC getBestBlockHeader(ctx)</text><path d="m948 456.7031 10 4-10 4 4-4z" fill="#181818" stroke="#181818"/><path d="m538 460.7031h416" stroke="#181818"/><text font-family="sans-serif" font-size="13" lengthAdjust="spacing" textLength="152" x="545" y="455.9609">getBestBlockHeader(ctx)</text><path d="m1381 486.0137 10 4-10 4 4-4z" fill="#181818" stroke="#181818"/><path d="m970 490.0137h417" stroke="#181818"/><text font-family="sans-serif" font-size="13" lengthAdjust="spacing" textLength="153" x="977" y="485.2715">GetBestBlockHeader(ctx)</text><path d="m981 515.3242-10 4 10 4-4-4z" fill="#181818" stroke="#181818"/><path d="m975 519.3242h422" stroke="#181818" stroke-dasharray="2 2"/><text font-family="sans-serif" font-size="13" lengthAdjust="spacing" textLength="134" x="987" y="514.582">bestBlockHeaderData</text><path d="m549 544.6348-10 4 10 4-4-4z" fill="#181818" stroke="#181818"/><path d="m543 548.6348h421" stroke="#181818" stroke-dasharray="2 2"/><text font-family="sans-serif" font-size="13" lengthAdjust="spacing" textLength="134" x="555" y="543.8926">bestBlockHeaderData</text><path d="m81 573.9453-10 4 10 4-4-4z" fill="#181818" stroke="#181818"/><path d="m75 577.9453h457" stroke="#181818" stroke-dasharray="2 2"/><text font-family="sans-serif" font-size="13" lengthAdjust="spacing" textLength="134" x="87" y="573.2031">bestBlockHeaderData</text><path d="m0 606.6006h1468.5v3h-1468.5z" fill="#eee" stroke="#eee"/><path d="m0 606.6006h1468.5" stroke="#000"/><path d="m0 609.6006h1468.5" stroke="#000"/><path d="m633.75 595.9453h201v23.3105h-201z" fill="#eee" stroke="#000" stroke-width="2"/><text font-family="sans-serif" font-size="13" font-weight="bold" lengthAdjust="spacing" textLength="183" x="639.75" y="612.5137">Get Block Headers Scenario</text><path d="m70 650.5664h42" stroke="#181818"/><path d="m112 650.5664v13" stroke="#181818"/><path d="m71 663.5664h41" stroke="#181818"/><path d="m81 659.5664-10 4 10 4-4-4z" fill="#181818" stroke="#181818"/><text font-family="sans-serif" font-size="13" lengthAdjust="spacing" textLength="58" x="77" y="645.8242">catchup()</text><path d="m516 688.877 10 4-10 4 4-4z" fill="#181818" stroke="#181818"/><path d="m70 692.877h452" stroke="#181818"/><text font-family="sans-serif" font-size="13" lengthAdjust="spacing" textLength="439" x="77" y="688.1348">gRPC getBlockHeaders(ctx, fromBlockHeaderHash, numberOfHeaders)</text><path d="m948 718.1875 10 4-10 4 4-4z" fill="#181818" stroke="#181818"/><path d="m538 722.1875h416" stroke="#181818"/><text font-family="sans-serif" font-size="13" lengthAdjust="spacing" textLength="403" x="545" y="717.4453">getBlockHeaders(ctx, fromBlockHeaderHash, numberOfHeaders)</text><path d="m1381 747.498 10 4-10 4 4-4z" fill="#181818" stroke="#181818"/><path d="m970 751.498h417" stroke="#181818"/><text font-family="sans-serif" font-size="13" lengthAdjust="spacing" textLength="404" x="977" y="746.7559">GetBlockHeaders(ctx, fromBlockHeaderHash, numberOfHeaders)</text><path d="m981 776.8086-10 4 10 4-4-4z" fill="#181818" stroke="#181818"/><path d="m975 780.8086h422" stroke="#181818" stroke-dasharray="2 2"/><text font-family="sans-serif" font-size="13" lengthAdjust="spacing" textLength="115" x="987" y="776.0664">blockHeadersData</text><path d="m549 806.1191-10 4 10 4-4-4z" fill="#181818" stroke="#181818"/><path d="m543 810.1191h421" stroke="#181818" stroke-dasharray="2 2"/><text font-family="sans-serif" font-size="13" lengthAdjust="spacing" textLength="115" x="555" y="805.377">blockHeadersData</text><path d="m81 835.4297-10 4 10 4-4-4z" fill="#181818" stroke="#181818"/><path d="m75 839.4297h457" stroke="#181818" stroke-dasharray="2 2"/><text font-family="sans-serif" font-size="13" lengthAdjust="spacing" textLength="115" x="87" y="834.6875">blockHeadersData</text><text fill="#888" font-family="sans-serif" font-size="10" lengthAdjust="spacing" textLength="149" y="915.0742">Last Modified On: 4-Dec-2023</text></svg>
