<svg contentStyleType="text/css" height="717" preserveAspectRatio="none" viewBox="0 0 516 717" width="516" xmlns="http://www.w3.org/2000/svg" zoomAndPan="magnify"><g fill="#fff" stroke="#181818"><path d="m258.5 141.5625h10v29.1328h-10z"/><path d="m258.5 250.9609h10v131.5313h-10z"/><path d="m258.5 454.7578h10v73.2656h-10z"/><path d="m258.5 592.2891h10v29.1328h-10z"/></g><path d="m10 329.2266h338v46.2656h-338z" fill="none" stroke="#000" stroke-width="1.5"/><path d="m10 474.7578h338v46.2656h-338z" fill="none" stroke="#000" stroke-width="1.5"/><g stroke="#181818" stroke-width=".5"><g stroke-dasharray="5 5"><path d="m92 67.2969v572.125"/><path d="m263 67.2969v572.125"/><path d="m445.5 67.2969v572.125"/></g><rect fill="#e2e2f0" height="30.2969" rx="2.5" width="145" x="20" y="36"/></g><text font-family="sans-serif" font-size="14" lengthAdjust="spacing" textLength="131" x="27" y="55.9951">WebSocket Client</text><rect fill="#e2e2f0" height="30.2969" rx="2.5" stroke="#181818" stroke-width=".5" width="145" x="20" y="638.4219"/><text font-family="sans-serif" font-size="14" lengthAdjust="spacing" textLength="131" x="27" y="658.417">WebSocket Client</text><rect fill="#e2e2f0" height="30.2969" rx="2.5" stroke="#181818" stroke-width=".5" width="149" x="189" y="36"/><text font-family="sans-serif" font-size="14" lengthAdjust="spacing" textLength="135" x="196" y="55.9951">WebSocket Server</text><rect fill="#e2e2f0" height="30.2969" rx="2.5" stroke="#181818" stroke-width=".5" width="149" x="189" y="638.4219"/><text font-family="sans-serif" font-size="14" lengthAdjust="spacing" textLength="135" x="196" y="658.417">WebSocket Server</text><text font-family="sans-serif" font-size="14" lengthAdjust="spacing" textLength="112" x="386.5" y="63.9951">Client Channels</text><path d="m427.5 15c0-10 18-10 18-10s18 0 18 10v26c0 10-18 10-18 10s-18 0-18-10z" fill="#e2e2f0" stroke="#181818" stroke-width="1.5"/><path d="m427.5 15c0 10 18 10 18 10s18 0 18-10" fill="none" stroke="#181818" stroke-width="1.5"/><text font-family="sans-serif" font-size="14" lengthAdjust="spacing" textLength="112" x="386.5" y="651.417">Client Channels</text><g stroke="#181818"><path d="m427.5 664.7188c0-10 18-10 18-10s18 0 18 10v26c0 10-18 10-18 10s-18 0-18-10z" fill="#e2e2f0" stroke-width="1.5"/><path d="m427.5 664.7188c0 10 18 10 18 10s18 0 18-10" fill="none" stroke-width="1.5"/><g fill="#fff"><path d="m258.5 141.5625h10v29.1328h-10z"/><path d="m258.5 250.9609h10v131.5313h-10z"/><path d="m258.5 454.7578h10v73.2656h-10z"/><path d="m258.5 592.2891h10v29.1328h-10z"/></g></g><path d="m0 97.8633h509.5v3h-509.5z" fill="#eee" stroke="#eee"/><path d="m0 97.8633h509.5" stroke="#000"/><path d="m0 100.8633h509.5" stroke="#000"/><path d="m138.75 87.2969h232v23.1328h-232z" fill="#eee" stroke="#000" stroke-width="2"/><text font-family="sans-serif" font-size="13" font-weight="bold" lengthAdjust="spacing" textLength="213" x="144.75" y="103.3638">New WebSocket Connection</text><path d="m246.5 137.5625 10 4-10 4 4-4z" fill="#181818" stroke="#181818"/><path d="m92.5 141.5625h160" stroke="#181818"/><text font-family="sans-serif" font-size="13" lengthAdjust="spacing" textLength="146" x="99.5" y="136.4966">Connect to WebSocket</text><path d="m433.5 166.6953 10 4-10 4 4-4z" fill="#181818" stroke="#181818"/><path d="m263.5 170.6953h176" stroke="#181818"/><text font-family="sans-serif" font-size="13" lengthAdjust="spacing" textLength="148" x="270.5" y="165.6294">Add new client channel</text><path d="m0 199.2617h509.5v3h-509.5z" fill="#eee" stroke="#eee"/><path d="m0 199.2617h509.5" stroke="#000"/><path d="m0 202.2617h509.5" stroke="#000"/><path d="m146.75 188.6953h216v23.1328h-216z" fill="#eee" stroke="#000" stroke-width="2"/><text font-family="sans-serif" font-size="13" font-weight="bold" lengthAdjust="spacing" textLength="197" x="152.75" y="204.7622">Notification Broadcasting</text><g stroke="#181818"><path d="m263.5 237.9609h47"/><path d="m310.5 237.9609v13"/><path d="m269.5 250.9609h41"/><path d="m279.5 246.9609-10 4 10 4-4-4z" fill="#181818"/></g><text font-family="sans-serif" font-size="13" lengthAdjust="spacing" textLength="126" x="275.5" y="232.895">Receive notification</text><path d="m433.5 281.0938 10 4-10 4 4-4z" fill="#181818" stroke="#181818"/><path d="m268.5 285.0938h171" stroke="#181818"/><text font-family="sans-serif" font-size="13" lengthAdjust="spacing" textLength="144" x="275.5" y="280.0278">Get all Client Channels</text><path d="m279.5 310.2266-10 4 10 4-4-4z" fill="#181818" stroke="#181818"/><path d="m273.5 314.2266h171" stroke="#181818"/><text font-family="sans-serif" font-size="13" lengthAdjust="spacing" textLength="153" x="285.5" y="309.1606">Send all Client Channels</text><path d="m10 329.2266h78v7.1328l-10 10h-68z" fill="#eee" stroke="#000" stroke-width="1.5"/><path d="m10 329.2266h338v46.2656h-338z" fill="none" stroke="#000" stroke-width="1.5"/><text font-family="sans-serif" font-size="13" font-weight="bold" lengthAdjust="spacing" textLength="33" x="25" y="342.2935">loop</text><text font-family="sans-serif" font-size="11" font-weight="bold" lengthAdjust="spacing" textLength="190" x="103" y="341.437">[For Each Client in Channels]</text><path d="m103.5 363.4922-10 4 10 4-4-4z" fill="#181818" stroke="#181818"/><path d="m97.5 367.4922h160" stroke="#181818"/><text font-family="sans-serif" font-size="13" lengthAdjust="spacing" textLength="108" x="109.5" y="362.4263">Send Notification</text><path d="m0 403.0586h509.5v3h-509.5z" fill="#eee" stroke="#eee"/><path d="m0 403.0586h509.5" stroke="#000"/><path d="m0 406.0586h509.5" stroke="#000"/><path d="m196.25 392.4922h117v23.1328h-117z" fill="#eee" stroke="#000" stroke-width="2"/><text font-family="sans-serif" font-size="13" font-weight="bold" lengthAdjust="spacing" textLength="98" x="202.25" y="408.5591">Periodic Ping</text><path d="m263.5 441.7578h47" stroke="#181818"/><path d="m310.5 441.7578v13" stroke="#181818"/><path d="m269.5 454.7578h41" stroke="#181818"/><path d="m279.5 450.7578-10 4 10 4-4-4z" fill="#181818" stroke="#181818"/><text font-family="sans-serif" font-size="13" lengthAdjust="spacing" textLength="117" x="275.5" y="436.6919">Send periodic ping</text><path d="m10 474.7578h78v7.1328l-10 10h-68z" fill="#eee" stroke="#000" stroke-width="1.5"/><path d="m10 474.7578h338v46.2656h-338z" fill="none" stroke="#000" stroke-width="1.5"/><text font-family="sans-serif" font-size="13" font-weight="bold" lengthAdjust="spacing" textLength="33" x="25" y="487.8247">loop</text><text font-family="sans-serif" font-size="11" font-weight="bold" lengthAdjust="spacing" textLength="190" x="103" y="486.9683">[For Each Client in Channels]</text><path d="m103.5 509.0234-10 4 10 4-4-4z" fill="#181818" stroke="#181818"/><path d="m97.5 513.0234h160" stroke="#181818"/><text font-family="sans-serif" font-size="13" lengthAdjust="spacing" textLength="63" x="109.5" y="507.9575">Send Ping</text><path d="m0 548.5898h509.5v3h-509.5z" fill="#eee" stroke="#eee"/><path d="m0 548.5898h509.5" stroke="#000"/><path d="m0 551.5898h509.5" stroke="#000"/><path d="m167.25 538.0234h175v23.1328h-175z" fill="#eee" stroke="#000" stroke-width="2"/><text font-family="sans-serif" font-size="13" font-weight="bold" lengthAdjust="spacing" textLength="156" x="173.25" y="554.0903">Client Disconnection</text><path d="m246.5 588.2891 10 4-10 4 4-4z" fill="#181818" stroke="#181818"/><path d="m92.5 592.2891h160" stroke="#181818"/><text font-family="sans-serif" font-size="13" lengthAdjust="spacing" textLength="147" x="99.5" y="587.2231">Disconnect WebSocket</text><path d="m433.5 617.4219 10 4-10 4 4-4z" fill="#181818" stroke="#181818"/><path d="m263.5 621.4219h176" stroke="#181818"/><text font-family="sans-serif" font-size="13" lengthAdjust="spacing" textLength="146" x="270.5" y="616.356">Remove client channel</text></svg>
