<svg contentStyleType="text/css" height="718" preserveAspectRatio="none" viewBox="0 0 1013 718" width="1013" xmlns="http://www.w3.org/2000/svg" zoomAndPan="magnify"><g fill="#fff" stroke="#181818"><path d="m143.5 366.6621h10v259.8633h-10z"/><path d="m420.5 142.1094h10v143.9316h-10z"/><path d="m420.5 467.5938h10v143.9316h-10z"/><path d="m633 171.4199h10v100.6211h-10z"/><path d="m633 496.9043h10v100.6211h-10z"/><path d="m772.5 200.7305h10v57.3105h-10z"/><path d="m772.5 526.2148h10v57.3105h-10z"/><path d="m914.5 230.041h10v14h-10z"/><path d="m914.5 555.5254h10v14h-10z"/></g><path d="m10 428.9727h986v190.5527h-986z" fill="none" stroke="#000" stroke-width="1.5"/><path d="m148 67.4883v569.0371" stroke="#181818" stroke-dasharray="5 5" stroke-width=".5"/><path d="m425 67.4883v569.0371" stroke="#181818" stroke-dasharray="5 5" stroke-width=".5"/><path d="m638 67.4883v569.0371" stroke="#181818" stroke-dasharray="5 5" stroke-width=".5"/><path d="m777 67.4883v569.0371" stroke="#181818" stroke-dasharray="5 5" stroke-width=".5"/><path d="m919 67.4883v569.0371" stroke="#181818" stroke-dasharray="5 5" stroke-width=".5"/><rect fill="#e2e2f0" height="46.9766" rx="2.5" stroke="#181818" stroke-width=".5" width="257" x="20" y="19.5117"/><text font-family="sans-serif" font-size="14" lengthAdjust="spacing" textLength="152" x="72.5" y="40.0469">Block Assembly Server</text><text font-family="sans-serif" font-size="14" lengthAdjust="spacing" textLength="243" x="27" y="56.5352">(services/blockassembly/Server.go)</text><rect fill="#e2e2f0" height="46.9766" rx="2.5" stroke="#181818" stroke-width=".5" width="257" x="20" y="635.5254"/><text font-family="sans-serif" font-size="14" lengthAdjust="spacing" textLength="152" x="72.5" y="656.0605">Block Assembly Server</text><text font-family="sans-serif" font-size="14" lengthAdjust="spacing" textLength="243" x="27" y="672.5488">(services/blockassembly/Server.go)</text><rect fill="#e2e2f0" height="46.9766" rx="2.5" stroke="#181818" stroke-width=".5" width="277" x="287" y="19.5117"/><text font-family="sans-serif" font-size="14" lengthAdjust="spacing" textLength="81" x="385" y="40.0469">Remote TTL</text><text font-family="sans-serif" font-size="14" lengthAdjust="spacing" textLength="263" x="294" y="56.5352">(services/blockassembly/remotettl.go)</text><rect fill="#e2e2f0" height="46.9766" rx="2.5" stroke="#181818" stroke-width=".5" width="277" x="287" y="635.5254"/><text font-family="sans-serif" font-size="14" lengthAdjust="spacing" textLength="81" x="385" y="656.0605">Remote TTL</text><text font-family="sans-serif" font-size="14" lengthAdjust="spacing" textLength="263" x="294" y="672.5488">(services/blockassembly/remotettl.go)</text><rect fill="#e2e2f0" height="46.9766" rx="2.5" stroke="#181818" stroke-width=".5" width="128" x="574" y="19.5117"/><text font-family="sans-serif" font-size="14" lengthAdjust="spacing" textLength="81" x="597.5" y="40.0469">Asset Client</text><text font-family="sans-serif" font-size="14" lengthAdjust="spacing" textLength="114" x="581" y="56.5352">(asset/Client.go)</text><rect fill="#e2e2f0" height="46.9766" rx="2.5" stroke="#181818" stroke-width=".5" width="128" x="574" y="635.5254"/><text font-family="sans-serif" font-size="14" lengthAdjust="spacing" textLength="81" x="597.5" y="656.0605">Asset Client</text><text font-family="sans-serif" font-size="14" lengthAdjust="spacing" textLength="114" x="581" y="672.5488">(asset/Client.go)</text><rect fill="#e2e2f0" height="46.9766" rx="2.5" stroke="#181818" stroke-width=".5" width="131" x="712" y="19.5117"/><text font-family="sans-serif" font-size="14" lengthAdjust="spacing" textLength="84" x="735.5" y="40.0469">Asset Server</text><text font-family="sans-serif" font-size="14" lengthAdjust="spacing" textLength="117" x="719" y="56.5352">(asset/Server.go)</text><rect fill="#e2e2f0" height="46.9766" rx="2.5" stroke="#181818" stroke-width=".5" width="131" x="712" y="635.5254"/><text font-family="sans-serif" font-size="14" lengthAdjust="spacing" textLength="84" x="735.5" y="656.0605">Asset Server</text><text font-family="sans-serif" font-size="14" lengthAdjust="spacing" textLength="117" x="719" y="672.5488">(asset/Server.go)</text><text font-family="sans-serif" font-size="14" lengthAdjust="spacing" textLength="127" x="853" y="64.5352">Blob Subtree Store</text><path d="m901.5 15c0-10 18-10 18-10s18 0 18 10v26c0 10-18 10-18 10s-18 0-18-10z" fill="#e2e2f0" stroke="#181818" stroke-width="1.5"/><path d="m901.5 15c0 10 18 10 18 10s18 0 18-10" fill="none" stroke="#181818" stroke-width="1.5"/><text font-family="sans-serif" font-size="14" lengthAdjust="spacing" textLength="127" x="853" y="649.0605">Blob Subtree Store</text><g stroke="#181818"><path d="m901.5 662.0137c0-10 18-10 18-10s18 0 18 10v26c0 10-18 10-18 10s-18 0-18-10z" fill="#e2e2f0" stroke-width="1.5"/><path d="m901.5 662.0137c0 10 18 10 18 10s18 0 18-10" fill="none" stroke-width="1.5"/><g fill="#fff"><path d="m143.5 366.6621h10v259.8633h-10z"/><path d="m420.5 142.1094h10v143.9316h-10z"/><path d="m420.5 467.5938h10v143.9316h-10z"/><path d="m633 171.4199h10v100.6211h-10z"/><path d="m633 496.9043h10v100.6211h-10z"/><path d="m772.5 200.7305h10v57.3105h-10z"/><path d="m772.5 526.2148h10v57.3105h-10z"/><path d="m914.5 230.041h10v14h-10z"/><path d="m914.5 555.5254h10v14h-10z"/></g></g><path d="m0 98.1436h1006v3h-1006z" fill="#eee" stroke="#eee"/><path d="m0 98.1436h1006" stroke="#000"/><path d="m0 101.1436h1006" stroke="#000"/><path d="m421 87.4883h164v23.3105h-164z" fill="#eee" stroke="#000" stroke-width="2"/><text font-family="sans-serif" font-size="13" font-weight="bold" lengthAdjust="spacing" textLength="146" x="427" y="104.0566">New Subtree Scenario</text><path d="m408.5 138.1094 10 4-10 4 4-4z" fill="#181818" stroke="#181818"/><path d="m148.5 142.1094h266" stroke="#181818"/><text font-family="sans-serif" font-size="13" lengthAdjust="spacing" textLength="102" x="155.5" y="137.3672">Set(ctx, subtree)</text><path d="m621 167.4199 10 4-10 4 4-4z" fill="#181818" stroke="#181818"/><path d="m430.5 171.4199h196.5" stroke="#181818"/><text font-family="sans-serif" font-size="13" lengthAdjust="spacing" textLength="102" x="437.5" y="166.6777">set(ctx, subtree)</text><path d="m760.5 196.7305 10 4-10 4 4-4z" fill="#181818" stroke="#181818"/><path d="m643 200.7305h123.5" stroke="#181818"/><text font-family="sans-serif" font-size="13" lengthAdjust="spacing" textLength="102" x="650" y="195.9883">Set(ctx, subtree)</text><path d="m902.5 226.041 10 4-10 4 4-4z" fill="#181818" stroke="#181818"/><path d="m782.5 230.041h126" stroke="#181818"/><text font-family="sans-serif" font-size="13" lengthAdjust="spacing" textLength="102" x="789.5" y="225.2988">Set(ctx, subtree)</text><g stroke="#181818"><path d="m793.5 240.041-10 4 10 4-4-4z" fill="#181818"/><path d="m787.5 244.041h131" stroke-dasharray="2 2"/><path d="m654 254.041-10 4 10 4-4-4z" fill="#181818"/><path d="m648 258.041h128.5" stroke-dasharray="2 2"/><path d="m441.5 268.041-10 4 10 4-4-4z" fill="#181818"/><path d="m435.5 272.041h201.5" stroke-dasharray="2 2"/><path d="m159.5 282.041-10 4 10 4-4-4z" fill="#181818"/><path d="m153.5 286.041h271" stroke-dasharray="2 2"/></g><path d="m0 314.6963h1006v3h-1006z" fill="#eee" stroke="#eee"/><path d="m0 314.6963h1006" stroke="#000"/><path d="m0 317.6963h1006" stroke="#000"/><path d="m403 304.041h200v23.3105h-200z" fill="#eee" stroke="#000" stroke-width="2"/><text font-family="sans-serif" font-size="13" font-weight="bold" lengthAdjust="spacing" textLength="182" x="409" y="320.6094">Clear Subtree TTL Scenario</text><path d="m148.5 353.6621h47" stroke="#181818"/><path d="m195.5 353.6621v13" stroke="#181818"/><path d="m154.5 366.6621h41" stroke="#181818"/><path d="m164.5 362.6621-10 4 10 4-4-4z" fill="#181818" stroke="#181818"/><text font-family="sans-serif" font-size="13" lengthAdjust="spacing" textLength="210" x="160.5" y="348.9199">submitMiningSolution(ctx, block)</text><path d="m153.5 400.9727h42" stroke="#181818"/><path d="m195.5 400.9727v13" stroke="#181818"/><path d="m154.5 413.9727h41" stroke="#181818"/><path d="m164.5 409.9727-10 4 10 4-4-4z" fill="#181818" stroke="#181818"/><text font-family="sans-serif" font-size="13" lengthAdjust="spacing" textLength="193" x="160.5" y="396.2305">removeSubtreesTTL(ctx, Block)</text><path d="m10 428.9727h74v7.3105l-10 10h-64z" fill="#eee" stroke="#000" stroke-width="1.5"/><path d="m10 428.9727h986v190.5527h-986z" fill="none" stroke="#000" stroke-width="1.5"/><text font-family="sans-serif" font-size="13" font-weight="bold" lengthAdjust="spacing" textLength="29" x="25" y="442.541">loop</text><text font-family="sans-serif" font-size="11" font-weight="bold" lengthAdjust="spacing" textLength="172" x="99" y="441.6074">[For Each Subtree in the Block]</text><path d="m408.5 463.5938 10 4-10 4 4-4z" fill="#181818" stroke="#181818"/><path d="m153.5 467.5938h261" stroke="#181818"/><text font-family="sans-serif" font-size="13" lengthAdjust="spacing" textLength="92" x="160.5" y="462.8516">SetTTL(ctx, ttl)</text><path d="m621 492.9043 10 4-10 4 4-4z" fill="#181818" stroke="#181818"/><path d="m430.5 496.9043h196.5" stroke="#181818"/><text font-family="sans-serif" font-size="13" lengthAdjust="spacing" textLength="92" x="437.5" y="492.1621">SetTTL(ctx, ttl)</text><path d="m760.5 522.2148 10 4-10 4 4-4z" fill="#181818" stroke="#181818"/><path d="m643 526.2148h123.5" stroke="#181818"/><text font-family="sans-serif" font-size="13" lengthAdjust="spacing" textLength="92" x="650" y="521.4727">SetTTL(ctx, ttl)</text><path d="m902.5 551.5254 10 4-10 4 4-4z" fill="#181818" stroke="#181818"/><path d="m782.5 555.5254h126" stroke="#181818"/><text font-family="sans-serif" font-size="13" lengthAdjust="spacing" textLength="92" x="789.5" y="550.7832">SetTTL(ctx, ttl)</text><path d="m793.5 565.5254-10 4 10 4-4-4z" fill="#181818" stroke="#181818"/><path d="m787.5 569.5254h131" stroke="#181818" stroke-dasharray="2 2"/><path d="m654 579.5254-10 4 10 4-4-4z" fill="#181818" stroke="#181818"/><path d="m648 583.5254h128.5" stroke="#181818" stroke-dasharray="2 2"/><path d="m441.5 593.5254-10 4 10 4-4-4z" fill="#181818" stroke="#181818"/><path d="m435.5 597.5254h201.5" stroke="#181818" stroke-dasharray="2 2"/><path d="m164.5 607.5254-10 4 10 4-4-4z" fill="#181818" stroke="#181818"/><path d="m158.5 611.5254h266" stroke="#181818" stroke-dasharray="2 2"/><text fill="#888" font-family="sans-serif" font-size="10" lengthAdjust="spacing" textLength="149" y="708.6816">Last Modified On: 4-Dec-2023</text></svg>
