<svg xmlns="http://www.w3.org/2000/svg" xmlns:xlink="http://www.w3.org/1999/xlink" contentStyleType="text/css" height="406px" preserveAspectRatio="none" style="width:825px;height:406px;background:#FFFFFF;" version="1.1" viewBox="0 0 825 406" width="825px" zoomAndPan="magnify"><defs/><g><rect fill="#FFFFFF" height="236.4844" style="stroke:#181818;stroke-width:1.0;" width="10" x="275.9194" y="84.2871"/><rect fill="#FFFFFF" height="177.8633" style="stroke:#181818;stroke-width:1.0;" width="10" x="480.5591" y="113.5977"/><rect fill="#FFFFFF" height="29.3105" style="stroke:#181818;stroke-width:1.0;" width="10" x="630.6533" y="142.9082"/><rect fill="#FFFFFF" height="29.3105" style="stroke:#181818;stroke-width:1.0;" width="10" x="753.8496" y="225.8398"/><rect fill="none" height="75.9316" style="stroke:#000000;stroke-width:1.5;" width="386.6079" x="432.4961" y="187.2188"/><line style="stroke:#181818;stroke-width:0.5;stroke-dasharray:5.0,5.0;" x1="51" x2="51" y1="52.9766" y2="338.7715"/><line style="stroke:#181818;stroke-width:0.5;stroke-dasharray:5.0,5.0;" x1="280.1646" x2="280.1646" y1="52.9766" y2="338.7715"/><line style="stroke:#181818;stroke-width:0.5;stroke-dasharray:5.0,5.0;" x1="485.4961" x2="485.4961" y1="52.9766" y2="338.7715"/><line style="stroke:#181818;stroke-width:0.5;stroke-dasharray:5.0,5.0;" x1="634.7114" x2="634.7114" y1="52.9766" y2="338.7715"/><line style="stroke:#181818;stroke-width:0.5;stroke-dasharray:5.0,5.0;" x1="758.5952" x2="758.5952" y1="52.9766" y2="338.7715"/><rect fill="#E2E2F0" height="30.4883" rx="2.5" ry="2.5" style="stroke:#181818;stroke-width:0.5;" width="93.666" x="5" y="21.4883"/><text fill="#000000" font-family="sans-serif" font-size="14" lengthAdjust="spacing" textLength="79.666" x="12" y="42.0234">HTTP Client</text><rect fill="#E2E2F0" height="30.4883" rx="2.5" ry="2.5" style="stroke:#181818;stroke-width:0.5;" width="93.666" x="5" y="337.7715"/><text fill="#000000" font-family="sans-serif" font-size="14" lengthAdjust="spacing" textLength="79.666" x="12" y="358.3066">HTTP Client</text><rect fill="#E2E2F0" height="46.9766" rx="2.5" ry="2.5" style="stroke:#181818;stroke-width:0.5;" width="187.5098" x="187.1646" y="5"/><text fill="#000000" font-family="sans-serif" font-size="14" lengthAdjust="spacing" textLength="82.0039" x="239.9175" y="25.5352">HTTP Server</text><text fill="#000000" font-family="sans-serif" font-size="14" lengthAdjust="spacing" textLength="173.5098" x="194.1646" y="42.0234">(asset/http_impl/http.go)</text><rect fill="#E2E2F0" height="46.9766" rx="2.5" ry="2.5" style="stroke:#181818;stroke-width:0.5;" width="187.5098" x="187.1646" y="337.7715"/><text fill="#000000" font-family="sans-serif" font-size="14" lengthAdjust="spacing" textLength="82.0039" x="239.9175" y="358.3066">HTTP Server</text><text fill="#000000" font-family="sans-serif" font-size="14" lengthAdjust="spacing" textLength="173.5098" x="194.1646" y="374.7949">(asset/http_impl/http.go)</text><rect fill="#E2E2F0" height="30.4883" rx="2.5" ry="2.5" style="stroke:#181818;stroke-width:0.5;" width="86.126" x="442.4961" y="21.4883"/><text fill="#000000" font-family="sans-serif" font-size="14" lengthAdjust="spacing" textLength="72.126" x="449.4961" y="42.0234">Repository</text><rect fill="#E2E2F0" height="30.4883" rx="2.5" ry="2.5" style="stroke:#181818;stroke-width:0.5;" width="86.126" x="442.4961" y="337.7715"/><text fill="#000000" font-family="sans-serif" font-size="14" lengthAdjust="spacing" textLength="72.126" x="449.4961" y="358.3066">Repository</text><rect fill="#E2E2F0" height="30.4883" rx="2.5" ry="2.5" style="stroke:#181818;stroke-width:0.5;" width="125.8838" x="572.7114" y="21.4883"/><text fill="#000000" font-family="sans-serif" font-size="14" lengthAdjust="spacing" textLength="111.8838" x="579.7114" y="42.0234">BlockchainClient</text><rect fill="#E2E2F0" height="30.4883" rx="2.5" ry="2.5" style="stroke:#181818;stroke-width:0.5;" width="125.8838" x="572.7114" y="337.7715"/><text fill="#000000" font-family="sans-serif" font-size="14" lengthAdjust="spacing" textLength="111.8838" x="579.7114" y="358.3066">BlockchainClient</text><rect fill="#E2E2F0" height="30.4883" rx="2.5" ry="2.5" style="stroke:#181818;stroke-width:0.5;" width="100.5088" x="708.5952" y="21.4883"/><text fill="#000000" font-family="sans-serif" font-size="14" lengthAdjust="spacing" textLength="86.5088" x="715.5952" y="42.0234">SubtreeStore</text><rect fill="#E2E2F0" height="30.4883" rx="2.5" ry="2.5" style="stroke:#181818;stroke-width:0.5;" width="100.5088" x="708.5952" y="337.7715"/><text fill="#000000" font-family="sans-serif" font-size="14" lengthAdjust="spacing" textLength="86.5088" x="715.5952" y="358.3066">SubtreeStore</text><rect fill="#FFFFFF" height="236.4844" style="stroke:#181818;stroke-width:1.0;" width="10" x="275.9194" y="84.2871"/><rect fill="#FFFFFF" height="177.8633" style="stroke:#181818;stroke-width:1.0;" width="10" x="480.5591" y="113.5977"/><rect fill="#FFFFFF" height="29.3105" style="stroke:#181818;stroke-width:1.0;" width="10" x="630.6533" y="142.9082"/><rect fill="#FFFFFF" height="29.3105" style="stroke:#181818;stroke-width:1.0;" width="10" x="753.8496" y="225.8398"/><polygon fill="#181818" points="263.9194,80.2871,273.9194,84.2871,263.9194,88.2871,267.9194,84.2871" style="stroke:#181818;stroke-width:1.0;"/><line style="stroke:#181818;stroke-width:1.0;" x1="51.833" x2="269.9194" y1="84.2871" y2="84.2871"/><text fill="#000000" font-family="sans-serif" font-size="13" lengthAdjust="spacing" textLength="205.0864" x="58.833" y="79.5449">GET /block/:hash/subtrees/json</text><polygon fill="#181818" points="468.5591,109.5977,478.5591,113.5977,468.5591,117.5977,472.5591,113.5977" style="stroke:#181818;stroke-width:1.0;"/><line style="stroke:#181818;stroke-width:1.0;" x1="285.9194" x2="474.5591" y1="113.5977" y2="113.5977"/><text fill="#000000" font-family="sans-serif" font-size="13" lengthAdjust="spacing" textLength="175.6396" x="292.9194" y="108.8555">GetBlockSubtrees(ctx, hash)</text><polygon fill="#181818" points="618.6533,138.9082,628.6533,142.9082,618.6533,146.9082,622.6533,142.9082" style="stroke:#181818;stroke-width:1.0;"/><line style="stroke:#181818;stroke-width:1.0;" x1="490.5591" x2="624.6533" y1="142.9082" y2="142.9082"/><text fill="#000000" font-family="sans-serif" font-size="13" lengthAdjust="spacing" textLength="121.0942" x="497.5591" y="138.166">GetBlock(ctx, hash)</text><polygon fill="#181818" points="501.5591,168.2188,491.5591,172.2188,501.5591,176.2188,497.5591,172.2188" style="stroke:#181818;stroke-width:1.0;"/><line style="stroke:#181818;stroke-width:1.0;stroke-dasharray:2.0,2.0;" x1="495.5591" x2="634.6533" y1="172.2188" y2="172.2188"/><text fill="#000000" font-family="sans-serif" font-size="13" lengthAdjust="spacing" textLength="76.8955" x="507.5591" y="167.4766">model.Block</text><path d="M432.4961,187.2188 L506.9429,187.2188 L506.9429,194.5293 L496.9429,204.5293 L432.4961,204.5293 L432.4961,187.2188 " fill="#EEEEEE" style="stroke:#000000;stroke-width:1.5;"/><rect fill="none" height="75.9316" style="stroke:#000000;stroke-width:1.5;" width="386.6079" x="432.4961" y="187.2188"/><text fill="#000000" font-family="sans-serif" font-size="13" font-weight="bold" lengthAdjust="spacing" textLength="29.4468" x="447.4961" y="200.7871">loop</text><text fill="#000000" font-family="sans-serif" font-size="11" font-weight="bold" lengthAdjust="spacing" textLength="172.4712" x="521.9429" y="199.8535">[For each transaction in block]</text><polygon fill="#181818" points="741.8496,221.8398,751.8496,225.8398,741.8496,229.8398,745.8496,225.8398" style="stroke:#181818;stroke-width:1.0;"/><line style="stroke:#181818;stroke-width:1.0;" x1="490.5591" x2="747.8496" y1="225.8398" y2="225.8398"/><text fill="#000000" font-family="sans-serif" font-size="13" lengthAdjust="spacing" textLength="182.0127" x="497.5591" y="221.0977">GetSubtreeHead(ctx, txHash)</text><polygon fill="#181818" points="501.5591,251.1504,491.5591,255.1504,501.5591,259.1504,497.5591,255.1504" style="stroke:#181818;stroke-width:1.0;"/><line style="stroke:#181818;stroke-width:1.0;stroke-dasharray:2.0,2.0;" x1="495.5591" x2="757.8496" y1="255.1504" y2="255.1504"/><text fill="#000000" font-family="sans-serif" font-size="13" lengthAdjust="spacing" textLength="148.6177" x="507.5591" y="250.4082">util.Subtree, numNodes</text><polygon fill="#181818" points="296.9194,287.4609,286.9194,291.4609,296.9194,295.4609,292.9194,291.4609" style="stroke:#181818;stroke-width:1.0;"/><line style="stroke:#181818;stroke-width:1.0;stroke-dasharray:2.0,2.0;" x1="290.9194" x2="484.5591" y1="291.4609" y2="291.4609"/><text fill="#000000" font-family="sans-serif" font-size="13" lengthAdjust="spacing" textLength="80.9517" x="302.9194" y="286.7188">[]SubtreeInfo</text><polygon fill="#181818" points="62.833,316.7715,52.833,320.7715,62.833,324.7715,58.833,320.7715" style="stroke:#181818;stroke-width:1.0;"/><line style="stroke:#181818;stroke-width:1.0;stroke-dasharray:2.0,2.0;" x1="56.833" x2="279.9194" y1="320.7715" y2="320.7715"/><text fill="#000000" font-family="sans-serif" font-size="13" lengthAdjust="spacing" textLength="193.686" x="68.833" y="316.0293">JSON Response (Subtrees data)</text><text fill="#888888" font-family="sans-serif" font-size="10" lengthAdjust="spacing" textLength="154.8389" x="0" y="396.416">Last Modified On: 29-Oct-2024</text><!--SRC=[RP7DJiCm48JlVefL9AH4Qffx3XnQ0GMH5f7U024ttX13QaVnjchV7jj9gGluv9zlPcVN7Uz9LhBZYY1QhDTFC6ybAeg0ct7BkZzCYVqU-rSLSsEGieQeUvVRhlMxwOTElDoX0tbfyOoTDf9qV_IOEru2irPNNrN3fGh2pEQNKBdRK8zOMX_qG5aoDl2GNWV58OUxcpLa6-UQvGqtJMO6iSa-ZLQCLoJtd31C7EYjcyleV91yjh6sYIiwJC0v9cSJtuyNME5i7iZ-nMrV5ahFHRPQO3lr0YOmv5gjExZLFTZR1gZdohXdhK0gyEqniEjKkoo7scFQ1N8n9A33mcTmy8-_7PyxMr6GPKUodOxw2QZTTcd36Gy6qQmKbHXx_ZtxbxTHVwzg7JRavnIEsIh7_ylXeLmjBM4whGn2V1eu24uy2Ls2BsCjrWIrrcJT7haXABIGjKG1AvN3bTLY70cH5aMH7ksA4lOD]--></g></svg>
