<svg contentStyleType="text/css" height="308" preserveAspectRatio="none" viewBox="0 0 347 308" width="347" xmlns="http://www.w3.org/2000/svg" zoomAndPan="magnify"><path d="m79.5 106.4297h10v105.3984h-10z" fill="#fff" stroke="#181818"/><path d="m84.5 148.5625h10v63.2656h-10z" fill="#fff" stroke="#181818"/><path d="m307.5 182.6953h10v29.1328h-10z" fill="#fff" stroke="#181818"/><path d="m84 67.2969v162.5312" stroke="#181818" stroke-dasharray="5 5" stroke-width=".5"/><path d="m312 67.2969v162.5312" stroke="#181818" stroke-dasharray="5 5" stroke-width=".5"/><rect fill="#e2e2f0" height="30.2969" rx="2.5" stroke="#181818" stroke-width=".5" width="159" x="5" y="36"/><text font-family="sans-serif" font-size="14" lengthAdjust="spacing" textLength="145" x="12" y="55.9951">Propagation Service</text><rect fill="#e2e2f0" height="30.2969" rx="2.5" stroke="#181818" stroke-width=".5" width="159" x="5" y="228.8281"/><text font-family="sans-serif" font-size="14" lengthAdjust="spacing" textLength="145" x="12" y="248.8232">Propagation Service</text><text font-family="sans-serif" font-size="14" lengthAdjust="spacing" textLength="61" x="279" y="63.9951">Tx Store</text><path d="m294.5 15c0-10 18-10 18-10s18 0 18 10v26c0 10-18 10-18 10s-18 0-18-10z" fill="#e2e2f0" stroke="#181818" stroke-width="1.5"/><path d="m294.5 15c0 10 18 10 18 10s18 0 18-10" fill="none" stroke="#181818" stroke-width="1.5"/><text font-family="sans-serif" font-size="14" lengthAdjust="spacing" textLength="61" x="279" y="241.8232">Tx Store</text><g stroke="#181818"><path d="m294.5 255.125c0-10 18-10 18-10s18 0 18 10v26c0 10-18 10-18 10s-18 0-18-10z" fill="#e2e2f0" stroke-width="1.5"/><path d="m294.5 255.125c0 10 18 10 18 10s18 0 18-10" fill="none" stroke-width="1.5"/><path d="m79.5 106.4297h10v105.3984h-10z" fill="#fff"/><path d="m84.5 148.5625h10v63.2656h-10z" fill="#fff"/><path d="m307.5 182.6953h10v29.1328h-10z" fill="#fff"/><path d="m84.5 93.4297h47"/><path d="m131.5 93.4297v13"/><path d="m90.5 106.4297h41"/><path d="m100.5 102.4297-10 4 10 4-4-4z" fill="#181818"/></g><text font-family="sans-serif" font-size="13" lengthAdjust="spacing" textLength="156" x="96.5" y="88.3638">ProcessTransaction(req)</text><path d="m89.5 135.5625h47" stroke="#181818"/><path d="m136.5 135.5625v13" stroke="#181818"/><path d="m95.5 148.5625h41" stroke="#181818"/><path d="m105.5 144.5625-10 4 10 4-4-4z" fill="#181818" stroke="#181818"/><text font-family="sans-serif" font-size="13" lengthAdjust="spacing" textLength="147" x="101.5" y="130.4966">storeTransaction(btTx)</text><path d="m295.5 178.6953 10 4-10 4 4-4z" fill="#181818" stroke="#181818"/><path d="m94.5 182.6953h207" stroke="#181818"/><text font-family="sans-serif" font-size="13" lengthAdjust="spacing" textLength="194" x="101.5" y="177.6294">Set(txHash, txExtendedBytes)</text><path d="m95.5 207.8281-10 4 10 4-4-4z" fill="#181818" stroke="#181818"/><path d="m89.5 211.8281h222" stroke="#181818" stroke-dasharray="2 2"/><text font-family="sans-serif" font-size="13" lengthAdjust="spacing" textLength="110" x="101.5" y="206.7622">Acknowledge Set</text></svg>
