<svg contentStyleType="text/css" height="312" preserveAspectRatio="none" viewBox="0 0 333 312" width="333" xmlns="http://www.w3.org/2000/svg" zoomAndPan="magnify"><path d="m75 106.7988h10v105.9316h-10z" fill="#fff" stroke="#181818"/><path d="m80 149.1094h10v63.6211h-10z" fill="#fff" stroke="#181818"/><path d="m293 183.4199h10v29.3105h-10z" fill="#fff" stroke="#181818"/><path d="m80 67.4883v163.2422" stroke="#181818" stroke-dasharray="5 5" stroke-width=".5"/><path d="m298 67.4883v163.2422" stroke="#181818" stroke-dasharray="5 5" stroke-width=".5"/><rect fill="#e2e2f0" height="30.4883" rx="2.5" stroke="#181818" stroke-width=".5" width="150" x="5" y="36"/><text font-family="sans-serif" font-size="14" lengthAdjust="spacing" textLength="136" x="12" y="56.5352">Propagation Service</text><rect fill="#e2e2f0" height="30.4883" rx="2.5" stroke="#181818" stroke-width=".5" width="150" x="5" y="229.7305"/><text font-family="sans-serif" font-size="14" lengthAdjust="spacing" textLength="136" x="12" y="250.2656">Propagation Service</text><text font-family="sans-serif" font-size="14" lengthAdjust="spacing" textLength="58" x="266" y="64.5352">Tx Store</text><path d="m280 15c0-10 18-10 18-10s18 0 18 10v26c0 10-18 10-18 10s-18 0-18-10z" fill="#e2e2f0" stroke="#181818" stroke-width="1.5"/><path d="m280 15c0 10 18 10 18 10s18 0 18-10" fill="none" stroke="#181818" stroke-width="1.5"/><text font-family="sans-serif" font-size="14" lengthAdjust="spacing" textLength="58" x="266" y="243.2656">Tx Store</text><g stroke="#181818"><path d="m280 256.2188c0-10 18-10 18-10s18 0 18 10v26c0 10-18 10-18 10s-18 0-18-10z" fill="#e2e2f0" stroke-width="1.5"/><path d="m280 256.2188c0 10 18 10 18 10s18 0 18-10" fill="none" stroke-width="1.5"/><path d="m75 106.7988h10v105.9316h-10z" fill="#fff"/><path d="m80 149.1094h10v63.6211h-10z" fill="#fff"/><path d="m293 183.4199h10v29.3105h-10z" fill="#fff"/><path d="m80 93.7988h47"/><path d="m127 93.7988v13"/><path d="m86 106.7988h41"/><path d="m96 102.7988-10 4 10 4-4-4z" fill="#181818"/></g><text font-family="sans-serif" font-size="13" lengthAdjust="spacing" textLength="150" x="92" y="89.0566">ProcessTransaction(req)</text><path d="m85 136.1094h47" stroke="#181818"/><path d="m132 136.1094v13" stroke="#181818"/><path d="m91 149.1094h41" stroke="#181818"/><path d="m101 145.1094-10 4 10 4-4-4z" fill="#181818" stroke="#181818"/><text font-family="sans-serif" font-size="13" lengthAdjust="spacing" textLength="143" x="97" y="131.3672">storeTransaction(btTx)</text><path d="m281 179.4199 10 4-10 4 4-4z" fill="#181818" stroke="#181818"/><path d="m90 183.4199h197" stroke="#181818"/><text font-family="sans-serif" font-size="13" lengthAdjust="spacing" textLength="184" x="97" y="178.6777">Set(txHash, txExtendedBytes)</text><path d="m91 208.7305-10 4 10 4-4-4z" fill="#181818" stroke="#181818"/><path d="m85 212.7305h212" stroke="#181818" stroke-dasharray="2 2"/><text font-family="sans-serif" font-size="13" lengthAdjust="spacing" textLength="107" x="97" y="207.9883">Acknowledge Set</text><text fill="#888" font-family="sans-serif" font-size="10" lengthAdjust="spacing" textLength="149" y="302.8867">Last Modified On: 6-Dec-2023</text></svg>
