<svg contentStyleType="text/css" height="335" preserveAspectRatio="none" viewBox="0 0 665 335" width="665" xmlns="http://www.w3.org/2000/svg" zoomAndPan="magnify"><rect fill="#f1f1f1" height="71.5547" rx="2.5" stroke="#181818" stroke-width=".5" width="133" x="7" y="7"/><ellipse cx="22" cy="23" fill="#add1b2" rx="11" ry="11" stroke="#181818"/><path d="m24.9731 28.6431q-.581.2988-1.2202.4482-.6391.1494-1.3447.1494-2.5068 0-3.8267-1.6518-1.3198-1.6519-1.3198-4.773 0-3.1294 1.3198-4.7812 1.3199-1.6519 3.8267-1.6519.7056 0 1.353.1494.6475.1494 1.2119.4483v2.7226q-.6308-.581-1.2243-.8508-.5935-.2698-1.2244-.2698-1.3447 0-2.0295 1.0667-.6848 1.0666-.6848 3.1667 0 2.0918.6848 3.1585.6848 1.0666 2.0295 1.0666.6309 0 1.2244-.2698.5935-.2697 1.2243-.8508z"/><text font-family="sans-serif" font-size="14" lengthAdjust="spacing" textLength="101" x="36" y="28.291">BlockAssembly</text><path d="m8 39h131" stroke="#181818" stroke-width=".5"/><text fill="#808080" font-family="sans-serif" font-size="10" font-style="italic" lengthAdjust="spacing" textLength="106" x="13" y="52.668">This will push subtree</text><text fill="#808080" font-family="sans-serif" font-size="10" font-style="italic" lengthAdjust="spacing" textLength="118" x="13" y="64.4453">to the shared filesystem</text><path d="m8 70.5547h131" stroke="#181818" stroke-width=".5"/><rect fill="#f1f1f1" height="48" rx="2.5" stroke="#181818" stroke-width=".5" width="137" x="175" y="18.77"/><ellipse cx="190" cy="34.77" fill="#add1b2" rx="11" ry="11" stroke="#181818"/><path d="m192.9731 40.4131q-.581.2988-1.2202.4482-.6391.1494-1.3447.1494-2.5068 0-3.8267-1.6518-1.3198-1.6519-1.3198-4.773 0-3.1294 1.3198-4.7812 1.3199-1.6519 3.8267-1.6519.7056 0 1.353.1494.6475.1494 1.2119.4483v2.7226q-.6308-.581-1.2243-.8508-.5935-.2698-1.2244-.2698-1.3447 0-2.0295 1.0667-.6848 1.0666-.6848 3.1667 0 2.0918.6848 3.1585.6848 1.0666 2.0295 1.0666.6309 0 1.2244-.2698.5935-.2697 1.2243-.8508z"/><text font-family="sans-serif" font-size="14" lengthAdjust="spacing" textLength="105" x="204" y="40.061">BlockValidation</text><g stroke="#181818"><path d="m176 50.77h135" stroke-width=".5"/><path d="m176 58.77h135" stroke-width=".5"/><rect fill="#f1f1f1" height="71.5547" rx="2.5" stroke-width=".5" width="159" x="347" y="7"/><ellipse cx="362" cy="23" fill="#add1b2" rx="11" ry="11"/></g><path d="m364.9731 28.6431q-.581.2988-1.2202.4482-.6391.1494-1.3447.1494-2.5068 0-3.8267-1.6518-1.3198-1.6519-1.3198-4.773 0-3.1294 1.3198-4.7812 1.3199-1.6519 3.8267-1.6519.7056 0 1.353.1494.6475.1494 1.2119.4483v2.7226q-.6308-.581-1.2243-.8508-.5935-.2698-1.2244-.2698-1.3447 0-2.0295 1.0667-.6848 1.0666-.6848 3.1667 0 2.0918.6848 3.1585.6848 1.0666 2.0295 1.0666.6309 0 1.2244-.2698.5935-.2697 1.2243-.8508z"/><text font-family="sans-serif" font-size="14" lengthAdjust="spacing" textLength="127" x="376" y="28.291">SubtreetValidation</text><path d="m348 39h157" stroke="#181818" stroke-width=".5"/><text fill="#808080" font-family="sans-serif" font-size="10" font-style="italic" lengthAdjust="spacing" textLength="111" x="353" y="52.668">This will push subtrees</text><text fill="#808080" font-family="sans-serif" font-size="10" font-style="italic" lengthAdjust="spacing" textLength="118" x="353" y="64.4453">to the shared filesystem</text><path d="m348 70.5547h157" stroke="#181818" stroke-width=".5"/><rect fill="#f1f1f1" height="48" rx="2.5" stroke="#181818" stroke-width=".5" width="117" x="541" y="18.77"/><ellipse cx="556" cy="34.77" fill="#add1b2" rx="11" ry="11" stroke="#181818"/><path d="m558.9731 40.4131q-.581.2988-1.2202.4482-.6391.1494-1.3447.1494-2.5068 0-3.8267-1.6518-1.3198-1.6519-1.3198-4.773 0-3.1294 1.3198-4.7812 1.3199-1.6519 3.8267-1.6519.7056 0 1.353.1494.6475.1494 1.2119.4483v2.7226q-.6308-.581-1.2243-.8508-.5935-.2698-1.2244-.2698-1.3447 0-2.0295 1.0667-.6848 1.0666-.6848 3.1667 0 2.0918.6848 3.1585.6848 1.0666 2.0295 1.0666.6309 0 1.2244-.2698.5935-.2697 1.2243-.8508z"/><text font-family="sans-serif" font-size="14" lengthAdjust="spacing" textLength="85" x="570" y="40.061">AssetService</text><path d="m542 50.77h115" stroke="#181818" stroke-width=".5"/><path d="m542 58.77h115" stroke="#181818" stroke-width=".5"/><rect fill="#f1f1f1" height="48" rx="2.5" stroke="#181818" stroke-width=".5" width="90" x="289.5" y="155.55"/><ellipse cx="304.5" cy="171.55" fill="#add1b2" rx="11" ry="11" stroke="#181818"/><path d="m307.4731 177.1931q-.581.2988-1.2202.4482-.6391.1494-1.3447.1494-2.5068 0-3.8267-1.6518-1.3198-1.6519-1.3198-4.773 0-3.1294 1.3198-4.7812 1.3199-1.6519 3.8267-1.6519.7056 0 1.353.1494.6475.1494 1.2119.4483v2.7226q-.6308-.581-1.2243-.8508-.5935-.2698-1.2244-.2698-1.3447 0-2.0295 1.0667-.6848 1.0666-.6848 3.1667 0 2.0918.6848 3.1585.6848 1.0666 2.0295 1.0666.6309 0 1.2244-.2698.5935-.2697 1.2243-.8508z"/><text font-family="sans-serif" font-size="14" lengthAdjust="spacing" textLength="58" x="318.5" y="176.841">LustreFS</text><path d="m290.5 187.55h88" stroke="#181818" stroke-width=".5"/><path d="m290.5 195.55h88" stroke="#181818" stroke-width=".5"/><rect fill="#f1f1f1" height="48" rx="2.5" stroke="#181818" stroke-width=".5" width="49" x="310" y="280.55"/><ellipse cx="325" cy="296.55" fill="#add1b2" rx="11" ry="11" stroke="#181818"/><path d="m327.9731 302.1931q-.581.2988-1.2202.4482-.6391.1494-1.3447.1494-2.5068 0-3.8267-1.6518-1.3198-1.6519-1.3198-4.773 0-3.1294 1.3198-4.7812 1.3199-1.6519 3.8267-1.6519.7056 0 1.353.1494.6475.1494 1.2119.4483v2.7226q-.6308-.581-1.2243-.8508-.5935-.2698-1.2244-.2698-1.3447 0-2.0295 1.0667-.6848 1.0666-.6848 3.1667 0 2.0918.6848 3.1585.6848 1.0666 2.0295 1.0666.6309 0 1.2244-.2698.5935-.2697 1.2243-.8508z"/><text font-family="sans-serif" font-size="14" lengthAdjust="spacing" textLength="17" x="339" y="301.841">S3</text><path d="m311 312.55h47" stroke="#181818" stroke-width=".5"/><path d="m311 320.55h47" stroke="#181818" stroke-width=".5"/><path d="m109.58 78.76c18.05 16 40.91 34.17 63.92 46.79 36.76 20.17 82.49 34.31 115.8 42.88" fill="none" stroke="#181818"/><path d="m182.974 119.4376-6.7815-6.668-2.6242 5.2595z" stroke="#000"/><text font-family="sans-serif" font-size="13" lengthAdjust="spacing" textLength="81" x="187.5" y="122.1184">subtrees TTL</text><path d="m254.28 67.17c8.18 16.83 20.21 39.74 33.22 58.38 7.18 10.29 16.1 20.79 24.23 29.7" fill="none" stroke="#181818"/><path d="m289.7684 113.0174 2.4799 9.1815 4.9232-3.2111z" stroke="#000"/><text font-family="sans-serif" font-size="13" lengthAdjust="spacing" textLength="81" x="301.5" y="122.1184">subtrees TTL</text><path d="m412.84 79.04c-6.59 14.98-15.26 32.25-25.34 46.51-7.43 10.52-17.05 20.83-26.04 29.52" fill="none" stroke="#181818"/><path d="m399.7004 121.348 7.4996-5.8487-4.8701-3.2911z" stroke="#000"/><text font-family="sans-serif" font-size="13" lengthAdjust="spacing" textLength="81" x="411.5" y="122.1184">subtrees TTL</text><path d="m576.87 67.11c-18.73 18.14-46.8 42.78-75.37 58.44-38.68 21.2-87.12 35.39-121.85 43.7" fill="none" stroke="#181818"/><path d="m536.9399 114.9059-9.3834 1.5499 2.7031 5.2194z" stroke="#000"/><text font-family="sans-serif" font-size="13" lengthAdjust="spacing" textLength="81" x="541.5" y="122.1184">subtrees TTL</text><path d="m334.5 203.97v76.24" fill="none" stroke="#181818"/><path d="m339.5 247.2053 2.9389-9.0451h-5.8778z" stroke="#000"/><text font-family="sans-serif" font-size="13" lengthAdjust="spacing" textLength="121" x="348.5" y="247.1184">subtrees (non-TTL)</text></svg>
