<?xml version="1.0" encoding="us-ascii" standalone="no"?><svg xmlns="http://www.w3.org/2000/svg" xmlns:xlink="http://www.w3.org/1999/xlink" contentStyleType="text/css" height="335px" preserveAspectRatio="none" style="width:854px;height:335px;background:#FFFFFF;" version="1.1" viewBox="0 0 854 335" width="854px" zoomAndPan="magnify"><defs/><g><!--class BlockAssembly--><g id="elem_BlockAssembly"><rect codeLine="3" fill="#F1F1F1" height="71.5547" id="BlockAssembly" rx="2.5" ry="2.5" style="stroke:#181818;stroke-width:0.5;" width="133" x="7" y="7"/><ellipse cx="22" cy="23" fill="#ADD1B2" rx="11" ry="11" style="stroke:#181818;stroke-width:1.0;"/><path d="M24.9731,28.6431 Q24.3921,28.9419 23.7529,29.0913 Q23.1138,29.2407 22.4082,29.2407 Q19.9014,29.2407 18.5815,27.5889 Q17.2617,25.937 17.2617,22.8159 Q17.2617,19.6865 18.5815,18.0347 Q19.9014,16.3828 22.4082,16.3828 Q23.1138,16.3828 23.7612,16.5322 Q24.4087,16.6816 24.9731,16.9805 L24.9731,19.7031 Q24.3423,19.1221 23.7488,18.8523 Q23.1553,18.5825 22.5244,18.5825 Q21.1797,18.5825 20.4949,19.6492 Q19.8101,20.7158 19.8101,22.8159 Q19.8101,24.9077 20.4949,25.9744 Q21.1797,27.041 22.5244,27.041 Q23.1553,27.041 23.7488,26.7712 Q24.3423,26.5015 24.9731,25.9204 Z " fill="#000000"/><text fill="#000000" font-family="sans-serif" font-size="14" lengthAdjust="spacing" textLength="101" x="36" y="28.291">BlockAssembly</text><line style="stroke:#181818;stroke-width:0.5;" x1="8" x2="139" y1="39" y2="39"/><text fill="#808080" font-family="sans-serif" font-size="10" font-style="italic" lengthAdjust="spacing" textLength="106" x="13" y="52.668">This will push subtree</text><text fill="#808080" font-family="sans-serif" font-size="10" font-style="italic" lengthAdjust="spacing" textLength="118" x="13" y="64.4453">to the shared filesystem</text><line style="stroke:#181818;stroke-width:0.5;" x1="8" x2="139" y1="70.5547" y2="70.5547"/></g><!--class BlockValidation--><g id="elem_BlockValidation"><rect codeLine="8" fill="#F1F1F1" height="48" id="BlockValidation" rx="2.5" ry="2.5" style="stroke:#181818;stroke-width:0.5;" width="137" x="175" y="18.77"/><ellipse cx="190" cy="34.77" fill="#ADD1B2" rx="11" ry="11" style="stroke:#181818;stroke-width:1.0;"/><path d="M192.9731,40.4131 Q192.3921,40.7119 191.7529,40.8613 Q191.1138,41.0107 190.4082,41.0107 Q187.9014,41.0107 186.5815,39.3589 Q185.2617,37.707 185.2617,34.5859 Q185.2617,31.4565 186.5815,29.8047 Q187.9014,28.1528 190.4082,28.1528 Q191.1138,28.1528 191.7612,28.3022 Q192.4087,28.4516 192.9731,28.7505 L192.9731,31.4731 Q192.3423,30.8921 191.7488,30.6223 Q191.1553,30.3525 190.5244,30.3525 Q189.1797,30.3525 188.4949,31.4192 Q187.8101,32.4858 187.8101,34.5859 Q187.8101,36.6777 188.4949,37.7444 Q189.1797,38.811 190.5244,38.811 Q191.1553,38.811 191.7488,38.5412 Q192.3423,38.2715 192.9731,37.6904 Z " fill="#000000"/><text fill="#000000" font-family="sans-serif" font-size="14" lengthAdjust="spacing" textLength="105" x="204" y="40.061">BlockValidation</text><line style="stroke:#181818;stroke-width:0.5;" x1="176" x2="311" y1="50.77" y2="50.77"/><line style="stroke:#181818;stroke-width:0.5;" x1="176" x2="311" y1="58.77" y2="58.77"/></g><!--class SubtreetValidation--><g id="elem_SubtreetValidation"><rect codeLine="11" fill="#F1F1F1" height="71.5547" id="SubtreetValidation" rx="2.5" ry="2.5" style="stroke:#181818;stroke-width:0.5;" width="159" x="688" y="7"/><ellipse cx="703" cy="23" fill="#ADD1B2" rx="11" ry="11" style="stroke:#181818;stroke-width:1.0;"/><path d="M705.9731,28.6431 Q705.3921,28.9419 704.7529,29.0913 Q704.1138,29.2407 703.4082,29.2407 Q700.9014,29.2407 699.5815,27.5889 Q698.2617,25.937 698.2617,22.8159 Q698.2617,19.6865 699.5815,18.0347 Q700.9014,16.3828 703.4082,16.3828 Q704.1138,16.3828 704.7612,16.5322 Q705.4087,16.6816 705.9731,16.9805 L705.9731,19.7031 Q705.3423,19.1221 704.7488,18.8523 Q704.1553,18.5825 703.5244,18.5825 Q702.1797,18.5825 701.4949,19.6492 Q700.8101,20.7158 700.8101,22.8159 Q700.8101,24.9077 701.4949,25.9744 Q702.1797,27.041 703.5244,27.041 Q704.1553,27.041 704.7488,26.7712 Q705.3423,26.5015 705.9731,25.9204 Z " fill="#000000"/><text fill="#000000" font-family="sans-serif" font-size="14" lengthAdjust="spacing" textLength="127" x="717" y="28.291">SubtreetValidation</text><line style="stroke:#181818;stroke-width:0.5;" x1="689" x2="846" y1="39" y2="39"/><text fill="#808080" font-family="sans-serif" font-size="10" font-style="italic" lengthAdjust="spacing" textLength="111" x="694" y="52.668">This will push subtrees</text><text fill="#808080" font-family="sans-serif" font-size="10" font-style="italic" lengthAdjust="spacing" textLength="118" x="694" y="64.4453">to the shared filesystem</text><line style="stroke:#181818;stroke-width:0.5;" x1="689" x2="846" y1="70.5547" y2="70.5547"/></g><!--class AssetService--><g id="elem_AssetService"><rect codeLine="16" fill="#F1F1F1" height="48" id="AssetService" rx="2.5" ry="2.5" style="stroke:#181818;stroke-width:0.5;" width="117" x="347" y="18.77"/><ellipse cx="362" cy="34.77" fill="#ADD1B2" rx="11" ry="11" style="stroke:#181818;stroke-width:1.0;"/><path d="M364.9731,40.4131 Q364.3921,40.7119 363.7529,40.8613 Q363.1138,41.0107 362.4082,41.0107 Q359.9014,41.0107 358.5815,39.3589 Q357.2617,37.707 357.2617,34.5859 Q357.2617,31.4565 358.5815,29.8047 Q359.9014,28.1528 362.4082,28.1528 Q363.1138,28.1528 363.7612,28.3022 Q364.4087,28.4516 364.9731,28.7505 L364.9731,31.4731 Q364.3423,30.8921 363.7488,30.6223 Q363.1553,30.3525 362.5244,30.3525 Q361.1797,30.3525 360.4949,31.4192 Q359.8101,32.4858 359.8101,34.5859 Q359.8101,36.6777 360.4949,37.7444 Q361.1797,38.811 362.5244,38.811 Q363.1553,38.811 363.7488,38.5412 Q364.3423,38.2715 364.9731,37.6904 Z " fill="#000000"/><text fill="#000000" font-family="sans-serif" font-size="14" lengthAdjust="spacing" textLength="85" x="376" y="40.061">AssetService</text><line style="stroke:#181818;stroke-width:0.5;" x1="348" x2="463" y1="50.77" y2="50.77"/><line style="stroke:#181818;stroke-width:0.5;" x1="348" x2="463" y1="58.77" y2="58.77"/></g><!--class LustreFS--><g id="elem_LustreFS"><rect codeLine="19" fill="#F1F1F1" height="48" id="LustreFS" rx="2.5" ry="2.5" style="stroke:#181818;stroke-width:0.5;" width="90" x="279.5" y="155.55"/><ellipse cx="294.5" cy="171.55" fill="#ADD1B2" rx="11" ry="11" style="stroke:#181818;stroke-width:1.0;"/><path d="M297.4731,177.1931 Q296.8921,177.4919 296.2529,177.6413 Q295.6138,177.7907 294.9082,177.7907 Q292.4014,177.7907 291.0815,176.1389 Q289.7617,174.487 289.7617,171.3659 Q289.7617,168.2365 291.0815,166.5847 Q292.4014,164.9328 294.9082,164.9328 Q295.6138,164.9328 296.2612,165.0822 Q296.9087,165.2316 297.4731,165.5305 L297.4731,168.2531 Q296.8423,167.6721 296.2488,167.4023 Q295.6553,167.1325 295.0244,167.1325 Q293.6797,167.1325 292.9949,168.1992 Q292.3101,169.2658 292.3101,171.3659 Q292.3101,173.4577 292.9949,174.5244 Q293.6797,175.591 295.0244,175.591 Q295.6553,175.591 296.2488,175.3212 Q296.8423,175.0515 297.4731,174.4704 Z " fill="#000000"/><text fill="#000000" font-family="sans-serif" font-size="14" lengthAdjust="spacing" textLength="58" x="308.5" y="176.841">LustreFS</text><line style="stroke:#181818;stroke-width:0.5;" x1="280.5" x2="368.5" y1="187.55" y2="187.55"/><line style="stroke:#181818;stroke-width:0.5;" x1="280.5" x2="368.5" y1="195.55" y2="195.55"/></g><!--class S3--><g id="elem_S3"><rect codeLine="22" fill="#F1F1F1" height="48" id="S3" rx="2.5" ry="2.5" style="stroke:#181818;stroke-width:0.5;" width="49" x="300" y="280.55"/><ellipse cx="315" cy="296.55" fill="#ADD1B2" rx="11" ry="11" style="stroke:#181818;stroke-width:1.0;"/><path d="M317.9731,302.1931 Q317.3921,302.4919 316.7529,302.6413 Q316.1138,302.7907 315.4082,302.7907 Q312.9014,302.7907 311.5815,301.1389 Q310.2617,299.487 310.2617,296.3659 Q310.2617,293.2365 311.5815,291.5847 Q312.9014,289.9328 315.4082,289.9328 Q316.1138,289.9328 316.7612,290.0822 Q317.4087,290.2316 317.9731,290.5305 L317.9731,293.2531 Q317.3423,292.6721 316.7488,292.4023 Q316.1553,292.1325 315.5244,292.1325 Q314.1797,292.1325 313.4949,293.1992 Q312.8101,294.2658 312.8101,296.3659 Q312.8101,298.4577 313.4949,299.5244 Q314.1797,300.591 315.5244,300.591 Q316.1553,300.591 316.7488,300.3212 Q317.3423,300.0515 317.9731,299.4704 Z " fill="#000000"/><text fill="#000000" font-family="sans-serif" font-size="14" lengthAdjust="spacing" textLength="17" x="329" y="301.841">S3</text><line style="stroke:#181818;stroke-width:0.5;" x1="301" x2="348" y1="312.55" y2="312.55"/><line style="stroke:#181818;stroke-width:0.5;" x1="301" x2="348" y1="320.55" y2="320.55"/></g><!--class SubtreeValidation--><g id="elem_SubtreeValidation"><rect fill="#F1F1F1" height="48" id="SubtreeValidation" rx="2.5" ry="2.5" style="stroke:#181818;stroke-width:0.5;" width="154" x="499.5" y="18.77"/><ellipse cx="514.5" cy="34.77" fill="#ADD1B2" rx="11" ry="11" style="stroke:#181818;stroke-width:1.0;"/><path d="M517.4731,40.4131 Q516.8921,40.7119 516.2529,40.8613 Q515.6138,41.0107 514.9082,41.0107 Q512.4014,41.0107 511.0815,39.3589 Q509.7617,37.707 509.7617,34.5859 Q509.7617,31.4565 511.0815,29.8047 Q512.4014,28.1528 514.9082,28.1528 Q515.6138,28.1528 516.2612,28.3022 Q516.9087,28.4516 517.4731,28.7505 L517.4731,31.4731 Q516.8423,30.8921 516.2488,30.6223 Q515.6553,30.3525 515.0244,30.3525 Q513.6797,30.3525 512.9949,31.4192 Q512.3101,32.4858 512.3101,34.5859 Q512.3101,36.6777 512.9949,37.7444 Q513.6797,38.811 515.0244,38.811 Q515.6553,38.811 516.2488,38.5412 Q516.8423,38.2715 517.4731,37.6904 Z " fill="#000000"/><text fill="#000000" font-family="sans-serif" font-size="14" lengthAdjust="spacing" textLength="122" x="528.5" y="40.061">SubtreeValidation</text><line style="stroke:#181818;stroke-width:0.5;" x1="500.5" x2="652.5" y1="50.77" y2="50.77"/><line style="stroke:#181818;stroke-width:0.5;" x1="500.5" x2="652.5" y1="58.77" y2="58.77"/></g><!--link BlockAssembly to LustreFS--><g id="link_BlockAssembly_LustreFS"><path codeLine="24" d="M100.74,78.79 C114.94,95 133.5,113.33 153.5,125.55 C192.49,149.37 243.08,163.31 279.1,170.86 " fill="none" id="BlockAssembly-LustreFS" style="stroke:#181818;stroke-width:1.0;"/><polygon fill="#000000" points="162.943,119.4987,156.2536,112.7383,153.5575,117.9613,162.943,119.4987" style="stroke:#000000;stroke-width:1.0;"/><text fill="#000000" font-family="sans-serif" font-size="13" lengthAdjust="spacing" textLength="81" x="167.5" y="122.1184">subtrees TTL</text></g><!--link BlockValidation to LustreFS--><g id="link_BlockValidation_LustreFS"><path codeLine="25" d="M246.52,67.01 C249.56,84.18 255.44,107.6 266.5,125.55 C273.3,136.58 283.04,146.72 292.6,155.12 " fill="none" id="BlockValidation-LustreFS" style="stroke:#181818;stroke-width:1.0;"/><polygon fill="#000000" points="269.1828,112.7746,270.7703,122.1517,275.9789,119.4278,269.1828,112.7746" style="stroke:#000000;stroke-width:1.0;"/><text fill="#000000" font-family="sans-serif" font-size="13" lengthAdjust="spacing" textLength="81" x="280.5" y="122.1184">subtrees TTL</text></g><!--link SubtreeValidation to LustreFS--><g id="link_SubtreeValidation_LustreFS"><path codeLine="26" d="M553.76,66.92 C534.98,84.96 506.87,109.55 478.5,125.55 C444.14,144.92 401.5,158.92 369.8,167.65 " fill="none" id="SubtreeValidation-LustreFS" style="stroke:#181818;stroke-width:1.0;"/><polygon fill="#000000" points="502.1144,119.6067,511.4595,117.8403,508.6365,112.6847,502.1144,119.6067" style="stroke:#000000;stroke-width:1.0;"/><text fill="#000000" font-family="sans-serif" font-size="13" lengthAdjust="spacing" textLength="81" x="515.5" y="122.1184">subtrees TTL</text></g><!--link AssetService to LustreFS--><g id="link_AssetService_LustreFS"><path codeLine="27" d="M396.06,67.06 C388.87,83.83 378.23,106.73 366.5,125.55 C360.16,135.71 352.21,146.19 344.93,155.12 " fill="none" id="AssetService-LustreFS" style="stroke:#181818;stroke-width:1.0;"/><polygon fill="#000000" points="382.0106,112.8813,374.9273,119.2277,380.0104,122.1792,382.0106,112.8813" style="stroke:#000000;stroke-width:1.0;"/><text fill="#000000" font-family="sans-serif" font-size="13" lengthAdjust="spacing" textLength="81" x="388.5" y="122.1184">subtrees TTL</text></g><!--link LustreFS to S3--><g id="link_LustreFS_S3"><path codeLine="28" d="M324.5,203.97 C324.5,225.86 324.5,258.35 324.5,280.21 " fill="none" id="LustreFS-S3" style="stroke:#181818;stroke-width:1.0;"/><polygon fill="#000000" points="329.5,247.2053,332.4389,238.1602,326.5611,238.1602,329.5,247.2053" style="stroke:#000000;stroke-width:1.0;"/><text fill="#000000" font-family="sans-serif" font-size="13" lengthAdjust="spacing" textLength="121" x="338.5" y="247.1184">subtrees (non-TTL)</text></g><!--SRC=[jP4nJyCm48Lt_uh71aCKAhR8ibHGwH8na8WzJQxaX1iZdmCA5VyT5r1BMYc2WVNUvxltdiyQMdD7k5_SbFExPRv0RIiHfGw3Q-lgfxa8RLPsm5O1kdRM-UpHqs0q6otyHjdiqfGj2rxPMZptqaBwLV14EjtfHgUHJ3zVceaTmI6q16ahJmtMR4a62RHHxoUU7YhBJHNOTT7LI2w-BeSH0VpLkVo7zLsJeI3_mZKT-yvxYNTlYvCyLzZ6mVWdakJ0PtlBACiSHXqND05hzLtNxt2ZHWac5- -LICKCF_JppdL9X2vWFW00]--></g></svg>
