<?xml version="1.0" encoding="us-ascii" standalone="no"?><svg xmlns="http://www.w3.org/2000/svg" xmlns:xlink="http://www.w3.org/1999/xlink" contentStyleType="text/css" height="335px" preserveAspectRatio="none" style="width:471px;height:335px;background:#FFFFFF;" version="1.1" viewBox="0 0 471 335" width="471px" zoomAndPan="magnify"><defs/><g><!--class BlockAssembly--><g id="elem_BlockAssembly"><rect codeLine="3" fill="#F1F1F1" height="71.5547" id="BlockAssembly" rx="2.5" ry="2.5" style="stroke:#181818;stroke-width:0.5;" width="133" x="7" y="7"/><ellipse cx="22" cy="23" fill="#ADD1B2" rx="11" ry="11" style="stroke:#181818;stroke-width:1.0;"/><path d="M24.9731,28.6431 Q24.3921,28.9419 23.7529,29.0913 Q23.1138,29.2407 22.4082,29.2407 Q19.9014,29.2407 18.5815,27.5889 Q17.2617,25.937 17.2617,22.8159 Q17.2617,19.6865 18.5815,18.0347 Q19.9014,16.3828 22.4082,16.3828 Q23.1138,16.3828 23.7612,16.5322 Q24.4087,16.6816 24.9731,16.9805 L24.9731,19.7031 Q24.3423,19.1221 23.7488,18.8523 Q23.1553,18.5825 22.5244,18.5825 Q21.1797,18.5825 20.4949,19.6492 Q19.8101,20.7158 19.8101,22.8159 Q19.8101,24.9077 20.4949,25.9744 Q21.1797,27.041 22.5244,27.041 Q23.1553,27.041 23.7488,26.7712 Q24.3423,26.5015 24.9731,25.9204 Z " fill="#000000"/><text fill="#000000" font-family="sans-serif" font-size="14" lengthAdjust="spacing" textLength="101" x="36" y="28.291">BlockAssembly</text><line style="stroke:#181818;stroke-width:0.5;" x1="8" x2="139" y1="39" y2="39"/><text fill="#808080" font-family="sans-serif" font-size="10" font-style="italic" lengthAdjust="spacing" textLength="106" x="13" y="52.668">This will push subtree</text><text fill="#808080" font-family="sans-serif" font-size="10" font-style="italic" lengthAdjust="spacing" textLength="118" x="13" y="64.4453">to the shared filesystem</text><line style="stroke:#181818;stroke-width:0.5;" x1="8" x2="139" y1="70.5547" y2="70.5547"/></g><!--class BlockValidation--><g id="elem_BlockValidation"><rect codeLine="8" fill="#F1F1F1" height="48" id="BlockValidation" rx="2.5" ry="2.5" style="stroke:#181818;stroke-width:0.5;" width="137" x="175" y="18.77"/><ellipse cx="190" cy="34.77" fill="#ADD1B2" rx="11" ry="11" style="stroke:#181818;stroke-width:1.0;"/><path d="M192.9731,40.4131 Q192.3921,40.7119 191.7529,40.8613 Q191.1138,41.0107 190.4082,41.0107 Q187.9014,41.0107 186.5815,39.3589 Q185.2617,37.707 185.2617,34.5859 Q185.2617,31.4565 186.5815,29.8047 Q187.9014,28.1528 190.4082,28.1528 Q191.1138,28.1528 191.7612,28.3022 Q192.4087,28.4516 192.9731,28.7505 L192.9731,31.4731 Q192.3423,30.8921 191.7488,30.6223 Q191.1553,30.3525 190.5244,30.3525 Q189.1797,30.3525 188.4949,31.4192 Q187.8101,32.4858 187.8101,34.5859 Q187.8101,36.6777 188.4949,37.7444 Q189.1797,38.811 190.5244,38.811 Q191.1553,38.811 191.7488,38.5412 Q192.3423,38.2715 192.9731,37.6904 Z " fill="#000000"/><text fill="#000000" font-family="sans-serif" font-size="14" lengthAdjust="spacing" textLength="105" x="204" y="40.061">BlockValidation</text><line style="stroke:#181818;stroke-width:0.5;" x1="176" x2="311" y1="50.77" y2="50.77"/><line style="stroke:#181818;stroke-width:0.5;" x1="176" x2="311" y1="58.77" y2="58.77"/></g><!--class AssetService--><g id="elem_AssetService"><rect codeLine="11" fill="#F1F1F1" height="48" id="AssetService" rx="2.5" ry="2.5" style="stroke:#181818;stroke-width:0.5;" width="117" x="347" y="18.77"/><ellipse cx="362" cy="34.77" fill="#ADD1B2" rx="11" ry="11" style="stroke:#181818;stroke-width:1.0;"/><path d="M364.9731,40.4131 Q364.3921,40.7119 363.7529,40.8613 Q363.1138,41.0107 362.4082,41.0107 Q359.9014,41.0107 358.5815,39.3589 Q357.2617,37.707 357.2617,34.5859 Q357.2617,31.4565 358.5815,29.8047 Q359.9014,28.1528 362.4082,28.1528 Q363.1138,28.1528 363.7612,28.3022 Q364.4087,28.4516 364.9731,28.7505 L364.9731,31.4731 Q364.3423,30.8921 363.7488,30.6223 Q363.1553,30.3525 362.5244,30.3525 Q361.1797,30.3525 360.4949,31.4192 Q359.8101,32.4858 359.8101,34.5859 Q359.8101,36.6777 360.4949,37.7444 Q361.1797,38.811 362.5244,38.811 Q363.1553,38.811 363.7488,38.5412 Q364.3423,38.2715 364.9731,37.6904 Z " fill="#000000"/><text fill="#000000" font-family="sans-serif" font-size="14" lengthAdjust="spacing" textLength="85" x="376" y="40.061">AssetService</text><line style="stroke:#181818;stroke-width:0.5;" x1="348" x2="463" y1="50.77" y2="50.77"/><line style="stroke:#181818;stroke-width:0.5;" x1="348" x2="463" y1="58.77" y2="58.77"/></g><!--class LustreFS--><g id="elem_LustreFS"><rect codeLine="14" fill="#F1F1F1" height="48" id="LustreFS" rx="2.5" ry="2.5" style="stroke:#181818;stroke-width:0.5;" width="90" x="198.5" y="155.55"/><ellipse cx="213.5" cy="171.55" fill="#ADD1B2" rx="11" ry="11" style="stroke:#181818;stroke-width:1.0;"/><path d="M216.4731,177.1931 Q215.8921,177.4919 215.2529,177.6413 Q214.6138,177.7907 213.9082,177.7907 Q211.4014,177.7907 210.0815,176.1389 Q208.7617,174.487 208.7617,171.3659 Q208.7617,168.2365 210.0815,166.5847 Q211.4014,164.9328 213.9082,164.9328 Q214.6138,164.9328 215.2612,165.0822 Q215.9087,165.2316 216.4731,165.5305 L216.4731,168.2531 Q215.8423,167.6721 215.2488,167.4023 Q214.6553,167.1325 214.0244,167.1325 Q212.6797,167.1325 211.9949,168.1992 Q211.3101,169.2658 211.3101,171.3659 Q211.3101,173.4577 211.9949,174.5244 Q212.6797,175.591 214.0244,175.591 Q214.6553,175.591 215.2488,175.3212 Q215.8423,175.0515 216.4731,174.4704 Z " fill="#000000"/><text fill="#000000" font-family="sans-serif" font-size="14" lengthAdjust="spacing" textLength="58" x="227.5" y="176.841">LustreFS</text><line style="stroke:#181818;stroke-width:0.5;" x1="199.5" x2="287.5" y1="187.55" y2="187.55"/><line style="stroke:#181818;stroke-width:0.5;" x1="199.5" x2="287.5" y1="195.55" y2="195.55"/></g><!--class S3--><g id="elem_S3"><rect codeLine="17" fill="#F1F1F1" height="48" id="S3" rx="2.5" ry="2.5" style="stroke:#181818;stroke-width:0.5;" width="49" x="219" y="280.55"/><ellipse cx="234" cy="296.55" fill="#ADD1B2" rx="11" ry="11" style="stroke:#181818;stroke-width:1.0;"/><path d="M236.9731,302.1931 Q236.3921,302.4919 235.7529,302.6413 Q235.1138,302.7907 234.4082,302.7907 Q231.9014,302.7907 230.5815,301.1389 Q229.2617,299.487 229.2617,296.3659 Q229.2617,293.2365 230.5815,291.5847 Q231.9014,289.9328 234.4082,289.9328 Q235.1138,289.9328 235.7612,290.0822 Q236.4087,290.2316 236.9731,290.5305 L236.9731,293.2531 Q236.3423,292.6721 235.7488,292.4023 Q235.1553,292.1325 234.5244,292.1325 Q233.1797,292.1325 232.4949,293.1992 Q231.8101,294.2658 231.8101,296.3659 Q231.8101,298.4577 232.4949,299.5244 Q233.1797,300.591 234.5244,300.591 Q235.1553,300.591 235.7488,300.3212 Q236.3423,300.0515 236.9731,299.4704 Z " fill="#000000"/><text fill="#000000" font-family="sans-serif" font-size="14" lengthAdjust="spacing" textLength="17" x="248" y="301.841">S3</text><line style="stroke:#181818;stroke-width:0.5;" x1="220" x2="267" y1="312.55" y2="312.55"/><line style="stroke:#181818;stroke-width:0.5;" x1="220" x2="267" y1="320.55" y2="320.55"/></g><!--link BlockAssembly to LustreFS--><g id="link_BlockAssembly_LustreFS"><path codeLine="19" d="M96.68,78.84 C108.23,94.49 123.21,112.33 139.5,125.55 C156.97,139.72 178.84,151.57 198.01,160.44 " fill="none" id="BlockAssembly-LustreFS" style="stroke:#181818;stroke-width:1.0;"/><polygon fill="#000000" points="148.3943,120.3413,143.1928,112.3792,139.5062,116.9572,148.3943,120.3413" style="stroke:#000000;stroke-width:1.0;"/><text fill="#000000" font-family="sans-serif" font-size="13" lengthAdjust="spacing" textLength="81" x="153.5" y="122.1184">subtrees TTL</text></g><!--link BlockValidation to LustreFS--><g id="link_BlockValidation_LustreFS"><path codeLine="20" d="M243.5,67.25 C243.5,91.99 243.5,130.71 243.5,155.34 " fill="none" id="BlockValidation-LustreFS" style="stroke:#181818;stroke-width:1.0;"/><text fill="#000000" font-family="sans-serif" font-size="13" lengthAdjust="spacing" textLength="81" x="244.5" y="122.1184">subtrees TTL</text></g><!--link AssetService to LustreFS--><g id="link_AssetService_LustreFS"><path codeLine="21" d="M388.6,67.12 C375.21,84.57 355.35,108.28 334.5,125.55 C320.7,136.98 304.13,147.42 288.93,155.96 " fill="none" id="AssetService-LustreFS" style="stroke:#181818;stroke-width:1.0;"/><polygon fill="#000000" points="360.2325,113.8783,351.5248,117.7029,355.4359,122.0907,360.2325,113.8783" style="stroke:#000000;stroke-width:1.0;"/><text fill="#000000" font-family="sans-serif" font-size="13" lengthAdjust="spacing" textLength="81" x="365.5" y="122.1184">subtrees TTL</text></g><!--link LustreFS to S3--><g id="link_LustreFS_S3"><path codeLine="22" d="M243.5,203.97 C243.5,225.86 243.5,258.35 243.5,280.21 " fill="none" id="LustreFS-S3" style="stroke:#181818;stroke-width:1.0;"/><polygon fill="#000000" points="248.5,247.2053,251.4389,238.1602,245.5611,238.1602,248.5,247.2053" style="stroke:#000000;stroke-width:1.0;"/><text fill="#000000" font-family="sans-serif" font-size="13" lengthAdjust="spacing" textLength="121" x="257.5" y="247.1184">subtrees (non-TTL)</text></g><!--SRC=[VOz1Ru9048Nl-ol6cpqGDDx8PXCqw8LuAAHtX44cBgpPMTgWyRztRT9QQEhrVMzUlfbLM5E7y9fiydY_InCeTS4in2DOQrEUOcPi3tg0gm2GfT76HaUBWvAa9DC5e-L2vGqnV93MSEwv0UuFpYBAyCwL37qp_BfKJpQS0TSWS5DOhA0cZJommrRS_ZYz5Pggmf7flDK8tsrTXlQTIfooj6TljSscURQ2gm_6tmR1enzzFyIGvoaeCPNulon6Gaz6fVWXlkMLVl5vPxh0brv0VG80]--></g></svg>
