<svg contentStyleType="text/css" height="540" preserveAspectRatio="none" viewBox="0 0 975 540" width="975" xmlns="http://www.w3.org/2000/svg" zoomAndPan="magnify"><g stroke="#181818"><path d="m512.5 83.1094h10v29.3105h-10z" fill="#fff"/><path d="m627.5 157.041h10v29.3105h-10z" fill="#fff"/><path d="m627.5 348.2148h10v29.3105h-10z" fill="#fff"/><path d="m739.5 230.9727h10v29.3105h-10z" fill="#fff"/><path d="m739.5 406.8359h10v29.3105h-10z" fill="#fff"/><path d="m884.5 289.5938h10v29.3105h-10z" fill="#fff"/><path d="m60 36.4883v452.9687" stroke-dasharray="5 5" stroke-width=".5"/><path d="m517.5 36.4883v452.9687" stroke-dasharray="5 5" stroke-width=".5"/><path d="m632.5 36.4883v452.9687" stroke-dasharray="5 5" stroke-width=".5"/><path d="m744.5 36.4883v452.9687" stroke-dasharray="5 5" stroke-width=".5"/><path d="m889.5 36.4883v452.9687" stroke-dasharray="5 5" stroke-width=".5"/><rect fill="#e2e2f0" height="30.4883" rx="2.5" stroke-width=".5" width="111" x="5" y="5"/></g><text font-family="sans-serif" font-size="14" lengthAdjust="spacing" textLength="97" x="12" y="25.5352">Main Function</text><rect fill="#e2e2f0" height="30.4883" rx="2.5" stroke="#181818" stroke-width=".5" width="111" x="5" y="488.457"/><text font-family="sans-serif" font-size="14" lengthAdjust="spacing" textLength="97" x="12" y="508.9922">Main Function</text><rect fill="#e2e2f0" height="30.4883" rx="2.5" stroke="#181818" stroke-width=".5" width="116" x="459.5" y="5"/><text font-family="sans-serif" font-size="14" lengthAdjust="spacing" textLength="102" x="466.5" y="25.5352">GoCore Config</text><rect fill="#e2e2f0" height="30.4883" rx="2.5" stroke="#181818" stroke-width=".5" width="116" x="459.5" y="488.457"/><text font-family="sans-serif" font-size="14" lengthAdjust="spacing" textLength="102" x="466.5" y="508.9922">GoCore Config</text><rect fill="#e2e2f0" height="30.4883" rx="2.5" stroke="#181818" stroke-width=".5" width="94" x="585.5" y="5"/><text font-family="sans-serif" font-size="14" lengthAdjust="spacing" textLength="80" x="592.5" y="25.5352">LibP2P Host</text><rect fill="#e2e2f0" height="30.4883" rx="2.5" stroke="#181818" stroke-width=".5" width="94" x="585.5" y="488.457"/><text font-family="sans-serif" font-size="14" lengthAdjust="spacing" textLength="80" x="592.5" y="508.9922">LibP2P Host</text><rect fill="#e2e2f0" height="30.4883" rx="2.5" stroke="#181818" stroke-width=".5" width="110" x="689.5" y="5"/><text font-family="sans-serif" font-size="14" lengthAdjust="spacing" textLength="96" x="696.5" y="25.5352">Kademlia DHT</text><rect fill="#e2e2f0" height="30.4883" rx="2.5" stroke="#181818" stroke-width=".5" width="110" x="689.5" y="488.457"/><text font-family="sans-serif" font-size="14" lengthAdjust="spacing" textLength="96" x="696.5" y="508.9922">Kademlia DHT</text><rect fill="#e2e2f0" height="30.4883" rx="2.5" stroke="#181818" stroke-width=".5" width="160" x="809.5" y="5"/><text font-family="sans-serif" font-size="14" lengthAdjust="spacing" textLength="146" x="816.5" y="25.5352">Private Network (PSK)</text><rect fill="#e2e2f0" height="30.4883" rx="2.5" stroke="#181818" stroke-width=".5" width="160" x="809.5" y="488.457"/><text font-family="sans-serif" font-size="14" lengthAdjust="spacing" textLength="146" x="816.5" y="508.9922">Private Network (PSK)</text><path d="m512.5 83.1094h10v29.3105h-10z" fill="#fff" stroke="#181818"/><path d="m627.5 157.041h10v29.3105h-10z" fill="#fff" stroke="#181818"/><path d="m627.5 348.2148h10v29.3105h-10z" fill="#fff" stroke="#181818"/><path d="m739.5 230.9727h10v29.3105h-10z" fill="#fff" stroke="#181818"/><path d="m739.5 406.8359h10v29.3105h-10z" fill="#fff" stroke="#181818"/><path d="m884.5 289.5938h10v29.3105h-10z" fill="#fff" stroke="#181818"/><path d="m500.5 79.1094 10 4-10 4 4-4z" fill="#181818" stroke="#181818"/><path d="m60.5 83.1094h446" stroke="#181818"/><text font-family="sans-serif" font-size="13" lengthAdjust="spacing" textLength="165" x="67.5" y="63.0566">Get configuration settings</text><text font-family="sans-serif" font-size="13" lengthAdjust="spacing" textLength="433" x="67.5" y="78.3672">(p2p_dht_protocol_id, p2p_shared_key, p2p_bootstrap_privkey, etc.)</text><path d="m71.5 108.4199-10 4 10 4-4-4z" fill="#181818" stroke="#181818"/><path d="m65.5 112.4199h451" stroke="#181818" stroke-dasharray="2 2"/><text font-family="sans-serif" font-size="13" lengthAdjust="spacing" textLength="174" x="77.5" y="107.6777">Return configuration values</text><path d="m615.5 153.041 10 4-10 4 4-4z" fill="#181818" stroke="#181818"/><path d="m60.5 157.041h561" stroke="#181818"/><text font-family="sans-serif" font-size="13" lengthAdjust="spacing" textLength="145" x="67.5" y="136.9883">Create new libp2p host</text><text font-family="sans-serif" font-size="13" lengthAdjust="spacing" textLength="168" x="67.5" y="152.2988">using configuration values</text><path d="m71.5 182.3516-10 4 10 4-4-4z" fill="#181818" stroke="#181818"/><path d="m65.5 186.3516h566" stroke="#181818" stroke-dasharray="2 2"/><text font-family="sans-serif" font-size="13" lengthAdjust="spacing" textLength="87" x="77.5" y="181.6094">Host instance</text><path d="m727.5 226.9727 10 4-10 4 4-4z" fill="#181818" stroke="#181818"/><path d="m60.5 230.9727h673" stroke="#181818"/><text font-family="sans-serif" font-size="13" lengthAdjust="spacing" textLength="128" x="67.5" y="210.9199">Setup Kademlia DHT</text><text font-family="sans-serif" font-size="13" lengthAdjust="spacing" textLength="134" x="67.5" y="226.2305">with DHT protocol ID</text><path d="m71.5 256.2832-10 4 10 4-4-4z" fill="#181818" stroke="#181818"/><path d="m65.5 260.2832h678" stroke="#181818" stroke-dasharray="2 2"/><text font-family="sans-serif" font-size="13" lengthAdjust="spacing" textLength="114" x="77.5" y="255.541">Kademlia instance</text><path d="m872.5 285.5938 10 4-10 4 4-4z" fill="#181818" stroke="#181818"/><path d="m60.5 289.5938h818" stroke="#181818"/><text font-family="sans-serif" font-size="13" lengthAdjust="spacing" textLength="153" x="67.5" y="284.8516">Secure network with PSK</text><path d="m71.5 314.9043-10 4 10 4-4-4z" fill="#181818" stroke="#181818"/><path d="m65.5 318.9043h823" stroke="#181818" stroke-dasharray="2 2"/><text font-family="sans-serif" font-size="13" lengthAdjust="spacing" textLength="104" x="77.5" y="314.1621">Secured network</text><path d="m615.5 344.2148 10 4-10 4 4-4z" fill="#181818" stroke="#181818"/><path d="m60.5 348.2148h561" stroke="#181818"/><text font-family="sans-serif" font-size="13" lengthAdjust="spacing" textLength="218" x="67.5" y="343.4727">Start host with secure connections</text><path d="m71.5 373.5254-10 4 10 4-4-4z" fill="#181818" stroke="#181818"/><path d="m65.5 377.5254h566" stroke="#181818" stroke-dasharray="2 2"/><text font-family="sans-serif" font-size="13" lengthAdjust="spacing" textLength="83" x="77.5" y="372.7832">Host running</text><path d="m727.5 402.8359 10 4-10 4 4-4z" fill="#181818" stroke="#181818"/><path d="m60.5 406.8359h673" stroke="#181818"/><text font-family="sans-serif" font-size="13" lengthAdjust="spacing" textLength="270" x="67.5" y="402.0938">Integrate DHT with Host for peer discovery</text><path d="m71.5 432.1465-10 4 10 4-4-4z" fill="#181818" stroke="#181818"/><path d="m65.5 436.1465h678" stroke="#181818" stroke-dasharray="2 2"/><text font-family="sans-serif" font-size="13" lengthAdjust="spacing" textLength="96" x="77.5" y="431.4043">DHT integrated</text><path d="m65 449.1465v25h314v-15l-10-10z" fill="#feffdd" stroke="#181818" stroke-width=".5"/><path d="m369 449.1465v10h10z" fill="#feffdd" stroke="#181818" stroke-width=".5"/><text font-family="sans-serif" font-size="13" lengthAdjust="spacing" textLength="293" x="71" y="466.7148">Host now running and waiting for connections</text><text fill="#888" font-family="sans-serif" font-size="10" lengthAdjust="spacing" textLength="152" y="530.6133">Last Modified On: 26-Jan-2024</text></svg>
