<svg viewBox="0 0 28 28" fill="none" xmlns="http://www.w3.org/2000/svg" width="28px" height="28px"><g clip-path="url(#clip0_93_724)"><path d="M24.759 0H3.24099C1.45104 0 0 1.45104 0 3.24099V24.759C0 26.549 1.45104 28 3.24099 28H24.759C26.549 28 28 26.549 28 24.759V3.24099C28 1.45104 26.549 0 24.759 0Z" fill="#1778FF"/><path d="M21.5006 5H12.0964C11.7599 5 11.4766 5.28337 11.4766 5.61986V8.06388C11.4766 8.40038 11.7599 8.68374 12.0964 8.68374H17.5158C17.8523 8.68374 18.1356 8.96711 18.1356 9.30361V15.8918C18.1356 16.2283 18.419 16.5117 18.7555 16.5117H21.5006C21.8371 16.5117 22.1205 16.2283 22.1205 15.8918V5.61986C22.1205 5.28337 21.8371 5 21.5006 5Z" fill="white" fill-opacity="0.88"/><path d="M14.9039 11.5964H5.49974C5.16325 11.5964 4.87988 11.8798 4.87988 12.2163V14.6603C4.87988 14.9968 5.16325 15.2802 5.49974 15.2802H10.9191C11.2556 15.2802 11.539 15.5635 11.539 15.9V22.4883C11.539 22.8248 11.8223 23.1081 12.1588 23.1081H14.9039C15.2404 23.1081 15.5238 22.8248 15.5238 22.4883V12.234C15.5238 11.8975 15.2404 11.6141 14.9039 11.6141V11.5964Z" fill="white" fill-opacity="0.66"/></g><defs><clipPath id="clip0_93_724"><rect width="28" height="28" fill="white"/></clipPath></defs></svg>