<svg xmlns="http://www.w3.org/2000/svg" xmlns:xlink="http://www.w3.org/1999/xlink" contentStyleType="text/css" height="270px" preserveAspectRatio="none" style="width:654px;height:270px;background:#FFFFFF;" version="1.1" viewBox="0 0 654 270" width="654px" zoomAndPan="magnify"><defs/><g><line style="stroke:#181818;stroke-width:0.5;stroke-dasharray:5.0,5.0;" x1="52" x2="52" y1="36.4883" y2="234.9727"/><line style="stroke:#181818;stroke-width:0.5;stroke-dasharray:5.0,5.0;" x1="241.6724" x2="241.6724" y1="36.4883" y2="234.9727"/><line style="stroke:#181818;stroke-width:0.5;stroke-dasharray:5.0,5.0;" x1="401.3887" x2="401.3887" y1="36.4883" y2="234.9727"/><line style="stroke:#181818;stroke-width:0.5;stroke-dasharray:5.0,5.0;" x1="539.5156" x2="539.5156" y1="36.4883" y2="234.9727"/><line style="stroke:#181818;stroke-width:0.5;stroke-dasharray:5.0,5.0;" x1="628.9736" x2="628.9736" y1="36.4883" y2="234.9727"/><rect fill="#E2E2F0" height="30.4883" rx="2.5" ry="2.5" style="stroke:#181818;stroke-width:0.5;" width="95.6416" x="5" y="5"/><text fill="#000000" font-family="sans-serif" font-size="14" lengthAdjust="spacing" textLength="81.6416" x="12" y="25.5352">Propagation</text><rect fill="#E2E2F0" height="30.4883" rx="2.5" ry="2.5" style="stroke:#181818;stroke-width:0.5;" width="95.6416" x="5" y="233.9727"/><text fill="#000000" font-family="sans-serif" font-size="14" lengthAdjust="spacing" textLength="81.6416" x="12" y="254.5078">Propagation</text><rect fill="#E2E2F0" height="30.4883" rx="2.5" ry="2.5" style="stroke:#181818;stroke-width:0.5;" width="75.0859" x="204.6724" y="5"/><text fill="#000000" font-family="sans-serif" font-size="14" lengthAdjust="spacing" textLength="61.0859" x="211.6724" y="25.5352">Validator</text><rect fill="#E2E2F0" height="30.4883" rx="2.5" ry="2.5" style="stroke:#181818;stroke-width:0.5;" width="75.0859" x="204.6724" y="233.9727"/><text fill="#000000" font-family="sans-serif" font-size="14" lengthAdjust="spacing" textLength="61.0859" x="211.6724" y="254.5078">Validator</text><rect fill="#E2E2F0" height="30.4883" rx="2.5" ry="2.5" style="stroke:#181818;stroke-width:0.5;" width="138.127" x="332.3887" y="5"/><text fill="#000000" font-family="sans-serif" font-size="14" lengthAdjust="spacing" textLength="124.127" x="339.3887" y="25.5352">Subtree Validation</text><rect fill="#E2E2F0" height="30.4883" rx="2.5" ry="2.5" style="stroke:#181818;stroke-width:0.5;" width="138.127" x="332.3887" y="233.9727"/><text fill="#000000" font-family="sans-serif" font-size="14" lengthAdjust="spacing" textLength="124.127" x="339.3887" y="254.5078">Subtree Validation</text><rect fill="#E2E2F0" height="30.4883" rx="2.5" ry="2.5" style="stroke:#181818;stroke-width:0.5;" width="119.458" x="480.5156" y="5"/><text fill="#000000" font-family="sans-serif" font-size="14" lengthAdjust="spacing" textLength="105.458" x="487.5156" y="25.5352">Block Assembly</text><rect fill="#E2E2F0" height="30.4883" rx="2.5" ry="2.5" style="stroke:#181818;stroke-width:0.5;" width="119.458" x="480.5156" y="233.9727"/><text fill="#000000" font-family="sans-serif" font-size="14" lengthAdjust="spacing" textLength="105.458" x="487.5156" y="254.5078">Block Assembly</text><rect fill="#E2E2F0" height="30.4883" rx="2.5" ry="2.5" style="stroke:#181818;stroke-width:0.5;" width="38.3291" x="609.9736" y="5"/><text fill="#000000" font-family="sans-serif" font-size="14" lengthAdjust="spacing" textLength="24.3291" x="616.9736" y="25.5352">P2P</text><rect fill="#E2E2F0" height="30.4883" rx="2.5" ry="2.5" style="stroke:#181818;stroke-width:0.5;" width="38.3291" x="609.9736" y="233.9727"/><text fill="#000000" font-family="sans-serif" font-size="14" lengthAdjust="spacing" textLength="24.3291" x="616.9736" y="254.5078">P2P</text><polygon fill="#181818" points="230.2153,79.1094,240.2153,83.1094,230.2153,87.1094,234.2153,83.1094" style="stroke:#181818;stroke-width:1.0;"/><line style="stroke:#181818;stroke-width:1.0;" x1="52.8208" x2="236.2153" y1="83.1094" y2="83.1094"/><text fill="#000000" font-family="sans-serif" font-size="13" lengthAdjust="spacing" textLength="104.9014" x="59.8208" y="63.0566">New Transaction</text><text fill="#000000" font-family="sans-serif" font-size="13" lengthAdjust="spacing" textLength="165.3945" x="59.8208" y="78.3672">(kafka_validatortxsConfig)</text><polygon fill="#181818" points="528.2446,123.7305,538.2446,127.7305,528.2446,131.7305,532.2446,127.7305" style="stroke:#181818;stroke-width:1.0;"/><line style="stroke:#181818;stroke-width:1.0;" x1="242.2153" x2="534.2446" y1="127.7305" y2="127.7305"/><text fill="#000000" font-family="sans-serif" font-size="13" lengthAdjust="spacing" textLength="104.9014" x="249.2153" y="107.6777">New Transaction</text><text fill="#000000" font-family="sans-serif" font-size="13" lengthAdjust="spacing" textLength="110.4429" x="249.2153" y="122.9883">(kafka_txsConfig)</text><polygon fill="#181818" points="389.4521,168.3516,399.4521,172.3516,389.4521,176.3516,393.4521,172.3516" style="stroke:#181818;stroke-width:1.0;"/><line style="stroke:#181818;stroke-width:1.0;" x1="242.2153" x2="395.4521" y1="172.3516" y2="172.3516"/><text fill="#000000" font-family="sans-serif" font-size="13" lengthAdjust="spacing" textLength="134.1069" x="249.2153" y="152.2988">New UTXO Meta Data</text><text fill="#000000" font-family="sans-serif" font-size="13" lengthAdjust="spacing" textLength="135.2368" x="249.2153" y="167.6094">(kafka_txmetaConfig)</text><polygon fill="#181818" points="617.1382,212.9727,627.1382,216.9727,617.1382,220.9727,621.1382,216.9727" style="stroke:#181818;stroke-width:1.0;"/><line style="stroke:#181818;stroke-width:1.0;" x1="242.2153" x2="623.1382" y1="216.9727" y2="216.9727"/><text fill="#000000" font-family="sans-serif" font-size="13" lengthAdjust="spacing" textLength="131.644" x="249.2153" y="196.9199">Rejected Transaction</text><text fill="#000000" font-family="sans-serif" font-size="13" lengthAdjust="spacing" textLength="157.8789" x="249.2153" y="212.2305">(kafka_rejectedTxConfig)</text><!--SRC=[TOun3u8m48LtViM5IGSNHmOJq5Lj18c3YJcWa0gqf3qL_xtKG094rtlVT-yrg4caea59mBHgi40IIW8QO4up2cEiH8Qaj8tYIUI6ZuGqvmFJ-QwbmXaML2ejmJU6rqdr_YA1Fq7OcZaEWzK6OWyE_0MHHcamjI-lSb5YNkBjEIoXrcoLp4MnT6Bh1Fv_QSw6VS4vkXnXpmbXXuGZlEvk4wFRvi69ttbAFFlPeVimQdln0m00]--></g></svg>
