<svg xmlns="http://www.w3.org/2000/svg" xmlns:xlink="http://www.w3.org/1999/xlink" contentStyleType="text/css" height="225px" preserveAspectRatio="none" style="width:595px;height:225px;background:#FFFFFF;" version="1.1" viewBox="0 0 595 225" width="595px" zoomAndPan="magnify"><defs/><g><line style="stroke:#181818;stroke-width:0.5;stroke-dasharray:5.0,5.0;" x1="42" x2="42" y1="36.4883" y2="190.3516"/><line style="stroke:#181818;stroke-width:0.5;stroke-dasharray:5.0,5.0;" x1="224.2573" x2="224.2573" y1="36.4883" y2="190.3516"/><line style="stroke:#181818;stroke-width:0.5;stroke-dasharray:5.0,5.0;" x1="379.9243" x2="379.9243" y1="36.4883" y2="190.3516"/><line style="stroke:#181818;stroke-width:0.5;stroke-dasharray:5.0,5.0;" x1="520.4995" x2="520.4995" y1="36.4883" y2="190.3516"/><rect fill="#E2E2F0" height="30.4883" rx="2.5" ry="2.5" style="stroke:#181818;stroke-width:0.5;" width="75.0859" x="5" y="5"/><text fill="#000000" font-family="sans-serif" font-size="14" lengthAdjust="spacing" textLength="61.0859" x="12" y="25.5352">Validator</text><rect fill="#E2E2F0" height="30.4883" rx="2.5" ry="2.5" style="stroke:#181818;stroke-width:0.5;" width="75.0859" x="5" y="189.3516"/><text fill="#000000" font-family="sans-serif" font-size="14" lengthAdjust="spacing" textLength="61.0859" x="12" y="209.8867">Validator</text><rect fill="#E2E2F0" height="30.4883" rx="2.5" ry="2.5" style="stroke:#181818;stroke-width:0.5;" width="38.3291" x="205.2573" y="5"/><text fill="#000000" font-family="sans-serif" font-size="14" lengthAdjust="spacing" textLength="24.3291" x="212.2573" y="25.5352">P2P</text><rect fill="#E2E2F0" height="30.4883" rx="2.5" ry="2.5" style="stroke:#181818;stroke-width:0.5;" width="38.3291" x="205.2573" y="189.3516"/><text fill="#000000" font-family="sans-serif" font-size="14" lengthAdjust="spacing" textLength="24.3291" x="212.2573" y="209.8867">P2P</text><rect fill="#E2E2F0" height="30.4883" rx="2.5" ry="2.5" style="stroke:#181818;stroke-width:0.5;" width="122.5752" x="318.9243" y="5"/><text fill="#000000" font-family="sans-serif" font-size="14" lengthAdjust="spacing" textLength="108.5752" x="325.9243" y="25.5352">Block Validation</text><rect fill="#E2E2F0" height="30.4883" rx="2.5" ry="2.5" style="stroke:#181818;stroke-width:0.5;" width="122.5752" x="318.9243" y="189.3516"/><text fill="#000000" font-family="sans-serif" font-size="14" lengthAdjust="spacing" textLength="108.5752" x="325.9243" y="209.8867">Block Validation</text><rect fill="#E2E2F0" height="30.4883" rx="2.5" ry="2.5" style="stroke:#181818;stroke-width:0.5;" width="138.127" x="451.4995" y="5"/><text fill="#000000" font-family="sans-serif" font-size="14" lengthAdjust="spacing" textLength="124.127" x="458.4995" y="25.5352">Subtree Validation</text><rect fill="#E2E2F0" height="30.4883" rx="2.5" ry="2.5" style="stroke:#181818;stroke-width:0.5;" width="138.127" x="451.4995" y="189.3516"/><text fill="#000000" font-family="sans-serif" font-size="14" lengthAdjust="spacing" textLength="124.127" x="458.4995" y="209.8867">Subtree Validation</text><polygon fill="#181818" points="212.4219,79.1094,222.4219,83.1094,212.4219,87.1094,216.4219,83.1094" style="stroke:#181818;stroke-width:1.0;"/><line style="stroke:#181818;stroke-width:1.0;" x1="42.543" x2="218.4219" y1="83.1094" y2="83.1094"/><text fill="#000000" font-family="sans-serif" font-size="13" lengthAdjust="spacing" textLength="131.644" x="49.543" y="63.0566">Rejected Transaction</text><text fill="#000000" font-family="sans-serif" font-size="13" lengthAdjust="spacing" textLength="157.8789" x="49.543" y="78.3672">(kafka_rejectedTxConfig)</text><polygon fill="#181818" points="368.2119,123.7305,378.2119,127.7305,368.2119,131.7305,372.2119,127.7305" style="stroke:#181818;stroke-width:1.0;"/><line style="stroke:#181818;stroke-width:1.0;" x1="224.4219" x2="374.2119" y1="127.7305" y2="127.7305"/><text fill="#000000" font-family="sans-serif" font-size="13" lengthAdjust="spacing" textLength="64.4541" x="231.4219" y="107.6777">New Block</text><text fill="#000000" font-family="sans-serif" font-size="13" lengthAdjust="spacing" textLength="131.79" x="231.4219" y="122.9883">(kafka_blocksConfig)</text><polygon fill="#181818" points="508.563,168.3516,518.563,172.3516,508.563,176.3516,512.563,172.3516" style="stroke:#181818;stroke-width:1.0;"/><line style="stroke:#181818;stroke-width:1.0;" x1="224.4219" x2="514.563" y1="172.3516" y2="172.3516"/><text fill="#000000" font-family="sans-serif" font-size="13" lengthAdjust="spacing" textLength="78.895" x="231.4219" y="152.2988">New Subtree</text><text fill="#000000" font-family="sans-serif" font-size="13" lengthAdjust="spacing" textLength="145.1519" x="231.4219" y="167.6094">(kafka_subtreesConfig)</text><!--SRC=[NOun3y8W48LtViM5IGSNnmuEk9l6Damcvagl1cc004P_lfAMndPyzxxlyZo6f9NsQ1D877MFoGN029Bvlwe-rglCnUYKAOPsbcT7h2NUlBeKYBPO8ncJS3ZbhnLSwKagKGzjG1jHPGnkTcTmC7WFSzj-piuE-h5dFocxGbPmeJTCGnQ-op5ks6Pcovw5ZjEXy5y0]--></g></svg>
