<svg contentStyleType="text/css" height="397" preserveAspectRatio="none" viewBox="0 0 571 397" width="571" xmlns="http://www.w3.org/2000/svg" zoomAndPan="magnify"><path d="m0 0h571v397h-571z" fill="#f0f8ff"/><path d="m209.1313 67.7988h10v268.0605h-10z" fill="#fff" stroke="#181818"/><path d="m392.4048 97.1094h10v127.1973h-10z" fill="#fff" stroke="#181818"/><path d="m10 112.1094h554.3892v216.75h-554.3892z" fill="none" stroke="#000" stroke-width="1.5"/><path d="m46 36.4883v309.3711" stroke="#181818" stroke-dasharray="5 5" stroke-width=".5"/><path d="m213.8564 36.4883v309.3711" stroke="#181818" stroke-dasharray="5 5" stroke-width=".5"/><path d="m396.7085 36.4883v309.3711" stroke="#181818" stroke-dasharray="5 5" stroke-width=".5"/><rect fill="#ddd" height="30.4883" rx="2.5" stroke="#666" stroke-width=".5" width="53.5049" x="20" y="5"/><text fill="#333" font-family="sans-serif" font-size="14" lengthAdjust="spacing" textLength="39.5049" x="27" y="25.5352">Client</text><rect fill="#ddd" height="30.4883" rx="2.5" stroke="#666" stroke-width=".5" width="53.5049" x="20" y="344.8594"/><text fill="#333" font-family="sans-serif" font-size="14" lengthAdjust="spacing" textLength="39.5049" x="27" y="365.3945">Client</text><rect fill="#ddd" height="30.4883" rx="2.5" stroke="#666" stroke-width=".5" width="86.5498" x="170.8564" y="5"/><text fill="#333" font-family="sans-serif" font-size="14" lengthAdjust="spacing" textLength="72.5498" x="177.8564" y="25.5352">RPC Server</text><rect fill="#ddd" height="30.4883" rx="2.5" stroke="#666" stroke-width=".5" width="86.5498" x="170.8564" y="344.8594"/><text fill="#333" font-family="sans-serif" font-size="14" lengthAdjust="spacing" textLength="72.5498" x="177.8564" y="365.3945">RPC Server</text><rect fill="#ddd" height="30.4883" rx="2.5" stroke="#666" stroke-width=".5" width="163.3926" x="315.7085" y="5"/><text fill="#333" font-family="sans-serif" font-size="14" lengthAdjust="spacing" textLength="149.3926" x="322.7085" y="25.5352">Block Assembly Client</text><rect fill="#ddd" height="30.4883" rx="2.5" stroke="#666" stroke-width=".5" width="163.3926" x="315.7085" y="344.8594"/><text fill="#333" font-family="sans-serif" font-size="14" lengthAdjust="spacing" textLength="149.3926" x="322.7085" y="365.3945">Block Assembly Client</text><path d="m209.1313 67.7988h10v268.0605h-10z" fill="#fff" stroke="#181818"/><path d="m392.4048 97.1094h10v127.1973h-10z" fill="#fff" stroke="#181818"/><path d="m197.1313 63.7988 10 4-10 4 4-4z" fill="#666" stroke="#666"/><path d="m46.7524 67.7988h156.3789" stroke="#666"/><text fill="#333" font-family="sans-serif" font-size="13" lengthAdjust="spacing" textLength="116.2192" x="53.7524" y="63.0566">GetDifficultyCmd()</text><path d="m380.4048 93.1094 10 4-10 4 4-4z" fill="#666" stroke="#666"/><path d="m219.1313 97.1094h167.2735" stroke="#666"/><text fill="#333" font-family="sans-serif" font-size="13" lengthAdjust="spacing" textLength="154.2734" x="226.1313" y="92.3672">GetCurrentDifficulty(ctx)</text><path d="m10 112.1094h62.1387v7.3105l-10 10h-52.1387z" fill="#eee" stroke="#000" stroke-width="1.5"/><path d="m10 112.1094h554.3892v216.75h-554.3892z" fill="none" stroke="#000" stroke-width="1.5"/><text fill="#333" font-family="sans-serif" font-size="13" font-weight="bold" lengthAdjust="spacing" textLength="17.1387" x="25" y="125.6777">alt</text><text fill="#333" font-family="sans-serif" font-size="11" font-weight="bold" lengthAdjust="spacing" textLength="144.1709" x="87.1387" y="124.7441">[Difficulty Retrieval Fails]</text><path d="m230.1313 146.7305-10 4 10 4-4-4z" fill="#666" stroke="#666"/><path d="m224.1313 150.7305h167.2735" stroke="#666" stroke-dasharray="2 2"/><text fill="#333" font-family="sans-serif" font-size="13" lengthAdjust="spacing" textLength="77.0796" x="236.1313" y="145.9883">Return error</text><path d="m57.7524 176.041-10 4 10 4-4-4z" fill="#666" stroke="#666"/><path d="m51.7524 180.041h156.3789" stroke="#666"/><text fill="#333" font-family="sans-serif" font-size="13" lengthAdjust="spacing" textLength="77.0796" x="63.7524" y="175.2988">Return error</text><path d="m10 189.041h554.3892" stroke="#000" stroke-dasharray="2 2"/><text fill="#333" font-family="sans-serif" font-size="11" font-weight="bold" lengthAdjust="spacing" textLength="169.6299" x="15" y="199.6758">[Difficulty Retrieval Succeeds]</text><path d="m230.1313 220.3066-10 4 10 4-4-4z" fill="#666" stroke="#666"/><path d="m224.1313 224.3066h172.2735" stroke="#666" stroke-dasharray="2 2"/><text fill="#333" font-family="sans-serif" font-size="13" lengthAdjust="spacing" textLength="101.2896" x="236.1313" y="219.5645">Return difficulty</text><path d="m57.7524 283.2383-10 4 10 4-4-4z" fill="#666" stroke="#666"/><path d="m51.7524 287.2383h156.3789" stroke="#666"/><text fill="#333" font-family="sans-serif" font-size="13" lengthAdjust="spacing" textLength="138.3789" x="63.7524" y="282.4961">Return difficulty value</text><path d="m224 237.3066v86h330v-76l-10-10z" fill="#feffdd" stroke="#181818" stroke-width=".5"/><path d="m544 237.3066v10h10z" fill="#feffdd" stroke="#181818" stroke-width=".5"/><g fill="#333" font-family="sans-serif"><text font-size="13" lengthAdjust="spacing" textLength="102.7686" x="230" y="254.875">Response fields:</text><text font-size="13" lengthAdjust="spacing" textLength="293.3442" x="230" y="270.1855">- difficulty: Float64 value representing current</text><text font-size="13" lengthAdjust="spacing" textLength="301.0313" x="238.2266" y="285.4961">network difficulty as a multiple of the minimum</text><text font-size="13" lengthAdjust="spacing" textLength="55.396" x="238.2266" y="300.8066">difficulty</text><text font-size="13" lengthAdjust="spacing" textLength="197.3804" x="230" y="316.1172">Example: 157543.3661989932</text><text font-size="10" lengthAdjust="spacing" textLength="155.4346" y="387.0156">Last Modified On: 24-Feb-2025</text></g></svg>
