<svg contentStyleType="text/css" height="288" preserveAspectRatio="none" viewBox="0 0 525 288" width="525" xmlns="http://www.w3.org/2000/svg" zoomAndPan="magnify"><path d="m0 0h525v288h-525z" fill="#f0f8ff"/><g stroke="#181818"><path d="m244.3433 67.7988h10v160.5527h-10z" fill="#fff"/><path d="m249.3433 105.1094h10v103.5869h-10z" fill="#fff"/><path d="m488.6538 139.4199h10v29.3105h-10z" fill="#fff"/><path d="m31 36.4883v200.8633" stroke-dasharray="5 5" stroke-width=".5"/><path d="m249.0684 36.4883v200.8633" stroke-dasharray="5 5" stroke-width=".5"/><path d="m493.4927 36.4883v200.8633" stroke-dasharray="5 5" stroke-width=".5"/></g><rect fill="#ddd" height="30.4883" rx="2.5" stroke="#666" stroke-width=".5" width="53.5049" x="5" y="5"/><text fill="#333" font-family="sans-serif" font-size="14" lengthAdjust="spacing" textLength="39.5049" x="12" y="25.5352">Client</text><rect fill="#ddd" height="30.4883" rx="2.5" stroke="#666" stroke-width=".5" width="53.5049" x="5" y="236.3516"/><text fill="#333" font-family="sans-serif" font-size="14" lengthAdjust="spacing" textLength="39.5049" x="12" y="256.8867">Client</text><rect fill="#ddd" height="30.4883" rx="2.5" stroke="#666" stroke-width=".5" width="86.5498" x="206.0684" y="5"/><text fill="#333" font-family="sans-serif" font-size="14" lengthAdjust="spacing" textLength="72.5498" x="213.0684" y="25.5352">RPC Server</text><rect fill="#ddd" height="30.4883" rx="2.5" stroke="#666" stroke-width=".5" width="86.5498" x="206.0684" y="236.3516"/><text fill="#333" font-family="sans-serif" font-size="14" lengthAdjust="spacing" textLength="72.5498" x="213.0684" y="256.8867">RPC Server</text><rect fill="#ddd" height="30.4883" rx="2.5" stroke="#666" stroke-width=".5" width="52.3223" x="467.4927" y="5"/><text fill="#333" font-family="sans-serif" font-size="14" lengthAdjust="spacing" textLength="38.3223" x="474.4927" y="25.5352">Miner</text><rect fill="#ddd" height="30.4883" rx="2.5" stroke="#666" stroke-width=".5" width="52.3223" x="467.4927" y="236.3516"/><text fill="#333" font-family="sans-serif" font-size="14" lengthAdjust="spacing" textLength="38.3223" x="474.4927" y="256.8867">Miner</text><path d="m244.3433 67.7988h10v160.5527h-10z" fill="#fff" stroke="#181818"/><path d="m249.3433 105.1094h10v103.5869h-10z" fill="#fff" stroke="#181818"/><path d="m488.6538 139.4199h10v29.3105h-10z" fill="#fff" stroke="#181818"/><path d="m232.3433 63.7988 10 4-10 4 4-4z" fill="#666" stroke="#666"/><path d="m31.7524 67.7988h206.5909" stroke="#666"/><text fill="#333" font-family="sans-serif" font-size="13" lengthAdjust="spacing" textLength="193.5908" x="38.7524" y="63.0566">Request: Generate(NumBlocks)</text><path d="m254.3433 92.1094h47" stroke="#666"/><path d="m301.3433 92.1094v13" stroke="#666"/><path d="m260.3433 105.1094h41" stroke="#666"/><path d="m270.3433 101.1094-10 4 10 4-4-4z" fill="#666" stroke="#666"/><text fill="#333" font-family="sans-serif" font-size="13" lengthAdjust="spacing" textLength="177.417" x="266.3433" y="87.3672">handleGenerate(NumBlocks)</text><path d="m476.6538 135.4199 10 4-10 4 4-4z" fill="#666" stroke="#666"/><path d="m259.3433 139.4199h223.3105" stroke="#666"/><text fill="#333" font-family="sans-serif" font-size="13" lengthAdjust="spacing" textLength="210.3105" x="266.3433" y="134.6777">HTTP /mine?blocks=(NumBlocks)</text><path d="m270.3433 164.7305-10 4 10 4-4-4z" fill="#666" stroke="#666"/><path d="m264.3433 168.7305h228.3105" stroke="#666" stroke-dasharray="2 2"/><text fill="#333" font-family="sans-serif" font-size="13" lengthAdjust="spacing" textLength="92.0093" x="276.3433" y="163.9883">Acknowledged</text><path d="m42.7524 204.6963-10 4 10 4-4-4z" fill="#666" stroke="#666"/><path d="m36.7524 208.6963h206.5909" stroke="#666"/><text fill="#333" font-family="sans-serif" font-size="13" lengthAdjust="spacing" textLength="92.0093" x="48.7524" y="203.9541">Acknowledged</text><path d="m264 181.7305v40h173v-30l-10-10z" fill="#feffdd" stroke="#181818" stroke-width=".5"/><path d="m427 181.7305v10h10z" fill="#feffdd" stroke="#181818" stroke-width=".5"/><text fill="#333" font-family="sans-serif" font-size="13" lengthAdjust="spacing" textLength="102.7686" x="270" y="199.2988">Response fields:</text><text fill="#333" font-family="sans-serif" font-size="13" lengthAdjust="spacing" textLength="152.5278" x="270" y="214.6094">- Returns nil on success</text><text fill="#333" font-family="sans-serif" font-size="10" lengthAdjust="spacing" textLength="155.4346" y="278.5078">Last Modified On: 24-Feb-2025</text></svg>
