<svg contentStyleType="text/css" height="1008" preserveAspectRatio="none" viewBox="0 0 812 1008" width="812" xmlns="http://www.w3.org/2000/svg" zoomAndPan="magnify"><path d="m0 0h812v1008h-812z" fill="#f0f8ff"/><path d="m442.0044 67.7988h10v879.918h-10z" fill="#fff" stroke="#181818"/><g fill="none" stroke="#000" stroke-width="1.5"><path d="m10 125.1094h795.5674v815.6074h-795.5674z"/><path d="m30 235.9961h569.4351v177.5078h-569.4351z"/><path d="m40 302.6172h549.4351v103.8867h-549.4351z"/><path d="m20 427.5039h654.8833v295.3945h-654.8833z"/><path d="m30 494.125h634.8833v221.7734h-634.8833z"/><path d="m40 605.0117h558.5249v103.8867h-558.5249z"/><path d="m40 821.5195h755.5674v112.1973h-755.5674z"/></g><path d="m76 36.4883v921.2285" stroke="#181818" stroke-dasharray="5 5" stroke-width=".5"/><path d="m446.7295 36.4883v921.2285" stroke="#181818" stroke-dasharray="5 5" stroke-width=".5"/><rect fill="#ddd" height="30.4883" rx="2.5" stroke="#666" stroke-width=".5" width="53.5049" x="50" y="5"/><text fill="#333" font-family="sans-serif" font-size="14" lengthAdjust="spacing" textLength="39.5049" x="57" y="25.5352">Client</text><rect fill="#ddd" height="30.4883" rx="2.5" stroke="#666" stroke-width=".5" width="53.5049" x="50" y="956.7168"/><text fill="#333" font-family="sans-serif" font-size="14" lengthAdjust="spacing" textLength="39.5049" x="57" y="977.252">Client</text><rect fill="#ddd" height="30.4883" rx="2.5" stroke="#666" stroke-width=".5" width="86.5498" x="403.7295" y="5"/><text fill="#333" font-family="sans-serif" font-size="14" lengthAdjust="spacing" textLength="72.5498" x="410.7295" y="25.5352">RPC Server</text><rect fill="#ddd" height="30.4883" rx="2.5" stroke="#666" stroke-width=".5" width="86.5498" x="403.7295" y="956.7168"/><text fill="#333" font-family="sans-serif" font-size="14" lengthAdjust="spacing" textLength="72.5498" x="410.7295" y="977.252">RPC Server</text><path d="m442.0044 67.7988h10v879.918h-10z" fill="#fff" stroke="#181818"/><path d="m430.0044 63.7988 10 4-10 4 4-4z" fill="#666" stroke="#666"/><path d="m76.7524 67.7988h359.252" stroke="#666"/><text fill="#333" font-family="sans-serif" font-size="13" lengthAdjust="spacing" textLength="346.252" x="83.7524" y="63.0566">CreateRawTransactionCmd(inputs, amounts, lockTime)</text><path d="m452.0044 97.1094h42" stroke="#666"/><path d="m494.0044 97.1094v13" stroke="#666"/><path d="m453.0044 110.1094h41" stroke="#666"/><path d="m463.0044 106.1094-10 4 10 4-4-4z" fill="#666" stroke="#666"/><text fill="#333" font-family="sans-serif" font-size="13" lengthAdjust="spacing" textLength="112.1313" x="459.0044" y="92.3672">Validate lockTime</text><path d="m10 125.1094h62.1387v7.3105l-10 10h-52.1387z" fill="#eee" stroke="#000" stroke-width="1.5"/><path d="m10 125.1094h795.5674v815.6074h-795.5674z" fill="none" stroke="#000" stroke-width="1.5"/><text fill="#333" font-family="sans-serif" font-size="13" font-weight="bold" lengthAdjust="spacing" textLength="17.1387" x="25" y="138.6777">alt</text><text fill="#333" font-family="sans-serif" font-size="11" font-weight="bold" lengthAdjust="spacing" textLength="115.1348" x="87.1387" y="137.7441">[lockTime is invalid]</text><path d="m87.7524 159.7305-10 4 10 4-4-4z" fill="#666" stroke="#666"/><path d="m81.7524 163.7305h359.252" stroke="#666"/><text fill="#333" font-family="sans-serif" font-size="13" lengthAdjust="spacing" textLength="188.0366" x="93.7524" y="158.9883">Error: "Locktime out of range"</text><path d="m10 172.7305h795.5674" stroke="#000" stroke-dasharray="2 2"/><text fill="#333" font-family="sans-serif" font-size="11" font-weight="bold" lengthAdjust="spacing" textLength="90.9111" x="15" y="183.3652">[valid lockTime]</text><path d="m452.0044 207.9961h42" stroke="#666"/><path d="m494.0044 207.9961v13" stroke="#666"/><path d="m453.0044 220.9961h41" stroke="#666"/><path d="m463.0044 216.9961-10 4 10 4-4-4z" fill="#666" stroke="#666"/><text fill="#333" font-family="sans-serif" font-size="13" lengthAdjust="spacing" textLength="182.5015" x="459.0044" y="203.2539">Create new transaction (mtx)</text><path d="m30 235.9961h74.4468v7.3105l-10 10h-64.4468z" fill="#eee" stroke="#000" stroke-width="1.5"/><path d="m30 235.9961h569.4351v177.5078h-569.4351z" fill="none" stroke="#000" stroke-width="1.5"/><text fill="#333" font-family="sans-serif" font-size="13" font-weight="bold" lengthAdjust="spacing" textLength="29.4468" x="45" y="249.5645">loop</text><text fill="#333" font-family="sans-serif" font-size="11" font-weight="bold" lengthAdjust="spacing" textLength="87.7529" x="119.4468" y="248.6309">[for each input]</text><path d="m452.0044 274.6172h42" stroke="#666"/><path d="m494.0044 274.6172v13" stroke="#666"/><path d="m453.0044 287.6172h41" stroke="#666"/><path d="m463.0044 283.6172-10 4 10 4-4-4z" fill="#666" stroke="#666"/><text fill="#333" font-family="sans-serif" font-size="13" lengthAdjust="spacing" textLength="79.5488" x="459.0044" y="269.875">Validate txid</text><path d="m40 302.6172h62.1387v7.3105l-10 10h-52.1387z" fill="#eee" stroke="#000" stroke-width="1.5"/><path d="m40 302.6172h549.4351v103.8867h-549.4351z" fill="none" stroke="#000" stroke-width="1.5"/><text fill="#333" font-family="sans-serif" font-size="13" font-weight="bold" lengthAdjust="spacing" textLength="17.1387" x="55" y="316.1855">alt</text><text fill="#333" font-family="sans-serif" font-size="11" font-weight="bold" lengthAdjust="spacing" textLength="85.2607" x="117.1387" y="315.252">[txid is invalid]</text><path d="m87.7524 337.2383-10 4 10 4-4-4z" fill="#666" stroke="#666"/><path d="m81.7524 341.2383h359.252" stroke="#666"/><text fill="#333" font-family="sans-serif" font-size="13" lengthAdjust="spacing" textLength="119.2344" x="93.7524" y="336.4961">Error: "Invalid txid"</text><path d="m40 350.2383h549.4351" stroke="#000" stroke-dasharray="2 2"/><text fill="#333" font-family="sans-serif" font-size="11" font-weight="bold" lengthAdjust="spacing" textLength="61.0371" x="45" y="360.873">[valid txid]</text><path d="m452.0044 385.5039h42" stroke="#666"/><path d="m494.0044 385.5039v13" stroke="#666"/><path d="m453.0044 398.5039h41" stroke="#666"/><path d="m463.0044 394.5039-10 4 10 4-4-4z" fill="#666" stroke="#666"/><text fill="#333" font-family="sans-serif" font-size="13" lengthAdjust="spacing" textLength="108.4307" x="459.0044" y="380.7617">Add input to mtx</text><path d="m20 427.5039h74.4468v7.3106l-10 10h-64.4468z" fill="#eee" stroke="#000" stroke-width="1.5"/><path d="m20 427.5039h654.8833v295.3945h-654.8833z" fill="none" stroke="#000" stroke-width="1.5"/><text fill="#333" font-family="sans-serif" font-size="13" font-weight="bold" lengthAdjust="spacing" textLength="29.4468" x="35" y="441.0723">loop</text><text fill="#333" font-family="sans-serif" font-size="11" font-weight="bold" lengthAdjust="spacing" textLength="95.6592" x="109.4468" y="440.1387">[for each output]</text><path d="m452.0044 466.125h42" stroke="#666"/><path d="m494.0044 466.125v13" stroke="#666"/><path d="m453.0044 479.125h41" stroke="#666"/><path d="m463.0044 475.125-10 4 10 4-4-4z" fill="#666" stroke="#666"/><text fill="#333" font-family="sans-serif" font-size="13" lengthAdjust="spacing" textLength="100.5215" x="459.0044" y="461.3828">Decode address</text><path d="m30 494.125h62.1387v7.3105l-10 10h-52.1387z" fill="#eee" stroke="#000" stroke-width="1.5"/><path d="m30 494.125h634.8833v221.7734h-634.8833z" fill="none" stroke="#000" stroke-width="1.5"/><text fill="#333" font-family="sans-serif" font-size="13" font-weight="bold" lengthAdjust="spacing" textLength="17.1387" x="45" y="507.6934">alt</text><text fill="#333" font-family="sans-serif" font-size="11" font-weight="bold" lengthAdjust="spacing" textLength="108.3672" x="107.1387" y="506.7598">[address is invalid]</text><path d="m87.7524 528.7461-10 4 10 4-4-4z" fill="#666" stroke="#666"/><path d="m81.7524 532.7461h359.252" stroke="#666"/><text fill="#333" font-family="sans-serif" font-size="13" lengthAdjust="spacing" textLength="186.9829" x="93.7524" y="528.0039">Error: "Invalid address or key"</text><path d="m30 541.7461h634.8833" stroke="#000" stroke-dasharray="2 2"/><text fill="#333" font-family="sans-serif" font-size="11" font-weight="bold" lengthAdjust="spacing" textLength="84.1436" x="35" y="552.3809">[valid address]</text><path d="m452.0044 577.0117h42" stroke="#666"/><path d="m494.0044 577.0117v13" stroke="#666"/><path d="m453.0044 590.0117h41" stroke="#666"/><path d="m463.0044 586.0117-10 4 10 4-4-4z" fill="#666" stroke="#666"/><text fill="#333" font-family="sans-serif" font-size="13" lengthAdjust="spacing" textLength="183.8789" x="459.0044" y="572.2695">Create pay-to-address script</text><path d="m40 605.0117h62.1387v7.3106l-10 10h-52.1387z" fill="#eee" stroke="#000" stroke-width="1.5"/><path d="m40 605.0117h558.5249v103.8867h-558.5249z" fill="none" stroke="#000" stroke-width="1.5"/><text fill="#333" font-family="sans-serif" font-size="13" font-weight="bold" lengthAdjust="spacing" textLength="17.1387" x="55" y="618.5801">alt</text><text fill="#333" font-family="sans-serif" font-size="11" font-weight="bold" lengthAdjust="spacing" textLength="125.7695" x="117.1387" y="617.6465">[script creation failed]</text><path d="m87.7524 639.6328-10 4 10 4-4-4z" fill="#666" stroke="#666"/><path d="m81.7524 643.6328h359.252" stroke="#666"/><text fill="#333" font-family="sans-serif" font-size="13" lengthAdjust="spacing" textLength="201.8745" x="93.7524" y="638.8906">Error: "Failed to generate script"</text><path d="m40 652.6328h558.5249" stroke="#000" stroke-dasharray="2 2"/><text fill="#333" font-family="sans-serif" font-size="11" font-weight="bold" lengthAdjust="spacing" textLength="159.1509" x="45" y="663.2676">[script created successfully]</text><path d="m452.0044 687.8984h42" stroke="#666"/><path d="m494.0044 687.8984v13" stroke="#666"/><path d="m453.0044 700.8984h41" stroke="#666"/><path d="m463.0044 696.8984-10 4 10 4-4-4z" fill="#666" stroke="#666"/><text fill="#333" font-family="sans-serif" font-size="13" lengthAdjust="spacing" textLength="117.5205" x="459.0044" y="683.1563">Add output to mtx</text><path d="m452.0044 751.209h42" stroke="#666"/><path d="m494.0044 751.209v13" stroke="#666"/><path d="m453.0044 764.209h41" stroke="#666"/><path d="m463.0044 760.209-10 4 10 4-4-4z" fill="#666" stroke="#666"/><text fill="#333" font-family="sans-serif" font-size="13" lengthAdjust="spacing" textLength="112.8359" x="459.0044" y="746.4668">Set mtx.LockTime</text><path d="m452.0044 793.5195h42" stroke="#666"/><path d="m494.0044 793.5195v13" stroke="#666"/><path d="m453.0044 806.5195h41" stroke="#666"/><path d="m463.0044 802.5195-10 4 10 4-4-4z" fill="#666" stroke="#666"/><text fill="#333" font-family="sans-serif" font-size="13" lengthAdjust="spacing" textLength="171.7485" x="459.0044" y="788.7773">Serialize transaction to hex</text><path d="m40 821.5195h62.1387v7.3106l-10 10h-52.1387z" fill="#eee" stroke="#000" stroke-width="1.5"/><path d="m40 821.5195h755.5674v112.1973h-755.5674z" fill="none" stroke="#000" stroke-width="1.5"/><text fill="#333" font-family="sans-serif" font-size="13" font-weight="bold" lengthAdjust="spacing" textLength="17.1387" x="55" y="835.0879">alt</text><text fill="#333" font-family="sans-serif" font-size="11" font-weight="bold" lengthAdjust="spacing" textLength="141.292" x="117.1387" y="834.1543">[serialization successful]</text><path d="m87.7524 866.7959-10 4 10 4-4-4z" fill="#666" stroke="#666"/><path d="m81.7524 870.7959h359.252" stroke="#666"/><text fill="#333" font-family="sans-serif" font-size="13" lengthAdjust="spacing" textLength="215.1157" x="93.7524" y="866.0537">Returns serialized transaction hex</text><path d="m457 843.8301v40h328v-30l-10-10z" fill="#feffdd" stroke="#181818" stroke-width=".5"/><path d="m775 843.8301v10h10z" fill="#feffdd" stroke="#181818" stroke-width=".5"/><text fill="#333" font-family="sans-serif" font-size="13" lengthAdjust="spacing" textLength="102.7686" x="463" y="861.3984">Response fields:</text><text fill="#333" font-family="sans-serif" font-size="13" lengthAdjust="spacing" textLength="307.563" x="463" y="876.709">- Returns hex-encoded string of raw transaction</text><path d="m40 890.4512h755.5674" stroke="#000" stroke-dasharray="2 2"/><text fill="#333" font-family="sans-serif" font-size="11" font-weight="bold" lengthAdjust="spacing" textLength="113.8081" x="45" y="901.0859">[serialization failed]</text><path d="m87.7524 921.7168-10 4 10 4-4-4z" fill="#666" stroke="#666"/><path d="m81.7524 925.7168h359.252" stroke="#666"/><text fill="#333" font-family="sans-serif" font-size="13" lengthAdjust="spacing" textLength="234.1079" x="93.7524" y="920.9746">Error: "Failed to serialize transaction"</text><text fill="#333" font-family="sans-serif" font-size="10" lengthAdjust="spacing" textLength="155.4346" y="998.873">Last Modified On: 24-Feb-2025</text></svg>
