<svg contentStyleType="text/css" height="793" preserveAspectRatio="none" viewBox="0 0 1140 793" width="1140" xmlns="http://www.w3.org/2000/svg" zoomAndPan="magnify"><path d="m0 0h1140v793h-1140z" fill="#f0f8ff"/><path d="m320.1855 67.7988h10v664.6055h-10z" fill="#fff" stroke="#181818"/><path d="m536.3018 97.1094h10v29.3105h-10z" fill="#fff" stroke="#181818"/><path d="m536.3018 343.5039h10v29.3105h-10z" fill="#fff" stroke="#181818"/><path d="m536.3018 402.125h10v29.3105h-10z" fill="#fff" stroke="#181818"/><path d="m749.9087 224.3066h10v471.7871h-10z" fill="#fff" stroke="#181818"/><path d="m10 141.4199h1123.3589v583.9844h-1123.3589z" fill="none" stroke="#000" stroke-width="1.5"/><path d="m271.9106 239.3066h851.4482v449.7871h-851.4482z" fill="none" stroke="#000" stroke-width="1.5"/><path d="m46 36.4883v705.916" stroke="#181818" stroke-dasharray="5 5" stroke-width=".5"/><path d="m324.9106 36.4883v705.916" stroke="#181818" stroke-dasharray="5 5" stroke-width=".5"/><path d="m541.145 36.4883v705.916" stroke="#181818" stroke-dasharray="5 5" stroke-width=".5"/><path d="m754.5063 36.4883v705.916" stroke="#181818" stroke-dasharray="5 5" stroke-width=".5"/><rect fill="#ddd" height="30.4883" rx="2.5" stroke="#666" stroke-width=".5" width="53.5049" x="20" y="5"/><text fill="#333" font-family="sans-serif" font-size="14" lengthAdjust="spacing" textLength="39.5049" x="27" y="25.5352">Client</text><rect fill="#ddd" height="30.4883" rx="2.5" stroke="#666" stroke-width=".5" width="53.5049" x="20" y="741.4043"/><text fill="#333" font-family="sans-serif" font-size="14" lengthAdjust="spacing" textLength="39.5049" x="27" y="761.9395">Client</text><rect fill="#ddd" height="30.4883" rx="2.5" stroke="#666" stroke-width=".5" width="86.5498" x="281.9106" y="5"/><text fill="#333" font-family="sans-serif" font-size="14" lengthAdjust="spacing" textLength="72.5498" x="288.9106" y="25.5352">RPC Server</text><rect fill="#ddd" height="30.4883" rx="2.5" stroke="#666" stroke-width=".5" width="86.5498" x="281.9106" y="741.4043"/><text fill="#333" font-family="sans-serif" font-size="14" lengthAdjust="spacing" textLength="72.5498" x="288.9106" y="761.9395">RPC Server</text><rect fill="#ddd" height="30.4883" rx="2.5" stroke="#666" stroke-width=".5" width="130.3135" x="476.145" y="5"/><text fill="#333" font-family="sans-serif" font-size="14" lengthAdjust="spacing" textLength="116.3135" x="483.145" y="25.5352">Blockchain Client</text><rect fill="#ddd" height="30.4883" rx="2.5" stroke="#666" stroke-width=".5" width="130.3135" x="476.145" y="741.4043"/><text fill="#333" font-family="sans-serif" font-size="14" lengthAdjust="spacing" textLength="116.3135" x="483.145" y="761.9395">Blockchain Client</text><rect fill="#ddd" height="30.4883" rx="2.5" stroke="#666" stroke-width=".5" width="176.8047" x="666.5063" y="5"/><text fill="#333" font-family="sans-serif" font-size="14" lengthAdjust="spacing" textLength="162.8047" x="673.5063" y="25.5352">Block to JSON Converter</text><rect fill="#ddd" height="30.4883" rx="2.5" stroke="#666" stroke-width=".5" width="176.8047" x="666.5063" y="741.4043"/><text fill="#333" font-family="sans-serif" font-size="14" lengthAdjust="spacing" textLength="162.8047" x="673.5063" y="761.9395">Block to JSON Converter</text><path d="m320.1855 67.7988h10v664.6055h-10z" fill="#fff" stroke="#181818"/><path d="m536.3018 97.1094h10v29.3105h-10z" fill="#fff" stroke="#181818"/><path d="m536.3018 343.5039h10v29.3105h-10z" fill="#fff" stroke="#181818"/><path d="m536.3018 402.125h10v29.3105h-10z" fill="#fff" stroke="#181818"/><path d="m749.9087 224.3066h10v471.7871h-10z" fill="#fff" stroke="#181818"/><path d="m308.1855 63.7988 10 4-10 4 4-4z" fill="#666" stroke="#666"/><path d="m46.7524 67.7988h267.4331" stroke="#666"/><text fill="#333" font-family="sans-serif" font-size="13" lengthAdjust="spacing" textLength="254.4331" x="53.7524" y="63.0566">GetBlockByHeightCmd(height, verbosity)</text><path d="m524.3018 93.1094 10 4-10 4 4-4z" fill="#666" stroke="#666"/><path d="m330.1855 97.1094h200.1163" stroke="#666"/><text fill="#333" font-family="sans-serif" font-size="13" lengthAdjust="spacing" textLength="187.1162" x="337.1855" y="92.3672">GetBlockByHeight(ctx, height)</text><path d="m341.1855 122.4199-10 4 10 4-4-4z" fill="#666" stroke="#666"/><path d="m335.1855 126.4199h205.1163" stroke="#666" stroke-dasharray="2 2"/><text fill="#333" font-family="sans-serif" font-size="13" lengthAdjust="spacing" textLength="129.8921" x="347.1855" y="121.6777">return block or error</text><path d="m10 141.4199h62.1387v7.3106l-10 10h-52.1387z" fill="#eee" stroke="#000" stroke-width="1.5"/><path d="m10 141.4199h1123.3589v583.9844h-1123.3589z" fill="none" stroke="#000" stroke-width="1.5"/><text fill="#333" font-family="sans-serif" font-size="13" font-weight="bold" lengthAdjust="spacing" textLength="17.1387" x="25" y="154.9883">alt</text><text fill="#333" font-family="sans-serif" font-size="11" font-weight="bold" lengthAdjust="spacing" textLength="133.8262" x="87.1387" y="154.0547">[If Block Retrieval Fails]</text><path d="m57.7524 176.041-10 4 10 4-4-4z" fill="#666" stroke="#666"/><path d="m51.7524 180.041h267.4331" stroke="#666"/><text fill="#333" font-family="sans-serif" font-size="13" lengthAdjust="spacing" textLength="77.0796" x="63.7524" y="175.2988">Return error</text><path d="m10 189.041h1123.3589" stroke="#000" stroke-dasharray="2 2"/><text fill="#333" font-family="sans-serif" font-size="11" font-weight="bold" lengthAdjust="spacing" textLength="159.2852" x="15" y="199.6758">[If Block Retrieval Succeeds]</text><path d="m737.9087 220.3066 10 4-10 4 4-4z" fill="#666" stroke="#666"/><path d="m330.1855 224.3066h413.7232" stroke="#666"/><text fill="#333" font-family="sans-serif" font-size="13" lengthAdjust="spacing" textLength="189.4966" x="337.1855" y="219.5645">blockToJSON(block, verbosity)</text><path d="m271.9106 239.3066h62.1387v7.3106l-10 10h-52.1387z" fill="#eee" stroke="#000" stroke-width="1.5"/><path d="m271.9106 239.3066h851.4482v449.7871h-851.4482z" fill="none" stroke="#000" stroke-width="1.5"/><text fill="#333" font-family="sans-serif" font-size="13" font-weight="bold" lengthAdjust="spacing" textLength="17.1387" x="286.9106" y="252.875">alt</text><text fill="#333" font-family="sans-serif" font-size="11" font-weight="bold" lengthAdjust="spacing" textLength="84.3638" x="349.0493" y="251.9414">[verbosity = 0]</text><path d="m341.1855 284.583-10 4 10 4-4-4z" fill="#666" stroke="#666"/><path d="m335.1855 288.583h413.7232" stroke="#666" stroke-dasharray="2 2"/><text fill="#333" font-family="sans-serif" font-size="13" lengthAdjust="spacing" textLength="200.0718" x="347.1855" y="283.8408">Return hex-encoded block data</text><path d="m764 261.6172v40h252v-30l-10-10z" fill="#feffdd" stroke="#181818" stroke-width=".5"/><path d="m1006 261.6172v10h10z" fill="#feffdd" stroke="#181818" stroke-width=".5"/><text fill="#333" font-family="sans-serif" font-size="13" lengthAdjust="spacing" textLength="102.7686" x="770" y="279.1855">Response fields:</text><text fill="#333" font-family="sans-serif" font-size="13" lengthAdjust="spacing" textLength="231.9307" x="770" y="294.4961">- Hex-encoded serialized block data</text><path d="m271.9106 308.2383h851.4483" stroke="#000" stroke-dasharray="2 2"/><text fill="#333" font-family="sans-serif" font-size="11" font-weight="bold" lengthAdjust="spacing" textLength="110.897" x="276.9106" y="318.873">[verbosity = 1 or 2]</text><path d="m557.3018 339.5039-10 4 10 4-4-4z" fill="#666" stroke="#666"/><path d="m551.3018 343.5039h197.6069" stroke="#666"/><text fill="#333" font-family="sans-serif" font-size="13" lengthAdjust="spacing" textLength="138.1694" x="563.3018" y="338.7617">Get best block header</text><path d="m737.9087 368.8145 10 4-10 4 4-4z" fill="#666" stroke="#666"/><path d="m541.3018 372.8145h202.6069" stroke="#666" stroke-dasharray="2 2"/><text fill="#333" font-family="sans-serif" font-size="13" lengthAdjust="spacing" textLength="179.6069" x="548.3018" y="368.0723">Return header and metadata</text><path d="m557.3018 398.125-10 4 10 4-4-4z" fill="#666" stroke="#666"/><path d="m551.3018 402.125h197.6069" stroke="#666"/><text fill="#333" font-family="sans-serif" font-size="13" lengthAdjust="spacing" textLength="92.0537" x="563.3018" y="397.3828">Get next block</text><path d="m737.9087 427.4355 10 4-10 4 4-4z" fill="#666" stroke="#666"/><path d="m541.3018 431.4355h202.6069" stroke="#666" stroke-dasharray="2 2"/><text fill="#333" font-family="sans-serif" font-size="13" lengthAdjust="spacing" textLength="112.3345" x="548.3018" y="426.6934">Return next block</text><path d="m341.1855 566.9199-10 4 10 4-4-4z" fill="#666" stroke="#666"/><path d="m335.1855 570.9199h413.7232" stroke="#666" stroke-dasharray="2 2"/><text fill="#333" font-family="sans-serif" font-size="13" lengthAdjust="spacing" textLength="204.7119" x="347.1855" y="566.1777">Return formatted JSON response</text><path d="m764 444.4355v239h348v-229l-10-10z" fill="#feffdd" stroke="#181818" stroke-width=".5"/><path d="m1102 444.4355v10h10z" fill="#feffdd" stroke="#181818" stroke-width=".5"/><g fill="#333" font-family="sans-serif"><text font-size="13" lengthAdjust="spacing" textLength="102.7686" x="770" y="462.0039">Response fields:</text><text font-size="13" lengthAdjust="spacing" textLength="117.3364" x="770" y="477.3145">- hash: Block hash</text><text font-size="13" lengthAdjust="spacing" textLength="265.7764" x="770" y="492.625">- confirmations: Number of confirmations</text><text font-size="13" lengthAdjust="spacing" textLength="161.3701" x="770" y="507.9355">- size: Block size in bytes</text><text font-size="13" lengthAdjust="spacing" textLength="137.6616" x="770" y="523.2461">- height: Block height</text><text font-size="13" lengthAdjust="spacing" textLength="148.9097" x="770" y="538.5566">- version: Block version</text><text font-size="13" lengthAdjust="spacing" textLength="273.1079" x="770" y="553.8672">- versionHex: Block version in hexadecimal</text><text font-size="13" lengthAdjust="spacing" textLength="195.9902" x="770" y="569.1777">- merkleroot: Merkle root hash</text><text font-size="13" lengthAdjust="spacing" textLength="152.439" x="770" y="584.4883">- time: Block timestamp</text><text font-size="13" lengthAdjust="spacing" textLength="133.4976" x="770" y="599.7988">- nonce: Block nonce</text><text font-size="13" lengthAdjust="spacing" textLength="171.2725" x="770" y="615.1094">- bits: Target difficulty bits</text><text font-size="13" lengthAdjust="spacing" textLength="200.6494" x="770" y="630.4199">- difficulty: Calculated difficulty</text><text font-size="13" lengthAdjust="spacing" textLength="282.5215" x="770" y="645.7305">- previousblockhash: Hash of previous block</text><text font-size="13" lengthAdjust="spacing" textLength="230.9912" x="770" y="661.041">- nextblockhash: Hash of next block</text><text font-size="13" lengthAdjust="spacing" textLength="327.4502" x="770" y="676.3516">- tx: Array of transaction IDs (v1) or full tx data (v2)</text></g><path d="m57.7524 713.4043-10 4 10 4-4-4z" fill="#666" stroke="#666"/><path d="m51.7524 717.4043h267.4331" stroke="#666"/><text fill="#333" font-family="sans-serif" font-size="13" lengthAdjust="spacing" textLength="111.5918" x="63.7524" y="712.6621">Return block data</text><text fill="#333" font-family="sans-serif" font-size="10" lengthAdjust="spacing" textLength="155.4346" y="783.5605">Last Modified On: 24-Feb-2025</text></svg>
