<svg xmlns="http://www.w3.org/2000/svg" xmlns:xlink="http://www.w3.org/1999/xlink" contentStyleType="text/css" height="862px" preserveAspectRatio="none" style="width:1107px;height:862px;background:#F0F8FF;" version="1.1" viewBox="0 0 1107 862" width="1107px" zoomAndPan="magnify"><defs/><g><rect fill="#F0F8FF" height="862" style="stroke:none;stroke-width:1.0;" width="1107" x="0" y="0"/><rect fill="#FFFFFF" height="732.9629" style="stroke:#181818;stroke-width:1.0;" width="10" x="404.5977" y="67.7988"/><rect fill="#FFFFFF" height="29.3105" style="stroke:#181818;stroke-width:1.0;" width="10" x="664.0112" y="361.1934"/><rect fill="#FFFFFF" height="111.2422" style="stroke:#181818;stroke-width:1.0;" width="10" x="664.0112" y="488.3906"/><rect fill="none" height="626.3418" style="stroke:#000000;stroke-width:1.5;" width="1090.6699" x="10" y="167.4199"/><rect fill="none" height="508.4551" style="stroke:#000000;stroke-width:1.5;" width="1070.6699" x="20" y="278.3066"/><rect fill="none" height="374.2578" style="stroke:#000000;stroke-width:1.5;" width="1050.6699" x="30" y="405.5039"/><rect fill="none" height="67.9316" style="stroke:#000000;stroke-width:1.5;" width="455.5317" x="615.1382" y="503.3906"/><rect fill="none" height="158.1289" style="stroke:#000000;stroke-width:1.5;" width="532.2251" x="40" y="614.6328"/><line style="stroke:#181818;stroke-width:0.5;stroke-dasharray:5.0,5.0;" x1="76" x2="76" y1="36.4883" y2="810.7617"/><line style="stroke:#181818;stroke-width:0.5;stroke-dasharray:5.0,5.0;" x1="409.3228" x2="409.3228" y1="36.4883" y2="810.7617"/><line style="stroke:#181818;stroke-width:0.5;stroke-dasharray:5.0,5.0;" x1="668.1382" x2="668.1382" y1="36.4883" y2="810.7617"/><line style="stroke:#181818;stroke-width:0.5;stroke-dasharray:5.0,5.0;" x1="926.1675" x2="926.1675" y1="36.4883" y2="810.7617"/><rect fill="#DDDDDD" height="30.4883" rx="2.5" ry="2.5" style="stroke:#666666;stroke-width:0.5;" width="53.5049" x="50" y="5"/><text fill="#333333" font-family="sans-serif" font-size="14" lengthAdjust="spacing" textLength="39.5049" x="57" y="25.5352">Client</text><rect fill="#DDDDDD" height="30.4883" rx="2.5" ry="2.5" style="stroke:#666666;stroke-width:0.5;" width="53.5049" x="50" y="809.7617"/><text fill="#333333" font-family="sans-serif" font-size="14" lengthAdjust="spacing" textLength="39.5049" x="57" y="830.2969">Client</text><rect fill="#DDDDDD" height="30.4883" rx="2.5" ry="2.5" style="stroke:#666666;stroke-width:0.5;" width="86.5498" x="366.3228" y="5"/><text fill="#333333" font-family="sans-serif" font-size="14" lengthAdjust="spacing" textLength="72.5498" x="373.3228" y="25.5352">RPC Server</text><rect fill="#DDDDDD" height="30.4883" rx="2.5" ry="2.5" style="stroke:#666666;stroke-width:0.5;" width="86.5498" x="366.3228" y="809.7617"/><text fill="#333333" font-family="sans-serif" font-size="14" lengthAdjust="spacing" textLength="72.5498" x="373.3228" y="830.2969">RPC Server</text><rect fill="#DDDDDD" height="30.4883" rx="2.5" ry="2.5" style="stroke:#666666;stroke-width:0.5;" width="87.7461" x="625.1382" y="5"/><text fill="#333333" font-family="sans-serif" font-size="14" lengthAdjust="spacing" textLength="73.7461" x="632.1382" y="25.5352">Distributor</text><rect fill="#DDDDDD" height="30.4883" rx="2.5" ry="2.5" style="stroke:#666666;stroke-width:0.5;" width="87.7461" x="625.1382" y="809.7617"/><text fill="#333333" font-family="sans-serif" font-size="14" lengthAdjust="spacing" textLength="73.7461" x="632.1382" y="830.2969">Distributor</text><rect fill="#DDDDDD" height="30.4883" rx="2.5" ry="2.5" style="stroke:#666666;stroke-width:0.5;" width="163.6455" x="845.1675" y="5"/><text fill="#333333" font-family="sans-serif" font-size="14" lengthAdjust="spacing" textLength="149.6455" x="852.1675" y="25.5352">Propagation Service(s)</text><rect fill="#DDDDDD" height="30.4883" rx="2.5" ry="2.5" style="stroke:#666666;stroke-width:0.5;" width="163.6455" x="845.1675" y="809.7617"/><text fill="#333333" font-family="sans-serif" font-size="14" lengthAdjust="spacing" textLength="149.6455" x="852.1675" y="830.2969">Propagation Service(s)</text><rect fill="#FFFFFF" height="732.9629" style="stroke:#181818;stroke-width:1.0;" width="10" x="404.5977" y="67.7988"/><rect fill="#FFFFFF" height="29.3105" style="stroke:#181818;stroke-width:1.0;" width="10" x="664.0112" y="361.1934"/><rect fill="#FFFFFF" height="111.2422" style="stroke:#181818;stroke-width:1.0;" width="10" x="664.0112" y="488.3906"/><polygon fill="#666666" points="392.5977,63.7988,402.5977,67.7988,392.5977,71.7988,396.5977,67.7988" style="stroke:#666666;stroke-width:1.0;"/><line style="stroke:#666666;stroke-width:1.0;" x1="76.7524" x2="398.5977" y1="67.7988" y2="67.7988"/><text fill="#333333" font-family="sans-serif" font-size="13" lengthAdjust="spacing" textLength="308.8452" x="83.7524" y="63.0566">SendRawTransactionCmd(HexTx, AllowHighFees)</text><line style="stroke:#666666;stroke-width:1.0;" x1="414.5977" x2="456.5977" y1="97.1094" y2="97.1094"/><line style="stroke:#666666;stroke-width:1.0;" x1="456.5977" x2="456.5977" y1="97.1094" y2="110.1094"/><line style="stroke:#666666;stroke-width:1.0;" x1="415.5977" x2="456.5977" y1="110.1094" y2="110.1094"/><polygon fill="#666666" points="425.5977,106.1094,415.5977,110.1094,425.5977,114.1094,421.5977,110.1094" style="stroke:#666666;stroke-width:1.0;"/><text fill="#333333" font-family="sans-serif" font-size="13" lengthAdjust="spacing" textLength="158.7993" x="421.5977" y="92.3672">Prepend "0" if odd length</text><line style="stroke:#666666;stroke-width:1.0;" x1="414.5977" x2="456.5977" y1="139.4199" y2="139.4199"/><line style="stroke:#666666;stroke-width:1.0;" x1="456.5977" x2="456.5977" y1="139.4199" y2="152.4199"/><line style="stroke:#666666;stroke-width:1.0;" x1="415.5977" x2="456.5977" y1="152.4199" y2="152.4199"/><polygon fill="#666666" points="425.5977,148.4199,415.5977,152.4199,425.5977,156.4199,421.5977,152.4199" style="stroke:#666666;stroke-width:1.0;"/><text fill="#333333" font-family="sans-serif" font-size="13" lengthAdjust="spacing" textLength="160.4814" x="421.5977" y="134.6777">hex.DecodeString(hexStr)</text><path d="M10,167.4199 L72.1387,167.4199 L72.1387,174.7305 L62.1387,184.7305 L10,184.7305 L10,167.4199 " fill="#EEEEEE" style="stroke:#000000;stroke-width:1.5;"/><rect fill="none" height="626.3418" style="stroke:#000000;stroke-width:1.5;" width="1090.6699" x="10" y="167.4199"/><text fill="#333333" font-family="sans-serif" font-size="13" font-weight="bold" lengthAdjust="spacing" textLength="17.1387" x="25" y="180.9883">alt</text><text fill="#333333" font-family="sans-serif" font-size="11" font-weight="bold" lengthAdjust="spacing" textLength="128.3154" x="87.1387" y="180.0547">[If Hex Decoding Fails]</text><polygon fill="#666666" points="87.7524,202.041,77.7524,206.041,87.7524,210.041,83.7524,206.041" style="stroke:#666666;stroke-width:1.0;"/><line style="stroke:#666666;stroke-width:1.0;" x1="81.7524" x2="403.5977" y1="206.041" y2="206.041"/><text fill="#333333" font-family="sans-serif" font-size="13" lengthAdjust="spacing" textLength="168.8604" x="93.7524" y="201.2988">Return rpcDecodeHexError</text><line style="stroke:#000000;stroke-width:1.0;stroke-dasharray:2.0,2.0;" x1="10" x2="1100.6699" y1="215.041" y2="215.041"/><text fill="#333333" font-family="sans-serif" font-size="11" font-weight="bold" lengthAdjust="spacing" textLength="153.7744" x="15" y="225.6758">[If Hex Decoding Succeeds]</text><line style="stroke:#666666;stroke-width:1.0;" x1="414.5977" x2="456.5977" y1="250.3066" y2="250.3066"/><line style="stroke:#666666;stroke-width:1.0;" x1="456.5977" x2="456.5977" y1="250.3066" y2="263.3066"/><line style="stroke:#666666;stroke-width:1.0;" x1="415.5977" x2="456.5977" y1="263.3066" y2="263.3066"/><polygon fill="#666666" points="425.5977,259.3066,415.5977,263.3066,425.5977,267.3066,421.5977,263.3066" style="stroke:#666666;stroke-width:1.0;"/><text fill="#333333" font-family="sans-serif" font-size="13" lengthAdjust="spacing" textLength="210.793" x="421.5977" y="245.5645">bt.NewTxFromBytes(serializedTx)</text><path d="M20,278.3066 L82.1387,278.3066 L82.1387,285.6172 L72.1387,295.6172 L20,295.6172 L20,278.3066 " fill="#EEEEEE" style="stroke:#000000;stroke-width:1.5;"/><rect fill="none" height="508.4551" style="stroke:#000000;stroke-width:1.5;" width="1070.6699" x="20" y="278.3066"/><text fill="#333333" font-family="sans-serif" font-size="13" font-weight="bold" lengthAdjust="spacing" textLength="17.1387" x="35" y="291.875">alt</text><text fill="#333333" font-family="sans-serif" font-size="11" font-weight="bold" lengthAdjust="spacing" textLength="92.2593" x="97.1387" y="290.9414">[If Parsing Fails]</text><polygon fill="#666666" points="87.7524,312.9277,77.7524,316.9277,87.7524,320.9277,83.7524,316.9277" style="stroke:#666666;stroke-width:1.0;"/><line style="stroke:#666666;stroke-width:1.0;" x1="81.7524" x2="403.5977" y1="316.9277" y2="316.9277"/><text fill="#333333" font-family="sans-serif" font-size="13" lengthAdjust="spacing" textLength="181.9048" x="93.7524" y="312.1855">Return ErrRPCDeserialization</text><line style="stroke:#000000;stroke-width:1.0;stroke-dasharray:2.0,2.0;" x1="20" x2="1090.6699" y1="325.9277" y2="325.9277"/><text fill="#333333" font-family="sans-serif" font-size="11" font-weight="bold" lengthAdjust="spacing" textLength="117.7183" x="25" y="336.5625">[If Parsing Succeeds]</text><polygon fill="#666666" points="652.0112,357.1934,662.0112,361.1934,652.0112,365.1934,656.0112,361.1934" style="stroke:#666666;stroke-width:1.0;"/><line style="stroke:#666666;stroke-width:1.0;" x1="414.5977" x2="658.0112" y1="361.1934" y2="361.1934"/><text fill="#333333" font-family="sans-serif" font-size="13" lengthAdjust="spacing" textLength="230.4136" x="421.5977" y="356.4512">NewDistributor(ctx, logger, settings)</text><polygon fill="#666666" points="425.5977,386.5039,415.5977,390.5039,425.5977,394.5039,421.5977,390.5039" style="stroke:#666666;stroke-width:1.0;"/><line style="stroke:#666666;stroke-width:1.0;" x1="419.5977" x2="668.0112" y1="390.5039" y2="390.5039"/><text fill="#333333" font-family="sans-serif" font-size="13" lengthAdjust="spacing" textLength="219.21" x="431.5977" y="385.7617">return distributor instance or error</text><path d="M30,405.5039 L92.1387,405.5039 L92.1387,412.8145 L82.1387,422.8145 L30,422.8145 L30,405.5039 " fill="#EEEEEE" style="stroke:#000000;stroke-width:1.5;"/><rect fill="none" height="374.2578" style="stroke:#000000;stroke-width:1.5;" width="1050.6699" x="30" y="405.5039"/><text fill="#333333" font-family="sans-serif" font-size="13" font-weight="bold" lengthAdjust="spacing" textLength="17.1387" x="45" y="419.0723">alt</text><text fill="#333333" font-family="sans-serif" font-size="11" font-weight="bold" lengthAdjust="spacing" textLength="163.9795" x="107.1387" y="418.1387">[If Distributor Creation Fails]</text><polygon fill="#666666" points="87.7524,440.125,77.7524,444.125,87.7524,448.125,83.7524,444.125" style="stroke:#666666;stroke-width:1.0;"/><line style="stroke:#666666;stroke-width:1.0;" x1="81.7524" x2="403.5977" y1="444.125" y2="444.125"/><text fill="#333333" font-family="sans-serif" font-size="13" lengthAdjust="spacing" textLength="120.834" x="93.7524" y="439.3828">Return ServiceError</text><line style="stroke:#000000;stroke-width:1.0;stroke-dasharray:2.0,2.0;" x1="30" x2="1080.6699" y1="453.125" y2="453.125"/><text fill="#333333" font-family="sans-serif" font-size="11" font-weight="bold" lengthAdjust="spacing" textLength="123.2612" x="35" y="463.7598">[If Creation Succeeds]</text><polygon fill="#666666" points="652.0112,484.3906,662.0112,488.3906,652.0112,492.3906,656.0112,488.3906" style="stroke:#666666;stroke-width:1.0;"/><line style="stroke:#666666;stroke-width:1.0;" x1="414.5977" x2="658.0112" y1="488.3906" y2="488.3906"/><text fill="#333333" font-family="sans-serif" font-size="13" lengthAdjust="spacing" textLength="153.4292" x="421.5977" y="483.6484">SendTransaction(ctx, tx)</text><path d="M615.1382,503.3906 L689.585,503.3906 L689.585,510.7012 L679.585,520.7012 L615.1382,520.7012 L615.1382,503.3906 " fill="#EEEEEE" style="stroke:#000000;stroke-width:1.5;"/><rect fill="none" height="67.9316" style="stroke:#000000;stroke-width:1.5;" width="455.5317" x="615.1382" y="503.3906"/><text fill="#333333" font-family="sans-serif" font-size="13" font-weight="bold" lengthAdjust="spacing" textLength="29.4468" x="630.1382" y="516.959">loop</text><text fill="#333333" font-family="sans-serif" font-size="11" font-weight="bold" lengthAdjust="spacing" textLength="165.7788" x="704.585" y="516.0254">[for each Propagation server]</text><polygon fill="#666666" points="914.9902,548.667,924.9902,552.667,914.9902,556.667,918.9902,552.667" style="stroke:#666666;stroke-width:1.0;"/><line style="stroke:#666666;stroke-width:1.0;" x1="674.0112" x2="920.9902" y1="552.667" y2="552.667"/><text fill="#333333" font-family="sans-serif" font-size="13" lengthAdjust="spacing" textLength="228.979" x="681.0112" y="547.9248">ProcessTransaction(ctx, tx) via gRPC</text><path d="M931,525.7012 L931,565.7012 L1054,565.7012 L1054,535.7012 L1044,525.7012 L931,525.7012 " fill="#FEFFDD" style="stroke:#181818;stroke-width:0.5;"/><path d="M1044,525.7012 L1044,535.7012 L1054,535.7012 L1044,525.7012 " fill="#FEFFDD" style="stroke:#181818;stroke-width:0.5;"/><text fill="#333333" font-family="sans-serif" font-size="13" lengthAdjust="spacing" textLength="102.6797" x="937" y="543.2695">Concurrent calls</text><text fill="#333333" font-family="sans-serif" font-size="13" lengthAdjust="spacing" textLength="94.7324" x="937" y="558.5801">with retry logic</text><polygon fill="#666666" points="425.5977,595.6328,415.5977,599.6328,425.5977,603.6328,421.5977,599.6328" style="stroke:#666666;stroke-width:1.0;"/><line style="stroke:#666666;stroke-width:1.0;" x1="419.5977" x2="668.0112" y1="599.6328" y2="599.6328"/><text fill="#333333" font-family="sans-serif" font-size="13" lengthAdjust="spacing" textLength="216.9058" x="431.5977" y="594.8906">return ResponseWrapper[] or error</text><path d="M40,614.6328 L102.1387,614.6328 L102.1387,621.9434 L92.1387,631.9434 L40,631.9434 L40,614.6328 " fill="#EEEEEE" style="stroke:#000000;stroke-width:1.5;"/><rect fill="none" height="158.1289" style="stroke:#000000;stroke-width:1.5;" width="532.2251" x="40" y="614.6328"/><text fill="#333333" font-family="sans-serif" font-size="13" font-weight="bold" lengthAdjust="spacing" textLength="17.1387" x="55" y="628.2012">alt</text><text fill="#333333" font-family="sans-serif" font-size="11" font-weight="bold" lengthAdjust="spacing" textLength="144.4502" x="117.1387" y="627.2676">[If Too Many Servers Fail]</text><polygon fill="#666666" points="87.7524,649.2539,77.7524,653.2539,87.7524,657.2539,83.7524,653.2539" style="stroke:#666666;stroke-width:1.0;"/><line style="stroke:#666666;stroke-width:1.0;" x1="81.7524" x2="403.5977" y1="653.2539" y2="653.2539"/><text fill="#333333" font-family="sans-serif" font-size="13" lengthAdjust="spacing" textLength="193.064" x="93.7524" y="648.5117">Return ErrRPCInvalidParameter</text><line style="stroke:#000000;stroke-width:1.0;stroke-dasharray:2.0,2.0;" x1="40" x2="572.2251" y1="662.2539" y2="662.2539"/><text fill="#333333" font-family="sans-serif" font-size="11" font-weight="bold" lengthAdjust="spacing" textLength="149.8213" x="45" y="672.8887">[If Success Threshold Met]</text><polygon fill="#666666" points="87.7524,727.1406,77.7524,731.1406,87.7524,735.1406,83.7524,731.1406" style="stroke:#666666;stroke-width:1.0;"/><line style="stroke:#666666;stroke-width:1.0;" x1="81.7524" x2="403.5977" y1="731.1406" y2="731.1406"/><text fill="#333333" font-family="sans-serif" font-size="13" lengthAdjust="spacing" textLength="167.0894" x="93.7524" y="726.3984">Return ResponseWrapper[]</text><path d="M419,681.209 L419,767.209 L561,767.209 L561,691.209 L551,681.209 L419,681.209 " fill="#FEFFDD" style="stroke:#181818;stroke-width:0.5;"/><path d="M551,681.209 L551,691.209 L561,691.209 L551,681.209 " fill="#FEFFDD" style="stroke:#181818;stroke-width:0.5;"/><text fill="#333333" font-family="sans-serif" font-size="13" lengthAdjust="spacing" textLength="121.6274" x="425" y="698.7773">Response contains:</text><text fill="#333333" font-family="sans-serif" font-size="13" lengthAdjust="spacing" textLength="117.8315" x="425" y="714.0879">- Server addresses</text><text fill="#333333" font-family="sans-serif" font-size="13" lengthAdjust="spacing" textLength="73.2393" x="425" y="729.3984">- Durations</text><text fill="#333333" font-family="sans-serif" font-size="13" lengthAdjust="spacing" textLength="90.4541" x="425" y="744.709">- Retry counts</text><text fill="#333333" font-family="sans-serif" font-size="13" lengthAdjust="spacing" textLength="77.3906" x="425" y="760.0195">- Any errors</text><text fill="#333333" font-family="sans-serif" font-size="10" lengthAdjust="spacing" textLength="157.5488" x="0" y="851.918">Last Modified On: 04-Aug-2025</text><!--SRC=[fLLHYnen47xFhnWifGhdKIYKuaFXJc-vWzgA9_IXxKFSZ6kuc2n9FBMb_xsJxAxDtdfoj05rDpFpvSitNw9xaBhabczWoVE7mfgj5cEZZ8LNsTliGvOnTymGkE9RvJEZVPtoBeuaXLjhTdNmVHoClO49hgH6M1ehq3fOKPGh1QXmWzgxf9vUfJ_0BmPm7RFRM3JxbEKa3lQR9IWvCRH6_IyCVNkPov9h_szGZAKGOoLfUwsftdmsXdkqZsXxm1tGQpi-aSvRkTnwKoKax-t4cJKbBxYNHaT0cMFV3M9D4cAi8W73Zs4j656k5dE-MrYk7Sz3pdWZ-hUuN-mlu4efixkLnJf3T0CMue_SOwJ9GlqHPcQn92JelUs1N84H0XJgmg_RQMlSNqumDmBlQHkwwDC4FGqOuyh3tGfeOOW958ICI-L8OO0Qf2O_WZdwhTLWoxn2ex8RSfvbg1nsSEwtUOueMb0LdwM__8oxnJwpPdDzyEZw3gtaIlv4iTWJhL1HKvjnwzgipZ0ZDXIPO0DNgHyA6eODN8jSWfXqcc29PJBHpprrHvcYG7i13hqd96fG0t5iL6gN9fW27uMm5MsHnAHsdkiSWPunYjiW23ovmD_bAy7IXSOMAs-srJkZO6tYczRAZNX7k8vwpoeOZ9wul9BGxmUjohF2XQ6CAUFzHHAiqvD5NGYdk9LyGksq8fmQawDpfsZ1e-HGX8Fs554RucVfKFeHZ8tEjzO6uNAwKTrtlPD-7Rff3y4VCc-LamJi3BcM5UReIgCTVhMyBD5- -z7rmKkyaFXXOGnCkJxK5vwBNkXix-o1kjEFT9h4B5pFw9_8tPWZUi8vMAmjkhLH0gReNxfEPzjdzEzYriNn3uZJ0HfrKeRrxe4BGVGSkXCfawsD5ZaLcyVUvlH_uq-5hqZVsALkCDpFWVopbcYUms_uiAIvySfNkFBaViAmy8ax3rEwO5SI1NpH8tWjAB7V4s8udKw71ngz0Vi3]--></g></svg>
