<svg contentStyleType="text/css" height="527" preserveAspectRatio="none" viewBox="0 0 646 527" width="646" xmlns="http://www.w3.org/2000/svg" zoomAndPan="magnify"><path d="m0 0h646v527h-646z" fill="#f0f8ff"/><path d="m273.896 67.7988h10v390.3477h-10z" fill="#fff" stroke="#181818"/><path d="m474.376 97.1094h10v29.3105h-10z" fill="#fff" stroke="#181818"/><path d="m594.3286 155.7305h10v29.3105h-10z" fill="#fff" stroke="#181818"/><path d="m225.6211 296.5938h243.0845v59.6211h-243.0845z" fill="none" stroke="#000" stroke-width="1.5"/><path d="m225.6211 370.2148h176.9116v59.6211h-176.9116z" fill="none" stroke="#000" stroke-width="1.5"/><g stroke-width=".5"><path d="m31 36.4883v439.6582" stroke="#181818" stroke-dasharray="5 5"/><path d="m278.6211 36.4883v439.6582" stroke="#181818" stroke-dasharray="5 5"/><path d="m478.5552 36.4883v439.6582" stroke="#181818" stroke-dasharray="5 5"/><path d="m599.1968 36.4883v439.6582" stroke="#181818" stroke-dasharray="5 5"/><rect fill="#ddd" height="30.4883" rx="2.5" stroke="#666" width="53.5049" x="5" y="5"/></g><text fill="#333" font-family="sans-serif" font-size="14" lengthAdjust="spacing" textLength="39.5049" x="12" y="25.5352">Client</text><rect fill="#ddd" height="30.4883" rx="2.5" stroke="#666" stroke-width=".5" width="53.5049" x="5" y="475.1465"/><text fill="#333" font-family="sans-serif" font-size="14" lengthAdjust="spacing" textLength="39.5049" x="12" y="495.6816">Client</text><rect fill="#ddd" height="30.4883" rx="2.5" stroke="#666" stroke-width=".5" width="86.5498" x="235.6211" y="5"/><text fill="#333" font-family="sans-serif" font-size="14" lengthAdjust="spacing" textLength="72.5498" x="242.6211" y="25.5352">RPC Server</text><rect fill="#ddd" height="30.4883" rx="2.5" stroke="#666" stroke-width=".5" width="86.5498" x="235.6211" y="475.1465"/><text fill="#333" font-family="sans-serif" font-size="14" lengthAdjust="spacing" textLength="72.5498" x="242.6211" y="495.6816">RPC Server</text><rect fill="#ddd" height="30.4883" rx="2.5" stroke="#666" stroke-width=".5" width="137.6416" x="410.5552" y="5"/><text fill="#333" font-family="sans-serif" font-size="14" lengthAdjust="spacing" textLength="123.6416" x="417.5552" y="25.5352">Legacy Peer Client</text><rect fill="#ddd" height="30.4883" rx="2.5" stroke="#666" stroke-width=".5" width="137.6416" x="410.5552" y="475.1465"/><text fill="#333" font-family="sans-serif" font-size="14" lengthAdjust="spacing" textLength="123.6416" x="417.5552" y="495.6816">Legacy Peer Client</text><rect fill="#ddd" height="30.4883" rx="2.5" stroke="#666" stroke-width=".5" width="82.2637" x="558.1968" y="5"/><text fill="#333" font-family="sans-serif" font-size="14" lengthAdjust="spacing" textLength="68.2637" x="565.1968" y="25.5352">P2P Client</text><rect fill="#ddd" height="30.4883" rx="2.5" stroke="#666" stroke-width=".5" width="82.2637" x="558.1968" y="475.1465"/><text fill="#333" font-family="sans-serif" font-size="14" lengthAdjust="spacing" textLength="68.2637" x="565.1968" y="495.6816">P2P Client</text><path d="m273.896 67.7988h10v390.3477h-10z" fill="#fff" stroke="#181818"/><path d="m474.376 97.1094h10v29.3105h-10z" fill="#fff" stroke="#181818"/><path d="m594.3286 155.7305h10v29.3105h-10z" fill="#fff" stroke="#181818"/><path d="m261.896 63.7988 10 4-10 4 4-4z" fill="#666" stroke="#666"/><path d="m31.7524 67.7988h236.1436" stroke="#666"/><text fill="#333" font-family="sans-serif" font-size="13" lengthAdjust="spacing" textLength="140.1943" x="38.7524" y="63.0566">Request: GetPeerInfo()</text><path d="m462.376 93.1094 10 4-10 4 4-4z" fill="#666" stroke="#666"/><path d="m283.896 97.1094h184.48" stroke="#666"/><text fill="#333" font-family="sans-serif" font-size="13" lengthAdjust="spacing" textLength="63.5718" x="290.896" y="92.3672">GetPeers()</text><path d="m294.896 122.4199-10 4 10 4-4-4z" fill="#666" stroke="#666"/><path d="m288.896 126.4199h189.48" stroke="#666" stroke-dasharray="2 2"/><text fill="#333" font-family="sans-serif" font-size="13" lengthAdjust="spacing" textLength="100.5405" x="300.896" y="121.6777">legacy peer info</text><path d="m582.3286 151.7305 10 4-10 4 4-4z" fill="#666" stroke="#666"/><path d="m283.896 155.7305h304.4326" stroke="#666"/><text fill="#333" font-family="sans-serif" font-size="13" lengthAdjust="spacing" textLength="63.5718" x="290.896" y="150.9883">GetPeers()</text><path d="m294.896 181.041-10 4 10 4-4-4z" fill="#666" stroke="#666"/><path d="m288.896 185.041h309.4326" stroke="#666" stroke-dasharray="2 2"/><text fill="#333" font-family="sans-serif" font-size="13" lengthAdjust="spacing" textLength="86.1313" x="300.896" y="180.2988">new peer info</text><path d="m283.896 241.4727h42" stroke="#666"/><path d="m325.896 241.4727v13" stroke="#666"/><path d="m284.896 254.4727h41" stroke="#666"/><path d="m294.896 250.4727-10 4 10 4-4-4z" fill="#666" stroke="#666"/><text fill="#333" font-family="sans-serif" font-size="13" lengthAdjust="spacing" textLength="166.48" x="290.896" y="236.7305">Combine peer information</text><path d="m478.48 198.041v86h147v-76l-10-10z" fill="#feffdd" stroke="#181818" stroke-width=".5"/><path d="m615.48 198.041v10h10z" fill="#feffdd" stroke="#181818" stroke-width=".5"/><text fill="#333" font-family="sans-serif" font-size="13" lengthAdjust="spacing" textLength="89.7495" x="484.48" y="215.6094">For each peer:</text><text fill="#333" font-family="sans-serif" font-size="13" lengthAdjust="spacing" textLength="126.7119" x="484.48" y="230.9199">- connection details</text><text fill="#333" font-family="sans-serif" font-size="13" lengthAdjust="spacing" textLength="96.9985" x="484.48" y="246.2305">- network stats</text><text fill="#333" font-family="sans-serif" font-size="13" lengthAdjust="spacing" textLength="86.0679" x="484.48" y="261.541">- version info</text><text fill="#333" font-family="sans-serif" font-size="13" lengthAdjust="spacing" textLength="71.1128" x="484.48" y="276.8516">- state info</text><path d="m225.6211 296.5938h62.1387v7.3105l-10 10h-52.1387z" fill="#eee" stroke="#000" stroke-width="1.5"/><path d="m225.6211 296.5938h243.0845v59.6211h-243.0845z" fill="none" stroke="#000" stroke-width="1.5"/><text fill="#333" font-family="sans-serif" font-size="13" font-weight="bold" lengthAdjust="spacing" textLength="17.1387" x="240.6211" y="310.1621">alt</text><text fill="#333" font-family="sans-serif" font-size="11" font-weight="bold" lengthAdjust="spacing" textLength="141.1201" x="302.7598" y="309.2285">[If Legacy Peer info fails]</text><path d="m283.896 335.2148h42" stroke="#666"/><path d="m325.896 335.2148v13" stroke="#666"/><path d="m284.896 348.2148h41" stroke="#666"/><path d="m294.896 344.2148-10 4 10 4-4-4z" fill="#666" stroke="#666"/><text fill="#333" font-family="sans-serif" font-size="13" lengthAdjust="spacing" textLength="155.8096" x="290.896" y="330.4727">Log as info (non-critical)</text><path d="m225.6211 370.2148h62.1387v7.3106l-10 10h-52.1387z" fill="#eee" stroke="#000" stroke-width="1.5"/><path d="m225.6211 370.2148h176.9116v59.6211h-176.9116z" fill="none" stroke="#000" stroke-width="1.5"/><text fill="#333" font-family="sans-serif" font-size="13" font-weight="bold" lengthAdjust="spacing" textLength="17.1387" x="240.6211" y="383.7832">alt</text><text fill="#333" font-family="sans-serif" font-size="11" font-weight="bold" lengthAdjust="spacing" textLength="94.7729" x="302.7598" y="382.8496">[If P2P info fails]</text><path d="m283.896 408.8359h42" stroke="#666"/><path d="m325.896 408.8359v13" stroke="#666"/><path d="m284.896 421.8359h41" stroke="#666"/><path d="m294.896 417.8359-10 4 10 4-4-4z" fill="#666" stroke="#666"/><text fill="#333" font-family="sans-serif" font-size="13" lengthAdjust="spacing" textLength="76.2417" x="290.896" y="404.0938">Log as error</text><path d="m42.7524 454.1465-10 4 10 4-4-4z" fill="#666" stroke="#666"/><path d="m36.7524 458.1465h241.1436" stroke="#666"/><text fill="#333" font-family="sans-serif" font-size="13" lengthAdjust="spacing" textLength="218.1436" x="48.7524" y="453.4043">Response with combined peer info</text><text fill="#333" font-family="sans-serif" font-size="10" lengthAdjust="spacing" textLength="155.4346" y="517.3027">Last Modified On: 24-Feb-2025</text></svg>
