<svg contentStyleType="text/css" height="482" preserveAspectRatio="none" viewBox="0 0 848 482" width="848" xmlns="http://www.w3.org/2000/svg" zoomAndPan="magnify"><path d="m0 0h848v482h-848z" fill="#f0f8ff"/><path d="m225.7368 93.7646h10v327.0264h-10z" fill="#fff" stroke="#181818"/><path d="m436.9717 159.6963h10v137.8525h-10z" fill="#fff" stroke="#181818"/><path d="m10 185.3516h831.6104v228.4395h-831.6104z" fill="none" stroke="#000" stroke-width="1.5"/><g stroke-width=".5"><path d="m46 36.4883v394.3027" stroke="#181818" stroke-dasharray="5 5"/><path d="m230.4619 36.4883v394.3027" stroke="#181818" stroke-dasharray="5 5"/><path d="m441.8149 36.4883v394.3027" stroke="#181818" stroke-dasharray="5 5"/><rect fill="#ddd" height="30.4883" rx="2.5" stroke="#666" width="53.5049" x="20" y="5"/></g><text fill="#333" font-family="sans-serif" font-size="14" lengthAdjust="spacing" textLength="39.5049" x="27" y="25.5352">Client</text><rect fill="#ddd" height="30.4883" rx="2.5" stroke="#666" stroke-width=".5" width="53.5049" x="20" y="429.791"/><text fill="#333" font-family="sans-serif" font-size="14" lengthAdjust="spacing" textLength="39.5049" x="27" y="450.3262">Client</text><rect fill="#ddd" height="30.4883" rx="2.5" stroke="#666" stroke-width=".5" width="86.5498" x="187.4619" y="5"/><text fill="#333" font-family="sans-serif" font-size="14" lengthAdjust="spacing" textLength="72.5498" x="194.4619" y="25.5352">RPC Server</text><rect fill="#ddd" height="30.4883" rx="2.5" stroke="#666" stroke-width=".5" width="86.5498" x="187.4619" y="429.791"/><text fill="#333" font-family="sans-serif" font-size="14" lengthAdjust="spacing" textLength="72.5498" x="194.4619" y="450.3262">RPC Server</text><rect fill="#ddd" height="30.4883" rx="2.5" stroke="#666" stroke-width=".5" width="130.3135" x="376.8149" y="5"/><text fill="#333" font-family="sans-serif" font-size="14" lengthAdjust="spacing" textLength="116.3135" x="383.8149" y="25.5352">Blockchain Client</text><rect fill="#ddd" height="30.4883" rx="2.5" stroke="#666" stroke-width=".5" width="130.3135" x="376.8149" y="429.791"/><text fill="#333" font-family="sans-serif" font-size="14" lengthAdjust="spacing" textLength="116.3135" x="383.8149" y="450.3262">Blockchain Client</text><path d="m225.7368 93.7646h10v327.0264h-10z" fill="#fff" stroke="#181818"/><path d="m436.9717 159.6963h10v137.8525h-10z" fill="#fff" stroke="#181818"/><path d="m213.7368 89.7646 10 4-10 4 4-4z" fill="#666" stroke="#666"/><path d="m46.7524 93.7646h172.9844" stroke="#666"/><text fill="#333" font-family="sans-serif" font-size="13" lengthAdjust="spacing" textLength="159.396" x="53.7524" y="89.0225">GetBlockHashCmd(index)</text><path d="m240 51.4883v71h312v-61l-10-10z" fill="#feffdd" stroke="#181818" stroke-width=".5"/><path d="m542 51.4883v10h10z" fill="#feffdd" stroke="#181818" stroke-width=".5"/><text fill="#333" font-family="sans-serif" font-size="13" lengthAdjust="spacing" textLength="45.3604" x="246" y="69.0566">Traces:</text><text fill="#333" font-family="sans-serif" font-size="13" lengthAdjust="spacing" textLength="108.0244" x="246" y="84.3672">- Parent: RPCStat</text><text fill="#333" font-family="sans-serif" font-size="13" lengthAdjust="spacing" textLength="291.5098" x="246" y="99.6777">- Histogram: prometheusHandleGetBlockHash</text><text fill="#333" font-family="sans-serif" font-size="13" lengthAdjust="spacing" textLength="230.8452" x="246" y="114.9883">- Log: "[handleGetBlockHash] called"</text><path d="m424.9717 155.6963 10 4-10 4 4-4z" fill="#666" stroke="#666"/><path d="m235.7368 159.6963h195.2349" stroke="#666"/><text fill="#333" font-family="sans-serif" font-size="13" lengthAdjust="spacing" textLength="182.2349" x="242.7368" y="154.9541">GetBlockByHeight(ctx, index)</text><path d="m451 132.7305v40h208v-30l-10-10z" fill="#feffdd" stroke="#181818" stroke-width=".5"/><path d="m649 132.7305v10h10z" fill="#feffdd" stroke="#181818" stroke-width=".5"/><text fill="#333" font-family="sans-serif" font-size="13" lengthAdjust="spacing" textLength="105.8154" x="457" y="150.2988">Input parameter:</text><text fill="#333" font-family="sans-serif" font-size="13" lengthAdjust="spacing" textLength="187.2495" x="457" y="165.6094">- index: uint32 (block height)</text><path d="m10 185.3516h62.1387v7.3105l-10 10h-52.1387z" fill="#eee" stroke="#000" stroke-width="1.5"/><path d="m10 185.3516h831.6104v228.4395h-831.6104z" fill="none" stroke="#000" stroke-width="1.5"/><text fill="#333" font-family="sans-serif" font-size="13" font-weight="bold" lengthAdjust="spacing" textLength="17.1387" x="25" y="198.9199">alt</text><text fill="#333" font-family="sans-serif" font-size="11" font-weight="bold" lengthAdjust="spacing" textLength="133.8262" x="87.1387" y="197.9863">[If Block Retrieval Fails]</text><path d="m246.7368 219.9727-10 4 10 4-4-4z" fill="#666" stroke="#666"/><path d="m240.7368 223.9727h195.2349" stroke="#666" stroke-dasharray="2 2"/><text fill="#333" font-family="sans-serif" font-size="13" lengthAdjust="spacing" textLength="77.0796" x="252.7368" y="219.2305">Return error</text><path d="m57.7524 249.2832-10 4 10 4-4-4z" fill="#666" stroke="#666"/><path d="m51.7524 253.2832h172.9844" stroke="#666"/><text fill="#333" font-family="sans-serif" font-size="13" lengthAdjust="spacing" textLength="77.0796" x="63.7524" y="248.541">Return error</text><path d="m10 262.2832h831.6104" stroke="#000" stroke-dasharray="2 2"/><text fill="#333" font-family="sans-serif" font-size="11" font-weight="bold" lengthAdjust="spacing" textLength="159.2852" x="15" y="272.918">[If Block Retrieval Succeeds]</text><path d="m246.7368 293.5488-10 4 10 4-4-4z" fill="#666" stroke="#666"/><path d="m240.7368 297.5488h200.2349" stroke="#666" stroke-dasharray="2 2"/><text fill="#333" font-family="sans-serif" font-size="13" lengthAdjust="spacing" textLength="80.0757" x="252.7368" y="292.8066">Return block</text><path d="m235.7368 326.8594h42" stroke="#666"/><path d="m277.7368 326.8594v13" stroke="#666"/><path d="m236.7368 339.8594h41" stroke="#666"/><path d="m246.7368 335.8594-10 4 10 4-4-4z" fill="#666" stroke="#666"/><text fill="#333" font-family="sans-serif" font-size="13" lengthAdjust="spacing" textLength="116.251" x="242.7368" y="322.1172">Extract block hash</text><path d="m57.7524 383.4805-10 4 10 4-4-4z" fill="#666" stroke="#666"/><path d="m51.7524 387.4805h172.9844" stroke="#666"/><text fill="#333" font-family="sans-serif" font-size="13" lengthAdjust="spacing" textLength="154.9844" x="63.7524" y="382.7383">Return block hash string</text><path d="m240 352.8594v55h590v-45l-10-10z" fill="#feffdd" stroke="#181818" stroke-width=".5"/><path d="m820 352.8594v10h10z" fill="#feffdd" stroke="#181818" stroke-width=".5"/><text fill="#333" font-family="sans-serif" font-size="13" lengthAdjust="spacing" textLength="102.7686" x="246" y="370.4277">Response fields:</text><text fill="#333" font-family="sans-serif" font-size="13" lengthAdjust="spacing" textLength="304.4907" x="246" y="385.7383">- String containing the hex-encoded block hash</text><text fill="#333" font-family="sans-serif" font-size="13" lengthAdjust="spacing" textLength="569.8735" x="246" y="401.0488">Example: "000000000019d6689c085ae165831e934ff763ae46a2a6c172b3f1b60a8ce26f"</text><text fill="#333" font-family="sans-serif" font-size="10" lengthAdjust="spacing" textLength="155.4346" y="471.9473">Last Modified On: 24-Feb-2025</text></svg>
