<svg contentStyleType="text/css" height="498" preserveAspectRatio="none" viewBox="0 0 826 498" width="826" xmlns="http://www.w3.org/2000/svg" zoomAndPan="magnify"><path d="m0 0h826v498h-826z" fill="#f0f8ff"/><path d="m315.8081 67.7988h10v369.3262h-10z" fill="#fff" stroke="#181818"/><path d="m562.5264 97.1094h10v29.3105h-10z" fill="#fff" stroke="#181818"/><path d="m723.0195 266.6172h10v29.3105h-10z" fill="#fff" stroke="#181818"/><path d="m10 141.4199h809.7158v288.7051h-809.7158z" fill="none" stroke="#000" stroke-width="1.5"/><path d="m20 310.9277h494.3359v112.1973h-494.3359z" fill="none" stroke="#000" stroke-width="1.5"/><g stroke-width=".5"><path d="m56 36.4883v410.6367" stroke="#181818" stroke-dasharray="5 5"/><path d="m320.5332 36.4883v410.6367" stroke="#181818" stroke-dasharray="5 5"/><path d="m566.7295 36.4883v410.6367" stroke="#181818" stroke-dasharray="5 5"/><path d="m727.3232 36.4883v410.6367" stroke="#181818" stroke-dasharray="5 5"/><rect fill="#ddd" height="30.4883" rx="2.5" stroke="#666" width="53.5049" x="30" y="5"/></g><text fill="#333" font-family="sans-serif" font-size="14" lengthAdjust="spacing" textLength="39.5049" x="37" y="25.5352">Client</text><rect fill="#ddd" height="30.4883" rx="2.5" stroke="#666" stroke-width=".5" width="53.5049" x="30" y="446.125"/><text fill="#333" font-family="sans-serif" font-size="14" lengthAdjust="spacing" textLength="39.5049" x="37" y="466.6602">Client</text><rect fill="#ddd" height="30.4883" rx="2.5" stroke="#666" stroke-width=".5" width="86.5498" x="277.5332" y="5"/><text fill="#333" font-family="sans-serif" font-size="14" lengthAdjust="spacing" textLength="72.5498" x="284.5332" y="25.5352">RPC Server</text><rect fill="#ddd" height="30.4883" rx="2.5" stroke="#666" stroke-width=".5" width="86.5498" x="277.5332" y="446.125"/><text fill="#333" font-family="sans-serif" font-size="14" lengthAdjust="spacing" textLength="72.5498" x="284.5332" y="466.6602">RPC Server</text><rect fill="#ddd" height="30.4883" rx="2.5" stroke="#666" stroke-width=".5" width="137.5938" x="498.7295" y="5"/><text fill="#333" font-family="sans-serif" font-size="14" lengthAdjust="spacing" textLength="123.5938" x="505.7295" y="25.5352">JSON Unmarshaler</text><rect fill="#ddd" height="30.4883" rx="2.5" stroke="#666" stroke-width=".5" width="137.5938" x="498.7295" y="446.125"/><text fill="#333" font-family="sans-serif" font-size="14" lengthAdjust="spacing" textLength="123.5938" x="505.7295" y="466.6602">JSON Unmarshaler</text><rect fill="#ddd" height="30.4883" rx="2.5" stroke="#666" stroke-width=".5" width="163.3926" x="646.3232" y="5"/><text fill="#333" font-family="sans-serif" font-size="14" lengthAdjust="spacing" textLength="149.3926" x="653.3232" y="25.5352">Block Assembly Client</text><rect fill="#ddd" height="30.4883" rx="2.5" stroke="#666" stroke-width=".5" width="163.3926" x="646.3232" y="446.125"/><text fill="#333" font-family="sans-serif" font-size="14" lengthAdjust="spacing" textLength="149.3926" x="653.3232" y="466.6602">Block Assembly Client</text><path d="m315.8081 67.7988h10v369.3262h-10z" fill="#fff" stroke="#181818"/><path d="m562.5264 97.1094h10v29.3105h-10z" fill="#fff" stroke="#181818"/><path d="m723.0195 266.6172h10v29.3105h-10z" fill="#fff" stroke="#181818"/><path d="m303.8081 63.7988 10 4-10 4 4-4z" fill="#666" stroke="#666"/><path d="m56.7524 67.7988h253.0557" stroke="#666"/><text fill="#333" font-family="sans-serif" font-size="13" lengthAdjust="spacing" textLength="240.0557" x="63.7524" y="63.0566">SubmitMiningSolutionCmd(JsonString)</text><path d="m550.5264 93.1094 10 4-10 4 4-4z" fill="#666" stroke="#666"/><path d="m325.8081 97.1094h230.7183" stroke="#666"/><text fill="#333" font-family="sans-serif" font-size="13" lengthAdjust="spacing" textLength="217.7183" x="332.8081" y="92.3672">Unmarshal JSON to MiningSolution</text><path d="m336.8081 122.4199-10 4 10 4-4-4z" fill="#666" stroke="#666"/><path d="m330.8081 126.4199h235.7183" stroke="#666" stroke-dasharray="2 2"/><text fill="#333" font-family="sans-serif" font-size="13" lengthAdjust="spacing" textLength="190.1504" x="342.8081" y="121.6777">return MiningSolution or error</text><path d="m10 141.4199h62.1387v7.3106l-10 10h-52.1387z" fill="#eee" stroke="#000" stroke-width="1.5"/><path d="m10 141.4199h809.7158v288.7051h-809.7158z" fill="none" stroke="#000" stroke-width="1.5"/><text fill="#333" font-family="sans-serif" font-size="13" font-weight="bold" lengthAdjust="spacing" textLength="17.1387" x="25" y="154.9883">alt</text><text fill="#333" font-family="sans-serif" font-size="11" font-weight="bold" lengthAdjust="spacing" textLength="160.7944" x="87.1387" y="154.0547">[If JSON Unmarshaling Fails]</text><path d="m67.7524 176.041-10 4 10 4-4-4z" fill="#666" stroke="#666"/><path d="m61.7524 180.041h253.0557" stroke="#666"/><text fill="#333" font-family="sans-serif" font-size="13" lengthAdjust="spacing" textLength="167.5273" x="73.7524" y="175.2988">Return unmarshaling error</text><path d="m10 189.041h809.7158" stroke="#000" stroke-dasharray="2 2"/><text fill="#333" font-family="sans-serif" font-size="11" font-weight="bold" lengthAdjust="spacing" textLength="186.2534" x="15" y="199.6758">[If JSON Unmarshaling Succeeds]</text><path d="m325.8081 224.3066h42" stroke="#666"/><path d="m367.8081 224.3066v13" stroke="#666"/><path d="m326.8081 237.3066h41" stroke="#666"/><path d="m336.8081 233.3066-10 4 10 4-4-4z" fill="#666" stroke="#666"/><text fill="#333" font-family="sans-serif" font-size="13" lengthAdjust="spacing" textLength="144.9297" x="332.8081" y="219.5645">Log debug information</text><path d="m711.0195 262.6172 10 4-10 4 4-4z" fill="#666" stroke="#666"/><path d="m325.8081 266.6172h391.2114" stroke="#666"/><text fill="#333" font-family="sans-serif" font-size="13" lengthAdjust="spacing" textLength="253.8936" x="332.8081" y="261.875">SubmitMiningSolution(context, solution)</text><path d="m336.8081 291.9277-10 4 10 4-4-4z" fill="#666" stroke="#666"/><path d="m330.8081 295.9277h396.2114" stroke="#666" stroke-dasharray="2 2"/><text fill="#333" font-family="sans-serif" font-size="13" lengthAdjust="spacing" textLength="131.5869" x="342.8081" y="291.1855">return result or error</text><path d="m20 310.9277h62.1387v7.3106l-10 10h-52.1387z" fill="#eee" stroke="#000" stroke-width="1.5"/><path d="m20 310.9277h494.3359v112.1973h-494.3359z" fill="none" stroke="#000" stroke-width="1.5"/><text fill="#333" font-family="sans-serif" font-size="13" font-weight="bold" lengthAdjust="spacing" textLength="17.1387" x="35" y="324.4961">alt</text><text fill="#333" font-family="sans-serif" font-size="11" font-weight="bold" lengthAdjust="spacing" textLength="115.0757" x="97.1387" y="323.5625">[If Submission Fails]</text><path d="m67.7524 345.5488-10 4 10 4-4-4z" fill="#666" stroke="#666"/><path d="m61.7524 349.5488h253.0557" stroke="#666"/><text fill="#333" font-family="sans-serif" font-size="13" lengthAdjust="spacing" textLength="153.0293" x="73.7524" y="344.8066">Return submission error</text><path d="m20 358.5488h494.3359" stroke="#000" stroke-dasharray="2 2"/><text fill="#333" font-family="sans-serif" font-size="11" font-weight="bold" lengthAdjust="spacing" textLength="140.5347" x="25" y="369.1836">[If Submission Succeeds]</text><path d="m67.7524 400.4697-10 4 10 4-4-4z" fill="#666" stroke="#666"/><path d="m61.7524 404.4697h253.0557" stroke="#666"/><text fill="#333" font-family="sans-serif" font-size="13" lengthAdjust="spacing" textLength="122.5542" x="73.7524" y="399.7275">Return nil (success)</text><path d="m330 377.5039v40h173v-30l-10-10z" fill="#feffdd" stroke="#181818" stroke-width=".5"/><path d="m493 377.5039v10h10z" fill="#feffdd" stroke="#181818" stroke-width=".5"/><text fill="#333" font-family="sans-serif" font-size="13" lengthAdjust="spacing" textLength="102.7686" x="336" y="395.0723">Response fields:</text><text fill="#333" font-family="sans-serif" font-size="13" lengthAdjust="spacing" textLength="152.5278" x="336" y="410.3828">- Returns nil on success</text><text fill="#333" font-family="sans-serif" font-size="10" lengthAdjust="spacing" textLength="155.4346" y="488.2813">Last Modified On: 24-Feb-2025</text></svg>
