<svg contentStyleType="text/css" height="352" preserveAspectRatio="none" viewBox="0 0 589 352" width="589" xmlns="http://www.w3.org/2000/svg" zoomAndPan="magnify"><path d="m0 0h589v352h-589z" fill="#f0f8ff"/><path d="m247.4961 67.7988h10v215.1055h-10z" fill="#fff" stroke="#181818"/><path d="m485.7065 97.1094h10v29.3105h-10z" fill="#fff" stroke="#181818"/><path d="m31 36.4883v264.416" stroke="#181818" stroke-dasharray="5 5" stroke-width=".5"/><path d="m252.2212 36.4883v264.416" stroke="#181818" stroke-dasharray="5 5" stroke-width=".5"/><path d="m490.5498 36.4883v264.416" stroke="#181818" stroke-dasharray="5 5" stroke-width=".5"/><rect fill="#ddd" height="30.4883" rx="2.5" stroke="#666" stroke-width=".5" width="53.5049" x="5" y="5"/><text fill="#333" font-family="sans-serif" font-size="14" lengthAdjust="spacing" textLength="39.5049" x="12" y="25.5352">Client</text><rect fill="#ddd" height="30.4883" rx="2.5" stroke="#666" stroke-width=".5" width="53.5049" x="5" y="299.9043"/><text fill="#333" font-family="sans-serif" font-size="14" lengthAdjust="spacing" textLength="39.5049" x="12" y="320.4395">Client</text><rect fill="#ddd" height="30.4883" rx="2.5" stroke="#666" stroke-width=".5" width="86.5498" x="209.2212" y="5"/><text fill="#333" font-family="sans-serif" font-size="14" lengthAdjust="spacing" textLength="72.5498" x="216.2212" y="25.5352">RPC Server</text><rect fill="#ddd" height="30.4883" rx="2.5" stroke="#666" stroke-width=".5" width="86.5498" x="209.2212" y="299.9043"/><text fill="#333" font-family="sans-serif" font-size="14" lengthAdjust="spacing" textLength="72.5498" x="216.2212" y="320.4395">RPC Server</text><rect fill="#ddd" height="30.4883" rx="2.5" stroke="#666" stroke-width=".5" width="130.3135" x="425.5498" y="5"/><text fill="#333" font-family="sans-serif" font-size="14" lengthAdjust="spacing" textLength="116.3135" x="432.5498" y="25.5352">Blockchain Client</text><rect fill="#ddd" height="30.4883" rx="2.5" stroke="#666" stroke-width=".5" width="130.3135" x="425.5498" y="299.9043"/><text fill="#333" font-family="sans-serif" font-size="14" lengthAdjust="spacing" textLength="116.3135" x="432.5498" y="320.4395">Blockchain Client</text><path d="m247.4961 67.7988h10v215.1055h-10z" fill="#fff" stroke="#181818"/><path d="m485.7065 97.1094h10v29.3105h-10z" fill="#fff" stroke="#181818"/><path d="m235.4961 63.7988 10 4-10 4 4-4z" fill="#666" stroke="#666"/><path d="m31.7524 67.7988h209.7437" stroke="#666"/><text fill="#333" font-family="sans-serif" font-size="13" lengthAdjust="spacing" textLength="180.4131" x="38.7524" y="63.0566">Request: GetBlockchainInfo()</text><path d="m473.7065 93.1094 10 4-10 4 4-4z" fill="#666" stroke="#666"/><path d="m257.4961 97.1094h222.2104" stroke="#666"/><text fill="#333" font-family="sans-serif" font-size="13" lengthAdjust="spacing" textLength="134.3608" x="264.4961" y="92.3672">GetBestBlockHeader()</text><path d="m268.4961 122.4199-10 4 10 4-4-4z" fill="#666" stroke="#666"/><path d="m262.4961 126.4199h227.2104" stroke="#666" stroke-dasharray="2 2"/><text fill="#333" font-family="sans-serif" font-size="13" lengthAdjust="spacing" textLength="204.2104" x="274.4961" y="121.6777">bestBlockHeader, bestBlockMeta</text><path d="m257.4961 198.1621h42" stroke="#666"/><path d="m299.4961 198.1621v13" stroke="#666"/><path d="m258.4961 211.1621h41" stroke="#666"/><path d="m268.4961 207.1621-10 4 10 4-4-4z" fill="#666" stroke="#666"/><text fill="#333" font-family="sans-serif" font-size="13" lengthAdjust="spacing" textLength="165.8516" x="264.4961" y="193.4199">Construct response object</text><path d="m451.8516 139.4199v117h131v-107l-10-10z" fill="#feffdd" stroke="#181818" stroke-width=".5"/><path d="m572.8516 139.4199v10h10z" fill="#feffdd" stroke="#181818" stroke-width=".5"/><g fill="#333" font-family="sans-serif"><text font-size="13" lengthAdjust="spacing" textLength="84.1064" x="457.8516" y="156.9883">- chain name</text><text font-size="13" lengthAdjust="spacing" textLength="85.5728" x="457.8516" y="172.2988">- block count</text><text font-size="13" lengthAdjust="spacing" textLength="61.4961" x="457.8516" y="187.6094">- headers</text><text font-size="13" lengthAdjust="spacing" textLength="110.8999" x="457.8516" y="202.9199">- best block hash</text><text font-size="13" lengthAdjust="spacing" textLength="67.0313" x="457.8516" y="218.2305">- difficulty</text><text font-size="13" lengthAdjust="spacing" textLength="76.2861" x="457.8516" y="233.541">- chainwork</text><text font-size="13" lengthAdjust="spacing" textLength="108.0498" x="457.8516" y="248.8516">- other metadata</text></g><path d="m42.7524 278.9043-10 4 10 4-4-4z" fill="#666" stroke="#666"/><path d="m36.7524 282.9043h214.7437" stroke="#666"/><text fill="#333" font-family="sans-serif" font-size="13" lengthAdjust="spacing" textLength="191.7437" x="48.7524" y="278.1621">Response with blockchain info</text><text fill="#333" font-family="sans-serif" font-size="10" lengthAdjust="spacing" textLength="155.4346" y="342.0605">Last Modified On: 24-Feb-2025</text></svg>
