<svg xmlns="http://www.w3.org/2000/svg" xmlns:xlink="http://www.w3.org/1999/xlink" contentStyleType="text/css" data-diagram-type="SEQUENCE" height="739px" preserveAspectRatio="none" style="width:887px;height:739px;background:#F0F8FF;" version="1.1" viewBox="0 0 887 739" width="887px" zoomAndPan="magnify"><defs/><g><rect fill="#F0F8FF" height="739" style="stroke:none;stroke-width:1;" width="887" x="0" y="0"/><g><title>RPC Server</title><rect fill="#FFFFFF" height="610.0996" style="stroke:#181818;stroke-width:1;" width="10" x="419.208" y="67.7988"/></g><g><title>Propagation Service</title><rect fill="#FFFFFF" height="39.9658" style="stroke:#181818;stroke-width:1;" width="10" x="682.9487" y="482.7354"/></g><rect fill="none" height="503.4785" style="stroke:#000000;stroke-width:1.5;" width="870.2075" x="10" y="167.4199"/><rect fill="none" height="385.5918" style="stroke:#000000;stroke-width:1.5;" width="850.2075" x="20" y="278.3066"/><rect fill="none" height="267.7051" style="stroke:#000000;stroke-width:1.5;" width="830.2075" x="30" y="389.1934"/><rect fill="none" height="112.1973" style="stroke:#000000;stroke-width:1.5;" width="573.6606" x="40" y="537.7012"/><g><title>Client</title><rect fill="#000000" fill-opacity="0.00000" height="651.4102" width="8" x="72.7524" y="36.4883"/><line style="stroke:#181818;stroke-width:0.5;stroke-dasharray:5,5;" x1="76" x2="76" y1="36.4883" y2="687.8984"/></g><g><title>RPC Server</title><rect fill="#000000" fill-opacity="0.00000" height="651.4102" width="8" x="420.208" y="36.4883"/><line style="stroke:#181818;stroke-width:0.5;stroke-dasharray:5,5;" x1="423.9331" x2="423.9331" y1="36.4883" y2="687.8984"/></g><g><title>Propagation Service</title><rect fill="#000000" fill-opacity="0.00000" height="651.4102" width="8" x="683.9487" y="36.4883"/><line style="stroke:#181818;stroke-width:0.5;stroke-dasharray:5,5;" x1="687.2471" x2="687.2471" y1="36.4883" y2="687.8984"/></g><g class="participant participant-head" data-participant="Client"><rect fill="#DDDDDD" height="30.4883" rx="2.5" ry="2.5" style="stroke:#666666;stroke-width:0.5;" width="53.5049" x="50" y="5"/><text fill="#333333" font-family="sans-serif" font-size="14" lengthAdjust="spacing" textLength="39.5049" x="57" y="25.5352">Client</text></g><g class="participant participant-tail" data-participant="Client"><rect fill="#DDDDDD" height="30.4883" rx="2.5" ry="2.5" style="stroke:#666666;stroke-width:0.5;" width="53.5049" x="50" y="686.8984"/><text fill="#333333" font-family="sans-serif" font-size="14" lengthAdjust="spacing" textLength="39.5049" x="57" y="707.4336">Client</text></g><g class="participant participant-head" data-participant="RPC"><rect fill="#DDDDDD" height="30.4883" rx="2.5" ry="2.5" style="stroke:#666666;stroke-width:0.5;" width="86.5498" x="380.9331" y="5"/><text fill="#333333" font-family="sans-serif" font-size="14" lengthAdjust="spacing" textLength="72.5498" x="387.9331" y="25.5352">RPC Server</text></g><g class="participant participant-tail" data-participant="RPC"><rect fill="#DDDDDD" height="30.4883" rx="2.5" ry="2.5" style="stroke:#666666;stroke-width:0.5;" width="86.5498" x="380.9331" y="686.8984"/><text fill="#333333" font-family="sans-serif" font-size="14" lengthAdjust="spacing" textLength="72.5498" x="387.9331" y="707.4336">RPC Server</text></g><g class="participant participant-head" data-participant="Propagation"><rect fill="#DDDDDD" height="30.4883" rx="2.5" ry="2.5" style="stroke:#666666;stroke-width:0.5;" width="147.4033" x="614.2471" y="5"/><text fill="#333333" font-family="sans-serif" font-size="14" lengthAdjust="spacing" textLength="133.4033" x="621.2471" y="25.5352">Propagation Service</text></g><g class="participant participant-tail" data-participant="Propagation"><rect fill="#DDDDDD" height="30.4883" rx="2.5" ry="2.5" style="stroke:#666666;stroke-width:0.5;" width="147.4033" x="614.2471" y="686.8984"/><text fill="#333333" font-family="sans-serif" font-size="14" lengthAdjust="spacing" textLength="133.4033" x="621.2471" y="707.4336">Propagation Service</text></g><g><title>RPC Server</title><rect fill="#FFFFFF" height="610.0996" style="stroke:#181818;stroke-width:1;" width="10" x="419.208" y="67.7988"/></g><g><title>Propagation Service</title><rect fill="#FFFFFF" height="39.9658" style="stroke:#181818;stroke-width:1;" width="10" x="682.9487" y="482.7354"/></g><g class="message" data-participant-1="Client" data-participant-2="RPC"><polygon fill="#666666" points="407.208,63.7988,417.208,67.7988,407.208,71.7988,411.208,67.7988" style="stroke:#666666;stroke-width:1;"/><line style="stroke:#666666;stroke-width:1;" x1="76.7524" x2="413.208" y1="67.7988" y2="67.7988"/><text fill="#333333" font-family="sans-serif" font-size="13" lengthAdjust="spacing" textLength="308.8452" x="83.7524" y="63.0566">SendRawTransactionCmd(HexTx, AllowHighFees)</text></g><g class="message" data-participant-1="RPC" data-participant-2="RPC"><line style="stroke:#666666;stroke-width:1;" x1="429.208" x2="471.208" y1="97.1094" y2="97.1094"/><line style="stroke:#666666;stroke-width:1;" x1="471.208" x2="471.208" y1="97.1094" y2="110.1094"/><line style="stroke:#666666;stroke-width:1;" x1="430.208" x2="471.208" y1="110.1094" y2="110.1094"/><polygon fill="#666666" points="440.208,106.1094,430.208,110.1094,440.208,114.1094,436.208,110.1094" style="stroke:#666666;stroke-width:1;"/><text fill="#333333" font-family="sans-serif" font-size="13" lengthAdjust="spacing" textLength="158.7993" x="436.208" y="92.3672">Prepend "0" if odd length</text></g><g class="message" data-participant-1="RPC" data-participant-2="RPC"><line style="stroke:#666666;stroke-width:1;" x1="429.208" x2="471.208" y1="139.4199" y2="139.4199"/><line style="stroke:#666666;stroke-width:1;" x1="471.208" x2="471.208" y1="139.4199" y2="152.4199"/><line style="stroke:#666666;stroke-width:1;" x1="430.208" x2="471.208" y1="152.4199" y2="152.4199"/><polygon fill="#666666" points="440.208,148.4199,430.208,152.4199,440.208,156.4199,436.208,152.4199" style="stroke:#666666;stroke-width:1;"/><text fill="#333333" font-family="sans-serif" font-size="13" lengthAdjust="spacing" textLength="160.4814" x="436.208" y="134.6777">hex.DecodeString(hexStr)</text></g><path d="M10,167.4199 L72.1387,167.4199 L72.1387,174.7305 L62.1387,184.7305 L10,184.7305 L10,167.4199" fill="#EEEEEE" style="stroke:#000000;stroke-width:1.5;"/><rect fill="none" height="503.4785" style="stroke:#000000;stroke-width:1.5;" width="870.2075" x="10" y="167.4199"/><text fill="#333333" font-family="sans-serif" font-size="13" font-weight="bold" lengthAdjust="spacing" textLength="17.1387" x="25" y="180.9883">alt</text><text fill="#333333" font-family="sans-serif" font-size="11" font-weight="bold" lengthAdjust="spacing" textLength="128.3154" x="87.1387" y="180.0547">[If Hex Decoding Fails]</text><g class="message" data-participant-1="RPC" data-participant-2="Client"><polygon fill="#666666" points="87.7524,202.041,77.7524,206.041,87.7524,210.041,83.7524,206.041" style="stroke:#666666;stroke-width:1;"/><line style="stroke:#666666;stroke-width:1;" x1="81.7524" x2="418.208" y1="206.041" y2="206.041"/><text fill="#333333" font-family="sans-serif" font-size="13" lengthAdjust="spacing" textLength="168.8604" x="93.7524" y="201.2988">Return rpcDecodeHexError</text></g><line style="stroke:#000000;stroke-width:1;stroke-dasharray:2,2;" x1="10" x2="880.2075" y1="215.041" y2="215.041"/><text fill="#333333" font-family="sans-serif" font-size="11" font-weight="bold" lengthAdjust="spacing" textLength="153.7744" x="15" y="225.6758">[If Hex Decoding Succeeds]</text><g class="message" data-participant-1="RPC" data-participant-2="RPC"><line style="stroke:#666666;stroke-width:1;" x1="429.208" x2="471.208" y1="250.3066" y2="250.3066"/><line style="stroke:#666666;stroke-width:1;" x1="471.208" x2="471.208" y1="250.3066" y2="263.3066"/><line style="stroke:#666666;stroke-width:1;" x1="430.208" x2="471.208" y1="263.3066" y2="263.3066"/><polygon fill="#666666" points="440.208,259.3066,430.208,263.3066,440.208,267.3066,436.208,263.3066" style="stroke:#666666;stroke-width:1;"/><text fill="#333333" font-family="sans-serif" font-size="13" lengthAdjust="spacing" textLength="210.793" x="436.208" y="245.5645">bt.NewTxFromBytes(serializedTx)</text></g><path d="M20,278.3066 L82.1387,278.3066 L82.1387,285.6172 L72.1387,295.6172 L20,295.6172 L20,278.3066" fill="#EEEEEE" style="stroke:#000000;stroke-width:1.5;"/><rect fill="none" height="385.5918" style="stroke:#000000;stroke-width:1.5;" width="850.2075" x="20" y="278.3066"/><text fill="#333333" font-family="sans-serif" font-size="13" font-weight="bold" lengthAdjust="spacing" textLength="17.1387" x="35" y="291.875">alt</text><text fill="#333333" font-family="sans-serif" font-size="11" font-weight="bold" lengthAdjust="spacing" textLength="92.2593" x="97.1387" y="290.9414">[If Parsing Fails]</text><g class="message" data-participant-1="RPC" data-participant-2="Client"><polygon fill="#666666" points="87.7524,312.9277,77.7524,316.9277,87.7524,320.9277,83.7524,316.9277" style="stroke:#666666;stroke-width:1;"/><line style="stroke:#666666;stroke-width:1;" x1="81.7524" x2="418.208" y1="316.9277" y2="316.9277"/><text fill="#333333" font-family="sans-serif" font-size="13" lengthAdjust="spacing" textLength="181.9048" x="93.7524" y="312.1855">Return ErrRPCDeserialization</text></g><line style="stroke:#000000;stroke-width:1;stroke-dasharray:2,2;" x1="20" x2="870.2075" y1="325.9277" y2="325.9277"/><text fill="#333333" font-family="sans-serif" font-size="11" font-weight="bold" lengthAdjust="spacing" textLength="117.7183" x="25" y="336.5625">[If Parsing Succeeds]</text><g class="message" data-participant-1="RPC" data-participant-2="RPC"><line style="stroke:#666666;stroke-width:1;" x1="429.208" x2="471.208" y1="361.1934" y2="361.1934"/><line style="stroke:#666666;stroke-width:1;" x1="471.208" x2="471.208" y1="361.1934" y2="374.1934"/><line style="stroke:#666666;stroke-width:1;" x1="430.208" x2="471.208" y1="374.1934" y2="374.1934"/><polygon fill="#666666" points="440.208,370.1934,430.208,374.1934,440.208,378.1934,436.208,374.1934" style="stroke:#666666;stroke-width:1;"/><text fill="#333333" font-family="sans-serif" font-size="13" lengthAdjust="spacing" textLength="229.7407" x="436.208" y="356.4512">Check propagationClient is available</text></g><path d="M30,389.1934 L92.1387,389.1934 L92.1387,396.5039 L82.1387,406.5039 L30,406.5039 L30,389.1934" fill="#EEEEEE" style="stroke:#000000;stroke-width:1.5;"/><rect fill="none" height="267.7051" style="stroke:#000000;stroke-width:1.5;" width="830.2075" x="30" y="389.1934"/><text fill="#333333" font-family="sans-serif" font-size="13" font-weight="bold" lengthAdjust="spacing" textLength="17.1387" x="45" y="402.7617">alt</text><text fill="#333333" font-family="sans-serif" font-size="11" font-weight="bold" lengthAdjust="spacing" textLength="204.4775" x="107.1387" y="401.8281">[If Propagation Client Not Available]</text><g class="message" data-participant-1="RPC" data-participant-2="Client"><polygon fill="#666666" points="87.7524,423.8145,77.7524,427.8145,87.7524,431.8145,83.7524,427.8145" style="stroke:#666666;stroke-width:1;"/><line style="stroke:#666666;stroke-width:1;" x1="81.7524" x2="418.208" y1="427.8145" y2="427.8145"/><text fill="#333333" font-family="sans-serif" font-size="13" lengthAdjust="spacing" textLength="136.2207" x="93.7524" y="423.0723">Return ErrRPCInternal</text></g><line style="stroke:#000000;stroke-width:1;stroke-dasharray:2,2;" x1="30" x2="860.2075" y1="436.8145" y2="436.8145"/><text fill="#333333" font-family="sans-serif" font-size="11" font-weight="bold" lengthAdjust="spacing" textLength="108.7539" x="35" y="447.4492">[If Client Available]</text><g class="message" data-participant-1="RPC" data-participant-2="Propagation"><polygon fill="#666666" points="670.9487,478.7354,680.9487,482.7354,670.9487,486.7354,674.9487,482.7354" style="stroke:#666666;stroke-width:1;"/><line style="stroke:#666666;stroke-width:1;" x1="429.208" x2="676.9487" y1="482.7354" y2="482.7354"/><text fill="#333333" font-family="sans-serif" font-size="13" lengthAdjust="spacing" textLength="228.979" x="436.208" y="477.9932">ProcessTransaction(ctx, tx) via gRPC</text></g><path d="M697,455.7695 L697,495.7695 L854,495.7695 L854,465.7695 L844,455.7695 L697,455.7695" fill="#FEFFDD" style="stroke:#181818;stroke-width:0.5;"/><path d="M844,455.7695 L844,465.7695 L854,465.7695 L844,455.7695" fill="#FEFFDD" style="stroke:#181818;stroke-width:0.5;"/><text fill="#333333" font-family="sans-serif" font-size="13" lengthAdjust="spacing" textLength="136.2588" x="703" y="473.3379">Direct call to cluster's</text><text fill="#333333" font-family="sans-serif" font-size="13" lengthAdjust="spacing" textLength="124.4966" x="703" y="488.6484">propagation service</text><g class="message" data-participant-1="Propagation" data-participant-2="RPC"><polygon fill="#666666" points="440.208,518.7012,430.208,522.7012,440.208,526.7012,436.208,522.7012" style="stroke:#666666;stroke-width:1;"/><line style="stroke:#666666;stroke-width:1;" x1="434.208" x2="686.9487" y1="522.7012" y2="522.7012"/><text fill="#333333" font-family="sans-serif" font-size="13" lengthAdjust="spacing" textLength="111.2935" x="446.208" y="517.959">return error or nil</text></g><path d="M40,537.7012 L102.1387,537.7012 L102.1387,545.0117 L92.1387,555.0117 L40,555.0117 L40,537.7012" fill="#EEEEEE" style="stroke:#000000;stroke-width:1.5;"/><rect fill="none" height="112.1973" style="stroke:#000000;stroke-width:1.5;" width="573.6606" x="40" y="537.7012"/><text fill="#333333" font-family="sans-serif" font-size="13" font-weight="bold" lengthAdjust="spacing" textLength="17.1387" x="55" y="551.2695">alt</text><text fill="#333333" font-family="sans-serif" font-size="11" font-weight="bold" lengthAdjust="spacing" textLength="138.9072" x="117.1387" y="550.3359">[If Transaction Rejected]</text><g class="message" data-participant-1="RPC" data-participant-2="Client"><polygon fill="#666666" points="87.7524,572.3223,77.7524,576.3223,87.7524,580.3223,83.7524,576.3223" style="stroke:#666666;stroke-width:1;"/><line style="stroke:#666666;stroke-width:1;" x1="81.7524" x2="418.208" y1="576.3223" y2="576.3223"/><text fill="#333333" font-family="sans-serif" font-size="13" lengthAdjust="spacing" textLength="318.4556" x="93.7524" y="571.5801">Return ErrRPCInvalidParameter with error message</text></g><line style="stroke:#000000;stroke-width:1;stroke-dasharray:2,2;" x1="40" x2="613.6606" y1="585.3223" y2="585.3223"/><text fill="#333333" font-family="sans-serif" font-size="11" font-weight="bold" lengthAdjust="spacing" textLength="142.4521" x="45" y="595.957">[If Transaction Accepted]</text><g class="message" data-participant-1="RPC" data-participant-2="Client"><polygon fill="#666666" points="87.7524,627.2432,77.7524,631.2432,87.7524,635.2432,83.7524,631.2432" style="stroke:#666666;stroke-width:1;"/><line style="stroke:#666666;stroke-width:1;" x1="81.7524" x2="418.208" y1="631.2432" y2="631.2432"/><text fill="#333333" font-family="sans-serif" font-size="13" lengthAdjust="spacing" textLength="187.8589" x="93.7524" y="626.501">Return transaction hash (txid)</text></g><path d="M434,604.2773 L434,644.2773 L603,644.2773 L603,614.2773 L593,604.2773 L434,604.2773" fill="#FEFFDD" style="stroke:#181818;stroke-width:0.5;"/><path d="M593,604.2773 L593,614.2773 L603,614.2773 L593,604.2773" fill="#FEFFDD" style="stroke:#181818;stroke-width:0.5;"/><text fill="#333333" font-family="sans-serif" font-size="13" lengthAdjust="spacing" textLength="148.4526" x="440" y="621.8457">Simple string response:</text><text fill="#333333" font-family="sans-serif" font-size="13" lengthAdjust="spacing" textLength="138.6963" x="440" y="637.1563">Transaction hash only</text><text fill="#333333" font-family="sans-serif" font-size="10" lengthAdjust="spacing" textLength="154.8389" x="0" y="729.0547">Last Modified On: 22-Oct-2025</text><!--SRC=[fLLTRzem57tthxXYcWhIMbMQD4qyJ6fXKIkD3XKU-sBicyIhiIFRGDYq_xxh4587fceV5eJ4zvnpZwzlZ7zMfkAEhs75nNFXxCR8YTNMmPliElkOPSnt28avt-YGMHDQoFjc913kdDsrmG_DOEm2ffWhWx2oJgBpa5EKQmseSOqc-8HFZohiuGS3k6tGVIsQFNKvRGRxoH8LGGwTrVyhGzUWXAgu2VycnLWgCT6AbjUR6ZpE9x10jqKt0Ew17llnkRCLBtXGrZGu9R019lEC7OJXybFamvY0HZxotT9nuxc8cCbQ3k-mNjRlu4PhkxjJHPaX-X6ByIqFsAHcaT_9p1rMf0I3wm6e7AoKeD4KeUp3IgolfYYin4LmoXH3cg2x4MDS1xZFWH930w0WP5nfJrK3Q4LQysDunB1n1bmb3cf4-qpTv1XgZsSwYuqGYB8dTV2p2bSFk5lMcRFhstr0F_Je5DVgEyfbJROYexKsvyxtNRtYZDnGP8f7kKFr8-7ey2ZNCtTcS5AYU8RgPGVRHCe3tv8HljB8EkhHQT88BVx11hZf292CLnTmRm8wmtN7EBfluQzAfZPYXrY1tYUDDXI1UYpK8zWg3aLigbIbwxQqVrE0iHHqr9rX35FbK0GGyQW85eJUU79-uPzCKZlmXxUYfvAwxChk3aN0s5D07wDqZoJnj-xw_W-RaIoOQlkDNABiuVvW4xRKGd8UpncaLS5EXRBrjgQIygA_ekCUfPblgCcglyWS4cx9VGd3K2ivEgE_xC5PQA7MbKRmpOjE5VMLDHx7PxZbQIfhzFuC5G-Nc8oTJBBJ-_WRlopPe-QyqfW7-ZkniO9Vk0ymezCXLoZXgnd3Mqd0uK3AozbiThcdCHYnNm00]--></g></svg>