<svg xmlns="http://www.w3.org/2000/svg" xmlns:xlink="http://www.w3.org/1999/xlink" contentStyleType="text/css" height="1005px" preserveAspectRatio="none" style="width:940px;height:1005px;background:#F0F8FF;" version="1.1" viewBox="0 0 940 1005" width="940px" zoomAndPan="magnify"><defs/><g><rect fill="#F0F8FF" height="1005" style="stroke:none;stroke-width:1.0;" width="940" x="0" y="0"/><rect fill="#FFFFFF" height="876.7344" style="stroke:#181818;stroke-width:1.0;" width="10" x="399.041" y="67.7988"/><rect fill="#FFFFFF" height="163.8184" style="stroke:#181818;stroke-width:1.0;" width="10" x="668.1011" y="268.2383"/><rect fill="#FFFFFF" height="29.3105" style="stroke:#181818;stroke-width:1.0;" width="10" x="819.8579" y="617.875"/><rect fill="none" height="788.8027" style="stroke:#000000;stroke-width:1.5;" width="923.9282" x="10" y="148.7305"/><rect fill="none" height="647.2949" style="stroke:#000000;stroke-width:1.5;" width="903.9282" x="20" y="283.2383"/><rect fill="none" height="476.4766" style="stroke:#000000;stroke-width:1.5;" width="883.9282" x="30" y="447.0566"/><rect fill="none" height="75.9316" style="stroke:#000000;stroke-width:1.5;" width="553.1621" x="350.7661" y="579.2539"/><line style="stroke:#181818;stroke-width:0.5;stroke-dasharray:5.0,5.0;" x1="66" x2="66" y1="36.4883" y2="954.5332"/><line style="stroke:#181818;stroke-width:0.5;stroke-dasharray:5.0,5.0;" x1="403.7661" x2="403.7661" y1="36.4883" y2="954.5332"/><line style="stroke:#181818;stroke-width:0.5;stroke-dasharray:5.0,5.0;" x1="672.4146" x2="672.4146" y1="36.4883" y2="954.5332"/><line style="stroke:#181818;stroke-width:0.5;stroke-dasharray:5.0,5.0;" x1="824.7876" x2="824.7876" y1="36.4883" y2="954.5332"/><rect fill="#DDDDDD" height="30.4883" rx="2.5" ry="2.5" style="stroke:#666666;stroke-width:0.5;" width="53.5049" x="40" y="5"/><text fill="#333333" font-family="sans-serif" font-size="14" lengthAdjust="spacing" textLength="39.5049" x="47" y="25.5352">Client</text><rect fill="#DDDDDD" height="30.4883" rx="2.5" ry="2.5" style="stroke:#666666;stroke-width:0.5;" width="53.5049" x="40" y="953.5332"/><text fill="#333333" font-family="sans-serif" font-size="14" lengthAdjust="spacing" textLength="39.5049" x="47" y="974.0684">Client</text><rect fill="#DDDDDD" height="30.4883" rx="2.5" ry="2.5" style="stroke:#666666;stroke-width:0.5;" width="86.5498" x="360.7661" y="5"/><text fill="#333333" font-family="sans-serif" font-size="14" lengthAdjust="spacing" textLength="72.5498" x="367.7661" y="25.5352">RPC Server</text><rect fill="#DDDDDD" height="30.4883" rx="2.5" ry="2.5" style="stroke:#666666;stroke-width:0.5;" width="86.5498" x="360.7661" y="953.5332"/><text fill="#333333" font-family="sans-serif" font-size="14" lengthAdjust="spacing" textLength="72.5498" x="367.7661" y="974.0684">RPC Server</text><rect fill="#DDDDDD" height="30.4883" rx="2.5" ry="2.5" style="stroke:#666666;stroke-width:0.5;" width="145.373" x="600.4146" y="5"/><text fill="#333333" font-family="sans-serif" font-size="14" lengthAdjust="spacing" textLength="131.373" x="607.4146" y="25.5352">Transaction Service</text><rect fill="#DDDDDD" height="30.4883" rx="2.5" ry="2.5" style="stroke:#666666;stroke-width:0.5;" width="145.373" x="600.4146" y="953.5332"/><text fill="#333333" font-family="sans-serif" font-size="14" lengthAdjust="spacing" textLength="131.373" x="607.4146" y="974.0684">Transaction Service</text><rect fill="#DDDDDD" height="30.4883" rx="2.5" ry="2.5" style="stroke:#666666;stroke-width:0.5;" width="138.1406" x="755.7876" y="5"/><text fill="#333333" font-family="sans-serif" font-size="14" lengthAdjust="spacing" textLength="124.1406" x="762.7876" y="25.5352">Blockchain Service</text><rect fill="#DDDDDD" height="30.4883" rx="2.5" ry="2.5" style="stroke:#666666;stroke-width:0.5;" width="138.1406" x="755.7876" y="953.5332"/><text fill="#333333" font-family="sans-serif" font-size="14" lengthAdjust="spacing" textLength="124.1406" x="762.7876" y="974.0684">Blockchain Service</text><rect fill="#FFFFFF" height="876.7344" style="stroke:#181818;stroke-width:1.0;" width="10" x="399.041" y="67.7988"/><rect fill="#FFFFFF" height="163.8184" style="stroke:#181818;stroke-width:1.0;" width="10" x="668.1011" y="268.2383"/><rect fill="#FFFFFF" height="29.3105" style="stroke:#181818;stroke-width:1.0;" width="10" x="819.8579" y="617.875"/><polygon fill="#666666" points="387.041,63.7988,397.041,67.7988,387.041,71.7988,391.041,67.7988" style="stroke:#666666;stroke-width:1.0;"/><line style="stroke:#666666;stroke-width:1.0;" x1="66.7524" x2="393.041" y1="67.7988" y2="67.7988"/><text fill="#333333" font-family="sans-serif" font-size="13" lengthAdjust="spacing" textLength="313.2886" x="73.7524" y="63.0566">GetRawTransactionCmd(txid, verbose, blockhash)</text><line style="stroke:#666666;stroke-width:1.0;" x1="409.041" x2="451.041" y1="108.9199" y2="108.9199"/><line style="stroke:#666666;stroke-width:1.0;" x1="451.041" x2="451.041" y1="108.9199" y2="121.9199"/><line style="stroke:#666666;stroke-width:1.0;" x1="410.041" x2="451.041" y1="121.9199" y2="121.9199"/><polygon fill="#666666" points="420.041,117.9199,410.041,121.9199,420.041,125.9199,416.041,121.9199" style="stroke:#666666;stroke-width:1.0;"/><text fill="#333333" font-family="sans-serif" font-size="13" lengthAdjust="spacing" textLength="84.6143" x="416.041" y="104.1777">Validate TXID</text><path d="M522.6143,80.7988 L522.6143,135.7988 L792.6143,135.7988 L792.6143,90.7988 L782.6143,80.7988 L522.6143,80.7988 " fill="#FEFFDD" style="stroke:#181818;stroke-width:0.5;"/><path d="M782.6143,80.7988 L782.6143,90.7988 L792.6143,90.7988 L782.6143,80.7988 " fill="#FEFFDD" style="stroke:#181818;stroke-width:0.5;"/><text fill="#333333" font-family="sans-serif" font-size="13" lengthAdjust="spacing" textLength="114.3086" x="528.6143" y="98.3672">Validation checks:</text><text fill="#333333" font-family="sans-serif" font-size="13" lengthAdjust="spacing" textLength="157.936" x="528.6143" y="113.6777">- TXID must be valid hex</text><text fill="#333333" font-family="sans-serif" font-size="13" lengthAdjust="spacing" textLength="249.5645" x="528.6143" y="128.9883">- TXID must be 32 bytes (64 hex chars)</text><path d="M10,148.7305 L72.1387,148.7305 L72.1387,156.041 L62.1387,166.041 L10,166.041 L10,148.7305 " fill="#EEEEEE" style="stroke:#000000;stroke-width:1.5;"/><rect fill="none" height="788.8027" style="stroke:#000000;stroke-width:1.5;" width="923.9282" x="10" y="148.7305"/><text fill="#333333" font-family="sans-serif" font-size="13" font-weight="bold" lengthAdjust="spacing" textLength="17.1387" x="25" y="162.2988">alt</text><text fill="#333333" font-family="sans-serif" font-size="11" font-weight="bold" lengthAdjust="spacing" textLength="77.3813" x="87.1387" y="161.3652">[Invalid TXID]</text><polygon fill="#666666" points="77.7524,201.6621,67.7524,205.6621,77.7524,209.6621,73.7524,205.6621" style="stroke:#666666;stroke-width:1.0;"/><line style="stroke:#666666;stroke-width:1.0;" x1="71.7524" x2="398.041" y1="205.6621" y2="205.6621"/><text fill="#333333" font-family="sans-serif" font-size="13" lengthAdjust="spacing" textLength="77.0796" x="83.7524" y="200.9199">Return error</text><path d="M414,171.041 L414,226.041 L801,226.041 L801,181.041 L791,171.041 L414,171.041 " fill="#FEFFDD" style="stroke:#181818;stroke-width:0.5;"/><path d="M791,171.041 L791,181.041 L801,181.041 L791,171.041 " fill="#FEFFDD" style="stroke:#181818;stroke-width:0.5;"/><text fill="#333333" font-family="sans-serif" font-size="13" lengthAdjust="spacing" textLength="96.5098" x="420" y="188.6094">Error response:</text><text fill="#333333" font-family="sans-serif" font-size="13" lengthAdjust="spacing" textLength="203.2837" x="420" y="203.9199">- Code: ErrRPCDecodeHexString</text><text fill="#333333" font-family="sans-serif" font-size="13" lengthAdjust="spacing" textLength="366.2979" x="420" y="219.2305">- Message: "Transaction ID must be a hexadecimal string"</text><line style="stroke:#000000;stroke-width:1.0;stroke-dasharray:2.0,2.0;" x1="10" x2="933.9282" y1="232.9727" y2="232.9727"/><text fill="#333333" font-family="sans-serif" font-size="11" font-weight="bold" lengthAdjust="spacing" textLength="67.6704" x="15" y="243.6074">[Valid TXID]</text><polygon fill="#666666" points="656.1011,264.2383,666.1011,268.2383,656.1011,272.2383,660.1011,268.2383" style="stroke:#666666;stroke-width:1.0;"/><line style="stroke:#666666;stroke-width:1.0;" x1="409.041" x2="662.1011" y1="268.2383" y2="268.2383"/><text fill="#333333" font-family="sans-serif" font-size="13" lengthAdjust="spacing" textLength="228.7251" x="416.041" y="263.4961">GetTransaction(ctx, txid, blockhash)</text><path d="M20,283.2383 L82.1387,283.2383 L82.1387,290.5488 L72.1387,300.5488 L20,300.5488 L20,283.2383 " fill="#EEEEEE" style="stroke:#000000;stroke-width:1.5;"/><rect fill="none" height="647.2949" style="stroke:#000000;stroke-width:1.5;" width="903.9282" x="20" y="283.2383"/><text fill="#333333" font-family="sans-serif" font-size="13" font-weight="bold" lengthAdjust="spacing" textLength="17.1387" x="35" y="296.8066">alt</text><text fill="#333333" font-family="sans-serif" font-size="11" font-weight="bold" lengthAdjust="spacing" textLength="137.5269" x="97.1387" y="295.873">[Transaction Not Found]</text><polygon fill="#666666" points="420.041,317.8594,410.041,321.8594,420.041,325.8594,416.041,321.8594" style="stroke:#666666;stroke-width:1.0;"/><line style="stroke:#666666;stroke-width:1.0;stroke-dasharray:2.0,2.0;" x1="414.041" x2="667.1011" y1="321.8594" y2="321.8594"/><text fill="#333333" font-family="sans-serif" font-size="13" lengthAdjust="spacing" textLength="77.0796" x="426.041" y="317.1172">Return error</text><polygon fill="#666666" points="77.7524,365.4805,67.7524,369.4805,77.7524,373.4805,73.7524,369.4805" style="stroke:#666666;stroke-width:1.0;"/><line style="stroke:#666666;stroke-width:1.0;" x1="71.7524" x2="398.041" y1="369.4805" y2="369.4805"/><text fill="#333333" font-family="sans-serif" font-size="13" lengthAdjust="spacing" textLength="77.0796" x="83.7524" y="364.7383">Return error</text><path d="M414,334.8594 L414,389.8594 L788,389.8594 L788,344.8594 L778,334.8594 L414,334.8594 " fill="#FEFFDD" style="stroke:#181818;stroke-width:0.5;"/><path d="M778,334.8594 L778,344.8594 L788,344.8594 L778,334.8594 " fill="#FEFFDD" style="stroke:#181818;stroke-width:0.5;"/><text fill="#333333" font-family="sans-serif" font-size="13" lengthAdjust="spacing" textLength="96.5098" x="420" y="352.4277">Error response:</text><text fill="#333333" font-family="sans-serif" font-size="13" lengthAdjust="spacing" textLength="152.7119" x="420" y="367.7383">- Code: ErrRPCNoTxInfo</text><text fill="#333333" font-family="sans-serif" font-size="13" lengthAdjust="spacing" textLength="353.5454" x="420" y="383.0488">- Message: "No information available about transaction"</text><line style="stroke:#000000;stroke-width:1.0;stroke-dasharray:2.0,2.0;" x1="20" x2="923.9282" y1="396.791" y2="396.791"/><text fill="#333333" font-family="sans-serif" font-size="11" font-weight="bold" lengthAdjust="spacing" textLength="113.9639" x="25" y="407.4258">[Transaction Found]</text><polygon fill="#666666" points="420.041,428.0566,410.041,432.0566,420.041,436.0566,416.041,432.0566" style="stroke:#666666;stroke-width:1.0;"/><line style="stroke:#666666;stroke-width:1.0;stroke-dasharray:2.0,2.0;" x1="414.041" x2="672.1011" y1="432.0566" y2="432.0566"/><text fill="#333333" font-family="sans-serif" font-size="13" lengthAdjust="spacing" textLength="147.9766" x="426.041" y="427.3145">Return transaction data</text><path d="M30,447.0566 L92.1387,447.0566 L92.1387,454.3672 L82.1387,464.3672 L30,464.3672 L30,447.0566 " fill="#EEEEEE" style="stroke:#000000;stroke-width:1.5;"/><rect fill="none" height="476.4766" style="stroke:#000000;stroke-width:1.5;" width="883.9282" x="30" y="447.0566"/><text fill="#333333" font-family="sans-serif" font-size="13" font-weight="bold" lengthAdjust="spacing" textLength="17.1387" x="45" y="460.625">alt</text><text fill="#333333" font-family="sans-serif" font-size="11" font-weight="bold" lengthAdjust="spacing" textLength="96.3735" x="107.1387" y="459.6914">[verbose = false]</text><line style="stroke:#666666;stroke-width:1.0;" x1="409.041" x2="451.041" y1="485.6777" y2="485.6777"/><line style="stroke:#666666;stroke-width:1.0;" x1="451.041" x2="451.041" y1="485.6777" y2="498.6777"/><line style="stroke:#666666;stroke-width:1.0;" x1="410.041" x2="451.041" y1="498.6777" y2="498.6777"/><polygon fill="#666666" points="420.041,494.6777,410.041,498.6777,420.041,502.6777,416.041,498.6777" style="stroke:#666666;stroke-width:1.0;"/><text fill="#333333" font-family="sans-serif" font-size="13" lengthAdjust="spacing" textLength="165.1787" x="416.041" y="480.9355">Encode transaction as hex</text><polygon fill="#666666" points="77.7524,534.6436,67.7524,538.6436,77.7524,542.6436,73.7524,538.6436" style="stroke:#666666;stroke-width:1.0;"/><line style="stroke:#666666;stroke-width:1.0;" x1="71.7524" x2="398.041" y1="538.6436" y2="538.6436"/><text fill="#333333" font-family="sans-serif" font-size="13" lengthAdjust="spacing" textLength="204.9404" x="83.7524" y="533.9014">Return hex-encoded transaction</text><path d="M414,511.6777 L414,551.6777 L749,551.6777 L749,521.6777 L739,511.6777 L414,511.6777 " fill="#FEFFDD" style="stroke:#181818;stroke-width:0.5;"/><path d="M739,511.6777 L739,521.6777 L749,521.6777 L739,511.6777 " fill="#FEFFDD" style="stroke:#181818;stroke-width:0.5;"/><text fill="#333333" font-family="sans-serif" font-size="13" lengthAdjust="spacing" textLength="102.7686" x="420" y="529.2461">Response fields:</text><text fill="#333333" font-family="sans-serif" font-size="13" lengthAdjust="spacing" textLength="314.0503" x="420" y="544.5566">- String containing hex-encoded transaction data</text><line style="stroke:#000000;stroke-width:1.0;stroke-dasharray:2.0,2.0;" x1="30" x2="913.9282" y1="558.2988" y2="558.2988"/><text fill="#333333" font-family="sans-serif" font-size="11" font-weight="bold" lengthAdjust="spacing" textLength="92.2324" x="35" y="568.9336">[verbose = true]</text><path d="M350.7661,579.2539 L412.9048,579.2539 L412.9048,586.5645 L402.9048,596.5645 L350.7661,596.5645 L350.7661,579.2539 " fill="#EEEEEE" style="stroke:#000000;stroke-width:1.5;"/><rect fill="none" height="75.9316" style="stroke:#000000;stroke-width:1.5;" width="553.1621" x="350.7661" y="579.2539"/><text fill="#333333" font-family="sans-serif" font-size="13" font-weight="bold" lengthAdjust="spacing" textLength="17.1387" x="365.7661" y="592.8223">alt</text><text fill="#333333" font-family="sans-serif" font-size="11" font-weight="bold" lengthAdjust="spacing" textLength="119.7002" x="427.9048" y="591.8887">[Blockhash provided]</text><polygon fill="#666666" points="807.8579,613.875,817.8579,617.875,807.8579,621.875,811.8579,617.875" style="stroke:#666666;stroke-width:1.0;"/><line style="stroke:#666666;stroke-width:1.0;" x1="409.041" x2="813.8579" y1="617.875" y2="617.875"/><text fill="#333333" font-family="sans-serif" font-size="13" lengthAdjust="spacing" textLength="200.9731" x="416.041" y="613.1328">GetBlockByHash(ctx, blockhash)</text><polygon fill="#666666" points="420.041,643.1855,410.041,647.1855,420.041,651.1855,416.041,647.1855" style="stroke:#666666;stroke-width:1.0;"/><line style="stroke:#666666;stroke-width:1.0;stroke-dasharray:2.0,2.0;" x1="414.041" x2="823.8579" y1="647.1855" y2="647.1855"/><text fill="#333333" font-family="sans-serif" font-size="13" lengthAdjust="spacing" textLength="111.5918" x="426.041" y="642.4434">Return block data</text><line style="stroke:#666666;stroke-width:1.0;" x1="409.041" x2="451.041" y1="683.4961" y2="683.4961"/><line style="stroke:#666666;stroke-width:1.0;" x1="451.041" x2="451.041" y1="683.4961" y2="696.4961"/><line style="stroke:#666666;stroke-width:1.0;" x1="410.041" x2="451.041" y1="696.4961" y2="696.4961"/><polygon fill="#666666" points="420.041,692.4961,410.041,696.4961,420.041,700.4961,416.041,696.4961" style="stroke:#666666;stroke-width:1.0;"/><text fill="#333333" font-family="sans-serif" font-size="13" lengthAdjust="spacing" textLength="235.0601" x="416.041" y="678.7539">Format detailed transaction response</text><polygon fill="#666666" points="77.7524,816.6699,67.7524,820.6699,77.7524,824.6699,73.7524,820.6699" style="stroke:#666666;stroke-width:1.0;"/><line style="stroke:#666666;stroke-width:1.0;" x1="71.7524" x2="398.041" y1="820.6699" y2="820.6699"/><text fill="#333333" font-family="sans-serif" font-size="13" lengthAdjust="spacing" textLength="199.6846" x="83.7524" y="815.9277">Return detailed transaction info</text><path d="M414,709.4961 L414,918.4961 L700,918.4961 L700,719.4961 L690,709.4961 L414,709.4961 " fill="#FEFFDD" style="stroke:#181818;stroke-width:0.5;"/><path d="M690,709.4961 L690,719.4961 L700,719.4961 L690,709.4961 " fill="#FEFFDD" style="stroke:#181818;stroke-width:0.5;"/><text fill="#333333" font-family="sans-serif" font-size="13" lengthAdjust="spacing" textLength="102.7686" x="420" y="727.0645">Response fields:</text><text fill="#333333" font-family="sans-serif" font-size="13" lengthAdjust="spacing" textLength="174.7573" x="420" y="742.375">- hex: Raw transaction data</text><text fill="#333333" font-family="sans-serif" font-size="13" lengthAdjust="spacing" textLength="136.1572" x="420" y="757.6855">- txid: Transaction ID</text><text fill="#333333" font-family="sans-serif" font-size="13" lengthAdjust="spacing" textLength="157.7837" x="420" y="772.9961">- hash: Transaction hash</text><text fill="#333333" font-family="sans-serif" font-size="13" lengthAdjust="spacing" textLength="201.8174" x="420" y="788.3066">- size: Transaction size in bytes</text><text fill="#333333" font-family="sans-serif" font-size="13" lengthAdjust="spacing" textLength="189.3569" x="420" y="803.6172">- version: Transaction version</text><text fill="#333333" font-family="sans-serif" font-size="13" lengthAdjust="spacing" textLength="205.8989" x="420" y="818.9277">- locktime: Transaction locktime</text><text fill="#333333" font-family="sans-serif" font-size="13" lengthAdjust="spacing" textLength="207.2319" x="420" y="834.2383">- vin: Array of transaction inputs</text><text fill="#333333" font-family="sans-serif" font-size="13" lengthAdjust="spacing" textLength="225.4116" x="420" y="849.5488">- vout: Array of transaction outputs</text><text fill="#333333" font-family="sans-serif" font-size="13" lengthAdjust="spacing" textLength="241.2109" x="420" y="864.8594">- blockhash: Hash of containing block</text><text fill="#333333" font-family="sans-serif" font-size="13" lengthAdjust="spacing" textLength="265.7764" x="420" y="880.1699">- confirmations: Number of confirmations</text><text fill="#333333" font-family="sans-serif" font-size="13" lengthAdjust="spacing" textLength="113.4517" x="420" y="895.4805">- time: Block time</text><text fill="#333333" font-family="sans-serif" font-size="13" lengthAdjust="spacing" textLength="219.0767" x="420" y="910.791">- blocktime: Block time in seconds</text><text fill="#333333" font-family="sans-serif" font-size="10" lengthAdjust="spacing" textLength="155.4932" x="0" y="995.6895">Last Modified On: 30-Apr-2025</text><!--SRC=[fLPjQoCt4FwkNp6ub2OGG-cLeooqq3ZdNg1EIowKVjMkPcCHMJAIxDWj_UyTQTUxqhvSGsyXiQLvvXdDCpFokXUfzzpo7PIyUdcsvg35oYXZuQlrj-iVrclcEeJ0cX-KNnljMyYx-2GGRgrvROtluyFODt27jTG8fR42hOEQh5mfG8KxrDub_hIK_Wn_Cu3RYCwvQ7Tuohlui7zOmbBH2QrHNqf3_xsiv9vh__-e64ifLafIUjdMul7t5Nn2UqIx0Ew0bhdzoNBjUEMbqH4dAup0frExok6tobGlrPRB7DrlCzQS0fO_XM1Gm2_e7_bh4cUr4rV-9CKDqAbAu_06ok2_vMvxpGBco3t6ex90qJ7zmPKKmVJqv_qTquQ-MVcyzQHHQmfPL5kiNbn1cyi8XDt1UIWHZW43MpoDJU- -W_BiqS7L- -y3WaYuTTSCjO0GXp6kFDphXYA61thQqxKP5_28_c0r8FMeZO3iZCtp8HZ1ejiRxR3ezfUmCWABO2VQEwnezH5FdxoL-Zb1RT0v_ap0h7H9BZmam0LMSiSLkEY_Y0HTDgWSDfADSkdgtbGkYN5L-TCDD8LBwXLykvhrNHEs6ni9bvxqmNXOXsRkSkf3BhjIZvHyazmpadzEzh7q3-RfTAzhCu3qkZyOa6ItkwRV-95BnKj5ofVcuC7toIuwZaxwk0ZofvgyMO-46wZTUUSZSAO6NHqkjMXd3dw4cjCviYopQVkWGmjc8MdIc_4PkGnhGh0bHWAHCcIkCvMAh6sTe9QeX2j6W2KqWn5lOhfsmjUPcBbGes9q1Uc5yVQGwn9qkxsqFEojEKeACZvreqLoHyOPYklRyqVoRMPeC3rPf4iLanjrY4duHmqIgSSP3rfaXXnrdjDyRwnZznCbQQy6Sbzcx2rjCaaWXyFtPOr2RK7n-EldUwB1XjkjWFnYdQAaskMmi3C1TF8lp85XXp9iVcucFAWB7U5oftPp0XuAwULk4EIoEyKlYVjdQ_aPJ3sGVN_maqUYMst6XompJbsF5n0QFpWcengj4ru4gMLxiRe27Wwx4cthsnkc2XSrY7qDCvcNlLOzBfJ2qM-j5ku_heXsDi9d-6F9ECKt5OMrfnTFyh7mAwUVueqHahfIm6-a-DVXlULg8SHoizaip_Gihly5]--></g></svg>
