<svg contentStyleType="text/css" height="474" preserveAspectRatio="none" viewBox="0 0 560 474" width="560" xmlns="http://www.w3.org/2000/svg" zoomAndPan="magnify"><path d="m0 0h560v474h-560z" fill="#f0f8ff"/><path d="m231.623 67.7988h10v345.9238h-10z" fill="#fff" stroke="#181818"/><path d="m467.9355 97.1094h10v29.3105h-10z" fill="#fff" stroke="#181818"/><path d="m10 141.4199h516.3052v265.3027h-516.3052z" fill="none" stroke="#000" stroke-width="1.5"/><path d="m46 36.4883v387.2344" stroke="#181818" stroke-dasharray="5 5" stroke-width=".5"/><path d="m236.3481 36.4883v387.2344" stroke="#181818" stroke-dasharray="5 5" stroke-width=".5"/><path d="m472.2393 36.4883v387.2344" stroke="#181818" stroke-dasharray="5 5" stroke-width=".5"/><rect fill="#ddd" height="30.4883" rx="2.5" stroke="#666" stroke-width=".5" width="53.5049" x="20" y="5"/><text fill="#333" font-family="sans-serif" font-size="14" lengthAdjust="spacing" textLength="39.5049" x="27" y="25.5352">Client</text><rect fill="#ddd" height="30.4883" rx="2.5" stroke="#666" stroke-width=".5" width="53.5049" x="20" y="422.7227"/><text fill="#333" font-family="sans-serif" font-size="14" lengthAdjust="spacing" textLength="39.5049" x="27" y="443.2578">Client</text><rect fill="#ddd" height="30.4883" rx="2.5" stroke="#666" stroke-width=".5" width="86.5498" x="193.3481" y="5"/><text fill="#333" font-family="sans-serif" font-size="14" lengthAdjust="spacing" textLength="72.5498" x="200.3481" y="25.5352">RPC Server</text><rect fill="#ddd" height="30.4883" rx="2.5" stroke="#666" stroke-width=".5" width="86.5498" x="193.3481" y="422.7227"/><text fill="#333" font-family="sans-serif" font-size="14" lengthAdjust="spacing" textLength="72.5498" x="200.3481" y="443.2578">RPC Server</text><rect fill="#ddd" height="30.4883" rx="2.5" stroke="#666" stroke-width=".5" width="163.3926" x="391.2393" y="5"/><text fill="#333" font-family="sans-serif" font-size="14" lengthAdjust="spacing" textLength="149.3926" x="398.2393" y="25.5352">Block Assembly Client</text><rect fill="#ddd" height="30.4883" rx="2.5" stroke="#666" stroke-width=".5" width="163.3926" x="391.2393" y="422.7227"/><text fill="#333" font-family="sans-serif" font-size="14" lengthAdjust="spacing" textLength="149.3926" x="398.2393" y="443.2578">Block Assembly Client</text><path d="m231.623 67.7988h10v345.9238h-10z" fill="#fff" stroke="#181818"/><path d="m467.9355 97.1094h10v29.3105h-10z" fill="#fff" stroke="#181818"/><path d="m219.623 63.7988 10 4-10 4 4-4z" fill="#666" stroke="#666"/><path d="m46.7524 67.7988h178.8706" stroke="#666"/><text fill="#333" font-family="sans-serif" font-size="13" lengthAdjust="spacing" textLength="165.8706" x="53.7524" y="63.0566">GetMiningCandidateCmd()</text><path d="m455.9355 93.1094 10 4-10 4 4-4z" fill="#666" stroke="#666"/><path d="m241.623 97.1094h220.3125" stroke="#666"/><text fill="#333" font-family="sans-serif" font-size="13" lengthAdjust="spacing" textLength="184.209" x="248.623" y="92.3672">GetMiningCandidate(context)</text><path d="m252.623 122.4199-10 4 10 4-4-4z" fill="#666" stroke="#666"/><path d="m246.623 126.4199h225.3125" stroke="#666" stroke-dasharray="2 2"/><text fill="#333" font-family="sans-serif" font-size="13" lengthAdjust="spacing" textLength="202.3125" x="258.623" y="121.6777">return MiningCandidate or error</text><path d="m10 141.4199h62.1387v7.3106l-10 10h-52.1387z" fill="#eee" stroke="#000" stroke-width="1.5"/><path d="m10 141.4199h516.3052v265.3027h-516.3052z" fill="none" stroke="#000" stroke-width="1.5"/><text fill="#333" font-family="sans-serif" font-size="13" font-weight="bold" lengthAdjust="spacing" textLength="17.1387" x="25" y="154.9883">alt</text><text fill="#333" font-family="sans-serif" font-size="11" font-weight="bold" lengthAdjust="spacing" textLength="99.854" x="87.1387" y="154.0547">[If Retrieval Fails]</text><path d="m57.7524 176.041-10 4 10 4-4-4z" fill="#666" stroke="#666"/><path d="m51.7524 180.041h178.8706" stroke="#666"/><text fill="#333" font-family="sans-serif" font-size="13" lengthAdjust="spacing" textLength="77.0796" x="63.7524" y="175.2988">Return error</text><path d="m10 189.041h516.3052" stroke="#000" stroke-dasharray="2 2"/><text fill="#333" font-family="sans-serif" font-size="11" font-weight="bold" lengthAdjust="spacing" textLength="125.313" x="15" y="199.6758">[If Retrieval Succeeds]</text><path d="m57.7524 307.5146-10 4 10 4-4-4z" fill="#666" stroke="#666"/><path d="m51.7524 311.5146h178.8706" stroke="#666"/><text fill="#333" font-family="sans-serif" font-size="13" lengthAdjust="spacing" textLength="152.4961" x="63.7524" y="306.7725">Return MiningCandidate</text><path d="m246 207.9961v193h269v-183l-10-10z" fill="#feffdd" stroke="#181818" stroke-width=".5"/><path d="m505 207.9961v10h10z" fill="#feffdd" stroke="#181818" stroke-width=".5"/><g fill="#333" font-family="sans-serif"><text font-size="13" lengthAdjust="spacing" textLength="102.7686" x="252" y="225.5645">Response fields:</text><text font-size="13" lengthAdjust="spacing" textLength="248.6821" x="252" y="240.875">- id: Hex-encoded mining candidate ID</text><text font-size="13" lengthAdjust="spacing" textLength="202.541" x="252" y="256.1855">- prevhash: Previous block hash</text><text font-size="13" lengthAdjust="spacing" textLength="205.4355" x="252" y="271.4961">- coinbaseValue: Coinbase value</text><text font-size="13" lengthAdjust="spacing" textLength="148.9097" x="252" y="286.8066">- version: Block version</text><text font-size="13" lengthAdjust="spacing" textLength="205.2134" x="252" y="302.1172">- nBits: Encoded difficulty target</text><text font-size="13" lengthAdjust="spacing" textLength="166.8354" x="252" y="317.4277">- time: Current timestamp</text><text font-size="13" lengthAdjust="spacing" textLength="137.6616" x="252" y="332.7383">- height: Block height</text><text font-size="13" lengthAdjust="spacing" textLength="181.1494" x="252" y="348.0488">- num_tx: Transaction count</text><text font-size="13" lengthAdjust="spacing" textLength="214.373" x="252" y="363.3594">- sizeWithoutCoinbase: Block size</text><text font-size="13" lengthAdjust="spacing" textLength="225.0625" x="252" y="378.6699">- merkleProof: Merkle proof hashes</text><text font-size="13" lengthAdjust="spacing" textLength="206.2163" x="252" y="393.9805">- coinbase: Optional coinbase tx</text><text font-size="10" lengthAdjust="spacing" textLength="155.4346" y="464.8789">Last Modified On: 24-Feb-2025</text></g></svg>
