<?xml version="1.0" encoding="us-ascii" standalone="no"?><svg xmlns="http://www.w3.org/2000/svg" xmlns:xlink="http://www.w3.org/1999/xlink" contentStyleType="text/css" height="991px" preserveAspectRatio="none" style="width:1199px;height:991px;background:#FFFFFF;" version="1.1" viewBox="0 0 1199 991" width="1199px" zoomAndPan="magnify"><defs/><g><rect fill="#FFFFFF" height="773.832" style="stroke:#181818;stroke-width:1.0;" width="10" x="223" y="98.7988"/><rect fill="#FFFFFF" height="694.2109" style="stroke:#181818;stroke-width:1.0;" width="10" x="228" y="178.4199"/><rect fill="#FFFFFF" height="271.7949" style="stroke:#181818;stroke-width:1.0;" width="10" x="876" y="600.8359"/><rect fill="#FFFFFF" height="156.5527" style="stroke:#181818;stroke-width:1.0;" width="10" x="1112" y="688.7676"/><rect fill="none" height="145.2422" style="stroke:#000000;stroke-width:1.5;" width="450.5" x="159.5" y="298.3516"/><rect fill="none" height="75.9316" style="stroke:#000000;stroke-width:1.5;" width="1034" x="159.5" y="762.3887"/><line style="stroke:#181818;stroke-width:0.5;stroke-dasharray:5.0,5.0;" x1="40" x2="40" y1="67.4883" y2="897.6309"/><line style="stroke:#181818;stroke-width:0.5;stroke-dasharray:5.0,5.0;" x1="227.5" x2="227.5" y1="67.4883" y2="897.6309"/><line style="stroke:#181818;stroke-width:0.5;stroke-dasharray:5.0,5.0;" x1="502" x2="502" y1="67.4883" y2="897.6309"/><line style="stroke:#181818;stroke-width:0.5;stroke-dasharray:5.0,5.0;" x1="565" x2="565" y1="67.4883" y2="897.6309"/><line style="stroke:#181818;stroke-width:0.5;stroke-dasharray:5.0,5.0;" x1="662" x2="662" y1="67.4883" y2="897.6309"/><line style="stroke:#181818;stroke-width:0.5;stroke-dasharray:5.0,5.0;" x1="769" x2="769" y1="67.4883" y2="897.6309"/><line style="stroke:#181818;stroke-width:0.5;stroke-dasharray:5.0,5.0;" x1="881" x2="881" y1="67.4883" y2="897.6309"/><line style="stroke:#181818;stroke-width:0.5;stroke-dasharray:5.0,5.0;" x1="1116.5" x2="1116.5" y1="67.4883" y2="897.6309"/><rect fill="#E2E2F0" height="30.4883" rx="2.5" ry="2.5" style="stroke:#181818;stroke-width:0.5;" width="70" x="5" y="36"/><text fill="#000000" font-family="sans-serif" font-size="14" lengthAdjust="spacing" textLength="56" x="12" y="56.5352">MainNet</text><rect fill="#E2E2F0" height="30.4883" rx="2.5" ry="2.5" style="stroke:#181818;stroke-width:0.5;" width="70" x="5" y="896.6309"/><text fill="#000000" font-family="sans-serif" font-size="14" lengthAdjust="spacing" textLength="56" x="12" y="917.166">MainNet</text><rect fill="#E2E2F0" height="46.9766" rx="2.5" ry="2.5" style="stroke:#181818;stroke-width:0.5;" width="117" x="169.5" y="19.5117"/><text fill="#000000" font-family="sans-serif" font-size="14" lengthAdjust="spacing" textLength="75" x="190.5" y="40.0469">P2P Legacy</text><text fill="#000000" font-family="sans-serif" font-size="14" lengthAdjust="spacing" textLength="103" x="176.5" y="56.5352">Overlay Service</text><rect fill="#E2E2F0" height="46.9766" rx="2.5" ry="2.5" style="stroke:#181818;stroke-width:0.5;" width="117" x="169.5" y="896.6309"/><text fill="#000000" font-family="sans-serif" font-size="14" lengthAdjust="spacing" textLength="75" x="190.5" y="917.166">P2P Legacy</text><text fill="#000000" font-family="sans-serif" font-size="14" lengthAdjust="spacing" textLength="103" x="176.5" y="933.6543">Overlay Service</text><text fill="#000000" font-family="sans-serif" font-size="14" lengthAdjust="spacing" textLength="18" x="490" y="64.5352">db</text><path d="M484,15 C484,5 502,5 502,5 C502,5 520,5 520,15 L520,41 C520,51 502,51 502,51 C502,51 484,51 484,41 L484,15 " fill="#E2E2F0" style="stroke:#181818;stroke-width:1.5;"/><path d="M484,15 C484,25 502,25 502,25 C502,25 520,25 520,15 " fill="none" style="stroke:#181818;stroke-width:1.5;"/><text fill="#000000" font-family="sans-serif" font-size="14" lengthAdjust="spacing" textLength="18" x="490" y="910.166">db</text><path d="M484,923.1191 C484,913.1191 502,913.1191 502,913.1191 C502,913.1191 520,913.1191 520,923.1191 L520,949.1191 C520,959.1191 502,959.1191 502,959.1191 C502,959.1191 484,959.1191 484,949.1191 L484,923.1191 " fill="#E2E2F0" style="stroke:#181818;stroke-width:1.5;"/><path d="M484,923.1191 C484,933.1191 502,933.1191 502,933.1191 C502,933.1191 520,933.1191 520,923.1191 " fill="none" style="stroke:#181818;stroke-width:1.5;"/><text fill="#000000" font-family="sans-serif" font-size="14" lengthAdjust="spacing" textLength="64" x="530" y="64.5352">Tx Cache</text><path d="M547,15 C547,5 565,5 565,5 C565,5 583,5 583,15 L583,41 C583,51 565,51 565,51 C565,51 547,51 547,41 L547,15 " fill="#E2E2F0" style="stroke:#181818;stroke-width:1.5;"/><path d="M547,15 C547,25 565,25 565,25 C565,25 583,25 583,15 " fill="none" style="stroke:#181818;stroke-width:1.5;"/><text fill="#000000" font-family="sans-serif" font-size="14" lengthAdjust="spacing" textLength="64" x="530" y="910.166">Tx Cache</text><path d="M547,923.1191 C547,913.1191 565,913.1191 565,913.1191 C565,913.1191 583,913.1191 583,923.1191 L583,949.1191 C583,959.1191 565,959.1191 565,959.1191 C565,959.1191 547,959.1191 547,949.1191 L547,923.1191 " fill="#E2E2F0" style="stroke:#181818;stroke-width:1.5;"/><path d="M547,923.1191 C547,933.1191 565,933.1191 565,933.1191 C565,933.1191 583,933.1191 583,923.1191 " fill="none" style="stroke:#181818;stroke-width:1.5;"/><text fill="#000000" font-family="sans-serif" font-size="14" lengthAdjust="spacing" textLength="99" x="610" y="64.5352">Subtree Cache</text><path d="M644.5,15 C644.5,5 662.5,5 662.5,5 C662.5,5 680.5,5 680.5,15 L680.5,41 C680.5,51 662.5,51 662.5,51 C662.5,51 644.5,51 644.5,41 L644.5,15 " fill="#E2E2F0" style="stroke:#181818;stroke-width:1.5;"/><path d="M644.5,15 C644.5,25 662.5,25 662.5,25 C662.5,25 680.5,25 680.5,15 " fill="none" style="stroke:#181818;stroke-width:1.5;"/><text fill="#000000" font-family="sans-serif" font-size="14" lengthAdjust="spacing" textLength="99" x="610" y="910.166">Subtree Cache</text><path d="M644.5,923.1191 C644.5,913.1191 662.5,913.1191 662.5,913.1191 C662.5,913.1191 680.5,913.1191 680.5,923.1191 L680.5,949.1191 C680.5,959.1191 662.5,959.1191 662.5,959.1191 C662.5,959.1191 644.5,959.1191 644.5,949.1191 L644.5,923.1191 " fill="#E2E2F0" style="stroke:#181818;stroke-width:1.5;"/><path d="M644.5,923.1191 C644.5,933.1191 662.5,933.1191 662.5,933.1191 C662.5,933.1191 680.5,933.1191 680.5,923.1191 " fill="none" style="stroke:#181818;stroke-width:1.5;"/><text fill="#000000" font-family="sans-serif" font-size="14" lengthAdjust="spacing" textLength="82" x="725" y="64.5352">Block Cache</text><path d="M751,15 C751,5 769,5 769,5 C769,5 787,5 787,15 L787,41 C787,51 769,51 769,51 C769,51 751,51 751,41 L751,15 " fill="#E2E2F0" style="stroke:#181818;stroke-width:1.5;"/><path d="M751,15 C751,25 769,25 769,25 C769,25 787,25 787,15 " fill="none" style="stroke:#181818;stroke-width:1.5;"/><text fill="#000000" font-family="sans-serif" font-size="14" lengthAdjust="spacing" textLength="82" x="725" y="910.166">Block Cache</text><path d="M751,923.1191 C751,913.1191 769,913.1191 769,913.1191 C769,913.1191 787,913.1191 787,923.1191 L787,949.1191 C787,959.1191 769,959.1191 769,959.1191 C769,959.1191 751,959.1191 751,949.1191 L751,923.1191 " fill="#E2E2F0" style="stroke:#181818;stroke-width:1.5;"/><path d="M751,923.1191 C751,933.1191 769,933.1191 769,933.1191 C769,933.1191 787,933.1191 787,923.1191 " fill="none" style="stroke:#181818;stroke-width:1.5;"/><rect fill="#E2E2F0" height="46.9766" rx="2.5" ry="2.5" style="stroke:#181818;stroke-width:0.5;" width="116" x="823" y="19.5117"/><text fill="#000000" font-family="sans-serif" font-size="14" lengthAdjust="spacing" textLength="102" x="830" y="40.0469">Block Validator</text><text fill="#000000" font-family="sans-serif" font-size="14" lengthAdjust="spacing" textLength="76" x="843" y="56.5352">(Teranode)</text><rect fill="#E2E2F0" height="46.9766" rx="2.5" ry="2.5" style="stroke:#181818;stroke-width:0.5;" width="116" x="823" y="896.6309"/><text fill="#000000" font-family="sans-serif" font-size="14" lengthAdjust="spacing" textLength="102" x="830" y="917.166">Block Validator</text><text fill="#000000" font-family="sans-serif" font-size="14" lengthAdjust="spacing" textLength="76" x="843" y="933.6543">(Teranode)</text><rect fill="#E2E2F0" height="46.9766" rx="2.5" ry="2.5" style="stroke:#181818;stroke-width:0.5;" width="133" x="1050.5" y="19.5117"/><text fill="#000000" font-family="sans-serif" font-size="14" lengthAdjust="spacing" textLength="119" x="1057.5" y="40.0469">Subtree Validator</text><text fill="#000000" font-family="sans-serif" font-size="14" lengthAdjust="spacing" textLength="76" x="1079" y="56.5352">(Teranode)</text><rect fill="#E2E2F0" height="46.9766" rx="2.5" ry="2.5" style="stroke:#181818;stroke-width:0.5;" width="133" x="1050.5" y="896.6309"/><text fill="#000000" font-family="sans-serif" font-size="14" lengthAdjust="spacing" textLength="119" x="1057.5" y="917.166">Subtree Validator</text><text fill="#000000" font-family="sans-serif" font-size="14" lengthAdjust="spacing" textLength="76" x="1079" y="933.6543">(Teranode)</text><rect fill="#FFFFFF" height="773.832" style="stroke:#181818;stroke-width:1.0;" width="10" x="223" y="98.7988"/><rect fill="#FFFFFF" height="694.2109" style="stroke:#181818;stroke-width:1.0;" width="10" x="228" y="178.4199"/><rect fill="#FFFFFF" height="271.7949" style="stroke:#181818;stroke-width:1.0;" width="10" x="876" y="600.8359"/><rect fill="#FFFFFF" height="156.5527" style="stroke:#181818;stroke-width:1.0;" width="10" x="1112" y="688.7676"/><polygon fill="#181818" points="211,94.7988,221,98.7988,211,102.7988,215,98.7988" style="stroke:#181818;stroke-width:1.0;"/><line style="stroke:#181818;stroke-width:1.0;" x1="40" x2="217" y1="98.7988" y2="98.7988"/><text fill="#000000" font-family="sans-serif" font-size="13" lengthAdjust="spacing" textLength="164" x="47" y="94.0566">OnBlock(peer, msg, bytes)</text><line style="stroke:#181818;stroke-width:1.0;" x1="233" x2="275" y1="128.1094" y2="128.1094"/><line style="stroke:#181818;stroke-width:1.0;" x1="275" x2="275" y1="128.1094" y2="141.1094"/><line style="stroke:#181818;stroke-width:1.0;" x1="234" x2="275" y1="141.1094" y2="141.1094"/><polygon fill="#181818" points="244,137.1094,234,141.1094,244,145.1094,240,141.1094" style="stroke:#181818;stroke-width:1.0;"/><text fill="#000000" font-family="sans-serif" font-size="13" lengthAdjust="spacing" textLength="143" x="240" y="123.3672">build block from bytes</text><line style="stroke:#181818;stroke-width:1.0;" x1="233" x2="280" y1="165.4199" y2="165.4199"/><line style="stroke:#181818;stroke-width:1.0;" x1="280" x2="280" y1="165.4199" y2="178.4199"/><line style="stroke:#181818;stroke-width:1.0;" x1="239" x2="280" y1="178.4199" y2="178.4199"/><polygon fill="#181818" points="249,174.4199,239,178.4199,249,182.4199,245,178.4199" style="stroke:#181818;stroke-width:1.0;"/><text fill="#000000" font-family="sans-serif" font-size="13" lengthAdjust="spacing" textLength="121" x="245" y="160.6777">HandleBlock(block)</text><line style="stroke:#181818;stroke-width:1.0;" x1="238" x2="280" y1="212.7305" y2="212.7305"/><line style="stroke:#181818;stroke-width:1.0;" x1="280" x2="280" y1="212.7305" y2="225.7305"/><line style="stroke:#181818;stroke-width:1.0;" x1="239" x2="280" y1="225.7305" y2="225.7305"/><polygon fill="#181818" points="249,221.7305,239,225.7305,249,229.7305,245,225.7305" style="stroke:#181818;stroke-width:1.0;"/><text fill="#000000" font-family="sans-serif" font-size="13" lengthAdjust="spacing" textLength="180" x="245" y="207.9883">create a new (empty) subtree</text><line style="stroke:#181818;stroke-width:1.0;" x1="238" x2="280" y1="270.3516" y2="270.3516"/><line style="stroke:#181818;stroke-width:1.0;" x1="280" x2="280" y1="270.3516" y2="283.3516"/><line style="stroke:#181818;stroke-width:1.0;" x1="239" x2="280" y1="283.3516" y2="283.3516"/><polygon fill="#181818" points="249,279.3516,239,283.3516,249,287.3516,245,283.3516" style="stroke:#181818;stroke-width:1.0;"/><text fill="#000000" font-family="sans-serif" font-size="13" lengthAdjust="spacing" textLength="188" x="245" y="250.2988">add a placeholder coinbase tx</text><text fill="#000000" font-family="sans-serif" font-size="13" lengthAdjust="spacing" textLength="88" x="249" y="265.6094">to the subtree</text><path d="M159.5,298.3516 L233.5,298.3516 L233.5,305.6621 L223.5,315.6621 L159.5,315.6621 L159.5,298.3516 " fill="#EEEEEE" style="stroke:#000000;stroke-width:1.5;"/><rect fill="none" height="145.2422" style="stroke:#000000;stroke-width:1.5;" width="450.5" x="159.5" y="298.3516"/><text fill="#000000" font-family="sans-serif" font-size="13" font-weight="bold" lengthAdjust="spacing" textLength="29" x="174.5" y="311.9199">loop</text><text fill="#000000" font-family="sans-serif" font-size="11" font-weight="bold" lengthAdjust="spacing" textLength="47" x="248.5" y="310.9863">[each tx]</text><line style="stroke:#181818;stroke-width:1.0;" x1="238" x2="280" y1="336.9727" y2="336.9727"/><line style="stroke:#181818;stroke-width:1.0;" x1="280" x2="280" y1="336.9727" y2="349.9727"/><line style="stroke:#181818;stroke-width:1.0;" x1="239" x2="280" y1="349.9727" y2="349.9727"/><polygon fill="#181818" points="249,345.9727,239,349.9727,249,353.9727,245,349.9727" style="stroke:#181818;stroke-width:1.0;"/><text fill="#000000" font-family="sans-serif" font-size="13" lengthAdjust="spacing" textLength="212" x="245" y="332.2305">convert Tx to Extended Tx format</text><line style="stroke:#181818;stroke-width:1.0;" x1="238" x2="280" y1="379.2832" y2="379.2832"/><line style="stroke:#181818;stroke-width:1.0;" x1="280" x2="280" y1="379.2832" y2="392.2832"/><line style="stroke:#181818;stroke-width:1.0;" x1="239" x2="280" y1="392.2832" y2="392.2832"/><polygon fill="#181818" points="249,388.2832,239,392.2832,249,396.2832,245,392.2832" style="stroke:#181818;stroke-width:1.0;"/><text fill="#000000" font-family="sans-serif" font-size="13" lengthAdjust="spacing" textLength="197" x="245" y="374.541">add Extended Tx to the Subtree</text><polygon fill="#181818" points="553,417.5938,563,421.5938,553,425.5938,557,421.5938" style="stroke:#181818;stroke-width:1.0;"/><line style="stroke:#181818;stroke-width:1.0;" x1="238" x2="559" y1="421.5938" y2="421.5938"/><text fill="#000000" font-family="sans-serif" font-size="13" lengthAdjust="spacing" textLength="58" x="245" y="416.8516">Cache Tx</text><polygon fill="#181818" points="249,431.5938,239,435.5938,249,439.5938,245,435.5938" style="stroke:#181818;stroke-width:1.0;"/><line style="stroke:#181818;stroke-width:1.0;stroke-dasharray:2.0,2.0;" x1="243" x2="564" y1="435.5938" y2="435.5938"/><polygon fill="#181818" points="650.5,467.9043,660.5,471.9043,650.5,475.9043,654.5,471.9043" style="stroke:#181818;stroke-width:1.0;"/><line style="stroke:#181818;stroke-width:1.0;" x1="238" x2="656.5" y1="471.9043" y2="471.9043"/><text fill="#000000" font-family="sans-serif" font-size="13" lengthAdjust="spacing" textLength="89" x="245" y="467.1621">Cache Subtree</text><polygon fill="#181818" points="249,481.9043,239,485.9043,249,489.9043,245,485.9043" style="stroke:#181818;stroke-width:1.0;"/><line style="stroke:#181818;stroke-width:1.0;stroke-dasharray:2.0,2.0;" x1="243" x2="661.5" y1="485.9043" y2="485.9043"/><line style="stroke:#181818;stroke-width:1.0;" x1="238" x2="280" y1="515.2148" y2="515.2148"/><line style="stroke:#181818;stroke-width:1.0;" x1="280" x2="280" y1="515.2148" y2="528.2148"/><line style="stroke:#181818;stroke-width:1.0;" x1="239" x2="280" y1="528.2148" y2="528.2148"/><polygon fill="#181818" points="249,524.2148,239,528.2148,249,532.2148,245,528.2148" style="stroke:#181818;stroke-width:1.0;"/><text fill="#000000" font-family="sans-serif" font-size="13" lengthAdjust="spacing" textLength="245" x="245" y="510.4727">Build a Teranode block (block, subtree)</text><polygon fill="#181818" points="757,553.5254,767,557.5254,757,561.5254,761,557.5254" style="stroke:#181818;stroke-width:1.0;"/><line style="stroke:#181818;stroke-width:1.0;" x1="238" x2="763" y1="557.5254" y2="557.5254"/><text fill="#000000" font-family="sans-serif" font-size="13" lengthAdjust="spacing" textLength="138" x="245" y="552.7832">Cache Teranode Block</text><polygon fill="#181818" points="249,567.5254,239,571.5254,249,575.5254,245,571.5254" style="stroke:#181818;stroke-width:1.0;"/><line style="stroke:#181818;stroke-width:1.0;stroke-dasharray:2.0,2.0;" x1="243" x2="768" y1="571.5254" y2="571.5254"/><polygon fill="#181818" points="864,596.8359,874,600.8359,864,604.8359,868,600.8359" style="stroke:#181818;stroke-width:1.0;"/><line style="stroke:#181818;stroke-width:1.0;" x1="238" x2="870" y1="600.8359" y2="600.8359"/><text fill="#000000" font-family="sans-serif" font-size="13" lengthAdjust="spacing" textLength="200" x="245" y="596.0938">BlockFound(ctx, hash, base_url)</text><polygon fill="#181818" points="249,626.1465,239,630.1465,249,634.1465,245,630.1465" style="stroke:#181818;stroke-width:1.0;"/><line style="stroke:#181818;stroke-width:1.0;" x1="243" x2="875" y1="630.1465" y2="630.1465"/><text fill="#000000" font-family="sans-serif" font-size="13" lengthAdjust="spacing" textLength="184" x="255" y="625.4043">http://{base_url}/block/hash</text><polygon fill="#181818" points="864,655.457,874,659.457,864,663.457,868,659.457" style="stroke:#181818;stroke-width:1.0;"/><line style="stroke:#181818;stroke-width:1.0;stroke-dasharray:2.0,2.0;" x1="238" x2="870" y1="659.457" y2="659.457"/><text fill="#000000" font-family="sans-serif" font-size="13" lengthAdjust="spacing" textLength="104" x="245" y="654.7148">block (response)</text><polygon fill="#181818" points="1100,684.7676,1110,688.7676,1100,692.7676,1104,688.7676" style="stroke:#181818;stroke-width:1.0;"/><line style="stroke:#181818;stroke-width:1.0;" x1="886" x2="1106" y1="688.7676" y2="688.7676"/><text fill="#000000" font-family="sans-serif" font-size="13" lengthAdjust="spacing" textLength="207" x="893" y="684.0254">CheckSubtree(ctx, hash, baseUrl)</text><polygon fill="#181818" points="249,714.0781,239,718.0781,249,722.0781,245,718.0781" style="stroke:#181818;stroke-width:1.0;"/><line style="stroke:#181818;stroke-width:1.0;" x1="243" x2="1111" y1="718.0781" y2="718.0781"/><text fill="#000000" font-family="sans-serif" font-size="13" lengthAdjust="spacing" textLength="196" x="255" y="713.3359">http://{base_url}/subtree/hash</text><polygon fill="#181818" points="1100,743.3887,1110,747.3887,1100,751.3887,1104,747.3887" style="stroke:#181818;stroke-width:1.0;"/><line style="stroke:#181818;stroke-width:1.0;stroke-dasharray:2.0,2.0;" x1="238" x2="1106" y1="747.3887" y2="747.3887"/><text fill="#000000" font-family="sans-serif" font-size="13" lengthAdjust="spacing" textLength="116" x="245" y="742.6465">subtree (response)</text><path d="M159.5,762.3887 L233.5,762.3887 L233.5,769.6992 L223.5,779.6992 L159.5,779.6992 L159.5,762.3887 " fill="#EEEEEE" style="stroke:#000000;stroke-width:1.5;"/><rect fill="none" height="75.9316" style="stroke:#000000;stroke-width:1.5;" width="1034" x="159.5" y="762.3887"/><text fill="#000000" font-family="sans-serif" font-size="13" font-weight="bold" lengthAdjust="spacing" textLength="29" x="174.5" y="775.957">loop</text><text fill="#000000" font-family="sans-serif" font-size="11" font-weight="bold" lengthAdjust="spacing" textLength="58" x="248.5" y="775.0234">[each txid]</text><polygon fill="#181818" points="249,797.0098,239,801.0098,249,805.0098,245,801.0098" style="stroke:#181818;stroke-width:1.0;"/><line style="stroke:#181818;stroke-width:1.0;" x1="243" x2="1111" y1="801.0098" y2="801.0098"/><text fill="#000000" font-family="sans-serif" font-size="13" lengthAdjust="spacing" textLength="157" x="255" y="796.2676">http://{base_url}/tx/txid</text><polygon fill="#181818" points="1100,826.3203,1110,830.3203,1100,834.3203,1104,830.3203" style="stroke:#181818;stroke-width:1.0;"/><line style="stroke:#181818;stroke-width:1.0;stroke-dasharray:2.0,2.0;" x1="238" x2="1106" y1="830.3203" y2="830.3203"/><text fill="#000000" font-family="sans-serif" font-size="13" lengthAdjust="spacing" textLength="82" x="245" y="825.5781">tx (response)</text><line style="stroke:#181818;stroke-width:1.0;" x1="886" x2="928" y1="871.6309" y2="871.6309"/><line style="stroke:#181818;stroke-width:1.0;" x1="928" x2="928" y1="871.6309" y2="884.6309"/><line style="stroke:#181818;stroke-width:1.0;" x1="881" x2="928" y1="884.6309" y2="884.6309"/><polygon fill="#181818" points="891,880.6309,881,884.6309,891,888.6309,887,884.6309" style="stroke:#181818;stroke-width:1.0;"/><text fill="#000000" font-family="sans-serif" font-size="13" lengthAdjust="spacing" textLength="154" x="893" y="866.8887">Add block to blockchain</text><text fill="#888888" font-family="sans-serif" font-size="10" lengthAdjust="spacing" textLength="147" x="105.5" y="969.7871">P2P Legacy - Block Processing</text><text fill="#888888" font-family="sans-serif" font-size="10" lengthAdjust="spacing" textLength="358" x="3" y="981.5645">Last Modified On: 27-March-2024. &#169; 2024 Bitcoin SV. All rights reserved.</text><!--SRC=[bLNBYjim5DtxAovP9P172OM25uL9QUbYfWbaEgl0e4WtiHX5Cl9Dwb3wGVsDVbbbMuvbnmcjLxBkEVTv9ANCakGoPPhWYKdz3GbO1WUtr4XH6fW7g_aA7d7F-7cZboUqYfrXZVOaEGuAaYfjaM34jYn34DjcFNZEuHFZIOMal5m7vlLnInOnm6JLJXUuK8Q_1R1jyL-1MibMk1UcfECQkz73PxHC6u6ZXdSnjxbrChVPFhc67_cEmUIZxmF4iDHb5iCKqOxXaEt7i3qJPgE8SP8dHbZtBFAS2pk6xL4gKQK9EsiE5RKF-PLfeR0ALUB_oJ-tM00OQFm1GpoaT1xLTVN0cH0Ecoh6CJ5Ae0Lkf2vdGlb60ncW12yE8cLC2kZcuimHkAyd0wETYWYSD1pxSqwe1OhYTsViWT4DMf592FQH_T0w9A-qk5ACWvTslmkJYzl8kGkx5Agl9jSHGbleegThYtA836hr-7bMOnhNKKOXjH7q9UcQN8uuQW0tWhUb7LUqB-QenP1JFeQ4PObJeXlTwz6gG2oTCn6r_yEw4g8qdir-rav-pKhih73TfDAJYw_VOfOQdHMLNmVf7YxNXmJvcsz_juRlHGbD3TSdixjplmwFlgxaEYk_qwgcfNifIhNzNmAKpoxCk-4f3oEN-XLufm_NZUuEvq7K5uuxK-M29-vQQ_djQYGmrKhisLAu8tUg3Rbx8tX7O5A94rRMSCmogVVWxf97bhdNo0Yva-w8BtKCym-J9sPvCfc_cx-Vmf_VK2nW8QcuXM3zCeK7fS3AVK8PkAwuPmd5T13z1G00]--></g></svg>
