<?xml version="1.0" encoding="us-ascii" standalone="no"?><svg xmlns="http://www.w3.org/2000/svg" xmlns:xlink="http://www.w3.org/1999/xlink" contentStyleType="text/css" height="949px" preserveAspectRatio="none" style="width:1279px;height:949px;background:#FFFFFF;" version="1.1" viewBox="0 0 1279 949" width="1279px" zoomAndPan="magnify"><defs/><g><rect fill="#FFFFFF" height="731.5215" style="stroke:#181818;stroke-width:1.0;" width="10" x="223" y="98.7988"/><rect fill="#FFFFFF" height="651.9004" style="stroke:#181818;stroke-width:1.0;" width="10" x="228" y="178.4199"/><rect fill="#FFFFFF" height="271.7949" style="stroke:#181818;stroke-width:1.0;" width="10" x="956" y="558.5254"/><rect fill="#FFFFFF" height="156.5527" style="stroke:#181818;stroke-width:1.0;" width="10" x="1192" y="646.457"/><rect fill="none" height="102.9316" style="stroke:#000000;stroke-width:1.5;" width="530.5" x="159.5" y="298.3516"/><rect fill="none" height="75.9316" style="stroke:#000000;stroke-width:1.5;" width="1114" x="159.5" y="720.0781"/><line style="stroke:#181818;stroke-width:0.5;stroke-dasharray:5.0,5.0;" x1="40" x2="40" y1="67.4883" y2="855.3203"/><line style="stroke:#181818;stroke-width:0.5;stroke-dasharray:5.0,5.0;" x1="227.5" x2="227.5" y1="67.4883" y2="855.3203"/><line style="stroke:#181818;stroke-width:0.5;stroke-dasharray:5.0,5.0;" x1="582" x2="582" y1="67.4883" y2="855.3203"/><line style="stroke:#181818;stroke-width:0.5;stroke-dasharray:5.0,5.0;" x1="645" x2="645" y1="67.4883" y2="855.3203"/><line style="stroke:#181818;stroke-width:0.5;stroke-dasharray:5.0,5.0;" x1="742" x2="742" y1="67.4883" y2="855.3203"/><line style="stroke:#181818;stroke-width:0.5;stroke-dasharray:5.0,5.0;" x1="849" x2="849" y1="67.4883" y2="855.3203"/><line style="stroke:#181818;stroke-width:0.5;stroke-dasharray:5.0,5.0;" x1="961" x2="961" y1="67.4883" y2="855.3203"/><line style="stroke:#181818;stroke-width:0.5;stroke-dasharray:5.0,5.0;" x1="1196.5" x2="1196.5" y1="67.4883" y2="855.3203"/><rect fill="#E2E2F0" height="30.4883" rx="2.5" ry="2.5" style="stroke:#181818;stroke-width:0.5;" width="70" x="5" y="36"/><text fill="#000000" font-family="sans-serif" font-size="14" lengthAdjust="spacing" textLength="56" x="12" y="56.5352">MainNet</text><rect fill="#E2E2F0" height="30.4883" rx="2.5" ry="2.5" style="stroke:#181818;stroke-width:0.5;" width="70" x="5" y="854.3203"/><text fill="#000000" font-family="sans-serif" font-size="14" lengthAdjust="spacing" textLength="56" x="12" y="874.8555">MainNet</text><rect fill="#E2E2F0" height="46.9766" rx="2.5" ry="2.5" style="stroke:#181818;stroke-width:0.5;" width="117" x="169.5" y="19.5117"/><text fill="#000000" font-family="sans-serif" font-size="14" lengthAdjust="spacing" textLength="75" x="190.5" y="40.0469">P2P Legacy</text><text fill="#000000" font-family="sans-serif" font-size="14" lengthAdjust="spacing" textLength="103" x="176.5" y="56.5352">Overlay Service</text><rect fill="#E2E2F0" height="46.9766" rx="2.5" ry="2.5" style="stroke:#181818;stroke-width:0.5;" width="117" x="169.5" y="854.3203"/><text fill="#000000" font-family="sans-serif" font-size="14" lengthAdjust="spacing" textLength="75" x="190.5" y="874.8555">P2P Legacy</text><text fill="#000000" font-family="sans-serif" font-size="14" lengthAdjust="spacing" textLength="103" x="176.5" y="891.3438">Overlay Service</text><text fill="#000000" font-family="sans-serif" font-size="14" lengthAdjust="spacing" textLength="18" x="570" y="64.5352">db</text><path d="M564,15 C564,5 582,5 582,5 C582,5 600,5 600,15 L600,41 C600,51 582,51 582,51 C582,51 564,51 564,41 L564,15 " fill="#E2E2F0" style="stroke:#181818;stroke-width:1.5;"/><path d="M564,15 C564,25 582,25 582,25 C582,25 600,25 600,15 " fill="none" style="stroke:#181818;stroke-width:1.5;"/><text fill="#000000" font-family="sans-serif" font-size="14" lengthAdjust="spacing" textLength="18" x="570" y="867.8555">db</text><path d="M564,880.8086 C564,870.8086 582,870.8086 582,870.8086 C582,870.8086 600,870.8086 600,880.8086 L600,906.8086 C600,916.8086 582,916.8086 582,916.8086 C582,916.8086 564,916.8086 564,906.8086 L564,880.8086 " fill="#E2E2F0" style="stroke:#181818;stroke-width:1.5;"/><path d="M564,880.8086 C564,890.8086 582,890.8086 582,890.8086 C582,890.8086 600,890.8086 600,880.8086 " fill="none" style="stroke:#181818;stroke-width:1.5;"/><text fill="#000000" font-family="sans-serif" font-size="14" lengthAdjust="spacing" textLength="64" x="610" y="64.5352">Tx Cache</text><path d="M627,15 C627,5 645,5 645,5 C645,5 663,5 663,15 L663,41 C663,51 645,51 645,51 C645,51 627,51 627,41 L627,15 " fill="#E2E2F0" style="stroke:#181818;stroke-width:1.5;"/><path d="M627,15 C627,25 645,25 645,25 C645,25 663,25 663,15 " fill="none" style="stroke:#181818;stroke-width:1.5;"/><text fill="#000000" font-family="sans-serif" font-size="14" lengthAdjust="spacing" textLength="64" x="610" y="867.8555">Tx Cache</text><path d="M627,880.8086 C627,870.8086 645,870.8086 645,870.8086 C645,870.8086 663,870.8086 663,880.8086 L663,906.8086 C663,916.8086 645,916.8086 645,916.8086 C645,916.8086 627,916.8086 627,906.8086 L627,880.8086 " fill="#E2E2F0" style="stroke:#181818;stroke-width:1.5;"/><path d="M627,880.8086 C627,890.8086 645,890.8086 645,890.8086 C645,890.8086 663,890.8086 663,880.8086 " fill="none" style="stroke:#181818;stroke-width:1.5;"/><text fill="#000000" font-family="sans-serif" font-size="14" lengthAdjust="spacing" textLength="99" x="690" y="64.5352">Subtree Cache</text><path d="M724.5,15 C724.5,5 742.5,5 742.5,5 C742.5,5 760.5,5 760.5,15 L760.5,41 C760.5,51 742.5,51 742.5,51 C742.5,51 724.5,51 724.5,41 L724.5,15 " fill="#E2E2F0" style="stroke:#181818;stroke-width:1.5;"/><path d="M724.5,15 C724.5,25 742.5,25 742.5,25 C742.5,25 760.5,25 760.5,15 " fill="none" style="stroke:#181818;stroke-width:1.5;"/><text fill="#000000" font-family="sans-serif" font-size="14" lengthAdjust="spacing" textLength="99" x="690" y="867.8555">Subtree Cache</text><path d="M724.5,880.8086 C724.5,870.8086 742.5,870.8086 742.5,870.8086 C742.5,870.8086 760.5,870.8086 760.5,880.8086 L760.5,906.8086 C760.5,916.8086 742.5,916.8086 742.5,916.8086 C742.5,916.8086 724.5,916.8086 724.5,906.8086 L724.5,880.8086 " fill="#E2E2F0" style="stroke:#181818;stroke-width:1.5;"/><path d="M724.5,880.8086 C724.5,890.8086 742.5,890.8086 742.5,890.8086 C742.5,890.8086 760.5,890.8086 760.5,880.8086 " fill="none" style="stroke:#181818;stroke-width:1.5;"/><text fill="#000000" font-family="sans-serif" font-size="14" lengthAdjust="spacing" textLength="82" x="805" y="64.5352">Block Cache</text><path d="M831,15 C831,5 849,5 849,5 C849,5 867,5 867,15 L867,41 C867,51 849,51 849,51 C849,51 831,51 831,41 L831,15 " fill="#E2E2F0" style="stroke:#181818;stroke-width:1.5;"/><path d="M831,15 C831,25 849,25 849,25 C849,25 867,25 867,15 " fill="none" style="stroke:#181818;stroke-width:1.5;"/><text fill="#000000" font-family="sans-serif" font-size="14" lengthAdjust="spacing" textLength="82" x="805" y="867.8555">Block Cache</text><path d="M831,880.8086 C831,870.8086 849,870.8086 849,870.8086 C849,870.8086 867,870.8086 867,880.8086 L867,906.8086 C867,916.8086 849,916.8086 849,916.8086 C849,916.8086 831,916.8086 831,906.8086 L831,880.8086 " fill="#E2E2F0" style="stroke:#181818;stroke-width:1.5;"/><path d="M831,880.8086 C831,890.8086 849,890.8086 849,890.8086 C849,890.8086 867,890.8086 867,880.8086 " fill="none" style="stroke:#181818;stroke-width:1.5;"/><rect fill="#E2E2F0" height="46.9766" rx="2.5" ry="2.5" style="stroke:#181818;stroke-width:0.5;" width="116" x="903" y="19.5117"/><text fill="#000000" font-family="sans-serif" font-size="14" lengthAdjust="spacing" textLength="102" x="910" y="40.0469">Block Validator</text><text fill="#000000" font-family="sans-serif" font-size="14" lengthAdjust="spacing" textLength="76" x="923" y="56.5352">(Teranode)</text><rect fill="#E2E2F0" height="46.9766" rx="2.5" ry="2.5" style="stroke:#181818;stroke-width:0.5;" width="116" x="903" y="854.3203"/><text fill="#000000" font-family="sans-serif" font-size="14" lengthAdjust="spacing" textLength="102" x="910" y="874.8555">Block Validator</text><text fill="#000000" font-family="sans-serif" font-size="14" lengthAdjust="spacing" textLength="76" x="923" y="891.3438">(Teranode)</text><rect fill="#E2E2F0" height="46.9766" rx="2.5" ry="2.5" style="stroke:#181818;stroke-width:0.5;" width="133" x="1130.5" y="19.5117"/><text fill="#000000" font-family="sans-serif" font-size="14" lengthAdjust="spacing" textLength="119" x="1137.5" y="40.0469">Subtree Validator</text><text fill="#000000" font-family="sans-serif" font-size="14" lengthAdjust="spacing" textLength="76" x="1159" y="56.5352">(Teranode)</text><rect fill="#E2E2F0" height="46.9766" rx="2.5" ry="2.5" style="stroke:#181818;stroke-width:0.5;" width="133" x="1130.5" y="854.3203"/><text fill="#000000" font-family="sans-serif" font-size="14" lengthAdjust="spacing" textLength="119" x="1137.5" y="874.8555">Subtree Validator</text><text fill="#000000" font-family="sans-serif" font-size="14" lengthAdjust="spacing" textLength="76" x="1159" y="891.3438">(Teranode)</text><rect fill="#FFFFFF" height="731.5215" style="stroke:#181818;stroke-width:1.0;" width="10" x="223" y="98.7988"/><rect fill="#FFFFFF" height="651.9004" style="stroke:#181818;stroke-width:1.0;" width="10" x="228" y="178.4199"/><rect fill="#FFFFFF" height="271.7949" style="stroke:#181818;stroke-width:1.0;" width="10" x="956" y="558.5254"/><rect fill="#FFFFFF" height="156.5527" style="stroke:#181818;stroke-width:1.0;" width="10" x="1192" y="646.457"/><polygon fill="#181818" points="211,94.7988,221,98.7988,211,102.7988,215,98.7988" style="stroke:#181818;stroke-width:1.0;"/><line style="stroke:#181818;stroke-width:1.0;" x1="40" x2="217" y1="98.7988" y2="98.7988"/><text fill="#000000" font-family="sans-serif" font-size="13" lengthAdjust="spacing" textLength="164" x="47" y="94.0566">OnBlock(peer, msg, bytes)</text><line style="stroke:#181818;stroke-width:1.0;" x1="233" x2="275" y1="128.1094" y2="128.1094"/><line style="stroke:#181818;stroke-width:1.0;" x1="275" x2="275" y1="128.1094" y2="141.1094"/><line style="stroke:#181818;stroke-width:1.0;" x1="234" x2="275" y1="141.1094" y2="141.1094"/><polygon fill="#181818" points="244,137.1094,234,141.1094,244,145.1094,240,141.1094" style="stroke:#181818;stroke-width:1.0;"/><text fill="#000000" font-family="sans-serif" font-size="13" lengthAdjust="spacing" textLength="143" x="240" y="123.3672">build block from bytes</text><line style="stroke:#181818;stroke-width:1.0;" x1="233" x2="280" y1="165.4199" y2="165.4199"/><line style="stroke:#181818;stroke-width:1.0;" x1="280" x2="280" y1="165.4199" y2="178.4199"/><line style="stroke:#181818;stroke-width:1.0;" x1="239" x2="280" y1="178.4199" y2="178.4199"/><polygon fill="#181818" points="249,174.4199,239,178.4199,249,182.4199,245,178.4199" style="stroke:#181818;stroke-width:1.0;"/><text fill="#000000" font-family="sans-serif" font-size="13" lengthAdjust="spacing" textLength="121" x="245" y="160.6777">HandleBlock(block)</text><line style="stroke:#181818;stroke-width:1.0;" x1="238" x2="280" y1="212.7305" y2="212.7305"/><line style="stroke:#181818;stroke-width:1.0;" x1="280" x2="280" y1="212.7305" y2="225.7305"/><line style="stroke:#181818;stroke-width:1.0;" x1="239" x2="280" y1="225.7305" y2="225.7305"/><polygon fill="#181818" points="249,221.7305,239,225.7305,249,229.7305,245,225.7305" style="stroke:#181818;stroke-width:1.0;"/><text fill="#000000" font-family="sans-serif" font-size="13" lengthAdjust="spacing" textLength="180" x="245" y="207.9883">create a new (empty) subtree</text><line style="stroke:#181818;stroke-width:1.0;" x1="238" x2="280" y1="270.3516" y2="270.3516"/><line style="stroke:#181818;stroke-width:1.0;" x1="280" x2="280" y1="270.3516" y2="283.3516"/><line style="stroke:#181818;stroke-width:1.0;" x1="239" x2="280" y1="283.3516" y2="283.3516"/><polygon fill="#181818" points="249,279.3516,239,283.3516,249,287.3516,245,283.3516" style="stroke:#181818;stroke-width:1.0;"/><text fill="#000000" font-family="sans-serif" font-size="13" lengthAdjust="spacing" textLength="188" x="245" y="250.2988">add a placeholder coinbase tx</text><text fill="#000000" font-family="sans-serif" font-size="13" lengthAdjust="spacing" textLength="88" x="249" y="265.6094">to the subtree</text><path d="M159.5,298.3516 L233.5,298.3516 L233.5,305.6621 L223.5,315.6621 L159.5,315.6621 L159.5,298.3516 " fill="#EEEEEE" style="stroke:#000000;stroke-width:1.5;"/><rect fill="none" height="102.9316" style="stroke:#000000;stroke-width:1.5;" width="530.5" x="159.5" y="298.3516"/><text fill="#000000" font-family="sans-serif" font-size="13" font-weight="bold" lengthAdjust="spacing" textLength="29" x="174.5" y="311.9199">loop</text><text fill="#000000" font-family="sans-serif" font-size="11" font-weight="bold" lengthAdjust="spacing" textLength="47" x="248.5" y="310.9863">[each tx]</text><line style="stroke:#181818;stroke-width:1.0;" x1="238" x2="280" y1="336.9727" y2="336.9727"/><line style="stroke:#181818;stroke-width:1.0;" x1="280" x2="280" y1="336.9727" y2="349.9727"/><line style="stroke:#181818;stroke-width:1.0;" x1="239" x2="280" y1="349.9727" y2="349.9727"/><polygon fill="#181818" points="249,345.9727,239,349.9727,249,353.9727,245,349.9727" style="stroke:#181818;stroke-width:1.0;"/><text fill="#000000" font-family="sans-serif" font-size="13" lengthAdjust="spacing" textLength="171" x="245" y="332.2305">add Tx Hash to the Subtree</text><polygon fill="#181818" points="633,375.2832,643,379.2832,633,383.2832,637,379.2832" style="stroke:#181818;stroke-width:1.0;"/><line style="stroke:#181818;stroke-width:1.0;" x1="238" x2="639" y1="379.2832" y2="379.2832"/><text fill="#000000" font-family="sans-serif" font-size="13" lengthAdjust="spacing" textLength="58" x="245" y="374.541">Cache Tx</text><polygon fill="#181818" points="249,389.2832,239,393.2832,249,397.2832,245,393.2832" style="stroke:#181818;stroke-width:1.0;"/><line style="stroke:#181818;stroke-width:1.0;stroke-dasharray:2.0,2.0;" x1="243" x2="644" y1="393.2832" y2="393.2832"/><polygon fill="#181818" points="730.5,425.5938,740.5,429.5938,730.5,433.5938,734.5,429.5938" style="stroke:#181818;stroke-width:1.0;"/><line style="stroke:#181818;stroke-width:1.0;" x1="238" x2="736.5" y1="429.5938" y2="429.5938"/><text fill="#000000" font-family="sans-serif" font-size="13" lengthAdjust="spacing" textLength="89" x="245" y="424.8516">Cache Subtree</text><polygon fill="#181818" points="249,439.5938,239,443.5938,249,447.5938,245,443.5938" style="stroke:#181818;stroke-width:1.0;"/><line style="stroke:#181818;stroke-width:1.0;stroke-dasharray:2.0,2.0;" x1="243" x2="741.5" y1="443.5938" y2="443.5938"/><line style="stroke:#181818;stroke-width:1.0;" x1="238" x2="280" y1="472.9043" y2="472.9043"/><line style="stroke:#181818;stroke-width:1.0;" x1="280" x2="280" y1="472.9043" y2="485.9043"/><line style="stroke:#181818;stroke-width:1.0;" x1="239" x2="280" y1="485.9043" y2="485.9043"/><polygon fill="#181818" points="249,481.9043,239,485.9043,249,489.9043,245,485.9043" style="stroke:#181818;stroke-width:1.0;"/><text fill="#000000" font-family="sans-serif" font-size="13" lengthAdjust="spacing" textLength="325" x="245" y="468.1621">Build a Teranode block (block, coinbaseTx, subtree)</text><polygon fill="#181818" points="837,511.2148,847,515.2148,837,519.2148,841,515.2148" style="stroke:#181818;stroke-width:1.0;"/><line style="stroke:#181818;stroke-width:1.0;" x1="238" x2="843" y1="515.2148" y2="515.2148"/><text fill="#000000" font-family="sans-serif" font-size="13" lengthAdjust="spacing" textLength="138" x="245" y="510.4727">Cache Teranode Block</text><polygon fill="#181818" points="249,525.2148,239,529.2148,249,533.2148,245,529.2148" style="stroke:#181818;stroke-width:1.0;"/><line style="stroke:#181818;stroke-width:1.0;stroke-dasharray:2.0,2.0;" x1="243" x2="848" y1="529.2148" y2="529.2148"/><polygon fill="#181818" points="944,554.5254,954,558.5254,944,562.5254,948,558.5254" style="stroke:#181818;stroke-width:1.0;"/><line style="stroke:#181818;stroke-width:1.0;" x1="238" x2="950" y1="558.5254" y2="558.5254"/><text fill="#000000" font-family="sans-serif" font-size="13" lengthAdjust="spacing" textLength="200" x="245" y="553.7832">BlockFound(ctx, hash, base_url)</text><polygon fill="#181818" points="249,583.8359,239,587.8359,249,591.8359,245,587.8359" style="stroke:#181818;stroke-width:1.0;"/><line style="stroke:#181818;stroke-width:1.0;" x1="243" x2="955" y1="587.8359" y2="587.8359"/><text fill="#000000" font-family="sans-serif" font-size="13" lengthAdjust="spacing" textLength="184" x="255" y="583.0938">http://{base_url}/block/hash</text><polygon fill="#181818" points="944,613.1465,954,617.1465,944,621.1465,948,617.1465" style="stroke:#181818;stroke-width:1.0;"/><line style="stroke:#181818;stroke-width:1.0;stroke-dasharray:2.0,2.0;" x1="238" x2="950" y1="617.1465" y2="617.1465"/><text fill="#000000" font-family="sans-serif" font-size="13" lengthAdjust="spacing" textLength="104" x="245" y="612.4043">block (response)</text><polygon fill="#181818" points="1180,642.457,1190,646.457,1180,650.457,1184,646.457" style="stroke:#181818;stroke-width:1.0;"/><line style="stroke:#181818;stroke-width:1.0;" x1="966" x2="1186" y1="646.457" y2="646.457"/><text fill="#000000" font-family="sans-serif" font-size="13" lengthAdjust="spacing" textLength="207" x="973" y="641.7148">CheckSubtree(ctx, hash, baseUrl)</text><polygon fill="#181818" points="249,671.7676,239,675.7676,249,679.7676,245,675.7676" style="stroke:#181818;stroke-width:1.0;"/><line style="stroke:#181818;stroke-width:1.0;" x1="243" x2="1191" y1="675.7676" y2="675.7676"/><text fill="#000000" font-family="sans-serif" font-size="13" lengthAdjust="spacing" textLength="196" x="255" y="671.0254">http://{base_url}/subtree/hash</text><polygon fill="#181818" points="1180,701.0781,1190,705.0781,1180,709.0781,1184,705.0781" style="stroke:#181818;stroke-width:1.0;"/><line style="stroke:#181818;stroke-width:1.0;stroke-dasharray:2.0,2.0;" x1="238" x2="1186" y1="705.0781" y2="705.0781"/><text fill="#000000" font-family="sans-serif" font-size="13" lengthAdjust="spacing" textLength="116" x="245" y="700.3359">subtree (response)</text><path d="M159.5,720.0781 L233.5,720.0781 L233.5,727.3887 L223.5,737.3887 L159.5,737.3887 L159.5,720.0781 " fill="#EEEEEE" style="stroke:#000000;stroke-width:1.5;"/><rect fill="none" height="75.9316" style="stroke:#000000;stroke-width:1.5;" width="1114" x="159.5" y="720.0781"/><text fill="#000000" font-family="sans-serif" font-size="13" font-weight="bold" lengthAdjust="spacing" textLength="29" x="174.5" y="733.6465">loop</text><text fill="#000000" font-family="sans-serif" font-size="11" font-weight="bold" lengthAdjust="spacing" textLength="58" x="248.5" y="732.7129">[each txid]</text><polygon fill="#181818" points="249,754.6992,239,758.6992,249,762.6992,245,758.6992" style="stroke:#181818;stroke-width:1.0;"/><line style="stroke:#181818;stroke-width:1.0;" x1="243" x2="1191" y1="758.6992" y2="758.6992"/><text fill="#000000" font-family="sans-serif" font-size="13" lengthAdjust="spacing" textLength="157" x="255" y="753.957">http://{base_url}/tx/txid</text><polygon fill="#181818" points="1180,784.0098,1190,788.0098,1180,792.0098,1184,788.0098" style="stroke:#181818;stroke-width:1.0;"/><line style="stroke:#181818;stroke-width:1.0;stroke-dasharray:2.0,2.0;" x1="238" x2="1186" y1="788.0098" y2="788.0098"/><text fill="#000000" font-family="sans-serif" font-size="13" lengthAdjust="spacing" textLength="82" x="245" y="783.2676">tx (response)</text><line style="stroke:#181818;stroke-width:1.0;" x1="966" x2="1008" y1="829.3203" y2="829.3203"/><line style="stroke:#181818;stroke-width:1.0;" x1="1008" x2="1008" y1="829.3203" y2="842.3203"/><line style="stroke:#181818;stroke-width:1.0;" x1="961" x2="1008" y1="842.3203" y2="842.3203"/><polygon fill="#181818" points="971,838.3203,961,842.3203,971,846.3203,967,842.3203" style="stroke:#181818;stroke-width:1.0;"/><text fill="#000000" font-family="sans-serif" font-size="13" lengthAdjust="spacing" textLength="154" x="973" y="824.5781">Add block to blockchain</text><text fill="#888888" font-family="sans-serif" font-size="10" lengthAdjust="spacing" textLength="147" x="105.5" y="927.4766">P2P Legacy - Block Processing</text><text fill="#888888" font-family="sans-serif" font-size="10" lengthAdjust="spacing" textLength="358" x="3" y="939.2539">Last Modified On: 27-March-2024. &#169; 2024 Bitcoin SV. All rights reserved.</text><!--SRC=[bLNBYjim5DtxAovP9P172OL25eL9eSnYfXD8Egk18aitiHX5CfAIEfH-K7-ZNrRPbcpPyOIfLxBkEVTv9EL4MqvvJgI5HyBbDxH031pTKg9DyiWysYmty807GYylykcCMf0BR56VESLHIHALBM74afGO19Qswz6kW2-4PZNI5jKwCczFgTM84SRKEttWMYZw6i7Iyhy6TPAjSSz4SCTL-aMETwY9L0mdBQynTxaXcRVPFhcMd_YEmUopxmEiu4bMMOnpH3s5epbC8RrOD9E4KClFn6BeMU8v3Ni5wOaBLgS9UwsEDNK8UKya4rY7gl3lyayrbW024d_268-vlKn2NGDmmfZ3ve9Gp9HWg84gBgkPsE95WbLWCsmS94Af7D3DnPaJSD-mIoUBUsAoGFUTxn6yN5Rrs1sdiljTc3Kk4vGiBZMMK2272B4jTZ5G-hgQ184W0J-KkjVJfW-xOXeYJc8thKAR0eAZQcP92tWZaQvMLpNjgpf9DgRMHSrS1vsqN0u_Jbf4q- -9FEd-npLcrkQhnU9NSF9xKM4NfUisbO5SV2yqcbn9KrP-7QH_MbmVCgIlVXJz6hwN9RGrN1-r_ixjEZpwkfBhhFnEfvgEa3chbFT_2TXYqJ1lXhT57BdICiCRVRXkT7yuTopS8EvyLGkQkNkguxUlaSWKb3Ym9N1lOQ-KTHT1z330h1OdRBIYQ0oN1t2NmmCnxdbHZEyvCdSjhc3vQVP8DCrcom_BZtFu-mVA1QovBOyJR9_dS2S4Q7x8h07N5VVE89kFady0]--></g></svg>
