<svg xmlns="http://www.w3.org/2000/svg" xmlns:xlink="http://www.w3.org/1999/xlink" contentStyleType="text/css" height="885px" preserveAspectRatio="none" style="width:467px;height:885px;background:#FFFFFF;" version="1.1" viewBox="0 0 467 885" width="467px" zoomAndPan="magnify"><title>Teranode Error Handling Flowchart</title><defs/><g><text fill="#000000" font-family="Verdana" font-size="22" font-weight="bold" lengthAdjust="spacing" textLength="434.5215" x="15" y="37.1182">Teranode Error Handling Flowchart</text><ellipse cx="215.568" cy="62.7373" fill="#FFFFFF" rx="10" ry="10" style="stroke:#000000;stroke-width:1.0;"/><rect fill="#FFFFFF" height="34.584" rx="12.5" ry="12.5" style="stroke:#000000;stroke-width:1.0;" width="154.7773" x="138.1793" y="141.4216"/><text fill="#000000" font-family="Verdana" font-size="12" lengthAdjust="spacing" textLength="134.7773" x="148.1793" y="163.4861">Create Teranode Error</text><rect fill="#FFFFFF" height="34.584" rx="12.5" ry="12.5" style="stroke:#000000;stroke-width:1.0;" width="94.3379" x="168.399" y="196.0056"/><text fill="#000000" font-family="Verdana" font-size="12" lengthAdjust="spacing" textLength="74.3379" x="178.399" y="218.0701">Add Context</text><rect fill="#FFFFFF" height="34.584" rx="12.5" ry="12.5" style="stroke:#000000;stroke-width:1.0;" width="139.4551" x="145.8405" y="299.2739"/><text fill="#000000" font-family="Verdana" font-size="12" lengthAdjust="spacing" textLength="119.4551" x="155.8405" y="321.3384">Wrap as gRPC Error</text><rect fill="#FFFFFF" height="34.584" rx="12.5" ry="12.5" style="stroke:#000000;stroke-width:1.0;" width="120.5293" x="155.3033" y="353.8579"/><text fill="#000000" font-family="Verdana" font-size="12" lengthAdjust="spacing" textLength="100.5293" x="165.3033" y="375.9224">Send gRPC Error</text><rect fill="#FFFFFF" height="34.584" rx="12.5" ry="12.5" style="stroke:#000000;stroke-width:1.0;" width="136.543" x="147.2965" y="408.4419"/><text fill="#000000" font-family="Verdana" font-size="12" lengthAdjust="spacing" textLength="116.543" x="157.2965" y="430.5063">Receive gRPC Error</text><rect fill="#FFFFFF" height="34.584" rx="12.5" ry="12.5" style="stroke:#000000;stroke-width:1.0;" width="136.1094" x="147.5133" y="472.6335"/><text fill="#000000" font-family="Verdana" font-size="12" lengthAdjust="spacing" textLength="116.1094" x="157.5133" y="494.698">Unwrap gRPC Error</text><rect fill="#FFFFFF" height="34.584" rx="12.5" ry="12.5" style="stroke:#000000;stroke-width:1.0;" width="186.3418" x="122.3971" y="527.2175"/><text fill="#000000" font-family="Verdana" font-size="12" lengthAdjust="spacing" textLength="166.3418" x="132.3971" y="549.282">Reconstruct Teranode Error</text><rect fill="#FFFFFF" height="34.584" rx="12.5" ry="12.5" style="stroke:#000000;stroke-width:1.0;" width="94.3379" x="168.399" y="638.3606"/><text fill="#000000" font-family="Verdana" font-size="12" lengthAdjust="spacing" textLength="74.3379" x="178.399" y="660.425">Add Context</text><polygon fill="#FFFFFF" points="152.7826,581.8015,278.3534,581.8015,290.3534,593.8015,278.3534,605.8015,152.7826,605.8015,140.7826,593.8015,152.7826,581.8015" style="stroke:#000000;stroke-width:1.0;"/><text fill="#000000" font-family="Verdana" font-size="11" lengthAdjust="spacing" textLength="18.7935" x="219.568" y="616.8606">yes</text><text fill="#000000" font-family="Verdana" font-size="11" lengthAdjust="spacing" textLength="125.5708" x="152.7826" y="598.1763">More Context Needed?</text><text fill="#000000" font-family="Verdana" font-size="11" lengthAdjust="spacing" textLength="13.6372" x="127.1454" y="591.4919">no</text><polygon fill="#FFFFFF" points="138.337,250.5896,292.799,250.5896,304.799,262.5896,292.799,274.5896,138.337,274.5896,126.337,262.5896,138.337,250.5896" style="stroke:#000000;stroke-width:1.0;"/><text fill="#000000" font-family="Verdana" font-size="11" lengthAdjust="spacing" textLength="18.7935" x="219.568" y="285.6487">yes</text><text fill="#000000" font-family="Verdana" font-size="11" lengthAdjust="spacing" textLength="154.4619" x="138.337" y="266.9644">Crossing Service Boundary?</text><text fill="#000000" font-family="Verdana" font-size="11" lengthAdjust="spacing" textLength="13.6372" x="304.799" y="260.28">no</text><polygon fill="#FFFFFF" points="215.568,714.9446,227.568,726.9446,215.568,738.9446,203.568,726.9446,215.568,714.9446" style="stroke:#000000;stroke-width:1.0;"/><rect fill="#FFFFFF" height="34.584" rx="12.5" ry="12.5" style="stroke:#000000;stroke-width:1.0;" width="96.1895" x="167.4733" y="758.9446"/><text fill="#000000" font-family="Verdana" font-size="12" lengthAdjust="spacing" textLength="76.1895" x="177.4733" y="781.009">Handle Error</text><polygon fill="#FFFFFF" points="171.8392,92.7373,259.2968,92.7373,271.2968,104.7373,259.2968,116.7373,171.8392,116.7373,159.8392,104.7373,171.8392,92.7373" style="stroke:#000000;stroke-width:1.0;"/><text fill="#000000" font-family="Verdana" font-size="11" lengthAdjust="spacing" textLength="18.7935" x="219.568" y="127.7964">yes</text><text fill="#000000" font-family="Verdana" font-size="11" lengthAdjust="spacing" textLength="87.4575" x="171.8392" y="109.1121">Error Occurred?</text><text fill="#000000" font-family="Verdana" font-size="11" lengthAdjust="spacing" textLength="13.6372" x="271.2968" y="102.4277">no</text><polygon fill="#FFFFFF" points="215.568,813.5286,227.568,825.5286,215.568,837.5286,203.568,825.5286,215.568,813.5286" style="stroke:#000000;stroke-width:1.0;"/><ellipse cx="215.568" cy="868.5286" fill="none" rx="11" ry="11" style="stroke:#000000;stroke-width:1.0;"/><ellipse cx="215.568" cy="868.5286" fill="#FFFFFF" rx="6" ry="6" style="stroke:#000000;stroke-width:1.0;"/><line style="stroke:#000000;stroke-width:1.0;" x1="215.568" x2="215.568" y1="176.0056" y2="196.0056"/><polygon fill="#000000" points="211.568,186.0056,215.568,196.0056,219.568,186.0056,215.568,190.0056" style="stroke:#000000;stroke-width:1.0;"/><line style="stroke:#000000;stroke-width:1.0;" x1="215.568" x2="215.568" y1="333.8579" y2="353.8579"/><polygon fill="#000000" points="211.568,343.8579,215.568,353.8579,219.568,343.8579,215.568,347.8579" style="stroke:#000000;stroke-width:1.0;"/><line style="stroke:#000000;stroke-width:1.0;" x1="215.568" x2="215.568" y1="388.4419" y2="408.4419"/><polygon fill="#000000" points="211.568,398.4419,215.568,408.4419,219.568,398.4419,215.568,402.4419" style="stroke:#000000;stroke-width:1.0;"/><line style="stroke:#000000;stroke-width:1.0;" x1="215.568" x2="215.568" y1="443.0259" y2="472.6335"/><polygon fill="#000000" points="211.568,462.6335,215.568,472.6335,219.568,462.6335,215.568,466.6335" style="stroke:#000000;stroke-width:1.0;"/><line style="stroke:#000000;stroke-width:1.0;" x1="215.568" x2="215.568" y1="507.2175" y2="527.2175"/><polygon fill="#000000" points="211.568,517.2175,215.568,527.2175,219.568,517.2175,215.568,521.2175" style="stroke:#000000;stroke-width:1.0;"/><line style="stroke:#000000;stroke-width:1.0;" x1="215.568" x2="215.568" y1="605.8015" y2="638.3606"/><polygon fill="#000000" points="211.568,628.3606,215.568,638.3606,219.568,628.3606,215.568,632.3606" style="stroke:#000000;stroke-width:1.0;"/><line style="stroke:#000000;stroke-width:1.0;" x1="215.568" x2="215.568" y1="672.9446" y2="682.9446"/><line style="stroke:#000000;stroke-width:1.0;" x1="215.568" x2="302.3534" y1="682.9446" y2="682.9446"/><polygon fill="#000000" points="298.3534,646.9683,302.3534,636.9683,306.3534,646.9683,302.3534,642.9683" style="stroke:#000000;stroke-width:1.0;"/><line style="stroke:#000000;stroke-width:1.0;" x1="302.3534" x2="302.3534" y1="593.8015" y2="682.9446"/><line style="stroke:#000000;stroke-width:1.0;" x1="302.3534" x2="290.3534" y1="593.8015" y2="593.8015"/><polygon fill="#000000" points="300.3534,589.8015,290.3534,593.8015,300.3534,597.8015,296.3534,593.8015" style="stroke:#000000;stroke-width:1.0;"/><line style="stroke:#000000;stroke-width:1.0;" x1="140.7826" x2="128.7826" y1="593.8015" y2="593.8015"/><polygon fill="#000000" points="124.7826,632.9683,128.7826,642.9683,132.7826,632.9683,128.7826,636.9683" style="stroke:#000000;stroke-width:1.0;"/><line style="stroke:#000000;stroke-width:1.0;" x1="128.7826" x2="128.7826" y1="593.8015" y2="694.9446"/><line style="stroke:#000000;stroke-width:1.0;" x1="128.7826" x2="215.568" y1="694.9446" y2="694.9446"/><line style="stroke:#000000;stroke-width:1.0;" x1="215.568" x2="215.568" y1="694.9446" y2="714.9446"/><polygon fill="#000000" points="211.568,704.9446,215.568,714.9446,219.568,704.9446,215.568,708.9446" style="stroke:#000000;stroke-width:1.0;"/><line style="stroke:#000000;stroke-width:1.0;" x1="215.568" x2="215.568" y1="561.8015" y2="581.8015"/><polygon fill="#000000" points="211.568,571.8015,215.568,581.8015,219.568,571.8015,215.568,575.8015" style="stroke:#000000;stroke-width:1.0;"/><line style="stroke:#000000;stroke-width:1.0;" x1="215.568" x2="215.568" y1="274.5896" y2="299.2739"/><polygon fill="#000000" points="211.568,289.2739,215.568,299.2739,219.568,289.2739,215.568,293.2739" style="stroke:#000000;stroke-width:1.0;"/><line style="stroke:#000000;stroke-width:1.0;" x1="304.799" x2="318.7389" y1="262.5896" y2="262.5896"/><polygon fill="#000000" points="314.7389,487.8179,318.7389,497.8179,322.7389,487.8179,318.7389,491.8179" style="stroke:#000000;stroke-width:1.0;"/><line style="stroke:#000000;stroke-width:1.0;" x1="318.7389" x2="318.7389" y1="262.5896" y2="726.9446"/><line style="stroke:#000000;stroke-width:1.0;" x1="318.7389" x2="227.568" y1="726.9446" y2="726.9446"/><polygon fill="#000000" points="237.568,722.9446,227.568,726.9446,237.568,730.9446,233.568,726.9446" style="stroke:#000000;stroke-width:1.0;"/><line style="stroke:#000000;stroke-width:1.0;" x1="215.568" x2="215.568" y1="230.5896" y2="250.5896"/><polygon fill="#000000" points="211.568,240.5896,215.568,250.5896,219.568,240.5896,215.568,244.5896" style="stroke:#000000;stroke-width:1.0;"/><line style="stroke:#000000;stroke-width:1.0;" x1="215.568" x2="215.568" y1="738.9446" y2="758.9446"/><polygon fill="#000000" points="211.568,748.9446,215.568,758.9446,219.568,748.9446,215.568,752.9446" style="stroke:#000000;stroke-width:1.0;"/><line style="stroke:#000000;stroke-width:1.0;" x1="215.568" x2="215.568" y1="116.7373" y2="141.4216"/><polygon fill="#000000" points="211.568,131.4216,215.568,141.4216,219.568,131.4216,215.568,135.4216" style="stroke:#000000;stroke-width:1.0;"/><line style="stroke:#000000;stroke-width:1.0;" x1="271.2968" x2="336.7389" y1="104.7373" y2="104.7373"/><polygon fill="#000000" points="332.7389,453.0259,336.7389,463.0259,340.7389,453.0259,336.7389,457.0259" style="stroke:#000000;stroke-width:1.0;"/><line style="stroke:#000000;stroke-width:1.0;" x1="336.7389" x2="336.7389" y1="104.7373" y2="825.5286"/><line style="stroke:#000000;stroke-width:1.0;" x1="336.7389" x2="227.568" y1="825.5286" y2="825.5286"/><polygon fill="#000000" points="237.568,821.5286,227.568,825.5286,237.568,829.5286,233.568,825.5286" style="stroke:#000000;stroke-width:1.0;"/><line style="stroke:#000000;stroke-width:1.0;" x1="215.568" x2="215.568" y1="793.5286" y2="813.5286"/><polygon fill="#000000" points="211.568,803.5286,215.568,813.5286,219.568,803.5286,215.568,807.5286" style="stroke:#000000;stroke-width:1.0;"/><line style="stroke:#000000;stroke-width:1.0;" x1="215.568" x2="215.568" y1="72.7373" y2="92.7373"/><polygon fill="#000000" points="211.568,82.7373,215.568,92.7373,219.568,82.7373,215.568,86.7373" style="stroke:#000000;stroke-width:1.0;"/><line style="stroke:#000000;stroke-width:1.0;" x1="215.568" x2="215.568" y1="837.5286" y2="857.5286"/><polygon fill="#000000" points="211.568,847.5286,215.568,857.5286,219.568,847.5286,215.568,851.5286" style="stroke:#000000;stroke-width:1.0;"/><!--SRC=[RP3BJWCn34Nt-Ggpc_u2B50PWTZmK0jY7SLk9r9gZnnFf_rxaXOOrEag3ryVNzyRwsX7q2SVsLcqHF11wbcGu55L59uzOugyXQSaO-YycdFPwX4tq9mrRo4CgeJt2oWyXkP8UU40RbibRvV8krfP8a8hR7Im-gwiLYNdEcbDke-1u446Hg_7Isnf_rBVWy-mNRst4xKKriGu_rrHeBYdUU6JnqgwrY2SJOTWLzm3Z5qiKJKlelIx1hmIuIc3cFzPdUyAK3p-05YgYbAUxennKnCw1VytT9AS1TcaTzy0]--></g></svg>
